<?xml version="1.0" encoding="UTF-8" standalone="no"?>
<!DOCTYPE svg PUBLIC "-//W3C//DTD SVG 1.1//EN"
 "http://www.w3.org/Graphics/SVG/1.1/DTD/svg11.dtd">
<!-- Generated by graphviz version 2.38.0 (20140413.2041)
 -->
<!-- Title: src/structural/src/proxy/graphic_interface.h Pages: 1 -->
<svg width="174pt" height="151pt"
 viewBox="0.00 0.00 174.00 151.00" xmlns="http://www.w3.org/2000/svg" xmlns:xlink="http://www.w3.org/1999/xlink">
<g id="graph0" class="graph" transform="scale(1 1) rotate(0) translate(4 147)">
<title>src/structural/src/proxy/graphic_interface.h</title>
<polygon fill="white" stroke="none" points="-4,4 -4,-147 170,-147 170,4 -4,4"/>
<!-- Node1 -->
<g id="node1" class="node"><title>Node1</title>
<polygon fill="#bfbfbf" stroke="black" points="5.5,-112.5 5.5,-142.5 133.5,-142.5 133.5,-112.5 5.5,-112.5"/>
<text text-anchor="start" x="13.5" y="-130.5" font-family="Helvetica,sans-Serif" font-size="10.00">src/structural/src</text>
<text text-anchor="middle" x="69.5" y="-119.5" font-family="Helvetica,sans-Serif" font-size="10.00">/proxy/graphic_interface.h</text>
</g>
<!-- Node2 -->
<g id="node2" class="node"><title>Node2</title>
<g id="a_node2"><a xlink:href="../../dd/d20/event_8h.html" target="_top" xlink:title="event.h">
<polygon fill="white" stroke="black" points="0,-56.5 0,-75.5 47,-75.5 47,-56.5 0,-56.5"/>
<text text-anchor="middle" x="23.5" y="-63.5" font-family="Helvetica,sans-Serif" font-size="10.00">event.h</text>
</a>
</g>
</g>
<!-- Node1&#45;&gt;Node2 -->
<g id="edge1" class="edge"><title>Node1&#45;&gt;Node2</title>
<path fill="none" stroke="midnightblue" d="M58.5986,-112.399C51.9143,-103.753 43.324,-92.642 36.315,-83.576"/>
<polygon fill="midnightblue" stroke="midnightblue" points="39.0788,-81.4284 30.1934,-75.6578 33.5408,-85.7099 39.0788,-81.4284"/>
</g>
<!-- Node3 -->
<g id="node3" class="node"><title>Node3</title>
<g id="a_node3"><a xlink:href="../../d2/d91/point_8h.html" target="_top" xlink:title="../commons/point.h">
<polygon fill="white" stroke="black" points="65,-56.5 65,-75.5 166,-75.5 166,-56.5 65,-56.5"/>
<text text-anchor="middle" x="115.5" y="-63.5" font-family="Helvetica,sans-Serif" font-size="10.00">../commons/point.h</text>
</a>
</g>
</g>
<!-- Node1&#45;&gt;Node3 -->
<g id="edge2" class="edge"><title>Node1&#45;&gt;Node3</title>
<path fill="none" stroke="midnightblue" d="M80.4014,-112.399C87.0857,-103.753 95.676,-92.642 102.685,-83.576"/>
<polygon fill="midnightblue" stroke="midnightblue" points="105.459,-85.7099 108.807,-75.6578 99.9212,-81.4284 105.459,-85.7099"/>
</g>
<!-- Node4 -->
<g id="node4" class="node"><title>Node4</title>
<polygon fill="white" stroke="#bfbfbf" points="88.5,-0.5 88.5,-19.5 142.5,-19.5 142.5,-0.5 88.5,-0.5"/>
<text text-anchor="middle" x="115.5" y="-7.5" font-family="Helvetica,sans-Serif" font-size="10.00">iostream</text>
</g>
<!-- Node3&#45;&gt;Node4 -->
<g id="edge3" class="edge"><title>Node3&#45;&gt;Node4</title>
<path fill="none" stroke="midnightblue" d="M115.5,-56.083C115.5,-49.0059 115.5,-38.8611 115.5,-29.9865"/>
<polygon fill="midnightblue" stroke="midnightblue" points="119,-29.751 115.5,-19.7511 112,-29.7511 119,-29.751"/>
</g>
</g>
</svg>
