<?xml version="1.0" encoding="UTF-8" standalone="no"?>
<!DOCTYPE svg PUBLIC "-//W3C//DTD SVG 1.1//EN"
 "http://www.w3.org/Graphics/SVG/1.1/DTD/svg11.dtd">
<!-- Generated by graphviz version 2.38.0 (20140413.2041)
 -->
<!-- Title: operational::command::MacroCommand::Execute Pages: 1 -->
<svg width="305pt" height="186pt"
 viewBox="0.00 0.00 305.00 186.00" xmlns="http://www.w3.org/2000/svg" xmlns:xlink="http://www.w3.org/1999/xlink">
<g id="graph0" class="graph" transform="scale(1 1) rotate(0) translate(4 182)">
<title>operational::command::MacroCommand::Execute</title>
<polygon fill="white" stroke="none" points="-4,4 -4,-182 301,-182 301,4 -4,4"/>
<!-- Node1 -->
<g id="node1" class="node"><title>Node1</title>
<polygon fill="#bfbfbf" stroke="black" points="0,-73.5 0,-103.5 136,-103.5 136,-73.5 0,-73.5"/>
<text text-anchor="start" x="8" y="-91.5" font-family="Helvetica,sans-Serif" font-size="10.00">operational::command</text>
<text text-anchor="middle" x="68" y="-80.5" font-family="Helvetica,sans-Serif" font-size="10.00">::MacroCommand::Execute</text>
</g>
<!-- Node2 -->
<g id="node2" class="node"><title>Node2</title>
<g id="a_node2"><a xlink:href="../../da/d8a/classoperational_1_1iterator_1_1_list_iterator.html#af957220a47026d5126a8220ada421352" target="_top" xlink:title="operational::iterator\l::ListIterator::First">
<polygon fill="white" stroke="black" points="184.5,-147.5 184.5,-177.5 284.5,-177.5 284.5,-147.5 184.5,-147.5"/>
<text text-anchor="start" x="192.5" y="-165.5" font-family="Helvetica,sans-Serif" font-size="10.00">operational::iterator</text>
<text text-anchor="middle" x="234.5" y="-154.5" font-family="Helvetica,sans-Serif" font-size="10.00">::ListIterator::First</text>
</a>
</g>
</g>
<!-- Node1&#45;&gt;Node2 -->
<g id="edge1" class="edge"><title>Node1&#45;&gt;Node2</title>
<path fill="none" stroke="midnightblue" d="M98.4559,-103.575C118.897,-113.844 146.864,-127.515 172,-138.5 175.899,-140.204 179.96,-141.918 184.055,-143.604"/>
<polygon fill="midnightblue" stroke="midnightblue" points="183.027,-146.964 193.61,-147.469 185.652,-140.475 183.027,-146.964"/>
</g>
<!-- Node3 -->
<g id="node3" class="node"><title>Node3</title>
<g id="a_node3"><a xlink:href="../../da/d8a/classoperational_1_1iterator_1_1_list_iterator.html#a7aabc4cc183b3c49e6e135514f271c0e" target="_top" xlink:title="operational::iterator\l::ListIterator::IsDone">
<polygon fill="white" stroke="black" points="182.5,-98.5 182.5,-128.5 286.5,-128.5 286.5,-98.5 182.5,-98.5"/>
<text text-anchor="start" x="190.5" y="-116.5" font-family="Helvetica,sans-Serif" font-size="10.00">operational::iterator</text>
<text text-anchor="middle" x="234.5" y="-105.5" font-family="Helvetica,sans-Serif" font-size="10.00">::ListIterator::IsDone</text>
</a>
</g>
</g>
<!-- Node1&#45;&gt;Node3 -->
<g id="edge2" class="edge"><title>Node1&#45;&gt;Node3</title>
<path fill="none" stroke="midnightblue" d="M136.383,-98.7406C148.255,-100.545 160.555,-102.414 172.248,-104.191"/>
<polygon fill="midnightblue" stroke="midnightblue" points="171.929,-107.683 182.341,-105.725 172.981,-100.762 171.929,-107.683"/>
</g>
<!-- Node4 -->
<g id="node4" class="node"><title>Node4</title>
<g id="a_node4"><a xlink:href="../../da/d8a/classoperational_1_1iterator_1_1_list_iterator.html#a375f2f3451b40f2d7477d03e4f5c9676" target="_top" xlink:title="operational::iterator\l::ListIterator::Next">
<polygon fill="white" stroke="black" points="184.5,-49.5 184.5,-79.5 284.5,-79.5 284.5,-49.5 184.5,-49.5"/>
<text text-anchor="start" x="192.5" y="-67.5" font-family="Helvetica,sans-Serif" font-size="10.00">operational::iterator</text>
<text text-anchor="middle" x="234.5" y="-56.5" font-family="Helvetica,sans-Serif" font-size="10.00">::ListIterator::Next</text>
</a>
</g>
</g>
<!-- Node1&#45;&gt;Node4 -->
<g id="edge3" class="edge"><title>Node1&#45;&gt;Node4</title>
<path fill="none" stroke="midnightblue" d="M136.383,-78.669C148.861,-76.8486 161.81,-74.9593 174.031,-73.1763"/>
<polygon fill="midnightblue" stroke="midnightblue" points="174.709,-76.6145 184.099,-71.7074 173.699,-69.6878 174.709,-76.6145"/>
</g>
<!-- Node5 -->
<g id="node5" class="node"><title>Node5</title>
<g id="a_node5"><a xlink:href="../../da/d8a/classoperational_1_1iterator_1_1_list_iterator.html#abb9ec87938406dd6f4c77bae016e8a8a" target="_top" xlink:title="operational::iterator\l::ListIterator::CurrentItem">
<polygon fill="white" stroke="black" points="172,-0.5 172,-30.5 297,-30.5 297,-0.5 172,-0.5"/>
<text text-anchor="start" x="180" y="-18.5" font-family="Helvetica,sans-Serif" font-size="10.00">operational::iterator</text>
<text text-anchor="middle" x="234.5" y="-7.5" font-family="Helvetica,sans-Serif" font-size="10.00">::ListIterator::CurrentItem</text>
</a>
</g>
</g>
<!-- Node1&#45;&gt;Node5 -->
<g id="edge4" class="edge"><title>Node1&#45;&gt;Node5</title>
<path fill="none" stroke="midnightblue" d="M100.37,-73.3841C120.682,-63.7204 147.767,-51.0643 172,-40.5 176.636,-38.4792 181.489,-36.4168 186.348,-34.3863"/>
<polygon fill="midnightblue" stroke="midnightblue" points="187.744,-37.5967 195.647,-30.5403 185.069,-31.1281 187.744,-37.5967"/>
</g>
</g>
</svg>
