<?xml version="1.0" encoding="UTF-8" standalone="no"?>
<!DOCTYPE svg PUBLIC "-//W3C//DTD SVG 1.1//EN"
 "http://www.w3.org/Graphics/SVG/1.1/DTD/svg11.dtd">
<!-- Generated by graphviz version 2.38.0 (20140413.2041)
 -->
<!-- Title: structural::facade::ProgramNodeInterface Pages: 1 -->
<svg width="383pt" height="292pt"
 viewBox="0.00 0.00 383.00 292.00" xmlns="http://www.w3.org/2000/svg" xmlns:xlink="http://www.w3.org/1999/xlink">
<g id="graph0" class="graph" transform="scale(1 1) rotate(0) translate(4 288)">
<title>structural::facade::ProgramNodeInterface</title>
<polygon fill="white" stroke="none" points="-4,4 -4,-288 379,-288 379,4 -4,4"/>
<!-- Node1 -->
<g id="node1" class="node"><title>Node1</title>
<polygon fill="#bfbfbf" stroke="black" points="120.5,-171.5 120.5,-283.5 254.5,-283.5 254.5,-171.5 120.5,-171.5"/>
<text text-anchor="start" x="128.5" y="-271.5" font-family="Helvetica,sans-Serif" font-size="10.00">structural::facade</text>
<text text-anchor="middle" x="187.5" y="-260.5" font-family="Helvetica,sans-Serif" font-size="10.00">::ProgramNodeInterface</text>
<polyline fill="none" stroke="black" points="120.5,-253.5 254.5,-253.5 "/>
<text text-anchor="middle" x="187.5" y="-241.5" font-family="Helvetica,sans-Serif" font-size="10.00"> </text>
<polyline fill="none" stroke="black" points="120.5,-234.5 254.5,-234.5 "/>
<text text-anchor="start" x="128.5" y="-222.5" font-family="Helvetica,sans-Serif" font-size="10.00">+ ~ProgramNodeInterface()</text>
<text text-anchor="start" x="128.5" y="-211.5" font-family="Helvetica,sans-Serif" font-size="10.00">+ GetSourcePosition()</text>
<text text-anchor="start" x="128.5" y="-200.5" font-family="Helvetica,sans-Serif" font-size="10.00">+ Add()</text>
<text text-anchor="start" x="128.5" y="-189.5" font-family="Helvetica,sans-Serif" font-size="10.00">+ Remove()</text>
<text text-anchor="start" x="128.5" y="-178.5" font-family="Helvetica,sans-Serif" font-size="10.00">+ Traverse()</text>
</g>
<!-- Node2 -->
<g id="node2" class="node"><title>Node2</title>
<g id="a_node2"><a xlink:href="../../d4/ddf/classstructural_1_1facade_1_1_expression_node.html" target="_top" xlink:title="{structural::facade\l::ExpressionNode\n|# children_\l|+ ExpressionNode()\l+ GetSourcePosition()\l+ Add()\l+ Remove()\l+ Traverse()\l}">
<polygon fill="white" stroke="black" points="0,-11.5 0,-123.5 113,-123.5 113,-11.5 0,-11.5"/>
<text text-anchor="start" x="8" y="-111.5" font-family="Helvetica,sans-Serif" font-size="10.00">structural::facade</text>
<text text-anchor="middle" x="56.5" y="-100.5" font-family="Helvetica,sans-Serif" font-size="10.00">::ExpressionNode</text>
<polyline fill="none" stroke="black" points="0,-93.5 113,-93.5 "/>
<text text-anchor="start" x="8" y="-81.5" font-family="Helvetica,sans-Serif" font-size="10.00"># children_</text>
<polyline fill="none" stroke="black" points="0,-74.5 113,-74.5 "/>
<text text-anchor="start" x="8" y="-62.5" font-family="Helvetica,sans-Serif" font-size="10.00">+ ExpressionNode()</text>
<text text-anchor="start" x="8" y="-51.5" font-family="Helvetica,sans-Serif" font-size="10.00">+ GetSourcePosition()</text>
<text text-anchor="start" x="8" y="-40.5" font-family="Helvetica,sans-Serif" font-size="10.00">+ Add()</text>
<text text-anchor="start" x="8" y="-29.5" font-family="Helvetica,sans-Serif" font-size="10.00">+ Remove()</text>
<text text-anchor="start" x="8" y="-18.5" font-family="Helvetica,sans-Serif" font-size="10.00">+ Traverse()</text>
</a>
</g>
</g>
<!-- Node1&#45;&gt;Node2 -->
<g id="edge1" class="edge"><title>Node1&#45;&gt;Node2</title>
<path fill="none" stroke="midnightblue" d="M135.015,-163.197C124.185,-150.135 112.861,-136.477 102.292,-123.73"/>
<polygon fill="none" stroke="midnightblue" points="132.606,-165.775 141.683,-171.239 137.994,-161.307 132.606,-165.775"/>
</g>
<!-- Node3 -->
<g id="node3" class="node"><title>Node3</title>
<g id="a_node3"><a xlink:href="../../d1/de1/classstructural_1_1facade_1_1_statement_node.html" target="_top" xlink:title="{structural::facade\l::StatementNode\n|# children_\l|+ StatementNode()\l+ GetSourcePosition()\l+ Add()\l+ Remove()\l+ Traverse()\l}">
<polygon fill="white" stroke="black" points="131,-11.5 131,-123.5 244,-123.5 244,-11.5 131,-11.5"/>
<text text-anchor="start" x="139" y="-111.5" font-family="Helvetica,sans-Serif" font-size="10.00">structural::facade</text>
<text text-anchor="middle" x="187.5" y="-100.5" font-family="Helvetica,sans-Serif" font-size="10.00">::StatementNode</text>
<polyline fill="none" stroke="black" points="131,-93.5 244,-93.5 "/>
<text text-anchor="start" x="139" y="-81.5" font-family="Helvetica,sans-Serif" font-size="10.00"># children_</text>
<polyline fill="none" stroke="black" points="131,-74.5 244,-74.5 "/>
<text text-anchor="start" x="139" y="-62.5" font-family="Helvetica,sans-Serif" font-size="10.00">+ StatementNode()</text>
<text text-anchor="start" x="139" y="-51.5" font-family="Helvetica,sans-Serif" font-size="10.00">+ GetSourcePosition()</text>
<text text-anchor="start" x="139" y="-40.5" font-family="Helvetica,sans-Serif" font-size="10.00">+ Add()</text>
<text text-anchor="start" x="139" y="-29.5" font-family="Helvetica,sans-Serif" font-size="10.00">+ Remove()</text>
<text text-anchor="start" x="139" y="-18.5" font-family="Helvetica,sans-Serif" font-size="10.00">+ Traverse()</text>
</a>
</g>
</g>
<!-- Node1&#45;&gt;Node3 -->
<g id="edge2" class="edge"><title>Node1&#45;&gt;Node3</title>
<path fill="none" stroke="midnightblue" d="M187.5,-160.974C187.5,-148.592 187.5,-135.756 187.5,-123.73"/>
<polygon fill="none" stroke="midnightblue" points="184,-161.239 187.5,-171.239 191,-161.239 184,-161.239"/>
</g>
<!-- Node4 -->
<g id="node4" class="node"><title>Node4</title>
<g id="a_node4"><a xlink:href="../../d7/dc1/classstructural_1_1facade_1_1_variable_node.html" target="_top" xlink:title="{structural::facade\l::VariableNode\n|# children_\l# name_\l|+ VariableNode()\l+ GetSourcePosition()\l+ Add()\l+ Remove()\l+ Traverse()\l+ name()\l}">
<polygon fill="white" stroke="black" points="262,-0.5 262,-134.5 375,-134.5 375,-0.5 262,-0.5"/>
<text text-anchor="start" x="270" y="-122.5" font-family="Helvetica,sans-Serif" font-size="10.00">structural::facade</text>
<text text-anchor="middle" x="318.5" y="-111.5" font-family="Helvetica,sans-Serif" font-size="10.00">::VariableNode</text>
<polyline fill="none" stroke="black" points="262,-104.5 375,-104.5 "/>
<text text-anchor="start" x="270" y="-92.5" font-family="Helvetica,sans-Serif" font-size="10.00"># children_</text>
<text text-anchor="start" x="270" y="-81.5" font-family="Helvetica,sans-Serif" font-size="10.00"># name_</text>
<polyline fill="none" stroke="black" points="262,-74.5 375,-74.5 "/>
<text text-anchor="start" x="270" y="-62.5" font-family="Helvetica,sans-Serif" font-size="10.00">+ VariableNode()</text>
<text text-anchor="start" x="270" y="-51.5" font-family="Helvetica,sans-Serif" font-size="10.00">+ GetSourcePosition()</text>
<text text-anchor="start" x="270" y="-40.5" font-family="Helvetica,sans-Serif" font-size="10.00">+ Add()</text>
<text text-anchor="start" x="270" y="-29.5" font-family="Helvetica,sans-Serif" font-size="10.00">+ Remove()</text>
<text text-anchor="start" x="270" y="-18.5" font-family="Helvetica,sans-Serif" font-size="10.00">+ Traverse()</text>
<text text-anchor="start" x="270" y="-7.5" font-family="Helvetica,sans-Serif" font-size="10.00">+ name()</text>
</a>
</g>
</g>
<!-- Node1&#45;&gt;Node4 -->
<g id="edge3" class="edge"><title>Node1&#45;&gt;Node4</title>
<path fill="none" stroke="midnightblue" d="M239.84,-163.372C247.691,-153.903 255.806,-144.116 263.706,-134.587"/>
<polygon fill="none" stroke="midnightblue" points="237.006,-161.307 233.317,-171.239 242.394,-165.775 237.006,-161.307"/>
</g>
</g>
</svg>
