<?xml version="1.0" encoding="UTF-8" standalone="no"?>
<!DOCTYPE svg PUBLIC "-//W3C//DTD SVG 1.1//EN"
 "http://www.w3.org/Graphics/SVG/1.1/DTD/svg11.dtd">
<!-- Generated by graphviz version 2.38.0 (20140413.2041)
 -->
<!-- Title: operational::visitor::EquipmentVisitorInterface Pages: 1 -->
<svg width="226pt" height="281pt"
 viewBox="0.00 0.00 226.00 281.00" xmlns="http://www.w3.org/2000/svg" xmlns:xlink="http://www.w3.org/1999/xlink">
<g id="graph0" class="graph" transform="scale(1 1) rotate(0) translate(4 277)">
<title>operational::visitor::EquipmentVisitorInterface</title>
<polygon fill="white" stroke="none" points="-4,4 -4,-277 222,-277 222,4 -4,4"/>
<!-- Node1 -->
<g id="node1" class="node"><title>Node1</title>
<polygon fill="#bfbfbf" stroke="black" points="34.5,-160.5 34.5,-272.5 183.5,-272.5 183.5,-160.5 34.5,-160.5"/>
<text text-anchor="start" x="42.5" y="-260.5" font-family="Helvetica,sans-Serif" font-size="10.00">operational::visitor</text>
<text text-anchor="middle" x="109" y="-249.5" font-family="Helvetica,sans-Serif" font-size="10.00">::EquipmentVisitorInterface</text>
<polyline fill="none" stroke="black" points="34.5,-242.5 183.5,-242.5 "/>
<text text-anchor="middle" x="109" y="-230.5" font-family="Helvetica,sans-Serif" font-size="10.00"> </text>
<polyline fill="none" stroke="black" points="34.5,-223.5 183.5,-223.5 "/>
<text text-anchor="start" x="42.5" y="-211.5" font-family="Helvetica,sans-Serif" font-size="10.00">+ ~EquipmentVisitorInterface()</text>
<text text-anchor="start" x="42.5" y="-200.5" font-family="Helvetica,sans-Serif" font-size="10.00">+ VisitFloppyDisk()</text>
<text text-anchor="start" x="42.5" y="-189.5" font-family="Helvetica,sans-Serif" font-size="10.00">+ VisitCard()</text>
<text text-anchor="start" x="42.5" y="-178.5" font-family="Helvetica,sans-Serif" font-size="10.00">+ VisitChassis()</text>
<text text-anchor="start" x="42.5" y="-167.5" font-family="Helvetica,sans-Serif" font-size="10.00">+ VisitBus()</text>
</g>
<!-- Node2 -->
<g id="node2" class="node"><title>Node2</title>
<g id="a_node2"><a xlink:href="../../d4/dc2/classoperational_1_1visitor_1_1_inventory_visitor.html" target="_top" xlink:title="{operational::visitor\l::InventoryVisitor\n||+ InventoryVisitor()\l+ GetInventory()\l+ VisitFloppyDisk()\l+ VisitCard()\l+ VisitChassis()\l+ VisitBus()\l}">
<polygon fill="white" stroke="black" points="0,-0.5 0,-123.5 100,-123.5 100,-0.5 0,-0.5"/>
<text text-anchor="start" x="8" y="-111.5" font-family="Helvetica,sans-Serif" font-size="10.00">operational::visitor</text>
<text text-anchor="middle" x="50" y="-100.5" font-family="Helvetica,sans-Serif" font-size="10.00">::InventoryVisitor</text>
<polyline fill="none" stroke="black" points="0,-93.5 100,-93.5 "/>
<text text-anchor="middle" x="50" y="-81.5" font-family="Helvetica,sans-Serif" font-size="10.00"> </text>
<polyline fill="none" stroke="black" points="0,-74.5 100,-74.5 "/>
<text text-anchor="start" x="8" y="-62.5" font-family="Helvetica,sans-Serif" font-size="10.00">+ InventoryVisitor()</text>
<text text-anchor="start" x="8" y="-51.5" font-family="Helvetica,sans-Serif" font-size="10.00">+ GetInventory()</text>
<text text-anchor="start" x="8" y="-40.5" font-family="Helvetica,sans-Serif" font-size="10.00">+ VisitFloppyDisk()</text>
<text text-anchor="start" x="8" y="-29.5" font-family="Helvetica,sans-Serif" font-size="10.00">+ VisitCard()</text>
<text text-anchor="start" x="8" y="-18.5" font-family="Helvetica,sans-Serif" font-size="10.00">+ VisitChassis()</text>
<text text-anchor="start" x="8" y="-7.5" font-family="Helvetica,sans-Serif" font-size="10.00">+ VisitBus()</text>
</a>
</g>
</g>
<!-- Node1&#45;&gt;Node2 -->
<g id="edge1" class="edge"><title>Node1&#45;&gt;Node2</title>
<path fill="none" stroke="midnightblue" d="M84.0761,-151.078C80.5597,-141.989 76.9544,-132.67 73.4667,-123.655"/>
<polygon fill="none" stroke="midnightblue" points="80.8271,-152.381 87.6996,-160.444 87.3556,-149.855 80.8271,-152.381"/>
</g>
<!-- Node3 -->
<g id="node3" class="node"><title>Node3</title>
<g id="a_node3"><a xlink:href="../../d6/d7b/classoperational_1_1visitor_1_1_pricing_visitor.html" target="_top" xlink:title="{operational::visitor\l::PricingVisitor\n||+ PricingVisitor()\l+ GetTotalPrice()\l+ VisitFloppyDisk()\l+ VisitCard()\l+ VisitChassis()\l+ VisitBus()\l}">
<polygon fill="white" stroke="black" points="118,-0.5 118,-123.5 218,-123.5 218,-0.5 118,-0.5"/>
<text text-anchor="start" x="126" y="-111.5" font-family="Helvetica,sans-Serif" font-size="10.00">operational::visitor</text>
<text text-anchor="middle" x="168" y="-100.5" font-family="Helvetica,sans-Serif" font-size="10.00">::PricingVisitor</text>
<polyline fill="none" stroke="black" points="118,-93.5 218,-93.5 "/>
<text text-anchor="middle" x="168" y="-81.5" font-family="Helvetica,sans-Serif" font-size="10.00"> </text>
<polyline fill="none" stroke="black" points="118,-74.5 218,-74.5 "/>
<text text-anchor="start" x="126" y="-62.5" font-family="Helvetica,sans-Serif" font-size="10.00">+ PricingVisitor()</text>
<text text-anchor="start" x="126" y="-51.5" font-family="Helvetica,sans-Serif" font-size="10.00">+ GetTotalPrice()</text>
<text text-anchor="start" x="126" y="-40.5" font-family="Helvetica,sans-Serif" font-size="10.00">+ VisitFloppyDisk()</text>
<text text-anchor="start" x="126" y="-29.5" font-family="Helvetica,sans-Serif" font-size="10.00">+ VisitCard()</text>
<text text-anchor="start" x="126" y="-18.5" font-family="Helvetica,sans-Serif" font-size="10.00">+ VisitChassis()</text>
<text text-anchor="start" x="126" y="-7.5" font-family="Helvetica,sans-Serif" font-size="10.00">+ VisitBus()</text>
</a>
</g>
</g>
<!-- Node1&#45;&gt;Node3 -->
<g id="edge2" class="edge"><title>Node1&#45;&gt;Node3</title>
<path fill="none" stroke="midnightblue" d="M133.924,-151.078C137.44,-141.989 141.046,-132.67 144.533,-123.655"/>
<polygon fill="none" stroke="midnightblue" points="130.644,-149.855 130.3,-160.444 137.173,-152.381 130.644,-149.855"/>
</g>
</g>
</svg>
