<?xml version="1.0" encoding="UTF-8" standalone="no"?>
<!DOCTYPE svg PUBLIC "-//W3C//DTD SVG 1.1//EN"
 "http://www.w3.org/Graphics/SVG/1.1/DTD/svg11.dtd">
<!-- Generated by graphviz version 2.38.0 (20140413.2041)
 -->
<!-- Title: src/operational/src/iterator/print_n_employees.cc Pages: 1 -->
<svg width="217pt" height="319pt"
 viewBox="0.00 0.00 216.50 319.00" xmlns="http://www.w3.org/2000/svg" xmlns:xlink="http://www.w3.org/1999/xlink">
<g id="graph0" class="graph" transform="scale(1 1) rotate(0) translate(4 315)">
<title>src/operational/src/iterator/print_n_employees.cc</title>
<polygon fill="white" stroke="none" points="-4,4 -4,-315 212.5,-315 212.5,4 -4,4"/>
<!-- Node1 -->
<g id="node1" class="node"><title>Node1</title>
<polygon fill="#bfbfbf" stroke="black" points="0.5,-280.5 0.5,-310.5 148.5,-310.5 148.5,-280.5 0.5,-280.5"/>
<text text-anchor="start" x="8.5" y="-298.5" font-family="Helvetica,sans-Serif" font-size="10.00">src/operational/src</text>
<text text-anchor="middle" x="74.5" y="-287.5" font-family="Helvetica,sans-Serif" font-size="10.00">/iterator/print_n_employees.cc</text>
</g>
<!-- Node2 -->
<g id="node2" class="node"><title>Node2</title>
<g id="a_node2"><a xlink:href="../../dc/d13/employee_8h.html" target="_top" xlink:title="employee.h">
<polygon fill="white" stroke="black" points="0,-168.5 0,-187.5 67,-187.5 67,-168.5 0,-168.5"/>
<text text-anchor="middle" x="33.5" y="-175.5" font-family="Helvetica,sans-Serif" font-size="10.00">employee.h</text>
</a>
</g>
</g>
<!-- Node1&#45;&gt;Node2 -->
<g id="edge1" class="edge"><title>Node1&#45;&gt;Node2</title>
<path fill="none" stroke="midnightblue" d="M67.652,-280.112C63.0375,-270.113 56.9958,-256.408 52.5,-244 46.8678,-228.456 41.6901,-210.375 38.1671,-197.235"/>
<polygon fill="midnightblue" stroke="midnightblue" points="41.5431,-196.311 35.6233,-187.524 34.7715,-198.085 41.5431,-196.311"/>
</g>
<!-- Node4 -->
<g id="node4" class="node"><title>Node4</title>
<g id="a_node4"><a xlink:href="../../d1/dfc/print__n__employees_8h.html" target="_top" xlink:title="print_n_employees.h">
<polygon fill="white" stroke="black" points="62,-224.5 62,-243.5 169,-243.5 169,-224.5 62,-224.5"/>
<text text-anchor="middle" x="115.5" y="-231.5" font-family="Helvetica,sans-Serif" font-size="10.00">print_n_employees.h</text>
</a>
</g>
</g>
<!-- Node1&#45;&gt;Node4 -->
<g id="edge3" class="edge"><title>Node1&#45;&gt;Node4</title>
<path fill="none" stroke="midnightblue" d="M84.2164,-280.399C90.0514,-271.932 97.5157,-261.099 103.69,-252.139"/>
<polygon fill="midnightblue" stroke="midnightblue" points="106.742,-253.878 109.534,-243.658 100.978,-249.906 106.742,-253.878"/>
</g>
<!-- Node3 -->
<g id="node3" class="node"><title>Node3</title>
<polygon fill="white" stroke="#bfbfbf" points="13,-112.5 13,-131.5 54,-131.5 54,-112.5 13,-112.5"/>
<text text-anchor="middle" x="33.5" y="-119.5" font-family="Helvetica,sans-Serif" font-size="10.00">string</text>
</g>
<!-- Node2&#45;&gt;Node3 -->
<g id="edge2" class="edge"><title>Node2&#45;&gt;Node3</title>
<path fill="none" stroke="midnightblue" d="M33.5,-168.083C33.5,-161.006 33.5,-150.861 33.5,-141.986"/>
<polygon fill="midnightblue" stroke="midnightblue" points="37.0001,-141.751 33.5,-131.751 30.0001,-141.751 37.0001,-141.751"/>
</g>
<!-- Node4&#45;&gt;Node2 -->
<g id="edge11" class="edge"><title>Node4&#45;&gt;Node2</title>
<path fill="none" stroke="midnightblue" d="M102.325,-224.324C89.6532,-215.979 70.2666,-203.212 55.2944,-193.352"/>
<polygon fill="midnightblue" stroke="midnightblue" points="56.9187,-190.231 46.642,-187.655 53.0688,-196.078 56.9187,-190.231"/>
</g>
<!-- Node5 -->
<g id="node5" class="node"><title>Node5</title>
<g id="a_node5"><a xlink:href="../../d3/df0/list__traverser_8h.html" target="_top" xlink:title="list_traverser.h">
<polygon fill="white" stroke="black" points="85.5,-168.5 85.5,-187.5 165.5,-187.5 165.5,-168.5 85.5,-168.5"/>
<text text-anchor="middle" x="125.5" y="-175.5" font-family="Helvetica,sans-Serif" font-size="10.00">list_traverser.h</text>
</a>
</g>
</g>
<!-- Node4&#45;&gt;Node5 -->
<g id="edge4" class="edge"><title>Node4&#45;&gt;Node5</title>
<path fill="none" stroke="midnightblue" d="M117.151,-224.083C118.476,-216.927 120.382,-206.635 122.039,-197.691"/>
<polygon fill="midnightblue" stroke="midnightblue" points="125.5,-198.221 123.879,-187.751 118.617,-196.947 125.5,-198.221"/>
</g>
<!-- Node6 -->
<g id="node6" class="node"><title>Node6</title>
<g id="a_node6"><a xlink:href="../../da/d23/list_8h.html" target="_top" xlink:title="list.h">
<polygon fill="white" stroke="black" points="131.5,-112.5 131.5,-131.5 169.5,-131.5 169.5,-112.5 131.5,-112.5"/>
<text text-anchor="middle" x="150.5" y="-119.5" font-family="Helvetica,sans-Serif" font-size="10.00">list.h</text>
</a>
</g>
</g>
<!-- Node5&#45;&gt;Node6 -->
<g id="edge5" class="edge"><title>Node5&#45;&gt;Node6</title>
<path fill="none" stroke="midnightblue" d="M129.628,-168.083C133.014,-160.77 137.916,-150.181 142.119,-141.103"/>
<polygon fill="midnightblue" stroke="midnightblue" points="145.423,-142.296 146.449,-131.751 139.071,-139.355 145.423,-142.296"/>
</g>
<!-- Node7 -->
<g id="node7" class="node"><title>Node7</title>
<g id="a_node7"><a xlink:href="../../d9/d71/list__iterator_8h.html" target="_top" xlink:title="list_iterator.h">
<polygon fill="white" stroke="black" points="67,-56.5 67,-75.5 140,-75.5 140,-56.5 67,-56.5"/>
<text text-anchor="middle" x="103.5" y="-63.5" font-family="Helvetica,sans-Serif" font-size="10.00">list_iterator.h</text>
</a>
</g>
</g>
<!-- Node5&#45;&gt;Node7 -->
<g id="edge10" class="edge"><title>Node5&#45;&gt;Node7</title>
<path fill="none" stroke="midnightblue" d="M123.774,-168.368C120.223,-150.617 112.033,-109.666 107.219,-85.5974"/>
<polygon fill="midnightblue" stroke="midnightblue" points="110.612,-84.7108 105.218,-75.5914 103.747,-86.0837 110.612,-84.7108"/>
</g>
<!-- Node6&#45;&gt;Node7 -->
<g id="edge6" class="edge"><title>Node6&#45;&gt;Node7</title>
<path fill="none" stroke="midnightblue" d="M142.739,-112.083C135.963,-104.298 125.957,-92.8015 117.745,-83.3665"/>
<polygon fill="midnightblue" stroke="midnightblue" points="120.322,-80.9963 111.117,-75.7511 115.042,-85.592 120.322,-80.9963"/>
</g>
<!-- Node9 -->
<g id="node9" class="node"><title>Node9</title>
<g id="a_node9"><a xlink:href="../../dd/d8c/list__interface_8h.html" target="_top" xlink:title="list_interface.h">
<polygon fill="white" stroke="black" points="128.5,-0.5 128.5,-19.5 208.5,-19.5 208.5,-0.5 128.5,-0.5"/>
<text text-anchor="middle" x="168.5" y="-7.5" font-family="Helvetica,sans-Serif" font-size="10.00">list_interface.h</text>
</a>
</g>
</g>
<!-- Node6&#45;&gt;Node9 -->
<g id="edge9" class="edge"><title>Node6&#45;&gt;Node9</title>
<path fill="none" stroke="midnightblue" d="M151.912,-112.368C154.817,-94.617 161.518,-53.6664 165.457,-29.5974"/>
<polygon fill="midnightblue" stroke="midnightblue" points="168.933,-30.0254 167.094,-19.5914 162.025,-28.8949 168.933,-30.0254"/>
</g>
<!-- Node8 -->
<g id="node8" class="node"><title>Node8</title>
<g id="a_node8"><a xlink:href="../../d6/da4/iterator__interface_8h.html" target="_top" xlink:title="iterator_interface.h">
<polygon fill="white" stroke="black" points="13,-0.5 13,-19.5 110,-19.5 110,-0.5 13,-0.5"/>
<text text-anchor="middle" x="61.5" y="-7.5" font-family="Helvetica,sans-Serif" font-size="10.00">iterator_interface.h</text>
</a>
</g>
</g>
<!-- Node7&#45;&gt;Node8 -->
<g id="edge7" class="edge"><title>Node7&#45;&gt;Node8</title>
<path fill="none" stroke="midnightblue" d="M96.5646,-56.083C90.5708,-48.3768 81.7482,-37.0333 74.4524,-27.6531"/>
<polygon fill="midnightblue" stroke="midnightblue" points="77.2086,-25.4958 68.3064,-19.7511 71.6831,-29.7934 77.2086,-25.4958"/>
</g>
<!-- Node7&#45;&gt;Node9 -->
<g id="edge8" class="edge"><title>Node7&#45;&gt;Node9</title>
<path fill="none" stroke="midnightblue" d="M113.943,-56.324C123.646,-48.2631 138.315,-36.0765 150,-26.3695"/>
<polygon fill="midnightblue" stroke="midnightblue" points="152.411,-28.9163 157.867,-19.8339 147.938,-23.532 152.411,-28.9163"/>
</g>
</g>
</svg>
