<?xml version="1.0" encoding="UTF-8" standalone="no"?>
<!DOCTYPE svg PUBLIC "-//W3C//DTD SVG 1.1//EN"
 "http://www.w3.org/Graphics/SVG/1.1/DTD/svg11.dtd">
<!-- Generated by graphviz version 2.38.0 (20140413.2041)
 -->
<!-- Title: structural::facade::StatementNodeInterface::statement Pages: 1 -->
<svg width="281pt" height="50pt"
 viewBox="0.00 0.00 281.00 50.00" xmlns="http://www.w3.org/2000/svg" xmlns:xlink="http://www.w3.org/1999/xlink">
<g id="graph0" class="graph" transform="scale(1 1) rotate(0) translate(4 46)">
<title>structural::facade::StatementNodeInterface::statement</title>
<polygon fill="white" stroke="none" points="-4,4 -4,-46 277,-46 277,4 -4,4"/>
<!-- Node1 -->
<g id="node1" class="node"><title>Node1</title>
<polygon fill="#bfbfbf" stroke="black" points="0,-0.5 0,-41.5 127,-41.5 127,-0.5 0,-0.5"/>
<text text-anchor="start" x="8" y="-29.5" font-family="Helvetica,sans-Serif" font-size="10.00">structural::facade</text>
<text text-anchor="start" x="8" y="-18.5" font-family="Helvetica,sans-Serif" font-size="10.00">::StatementNodeInterface</text>
<text text-anchor="middle" x="63.5" y="-7.5" font-family="Helvetica,sans-Serif" font-size="10.00">::statement</text>
</g>
<!-- Node2 -->
<g id="node2" class="node"><title>Node2</title>
<g id="a_node2"><a xlink:href="../../d0/d8f/classstructural_1_1facade_1_1_r_i_s_c_code_generator.html#a9db64de3d27db9354bf2f7e45608bd87" target="_top" xlink:title="structural::facade\l::RISCCodeGenerator\l::Visit">
<polygon fill="white" stroke="black" points="163,-0.5 163,-41.5 273,-41.5 273,-0.5 163,-0.5"/>
<text text-anchor="start" x="171" y="-29.5" font-family="Helvetica,sans-Serif" font-size="10.00">structural::facade</text>
<text text-anchor="start" x="171" y="-18.5" font-family="Helvetica,sans-Serif" font-size="10.00">::RISCCodeGenerator</text>
<text text-anchor="middle" x="218" y="-7.5" font-family="Helvetica,sans-Serif" font-size="10.00">::Visit</text>
</a>
</g>
</g>
<!-- Node1&#45;&gt;Node2 -->
<g id="edge1" class="edge"><title>Node1&#45;&gt;Node2</title>
<path fill="none" stroke="midnightblue" d="M137.455,-21C146.058,-21 154.717,-21 162.993,-21"/>
<polygon fill="midnightblue" stroke="midnightblue" points="137.408,-17.5001 127.408,-21 137.408,-24.5001 137.408,-17.5001"/>
</g>
</g>
</svg>
