<?xml version="1.0" encoding="UTF-8" standalone="no"?>
<!DOCTYPE svg PUBLIC "-//W3C//DTD SVG 1.1//EN"
 "http://www.w3.org/Graphics/SVG/1.1/DTD/svg11.dtd">
<!-- Generated by graphviz version 2.38.0 (20140413.2041)
 -->
<!-- Title: src/operational/src/chain/application.cc Pages: 1 -->
<svg width="225pt" height="151pt"
 viewBox="0.00 0.00 225.00 151.00" xmlns="http://www.w3.org/2000/svg" xmlns:xlink="http://www.w3.org/1999/xlink">
<g id="graph0" class="graph" transform="scale(1 1) rotate(0) translate(4 147)">
<title>src/operational/src/chain/application.cc</title>
<polygon fill="white" stroke="none" points="-4,4 -4,-147 221,-147 221,4 -4,4"/>
<!-- Node1 -->
<g id="node1" class="node"><title>Node1</title>
<polygon fill="#bfbfbf" stroke="black" points="98,-112.5 98,-142.5 204,-142.5 204,-112.5 98,-112.5"/>
<text text-anchor="start" x="106" y="-130.5" font-family="Helvetica,sans-Serif" font-size="10.00">src/operational/src</text>
<text text-anchor="middle" x="151" y="-119.5" font-family="Helvetica,sans-Serif" font-size="10.00">/chain/application.cc</text>
</g>
<!-- Node2 -->
<g id="node2" class="node"><title>Node2</title>
<g id="a_node2"><a xlink:href="../../db/d32/application_8h.html" target="_top" xlink:title="application.h">
<polygon fill="white" stroke="black" points="75.5,-56.5 75.5,-75.5 146.5,-75.5 146.5,-56.5 75.5,-56.5"/>
<text text-anchor="middle" x="111" y="-63.5" font-family="Helvetica,sans-Serif" font-size="10.00">application.h</text>
</a>
</g>
</g>
<!-- Node1&#45;&gt;Node2 -->
<g id="edge1" class="edge"><title>Node1&#45;&gt;Node2</title>
<path fill="none" stroke="midnightblue" d="M141.521,-112.399C135.828,-103.932 128.546,-93.0991 122.522,-84.1393"/>
<polygon fill="midnightblue" stroke="midnightblue" points="125.304,-82.0041 116.82,-75.6578 119.495,-85.9095 125.304,-82.0041"/>
</g>
<!-- Node5 -->
<g id="node5" class="node"><title>Node5</title>
<polygon fill="white" stroke="#bfbfbf" points="165,-56.5 165,-75.5 217,-75.5 217,-56.5 165,-56.5"/>
<text text-anchor="middle" x="191" y="-63.5" font-family="Helvetica,sans-Serif" font-size="10.00">sstream</text>
</g>
<!-- Node1&#45;&gt;Node5 -->
<g id="edge4" class="edge"><title>Node1&#45;&gt;Node5</title>
<path fill="none" stroke="midnightblue" d="M160.479,-112.399C166.172,-103.932 173.454,-93.0991 179.478,-84.1393"/>
<polygon fill="midnightblue" stroke="midnightblue" points="182.505,-85.9095 185.18,-75.6578 176.696,-82.0041 182.505,-85.9095"/>
</g>
<!-- Node3 -->
<g id="node3" class="node"><title>Node3</title>
<g id="a_node3"><a xlink:href="../../df/d85/help__handler__interface_8h.html" target="_top" xlink:title="help_handler_interface.h">
<polygon fill="white" stroke="black" points="0,-0.5 0,-19.5 122,-19.5 122,-0.5 0,-0.5"/>
<text text-anchor="middle" x="61" y="-7.5" font-family="Helvetica,sans-Serif" font-size="10.00">help_handler_interface.h</text>
</a>
</g>
</g>
<!-- Node2&#45;&gt;Node3 -->
<g id="edge2" class="edge"><title>Node2&#45;&gt;Node3</title>
<path fill="none" stroke="midnightblue" d="M102.744,-56.083C95.5353,-48.2982 84.8902,-36.8015 76.1542,-27.3665"/>
<polygon fill="midnightblue" stroke="midnightblue" points="78.4651,-24.7108 69.1028,-19.7511 73.3288,-29.4666 78.4651,-24.7108"/>
</g>
<!-- Node4 -->
<g id="node4" class="node"><title>Node4</title>
<polygon fill="white" stroke="#bfbfbf" points="140.5,-0.5 140.5,-19.5 181.5,-19.5 181.5,-0.5 140.5,-0.5"/>
<text text-anchor="middle" x="161" y="-7.5" font-family="Helvetica,sans-Serif" font-size="10.00">string</text>
</g>
<!-- Node2&#45;&gt;Node4 -->
<g id="edge3" class="edge"><title>Node2&#45;&gt;Node4</title>
<path fill="none" stroke="midnightblue" d="M119.256,-56.083C126.465,-48.2982 137.11,-36.8015 145.846,-27.3665"/>
<polygon fill="midnightblue" stroke="midnightblue" points="148.671,-29.4666 152.897,-19.7511 143.535,-24.7108 148.671,-29.4666"/>
</g>
</g>
</svg>
