<?xml version="1.0" encoding="UTF-8" standalone="no"?>
<!DOCTYPE svg PUBLIC "-//W3C//DTD SVG 1.1//EN"
 "http://www.w3.org/Graphics/SVG/1.1/DTD/svg11.dtd">
<!-- Generated by graphviz version 2.38.0 (20140413.2041)
 -->
<!-- Title: structural::composite::CompositeEquipment::price Pages: 1 -->
<svg width="428pt" height="110pt"
 viewBox="0.00 0.00 428.00 110.00" xmlns="http://www.w3.org/2000/svg" xmlns:xlink="http://www.w3.org/1999/xlink">
<g id="graph0" class="graph" transform="scale(1 1) rotate(0) translate(4 106)">
<title>structural::composite::CompositeEquipment::price</title>
<polygon fill="white" stroke="none" points="-4,4 -4,-106 424,-106 424,4 -4,4"/>
<!-- Node1 -->
<g id="node1" class="node"><title>Node1</title>
<polygon fill="#bfbfbf" stroke="black" points="0,-30.5 0,-71.5 116,-71.5 116,-30.5 0,-30.5"/>
<text text-anchor="start" x="8" y="-59.5" font-family="Helvetica,sans-Serif" font-size="10.00">structural::composite</text>
<text text-anchor="start" x="8" y="-48.5" font-family="Helvetica,sans-Serif" font-size="10.00">::CompositeEquipment</text>
<text text-anchor="middle" x="58" y="-37.5" font-family="Helvetica,sans-Serif" font-size="10.00">::price</text>
</g>
<!-- Node2 -->
<g id="node2" class="node"><title>Node2</title>
<g id="a_node2"><a xlink:href="../../d9/d95/classstructural_1_1composite_1_1_composite_equipment.html#a0a302bb0b45cf95474a8b0815fbb9ec4" target="_top" xlink:title="structural::composite\l::CompositeEquipment\l::price">
<polygon fill="white" stroke="black" points="152,-60.5 152,-101.5 268,-101.5 268,-60.5 152,-60.5"/>
<text text-anchor="start" x="160" y="-89.5" font-family="Helvetica,sans-Serif" font-size="10.00">structural::composite</text>
<text text-anchor="start" x="160" y="-78.5" font-family="Helvetica,sans-Serif" font-size="10.00">::CompositeEquipment</text>
<text text-anchor="middle" x="210" y="-67.5" font-family="Helvetica,sans-Serif" font-size="10.00">::price</text>
</a>
</g>
</g>
<!-- Node1&#45;&gt;Node2 -->
<g id="edge1" class="edge"><title>Node1&#45;&gt;Node2</title>
<path fill="none" stroke="midnightblue" d="M126.033,-64.4066C134.54,-66.1081 143.186,-67.8372 151.525,-69.5051"/>
<polygon fill="midnightblue" stroke="midnightblue" points="126.629,-60.9565 116.136,-62.4273 125.256,-67.8206 126.629,-60.9565"/>
</g>
<!-- Node3 -->
<g id="node3" class="node"><title>Node3</title>
<g id="a_node3"><a xlink:href="../../d9/d95/classstructural_1_1composite_1_1_composite_equipment.html#a23cb569abec8ab608e2f10ee85cd261d" target="_top" xlink:title="structural::composite\l::CompositeEquipment\l::NetPrice">
<polygon fill="white" stroke="black" points="152,-0.5 152,-41.5 268,-41.5 268,-0.5 152,-0.5"/>
<text text-anchor="start" x="160" y="-29.5" font-family="Helvetica,sans-Serif" font-size="10.00">structural::composite</text>
<text text-anchor="start" x="160" y="-18.5" font-family="Helvetica,sans-Serif" font-size="10.00">::CompositeEquipment</text>
<text text-anchor="middle" x="210" y="-7.5" font-family="Helvetica,sans-Serif" font-size="10.00">::NetPrice</text>
</a>
</g>
</g>
<!-- Node1&#45;&gt;Node3 -->
<g id="edge2" class="edge"><title>Node1&#45;&gt;Node3</title>
<path fill="none" stroke="midnightblue" d="M126.033,-37.5934C134.54,-35.8919 143.186,-34.1628 151.525,-32.4949"/>
<polygon fill="midnightblue" stroke="midnightblue" points="125.256,-34.1794 116.136,-39.5727 126.629,-41.0435 125.256,-34.1794"/>
</g>
<!-- Node4 -->
<g id="node4" class="node"><title>Node4</title>
<g id="a_node4"><a xlink:href="../../d9/d95/classstructural_1_1composite_1_1_composite_equipment.html#aea75ec1af630bd834b67798d1e6f06d9" target="_top" xlink:title="structural::composite\l::CompositeEquipment\l::DiscountPrice">
<polygon fill="white" stroke="black" points="304,-0.5 304,-41.5 420,-41.5 420,-0.5 304,-0.5"/>
<text text-anchor="start" x="312" y="-29.5" font-family="Helvetica,sans-Serif" font-size="10.00">structural::composite</text>
<text text-anchor="start" x="312" y="-18.5" font-family="Helvetica,sans-Serif" font-size="10.00">::CompositeEquipment</text>
<text text-anchor="middle" x="362" y="-7.5" font-family="Helvetica,sans-Serif" font-size="10.00">::DiscountPrice</text>
</a>
</g>
</g>
<!-- Node3&#45;&gt;Node4 -->
<g id="edge3" class="edge"><title>Node3&#45;&gt;Node4</title>
<path fill="none" stroke="midnightblue" d="M278.311,-21C286.728,-21 295.277,-21 303.525,-21"/>
<polygon fill="midnightblue" stroke="midnightblue" points="278.137,-17.5001 268.136,-21 278.136,-24.5001 278.137,-17.5001"/>
</g>
</g>
</svg>
