<?xml version="1.0" encoding="UTF-8" standalone="no"?>
<!DOCTYPE svg PUBLIC "-//W3C//DTD SVG 1.1//EN"
 "http://www.w3.org/Graphics/SVG/1.1/DTD/svg11.dtd">
<!-- Generated by graphviz version 2.38.0 (20140413.2041)
 -->
<!-- Title: structural::composite::CompositeEquipment::DiscountPrice Pages: 1 -->
<svg width="428pt" height="160pt"
 viewBox="0.00 0.00 428.00 160.00" xmlns="http://www.w3.org/2000/svg" xmlns:xlink="http://www.w3.org/1999/xlink">
<g id="graph0" class="graph" transform="scale(1 1) rotate(0) translate(4 156)">
<title>structural::composite::CompositeEquipment::DiscountPrice</title>
<polygon fill="white" stroke="none" points="-4,4 -4,-156 424,-156 424,4 -4,4"/>
<!-- Node1 -->
<g id="node1" class="node"><title>Node1</title>
<polygon fill="#bfbfbf" stroke="black" points="0,-55.5 0,-96.5 116,-96.5 116,-55.5 0,-55.5"/>
<text text-anchor="start" x="8" y="-84.5" font-family="Helvetica,sans-Serif" font-size="10.00">structural::composite</text>
<text text-anchor="start" x="8" y="-73.5" font-family="Helvetica,sans-Serif" font-size="10.00">::CompositeEquipment</text>
<text text-anchor="middle" x="58" y="-62.5" font-family="Helvetica,sans-Serif" font-size="10.00">::DiscountPrice</text>
</g>
<!-- Node2 -->
<g id="node2" class="node"><title>Node2</title>
<g id="a_node2"><a xlink:href="../../d9/d95/classstructural_1_1composite_1_1_composite_equipment.html#a23cb569abec8ab608e2f10ee85cd261d" target="_top" xlink:title="structural::composite\l::CompositeEquipment\l::NetPrice">
<polygon fill="white" stroke="black" points="152,-55.5 152,-96.5 268,-96.5 268,-55.5 152,-55.5"/>
<text text-anchor="start" x="160" y="-84.5" font-family="Helvetica,sans-Serif" font-size="10.00">structural::composite</text>
<text text-anchor="start" x="160" y="-73.5" font-family="Helvetica,sans-Serif" font-size="10.00">::CompositeEquipment</text>
<text text-anchor="middle" x="210" y="-62.5" font-family="Helvetica,sans-Serif" font-size="10.00">::NetPrice</text>
</a>
</g>
</g>
<!-- Node1&#45;&gt;Node2 -->
<g id="edge1" class="edge"><title>Node1&#45;&gt;Node2</title>
<path fill="none" stroke="midnightblue" d="M116.136,-76C124.377,-76 132.923,-76 141.344,-76"/>
<polygon fill="midnightblue" stroke="midnightblue" points="141.526,-79.5001 151.525,-76 141.525,-72.5001 141.526,-79.5001"/>
</g>
<!-- Node3 -->
<g id="node3" class="node"><title>Node3</title>
<g id="a_node3"><a xlink:href="../../d9/d95/classstructural_1_1composite_1_1_composite_equipment.html#ae2cafca9ffbb300f237c1201d081ea08" target="_top" xlink:title="structural::composite\l::CompositeEquipment\l::CreateIterator">
<polygon fill="white" stroke="black" points="304,-110.5 304,-151.5 420,-151.5 420,-110.5 304,-110.5"/>
<text text-anchor="start" x="312" y="-139.5" font-family="Helvetica,sans-Serif" font-size="10.00">structural::composite</text>
<text text-anchor="start" x="312" y="-128.5" font-family="Helvetica,sans-Serif" font-size="10.00">::CompositeEquipment</text>
<text text-anchor="middle" x="362" y="-117.5" font-family="Helvetica,sans-Serif" font-size="10.00">::CreateIterator</text>
</a>
</g>
</g>
<!-- Node2&#45;&gt;Node3 -->
<g id="edge2" class="edge"><title>Node2&#45;&gt;Node3</title>
<path fill="none" stroke="midnightblue" d="M267.281,-96.6365C276.413,-99.9846 285.94,-103.478 295.272,-106.9"/>
<polygon fill="midnightblue" stroke="midnightblue" points="294.309,-110.274 304.902,-110.431 296.718,-103.702 294.309,-110.274"/>
</g>
<!-- Node4 -->
<g id="node4" class="node"><title>Node4</title>
<g id="a_node4"><a xlink:href="../../d1/db1/classstructural_1_1composite_1_1_currency.html#a205f3f57f8a96f779298a2bddca7f657" target="_top" xlink:title="structural::composite\l::Currency::value">
<polygon fill="white" stroke="black" points="308,-61 308,-91 416,-91 416,-61 308,-61"/>
<text text-anchor="start" x="316" y="-79" font-family="Helvetica,sans-Serif" font-size="10.00">structural::composite</text>
<text text-anchor="middle" x="362" y="-68" font-family="Helvetica,sans-Serif" font-size="10.00">::Currency::value</text>
</a>
</g>
</g>
<!-- Node2&#45;&gt;Node4 -->
<g id="edge3" class="edge"><title>Node2&#45;&gt;Node4</title>
<path fill="none" stroke="midnightblue" d="M268.136,-76C277.845,-76 287.978,-76 297.831,-76"/>
<polygon fill="midnightblue" stroke="midnightblue" points="297.969,-79.5001 307.969,-76 297.969,-72.5001 297.969,-79.5001"/>
</g>
<!-- Node5 -->
<g id="node5" class="node"><title>Node5</title>
<g id="a_node5"><a xlink:href="../../d9/d95/classstructural_1_1composite_1_1_composite_equipment.html#a829edbc5d57fe382b8e6febfc108303f" target="_top" xlink:title="structural::composite\l::CompositeEquipment\l::price">
<polygon fill="white" stroke="black" points="304,-0.5 304,-41.5 420,-41.5 420,-0.5 304,-0.5"/>
<text text-anchor="start" x="312" y="-29.5" font-family="Helvetica,sans-Serif" font-size="10.00">structural::composite</text>
<text text-anchor="start" x="312" y="-18.5" font-family="Helvetica,sans-Serif" font-size="10.00">::CompositeEquipment</text>
<text text-anchor="middle" x="362" y="-7.5" font-family="Helvetica,sans-Serif" font-size="10.00">::price</text>
</a>
</g>
</g>
<!-- Node2&#45;&gt;Node5 -->
<g id="edge4" class="edge"><title>Node2&#45;&gt;Node5</title>
<path fill="none" stroke="midnightblue" d="M267.281,-55.3635C276.413,-52.0154 285.94,-48.5222 295.272,-45.1003"/>
<polygon fill="midnightblue" stroke="midnightblue" points="296.718,-48.2979 304.902,-41.5692 294.309,-41.7257 296.718,-48.2979"/>
</g>
</g>
</svg>
