<?xml version="1.0" encoding="UTF-8" standalone="no"?>
<!DOCTYPE svg PUBLIC "-//W3C//DTD SVG 1.1//EN"
 "http://www.w3.org/Graphics/SVG/1.1/DTD/svg11.dtd">
<!-- Generated by graphviz version 2.38.0 (20140413.2041)
 -->
<!-- Title: structural::composite::CompositeEquipment::CreateIterator Pages: 1 -->
<svg width="428pt" height="50pt"
 viewBox="0.00 0.00 428.00 50.00" xmlns="http://www.w3.org/2000/svg" xmlns:xlink="http://www.w3.org/1999/xlink">
<g id="graph0" class="graph" transform="scale(1 1) rotate(0) translate(4 46)">
<title>structural::composite::CompositeEquipment::CreateIterator</title>
<polygon fill="white" stroke="none" points="-4,4 -4,-46 424,-46 424,4 -4,4"/>
<!-- Node1 -->
<g id="node1" class="node"><title>Node1</title>
<polygon fill="#bfbfbf" stroke="black" points="0,-0.5 0,-41.5 116,-41.5 116,-0.5 0,-0.5"/>
<text text-anchor="start" x="8" y="-29.5" font-family="Helvetica,sans-Serif" font-size="10.00">structural::composite</text>
<text text-anchor="start" x="8" y="-18.5" font-family="Helvetica,sans-Serif" font-size="10.00">::CompositeEquipment</text>
<text text-anchor="middle" x="58" y="-7.5" font-family="Helvetica,sans-Serif" font-size="10.00">::CreateIterator</text>
</g>
<!-- Node2 -->
<g id="node2" class="node"><title>Node2</title>
<g id="a_node2"><a xlink:href="../../d9/d95/classstructural_1_1composite_1_1_composite_equipment.html#a23cb569abec8ab608e2f10ee85cd261d" target="_top" xlink:title="structural::composite\l::CompositeEquipment\l::NetPrice">
<polygon fill="white" stroke="black" points="152,-0.5 152,-41.5 268,-41.5 268,-0.5 152,-0.5"/>
<text text-anchor="start" x="160" y="-29.5" font-family="Helvetica,sans-Serif" font-size="10.00">structural::composite</text>
<text text-anchor="start" x="160" y="-18.5" font-family="Helvetica,sans-Serif" font-size="10.00">::CompositeEquipment</text>
<text text-anchor="middle" x="210" y="-7.5" font-family="Helvetica,sans-Serif" font-size="10.00">::NetPrice</text>
</a>
</g>
</g>
<!-- Node1&#45;&gt;Node2 -->
<g id="edge1" class="edge"><title>Node1&#45;&gt;Node2</title>
<path fill="none" stroke="midnightblue" d="M126.311,-21C134.728,-21 143.277,-21 151.525,-21"/>
<polygon fill="midnightblue" stroke="midnightblue" points="126.137,-17.5001 116.136,-21 126.136,-24.5001 126.137,-17.5001"/>
</g>
<!-- Node3 -->
<g id="node3" class="node"><title>Node3</title>
<g id="a_node3"><a xlink:href="../../d9/d95/classstructural_1_1composite_1_1_composite_equipment.html#aea75ec1af630bd834b67798d1e6f06d9" target="_top" xlink:title="structural::composite\l::CompositeEquipment\l::DiscountPrice">
<polygon fill="white" stroke="black" points="304,-0.5 304,-41.5 420,-41.5 420,-0.5 304,-0.5"/>
<text text-anchor="start" x="312" y="-29.5" font-family="Helvetica,sans-Serif" font-size="10.00">structural::composite</text>
<text text-anchor="start" x="312" y="-18.5" font-family="Helvetica,sans-Serif" font-size="10.00">::CompositeEquipment</text>
<text text-anchor="middle" x="362" y="-7.5" font-family="Helvetica,sans-Serif" font-size="10.00">::DiscountPrice</text>
</a>
</g>
</g>
<!-- Node2&#45;&gt;Node3 -->
<g id="edge2" class="edge"><title>Node2&#45;&gt;Node3</title>
<path fill="none" stroke="midnightblue" d="M278.311,-21C286.728,-21 295.277,-21 303.525,-21"/>
<polygon fill="midnightblue" stroke="midnightblue" points="278.137,-17.5001 268.136,-21 278.136,-24.5001 278.137,-17.5001"/>
</g>
</g>
</svg>
