<?xml version="1.0" encoding="UTF-8" standalone="no"?>
<!DOCTYPE svg PUBLIC "-//W3C//DTD SVG 1.1//EN"
 "http://www.w3.org/Graphics/SVG/1.1/DTD/svg11.dtd">
<!-- Generated by graphviz version 2.38.0 (20140413.2041)
 -->
<!-- Title: structural::composite::CompositeEquipment::NetPrice Pages: 1 -->
<svg width="276pt" height="160pt"
 viewBox="0.00 0.00 276.00 160.00" xmlns="http://www.w3.org/2000/svg" xmlns:xlink="http://www.w3.org/1999/xlink">
<g id="graph0" class="graph" transform="scale(1 1) rotate(0) translate(4 156)">
<title>structural::composite::CompositeEquipment::NetPrice</title>
<polygon fill="white" stroke="none" points="-4,4 -4,-156 272,-156 272,4 -4,4"/>
<!-- Node1 -->
<g id="node1" class="node"><title>Node1</title>
<polygon fill="#bfbfbf" stroke="black" points="0,-55.5 0,-96.5 116,-96.5 116,-55.5 0,-55.5"/>
<text text-anchor="start" x="8" y="-84.5" font-family="Helvetica,sans-Serif" font-size="10.00">structural::composite</text>
<text text-anchor="start" x="8" y="-73.5" font-family="Helvetica,sans-Serif" font-size="10.00">::CompositeEquipment</text>
<text text-anchor="middle" x="58" y="-62.5" font-family="Helvetica,sans-Serif" font-size="10.00">::NetPrice</text>
</g>
<!-- Node2 -->
<g id="node2" class="node"><title>Node2</title>
<g id="a_node2"><a xlink:href="../../d9/d95/classstructural_1_1composite_1_1_composite_equipment.html#ae2cafca9ffbb300f237c1201d081ea08" target="_top" xlink:title="structural::composite\l::CompositeEquipment\l::CreateIterator">
<polygon fill="white" stroke="black" points="152,-110.5 152,-151.5 268,-151.5 268,-110.5 152,-110.5"/>
<text text-anchor="start" x="160" y="-139.5" font-family="Helvetica,sans-Serif" font-size="10.00">structural::composite</text>
<text text-anchor="start" x="160" y="-128.5" font-family="Helvetica,sans-Serif" font-size="10.00">::CompositeEquipment</text>
<text text-anchor="middle" x="210" y="-117.5" font-family="Helvetica,sans-Serif" font-size="10.00">::CreateIterator</text>
</a>
</g>
</g>
<!-- Node1&#45;&gt;Node2 -->
<g id="edge1" class="edge"><title>Node1&#45;&gt;Node2</title>
<path fill="none" stroke="midnightblue" d="M115.281,-96.6365C124.413,-99.9846 133.94,-103.478 143.272,-106.9"/>
<polygon fill="midnightblue" stroke="midnightblue" points="142.309,-110.274 152.902,-110.431 144.718,-103.702 142.309,-110.274"/>
</g>
<!-- Node3 -->
<g id="node3" class="node"><title>Node3</title>
<g id="a_node3"><a xlink:href="../../d1/db1/classstructural_1_1composite_1_1_currency.html#a205f3f57f8a96f779298a2bddca7f657" target="_top" xlink:title="structural::composite\l::Currency::value">
<polygon fill="white" stroke="black" points="156,-61 156,-91 264,-91 264,-61 156,-61"/>
<text text-anchor="start" x="164" y="-79" font-family="Helvetica,sans-Serif" font-size="10.00">structural::composite</text>
<text text-anchor="middle" x="210" y="-68" font-family="Helvetica,sans-Serif" font-size="10.00">::Currency::value</text>
</a>
</g>
</g>
<!-- Node1&#45;&gt;Node3 -->
<g id="edge2" class="edge"><title>Node1&#45;&gt;Node3</title>
<path fill="none" stroke="midnightblue" d="M116.136,-76C125.845,-76 135.978,-76 145.831,-76"/>
<polygon fill="midnightblue" stroke="midnightblue" points="145.969,-79.5001 155.969,-76 145.969,-72.5001 145.969,-79.5001"/>
</g>
<!-- Node4 -->
<g id="node4" class="node"><title>Node4</title>
<g id="a_node4"><a xlink:href="../../d9/d95/classstructural_1_1composite_1_1_composite_equipment.html#a829edbc5d57fe382b8e6febfc108303f" target="_top" xlink:title="structural::composite\l::CompositeEquipment\l::price">
<polygon fill="white" stroke="black" points="152,-0.5 152,-41.5 268,-41.5 268,-0.5 152,-0.5"/>
<text text-anchor="start" x="160" y="-29.5" font-family="Helvetica,sans-Serif" font-size="10.00">structural::composite</text>
<text text-anchor="start" x="160" y="-18.5" font-family="Helvetica,sans-Serif" font-size="10.00">::CompositeEquipment</text>
<text text-anchor="middle" x="210" y="-7.5" font-family="Helvetica,sans-Serif" font-size="10.00">::price</text>
</a>
</g>
</g>
<!-- Node1&#45;&gt;Node4 -->
<g id="edge3" class="edge"><title>Node1&#45;&gt;Node4</title>
<path fill="none" stroke="midnightblue" d="M115.281,-55.3635C124.413,-52.0154 133.94,-48.5222 143.272,-45.1003"/>
<polygon fill="midnightblue" stroke="midnightblue" points="144.718,-48.2979 152.902,-41.5692 142.309,-41.7257 144.718,-48.2979"/>
</g>
</g>
</svg>
