<?xml version="1.0" encoding="UTF-8" standalone="no"?>
<!DOCTYPE svg PUBLIC "-//W3C//DTD SVG 1.1//EN"
 "http://www.w3.org/Graphics/SVG/1.1/DTD/svg11.dtd">
<!-- Generated by graphviz version 2.38.0 (20140413.2041)
 -->
<!-- Title: creational::commons::Wall Pages: 1 -->
<svg width="118pt" height="408pt"
 viewBox="0.00 0.00 118.00 408.00" xmlns="http://www.w3.org/2000/svg" xmlns:xlink="http://www.w3.org/1999/xlink">
<g id="graph0" class="graph" transform="scale(1 1) rotate(0) translate(4 404)">
<title>creational::commons::Wall</title>
<polygon fill="white" stroke="none" points="-4,4 -4,-404 114,-404 114,4 -4,4"/>
<!-- Node1 -->
<g id="node1" class="node"><title>Node1</title>
<polygon fill="#bfbfbf" stroke="black" points="1.5,-160.5 1.5,-283.5 108.5,-283.5 108.5,-160.5 1.5,-160.5"/>
<text text-anchor="start" x="9.5" y="-271.5" font-family="Helvetica,sans-Serif" font-size="10.00">creational::commons</text>
<text text-anchor="middle" x="55" y="-260.5" font-family="Helvetica,sans-Serif" font-size="10.00">::Wall</text>
<polyline fill="none" stroke="black" points="1.5,-253.5 108.5,-253.5 "/>
<text text-anchor="start" x="9.5" y="-241.5" font-family="Helvetica,sans-Serif" font-size="10.00"># entered_</text>
<polyline fill="none" stroke="black" points="1.5,-234.5 108.5,-234.5 "/>
<text text-anchor="start" x="9.5" y="-222.5" font-family="Helvetica,sans-Serif" font-size="10.00">+ Wall()</text>
<text text-anchor="start" x="9.5" y="-211.5" font-family="Helvetica,sans-Serif" font-size="10.00">+ Wall()</text>
<text text-anchor="start" x="9.5" y="-200.5" font-family="Helvetica,sans-Serif" font-size="10.00">+ ~Wall()</text>
<text text-anchor="start" x="9.5" y="-189.5" font-family="Helvetica,sans-Serif" font-size="10.00">+ Clone()</text>
<text text-anchor="start" x="9.5" y="-178.5" font-family="Helvetica,sans-Serif" font-size="10.00">+ Enter()</text>
<text text-anchor="start" x="9.5" y="-167.5" font-family="Helvetica,sans-Serif" font-size="10.00">+ entered()</text>
</g>
<!-- Node3 -->
<g id="node3" class="node"><title>Node3</title>
<g id="a_node3"><a xlink:href="../../da/db1/classcreational_1_1commons_1_1_bombed_wall.html" target="_top" xlink:title="{creational::commons\l::BombedWall\n||+ BombedWall()\l+ BombedWall()\l+ Clone()\l+ Enter()\l+ Intialize()\l+ bombed()\l}">
<polygon fill="white" stroke="black" points="1.5,-0.5 1.5,-123.5 108.5,-123.5 108.5,-0.5 1.5,-0.5"/>
<text text-anchor="start" x="9.5" y="-111.5" font-family="Helvetica,sans-Serif" font-size="10.00">creational::commons</text>
<text text-anchor="middle" x="55" y="-100.5" font-family="Helvetica,sans-Serif" font-size="10.00">::BombedWall</text>
<polyline fill="none" stroke="black" points="1.5,-93.5 108.5,-93.5 "/>
<text text-anchor="middle" x="55" y="-81.5" font-family="Helvetica,sans-Serif" font-size="10.00"> </text>
<polyline fill="none" stroke="black" points="1.5,-74.5 108.5,-74.5 "/>
<text text-anchor="start" x="9.5" y="-62.5" font-family="Helvetica,sans-Serif" font-size="10.00">+ BombedWall()</text>
<text text-anchor="start" x="9.5" y="-51.5" font-family="Helvetica,sans-Serif" font-size="10.00">+ BombedWall()</text>
<text text-anchor="start" x="9.5" y="-40.5" font-family="Helvetica,sans-Serif" font-size="10.00">+ Clone()</text>
<text text-anchor="start" x="9.5" y="-29.5" font-family="Helvetica,sans-Serif" font-size="10.00">+ Enter()</text>
<text text-anchor="start" x="9.5" y="-18.5" font-family="Helvetica,sans-Serif" font-size="10.00">+ Intialize()</text>
<text text-anchor="start" x="9.5" y="-7.5" font-family="Helvetica,sans-Serif" font-size="10.00">+ bombed()</text>
</a>
</g>
</g>
<!-- Node1&#45;&gt;Node3 -->
<g id="edge2" class="edge"><title>Node1&#45;&gt;Node3</title>
<path fill="none" stroke="midnightblue" d="M55,-150.116C55,-141.31 55,-132.368 55,-123.734"/>
<polygon fill="none" stroke="midnightblue" points="51.5001,-150.365 55,-160.365 58.5001,-150.365 51.5001,-150.365"/>
</g>
<!-- Node2 -->
<g id="node2" class="node"><title>Node2</title>
<g id="a_node2"><a xlink:href="../../d6/dde/classcreational_1_1commons_1_1_map_site_interface.html" target="_top" xlink:title="{creational::commons\l::MapSiteInterface\n||+ ~MapSiteInterface()\l+ Enter()\l}">
<polygon fill="white" stroke="black" points="0,-320.5 0,-399.5 110,-399.5 110,-320.5 0,-320.5"/>
<text text-anchor="start" x="8" y="-387.5" font-family="Helvetica,sans-Serif" font-size="10.00">creational::commons</text>
<text text-anchor="middle" x="55" y="-376.5" font-family="Helvetica,sans-Serif" font-size="10.00">::MapSiteInterface</text>
<polyline fill="none" stroke="black" points="0,-369.5 110,-369.5 "/>
<text text-anchor="middle" x="55" y="-357.5" font-family="Helvetica,sans-Serif" font-size="10.00"> </text>
<polyline fill="none" stroke="black" points="0,-350.5 110,-350.5 "/>
<text text-anchor="start" x="8" y="-338.5" font-family="Helvetica,sans-Serif" font-size="10.00">+ ~MapSiteInterface()</text>
<text text-anchor="start" x="8" y="-327.5" font-family="Helvetica,sans-Serif" font-size="10.00">+ Enter()</text>
</a>
</g>
</g>
<!-- Node2&#45;&gt;Node1 -->
<g id="edge1" class="edge"><title>Node2&#45;&gt;Node1</title>
<path fill="none" stroke="midnightblue" d="M55,-310.144C55,-301.528 55,-292.465 55,-283.574"/>
<polygon fill="none" stroke="midnightblue" points="51.5001,-310.392 55,-320.392 58.5001,-310.392 51.5001,-310.392"/>
</g>
</g>
</svg>
