<?xml version="1.0" encoding="UTF-8" standalone="no"?>
<!DOCTYPE svg PUBLIC "-//W3C//DTD SVG 1.1//EN"
 "http://www.w3.org/Graphics/SVG/1.1/DTD/svg11.dtd">
<!-- Generated by graphviz version 2.38.0 (20140413.2041)
 -->
<!-- Title: operational::memento::Graphic::point Pages: 1 -->
<svg width="442pt" height="112pt"
 viewBox="0.00 0.00 442.00 112.00" xmlns="http://www.w3.org/2000/svg" xmlns:xlink="http://www.w3.org/1999/xlink">
<g id="graph0" class="graph" transform="scale(1 1) rotate(0) translate(4 108)">
<title>operational::memento::Graphic::point</title>
<polygon fill="white" stroke="none" points="-4,4 -4,-108 438,-108 438,4 -4,4"/>
<!-- Node1 -->
<g id="node1" class="node"><title>Node1</title>
<polygon fill="#bfbfbf" stroke="black" points="0,-24.5 0,-54.5 110,-54.5 110,-24.5 0,-24.5"/>
<text text-anchor="start" x="8" y="-42.5" font-family="Helvetica,sans-Serif" font-size="10.00">operational::memento</text>
<text text-anchor="middle" x="55" y="-31.5" font-family="Helvetica,sans-Serif" font-size="10.00">::Graphic::point</text>
</g>
<!-- Node2 -->
<g id="node2" class="node"><title>Node2</title>
<g id="a_node2"><a xlink:href="../../d2/db9/classoperational_1_1memento_1_1_graphic.html#ab4c66c1e039e7ddf4cabb3c71ad43339" target="_top" xlink:title="operational::memento\l::Graphic::Move">
<polygon fill="white" stroke="black" points="146,-49.5 146,-79.5 256,-79.5 256,-49.5 146,-49.5"/>
<text text-anchor="start" x="154" y="-67.5" font-family="Helvetica,sans-Serif" font-size="10.00">operational::memento</text>
<text text-anchor="middle" x="201" y="-56.5" font-family="Helvetica,sans-Serif" font-size="10.00">::Graphic::Move</text>
</a>
</g>
</g>
<!-- Node1&#45;&gt;Node2 -->
<g id="edge1" class="edge"><title>Node1&#45;&gt;Node2</title>
<path fill="none" stroke="midnightblue" d="M119.991,-50.6095C128.561,-52.0974 137.284,-53.6119 145.667,-55.0672"/>
<polygon fill="midnightblue" stroke="midnightblue" points="120.481,-47.1424 110.03,-48.8802 119.284,-54.0392 120.481,-47.1424"/>
</g>
<!-- Node5 -->
<g id="node5" class="node"><title>Node5</title>
<g id="a_node5"><a xlink:href="../../d2/db9/classoperational_1_1memento_1_1_graphic.html#a34d6bb0c10bd9d104a4af5119d08e96a" target="_top" xlink:title="operational::memento\l::Graphic::point">
<polygon fill="white" stroke="black" points="146,-0.5 146,-30.5 256,-30.5 256,-0.5 146,-0.5"/>
<text text-anchor="start" x="154" y="-18.5" font-family="Helvetica,sans-Serif" font-size="10.00">operational::memento</text>
<text text-anchor="middle" x="201" y="-7.5" font-family="Helvetica,sans-Serif" font-size="10.00">::Graphic::point</text>
</a>
</g>
</g>
<!-- Node1&#45;&gt;Node5 -->
<g id="edge4" class="edge"><title>Node1&#45;&gt;Node5</title>
<path fill="none" stroke="midnightblue" d="M119.991,-28.8349C128.561,-27.4065 137.284,-25.9526 145.667,-24.5555"/>
<polygon fill="midnightblue" stroke="midnightblue" points="119.318,-25.3986 110.03,-30.495 120.469,-32.3033 119.318,-25.3986"/>
</g>
<!-- Node3 -->
<g id="node3" class="node"><title>Node3</title>
<g id="a_node3"><a xlink:href="../../d0/d08/classoperational_1_1memento_1_1_move_command.html#a1d4047a201521463c1d41dc7a4f2b610" target="_top" xlink:title="operational::memento\l::MoveCommand::Execute">
<polygon fill="white" stroke="black" points="297.5,-73.5 297.5,-103.5 428.5,-103.5 428.5,-73.5 297.5,-73.5"/>
<text text-anchor="start" x="305.5" y="-91.5" font-family="Helvetica,sans-Serif" font-size="10.00">operational::memento</text>
<text text-anchor="middle" x="363" y="-80.5" font-family="Helvetica,sans-Serif" font-size="10.00">::MoveCommand::Execute</text>
</a>
</g>
</g>
<!-- Node2&#45;&gt;Node3 -->
<g id="edge2" class="edge"><title>Node2&#45;&gt;Node3</title>
<path fill="none" stroke="midnightblue" d="M266.268,-74.1402C276.512,-75.6769 287.116,-77.2673 297.369,-78.8053"/>
<polygon fill="midnightblue" stroke="midnightblue" points="266.577,-70.6475 256.169,-72.6253 265.539,-77.5701 266.577,-70.6475"/>
</g>
<!-- Node4 -->
<g id="node4" class="node"><title>Node4</title>
<g id="a_node4"><a xlink:href="../../d0/d08/classoperational_1_1memento_1_1_move_command.html#a35eac87f65274c9a08fa98ee8e36bb72" target="_top" xlink:title="operational::memento\l::MoveCommand::Unexecute">
<polygon fill="white" stroke="black" points="292,-24.5 292,-54.5 434,-54.5 434,-24.5 292,-24.5"/>
<text text-anchor="start" x="300" y="-42.5" font-family="Helvetica,sans-Serif" font-size="10.00">operational::memento</text>
<text text-anchor="middle" x="363" y="-31.5" font-family="Helvetica,sans-Serif" font-size="10.00">::MoveCommand::Unexecute</text>
</a>
</g>
</g>
<!-- Node2&#45;&gt;Node4 -->
<g id="edge3" class="edge"><title>Node2&#45;&gt;Node4</title>
<path fill="none" stroke="midnightblue" d="M266.246,-54.4616C274.626,-53.1521 283.247,-51.8052 291.72,-50.4813"/>
<polygon fill="midnightblue" stroke="midnightblue" points="265.508,-51.0342 256.169,-56.0361 266.589,-57.9503 265.508,-51.0342"/>
</g>
</g>
</svg>
