<?xml version="1.0" encoding="UTF-8" standalone="no"?>
<!DOCTYPE svg PUBLIC "-//W3C//DTD SVG 1.1//EN"
 "http://www.w3.org/Graphics/SVG/1.1/DTD/svg11.dtd">
<!-- Generated by graphviz version 2.38.0 (20140413.2041)
 -->
<!-- Title: operational::memento::Graphic::Move Pages: 1 -->
<svg width="296pt" height="88pt"
 viewBox="0.00 0.00 296.00 88.00" xmlns="http://www.w3.org/2000/svg" xmlns:xlink="http://www.w3.org/1999/xlink">
<g id="graph0" class="graph" transform="scale(1 1) rotate(0) translate(4 84)">
<title>operational::memento::Graphic::Move</title>
<polygon fill="white" stroke="none" points="-4,4 -4,-84 292,-84 292,4 -4,4"/>
<!-- Node1 -->
<g id="node1" class="node"><title>Node1</title>
<polygon fill="#bfbfbf" stroke="black" points="0,-24.5 0,-54.5 110,-54.5 110,-24.5 0,-24.5"/>
<text text-anchor="start" x="8" y="-42.5" font-family="Helvetica,sans-Serif" font-size="10.00">operational::memento</text>
<text text-anchor="middle" x="55" y="-31.5" font-family="Helvetica,sans-Serif" font-size="10.00">::Graphic::Move</text>
</g>
<!-- Node2 -->
<g id="node2" class="node"><title>Node2</title>
<g id="a_node2"><a xlink:href="../../d0/d08/classoperational_1_1memento_1_1_move_command.html#a1d4047a201521463c1d41dc7a4f2b610" target="_top" xlink:title="operational::memento\l::MoveCommand::Execute">
<polygon fill="white" stroke="black" points="151.5,-49.5 151.5,-79.5 282.5,-79.5 282.5,-49.5 151.5,-49.5"/>
<text text-anchor="start" x="159.5" y="-67.5" font-family="Helvetica,sans-Serif" font-size="10.00">operational::memento</text>
<text text-anchor="middle" x="217" y="-56.5" font-family="Helvetica,sans-Serif" font-size="10.00">::MoveCommand::Execute</text>
</a>
</g>
</g>
<!-- Node1&#45;&gt;Node2 -->
<g id="edge1" class="edge"><title>Node1&#45;&gt;Node2</title>
<path fill="none" stroke="midnightblue" d="M120.268,-49.5418C130.512,-51.1426 141.116,-52.7993 151.369,-54.4014"/>
<polygon fill="midnightblue" stroke="midnightblue" points="120.589,-46.0497 110.169,-47.9639 119.508,-52.9658 120.589,-46.0497"/>
</g>
<!-- Node3 -->
<g id="node3" class="node"><title>Node3</title>
<g id="a_node3"><a xlink:href="../../d0/d08/classoperational_1_1memento_1_1_move_command.html#a35eac87f65274c9a08fa98ee8e36bb72" target="_top" xlink:title="operational::memento\l::MoveCommand::Unexecute">
<polygon fill="white" stroke="black" points="146,-0.5 146,-30.5 288,-30.5 288,-0.5 146,-0.5"/>
<text text-anchor="start" x="154" y="-18.5" font-family="Helvetica,sans-Serif" font-size="10.00">operational::memento</text>
<text text-anchor="middle" x="217" y="-7.5" font-family="Helvetica,sans-Serif" font-size="10.00">::MoveCommand::Unexecute</text>
</a>
</g>
</g>
<!-- Node1&#45;&gt;Node3 -->
<g id="edge2" class="edge"><title>Node1&#45;&gt;Node3</title>
<path fill="none" stroke="midnightblue" d="M120.246,-29.8631C128.626,-28.6061 137.247,-27.313 145.72,-26.042"/>
<polygon fill="midnightblue" stroke="midnightblue" points="119.539,-26.4299 110.169,-31.3747 120.577,-33.3525 119.539,-26.4299"/>
</g>
</g>
</svg>
