<?xml version="1.0" encoding="UTF-8" standalone="no"?>
<!DOCTYPE svg PUBLIC "-//W3C//DTD SVG 1.1//EN"
 "http://www.w3.org/Graphics/SVG/1.1/DTD/svg11.dtd">
<!-- Generated by graphviz version 2.38.0 (20140413.2041)
 -->
<!-- Title: src/structural/src/flyweight/glyph_interface.h Pages: 1 -->
<svg width="498pt" height="251pt"
 viewBox="0.00 0.00 498.00 251.00" xmlns="http://www.w3.org/2000/svg" xmlns:xlink="http://www.w3.org/1999/xlink">
<g id="graph0" class="graph" transform="scale(1 1) rotate(0) translate(4 247)">
<title>src/structural/src/flyweight/glyph_interface.h</title>
<polygon fill="white" stroke="none" points="-4,4 -4,-247 494,-247 494,4 -4,4"/>
<!-- Node1 -->
<g id="node1" class="node"><title>Node1</title>
<polygon fill="#bfbfbf" stroke="black" points="189,-212.5 189,-242.5 323,-242.5 323,-212.5 189,-212.5"/>
<text text-anchor="start" x="197" y="-230.5" font-family="Helvetica,sans-Serif" font-size="10.00">src/structural/src</text>
<text text-anchor="middle" x="256" y="-219.5" font-family="Helvetica,sans-Serif" font-size="10.00">/flyweight/glyph_interface.h</text>
</g>
<!-- Node2 -->
<g id="node2" class="node"><title>Node2</title>
<g id="a_node2"><a xlink:href="../../dc/d26/character_8h.html" target="_top" xlink:title="src/structural/src\l/flyweight/character.h">
<polygon fill="white" stroke="black" points="78.5,-145.5 78.5,-175.5 187.5,-175.5 187.5,-145.5 78.5,-145.5"/>
<text text-anchor="start" x="86.5" y="-163.5" font-family="Helvetica,sans-Serif" font-size="10.00">src/structural/src</text>
<text text-anchor="middle" x="133" y="-152.5" font-family="Helvetica,sans-Serif" font-size="10.00">/flyweight/character.h</text>
</a>
</g>
</g>
<!-- Node1&#45;&gt;Node2 -->
<g id="edge1" class="edge"><title>Node1&#45;&gt;Node2</title>
<path fill="none" stroke="midnightblue" d="M220.452,-207.714C201.053,-197.463 177.436,-184.983 159.637,-175.577"/>
<polygon fill="midnightblue" stroke="midnightblue" points="218.834,-210.818 229.311,-212.396 222.105,-204.629 218.834,-210.818"/>
</g>
<!-- Node7 -->
<g id="node7" class="node"><title>Node7</title>
<g id="a_node7"><a xlink:href="../../dc/df8/column_8h.html" target="_top" xlink:title="src/structural/src\l/flyweight/column.h">
<polygon fill="white" stroke="black" points="206,-145.5 206,-175.5 306,-175.5 306,-145.5 206,-145.5"/>
<text text-anchor="start" x="214" y="-163.5" font-family="Helvetica,sans-Serif" font-size="10.00">src/structural/src</text>
<text text-anchor="middle" x="256" y="-152.5" font-family="Helvetica,sans-Serif" font-size="10.00">/flyweight/column.h</text>
</a>
</g>
</g>
<!-- Node1&#45;&gt;Node7 -->
<g id="edge6" class="edge"><title>Node1&#45;&gt;Node7</title>
<path fill="none" stroke="midnightblue" d="M256,-202.108C256,-193.154 256,-183.323 256,-175.577"/>
<polygon fill="midnightblue" stroke="midnightblue" points="252.5,-202.396 256,-212.396 259.5,-202.396 252.5,-202.396"/>
</g>
<!-- Node9 -->
<g id="node9" class="node"><title>Node9</title>
<g id="a_node9"><a xlink:href="../../d4/d6d/row_8h.html" target="_top" xlink:title="src/structural/src\l/flyweight/row.h">
<polygon fill="white" stroke="black" points="324,-145.5 324,-175.5 414,-175.5 414,-145.5 324,-145.5"/>
<text text-anchor="start" x="332" y="-163.5" font-family="Helvetica,sans-Serif" font-size="10.00">src/structural/src</text>
<text text-anchor="middle" x="369" y="-152.5" font-family="Helvetica,sans-Serif" font-size="10.00">/flyweight/row.h</text>
</a>
</g>
</g>
<!-- Node1&#45;&gt;Node9 -->
<g id="edge9" class="edge"><title>Node1&#45;&gt;Node9</title>
<path fill="none" stroke="midnightblue" d="M289.386,-207.296C307.068,-197.125 328.398,-184.855 344.529,-175.577"/>
<polygon fill="midnightblue" stroke="midnightblue" points="287.442,-204.376 280.519,-212.396 290.933,-210.444 287.442,-204.376"/>
</g>
<!-- Node3 -->
<g id="node3" class="node"><title>Node3</title>
<g id="a_node3"><a xlink:href="../../db/d57/character_8cc.html" target="_top" xlink:title="src/structural/src\l/flyweight/character.cc">
<polygon fill="white" stroke="black" points="0,-78.5 0,-108.5 114,-108.5 114,-78.5 0,-78.5"/>
<text text-anchor="start" x="8" y="-96.5" font-family="Helvetica,sans-Serif" font-size="10.00">src/structural/src</text>
<text text-anchor="middle" x="57" y="-85.5" font-family="Helvetica,sans-Serif" font-size="10.00">/flyweight/character.cc</text>
</a>
</g>
</g>
<!-- Node2&#45;&gt;Node3 -->
<g id="edge2" class="edge"><title>Node2&#45;&gt;Node3</title>
<path fill="none" stroke="midnightblue" d="M108.894,-138.883C97.3448,-129.005 83.8096,-117.429 73.4587,-108.577"/>
<polygon fill="midnightblue" stroke="midnightblue" points="106.635,-141.556 116.509,-145.396 111.184,-136.236 106.635,-141.556"/>
</g>
<!-- Node4 -->
<g id="node4" class="node"><title>Node4</title>
<g id="a_node4"><a xlink:href="../../da/dec/glyph__factory_8h.html" target="_top" xlink:title="src/structural/src\l/flyweight/glyph_factory.h">
<polygon fill="white" stroke="black" points="132,-78.5 132,-108.5 258,-108.5 258,-78.5 132,-78.5"/>
<text text-anchor="start" x="140" y="-96.5" font-family="Helvetica,sans-Serif" font-size="10.00">src/structural/src</text>
<text text-anchor="middle" x="195" y="-85.5" font-family="Helvetica,sans-Serif" font-size="10.00">/flyweight/glyph_factory.h</text>
</a>
</g>
</g>
<!-- Node2&#45;&gt;Node4 -->
<g id="edge3" class="edge"><title>Node2&#45;&gt;Node4</title>
<path fill="none" stroke="midnightblue" d="M153.485,-138.024C162.722,-128.34 173.373,-117.174 181.573,-108.577"/>
<polygon fill="midnightblue" stroke="midnightblue" points="150.823,-135.744 146.453,-145.396 155.888,-140.576 150.823,-135.744"/>
</g>
<!-- Node5 -->
<g id="node5" class="node"><title>Node5</title>
<g id="a_node5"><a xlink:href="../../d6/dbd/glyph__factory_8cc.html" target="_top" xlink:title="src/structural/src\l/flyweight/glyph_factory.cc">
<polygon fill="white" stroke="black" points="59.5,-6 59.5,-36 190.5,-36 190.5,-6 59.5,-6"/>
<text text-anchor="start" x="67.5" y="-24" font-family="Helvetica,sans-Serif" font-size="10.00">src/structural/src</text>
<text text-anchor="middle" x="125" y="-13" font-family="Helvetica,sans-Serif" font-size="10.00">/flyweight/glyph_factory.cc</text>
</a>
</g>
</g>
<!-- Node4&#45;&gt;Node5 -->
<g id="edge4" class="edge"><title>Node4&#45;&gt;Node5</title>
<path fill="none" stroke="midnightblue" d="M173.518,-70.8641C162.347,-59.6142 149.007,-46.1786 139.144,-36.2455"/>
<polygon fill="midnightblue" stroke="midnightblue" points="171.305,-73.6031 180.834,-78.2333 176.272,-68.671 171.305,-73.6031"/>
</g>
<!-- Node6 -->
<g id="node6" class="node"><title>Node6</title>
<g id="a_node6"><a xlink:href="../../dd/d09/flyweight__test_8cc.html" target="_top" xlink:title="src/structural_tests\l/src/flyweight/flyweight\l_test.cc">
<polygon fill="white" stroke="black" points="209,-0.5 209,-41.5 323,-41.5 323,-0.5 209,-0.5"/>
<text text-anchor="start" x="217" y="-29.5" font-family="Helvetica,sans-Serif" font-size="10.00">src/structural_tests</text>
<text text-anchor="start" x="217" y="-18.5" font-family="Helvetica,sans-Serif" font-size="10.00">/src/flyweight/flyweight</text>
<text text-anchor="middle" x="266" y="-7.5" font-family="Helvetica,sans-Serif" font-size="10.00">_test.cc</text>
</a>
</g>
</g>
<!-- Node4&#45;&gt;Node6 -->
<g id="edge5" class="edge"><title>Node4&#45;&gt;Node6</title>
<path fill="none" stroke="midnightblue" d="M216.551,-71.1007C226.008,-61.7107 237.034,-50.7615 246.273,-41.5884"/>
<polygon fill="midnightblue" stroke="midnightblue" points="213.998,-68.7036 209.368,-78.2333 218.93,-73.6708 213.998,-68.7036"/>
</g>
<!-- Node7&#45;&gt;Node4 -->
<g id="edge8" class="edge"><title>Node7&#45;&gt;Node4</title>
<path fill="none" stroke="midnightblue" d="M235.846,-138.024C226.757,-128.34 216.279,-117.174 208.21,-108.577"/>
<polygon fill="midnightblue" stroke="midnightblue" points="233.369,-140.499 242.764,-145.396 238.473,-135.709 233.369,-140.499"/>
</g>
<!-- Node8 -->
<g id="node8" class="node"><title>Node8</title>
<g id="a_node8"><a xlink:href="../../de/de6/column_8cc.html" target="_top" xlink:title="src/structural/src\l/flyweight/column.cc">
<polygon fill="white" stroke="black" points="276.5,-78.5 276.5,-108.5 381.5,-108.5 381.5,-78.5 276.5,-78.5"/>
<text text-anchor="start" x="284.5" y="-96.5" font-family="Helvetica,sans-Serif" font-size="10.00">src/structural/src</text>
<text text-anchor="middle" x="329" y="-85.5" font-family="Helvetica,sans-Serif" font-size="10.00">/flyweight/column.cc</text>
</a>
</g>
</g>
<!-- Node7&#45;&gt;Node8 -->
<g id="edge7" class="edge"><title>Node7&#45;&gt;Node8</title>
<path fill="none" stroke="midnightblue" d="M279.475,-138.598C290.497,-128.783 303.344,-117.344 313.191,-108.577"/>
<polygon fill="midnightblue" stroke="midnightblue" points="276.981,-136.132 271.84,-145.396 281.636,-141.36 276.981,-136.132"/>
</g>
<!-- Node9&#45;&gt;Node4 -->
<g id="edge10" class="edge"><title>Node9&#45;&gt;Node4</title>
<path fill="none" stroke="midnightblue" d="M321.668,-141.819C293.7,-131.371 258.773,-118.323 232.682,-108.577"/>
<polygon fill="midnightblue" stroke="midnightblue" points="320.652,-145.175 331.245,-145.396 323.102,-138.618 320.652,-145.175"/>
</g>
<!-- Node10 -->
<g id="node10" class="node"><title>Node10</title>
<g id="a_node10"><a xlink:href="../../df/d78/row_8cc.html" target="_top" xlink:title="src/structural/src\l/flyweight/row.cc">
<polygon fill="white" stroke="black" points="400,-78.5 400,-108.5 490,-108.5 490,-78.5 400,-78.5"/>
<text text-anchor="start" x="408" y="-96.5" font-family="Helvetica,sans-Serif" font-size="10.00">src/structural/src</text>
<text text-anchor="middle" x="445" y="-85.5" font-family="Helvetica,sans-Serif" font-size="10.00">/flyweight/row.cc</text>
</a>
</g>
</g>
<!-- Node9&#45;&gt;Node10 -->
<g id="edge11" class="edge"><title>Node9&#45;&gt;Node10</title>
<path fill="none" stroke="midnightblue" d="M393.106,-138.883C404.655,-129.005 418.19,-117.429 428.541,-108.577"/>
<polygon fill="midnightblue" stroke="midnightblue" points="390.816,-136.236 385.491,-145.396 395.365,-141.556 390.816,-136.236"/>
</g>
</g>
</svg>
