<?xml version="1.0" encoding="UTF-8" standalone="no"?>
<!DOCTYPE svg PUBLIC "-//W3C//DTD SVG 1.1//EN"
 "http://www.w3.org/Graphics/SVG/1.1/DTD/svg11.dtd">
<!-- Generated by graphviz version 2.38.0 (20140413.2041)
 -->
<!-- Title: operational::madiator::MediatorWidget Pages: 1 -->
<svg width="151pt" height="226pt"
 viewBox="0.00 0.00 151.00 226.00" xmlns="http://www.w3.org/2000/svg" xmlns:xlink="http://www.w3.org/1999/xlink">
<g id="graph0" class="graph" transform="scale(1 1) rotate(0) translate(4 222)">
<title>operational::madiator::MediatorWidget</title>
<polygon fill="white" stroke="none" points="-4,4 -4,-222 147,-222 147,4 -4,4"/>
<!-- Node1 -->
<g id="node1" class="node"><title>Node1</title>
<polygon fill="#bfbfbf" stroke="black" points="18,-0.5 18,-90.5 125,-90.5 125,-0.5 18,-0.5"/>
<text text-anchor="start" x="26" y="-78.5" font-family="Helvetica,sans-Serif" font-size="10.00">operational::madiator</text>
<text text-anchor="middle" x="71.5" y="-67.5" font-family="Helvetica,sans-Serif" font-size="10.00">::MediatorWidget</text>
<polyline fill="none" stroke="black" points="18,-60.5 125,-60.5 "/>
<text text-anchor="middle" x="71.5" y="-48.5" font-family="Helvetica,sans-Serif" font-size="10.00"> </text>
<polyline fill="none" stroke="black" points="18,-41.5 125,-41.5 "/>
<text text-anchor="start" x="26" y="-29.5" font-family="Helvetica,sans-Serif" font-size="10.00">+ MediatorWidget()</text>
<text text-anchor="start" x="26" y="-18.5" font-family="Helvetica,sans-Serif" font-size="10.00">+ Changed()</text>
<text text-anchor="start" x="26" y="-7.5" font-family="Helvetica,sans-Serif" font-size="10.00">+ HandleMouse()</text>
</g>
<!-- Node2 -->
<g id="node2" class="node"><title>Node2</title>
<g id="a_node2"><a xlink:href="../../de/d29/classoperational_1_1madiator_1_1_mediator_widget_interface.html" target="_top" xlink:title="{operational::madiator\l::MediatorWidgetInterface\n||+ ~MediatorWidgetInterface()\l+ Changed()\l+ HandleMouse()\l}">
<polygon fill="white" stroke="black" points="0,-127.5 0,-217.5 143,-217.5 143,-127.5 0,-127.5"/>
<text text-anchor="start" x="8" y="-205.5" font-family="Helvetica,sans-Serif" font-size="10.00">operational::madiator</text>
<text text-anchor="middle" x="71.5" y="-194.5" font-family="Helvetica,sans-Serif" font-size="10.00">::MediatorWidgetInterface</text>
<polyline fill="none" stroke="black" points="0,-187.5 143,-187.5 "/>
<text text-anchor="middle" x="71.5" y="-175.5" font-family="Helvetica,sans-Serif" font-size="10.00"> </text>
<polyline fill="none" stroke="black" points="0,-168.5 143,-168.5 "/>
<text text-anchor="start" x="8" y="-156.5" font-family="Helvetica,sans-Serif" font-size="10.00">+ ~MediatorWidgetInterface()</text>
<text text-anchor="start" x="8" y="-145.5" font-family="Helvetica,sans-Serif" font-size="10.00">+ Changed()</text>
<text text-anchor="start" x="8" y="-134.5" font-family="Helvetica,sans-Serif" font-size="10.00">+ HandleMouse()</text>
</a>
</g>
</g>
<!-- Node2&#45;&gt;Node1 -->
<g id="edge1" class="edge"><title>Node2&#45;&gt;Node1</title>
<path fill="none" stroke="midnightblue" d="M71.5,-117.157C71.5,-108.282 71.5,-99.1831 71.5,-90.5937"/>
<polygon fill="none" stroke="midnightblue" points="68.0001,-117.43 71.5,-127.43 75.0001,-117.43 68.0001,-117.43"/>
</g>
</g>
</svg>
