<?xml version="1.0" encoding="UTF-8" standalone="no"?>
<!DOCTYPE svg PUBLIC "-//W3C//DTD SVG 1.1//EN"
 "http://www.w3.org/Graphics/SVG/1.1/DTD/svg11.dtd">
<!-- Generated by graphviz version 2.38.0 (20140413.2041)
 -->
<!-- Title: operational::madiator::MediatorWidget Pages: 1 -->
<svg width="240pt" height="364pt"
 viewBox="0.00 0.00 240.00 364.00" xmlns="http://www.w3.org/2000/svg" xmlns:xlink="http://www.w3.org/1999/xlink">
<g id="graph0" class="graph" transform="scale(1 1) rotate(0) translate(4 360)">
<title>operational::madiator::MediatorWidget</title>
<polygon fill="white" stroke="none" points="-4,4 -4,-360 236,-360 236,4 -4,4"/>
<!-- Node1 -->
<g id="node1" class="node"><title>Node1</title>
<polygon fill="#bfbfbf" stroke="black" points="62,-138.5 62,-228.5 169,-228.5 169,-138.5 62,-138.5"/>
<text text-anchor="start" x="70" y="-216.5" font-family="Helvetica,sans-Serif" font-size="10.00">operational::madiator</text>
<text text-anchor="middle" x="115.5" y="-205.5" font-family="Helvetica,sans-Serif" font-size="10.00">::MediatorWidget</text>
<polyline fill="none" stroke="black" points="62,-198.5 169,-198.5 "/>
<text text-anchor="middle" x="115.5" y="-186.5" font-family="Helvetica,sans-Serif" font-size="10.00"> </text>
<polyline fill="none" stroke="black" points="62,-179.5 169,-179.5 "/>
<text text-anchor="start" x="70" y="-167.5" font-family="Helvetica,sans-Serif" font-size="10.00">+ MediatorWidget()</text>
<text text-anchor="start" x="70" y="-156.5" font-family="Helvetica,sans-Serif" font-size="10.00">+ Changed()</text>
<text text-anchor="start" x="70" y="-145.5" font-family="Helvetica,sans-Serif" font-size="10.00">+ HandleMouse()</text>
</g>
<!-- Node3 -->
<g id="node3" class="node"><title>Node3</title>
<g id="a_node3"><a xlink:href="../../d7/d87/classoperational_1_1madiator_1_1_entry_field.html" target="_top" xlink:title="{operational::madiator\l::EntryField\n||+ EntryField()\l+ HandleMouse()\l+ text()\l+ text()\l}">
<polygon fill="white" stroke="black" points="0,-0.5 0,-101.5 107,-101.5 107,-0.5 0,-0.5"/>
<text text-anchor="start" x="8" y="-89.5" font-family="Helvetica,sans-Serif" font-size="10.00">operational::madiator</text>
<text text-anchor="middle" x="53.5" y="-78.5" font-family="Helvetica,sans-Serif" font-size="10.00">::EntryField</text>
<polyline fill="none" stroke="black" points="0,-71.5 107,-71.5 "/>
<text text-anchor="middle" x="53.5" y="-59.5" font-family="Helvetica,sans-Serif" font-size="10.00"> </text>
<polyline fill="none" stroke="black" points="0,-52.5 107,-52.5 "/>
<text text-anchor="start" x="8" y="-40.5" font-family="Helvetica,sans-Serif" font-size="10.00">+ EntryField()</text>
<text text-anchor="start" x="8" y="-29.5" font-family="Helvetica,sans-Serif" font-size="10.00">+ HandleMouse()</text>
<text text-anchor="start" x="8" y="-18.5" font-family="Helvetica,sans-Serif" font-size="10.00">+ text()</text>
<text text-anchor="start" x="8" y="-7.5" font-family="Helvetica,sans-Serif" font-size="10.00">+ text()</text>
</a>
</g>
</g>
<!-- Node1&#45;&gt;Node3 -->
<g id="edge2" class="edge"><title>Node1&#45;&gt;Node3</title>
<path fill="none" stroke="midnightblue" d="M90.2152,-129.279C85.8552,-120.103 81.3391,-110.597 77.0279,-101.523"/>
<polygon fill="none" stroke="midnightblue" points="87.0569,-130.788 94.5096,-138.319 93.3797,-127.784 87.0569,-130.788"/>
</g>
<!-- Node4 -->
<g id="node4" class="node"><title>Node4</title>
<g id="a_node4"><a xlink:href="../../d3/d5c/classoperational_1_1madiator_1_1_mediator_button.html" target="_top" xlink:title="{operational::madiator\l::MediatorButton\n||+ MediatorButton()\l+ text()\l+ text()\l+ HandleMouse()\l}">
<polygon fill="white" stroke="black" points="125,-0.5 125,-101.5 232,-101.5 232,-0.5 125,-0.5"/>
<text text-anchor="start" x="133" y="-89.5" font-family="Helvetica,sans-Serif" font-size="10.00">operational::madiator</text>
<text text-anchor="middle" x="178.5" y="-78.5" font-family="Helvetica,sans-Serif" font-size="10.00">::MediatorButton</text>
<polyline fill="none" stroke="black" points="125,-71.5 232,-71.5 "/>
<text text-anchor="middle" x="178.5" y="-59.5" font-family="Helvetica,sans-Serif" font-size="10.00"> </text>
<polyline fill="none" stroke="black" points="125,-52.5 232,-52.5 "/>
<text text-anchor="start" x="133" y="-40.5" font-family="Helvetica,sans-Serif" font-size="10.00">+ MediatorButton()</text>
<text text-anchor="start" x="133" y="-29.5" font-family="Helvetica,sans-Serif" font-size="10.00">+ text()</text>
<text text-anchor="start" x="133" y="-18.5" font-family="Helvetica,sans-Serif" font-size="10.00">+ text()</text>
<text text-anchor="start" x="133" y="-7.5" font-family="Helvetica,sans-Serif" font-size="10.00">+ HandleMouse()</text>
</a>
</g>
</g>
<!-- Node1&#45;&gt;Node4 -->
<g id="edge3" class="edge"><title>Node1&#45;&gt;Node4</title>
<path fill="none" stroke="midnightblue" d="M141.193,-129.279C145.623,-120.103 150.212,-110.597 154.593,-101.523"/>
<polygon fill="none" stroke="midnightblue" points="138.025,-127.791 136.829,-138.319 144.328,-130.835 138.025,-127.791"/>
</g>
<!-- Node2 -->
<g id="node2" class="node"><title>Node2</title>
<g id="a_node2"><a xlink:href="../../de/d29/classoperational_1_1madiator_1_1_mediator_widget_interface.html" target="_top" xlink:title="{operational::madiator\l::MediatorWidgetInterface\n||+ ~MediatorWidgetInterface()\l+ Changed()\l+ HandleMouse()\l}">
<polygon fill="white" stroke="black" points="44,-265.5 44,-355.5 187,-355.5 187,-265.5 44,-265.5"/>
<text text-anchor="start" x="52" y="-343.5" font-family="Helvetica,sans-Serif" font-size="10.00">operational::madiator</text>
<text text-anchor="middle" x="115.5" y="-332.5" font-family="Helvetica,sans-Serif" font-size="10.00">::MediatorWidgetInterface</text>
<polyline fill="none" stroke="black" points="44,-325.5 187,-325.5 "/>
<text text-anchor="middle" x="115.5" y="-313.5" font-family="Helvetica,sans-Serif" font-size="10.00"> </text>
<polyline fill="none" stroke="black" points="44,-306.5 187,-306.5 "/>
<text text-anchor="start" x="52" y="-294.5" font-family="Helvetica,sans-Serif" font-size="10.00">+ ~MediatorWidgetInterface()</text>
<text text-anchor="start" x="52" y="-283.5" font-family="Helvetica,sans-Serif" font-size="10.00">+ Changed()</text>
<text text-anchor="start" x="52" y="-272.5" font-family="Helvetica,sans-Serif" font-size="10.00">+ HandleMouse()</text>
</a>
</g>
</g>
<!-- Node2&#45;&gt;Node1 -->
<g id="edge1" class="edge"><title>Node2&#45;&gt;Node1</title>
<path fill="none" stroke="midnightblue" d="M115.5,-255.157C115.5,-246.282 115.5,-237.183 115.5,-228.594"/>
<polygon fill="none" stroke="midnightblue" points="112,-255.43 115.5,-265.43 119,-255.43 112,-255.43"/>
</g>
</g>
</svg>
