<?xml version="1.0" encoding="UTF-8" standalone="no"?>
<!DOCTYPE svg PUBLIC "-//W3C//DTD SVG 1.1//EN"
 "http://www.w3.org/Graphics/SVG/1.1/DTD/svg11.dtd">
<!-- Generated by graphviz version 2.38.0 (20140413.2041)
 -->
<!-- Title: creational::abstractfactory::BombedMazeFactory Pages: 1 -->
<svg width="139pt" height="259pt"
 viewBox="0.00 0.00 139.00 259.00" xmlns="http://www.w3.org/2000/svg" xmlns:xlink="http://www.w3.org/1999/xlink">
<g id="graph0" class="graph" transform="scale(1 1) rotate(0) translate(4 255)">
<title>creational::abstractfactory::BombedMazeFactory</title>
<polygon fill="white" stroke="none" points="-4,4 -4,-255 135,-255 135,4 -4,4"/>
<!-- Node1 -->
<g id="node1" class="node"><title>Node1</title>
<polygon fill="#bfbfbf" stroke="black" points="1,-0.5 1,-101.5 130,-101.5 130,-0.5 1,-0.5"/>
<text text-anchor="start" x="9" y="-89.5" font-family="Helvetica,sans-Serif" font-size="10.00">creational::abstractfactory</text>
<text text-anchor="middle" x="65.5" y="-78.5" font-family="Helvetica,sans-Serif" font-size="10.00">::BombedMazeFactory</text>
<polyline fill="none" stroke="black" points="1,-71.5 130,-71.5 "/>
<text text-anchor="middle" x="65.5" y="-59.5" font-family="Helvetica,sans-Serif" font-size="10.00"> </text>
<polyline fill="none" stroke="black" points="1,-52.5 130,-52.5 "/>
<text text-anchor="start" x="9" y="-40.5" font-family="Helvetica,sans-Serif" font-size="10.00">+ MakeMaze()</text>
<text text-anchor="start" x="9" y="-29.5" font-family="Helvetica,sans-Serif" font-size="10.00">+ MakeWall()</text>
<text text-anchor="start" x="9" y="-18.5" font-family="Helvetica,sans-Serif" font-size="10.00">+ MakeRoom()</text>
<text text-anchor="start" x="9" y="-7.5" font-family="Helvetica,sans-Serif" font-size="10.00">+ MakeDoor()</text>
</g>
<!-- Node2 -->
<g id="node2" class="node"><title>Node2</title>
<g id="a_node2"><a xlink:href="../../de/dce/classcreational_1_1abstractfactory_1_1_maze_factory_interface.html" target="_top" xlink:title="{creational::abstractfactory\l::MazeFactoryInterface\n||+ ~MazeFactoryInterface()\l+ MakeMaze()\l+ MakeWall()\l+ MakeRoom()\l+ MakeDoor()\l}">
<polygon fill="white" stroke="black" points="0,-138.5 0,-250.5 131,-250.5 131,-138.5 0,-138.5"/>
<text text-anchor="start" x="8" y="-238.5" font-family="Helvetica,sans-Serif" font-size="10.00">creational::abstractfactory</text>
<text text-anchor="middle" x="65.5" y="-227.5" font-family="Helvetica,sans-Serif" font-size="10.00">::MazeFactoryInterface</text>
<polyline fill="none" stroke="black" points="0,-220.5 131,-220.5 "/>
<text text-anchor="middle" x="65.5" y="-208.5" font-family="Helvetica,sans-Serif" font-size="10.00"> </text>
<polyline fill="none" stroke="black" points="0,-201.5 131,-201.5 "/>
<text text-anchor="start" x="8" y="-189.5" font-family="Helvetica,sans-Serif" font-size="10.00">+ ~MazeFactoryInterface()</text>
<text text-anchor="start" x="8" y="-178.5" font-family="Helvetica,sans-Serif" font-size="10.00">+ MakeMaze()</text>
<text text-anchor="start" x="8" y="-167.5" font-family="Helvetica,sans-Serif" font-size="10.00">+ MakeWall()</text>
<text text-anchor="start" x="8" y="-156.5" font-family="Helvetica,sans-Serif" font-size="10.00">+ MakeRoom()</text>
<text text-anchor="start" x="8" y="-145.5" font-family="Helvetica,sans-Serif" font-size="10.00">+ MakeDoor()</text>
</a>
</g>
</g>
<!-- Node2&#45;&gt;Node1 -->
<g id="edge1" class="edge"><title>Node2&#45;&gt;Node1</title>
<path fill="none" stroke="midnightblue" d="M65.5,-128.344C65.5,-119.375 65.5,-110.286 65.5,-101.658"/>
<polygon fill="none" stroke="midnightblue" points="62.0001,-128.387 65.5,-138.387 69.0001,-128.387 62.0001,-128.387"/>
</g>
</g>
</svg>
