<?xml version="1.0" encoding="UTF-8" standalone="no"?>
<!DOCTYPE svg PUBLIC "-//W3C//DTD SVG 1.1//EN"
 "http://www.w3.org/Graphics/SVG/1.1/DTD/svg11.dtd">
<!-- Generated by graphviz version 2.38.0 (20140413.2041)
 -->
<!-- Title: structural::adapter::TextShapeClassAdapter Pages: 1 -->
<svg width="252pt" height="463pt"
 viewBox="0.00 0.00 251.50 463.00" xmlns="http://www.w3.org/2000/svg" xmlns:xlink="http://www.w3.org/1999/xlink">
<g id="graph0" class="graph" transform="scale(1 1) rotate(0) translate(4 459)">
<title>structural::adapter::TextShapeClassAdapter</title>
<polygon fill="white" stroke="none" points="-4,4 -4,-459 247.5,-459 247.5,4 -4,4"/>
<!-- Node1 -->
<g id="node1" class="node"><title>Node1</title>
<polygon fill="#bfbfbf" stroke="black" points="65,-0.5 65,-101.5 202,-101.5 202,-0.5 65,-0.5"/>
<text text-anchor="start" x="73" y="-89.5" font-family="Helvetica,sans-Serif" font-size="10.00">structural::adapter</text>
<text text-anchor="middle" x="133.5" y="-78.5" font-family="Helvetica,sans-Serif" font-size="10.00">::TextShapeClassAdapter</text>
<polyline fill="none" stroke="black" points="65,-71.5 202,-71.5 "/>
<text text-anchor="middle" x="133.5" y="-59.5" font-family="Helvetica,sans-Serif" font-size="10.00"> </text>
<polyline fill="none" stroke="black" points="65,-52.5 202,-52.5 "/>
<text text-anchor="start" x="73" y="-40.5" font-family="Helvetica,sans-Serif" font-size="10.00">+ TextShapeClassAdapter()</text>
<text text-anchor="start" x="73" y="-29.5" font-family="Helvetica,sans-Serif" font-size="10.00">+ TextShapeClassAdapter()</text>
<text text-anchor="start" x="73" y="-18.5" font-family="Helvetica,sans-Serif" font-size="10.00">+ BoundingBox()</text>
<text text-anchor="start" x="73" y="-7.5" font-family="Helvetica,sans-Serif" font-size="10.00">+ IsEmpty()</text>
</g>
<!-- Node2 -->
<g id="node2" class="node"><title>Node2</title>
<g id="a_node2"><a xlink:href="../../d7/dce/classstructural_1_1adapter_1_1_text_view.html" target="_top" xlink:title="{structural::adapter\l::TextView\n||+ TextView()\l+ TextView()\l+ ~TextView()\l+ Draw()\l+ Resize()\l+ GetOrigin()\l+ SetOrigin()\l+ GetExtent()\l+ SetExtent()\l+ IsEmpty()\l+ content()\l+ content()\l}">
<polygon fill="white" stroke="black" points="28,-138.5 28,-327.5 123,-327.5 123,-138.5 28,-138.5"/>
<text text-anchor="start" x="36" y="-315.5" font-family="Helvetica,sans-Serif" font-size="10.00">structural::adapter</text>
<text text-anchor="middle" x="75.5" y="-304.5" font-family="Helvetica,sans-Serif" font-size="10.00">::TextView</text>
<polyline fill="none" stroke="black" points="28,-297.5 123,-297.5 "/>
<text text-anchor="middle" x="75.5" y="-285.5" font-family="Helvetica,sans-Serif" font-size="10.00"> </text>
<polyline fill="none" stroke="black" points="28,-278.5 123,-278.5 "/>
<text text-anchor="start" x="36" y="-266.5" font-family="Helvetica,sans-Serif" font-size="10.00">+ TextView()</text>
<text text-anchor="start" x="36" y="-255.5" font-family="Helvetica,sans-Serif" font-size="10.00">+ TextView()</text>
<text text-anchor="start" x="36" y="-244.5" font-family="Helvetica,sans-Serif" font-size="10.00">+ ~TextView()</text>
<text text-anchor="start" x="36" y="-233.5" font-family="Helvetica,sans-Serif" font-size="10.00">+ Draw()</text>
<text text-anchor="start" x="36" y="-222.5" font-family="Helvetica,sans-Serif" font-size="10.00">+ Resize()</text>
<text text-anchor="start" x="36" y="-211.5" font-family="Helvetica,sans-Serif" font-size="10.00">+ GetOrigin()</text>
<text text-anchor="start" x="36" y="-200.5" font-family="Helvetica,sans-Serif" font-size="10.00">+ SetOrigin()</text>
<text text-anchor="start" x="36" y="-189.5" font-family="Helvetica,sans-Serif" font-size="10.00">+ GetExtent()</text>
<text text-anchor="start" x="36" y="-178.5" font-family="Helvetica,sans-Serif" font-size="10.00">+ SetExtent()</text>
<text text-anchor="start" x="36" y="-167.5" font-family="Helvetica,sans-Serif" font-size="10.00">+ IsEmpty()</text>
<text text-anchor="start" x="36" y="-156.5" font-family="Helvetica,sans-Serif" font-size="10.00">+ content()</text>
<text text-anchor="start" x="36" y="-145.5" font-family="Helvetica,sans-Serif" font-size="10.00">+ content()</text>
</a>
</g>
</g>
<!-- Node2&#45;&gt;Node1 -->
<g id="edge1" class="edge"><title>Node2&#45;&gt;Node1</title>
<path fill="none" stroke="midnightblue" d="M108.828,-128.568C111.824,-119.271 114.756,-110.17 117.494,-101.673"/>
<polygon fill="none" stroke="midnightblue" points="105.425,-127.718 105.689,-138.31 112.087,-129.865 105.425,-127.718"/>
</g>
<!-- Node3 -->
<g id="node3" class="node"><title>Node3</title>
<g id="a_node3"><a xlink:href="../../da/d96/classstructural_1_1adapter_1_1_visual_component_interface.html" target="_top" xlink:title="{structural::adapter\l::VisualComponentInterface\n||+ ~VisualComponentInterface()\l+ Draw()\l+ Resize()\l}">
<polygon fill="white" stroke="black" points="0,-364.5 0,-454.5 151,-454.5 151,-364.5 0,-364.5"/>
<text text-anchor="start" x="8" y="-442.5" font-family="Helvetica,sans-Serif" font-size="10.00">structural::adapter</text>
<text text-anchor="middle" x="75.5" y="-431.5" font-family="Helvetica,sans-Serif" font-size="10.00">::VisualComponentInterface</text>
<polyline fill="none" stroke="black" points="0,-424.5 151,-424.5 "/>
<text text-anchor="middle" x="75.5" y="-412.5" font-family="Helvetica,sans-Serif" font-size="10.00"> </text>
<polyline fill="none" stroke="black" points="0,-405.5 151,-405.5 "/>
<text text-anchor="start" x="8" y="-393.5" font-family="Helvetica,sans-Serif" font-size="10.00">+ ~VisualComponentInterface()</text>
<text text-anchor="start" x="8" y="-382.5" font-family="Helvetica,sans-Serif" font-size="10.00">+ Draw()</text>
<text text-anchor="start" x="8" y="-371.5" font-family="Helvetica,sans-Serif" font-size="10.00">+ Resize()</text>
</a>
</g>
</g>
<!-- Node3&#45;&gt;Node2 -->
<g id="edge2" class="edge"><title>Node3&#45;&gt;Node2</title>
<path fill="none" stroke="midnightblue" d="M75.5,-354.362C75.5,-345.856 75.5,-336.857 75.5,-327.763"/>
<polygon fill="none" stroke="midnightblue" points="72.0001,-354.466 75.5,-364.466 79.0001,-354.466 72.0001,-354.466"/>
</g>
<!-- Node4 -->
<g id="node4" class="node"><title>Node4</title>
<g id="a_node4"><a xlink:href="../../da/da8/classstructural_1_1adapter_1_1_shape_interface.html" target="_top" xlink:title="{structural::adapter\l::ShapeInterface\n||+ ~ShapeInterface()\l+ BoundingBox()\l}">
<polygon fill="white" stroke="black" points="141.5,-193.5 141.5,-272.5 243.5,-272.5 243.5,-193.5 141.5,-193.5"/>
<text text-anchor="start" x="149.5" y="-260.5" font-family="Helvetica,sans-Serif" font-size="10.00">structural::adapter</text>
<text text-anchor="middle" x="192.5" y="-249.5" font-family="Helvetica,sans-Serif" font-size="10.00">::ShapeInterface</text>
<polyline fill="none" stroke="black" points="141.5,-242.5 243.5,-242.5 "/>
<text text-anchor="middle" x="192.5" y="-230.5" font-family="Helvetica,sans-Serif" font-size="10.00"> </text>
<polyline fill="none" stroke="black" points="141.5,-223.5 243.5,-223.5 "/>
<text text-anchor="start" x="149.5" y="-211.5" font-family="Helvetica,sans-Serif" font-size="10.00">+ ~ShapeInterface()</text>
<text text-anchor="start" x="149.5" y="-200.5" font-family="Helvetica,sans-Serif" font-size="10.00">+ BoundingBox()</text>
</a>
</g>
</g>
<!-- Node4&#45;&gt;Node1 -->
<g id="edge3" class="edge"><title>Node4&#45;&gt;Node1</title>
<path fill="none" stroke="midnightblue" d="M176.633,-183.591C168.303,-158.178 158.114,-127.092 149.731,-101.517"/>
<polygon fill="none" stroke="midnightblue" points="173.402,-184.973 179.843,-193.385 180.054,-182.793 173.402,-184.973"/>
</g>
</g>
</svg>
