<?xml version="1.0" encoding="UTF-8" standalone="no"?>
<!DOCTYPE svg PUBLIC "-//W3C//DTD SVG 1.1//EN"
 "http://www.w3.org/Graphics/SVG/1.1/DTD/svg11.dtd">
<!-- Generated by graphviz version 2.38.0 (20140413.2041)
 -->
<!-- Title: src/structural/src/bridge/p_m_window_imp.h Pages: 1 -->
<svg width="292pt" height="106pt"
 viewBox="0.00 0.00 292.00 106.00" xmlns="http://www.w3.org/2000/svg" xmlns:xlink="http://www.w3.org/1999/xlink">
<g id="graph0" class="graph" transform="scale(1 1) rotate(0) translate(4 102)">
<title>src/structural/src/bridge/p_m_window_imp.h</title>
<polygon fill="white" stroke="none" points="-4,4 -4,-102 288,-102 288,4 -4,4"/>
<!-- Node1 -->
<g id="node1" class="node"><title>Node1</title>
<polygon fill="#bfbfbf" stroke="black" points="77.5,-67.5 77.5,-97.5 211.5,-97.5 211.5,-67.5 77.5,-67.5"/>
<text text-anchor="start" x="85.5" y="-85.5" font-family="Helvetica,sans-Serif" font-size="10.00">src/structural/src</text>
<text text-anchor="middle" x="144.5" y="-74.5" font-family="Helvetica,sans-Serif" font-size="10.00">/bridge/p_m_window_imp.h</text>
</g>
<!-- Node2 -->
<g id="node2" class="node"><title>Node2</title>
<g id="a_node2"><a xlink:href="../../d5/dda/p__m__window__imp_8cc.html" target="_top" xlink:title="src/structural/src\l/bridge/p_m_window_imp.cc">
<polygon fill="white" stroke="black" points="0,-0.5 0,-30.5 139,-30.5 139,-0.5 0,-0.5"/>
<text text-anchor="start" x="8" y="-18.5" font-family="Helvetica,sans-Serif" font-size="10.00">src/structural/src</text>
<text text-anchor="middle" x="69.5" y="-7.5" font-family="Helvetica,sans-Serif" font-size="10.00">/bridge/p_m_window_imp.cc</text>
</a>
</g>
</g>
<!-- Node1&#45;&gt;Node2 -->
<g id="edge1" class="edge"><title>Node1&#45;&gt;Node2</title>
<path fill="none" stroke="midnightblue" d="M120.382,-60.5978C109.057,-50.7831 95.8587,-39.3442 85.7421,-30.5765"/>
<polygon fill="midnightblue" stroke="midnightblue" points="118.377,-63.4915 128.226,-67.396 122.961,-58.2017 118.377,-63.4915"/>
</g>
<!-- Node3 -->
<g id="node3" class="node"><title>Node3</title>
<g id="a_node3"><a xlink:href="../../d5/de6/bridge__test_8cc.html" target="_top" xlink:title="src/structural_tests\l/src/bridge/bridge_test.cc">
<polygon fill="white" stroke="black" points="157,-0.5 157,-30.5 284,-30.5 284,-0.5 157,-0.5"/>
<text text-anchor="start" x="165" y="-18.5" font-family="Helvetica,sans-Serif" font-size="10.00">src/structural_tests</text>
<text text-anchor="middle" x="220.5" y="-7.5" font-family="Helvetica,sans-Serif" font-size="10.00">/src/bridge/bridge_test.cc</text>
</a>
</g>
</g>
<!-- Node1&#45;&gt;Node3 -->
<g id="edge2" class="edge"><title>Node1&#45;&gt;Node3</title>
<path fill="none" stroke="midnightblue" d="M168.606,-60.8832C180.155,-51.0054 193.69,-39.4293 204.041,-30.5765"/>
<polygon fill="midnightblue" stroke="midnightblue" points="166.316,-58.2364 160.991,-67.396 170.865,-63.5561 166.316,-58.2364"/>
</g>
</g>
</svg>
