<?xml version="1.0" encoding="UTF-8" standalone="no"?>
<!DOCTYPE svg PUBLIC "-//W3C//DTD SVG 1.1//EN"
 "http://www.w3.org/Graphics/SVG/1.1/DTD/svg11.dtd">
<!-- Generated by graphviz version 2.38.0 (20140413.2041)
 -->
<!-- Title: src/structural/src/facade/statement_node_interface.h Pages: 1 -->
<!--zoomable 507 -->
<svg id="main" version="1.1" xmlns="http://www.w3.org/2000/svg" xmlns:xlink="http://www.w3.org/1999/xlink" xml:space="preserve" onload="init(evt)">
<style type="text/css"><![CDATA[
.edge:hover path { stroke: red; }
.edge:hover polygon { stroke: red; fill: red; }
]]></style>
<script type="text/javascript"><![CDATA[
var edges = document.getElementsByTagName('g');
if (edges && edges.length) {
  for (var i=0;i<edges.length;i++) {
    if (edges[i].id.substr(0,4)=='edge') {
      edges[i].setAttribute('class','edge');
    }
  }
}
]]></script>
        <defs>
                <circle id="rim" cx="0" cy="0" r="7"/>
                <circle id="rim2" cx="0" cy="0" r="3.5"/>
                <g id="zoomPlus">
                        <use xlink:href="#rim" fill="#404040">
                                <set attributeName="fill" to="#808080" begin="zoomplus.mouseover" end="zoomplus.mouseout"/>
                        </use>
                        <path d="M-4,0h8M0,-4v8" fill="none" stroke="white" stroke-width="1.5" pointer-events="none"/>
                </g>
                <g id="zoomMin">
                        <use xlink:href="#rim" fill="#404040">
                                <set attributeName="fill" to="#808080" begin="zoomminus.mouseover" end="zoomminus.mouseout"/>
                        </use>
                        <path d="M-4,0h8" fill="none" stroke="white" stroke-width="1.5" pointer-events="none"/>
                </g>
                <g id="dirArrow">
                        <path fill="none" stroke="white" stroke-width="1.5" d="M0,-3.0v7 M-2.5,-0.5L0,-3.0L2.5,-0.5"/>
                </g>
               <g id="resetDef">
                       <use xlink:href="#rim2" fill="#404040">
                               <set attributeName="fill" to="#808080" begin="reset.mouseover" end="reset.mouseout"/>
                       </use>
               </g>
        </defs>

<script type="text/javascript">
var viewWidth = 741;
var viewHeight = 507;
var sectionId = 'dynsection-1';
</script>
<script xlink:href="../../svgpan.js"/>
<svg id="graph" class="graph">
<g id="viewport">
<title>src/structural/src/facade/statement_node_interface.h</title>
<polygon fill="white" stroke="none" points="-4,4 -4,-503 737.029,-503 737.029,4 -4,4"/>
<!-- Node1 -->
<g id="node1" class="node"><title>Node1</title>
<polygon fill="#bfbfbf" stroke="black" points="465.029,-457.5 465.029,-498.5 586.029,-498.5 586.029,-457.5 465.029,-457.5"/>
<text text-anchor="start" x="473.029" y="-486.5" font-family="Helvetica,sans-Serif" font-size="10.00">src/structural/src</text>
<text text-anchor="start" x="473.029" y="-475.5" font-family="Helvetica,sans-Serif" font-size="10.00">/facade/statement_node</text>
<text text-anchor="middle" x="525.529" y="-464.5" font-family="Helvetica,sans-Serif" font-size="10.00">_interface.h</text>
</g>
<!-- Node2 -->
<g id="node2" class="node"><title>Node2</title>
<g id="a_node2"><a xlink:href="../../d7/df5/code__generator__interface_8h.html" target="_top" xlink:title="src/structural/src\l/facade/code_generator\l_interface.h">
<polygon fill="white" stroke="black" points="373.529,-379.5 373.529,-420.5 491.529,-420.5 491.529,-379.5 373.529,-379.5"/>
<text text-anchor="start" x="381.529" y="-408.5" font-family="Helvetica,sans-Serif" font-size="10.00">src/structural/src</text>
<text text-anchor="start" x="381.529" y="-397.5" font-family="Helvetica,sans-Serif" font-size="10.00">/facade/code_generator</text>
<text text-anchor="middle" x="432.529" y="-386.5" font-family="Helvetica,sans-Serif" font-size="10.00">_interface.h</text>
</a>
</g>
</g>
<!-- Node1&#45;&gt;Node2 -->
<g id="edge1" class="edge"><title>Node1&#45;&gt;Node2</title>
<path fill="none" stroke="midnightblue" d="M493.792,-451.065C481.546,-441.057 467.776,-429.804 456.398,-420.506"/>
<polygon fill="midnightblue" stroke="midnightblue" points="491.621,-453.81 501.579,-457.428 496.051,-448.39 491.621,-453.81"/>
</g>
<!-- Node14 -->
<g id="node14" class="node"><title>Node14</title>
<g id="a_node14"><a xlink:href="../../d3/d03/statement__node_8h.html" target="_top" xlink:title="src/structural/src\l/facade/statement_node.h">
<polygon fill="white" stroke="black" points="604.029,-229 604.029,-259 733.029,-259 733.029,-229 604.029,-229"/>
<text text-anchor="start" x="612.029" y="-247" font-family="Helvetica,sans-Serif" font-size="10.00">src/structural/src</text>
<text text-anchor="middle" x="668.529" y="-236" font-family="Helvetica,sans-Serif" font-size="10.00">/facade/statement_node.h</text>
</a>
</g>
</g>
<!-- Node1&#45;&gt;Node14 -->
<g id="edge19" class="edge"><title>Node1&#45;&gt;Node14</title>
<path fill="none" stroke="midnightblue" d="M543.09,-448.51C573.923,-398.486 636.709,-296.624 659.775,-259.201"/>
<polygon fill="midnightblue" stroke="midnightblue" points="539.989,-446.87 537.721,-457.22 545.948,-450.544 539.989,-446.87"/>
</g>
<!-- Node3 -->
<g id="node3" class="node"><title>Node3</title>
<g id="a_node3"><a xlink:href="../../dc/d6c/program__node__interface_8h.html" target="_top" xlink:title="src/structural/src\l/facade/program_node\l_interface.h">
<polygon fill="white" stroke="black" points="376.029,-301.5 376.029,-342.5 489.029,-342.5 489.029,-301.5 376.029,-301.5"/>
<text text-anchor="start" x="384.029" y="-330.5" font-family="Helvetica,sans-Serif" font-size="10.00">src/structural/src</text>
<text text-anchor="start" x="384.029" y="-319.5" font-family="Helvetica,sans-Serif" font-size="10.00">/facade/program_node</text>
<text text-anchor="middle" x="432.529" y="-308.5" font-family="Helvetica,sans-Serif" font-size="10.00">_interface.h</text>
</a>
</g>
</g>
<!-- Node2&#45;&gt;Node3 -->
<g id="edge2" class="edge"><title>Node2&#45;&gt;Node3</title>
<path fill="none" stroke="midnightblue" d="M432.529,-369.297C432.529,-360.301 432.529,-350.653 432.529,-342.506"/>
<polygon fill="midnightblue" stroke="midnightblue" points="429.029,-369.428 432.529,-379.428 436.029,-369.428 429.029,-369.428"/>
</g>
<!-- Node15 -->
<g id="node15" class="node"><title>Node15</title>
<g id="a_node15"><a xlink:href="../../da/d63/risc__code__generator_8h.html" target="_top" xlink:title="src/structural/src\l/facade/risc_code_generator.h">
<polygon fill="white" stroke="black" points="17.0289,-307 17.0289,-337 164.029,-337 164.029,-307 17.0289,-307"/>
<text text-anchor="start" x="25.0289" y="-325" font-family="Helvetica,sans-Serif" font-size="10.00">src/structural/src</text>
<text text-anchor="middle" x="90.5289" y="-314" font-family="Helvetica,sans-Serif" font-size="10.00">/facade/risc_code_generator.h</text>
</a>
</g>
</g>
<!-- Node2&#45;&gt;Node15 -->
<g id="edge16" class="edge"><title>Node2&#45;&gt;Node15</title>
<path fill="none" stroke="midnightblue" d="M363.363,-383.63C301.988,-369.991 213.082,-350.234 153.617,-337.02"/>
<polygon fill="midnightblue" stroke="midnightblue" points="362.826,-387.096 373.347,-385.849 364.345,-380.263 362.826,-387.096"/>
</g>
<!-- Node4 -->
<g id="node4" class="node"><title>Node4</title>
<g id="a_node4"><a xlink:href="../../da/dc8/program__node__builder__interface_8h.html" target="_top" xlink:title="src/structural/src\l/facade/program_node\l_builder_interface.h">
<polygon fill="white" stroke="black" points="185.029,-223.5 185.029,-264.5 298.029,-264.5 298.029,-223.5 185.029,-223.5"/>
<text text-anchor="start" x="193.029" y="-252.5" font-family="Helvetica,sans-Serif" font-size="10.00">src/structural/src</text>
<text text-anchor="start" x="193.029" y="-241.5" font-family="Helvetica,sans-Serif" font-size="10.00">/facade/program_node</text>
<text text-anchor="middle" x="241.529" y="-230.5" font-family="Helvetica,sans-Serif" font-size="10.00">_builder_interface.h</text>
</a>
</g>
</g>
<!-- Node3&#45;&gt;Node4 -->
<g id="edge3" class="edge"><title>Node3&#45;&gt;Node4</title>
<path fill="none" stroke="midnightblue" d="M373.743,-297.609C347.084,-287.001 315.922,-274.602 290.549,-264.506"/>
<polygon fill="midnightblue" stroke="midnightblue" points="372.756,-300.983 383.342,-301.428 375.344,-294.479 372.756,-300.983"/>
</g>
<!-- Node10 -->
<g id="node10" class="node"><title>Node10</title>
<g id="a_node10"><a xlink:href="../../d9/d18/expression__node_8h.html" target="_top" xlink:title="src/structural/src\l/facade/expression_node.h">
<polygon fill="white" stroke="black" points="316.029,-229 316.029,-259 449.029,-259 449.029,-229 316.029,-229"/>
<text text-anchor="start" x="324.029" y="-247" font-family="Helvetica,sans-Serif" font-size="10.00">src/structural/src</text>
<text text-anchor="middle" x="382.529" y="-236" font-family="Helvetica,sans-Serif" font-size="10.00">/facade/expression_node.h</text>
</a>
</g>
</g>
<!-- Node3&#45;&gt;Node10 -->
<g id="edge10" class="edge"><title>Node3&#45;&gt;Node10</title>
<path fill="none" stroke="midnightblue" d="M414.095,-292.98C406.542,-281.499 398.128,-268.711 391.888,-259.225"/>
<polygon fill="midnightblue" stroke="midnightblue" points="411.232,-294.998 419.653,-301.428 417.08,-291.15 411.232,-294.998"/>
</g>
<!-- Node12 -->
<g id="node12" class="node"><title>Node12</title>
<g id="a_node12"><a xlink:href="../../d3/da1/variable__node_8h.html" target="_top" xlink:title="src/structural/src\l/facade/variable_node.h">
<polygon fill="white" stroke="black" points="467.529,-229 467.529,-259 585.529,-259 585.529,-229 467.529,-229"/>
<text text-anchor="start" x="475.529" y="-247" font-family="Helvetica,sans-Serif" font-size="10.00">src/structural/src</text>
<text text-anchor="middle" x="526.529" y="-236" font-family="Helvetica,sans-Serif" font-size="10.00">/facade/variable_node.h</text>
</a>
</g>
</g>
<!-- Node3&#45;&gt;Node12 -->
<g id="edge12" class="edge"><title>Node3&#45;&gt;Node12</title>
<path fill="none" stroke="midnightblue" d="M464.697,-294.992C479.51,-283.015 496.512,-269.269 508.934,-259.225"/>
<polygon fill="midnightblue" stroke="midnightblue" points="462.312,-292.419 456.736,-301.428 466.713,-297.863 462.312,-292.419"/>
</g>
<!-- Node3&#45;&gt;Node14 -->
<g id="edge15" class="edge"><title>Node3&#45;&gt;Node14</title>
<path fill="none" stroke="midnightblue" d="M498.826,-299.65C539.206,-286.646 589.656,-270.4 625.013,-259.014"/>
<polygon fill="midnightblue" stroke="midnightblue" points="497.502,-296.399 489.057,-302.796 499.648,-303.062 497.502,-296.399"/>
</g>
<!-- Node5 -->
<g id="node5" class="node"><title>Node5</title>
<g id="a_node5"><a xlink:href="../../d2/d57/program__node__builder_8h.html" target="_top" xlink:title="src/structural/src\l/facade/program_node\l_builder.h">
<polygon fill="white" stroke="black" points="177.029,-145.5 177.029,-186.5 290.029,-186.5 290.029,-145.5 177.029,-145.5"/>
<text text-anchor="start" x="185.029" y="-174.5" font-family="Helvetica,sans-Serif" font-size="10.00">src/structural/src</text>
<text text-anchor="start" x="185.029" y="-163.5" font-family="Helvetica,sans-Serif" font-size="10.00">/facade/program_node</text>
<text text-anchor="middle" x="233.529" y="-152.5" font-family="Helvetica,sans-Serif" font-size="10.00">_builder.h</text>
</a>
</g>
</g>
<!-- Node4&#45;&gt;Node5 -->
<g id="edge4" class="edge"><title>Node4&#45;&gt;Node5</title>
<path fill="none" stroke="midnightblue" d="M238.402,-213.297C237.455,-204.301 236.44,-194.653 235.582,-186.506"/>
<polygon fill="midnightblue" stroke="midnightblue" points="234.941,-213.849 239.469,-223.428 241.903,-213.117 234.941,-213.849"/>
</g>
<!-- Node6 -->
<g id="node6" class="node"><title>Node6</title>
<g id="a_node6"><a xlink:href="../../da/dc6/compiler_8cc.html" target="_top" xlink:title="src/structural/src\l/facade/compiler.cc">
<polygon fill="white" stroke="black" points="89.0289,-0.5 89.0289,-30.5 190.029,-30.5 190.029,-0.5 89.0289,-0.5"/>
<text text-anchor="start" x="97.0289" y="-18.5" font-family="Helvetica,sans-Serif" font-size="10.00">src/structural/src</text>
<text text-anchor="middle" x="139.529" y="-7.5" font-family="Helvetica,sans-Serif" font-size="10.00">/facade/compiler.cc</text>
</a>
</g>
</g>
<!-- Node5&#45;&gt;Node6 -->
<g id="edge5" class="edge"><title>Node5&#45;&gt;Node6</title>
<path fill="none" stroke="midnightblue" d="M203.715,-138.021C195.188,-129.32 186.363,-119.258 179.529,-109 162.553,-83.5186 150.094,-49.6497 143.91,-30.7681"/>
<polygon fill="midnightblue" stroke="midnightblue" points="201.499,-140.752 211.074,-145.288 206.418,-135.771 201.499,-140.752"/>
</g>
<!-- Node7 -->
<g id="node7" class="node"><title>Node7</title>
<g id="a_node7"><a xlink:href="../../d5/d36/parser_8h.html" target="_top" xlink:title="src/structural/src\l/facade/parser.h">
<polygon fill="white" stroke="black" points="188.529,-73 188.529,-103 278.529,-103 278.529,-73 188.529,-73"/>
<text text-anchor="start" x="196.529" y="-91" font-family="Helvetica,sans-Serif" font-size="10.00">src/structural/src</text>
<text text-anchor="middle" x="233.529" y="-80" font-family="Helvetica,sans-Serif" font-size="10.00">/facade/parser.h</text>
</a>
</g>
</g>
<!-- Node5&#45;&gt;Node7 -->
<g id="edge6" class="edge"><title>Node5&#45;&gt;Node7</title>
<path fill="none" stroke="midnightblue" d="M233.529,-135.283C233.529,-124.254 233.529,-112.246 233.529,-103.225"/>
<polygon fill="midnightblue" stroke="midnightblue" points="230.029,-135.428 233.529,-145.428 237.029,-135.428 230.029,-135.428"/>
</g>
<!-- Node9 -->
<g id="node9" class="node"><title>Node9</title>
<g id="a_node9"><a xlink:href="../../db/d62/program__node__builder_8cc.html" target="_top" xlink:title="src/structural/src\l/facade/program_node\l_builder.cc">
<polygon fill="white" stroke="black" points="428.029,-67.5 428.029,-108.5 541.029,-108.5 541.029,-67.5 428.029,-67.5"/>
<text text-anchor="start" x="436.029" y="-96.5" font-family="Helvetica,sans-Serif" font-size="10.00">src/structural/src</text>
<text text-anchor="start" x="436.029" y="-85.5" font-family="Helvetica,sans-Serif" font-size="10.00">/facade/program_node</text>
<text text-anchor="middle" x="484.529" y="-74.5" font-family="Helvetica,sans-Serif" font-size="10.00">_builder.cc</text>
</a>
</g>
</g>
<!-- Node5&#45;&gt;Node9 -->
<g id="edge9" class="edge"><title>Node5&#45;&gt;Node9</title>
<path fill="none" stroke="midnightblue" d="M299.853,-144.902C348.602,-130.138 393.524,-116.541 427.85,-106.152"/>
<polygon fill="midnightblue" stroke="midnightblue" points="298.61,-141.621 290.054,-147.87 300.639,-148.321 298.61,-141.621"/>
</g>
<!-- Node7&#45;&gt;Node6 -->
<g id="edge7" class="edge"><title>Node7&#45;&gt;Node6</title>
<path fill="none" stroke="midnightblue" d="M206.342,-66.6101C190.901,-55.0289 171.966,-40.8282 158.202,-30.5049"/>
<polygon fill="midnightblue" stroke="midnightblue" points="204.407,-69.5332 214.507,-72.7333 208.607,-63.9332 204.407,-69.5332"/>
</g>
<!-- Node8 -->
<g id="node8" class="node"><title>Node8</title>
<g id="a_node8"><a xlink:href="../../dc/dc9/parser_8cc.html" target="_top" xlink:title="src/structural/src\l/facade/parser.cc">
<polygon fill="white" stroke="black" points="208.529,-0.5 208.529,-30.5 300.529,-30.5 300.529,-0.5 208.529,-0.5"/>
<text text-anchor="start" x="216.529" y="-18.5" font-family="Helvetica,sans-Serif" font-size="10.00">src/structural/src</text>
<text text-anchor="middle" x="254.529" y="-7.5" font-family="Helvetica,sans-Serif" font-size="10.00">/facade/parser.cc</text>
</a>
</g>
</g>
<!-- Node7&#45;&gt;Node8 -->
<g id="edge8" class="edge"><title>Node7&#45;&gt;Node8</title>
<path fill="none" stroke="midnightblue" d="M240.659,-63.0645C243.859,-52.3215 247.526,-40.01 250.286,-30.7455"/>
<polygon fill="midnightblue" stroke="midnightblue" points="237.279,-62.1502 237.779,-72.7333 243.988,-64.1486 237.279,-62.1502"/>
</g>
<!-- Node11 -->
<g id="node11" class="node"><title>Node11</title>
<g id="a_node11"><a xlink:href="../../d7/dd1/expression__node_8cc.html" target="_top" xlink:title="src/structural/src\l/facade/expression_node.cc">
<polygon fill="white" stroke="black" points="308.529,-151 308.529,-181 446.529,-181 446.529,-151 308.529,-151"/>
<text text-anchor="start" x="316.529" y="-169" font-family="Helvetica,sans-Serif" font-size="10.00">src/structural/src</text>
<text text-anchor="middle" x="377.529" y="-158" font-family="Helvetica,sans-Serif" font-size="10.00">/facade/expression_node.cc</text>
</a>
</g>
</g>
<!-- Node10&#45;&gt;Node11 -->
<g id="edge11" class="edge"><title>Node10&#45;&gt;Node11</title>
<path fill="none" stroke="midnightblue" d="M380.923,-218.59C380.112,-206.257 379.155,-191.724 378.465,-181.231"/>
<polygon fill="midnightblue" stroke="midnightblue" points="377.439,-218.956 381.588,-228.705 384.424,-218.497 377.439,-218.956"/>
</g>
<!-- Node12&#45;&gt;Node9 -->
<g id="edge13" class="edge"><title>Node12&#45;&gt;Node9</title>
<path fill="none" stroke="midnightblue" d="M562.866,-223.332C575.993,-214.172 589.339,-201.959 596.529,-187 604.615,-170.176 606.343,-160.879 596.529,-145 584.185,-125.028 562.323,-111.94 541.17,-103.483"/>
<polygon fill="midnightblue" stroke="midnightblue" points="560.793,-220.506 554.339,-228.909 564.624,-226.365 560.793,-220.506"/>
</g>
<!-- Node13 -->
<g id="node13" class="node"><title>Node13</title>
<g id="a_node13"><a xlink:href="../../d4/dd8/variable__node_8cc.html" target="_top" xlink:title="src/structural/src\l/facade/variable_node.cc">
<polygon fill="white" stroke="black" points="465.029,-151 465.029,-181 588.029,-181 588.029,-151 465.029,-151"/>
<text text-anchor="start" x="473.029" y="-169" font-family="Helvetica,sans-Serif" font-size="10.00">src/structural/src</text>
<text text-anchor="middle" x="526.529" y="-158" font-family="Helvetica,sans-Serif" font-size="10.00">/facade/variable_node.cc</text>
</a>
</g>
</g>
<!-- Node12&#45;&gt;Node13 -->
<g id="edge14" class="edge"><title>Node12&#45;&gt;Node13</title>
<path fill="none" stroke="midnightblue" d="M526.529,-218.59C526.529,-206.257 526.529,-191.724 526.529,-181.231"/>
<polygon fill="midnightblue" stroke="midnightblue" points="523.029,-218.705 526.529,-228.705 530.029,-218.705 523.029,-218.705"/>
</g>
<!-- Node15&#45;&gt;Node6 -->
<g id="edge17" class="edge"><title>Node15&#45;&gt;Node6</title>
<path fill="none" stroke="midnightblue" d="M44.9058,-302.026C29.5533,-293.177 14.1462,-280.997 5.52889,-265 -3.32394,-248.566 0.2304,-240.899 5.52889,-223 29.6694,-141.451 97.2502,-61.9047 126.148,-30.5248"/>
<polygon fill="midnightblue" stroke="midnightblue" points="43.4221,-305.203 53.8872,-306.856 46.7371,-299.037 43.4221,-305.203"/>
</g>
<!-- Node16 -->
<g id="node16" class="node"><title>Node16</title>
<g id="a_node16"><a xlink:href="../../d1/d9d/risc__code__generator_8cc.html" target="_top" xlink:title="src/structural/src\l/facade/risc_code_generator.cc">
<polygon fill="white" stroke="black" points="14.5289,-229 14.5289,-259 166.529,-259 166.529,-229 14.5289,-229"/>
<text text-anchor="start" x="22.5289" y="-247" font-family="Helvetica,sans-Serif" font-size="10.00">src/structural/src</text>
<text text-anchor="middle" x="90.5289" y="-236" font-family="Helvetica,sans-Serif" font-size="10.00">/facade/risc_code_generator.cc</text>
</a>
</g>
</g>
<!-- Node15&#45;&gt;Node16 -->
<g id="edge18" class="edge"><title>Node15&#45;&gt;Node16</title>
<path fill="none" stroke="midnightblue" d="M90.5289,-296.59C90.5289,-284.257 90.5289,-269.724 90.5289,-259.231"/>
<polygon fill="midnightblue" stroke="midnightblue" points="87.029,-296.705 90.5289,-306.705 94.029,-296.705 87.029,-296.705"/>
</g>
</g>
</svg>
        <g id="navigator" transform="translate(0 0)" fill="#404254">
                <rect fill="#f2f5e9" fill-opacity="0.5" stroke="#606060" stroke-width=".5" x="0" y="0" width="60" height="60"/>
                <use id="zoomplus" xlink:href="#zoomPlus" x="17" y="9" onmousedown="handleZoom(evt,'in')"/>
                <use id="zoomminus" xlink:href="#zoomMin" x="42" y="9" onmousedown="handleZoom(evt,'out')"/>
                <use id="reset" xlink:href="#resetDef" x="30" y="36" onmousedown="handleReset()"/>
                <g id="arrowUp" xlink:href="#dirArrow" transform="translate(30 24)" onmousedown="handlePan(0,-1)">
                  <use xlink:href="#rim" fill="#404040">
                        <set attributeName="fill" to="#808080" begin="arrowUp.mouseover" end="arrowUp.mouseout"/>
                  </use>
                  <path fill="none" stroke="white" stroke-width="1.5" d="M0,-3.0v7 M-2.5,-0.5L0,-3.0L2.5,-0.5"/>
                </g>
                <g id="arrowRight" xlink:href="#dirArrow" transform="rotate(90) translate(36 -43)" onmousedown="handlePan(1,0)">
                  <use xlink:href="#rim" fill="#404040">
                        <set attributeName="fill" to="#808080" begin="arrowRight.mouseover" end="arrowRight.mouseout"/>
                  </use>
                  <path fill="none" stroke="white" stroke-width="1.5" d="M0,-3.0v7 M-2.5,-0.5L0,-3.0L2.5,-0.5"/>
                </g>
                <g id="arrowDown" xlink:href="#dirArrow" transform="rotate(180) translate(-30 -48)" onmousedown="handlePan(0,1)">
                  <use xlink:href="#rim" fill="#404040">
                        <set attributeName="fill" to="#808080" begin="arrowDown.mouseover" end="arrowDown.mouseout"/>
                  </use>
                  <path fill="none" stroke="white" stroke-width="1.5" d="M0,-3.0v7 M-2.5,-0.5L0,-3.0L2.5,-0.5"/>
                </g>
                <g id="arrowLeft" xlink:href="#dirArrow" transform="rotate(270) translate(-36 17)" onmousedown="handlePan(-1,0)">
                  <use xlink:href="#rim" fill="#404040">
                        <set attributeName="fill" to="#808080" begin="arrowLeft.mouseover" end="arrowLeft.mouseout"/>
                  </use>
                  <path fill="none" stroke="white" stroke-width="1.5" d="M0,-3.0v7 M-2.5,-0.5L0,-3.0L2.5,-0.5"/>
                </g>
        </g>
        <svg viewBox="0 0 15 15" width="100%" height="30px" preserveAspectRatio="xMaxYMin meet">
         <g id="arrow_out" transform="scale(0.3 0.3)">
          <a xlink:href="statement__node__interface_8h__dep__incl_org.svg" target="_base">
           <rect id="button" ry="5" rx="5" y="6" x="6" height="38" width="38"
                fill="#f2f5e9" fill-opacity="0.5" stroke="#606060" stroke-width="1.0"/>
           <path id="arrow"
             d="M 11.500037,31.436501 C 11.940474,20.09759 22.043105,11.32322 32.158766,21.979434 L 37.068811,17.246167 C 37.068811,17.246167 37.088388,32 37.088388,32 L 22.160133,31.978069 C 22.160133,31.978069 26.997745,27.140456 26.997745,27.140456 C 18.528582,18.264221 13.291696,25.230495 11.500037,31.436501 z"
             style="fill:#404040;"/>
          </a>
         </g>
        </svg>
</svg>
