<?xml version="1.0" encoding="UTF-8" standalone="no"?>
<!DOCTYPE svg PUBLIC "-//W3C//DTD SVG 1.1//EN"
 "http://www.w3.org/Graphics/SVG/1.1/DTD/svg11.dtd">
<!-- Generated by graphviz version 2.38.0 (20140413.2041)
 -->
<!-- Title: src/operational/src/strategy/composition.h Pages: 1 -->
<svg width="260pt" height="117pt"
 viewBox="0.00 0.00 260.00 117.00" xmlns="http://www.w3.org/2000/svg" xmlns:xlink="http://www.w3.org/1999/xlink">
<g id="graph0" class="graph" transform="scale(1 1) rotate(0) translate(4 113)">
<title>src/operational/src/strategy/composition.h</title>
<polygon fill="white" stroke="none" points="-4,4 -4,-113 256,-113 256,4 -4,4"/>
<!-- Node1 -->
<g id="node1" class="node"><title>Node1</title>
<polygon fill="#bfbfbf" stroke="black" points="69.5,-78.5 69.5,-108.5 188.5,-108.5 188.5,-78.5 69.5,-78.5"/>
<text text-anchor="start" x="77.5" y="-96.5" font-family="Helvetica,sans-Serif" font-size="10.00">src/operational/src</text>
<text text-anchor="middle" x="129" y="-85.5" font-family="Helvetica,sans-Serif" font-size="10.00">/strategy/composition.h</text>
</g>
<!-- Node2 -->
<g id="node2" class="node"><title>Node2</title>
<g id="a_node2"><a xlink:href="../../dc/d45/composition_8cc.html" target="_top" xlink:title="src/operational/src\l/strategy/composition.cc">
<polygon fill="white" stroke="black" points="0,-6 0,-36 124,-36 124,-6 0,-6"/>
<text text-anchor="start" x="8" y="-24" font-family="Helvetica,sans-Serif" font-size="10.00">src/operational/src</text>
<text text-anchor="middle" x="62" y="-13" font-family="Helvetica,sans-Serif" font-size="10.00">/strategy/composition.cc</text>
</a>
</g>
</g>
<!-- Node1&#45;&gt;Node2 -->
<g id="edge1" class="edge"><title>Node1&#45;&gt;Node2</title>
<path fill="none" stroke="midnightblue" d="M108.438,-70.8641C97.7469,-59.6142 84.9782,-46.1786 75.5383,-36.2455"/>
<polygon fill="midnightblue" stroke="midnightblue" points="106.016,-73.3956 115.442,-78.2333 111.09,-68.5734 106.016,-73.3956"/>
</g>
<!-- Node3 -->
<g id="node3" class="node"><title>Node3</title>
<g id="a_node3"><a xlink:href="../../d2/dba/strategy__test_8cc.html" target="_top" xlink:title="src/operational_tests\l/src/strategy/strategy\l_test.cc">
<polygon fill="white" stroke="black" points="142,-0.5 142,-41.5 252,-41.5 252,-0.5 142,-0.5"/>
<text text-anchor="start" x="150" y="-29.5" font-family="Helvetica,sans-Serif" font-size="10.00">src/operational_tests</text>
<text text-anchor="start" x="150" y="-18.5" font-family="Helvetica,sans-Serif" font-size="10.00">/src/strategy/strategy</text>
<text text-anchor="middle" x="197" y="-7.5" font-family="Helvetica,sans-Serif" font-size="10.00">_test.cc</text>
</a>
</g>
</g>
<!-- Node1&#45;&gt;Node3 -->
<g id="edge2" class="edge"><title>Node1&#45;&gt;Node3</title>
<path fill="none" stroke="midnightblue" d="M149.91,-70.8213C158.906,-61.4941 169.346,-50.6707 178.106,-41.5884"/>
<polygon fill="midnightblue" stroke="midnightblue" points="147.184,-68.6059 142.761,-78.2333 152.222,-73.4655 147.184,-68.6059"/>
</g>
</g>
</svg>
