<?xml version="1.0" encoding="UTF-8" standalone="no"?>
<!DOCTYPE svg PUBLIC "-//W3C//DTD SVG 1.1//EN"
 "http://www.w3.org/Graphics/SVG/1.1/DTD/svg11.dtd">
<!-- Generated by graphviz version 2.38.0 (20140413.2041)
 -->
<!-- Title: operational::visitor::InventoryVisitor Pages: 1 -->
<svg width="157pt" height="281pt"
 viewBox="0.00 0.00 157.00 281.00" xmlns="http://www.w3.org/2000/svg" xmlns:xlink="http://www.w3.org/1999/xlink">
<g id="graph0" class="graph" transform="scale(1 1) rotate(0) translate(4 277)">
<title>operational::visitor::InventoryVisitor</title>
<polygon fill="white" stroke="none" points="-4,4 -4,-277 153,-277 153,4 -4,4"/>
<!-- Node1 -->
<g id="node1" class="node"><title>Node1</title>
<polygon fill="#bfbfbf" stroke="black" points="24.5,-0.5 24.5,-123.5 124.5,-123.5 124.5,-0.5 24.5,-0.5"/>
<text text-anchor="start" x="32.5" y="-111.5" font-family="Helvetica,sans-Serif" font-size="10.00">operational::visitor</text>
<text text-anchor="middle" x="74.5" y="-100.5" font-family="Helvetica,sans-Serif" font-size="10.00">::InventoryVisitor</text>
<polyline fill="none" stroke="black" points="24.5,-93.5 124.5,-93.5 "/>
<text text-anchor="middle" x="74.5" y="-81.5" font-family="Helvetica,sans-Serif" font-size="10.00"> </text>
<polyline fill="none" stroke="black" points="24.5,-74.5 124.5,-74.5 "/>
<text text-anchor="start" x="32.5" y="-62.5" font-family="Helvetica,sans-Serif" font-size="10.00">+ InventoryVisitor()</text>
<text text-anchor="start" x="32.5" y="-51.5" font-family="Helvetica,sans-Serif" font-size="10.00">+ GetInventory()</text>
<text text-anchor="start" x="32.5" y="-40.5" font-family="Helvetica,sans-Serif" font-size="10.00">+ VisitFloppyDisk()</text>
<text text-anchor="start" x="32.5" y="-29.5" font-family="Helvetica,sans-Serif" font-size="10.00">+ VisitCard()</text>
<text text-anchor="start" x="32.5" y="-18.5" font-family="Helvetica,sans-Serif" font-size="10.00">+ VisitChassis()</text>
<text text-anchor="start" x="32.5" y="-7.5" font-family="Helvetica,sans-Serif" font-size="10.00">+ VisitBus()</text>
</g>
<!-- Node2 -->
<g id="node2" class="node"><title>Node2</title>
<g id="a_node2"><a xlink:href="../../df/dc7/classoperational_1_1visitor_1_1_equipment_visitor_interface.html" target="_top" xlink:title="{operational::visitor\l::EquipmentVisitorInterface\n||+ ~EquipmentVisitorInterface()\l+ VisitFloppyDisk()\l+ VisitCard()\l+ VisitChassis()\l+ VisitBus()\l}">
<polygon fill="white" stroke="black" points="0,-160.5 0,-272.5 149,-272.5 149,-160.5 0,-160.5"/>
<text text-anchor="start" x="8" y="-260.5" font-family="Helvetica,sans-Serif" font-size="10.00">operational::visitor</text>
<text text-anchor="middle" x="74.5" y="-249.5" font-family="Helvetica,sans-Serif" font-size="10.00">::EquipmentVisitorInterface</text>
<polyline fill="none" stroke="black" points="0,-242.5 149,-242.5 "/>
<text text-anchor="middle" x="74.5" y="-230.5" font-family="Helvetica,sans-Serif" font-size="10.00"> </text>
<polyline fill="none" stroke="black" points="0,-223.5 149,-223.5 "/>
<text text-anchor="start" x="8" y="-211.5" font-family="Helvetica,sans-Serif" font-size="10.00">+ ~EquipmentVisitorInterface()</text>
<text text-anchor="start" x="8" y="-200.5" font-family="Helvetica,sans-Serif" font-size="10.00">+ VisitFloppyDisk()</text>
<text text-anchor="start" x="8" y="-189.5" font-family="Helvetica,sans-Serif" font-size="10.00">+ VisitCard()</text>
<text text-anchor="start" x="8" y="-178.5" font-family="Helvetica,sans-Serif" font-size="10.00">+ VisitChassis()</text>
<text text-anchor="start" x="8" y="-167.5" font-family="Helvetica,sans-Serif" font-size="10.00">+ VisitBus()</text>
</a>
</g>
</g>
<!-- Node2&#45;&gt;Node1 -->
<g id="edge1" class="edge"><title>Node2&#45;&gt;Node1</title>
<path fill="none" stroke="midnightblue" d="M74.5,-150.216C74.5,-141.401 74.5,-132.386 74.5,-123.655"/>
<polygon fill="none" stroke="midnightblue" points="71.0001,-150.444 74.5,-160.444 78.0001,-150.444 71.0001,-150.444"/>
</g>
</g>
</svg>
