<?xml version="1.0" encoding="UTF-8" standalone="no"?>
<!DOCTYPE svg PUBLIC "-//W3C//DTD SVG 1.1//EN"
 "http://www.w3.org/Graphics/SVG/1.1/DTD/svg11.dtd">
<!-- Generated by graphviz version 2.38.0 (20140413.2041)
 -->
<!-- Title: src/operational/src/command/command_application.h Pages: 1 -->
<svg width="176pt" height="151pt"
 viewBox="0.00 0.00 176.00 151.00" xmlns="http://www.w3.org/2000/svg" xmlns:xlink="http://www.w3.org/1999/xlink">
<g id="graph0" class="graph" transform="scale(1 1) rotate(0) translate(4 147)">
<title>src/operational/src/command/command_application.h</title>
<polygon fill="white" stroke="none" points="-4,4 -4,-147 172,-147 172,4 -4,4"/>
<!-- Node1 -->
<g id="node1" class="node"><title>Node1</title>
<polygon fill="#bfbfbf" stroke="black" points="0,-112.5 0,-142.5 168,-142.5 168,-112.5 0,-112.5"/>
<text text-anchor="start" x="8" y="-130.5" font-family="Helvetica,sans-Serif" font-size="10.00">src/operational/src</text>
<text text-anchor="middle" x="84" y="-119.5" font-family="Helvetica,sans-Serif" font-size="10.00">/command/command_application.h</text>
</g>
<!-- Node2 -->
<g id="node2" class="node"><title>Node2</title>
<g id="a_node2"><a xlink:href="../../d0/d06/command__document_8h.html" target="_top" xlink:title="command_document.h">
<polygon fill="white" stroke="black" points="26,-56.5 26,-75.5 142,-75.5 142,-56.5 26,-56.5"/>
<text text-anchor="middle" x="84" y="-63.5" font-family="Helvetica,sans-Serif" font-size="10.00">command_document.h</text>
</a>
</g>
</g>
<!-- Node1&#45;&gt;Node2 -->
<g id="edge1" class="edge"><title>Node1&#45;&gt;Node2</title>
<path fill="none" stroke="midnightblue" d="M84,-112.399C84,-104.466 84,-94.458 84,-85.8583"/>
<polygon fill="midnightblue" stroke="midnightblue" points="87.5001,-85.6577 84,-75.6578 80.5001,-85.6578 87.5001,-85.6577"/>
</g>
<!-- Node3 -->
<g id="node3" class="node"><title>Node3</title>
<polygon fill="white" stroke="#bfbfbf" points="63.5,-0.5 63.5,-19.5 104.5,-19.5 104.5,-0.5 63.5,-0.5"/>
<text text-anchor="middle" x="84" y="-7.5" font-family="Helvetica,sans-Serif" font-size="10.00">string</text>
</g>
<!-- Node2&#45;&gt;Node3 -->
<g id="edge2" class="edge"><title>Node2&#45;&gt;Node3</title>
<path fill="none" stroke="midnightblue" d="M84,-56.083C84,-49.0059 84,-38.8611 84,-29.9865"/>
<polygon fill="midnightblue" stroke="midnightblue" points="87.5001,-29.751 84,-19.7511 80.5001,-29.7511 87.5001,-29.751"/>
</g>
</g>
</svg>
