<?xml version="1.0" encoding="UTF-8" standalone="no"?>
<!DOCTYPE svg PUBLIC "-//W3C//DTD SVG 1.1//EN"
 "http://www.w3.org/Graphics/SVG/1.1/DTD/svg11.dtd">
<!-- Generated by graphviz version 2.38.0 (20140413.2041)
 -->
<!-- Title: src/structural/src/facade/variable_node.h Pages: 1 -->
<svg width="702pt" height="274pt"
 viewBox="0.00 0.00 701.50 274.00" xmlns="http://www.w3.org/2000/svg" xmlns:xlink="http://www.w3.org/1999/xlink">
<g id="graph0" class="graph" transform="scale(1 1) rotate(0) translate(4 270)">
<title>src/structural/src/facade/variable_node.h</title>
<polygon fill="white" stroke="none" points="-4,4 -4,-270 697.5,-270 697.5,4 -4,4"/>
<!-- Node1 -->
<g id="node1" class="node"><title>Node1</title>
<polygon fill="#bfbfbf" stroke="black" points="385,-235.5 385,-265.5 503,-265.5 503,-235.5 385,-235.5"/>
<text text-anchor="start" x="393" y="-253.5" font-family="Helvetica,sans-Serif" font-size="10.00">src/structural/src</text>
<text text-anchor="middle" x="444" y="-242.5" font-family="Helvetica,sans-Serif" font-size="10.00">/facade/variable_node.h</text>
</g>
<!-- Node2 -->
<g id="node2" class="node"><title>Node2</title>
<g id="a_node2"><a xlink:href="../../df/d19/variable__node__interface_8h.html" target="_top" xlink:title="variable_node_interface.h">
<polygon fill="white" stroke="black" points="313.5,-56.5 313.5,-75.5 438.5,-75.5 438.5,-56.5 313.5,-56.5"/>
<text text-anchor="middle" x="376" y="-63.5" font-family="Helvetica,sans-Serif" font-size="10.00">variable_node_interface.h</text>
</a>
</g>
</g>
<!-- Node1&#45;&gt;Node2 -->
<g id="edge1" class="edge"><title>Node1&#45;&gt;Node2</title>
<path fill="none" stroke="midnightblue" d="M438.777,-235.483C426.606,-202.817 396.362,-121.647 382.786,-85.2113"/>
<polygon fill="midnightblue" stroke="midnightblue" points="386.057,-83.9673 379.286,-75.8187 379.498,-86.4114 386.057,-83.9673"/>
</g>
<!-- Node3 -->
<g id="node3" class="node"><title>Node3</title>
<polygon fill="white" stroke="#bfbfbf" points="280.5,-0.5 280.5,-19.5 321.5,-19.5 321.5,-0.5 280.5,-0.5"/>
<text text-anchor="middle" x="301" y="-7.5" font-family="Helvetica,sans-Serif" font-size="10.00">string</text>
</g>
<!-- Node1&#45;&gt;Node3 -->
<g id="edge10" class="edge"><title>Node1&#45;&gt;Node3</title>
<path fill="none" stroke="midnightblue" d="M449.45,-235.364C461.759,-200.834 487.606,-111.007 447,-56 420.703,-20.3775 366.621,-12.0781 332.171,-10.6151"/>
<polygon fill="midnightblue" stroke="midnightblue" points="331.821,-7.10532 321.737,-10.3543 331.646,-14.1031 331.821,-7.10532"/>
</g>
<!-- Node4 -->
<g id="node4" class="node"><title>Node4</title>
<g id="a_node4"><a xlink:href="../../dc/d6c/program__node__interface_8h.html" target="_top" xlink:title="program_node_interface.h">
<polygon fill="white" stroke="black" points="228,-174 228,-193 356,-193 356,-174 228,-174"/>
<text text-anchor="middle" x="292" y="-181" font-family="Helvetica,sans-Serif" font-size="10.00">program_node_interface.h</text>
</a>
</g>
</g>
<!-- Node1&#45;&gt;Node4 -->
<g id="edge3" class="edge"><title>Node1&#45;&gt;Node4</title>
<path fill="none" stroke="midnightblue" d="M411.018,-235.396C384.23,-223.941 346.81,-207.938 321.119,-196.952"/>
<polygon fill="midnightblue" stroke="midnightblue" points="322.464,-193.721 311.893,-193.007 319.712,-200.157 322.464,-193.721"/>
</g>
<!-- Node8 -->
<g id="node8" class="node"><title>Node8</title>
<g id="a_node8"><a xlink:href="../../da/d23/list_8h.html" target="_top" xlink:title="../../../operational\l/src/iterator/list.h">
<polygon fill="white" stroke="black" points="495.5,-168.5 495.5,-198.5 586.5,-198.5 586.5,-168.5 495.5,-168.5"/>
<text text-anchor="start" x="503.5" y="-186.5" font-family="Helvetica,sans-Serif" font-size="10.00">../../../operational</text>
<text text-anchor="middle" x="541" y="-175.5" font-family="Helvetica,sans-Serif" font-size="10.00">/src/iterator/list.h</text>
</a>
</g>
</g>
<!-- Node1&#45;&gt;Node8 -->
<g id="edge11" class="edge"><title>Node1&#45;&gt;Node8</title>
<path fill="none" stroke="midnightblue" d="M465.048,-235.396C478.648,-226.282 496.544,-214.29 511.548,-204.236"/>
<polygon fill="midnightblue" stroke="midnightblue" points="513.635,-207.051 519.994,-198.577 509.738,-201.236 513.635,-207.051"/>
</g>
<!-- Node2&#45;&gt;Node3 -->
<g id="edge2" class="edge"><title>Node2&#45;&gt;Node3</title>
<path fill="none" stroke="midnightblue" d="M363.95,-56.324C352.537,-48.1066 335.169,-35.6017 321.565,-25.8069"/>
<polygon fill="midnightblue" stroke="midnightblue" points="323.43,-22.8366 313.269,-19.8339 319.34,-28.5174 323.43,-22.8366"/>
</g>
<!-- Node5 -->
<g id="node5" class="node"><title>Node5</title>
<g id="a_node5"><a xlink:href="../../d7/df5/code__generator__interface_8h.html" target="_top" xlink:title="code_generator_interface.h">
<polygon fill="white" stroke="black" points="210,-112.5 210,-131.5 344,-131.5 344,-112.5 210,-112.5"/>
<text text-anchor="middle" x="277" y="-119.5" font-family="Helvetica,sans-Serif" font-size="10.00">code_generator_interface.h</text>
</a>
</g>
</g>
<!-- Node4&#45;&gt;Node5 -->
<g id="edge4" class="edge"><title>Node4&#45;&gt;Node5</title>
<path fill="none" stroke="midnightblue" d="M289.851,-173.975C287.712,-165.492 284.362,-152.204 281.619,-141.322"/>
<polygon fill="midnightblue" stroke="midnightblue" points="284.984,-140.35 279.145,-131.509 278.196,-142.061 284.984,-140.35"/>
</g>
<!-- Node5&#45;&gt;Node2 -->
<g id="edge9" class="edge"><title>Node5&#45;&gt;Node2</title>
<path fill="none" stroke="midnightblue" d="M292.906,-112.324C308.638,-103.743 332.942,-90.486 351.209,-80.5224"/>
<polygon fill="midnightblue" stroke="midnightblue" points="353.03,-83.5157 360.133,-75.6545 349.678,-77.3704 353.03,-83.5157"/>
</g>
<!-- Node6 -->
<g id="node6" class="node"><title>Node6</title>
<g id="a_node6"><a xlink:href="../../d9/d24/expression__node__interface_8h.html" target="_top" xlink:title="expression_node_interface.h">
<polygon fill="white" stroke="black" points="0,-56.5 0,-75.5 140,-75.5 140,-56.5 0,-56.5"/>
<text text-anchor="middle" x="70" y="-63.5" font-family="Helvetica,sans-Serif" font-size="10.00">expression_node_interface.h</text>
</a>
</g>
</g>
<!-- Node5&#45;&gt;Node6 -->
<g id="edge5" class="edge"><title>Node5&#45;&gt;Node6</title>
<path fill="none" stroke="midnightblue" d="M244.2,-112.444C208.62,-103.162 151.686,-88.3093 112.653,-78.127"/>
<polygon fill="midnightblue" stroke="midnightblue" points="113.206,-74.6541 102.646,-75.5164 111.439,-81.4274 113.206,-74.6541"/>
</g>
<!-- Node7 -->
<g id="node7" class="node"><title>Node7</title>
<g id="a_node7"><a xlink:href="../../dd/d4b/statement__node__interface_8h.html" target="_top" xlink:title="statement_node_interface.h">
<polygon fill="white" stroke="black" points="158.5,-56.5 158.5,-75.5 295.5,-75.5 295.5,-56.5 158.5,-56.5"/>
<text text-anchor="middle" x="227" y="-63.5" font-family="Helvetica,sans-Serif" font-size="10.00">statement_node_interface.h</text>
</a>
</g>
</g>
<!-- Node5&#45;&gt;Node7 -->
<g id="edge7" class="edge"><title>Node5&#45;&gt;Node7</title>
<path fill="none" stroke="midnightblue" d="M268.744,-112.083C261.535,-104.298 250.89,-92.8015 242.154,-83.3665"/>
<polygon fill="midnightblue" stroke="midnightblue" points="244.465,-80.7108 235.103,-75.7511 239.329,-85.4666 244.465,-80.7108"/>
</g>
<!-- Node6&#45;&gt;Node3 -->
<g id="edge6" class="edge"><title>Node6&#45;&gt;Node3</title>
<path fill="none" stroke="midnightblue" d="M106.603,-56.4435C151.872,-45.861 228.117,-28.0375 270.415,-18.1498"/>
<polygon fill="midnightblue" stroke="midnightblue" points="271.456,-21.5007 280.397,-15.8162 269.863,-14.6845 271.456,-21.5007"/>
</g>
<!-- Node7&#45;&gt;Node3 -->
<g id="edge8" class="edge"><title>Node7&#45;&gt;Node3</title>
<path fill="none" stroke="midnightblue" d="M238.889,-56.324C250.15,-48.1066 267.287,-35.6017 280.709,-25.8069"/>
<polygon fill="midnightblue" stroke="midnightblue" points="282.88,-28.5559 288.894,-19.8339 278.753,-22.9014 282.88,-28.5559"/>
</g>
<!-- Node9 -->
<g id="node9" class="node"><title>Node9</title>
<g id="a_node9"><a xlink:href="../../d9/d71/list__iterator_8h.html" target="_top" xlink:title="list_iterator.h">
<polygon fill="white" stroke="black" points="566.5,-112.5 566.5,-131.5 639.5,-131.5 639.5,-112.5 566.5,-112.5"/>
<text text-anchor="middle" x="603" y="-119.5" font-family="Helvetica,sans-Serif" font-size="10.00">list_iterator.h</text>
</a>
</g>
</g>
<!-- Node8&#45;&gt;Node9 -->
<g id="edge12" class="edge"><title>Node8&#45;&gt;Node9</title>
<path fill="none" stroke="midnightblue" d="M555.693,-168.399C564.981,-159.486 576.999,-147.952 586.598,-138.741"/>
<polygon fill="midnightblue" stroke="midnightblue" points="589.187,-141.107 593.978,-131.658 584.34,-136.057 589.187,-141.107"/>
</g>
<!-- Node11 -->
<g id="node11" class="node"><title>Node11</title>
<g id="a_node11"><a xlink:href="../../dd/d8c/list__interface_8h.html" target="_top" xlink:title="list_interface.h">
<polygon fill="white" stroke="black" points="498,-56.5 498,-75.5 578,-75.5 578,-56.5 498,-56.5"/>
<text text-anchor="middle" x="538" y="-63.5" font-family="Helvetica,sans-Serif" font-size="10.00">list_interface.h</text>
</a>
</g>
</g>
<!-- Node8&#45;&gt;Node11 -->
<g id="edge15" class="edge"><title>Node8&#45;&gt;Node11</title>
<path fill="none" stroke="midnightblue" d="M540.632,-168.337C540.094,-147.622 539.091,-109.016 538.491,-85.8991"/>
<polygon fill="midnightblue" stroke="midnightblue" points="541.984,-85.5752 538.225,-75.6695 534.986,-85.757 541.984,-85.5752"/>
</g>
<!-- Node10 -->
<g id="node10" class="node"><title>Node10</title>
<g id="a_node10"><a xlink:href="../../d6/da4/iterator__interface_8h.html" target="_top" xlink:title="iterator_interface.h">
<polygon fill="white" stroke="black" points="596.5,-56.5 596.5,-75.5 693.5,-75.5 693.5,-56.5 596.5,-56.5"/>
<text text-anchor="middle" x="645" y="-63.5" font-family="Helvetica,sans-Serif" font-size="10.00">iterator_interface.h</text>
</a>
</g>
</g>
<!-- Node9&#45;&gt;Node10 -->
<g id="edge13" class="edge"><title>Node9&#45;&gt;Node10</title>
<path fill="none" stroke="midnightblue" d="M609.935,-112.083C615.929,-104.377 624.752,-93.0333 632.048,-83.6531"/>
<polygon fill="midnightblue" stroke="midnightblue" points="634.817,-85.7934 638.194,-75.7511 629.291,-81.4958 634.817,-85.7934"/>
</g>
<!-- Node9&#45;&gt;Node11 -->
<g id="edge14" class="edge"><title>Node9&#45;&gt;Node11</title>
<path fill="none" stroke="midnightblue" d="M592.557,-112.324C582.854,-104.263 568.185,-92.0765 556.5,-82.3695"/>
<polygon fill="midnightblue" stroke="midnightblue" points="558.562,-79.532 548.633,-75.8339 554.089,-84.9163 558.562,-79.532"/>
</g>
</g>
</svg>
