<?xml version="1.0" encoding="UTF-8" standalone="no"?>
<!DOCTYPE svg PUBLIC "-//W3C//DTD SVG 1.1//EN"
 "http://www.w3.org/Graphics/SVG/1.1/DTD/svg11.dtd">
<!-- Generated by graphviz version 2.38.0 (20140413.2041)
 -->
<!-- Title: src/operational/src/command/paste_command.cc Pages: 1 -->
<svg width="252pt" height="207pt"
 viewBox="0.00 0.00 252.00 207.00" xmlns="http://www.w3.org/2000/svg" xmlns:xlink="http://www.w3.org/1999/xlink">
<g id="graph0" class="graph" transform="scale(1 1) rotate(0) translate(4 203)">
<title>src/operational/src/command/paste_command.cc</title>
<polygon fill="white" stroke="none" points="-4,4 -4,-203 248,-203 248,4 -4,4"/>
<!-- Node1 -->
<g id="node1" class="node"><title>Node1</title>
<polygon fill="#bfbfbf" stroke="black" points="44.5,-168.5 44.5,-198.5 195.5,-198.5 195.5,-168.5 44.5,-168.5"/>
<text text-anchor="start" x="52.5" y="-186.5" font-family="Helvetica,sans-Serif" font-size="10.00">src/operational/src</text>
<text text-anchor="middle" x="120" y="-175.5" font-family="Helvetica,sans-Serif" font-size="10.00">/command/paste_command.cc</text>
</g>
<!-- Node2 -->
<g id="node2" class="node"><title>Node2</title>
<g id="a_node2"><a xlink:href="../../d5/dd8/paste__command_8h.html" target="_top" xlink:title="paste_command.h">
<polygon fill="white" stroke="black" points="71.5,-112.5 71.5,-131.5 168.5,-131.5 168.5,-112.5 71.5,-112.5"/>
<text text-anchor="middle" x="120" y="-119.5" font-family="Helvetica,sans-Serif" font-size="10.00">paste_command.h</text>
</a>
</g>
</g>
<!-- Node1&#45;&gt;Node2 -->
<g id="edge1" class="edge"><title>Node1&#45;&gt;Node2</title>
<path fill="none" stroke="midnightblue" d="M120,-168.399C120,-160.466 120,-150.458 120,-141.858"/>
<polygon fill="midnightblue" stroke="midnightblue" points="123.5,-141.658 120,-131.658 116.5,-141.658 123.5,-141.658"/>
</g>
<!-- Node3 -->
<g id="node3" class="node"><title>Node3</title>
<g id="a_node3"><a xlink:href="../../db/dd7/command__interface_8h.html" target="_top" xlink:title="command_interface.h">
<polygon fill="white" stroke="black" points="0,-56.5 0,-75.5 110,-75.5 110,-56.5 0,-56.5"/>
<text text-anchor="middle" x="55" y="-63.5" font-family="Helvetica,sans-Serif" font-size="10.00">command_interface.h</text>
</a>
</g>
</g>
<!-- Node2&#45;&gt;Node3 -->
<g id="edge2" class="edge"><title>Node2&#45;&gt;Node3</title>
<path fill="none" stroke="midnightblue" d="M109.557,-112.324C99.8538,-104.263 85.1847,-92.0765 73.5003,-82.3695"/>
<polygon fill="midnightblue" stroke="midnightblue" points="75.5619,-79.532 65.6334,-75.8339 71.0887,-84.9163 75.5619,-79.532"/>
</g>
<!-- Node4 -->
<g id="node4" class="node"><title>Node4</title>
<g id="a_node4"><a xlink:href="../../d0/d06/command__document_8h.html" target="_top" xlink:title="command_document.h">
<polygon fill="white" stroke="black" points="128,-56.5 128,-75.5 244,-75.5 244,-56.5 128,-56.5"/>
<text text-anchor="middle" x="186" y="-63.5" font-family="Helvetica,sans-Serif" font-size="10.00">command_document.h</text>
</a>
</g>
</g>
<!-- Node2&#45;&gt;Node4 -->
<g id="edge3" class="edge"><title>Node2&#45;&gt;Node4</title>
<path fill="none" stroke="midnightblue" d="M130.604,-112.324C140.456,-104.263 155.351,-92.0765 167.215,-82.3695"/>
<polygon fill="midnightblue" stroke="midnightblue" points="169.68,-84.8752 175.203,-75.8339 165.247,-79.4575 169.68,-84.8752"/>
</g>
<!-- Node5 -->
<g id="node5" class="node"><title>Node5</title>
<polygon fill="white" stroke="#bfbfbf" points="165.5,-0.5 165.5,-19.5 206.5,-19.5 206.5,-0.5 165.5,-0.5"/>
<text text-anchor="middle" x="186" y="-7.5" font-family="Helvetica,sans-Serif" font-size="10.00">string</text>
</g>
<!-- Node4&#45;&gt;Node5 -->
<g id="edge4" class="edge"><title>Node4&#45;&gt;Node5</title>
<path fill="none" stroke="midnightblue" d="M186,-56.083C186,-49.0059 186,-38.8611 186,-29.9865"/>
<polygon fill="midnightblue" stroke="midnightblue" points="189.5,-29.751 186,-19.7511 182.5,-29.7511 189.5,-29.751"/>
</g>
</g>
</svg>
