<?xml version="1.0" encoding="UTF-8" standalone="no"?>
<!DOCTYPE svg PUBLIC "-//W3C//DTD SVG 1.1//EN"
 "http://www.w3.org/Graphics/SVG/1.1/DTD/svg11.dtd">
<!-- Generated by graphviz version 2.38.0 (20140413.2041)
 -->
<!-- Title: operational::visitor::FloppyDiskInterface::GetBoxPrice Pages: 1 -->
<svg width="307pt" height="50pt"
 viewBox="0.00 0.00 307.00 50.00" xmlns="http://www.w3.org/2000/svg" xmlns:xlink="http://www.w3.org/1999/xlink">
<g id="graph0" class="graph" transform="scale(1 1) rotate(0) translate(4 46)">
<title>operational::visitor::FloppyDiskInterface::GetBoxPrice</title>
<polygon fill="white" stroke="none" points="-4,4 -4,-46 303,-46 303,4 -4,4"/>
<!-- Node1 -->
<g id="node1" class="node"><title>Node1</title>
<polygon fill="#bfbfbf" stroke="black" points="0,-0.5 0,-41.5 108,-41.5 108,-0.5 0,-0.5"/>
<text text-anchor="start" x="8" y="-29.5" font-family="Helvetica,sans-Serif" font-size="10.00">operational::visitor</text>
<text text-anchor="start" x="8" y="-18.5" font-family="Helvetica,sans-Serif" font-size="10.00">::FloppyDiskInterface</text>
<text text-anchor="middle" x="54" y="-7.5" font-family="Helvetica,sans-Serif" font-size="10.00">::GetBoxPrice</text>
</g>
<!-- Node2 -->
<g id="node2" class="node"><title>Node2</title>
<g id="a_node2"><a xlink:href="../../d6/d7b/classoperational_1_1visitor_1_1_pricing_visitor.html#adb888f53621db4029ea7ecd8c152d2d2" target="_top" xlink:title="operational::visitor\l::PricingVisitor::VisitFloppyDisk">
<polygon fill="white" stroke="black" points="144,-6 144,-36 299,-36 299,-6 144,-6"/>
<text text-anchor="start" x="152" y="-24" font-family="Helvetica,sans-Serif" font-size="10.00">operational::visitor</text>
<text text-anchor="middle" x="221.5" y="-13" font-family="Helvetica,sans-Serif" font-size="10.00">::PricingVisitor::VisitFloppyDisk</text>
</a>
</g>
</g>
<!-- Node1&#45;&gt;Node2 -->
<g id="edge1" class="edge"><title>Node1&#45;&gt;Node2</title>
<path fill="none" stroke="midnightblue" d="M118.298,-21C126.648,-21 135.278,-21 143.821,-21"/>
<polygon fill="midnightblue" stroke="midnightblue" points="118.276,-17.5001 108.276,-21 118.276,-24.5001 118.276,-17.5001"/>
</g>
</g>
</svg>
