<?xml version="1.0" encoding="UTF-8" standalone="no"?>
<!DOCTYPE svg PUBLIC "-//W3C//DTD SVG 1.1//EN"
 "http://www.w3.org/Graphics/SVG/1.1/DTD/svg11.dtd">
<!-- Generated by graphviz version 2.38.0 (20140413.2041)
 -->
<!-- Title: src/structural/src/decorator/ascii7_stream.h Pages: 1 -->
<svg width="284pt" height="117pt"
 viewBox="0.00 0.00 283.50 117.00" xmlns="http://www.w3.org/2000/svg" xmlns:xlink="http://www.w3.org/1999/xlink">
<g id="graph0" class="graph" transform="scale(1 1) rotate(0) translate(4 113)">
<title>src/structural/src/decorator/ascii7_stream.h</title>
<polygon fill="white" stroke="none" points="-4,4 -4,-113 279.5,-113 279.5,4 -4,4"/>
<!-- Node1 -->
<g id="node1" class="node"><title>Node1</title>
<polygon fill="#bfbfbf" stroke="black" points="75.5,-78.5 75.5,-108.5 207.5,-108.5 207.5,-78.5 75.5,-78.5"/>
<text text-anchor="start" x="83.5" y="-96.5" font-family="Helvetica,sans-Serif" font-size="10.00">src/structural/src</text>
<text text-anchor="middle" x="141.5" y="-85.5" font-family="Helvetica,sans-Serif" font-size="10.00">/decorator/ascii7_stream.h</text>
</g>
<!-- Node2 -->
<g id="node2" class="node"><title>Node2</title>
<g id="a_node2"><a xlink:href="../../dd/d84/ascii7__stream_8cc.html" target="_top" xlink:title="src/structural/src\l/decorator/ascii7_stream.cc">
<polygon fill="white" stroke="black" points="0,-6 0,-36 137,-36 137,-6 0,-6"/>
<text text-anchor="start" x="8" y="-24" font-family="Helvetica,sans-Serif" font-size="10.00">src/structural/src</text>
<text text-anchor="middle" x="68.5" y="-13" font-family="Helvetica,sans-Serif" font-size="10.00">/decorator/ascii7_stream.cc</text>
</a>
</g>
</g>
<!-- Node1&#45;&gt;Node2 -->
<g id="edge1" class="edge"><title>Node1&#45;&gt;Node2</title>
<path fill="none" stroke="midnightblue" d="M119.432,-71.188C107.716,-59.8729 93.6349,-46.2741 83.2507,-36.2455"/>
<polygon fill="midnightblue" stroke="midnightblue" points="117.103,-73.804 126.727,-78.2333 121.966,-68.7688 117.103,-73.804"/>
</g>
<!-- Node3 -->
<g id="node3" class="node"><title>Node3</title>
<g id="a_node3"><a xlink:href="../../d6/d1f/decorator__test_8cc.html" target="_top" xlink:title="src/structural_tests\l/src/decorator/decorator\l_test.cc">
<polygon fill="white" stroke="black" points="155.5,-0.5 155.5,-41.5 275.5,-41.5 275.5,-0.5 155.5,-0.5"/>
<text text-anchor="start" x="163.5" y="-29.5" font-family="Helvetica,sans-Serif" font-size="10.00">src/structural_tests</text>
<text text-anchor="start" x="163.5" y="-18.5" font-family="Helvetica,sans-Serif" font-size="10.00">/src/decorator/decorator</text>
<text text-anchor="middle" x="215.5" y="-7.5" font-family="Helvetica,sans-Serif" font-size="10.00">_test.cc</text>
</a>
</g>
</g>
<!-- Node1&#45;&gt;Node3 -->
<g id="edge2" class="edge"><title>Node1&#45;&gt;Node3</title>
<path fill="none" stroke="midnightblue" d="M163.962,-71.1007C173.818,-61.7107 185.311,-50.7615 194.939,-41.5884"/>
<polygon fill="midnightblue" stroke="midnightblue" points="161.301,-68.8014 156.475,-78.2333 166.129,-73.8696 161.301,-68.8014"/>
</g>
</g>
</svg>
