<?xml version="1.0" encoding="UTF-8" standalone="no"?>
<!DOCTYPE svg PUBLIC "-//W3C//DTD SVG 1.1//EN"
 "http://www.w3.org/Graphics/SVG/1.1/DTD/svg11.dtd">
<!-- Generated by graphviz version 2.38.0 (20140413.2041)
 -->
<!-- Title: src/creational/src/mazeparts/door.h Pages: 1 -->
<!--zoomable 429 -->
<svg id="main" version="1.1" xmlns="http://www.w3.org/2000/svg" xmlns:xlink="http://www.w3.org/1999/xlink" xml:space="preserve" onload="init(evt)">
<style type="text/css"><![CDATA[
.edge:hover path { stroke: red; }
.edge:hover polygon { stroke: red; fill: red; }
]]></style>
<script type="text/javascript"><![CDATA[
var edges = document.getElementsByTagName('g');
if (edges && edges.length) {
  for (var i=0;i<edges.length;i++) {
    if (edges[i].id.substr(0,4)=='edge') {
      edges[i].setAttribute('class','edge');
    }
  }
}
]]></script>
        <defs>
                <circle id="rim" cx="0" cy="0" r="7"/>
                <circle id="rim2" cx="0" cy="0" r="3.5"/>
                <g id="zoomPlus">
                        <use xlink:href="#rim" fill="#404040">
                                <set attributeName="fill" to="#808080" begin="zoomplus.mouseover" end="zoomplus.mouseout"/>
                        </use>
                        <path d="M-4,0h8M0,-4v8" fill="none" stroke="white" stroke-width="1.5" pointer-events="none"/>
                </g>
                <g id="zoomMin">
                        <use xlink:href="#rim" fill="#404040">
                                <set attributeName="fill" to="#808080" begin="zoomminus.mouseover" end="zoomminus.mouseout"/>
                        </use>
                        <path d="M-4,0h8" fill="none" stroke="white" stroke-width="1.5" pointer-events="none"/>
                </g>
                <g id="dirArrow">
                        <path fill="none" stroke="white" stroke-width="1.5" d="M0,-3.0v7 M-2.5,-0.5L0,-3.0L2.5,-0.5"/>
                </g>
               <g id="resetDef">
                       <use xlink:href="#rim2" fill="#404040">
                               <set attributeName="fill" to="#808080" begin="reset.mouseover" end="reset.mouseout"/>
                       </use>
               </g>
        </defs>

<script type="text/javascript">
var viewWidth = 1840;
var viewHeight = 429;
var sectionId = 'dynsection-1';
</script>
<script xlink:href="../../svgpan.js"/>
<svg id="graph" class="graph">
<g id="viewport">
<title>src/creational/src/mazeparts/door.h</title>
<polygon fill="white" stroke="none" points="-4,4 -4,-425 1835.5,-425 1835.5,4 -4,4"/>
<!-- Node1 -->
<g id="node1" class="node"><title>Node1</title>
<polygon fill="#bfbfbf" stroke="black" points="1220,-390.5 1220,-420.5 1315,-420.5 1315,-390.5 1220,-390.5"/>
<text text-anchor="start" x="1228" y="-408.5" font-family="Helvetica,sans-Serif" font-size="10.00">src/creational/src</text>
<text text-anchor="middle" x="1267.5" y="-397.5" font-family="Helvetica,sans-Serif" font-size="10.00">/mazeparts/door.h</text>
</g>
<!-- Node2 -->
<g id="node2" class="node"><title>Node2</title>
<g id="a_node2"><a xlink:href="../../de/d6d/maze__factory__interface_8h.html" target="_top" xlink:title="src/creational/src\l/abstractfactory/maze\l_factory_interface.h">
<polygon fill="white" stroke="black" points="702,-312.5 702,-353.5 813,-353.5 813,-312.5 702,-312.5"/>
<text text-anchor="start" x="710" y="-341.5" font-family="Helvetica,sans-Serif" font-size="10.00">src/creational/src</text>
<text text-anchor="start" x="710" y="-330.5" font-family="Helvetica,sans-Serif" font-size="10.00">/abstractfactory/maze</text>
<text text-anchor="middle" x="757.5" y="-319.5" font-family="Helvetica,sans-Serif" font-size="10.00">_factory_interface.h</text>
</a>
</g>
</g>
<!-- Node1&#45;&gt;Node2 -->
<g id="edge1" class="edge"><title>Node1&#45;&gt;Node2</title>
<path fill="none" stroke="midnightblue" d="M1209.88,-396.535C1111.07,-382.876 910.568,-355.159 813.14,-341.691"/>
<polygon fill="midnightblue" stroke="midnightblue" points="1209.59,-400.028 1219.98,-397.931 1210.55,-393.094 1209.59,-400.028"/>
</g>
<!-- Node18 -->
<g id="node18" class="node"><title>Node18</title>
<g id="a_node18"><a xlink:href="../../d1/d47/door__needing__spell_8h.html" target="_top" xlink:title="src/creational/src\l/mazeparts/door_needing\l_spell.h">
<polygon fill="white" stroke="black" points="958.5,-312.5 958.5,-353.5 1084.5,-353.5 1084.5,-312.5 958.5,-312.5"/>
<text text-anchor="start" x="966.5" y="-341.5" font-family="Helvetica,sans-Serif" font-size="10.00">src/creational/src</text>
<text text-anchor="start" x="966.5" y="-330.5" font-family="Helvetica,sans-Serif" font-size="10.00">/mazeparts/door_needing</text>
<text text-anchor="middle" x="1021.5" y="-319.5" font-family="Helvetica,sans-Serif" font-size="10.00">_spell.h</text>
</a>
</g>
</g>
<!-- Node1&#45;&gt;Node18 -->
<g id="edge20" class="edge"><title>Node1&#45;&gt;Node18</title>
<path fill="none" stroke="midnightblue" d="M1210.02,-388.026C1172.52,-377.28 1123.55,-363.247 1084.92,-352.176"/>
<polygon fill="midnightblue" stroke="midnightblue" points="1209.2,-391.433 1219.78,-390.823 1211.13,-384.704 1209.2,-391.433"/>
</g>
<!-- Node21 -->
<g id="node21" class="node"><title>Node21</title>
<g id="a_node21"><a xlink:href="../../d9/d77/validator_8cc.html" target="_top" xlink:title="src/creational_tests\l/src/utils/validator.cc">
<polygon fill="white" stroke="black" points="1087.5,-240 1087.5,-270 1193.5,-270 1193.5,-240 1087.5,-240"/>
<text text-anchor="start" x="1095.5" y="-258" font-family="Helvetica,sans-Serif" font-size="10.00">src/creational_tests</text>
<text text-anchor="middle" x="1140.5" y="-247" font-family="Helvetica,sans-Serif" font-size="10.00">/src/utils/validator.cc</text>
</a>
</g>
</g>
<!-- Node1&#45;&gt;Node21 -->
<g id="edge31" class="edge"><title>Node1&#45;&gt;Node21</title>
<path fill="none" stroke="midnightblue" d="M1209.94,-398.181C1181.66,-391.844 1149.98,-379.199 1132.5,-354 1114.99,-328.752 1126.06,-290.559 1134.17,-270.108"/>
<polygon fill="midnightblue" stroke="midnightblue" points="1209.28,-401.618 1219.77,-400.169 1210.67,-394.757 1209.28,-401.618"/>
</g>
<!-- Node22 -->
<g id="node22" class="node"><title>Node22</title>
<g id="a_node22"><a xlink:href="../../d3/d4e/counting__maze__builder_8cc.html" target="_top" xlink:title="src/creational/src\l/builder/counting_maze\l_builder.cc">
<polygon fill="white" stroke="black" points="1141,-312.5 1141,-353.5 1258,-353.5 1258,-312.5 1141,-312.5"/>
<text text-anchor="start" x="1149" y="-341.5" font-family="Helvetica,sans-Serif" font-size="10.00">src/creational/src</text>
<text text-anchor="start" x="1149" y="-330.5" font-family="Helvetica,sans-Serif" font-size="10.00">/builder/counting_maze</text>
<text text-anchor="middle" x="1199.5" y="-319.5" font-family="Helvetica,sans-Serif" font-size="10.00">_builder.cc</text>
</a>
</g>
</g>
<!-- Node1&#45;&gt;Node22 -->
<g id="edge26" class="edge"><title>Node1&#45;&gt;Node22</title>
<path fill="none" stroke="midnightblue" d="M1246.59,-382.821C1237.59,-373.494 1227.15,-362.671 1218.39,-353.588"/>
<polygon fill="midnightblue" stroke="midnightblue" points="1244.28,-385.466 1253.74,-390.233 1249.32,-380.606 1244.28,-385.466"/>
</g>
<!-- Node23 -->
<g id="node23" class="node"><title>Node23</title>
<g id="a_node23"><a xlink:href="../../da/d3e/standard__maze__builder_8cc.html" target="_top" xlink:title="src/creational/src\l/builder/standard_maze\l_builder.cc">
<polygon fill="white" stroke="black" points="1276.5,-312.5 1276.5,-353.5 1394.5,-353.5 1394.5,-312.5 1276.5,-312.5"/>
<text text-anchor="start" x="1284.5" y="-341.5" font-family="Helvetica,sans-Serif" font-size="10.00">src/creational/src</text>
<text text-anchor="start" x="1284.5" y="-330.5" font-family="Helvetica,sans-Serif" font-size="10.00">/builder/standard_maze</text>
<text text-anchor="middle" x="1335.5" y="-319.5" font-family="Helvetica,sans-Serif" font-size="10.00">_builder.cc</text>
</a>
</g>
</g>
<!-- Node1&#45;&gt;Node23 -->
<g id="edge27" class="edge"><title>Node1&#45;&gt;Node23</title>
<path fill="none" stroke="midnightblue" d="M1288.41,-382.821C1297.41,-373.494 1307.85,-362.671 1316.61,-353.588"/>
<polygon fill="midnightblue" stroke="midnightblue" points="1285.68,-380.606 1281.26,-390.233 1290.72,-385.466 1285.68,-380.606"/>
</g>
<!-- Node24 -->
<g id="node24" class="node"><title>Node24</title>
<g id="a_node24"><a xlink:href="../../d8/d91/door_8cc.html" target="_top" xlink:title="src/creational/src\l/mazeparts/door.cc">
<polygon fill="white" stroke="black" points="1413,-318 1413,-348 1514,-348 1514,-318 1413,-318"/>
<text text-anchor="start" x="1421" y="-336" font-family="Helvetica,sans-Serif" font-size="10.00">src/creational/src</text>
<text text-anchor="middle" x="1463.5" y="-325" font-family="Helvetica,sans-Serif" font-size="10.00">/mazeparts/door.cc</text>
</a>
</g>
</g>
<!-- Node1&#45;&gt;Node24 -->
<g id="edge28" class="edge"><title>Node1&#45;&gt;Node24</title>
<path fill="none" stroke="midnightblue" d="M1316.25,-386.965C1349.62,-374.962 1393.28,-359.258 1424.38,-348.073"/>
<polygon fill="midnightblue" stroke="midnightblue" points="1314.92,-383.725 1306.69,-390.403 1317.29,-390.311 1314.92,-383.725"/>
</g>
<!-- Node25 -->
<g id="node25" class="node"><title>Node25</title>
<g id="a_node25"><a xlink:href="../../dc/d5b/door__test_8cc.html" target="_top" xlink:title="src/creational_tests\l/src/mazeparts/door_test.cc">
<polygon fill="white" stroke="black" points="1532,-318 1532,-348 1671,-348 1671,-318 1532,-318"/>
<text text-anchor="start" x="1540" y="-336" font-family="Helvetica,sans-Serif" font-size="10.00">src/creational_tests</text>
<text text-anchor="middle" x="1601.5" y="-325" font-family="Helvetica,sans-Serif" font-size="10.00">/src/mazeparts/door_test.cc</text>
</a>
</g>
</g>
<!-- Node1&#45;&gt;Node25 -->
<g id="edge29" class="edge"><title>Node1&#45;&gt;Node25</title>
<path fill="none" stroke="midnightblue" d="M1325.36,-394.047C1377.38,-384.422 1455.78,-369.349 1523.5,-354 1531.54,-352.177 1540.02,-350.132 1548.31,-348.064"/>
<polygon fill="midnightblue" stroke="midnightblue" points="1324.52,-390.643 1315.32,-395.898 1325.79,-397.527 1324.52,-390.643"/>
</g>
<!-- Node26 -->
<g id="node26" class="node"><title>Node26</title>
<g id="a_node26"><a xlink:href="../../d8/d4f/room__test_8cc.html" target="_top" xlink:title="src/creational_tests\l/src/mazeparts/room_test.cc">
<polygon fill="white" stroke="black" points="1689.5,-318 1689.5,-348 1831.5,-348 1831.5,-318 1689.5,-318"/>
<text text-anchor="start" x="1697.5" y="-336" font-family="Helvetica,sans-Serif" font-size="10.00">src/creational_tests</text>
<text text-anchor="middle" x="1760.5" y="-325" font-family="Helvetica,sans-Serif" font-size="10.00">/src/mazeparts/room_test.cc</text>
</a>
</g>
</g>
<!-- Node1&#45;&gt;Node26 -->
<g id="edge30" class="edge"><title>Node1&#45;&gt;Node26</title>
<path fill="none" stroke="midnightblue" d="M1325.56,-399.677C1405.8,-392.494 1554.92,-377.283 1680.5,-354 1689.51,-352.33 1699.01,-350.245 1708.2,-348.056"/>
<polygon fill="midnightblue" stroke="midnightblue" points="1324.83,-396.228 1315.17,-400.596 1325.44,-403.2 1324.83,-396.228"/>
</g>
<!-- Node3 -->
<g id="node3" class="node"><title>Node3</title>
<g id="a_node3"><a xlink:href="../../d6/d3b/maze__factory_8h.html" target="_top" xlink:title="src/creational/src\l/abstractfactory/maze\l_factory.h">
<polygon fill="white" stroke="black" points="576,-234.5 576,-275.5 687,-275.5 687,-234.5 576,-234.5"/>
<text text-anchor="start" x="584" y="-263.5" font-family="Helvetica,sans-Serif" font-size="10.00">src/creational/src</text>
<text text-anchor="start" x="584" y="-252.5" font-family="Helvetica,sans-Serif" font-size="10.00">/abstractfactory/maze</text>
<text text-anchor="middle" x="631.5" y="-241.5" font-family="Helvetica,sans-Serif" font-size="10.00">_factory.h</text>
</a>
</g>
</g>
<!-- Node2&#45;&gt;Node3 -->
<g id="edge2" class="edge"><title>Node2&#45;&gt;Node3</title>
<path fill="none" stroke="midnightblue" d="M716.389,-307.203C699.337,-296.918 679.842,-285.159 663.838,-275.506"/>
<polygon fill="midnightblue" stroke="midnightblue" points="714.681,-310.26 725.052,-312.428 718.297,-304.266 714.681,-310.26"/>
</g>
<!-- Node4 -->
<g id="node4" class="node"><title>Node4</title>
<g id="a_node4"><a xlink:href="../../d5/dcd/bombed__maze__factory_8h.html" target="_top" xlink:title="src/creational/src\l/abstractfactory/bombed\l_maze_factory.h">
<polygon fill="white" stroke="black" points="591.5,-156.5 591.5,-197.5 713.5,-197.5 713.5,-156.5 591.5,-156.5"/>
<text text-anchor="start" x="599.5" y="-185.5" font-family="Helvetica,sans-Serif" font-size="10.00">src/creational/src</text>
<text text-anchor="start" x="599.5" y="-174.5" font-family="Helvetica,sans-Serif" font-size="10.00">/abstractfactory/bombed</text>
<text text-anchor="middle" x="652.5" y="-163.5" font-family="Helvetica,sans-Serif" font-size="10.00">_maze_factory.h</text>
</a>
</g>
</g>
<!-- Node3&#45;&gt;Node4 -->
<g id="edge3" class="edge"><title>Node3&#45;&gt;Node4</title>
<path fill="none" stroke="midnightblue" d="M639.627,-224.59C642.135,-215.511 644.835,-205.742 647.11,-197.506"/>
<polygon fill="midnightblue" stroke="midnightblue" points="636.198,-223.857 636.908,-234.428 642.945,-225.722 636.198,-223.857"/>
</g>
<!-- Node7 -->
<g id="node7" class="node"><title>Node7</title>
<g id="a_node7"><a xlink:href="../../dd/d80/enchanted__maze__factory_8h.html" target="_top" xlink:title="src/creational/src\l/abstractfactory/enchanted\l_maze_factory.h">
<polygon fill="white" stroke="black" points="861.5,-156.5 861.5,-197.5 993.5,-197.5 993.5,-156.5 861.5,-156.5"/>
<text text-anchor="start" x="869.5" y="-185.5" font-family="Helvetica,sans-Serif" font-size="10.00">src/creational/src</text>
<text text-anchor="start" x="869.5" y="-174.5" font-family="Helvetica,sans-Serif" font-size="10.00">/abstractfactory/enchanted</text>
<text text-anchor="middle" x="927.5" y="-163.5" font-family="Helvetica,sans-Serif" font-size="10.00">_maze_factory.h</text>
</a>
</g>
</g>
<!-- Node3&#45;&gt;Node7 -->
<g id="edge6" class="edge"><title>Node3&#45;&gt;Node7</title>
<path fill="none" stroke="midnightblue" d="M696.788,-234.013C766.43,-215.509 785.801,-214.27 851.5,-198 854.678,-197.213 857.929,-196.398 861.21,-195.566"/>
<polygon fill="midnightblue" stroke="midnightblue" points="695.847,-230.642 687.095,-236.613 697.66,-237.403 695.847,-230.642"/>
</g>
<!-- Node9 -->
<g id="node9" class="node"><title>Node9</title>
<g id="a_node9"><a xlink:href="../../d1/da8/maze__factory_8cc.html" target="_top" xlink:title="src/creational/src\l/abstractfactory/maze\l_factory.cc">
<polygon fill="white" stroke="black" points="732,-156.5 732,-197.5 843,-197.5 843,-156.5 732,-156.5"/>
<text text-anchor="start" x="740" y="-185.5" font-family="Helvetica,sans-Serif" font-size="10.00">src/creational/src</text>
<text text-anchor="start" x="740" y="-174.5" font-family="Helvetica,sans-Serif" font-size="10.00">/abstractfactory/maze</text>
<text text-anchor="middle" x="787.5" y="-163.5" font-family="Helvetica,sans-Serif" font-size="10.00">_factory.cc</text>
</a>
</g>
</g>
<!-- Node3&#45;&gt;Node9 -->
<g id="edge9" class="edge"><title>Node3&#45;&gt;Node9</title>
<path fill="none" stroke="midnightblue" d="M680.952,-229.908C702.402,-219.458 727.193,-207.38 747.462,-197.506"/>
<polygon fill="midnightblue" stroke="midnightblue" points="679.131,-226.902 671.674,-234.428 682.197,-233.195 679.131,-226.902"/>
</g>
<!-- Node10 -->
<g id="node10" class="node"><title>Node10</title>
<g id="a_node10"><a xlink:href="../../d2/df0/maze__game_8h.html" target="_top" xlink:title="src/creational/src\l/mazegame/maze_game.h">
<polygon fill="white" stroke="black" points="289.5,-162 289.5,-192 421.5,-192 421.5,-162 289.5,-162"/>
<text text-anchor="start" x="297.5" y="-180" font-family="Helvetica,sans-Serif" font-size="10.00">src/creational/src</text>
<text text-anchor="middle" x="355.5" y="-169" font-family="Helvetica,sans-Serif" font-size="10.00">/mazegame/maze_game.h</text>
</a>
</g>
</g>
<!-- Node3&#45;&gt;Node10 -->
<g id="edge10" class="edge"><title>Node3&#45;&gt;Node10</title>
<path fill="none" stroke="midnightblue" d="M566.156,-236.007C517.403,-222.582 451.725,-204.497 406.74,-192.11"/>
<polygon fill="midnightblue" stroke="midnightblue" points="565.409,-239.431 575.979,-238.712 567.267,-232.682 565.409,-239.431"/>
</g>
<!-- Node16 -->
<g id="node16" class="node"><title>Node16</title>
<g id="a_node16"><a xlink:href="../../d3/da8/maze__prototype__factory_8h.html" target="_top" xlink:title="src/creational/src\l/prototype/maze_prototype\l_factory.h">
<polygon fill="white" stroke="black" points="440,-156.5 440,-197.5 573,-197.5 573,-156.5 440,-156.5"/>
<text text-anchor="start" x="448" y="-185.5" font-family="Helvetica,sans-Serif" font-size="10.00">src/creational/src</text>
<text text-anchor="start" x="448" y="-174.5" font-family="Helvetica,sans-Serif" font-size="10.00">/prototype/maze_prototype</text>
<text text-anchor="middle" x="506.5" y="-163.5" font-family="Helvetica,sans-Serif" font-size="10.00">_factory.h</text>
</a>
</g>
</g>
<!-- Node3&#45;&gt;Node16 -->
<g id="edge17" class="edge"><title>Node3&#45;&gt;Node16</title>
<path fill="none" stroke="midnightblue" d="M590.715,-229.203C573.799,-218.918 554.458,-207.159 538.582,-197.506"/>
<polygon fill="midnightblue" stroke="midnightblue" points="588.946,-232.224 599.309,-234.428 592.583,-226.242 588.946,-232.224"/>
</g>
<!-- Node5 -->
<g id="node5" class="node"><title>Node5</title>
<g id="a_node5"><a xlink:href="../../d9/d3b/bombed__maze__factory_8cc.html" target="_top" xlink:title="src/creational/src\l/abstractfactory/bombed\l_maze_factory.cc">
<polygon fill="white" stroke="black" points="748.5,-78.5 748.5,-119.5 870.5,-119.5 870.5,-78.5 748.5,-78.5"/>
<text text-anchor="start" x="756.5" y="-107.5" font-family="Helvetica,sans-Serif" font-size="10.00">src/creational/src</text>
<text text-anchor="start" x="756.5" y="-96.5" font-family="Helvetica,sans-Serif" font-size="10.00">/abstractfactory/bombed</text>
<text text-anchor="middle" x="809.5" y="-85.5" font-family="Helvetica,sans-Serif" font-size="10.00">_maze_factory.cc</text>
</a>
</g>
</g>
<!-- Node4&#45;&gt;Node5 -->
<g id="edge4" class="edge"><title>Node4&#45;&gt;Node5</title>
<path fill="none" stroke="midnightblue" d="M701.978,-152.049C723.632,-141.566 748.715,-129.424 769.206,-119.506"/>
<polygon fill="midnightblue" stroke="midnightblue" points="700.407,-148.921 692.931,-156.428 703.457,-155.221 700.407,-148.921"/>
</g>
<!-- Node6 -->
<g id="node6" class="node"><title>Node6</title>
<g id="a_node6"><a xlink:href="../../d5/d51/maze__game__test_8cc.html" target="_top" xlink:title="src/creational_tests\l/src/mazegame/maze_game\l_test.cc">
<polygon fill="white" stroke="black" points="590.5,-78.5 590.5,-119.5 730.5,-119.5 730.5,-78.5 590.5,-78.5"/>
<text text-anchor="start" x="598.5" y="-107.5" font-family="Helvetica,sans-Serif" font-size="10.00">src/creational_tests</text>
<text text-anchor="start" x="598.5" y="-96.5" font-family="Helvetica,sans-Serif" font-size="10.00">/src/mazegame/maze_game</text>
<text text-anchor="middle" x="660.5" y="-85.5" font-family="Helvetica,sans-Serif" font-size="10.00">_test.cc</text>
</a>
</g>
</g>
<!-- Node4&#45;&gt;Node6 -->
<g id="edge5" class="edge"><title>Node4&#45;&gt;Node6</title>
<path fill="none" stroke="midnightblue" d="M655.627,-146.297C656.574,-137.301 657.589,-127.653 658.447,-119.506"/>
<polygon fill="midnightblue" stroke="midnightblue" points="652.126,-146.117 654.56,-156.428 659.088,-146.849 652.126,-146.117"/>
</g>
<!-- Node7&#45;&gt;Node6 -->
<g id="edge8" class="edge"><title>Node7&#45;&gt;Node6</title>
<path fill="none" stroke="midnightblue" d="M851.408,-154.341C813.019,-143.414 766.807,-130.26 729.465,-119.631"/>
<polygon fill="midnightblue" stroke="midnightblue" points="850.924,-157.842 861.5,-157.213 852.84,-151.109 850.924,-157.842"/>
</g>
<!-- Node8 -->
<g id="node8" class="node"><title>Node8</title>
<g id="a_node8"><a xlink:href="../../d3/d4b/enchanted__maze__factory_8cc.html" target="_top" xlink:title="src/creational/src\l/abstractfactory/enchanted\l_maze_factory.cc">
<polygon fill="white" stroke="black" points="894.5,-78.5 894.5,-119.5 1026.5,-119.5 1026.5,-78.5 894.5,-78.5"/>
<text text-anchor="start" x="902.5" y="-107.5" font-family="Helvetica,sans-Serif" font-size="10.00">src/creational/src</text>
<text text-anchor="start" x="902.5" y="-96.5" font-family="Helvetica,sans-Serif" font-size="10.00">/abstractfactory/enchanted</text>
<text text-anchor="middle" x="960.5" y="-85.5" font-family="Helvetica,sans-Serif" font-size="10.00">_maze_factory.cc</text>
</a>
</g>
</g>
<!-- Node7&#45;&gt;Node8 -->
<g id="edge7" class="edge"><title>Node7&#45;&gt;Node8</title>
<path fill="none" stroke="midnightblue" d="M940.016,-147.174C944.03,-137.932 948.377,-127.919 952.03,-119.506"/>
<polygon fill="midnightblue" stroke="midnightblue" points="936.771,-145.861 935.998,-156.428 943.192,-148.65 936.771,-145.861"/>
</g>
<!-- Node10&#45;&gt;Node6 -->
<g id="edge16" class="edge"><title>Node10&#45;&gt;Node6</title>
<path fill="none" stroke="midnightblue" d="M417.288,-159.392C421.756,-158.231 426.195,-157.09 430.5,-156 496.961,-139.166 513.91,-136.314 580.5,-120 583.698,-119.216 586.967,-118.412 590.269,-117.597"/>
<polygon fill="midnightblue" stroke="midnightblue" points="416.292,-156.035 407.503,-161.952 418.063,-162.807 416.292,-156.035"/>
</g>
<!-- Node11 -->
<g id="node11" class="node"><title>Node11</title>
<g id="a_node11"><a xlink:href="../../d6/d92/bombed__maze__game_8h.html" target="_top" xlink:title="src/creational/src\l/factorymethod/bombed\l_maze_game.h">
<polygon fill="white" stroke="black" points="0,-78.5 0,-119.5 119,-119.5 119,-78.5 0,-78.5"/>
<text text-anchor="start" x="8" y="-107.5" font-family="Helvetica,sans-Serif" font-size="10.00">src/creational/src</text>
<text text-anchor="start" x="8" y="-96.5" font-family="Helvetica,sans-Serif" font-size="10.00">/factorymethod/bombed</text>
<text text-anchor="middle" x="59.5" y="-85.5" font-family="Helvetica,sans-Serif" font-size="10.00">_maze_game.h</text>
</a>
</g>
</g>
<!-- Node10&#45;&gt;Node11 -->
<g id="edge11" class="edge"><title>Node10&#45;&gt;Node11</title>
<path fill="none" stroke="midnightblue" d="M285.313,-159.628C240.119,-148.872 180.184,-134.21 127.5,-120 124.767,-119.263 121.977,-118.497 119.161,-117.713"/>
<polygon fill="midnightblue" stroke="midnightblue" points="284.766,-163.095 295.304,-161.999 286.383,-156.285 284.766,-163.095"/>
</g>
<!-- Node13 -->
<g id="node13" class="node"><title>Node13</title>
<g id="a_node13"><a xlink:href="../../df/d13/enchanted__maze__game_8h.html" target="_top" xlink:title="src/creational/src\l/factorymethod/enchanted\l_maze_game.h">
<polygon fill="white" stroke="black" points="292,-78.5 292,-119.5 421,-119.5 421,-78.5 292,-78.5"/>
<text text-anchor="start" x="300" y="-107.5" font-family="Helvetica,sans-Serif" font-size="10.00">src/creational/src</text>
<text text-anchor="start" x="300" y="-96.5" font-family="Helvetica,sans-Serif" font-size="10.00">/factorymethod/enchanted</text>
<text text-anchor="middle" x="356.5" y="-85.5" font-family="Helvetica,sans-Serif" font-size="10.00">_maze_game.h</text>
</a>
</g>
</g>
<!-- Node10&#45;&gt;Node13 -->
<g id="edge13" class="edge"><title>Node10&#45;&gt;Node13</title>
<path fill="none" stroke="midnightblue" d="M355.82,-151.656C355.956,-141.326 356.113,-129.443 356.241,-119.68"/>
<polygon fill="midnightblue" stroke="midnightblue" points="352.32,-151.66 355.688,-161.705 359.319,-151.752 352.32,-151.66"/>
</g>
<!-- Node15 -->
<g id="node15" class="node"><title>Node15</title>
<g id="a_node15"><a xlink:href="../../d6/d51/maze__game_8cc.html" target="_top" xlink:title="src/creational/src\l/mazegame/maze_game.cc">
<polygon fill="white" stroke="black" points="137,-84 137,-114 274,-114 274,-84 137,-84"/>
<text text-anchor="start" x="145" y="-102" font-family="Helvetica,sans-Serif" font-size="10.00">src/creational/src</text>
<text text-anchor="middle" x="205.5" y="-91" font-family="Helvetica,sans-Serif" font-size="10.00">/mazegame/maze_game.cc</text>
</a>
</g>
</g>
<!-- Node10&#45;&gt;Node15 -->
<g id="edge15" class="edge"><title>Node10&#45;&gt;Node15</title>
<path fill="none" stroke="midnightblue" d="M318.69,-157.349C292.286,-143.971 257.269,-126.229 233.213,-114.041"/>
<polygon fill="midnightblue" stroke="midnightblue" points="317.135,-160.486 327.638,-161.883 320.299,-154.241 317.135,-160.486"/>
</g>
<!-- Node12 -->
<g id="node12" class="node"><title>Node12</title>
<g id="a_node12"><a xlink:href="../../d4/d89/bombed__maze__game_8cc.html" target="_top" xlink:title="src/creational/src\l/factorymethod/bombed\l_maze_game.cc">
<polygon fill="white" stroke="black" points="0,-0.5 0,-41.5 119,-41.5 119,-0.5 0,-0.5"/>
<text text-anchor="start" x="8" y="-29.5" font-family="Helvetica,sans-Serif" font-size="10.00">src/creational/src</text>
<text text-anchor="start" x="8" y="-18.5" font-family="Helvetica,sans-Serif" font-size="10.00">/factorymethod/bombed</text>
<text text-anchor="middle" x="59.5" y="-7.5" font-family="Helvetica,sans-Serif" font-size="10.00">_maze_game.cc</text>
</a>
</g>
</g>
<!-- Node11&#45;&gt;Node12 -->
<g id="edge12" class="edge"><title>Node11&#45;&gt;Node12</title>
<path fill="none" stroke="midnightblue" d="M59.5,-68.2965C59.5,-59.3009 59.5,-49.6532 59.5,-41.5056"/>
<polygon fill="midnightblue" stroke="midnightblue" points="56.0001,-68.4281 59.5,-78.4281 63.0001,-68.4281 56.0001,-68.4281"/>
</g>
<!-- Node14 -->
<g id="node14" class="node"><title>Node14</title>
<g id="a_node14"><a xlink:href="../../db/db5/enchanted__maze__game_8cc.html" target="_top" xlink:title="src/creational/src\l/factorymethod/enchanted\l_maze_game.cc">
<polygon fill="white" stroke="black" points="643,-0.5 643,-41.5 772,-41.5 772,-0.5 643,-0.5"/>
<text text-anchor="start" x="651" y="-29.5" font-family="Helvetica,sans-Serif" font-size="10.00">src/creational/src</text>
<text text-anchor="start" x="651" y="-18.5" font-family="Helvetica,sans-Serif" font-size="10.00">/factorymethod/enchanted</text>
<text text-anchor="middle" x="707.5" y="-7.5" font-family="Helvetica,sans-Serif" font-size="10.00">_maze_game.cc</text>
</a>
</g>
</g>
<!-- Node13&#45;&gt;Node14 -->
<g id="edge14" class="edge"><title>Node13&#45;&gt;Node14</title>
<path fill="none" stroke="midnightblue" d="M431.285,-77.6386C509.051,-59.4009 588.705,-43.8342 642.906,-33.7108"/>
<polygon fill="midnightblue" stroke="midnightblue" points="430.247,-74.2875 421.319,-79.9931 431.856,-81.0999 430.247,-74.2875"/>
</g>
<!-- Node16&#45;&gt;Node6 -->
<g id="edge19" class="edge"><title>Node16&#45;&gt;Node6</title>
<path fill="none" stroke="midnightblue" d="M555.318,-151.908C576.493,-141.458 600.967,-129.38 620.976,-119.506"/>
<polygon fill="midnightblue" stroke="midnightblue" points="553.577,-148.864 546.159,-156.428 556.675,-155.141 553.577,-148.864"/>
</g>
<!-- Node17 -->
<g id="node17" class="node"><title>Node17</title>
<g id="a_node17"><a xlink:href="../../d5/d25/maze__prototype__factory_8cc.html" target="_top" xlink:title="src/creational/src\l/prototype/maze_prototype\l_factory.cc">
<polygon fill="white" stroke="black" points="439,-78.5 439,-119.5 572,-119.5 572,-78.5 439,-78.5"/>
<text text-anchor="start" x="447" y="-107.5" font-family="Helvetica,sans-Serif" font-size="10.00">src/creational/src</text>
<text text-anchor="start" x="447" y="-96.5" font-family="Helvetica,sans-Serif" font-size="10.00">/prototype/maze_prototype</text>
<text text-anchor="middle" x="505.5" y="-85.5" font-family="Helvetica,sans-Serif" font-size="10.00">_factory.cc</text>
</a>
</g>
</g>
<!-- Node16&#45;&gt;Node17 -->
<g id="edge18" class="edge"><title>Node16&#45;&gt;Node17</title>
<path fill="none" stroke="midnightblue" d="M506.109,-146.297C505.991,-137.301 505.864,-127.653 505.757,-119.506"/>
<polygon fill="midnightblue" stroke="midnightblue" points="502.611,-146.475 506.242,-156.428 509.611,-146.383 502.611,-146.475"/>
</g>
<!-- Node18&#45;&gt;Node8 -->
<g id="edge21" class="edge"><title>Node18&#45;&gt;Node8</title>
<path fill="none" stroke="midnightblue" d="M1023,-302.165C1023.75,-266.213 1021.65,-204.583 1002.5,-156 997.241,-142.659 987.906,-129.719 979.371,-119.644"/>
<polygon fill="midnightblue" stroke="midnightblue" points="1019.49,-302.354 1022.69,-312.455 1026.49,-302.565 1019.49,-302.354"/>
</g>
<!-- Node18&#45;&gt;Node14 -->
<g id="edge22" class="edge"><title>Node18&#45;&gt;Node14</title>
<path fill="none" stroke="midnightblue" d="M1034.56,-303.007C1055.71,-251.168 1089.89,-142.04 1035.5,-78 1002.36,-38.9762 857.87,-27.1451 772.11,-23.559"/>
<polygon fill="midnightblue" stroke="midnightblue" points="1031.31,-301.713 1030.66,-312.288 1037.76,-304.424 1031.31,-301.713"/>
</g>
<!-- Node19 -->
<g id="node19" class="node"><title>Node19</title>
<g id="a_node19"><a xlink:href="../../db/dd4/door__needing__spell_8cc.html" target="_top" xlink:title="src/creational/src\l/mazeparts/door_needing\l_spell.cc">
<polygon fill="white" stroke="black" points="705.5,-234.5 705.5,-275.5 831.5,-275.5 831.5,-234.5 705.5,-234.5"/>
<text text-anchor="start" x="713.5" y="-263.5" font-family="Helvetica,sans-Serif" font-size="10.00">src/creational/src</text>
<text text-anchor="start" x="713.5" y="-252.5" font-family="Helvetica,sans-Serif" font-size="10.00">/mazeparts/door_needing</text>
<text text-anchor="middle" x="768.5" y="-241.5" font-family="Helvetica,sans-Serif" font-size="10.00">_spell.cc</text>
</a>
</g>
</g>
<!-- Node18&#45;&gt;Node19 -->
<g id="edge23" class="edge"><title>Node18&#45;&gt;Node19</title>
<path fill="none" stroke="midnightblue" d="M948.599,-310.101C911.661,-299.005 867.243,-285.662 831.761,-275.003"/>
<polygon fill="midnightblue" stroke="midnightblue" points="947.726,-313.493 958.31,-313.018 949.74,-306.789 947.726,-313.493"/>
</g>
<!-- Node20 -->
<g id="node20" class="node"><title>Node20</title>
<g id="a_node20"><a xlink:href="../../d8/d61/door__needing__spell__test_8cc.html" target="_top" xlink:title="src/creational_tests\l/src/mazeparts/door_needing\l_spell_test.cc">
<polygon fill="white" stroke="black" points="850,-234.5 850,-275.5 993,-275.5 993,-234.5 850,-234.5"/>
<text text-anchor="start" x="858" y="-263.5" font-family="Helvetica,sans-Serif" font-size="10.00">src/creational_tests</text>
<text text-anchor="start" x="858" y="-252.5" font-family="Helvetica,sans-Serif" font-size="10.00">/src/mazeparts/door_needing</text>
<text text-anchor="middle" x="921.5" y="-241.5" font-family="Helvetica,sans-Serif" font-size="10.00">_spell_test.cc</text>
</a>
</g>
</g>
<!-- Node18&#45;&gt;Node20 -->
<g id="edge24" class="edge"><title>Node18&#45;&gt;Node20</title>
<path fill="none" stroke="midnightblue" d="M987.75,-306.35C974.489,-296.272 959.517,-284.893 947.165,-275.506"/>
<polygon fill="midnightblue" stroke="midnightblue" points="985.668,-309.164 995.748,-312.428 989.904,-303.591 985.668,-309.164"/>
</g>
<!-- Node18&#45;&gt;Node21 -->
<g id="edge25" class="edge"><title>Node18&#45;&gt;Node21</title>
<path fill="none" stroke="midnightblue" d="M1060.67,-306.985C1079.78,-294.782 1102.06,-280.548 1118.23,-270.225"/>
<polygon fill="midnightblue" stroke="midnightblue" points="1058.69,-304.096 1052.15,-312.428 1062.46,-309.995 1058.69,-304.096"/>
</g>
</g>
</svg>
        <g id="navigator" transform="translate(0 0)" fill="#404254">
                <rect fill="#f2f5e9" fill-opacity="0.5" stroke="#606060" stroke-width=".5" x="0" y="0" width="60" height="60"/>
                <use id="zoomplus" xlink:href="#zoomPlus" x="17" y="9" onmousedown="handleZoom(evt,'in')"/>
                <use id="zoomminus" xlink:href="#zoomMin" x="42" y="9" onmousedown="handleZoom(evt,'out')"/>
                <use id="reset" xlink:href="#resetDef" x="30" y="36" onmousedown="handleReset()"/>
                <g id="arrowUp" xlink:href="#dirArrow" transform="translate(30 24)" onmousedown="handlePan(0,-1)">
                  <use xlink:href="#rim" fill="#404040">
                        <set attributeName="fill" to="#808080" begin="arrowUp.mouseover" end="arrowUp.mouseout"/>
                  </use>
                  <path fill="none" stroke="white" stroke-width="1.5" d="M0,-3.0v7 M-2.5,-0.5L0,-3.0L2.5,-0.5"/>
                </g>
                <g id="arrowRight" xlink:href="#dirArrow" transform="rotate(90) translate(36 -43)" onmousedown="handlePan(1,0)">
                  <use xlink:href="#rim" fill="#404040">
                        <set attributeName="fill" to="#808080" begin="arrowRight.mouseover" end="arrowRight.mouseout"/>
                  </use>
                  <path fill="none" stroke="white" stroke-width="1.5" d="M0,-3.0v7 M-2.5,-0.5L0,-3.0L2.5,-0.5"/>
                </g>
                <g id="arrowDown" xlink:href="#dirArrow" transform="rotate(180) translate(-30 -48)" onmousedown="handlePan(0,1)">
                  <use xlink:href="#rim" fill="#404040">
                        <set attributeName="fill" to="#808080" begin="arrowDown.mouseover" end="arrowDown.mouseout"/>
                  </use>
                  <path fill="none" stroke="white" stroke-width="1.5" d="M0,-3.0v7 M-2.5,-0.5L0,-3.0L2.5,-0.5"/>
                </g>
                <g id="arrowLeft" xlink:href="#dirArrow" transform="rotate(270) translate(-36 17)" onmousedown="handlePan(-1,0)">
                  <use xlink:href="#rim" fill="#404040">
                        <set attributeName="fill" to="#808080" begin="arrowLeft.mouseover" end="arrowLeft.mouseout"/>
                  </use>
                  <path fill="none" stroke="white" stroke-width="1.5" d="M0,-3.0v7 M-2.5,-0.5L0,-3.0L2.5,-0.5"/>
                </g>
        </g>
        <svg viewBox="0 0 15 15" width="100%" height="30px" preserveAspectRatio="xMaxYMin meet">
         <g id="arrow_out" transform="scale(0.3 0.3)">
          <a xlink:href="door_8h__dep__incl_org.svg" target="_base">
           <rect id="button" ry="5" rx="5" y="6" x="6" height="38" width="38"
                fill="#f2f5e9" fill-opacity="0.5" stroke="#606060" stroke-width="1.0"/>
           <path id="arrow"
             d="M 11.500037,31.436501 C 11.940474,20.09759 22.043105,11.32322 32.158766,21.979434 L 37.068811,17.246167 C 37.068811,17.246167 37.088388,32 37.088388,32 L 22.160133,31.978069 C 22.160133,31.978069 26.997745,27.140456 26.997745,27.140456 C 18.528582,18.264221 13.291696,25.230495 11.500037,31.436501 z"
             style="fill:#404040;"/>
          </a>
         </g>
        </svg>
</svg>
