<?xml version="1.0" encoding="UTF-8" standalone="no"?>
<!DOCTYPE svg PUBLIC "-//W3C//DTD SVG 1.1//EN"
 "http://www.w3.org/Graphics/SVG/1.1/DTD/svg11.dtd">
<!-- Generated by graphviz version 2.38.0 (20140413.2041)
 -->
<!-- Title: operational::chain::Button Pages: 1 -->
<svg width="135pt" height="485pt"
 viewBox="0.00 0.00 135.00 485.00" xmlns="http://www.w3.org/2000/svg" xmlns:xlink="http://www.w3.org/1999/xlink">
<g id="graph0" class="graph" transform="scale(1 1) rotate(0) translate(4 481)">
<title>operational::chain::Button</title>
<polygon fill="white" stroke="none" points="-4,4 -4,-481 131,-481 131,4 -4,4"/>
<!-- Node1 -->
<g id="node1" class="node"><title>Node1</title>
<polygon fill="#bfbfbf" stroke="black" points="16,-0.5 16,-134.5 111,-134.5 111,-0.5 16,-0.5"/>
<text text-anchor="start" x="24" y="-122.5" font-family="Helvetica,sans-Serif" font-size="10.00">operational::chain</text>
<text text-anchor="middle" x="63.5" y="-111.5" font-family="Helvetica,sans-Serif" font-size="10.00">::Button</text>
<polyline fill="none" stroke="black" points="16,-104.5 111,-104.5 "/>
<text text-anchor="middle" x="63.5" y="-92.5" font-family="Helvetica,sans-Serif" font-size="10.00"> </text>
<polyline fill="none" stroke="black" points="16,-85.5 111,-85.5 "/>
<text text-anchor="start" x="24" y="-73.5" font-family="Helvetica,sans-Serif" font-size="10.00">+ Button()</text>
<text text-anchor="start" x="24" y="-62.5" font-family="Helvetica,sans-Serif" font-size="10.00">+ Button()</text>
<text text-anchor="start" x="24" y="-51.5" font-family="Helvetica,sans-Serif" font-size="10.00">+ Button()</text>
<text text-anchor="start" x="24" y="-40.5" font-family="Helvetica,sans-Serif" font-size="10.00">+ Button()</text>
<text text-anchor="start" x="24" y="-29.5" font-family="Helvetica,sans-Serif" font-size="10.00">+ HasHelp()</text>
<text text-anchor="start" x="24" y="-18.5" font-family="Helvetica,sans-Serif" font-size="10.00">+ HandleHelp()</text>
<text text-anchor="start" x="24" y="-7.5" font-family="Helvetica,sans-Serif" font-size="10.00">+ help_message()</text>
</g>
<!-- Node2 -->
<g id="node2" class="node"><title>Node2</title>
<g id="a_node2"><a xlink:href="../../df/d6a/classoperational_1_1chain_1_1_widget.html" target="_top" xlink:title="{operational::chain\l::Widget\n||+ HasHelp()\l+ SetHandler()\l+ HandleHelp()\l+ topic()\l+ name()\l+ help_message()\l# Widget()\l# Widget()\l# Widget()\l# Widget()\l}">
<polygon fill="white" stroke="black" points="16,-171.5 16,-338.5 111,-338.5 111,-171.5 16,-171.5"/>
<text text-anchor="start" x="24" y="-326.5" font-family="Helvetica,sans-Serif" font-size="10.00">operational::chain</text>
<text text-anchor="middle" x="63.5" y="-315.5" font-family="Helvetica,sans-Serif" font-size="10.00">::Widget</text>
<polyline fill="none" stroke="black" points="16,-308.5 111,-308.5 "/>
<text text-anchor="middle" x="63.5" y="-296.5" font-family="Helvetica,sans-Serif" font-size="10.00"> </text>
<polyline fill="none" stroke="black" points="16,-289.5 111,-289.5 "/>
<text text-anchor="start" x="24" y="-277.5" font-family="Helvetica,sans-Serif" font-size="10.00">+ HasHelp()</text>
<text text-anchor="start" x="24" y="-266.5" font-family="Helvetica,sans-Serif" font-size="10.00">+ SetHandler()</text>
<text text-anchor="start" x="24" y="-255.5" font-family="Helvetica,sans-Serif" font-size="10.00">+ HandleHelp()</text>
<text text-anchor="start" x="24" y="-244.5" font-family="Helvetica,sans-Serif" font-size="10.00">+ topic()</text>
<text text-anchor="start" x="24" y="-233.5" font-family="Helvetica,sans-Serif" font-size="10.00">+ name()</text>
<text text-anchor="start" x="24" y="-222.5" font-family="Helvetica,sans-Serif" font-size="10.00">+ help_message()</text>
<text text-anchor="start" x="24" y="-211.5" font-family="Helvetica,sans-Serif" font-size="10.00"># Widget()</text>
<text text-anchor="start" x="24" y="-200.5" font-family="Helvetica,sans-Serif" font-size="10.00"># Widget()</text>
<text text-anchor="start" x="24" y="-189.5" font-family="Helvetica,sans-Serif" font-size="10.00"># Widget()</text>
<text text-anchor="start" x="24" y="-178.5" font-family="Helvetica,sans-Serif" font-size="10.00"># Widget()</text>
</a>
</g>
</g>
<!-- Node2&#45;&gt;Node1 -->
<g id="edge1" class="edge"><title>Node2&#45;&gt;Node1</title>
<path fill="none" stroke="midnightblue" d="M63.5,-161.186C63.5,-152.224 63.5,-143.263 63.5,-134.638"/>
<polygon fill="none" stroke="midnightblue" points="60.0001,-161.286 63.5,-171.286 67.0001,-161.286 60.0001,-161.286"/>
</g>
<!-- Node3 -->
<g id="node3" class="node"><title>Node3</title>
<g id="a_node3"><a xlink:href="../../df/dcd/classoperational_1_1chain_1_1_help_handler_interface.html" target="_top" xlink:title="{operational::chain\l::HelpHandlerInterface\n||+ ~HelpHandlerInterface()\l+ HasHelp()\l+ SetHandler()\l+ HandleHelp()\l}">
<polygon fill="white" stroke="black" points="0,-375.5 0,-476.5 127,-476.5 127,-375.5 0,-375.5"/>
<text text-anchor="start" x="8" y="-464.5" font-family="Helvetica,sans-Serif" font-size="10.00">operational::chain</text>
<text text-anchor="middle" x="63.5" y="-453.5" font-family="Helvetica,sans-Serif" font-size="10.00">::HelpHandlerInterface</text>
<polyline fill="none" stroke="black" points="0,-446.5 127,-446.5 "/>
<text text-anchor="middle" x="63.5" y="-434.5" font-family="Helvetica,sans-Serif" font-size="10.00"> </text>
<polyline fill="none" stroke="black" points="0,-427.5 127,-427.5 "/>
<text text-anchor="start" x="8" y="-415.5" font-family="Helvetica,sans-Serif" font-size="10.00">+ ~HelpHandlerInterface()</text>
<text text-anchor="start" x="8" y="-404.5" font-family="Helvetica,sans-Serif" font-size="10.00">+ HasHelp()</text>
<text text-anchor="start" x="8" y="-393.5" font-family="Helvetica,sans-Serif" font-size="10.00">+ SetHandler()</text>
<text text-anchor="start" x="8" y="-382.5" font-family="Helvetica,sans-Serif" font-size="10.00">+ HandleHelp()</text>
</a>
</g>
</g>
<!-- Node3&#45;&gt;Node2 -->
<g id="edge2" class="edge"><title>Node3&#45;&gt;Node2</title>
<path fill="none" stroke="midnightblue" d="M63.5,-365.012C63.5,-356.483 63.5,-347.589 63.5,-338.721"/>
<polygon fill="none" stroke="midnightblue" points="60.0001,-365.208 63.5,-375.208 67.0001,-365.209 60.0001,-365.208"/>
</g>
</g>
</svg>
