<?xml version="1.0" encoding="UTF-8" standalone="no"?>
<!DOCTYPE svg PUBLIC "-//W3C//DTD SVG 1.1//EN"
 "http://www.w3.org/Graphics/SVG/1.1/DTD/svg11.dtd">
<!-- Generated by graphviz version 2.38.0 (20140413.2041)
 -->
<!-- Title: src/structural/src/facade/program_node_builder_interface.h Pages: 1 -->
<svg width="470pt" height="274pt"
 viewBox="0.00 0.00 469.65 274.00" xmlns="http://www.w3.org/2000/svg" xmlns:xlink="http://www.w3.org/1999/xlink">
<g id="graph0" class="graph" transform="scale(1 1) rotate(0) translate(4 270)">
<title>src/structural/src/facade/program_node_builder_interface.h</title>
<polygon fill="white" stroke="none" points="-4,4 -4,-270 465.654,-270 465.654,4 -4,4"/>
<!-- Node1 -->
<g id="node1" class="node"><title>Node1</title>
<polygon fill="#bfbfbf" stroke="black" points="327.5,-224.5 327.5,-265.5 440.5,-265.5 440.5,-224.5 327.5,-224.5"/>
<text text-anchor="start" x="335.5" y="-253.5" font-family="Helvetica,sans-Serif" font-size="10.00">src/structural/src</text>
<text text-anchor="start" x="335.5" y="-242.5" font-family="Helvetica,sans-Serif" font-size="10.00">/facade/program_node</text>
<text text-anchor="middle" x="384" y="-231.5" font-family="Helvetica,sans-Serif" font-size="10.00">_builder_interface.h</text>
</g>
<!-- Node2 -->
<g id="node2" class="node"><title>Node2</title>
<g id="a_node2"><a xlink:href="../../dc/d6c/program__node__interface_8h.html" target="_top" xlink:title="program_node_interface.h">
<polygon fill="white" stroke="black" points="237,-168.5 237,-187.5 365,-187.5 365,-168.5 237,-168.5"/>
<text text-anchor="middle" x="301" y="-175.5" font-family="Helvetica,sans-Serif" font-size="10.00">program_node_interface.h</text>
</a>
</g>
</g>
<!-- Node1&#45;&gt;Node2 -->
<g id="edge1" class="edge"><title>Node1&#45;&gt;Node2</title>
<path fill="none" stroke="midnightblue" d="M359.097,-224.498C346.617,-214.724 331.738,-203.072 320.162,-194.007"/>
<polygon fill="midnightblue" stroke="midnightblue" points="322.08,-191.063 312.049,-187.652 317.764,-196.574 322.08,-191.063"/>
</g>
<!-- Node5 -->
<g id="node5" class="node"><title>Node5</title>
<polygon fill="white" stroke="#bfbfbf" points="280.5,-0.5 280.5,-19.5 321.5,-19.5 321.5,-0.5 280.5,-0.5"/>
<text text-anchor="middle" x="301" y="-7.5" font-family="Helvetica,sans-Serif" font-size="10.00">string</text>
</g>
<!-- Node1&#45;&gt;Node5 -->
<g id="edge9" class="edge"><title>Node1&#45;&gt;Node5</title>
<path fill="none" stroke="midnightblue" d="M401.619,-224.32C431.973,-187.949 487.264,-109.082 448,-56 421.318,-19.9277 366.289,-11.826 331.648,-10.5148"/>
<polygon fill="midnightblue" stroke="midnightblue" points="331.678,-7.01478 321.606,-10.3025 331.53,-14.0132 331.678,-7.01478"/>
</g>
<!-- Node3 -->
<g id="node3" class="node"><title>Node3</title>
<g id="a_node3"><a xlink:href="../../d7/df5/code__generator__interface_8h.html" target="_top" xlink:title="code_generator_interface.h">
<polygon fill="white" stroke="black" points="197,-112.5 197,-131.5 331,-131.5 331,-112.5 197,-112.5"/>
<text text-anchor="middle" x="264" y="-119.5" font-family="Helvetica,sans-Serif" font-size="10.00">code_generator_interface.h</text>
</a>
</g>
</g>
<!-- Node2&#45;&gt;Node3 -->
<g id="edge2" class="edge"><title>Node2&#45;&gt;Node3</title>
<path fill="none" stroke="midnightblue" d="M294.89,-168.083C289.718,-160.534 282.154,-149.495 275.806,-140.23"/>
<polygon fill="midnightblue" stroke="midnightblue" points="278.536,-138.022 269.996,-131.751 272.761,-141.979 278.536,-138.022"/>
</g>
<!-- Node4 -->
<g id="node4" class="node"><title>Node4</title>
<g id="a_node4"><a xlink:href="../../d9/d24/expression__node__interface_8h.html" target="_top" xlink:title="expression_node_interface.h">
<polygon fill="white" stroke="black" points="0,-56.5 0,-75.5 140,-75.5 140,-56.5 0,-56.5"/>
<text text-anchor="middle" x="70" y="-63.5" font-family="Helvetica,sans-Serif" font-size="10.00">expression_node_interface.h</text>
</a>
</g>
</g>
<!-- Node3&#45;&gt;Node4 -->
<g id="edge3" class="edge"><title>Node3&#45;&gt;Node4</title>
<path fill="none" stroke="midnightblue" d="M233.26,-112.444C200.056,-103.201 147.009,-88.4356 110.443,-78.2572"/>
<polygon fill="midnightblue" stroke="midnightblue" points="111.168,-74.8262 100.596,-75.5164 109.291,-81.5699 111.168,-74.8262"/>
</g>
<!-- Node6 -->
<g id="node6" class="node"><title>Node6</title>
<g id="a_node6"><a xlink:href="../../dd/d4b/statement__node__interface_8h.html" target="_top" xlink:title="statement_node_interface.h">
<polygon fill="white" stroke="black" points="158.5,-56.5 158.5,-75.5 295.5,-75.5 295.5,-56.5 158.5,-56.5"/>
<text text-anchor="middle" x="227" y="-63.5" font-family="Helvetica,sans-Serif" font-size="10.00">statement_node_interface.h</text>
</a>
</g>
</g>
<!-- Node3&#45;&gt;Node6 -->
<g id="edge5" class="edge"><title>Node3&#45;&gt;Node6</title>
<path fill="none" stroke="midnightblue" d="M257.89,-112.083C252.718,-104.534 245.154,-93.4948 238.806,-84.2298"/>
<polygon fill="midnightblue" stroke="midnightblue" points="241.536,-82.0221 232.996,-75.7511 235.761,-85.9787 241.536,-82.0221"/>
</g>
<!-- Node7 -->
<g id="node7" class="node"><title>Node7</title>
<g id="a_node7"><a xlink:href="../../df/d19/variable__node__interface_8h.html" target="_top" xlink:title="variable_node_interface.h">
<polygon fill="white" stroke="black" points="313.5,-56.5 313.5,-75.5 438.5,-75.5 438.5,-56.5 313.5,-56.5"/>
<text text-anchor="middle" x="376" y="-63.5" font-family="Helvetica,sans-Serif" font-size="10.00">variable_node_interface.h</text>
</a>
</g>
</g>
<!-- Node3&#45;&gt;Node7 -->
<g id="edge7" class="edge"><title>Node3&#45;&gt;Node7</title>
<path fill="none" stroke="midnightblue" d="M281.995,-112.324C300.038,-103.625 328.047,-90.1202 348.803,-80.113"/>
<polygon fill="midnightblue" stroke="midnightblue" points="350.562,-83.1502 358.05,-75.6545 347.522,-76.8449 350.562,-83.1502"/>
</g>
<!-- Node4&#45;&gt;Node5 -->
<g id="edge4" class="edge"><title>Node4&#45;&gt;Node5</title>
<path fill="none" stroke="midnightblue" d="M106.603,-56.4435C151.872,-45.861 228.117,-28.0375 270.415,-18.1498"/>
<polygon fill="midnightblue" stroke="midnightblue" points="271.456,-21.5007 280.397,-15.8162 269.863,-14.6845 271.456,-21.5007"/>
</g>
<!-- Node6&#45;&gt;Node5 -->
<g id="edge6" class="edge"><title>Node6&#45;&gt;Node5</title>
<path fill="none" stroke="midnightblue" d="M238.889,-56.324C250.15,-48.1066 267.287,-35.6017 280.709,-25.8069"/>
<polygon fill="midnightblue" stroke="midnightblue" points="282.88,-28.5559 288.894,-19.8339 278.753,-22.9014 282.88,-28.5559"/>
</g>
<!-- Node7&#45;&gt;Node5 -->
<g id="edge8" class="edge"><title>Node7&#45;&gt;Node5</title>
<path fill="none" stroke="midnightblue" d="M363.95,-56.324C352.537,-48.1066 335.169,-35.6017 321.565,-25.8069"/>
<polygon fill="midnightblue" stroke="midnightblue" points="323.43,-22.8366 313.269,-19.8339 319.34,-28.5174 323.43,-22.8366"/>
</g>
</g>
</svg>
