<?xml version="1.0" encoding="UTF-8" standalone="no"?>
<!DOCTYPE svg PUBLIC "-//W3C//DTD SVG 1.1//EN"
 "http://www.w3.org/Graphics/SVG/1.1/DTD/svg11.dtd">
<!-- Generated by graphviz version 2.38.0 (20140413.2041)
 -->
<!-- Title: operational::interpreter::NotExp::Copy Pages: 1 -->
<svg width="297pt" height="88pt"
 viewBox="0.00 0.00 297.00 88.00" xmlns="http://www.w3.org/2000/svg" xmlns:xlink="http://www.w3.org/1999/xlink">
<g id="graph0" class="graph" transform="scale(1 1) rotate(0) translate(4 84)">
<title>operational::interpreter::NotExp::Copy</title>
<polygon fill="white" stroke="none" points="-4,4 -4,-84 293,-84 293,4 -4,4"/>
<!-- Node1 -->
<g id="node1" class="node"><title>Node1</title>
<polygon fill="#bfbfbf" stroke="black" points="0,-24.5 0,-54.5 113,-54.5 113,-24.5 0,-24.5"/>
<text text-anchor="start" x="8" y="-42.5" font-family="Helvetica,sans-Serif" font-size="10.00">operational::interpreter</text>
<text text-anchor="middle" x="56.5" y="-31.5" font-family="Helvetica,sans-Serif" font-size="10.00">::NotExp::Copy</text>
</g>
<!-- Node2 -->
<g id="node2" class="node"><title>Node2</title>
<g id="a_node2"><a xlink:href="../../da/d2d/classoperational_1_1interpreter_1_1_not_exp.html#a55ca980fd109d5388a10dd08762d21c9" target="_top" xlink:title="operational::interpreter\l::NotExp::NotExp">
<polygon fill="white" stroke="black" points="162.5,-49.5 162.5,-79.5 275.5,-79.5 275.5,-49.5 162.5,-49.5"/>
<text text-anchor="start" x="170.5" y="-67.5" font-family="Helvetica,sans-Serif" font-size="10.00">operational::interpreter</text>
<text text-anchor="middle" x="219" y="-56.5" font-family="Helvetica,sans-Serif" font-size="10.00">::NotExp::NotExp</text>
</a>
</g>
</g>
<!-- Node1&#45;&gt;Node2 -->
<g id="edge1" class="edge"><title>Node1&#45;&gt;Node2</title>
<path fill="none" stroke="midnightblue" d="M113.185,-48.1736C125.758,-50.1321 139.222,-52.2294 152.169,-54.2459"/>
<polygon fill="midnightblue" stroke="midnightblue" points="151.994,-57.7609 162.414,-55.8417 153.072,-50.8443 151.994,-57.7609"/>
</g>
<!-- Node3 -->
<g id="node3" class="node"><title>Node3</title>
<g id="a_node3"><a xlink:href="../../d0/d5f/classoperational_1_1interpreter_1_1_boolean_exp_interface.html#a3f8f830cdb0e76c8a95b003dc0d57ac0" target="_top" xlink:title="operational::interpreter\l::BooleanExpInterface::Copy">
<polygon fill="white" stroke="black" points="149,-0.5 149,-30.5 289,-30.5 289,-0.5 149,-0.5"/>
<text text-anchor="start" x="157" y="-18.5" font-family="Helvetica,sans-Serif" font-size="10.00">operational::interpreter</text>
<text text-anchor="middle" x="219" y="-7.5" font-family="Helvetica,sans-Serif" font-size="10.00">::BooleanExpInterface::Copy</text>
</a>
</g>
</g>
<!-- Node1&#45;&gt;Node3 -->
<g id="edge2" class="edge"><title>Node1&#45;&gt;Node3</title>
<path fill="none" stroke="midnightblue" d="M113.185,-31.1733C121.449,-29.9375 130.098,-28.6442 138.733,-27.3531"/>
<polygon fill="midnightblue" stroke="midnightblue" points="139.465,-30.7826 148.837,-25.8421 138.43,-23.8595 139.465,-30.7826"/>
</g>
</g>
</svg>
