<?xml version="1.0" encoding="UTF-8" standalone="no"?>
<!DOCTYPE svg PUBLIC "-//W3C//DTD SVG 1.1//EN"
 "http://www.w3.org/Graphics/SVG/1.1/DTD/svg11.dtd">
<!-- Generated by graphviz version 2.38.0 (20140413.2041)
 -->
<!-- Title: src/structural/src/decorator/file_stream.h Pages: 1 -->
<svg width="270pt" height="117pt"
 viewBox="0.00 0.00 270.00 117.00" xmlns="http://www.w3.org/2000/svg" xmlns:xlink="http://www.w3.org/1999/xlink">
<g id="graph0" class="graph" transform="scale(1 1) rotate(0) translate(4 113)">
<title>src/structural/src/decorator/file_stream.h</title>
<polygon fill="white" stroke="none" points="-4,4 -4,-113 266,-113 266,4 -4,4"/>
<!-- Node1 -->
<g id="node1" class="node"><title>Node1</title>
<polygon fill="#bfbfbf" stroke="black" points="72.5,-78.5 72.5,-108.5 191.5,-108.5 191.5,-78.5 72.5,-78.5"/>
<text text-anchor="start" x="80.5" y="-96.5" font-family="Helvetica,sans-Serif" font-size="10.00">src/structural/src</text>
<text text-anchor="middle" x="132" y="-85.5" font-family="Helvetica,sans-Serif" font-size="10.00">/decorator/file_stream.h</text>
</g>
<!-- Node2 -->
<g id="node2" class="node"><title>Node2</title>
<g id="a_node2"><a xlink:href="../../d7/d9a/file__stream_8cc.html" target="_top" xlink:title="src/structural/src\l/decorator/file_stream.cc">
<polygon fill="white" stroke="black" points="0,-6 0,-36 124,-36 124,-6 0,-6"/>
<text text-anchor="start" x="8" y="-24" font-family="Helvetica,sans-Serif" font-size="10.00">src/structural/src</text>
<text text-anchor="middle" x="62" y="-13" font-family="Helvetica,sans-Serif" font-size="10.00">/decorator/file_stream.cc</text>
</a>
</g>
</g>
<!-- Node1&#45;&gt;Node2 -->
<g id="edge1" class="edge"><title>Node1&#45;&gt;Node2</title>
<path fill="none" stroke="midnightblue" d="M110.518,-70.8641C99.3475,-59.6142 86.0071,-46.1786 76.1445,-36.2455"/>
<polygon fill="midnightblue" stroke="midnightblue" points="108.305,-73.6031 117.834,-78.2333 113.272,-68.671 108.305,-73.6031"/>
</g>
<!-- Node3 -->
<g id="node3" class="node"><title>Node3</title>
<g id="a_node3"><a xlink:href="../../d6/d1f/decorator__test_8cc.html" target="_top" xlink:title="src/structural_tests\l/src/decorator/decorator\l_test.cc">
<polygon fill="white" stroke="black" points="142,-0.5 142,-41.5 262,-41.5 262,-0.5 142,-0.5"/>
<text text-anchor="start" x="150" y="-29.5" font-family="Helvetica,sans-Serif" font-size="10.00">src/structural_tests</text>
<text text-anchor="start" x="150" y="-18.5" font-family="Helvetica,sans-Serif" font-size="10.00">/src/decorator/decorator</text>
<text text-anchor="middle" x="202" y="-7.5" font-family="Helvetica,sans-Serif" font-size="10.00">_test.cc</text>
</a>
</g>
</g>
<!-- Node1&#45;&gt;Node3 -->
<g id="edge2" class="edge"><title>Node1&#45;&gt;Node3</title>
<path fill="none" stroke="midnightblue" d="M153.248,-71.1007C162.571,-61.7107 173.442,-50.7615 182.55,-41.5884"/>
<polygon fill="midnightblue" stroke="midnightblue" points="150.728,-68.671 146.166,-78.2333 155.695,-73.6031 150.728,-68.671"/>
</g>
</g>
</svg>
