<?xml version="1.0" encoding="UTF-8" standalone="no"?>
<!DOCTYPE svg PUBLIC "-//W3C//DTD SVG 1.1//EN"
 "http://www.w3.org/Graphics/SVG/1.1/DTD/svg11.dtd">
<!-- Generated by graphviz version 2.38.0 (20140413.2041)
 -->
<!-- Title: src/operational/src/iterator/list_traverser.h Pages: 1 -->
<svg width="269pt" height="184pt"
 viewBox="0.00 0.00 268.50 184.00" xmlns="http://www.w3.org/2000/svg" xmlns:xlink="http://www.w3.org/1999/xlink">
<g id="graph0" class="graph" transform="scale(1 1) rotate(0) translate(4 180)">
<title>src/operational/src/iterator/list_traverser.h</title>
<polygon fill="white" stroke="none" points="-4,4 -4,-180 264.5,-180 264.5,4 -4,4"/>
<!-- Node1 -->
<g id="node1" class="node"><title>Node1</title>
<polygon fill="#bfbfbf" stroke="black" points="59.5,-145.5 59.5,-175.5 175.5,-175.5 175.5,-145.5 59.5,-145.5"/>
<text text-anchor="start" x="67.5" y="-163.5" font-family="Helvetica,sans-Serif" font-size="10.00">src/operational/src</text>
<text text-anchor="middle" x="117.5" y="-152.5" font-family="Helvetica,sans-Serif" font-size="10.00">/iterator/list_traverser.h</text>
</g>
<!-- Node2 -->
<g id="node2" class="node"><title>Node2</title>
<g id="a_node2"><a xlink:href="../../de/d1c/filtering__list__traverser_8h.html" target="_top" xlink:title="src/operational/src\l/iterator/filtering\l_list_traverser.h">
<polygon fill="white" stroke="black" points="0,-67.5 0,-108.5 97,-108.5 97,-67.5 0,-67.5"/>
<text text-anchor="start" x="8" y="-96.5" font-family="Helvetica,sans-Serif" font-size="10.00">src/operational/src</text>
<text text-anchor="start" x="8" y="-85.5" font-family="Helvetica,sans-Serif" font-size="10.00">/iterator/filtering</text>
<text text-anchor="middle" x="48.5" y="-74.5" font-family="Helvetica,sans-Serif" font-size="10.00">_list_traverser.h</text>
</a>
</g>
</g>
<!-- Node1&#45;&gt;Node2 -->
<g id="edge1" class="edge"><title>Node1&#45;&gt;Node2</title>
<path fill="none" stroke="midnightblue" d="M96.2826,-137.821C87.1538,-128.494 76.5607,-117.671 67.6717,-108.588"/>
<polygon fill="midnightblue" stroke="midnightblue" points="94.0408,-140.535 103.537,-145.233 99.0435,-135.638 94.0408,-140.535"/>
</g>
<!-- Node3 -->
<g id="node3" class="node"><title>Node3</title>
<g id="a_node3"><a xlink:href="../../d1/dfc/print__n__employees_8h.html" target="_top" xlink:title="src/operational/src\l/iterator/print_n_employees.h">
<polygon fill="white" stroke="black" points="115,-73 115,-103 258,-103 258,-73 115,-73"/>
<text text-anchor="start" x="123" y="-91" font-family="Helvetica,sans-Serif" font-size="10.00">src/operational/src</text>
<text text-anchor="middle" x="186.5" y="-80" font-family="Helvetica,sans-Serif" font-size="10.00">/iterator/print_n_employees.h</text>
</a>
</g>
</g>
<!-- Node1&#45;&gt;Node3 -->
<g id="edge2" class="edge"><title>Node1&#45;&gt;Node3</title>
<path fill="none" stroke="midnightblue" d="M138.676,-137.864C149.686,-126.614 162.836,-113.179 172.558,-103.246"/>
<polygon fill="midnightblue" stroke="midnightblue" points="135.956,-135.638 131.463,-145.233 140.959,-140.535 135.956,-135.638"/>
</g>
<!-- Node4 -->
<g id="node4" class="node"><title>Node4</title>
<g id="a_node4"><a xlink:href="../../d3/dda/print__n__employees_8cc.html" target="_top" xlink:title="src/operational/src\l/iterator/print_n_employees.cc">
<polygon fill="white" stroke="black" points="112.5,-0.5 112.5,-30.5 260.5,-30.5 260.5,-0.5 112.5,-0.5"/>
<text text-anchor="start" x="120.5" y="-18.5" font-family="Helvetica,sans-Serif" font-size="10.00">src/operational/src</text>
<text text-anchor="middle" x="186.5" y="-7.5" font-family="Helvetica,sans-Serif" font-size="10.00">/iterator/print_n_employees.cc</text>
</a>
</g>
</g>
<!-- Node3&#45;&gt;Node4 -->
<g id="edge3" class="edge"><title>Node3&#45;&gt;Node4</title>
<path fill="none" stroke="midnightblue" d="M186.5,-62.7317C186.5,-52.0679 186.5,-39.9145 186.5,-30.7455"/>
<polygon fill="midnightblue" stroke="midnightblue" points="183,-62.7332 186.5,-72.7333 190,-62.7333 183,-62.7332"/>
</g>
</g>
</svg>
