<?xml version="1.0" encoding="UTF-8" standalone="no"?>
<!DOCTYPE svg PUBLIC "-//W3C//DTD SVG 1.1//EN"
 "http://www.w3.org/Graphics/SVG/1.1/DTD/svg11.dtd">
<!-- Generated by graphviz version 2.38.0 (20140413.2041)
 -->
<!-- Title: operational::chain::HelpHandlerInterface::HandleHelp Pages: 1 -->
<svg width="425pt" height="112pt"
 viewBox="0.00 0.00 425.00 112.00" xmlns="http://www.w3.org/2000/svg" xmlns:xlink="http://www.w3.org/1999/xlink">
<g id="graph0" class="graph" transform="scale(1 1) rotate(0) translate(4 108)">
<title>operational::chain::HelpHandlerInterface::HandleHelp</title>
<polygon fill="white" stroke="none" points="-4,4 -4,-108 421,-108 421,4 -4,4"/>
<!-- Node1 -->
<g id="node1" class="node"><title>Node1</title>
<polygon fill="#bfbfbf" stroke="black" points="0,-43 0,-84 112,-84 112,-43 0,-43"/>
<text text-anchor="start" x="8" y="-72" font-family="Helvetica,sans-Serif" font-size="10.00">operational::chain</text>
<text text-anchor="start" x="8" y="-61" font-family="Helvetica,sans-Serif" font-size="10.00">::HelpHandlerInterface</text>
<text text-anchor="middle" x="56" y="-50" font-family="Helvetica,sans-Serif" font-size="10.00">::HandleHelp</text>
</g>
<!-- Node2 -->
<g id="node2" class="node"><title>Node2</title>
<g id="a_node2"><a xlink:href="../../dc/d00/classoperational_1_1chain_1_1_application.html#a97282d6aa7cf575530e83adf48164a10" target="_top" xlink:title="operational::chain\l::Application::HandleHelp">
<polygon fill="white" stroke="black" points="148,-73.5 148,-103.5 274,-103.5 274,-73.5 148,-73.5"/>
<text text-anchor="start" x="156" y="-91.5" font-family="Helvetica,sans-Serif" font-size="10.00">operational::chain</text>
<text text-anchor="middle" x="211" y="-80.5" font-family="Helvetica,sans-Serif" font-size="10.00">::Application::HandleHelp</text>
</a>
</g>
</g>
<!-- Node1&#45;&gt;Node2 -->
<g id="edge1" class="edge"><title>Node1&#45;&gt;Node2</title>
<path fill="none" stroke="midnightblue" d="M122.127,-74.1417C130.65,-75.5343 139.366,-76.9584 147.838,-78.3428"/>
<polygon fill="midnightblue" stroke="midnightblue" points="122.67,-70.6841 112.237,-72.5256 121.541,-77.5925 122.67,-70.6841"/>
</g>
<!-- Node3 -->
<g id="node3" class="node"><title>Node3</title>
<g id="a_node3"><a xlink:href="../../df/d6a/classoperational_1_1chain_1_1_widget.html#a787c0fbd6eccaa5063b22d9716220ad7" target="_top" xlink:title="operational::chain\l::Widget::HandleHelp">
<polygon fill="white" stroke="black" points="156.5,-24.5 156.5,-54.5 265.5,-54.5 265.5,-24.5 156.5,-24.5"/>
<text text-anchor="start" x="164.5" y="-42.5" font-family="Helvetica,sans-Serif" font-size="10.00">operational::chain</text>
<text text-anchor="middle" x="211" y="-31.5" font-family="Helvetica,sans-Serif" font-size="10.00">::Widget::HandleHelp</text>
</a>
</g>
</g>
<!-- Node1&#45;&gt;Node3 -->
<g id="edge2" class="edge"><title>Node1&#45;&gt;Node3</title>
<path fill="none" stroke="midnightblue" d="M122.152,-53.2801C133.566,-51.4897 145.324,-49.6452 156.381,-47.9109"/>
<polygon fill="midnightblue" stroke="midnightblue" points="121.573,-49.828 112.237,-54.8354 122.658,-56.7434 121.573,-49.828"/>
</g>
<!-- Node4 -->
<g id="node4" class="node"><title>Node4</title>
<g id="a_node4"><a xlink:href="../../d1/d32/classoperational_1_1chain_1_1_button.html#a9f9b4f4bf0ae2106e31547acb1e90f17" target="_top" xlink:title="operational::chain\l::Button::HandleHelp">
<polygon fill="white" stroke="black" points="310,-49.5 310,-79.5 417,-79.5 417,-49.5 310,-49.5"/>
<text text-anchor="start" x="318" y="-67.5" font-family="Helvetica,sans-Serif" font-size="10.00">operational::chain</text>
<text text-anchor="middle" x="363.5" y="-56.5" font-family="Helvetica,sans-Serif" font-size="10.00">::Button::HandleHelp</text>
</a>
</g>
</g>
<!-- Node3&#45;&gt;Node4 -->
<g id="edge3" class="edge"><title>Node3&#45;&gt;Node4</title>
<path fill="none" stroke="midnightblue" d="M275.801,-50.0982C287.194,-51.9906 298.944,-53.9426 309.976,-55.7751"/>
<polygon fill="midnightblue" stroke="midnightblue" points="276.347,-46.641 265.909,-48.455 275.2,-53.5464 276.347,-46.641"/>
</g>
<!-- Node5 -->
<g id="node5" class="node"><title>Node5</title>
<g id="a_node5"><a xlink:href="../../dd/df0/classoperational_1_1chain_1_1_dialog.html#a3bc7ea13d7c585300c137c28549c2987" target="_top" xlink:title="operational::chain\l::Dialog::HandleHelp">
<polygon fill="white" stroke="black" points="311,-0.5 311,-30.5 416,-30.5 416,-0.5 311,-0.5"/>
<text text-anchor="start" x="319" y="-18.5" font-family="Helvetica,sans-Serif" font-size="10.00">operational::chain</text>
<text text-anchor="middle" x="363.5" y="-7.5" font-family="Helvetica,sans-Serif" font-size="10.00">::Dialog::HandleHelp</text>
</a>
</g>
</g>
<!-- Node3&#45;&gt;Node5 -->
<g id="edge4" class="edge"><title>Node3&#45;&gt;Node5</title>
<path fill="none" stroke="midnightblue" d="M276.037,-29.2882C287.702,-27.4279 299.736,-25.509 310.981,-23.7156"/>
<polygon fill="midnightblue" stroke="midnightblue" points="275.233,-25.872 265.909,-30.9032 276.335,-32.7847 275.233,-25.872"/>
</g>
</g>
</svg>
