<?xml version="1.0" encoding="UTF-8" standalone="no"?>
<!DOCTYPE svg PUBLIC "-//W3C//DTD SVG 1.1//EN"
 "http://www.w3.org/Graphics/SVG/1.1/DTD/svg11.dtd">
<!-- Generated by graphviz version 2.38.0 (20140413.2041)
 -->
<!-- Title: src/operational/src/visitor/card.cc Pages: 1 -->
<svg width="449pt" height="263pt"
 viewBox="0.00 0.00 449.00 263.00" xmlns="http://www.w3.org/2000/svg" xmlns:xlink="http://www.w3.org/1999/xlink">
<g id="graph0" class="graph" transform="scale(1 1) rotate(0) translate(4 259)">
<title>src/operational/src/visitor/card.cc</title>
<polygon fill="white" stroke="none" points="-4,4 -4,-259 445,-259 445,4 -4,4"/>
<!-- Node1 -->
<g id="node1" class="node"><title>Node1</title>
<polygon fill="#bfbfbf" stroke="black" points="299.5,-224.5 299.5,-254.5 396.5,-254.5 396.5,-224.5 299.5,-224.5"/>
<text text-anchor="start" x="307.5" y="-242.5" font-family="Helvetica,sans-Serif" font-size="10.00">src/operational/src</text>
<text text-anchor="middle" x="348" y="-231.5" font-family="Helvetica,sans-Serif" font-size="10.00">/visitor/card.cc</text>
</g>
<!-- Node2 -->
<g id="node2" class="node"><title>Node2</title>
<g id="a_node2"><a xlink:href="../../d8/d35/operational_2src_2visitor_2card_8h.html" target="_top" xlink:title="card.h">
<polygon fill="white" stroke="black" points="326,-168.5 326,-187.5 370,-187.5 370,-168.5 326,-168.5"/>
<text text-anchor="middle" x="348" y="-175.5" font-family="Helvetica,sans-Serif" font-size="10.00">card.h</text>
</a>
</g>
</g>
<!-- Node1&#45;&gt;Node2 -->
<g id="edge1" class="edge"><title>Node1&#45;&gt;Node2</title>
<path fill="none" stroke="midnightblue" d="M348,-224.399C348,-216.466 348,-206.458 348,-197.858"/>
<polygon fill="midnightblue" stroke="midnightblue" points="351.5,-197.658 348,-187.658 344.5,-197.658 351.5,-197.658"/>
</g>
<!-- Node3 -->
<g id="node3" class="node"><title>Node3</title>
<g id="a_node3"><a xlink:href="../../d8/d3b/visited__equipment__interface_8h.html" target="_top" xlink:title="visited_equipment_interface.h">
<polygon fill="white" stroke="black" points="226,-112.5 226,-131.5 370,-131.5 370,-112.5 226,-112.5"/>
<text text-anchor="middle" x="298" y="-119.5" font-family="Helvetica,sans-Serif" font-size="10.00">visited_equipment_interface.h</text>
</a>
</g>
</g>
<!-- Node2&#45;&gt;Node3 -->
<g id="edge2" class="edge"><title>Node2&#45;&gt;Node3</title>
<path fill="none" stroke="midnightblue" d="M339.744,-168.083C332.535,-160.298 321.89,-148.801 313.154,-139.367"/>
<polygon fill="midnightblue" stroke="midnightblue" points="315.465,-136.711 306.103,-131.751 310.329,-141.467 315.465,-136.711"/>
</g>
<!-- Node6 -->
<g id="node6" class="node"><title>Node6</title>
<g id="a_node6"><a xlink:href="../../d1/d04/card__interface_8h.html" target="_top" xlink:title="card_interface.h">
<polygon fill="white" stroke="black" points="355,-0.5 355,-19.5 441,-19.5 441,-0.5 355,-0.5"/>
<text text-anchor="middle" x="398" y="-7.5" font-family="Helvetica,sans-Serif" font-size="10.00">card_interface.h</text>
</a>
</g>
</g>
<!-- Node2&#45;&gt;Node6 -->
<g id="edge9" class="edge"><title>Node2&#45;&gt;Node6</title>
<path fill="none" stroke="midnightblue" d="M355.709,-168.386C362.94,-159.801 373.447,-145.923 379,-132 392.737,-97.5569 396.575,-53.8926 397.626,-29.5518"/>
<polygon fill="midnightblue" stroke="midnightblue" points="401.125,-29.6608 397.944,-19.5545 394.128,-29.4381 401.125,-29.6608"/>
</g>
<!-- Node4 -->
<g id="node4" class="node"><title>Node4</title>
<g id="a_node4"><a xlink:href="../../d2/d43/equipment__visitor__interface_8h.html" target="_top" xlink:title="equipment_visitor_interface.h">
<polygon fill="white" stroke="black" points="142,-56.5 142,-75.5 284,-75.5 284,-56.5 142,-56.5"/>
<text text-anchor="middle" x="213" y="-63.5" font-family="Helvetica,sans-Serif" font-size="10.00">equipment_visitor_interface.h</text>
</a>
</g>
</g>
<!-- Node3&#45;&gt;Node4 -->
<g id="edge3" class="edge"><title>Node3&#45;&gt;Node4</title>
<path fill="none" stroke="midnightblue" d="M284.343,-112.324C271.084,-103.9 250.732,-90.9709 235.154,-81.0741"/>
<polygon fill="midnightblue" stroke="midnightblue" points="236.94,-78.0626 226.623,-75.6545 233.187,-83.9711 236.94,-78.0626"/>
</g>
<!-- Node9 -->
<g id="node9" class="node"><title>Node9</title>
<polygon fill="white" stroke="#bfbfbf" points="302.5,-56.5 302.5,-75.5 343.5,-75.5 343.5,-56.5 302.5,-56.5"/>
<text text-anchor="middle" x="323" y="-63.5" font-family="Helvetica,sans-Serif" font-size="10.00">string</text>
</g>
<!-- Node3&#45;&gt;Node9 -->
<g id="edge8" class="edge"><title>Node3&#45;&gt;Node9</title>
<path fill="none" stroke="midnightblue" d="M302.128,-112.083C305.514,-104.77 310.416,-94.1814 314.619,-85.1034"/>
<polygon fill="midnightblue" stroke="midnightblue" points="317.923,-86.2962 318.949,-75.7511 311.571,-83.3553 317.923,-86.2962"/>
</g>
<!-- Node5 -->
<g id="node5" class="node"><title>Node5</title>
<g id="a_node5"><a xlink:href="../../d0/db8/floppy__disk__interface_8h.html" target="_top" xlink:title="floppy_disk_interface.h">
<polygon fill="white" stroke="black" points="0,-0.5 0,-19.5 116,-19.5 116,-0.5 0,-0.5"/>
<text text-anchor="middle" x="58" y="-7.5" font-family="Helvetica,sans-Serif" font-size="10.00">floppy_disk_interface.h</text>
</a>
</g>
</g>
<!-- Node4&#45;&gt;Node5 -->
<g id="edge4" class="edge"><title>Node4&#45;&gt;Node5</title>
<path fill="none" stroke="midnightblue" d="M188.44,-56.4435C162.477,-47.3986 121.332,-33.064 92.2029,-22.9158"/>
<polygon fill="midnightblue" stroke="midnightblue" points="93.0401,-19.5013 82.4453,-19.5164 90.7371,-26.1116 93.0401,-19.5013"/>
</g>
<!-- Node4&#45;&gt;Node6 -->
<g id="edge5" class="edge"><title>Node4&#45;&gt;Node6</title>
<path fill="none" stroke="midnightblue" d="M242.314,-56.4435C273.842,-47.2406 324.131,-32.5617 358.986,-22.3879"/>
<polygon fill="midnightblue" stroke="midnightblue" points="360.205,-25.6783 368.823,-19.5164 358.243,-18.9587 360.205,-25.6783"/>
</g>
<!-- Node7 -->
<g id="node7" class="node"><title>Node7</title>
<g id="a_node7"><a xlink:href="../../d4/d2b/chassis__interface_8h.html" target="_top" xlink:title="chassis_interface.h">
<polygon fill="white" stroke="black" points="134.5,-0.5 134.5,-19.5 235.5,-19.5 235.5,-0.5 134.5,-0.5"/>
<text text-anchor="middle" x="185" y="-7.5" font-family="Helvetica,sans-Serif" font-size="10.00">chassis_interface.h</text>
</a>
</g>
</g>
<!-- Node4&#45;&gt;Node7 -->
<g id="edge6" class="edge"><title>Node4&#45;&gt;Node7</title>
<path fill="none" stroke="midnightblue" d="M208.376,-56.083C204.544,-48.6913 198.976,-37.9533 194.235,-28.8111"/>
<polygon fill="midnightblue" stroke="midnightblue" points="197.248,-27.0175 189.538,-19.7511 191.034,-30.2398 197.248,-27.0175"/>
</g>
<!-- Node8 -->
<g id="node8" class="node"><title>Node8</title>
<g id="a_node8"><a xlink:href="../../db/d88/bus__interface_8h.html" target="_top" xlink:title="bus_interface.h">
<polygon fill="white" stroke="black" points="253.5,-0.5 253.5,-19.5 336.5,-19.5 336.5,-0.5 253.5,-0.5"/>
<text text-anchor="middle" x="295" y="-7.5" font-family="Helvetica,sans-Serif" font-size="10.00">bus_interface.h</text>
</a>
</g>
</g>
<!-- Node4&#45;&gt;Node8 -->
<g id="edge7" class="edge"><title>Node4&#45;&gt;Node8</title>
<path fill="none" stroke="midnightblue" d="M226.175,-56.324C238.847,-47.979 258.233,-35.2122 273.206,-25.3524"/>
<polygon fill="midnightblue" stroke="midnightblue" points="275.431,-28.0776 281.858,-19.6545 271.581,-22.2313 275.431,-28.0776"/>
</g>
</g>
</svg>
