<?xml version="1.0" encoding="UTF-8" standalone="no"?>
<!DOCTYPE svg PUBLIC "-//W3C//DTD SVG 1.1//EN"
 "http://www.w3.org/Graphics/SVG/1.1/DTD/svg11.dtd">
<!-- Generated by graphviz version 2.38.0 (20140413.2041)
 -->
<!-- Title: src/operational/src/interpreter/interpreter_context_interface.h Pages: 1 -->
<!--zoomable 284 -->
<svg id="main" version="1.1" xmlns="http://www.w3.org/2000/svg" xmlns:xlink="http://www.w3.org/1999/xlink" xml:space="preserve" onload="init(evt)">
<style type="text/css"><![CDATA[
.edge:hover path { stroke: red; }
.edge:hover polygon { stroke: red; fill: red; }
]]></style>
<script type="text/javascript"><![CDATA[
var edges = document.getElementsByTagName('g');
if (edges && edges.length) {
  for (var i=0;i<edges.length;i++) {
    if (edges[i].id.substr(0,4)=='edge') {
      edges[i].setAttribute('class','edge');
    }
  }
}
]]></script>
        <defs>
                <circle id="rim" cx="0" cy="0" r="7"/>
                <circle id="rim2" cx="0" cy="0" r="3.5"/>
                <g id="zoomPlus">
                        <use xlink:href="#rim" fill="#404040">
                                <set attributeName="fill" to="#808080" begin="zoomplus.mouseover" end="zoomplus.mouseout"/>
                        </use>
                        <path d="M-4,0h8M0,-4v8" fill="none" stroke="white" stroke-width="1.5" pointer-events="none"/>
                </g>
                <g id="zoomMin">
                        <use xlink:href="#rim" fill="#404040">
                                <set attributeName="fill" to="#808080" begin="zoomminus.mouseover" end="zoomminus.mouseout"/>
                        </use>
                        <path d="M-4,0h8" fill="none" stroke="white" stroke-width="1.5" pointer-events="none"/>
                </g>
                <g id="dirArrow">
                        <path fill="none" stroke="white" stroke-width="1.5" d="M0,-3.0v7 M-2.5,-0.5L0,-3.0L2.5,-0.5"/>
                </g>
               <g id="resetDef">
                       <use xlink:href="#rim2" fill="#404040">
                               <set attributeName="fill" to="#808080" begin="reset.mouseover" end="reset.mouseout"/>
                       </use>
               </g>
        </defs>

<script type="text/javascript">
var viewWidth = 891;
var viewHeight = 284;
var sectionId = 'dynsection-1';
</script>
<script xlink:href="../../svgpan.js"/>
<svg id="graph" class="graph">
<g id="viewport">
<title>src/operational/src/interpreter/interpreter_context_interface.h</title>
<polygon fill="white" stroke="none" points="-4,4 -4,-280 886.5,-280 886.5,4 -4,4"/>
<!-- Node1 -->
<g id="node1" class="node"><title>Node1</title>
<polygon fill="#bfbfbf" stroke="black" points="532.5,-234.5 532.5,-275.5 642.5,-275.5 642.5,-234.5 532.5,-234.5"/>
<text text-anchor="start" x="540.5" y="-263.5" font-family="Helvetica,sans-Serif" font-size="10.00">src/operational/src</text>
<text text-anchor="start" x="540.5" y="-252.5" font-family="Helvetica,sans-Serif" font-size="10.00">/interpreter/interpreter</text>
<text text-anchor="middle" x="587.5" y="-241.5" font-family="Helvetica,sans-Serif" font-size="10.00">_context_interface.h</text>
</g>
<!-- Node2 -->
<g id="node2" class="node"><title>Node2</title>
<g id="a_node2"><a xlink:href="../../df/de3/boolean__exp__interface_8h.html" target="_top" xlink:title="src/operational/src\l/interpreter/boolean\l_exp_interface.h">
<polygon fill="white" stroke="black" points="380.5,-156.5 380.5,-197.5 480.5,-197.5 480.5,-156.5 380.5,-156.5"/>
<text text-anchor="start" x="388.5" y="-185.5" font-family="Helvetica,sans-Serif" font-size="10.00">src/operational/src</text>
<text text-anchor="start" x="388.5" y="-174.5" font-family="Helvetica,sans-Serif" font-size="10.00">/interpreter/boolean</text>
<text text-anchor="middle" x="430.5" y="-163.5" font-family="Helvetica,sans-Serif" font-size="10.00">_exp_interface.h</text>
</a>
</g>
</g>
<!-- Node1&#45;&gt;Node2 -->
<g id="edge1" class="edge"><title>Node1&#45;&gt;Node2</title>
<path fill="none" stroke="midnightblue" d="M538.022,-230.049C516.368,-219.566 491.285,-207.424 470.794,-197.506"/>
<polygon fill="midnightblue" stroke="midnightblue" points="536.543,-233.221 547.069,-234.428 539.593,-226.921 536.543,-233.221"/>
</g>
<!-- Node14 -->
<g id="node14" class="node"><title>Node14</title>
<g id="a_node14"><a xlink:href="../../d9/d24/interpreter__context_8h.html" target="_top" xlink:title="src/operational/src\l/interpreter/interpreter\l_context.h">
<polygon fill="white" stroke="black" points="689.5,-156.5 689.5,-197.5 799.5,-197.5 799.5,-156.5 689.5,-156.5"/>
<text text-anchor="start" x="697.5" y="-185.5" font-family="Helvetica,sans-Serif" font-size="10.00">src/operational/src</text>
<text text-anchor="start" x="697.5" y="-174.5" font-family="Helvetica,sans-Serif" font-size="10.00">/interpreter/interpreter</text>
<text text-anchor="middle" x="744.5" y="-163.5" font-family="Helvetica,sans-Serif" font-size="10.00">_context.h</text>
</a>
</g>
</g>
<!-- Node1&#45;&gt;Node14 -->
<g id="edge18" class="edge"><title>Node1&#45;&gt;Node14</title>
<path fill="none" stroke="midnightblue" d="M636.978,-230.049C658.632,-219.566 683.715,-207.424 704.206,-197.506"/>
<polygon fill="midnightblue" stroke="midnightblue" points="635.407,-226.921 627.931,-234.428 638.457,-233.221 635.407,-226.921"/>
</g>
<!-- Node3 -->
<g id="node3" class="node"><title>Node3</title>
<g id="a_node3"><a xlink:href="../../d0/d2a/and__exp_8h.html" target="_top" xlink:title="src/operational/src\l/interpreter/and_exp.h">
<polygon fill="white" stroke="black" points="605,-84 605,-114 716,-114 716,-84 605,-84"/>
<text text-anchor="start" x="613" y="-102" font-family="Helvetica,sans-Serif" font-size="10.00">src/operational/src</text>
<text text-anchor="middle" x="660.5" y="-91" font-family="Helvetica,sans-Serif" font-size="10.00">/interpreter/and_exp.h</text>
</a>
</g>
</g>
<!-- Node2&#45;&gt;Node3 -->
<g id="edge2" class="edge"><title>Node2&#45;&gt;Node3</title>
<path fill="none" stroke="midnightblue" d="M490.354,-156.222C530.451,-142.973 582.266,-125.851 618.129,-114.001"/>
<polygon fill="midnightblue" stroke="midnightblue" points="489.087,-152.955 480.69,-159.415 491.283,-159.601 489.087,-152.955"/>
</g>
<!-- Node5 -->
<g id="node5" class="node"><title>Node5</title>
<g id="a_node5"><a xlink:href="../../de/d72/interpreter__test_8cc.html" target="_top" xlink:title="src/operational_tests\l/src/interpreter/interpreter\l_test.cc">
<polygon fill="white" stroke="black" points="395.5,-0.5 395.5,-41.5 521.5,-41.5 521.5,-0.5 395.5,-0.5"/>
<text text-anchor="start" x="403.5" y="-29.5" font-family="Helvetica,sans-Serif" font-size="10.00">src/operational_tests</text>
<text text-anchor="start" x="403.5" y="-18.5" font-family="Helvetica,sans-Serif" font-size="10.00">/src/interpreter/interpreter</text>
<text text-anchor="middle" x="458.5" y="-7.5" font-family="Helvetica,sans-Serif" font-size="10.00">_test.cc</text>
</a>
</g>
</g>
<!-- Node2&#45;&gt;Node5 -->
<g id="edge17" class="edge"><title>Node2&#45;&gt;Node5</title>
<path fill="none" stroke="midnightblue" d="M435.888,-146.365C441.481,-115.606 450.071,-68.3579 454.894,-41.8323"/>
<polygon fill="midnightblue" stroke="midnightblue" points="432.392,-146.031 434.046,-156.496 439.279,-147.283 432.392,-146.031"/>
</g>
<!-- Node6 -->
<g id="node6" class="node"><title>Node6</title>
<g id="a_node6"><a xlink:href="../../dd/d17/constant_8h.html" target="_top" xlink:title="src/operational/src\l/interpreter/constant.h">
<polygon fill="white" stroke="black" points="40.5,-84 40.5,-114 152.5,-114 152.5,-84 40.5,-84"/>
<text text-anchor="start" x="48.5" y="-102" font-family="Helvetica,sans-Serif" font-size="10.00">src/operational/src</text>
<text text-anchor="middle" x="96.5" y="-91" font-family="Helvetica,sans-Serif" font-size="10.00">/interpreter/constant.h</text>
</a>
</g>
</g>
<!-- Node2&#45;&gt;Node6 -->
<g id="edge5" class="edge"><title>Node2&#45;&gt;Node6</title>
<path fill="none" stroke="midnightblue" d="M370.214,-165.117C315.452,-154.837 232.607,-138.299 161.5,-120 154.525,-118.205 147.184,-116.13 140.046,-114.01"/>
<polygon fill="midnightblue" stroke="midnightblue" points="369.631,-168.569 380.104,-166.963 370.916,-161.688 369.631,-168.569"/>
</g>
<!-- Node8 -->
<g id="node8" class="node"><title>Node8</title>
<g id="a_node8"><a xlink:href="../../da/de4/not__exp_8h.html" target="_top" xlink:title="src/operational/src\l/interpreter/not_exp.h">
<polygon fill="white" stroke="black" points="171,-84 171,-114 280,-114 280,-84 171,-84"/>
<text text-anchor="start" x="179" y="-102" font-family="Helvetica,sans-Serif" font-size="10.00">src/operational/src</text>
<text text-anchor="middle" x="225.5" y="-91" font-family="Helvetica,sans-Serif" font-size="10.00">/interpreter/not_exp.h</text>
</a>
</g>
</g>
<!-- Node2&#45;&gt;Node8 -->
<g id="edge8" class="edge"><title>Node2&#45;&gt;Node8</title>
<path fill="none" stroke="midnightblue" d="M370.817,-153.874C336.205,-141.042 293.653,-125.267 263.564,-114.111"/>
<polygon fill="midnightblue" stroke="midnightblue" points="369.758,-157.214 380.351,-157.408 372.192,-150.65 369.758,-157.214"/>
</g>
<!-- Node10 -->
<g id="node10" class="node"><title>Node10</title>
<g id="a_node10"><a xlink:href="../../da/d46/or__exp_8h.html" target="_top" xlink:title="src/operational/src\l/interpreter/or_exp.h">
<polygon fill="white" stroke="black" points="298.5,-84 298.5,-114 402.5,-114 402.5,-84 298.5,-84"/>
<text text-anchor="start" x="306.5" y="-102" font-family="Helvetica,sans-Serif" font-size="10.00">src/operational/src</text>
<text text-anchor="middle" x="350.5" y="-91" font-family="Helvetica,sans-Serif" font-size="10.00">/interpreter/or_exp.h</text>
</a>
</g>
</g>
<!-- Node2&#45;&gt;Node10 -->
<g id="edge11" class="edge"><title>Node2&#45;&gt;Node10</title>
<path fill="none" stroke="midnightblue" d="M402.42,-149.324C389.982,-137.508 375.85,-124.083 365.474,-114.225"/>
<polygon fill="midnightblue" stroke="midnightblue" points="400.237,-152.078 409.898,-156.428 405.059,-147.003 400.237,-152.078"/>
</g>
<!-- Node12 -->
<g id="node12" class="node"><title>Node12</title>
<g id="a_node12"><a xlink:href="../../de/d5a/variable__exp_8h.html" target="_top" xlink:title="src/operational/src\l/interpreter/variable_exp.h">
<polygon fill="white" stroke="black" points="458.5,-84 458.5,-114 586.5,-114 586.5,-84 458.5,-84"/>
<text text-anchor="start" x="466.5" y="-102" font-family="Helvetica,sans-Serif" font-size="10.00">src/operational/src</text>
<text text-anchor="middle" x="522.5" y="-91" font-family="Helvetica,sans-Serif" font-size="10.00">/interpreter/variable_exp.h</text>
</a>
</g>
</g>
<!-- Node2&#45;&gt;Node12 -->
<g id="edge14" class="edge"><title>Node2&#45;&gt;Node12</title>
<path fill="none" stroke="midnightblue" d="M461.984,-149.992C476.481,-138.015 493.122,-124.269 505.28,-114.225"/>
<polygon fill="midnightblue" stroke="midnightblue" points="459.673,-147.361 454.192,-156.428 464.131,-152.758 459.673,-147.361"/>
</g>
<!-- Node4 -->
<g id="node4" class="node"><title>Node4</title>
<g id="a_node4"><a xlink:href="../../dd/df5/and__exp_8cc.html" target="_top" xlink:title="src/operational/src\l/interpreter/and_exp.cc">
<polygon fill="white" stroke="black" points="655.5,-6 655.5,-36 771.5,-36 771.5,-6 655.5,-6"/>
<text text-anchor="start" x="663.5" y="-24" font-family="Helvetica,sans-Serif" font-size="10.00">src/operational/src</text>
<text text-anchor="middle" x="713.5" y="-13" font-family="Helvetica,sans-Serif" font-size="10.00">/interpreter/and_exp.cc</text>
</a>
</g>
</g>
<!-- Node3&#45;&gt;Node4 -->
<g id="edge3" class="edge"><title>Node3&#45;&gt;Node4</title>
<path fill="none" stroke="midnightblue" d="M676.232,-75.4408C685.093,-62.7348 695.889,-47.2536 703.576,-36.2309"/>
<polygon fill="midnightblue" stroke="midnightblue" points="673.318,-73.5005 670.469,-83.705 679.06,-77.5046 673.318,-73.5005"/>
</g>
<!-- Node3&#45;&gt;Node5 -->
<g id="edge4" class="edge"><title>Node3&#45;&gt;Node5</title>
<path fill="none" stroke="midnightblue" d="M613.343,-80.2579C582.577,-68.6824 542.391,-53.563 510.669,-41.6279"/>
<polygon fill="midnightblue" stroke="midnightblue" points="612.387,-83.6375 622.979,-83.8831 614.852,-77.0858 612.387,-83.6375"/>
</g>
<!-- Node6&#45;&gt;Node5 -->
<g id="edge7" class="edge"><title>Node6&#45;&gt;Node5</title>
<path fill="none" stroke="midnightblue" d="M149.034,-81.1581C153.233,-80.0194 157.425,-78.9495 161.5,-78 259.702,-55.1179 286.954,-63.353 385.5,-42 388.711,-41.3043 391.99,-40.5538 395.295,-39.7657"/>
<polygon fill="midnightblue" stroke="midnightblue" points="147.947,-77.8281 139.276,-83.9158 149.851,-84.5643 147.947,-77.8281"/>
</g>
<!-- Node7 -->
<g id="node7" class="node"><title>Node7</title>
<g id="a_node7"><a xlink:href="../../d6/d35/constant_8cc.html" target="_top" xlink:title="src/operational/src\l/interpreter/constant.cc">
<polygon fill="white" stroke="black" points="0,-6 0,-36 117,-36 117,-6 0,-6"/>
<text text-anchor="start" x="8" y="-24" font-family="Helvetica,sans-Serif" font-size="10.00">src/operational/src</text>
<text text-anchor="middle" x="58.5" y="-13" font-family="Helvetica,sans-Serif" font-size="10.00">/interpreter/constant.cc</text>
</a>
</g>
</g>
<!-- Node6&#45;&gt;Node7 -->
<g id="edge6" class="edge"><title>Node6&#45;&gt;Node7</title>
<path fill="none" stroke="midnightblue" d="M84.8524,-74.7047C78.5705,-62.141 71.0208,-47.0416 65.6155,-36.2309"/>
<polygon fill="midnightblue" stroke="midnightblue" points="81.7498,-76.326 89.3525,-83.705 88.0108,-73.1954 81.7498,-76.326"/>
</g>
<!-- Node8&#45;&gt;Node5 -->
<g id="edge10" class="edge"><title>Node8&#45;&gt;Node5</title>
<path fill="none" stroke="midnightblue" d="M278.275,-80.7858C314.059,-69.1137 361.43,-53.6622 398.626,-41.5298"/>
<polygon fill="midnightblue" stroke="midnightblue" points="276.929,-77.5433 268.507,-83.9719 279.1,-84.1982 276.929,-77.5433"/>
</g>
<!-- Node9 -->
<g id="node9" class="node"><title>Node9</title>
<g id="a_node9"><a xlink:href="../../d7/d6d/not__exp_8cc.html" target="_top" xlink:title="src/operational/src\l/interpreter/not_exp.cc">
<polygon fill="white" stroke="black" points="135.5,-6 135.5,-36 249.5,-36 249.5,-6 135.5,-6"/>
<text text-anchor="start" x="143.5" y="-24" font-family="Helvetica,sans-Serif" font-size="10.00">src/operational/src</text>
<text text-anchor="middle" x="192.5" y="-13" font-family="Helvetica,sans-Serif" font-size="10.00">/interpreter/not_exp.cc</text>
</a>
</g>
</g>
<!-- Node8&#45;&gt;Node9 -->
<g id="edge9" class="edge"><title>Node8&#45;&gt;Node9</title>
<path fill="none" stroke="midnightblue" d="M215.224,-74.3345C209.801,-61.8454 203.327,-46.9356 198.679,-36.2309"/>
<polygon fill="midnightblue" stroke="midnightblue" points="212.1,-75.9264 219.293,-83.705 218.52,-73.1383 212.1,-75.9264"/>
</g>
<!-- Node10&#45;&gt;Node5 -->
<g id="edge13" class="edge"><title>Node10&#45;&gt;Node5</title>
<path fill="none" stroke="midnightblue" d="M378.946,-77.9824C394.838,-66.7989 414.569,-52.9147 430.404,-41.7713"/>
<polygon fill="midnightblue" stroke="midnightblue" points="376.725,-75.2658 370.561,-83.8831 380.753,-80.9904 376.725,-75.2658"/>
</g>
<!-- Node11 -->
<g id="node11" class="node"><title>Node11</title>
<g id="a_node11"><a xlink:href="../../d6/d16/or__exp_8cc.html" target="_top" xlink:title="src/operational/src\l/interpreter/or_exp.cc">
<polygon fill="white" stroke="black" points="268,-6 268,-36 377,-36 377,-6 268,-6"/>
<text text-anchor="start" x="276" y="-24" font-family="Helvetica,sans-Serif" font-size="10.00">src/operational/src</text>
<text text-anchor="middle" x="322.5" y="-13" font-family="Helvetica,sans-Serif" font-size="10.00">/interpreter/or_exp.cc</text>
</a>
</g>
</g>
<!-- Node10&#45;&gt;Node11 -->
<g id="edge12" class="edge"><title>Node10&#45;&gt;Node11</title>
<path fill="none" stroke="midnightblue" d="M341.644,-73.9628C337.071,-61.5505 331.648,-46.8296 327.743,-36.2309"/>
<polygon fill="midnightblue" stroke="midnightblue" points="338.492,-75.5315 345.233,-83.705 345.061,-73.1116 338.492,-75.5315"/>
</g>
<!-- Node12&#45;&gt;Node5 -->
<g id="edge16" class="edge"><title>Node12&#45;&gt;Node5</title>
<path fill="none" stroke="midnightblue" d="M503.9,-75.9127C494.785,-65.0885 483.899,-52.1619 475.073,-41.68"/>
<polygon fill="midnightblue" stroke="midnightblue" points="501.343,-78.3103 510.462,-83.705 506.698,-73.8014 501.343,-78.3103"/>
</g>
<!-- Node13 -->
<g id="node13" class="node"><title>Node13</title>
<g id="a_node13"><a xlink:href="../../d0/da3/variable__exp_8cc.html" target="_top" xlink:title="src/operational/src\l/interpreter/variable\l_exp.cc">
<polygon fill="white" stroke="black" points="539.5,-0.5 539.5,-41.5 637.5,-41.5 637.5,-0.5 539.5,-0.5"/>
<text text-anchor="start" x="547.5" y="-29.5" font-family="Helvetica,sans-Serif" font-size="10.00">src/operational/src</text>
<text text-anchor="start" x="547.5" y="-18.5" font-family="Helvetica,sans-Serif" font-size="10.00">/interpreter/variable</text>
<text text-anchor="middle" x="588.5" y="-7.5" font-family="Helvetica,sans-Serif" font-size="10.00">_exp.cc</text>
</a>
</g>
</g>
<!-- Node12&#45;&gt;Node13 -->
<g id="edge15" class="edge"><title>Node12&#45;&gt;Node13</title>
<path fill="none" stroke="midnightblue" d="M541.681,-75.9127C551.081,-65.0885 562.307,-52.1619 571.409,-41.68"/>
<polygon fill="midnightblue" stroke="midnightblue" points="538.828,-73.8597 534.914,-83.705 544.114,-78.4495 538.828,-73.8597"/>
</g>
<!-- Node14&#45;&gt;Node5 -->
<g id="edge20" class="edge"><title>Node14&#45;&gt;Node5</title>
<path fill="none" stroke="midnightblue" d="M746.61,-146.372C746.458,-124.49 742.385,-95.5684 724.5,-78 661.94,-16.5463 615.94,-61.7543 530.5,-42 527.593,-41.3278 524.627,-40.615 521.636,-39.8743"/>
<polygon fill="midnightblue" stroke="midnightblue" points="743.108,-146.402 746.412,-156.468 750.107,-146.538 743.108,-146.402"/>
</g>
<!-- Node15 -->
<g id="node15" class="node"><title>Node15</title>
<g id="a_node15"><a xlink:href="../../da/d06/interpreter__context_8cc.html" target="_top" xlink:title="src/operational/src\l/interpreter/interpreter\l_context.cc">
<polygon fill="white" stroke="black" points="772.5,-78.5 772.5,-119.5 882.5,-119.5 882.5,-78.5 772.5,-78.5"/>
<text text-anchor="start" x="780.5" y="-107.5" font-family="Helvetica,sans-Serif" font-size="10.00">src/operational/src</text>
<text text-anchor="start" x="780.5" y="-96.5" font-family="Helvetica,sans-Serif" font-size="10.00">/interpreter/interpreter</text>
<text text-anchor="middle" x="827.5" y="-85.5" font-family="Helvetica,sans-Serif" font-size="10.00">_context.cc</text>
</a>
</g>
</g>
<!-- Node14&#45;&gt;Node15 -->
<g id="edge19" class="edge"><title>Node14&#45;&gt;Node15</title>
<path fill="none" stroke="midnightblue" d="M773.45,-149.492C784.22,-139.629 796.236,-128.627 806.198,-119.506"/>
<polygon fill="midnightblue" stroke="midnightblue" points="770.886,-147.094 765.875,-156.428 775.613,-152.256 770.886,-147.094"/>
</g>
</g>
</svg>
        <g id="navigator" transform="translate(0 0)" fill="#404254">
                <rect fill="#f2f5e9" fill-opacity="0.5" stroke="#606060" stroke-width=".5" x="0" y="0" width="60" height="60"/>
                <use id="zoomplus" xlink:href="#zoomPlus" x="17" y="9" onmousedown="handleZoom(evt,'in')"/>
                <use id="zoomminus" xlink:href="#zoomMin" x="42" y="9" onmousedown="handleZoom(evt,'out')"/>
                <use id="reset" xlink:href="#resetDef" x="30" y="36" onmousedown="handleReset()"/>
                <g id="arrowUp" xlink:href="#dirArrow" transform="translate(30 24)" onmousedown="handlePan(0,-1)">
                  <use xlink:href="#rim" fill="#404040">
                        <set attributeName="fill" to="#808080" begin="arrowUp.mouseover" end="arrowUp.mouseout"/>
                  </use>
                  <path fill="none" stroke="white" stroke-width="1.5" d="M0,-3.0v7 M-2.5,-0.5L0,-3.0L2.5,-0.5"/>
                </g>
                <g id="arrowRight" xlink:href="#dirArrow" transform="rotate(90) translate(36 -43)" onmousedown="handlePan(1,0)">
                  <use xlink:href="#rim" fill="#404040">
                        <set attributeName="fill" to="#808080" begin="arrowRight.mouseover" end="arrowRight.mouseout"/>
                  </use>
                  <path fill="none" stroke="white" stroke-width="1.5" d="M0,-3.0v7 M-2.5,-0.5L0,-3.0L2.5,-0.5"/>
                </g>
                <g id="arrowDown" xlink:href="#dirArrow" transform="rotate(180) translate(-30 -48)" onmousedown="handlePan(0,1)">
                  <use xlink:href="#rim" fill="#404040">
                        <set attributeName="fill" to="#808080" begin="arrowDown.mouseover" end="arrowDown.mouseout"/>
                  </use>
                  <path fill="none" stroke="white" stroke-width="1.5" d="M0,-3.0v7 M-2.5,-0.5L0,-3.0L2.5,-0.5"/>
                </g>
                <g id="arrowLeft" xlink:href="#dirArrow" transform="rotate(270) translate(-36 17)" onmousedown="handlePan(-1,0)">
                  <use xlink:href="#rim" fill="#404040">
                        <set attributeName="fill" to="#808080" begin="arrowLeft.mouseover" end="arrowLeft.mouseout"/>
                  </use>
                  <path fill="none" stroke="white" stroke-width="1.5" d="M0,-3.0v7 M-2.5,-0.5L0,-3.0L2.5,-0.5"/>
                </g>
        </g>
        <svg viewBox="0 0 15 15" width="100%" height="30px" preserveAspectRatio="xMaxYMin meet">
         <g id="arrow_out" transform="scale(0.3 0.3)">
          <a xlink:href="interpreter__context__interface_8h__dep__incl_org.svg" target="_base">
           <rect id="button" ry="5" rx="5" y="6" x="6" height="38" width="38"
                fill="#f2f5e9" fill-opacity="0.5" stroke="#606060" stroke-width="1.0"/>
           <path id="arrow"
             d="M 11.500037,31.436501 C 11.940474,20.09759 22.043105,11.32322 32.158766,21.979434 L 37.068811,17.246167 C 37.068811,17.246167 37.088388,32 37.088388,32 L 22.160133,31.978069 C 22.160133,31.978069 26.997745,27.140456 26.997745,27.140456 C 18.528582,18.264221 13.291696,25.230495 11.500037,31.436501 z"
             style="fill:#404040;"/>
          </a>
         </g>
        </svg>
</svg>
