<?xml version="1.0" encoding="UTF-8" standalone="no"?>
<!DOCTYPE svg PUBLIC "-//W3C//DTD SVG 1.1//EN"
 "http://www.w3.org/Graphics/SVG/1.1/DTD/svg11.dtd">
<!-- Generated by graphviz version 2.38.0 (20140413.2041)
 -->
<!-- Title: structural::proxy::GraphicInterface Pages: 1 -->
<svg width="212pt" height="314pt"
 viewBox="0.00 0.00 212.00 314.00" xmlns="http://www.w3.org/2000/svg" xmlns:xlink="http://www.w3.org/1999/xlink">
<g id="graph0" class="graph" transform="scale(1 1) rotate(0) translate(4 310)">
<title>structural::proxy::GraphicInterface</title>
<polygon fill="white" stroke="none" points="-4,4 -4,-310 208,-310 208,4 -4,4"/>
<!-- Node1 -->
<g id="node1" class="node"><title>Node1</title>
<polygon fill="#bfbfbf" stroke="black" points="47.5,-182.5 47.5,-305.5 155.5,-305.5 155.5,-182.5 47.5,-182.5"/>
<text text-anchor="start" x="55.5" y="-293.5" font-family="Helvetica,sans-Serif" font-size="10.00">structural::proxy::</text>
<text text-anchor="middle" x="101.5" y="-282.5" font-family="Helvetica,sans-Serif" font-size="10.00">GraphicInterface</text>
<polyline fill="none" stroke="black" points="47.5,-275.5 155.5,-275.5 "/>
<text text-anchor="middle" x="101.5" y="-263.5" font-family="Helvetica,sans-Serif" font-size="10.00"> </text>
<polyline fill="none" stroke="black" points="47.5,-256.5 155.5,-256.5 "/>
<text text-anchor="start" x="55.5" y="-244.5" font-family="Helvetica,sans-Serif" font-size="10.00">+ ~GraphicInterface()</text>
<text text-anchor="start" x="55.5" y="-233.5" font-family="Helvetica,sans-Serif" font-size="10.00">+ Draw()</text>
<text text-anchor="start" x="55.5" y="-222.5" font-family="Helvetica,sans-Serif" font-size="10.00">+ HandleMouse()</text>
<text text-anchor="start" x="55.5" y="-211.5" font-family="Helvetica,sans-Serif" font-size="10.00">+ GetExtent()</text>
<text text-anchor="start" x="55.5" y="-200.5" font-family="Helvetica,sans-Serif" font-size="10.00">+ Load()</text>
<text text-anchor="start" x="55.5" y="-189.5" font-family="Helvetica,sans-Serif" font-size="10.00">+ Save()</text>
</g>
<!-- Node2 -->
<g id="node2" class="node"><title>Node2</title>
<g id="a_node2"><a xlink:href="../../dd/d5a/classstructural_1_1proxy_1_1_image.html" target="_top" xlink:title="{structural::proxy::\lImage\n||+ Image()\l+ ~Image()\l+ Draw()\l+ HandleMouse()\l+ Load()\l+ Save()\l+ GetExtent()\l}">
<polygon fill="white" stroke="black" points="0,-6 0,-140 93,-140 93,-6 0,-6"/>
<text text-anchor="start" x="8" y="-128" font-family="Helvetica,sans-Serif" font-size="10.00">structural::proxy::</text>
<text text-anchor="middle" x="46.5" y="-117" font-family="Helvetica,sans-Serif" font-size="10.00">Image</text>
<polyline fill="none" stroke="black" points="0,-110 93,-110 "/>
<text text-anchor="middle" x="46.5" y="-98" font-family="Helvetica,sans-Serif" font-size="10.00"> </text>
<polyline fill="none" stroke="black" points="0,-91 93,-91 "/>
<text text-anchor="start" x="8" y="-79" font-family="Helvetica,sans-Serif" font-size="10.00">+ Image()</text>
<text text-anchor="start" x="8" y="-68" font-family="Helvetica,sans-Serif" font-size="10.00">+ ~Image()</text>
<text text-anchor="start" x="8" y="-57" font-family="Helvetica,sans-Serif" font-size="10.00">+ Draw()</text>
<text text-anchor="start" x="8" y="-46" font-family="Helvetica,sans-Serif" font-size="10.00">+ HandleMouse()</text>
<text text-anchor="start" x="8" y="-35" font-family="Helvetica,sans-Serif" font-size="10.00">+ Load()</text>
<text text-anchor="start" x="8" y="-24" font-family="Helvetica,sans-Serif" font-size="10.00">+ Save()</text>
<text text-anchor="start" x="8" y="-13" font-family="Helvetica,sans-Serif" font-size="10.00">+ GetExtent()</text>
</a>
</g>
</g>
<!-- Node1&#45;&gt;Node2 -->
<g id="edge1" class="edge"><title>Node1&#45;&gt;Node2</title>
<path fill="none" stroke="midnightblue" d="M78.614,-172.677C75.1067,-161.901 71.4965,-150.807 68.0201,-140.126"/>
<polygon fill="none" stroke="midnightblue" points="75.3762,-174.039 81.7991,-182.464 82.0325,-171.872 75.3762,-174.039"/>
</g>
<!-- Node3 -->
<g id="node3" class="node"><title>Node3</title>
<g id="a_node3"><a xlink:href="../../d9/d2c/classstructural_1_1proxy_1_1_image_proxy.html" target="_top" xlink:title="{structural::proxy::\lImageProxy\n||+ ImageProxy()\l+ ~ImageProxy()\l+ Draw()\l+ HandleMouse()\l+ GetExtent()\l+ Load()\l+ Save()\l# GetImage()\l}">
<polygon fill="white" stroke="black" points="111,-0.5 111,-145.5 204,-145.5 204,-0.5 111,-0.5"/>
<text text-anchor="start" x="119" y="-133.5" font-family="Helvetica,sans-Serif" font-size="10.00">structural::proxy::</text>
<text text-anchor="middle" x="157.5" y="-122.5" font-family="Helvetica,sans-Serif" font-size="10.00">ImageProxy</text>
<polyline fill="none" stroke="black" points="111,-115.5 204,-115.5 "/>
<text text-anchor="middle" x="157.5" y="-103.5" font-family="Helvetica,sans-Serif" font-size="10.00"> </text>
<polyline fill="none" stroke="black" points="111,-96.5 204,-96.5 "/>
<text text-anchor="start" x="119" y="-84.5" font-family="Helvetica,sans-Serif" font-size="10.00">+ ImageProxy()</text>
<text text-anchor="start" x="119" y="-73.5" font-family="Helvetica,sans-Serif" font-size="10.00">+ ~ImageProxy()</text>
<text text-anchor="start" x="119" y="-62.5" font-family="Helvetica,sans-Serif" font-size="10.00">+ Draw()</text>
<text text-anchor="start" x="119" y="-51.5" font-family="Helvetica,sans-Serif" font-size="10.00">+ HandleMouse()</text>
<text text-anchor="start" x="119" y="-40.5" font-family="Helvetica,sans-Serif" font-size="10.00">+ GetExtent()</text>
<text text-anchor="start" x="119" y="-29.5" font-family="Helvetica,sans-Serif" font-size="10.00">+ Load()</text>
<text text-anchor="start" x="119" y="-18.5" font-family="Helvetica,sans-Serif" font-size="10.00">+ Save()</text>
<text text-anchor="start" x="119" y="-7.5" font-family="Helvetica,sans-Serif" font-size="10.00"># GetImage()</text>
</a>
</g>
</g>
<!-- Node1&#45;&gt;Node3 -->
<g id="edge2" class="edge"><title>Node1&#45;&gt;Node3</title>
<path fill="none" stroke="midnightblue" d="M124.752,-172.828C127.728,-163.848 130.777,-154.645 133.76,-145.643"/>
<polygon fill="none" stroke="midnightblue" points="121.382,-171.871 121.559,-182.464 128.027,-174.073 121.382,-171.871"/>
</g>
</g>
</svg>
