<?xml version="1.0" encoding="UTF-8" standalone="no"?>
<!DOCTYPE svg PUBLIC "-//W3C//DTD SVG 1.1//EN"
 "http://www.w3.org/Graphics/SVG/1.1/DTD/svg11.dtd">
<!-- Generated by graphviz version 2.38.0 (20140413.2041)
 -->
<!-- Title: src/operational/src/state/tcp_established.h Pages: 1 -->
<svg width="276pt" height="106pt"
 viewBox="0.00 0.00 276.00 106.00" xmlns="http://www.w3.org/2000/svg" xmlns:xlink="http://www.w3.org/1999/xlink">
<g id="graph0" class="graph" transform="scale(1 1) rotate(0) translate(4 102)">
<title>src/operational/src/state/tcp_established.h</title>
<polygon fill="white" stroke="none" points="-4,4 -4,-102 272,-102 272,4 -4,4"/>
<!-- Node1 -->
<g id="node1" class="node"><title>Node1</title>
<polygon fill="#bfbfbf" stroke="black" points="72.5,-67.5 72.5,-97.5 193.5,-97.5 193.5,-67.5 72.5,-67.5"/>
<text text-anchor="start" x="80.5" y="-85.5" font-family="Helvetica,sans-Serif" font-size="10.00">src/operational/src</text>
<text text-anchor="middle" x="133" y="-74.5" font-family="Helvetica,sans-Serif" font-size="10.00">/state/tcp_established.h</text>
</g>
<!-- Node2 -->
<g id="node2" class="node"><title>Node2</title>
<g id="a_node2"><a xlink:href="../../d6/d12/tcp__connection_8cc.html" target="_top" xlink:title="src/operational/src\l/state/tcp_connection.cc">
<polygon fill="white" stroke="black" points="0,-0.5 0,-30.5 124,-30.5 124,-0.5 0,-0.5"/>
<text text-anchor="start" x="8" y="-18.5" font-family="Helvetica,sans-Serif" font-size="10.00">src/operational/src</text>
<text text-anchor="middle" x="62" y="-7.5" font-family="Helvetica,sans-Serif" font-size="10.00">/state/tcp_connection.cc</text>
</a>
</g>
</g>
<!-- Node1&#45;&gt;Node2 -->
<g id="edge1" class="edge"><title>Node1&#45;&gt;Node2</title>
<path fill="none" stroke="midnightblue" d="M110.168,-60.5978C99.4477,-50.7831 86.9529,-39.3442 77.3759,-30.5765"/>
<polygon fill="midnightblue" stroke="midnightblue" points="107.855,-63.225 117.594,-67.396 112.582,-58.0618 107.855,-63.225"/>
</g>
<!-- Node3 -->
<g id="node3" class="node"><title>Node3</title>
<g id="a_node3"><a xlink:href="../../d3/d9d/tcp__established_8cc.html" target="_top" xlink:title="src/operational/src\l/state/tcp_established.cc">
<polygon fill="white" stroke="black" points="142,-0.5 142,-30.5 268,-30.5 268,-0.5 142,-0.5"/>
<text text-anchor="start" x="150" y="-18.5" font-family="Helvetica,sans-Serif" font-size="10.00">src/operational/src</text>
<text text-anchor="middle" x="205" y="-7.5" font-family="Helvetica,sans-Serif" font-size="10.00">/state/tcp_established.cc</text>
</a>
</g>
</g>
<!-- Node1&#45;&gt;Node3 -->
<g id="edge2" class="edge"><title>Node1&#45;&gt;Node3</title>
<path fill="none" stroke="midnightblue" d="M156.153,-60.5978C167.025,-50.7831 179.696,-39.3442 189.408,-30.5765"/>
<polygon fill="midnightblue" stroke="midnightblue" points="153.7,-58.097 148.623,-67.396 158.391,-63.2929 153.7,-58.097"/>
</g>
</g>
</svg>
