<?xml version="1.0" encoding="UTF-8" standalone="no"?>
<!DOCTYPE svg PUBLIC "-//W3C//DTD SVG 1.1//EN"
 "http://www.w3.org/Graphics/SVG/1.1/DTD/svg11.dtd">
<!-- Generated by graphviz version 2.38.0 (20140413.2041)
 -->
<!-- Title: src/creational/src/mazeparts/maze.h Pages: 1 -->
<svg width="1312pt" height="429pt"
 viewBox="0.00 0.00 1311.50 429.00" xmlns="http://www.w3.org/2000/svg" xmlns:xlink="http://www.w3.org/1999/xlink">
<g id="graph0" class="graph" transform="scale(1 1) rotate(0) translate(4 425)">
<title>src/creational/src/mazeparts/maze.h</title>
<polygon fill="white" stroke="none" points="-4,4 -4,-425 1307.5,-425 1307.5,4 -4,4"/>
<!-- Node1 -->
<g id="node1" class="node"><title>Node1</title>
<polygon fill="#bfbfbf" stroke="black" points="631,-390.5 631,-420.5 732,-420.5 732,-390.5 631,-390.5"/>
<text text-anchor="start" x="639" y="-408.5" font-family="Helvetica,sans-Serif" font-size="10.00">src/creational/src</text>
<text text-anchor="middle" x="681.5" y="-397.5" font-family="Helvetica,sans-Serif" font-size="10.00">/mazeparts/maze.h</text>
</g>
<!-- Node2 -->
<g id="node2" class="node"><title>Node2</title>
<g id="a_node2"><a xlink:href="../../de/d6d/maze__factory__interface_8h.html" target="_top" xlink:title="src/creational/src\l/abstractfactory/maze\l_factory_interface.h">
<polygon fill="white" stroke="black" points="344,-312.5 344,-353.5 455,-353.5 455,-312.5 344,-312.5"/>
<text text-anchor="start" x="352" y="-341.5" font-family="Helvetica,sans-Serif" font-size="10.00">src/creational/src</text>
<text text-anchor="start" x="352" y="-330.5" font-family="Helvetica,sans-Serif" font-size="10.00">/abstractfactory/maze</text>
<text text-anchor="middle" x="399.5" y="-319.5" font-family="Helvetica,sans-Serif" font-size="10.00">_factory_interface.h</text>
</a>
</g>
</g>
<!-- Node1&#45;&gt;Node2 -->
<g id="edge1" class="edge"><title>Node1&#45;&gt;Node2</title>
<path fill="none" stroke="midnightblue" d="M620.886,-389.347C571.708,-377.052 502.938,-359.86 455.146,-347.911"/>
<polygon fill="midnightblue" stroke="midnightblue" points="620.208,-392.785 630.758,-391.815 621.906,-385.994 620.208,-392.785"/>
</g>
<!-- Node18 -->
<g id="node18" class="node"><title>Node18</title>
<g id="a_node18"><a xlink:href="../../d5/d18/maze__builder__interface_8h.html" target="_top" xlink:title="src/creational/src\l/builder/maze_builder\l_interface.h">
<polygon fill="white" stroke="black" points="749,-234.5 749,-275.5 858,-275.5 858,-234.5 749,-234.5"/>
<text text-anchor="start" x="757" y="-263.5" font-family="Helvetica,sans-Serif" font-size="10.00">src/creational/src</text>
<text text-anchor="start" x="757" y="-252.5" font-family="Helvetica,sans-Serif" font-size="10.00">/builder/maze_builder</text>
<text text-anchor="middle" x="803.5" y="-241.5" font-family="Helvetica,sans-Serif" font-size="10.00">_interface.h</text>
</a>
</g>
</g>
<!-- Node1&#45;&gt;Node18 -->
<g id="edge20" class="edge"><title>Node1&#45;&gt;Node18</title>
<path fill="none" stroke="midnightblue" d="M687.158,-380.432C692.783,-360.454 702.994,-332.151 719.5,-312 731.606,-297.221 748.631,-284.875 764.192,-275.569"/>
<polygon fill="midnightblue" stroke="midnightblue" points="683.721,-379.74 684.56,-390.302 690.49,-381.523 683.721,-379.74"/>
</g>
<!-- Node23 -->
<g id="node23" class="node"><title>Node23</title>
<g id="a_node23"><a xlink:href="../../de/d7d/maze_8cc.html" target="_top" xlink:title="src/creational/src\l/mazeparts/maze.cc">
<polygon fill="white" stroke="black" points="728.5,-318 728.5,-348 834.5,-348 834.5,-318 728.5,-318"/>
<text text-anchor="start" x="736.5" y="-336" font-family="Helvetica,sans-Serif" font-size="10.00">src/creational/src</text>
<text text-anchor="middle" x="781.5" y="-325" font-family="Helvetica,sans-Serif" font-size="10.00">/mazeparts/maze.cc</text>
</a>
</g>
</g>
<!-- Node1&#45;&gt;Node23 -->
<g id="edge28" class="edge"><title>Node1&#45;&gt;Node23</title>
<path fill="none" stroke="midnightblue" d="M709.967,-384.431C726.476,-372.792 746.856,-358.424 761.635,-348.005"/>
<polygon fill="midnightblue" stroke="midnightblue" points="707.893,-381.611 701.736,-390.233 711.926,-387.332 707.893,-381.611"/>
</g>
<!-- Node24 -->
<g id="node24" class="node"><title>Node24</title>
<g id="a_node24"><a xlink:href="../../d2/da1/validator_8h.html" target="_top" xlink:title="src/creational_tests\l/src/utils/validator.h">
<polygon fill="white" stroke="black" points="532.5,-318 532.5,-348 634.5,-348 634.5,-318 532.5,-318"/>
<text text-anchor="start" x="540.5" y="-336" font-family="Helvetica,sans-Serif" font-size="10.00">src/creational_tests</text>
<text text-anchor="middle" x="583.5" y="-325" font-family="Helvetica,sans-Serif" font-size="10.00">/src/utils/validator.h</text>
</a>
</g>
</g>
<!-- Node1&#45;&gt;Node24 -->
<g id="edge29" class="edge"><title>Node1&#45;&gt;Node24</title>
<path fill="none" stroke="midnightblue" d="M653.157,-384.11C637.058,-372.529 617.318,-358.328 602.968,-348.005"/>
<polygon fill="midnightblue" stroke="midnightblue" points="651.507,-387.235 661.668,-390.233 655.594,-381.552 651.507,-387.235"/>
</g>
<!-- Node25 -->
<g id="node25" class="node"><title>Node25</title>
<g id="a_node25"><a xlink:href="../../d9/d77/validator_8cc.html" target="_top" xlink:title="src/creational_tests\l/src/utils/validator.cc">
<polygon fill="white" stroke="black" points="609.5,-240 609.5,-270 715.5,-270 715.5,-240 609.5,-240"/>
<text text-anchor="start" x="617.5" y="-258" font-family="Helvetica,sans-Serif" font-size="10.00">src/creational_tests</text>
<text text-anchor="middle" x="662.5" y="-247" font-family="Helvetica,sans-Serif" font-size="10.00">/src/utils/validator.cc</text>
</a>
</g>
</g>
<!-- Node1&#45;&gt;Node25 -->
<g id="edge33" class="edge"><title>Node1&#45;&gt;Node25</title>
<path fill="none" stroke="midnightblue" d="M678.394,-380.224C674.403,-349.028 667.601,-295.867 664.344,-270.414"/>
<polygon fill="midnightblue" stroke="midnightblue" points="674.937,-380.786 679.678,-390.261 681.881,-379.898 674.937,-380.786"/>
</g>
<!-- Node26 -->
<g id="node26" class="node"><title>Node26</title>
<g id="a_node26"><a xlink:href="../../d9/d02/maze__test_8cc.html" target="_top" xlink:title="src/creational_tests\l/src/mazeparts/maze_test.cc">
<polygon fill="white" stroke="black" points="852.5,-318 852.5,-348 996.5,-348 996.5,-318 852.5,-318"/>
<text text-anchor="start" x="860.5" y="-336" font-family="Helvetica,sans-Serif" font-size="10.00">src/creational_tests</text>
<text text-anchor="middle" x="924.5" y="-325" font-family="Helvetica,sans-Serif" font-size="10.00">/src/mazeparts/maze_test.cc</text>
</a>
</g>
</g>
<!-- Node1&#45;&gt;Node26 -->
<g id="edge32" class="edge"><title>Node1&#45;&gt;Node26</title>
<path fill="none" stroke="midnightblue" d="M739.527,-387.665C781.145,-375.591 836.577,-359.508 875.876,-348.107"/>
<polygon fill="midnightblue" stroke="midnightblue" points="738.428,-384.339 729.8,-390.487 740.379,-391.062 738.428,-384.339"/>
</g>
<!-- Node3 -->
<g id="node3" class="node"><title>Node3</title>
<g id="a_node3"><a xlink:href="../../d6/d3b/maze__factory_8h.html" target="_top" xlink:title="src/creational/src\l/abstractfactory/maze\l_factory.h">
<polygon fill="white" stroke="black" points="314,-234.5 314,-275.5 425,-275.5 425,-234.5 314,-234.5"/>
<text text-anchor="start" x="322" y="-263.5" font-family="Helvetica,sans-Serif" font-size="10.00">src/creational/src</text>
<text text-anchor="start" x="322" y="-252.5" font-family="Helvetica,sans-Serif" font-size="10.00">/abstractfactory/maze</text>
<text text-anchor="middle" x="369.5" y="-241.5" font-family="Helvetica,sans-Serif" font-size="10.00">_factory.h</text>
</a>
</g>
</g>
<!-- Node2&#45;&gt;Node3 -->
<g id="edge2" class="edge"><title>Node2&#45;&gt;Node3</title>
<path fill="none" stroke="midnightblue" d="M388.006,-302.882C384.39,-293.721 380.486,-283.83 377.2,-275.506"/>
<polygon fill="midnightblue" stroke="midnightblue" points="384.847,-304.412 391.774,-312.428 391.358,-301.841 384.847,-304.412"/>
</g>
<!-- Node4 -->
<g id="node4" class="node"><title>Node4</title>
<g id="a_node4"><a xlink:href="../../d5/dcd/bombed__maze__factory_8h.html" target="_top" xlink:title="src/creational/src\l/abstractfactory/bombed\l_maze_factory.h">
<polygon fill="white" stroke="black" points="279.5,-156.5 279.5,-197.5 401.5,-197.5 401.5,-156.5 279.5,-156.5"/>
<text text-anchor="start" x="287.5" y="-185.5" font-family="Helvetica,sans-Serif" font-size="10.00">src/creational/src</text>
<text text-anchor="start" x="287.5" y="-174.5" font-family="Helvetica,sans-Serif" font-size="10.00">/abstractfactory/bombed</text>
<text text-anchor="middle" x="340.5" y="-163.5" font-family="Helvetica,sans-Serif" font-size="10.00">_maze_factory.h</text>
</a>
</g>
</g>
<!-- Node3&#45;&gt;Node4 -->
<g id="edge3" class="edge"><title>Node3&#45;&gt;Node4</title>
<path fill="none" stroke="midnightblue" d="M358.389,-224.882C354.894,-215.721 351.119,-205.83 347.943,-197.506"/>
<polygon fill="midnightblue" stroke="midnightblue" points="355.197,-226.333 362.032,-234.428 361.737,-223.837 355.197,-226.333"/>
</g>
<!-- Node7 -->
<g id="node7" class="node"><title>Node7</title>
<g id="a_node7"><a xlink:href="../../dd/d80/enchanted__maze__factory_8h.html" target="_top" xlink:title="src/creational/src\l/abstractfactory/enchanted\l_maze_factory.h">
<polygon fill="white" stroke="black" points="129.5,-156.5 129.5,-197.5 261.5,-197.5 261.5,-156.5 129.5,-156.5"/>
<text text-anchor="start" x="137.5" y="-185.5" font-family="Helvetica,sans-Serif" font-size="10.00">src/creational/src</text>
<text text-anchor="start" x="137.5" y="-174.5" font-family="Helvetica,sans-Serif" font-size="10.00">/abstractfactory/enchanted</text>
<text text-anchor="middle" x="195.5" y="-163.5" font-family="Helvetica,sans-Serif" font-size="10.00">_maze_factory.h</text>
</a>
</g>
</g>
<!-- Node3&#45;&gt;Node7 -->
<g id="edge6" class="edge"><title>Node3&#45;&gt;Node7</title>
<path fill="none" stroke="midnightblue" d="M315.306,-230.329C291.162,-219.783 263.069,-207.513 240.157,-197.506"/>
<polygon fill="midnightblue" stroke="midnightblue" points="314.126,-233.633 324.691,-234.428 316.928,-227.218 314.126,-233.633"/>
</g>
<!-- Node9 -->
<g id="node9" class="node"><title>Node9</title>
<g id="a_node9"><a xlink:href="../../d1/da8/maze__factory_8cc.html" target="_top" xlink:title="src/creational/src\l/abstractfactory/maze\l_factory.cc">
<polygon fill="white" stroke="black" points="0,-156.5 0,-197.5 111,-197.5 111,-156.5 0,-156.5"/>
<text text-anchor="start" x="8" y="-185.5" font-family="Helvetica,sans-Serif" font-size="10.00">src/creational/src</text>
<text text-anchor="start" x="8" y="-174.5" font-family="Helvetica,sans-Serif" font-size="10.00">/abstractfactory/maze</text>
<text text-anchor="middle" x="55.5" y="-163.5" font-family="Helvetica,sans-Serif" font-size="10.00">_factory.cc</text>
</a>
</g>
</g>
<!-- Node3&#45;&gt;Node9 -->
<g id="edge9" class="edge"><title>Node3&#45;&gt;Node9</title>
<path fill="none" stroke="midnightblue" d="M304.023,-240.719C253.61,-230.145 182.323,-214.437 120.5,-198 117.419,-197.181 114.265,-196.312 111.088,-195.413"/>
<polygon fill="midnightblue" stroke="midnightblue" points="303.314,-244.146 313.819,-242.764 304.745,-237.294 303.314,-244.146"/>
</g>
<!-- Node10 -->
<g id="node10" class="node"><title>Node10</title>
<g id="a_node10"><a xlink:href="../../d2/df0/maze__game_8h.html" target="_top" xlink:title="src/creational/src\l/mazegame/maze_game.h">
<polygon fill="white" stroke="black" points="609.5,-162 609.5,-192 741.5,-192 741.5,-162 609.5,-162"/>
<text text-anchor="start" x="617.5" y="-180" font-family="Helvetica,sans-Serif" font-size="10.00">src/creational/src</text>
<text text-anchor="middle" x="675.5" y="-169" font-family="Helvetica,sans-Serif" font-size="10.00">/mazegame/maze_game.h</text>
</a>
</g>
</g>
<!-- Node3&#45;&gt;Node10 -->
<g id="edge10" class="edge"><title>Node3&#45;&gt;Node10</title>
<path fill="none" stroke="midnightblue" d="M435.219,-237.678C489.96,-224.082 567.099,-204.923 619.079,-192.013"/>
<polygon fill="midnightblue" stroke="midnightblue" points="434.131,-234.341 425.269,-240.149 435.818,-241.135 434.131,-234.341"/>
</g>
<!-- Node16 -->
<g id="node16" class="node"><title>Node16</title>
<g id="a_node16"><a xlink:href="../../d3/da8/maze__prototype__factory_8h.html" target="_top" xlink:title="src/creational/src\l/prototype/maze_prototype\l_factory.h">
<polygon fill="white" stroke="black" points="420,-156.5 420,-197.5 553,-197.5 553,-156.5 420,-156.5"/>
<text text-anchor="start" x="428" y="-185.5" font-family="Helvetica,sans-Serif" font-size="10.00">src/creational/src</text>
<text text-anchor="start" x="428" y="-174.5" font-family="Helvetica,sans-Serif" font-size="10.00">/prototype/maze_prototype</text>
<text text-anchor="middle" x="486.5" y="-163.5" font-family="Helvetica,sans-Serif" font-size="10.00">_factory.h</text>
</a>
</g>
</g>
<!-- Node3&#45;&gt;Node16 -->
<g id="edge17" class="edge"><title>Node3&#45;&gt;Node16</title>
<path fill="none" stroke="midnightblue" d="M408.111,-228.919C423.84,-218.702 441.747,-207.07 456.472,-197.506"/>
<polygon fill="midnightblue" stroke="midnightblue" points="406.11,-226.046 399.63,-234.428 409.923,-231.916 406.11,-226.046"/>
</g>
<!-- Node5 -->
<g id="node5" class="node"><title>Node5</title>
<g id="a_node5"><a xlink:href="../../d9/d3b/bombed__maze__factory_8cc.html" target="_top" xlink:title="src/creational/src\l/abstractfactory/bombed\l_maze_factory.cc">
<polygon fill="white" stroke="black" points="160.5,-78.5 160.5,-119.5 282.5,-119.5 282.5,-78.5 160.5,-78.5"/>
<text text-anchor="start" x="168.5" y="-107.5" font-family="Helvetica,sans-Serif" font-size="10.00">src/creational/src</text>
<text text-anchor="start" x="168.5" y="-96.5" font-family="Helvetica,sans-Serif" font-size="10.00">/abstractfactory/bombed</text>
<text text-anchor="middle" x="221.5" y="-85.5" font-family="Helvetica,sans-Serif" font-size="10.00">_maze_factory.cc</text>
</a>
</g>
</g>
<!-- Node4&#45;&gt;Node5 -->
<g id="edge4" class="edge"><title>Node4&#45;&gt;Node5</title>
<path fill="none" stroke="midnightblue" d="M301.229,-150.919C285.231,-140.702 267.018,-129.07 252.042,-119.506"/>
<polygon fill="midnightblue" stroke="midnightblue" points="299.543,-153.995 309.855,-156.428 303.311,-148.096 299.543,-153.995"/>
</g>
<!-- Node6 -->
<g id="node6" class="node"><title>Node6</title>
<g id="a_node6"><a xlink:href="../../d5/d51/maze__game__test_8cc.html" target="_top" xlink:title="src/creational_tests\l/src/mazegame/maze_game\l_test.cc">
<polygon fill="white" stroke="black" points="452.5,-78.5 452.5,-119.5 592.5,-119.5 592.5,-78.5 452.5,-78.5"/>
<text text-anchor="start" x="460.5" y="-107.5" font-family="Helvetica,sans-Serif" font-size="10.00">src/creational_tests</text>
<text text-anchor="start" x="460.5" y="-96.5" font-family="Helvetica,sans-Serif" font-size="10.00">/src/mazegame/maze_game</text>
<text text-anchor="middle" x="522.5" y="-85.5" font-family="Helvetica,sans-Serif" font-size="10.00">_test.cc</text>
</a>
</g>
</g>
<!-- Node4&#45;&gt;Node6 -->
<g id="edge5" class="edge"><title>Node4&#45;&gt;Node6</title>
<path fill="none" stroke="midnightblue" d="M396.851,-152.469C422.179,-141.892 451.718,-129.557 475.789,-119.506"/>
<polygon fill="midnightblue" stroke="midnightblue" points="395.249,-149.345 387.37,-156.428 397.946,-155.804 395.249,-149.345"/>
</g>
<!-- Node7&#45;&gt;Node6 -->
<g id="edge8" class="edge"><title>Node7&#45;&gt;Node6</title>
<path fill="none" stroke="midnightblue" d="M271.817,-155.748C348.209,-137.865 369.501,-136.758 442.5,-120 445.709,-119.263 448.988,-118.497 452.297,-117.714"/>
<polygon fill="midnightblue" stroke="midnightblue" points="270.631,-152.431 261.704,-158.137 272.241,-159.244 270.631,-152.431"/>
</g>
<!-- Node8 -->
<g id="node8" class="node"><title>Node8</title>
<g id="a_node8"><a xlink:href="../../d3/d4b/enchanted__maze__factory_8cc.html" target="_top" xlink:title="src/creational/src\l/abstractfactory/enchanted\l_maze_factory.cc">
<polygon fill="white" stroke="black" points="10.5,-78.5 10.5,-119.5 142.5,-119.5 142.5,-78.5 10.5,-78.5"/>
<text text-anchor="start" x="18.5" y="-107.5" font-family="Helvetica,sans-Serif" font-size="10.00">src/creational/src</text>
<text text-anchor="start" x="18.5" y="-96.5" font-family="Helvetica,sans-Serif" font-size="10.00">/abstractfactory/enchanted</text>
<text text-anchor="middle" x="76.5" y="-85.5" font-family="Helvetica,sans-Serif" font-size="10.00">_maze_factory.cc</text>
</a>
</g>
</g>
<!-- Node7&#45;&gt;Node8 -->
<g id="edge7" class="edge"><title>Node7&#45;&gt;Node8</title>
<path fill="none" stroke="midnightblue" d="M156.229,-150.919C140.231,-140.702 122.018,-129.07 107.042,-119.506"/>
<polygon fill="midnightblue" stroke="midnightblue" points="154.543,-153.995 164.855,-156.428 158.311,-148.096 154.543,-153.995"/>
</g>
<!-- Node10&#45;&gt;Node6 -->
<g id="edge16" class="edge"><title>Node10&#45;&gt;Node6</title>
<path fill="none" stroke="midnightblue" d="M637.952,-157.349C614.902,-145.899 585.417,-131.253 562.014,-119.628"/>
<polygon fill="midnightblue" stroke="midnightblue" points="636.567,-160.569 647.08,-161.883 639.682,-154.3 636.567,-160.569"/>
</g>
<!-- Node11 -->
<g id="node11" class="node"><title>Node11</title>
<g id="a_node11"><a xlink:href="../../d6/d92/bombed__maze__game_8h.html" target="_top" xlink:title="src/creational/src\l/factorymethod/bombed\l_maze_game.h">
<polygon fill="white" stroke="black" points="913,-78.5 913,-119.5 1032,-119.5 1032,-78.5 913,-78.5"/>
<text text-anchor="start" x="921" y="-107.5" font-family="Helvetica,sans-Serif" font-size="10.00">src/creational/src</text>
<text text-anchor="start" x="921" y="-96.5" font-family="Helvetica,sans-Serif" font-size="10.00">/factorymethod/bombed</text>
<text text-anchor="middle" x="972.5" y="-85.5" font-family="Helvetica,sans-Serif" font-size="10.00">_maze_game.h</text>
</a>
</g>
</g>
<!-- Node10&#45;&gt;Node11 -->
<g id="edge11" class="edge"><title>Node10&#45;&gt;Node11</title>
<path fill="none" stroke="midnightblue" d="M737.283,-159.37C741.752,-158.215 746.193,-157.081 750.5,-156 818.257,-138.998 835.93,-137.73 903.5,-120 906.516,-119.209 909.601,-118.381 912.713,-117.532"/>
<polygon fill="midnightblue" stroke="midnightblue" points="736.289,-156.012 727.495,-161.922 738.055,-162.786 736.289,-156.012"/>
</g>
<!-- Node13 -->
<g id="node13" class="node"><title>Node13</title>
<g id="a_node13"><a xlink:href="../../df/d13/enchanted__maze__game_8h.html" target="_top" xlink:title="src/creational/src\l/factorymethod/enchanted\l_maze_game.h">
<polygon fill="white" stroke="black" points="611,-78.5 611,-119.5 740,-119.5 740,-78.5 611,-78.5"/>
<text text-anchor="start" x="619" y="-107.5" font-family="Helvetica,sans-Serif" font-size="10.00">src/creational/src</text>
<text text-anchor="start" x="619" y="-96.5" font-family="Helvetica,sans-Serif" font-size="10.00">/factorymethod/enchanted</text>
<text text-anchor="middle" x="675.5" y="-85.5" font-family="Helvetica,sans-Serif" font-size="10.00">_maze_game.h</text>
</a>
</g>
</g>
<!-- Node10&#45;&gt;Node13 -->
<g id="edge13" class="edge"><title>Node10&#45;&gt;Node13</title>
<path fill="none" stroke="midnightblue" d="M675.5,-151.656C675.5,-141.326 675.5,-129.443 675.5,-119.68"/>
<polygon fill="midnightblue" stroke="midnightblue" points="672,-151.705 675.5,-161.705 679,-151.705 672,-151.705"/>
</g>
<!-- Node15 -->
<g id="node15" class="node"><title>Node15</title>
<g id="a_node15"><a xlink:href="../../d6/d51/maze__game_8cc.html" target="_top" xlink:title="src/creational/src\l/mazegame/maze_game.cc">
<polygon fill="white" stroke="black" points="758,-84 758,-114 895,-114 895,-84 758,-84"/>
<text text-anchor="start" x="766" y="-102" font-family="Helvetica,sans-Serif" font-size="10.00">src/creational/src</text>
<text text-anchor="middle" x="826.5" y="-91" font-family="Helvetica,sans-Serif" font-size="10.00">/mazegame/maze_game.cc</text>
</a>
</g>
</g>
<!-- Node10&#45;&gt;Node15 -->
<g id="edge15" class="edge"><title>Node10&#45;&gt;Node15</title>
<path fill="none" stroke="midnightblue" d="M712.556,-157.349C739.136,-143.971 774.386,-126.229 798.602,-114.041"/>
<polygon fill="midnightblue" stroke="midnightblue" points="710.907,-154.261 703.548,-161.883 714.054,-160.514 710.907,-154.261"/>
</g>
<!-- Node12 -->
<g id="node12" class="node"><title>Node12</title>
<g id="a_node12"><a xlink:href="../../d4/d89/bombed__maze__game_8cc.html" target="_top" xlink:title="src/creational/src\l/factorymethod/bombed\l_maze_game.cc">
<polygon fill="white" stroke="black" points="913,-0.5 913,-41.5 1032,-41.5 1032,-0.5 913,-0.5"/>
<text text-anchor="start" x="921" y="-29.5" font-family="Helvetica,sans-Serif" font-size="10.00">src/creational/src</text>
<text text-anchor="start" x="921" y="-18.5" font-family="Helvetica,sans-Serif" font-size="10.00">/factorymethod/bombed</text>
<text text-anchor="middle" x="972.5" y="-7.5" font-family="Helvetica,sans-Serif" font-size="10.00">_maze_game.cc</text>
</a>
</g>
</g>
<!-- Node11&#45;&gt;Node12 -->
<g id="edge12" class="edge"><title>Node11&#45;&gt;Node12</title>
<path fill="none" stroke="midnightblue" d="M972.5,-68.2965C972.5,-59.3009 972.5,-49.6532 972.5,-41.5056"/>
<polygon fill="midnightblue" stroke="midnightblue" points="969,-68.4281 972.5,-78.4281 976,-68.4281 969,-68.4281"/>
</g>
<!-- Node14 -->
<g id="node14" class="node"><title>Node14</title>
<g id="a_node14"><a xlink:href="../../db/db5/enchanted__maze__game_8cc.html" target="_top" xlink:title="src/creational/src\l/factorymethod/enchanted\l_maze_game.cc">
<polygon fill="white" stroke="black" points="611,-0.5 611,-41.5 740,-41.5 740,-0.5 611,-0.5"/>
<text text-anchor="start" x="619" y="-29.5" font-family="Helvetica,sans-Serif" font-size="10.00">src/creational/src</text>
<text text-anchor="start" x="619" y="-18.5" font-family="Helvetica,sans-Serif" font-size="10.00">/factorymethod/enchanted</text>
<text text-anchor="middle" x="675.5" y="-7.5" font-family="Helvetica,sans-Serif" font-size="10.00">_maze_game.cc</text>
</a>
</g>
</g>
<!-- Node13&#45;&gt;Node14 -->
<g id="edge14" class="edge"><title>Node13&#45;&gt;Node14</title>
<path fill="none" stroke="midnightblue" d="M675.5,-68.2965C675.5,-59.3009 675.5,-49.6532 675.5,-41.5056"/>
<polygon fill="midnightblue" stroke="midnightblue" points="672,-68.4281 675.5,-78.4281 679,-68.4281 672,-68.4281"/>
</g>
<!-- Node16&#45;&gt;Node6 -->
<g id="edge19" class="edge"><title>Node16&#45;&gt;Node6</title>
<path fill="none" stroke="midnightblue" d="M500.154,-147.174C504.532,-137.932 509.275,-127.919 513.261,-119.506"/>
<polygon fill="midnightblue" stroke="midnightblue" points="496.889,-145.892 495.771,-156.428 503.215,-148.889 496.889,-145.892"/>
</g>
<!-- Node17 -->
<g id="node17" class="node"><title>Node17</title>
<g id="a_node17"><a xlink:href="../../d5/d25/maze__prototype__factory_8cc.html" target="_top" xlink:title="src/creational/src\l/prototype/maze_prototype\l_factory.cc">
<polygon fill="white" stroke="black" points="301,-78.5 301,-119.5 434,-119.5 434,-78.5 301,-78.5"/>
<text text-anchor="start" x="309" y="-107.5" font-family="Helvetica,sans-Serif" font-size="10.00">src/creational/src</text>
<text text-anchor="start" x="309" y="-96.5" font-family="Helvetica,sans-Serif" font-size="10.00">/prototype/maze_prototype</text>
<text text-anchor="middle" x="367.5" y="-85.5" font-family="Helvetica,sans-Serif" font-size="10.00">_factory.cc</text>
</a>
</g>
</g>
<!-- Node16&#45;&gt;Node17 -->
<g id="edge18" class="edge"><title>Node16&#45;&gt;Node17</title>
<path fill="none" stroke="midnightblue" d="M447.229,-150.919C431.231,-140.702 413.018,-129.07 398.042,-119.506"/>
<polygon fill="midnightblue" stroke="midnightblue" points="445.543,-153.995 455.855,-156.428 449.311,-148.096 445.543,-153.995"/>
</g>
<!-- Node18&#45;&gt;Node10 -->
<g id="edge27" class="edge"><title>Node18&#45;&gt;Node10</title>
<path fill="none" stroke="midnightblue" d="M761.925,-229.315C741.25,-217.039 717,-202.641 699.458,-192.225"/>
<polygon fill="midnightblue" stroke="midnightblue" points="760.151,-232.332 770.537,-234.428 763.725,-226.313 760.151,-232.332"/>
</g>
<!-- Node19 -->
<g id="node19" class="node"><title>Node19</title>
<g id="a_node19"><a xlink:href="../../d2/dac/counting__maze__builder_8h.html" target="_top" xlink:title="src/creational/src\l/builder/counting_maze\l_builder.h">
<polygon fill="white" stroke="black" points="760,-156.5 760,-197.5 877,-197.5 877,-156.5 760,-156.5"/>
<text text-anchor="start" x="768" y="-185.5" font-family="Helvetica,sans-Serif" font-size="10.00">src/creational/src</text>
<text text-anchor="start" x="768" y="-174.5" font-family="Helvetica,sans-Serif" font-size="10.00">/builder/counting_maze</text>
<text text-anchor="middle" x="818.5" y="-163.5" font-family="Helvetica,sans-Serif" font-size="10.00">_builder.h</text>
</a>
</g>
</g>
<!-- Node18&#45;&gt;Node19 -->
<g id="edge21" class="edge"><title>Node18&#45;&gt;Node19</title>
<path fill="none" stroke="midnightblue" d="M809.305,-224.59C811.097,-215.511 813.025,-205.742 814.65,-197.506"/>
<polygon fill="midnightblue" stroke="midnightblue" points="805.866,-223.94 807.363,-234.428 812.733,-225.295 805.866,-223.94"/>
</g>
<!-- Node21 -->
<g id="node21" class="node"><title>Node21</title>
<g id="a_node21"><a xlink:href="../../dc/d33/standard__maze__builder_8h.html" target="_top" xlink:title="src/creational/src\l/builder/standard_maze\l_builder.h">
<polygon fill="white" stroke="black" points="895.5,-156.5 895.5,-197.5 1013.5,-197.5 1013.5,-156.5 895.5,-156.5"/>
<text text-anchor="start" x="903.5" y="-185.5" font-family="Helvetica,sans-Serif" font-size="10.00">src/creational/src</text>
<text text-anchor="start" x="903.5" y="-174.5" font-family="Helvetica,sans-Serif" font-size="10.00">/builder/standard_maze</text>
<text text-anchor="middle" x="954.5" y="-163.5" font-family="Helvetica,sans-Serif" font-size="10.00">_builder.h</text>
</a>
</g>
</g>
<!-- Node18&#45;&gt;Node21 -->
<g id="edge24" class="edge"><title>Node18&#45;&gt;Node21</title>
<path fill="none" stroke="midnightblue" d="M851.367,-229.908C872.129,-219.458 896.126,-207.38 915.746,-197.506"/>
<polygon fill="midnightblue" stroke="midnightblue" points="849.745,-226.806 842.386,-234.428 852.892,-233.059 849.745,-226.806"/>
</g>
<!-- Node19&#45;&gt;Node6 -->
<g id="edge23" class="edge"><title>Node19&#45;&gt;Node6</title>
<path fill="none" stroke="midnightblue" d="M750.147,-155.966C683.058,-138.172 664.663,-135.625 601.5,-120 598.616,-119.287 595.673,-118.556 592.701,-117.815"/>
<polygon fill="midnightblue" stroke="midnightblue" points="749.382,-159.384 759.946,-158.58 751.186,-152.621 749.382,-159.384"/>
</g>
<!-- Node20 -->
<g id="node20" class="node"><title>Node20</title>
<g id="a_node20"><a xlink:href="../../d3/d4e/counting__maze__builder_8cc.html" target="_top" xlink:title="src/creational/src\l/builder/counting_maze\l_builder.cc">
<polygon fill="white" stroke="black" points="1050,-78.5 1050,-119.5 1167,-119.5 1167,-78.5 1050,-78.5"/>
<text text-anchor="start" x="1058" y="-107.5" font-family="Helvetica,sans-Serif" font-size="10.00">src/creational/src</text>
<text text-anchor="start" x="1058" y="-96.5" font-family="Helvetica,sans-Serif" font-size="10.00">/builder/counting_maze</text>
<text text-anchor="middle" x="1108.5" y="-85.5" font-family="Helvetica,sans-Serif" font-size="10.00">_builder.cc</text>
</a>
</g>
</g>
<!-- Node19&#45;&gt;Node20 -->
<g id="edge22" class="edge"><title>Node19&#45;&gt;Node20</title>
<path fill="none" stroke="midnightblue" d="M887.131,-155.913C956.19,-138.027 975.587,-137.119 1040.5,-120 1043.59,-119.184 1046.76,-118.328 1049.95,-117.447"/>
<polygon fill="midnightblue" stroke="midnightblue" points="885.834,-152.634 877.047,-158.553 887.607,-159.406 885.834,-152.634"/>
</g>
<!-- Node21&#45;&gt;Node6 -->
<g id="edge26" class="edge"><title>Node21&#45;&gt;Node6</title>
<path fill="none" stroke="midnightblue" d="M885.143,-156.118C759.104,-130.87 723.339,-143.056 601.5,-120 598.581,-119.448 595.609,-118.851 592.613,-118.222"/>
<polygon fill="midnightblue" stroke="midnightblue" points="884.682,-159.596 895.18,-158.169 886.083,-152.738 884.682,-159.596"/>
</g>
<!-- Node22 -->
<g id="node22" class="node"><title>Node22</title>
<g id="a_node22"><a xlink:href="../../da/d3e/standard__maze__builder_8cc.html" target="_top" xlink:title="src/creational/src\l/builder/standard_maze\l_builder.cc">
<polygon fill="white" stroke="black" points="1185.5,-78.5 1185.5,-119.5 1303.5,-119.5 1303.5,-78.5 1185.5,-78.5"/>
<text text-anchor="start" x="1193.5" y="-107.5" font-family="Helvetica,sans-Serif" font-size="10.00">src/creational/src</text>
<text text-anchor="start" x="1193.5" y="-96.5" font-family="Helvetica,sans-Serif" font-size="10.00">/builder/standard_maze</text>
<text text-anchor="middle" x="1244.5" y="-85.5" font-family="Helvetica,sans-Serif" font-size="10.00">_builder.cc</text>
</a>
</g>
</g>
<!-- Node21&#45;&gt;Node22 -->
<g id="edge25" class="edge"><title>Node21&#45;&gt;Node22</title>
<path fill="none" stroke="midnightblue" d="M1023.67,-159.112C1067.32,-148.298 1124.82,-133.76 1175.5,-120 1178.75,-119.118 1182.08,-118.199 1185.44,-117.261"/>
<polygon fill="midnightblue" stroke="midnightblue" points="1022.6,-155.771 1013.74,-161.569 1024.29,-162.566 1022.6,-155.771"/>
</g>
<!-- Node24&#45;&gt;Node6 -->
<g id="edge30" class="edge"><title>Node24&#45;&gt;Node6</title>
<path fill="none" stroke="midnightblue" d="M584.085,-307.582C584.122,-272.76 581.207,-207.366 561.5,-156 556.45,-142.837 547.668,-129.811 539.714,-119.639"/>
<polygon fill="midnightblue" stroke="midnightblue" points="580.584,-307.724 583.987,-317.757 587.584,-307.791 580.584,-307.724"/>
</g>
<!-- Node24&#45;&gt;Node25 -->
<g id="edge31" class="edge"><title>Node24&#45;&gt;Node25</title>
<path fill="none" stroke="midnightblue" d="M605.814,-310.533C619.225,-297.632 635.919,-281.572 647.707,-270.231"/>
<polygon fill="midnightblue" stroke="midnightblue" points="603.139,-308.25 598.359,-317.705 607.992,-313.294 603.139,-308.25"/>
</g>
</g>
</svg>
