<?xml version="1.0" encoding="UTF-8" standalone="no"?>
<!DOCTYPE svg PUBLIC "-//W3C//DTD SVG 1.1//EN"
 "http://www.w3.org/Graphics/SVG/1.1/DTD/svg11.dtd">
<!-- Generated by graphviz version 2.38.0 (20140413.2041)
 -->
<!-- Title: structural::Decorator Pages: 1 -->
<svg width="290pt" height="298pt"
 viewBox="0.00 0.00 290.00 298.00" xmlns="http://www.w3.org/2000/svg" xmlns:xlink="http://www.w3.org/1999/xlink">
<g id="graph0" class="graph" transform="scale(1 1) rotate(0) translate(4 294)">
<title>structural::Decorator</title>
<polygon fill="white" stroke="none" points="-4,4 -4,-294 286,-294 286,4 -4,4"/>
<!-- Node1 -->
<g id="node1" class="node"><title>Node1</title>
<polygon fill="#bfbfbf" stroke="black" points="89.5,-105.5 89.5,-184.5 194.5,-184.5 194.5,-105.5 89.5,-105.5"/>
<text text-anchor="middle" x="142" y="-172.5" font-family="Helvetica,sans-Serif" font-size="10.00">structural::Decorator</text>
<polyline fill="none" stroke="black" points="89.5,-165.5 194.5,-165.5 "/>
<text text-anchor="middle" x="142" y="-153.5" font-family="Helvetica,sans-Serif" font-size="10.00"> </text>
<polyline fill="none" stroke="black" points="89.5,-146.5 194.5,-146.5 "/>
<text text-anchor="start" x="97.5" y="-134.5" font-family="Helvetica,sans-Serif" font-size="10.00">+ Decorator()</text>
<text text-anchor="start" x="97.5" y="-123.5" font-family="Helvetica,sans-Serif" font-size="10.00">+ Draw()</text>
<text text-anchor="start" x="97.5" y="-112.5" font-family="Helvetica,sans-Serif" font-size="10.00">+ Resize()</text>
</g>
<!-- Node3 -->
<g id="node3" class="node"><title>Node3</title>
<g id="a_node3"><a xlink:href="../../da/dd8/classstructural_1_1_border_decorator.html" target="_top" xlink:title="{structural::BorderDecorator\n||+ BorderDecorator()\l+ Draw()\l}">
<polygon fill="white" stroke="black" points="0,-0.5 0,-68.5 134,-68.5 134,-0.5 0,-0.5"/>
<text text-anchor="middle" x="67" y="-56.5" font-family="Helvetica,sans-Serif" font-size="10.00">structural::BorderDecorator</text>
<polyline fill="none" stroke="black" points="0,-49.5 134,-49.5 "/>
<text text-anchor="middle" x="67" y="-37.5" font-family="Helvetica,sans-Serif" font-size="10.00"> </text>
<polyline fill="none" stroke="black" points="0,-30.5 134,-30.5 "/>
<text text-anchor="start" x="8" y="-18.5" font-family="Helvetica,sans-Serif" font-size="10.00">+ BorderDecorator()</text>
<text text-anchor="start" x="8" y="-7.5" font-family="Helvetica,sans-Serif" font-size="10.00">+ Draw()</text>
</a>
</g>
</g>
<!-- Node1&#45;&gt;Node3 -->
<g id="edge2" class="edge"><title>Node1&#45;&gt;Node3</title>
<path fill="none" stroke="midnightblue" d="M109.581,-97.1011C102.933,-87.4829 96.0673,-77.5507 89.8414,-68.5439"/>
<polygon fill="none" stroke="midnightblue" points="106.781,-99.2056 115.347,-105.441 112.54,-95.2252 106.781,-99.2056"/>
</g>
<!-- Node4 -->
<g id="node4" class="node"><title>Node4</title>
<g id="a_node4"><a xlink:href="../../d9/d1f/classstructural_1_1_scroll_decorator.html" target="_top" xlink:title="{structural::ScrollDecorator\n||+ ScrollDecorator()\l}">
<polygon fill="white" stroke="black" points="152,-6 152,-63 282,-63 282,-6 152,-6"/>
<text text-anchor="middle" x="217" y="-51" font-family="Helvetica,sans-Serif" font-size="10.00">structural::ScrollDecorator</text>
<polyline fill="none" stroke="black" points="152,-44 282,-44 "/>
<text text-anchor="middle" x="217" y="-32" font-family="Helvetica,sans-Serif" font-size="10.00"> </text>
<polyline fill="none" stroke="black" points="152,-25 282,-25 "/>
<text text-anchor="start" x="160" y="-13" font-family="Helvetica,sans-Serif" font-size="10.00">+ ScrollDecorator()</text>
</a>
</g>
</g>
<!-- Node1&#45;&gt;Node4 -->
<g id="edge3" class="edge"><title>Node1&#45;&gt;Node4</title>
<path fill="none" stroke="midnightblue" d="M174.427,-97.0893C182.462,-85.465 190.814,-73.3826 197.97,-63.0304"/>
<polygon fill="none" stroke="midnightblue" points="171.46,-95.2252 168.653,-105.441 177.219,-99.2056 171.46,-95.2252"/>
</g>
<!-- Node2 -->
<g id="node2" class="node"><title>Node2</title>
<polygon fill="white" stroke="#bfbfbf" points="70.5,-221.5 70.5,-289.5 213.5,-289.5 213.5,-221.5 70.5,-221.5"/>
<text text-anchor="start" x="78.5" y="-277.5" font-family="Helvetica,sans-Serif" font-size="10.00">foundation::VisualComponent</text>
<text text-anchor="middle" x="142" y="-266.5" font-family="Helvetica,sans-Serif" font-size="10.00">Interface</text>
<polyline fill="none" stroke="#bfbfbf" points="70.5,-259.5 213.5,-259.5 "/>
<text text-anchor="middle" x="142" y="-247.5" font-family="Helvetica,sans-Serif" font-size="10.00"> </text>
<polyline fill="none" stroke="#bfbfbf" points="70.5,-240.5 213.5,-240.5 "/>
<text text-anchor="middle" x="142" y="-228.5" font-family="Helvetica,sans-Serif" font-size="10.00"> </text>
</g>
<!-- Node2&#45;&gt;Node1 -->
<g id="edge1" class="edge"><title>Node2&#45;&gt;Node1</title>
<path fill="none" stroke="midnightblue" d="M142,-211.274C142,-202.476 142,-193.275 142,-184.649"/>
<polygon fill="none" stroke="midnightblue" points="138.5,-211.357 142,-221.357 145.5,-211.357 138.5,-211.357"/>
</g>
</g>
</svg>
