<?xml version="1.0" encoding="UTF-8" standalone="no"?>
<!DOCTYPE svg PUBLIC "-//W3C//DTD SVG 1.1//EN"
 "http://www.w3.org/Graphics/SVG/1.1/DTD/svg11.dtd">
<!-- Generated by graphviz version 2.38.0 (20140413.2041)
 -->
<!-- Title: src/operational/src/visitor/floppy_disk.h Pages: 1 -->
<svg width="244pt" height="117pt"
 viewBox="0.00 0.00 243.50 117.00" xmlns="http://www.w3.org/2000/svg" xmlns:xlink="http://www.w3.org/1999/xlink">
<g id="graph0" class="graph" transform="scale(1 1) rotate(0) translate(4 113)">
<title>src/operational/src/visitor/floppy_disk.h</title>
<polygon fill="white" stroke="none" points="-4,4 -4,-113 239.5,-113 239.5,4 -4,4"/>
<!-- Node1 -->
<g id="node1" class="node"><title>Node1</title>
<polygon fill="#bfbfbf" stroke="black" points="66,-78.5 66,-108.5 170,-108.5 170,-78.5 66,-78.5"/>
<text text-anchor="start" x="74" y="-96.5" font-family="Helvetica,sans-Serif" font-size="10.00">src/operational/src</text>
<text text-anchor="middle" x="118" y="-85.5" font-family="Helvetica,sans-Serif" font-size="10.00">/visitor/floppy_disk.h</text>
</g>
<!-- Node2 -->
<g id="node2" class="node"><title>Node2</title>
<g id="a_node2"><a xlink:href="../../d5/d33/operational_2src_2visitor_2floppy__disk_8cc.html" target="_top" xlink:title="src/operational/src\l/visitor/floppy_disk.cc">
<polygon fill="white" stroke="black" points="0,-6 0,-36 110,-36 110,-6 0,-6"/>
<text text-anchor="start" x="8" y="-24" font-family="Helvetica,sans-Serif" font-size="10.00">src/operational/src</text>
<text text-anchor="middle" x="55" y="-13" font-family="Helvetica,sans-Serif" font-size="10.00">/visitor/floppy_disk.cc</text>
</a>
</g>
</g>
<!-- Node1&#45;&gt;Node2 -->
<g id="edge1" class="edge"><title>Node1&#45;&gt;Node2</title>
<path fill="none" stroke="midnightblue" d="M98.3752,-70.5389C88.3821,-59.3562 76.521,-46.0831 67.73,-36.2455"/>
<polygon fill="midnightblue" stroke="midnightblue" points="95.9779,-73.1089 105.251,-78.2333 101.197,-68.4445 95.9779,-73.1089"/>
</g>
<!-- Node3 -->
<g id="node3" class="node"><title>Node3</title>
<g id="a_node3"><a xlink:href="../../dc/d3a/visitor__test_8cc.html" target="_top" xlink:title="src/operational_tests\l/src/visitor/visitor\l_test.cc">
<polygon fill="white" stroke="black" points="128.5,-0.5 128.5,-41.5 235.5,-41.5 235.5,-0.5 128.5,-0.5"/>
<text text-anchor="start" x="136.5" y="-29.5" font-family="Helvetica,sans-Serif" font-size="10.00">src/operational_tests</text>
<text text-anchor="start" x="136.5" y="-18.5" font-family="Helvetica,sans-Serif" font-size="10.00">/src/visitor/visitor</text>
<text text-anchor="middle" x="182" y="-7.5" font-family="Helvetica,sans-Serif" font-size="10.00">_test.cc</text>
</a>
</g>
</g>
<!-- Node1&#45;&gt;Node3 -->
<g id="edge2" class="edge"><title>Node1&#45;&gt;Node3</title>
<path fill="none" stroke="midnightblue" d="M137.68,-70.8213C146.147,-61.4941 155.973,-50.6707 164.218,-41.5884"/>
<polygon fill="midnightblue" stroke="midnightblue" points="135.081,-68.4766 130.951,-78.2333 140.264,-73.1816 135.081,-68.4766"/>
</g>
</g>
</svg>
