<?xml version="1.0" encoding="UTF-8" standalone="no"?>
<!DOCTYPE svg PUBLIC "-//W3C//DTD SVG 1.1//EN"
 "http://www.w3.org/Graphics/SVG/1.1/DTD/svg11.dtd">
<!-- Generated by graphviz version 2.38.0 (20140413.2041)
 -->
<!-- Title: operational::memento::ConstraintSolverInterface::Solve Pages: 1 -->
<svg width="316pt" height="88pt"
 viewBox="0.00 0.00 316.00 88.00" xmlns="http://www.w3.org/2000/svg" xmlns:xlink="http://www.w3.org/1999/xlink">
<g id="graph0" class="graph" transform="scale(1 1) rotate(0) translate(4 84)">
<title>operational::memento::ConstraintSolverInterface::Solve</title>
<polygon fill="white" stroke="none" points="-4,4 -4,-84 312,-84 312,4 -4,4"/>
<!-- Node1 -->
<g id="node1" class="node"><title>Node1</title>
<polygon fill="#bfbfbf" stroke="black" points="0,-19 0,-60 130,-60 130,-19 0,-19"/>
<text text-anchor="start" x="8" y="-48" font-family="Helvetica,sans-Serif" font-size="10.00">operational::memento</text>
<text text-anchor="start" x="8" y="-37" font-family="Helvetica,sans-Serif" font-size="10.00">::ConstraintSolverInterface</text>
<text text-anchor="middle" x="65" y="-26" font-family="Helvetica,sans-Serif" font-size="10.00">::Solve</text>
</g>
<!-- Node2 -->
<g id="node2" class="node"><title>Node2</title>
<g id="a_node2"><a xlink:href="../../d0/d08/classoperational_1_1memento_1_1_move_command.html#a1d4047a201521463c1d41dc7a4f2b610" target="_top" xlink:title="operational::memento\l::MoveCommand::Execute">
<polygon fill="white" stroke="black" points="171.5,-49.5 171.5,-79.5 302.5,-79.5 302.5,-49.5 171.5,-49.5"/>
<text text-anchor="start" x="179.5" y="-67.5" font-family="Helvetica,sans-Serif" font-size="10.00">operational::memento</text>
<text text-anchor="middle" x="237" y="-56.5" font-family="Helvetica,sans-Serif" font-size="10.00">::MoveCommand::Execute</text>
</a>
</g>
</g>
<!-- Node1&#45;&gt;Node2 -->
<g id="edge1" class="edge"><title>Node1&#45;&gt;Node2</title>
<path fill="none" stroke="midnightblue" d="M140.469,-50.4514C150.761,-51.9649 161.263,-53.5092 171.357,-54.9937"/>
<polygon fill="midnightblue" stroke="midnightblue" points="140.673,-46.9437 130.27,-48.9514 139.654,-53.8692 140.673,-46.9437"/>
</g>
<!-- Node3 -->
<g id="node3" class="node"><title>Node3</title>
<g id="a_node3"><a xlink:href="../../d0/d08/classoperational_1_1memento_1_1_move_command.html#a35eac87f65274c9a08fa98ee8e36bb72" target="_top" xlink:title="operational::memento\l::MoveCommand::Unexecute">
<polygon fill="white" stroke="black" points="166,-0.5 166,-30.5 308,-30.5 308,-0.5 166,-0.5"/>
<text text-anchor="start" x="174" y="-18.5" font-family="Helvetica,sans-Serif" font-size="10.00">operational::memento</text>
<text text-anchor="middle" x="237" y="-7.5" font-family="Helvetica,sans-Serif" font-size="10.00">::MoveCommand::Unexecute</text>
</a>
</g>
</g>
<!-- Node1&#45;&gt;Node3 -->
<g id="edge2" class="edge"><title>Node1&#45;&gt;Node3</title>
<path fill="none" stroke="midnightblue" d="M140.217,-29.0222C148.767,-27.8152 157.465,-26.5873 165.957,-25.3884"/>
<polygon fill="midnightblue" stroke="midnightblue" points="139.682,-25.563 130.27,-30.4266 140.661,-32.4943 139.682,-25.563"/>
</g>
</g>
</svg>
