<?xml version="1.0" encoding="UTF-8" standalone="no"?>
<!DOCTYPE svg PUBLIC "-//W3C//DTD SVG 1.1//EN"
 "http://www.w3.org/Graphics/SVG/1.1/DTD/svg11.dtd">
<!-- Generated by graphviz version 2.38.0 (20140413.2041)
 -->
<!-- Title: operational::memento::ConstraintSolverInterface::CreateMemento Pages: 1 -->
<svg width="305pt" height="50pt"
 viewBox="0.00 0.00 305.00 50.00" xmlns="http://www.w3.org/2000/svg" xmlns:xlink="http://www.w3.org/1999/xlink">
<g id="graph0" class="graph" transform="scale(1 1) rotate(0) translate(4 46)">
<title>operational::memento::ConstraintSolverInterface::CreateMemento</title>
<polygon fill="white" stroke="none" points="-4,4 -4,-46 301,-46 301,4 -4,4"/>
<!-- Node1 -->
<g id="node1" class="node"><title>Node1</title>
<polygon fill="#bfbfbf" stroke="black" points="0,-0.5 0,-41.5 130,-41.5 130,-0.5 0,-0.5"/>
<text text-anchor="start" x="8" y="-29.5" font-family="Helvetica,sans-Serif" font-size="10.00">operational::memento</text>
<text text-anchor="start" x="8" y="-18.5" font-family="Helvetica,sans-Serif" font-size="10.00">::ConstraintSolverInterface</text>
<text text-anchor="middle" x="65" y="-7.5" font-family="Helvetica,sans-Serif" font-size="10.00">::CreateMemento</text>
</g>
<!-- Node2 -->
<g id="node2" class="node"><title>Node2</title>
<g id="a_node2"><a xlink:href="../../d0/d08/classoperational_1_1memento_1_1_move_command.html#a1d4047a201521463c1d41dc7a4f2b610" target="_top" xlink:title="operational::memento\l::MoveCommand::Execute">
<polygon fill="white" stroke="black" points="166,-6 166,-36 297,-36 297,-6 166,-6"/>
<text text-anchor="start" x="174" y="-24" font-family="Helvetica,sans-Serif" font-size="10.00">operational::memento</text>
<text text-anchor="middle" x="231.5" y="-13" font-family="Helvetica,sans-Serif" font-size="10.00">::MoveCommand::Execute</text>
</a>
</g>
</g>
<!-- Node1&#45;&gt;Node2 -->
<g id="edge1" class="edge"><title>Node1&#45;&gt;Node2</title>
<path fill="none" stroke="midnightblue" d="M140.347,-21C148.837,-21 157.441,-21 165.791,-21"/>
<polygon fill="midnightblue" stroke="midnightblue" points="140.071,-17.5001 130.071,-21 140.071,-24.5001 140.071,-17.5001"/>
</g>
</g>
</svg>
