<?xml version="1.0" encoding="UTF-8" standalone="no"?>
<!DOCTYPE svg PUBLIC "-//W3C//DTD SVG 1.1//EN"
 "http://www.w3.org/Graphics/SVG/1.1/DTD/svg11.dtd">
<!-- Generated by graphviz version 2.38.0 (20140413.2041)
 -->
<!-- Title: operational::iterator::ListIterator&lt; Item &gt; Pages: 1 -->
<svg width="113pt" height="292pt"
 viewBox="0.00 0.00 113.00 292.00" xmlns="http://www.w3.org/2000/svg" xmlns:xlink="http://www.w3.org/1999/xlink">
<g id="graph0" class="graph" transform="scale(1 1) rotate(0) translate(4 288)">
<title>operational::iterator::ListIterator&lt; Item &gt;</title>
<polygon fill="white" stroke="none" points="-4,4 -4,-288 109,-288 109,4 -4,4"/>
<!-- Node1 -->
<g id="node1" class="node"><title>Node1</title>
<polygon fill="#bfbfbf" stroke="black" points="0,-0.5 0,-123.5 105,-123.5 105,-0.5 0,-0.5"/>
<text text-anchor="start" x="8" y="-111.5" font-family="Helvetica,sans-Serif" font-size="10.00">operational::iterator</text>
<text text-anchor="middle" x="52.5" y="-100.5" font-family="Helvetica,sans-Serif" font-size="10.00">::ListIterator&lt; Item &gt;</text>
<polyline fill="none" stroke="black" points="0,-93.5 105,-93.5 "/>
<text text-anchor="middle" x="52.5" y="-81.5" font-family="Helvetica,sans-Serif" font-size="10.00"> </text>
<polyline fill="none" stroke="black" points="0,-74.5 105,-74.5 "/>
<text text-anchor="start" x="8" y="-62.5" font-family="Helvetica,sans-Serif" font-size="10.00">+ ListIterator()</text>
<text text-anchor="start" x="8" y="-51.5" font-family="Helvetica,sans-Serif" font-size="10.00">+ ~ListIterator()</text>
<text text-anchor="start" x="8" y="-40.5" font-family="Helvetica,sans-Serif" font-size="10.00">+ First()</text>
<text text-anchor="start" x="8" y="-29.5" font-family="Helvetica,sans-Serif" font-size="10.00">+ Next()</text>
<text text-anchor="start" x="8" y="-18.5" font-family="Helvetica,sans-Serif" font-size="10.00">+ IsDone()</text>
<text text-anchor="start" x="8" y="-7.5" font-family="Helvetica,sans-Serif" font-size="10.00">+ CurrentItem()</text>
</g>
<!-- Node2 -->
<g id="node2" class="node"><title>Node2</title>
<g id="a_node2"><a xlink:href="../../da/daf/classoperational_1_1iterator_1_1_iterator_interface.html" target="_top" xlink:title="{operational::iterator\l::IteratorInterface\&lt;\l Item \&gt;\n||+ ~IteratorInterface()\l+ First()\l+ Next()\l+ IsDone()\l+ CurrentItem()\l}">
<polygon fill="white" stroke="black" points="0.5,-160.5 0.5,-283.5 104.5,-283.5 104.5,-160.5 0.5,-160.5"/>
<text text-anchor="start" x="8.5" y="-271.5" font-family="Helvetica,sans-Serif" font-size="10.00">operational::iterator</text>
<text text-anchor="start" x="8.5" y="-260.5" font-family="Helvetica,sans-Serif" font-size="10.00">::IteratorInterface&lt;</text>
<text text-anchor="middle" x="52.5" y="-249.5" font-family="Helvetica,sans-Serif" font-size="10.00"> Item &gt;</text>
<polyline fill="none" stroke="black" points="0.5,-242.5 104.5,-242.5 "/>
<text text-anchor="middle" x="52.5" y="-230.5" font-family="Helvetica,sans-Serif" font-size="10.00"> </text>
<polyline fill="none" stroke="black" points="0.5,-223.5 104.5,-223.5 "/>
<text text-anchor="start" x="8.5" y="-211.5" font-family="Helvetica,sans-Serif" font-size="10.00">+ ~IteratorInterface()</text>
<text text-anchor="start" x="8.5" y="-200.5" font-family="Helvetica,sans-Serif" font-size="10.00">+ First()</text>
<text text-anchor="start" x="8.5" y="-189.5" font-family="Helvetica,sans-Serif" font-size="10.00">+ Next()</text>
<text text-anchor="start" x="8.5" y="-178.5" font-family="Helvetica,sans-Serif" font-size="10.00">+ IsDone()</text>
<text text-anchor="start" x="8.5" y="-167.5" font-family="Helvetica,sans-Serif" font-size="10.00">+ CurrentItem()</text>
</a>
</g>
</g>
<!-- Node2&#45;&gt;Node1 -->
<g id="edge1" class="edge"><title>Node2&#45;&gt;Node1</title>
<path fill="none" stroke="midnightblue" d="M52.5,-150.116C52.5,-141.31 52.5,-132.368 52.5,-123.734"/>
<polygon fill="none" stroke="midnightblue" points="49.0001,-150.365 52.5,-160.365 56.0001,-150.365 49.0001,-150.365"/>
</g>
</g>
</svg>
