<?xml version="1.0" encoding="UTF-8" standalone="no"?>
<!DOCTYPE svg PUBLIC "-//W3C//DTD SVG 1.1//EN"
 "http://www.w3.org/Graphics/SVG/1.1/DTD/svg11.dtd">
<!-- Generated by graphviz version 2.38.0 (20140413.2041)
 -->
<!-- Title: creationaltests::TEST_CLASS Pages: 1 -->
<svg width="410pt" height="137pt"
 viewBox="0.00 0.00 410.00 137.00" xmlns="http://www.w3.org/2000/svg" xmlns:xlink="http://www.w3.org/1999/xlink">
<g id="graph0" class="graph" transform="scale(1 1) rotate(0) translate(4 133)">
<title>creationaltests::TEST_CLASS</title>
<polygon fill="white" stroke="none" points="-4,4 -4,-133 406,-133 406,4 -4,4"/>
<!-- Node1 -->
<g id="node1" class="node"><title>Node1</title>
<polygon fill="#bfbfbf" stroke="black" points="0,-49.5 0,-79.5 110,-79.5 110,-49.5 0,-49.5"/>
<text text-anchor="start" x="8" y="-67.5" font-family="Helvetica,sans-Serif" font-size="10.00">creationaltests::TEST</text>
<text text-anchor="middle" x="55" y="-56.5" font-family="Helvetica,sans-Serif" font-size="10.00">_CLASS</text>
</g>
<!-- Node2 -->
<g id="node2" class="node"><title>Node2</title>
<g id="a_node2"><a xlink:href="../../de/d93/classcreational_1_1commons_1_1_maze.html#a8b364f1371af7ccbf7b8d3fcffe79426" target="_top" xlink:title="creational::commons\l::Maze::AddRoom">
<polygon fill="white" stroke="black" points="146,-98.5 146,-128.5 253,-128.5 253,-98.5 146,-98.5"/>
<text text-anchor="start" x="154" y="-116.5" font-family="Helvetica,sans-Serif" font-size="10.00">creational::commons</text>
<text text-anchor="middle" x="199.5" y="-105.5" font-family="Helvetica,sans-Serif" font-size="10.00">::Maze::AddRoom</text>
</a>
</g>
</g>
<!-- Node1&#45;&gt;Node2 -->
<g id="edge1" class="edge"><title>Node1&#45;&gt;Node2</title>
<path fill="none" stroke="midnightblue" d="M99.9175,-79.6014C114.139,-84.4917 130.073,-89.9707 144.915,-95.0744"/>
<polygon fill="midnightblue" stroke="midnightblue" points="143.888,-98.4221 154.482,-98.3641 146.164,-91.8025 143.888,-98.4221"/>
</g>
<!-- Node4 -->
<g id="node4" class="node"><title>Node4</title>
<g id="a_node4"><a xlink:href="../../de/d93/classcreational_1_1commons_1_1_maze.html#ad256d63371ad6cb0d230f66ed5eee14b" target="_top" xlink:title="creational::commons\l::Maze::GetRoom">
<polygon fill="white" stroke="black" points="146,-49.5 146,-79.5 253,-79.5 253,-49.5 146,-49.5"/>
<text text-anchor="start" x="154" y="-67.5" font-family="Helvetica,sans-Serif" font-size="10.00">creational::commons</text>
<text text-anchor="middle" x="199.5" y="-56.5" font-family="Helvetica,sans-Serif" font-size="10.00">::Maze::GetRoom</text>
</a>
</g>
</g>
<!-- Node1&#45;&gt;Node4 -->
<g id="edge3" class="edge"><title>Node1&#45;&gt;Node4</title>
<path fill="none" stroke="midnightblue" d="M110.28,-64.5C118.555,-64.5 127.156,-64.5 135.597,-64.5"/>
<polygon fill="midnightblue" stroke="midnightblue" points="135.783,-68.0001 145.783,-64.5 135.783,-61.0001 135.783,-68.0001"/>
</g>
<!-- Node5 -->
<g id="node5" class="node"><title>Node5</title>
<g id="a_node5"><a xlink:href="../../de/d93/classcreational_1_1commons_1_1_maze.html#add58f8dca9989c22eef860467f9047be" target="_top" xlink:title="creational::commons\l::Maze::Clone">
<polygon fill="white" stroke="black" points="146,-0.5 146,-30.5 253,-30.5 253,-0.5 146,-0.5"/>
<text text-anchor="start" x="154" y="-18.5" font-family="Helvetica,sans-Serif" font-size="10.00">creational::commons</text>
<text text-anchor="middle" x="199.5" y="-7.5" font-family="Helvetica,sans-Serif" font-size="10.00">::Maze::Clone</text>
</a>
</g>
</g>
<!-- Node1&#45;&gt;Node5 -->
<g id="edge4" class="edge"><title>Node1&#45;&gt;Node5</title>
<path fill="none" stroke="midnightblue" d="M99.9175,-49.3986C114.139,-44.5083 130.073,-39.0293 144.915,-33.9256"/>
<polygon fill="midnightblue" stroke="midnightblue" points="146.164,-37.1975 154.482,-30.6359 143.888,-30.5779 146.164,-37.1975"/>
</g>
<!-- Node3 -->
<g id="node3" class="node"><title>Node3</title>
<g id="a_node3"><a xlink:href="../../d7/d33/classcreational_1_1commons_1_1_room.html#ae23154964af6170704b85d49d3d30536" target="_top" xlink:title="creational::commons\l::Room::room_number">
<polygon fill="white" stroke="black" points="289,-98.5 289,-128.5 402,-128.5 402,-98.5 289,-98.5"/>
<text text-anchor="start" x="297" y="-116.5" font-family="Helvetica,sans-Serif" font-size="10.00">creational::commons</text>
<text text-anchor="middle" x="345.5" y="-105.5" font-family="Helvetica,sans-Serif" font-size="10.00">::Room::room_number</text>
</a>
</g>
</g>
<!-- Node2&#45;&gt;Node3 -->
<g id="edge2" class="edge"><title>Node2&#45;&gt;Node3</title>
<path fill="none" stroke="midnightblue" d="M253.303,-113.5C261.52,-113.5 270.098,-113.5 278.562,-113.5"/>
<polygon fill="midnightblue" stroke="midnightblue" points="278.8,-117 288.8,-113.5 278.8,-110 278.8,-117"/>
</g>
<!-- Node6 -->
<g id="node6" class="node"><title>Node6</title>
<g id="a_node6"><a xlink:href="../../de/d93/classcreational_1_1commons_1_1_maze.html#a3a09ca9b2e791fc5f7cd57e73d240fca" target="_top" xlink:title="creational::commons\l::Maze::Maze">
<polygon fill="white" stroke="black" points="292,-0.5 292,-30.5 399,-30.5 399,-0.5 292,-0.5"/>
<text text-anchor="start" x="300" y="-18.5" font-family="Helvetica,sans-Serif" font-size="10.00">creational::commons</text>
<text text-anchor="middle" x="345.5" y="-7.5" font-family="Helvetica,sans-Serif" font-size="10.00">::Maze::Maze</text>
</a>
</g>
</g>
<!-- Node5&#45;&gt;Node6 -->
<g id="edge5" class="edge"><title>Node5&#45;&gt;Node6</title>
<path fill="none" stroke="midnightblue" d="M253.303,-15.5C262.498,-15.5 272.145,-15.5 281.58,-15.5"/>
<polygon fill="midnightblue" stroke="midnightblue" points="281.704,-19.0001 291.704,-15.5 281.704,-12.0001 281.704,-19.0001"/>
</g>
</g>
</svg>
