<?xml version="1.0" encoding="UTF-8" standalone="no"?>
<!DOCTYPE svg PUBLIC "-//W3C//DTD SVG 1.1//EN"
 "http://www.w3.org/Graphics/SVG/1.1/DTD/svg11.dtd">
<!-- Generated by graphviz version 2.38.0 (20140413.2041)
 -->
<!-- Title: creationaltests::TEST_CLASS Pages: 1 -->
<svg width="537pt" height="586pt"
 viewBox="0.00 0.00 537.00 586.00" xmlns="http://www.w3.org/2000/svg" xmlns:xlink="http://www.w3.org/1999/xlink">
<g id="graph0" class="graph" transform="scale(1 1) rotate(0) translate(4 582)">
<title>creationaltests::TEST_CLASS</title>
<polygon fill="white" stroke="none" points="-4,4 -4,-582 533,-582 533,4 -4,4"/>
<!-- Node1 -->
<g id="node1" class="node"><title>Node1</title>
<polygon fill="#bfbfbf" stroke="black" points="0,-274.5 0,-304.5 110,-304.5 110,-274.5 0,-274.5"/>
<text text-anchor="start" x="8" y="-292.5" font-family="Helvetica,sans-Serif" font-size="10.00">creationaltests::TEST</text>
<text text-anchor="middle" x="55" y="-281.5" font-family="Helvetica,sans-Serif" font-size="10.00">_CLASS</text>
</g>
<!-- Node2 -->
<g id="node2" class="node"><title>Node2</title>
<g id="a_node2"><a xlink:href="../../d3/dc1/classcreationaltests_1_1validation_1_1_validator.html#a1de212335c6067e31f4fde0e6660655e" target="_top" xlink:title="creationaltests::validation\l::Validator::BasicMazeConfiguration">
<polygon fill="white" stroke="black" points="162,-547.5 162,-577.5 334,-577.5 334,-547.5 162,-547.5"/>
<text text-anchor="start" x="170" y="-565.5" font-family="Helvetica,sans-Serif" font-size="10.00">creationaltests::validation</text>
<text text-anchor="middle" x="248" y="-554.5" font-family="Helvetica,sans-Serif" font-size="10.00">::Validator::BasicMazeConfiguration</text>
</a>
</g>
</g>
<!-- Node1&#45;&gt;Node2 -->
<g id="edge1" class="edge"><title>Node1&#45;&gt;Node2</title>
<path fill="none" stroke="midnightblue" d="M56.6974,-304.504C59.5559,-347.846 73.9807,-474.226 146,-538.5 148.206,-540.469 150.544,-542.284 152.988,-543.957"/>
<polygon fill="midnightblue" stroke="midnightblue" points="151.285,-547.016 161.67,-549.114 154.86,-540.997 151.285,-547.016"/>
</g>
<!-- Node3 -->
<g id="node3" class="node"><title>Node3</title>
<g id="a_node3"><a xlink:href="../../d7/d1d/classcreational_1_1_maze_game.html#a7eced077acb7ebfb9220344d2484c583" target="_top" xlink:title="creational::MazeGame\l::CreateMaze">
<polygon fill="white" stroke="black" points="190.5,-498.5 190.5,-528.5 305.5,-528.5 305.5,-498.5 190.5,-498.5"/>
<text text-anchor="start" x="198.5" y="-516.5" font-family="Helvetica,sans-Serif" font-size="10.00">creational::MazeGame</text>
<text text-anchor="middle" x="248" y="-505.5" font-family="Helvetica,sans-Serif" font-size="10.00">::CreateMaze</text>
</a>
</g>
</g>
<!-- Node1&#45;&gt;Node3 -->
<g id="edge2" class="edge"><title>Node1&#45;&gt;Node3</title>
<path fill="none" stroke="midnightblue" d="M58.1741,-304.503C64.419,-341.918 85.9775,-439.899 146,-489.5 155.866,-497.653 168.031,-503.13 180.46,-506.787"/>
<polygon fill="midnightblue" stroke="midnightblue" points="179.889,-510.254 190.445,-509.347 181.627,-503.474 179.889,-510.254"/>
</g>
<!-- Node4 -->
<g id="node4" class="node"><title>Node4</title>
<g id="a_node4"><a xlink:href="../../d7/d1d/classcreational_1_1_maze_game.html#a0dc6e53c92678f3e76ab7d2a2a10ab11" target="_top" xlink:title="creational::MazeGame\l::CreateSimpleMaze">
<polygon fill="white" stroke="black" points="190.5,-449.5 190.5,-479.5 305.5,-479.5 305.5,-449.5 190.5,-449.5"/>
<text text-anchor="start" x="198.5" y="-467.5" font-family="Helvetica,sans-Serif" font-size="10.00">creational::MazeGame</text>
<text text-anchor="middle" x="248" y="-456.5" font-family="Helvetica,sans-Serif" font-size="10.00">::CreateSimpleMaze</text>
</a>
</g>
</g>
<!-- Node1&#45;&gt;Node4 -->
<g id="edge3" class="edge"><title>Node1&#45;&gt;Node4</title>
<path fill="none" stroke="midnightblue" d="M60.6257,-304.526C70.8056,-334.988 98.1321,-404.119 146,-439.5 156.144,-446.998 168.269,-452.265 180.54,-455.962"/>
<polygon fill="midnightblue" stroke="midnightblue" points="179.812,-459.39 190.377,-458.601 181.626,-452.629 179.812,-459.39"/>
</g>
<!-- Node5 -->
<g id="node5" class="node"><title>Node5</title>
<g id="a_node5"><a xlink:href="../../d3/dc1/classcreationaltests_1_1validation_1_1_validator.html#a450e36d943e34886ae3bc1965c818781" target="_top" xlink:title="creationaltests::validation\l::Validator::FactoryMethodsMaze\lConfiguration">
<polygon fill="white" stroke="black" points="167.5,-389 167.5,-430 328.5,-430 328.5,-389 167.5,-389"/>
<text text-anchor="start" x="175.5" y="-418" font-family="Helvetica,sans-Serif" font-size="10.00">creationaltests::validation</text>
<text text-anchor="start" x="175.5" y="-407" font-family="Helvetica,sans-Serif" font-size="10.00">::Validator::FactoryMethodsMaze</text>
<text text-anchor="middle" x="248" y="-396" font-family="Helvetica,sans-Serif" font-size="10.00">Configuration</text>
</a>
</g>
</g>
<!-- Node1&#45;&gt;Node5 -->
<g id="edge4" class="edge"><title>Node1&#45;&gt;Node5</title>
<path fill="none" stroke="midnightblue" d="M67.0843,-304.545C82.5762,-324.525 112.584,-359.603 146,-379.5 149.862,-381.799 153.912,-383.934 158.08,-385.914"/>
<polygon fill="midnightblue" stroke="midnightblue" points="156.802,-389.175 167.364,-390.005 159.625,-382.769 156.802,-389.175"/>
</g>
<!-- Node6 -->
<g id="node6" class="node"><title>Node6</title>
<g id="a_node6"><a xlink:href="../../d3/dc1/classcreationaltests_1_1validation_1_1_validator.html#aacfbf1a655bba59ad4c21a80dc01816c" target="_top" xlink:title="creationaltests::validation\l::Validator::BombedMazeFactoryMaze\lConfiguration">
<polygon fill="white" stroke="black" points="156,-329 156,-370 340,-370 340,-329 156,-329"/>
<text text-anchor="start" x="164" y="-358" font-family="Helvetica,sans-Serif" font-size="10.00">creationaltests::validation</text>
<text text-anchor="start" x="164" y="-347" font-family="Helvetica,sans-Serif" font-size="10.00">::Validator::BombedMazeFactoryMaze</text>
<text text-anchor="middle" x="248" y="-336" font-family="Helvetica,sans-Serif" font-size="10.00">Configuration</text>
</a>
</g>
</g>
<!-- Node1&#45;&gt;Node6 -->
<g id="edge5" class="edge"><title>Node1&#45;&gt;Node6</title>
<path fill="none" stroke="midnightblue" d="M100.309,-304.593C114.835,-309.454 131.077,-314.798 146,-319.5 152.837,-321.654 159.947,-323.852 167.087,-326.029"/>
<polygon fill="midnightblue" stroke="midnightblue" points="166.233,-329.428 176.819,-328.98 168.265,-322.729 166.233,-329.428"/>
</g>
<!-- Node7 -->
<g id="node7" class="node"><title>Node7</title>
<g id="a_node7"><a xlink:href="../../d3/dc1/classcreationaltests_1_1validation_1_1_validator.html#a0dd8786ac08d8c7eb146ec625a89500f" target="_top" xlink:title="creationaltests::validation\l::Validator::EnchantedMazeFactory\lMazeConfiguration">
<polygon fill="white" stroke="black" points="163,-269 163,-310 333,-310 333,-269 163,-269"/>
<text text-anchor="start" x="171" y="-298" font-family="Helvetica,sans-Serif" font-size="10.00">creationaltests::validation</text>
<text text-anchor="start" x="171" y="-287" font-family="Helvetica,sans-Serif" font-size="10.00">::Validator::EnchantedMazeFactory</text>
<text text-anchor="middle" x="248" y="-276" font-family="Helvetica,sans-Serif" font-size="10.00">MazeConfiguration</text>
</a>
</g>
</g>
<!-- Node1&#45;&gt;Node7 -->
<g id="edge6" class="edge"><title>Node1&#45;&gt;Node7</title>
<path fill="none" stroke="midnightblue" d="M110.222,-289.5C123.484,-289.5 138.062,-289.5 152.605,-289.5"/>
<polygon fill="midnightblue" stroke="midnightblue" points="152.651,-293 162.651,-289.5 152.651,-286 152.651,-293"/>
</g>
<!-- Node8 -->
<g id="node8" class="node"><title>Node8</title>
<g id="a_node8"><a xlink:href="../../d3/dc1/classcreationaltests_1_1validation_1_1_validator.html#a5fbbc44877bc73eb32d29c272aeaeab8" target="_top" xlink:title="creationaltests::validation\l::Validator::MazeFactoryMazeConfiguration">
<polygon fill="white" stroke="black" points="146,-219.5 146,-249.5 350,-249.5 350,-219.5 146,-219.5"/>
<text text-anchor="start" x="154" y="-237.5" font-family="Helvetica,sans-Serif" font-size="10.00">creationaltests::validation</text>
<text text-anchor="middle" x="248" y="-226.5" font-family="Helvetica,sans-Serif" font-size="10.00">::Validator::MazeFactoryMazeConfiguration</text>
</a>
</g>
</g>
<!-- Node1&#45;&gt;Node8 -->
<g id="edge7" class="edge"><title>Node1&#45;&gt;Node8</title>
<path fill="none" stroke="midnightblue" d="M98.8152,-274.459C113.675,-269.445 130.498,-263.995 146,-259.5 154.728,-256.97 163.925,-254.468 173.071,-252.082"/>
<polygon fill="midnightblue" stroke="midnightblue" points="174.136,-255.422 182.95,-249.543 172.394,-248.643 174.136,-255.422"/>
</g>
<!-- Node9 -->
<g id="node9" class="node"><title>Node9</title>
<g id="a_node9"><a xlink:href="../../d6/d04/classcreational_1_1abstractfactory_1_1_maze_factory.html#abc22d6ea5cb254544897807f040bf850" target="_top" xlink:title="creational::abstractfactory\l::MazeFactory::Instance">
<polygon fill="white" stroke="black" points="183.5,-170.5 183.5,-200.5 312.5,-200.5 312.5,-170.5 183.5,-170.5"/>
<text text-anchor="start" x="191.5" y="-188.5" font-family="Helvetica,sans-Serif" font-size="10.00">creational::abstractfactory</text>
<text text-anchor="middle" x="248" y="-177.5" font-family="Helvetica,sans-Serif" font-size="10.00">::MazeFactory::Instance</text>
</a>
</g>
</g>
<!-- Node1&#45;&gt;Node9 -->
<g id="edge8" class="edge"><title>Node1&#45;&gt;Node9</title>
<path fill="none" stroke="midnightblue" d="M69.041,-274.286C85.2654,-256.335 114.675,-226.869 146,-210.5 154.645,-205.982 164.137,-202.258 173.734,-199.194"/>
<polygon fill="midnightblue" stroke="midnightblue" points="174.747,-202.544 183.339,-196.345 172.756,-195.833 174.747,-202.544"/>
</g>
<!-- Node11 -->
<g id="node11" class="node"><title>Node11</title>
<g id="a_node11"><a xlink:href="../../d3/dc1/classcreationaltests_1_1validation_1_1_validator.html#ae62c303ed9ca2a22da43919c2dd4b5d6" target="_top" xlink:title="creationaltests::validation\l::Validator::StandardMazeBuilder\lConfiguration">
<polygon fill="white" stroke="black" points="168,-110 168,-151 328,-151 328,-110 168,-110"/>
<text text-anchor="start" x="176" y="-139" font-family="Helvetica,sans-Serif" font-size="10.00">creationaltests::validation</text>
<text text-anchor="start" x="176" y="-128" font-family="Helvetica,sans-Serif" font-size="10.00">::Validator::StandardMazeBuilder</text>
<text text-anchor="middle" x="248" y="-117" font-family="Helvetica,sans-Serif" font-size="10.00">Configuration</text>
</a>
</g>
</g>
<!-- Node1&#45;&gt;Node11 -->
<g id="edge10" class="edge"><title>Node1&#45;&gt;Node11</title>
<path fill="none" stroke="midnightblue" d="M62.5326,-274.409C74.8865,-247.642 104.23,-191.82 146,-161.5 149.966,-158.621 154.204,-156.005 158.615,-153.629"/>
<polygon fill="midnightblue" stroke="midnightblue" points="160.444,-156.63 167.878,-149.081 157.359,-150.347 160.444,-156.63"/>
</g>
<!-- Node12 -->
<g id="node12" class="node"><title>Node12</title>
<g id="a_node12"><a xlink:href="../../d0/d8c/classcreational_1_1builder_1_1_counting_maze_builder.html#a772d8b87260b86ff2100288a4d97cbbc" target="_top" xlink:title="creational::builder\l::CountingMazeBuilder\l::GetCounts">
<polygon fill="white" stroke="black" points="190.5,-50 190.5,-91 305.5,-91 305.5,-50 190.5,-50"/>
<text text-anchor="start" x="198.5" y="-79" font-family="Helvetica,sans-Serif" font-size="10.00">creational::builder</text>
<text text-anchor="start" x="198.5" y="-68" font-family="Helvetica,sans-Serif" font-size="10.00">::CountingMazeBuilder</text>
<text text-anchor="middle" x="248" y="-57" font-family="Helvetica,sans-Serif" font-size="10.00">::GetCounts</text>
</a>
</g>
</g>
<!-- Node1&#45;&gt;Node12 -->
<g id="edge11" class="edge"><title>Node1&#45;&gt;Node12</title>
<path fill="none" stroke="midnightblue" d="M58.8213,-274.454C66.3102,-238.752 90.0717,-148.335 146,-100.5 155.97,-91.9731 168.28,-85.8694 180.838,-81.5002"/>
<polygon fill="midnightblue" stroke="midnightblue" points="181.959,-84.8169 190.454,-78.4859 179.865,-78.1373 181.959,-84.8169"/>
</g>
<!-- Node13 -->
<g id="node13" class="node"><title>Node13</title>
<g id="a_node13"><a xlink:href="../../de/d93/classcreational_1_1commons_1_1_maze.html#ad256d63371ad6cb0d230f66ed5eee14b" target="_top" xlink:title="creational::commons\l::Maze::GetRoom">
<polygon fill="white" stroke="black" points="194.5,-0.5 194.5,-30.5 301.5,-30.5 301.5,-0.5 194.5,-0.5"/>
<text text-anchor="start" x="202.5" y="-18.5" font-family="Helvetica,sans-Serif" font-size="10.00">creational::commons</text>
<text text-anchor="middle" x="248" y="-7.5" font-family="Helvetica,sans-Serif" font-size="10.00">::Maze::GetRoom</text>
</a>
</g>
</g>
<!-- Node1&#45;&gt;Node13 -->
<g id="edge12" class="edge"><title>Node1&#45;&gt;Node13</title>
<path fill="none" stroke="midnightblue" d="M56.7477,-274.218C59.7341,-230.674 74.4527,-104.956 146,-40.5 156.638,-30.9167 170.37,-24.8712 184.261,-21.0913"/>
<polygon fill="midnightblue" stroke="midnightblue" points="185.426,-24.4131 194.362,-18.7213 183.827,-17.5982 185.426,-24.4131"/>
</g>
<!-- Node10 -->
<g id="node10" class="node"><title>Node10</title>
<g id="a_node10"><a xlink:href="../../d6/d04/classcreational_1_1abstractfactory_1_1_maze_factory.html#ac45d6edecc22af23b91994ab09d64c09" target="_top" xlink:title="creational::abstractfactory\l::MazeFactory::MazeFactory">
<polygon fill="white" stroke="black" points="386,-170.5 386,-200.5 529,-200.5 529,-170.5 386,-170.5"/>
<text text-anchor="start" x="394" y="-188.5" font-family="Helvetica,sans-Serif" font-size="10.00">creational::abstractfactory</text>
<text text-anchor="middle" x="457.5" y="-177.5" font-family="Helvetica,sans-Serif" font-size="10.00">::MazeFactory::MazeFactory</text>
</a>
</g>
</g>
<!-- Node9&#45;&gt;Node10 -->
<g id="edge9" class="edge"><title>Node9&#45;&gt;Node10</title>
<path fill="none" stroke="midnightblue" d="M312.667,-185.5C332.529,-185.5 354.706,-185.5 375.585,-185.5"/>
<polygon fill="midnightblue" stroke="midnightblue" points="375.715,-189 385.715,-185.5 375.715,-182 375.715,-189"/>
</g>
</g>
</svg>
