<?xml version="1.0" encoding="UTF-8" standalone="no"?>
<!DOCTYPE svg PUBLIC "-//W3C//DTD SVG 1.1//EN"
 "http://www.w3.org/Graphics/SVG/1.1/DTD/svg11.dtd">
<!-- Generated by graphviz version 2.38.0 (20140413.2041)
 -->
<!-- Title: creationaltests::TEST_CLASS Pages: 1 -->
<svg width="267pt" height="110pt"
 viewBox="0.00 0.00 267.00 110.00" xmlns="http://www.w3.org/2000/svg" xmlns:xlink="http://www.w3.org/1999/xlink">
<g id="graph0" class="graph" transform="scale(1 1) rotate(0) translate(4 106)">
<title>creationaltests::TEST_CLASS</title>
<polygon fill="white" stroke="none" points="-4,4 -4,-106 263,-106 263,4 -4,4"/>
<!-- Node1 -->
<g id="node1" class="node"><title>Node1</title>
<polygon fill="#bfbfbf" stroke="black" points="0,-36 0,-66 110,-66 110,-36 0,-36"/>
<text text-anchor="start" x="8" y="-54" font-family="Helvetica,sans-Serif" font-size="10.00">creationaltests::TEST</text>
<text text-anchor="middle" x="55" y="-43" font-family="Helvetica,sans-Serif" font-size="10.00">_CLASS</text>
</g>
<!-- Node2 -->
<g id="node2" class="node"><title>Node2</title>
<g id="a_node2"><a xlink:href="../../d8/d0c/classcreational_1_1commons_1_1_twisty_turny_passage.html#a3d628eae6ab833576605c1a484ef4d16" target="_top" xlink:title="creational::commons\l::TwistyTurnyPassage\l::entered">
<polygon fill="white" stroke="black" points="146,-60.5 146,-101.5 259,-101.5 259,-60.5 146,-60.5"/>
<text text-anchor="start" x="154" y="-89.5" font-family="Helvetica,sans-Serif" font-size="10.00">creational::commons</text>
<text text-anchor="start" x="154" y="-78.5" font-family="Helvetica,sans-Serif" font-size="10.00">::TwistyTurnyPassage</text>
<text text-anchor="middle" x="202.5" y="-67.5" font-family="Helvetica,sans-Serif" font-size="10.00">::entered</text>
</a>
</g>
</g>
<!-- Node1&#45;&gt;Node2 -->
<g id="edge1" class="edge"><title>Node1&#45;&gt;Node2</title>
<path fill="none" stroke="midnightblue" d="M110.179,-62.1709C118.541,-63.8951 127.255,-65.6917 135.835,-67.4608"/>
<polygon fill="midnightblue" stroke="midnightblue" points="135.317,-70.9276 145.818,-69.5192 136.731,-64.0718 135.317,-70.9276"/>
</g>
<!-- Node3 -->
<g id="node3" class="node"><title>Node3</title>
<g id="a_node3"><a xlink:href="../../d8/d0c/classcreational_1_1commons_1_1_twisty_turny_passage.html#a1b019d6bb887500935579cb235be2206" target="_top" xlink:title="creational::commons\l::TwistyTurnyPassage\l::Enter">
<polygon fill="white" stroke="black" points="146,-0.5 146,-41.5 259,-41.5 259,-0.5 146,-0.5"/>
<text text-anchor="start" x="154" y="-29.5" font-family="Helvetica,sans-Serif" font-size="10.00">creational::commons</text>
<text text-anchor="start" x="154" y="-18.5" font-family="Helvetica,sans-Serif" font-size="10.00">::TwistyTurnyPassage</text>
<text text-anchor="middle" x="202.5" y="-7.5" font-family="Helvetica,sans-Serif" font-size="10.00">::Enter</text>
</a>
</g>
</g>
<!-- Node1&#45;&gt;Node3 -->
<g id="edge2" class="edge"><title>Node1&#45;&gt;Node3</title>
<path fill="none" stroke="midnightblue" d="M110.179,-39.8291C118.541,-38.1049 127.255,-36.3083 135.835,-34.5392"/>
<polygon fill="midnightblue" stroke="midnightblue" points="136.731,-37.9282 145.818,-32.4808 135.317,-31.0724 136.731,-37.9282"/>
</g>
</g>
</svg>
