<?xml version="1.0" encoding="UTF-8" standalone="no"?>
<!DOCTYPE svg PUBLIC "-//W3C//DTD SVG 1.1//EN"
 "http://www.w3.org/Graphics/SVG/1.1/DTD/svg11.dtd">
<!-- Generated by graphviz version 2.38.0 (20140413.2041)
 -->
<!-- Title: src/operational/src/chain/application.h Pages: 1 -->
<svg width="381pt" height="117pt"
 viewBox="0.00 0.00 380.50 117.00" xmlns="http://www.w3.org/2000/svg" xmlns:xlink="http://www.w3.org/1999/xlink">
<g id="graph0" class="graph" transform="scale(1 1) rotate(0) translate(4 113)">
<title>src/operational/src/chain/application.h</title>
<polygon fill="white" stroke="none" points="-4,4 -4,-113 376.5,-113 376.5,4 -4,4"/>
<!-- Node1 -->
<g id="node1" class="node"><title>Node1</title>
<polygon fill="#bfbfbf" stroke="black" points="128.5,-78.5 128.5,-108.5 229.5,-108.5 229.5,-78.5 128.5,-78.5"/>
<text text-anchor="start" x="136.5" y="-96.5" font-family="Helvetica,sans-Serif" font-size="10.00">src/operational/src</text>
<text text-anchor="middle" x="179" y="-85.5" font-family="Helvetica,sans-Serif" font-size="10.00">/chain/application.h</text>
</g>
<!-- Node2 -->
<g id="node2" class="node"><title>Node2</title>
<g id="a_node2"><a xlink:href="../../dc/d16/application_8cc.html" target="_top" xlink:title="src/operational/src\l/chain/application.cc">
<polygon fill="white" stroke="black" points="0,-6 0,-36 106,-36 106,-6 0,-6"/>
<text text-anchor="start" x="8" y="-24" font-family="Helvetica,sans-Serif" font-size="10.00">src/operational/src</text>
<text text-anchor="middle" x="53" y="-13" font-family="Helvetica,sans-Serif" font-size="10.00">/chain/application.cc</text>
</a>
</g>
</g>
<!-- Node1&#45;&gt;Node2 -->
<g id="edge1" class="edge"><title>Node1&#45;&gt;Node2</title>
<path fill="none" stroke="midnightblue" d="M144.863,-73.3993C123.815,-61.6225 97.2832,-46.7775 78.1515,-36.0729"/>
<polygon fill="midnightblue" stroke="midnightblue" points="143.369,-76.5742 153.805,-78.4027 146.787,-70.4654 143.369,-76.5742"/>
</g>
<!-- Node3 -->
<g id="node3" class="node"><title>Node3</title>
<g id="a_node3"><a xlink:href="../../d9/d4a/application__test_8cc.html" target="_top" xlink:title="src/operational_tests\l/src/chain/application\l_test.cc">
<polygon fill="white" stroke="black" points="124.5,-0.5 124.5,-41.5 233.5,-41.5 233.5,-0.5 124.5,-0.5"/>
<text text-anchor="start" x="132.5" y="-29.5" font-family="Helvetica,sans-Serif" font-size="10.00">src/operational_tests</text>
<text text-anchor="start" x="132.5" y="-18.5" font-family="Helvetica,sans-Serif" font-size="10.00">/src/chain/application</text>
<text text-anchor="middle" x="179" y="-7.5" font-family="Helvetica,sans-Serif" font-size="10.00">_test.cc</text>
</a>
</g>
</g>
<!-- Node1&#45;&gt;Node3 -->
<g id="edge2" class="edge"><title>Node1&#45;&gt;Node3</title>
<path fill="none" stroke="midnightblue" d="M179,-67.9815C179,-59.3468 179,-49.7625 179,-41.5884"/>
<polygon fill="midnightblue" stroke="midnightblue" points="175.5,-68.2332 179,-78.2333 182.5,-68.2333 175.5,-68.2332"/>
</g>
<!-- Node4 -->
<g id="node4" class="node"><title>Node4</title>
<g id="a_node4"><a xlink:href="../../d1/d4e/chain__test_8cc.html" target="_top" xlink:title="src/operational_tests\l/src/chain/chain_test.cc">
<polygon fill="white" stroke="black" points="251.5,-6 251.5,-36 372.5,-36 372.5,-6 251.5,-6"/>
<text text-anchor="start" x="259.5" y="-24" font-family="Helvetica,sans-Serif" font-size="10.00">src/operational_tests</text>
<text text-anchor="middle" x="312" y="-13" font-family="Helvetica,sans-Serif" font-size="10.00">/src/chain/chain_test.cc</text>
</a>
</g>
</g>
<!-- Node1&#45;&gt;Node4 -->
<g id="edge3" class="edge"><title>Node1&#45;&gt;Node4</title>
<path fill="none" stroke="midnightblue" d="M214.437,-73.7155C236.748,-61.8891 265.075,-46.8735 285.451,-36.0729"/>
<polygon fill="midnightblue" stroke="midnightblue" points="212.791,-70.6268 205.595,-78.4027 216.07,-76.8116 212.791,-70.6268"/>
</g>
</g>
</svg>
