<?xml version="1.0" encoding="UTF-8" standalone="no"?>
<!DOCTYPE svg PUBLIC "-//W3C//DTD SVG 1.1//EN"
 "http://www.w3.org/Graphics/SVG/1.1/DTD/svg11.dtd">
<!-- Generated by graphviz version 2.38.0 (20140413.2041)
 -->
<!-- Title: structural::decorator::ASCII7Stream Pages: 1 -->
<svg width="123pt" height="387pt"
 viewBox="0.00 0.00 123.00 387.00" xmlns="http://www.w3.org/2000/svg" xmlns:xlink="http://www.w3.org/1999/xlink">
<g id="graph0" class="graph" transform="scale(1 1) rotate(0) translate(4 383)">
<title>structural::decorator::ASCII7Stream</title>
<polygon fill="white" stroke="none" points="-4,4 -4,-383 119,-383 119,4 -4,4"/>
<!-- Node1 -->
<g id="node1" class="node"><title>Node1</title>
<polygon fill="#bfbfbf" stroke="black" points="1,-0.5 1,-112.5 105,-112.5 105,-0.5 1,-0.5"/>
<text text-anchor="start" x="9" y="-100.5" font-family="Helvetica,sans-Serif" font-size="10.00">structural::decorator</text>
<text text-anchor="middle" x="53" y="-89.5" font-family="Helvetica,sans-Serif" font-size="10.00">::ASCII7Stream</text>
<polyline fill="none" stroke="black" points="1,-82.5 105,-82.5 "/>
<text text-anchor="middle" x="53" y="-70.5" font-family="Helvetica,sans-Serif" font-size="10.00"> </text>
<polyline fill="none" stroke="black" points="1,-63.5 105,-63.5 "/>
<text text-anchor="start" x="9" y="-51.5" font-family="Helvetica,sans-Serif" font-size="10.00">+ ASCII7Stream()</text>
<text text-anchor="start" x="9" y="-40.5" font-family="Helvetica,sans-Serif" font-size="10.00">+ PutInt()</text>
<text text-anchor="start" x="9" y="-29.5" font-family="Helvetica,sans-Serif" font-size="10.00">+ PutString()</text>
<text text-anchor="start" x="9" y="-18.5" font-family="Helvetica,sans-Serif" font-size="10.00">+ value()</text>
<text text-anchor="start" x="9" y="-7.5" font-family="Helvetica,sans-Serif" font-size="10.00">+ message()</text>
</g>
<!-- Node2 -->
<g id="node2" class="node"><title>Node2</title>
<g id="a_node2"><a xlink:href="../../d6/de5/classstructural_1_1decorator_1_1_stream_decorator.html" target="_top" xlink:title="{structural::decorator\l::StreamDecorator\n||+ StreamDecorator()\l+ PutInt()\l+ PutString()\l}">
<polygon fill="white" stroke="black" points="0.5,-150.5 0.5,-240.5 105.5,-240.5 105.5,-150.5 0.5,-150.5"/>
<text text-anchor="start" x="8.5" y="-228.5" font-family="Helvetica,sans-Serif" font-size="10.00">structural::decorator</text>
<text text-anchor="middle" x="53" y="-217.5" font-family="Helvetica,sans-Serif" font-size="10.00">::StreamDecorator</text>
<polyline fill="none" stroke="black" points="0.5,-210.5 105.5,-210.5 "/>
<text text-anchor="middle" x="53" y="-198.5" font-family="Helvetica,sans-Serif" font-size="10.00"> </text>
<polyline fill="none" stroke="black" points="0.5,-191.5 105.5,-191.5 "/>
<text text-anchor="start" x="8.5" y="-179.5" font-family="Helvetica,sans-Serif" font-size="10.00">+ StreamDecorator()</text>
<text text-anchor="start" x="8.5" y="-168.5" font-family="Helvetica,sans-Serif" font-size="10.00">+ PutInt()</text>
<text text-anchor="start" x="8.5" y="-157.5" font-family="Helvetica,sans-Serif" font-size="10.00">+ PutString()</text>
</a>
</g>
</g>
<!-- Node2&#45;&gt;Node1 -->
<g id="edge1" class="edge"><title>Node2&#45;&gt;Node1</title>
<path fill="none" stroke="midnightblue" d="M53,-140.293C53,-131.178 53,-121.709 53,-112.572"/>
<polygon fill="none" stroke="midnightblue" points="49.5001,-140.398 53,-150.398 56.5001,-140.398 49.5001,-140.398"/>
</g>
<!-- Node3 -->
<g id="node3" class="node"><title>Node3</title>
<g id="a_node3"><a xlink:href="../../d1/dbf/classstructural_1_1decorator_1_1_stream_interface.html" target="_top" xlink:title="{structural::decorator\l::StreamInterface\n||+ ~StreamInterface()\l+ PutInt()\l+ PutString()\l}">
<polygon fill="white" stroke="black" points="0,-288.5 0,-378.5 106,-378.5 106,-288.5 0,-288.5"/>
<text text-anchor="start" x="8" y="-366.5" font-family="Helvetica,sans-Serif" font-size="10.00">structural::decorator</text>
<text text-anchor="middle" x="53" y="-355.5" font-family="Helvetica,sans-Serif" font-size="10.00">::StreamInterface</text>
<polyline fill="none" stroke="black" points="0,-348.5 106,-348.5 "/>
<text text-anchor="middle" x="53" y="-336.5" font-family="Helvetica,sans-Serif" font-size="10.00"> </text>
<polyline fill="none" stroke="black" points="0,-329.5 106,-329.5 "/>
<text text-anchor="start" x="8" y="-317.5" font-family="Helvetica,sans-Serif" font-size="10.00">+ ~StreamInterface()</text>
<text text-anchor="start" x="8" y="-306.5" font-family="Helvetica,sans-Serif" font-size="10.00">+ PutInt()</text>
<text text-anchor="start" x="8" y="-295.5" font-family="Helvetica,sans-Serif" font-size="10.00">+ PutString()</text>
</a>
</g>
</g>
<!-- Node3&#45;&gt;Node2 -->
<g id="edge2" class="edge"><title>Node3&#45;&gt;Node2</title>
<path fill="none" stroke="midnightblue" d="M51.1589,-278.274C51.0971,-275.476 51.0433,-272.705 51,-270 50.8489,-260.555 50.9523,-250.429 51.1756,-240.805"/>
<polygon fill="none" stroke="midnightblue" points="47.6646,-278.547 51.4139,-288.456 54.6624,-278.372 47.6646,-278.547"/>
</g>
<!-- Node3&#45;&gt;Node2 -->
<g id="edge3" class="edge"><title>Node3&#45;&gt;Node2</title>
<path fill="none" stroke="#404040" d="M53,-288.345C53,-277.062 53,-264.777 53,-252.969"/>
<polygon fill="none" stroke="#404040" points="53.0001,-252.899 49,-246.899 53,-240.899 57,-246.899 53.0001,-252.899"/>
<text text-anchor="middle" x="84" y="-262" font-family="Helvetica,sans-Serif" font-size="10.00"> #component_</text>
</g>
</g>
</svg>
