<?xml version="1.0" encoding="UTF-8" standalone="no"?>
<!DOCTYPE svg PUBLIC "-//W3C//DTD SVG 1.1//EN"
 "http://www.w3.org/Graphics/SVG/1.1/DTD/svg11.dtd">
<!-- Generated by graphviz version 2.38.0 (20140413.2041)
 -->
<!-- Title: src/operational/src/observer/observer_widget_interface.h Pages: 1 -->
<svg width="411pt" height="195pt"
 viewBox="0.00 0.00 410.50 195.00" xmlns="http://www.w3.org/2000/svg" xmlns:xlink="http://www.w3.org/1999/xlink">
<g id="graph0" class="graph" transform="scale(1 1) rotate(0) translate(4 191)">
<title>src/operational/src/observer/observer_widget_interface.h</title>
<polygon fill="white" stroke="none" points="-4,4 -4,-191 406.5,-191 406.5,4 -4,4"/>
<!-- Node1 -->
<g id="node1" class="node"><title>Node1</title>
<polygon fill="#bfbfbf" stroke="black" points="137.5,-145.5 137.5,-186.5 265.5,-186.5 265.5,-145.5 137.5,-145.5"/>
<text text-anchor="start" x="145.5" y="-174.5" font-family="Helvetica,sans-Serif" font-size="10.00">src/operational/src</text>
<text text-anchor="start" x="145.5" y="-163.5" font-family="Helvetica,sans-Serif" font-size="10.00">/observer/observer_widget</text>
<text text-anchor="middle" x="201.5" y="-152.5" font-family="Helvetica,sans-Serif" font-size="10.00">_interface.h</text>
</g>
<!-- Node2 -->
<g id="node2" class="node"><title>Node2</title>
<g id="a_node2"><a xlink:href="../../d7/d55/analog__clock_8h.html" target="_top" xlink:title="src/operational/src\l/observer/analog_clock.h">
<polygon fill="white" stroke="black" points="69.5,-78.5 69.5,-108.5 193.5,-108.5 193.5,-78.5 69.5,-78.5"/>
<text text-anchor="start" x="77.5" y="-96.5" font-family="Helvetica,sans-Serif" font-size="10.00">src/operational/src</text>
<text text-anchor="middle" x="131.5" y="-85.5" font-family="Helvetica,sans-Serif" font-size="10.00">/observer/analog_clock.h</text>
</a>
</g>
</g>
<!-- Node1&#45;&gt;Node2 -->
<g id="edge1" class="edge"><title>Node1&#45;&gt;Node2</title>
<path fill="none" stroke="midnightblue" d="M174.71,-138.019C164.869,-128.107 154.11,-117.271 145.79,-108.892"/>
<polygon fill="midnightblue" stroke="midnightblue" points="172.472,-140.732 182.001,-145.362 177.439,-135.8 172.472,-140.732"/>
</g>
<!-- Node5 -->
<g id="node5" class="node"><title>Node5</title>
<g id="a_node5"><a xlink:href="../../d7/dee/digital__clock_8h.html" target="_top" xlink:title="src/operational/src\l/observer/digital_clock.h">
<polygon fill="white" stroke="black" points="212,-78.5 212,-108.5 333,-108.5 333,-78.5 212,-78.5"/>
<text text-anchor="start" x="220" y="-96.5" font-family="Helvetica,sans-Serif" font-size="10.00">src/operational/src</text>
<text text-anchor="middle" x="272.5" y="-85.5" font-family="Helvetica,sans-Serif" font-size="10.00">/observer/digital_clock.h</text>
</a>
</g>
</g>
<!-- Node1&#45;&gt;Node5 -->
<g id="edge4" class="edge"><title>Node1&#45;&gt;Node5</title>
<path fill="none" stroke="midnightblue" d="M228.379,-138.31C238.44,-128.32 249.484,-117.353 258.006,-108.892"/>
<polygon fill="midnightblue" stroke="midnightblue" points="225.907,-135.832 221.277,-145.362 230.84,-140.799 225.907,-135.832"/>
</g>
<!-- Node3 -->
<g id="node3" class="node"><title>Node3</title>
<g id="a_node3"><a xlink:href="../../dc/dcb/analog__clock_8cc.html" target="_top" xlink:title="src/operational/src\l/observer/analog_clock.cc">
<polygon fill="white" stroke="black" points="0,-6 0,-36 129,-36 129,-6 0,-6"/>
<text text-anchor="start" x="8" y="-24" font-family="Helvetica,sans-Serif" font-size="10.00">src/operational/src</text>
<text text-anchor="middle" x="64.5" y="-13" font-family="Helvetica,sans-Serif" font-size="10.00">/observer/analog_clock.cc</text>
</a>
</g>
</g>
<!-- Node2&#45;&gt;Node3 -->
<g id="edge2" class="edge"><title>Node2&#45;&gt;Node3</title>
<path fill="none" stroke="midnightblue" d="M110.938,-70.8641C100.247,-59.6142 87.4782,-46.1786 78.0383,-36.2455"/>
<polygon fill="midnightblue" stroke="midnightblue" points="108.516,-73.3956 117.942,-78.2333 113.59,-68.5734 108.516,-73.3956"/>
</g>
<!-- Node4 -->
<g id="node4" class="node"><title>Node4</title>
<g id="a_node4"><a xlink:href="../../d6/d34/observer__test_8cc.html" target="_top" xlink:title="src/operational_tests\l/src/observer/observer\l_test.cc">
<polygon fill="white" stroke="black" points="147,-0.5 147,-41.5 258,-41.5 258,-0.5 147,-0.5"/>
<text text-anchor="start" x="155" y="-29.5" font-family="Helvetica,sans-Serif" font-size="10.00">src/operational_tests</text>
<text text-anchor="start" x="155" y="-18.5" font-family="Helvetica,sans-Serif" font-size="10.00">/src/observer/observer</text>
<text text-anchor="middle" x="202.5" y="-7.5" font-family="Helvetica,sans-Serif" font-size="10.00">_test.cc</text>
</a>
</g>
</g>
<!-- Node2&#45;&gt;Node4 -->
<g id="edge3" class="edge"><title>Node2&#45;&gt;Node4</title>
<path fill="none" stroke="midnightblue" d="M153.051,-71.1007C162.508,-61.7107 173.534,-50.7615 182.773,-41.5884"/>
<polygon fill="midnightblue" stroke="midnightblue" points="150.498,-68.7036 145.868,-78.2333 155.43,-73.6708 150.498,-68.7036"/>
</g>
<!-- Node5&#45;&gt;Node4 -->
<g id="edge6" class="edge"><title>Node5&#45;&gt;Node4</title>
<path fill="none" stroke="midnightblue" d="M251.252,-71.1007C241.929,-61.7107 231.058,-50.7615 221.95,-41.5884"/>
<polygon fill="midnightblue" stroke="midnightblue" points="248.805,-73.6031 258.334,-78.2333 253.772,-68.671 248.805,-73.6031"/>
</g>
<!-- Node6 -->
<g id="node6" class="node"><title>Node6</title>
<g id="a_node6"><a xlink:href="../../d6/db3/digital__clock_8cc.html" target="_top" xlink:title="src/operational/src\l/observer/digital_clock.cc">
<polygon fill="white" stroke="black" points="276.5,-6 276.5,-36 402.5,-36 402.5,-6 276.5,-6"/>
<text text-anchor="start" x="284.5" y="-24" font-family="Helvetica,sans-Serif" font-size="10.00">src/operational/src</text>
<text text-anchor="middle" x="339.5" y="-13" font-family="Helvetica,sans-Serif" font-size="10.00">/observer/digital_clock.cc</text>
</a>
</g>
</g>
<!-- Node5&#45;&gt;Node6 -->
<g id="edge5" class="edge"><title>Node5&#45;&gt;Node6</title>
<path fill="none" stroke="midnightblue" d="M293.062,-70.8641C303.753,-59.6142 316.522,-46.1786 325.962,-36.2455"/>
<polygon fill="midnightblue" stroke="midnightblue" points="290.41,-68.5734 286.058,-78.2333 295.484,-73.3956 290.41,-68.5734"/>
</g>
</g>
</svg>
