<?xml version="1.0" encoding="UTF-8" standalone="no"?>
<!DOCTYPE svg PUBLIC "-//W3C//DTD SVG 1.1//EN"
 "http://www.w3.org/Graphics/SVG/1.1/DTD/svg11.dtd">
<!-- Generated by graphviz version 2.38.0 (20140413.2041)
 -->
<!-- Title: operational::visitor::BusInterface Pages: 1 -->
<svg width="126pt" height="259pt"
 viewBox="0.00 0.00 126.00 259.00" xmlns="http://www.w3.org/2000/svg" xmlns:xlink="http://www.w3.org/1999/xlink">
<g id="graph0" class="graph" transform="scale(1 1) rotate(0) translate(4 255)">
<title>operational::visitor::BusInterface</title>
<polygon fill="white" stroke="none" points="-4,4 -4,-255 122,-255 122,4 -4,4"/>
<!-- Node1 -->
<g id="node1" class="node"><title>Node1</title>
<polygon fill="#bfbfbf" stroke="black" points="7.5,-160.5 7.5,-250.5 110.5,-250.5 110.5,-160.5 7.5,-160.5"/>
<text text-anchor="start" x="15.5" y="-238.5" font-family="Helvetica,sans-Serif" font-size="10.00">operational::visitor</text>
<text text-anchor="middle" x="59" y="-227.5" font-family="Helvetica,sans-Serif" font-size="10.00">::BusInterface</text>
<polyline fill="none" stroke="black" points="7.5,-220.5 110.5,-220.5 "/>
<text text-anchor="middle" x="59" y="-208.5" font-family="Helvetica,sans-Serif" font-size="10.00"> </text>
<polyline fill="none" stroke="black" points="7.5,-201.5 110.5,-201.5 "/>
<text text-anchor="start" x="15.5" y="-189.5" font-family="Helvetica,sans-Serif" font-size="10.00">+ ~BusInterface()</text>
<text text-anchor="start" x="15.5" y="-178.5" font-family="Helvetica,sans-Serif" font-size="10.00">+ GetLuxPrice()</text>
<text text-anchor="start" x="15.5" y="-167.5" font-family="Helvetica,sans-Serif" font-size="10.00">+ GetRegularPrice()</text>
</g>
<!-- Node2 -->
<g id="node2" class="node"><title>Node2</title>
<g id="a_node2"><a xlink:href="../../dc/d83/classoperational_1_1visitor_1_1_bus.html" target="_top" xlink:title="{operational::visitor::Bus\n||+ Bus()\l+ name()\l+ price()\l+ price()\l+ GetLuxPrice()\l+ GetRegularPrice()\l+ Accept()\l}">
<polygon fill="white" stroke="black" points="0,-0.5 0,-123.5 118,-123.5 118,-0.5 0,-0.5"/>
<text text-anchor="middle" x="59" y="-111.5" font-family="Helvetica,sans-Serif" font-size="10.00">operational::visitor::Bus</text>
<polyline fill="none" stroke="black" points="0,-104.5 118,-104.5 "/>
<text text-anchor="middle" x="59" y="-92.5" font-family="Helvetica,sans-Serif" font-size="10.00"> </text>
<polyline fill="none" stroke="black" points="0,-85.5 118,-85.5 "/>
<text text-anchor="start" x="8" y="-73.5" font-family="Helvetica,sans-Serif" font-size="10.00">+ Bus()</text>
<text text-anchor="start" x="8" y="-62.5" font-family="Helvetica,sans-Serif" font-size="10.00">+ name()</text>
<text text-anchor="start" x="8" y="-51.5" font-family="Helvetica,sans-Serif" font-size="10.00">+ price()</text>
<text text-anchor="start" x="8" y="-40.5" font-family="Helvetica,sans-Serif" font-size="10.00">+ price()</text>
<text text-anchor="start" x="8" y="-29.5" font-family="Helvetica,sans-Serif" font-size="10.00">+ GetLuxPrice()</text>
<text text-anchor="start" x="8" y="-18.5" font-family="Helvetica,sans-Serif" font-size="10.00">+ GetRegularPrice()</text>
<text text-anchor="start" x="8" y="-7.5" font-family="Helvetica,sans-Serif" font-size="10.00">+ Accept()</text>
</a>
</g>
</g>
<!-- Node1&#45;&gt;Node2 -->
<g id="edge1" class="edge"><title>Node1&#45;&gt;Node2</title>
<path fill="none" stroke="midnightblue" d="M59,-150.11C59,-141.421 59,-132.383 59,-123.561"/>
<polygon fill="none" stroke="midnightblue" points="55.5001,-150.117 59,-160.117 62.5001,-150.117 55.5001,-150.117"/>
</g>
</g>
</svg>
