<?xml version="1.0" encoding="UTF-8" standalone="no"?>
<!DOCTYPE svg PUBLIC "-//W3C//DTD SVG 1.1//EN"
 "http://www.w3.org/Graphics/SVG/1.1/DTD/svg11.dtd">
<!-- Generated by graphviz version 2.38.0 (20140413.2041)
 -->
<!-- Title: src/operational/src/memento/constraint_solver_interface.h Pages: 1 -->
<svg width="418pt" height="206pt"
 viewBox="0.00 0.00 417.50 206.00" xmlns="http://www.w3.org/2000/svg" xmlns:xlink="http://www.w3.org/1999/xlink">
<g id="graph0" class="graph" transform="scale(1 1) rotate(0) translate(4 202)">
<title>src/operational/src/memento/constraint_solver_interface.h</title>
<polygon fill="white" stroke="none" points="-4,4 -4,-202 413.5,-202 413.5,4 -4,4"/>
<!-- Node1 -->
<g id="node1" class="node"><title>Node1</title>
<polygon fill="#bfbfbf" stroke="black" points="136,-156.5 136,-197.5 242,-197.5 242,-156.5 136,-156.5"/>
<text text-anchor="start" x="144" y="-185.5" font-family="Helvetica,sans-Serif" font-size="10.00">src/operational/src</text>
<text text-anchor="start" x="144" y="-174.5" font-family="Helvetica,sans-Serif" font-size="10.00">/memento/constraint</text>
<text text-anchor="middle" x="189" y="-163.5" font-family="Helvetica,sans-Serif" font-size="10.00">_solver_interface.h</text>
</g>
<!-- Node2 -->
<g id="node2" class="node"><title>Node2</title>
<g id="a_node2"><a xlink:href="../../d7/dc2/constraint__solver_8h.html" target="_top" xlink:title="src/operational/src\l/memento/constraint\l_solver.h">
<polygon fill="white" stroke="black" points="65,-78.5 65,-119.5 171,-119.5 171,-78.5 65,-78.5"/>
<text text-anchor="start" x="73" y="-107.5" font-family="Helvetica,sans-Serif" font-size="10.00">src/operational/src</text>
<text text-anchor="start" x="73" y="-96.5" font-family="Helvetica,sans-Serif" font-size="10.00">/memento/constraint</text>
<text text-anchor="middle" x="118" y="-85.5" font-family="Helvetica,sans-Serif" font-size="10.00">_solver.h</text>
</a>
</g>
</g>
<!-- Node1&#45;&gt;Node2 -->
<g id="edge1" class="edge"><title>Node1&#45;&gt;Node2</title>
<path fill="none" stroke="midnightblue" d="M163.698,-148.916C154.624,-139.203 144.578,-128.45 136.222,-119.506"/>
<polygon fill="midnightblue" stroke="midnightblue" points="161.332,-151.51 170.716,-156.428 166.447,-146.731 161.332,-151.51"/>
</g>
<!-- Node5 -->
<g id="node5" class="node"><title>Node5</title>
<g id="a_node5"><a xlink:href="../../d8/dc6/move__command_8h.html" target="_top" xlink:title="src/operational/src\l/memento/move_command.h">
<polygon fill="white" stroke="black" points="189,-84 189,-114 331,-114 331,-84 189,-84"/>
<text text-anchor="start" x="197" y="-102" font-family="Helvetica,sans-Serif" font-size="10.00">src/operational/src</text>
<text text-anchor="middle" x="260" y="-91" font-family="Helvetica,sans-Serif" font-size="10.00">/memento/move_command.h</text>
</a>
</g>
</g>
<!-- Node1&#45;&gt;Node5 -->
<g id="edge4" class="edge"><title>Node1&#45;&gt;Node5</title>
<path fill="none" stroke="midnightblue" d="M214.233,-148.99C225.196,-137.255 237.589,-123.99 246.711,-114.225"/>
<polygon fill="midnightblue" stroke="midnightblue" points="211.553,-146.731 207.284,-156.428 216.668,-151.51 211.553,-146.731"/>
</g>
<!-- Node3 -->
<g id="node3" class="node"><title>Node3</title>
<g id="a_node3"><a xlink:href="../../dc/d97/constraint__solver_8cc.html" target="_top" xlink:title="src/operational/src\l/memento/constraint\l_solver.cc">
<polygon fill="white" stroke="black" points="0,-0.5 0,-41.5 106,-41.5 106,-0.5 0,-0.5"/>
<text text-anchor="start" x="8" y="-29.5" font-family="Helvetica,sans-Serif" font-size="10.00">src/operational/src</text>
<text text-anchor="start" x="8" y="-18.5" font-family="Helvetica,sans-Serif" font-size="10.00">/memento/constraint</text>
<text text-anchor="middle" x="53" y="-7.5" font-family="Helvetica,sans-Serif" font-size="10.00">_solver.cc</text>
</a>
</g>
</g>
<!-- Node2&#45;&gt;Node3 -->
<g id="edge2" class="edge"><title>Node2&#45;&gt;Node3</title>
<path fill="none" stroke="midnightblue" d="M94.5889,-70.627C86.3468,-60.9901 77.2567,-50.3617 69.6824,-41.5056"/>
<polygon fill="midnightblue" stroke="midnightblue" points="92.1013,-73.1034 101.261,-78.4281 97.4211,-68.5536 92.1013,-73.1034"/>
</g>
<!-- Node4 -->
<g id="node4" class="node"><title>Node4</title>
<g id="a_node4"><a xlink:href="../../dc/d8a/memento__test_8cc.html" target="_top" xlink:title="src/operational_tests\l/src/memento/memento\l_test.cc">
<polygon fill="white" stroke="black" points="124,-0.5 124,-41.5 244,-41.5 244,-0.5 124,-0.5"/>
<text text-anchor="start" x="132" y="-29.5" font-family="Helvetica,sans-Serif" font-size="10.00">src/operational_tests</text>
<text text-anchor="start" x="132" y="-18.5" font-family="Helvetica,sans-Serif" font-size="10.00">/src/memento/memento</text>
<text text-anchor="middle" x="184" y="-7.5" font-family="Helvetica,sans-Serif" font-size="10.00">_test.cc</text>
</a>
</g>
</g>
<!-- Node2&#45;&gt;Node4 -->
<g id="edge3" class="edge"><title>Node2&#45;&gt;Node4</title>
<path fill="none" stroke="midnightblue" d="M141.771,-70.627C150.14,-60.9901 159.37,-50.3617 167.061,-41.5056"/>
<polygon fill="midnightblue" stroke="midnightblue" points="138.911,-68.5828 134.997,-78.4281 144.196,-73.1727 138.911,-68.5828"/>
</g>
<!-- Node5&#45;&gt;Node4 -->
<g id="edge6" class="edge"><title>Node5&#45;&gt;Node4</title>
<path fill="none" stroke="midnightblue" d="M238.547,-76.547C227.596,-65.5963 214.367,-52.3674 203.68,-41.68"/>
<polygon fill="midnightblue" stroke="midnightblue" points="236.159,-79.1088 245.705,-83.705 241.109,-74.159 236.159,-79.1088"/>
</g>
<!-- Node6 -->
<g id="node6" class="node"><title>Node6</title>
<g id="a_node6"><a xlink:href="../../d0/df9/move__command_8cc.html" target="_top" xlink:title="src/operational/src\l/memento/move_command.cc">
<polygon fill="white" stroke="black" points="262.5,-6 262.5,-36 409.5,-36 409.5,-6 262.5,-6"/>
<text text-anchor="start" x="270.5" y="-24" font-family="Helvetica,sans-Serif" font-size="10.00">src/operational/src</text>
<text text-anchor="middle" x="336" y="-13" font-family="Helvetica,sans-Serif" font-size="10.00">/memento/move_command.cc</text>
</a>
</g>
</g>
<!-- Node5&#45;&gt;Node6 -->
<g id="edge5" class="edge"><title>Node5&#45;&gt;Node6</title>
<path fill="none" stroke="midnightblue" d="M281.467,-76.5332C294.368,-63.6316 310.428,-47.5716 321.769,-36.2309"/>
<polygon fill="midnightblue" stroke="midnightblue" points="278.891,-74.159 274.295,-83.705 283.841,-79.1088 278.891,-74.159"/>
</g>
</g>
</svg>
