<?xml version="1.0" encoding="UTF-8" standalone="no"?>
<!DOCTYPE svg PUBLIC "-//W3C//DTD SVG 1.1//EN"
 "http://www.w3.org/Graphics/SVG/1.1/DTD/svg11.dtd">
<!-- Generated by graphviz version 2.38.0 (20140413.2041)
 -->
<!-- Title: src/creational/src/prototype Pages: 1 -->
<svg width="98pt" height="151pt"
 viewBox="0.00 0.00 98.00 151.00" xmlns="http://www.w3.org/2000/svg" xmlns:xlink="http://www.w3.org/1999/xlink">
<g id="graph0" class="graph" transform="scale(1 1) rotate(0) translate(4 147)">
<title>src/creational/src/prototype</title>
<polygon fill="white" stroke="none" points="-4,4 -4,-147 94,-147 94,4 -4,4"/>
<g id="clust1" class="cluster"><title>clusterdir_6f6f9459d7a22bc69c4612a8db07afce</title>
<g id="a_clust1"><a xlink:href="dir_6f6f9459d7a22bc69c4612a8db07afce.html" target="_top" xlink:title="src">
<polygon fill="#ddddee" stroke="black" points="8,-64 8,-135 82,-135 82,-64 8,-64"/>
<text text-anchor="middle" x="45" y="-123" font-family="Helvetica,sans-Serif" font-size="10.00">src</text>
</a>
</g>
</g>
<!-- dir_0a1198552051d04d8f907c45b6725ec8 -->
<g id="node1" class="node"><title>dir_0a1198552051d04d8f907c45b6725ec8</title>
<g id="a_node1"><a xlink:href="dir_0a1198552051d04d8f907c45b6725ec8.html" target="_top" xlink:title="prototype">
<polygon fill="#eeeeff" stroke="black" points="73.5,-108 16.5,-108 16.5,-72 73.5,-72 73.5,-108"/>
<text text-anchor="middle" x="45" y="-87.5" font-family="Helvetica,sans-Serif" font-size="10.00">prototype</text>
</a>
</g>
</g>
<!-- dir_1c99000eb2a653e0650870c9a7ab294b -->
<g id="node2" class="node"><title>dir_1c99000eb2a653e0650870c9a7ab294b</title>
<g id="a_node2"><a xlink:href="dir_1c99000eb2a653e0650870c9a7ab294b.html" target="_top" xlink:title="abstractfactory">
<polygon fill="none" stroke="black" points="85.5,-36 4.5,-36 4.5,-0 85.5,-0 85.5,-36"/>
<text text-anchor="middle" x="45" y="-15.5" font-family="Helvetica,sans-Serif" font-size="10.00">abstractfactory</text>
</a>
</g>
</g>
<!-- dir_0a1198552051d04d8f907c45b6725ec8&#45;&gt;dir_1c99000eb2a653e0650870c9a7ab294b -->
<g id="edge1" class="edge"><title>dir_0a1198552051d04d8f907c45b6725ec8&#45;&gt;dir_1c99000eb2a653e0650870c9a7ab294b</title>
<path fill="none" stroke="black" d="M45,-71.6966C45,-63.9827 45,-54.7125 45,-46.1124"/>
<polygon fill="black" stroke="black" points="48.5001,-46.1043 45,-36.1043 41.5001,-46.1044 48.5001,-46.1043"/>
<g id="a_edge1&#45;headlabel"><a xlink:href="dir_000008_000003.html" target="_top" xlink:title="1">
<text text-anchor="middle" x="51.3393" y="-47.199" font-family="Helvetica,sans-Serif" font-size="10.00">1</text>
</a>
</g>
</g>
</g>
</svg>
