<?xml version="1.0" encoding="UTF-8" standalone="no"?>
<!DOCTYPE svg PUBLIC "-//W3C//DTD SVG 1.1//EN"
 "http://www.w3.org/Graphics/SVG/1.1/DTD/svg11.dtd">
<!-- Generated by graphviz version 2.38.0 (20140413.2041)
 -->
<!-- Title: src/creational/src/mazegame Pages: 1 -->
<svg width="162pt" height="151pt"
 viewBox="0.00 0.00 161.50 151.00" xmlns="http://www.w3.org/2000/svg" xmlns:xlink="http://www.w3.org/1999/xlink">
<g id="graph0" class="graph" transform="scale(1 1) rotate(0) translate(4 147)">
<title>src/creational/src/mazegame</title>
<polygon fill="white" stroke="none" points="-4,4 -4,-147 157.5,-147 157.5,4 -4,4"/>
<g id="clust1" class="cluster"><title>clusterdir_6f6f9459d7a22bc69c4612a8db07afce</title>
<g id="a_clust1"><a xlink:href="dir_6f6f9459d7a22bc69c4612a8db07afce.html" target="_top" xlink:title="src">
<polygon fill="#ddddee" stroke="black" points="42.5,-64 42.5,-135 124.5,-135 124.5,-64 42.5,-64"/>
<text text-anchor="middle" x="83.5" y="-123" font-family="Helvetica,sans-Serif" font-size="10.00">src</text>
</a>
</g>
</g>
<!-- dir_df53417834cd9cce52db62bfaa2d28dc -->
<g id="node1" class="node"><title>dir_df53417834cd9cce52db62bfaa2d28dc</title>
<g id="a_node1"><a xlink:href="dir_df53417834cd9cce52db62bfaa2d28dc.html" target="_top" xlink:title="mazegame">
<polygon fill="#eeeeff" stroke="black" points="116,-108 51,-108 51,-72 116,-72 116,-108"/>
<text text-anchor="middle" x="83.5" y="-87.5" font-family="Helvetica,sans-Serif" font-size="10.00">mazegame</text>
</a>
</g>
</g>
<!-- dir_1c99000eb2a653e0650870c9a7ab294b -->
<g id="node2" class="node"><title>dir_1c99000eb2a653e0650870c9a7ab294b</title>
<g id="a_node2"><a xlink:href="dir_1c99000eb2a653e0650870c9a7ab294b.html" target="_top" xlink:title="abstractfactory">
<polygon fill="none" stroke="black" points="81,-36 0,-36 0,-0 81,-0 81,-36"/>
<text text-anchor="middle" x="40.5" y="-15.5" font-family="Helvetica,sans-Serif" font-size="10.00">abstractfactory</text>
</a>
</g>
</g>
<!-- dir_df53417834cd9cce52db62bfaa2d28dc&#45;&gt;dir_1c99000eb2a653e0650870c9a7ab294b -->
<g id="edge1" class="edge"><title>dir_df53417834cd9cce52db62bfaa2d28dc&#45;&gt;dir_1c99000eb2a653e0650870c9a7ab294b</title>
<path fill="none" stroke="black" d="M72.8708,-71.6966C67.8719,-63.5589 61.809,-53.689 56.2879,-44.7013"/>
<polygon fill="black" stroke="black" points="59.2234,-42.7931 51.0069,-36.1043 53.2589,-46.4571 59.2234,-42.7931"/>
<g id="a_edge1&#45;headlabel"><a xlink:href="dir_000006_000003.html" target="_top" xlink:title="1">
<text text-anchor="middle" x="63.5242" y="-41.8699" font-family="Helvetica,sans-Serif" font-size="10.00">1</text>
</a>
</g>
</g>
<!-- dir_24f171d3141f05d6844eb6b74ae5082e -->
<g id="node3" class="node"><title>dir_24f171d3141f05d6844eb6b74ae5082e</title>
<g id="a_node3"><a xlink:href="dir_24f171d3141f05d6844eb6b74ae5082e.html" target="_top" xlink:title="builder">
<polygon fill="none" stroke="black" points="153.5,-36 99.5,-36 99.5,-0 153.5,-0 153.5,-36"/>
<text text-anchor="middle" x="126.5" y="-15.5" font-family="Helvetica,sans-Serif" font-size="10.00">builder</text>
</a>
</g>
</g>
<!-- dir_df53417834cd9cce52db62bfaa2d28dc&#45;&gt;dir_24f171d3141f05d6844eb6b74ae5082e -->
<g id="edge2" class="edge"><title>dir_df53417834cd9cce52db62bfaa2d28dc&#45;&gt;dir_24f171d3141f05d6844eb6b74ae5082e</title>
<path fill="none" stroke="black" d="M94.1292,-71.6966C99.1281,-63.5589 105.191,-53.689 110.712,-44.7013"/>
<polygon fill="black" stroke="black" points="113.741,-46.4571 115.993,-36.1043 107.777,-42.7931 113.741,-46.4571"/>
<g id="a_edge2&#45;headlabel"><a xlink:href="dir_000006_000004.html" target="_top" xlink:title="1">
<text text-anchor="middle" x="114.279" y="-48.5061" font-family="Helvetica,sans-Serif" font-size="10.00">1</text>
</a>
</g>
</g>
</g>
</svg>
