<?xml version="1.0" encoding="UTF-8" standalone="no"?>
<!DOCTYPE svg PUBLIC "-//W3C//DTD SVG 1.1//EN"
 "http://www.w3.org/Graphics/SVG/1.1/DTD/svg11.dtd">
<!-- Generated by graphviz version 2.38.0 (20140413.2041)
 -->
<!-- Title: src/structural_tests Pages: 1 -->
<svg width="212pt" height="159pt"
 viewBox="0.00 0.00 212.00 159.00" xmlns="http://www.w3.org/2000/svg" xmlns:xlink="http://www.w3.org/1999/xlink">
<g id="graph0" class="graph" transform="scale(1 1) rotate(0) translate(4 155)">
<title>src/structural_tests</title>
<polygon fill="white" stroke="none" points="-4,4 -4,-155 208,-155 208,4 -4,4"/>
<g id="clust1" class="cluster"><title>clusterdir_68267d1309a1af8e8297ef4c3efbcdba</title>
<g id="a_clust1"><a xlink:href="dir_68267d1309a1af8e8297ef4c3efbcdba.html" target="_top" xlink:title="src">
<polygon fill="#ddddee" stroke="black" points="8,-56 8,-143 196,-143 196,-56 8,-56"/>
<text text-anchor="middle" x="102" y="-131" font-family="Helvetica,sans-Serif" font-size="10.00">src</text>
</a>
</g>
</g>
<g id="clust2" class="cluster"><title>clusterdir_8b401a06ba13a9ef913459b02b4275f6</title>
<g id="a_clust2"><a xlink:href="dir_8b401a06ba13a9ef913459b02b4275f6.html" target="_top">
<polygon fill="#eeeeff" stroke="black" points="16,-64 16,-116 188,-116 188,-64 16,-64"/>
</a>
</g>
</g>
<!-- dir_8b401a06ba13a9ef913459b02b4275f6 -->
<g id="node1" class="node"><title>dir_8b401a06ba13a9ef913459b02b4275f6</title>
<text text-anchor="middle" x="138" y="-87.5" font-family="Helvetica,sans-Serif" font-size="10.00">structural_tests</text>
</g>
<!-- dir_586e37c8f35754b4fb60d521acba811e -->
<g id="node2" class="node"><title>dir_586e37c8f35754b4fb60d521acba811e</title>
<g id="a_node2"><a xlink:href="dir_586e37c8f35754b4fb60d521acba811e.html" target="_top" xlink:title="src">
<polygon fill="white" stroke="red" points="78,-108 24,-108 24,-72 78,-72 78,-108"/>
<text text-anchor="middle" x="51" y="-87.5" font-family="Helvetica,sans-Serif" font-size="10.00">src</text>
</a>
</g>
</g>
<!-- dir_3c0c3d6b075b2d31648cdc5c18b1adf7 -->
<g id="node3" class="node"><title>dir_3c0c3d6b075b2d31648cdc5c18b1adf7</title>
<g id="a_node3"><a xlink:href="dir_3c0c3d6b075b2d31648cdc5c18b1adf7.html" target="_top" xlink:title="structural">
<polygon fill="white" stroke="red" points="79.5,-36 22.5,-36 22.5,-0 79.5,-0 79.5,-36"/>
<text text-anchor="middle" x="51" y="-15.5" font-family="Helvetica,sans-Serif" font-size="10.00">structural</text>
</a>
</g>
</g>
<!-- dir_586e37c8f35754b4fb60d521acba811e&#45;&gt;dir_3c0c3d6b075b2d31648cdc5c18b1adf7 -->
<g id="edge1" class="edge"><title>dir_586e37c8f35754b4fb60d521acba811e&#45;&gt;dir_3c0c3d6b075b2d31648cdc5c18b1adf7</title>
<path fill="none" stroke="black" d="M51,-71.6966C51,-63.9827 51,-54.7125 51,-46.1124"/>
<polygon fill="black" stroke="black" points="54.5001,-46.1043 51,-36.1043 47.5001,-46.1044 54.5001,-46.1043"/>
<g id="a_edge1&#45;headlabel"><a xlink:href="dir_000051_000027.html" target="_top" xlink:title="23">
<text text-anchor="middle" x="57.3393" y="-47.199" font-family="Helvetica,sans-Serif" font-size="10.00">23</text>
</a>
</g>
</g>
</g>
</svg>
