<?xml version="1.0" encoding="UTF-8" standalone="no"?>
<!DOCTYPE svg PUBLIC "-//W3C//DTD SVG 1.1//EN"
 "http://www.w3.org/Graphics/SVG/1.1/DTD/svg11.dtd">
<!-- Generated by graphviz version 2.38.0 (20140413.2041)
 -->
<!-- Title: src/creational_tests Pages: 1 -->
<svg width="214pt" height="159pt"
 viewBox="0.00 0.00 214.00 159.00" xmlns="http://www.w3.org/2000/svg" xmlns:xlink="http://www.w3.org/1999/xlink">
<g id="graph0" class="graph" transform="scale(1 1) rotate(0) translate(4 155)">
<title>src/creational_tests</title>
<polygon fill="white" stroke="none" points="-4,4 -4,-155 210,-155 210,4 -4,4"/>
<g id="clust1" class="cluster"><title>clusterdir_68267d1309a1af8e8297ef4c3efbcdba</title>
<g id="a_clust1"><a xlink:href="dir_68267d1309a1af8e8297ef4c3efbcdba.html" target="_top" xlink:title="src">
<polygon fill="#ddddee" stroke="black" points="8,-56 8,-143 198,-143 198,-56 8,-56"/>
<text text-anchor="middle" x="103" y="-131" font-family="Helvetica,sans-Serif" font-size="10.00">src</text>
</a>
</g>
</g>
<g id="clust2" class="cluster"><title>clusterdir_0cf8d4a5c0485f13d201d26e226d950e</title>
<g id="a_clust2"><a xlink:href="dir_0cf8d4a5c0485f13d201d26e226d950e.html" target="_top">
<polygon fill="#eeeeff" stroke="black" points="16,-64 16,-116 190,-116 190,-64 16,-64"/>
</a>
</g>
</g>
<!-- dir_0cf8d4a5c0485f13d201d26e226d950e -->
<g id="node1" class="node"><title>dir_0cf8d4a5c0485f13d201d26e226d950e</title>
<text text-anchor="middle" x="139" y="-87.5" font-family="Helvetica,sans-Serif" font-size="10.00">creational_tests</text>
</g>
<!-- dir_7fbdc39365bfd1f47cefd1b520956a7a -->
<g id="node2" class="node"><title>dir_7fbdc39365bfd1f47cefd1b520956a7a</title>
<g id="a_node2"><a xlink:href="dir_7fbdc39365bfd1f47cefd1b520956a7a.html" target="_top" xlink:title="src">
<polygon fill="white" stroke="red" points="78,-108 24,-108 24,-72 78,-72 78,-108"/>
<text text-anchor="middle" x="51" y="-87.5" font-family="Helvetica,sans-Serif" font-size="10.00">src</text>
</a>
</g>
</g>
<!-- dir_a10d24b5b8657015a441b87c792b7b2d -->
<g id="node3" class="node"><title>dir_a10d24b5b8657015a441b87c792b7b2d</title>
<g id="a_node3"><a xlink:href="dir_a10d24b5b8657015a441b87c792b7b2d.html" target="_top" xlink:title="creational">
<polygon fill="white" stroke="red" points="80.5,-36 21.5,-36 21.5,-0 80.5,-0 80.5,-36"/>
<text text-anchor="middle" x="51" y="-15.5" font-family="Helvetica,sans-Serif" font-size="10.00">creational</text>
</a>
</g>
</g>
<!-- dir_7fbdc39365bfd1f47cefd1b520956a7a&#45;&gt;dir_a10d24b5b8657015a441b87c792b7b2d -->
<g id="edge1" class="edge"><title>dir_7fbdc39365bfd1f47cefd1b520956a7a&#45;&gt;dir_a10d24b5b8657015a441b87c792b7b2d</title>
<path fill="none" stroke="black" d="M51,-71.6966C51,-63.9827 51,-54.7125 51,-46.1124"/>
<polygon fill="black" stroke="black" points="54.5001,-46.1043 51,-36.1043 47.5001,-46.1044 54.5001,-46.1043"/>
<g id="a_edge1&#45;headlabel"><a xlink:href="dir_000010_000001.html" target="_top" xlink:title="31">
<text text-anchor="middle" x="57.3393" y="-47.199" font-family="Helvetica,sans-Serif" font-size="10.00">31</text>
</a>
</g>
</g>
</g>
</svg>
