<?xml version="1.0" encoding="UTF-8" standalone="no"?>
<!DOCTYPE svg PUBLIC "-//W3C//DTD SVG 1.1//EN"
 "http://www.w3.org/Graphics/SVG/1.1/DTD/svg11.dtd">
<!-- Generated by graphviz version 2.38.0 (20140413.2041)
 -->
<!-- Title: src/operational_tests/src/templatemethod Pages: 1 -->
<svg width="126pt" height="151pt"
 viewBox="0.00 0.00 126.00 151.00" xmlns="http://www.w3.org/2000/svg" xmlns:xlink="http://www.w3.org/1999/xlink">
<g id="graph0" class="graph" transform="scale(1 1) rotate(0) translate(4 147)">
<title>src/operational_tests/src/templatemethod</title>
<polygon fill="white" stroke="none" points="-4,4 -4,-147 122,-147 122,4 -4,4"/>
<g id="clust1" class="cluster"><title>clusterdir_107692fd60774061a80e967f6a6b2fae</title>
<g id="a_clust1"><a xlink:href="dir_107692fd60774061a80e967f6a6b2fae.html" target="_top" xlink:title="src">
<polygon fill="#ddddee" stroke="black" points="8,-64 8,-135 110,-135 110,-64 8,-64"/>
<text text-anchor="middle" x="59" y="-123" font-family="Helvetica,sans-Serif" font-size="10.00">src</text>
</a>
</g>
</g>
<!-- dir_6627eed6330f69ccbe6d8fa15976635b -->
<g id="node1" class="node"><title>dir_6627eed6330f69ccbe6d8fa15976635b</title>
<g id="a_node1"><a xlink:href="dir_6627eed6330f69ccbe6d8fa15976635b.html" target="_top" xlink:title="templatemethod">
<polygon fill="#eeeeff" stroke="black" points="102,-108 16,-108 16,-72 102,-72 102,-108"/>
<text text-anchor="middle" x="59" y="-87.5" font-family="Helvetica,sans-Serif" font-size="10.00">templatemethod</text>
</a>
</g>
</g>
<!-- dir_e7067f6c8f57218172f13b4d43a08c21 -->
<g id="node2" class="node"><title>dir_e7067f6c8f57218172f13b4d43a08c21</title>
<g id="a_node2"><a xlink:href="dir_e7067f6c8f57218172f13b4d43a08c21.html" target="_top" xlink:title="operational">
<polygon fill="white" stroke="red" points="91,-36 27,-36 27,-0 91,-0 91,-36"/>
<text text-anchor="middle" x="59" y="-15.5" font-family="Helvetica,sans-Serif" font-size="10.00">operational</text>
</a>
</g>
</g>
<!-- dir_6627eed6330f69ccbe6d8fa15976635b&#45;&gt;dir_e7067f6c8f57218172f13b4d43a08c21 -->
<g id="edge1" class="edge"><title>dir_6627eed6330f69ccbe6d8fa15976635b&#45;&gt;dir_e7067f6c8f57218172f13b4d43a08c21</title>
<path fill="none" stroke="black" d="M59,-71.6966C59,-63.9827 59,-54.7125 59,-46.1124"/>
<polygon fill="black" stroke="black" points="62.5001,-46.1043 59,-36.1043 55.5001,-46.1044 62.5001,-46.1043"/>
<g id="a_edge1&#45;headlabel"><a xlink:href="dir_000041_000014.html" target="_top" xlink:title="1">
<text text-anchor="middle" x="65.3393" y="-47.199" font-family="Helvetica,sans-Serif" font-size="10.00">1</text>
</a>
</g>
</g>
</g>
</svg>
