<?xml version="1.0" encoding="UTF-8" standalone="no"?>
<!DOCTYPE svg PUBLIC "-//W3C//DTD SVG 1.1//EN"
 "http://www.w3.org/Graphics/SVG/1.1/DTD/svg11.dtd">
<!-- Generated by graphviz version 2.38.0 (20140413.2041)
 -->
<!-- Title: src/structural/src Pages: 1 -->
<svg width="690pt" height="183pt"
 viewBox="0.00 0.00 690.00 183.00" xmlns="http://www.w3.org/2000/svg" xmlns:xlink="http://www.w3.org/1999/xlink">
<g id="graph0" class="graph" transform="scale(1 1) rotate(0) translate(4 179)">
<title>src/structural/src</title>
<polygon fill="white" stroke="none" points="-4,4 -4,-179 686,-179 686,4 -4,4"/>
<g id="clust1" class="cluster"><title>clusterdir_3c0c3d6b075b2d31648cdc5c18b1adf7</title>
<g id="a_clust1"><a xlink:href="dir_3c0c3d6b075b2d31648cdc5c18b1adf7.html" target="_top" xlink:title="structural">
<polygon fill="#ddddee" stroke="black" points="8,-8 8,-167 610,-167 610,-8 8,-8"/>
<text text-anchor="middle" x="309" y="-155" font-family="Helvetica,sans-Serif" font-size="10.00">structural</text>
</a>
</g>
</g>
<g id="clust2" class="cluster"><title>clusterdir_49f7e7fc225527add15f6b5b3c1ab585</title>
<g id="a_clust2"><a xlink:href="dir_49f7e7fc225527add15f6b5b3c1ab585.html" target="_top">
<polygon fill="#eeeeff" stroke="black" points="16,-16 16,-140 602,-140 602,-16 16,-16"/>
</a>
</g>
</g>
<!-- dir_49f7e7fc225527add15f6b5b3c1ab585 -->
<g id="node1" class="node"><title>dir_49f7e7fc225527add15f6b5b3c1ab585</title>
<text text-anchor="middle" x="567" y="-111.5" font-family="Helvetica,sans-Serif" font-size="10.00">src</text>
</g>
<!-- dir_73fa74320628c0627b307e707facaedd -->
<g id="node2" class="node"><title>dir_73fa74320628c0627b307e707facaedd</title>
<g id="a_node2"><a xlink:href="dir_73fa74320628c0627b307e707facaedd.html" target="_top" xlink:title="adapter">
<polygon fill="white" stroke="black" points="222,-132 168,-132 168,-96 222,-96 222,-132"/>
<text text-anchor="middle" x="195" y="-111.5" font-family="Helvetica,sans-Serif" font-size="10.00">adapter</text>
</a>
</g>
</g>
<!-- dir_79b61defcf0fc6de5dc20493c6a1a8a3 -->
<g id="node4" class="node"><title>dir_79b61defcf0fc6de5dc20493c6a1a8a3</title>
<g id="a_node4"><a xlink:href="dir_79b61defcf0fc6de5dc20493c6a1a8a3.html" target="_top" xlink:title="commons">
<polygon fill="white" stroke="black" points="188.5,-60 129.5,-60 129.5,-24 188.5,-24 188.5,-60"/>
<text text-anchor="middle" x="159" y="-39.5" font-family="Helvetica,sans-Serif" font-size="10.00">commons</text>
</a>
</g>
</g>
<!-- dir_73fa74320628c0627b307e707facaedd&#45;&gt;dir_79b61defcf0fc6de5dc20493c6a1a8a3 -->
<g id="edge5" class="edge"><title>dir_73fa74320628c0627b307e707facaedd&#45;&gt;dir_79b61defcf0fc6de5dc20493c6a1a8a3</title>
<path fill="none" stroke="black" d="M186.101,-95.6966C182.003,-87.7284 177.051,-78.0995 172.507,-69.2641"/>
<polygon fill="black" stroke="black" points="175.483,-67.3965 167.797,-60.1043 169.258,-70.598 175.483,-67.3965"/>
<g id="a_edge5&#45;headlabel"><a xlink:href="dir_000043_000046.html" target="_top" xlink:title="1">
<text text-anchor="middle" x="179.651" y="-66.7946" font-family="Helvetica,sans-Serif" font-size="10.00">1</text>
</a>
</g>
</g>
<!-- dir_4a0fc4e8c9ded99bc9fd8eb35fed322a -->
<g id="node3" class="node"><title>dir_4a0fc4e8c9ded99bc9fd8eb35fed322a</title>
<g id="a_node3"><a xlink:href="dir_4a0fc4e8c9ded99bc9fd8eb35fed322a.html" target="_top" xlink:title="bridge">
<polygon fill="white" stroke="black" points="150,-132 96,-132 96,-96 150,-96 150,-132"/>
<text text-anchor="middle" x="123" y="-111.5" font-family="Helvetica,sans-Serif" font-size="10.00">bridge</text>
</a>
</g>
</g>
<!-- dir_4a0fc4e8c9ded99bc9fd8eb35fed322a&#45;&gt;dir_79b61defcf0fc6de5dc20493c6a1a8a3 -->
<g id="edge3" class="edge"><title>dir_4a0fc4e8c9ded99bc9fd8eb35fed322a&#45;&gt;dir_79b61defcf0fc6de5dc20493c6a1a8a3</title>
<path fill="none" stroke="black" d="M131.899,-95.6966C135.997,-87.7284 140.949,-78.0995 145.493,-69.2641"/>
<polygon fill="black" stroke="black" points="148.742,-70.598 150.203,-60.1043 142.517,-67.3965 148.742,-70.598"/>
<g id="a_edge3&#45;headlabel"><a xlink:href="dir_000044_000046.html" target="_top" xlink:title="1">
<text text-anchor="middle" x="149.623" y="-72.5931" font-family="Helvetica,sans-Serif" font-size="10.00">1</text>
</a>
</g>
</g>
<!-- dir_1bc91de3ad219f0ad0123a9241bd462b -->
<g id="node5" class="node"><title>dir_1bc91de3ad219f0ad0123a9241bd462b</title>
<g id="a_node5"><a xlink:href="dir_1bc91de3ad219f0ad0123a9241bd462b.html" target="_top" xlink:title="composite">
<polygon fill="white" stroke="black" points="378,-132 316,-132 316,-96 378,-96 378,-132"/>
<text text-anchor="middle" x="347" y="-111.5" font-family="Helvetica,sans-Serif" font-size="10.00">composite</text>
</a>
</g>
</g>
<!-- dir_e7067f6c8f57218172f13b4d43a08c21 -->
<g id="node10" class="node"><title>dir_e7067f6c8f57218172f13b4d43a08c21</title>
<g id="a_node10"><a xlink:href="dir_e7067f6c8f57218172f13b4d43a08c21.html" target="_top" xlink:title="operational">
<polygon fill="white" stroke="red" points="682,-60 618,-60 618,-24 682,-24 682,-60"/>
<text text-anchor="middle" x="650" y="-39.5" font-family="Helvetica,sans-Serif" font-size="10.00">operational</text>
</a>
</g>
</g>
<!-- dir_1bc91de3ad219f0ad0123a9241bd462b&#45;&gt;dir_e7067f6c8f57218172f13b4d43a08c21 -->
<g id="edge1" class="edge"><title>dir_1bc91de3ad219f0ad0123a9241bd462b&#45;&gt;dir_e7067f6c8f57218172f13b4d43a08c21</title>
<path fill="none" stroke="black" d="M378.185,-98.9117C381.132,-97.8343 384.101,-96.8411 387,-96 481.733,-68.5131 510.825,-85.9118 606,-60 606.593,-59.8387 607.188,-59.6722 607.786,-59.501"/>
<polygon fill="black" stroke="black" points="609.105,-62.7544 617.572,-56.3861 606.981,-56.0842 609.105,-62.7544"/>
<g id="a_edge1&#45;headlabel"><a xlink:href="dir_000029_000014.html" target="_top" xlink:title="1">
<text text-anchor="middle" x="606.541" y="-64.0502" font-family="Helvetica,sans-Serif" font-size="10.00">1</text>
</a>
</g>
</g>
<!-- dir_a6d5a921a0065152a9b52da69dbe7b0c -->
<g id="node6" class="node"><title>dir_a6d5a921a0065152a9b52da69dbe7b0c</title>
<g id="a_node6"><a xlink:href="dir_a6d5a921a0065152a9b52da69dbe7b0c.html" target="_top" xlink:title="decorator">
<polygon fill="white" stroke="black" points="297.5,-132 240.5,-132 240.5,-96 297.5,-96 297.5,-132"/>
<text text-anchor="middle" x="269" y="-111.5" font-family="Helvetica,sans-Serif" font-size="10.00">decorator</text>
</a>
</g>
</g>
<!-- dir_397ff28df39855fe8c5947b0c84480f7 -->
<g id="node7" class="node"><title>dir_397ff28df39855fe8c5947b0c84480f7</title>
<g id="a_node7"><a xlink:href="dir_397ff28df39855fe8c5947b0c84480f7.html" target="_top" xlink:title="facade">
<polygon fill="white" stroke="black" points="522,-132 468,-132 468,-96 522,-96 522,-132"/>
<text text-anchor="middle" x="495" y="-111.5" font-family="Helvetica,sans-Serif" font-size="10.00">facade</text>
</a>
</g>
</g>
<!-- dir_397ff28df39855fe8c5947b0c84480f7&#45;&gt;dir_e7067f6c8f57218172f13b4d43a08c21 -->
<g id="edge7" class="edge"><title>dir_397ff28df39855fe8c5947b0c84480f7&#45;&gt;dir_e7067f6c8f57218172f13b4d43a08c21</title>
<path fill="none" stroke="black" d="M522.097,-100.126C525.096,-98.7238 528.11,-97.3257 531,-96 556.631,-84.2421 585.525,-71.3647 608.422,-61.2477"/>
<polygon fill="black" stroke="black" points="610.105,-64.3309 617.841,-57.0921 607.279,-57.9265 610.105,-64.3309"/>
<g id="a_edge7&#45;headlabel"><a xlink:href="dir_000048_000014.html" target="_top" xlink:title="4">
<text text-anchor="middle" x="607.962" y="-65.8795" font-family="Helvetica,sans-Serif" font-size="10.00">4</text>
</a>
</g>
</g>
<!-- dir_4adcf8c7e1805b86346c272bc4363cb3 -->
<g id="node8" class="node"><title>dir_4adcf8c7e1805b86346c272bc4363cb3</title>
<g id="a_node8"><a xlink:href="dir_4adcf8c7e1805b86346c272bc4363cb3.html" target="_top" xlink:title="flyweight">
<polygon fill="white" stroke="black" points="450,-132 396,-132 396,-96 450,-96 450,-132"/>
<text text-anchor="middle" x="423" y="-111.5" font-family="Helvetica,sans-Serif" font-size="10.00">flyweight</text>
</a>
</g>
</g>
<!-- dir_4adcf8c7e1805b86346c272bc4363cb3&#45;&gt;dir_e7067f6c8f57218172f13b4d43a08c21 -->
<g id="edge6" class="edge"><title>dir_4adcf8c7e1805b86346c272bc4363cb3&#45;&gt;dir_e7067f6c8f57218172f13b4d43a08c21</title>
<path fill="none" stroke="black" d="M450.278,-99.4245C453.189,-98.1852 456.134,-97.0161 459,-96 522.398,-73.5255 541.829,-80.1626 606,-60 606.732,-59.7699 607.47,-59.5338 608.212,-59.2925"/>
<polygon fill="black" stroke="black" points="609.658,-62.496 617.968,-55.9236 607.373,-55.8794 609.658,-62.496"/>
<g id="a_edge6&#45;headlabel"><a xlink:href="dir_000045_000014.html" target="_top" xlink:title="1">
<text text-anchor="middle" x="607.187" y="-63.853" font-family="Helvetica,sans-Serif" font-size="10.00">1</text>
</a>
</g>
</g>
<!-- dir_9cb56243ecdf824a7e8fad71b9a9f469 -->
<g id="node9" class="node"><title>dir_9cb56243ecdf824a7e8fad71b9a9f469</title>
<g id="a_node9"><a xlink:href="dir_9cb56243ecdf824a7e8fad71b9a9f469.html" target="_top" xlink:title="proxy">
<polygon fill="white" stroke="black" points="78,-132 24,-132 24,-96 78,-96 78,-132"/>
<text text-anchor="middle" x="51" y="-111.5" font-family="Helvetica,sans-Serif" font-size="10.00">proxy</text>
</a>
</g>
</g>
<!-- dir_9cb56243ecdf824a7e8fad71b9a9f469&#45;&gt;dir_79b61defcf0fc6de5dc20493c6a1a8a3 -->
<g id="edge4" class="edge"><title>dir_9cb56243ecdf824a7e8fad71b9a9f469&#45;&gt;dir_79b61defcf0fc6de5dc20493c6a1a8a3</title>
<path fill="none" stroke="black" d="M77.4198,-95.8761C91.41,-86.8083 108.776,-75.5523 123.886,-65.7592"/>
<polygon fill="black" stroke="black" points="125.991,-68.5658 132.479,-60.1898 122.183,-62.6917 125.991,-68.5658"/>
<g id="a_edge4&#45;headlabel"><a xlink:href="dir_000049_000046.html" target="_top" xlink:title="2">
<text text-anchor="middle" x="124.519" y="-70.4034" font-family="Helvetica,sans-Serif" font-size="10.00">2</text>
</a>
</g>
</g>
<!-- dir_e7067f6c8f57218172f13b4d43a08c21&#45;&gt;dir_79b61defcf0fc6de5dc20493c6a1a8a3 -->
<g id="edge2" class="edge"><title>dir_e7067f6c8f57218172f13b4d43a08c21&#45;&gt;dir_79b61defcf0fc6de5dc20493c6a1a8a3</title>
<path fill="none" stroke="black" d="M617.567,-42C477.971,-42 338.375,-42 198.779,-42"/>
<polygon fill="black" stroke="black" points="198.729,-38.5001 188.729,-42 198.728,-45.5001 198.729,-38.5001"/>
<g id="a_edge2&#45;headlabel"><a xlink:href="dir_000014_000046.html" target="_top" xlink:title="1">
<text text-anchor="middle" x="202.323" y="-33.1607" font-family="Helvetica,sans-Serif" font-size="10.00">1</text>
</a>
</g>
</g>
</g>
</svg>
