<?xml version="1.0" encoding="UTF-8" standalone="no"?>
<!DOCTYPE svg PUBLIC "-//W3C//DTD SVG 1.1//EN"
 "http://www.w3.org/Graphics/SVG/1.1/DTD/svg11.dtd">
<!-- Generated by graphviz version 2.38.0 (20140413.2041)
 -->
<!-- Title: src/creational_tests/src Pages: 1 -->
<svg width="274pt" height="231pt"
 viewBox="0.00 0.00 274.00 231.00" xmlns="http://www.w3.org/2000/svg" xmlns:xlink="http://www.w3.org/1999/xlink">
<g id="graph0" class="graph" transform="scale(1 1) rotate(0) translate(4 227)">
<title>src/creational_tests/src</title>
<polygon fill="white" stroke="none" points="-4,4 -4,-227 270,-227 270,4 -4,4"/>
<g id="clust1" class="cluster"><title>clusterdir_0cf8d4a5c0485f13d201d26e226d950e</title>
<g id="a_clust1"><a xlink:href="dir_0cf8d4a5c0485f13d201d26e226d950e.html" target="_top" xlink:title="creational_tests">
<polygon fill="#ddddee" stroke="black" points="8,-56 8,-215 258,-215 258,-56 8,-56"/>
<text text-anchor="middle" x="133" y="-203" font-family="Helvetica,sans-Serif" font-size="10.00">creational_tests</text>
</a>
</g>
</g>
<g id="clust2" class="cluster"><title>clusterdir_7fbdc39365bfd1f47cefd1b520956a7a</title>
<g id="a_clust2"><a xlink:href="dir_7fbdc39365bfd1f47cefd1b520956a7a.html" target="_top">
<polygon fill="#eeeeff" stroke="black" points="16,-64 16,-188 250,-188 250,-64 16,-64"/>
</a>
</g>
</g>
<!-- dir_7fbdc39365bfd1f47cefd1b520956a7a -->
<g id="node1" class="node"><title>dir_7fbdc39365bfd1f47cefd1b520956a7a</title>
<text text-anchor="middle" x="215" y="-159.5" font-family="Helvetica,sans-Serif" font-size="10.00">src</text>
</g>
<!-- dir_a8ab12859f38b02d074d126cad711b21 -->
<g id="node2" class="node"><title>dir_a8ab12859f38b02d074d126cad711b21</title>
<g id="a_node2"><a xlink:href="dir_a8ab12859f38b02d074d126cad711b21.html" target="_top" xlink:title="mazegame">
<polygon fill="white" stroke="black" points="89.5,-180 24.5,-180 24.5,-144 89.5,-144 89.5,-180"/>
<text text-anchor="middle" x="57" y="-159.5" font-family="Helvetica,sans-Serif" font-size="10.00">mazegame</text>
</a>
</g>
</g>
<!-- dir_f05aa00d3a0581e863c3cb05841bf50f -->
<g id="node4" class="node"><title>dir_f05aa00d3a0581e863c3cb05841bf50f</title>
<g id="a_node4"><a xlink:href="dir_f05aa00d3a0581e863c3cb05841bf50f.html" target="_top" xlink:title="utils">
<polygon fill="white" stroke="black" points="78,-108 24,-108 24,-72 78,-72 78,-108"/>
<text text-anchor="middle" x="51" y="-87.5" font-family="Helvetica,sans-Serif" font-size="10.00">utils</text>
</a>
</g>
</g>
<!-- dir_a8ab12859f38b02d074d126cad711b21&#45;&gt;dir_f05aa00d3a0581e863c3cb05841bf50f -->
<g id="edge2" class="edge"><title>dir_a8ab12859f38b02d074d126cad711b21&#45;&gt;dir_f05aa00d3a0581e863c3cb05841bf50f</title>
<path fill="none" stroke="black" d="M55.5169,-143.697C54.8557,-135.983 54.0611,-126.712 53.3239,-118.112"/>
<polygon fill="black" stroke="black" points="56.8074,-117.769 52.4661,-108.104 49.833,-118.367 56.8074,-117.769"/>
<g id="a_edge2&#45;headlabel"><a xlink:href="dir_000011_000013.html" target="_top" xlink:title="1">
<text text-anchor="middle" x="59.9432" y="-118.608" font-family="Helvetica,sans-Serif" font-size="10.00">1</text>
</a>
</g>
</g>
<!-- dir_a10d24b5b8657015a441b87c792b7b2d -->
<g id="node5" class="node"><title>dir_a10d24b5b8657015a441b87c792b7b2d</title>
<g id="a_node5"><a xlink:href="dir_a10d24b5b8657015a441b87c792b7b2d.html" target="_top" xlink:title="creational">
<polygon fill="white" stroke="red" points="135.5,-36 76.5,-36 76.5,-0 135.5,-0 135.5,-36"/>
<text text-anchor="middle" x="106" y="-15.5" font-family="Helvetica,sans-Serif" font-size="10.00">creational</text>
</a>
</g>
</g>
<!-- dir_a8ab12859f38b02d074d126cad711b21&#45;&gt;dir_a10d24b5b8657015a441b87c792b7b2d -->
<g id="edge3" class="edge"><title>dir_a8ab12859f38b02d074d126cad711b21&#45;&gt;dir_a10d24b5b8657015a441b87c792b7b2d</title>
<path fill="none" stroke="black" d="M68.3987,-143.99C74.6983,-133.903 82.1983,-120.653 87,-108 94.6025,-87.9665 99.4823,-64.1809 102.391,-46.2412"/>
<polygon fill="black" stroke="black" points="105.879,-46.5816 103.917,-36.17 98.9579,-45.5326 105.879,-46.5816"/>
<g id="a_edge3&#45;headlabel"><a xlink:href="dir_000011_000001.html" target="_top" xlink:title="8">
<text text-anchor="middle" x="108.147" y="-48.0611" font-family="Helvetica,sans-Serif" font-size="10.00">8</text>
</a>
</g>
</g>
<!-- dir_09202a4162451babcb4ddc36c52e45aa -->
<g id="node3" class="node"><title>dir_09202a4162451babcb4ddc36c52e45aa</title>
<g id="a_node3"><a xlink:href="dir_09202a4162451babcb4ddc36c52e45aa.html" target="_top" xlink:title="mazeparts">
<polygon fill="white" stroke="black" points="170,-180 108,-180 108,-144 170,-144 170,-180"/>
<text text-anchor="middle" x="139" y="-159.5" font-family="Helvetica,sans-Serif" font-size="10.00">mazeparts</text>
</a>
</g>
</g>
<!-- dir_09202a4162451babcb4ddc36c52e45aa&#45;&gt;dir_a10d24b5b8657015a441b87c792b7b2d -->
<g id="edge4" class="edge"><title>dir_09202a4162451babcb4ddc36c52e45aa&#45;&gt;dir_a10d24b5b8657015a441b87c792b7b2d</title>
<path fill="none" stroke="black" d="M136.856,-143.687C134.03,-122.693 128.411,-86.3488 120,-56 119.054,-52.5873 117.921,-49.0483 116.715,-45.5724"/>
<polygon fill="black" stroke="black" points="119.965,-44.2682 113.217,-36.1003 113.398,-46.6936 119.965,-44.2682"/>
<g id="a_edge4&#45;headlabel"><a xlink:href="dir_000012_000001.html" target="_top" xlink:title="15">
<text text-anchor="middle" x="123.874" y="-44.1564" font-family="Helvetica,sans-Serif" font-size="10.00">15</text>
</a>
</g>
</g>
<!-- dir_f05aa00d3a0581e863c3cb05841bf50f&#45;&gt;dir_a10d24b5b8657015a441b87c792b7b2d -->
<g id="edge1" class="edge"><title>dir_f05aa00d3a0581e863c3cb05841bf50f&#45;&gt;dir_a10d24b5b8657015a441b87c792b7b2d</title>
<path fill="none" stroke="black" d="M64.5955,-71.6966C71.1227,-63.3893 79.068,-53.2771 86.2466,-44.1407"/>
<polygon fill="black" stroke="black" points="89.1347,-46.1299 92.5609,-36.1043 83.6305,-41.8051 89.1347,-46.1299"/>
<g id="a_edge1&#45;headlabel"><a xlink:href="dir_000013_000001.html" target="_top" xlink:title="8">
<text text-anchor="middle" x="89.1465" y="-48.2106" font-family="Helvetica,sans-Serif" font-size="10.00">8</text>
</a>
</g>
</g>
</g>
</svg>
