<?xml version="1.0" encoding="UTF-8" standalone="no"?>
<!DOCTYPE svg PUBLIC "-//W3C//DTD SVG 1.1//EN"
 "http://www.w3.org/Graphics/SVG/1.1/DTD/svg11.dtd">
<!-- Generated by graphviz version 2.38.0 (20140413.2041)
 -->
<!-- Title: src/operational_tests Pages: 1 -->
<svg width="220pt" height="159pt"
 viewBox="0.00 0.00 220.00 159.00" xmlns="http://www.w3.org/2000/svg" xmlns:xlink="http://www.w3.org/1999/xlink">
<g id="graph0" class="graph" transform="scale(1 1) rotate(0) translate(4 155)">
<title>src/operational_tests</title>
<polygon fill="white" stroke="none" points="-4,4 -4,-155 216,-155 216,4 -4,4"/>
<g id="clust1" class="cluster"><title>clusterdir_68267d1309a1af8e8297ef4c3efbcdba</title>
<g id="a_clust1"><a xlink:href="dir_68267d1309a1af8e8297ef4c3efbcdba.html" target="_top" xlink:title="src">
<polygon fill="#ddddee" stroke="black" points="8,-56 8,-143 204,-143 204,-56 8,-56"/>
<text text-anchor="middle" x="106" y="-131" font-family="Helvetica,sans-Serif" font-size="10.00">src</text>
</a>
</g>
</g>
<g id="clust2" class="cluster"><title>clusterdir_539b4c898b0fc2f8494f6ce22ca4ca22</title>
<g id="a_clust2"><a xlink:href="dir_539b4c898b0fc2f8494f6ce22ca4ca22.html" target="_top">
<polygon fill="#eeeeff" stroke="black" points="16,-64 16,-116 196,-116 196,-64 16,-64"/>
</a>
</g>
</g>
<!-- dir_539b4c898b0fc2f8494f6ce22ca4ca22 -->
<g id="node1" class="node"><title>dir_539b4c898b0fc2f8494f6ce22ca4ca22</title>
<text text-anchor="middle" x="142" y="-87.5" font-family="Helvetica,sans-Serif" font-size="10.00">operational_tests</text>
</g>
<!-- dir_107692fd60774061a80e967f6a6b2fae -->
<g id="node2" class="node"><title>dir_107692fd60774061a80e967f6a6b2fae</title>
<g id="a_node2"><a xlink:href="dir_107692fd60774061a80e967f6a6b2fae.html" target="_top" xlink:title="src">
<polygon fill="white" stroke="red" points="78,-108 24,-108 24,-72 78,-72 78,-108"/>
<text text-anchor="middle" x="51" y="-87.5" font-family="Helvetica,sans-Serif" font-size="10.00">src</text>
</a>
</g>
</g>
<!-- dir_e7067f6c8f57218172f13b4d43a08c21 -->
<g id="node3" class="node"><title>dir_e7067f6c8f57218172f13b4d43a08c21</title>
<g id="a_node3"><a xlink:href="dir_e7067f6c8f57218172f13b4d43a08c21.html" target="_top" xlink:title="operational">
<polygon fill="white" stroke="red" points="83,-36 19,-36 19,-0 83,-0 83,-36"/>
<text text-anchor="middle" x="51" y="-15.5" font-family="Helvetica,sans-Serif" font-size="10.00">operational</text>
</a>
</g>
</g>
<!-- dir_107692fd60774061a80e967f6a6b2fae&#45;&gt;dir_e7067f6c8f57218172f13b4d43a08c21 -->
<g id="edge1" class="edge"><title>dir_107692fd60774061a80e967f6a6b2fae&#45;&gt;dir_e7067f6c8f57218172f13b4d43a08c21</title>
<path fill="none" stroke="black" d="M51,-71.6966C51,-63.9827 51,-54.7125 51,-46.1124"/>
<polygon fill="black" stroke="black" points="54.5001,-46.1043 51,-36.1043 47.5001,-46.1044 54.5001,-46.1043"/>
<g id="a_edge1&#45;headlabel"><a xlink:href="dir_000031_000014.html" target="_top" xlink:title="39">
<text text-anchor="middle" x="57.3393" y="-47.199" font-family="Helvetica,sans-Serif" font-size="10.00">39</text>
</a>
</g>
</g>
</g>
</svg>
