<?xml version="1.0" encoding="UTF-8" standalone="no"?>
<!DOCTYPE svg PUBLIC "-//W3C//DTD SVG 1.1//EN"
 "http://www.w3.org/Graphics/SVG/1.1/DTD/svg11.dtd">
<!-- Generated by graphviz version 2.38.0 (20140413.2041)
 -->
<!-- Title: src/creational/src/builder Pages: 1 -->
<svg width="94pt" height="151pt"
 viewBox="0.00 0.00 94.00 151.00" xmlns="http://www.w3.org/2000/svg" xmlns:xlink="http://www.w3.org/1999/xlink">
<g id="graph0" class="graph" transform="scale(1 1) rotate(0) translate(4 147)">
<title>src/creational/src/builder</title>
<polygon fill="white" stroke="none" points="-4,4 -4,-147 90,-147 90,4 -4,4"/>
<g id="clust1" class="cluster"><title>clusterdir_6f6f9459d7a22bc69c4612a8db07afce</title>
<g id="a_clust1"><a xlink:href="dir_6f6f9459d7a22bc69c4612a8db07afce.html" target="_top" xlink:title="src">
<polygon fill="#ddddee" stroke="black" points="8,-64 8,-135 78,-135 78,-64 8,-64"/>
<text text-anchor="middle" x="43" y="-123" font-family="Helvetica,sans-Serif" font-size="10.00">src</text>
</a>
</g>
</g>
<!-- dir_24f171d3141f05d6844eb6b74ae5082e -->
<g id="node1" class="node"><title>dir_24f171d3141f05d6844eb6b74ae5082e</title>
<g id="a_node1"><a xlink:href="dir_24f171d3141f05d6844eb6b74ae5082e.html" target="_top" xlink:title="builder">
<polygon fill="#eeeeff" stroke="black" points="70,-108 16,-108 16,-72 70,-72 70,-108"/>
<text text-anchor="middle" x="43" y="-87.5" font-family="Helvetica,sans-Serif" font-size="10.00">builder</text>
</a>
</g>
</g>
<!-- dir_60cca19bc7f4e565ecd98e58ba41bf09 -->
<g id="node2" class="node"><title>dir_60cca19bc7f4e565ecd98e58ba41bf09</title>
<g id="a_node2"><a xlink:href="dir_60cca19bc7f4e565ecd98e58ba41bf09.html" target="_top" xlink:title="mazeparts">
<polygon fill="none" stroke="black" points="74,-36 12,-36 12,-0 74,-0 74,-36"/>
<text text-anchor="middle" x="43" y="-15.5" font-family="Helvetica,sans-Serif" font-size="10.00">mazeparts</text>
</a>
</g>
</g>
<!-- dir_24f171d3141f05d6844eb6b74ae5082e&#45;&gt;dir_60cca19bc7f4e565ecd98e58ba41bf09 -->
<g id="edge1" class="edge"><title>dir_24f171d3141f05d6844eb6b74ae5082e&#45;&gt;dir_60cca19bc7f4e565ecd98e58ba41bf09</title>
<path fill="none" stroke="black" d="M43,-71.6966C43,-63.9827 43,-54.7125 43,-46.1124"/>
<polygon fill="black" stroke="black" points="46.5001,-46.1043 43,-36.1043 39.5001,-46.1044 46.5001,-46.1043"/>
<g id="a_edge1&#45;headlabel"><a xlink:href="dir_000004_000007.html" target="_top" xlink:title="5">
<text text-anchor="middle" x="49.3393" y="-47.199" font-family="Helvetica,sans-Serif" font-size="10.00">5</text>
</a>
</g>
</g>
</g>
</svg>
