<?xml version="1.0" encoding="UTF-8" standalone="no"?>
<!DOCTYPE svg PUBLIC "-//W3C//DTD SVG 1.1//EN"
 "http://www.w3.org/Graphics/SVG/1.1/DTD/svg11.dtd">
<!-- Generated by graphviz version 2.38.0 (20140413.2041)
 -->
<!-- Title: src Pages: 1 -->
<svg width="308pt" height="220pt"
 viewBox="0.00 0.00 308.00 220.00" xmlns="http://www.w3.org/2000/svg" xmlns:xlink="http://www.w3.org/1999/xlink">
<g id="graph0" class="graph" transform="scale(1 1) rotate(0) translate(4 216)">
<title>src</title>
<polygon fill="white" stroke="none" points="-4,4 -4,-216 304,-216 304,4 -4,4"/>
<g id="clust1" class="cluster"><title>clusterdir_68267d1309a1af8e8297ef4c3efbcdba</title>
<g id="a_clust1"><a xlink:href="dir_68267d1309a1af8e8297ef4c3efbcdba.html" target="_top">
<polygon fill="#eeeeff" stroke="black" points="8,-8 8,-204 292,-204 292,-8 8,-8"/>
</a>
</g>
</g>
<!-- dir_68267d1309a1af8e8297ef4c3efbcdba -->
<g id="node1" class="node"><title>dir_68267d1309a1af8e8297ef4c3efbcdba</title>
<text text-anchor="middle" x="257" y="-175.5" font-family="Helvetica,sans-Serif" font-size="10.00">src</text>
</g>
<!-- dir_a10d24b5b8657015a441b87c792b7b2d -->
<g id="node2" class="node"><title>dir_a10d24b5b8657015a441b87c792b7b2d</title>
<g id="a_node2"><a xlink:href="dir_a10d24b5b8657015a441b87c792b7b2d.html" target="_top" xlink:title="creational">
<polygon fill="white" stroke="red" points="259.5,-124 200.5,-124 200.5,-88 259.5,-88 259.5,-124"/>
<text text-anchor="middle" x="230" y="-103.5" font-family="Helvetica,sans-Serif" font-size="10.00">creational</text>
</a>
</g>
</g>
<!-- dir_0cf8d4a5c0485f13d201d26e226d950e -->
<g id="node3" class="node"><title>dir_0cf8d4a5c0485f13d201d26e226d950e</title>
<g id="a_node3"><a xlink:href="dir_0cf8d4a5c0485f13d201d26e226d950e.html" target="_top" xlink:title="creational_tests">
<polygon fill="white" stroke="red" points="212,-196 126,-196 126,-160 212,-160 212,-196"/>
<text text-anchor="middle" x="169" y="-175.5" font-family="Helvetica,sans-Serif" font-size="10.00">creational_tests</text>
</a>
</g>
</g>
<!-- dir_0cf8d4a5c0485f13d201d26e226d950e&#45;&gt;dir_a10d24b5b8657015a441b87c792b7b2d -->
<g id="edge1" class="edge"><title>dir_0cf8d4a5c0485f13d201d26e226d950e&#45;&gt;dir_a10d24b5b8657015a441b87c792b7b2d</title>
<path fill="none" stroke="black" d="M184.079,-159.697C191.392,-151.305 200.31,-141.07 208.335,-131.861"/>
<polygon fill="black" stroke="black" points="211.164,-133.943 215.095,-124.104 205.886,-129.344 211.164,-133.943"/>
<g id="a_edge1&#45;headlabel"><a xlink:href="dir_000009_000001.html" target="_top" xlink:title="31">
<text text-anchor="middle" x="210.943" y="-136.018" font-family="Helvetica,sans-Serif" font-size="10.00">31</text>
</a>
</g>
</g>
<!-- dir_e7067f6c8f57218172f13b4d43a08c21 -->
<g id="node4" class="node"><title>dir_e7067f6c8f57218172f13b4d43a08c21</title>
<g id="a_node4"><a xlink:href="dir_e7067f6c8f57218172f13b4d43a08c21.html" target="_top" xlink:title="operational">
<polygon fill="white" stroke="red" points="182,-124 118,-124 118,-88 182,-88 182,-124"/>
<text text-anchor="middle" x="150" y="-103.5" font-family="Helvetica,sans-Serif" font-size="10.00">operational</text>
</a>
</g>
</g>
<!-- dir_3c0c3d6b075b2d31648cdc5c18b1adf7 -->
<g id="node6" class="node"><title>dir_3c0c3d6b075b2d31648cdc5c18b1adf7</title>
<g id="a_node6"><a xlink:href="dir_3c0c3d6b075b2d31648cdc5c18b1adf7.html" target="_top" xlink:title="structural">
<polygon fill="white" stroke="red" points="178.5,-52 121.5,-52 121.5,-16 178.5,-16 178.5,-52"/>
<text text-anchor="middle" x="150" y="-31.5" font-family="Helvetica,sans-Serif" font-size="10.00">structural</text>
</a>
</g>
</g>
<!-- dir_e7067f6c8f57218172f13b4d43a08c21&#45;&gt;dir_3c0c3d6b075b2d31648cdc5c18b1adf7 -->
<g id="edge3" class="edge"><title>dir_e7067f6c8f57218172f13b4d43a08c21&#45;&gt;dir_3c0c3d6b075b2d31648cdc5c18b1adf7</title>
<path fill="none" stroke="black" d="M144.084,-87.6966C143.289,-79.9827 143.062,-70.7125 143.405,-62.1124"/>
<polygon fill="black" stroke="black" points="146.898,-62.3243 144.105,-52.1043 139.915,-61.8356 146.898,-62.3243"/>
<g id="a_edge3&#45;headlabel"><a xlink:href="dir_000014_000027.html" target="_top" xlink:title="1">
<text text-anchor="middle" x="149.48" y="-63.6083" font-family="Helvetica,sans-Serif" font-size="10.00">1</text>
</a>
</g>
</g>
<!-- dir_539b4c898b0fc2f8494f6ce22ca4ca22 -->
<g id="node5" class="node"><title>dir_539b4c898b0fc2f8494f6ce22ca4ca22</title>
<g id="a_node5"><a xlink:href="dir_539b4c898b0fc2f8494f6ce22ca4ca22.html" target="_top" xlink:title="operational_tests">
<polygon fill="white" stroke="red" points="107.5,-196 16.5,-196 16.5,-160 107.5,-160 107.5,-196"/>
<text text-anchor="middle" x="62" y="-175.5" font-family="Helvetica,sans-Serif" font-size="10.00">operational_tests</text>
</a>
</g>
</g>
<!-- dir_539b4c898b0fc2f8494f6ce22ca4ca22&#45;&gt;dir_e7067f6c8f57218172f13b4d43a08c21 -->
<g id="edge5" class="edge"><title>dir_539b4c898b0fc2f8494f6ce22ca4ca22&#45;&gt;dir_e7067f6c8f57218172f13b4d43a08c21</title>
<path fill="none" stroke="black" d="M83.7528,-159.697C94.8357,-150.881 108.474,-140.032 120.49,-130.474"/>
<polygon fill="black" stroke="black" points="122.85,-133.069 128.497,-124.104 118.493,-127.59 122.85,-133.069"/>
<g id="a_edge5&#45;headlabel"><a xlink:href="dir_000030_000014.html" target="_top" xlink:title="39">
<text text-anchor="middle" x="121.805" y="-135.028" font-family="Helvetica,sans-Serif" font-size="10.00">39</text>
</a>
</g>
</g>
<!-- dir_3c0c3d6b075b2d31648cdc5c18b1adf7&#45;&gt;dir_e7067f6c8f57218172f13b4d43a08c21 -->
<g id="edge2" class="edge"><title>dir_3c0c3d6b075b2d31648cdc5c18b1adf7&#45;&gt;dir_e7067f6c8f57218172f13b4d43a08c21</title>
<path fill="none" stroke="black" d="M155.895,-52.1043C156.701,-59.7913 156.937,-69.0537 156.604,-77.6651"/>
<polygon fill="black" stroke="black" points="153.109,-77.4805 155.916,-87.6966 160.092,-77.9597 153.109,-77.4805"/>
<g id="a_edge2&#45;headlabel"><a xlink:href="dir_000027_000014.html" target="_top" xlink:title="6">
<text text-anchor="middle" x="150.522" y="-71.2" font-family="Helvetica,sans-Serif" font-size="10.00">6</text>
</a>
</g>
</g>
<!-- dir_8b401a06ba13a9ef913459b02b4275f6 -->
<g id="node7" class="node"><title>dir_8b401a06ba13a9ef913459b02b4275f6</title>
<g id="a_node7"><a xlink:href="dir_8b401a06ba13a9ef913459b02b4275f6.html" target="_top" xlink:title="structural_tests">
<polygon fill="white" stroke="red" points="100,-124 16,-124 16,-88 100,-88 100,-124"/>
<text text-anchor="middle" x="58" y="-103.5" font-family="Helvetica,sans-Serif" font-size="10.00">structural_tests</text>
</a>
</g>
</g>
<!-- dir_8b401a06ba13a9ef913459b02b4275f6&#45;&gt;dir_3c0c3d6b075b2d31648cdc5c18b1adf7 -->
<g id="edge4" class="edge"><title>dir_8b401a06ba13a9ef913459b02b4275f6&#45;&gt;dir_3c0c3d6b075b2d31648cdc5c18b1adf7</title>
<path fill="none" stroke="black" d="M80.7416,-87.6966C92.4396,-78.796 106.861,-67.8232 119.51,-58.1989"/>
<polygon fill="black" stroke="black" points="121.681,-60.945 127.52,-52.1043 117.442,-55.3742 121.681,-60.945"/>
<g id="a_edge4&#45;headlabel"><a xlink:href="dir_000050_000027.html" target="_top" xlink:title="23">
<text text-anchor="middle" x="120.54" y="-62.8811" font-family="Helvetica,sans-Serif" font-size="10.00">23</text>
</a>
</g>
</g>
</g>
</svg>
