<?xml version="1.0" encoding="UTF-8" standalone="no"?>
<!DOCTYPE svg PUBLIC "-//W3C//DTD SVG 1.1//EN"
 "http://www.w3.org/Graphics/SVG/1.1/DTD/svg11.dtd">
<!-- Generated by graphviz version 2.38.0 (20140413.2041)
 -->
<!-- Title: src/structural_tests/src Pages: 1 -->
<svg width="704pt" height="159pt"
 viewBox="0.00 0.00 704.00 159.00" xmlns="http://www.w3.org/2000/svg" xmlns:xlink="http://www.w3.org/1999/xlink">
<g id="graph0" class="graph" transform="scale(1 1) rotate(0) translate(4 155)">
<title>src/structural_tests/src</title>
<polygon fill="white" stroke="none" points="-4,4 -4,-155 700,-155 700,4 -4,4"/>
<g id="clust1" class="cluster"><title>clusterdir_8b401a06ba13a9ef913459b02b4275f6</title>
<g id="a_clust1"><a xlink:href="dir_8b401a06ba13a9ef913459b02b4275f6.html" target="_top" xlink:title="structural_tests">
<polygon fill="#ddddee" stroke="black" points="8,-56 8,-143 688,-143 688,-56 8,-56"/>
<text text-anchor="middle" x="348" y="-131" font-family="Helvetica,sans-Serif" font-size="10.00">structural_tests</text>
</a>
</g>
</g>
<g id="clust2" class="cluster"><title>clusterdir_586e37c8f35754b4fb60d521acba811e</title>
<g id="a_clust2"><a xlink:href="dir_586e37c8f35754b4fb60d521acba811e.html" target="_top">
<polygon fill="#eeeeff" stroke="black" points="16,-64 16,-116 680,-116 680,-64 16,-64"/>
</a>
</g>
</g>
<!-- dir_586e37c8f35754b4fb60d521acba811e -->
<g id="node1" class="node"><title>dir_586e37c8f35754b4fb60d521acba811e</title>
<text text-anchor="middle" x="645" y="-87.5" font-family="Helvetica,sans-Serif" font-size="10.00">src</text>
</g>
<!-- dir_c9e8dc10a65a8f140d1b6ef98a92eb16 -->
<g id="node2" class="node"><title>dir_c9e8dc10a65a8f140d1b6ef98a92eb16</title>
<g id="a_node2"><a xlink:href="dir_c9e8dc10a65a8f140d1b6ef98a92eb16.html" target="_top" xlink:title="adapter">
<polygon fill="white" stroke="black" points="600,-108 546,-108 546,-72 600,-72 600,-108"/>
<text text-anchor="middle" x="573" y="-87.5" font-family="Helvetica,sans-Serif" font-size="10.00">adapter</text>
</a>
</g>
</g>
<!-- dir_3c0c3d6b075b2d31648cdc5c18b1adf7 -->
<g id="node10" class="node"><title>dir_3c0c3d6b075b2d31648cdc5c18b1adf7</title>
<g id="a_node10"><a xlink:href="dir_3c0c3d6b075b2d31648cdc5c18b1adf7.html" target="_top" xlink:title="structural">
<polygon fill="white" stroke="red" points="336.5,-36 279.5,-36 279.5,-0 336.5,-0 336.5,-36"/>
<text text-anchor="middle" x="308" y="-15.5" font-family="Helvetica,sans-Serif" font-size="10.00">structural</text>
</a>
</g>
</g>
<!-- dir_c9e8dc10a65a8f140d1b6ef98a92eb16&#45;&gt;dir_3c0c3d6b075b2d31648cdc5c18b1adf7 -->
<g id="edge2" class="edge"><title>dir_c9e8dc10a65a8f140d1b6ef98a92eb16&#45;&gt;dir_3c0c3d6b075b2d31648cdc5c18b1adf7</title>
<path fill="none" stroke="black" d="M558.39,-71.9791C552.365,-66.0109 544.936,-59.8439 537,-56 475.168,-26.0501 394.05,-19.5861 346.809,-18.6064"/>
<polygon fill="black" stroke="black" points="346.74,-15.1053 336.694,-18.4705 346.646,-22.1047 346.74,-15.1053"/>
<g id="a_edge2&#45;headlabel"><a xlink:href="dir_000052_000027.html" target="_top" xlink:title="3">
<text text-anchor="middle" x="350.373" y="-9.81451" font-family="Helvetica,sans-Serif" font-size="10.00">3</text>
</a>
</g>
</g>
<!-- dir_e96b88c3aae86a5077f59ed10d0b53ad -->
<g id="node3" class="node"><title>dir_e96b88c3aae86a5077f59ed10d0b53ad</title>
<g id="a_node3"><a xlink:href="dir_e96b88c3aae86a5077f59ed10d0b53ad.html" target="_top" xlink:title="bridge">
<polygon fill="white" stroke="black" points="528,-108 474,-108 474,-72 528,-72 528,-108"/>
<text text-anchor="middle" x="501" y="-87.5" font-family="Helvetica,sans-Serif" font-size="10.00">bridge</text>
</a>
</g>
</g>
<!-- dir_e96b88c3aae86a5077f59ed10d0b53ad&#45;&gt;dir_3c0c3d6b075b2d31648cdc5c18b1adf7 -->
<g id="edge7" class="edge"><title>dir_e96b88c3aae86a5077f59ed10d0b53ad&#45;&gt;dir_3c0c3d6b075b2d31648cdc5c18b1adf7</title>
<path fill="none" stroke="black" d="M485.89,-71.933C479.912,-66.1052 472.644,-60.0448 465,-56 427.701,-36.2631 379.913,-26.9417 346.909,-22.6126"/>
<polygon fill="black" stroke="black" points="347.095,-19.1094 336.745,-21.3756 346.249,-26.0581 347.095,-19.1094"/>
<g id="a_edge7&#45;headlabel"><a xlink:href="dir_000053_000027.html" target="_top" xlink:title="4">
<text text-anchor="middle" x="351.006" y="-14.2251" font-family="Helvetica,sans-Serif" font-size="10.00">4</text>
</a>
</g>
</g>
<!-- dir_b35cac39deb83f929a507271fb996f29 -->
<g id="node4" class="node"><title>dir_b35cac39deb83f929a507271fb996f29</title>
<g id="a_node4"><a xlink:href="dir_b35cac39deb83f929a507271fb996f29.html" target="_top" xlink:title="commons">
<polygon fill="white" stroke="black" points="455.5,-108 396.5,-108 396.5,-72 455.5,-72 455.5,-108"/>
<text text-anchor="middle" x="426" y="-87.5" font-family="Helvetica,sans-Serif" font-size="10.00">commons</text>
</a>
</g>
</g>
<!-- dir_b35cac39deb83f929a507271fb996f29&#45;&gt;dir_3c0c3d6b075b2d31648cdc5c18b1adf7 -->
<g id="edge4" class="edge"><title>dir_b35cac39deb83f929a507271fb996f29&#45;&gt;dir_3c0c3d6b075b2d31648cdc5c18b1adf7</title>
<path fill="none" stroke="black" d="M407.74,-71.8271C401.444,-66.3853 394.168,-60.5958 387,-56 374.278,-47.8434 359.472,-40.4242 346.139,-34.4066"/>
<polygon fill="black" stroke="black" points="347.305,-31.0961 336.741,-30.2821 344.492,-37.506 347.305,-31.0961"/>
<g id="a_edge4&#45;headlabel"><a xlink:href="dir_000054_000027.html" target="_top" xlink:title="1">
<text text-anchor="middle" x="351.737" y="-27.4408" font-family="Helvetica,sans-Serif" font-size="10.00">1</text>
</a>
</g>
</g>
<!-- dir_917208ab94e6f82430867f704196d6be -->
<g id="node5" class="node"><title>dir_917208ab94e6f82430867f704196d6be</title>
<g id="a_node5"><a xlink:href="dir_917208ab94e6f82430867f704196d6be.html" target="_top" xlink:title="composite">
<polygon fill="white" stroke="black" points="378,-108 316,-108 316,-72 378,-72 378,-108"/>
<text text-anchor="middle" x="347" y="-87.5" font-family="Helvetica,sans-Serif" font-size="10.00">composite</text>
</a>
</g>
</g>
<!-- dir_917208ab94e6f82430867f704196d6be&#45;&gt;dir_3c0c3d6b075b2d31648cdc5c18b1adf7 -->
<g id="edge3" class="edge"><title>dir_917208ab94e6f82430867f704196d6be&#45;&gt;dir_3c0c3d6b075b2d31648cdc5c18b1adf7</title>
<path fill="none" stroke="black" d="M337.36,-71.6966C332.873,-63.6436 327.441,-53.8945 322.476,-44.9824"/>
<polygon fill="black" stroke="black" points="325.454,-43.1366 317.53,-36.1043 319.339,-46.5435 325.454,-43.1366"/>
<g id="a_edge3&#45;headlabel"><a xlink:href="dir_000055_000027.html" target="_top" xlink:title="3">
<text text-anchor="middle" x="329.684" y="-42.3948" font-family="Helvetica,sans-Serif" font-size="10.00">3</text>
</a>
</g>
</g>
<!-- dir_8ae535ad1776ff0e96b7687a0d1310ce -->
<g id="node6" class="node"><title>dir_8ae535ad1776ff0e96b7687a0d1310ce</title>
<g id="a_node6"><a xlink:href="dir_8ae535ad1776ff0e96b7687a0d1310ce.html" target="_top" xlink:title="decorator">
<polygon fill="white" stroke="black" points="297.5,-108 240.5,-108 240.5,-72 297.5,-72 297.5,-108"/>
<text text-anchor="middle" x="269" y="-87.5" font-family="Helvetica,sans-Serif" font-size="10.00">decorator</text>
</a>
</g>
</g>
<!-- dir_8ae535ad1776ff0e96b7687a0d1310ce&#45;&gt;dir_3c0c3d6b075b2d31648cdc5c18b1adf7 -->
<g id="edge6" class="edge"><title>dir_8ae535ad1776ff0e96b7687a0d1310ce&#45;&gt;dir_3c0c3d6b075b2d31648cdc5c18b1adf7</title>
<path fill="none" stroke="black" d="M278.64,-71.6966C283.127,-63.6436 288.559,-53.8945 293.524,-44.9824"/>
<polygon fill="black" stroke="black" points="296.661,-46.5435 298.47,-36.1043 290.546,-43.1366 296.661,-46.5435"/>
<g id="a_edge6&#45;headlabel"><a xlink:href="dir_000056_000027.html" target="_top" xlink:title="3">
<text text-anchor="middle" x="297.392" y="-48.5655" font-family="Helvetica,sans-Serif" font-size="10.00">3</text>
</a>
</g>
</g>
<!-- dir_52990ef3a4a01256e4cd1b707cb04749 -->
<g id="node7" class="node"><title>dir_52990ef3a4a01256e4cd1b707cb04749</title>
<g id="a_node7"><a xlink:href="dir_52990ef3a4a01256e4cd1b707cb04749.html" target="_top" xlink:title="facade">
<polygon fill="white" stroke="black" points="222,-108 168,-108 168,-72 222,-72 222,-108"/>
<text text-anchor="middle" x="195" y="-87.5" font-family="Helvetica,sans-Serif" font-size="10.00">facade</text>
</a>
</g>
</g>
<!-- dir_52990ef3a4a01256e4cd1b707cb04749&#45;&gt;dir_3c0c3d6b075b2d31648cdc5c18b1adf7 -->
<g id="edge1" class="edge"><title>dir_52990ef3a4a01256e4cd1b707cb04749&#45;&gt;dir_3c0c3d6b075b2d31648cdc5c18b1adf7</title>
<path fill="none" stroke="black" d="M212.25,-71.8344C218.218,-66.3931 225.137,-60.602 232,-56 243.752,-48.1194 257.433,-40.9263 269.923,-35.0207"/>
<polygon fill="black" stroke="black" points="271.563,-38.1192 279.19,-30.7656 268.642,-31.7578 271.563,-38.1192"/>
<g id="a_edge1&#45;headlabel"><a xlink:href="dir_000057_000027.html" target="_top" xlink:title="1">
<text text-anchor="middle" x="269.481" y="-39.6994" font-family="Helvetica,sans-Serif" font-size="10.00">1</text>
</a>
</g>
</g>
<!-- dir_527987e2f0c7831845462c629c0668cb -->
<g id="node8" class="node"><title>dir_527987e2f0c7831845462c629c0668cb</title>
<g id="a_node8"><a xlink:href="dir_527987e2f0c7831845462c629c0668cb.html" target="_top" xlink:title="flyweight">
<polygon fill="white" stroke="black" points="150,-108 96,-108 96,-72 150,-72 150,-108"/>
<text text-anchor="middle" x="123" y="-87.5" font-family="Helvetica,sans-Serif" font-size="10.00">flyweight</text>
</a>
</g>
</g>
<!-- dir_527987e2f0c7831845462c629c0668cb&#45;&gt;dir_3c0c3d6b075b2d31648cdc5c18b1adf7 -->
<g id="edge8" class="edge"><title>dir_527987e2f0c7831845462c629c0668cb&#45;&gt;dir_3c0c3d6b075b2d31648cdc5c18b1adf7</title>
<path fill="none" stroke="black" d="M138.137,-71.9825C144.118,-66.1601 151.38,-60.0904 159,-56 193.707,-37.3681 238.001,-27.9173 269.245,-23.2568"/>
<polygon fill="black" stroke="black" points="269.887,-26.7012 279.308,-21.8535 268.92,-19.7683 269.887,-26.7012"/>
<g id="a_edge8&#45;headlabel"><a xlink:href="dir_000058_000027.html" target="_top" xlink:title="4">
<text text-anchor="middle" x="266.719" y="-27.5096" font-family="Helvetica,sans-Serif" font-size="10.00">4</text>
</a>
</g>
</g>
<!-- dir_8adc4010ebb409c64e926328ba2a1705 -->
<g id="node9" class="node"><title>dir_8adc4010ebb409c64e926328ba2a1705</title>
<g id="a_node9"><a xlink:href="dir_8adc4010ebb409c64e926328ba2a1705.html" target="_top" xlink:title="proxy">
<polygon fill="white" stroke="black" points="78,-108 24,-108 24,-72 78,-72 78,-108"/>
<text text-anchor="middle" x="51" y="-87.5" font-family="Helvetica,sans-Serif" font-size="10.00">proxy</text>
</a>
</g>
</g>
<!-- dir_8adc4010ebb409c64e926328ba2a1705&#45;&gt;dir_3c0c3d6b075b2d31648cdc5c18b1adf7 -->
<g id="edge5" class="edge"><title>dir_8adc4010ebb409c64e926328ba2a1705&#45;&gt;dir_3c0c3d6b075b2d31648cdc5c18b1adf7</title>
<path fill="none" stroke="black" d="M65.971,-71.6586C71.9338,-65.8012 79.2276,-59.7921 87,-56 146.034,-27.1979 223.334,-20.2935 269.125,-18.9306"/>
<polygon fill="black" stroke="black" points="269.309,-22.4275 279.228,-18.7052 269.153,-15.4292 269.309,-22.4275"/>
<g id="a_edge5&#45;headlabel"><a xlink:href="dir_000059_000027.html" target="_top" xlink:title="4">
<text text-anchor="middle" x="265.778" y="-22.8461" font-family="Helvetica,sans-Serif" font-size="10.00">4</text>
</a>
</g>
</g>
</g>
</svg>
