<?xml version="1.0" encoding="UTF-8" standalone="no"?>
<!DOCTYPE svg PUBLIC "-//W3C//DTD SVG 1.1//EN"
 "http://www.w3.org/Graphics/SVG/1.1/DTD/svg11.dtd">
<!-- Generated by graphviz version 2.38.0 (20140413.2041)
 -->
<!-- Title: src/creational/src/abstractfactory Pages: 1 -->
<svg width="122pt" height="151pt"
 viewBox="0.00 0.00 122.00 151.00" xmlns="http://www.w3.org/2000/svg" xmlns:xlink="http://www.w3.org/1999/xlink">
<g id="graph0" class="graph" transform="scale(1 1) rotate(0) translate(4 147)">
<title>src/creational/src/abstractfactory</title>
<polygon fill="white" stroke="none" points="-4,4 -4,-147 118,-147 118,4 -4,4"/>
<g id="clust1" class="cluster"><title>clusterdir_6f6f9459d7a22bc69c4612a8db07afce</title>
<g id="a_clust1"><a xlink:href="dir_6f6f9459d7a22bc69c4612a8db07afce.html" target="_top" xlink:title="src">
<polygon fill="#ddddee" stroke="black" points="8,-64 8,-135 106,-135 106,-64 8,-64"/>
<text text-anchor="middle" x="57" y="-123" font-family="Helvetica,sans-Serif" font-size="10.00">src</text>
</a>
</g>
</g>
<!-- dir_1c99000eb2a653e0650870c9a7ab294b -->
<g id="node1" class="node"><title>dir_1c99000eb2a653e0650870c9a7ab294b</title>
<g id="a_node1"><a xlink:href="dir_1c99000eb2a653e0650870c9a7ab294b.html" target="_top" xlink:title="abstractfactory">
<polygon fill="#eeeeff" stroke="black" points="97.5,-108 16.5,-108 16.5,-72 97.5,-72 97.5,-108"/>
<text text-anchor="middle" x="57" y="-87.5" font-family="Helvetica,sans-Serif" font-size="10.00">abstractfactory</text>
</a>
</g>
</g>
<!-- dir_60cca19bc7f4e565ecd98e58ba41bf09 -->
<g id="node2" class="node"><title>dir_60cca19bc7f4e565ecd98e58ba41bf09</title>
<g id="a_node2"><a xlink:href="dir_60cca19bc7f4e565ecd98e58ba41bf09.html" target="_top" xlink:title="mazeparts">
<polygon fill="none" stroke="black" points="88,-36 26,-36 26,-0 88,-0 88,-36"/>
<text text-anchor="middle" x="57" y="-15.5" font-family="Helvetica,sans-Serif" font-size="10.00">mazeparts</text>
</a>
</g>
</g>
<!-- dir_1c99000eb2a653e0650870c9a7ab294b&#45;&gt;dir_60cca19bc7f4e565ecd98e58ba41bf09 -->
<g id="edge1" class="edge"><title>dir_1c99000eb2a653e0650870c9a7ab294b&#45;&gt;dir_60cca19bc7f4e565ecd98e58ba41bf09</title>
<path fill="none" stroke="black" d="M57,-71.6966C57,-63.9827 57,-54.7125 57,-46.1124"/>
<polygon fill="black" stroke="black" points="60.5001,-46.1043 57,-36.1043 53.5001,-46.1044 60.5001,-46.1043"/>
<g id="a_edge1&#45;headlabel"><a xlink:href="dir_000003_000007.html" target="_top" xlink:title="8">
<text text-anchor="middle" x="63.3393" y="-47.199" font-family="Helvetica,sans-Serif" font-size="10.00">8</text>
</a>
</g>
</g>
</g>
</svg>
