<?xml version="1.0" encoding="UTF-8" standalone="no"?>
<!DOCTYPE svg PUBLIC "-//W3C//DTD SVG 1.1//EN"
 "http://www.w3.org/Graphics/SVG/1.1/DTD/svg11.dtd">
<!-- Generated by graphviz version 2.38.0 (20140413.2041)
 -->
<!-- Title: src/creational_tests/src/mazegame Pages: 1 -->
<svg width="111pt" height="223pt"
 viewBox="0.00 0.00 111.00 223.00" xmlns="http://www.w3.org/2000/svg" xmlns:xlink="http://www.w3.org/1999/xlink">
<g id="graph0" class="graph" transform="scale(1 1) rotate(0) translate(4 219)">
<title>src/creational_tests/src/mazegame</title>
<polygon fill="white" stroke="none" points="-4,4 -4,-219 107,-219 107,4 -4,4"/>
<g id="clust1" class="cluster"><title>clusterdir_7fbdc39365bfd1f47cefd1b520956a7a</title>
<g id="a_clust1"><a xlink:href="dir_7fbdc39365bfd1f47cefd1b520956a7a.html" target="_top" xlink:title="src">
<polygon fill="#ddddee" stroke="black" points="13,-136 13,-207 95,-207 95,-136 13,-136"/>
<text text-anchor="middle" x="54" y="-195" font-family="Helvetica,sans-Serif" font-size="10.00">src</text>
</a>
</g>
</g>
<!-- dir_a8ab12859f38b02d074d126cad711b21 -->
<g id="node1" class="node"><title>dir_a8ab12859f38b02d074d126cad711b21</title>
<g id="a_node1"><a xlink:href="dir_a8ab12859f38b02d074d126cad711b21.html" target="_top" xlink:title="mazegame">
<polygon fill="#eeeeff" stroke="black" points="86.5,-180 21.5,-180 21.5,-144 86.5,-144 86.5,-180"/>
<text text-anchor="middle" x="54" y="-159.5" font-family="Helvetica,sans-Serif" font-size="10.00">mazegame</text>
</a>
</g>
</g>
<!-- dir_f05aa00d3a0581e863c3cb05841bf50f -->
<g id="node2" class="node"><title>dir_f05aa00d3a0581e863c3cb05841bf50f</title>
<g id="a_node2"><a xlink:href="dir_f05aa00d3a0581e863c3cb05841bf50f.html" target="_top" xlink:title="utils">
<polygon fill="none" stroke="black" points="54,-108 0,-108 0,-72 54,-72 54,-108"/>
<text text-anchor="middle" x="27" y="-87.5" font-family="Helvetica,sans-Serif" font-size="10.00">utils</text>
</a>
</g>
</g>
<!-- dir_a8ab12859f38b02d074d126cad711b21&#45;&gt;dir_f05aa00d3a0581e863c3cb05841bf50f -->
<g id="edge2" class="edge"><title>dir_a8ab12859f38b02d074d126cad711b21&#45;&gt;dir_f05aa00d3a0581e863c3cb05841bf50f</title>
<path fill="none" stroke="black" d="M47.3258,-143.697C44.2851,-135.813 40.6173,-126.304 37.2393,-117.546"/>
<polygon fill="black" stroke="black" points="40.4617,-116.175 33.5974,-108.104 33.9307,-118.694 40.4617,-116.175"/>
<g id="a_edge2&#45;headlabel"><a xlink:href="dir_000011_000013.html" target="_top" xlink:title="1">
<text text-anchor="middle" x="44.4043" y="-116.007" font-family="Helvetica,sans-Serif" font-size="10.00">1</text>
</a>
</g>
</g>
<!-- dir_a10d24b5b8657015a441b87c792b7b2d -->
<g id="node3" class="node"><title>dir_a10d24b5b8657015a441b87c792b7b2d</title>
<g id="a_node3"><a xlink:href="dir_a10d24b5b8657015a441b87c792b7b2d.html" target="_top" xlink:title="creational">
<polygon fill="white" stroke="red" points="83.5,-36 24.5,-36 24.5,-0 83.5,-0 83.5,-36"/>
<text text-anchor="middle" x="54" y="-15.5" font-family="Helvetica,sans-Serif" font-size="10.00">creational</text>
</a>
</g>
</g>
<!-- dir_a8ab12859f38b02d074d126cad711b21&#45;&gt;dir_a10d24b5b8657015a441b87c792b7b2d -->
<g id="edge3" class="edge"><title>dir_a8ab12859f38b02d074d126cad711b21&#45;&gt;dir_a10d24b5b8657015a441b87c792b7b2d</title>
<path fill="none" stroke="black" d="M57.6538,-143.908C59.6758,-133.569 61.9808,-120.09 63,-108 64.3441,-92.0566 64.3441,-87.9434 63,-72 62.2834,-63.4991 60.9311,-54.3119 59.4884,-46.0122"/>
<polygon fill="black" stroke="black" points="62.9142,-45.2892 57.6538,-36.0925 56.0309,-46.5623 62.9142,-45.2892"/>
<g id="a_edge3&#45;headlabel"><a xlink:href="dir_000011_000001.html" target="_top" xlink:title="8">
<text text-anchor="middle" x="66.3597" y="-45.8075" font-family="Helvetica,sans-Serif" font-size="10.00">8</text>
</a>
</g>
</g>
<!-- dir_f05aa00d3a0581e863c3cb05841bf50f&#45;&gt;dir_a10d24b5b8657015a441b87c792b7b2d -->
<g id="edge1" class="edge"><title>dir_f05aa00d3a0581e863c3cb05841bf50f&#45;&gt;dir_a10d24b5b8657015a441b87c792b7b2d</title>
<path fill="none" stroke="black" d="M33.6742,-71.6966C36.7149,-63.8132 40.3827,-54.3042 43.7607,-45.5464"/>
<polygon fill="black" stroke="black" points="47.0693,-46.6939 47.4026,-36.1043 40.5383,-44.1748 47.0693,-46.6939"/>
<g id="a_edge1&#45;headlabel"><a xlink:href="dir_000013_000001.html" target="_top" xlink:title="8">
<text text-anchor="middle" x="48.4248" y="-48.5695" font-family="Helvetica,sans-Serif" font-size="10.00">8</text>
</a>
</g>
</g>
</g>
</svg>
