<?xml version="1.0" encoding="UTF-8" standalone="no"?>
<!DOCTYPE svg PUBLIC "-//W3C//DTD SVG 1.1//EN"
 "http://www.w3.org/Graphics/SVG/1.1/DTD/svg11.dtd">
<!-- Generated by graphviz version 2.38.0 (20140413.2041)
 -->
<!-- Title: src/operational/src/command Pages: 1 -->
<svg width="100pt" height="151pt"
 viewBox="0.00 0.00 100.00 151.00" xmlns="http://www.w3.org/2000/svg" xmlns:xlink="http://www.w3.org/1999/xlink">
<g id="graph0" class="graph" transform="scale(1 1) rotate(0) translate(4 147)">
<title>src/operational/src/command</title>
<polygon fill="white" stroke="none" points="-4,4 -4,-147 96,-147 96,4 -4,4"/>
<g id="clust1" class="cluster"><title>clusterdir_d59c15f8e7bfc65047e47551dabf5761</title>
<g id="a_clust1"><a xlink:href="dir_d59c15f8e7bfc65047e47551dabf5761.html" target="_top" xlink:title="src">
<polygon fill="#ddddee" stroke="black" points="8,-64 8,-135 84,-135 84,-64 8,-64"/>
<text text-anchor="middle" x="46" y="-123" font-family="Helvetica,sans-Serif" font-size="10.00">src</text>
</a>
</g>
</g>
<!-- dir_bd9b2ab9cb0b74cf81e43959ab52cccb -->
<g id="node1" class="node"><title>dir_bd9b2ab9cb0b74cf81e43959ab52cccb</title>
<g id="a_node1"><a xlink:href="dir_bd9b2ab9cb0b74cf81e43959ab52cccb.html" target="_top" xlink:title="command">
<polygon fill="#eeeeff" stroke="black" points="75.5,-108 16.5,-108 16.5,-72 75.5,-72 75.5,-108"/>
<text text-anchor="middle" x="46" y="-87.5" font-family="Helvetica,sans-Serif" font-size="10.00">command</text>
</a>
</g>
</g>
<!-- dir_f01239d3cc421a673dc443c389362717 -->
<g id="node2" class="node"><title>dir_f01239d3cc421a673dc443c389362717</title>
<g id="a_node2"><a xlink:href="dir_f01239d3cc421a673dc443c389362717.html" target="_top" xlink:title="iterator">
<polygon fill="none" stroke="black" points="73,-36 19,-36 19,-0 73,-0 73,-36"/>
<text text-anchor="middle" x="46" y="-15.5" font-family="Helvetica,sans-Serif" font-size="10.00">iterator</text>
</a>
</g>
</g>
<!-- dir_bd9b2ab9cb0b74cf81e43959ab52cccb&#45;&gt;dir_f01239d3cc421a673dc443c389362717 -->
<g id="edge1" class="edge"><title>dir_bd9b2ab9cb0b74cf81e43959ab52cccb&#45;&gt;dir_f01239d3cc421a673dc443c389362717</title>
<path fill="none" stroke="black" d="M46,-71.6966C46,-63.9827 46,-54.7125 46,-46.1124"/>
<polygon fill="black" stroke="black" points="49.5001,-46.1043 46,-36.1043 42.5001,-46.1044 49.5001,-46.1043"/>
<g id="a_edge1&#45;headlabel"><a xlink:href="dir_000017_000019.html" target="_top" xlink:title="2">
<text text-anchor="middle" x="52.3393" y="-47.199" font-family="Helvetica,sans-Serif" font-size="10.00">2</text>
</a>
</g>
</g>
</g>
</svg>
