<?xml version="1.0" encoding="UTF-8" standalone="no"?>
<!DOCTYPE svg PUBLIC "-//W3C//DTD SVG 1.1//EN"
 "http://www.w3.org/Graphics/SVG/1.1/DTD/svg11.dtd">
<!-- Generated by graphviz version 2.38.0 (20140413.2041)
 -->
<!-- Title: src/operational_tests/src Pages: 1 -->
<!--zoomable 159 -->
<svg id="main" version="1.1" xmlns="http://www.w3.org/2000/svg" xmlns:xlink="http://www.w3.org/1999/xlink" xml:space="preserve" onload="init(evt)">
<style type="text/css"><![CDATA[
.edge:hover path { stroke: red; }
.edge:hover polygon { stroke: red; fill: red; }
]]></style>
<script type="text/javascript"><![CDATA[
var edges = document.getElementsByTagName('g');
if (edges && edges.length) {
  for (var i=0;i<edges.length;i++) {
    if (edges[i].id.substr(0,4)=='edge') {
      edges[i].setAttribute('class','edge');
    }
  }
}
]]></script>
        <defs>
                <circle id="rim" cx="0" cy="0" r="7"/>
                <circle id="rim2" cx="0" cy="0" r="3.5"/>
                <g id="zoomPlus">
                        <use xlink:href="#rim" fill="#404040">
                                <set attributeName="fill" to="#808080" begin="zoomplus.mouseover" end="zoomplus.mouseout"/>
                        </use>
                        <path d="M-4,0h8M0,-4v8" fill="none" stroke="white" stroke-width="1.5" pointer-events="none"/>
                </g>
                <g id="zoomMin">
                        <use xlink:href="#rim" fill="#404040">
                                <set attributeName="fill" to="#808080" begin="zoomminus.mouseover" end="zoomminus.mouseout"/>
                        </use>
                        <path d="M-4,0h8" fill="none" stroke="white" stroke-width="1.5" pointer-events="none"/>
                </g>
                <g id="dirArrow">
                        <path fill="none" stroke="white" stroke-width="1.5" d="M0,-3.0v7 M-2.5,-0.5L0,-3.0L2.5,-0.5"/>
                </g>
               <g id="resetDef">
                       <use xlink:href="#rim2" fill="#404040">
                               <set attributeName="fill" to="#808080" begin="reset.mouseover" end="reset.mouseout"/>
                       </use>
               </g>
        </defs>

<script type="text/javascript">
var viewWidth = 950;
var viewHeight = 159;
var sectionId = 'dynsection-0';
</script>
<script xlink:href="svgpan.js"/>
<svg id="graph" class="graph">
<g id="viewport">
<title>src/operational_tests/src</title>
<polygon fill="white" stroke="none" points="-4,4 -4,-155 946,-155 946,4 -4,4"/>
<g id="clust1" class="cluster"><title>clusterdir_539b4c898b0fc2f8494f6ce22ca4ca22</title>
<g id="a_clust1"><a xlink:href="dir_539b4c898b0fc2f8494f6ce22ca4ca22.html" target="_top" xlink:title="operational_tests">
<polygon fill="#ddddee" stroke="black" points="8,-56 8,-143 934,-143 934,-56 8,-56"/>
<text text-anchor="middle" x="471" y="-131" font-family="Helvetica,sans-Serif" font-size="10.00">operational_tests</text>
</a>
</g>
</g>
<g id="clust2" class="cluster"><title>clusterdir_107692fd60774061a80e967f6a6b2fae</title>
<g id="a_clust2"><a xlink:href="dir_107692fd60774061a80e967f6a6b2fae.html" target="_top">
<polygon fill="#eeeeff" stroke="black" points="16,-64 16,-116 926,-116 926,-64 16,-64"/>
</a>
</g>
</g>
<!-- dir_107692fd60774061a80e967f6a6b2fae -->
<g id="node1" class="node"><title>dir_107692fd60774061a80e967f6a6b2fae</title>
<text text-anchor="middle" x="891" y="-87.5" font-family="Helvetica,sans-Serif" font-size="10.00">src</text>
</g>
<!-- dir_4904e6decced63564c26d8cf452143f6 -->
<g id="node2" class="node"><title>dir_4904e6decced63564c26d8cf452143f6</title>
<g id="a_node2"><a xlink:href="dir_4904e6decced63564c26d8cf452143f6.html" target="_top" xlink:title="chain">
<polygon fill="white" stroke="black" points="846,-108 792,-108 792,-72 846,-72 846,-108"/>
<text text-anchor="middle" x="819" y="-87.5" font-family="Helvetica,sans-Serif" font-size="10.00">chain</text>
</a>
</g>
</g>
<!-- dir_e7067f6c8f57218172f13b4d43a08c21 -->
<g id="node13" class="node"><title>dir_e7067f6c8f57218172f13b4d43a08c21</title>
<g id="a_node13"><a xlink:href="dir_e7067f6c8f57218172f13b4d43a08c21.html" target="_top" xlink:title="operational">
<polygon fill="white" stroke="red" points="477,-36 413,-36 413,-0 477,-0 477,-36"/>
<text text-anchor="middle" x="445" y="-15.5" font-family="Helvetica,sans-Serif" font-size="10.00">operational</text>
</a>
</g>
</g>
<!-- dir_4904e6decced63564c26d8cf452143f6&#45;&gt;dir_e7067f6c8f57218172f13b4d43a08c21 -->
<g id="edge4" class="edge"><title>dir_4904e6decced63564c26d8cf452143f6&#45;&gt;dir_e7067f6c8f57218172f13b4d43a08c21</title>
<path fill="none" stroke="black" d="M804.491,-71.7631C798.479,-65.7684 791.031,-59.6397 783,-56 731.157,-32.506 565.624,-23.4121 487.101,-20.355"/>
<polygon fill="black" stroke="black" points="487.193,-16.8561 477.069,-19.9789 486.931,-23.8511 487.193,-16.8561"/>
<g id="a_edge4&#45;headlabel"><a xlink:href="dir_000032_000014.html" target="_top" xlink:title="4">
<text text-anchor="middle" x="490.891" y="-11.6533" font-family="Helvetica,sans-Serif" font-size="10.00">4</text>
</a>
</g>
</g>
<!-- dir_2658a9bf526a9a9fe1053156c126531a -->
<g id="node3" class="node"><title>dir_2658a9bf526a9a9fe1053156c126531a</title>
<g id="a_node3"><a xlink:href="dir_2658a9bf526a9a9fe1053156c126531a.html" target="_top" xlink:title="command">
<polygon fill="white" stroke="black" points="773.5,-108 714.5,-108 714.5,-72 773.5,-72 773.5,-108"/>
<text text-anchor="middle" x="744" y="-87.5" font-family="Helvetica,sans-Serif" font-size="10.00">command</text>
</a>
</g>
</g>
<!-- dir_2658a9bf526a9a9fe1053156c126531a&#45;&gt;dir_e7067f6c8f57218172f13b4d43a08c21 -->
<g id="edge10" class="edge"><title>dir_2658a9bf526a9a9fe1053156c126531a&#45;&gt;dir_e7067f6c8f57218172f13b4d43a08c21</title>
<path fill="none" stroke="black" d="M727.981,-71.9079C721.43,-65.9309 713.416,-59.7765 705,-56 666.975,-38.9367 550.659,-27.3746 487.268,-22.1587"/>
<polygon fill="black" stroke="black" points="487.444,-18.6617 477.195,-21.3468 486.882,-25.639 487.444,-18.6617"/>
<g id="a_edge10&#45;headlabel"><a xlink:href="dir_000033_000014.html" target="_top" xlink:title="6">
<text text-anchor="middle" x="491.255" y="-13.6203" font-family="Helvetica,sans-Serif" font-size="10.00">6</text>
</a>
</g>
</g>
<!-- dir_564f5b9bad4188199c45f576a8c5e71c -->
<g id="node4" class="node"><title>dir_564f5b9bad4188199c45f576a8c5e71c</title>
<g id="a_node4"><a xlink:href="dir_564f5b9bad4188199c45f576a8c5e71c.html" target="_top" xlink:title="interpreter">
<polygon fill="white" stroke="black" points="696,-108 636,-108 636,-72 696,-72 696,-108"/>
<text text-anchor="middle" x="666" y="-87.5" font-family="Helvetica,sans-Serif" font-size="10.00">interpreter</text>
</a>
</g>
</g>
<!-- dir_564f5b9bad4188199c45f576a8c5e71c&#45;&gt;dir_e7067f6c8f57218172f13b4d43a08c21 -->
<g id="edge6" class="edge"><title>dir_564f5b9bad4188199c45f576a8c5e71c&#45;&gt;dir_e7067f6c8f57218172f13b4d43a08c21</title>
<path fill="none" stroke="black" d="M649.478,-71.8263C642.986,-65.987 635.141,-59.9466 627,-56 582.313,-34.336 525.519,-25.3469 487.36,-21.623"/>
<polygon fill="black" stroke="black" points="487.39,-18.1118 477.118,-20.7062 486.766,-25.0839 487.39,-18.1118"/>
<g id="a_edge6&#45;headlabel"><a xlink:href="dir_000034_000014.html" target="_top" xlink:title="7">
<text text-anchor="middle" x="491.223" y="-13.1042" font-family="Helvetica,sans-Serif" font-size="10.00">7</text>
</a>
</g>
</g>
<!-- dir_7cd834406701ecd844eb20501adc0f8e -->
<g id="node5" class="node"><title>dir_7cd834406701ecd844eb20501adc0f8e</title>
<g id="a_node5"><a xlink:href="dir_7cd834406701ecd844eb20501adc0f8e.html" target="_top" xlink:title="iterator">
<polygon fill="white" stroke="black" points="618,-108 564,-108 564,-72 618,-72 618,-108"/>
<text text-anchor="middle" x="591" y="-87.5" font-family="Helvetica,sans-Serif" font-size="10.00">iterator</text>
</a>
</g>
</g>
<!-- dir_7cd834406701ecd844eb20501adc0f8e&#45;&gt;dir_e7067f6c8f57218172f13b4d43a08c21 -->
<g id="edge8" class="edge"><title>dir_7cd834406701ecd844eb20501adc0f8e&#45;&gt;dir_e7067f6c8f57218172f13b4d43a08c21</title>
<path fill="none" stroke="black" d="M575.322,-71.9733C569.392,-66.2878 562.302,-60.3097 555,-56 534.029,-43.6221 508.342,-34.6848 487.066,-28.6984"/>
<polygon fill="black" stroke="black" points="487.891,-25.2961 477.325,-26.0742 486.07,-32.0551 487.891,-25.2961"/>
<g id="a_edge8&#45;headlabel"><a xlink:href="dir_000035_000014.html" target="_top" xlink:title="2">
<text text-anchor="middle" x="492.101" y="-20.9896" font-family="Helvetica,sans-Serif" font-size="10.00">2</text>
</a>
</g>
</g>
<!-- dir_2d6425070e6e722d17bd8b84cd2883a2 -->
<g id="node6" class="node"><title>dir_2d6425070e6e722d17bd8b84cd2883a2</title>
<g id="a_node6"><a xlink:href="dir_2d6425070e6e722d17bd8b84cd2883a2.html" target="_top" xlink:title="mediator">
<polygon fill="white" stroke="black" points="546,-108 492,-108 492,-72 546,-72 546,-108"/>
<text text-anchor="middle" x="519" y="-87.5" font-family="Helvetica,sans-Serif" font-size="10.00">mediator</text>
</a>
</g>
</g>
<!-- dir_2d6425070e6e722d17bd8b84cd2883a2&#45;&gt;dir_e7067f6c8f57218172f13b4d43a08c21 -->
<g id="edge2" class="edge"><title>dir_2d6425070e6e722d17bd8b84cd2883a2&#45;&gt;dir_e7067f6c8f57218172f13b4d43a08c21</title>
<path fill="none" stroke="black" d="M500.708,-71.6966C491.567,-63.0503 480.36,-52.4486 470.4,-43.027"/>
<polygon fill="black" stroke="black" points="472.752,-40.4337 463.082,-36.1043 467.941,-45.519 472.752,-40.4337"/>
<g id="a_edge2&#45;headlabel"><a xlink:href="dir_000036_000014.html" target="_top" xlink:title="1">
<text text-anchor="middle" x="477.314" y="-38.3413" font-family="Helvetica,sans-Serif" font-size="10.00">1</text>
</a>
</g>
</g>
<!-- dir_473c292565721d0cf9adf4c2e0f38688 -->
<g id="node7" class="node"><title>dir_473c292565721d0cf9adf4c2e0f38688</title>
<g id="a_node7"><a xlink:href="dir_473c292565721d0cf9adf4c2e0f38688.html" target="_top" xlink:title="memento">
<polygon fill="white" stroke="black" points="473.5,-108 416.5,-108 416.5,-72 473.5,-72 473.5,-108"/>
<text text-anchor="middle" x="445" y="-87.5" font-family="Helvetica,sans-Serif" font-size="10.00">memento</text>
</a>
</g>
</g>
<!-- dir_473c292565721d0cf9adf4c2e0f38688&#45;&gt;dir_e7067f6c8f57218172f13b4d43a08c21 -->
<g id="edge5" class="edge"><title>dir_473c292565721d0cf9adf4c2e0f38688&#45;&gt;dir_e7067f6c8f57218172f13b4d43a08c21</title>
<path fill="none" stroke="black" d="M445,-71.6966C445,-63.9827 445,-54.7125 445,-46.1124"/>
<polygon fill="black" stroke="black" points="448.5,-46.1043 445,-36.1043 441.5,-46.1044 448.5,-46.1043"/>
<g id="a_edge5&#45;headlabel"><a xlink:href="dir_000037_000014.html" target="_top" xlink:title="2">
<text text-anchor="middle" x="451.339" y="-47.199" font-family="Helvetica,sans-Serif" font-size="10.00">2</text>
</a>
</g>
</g>
<!-- dir_eeb1f0c2083bad35eb1997ccbfcce84d -->
<g id="node8" class="node"><title>dir_eeb1f0c2083bad35eb1997ccbfcce84d</title>
<g id="a_node8"><a xlink:href="dir_eeb1f0c2083bad35eb1997ccbfcce84d.html" target="_top" xlink:title="observer">
<polygon fill="white" stroke="black" points="398,-108 344,-108 344,-72 398,-72 398,-108"/>
<text text-anchor="middle" x="371" y="-87.5" font-family="Helvetica,sans-Serif" font-size="10.00">observer</text>
</a>
</g>
</g>
<!-- dir_eeb1f0c2083bad35eb1997ccbfcce84d&#45;&gt;dir_e7067f6c8f57218172f13b4d43a08c21 -->
<g id="edge3" class="edge"><title>dir_eeb1f0c2083bad35eb1997ccbfcce84d&#45;&gt;dir_e7067f6c8f57218172f13b4d43a08c21</title>
<path fill="none" stroke="black" d="M389.292,-71.6966C398.433,-63.0503 409.64,-52.4486 419.6,-43.027"/>
<polygon fill="black" stroke="black" points="422.059,-45.519 426.918,-36.1043 417.248,-40.4337 422.059,-45.519"/>
<g id="a_edge3&#45;headlabel"><a xlink:href="dir_000038_000014.html" target="_top" xlink:title="3">
<text text-anchor="middle" x="421.399" y="-47.5518" font-family="Helvetica,sans-Serif" font-size="10.00">3</text>
</a>
</g>
</g>
<!-- dir_0f5c1883375c5d1563f95df3e9fac933 -->
<g id="node9" class="node"><title>dir_0f5c1883375c5d1563f95df3e9fac933</title>
<g id="a_node9"><a xlink:href="dir_0f5c1883375c5d1563f95df3e9fac933.html" target="_top" xlink:title="state">
<polygon fill="white" stroke="black" points="326,-108 272,-108 272,-72 326,-72 326,-108"/>
<text text-anchor="middle" x="299" y="-87.5" font-family="Helvetica,sans-Serif" font-size="10.00">state</text>
</a>
</g>
</g>
<!-- dir_0f5c1883375c5d1563f95df3e9fac933&#45;&gt;dir_e7067f6c8f57218172f13b4d43a08c21 -->
<g id="edge1" class="edge"><title>dir_0f5c1883375c5d1563f95df3e9fac933&#45;&gt;dir_e7067f6c8f57218172f13b4d43a08c21</title>
<path fill="none" stroke="black" d="M314.678,-71.9733C320.608,-66.2878 327.698,-60.3097 335,-56 355.971,-43.6221 381.658,-34.6848 402.934,-28.6984"/>
<polygon fill="black" stroke="black" points="403.93,-32.0551 412.675,-26.0742 402.109,-25.2961 403.93,-32.0551"/>
<g id="a_edge1&#45;headlabel"><a xlink:href="dir_000039_000014.html" target="_top" xlink:title="1">
<text text-anchor="middle" x="401.197" y="-33.2317" font-family="Helvetica,sans-Serif" font-size="10.00">1</text>
</a>
</g>
</g>
<!-- dir_bac7ddc9aeb3e7aad14f1136c3d3d8e6 -->
<g id="node10" class="node"><title>dir_bac7ddc9aeb3e7aad14f1136c3d3d8e6</title>
<g id="a_node10"><a xlink:href="dir_bac7ddc9aeb3e7aad14f1136c3d3d8e6.html" target="_top" xlink:title="strategy">
<polygon fill="white" stroke="black" points="254,-108 200,-108 200,-72 254,-72 254,-108"/>
<text text-anchor="middle" x="227" y="-87.5" font-family="Helvetica,sans-Serif" font-size="10.00">strategy</text>
</a>
</g>
</g>
<!-- dir_bac7ddc9aeb3e7aad14f1136c3d3d8e6&#45;&gt;dir_e7067f6c8f57218172f13b4d43a08c21 -->
<g id="edge11" class="edge"><title>dir_bac7ddc9aeb3e7aad14f1136c3d3d8e6&#45;&gt;dir_e7067f6c8f57218172f13b4d43a08c21</title>
<path fill="none" stroke="black" d="M242.044,-71.8043C248.014,-65.9627 255.295,-59.9263 263,-56 307.248,-33.4535 364.132,-24.6438 402.431,-21.2029"/>
<polygon fill="black" stroke="black" points="403.03,-24.6658 412.714,-20.3678 402.464,-17.6888 403.03,-24.6658"/>
<g id="a_edge11&#45;headlabel"><a xlink:href="dir_000040_000014.html" target="_top" xlink:title="6">
<text text-anchor="middle" x="399.677" y="-25.2867" font-family="Helvetica,sans-Serif" font-size="10.00">6</text>
</a>
</g>
</g>
<!-- dir_6627eed6330f69ccbe6d8fa15976635b -->
<g id="node11" class="node"><title>dir_6627eed6330f69ccbe6d8fa15976635b</title>
<g id="a_node11"><a xlink:href="dir_6627eed6330f69ccbe6d8fa15976635b.html" target="_top" xlink:title="templatemethod">
<polygon fill="white" stroke="black" points="182,-108 96,-108 96,-72 182,-72 182,-108"/>
<text text-anchor="middle" x="139" y="-87.5" font-family="Helvetica,sans-Serif" font-size="10.00">templatemethod</text>
</a>
</g>
</g>
<!-- dir_6627eed6330f69ccbe6d8fa15976635b&#45;&gt;dir_e7067f6c8f57218172f13b4d43a08c21 -->
<g id="edge9" class="edge"><title>dir_6627eed6330f69ccbe6d8fa15976635b&#45;&gt;dir_e7067f6c8f57218172f13b4d43a08c21</title>
<path fill="none" stroke="black" d="M161.455,-71.8303C170.239,-65.9186 180.674,-59.8287 191,-56 262.144,-29.6212 351.014,-21.9643 402.558,-19.7942"/>
<polygon fill="black" stroke="black" points="402.798,-23.2878 412.662,-19.4195 402.539,-16.2926 402.798,-23.2878"/>
<g id="a_edge9&#45;headlabel"><a xlink:href="dir_000041_000014.html" target="_top" xlink:title="1">
<text text-anchor="middle" x="399.311" y="-23.7583" font-family="Helvetica,sans-Serif" font-size="10.00">1</text>
</a>
</g>
</g>
<!-- dir_ae337b6865a2be91a948b715a4ed87b6 -->
<g id="node12" class="node"><title>dir_ae337b6865a2be91a948b715a4ed87b6</title>
<g id="a_node12"><a xlink:href="dir_ae337b6865a2be91a948b715a4ed87b6.html" target="_top" xlink:title="visitor">
<polygon fill="white" stroke="black" points="78,-108 24,-108 24,-72 78,-72 78,-108"/>
<text text-anchor="middle" x="51" y="-87.5" font-family="Helvetica,sans-Serif" font-size="10.00">visitor</text>
</a>
</g>
</g>
<!-- dir_ae337b6865a2be91a948b715a4ed87b6&#45;&gt;dir_e7067f6c8f57218172f13b4d43a08c21 -->
<g id="edge7" class="edge"><title>dir_ae337b6865a2be91a948b715a4ed87b6&#45;&gt;dir_e7067f6c8f57218172f13b4d43a08c21</title>
<path fill="none" stroke="black" d="M65.4973,-71.7374C71.5082,-65.7395 78.9576,-59.6154 87,-56 142.473,-31.0632 320.6,-22.6563 402.76,-20.0595"/>
<polygon fill="black" stroke="black" points="402.868,-23.5579 412.758,-19.7574 402.657,-16.5611 402.868,-23.5579"/>
<g id="a_edge7&#45;headlabel"><a xlink:href="dir_000042_000014.html" target="_top" xlink:title="6">
<text text-anchor="middle" x="399.361" y="-24.0044" font-family="Helvetica,sans-Serif" font-size="10.00">6</text>
</a>
</g>
</g>
</g>
</svg>
        <g id="navigator" transform="translate(0 0)" fill="#404254">
                <rect fill="#f2f5e9" fill-opacity="0.5" stroke="#606060" stroke-width=".5" x="0" y="0" width="60" height="60"/>
                <use id="zoomplus" xlink:href="#zoomPlus" x="17" y="9" onmousedown="handleZoom(evt,'in')"/>
                <use id="zoomminus" xlink:href="#zoomMin" x="42" y="9" onmousedown="handleZoom(evt,'out')"/>
                <use id="reset" xlink:href="#resetDef" x="30" y="36" onmousedown="handleReset()"/>
                <g id="arrowUp" xlink:href="#dirArrow" transform="translate(30 24)" onmousedown="handlePan(0,-1)">
                  <use xlink:href="#rim" fill="#404040">
                        <set attributeName="fill" to="#808080" begin="arrowUp.mouseover" end="arrowUp.mouseout"/>
                  </use>
                  <path fill="none" stroke="white" stroke-width="1.5" d="M0,-3.0v7 M-2.5,-0.5L0,-3.0L2.5,-0.5"/>
                </g>
                <g id="arrowRight" xlink:href="#dirArrow" transform="rotate(90) translate(36 -43)" onmousedown="handlePan(1,0)">
                  <use xlink:href="#rim" fill="#404040">
                        <set attributeName="fill" to="#808080" begin="arrowRight.mouseover" end="arrowRight.mouseout"/>
                  </use>
                  <path fill="none" stroke="white" stroke-width="1.5" d="M0,-3.0v7 M-2.5,-0.5L0,-3.0L2.5,-0.5"/>
                </g>
                <g id="arrowDown" xlink:href="#dirArrow" transform="rotate(180) translate(-30 -48)" onmousedown="handlePan(0,1)">
                  <use xlink:href="#rim" fill="#404040">
                        <set attributeName="fill" to="#808080" begin="arrowDown.mouseover" end="arrowDown.mouseout"/>
                  </use>
                  <path fill="none" stroke="white" stroke-width="1.5" d="M0,-3.0v7 M-2.5,-0.5L0,-3.0L2.5,-0.5"/>
                </g>
                <g id="arrowLeft" xlink:href="#dirArrow" transform="rotate(270) translate(-36 17)" onmousedown="handlePan(-1,0)">
                  <use xlink:href="#rim" fill="#404040">
                        <set attributeName="fill" to="#808080" begin="arrowLeft.mouseover" end="arrowLeft.mouseout"/>
                  </use>
                  <path fill="none" stroke="white" stroke-width="1.5" d="M0,-3.0v7 M-2.5,-0.5L0,-3.0L2.5,-0.5"/>
                </g>
        </g>
        <svg viewBox="0 0 15 15" width="100%" height="30px" preserveAspectRatio="xMaxYMin meet">
         <g id="arrow_out" transform="scale(0.3 0.3)">
          <a xlink:href="dir_107692fd60774061a80e967f6a6b2fae_dep_org.svg" target="_base">
           <rect id="button" ry="5" rx="5" y="6" x="6" height="38" width="38"
                fill="#f2f5e9" fill-opacity="0.5" stroke="#606060" stroke-width="1.0"/>
           <path id="arrow"
             d="M 11.500037,31.436501 C 11.940474,20.09759 22.043105,11.32322 32.158766,21.979434 L 37.068811,17.246167 C 37.068811,17.246167 37.088388,32 37.088388,32 L 22.160133,31.978069 C 22.160133,31.978069 26.997745,27.140456 26.997745,27.140456 C 18.528582,18.264221 13.291696,25.230495 11.500037,31.436501 z"
             style="fill:#404040;"/>
          </a>
         </g>
        </svg>
</svg>
