<?xml version="1.0" encoding="UTF-8" standalone="no"?>
<!DOCTYPE svg PUBLIC "-//W3C//DTD SVG 1.1//EN"
 "http://www.w3.org/Graphics/SVG/1.1/DTD/svg11.dtd">
<!-- Generated by graphviz version 2.38.0 (20140413.2041)
 -->
<!-- Title: src/creational/src/factorymethod Pages: 1 -->
<svg width="154pt" height="151pt"
 viewBox="0.00 0.00 153.50 151.00" xmlns="http://www.w3.org/2000/svg" xmlns:xlink="http://www.w3.org/1999/xlink">
<g id="graph0" class="graph" transform="scale(1 1) rotate(0) translate(4 147)">
<title>src/creational/src/factorymethod</title>
<polygon fill="white" stroke="none" points="-4,4 -4,-147 149.5,-147 149.5,4 -4,4"/>
<g id="clust1" class="cluster"><title>clusterdir_6f6f9459d7a22bc69c4612a8db07afce</title>
<g id="a_clust1"><a xlink:href="dir_6f6f9459d7a22bc69c4612a8db07afce.html" target="_top" xlink:title="src">
<polygon fill="#ddddee" stroke="black" points="26.5,-64 26.5,-135 120.5,-135 120.5,-64 26.5,-64"/>
<text text-anchor="middle" x="73.5" y="-123" font-family="Helvetica,sans-Serif" font-size="10.00">src</text>
</a>
</g>
</g>
<!-- dir_4c2575dfe441fe5898be24346b51f0ae -->
<g id="node1" class="node"><title>dir_4c2575dfe441fe5898be24346b51f0ae</title>
<g id="a_node1"><a xlink:href="dir_4c2575dfe441fe5898be24346b51f0ae.html" target="_top" xlink:title="factorymethod">
<polygon fill="#eeeeff" stroke="black" points="112.5,-108 34.5,-108 34.5,-72 112.5,-72 112.5,-108"/>
<text text-anchor="middle" x="73.5" y="-87.5" font-family="Helvetica,sans-Serif" font-size="10.00">factorymethod</text>
</a>
</g>
</g>
<!-- dir_df53417834cd9cce52db62bfaa2d28dc -->
<g id="node2" class="node"><title>dir_df53417834cd9cce52db62bfaa2d28dc</title>
<g id="a_node2"><a xlink:href="dir_df53417834cd9cce52db62bfaa2d28dc.html" target="_top" xlink:title="mazegame">
<polygon fill="none" stroke="black" points="65,-36 0,-36 0,-0 65,-0 65,-36"/>
<text text-anchor="middle" x="32.5" y="-15.5" font-family="Helvetica,sans-Serif" font-size="10.00">mazegame</text>
</a>
</g>
</g>
<!-- dir_4c2575dfe441fe5898be24346b51f0ae&#45;&gt;dir_df53417834cd9cce52db62bfaa2d28dc -->
<g id="edge1" class="edge"><title>dir_4c2575dfe441fe5898be24346b51f0ae&#45;&gt;dir_df53417834cd9cce52db62bfaa2d28dc</title>
<path fill="none" stroke="black" d="M63.3652,-71.6966C58.6484,-63.6436 52.9382,-53.8945 47.7183,-44.9824"/>
<polygon fill="black" stroke="black" points="50.5924,-42.9643 42.5183,-36.1043 44.5522,-46.5021 50.5924,-42.9643"/>
<g id="a_edge1&#45;headlabel"><a xlink:href="dir_000005_000006.html" target="_top" xlink:title="2">
<text text-anchor="middle" x="54.8591" y="-42.131" font-family="Helvetica,sans-Serif" font-size="10.00">2</text>
</a>
</g>
</g>
<!-- dir_60cca19bc7f4e565ecd98e58ba41bf09 -->
<g id="node3" class="node"><title>dir_60cca19bc7f4e565ecd98e58ba41bf09</title>
<g id="a_node3"><a xlink:href="dir_60cca19bc7f4e565ecd98e58ba41bf09.html" target="_top" xlink:title="mazeparts">
<polygon fill="none" stroke="black" points="145.5,-36 83.5,-36 83.5,-0 145.5,-0 145.5,-36"/>
<text text-anchor="middle" x="114.5" y="-15.5" font-family="Helvetica,sans-Serif" font-size="10.00">mazeparts</text>
</a>
</g>
</g>
<!-- dir_4c2575dfe441fe5898be24346b51f0ae&#45;&gt;dir_60cca19bc7f4e565ecd98e58ba41bf09 -->
<g id="edge2" class="edge"><title>dir_4c2575dfe441fe5898be24346b51f0ae&#45;&gt;dir_60cca19bc7f4e565ecd98e58ba41bf09</title>
<path fill="none" stroke="black" d="M83.6348,-71.6966C88.3516,-63.6436 94.0618,-53.8945 99.2817,-44.9824"/>
<polygon fill="black" stroke="black" points="102.448,-46.5021 104.482,-36.1043 96.4076,-42.9643 102.448,-46.5021"/>
<g id="a_edge2&#45;headlabel"><a xlink:href="dir_000005_000007.html" target="_top" xlink:title="5">
<text text-anchor="middle" x="103.081" y="-48.5388" font-family="Helvetica,sans-Serif" font-size="10.00">5</text>
</a>
</g>
</g>
</g>
</svg>
