<?xml version="1.0" encoding="UTF-8" standalone="no"?>
<!DOCTYPE svg PUBLIC "-//W3C//DTD SVG 1.1//EN"
 "http://www.w3.org/Graphics/SVG/1.1/DTD/svg11.dtd">
<!-- Generated by graphviz version 2.38.0 (20140413.2041)
 -->
<!-- Title: src/operational/src/memento Pages: 1 -->
<svg width="110pt" height="223pt"
 viewBox="0.00 0.00 109.50 223.00" xmlns="http://www.w3.org/2000/svg" xmlns:xlink="http://www.w3.org/1999/xlink">
<g id="graph0" class="graph" transform="scale(1 1) rotate(0) translate(4 219)">
<title>src/operational/src/memento</title>
<polygon fill="white" stroke="none" points="-4,4 -4,-219 105.5,-219 105.5,4 -4,4"/>
<g id="clust1" class="cluster"><title>clusterdir_d59c15f8e7bfc65047e47551dabf5761</title>
<g id="a_clust1"><a xlink:href="dir_d59c15f8e7bfc65047e47551dabf5761.html" target="_top" xlink:title="src">
<polygon fill="#ddddee" stroke="black" points="19.5,-136 19.5,-207 93.5,-207 93.5,-136 19.5,-136"/>
<text text-anchor="middle" x="56.5" y="-195" font-family="Helvetica,sans-Serif" font-size="10.00">src</text>
</a>
</g>
</g>
<!-- dir_1d4b6a4b2d00a14799b2844e00130938 -->
<g id="node1" class="node"><title>dir_1d4b6a4b2d00a14799b2844e00130938</title>
<g id="a_node1"><a xlink:href="dir_1d4b6a4b2d00a14799b2844e00130938.html" target="_top" xlink:title="memento">
<polygon fill="#eeeeff" stroke="black" points="85,-180 28,-180 28,-144 85,-144 85,-180"/>
<text text-anchor="middle" x="56.5" y="-159.5" font-family="Helvetica,sans-Serif" font-size="10.00">memento</text>
</a>
</g>
</g>
<!-- dir_3c0c3d6b075b2d31648cdc5c18b1adf7 -->
<g id="node2" class="node"><title>dir_3c0c3d6b075b2d31648cdc5c18b1adf7</title>
<g id="a_node2"><a xlink:href="dir_3c0c3d6b075b2d31648cdc5c18b1adf7.html" target="_top" xlink:title="structural">
<polygon fill="white" stroke="red" points="57,-108 0,-108 0,-72 57,-72 57,-108"/>
<text text-anchor="middle" x="28.5" y="-87.5" font-family="Helvetica,sans-Serif" font-size="10.00">structural</text>
</a>
</g>
</g>
<!-- dir_1d4b6a4b2d00a14799b2844e00130938&#45;&gt;dir_3c0c3d6b075b2d31648cdc5c18b1adf7 -->
<g id="edge2" class="edge"><title>dir_1d4b6a4b2d00a14799b2844e00130938&#45;&gt;dir_3c0c3d6b075b2d31648cdc5c18b1adf7</title>
<path fill="none" stroke="black" d="M49.5786,-143.697C46.4253,-135.813 42.6217,-126.304 39.1186,-117.546"/>
<polygon fill="black" stroke="black" points="42.3054,-116.089 35.3417,-108.104 35.806,-118.689 42.3054,-116.089"/>
<g id="a_edge2&#45;headlabel"><a xlink:href="dir_000021_000027.html" target="_top" xlink:title="1">
<text text-anchor="middle" x="46.2765" y="-115.872" font-family="Helvetica,sans-Serif" font-size="10.00">1</text>
</a>
</g>
</g>
<!-- dir_f01239d3cc421a673dc443c389362717 -->
<g id="node3" class="node"><title>dir_f01239d3cc421a673dc443c389362717</title>
<g id="a_node3"><a xlink:href="dir_f01239d3cc421a673dc443c389362717.html" target="_top" xlink:title="iterator">
<polygon fill="none" stroke="black" points="83.5,-36 29.5,-36 29.5,-0 83.5,-0 83.5,-36"/>
<text text-anchor="middle" x="56.5" y="-15.5" font-family="Helvetica,sans-Serif" font-size="10.00">iterator</text>
</a>
</g>
</g>
<!-- dir_1d4b6a4b2d00a14799b2844e00130938&#45;&gt;dir_f01239d3cc421a673dc443c389362717 -->
<g id="edge3" class="edge"><title>dir_1d4b6a4b2d00a14799b2844e00130938&#45;&gt;dir_f01239d3cc421a673dc443c389362717</title>
<path fill="none" stroke="black" d="M60.5591,-143.929C62.8056,-133.598 65.3666,-120.12 66.5,-108 67.9897,-92.0695 67.9897,-87.9305 66.5,-72 65.7031,-63.4781 64.2004,-54.2849 62.5975,-45.9862"/>
<polygon fill="black" stroke="black" points="66.0011,-45.1612 60.5591,-36.0708 59.1445,-46.5708 66.0011,-45.1612"/>
<g id="a_edge3&#45;headlabel"><a xlink:href="dir_000021_000019.html" target="_top" xlink:title="1">
<text text-anchor="middle" x="69.506" y="-45.6105" font-family="Helvetica,sans-Serif" font-size="10.00">1</text>
</a>
</g>
</g>
<!-- dir_3c0c3d6b075b2d31648cdc5c18b1adf7&#45;&gt;dir_f01239d3cc421a673dc443c389362717 -->
<g id="edge1" class="edge"><title>dir_3c0c3d6b075b2d31648cdc5c18b1adf7&#45;&gt;dir_f01239d3cc421a673dc443c389362717</title>
<path fill="none" stroke="black" d="M35.4214,-71.6966C38.5747,-63.8132 42.3783,-54.3042 45.8814,-45.5464"/>
<polygon fill="black" stroke="black" points="49.194,-46.689 49.6583,-36.1043 42.6946,-44.0892 49.194,-46.689"/>
<g id="a_edge1&#45;headlabel"><a xlink:href="dir_000027_000019.html" target="_top" xlink:title="6">
<text text-anchor="middle" x="50.4952" y="-48.581" font-family="Helvetica,sans-Serif" font-size="10.00">6</text>
</a>
</g>
</g>
</g>
</svg>
