<?xml version="1.0" encoding="UTF-8" standalone="no"?>
<!DOCTYPE svg PUBLIC "-//W3C//DTD SVG 1.1//EN"
 "http://www.w3.org/Graphics/SVG/1.1/DTD/svg11.dtd">
<!-- Generated by graphviz version 2.38.0 (20140413.2041)
 -->
<!-- Title: src/operational/src Pages: 1 -->
<svg width="936pt" height="183pt"
 viewBox="0.00 0.00 935.50 183.00" xmlns="http://www.w3.org/2000/svg" xmlns:xlink="http://www.w3.org/1999/xlink">
<g id="graph0" class="graph" transform="scale(1 1) rotate(0) translate(4 179)">
<title>src/operational/src</title>
<polygon fill="white" stroke="none" points="-4,4 -4,-179 931.5,-179 931.5,4 -4,4"/>
<g id="clust1" class="cluster"><title>clusterdir_e7067f6c8f57218172f13b4d43a08c21</title>
<g id="a_clust1"><a xlink:href="dir_e7067f6c8f57218172f13b4d43a08c21.html" target="_top" xlink:title="operational">
<polygon fill="#ddddee" stroke="black" points="8,-8 8,-167 862,-167 862,-8 8,-8"/>
<text text-anchor="middle" x="435" y="-155" font-family="Helvetica,sans-Serif" font-size="10.00">operational</text>
</a>
</g>
</g>
<g id="clust2" class="cluster"><title>clusterdir_d59c15f8e7bfc65047e47551dabf5761</title>
<g id="a_clust2"><a xlink:href="dir_d59c15f8e7bfc65047e47551dabf5761.html" target="_top">
<polygon fill="#eeeeff" stroke="black" points="16,-16 16,-140 854,-140 854,-16 16,-16"/>
</a>
</g>
</g>
<!-- dir_d59c15f8e7bfc65047e47551dabf5761 -->
<g id="node1" class="node"><title>dir_d59c15f8e7bfc65047e47551dabf5761</title>
<text text-anchor="middle" x="819" y="-111.5" font-family="Helvetica,sans-Serif" font-size="10.00">src</text>
</g>
<!-- dir_7406f6f5e8a7e23e3d173958081dbed3 -->
<g id="node2" class="node"><title>dir_7406f6f5e8a7e23e3d173958081dbed3</title>
<g id="a_node2"><a xlink:href="dir_7406f6f5e8a7e23e3d173958081dbed3.html" target="_top" xlink:title="chain">
<polygon fill="white" stroke="black" points="774,-132 720,-132 720,-96 774,-96 774,-132"/>
<text text-anchor="middle" x="747" y="-111.5" font-family="Helvetica,sans-Serif" font-size="10.00">chain</text>
</a>
</g>
</g>
<!-- dir_bd9b2ab9cb0b74cf81e43959ab52cccb -->
<g id="node3" class="node"><title>dir_bd9b2ab9cb0b74cf81e43959ab52cccb</title>
<g id="a_node3"><a xlink:href="dir_bd9b2ab9cb0b74cf81e43959ab52cccb.html" target="_top" xlink:title="command">
<polygon fill="white" stroke="black" points="403.5,-132 344.5,-132 344.5,-96 403.5,-96 403.5,-132"/>
<text text-anchor="middle" x="374" y="-111.5" font-family="Helvetica,sans-Serif" font-size="10.00">command</text>
</a>
</g>
</g>
<!-- dir_f01239d3cc421a673dc443c389362717 -->
<g id="node5" class="node"><title>dir_f01239d3cc421a673dc443c389362717</title>
<g id="a_node5"><a xlink:href="dir_f01239d3cc421a673dc443c389362717.html" target="_top" xlink:title="iterator">
<polygon fill="white" stroke="black" points="512,-60 458,-60 458,-24 512,-24 512,-60"/>
<text text-anchor="middle" x="485" y="-39.5" font-family="Helvetica,sans-Serif" font-size="10.00">iterator</text>
</a>
</g>
</g>
<!-- dir_bd9b2ab9cb0b74cf81e43959ab52cccb&#45;&gt;dir_f01239d3cc421a673dc443c389362717 -->
<g id="edge7" class="edge"><title>dir_bd9b2ab9cb0b74cf81e43959ab52cccb&#45;&gt;dir_f01239d3cc421a673dc443c389362717</title>
<path fill="none" stroke="black" d="M401.154,-95.8761C415.533,-86.8083 433.381,-75.5523 448.91,-65.7592"/>
<polygon fill="black" stroke="black" points="451.15,-68.4845 457.742,-60.1898 447.416,-62.5635 451.15,-68.4845"/>
<g id="a_edge7&#45;headlabel"><a xlink:href="dir_000017_000019.html" target="_top" xlink:title="2">
<text text-anchor="middle" x="449.624" y="-70.3035" font-family="Helvetica,sans-Serif" font-size="10.00">2</text>
</a>
</g>
</g>
<!-- dir_35f0c7591a3243b8ba1c8954edf6edb1 -->
<g id="node4" class="node"><title>dir_35f0c7591a3243b8ba1c8954edf6edb1</title>
<g id="a_node4"><a xlink:href="dir_35f0c7591a3243b8ba1c8954edf6edb1.html" target="_top" xlink:title="interpreter">
<polygon fill="white" stroke="black" points="626,-132 566,-132 566,-96 626,-96 626,-132"/>
<text text-anchor="middle" x="596" y="-111.5" font-family="Helvetica,sans-Serif" font-size="10.00">interpreter</text>
</a>
</g>
</g>
<!-- dir_b3bda8eef7df6ecf81a034b35173b174 -->
<g id="node6" class="node"><title>dir_b3bda8eef7df6ecf81a034b35173b174</title>
<g id="a_node6"><a xlink:href="dir_b3bda8eef7df6ecf81a034b35173b174.html" target="_top" xlink:title="mediator">
<polygon fill="white" stroke="black" points="548,-132 494,-132 494,-96 548,-96 548,-132"/>
<text text-anchor="middle" x="521" y="-111.5" font-family="Helvetica,sans-Serif" font-size="10.00">mediator</text>
</a>
</g>
</g>
<!-- dir_b3bda8eef7df6ecf81a034b35173b174&#45;&gt;dir_f01239d3cc421a673dc443c389362717 -->
<g id="edge3" class="edge"><title>dir_b3bda8eef7df6ecf81a034b35173b174&#45;&gt;dir_f01239d3cc421a673dc443c389362717</title>
<path fill="none" stroke="black" d="M512.101,-95.6966C508.003,-87.7284 503.051,-78.0995 498.507,-69.2641"/>
<polygon fill="black" stroke="black" points="501.483,-67.3965 493.797,-60.1043 495.258,-70.598 501.483,-67.3965"/>
<g id="a_edge3&#45;headlabel"><a xlink:href="dir_000020_000019.html" target="_top" xlink:title="1">
<text text-anchor="middle" x="505.651" y="-66.7946" font-family="Helvetica,sans-Serif" font-size="10.00">1</text>
</a>
</g>
</g>
<!-- dir_1d4b6a4b2d00a14799b2844e00130938 -->
<g id="node7" class="node"><title>dir_1d4b6a4b2d00a14799b2844e00130938</title>
<g id="a_node7"><a xlink:href="dir_1d4b6a4b2d00a14799b2844e00130938.html" target="_top" xlink:title="memento">
<polygon fill="white" stroke="black" points="701.5,-132 644.5,-132 644.5,-96 701.5,-96 701.5,-132"/>
<text text-anchor="middle" x="673" y="-111.5" font-family="Helvetica,sans-Serif" font-size="10.00">memento</text>
</a>
</g>
</g>
<!-- dir_1d4b6a4b2d00a14799b2844e00130938&#45;&gt;dir_f01239d3cc421a673dc443c389362717 -->
<g id="edge5" class="edge"><title>dir_1d4b6a4b2d00a14799b2844e00130938&#45;&gt;dir_f01239d3cc421a673dc443c389362717</title>
<path fill="none" stroke="black" d="M644.472,-99.9398C641.292,-98.5728 638.087,-97.2336 635,-96 596.864,-80.7613 552.425,-65.3447 521.87,-55.0977"/>
<polygon fill="black" stroke="black" points="522.664,-51.6727 512.07,-51.8285 520.448,-58.313 522.664,-51.6727"/>
<g id="a_edge5&#45;headlabel"><a xlink:href="dir_000021_000019.html" target="_top" xlink:title="1">
<text text-anchor="middle" x="526.972" y="-47.6167" font-family="Helvetica,sans-Serif" font-size="10.00">1</text>
</a>
</g>
</g>
<!-- dir_3c0c3d6b075b2d31648cdc5c18b1adf7 -->
<g id="node13" class="node"><title>dir_3c0c3d6b075b2d31648cdc5c18b1adf7</title>
<g id="a_node13"><a xlink:href="dir_3c0c3d6b075b2d31648cdc5c18b1adf7.html" target="_top" xlink:title="structural">
<polygon fill="white" stroke="red" points="927.5,-60 870.5,-60 870.5,-24 927.5,-24 927.5,-60"/>
<text text-anchor="middle" x="899" y="-39.5" font-family="Helvetica,sans-Serif" font-size="10.00">structural</text>
</a>
</g>
</g>
<!-- dir_1d4b6a4b2d00a14799b2844e00130938&#45;&gt;dir_3c0c3d6b075b2d31648cdc5c18b1adf7 -->
<g id="edge4" class="edge"><title>dir_1d4b6a4b2d00a14799b2844e00130938&#45;&gt;dir_3c0c3d6b075b2d31648cdc5c18b1adf7</title>
<path fill="none" stroke="black" d="M701.83,-99.4566C704.895,-98.211 707.992,-97.0317 711,-96 774.625,-74.177 794.079,-80.9427 858,-60 858.865,-59.7166 859.737,-59.4232 860.615,-59.1212"/>
<polygon fill="black" stroke="black" points="861.916,-62.3718 870.089,-55.63 859.496,-55.8036 861.916,-62.3718"/>
<g id="a_edge4&#45;headlabel"><a xlink:href="dir_000021_000027.html" target="_top" xlink:title="1">
<text text-anchor="middle" x="859.525" y="-63.7788" font-family="Helvetica,sans-Serif" font-size="10.00">1</text>
</a>
</g>
</g>
<!-- dir_7371d467c5b5ab45902e0504d5063912 -->
<g id="node8" class="node"><title>dir_7371d467c5b5ab45902e0504d5063912</title>
<g id="a_node8"><a xlink:href="dir_7371d467c5b5ab45902e0504d5063912.html" target="_top" xlink:title="observer">
<polygon fill="white" stroke="black" points="476,-132 422,-132 422,-96 476,-96 476,-132"/>
<text text-anchor="middle" x="449" y="-111.5" font-family="Helvetica,sans-Serif" font-size="10.00">observer</text>
</a>
</g>
</g>
<!-- dir_7371d467c5b5ab45902e0504d5063912&#45;&gt;dir_f01239d3cc421a673dc443c389362717 -->
<g id="edge6" class="edge"><title>dir_7371d467c5b5ab45902e0504d5063912&#45;&gt;dir_f01239d3cc421a673dc443c389362717</title>
<path fill="none" stroke="black" d="M457.899,-95.6966C461.997,-87.7284 466.949,-78.0995 471.493,-69.2641"/>
<polygon fill="black" stroke="black" points="474.742,-70.598 476.203,-60.1043 468.517,-67.3965 474.742,-70.598"/>
<g id="a_edge6&#45;headlabel"><a xlink:href="dir_000022_000019.html" target="_top" xlink:title="2">
<text text-anchor="middle" x="475.623" y="-72.5931" font-family="Helvetica,sans-Serif" font-size="10.00">2</text>
</a>
</g>
</g>
<!-- dir_14a45e7584b94cff8dfc7ce71f487761 -->
<g id="node9" class="node"><title>dir_14a45e7584b94cff8dfc7ce71f487761</title>
<g id="a_node9"><a xlink:href="dir_14a45e7584b94cff8dfc7ce71f487761.html" target="_top" xlink:title="state">
<polygon fill="white" stroke="black" points="326,-132 272,-132 272,-96 326,-96 326,-132"/>
<text text-anchor="middle" x="299" y="-111.5" font-family="Helvetica,sans-Serif" font-size="10.00">state</text>
</a>
</g>
</g>
<!-- dir_18588fd11d7d59b57a68738691d2f4d7 -->
<g id="node10" class="node"><title>dir_18588fd11d7d59b57a68738691d2f4d7</title>
<g id="a_node10"><a xlink:href="dir_18588fd11d7d59b57a68738691d2f4d7.html" target="_top" xlink:title="strategy">
<polygon fill="white" stroke="black" points="254,-132 200,-132 200,-96 254,-96 254,-132"/>
<text text-anchor="middle" x="227" y="-111.5" font-family="Helvetica,sans-Serif" font-size="10.00">strategy</text>
</a>
</g>
</g>
<!-- dir_622fd81e390798d6cd424cd402728965 -->
<g id="node11" class="node"><title>dir_622fd81e390798d6cd424cd402728965</title>
<g id="a_node11"><a xlink:href="dir_622fd81e390798d6cd424cd402728965.html" target="_top" xlink:title="templatemethod">
<polygon fill="white" stroke="black" points="182,-132 96,-132 96,-96 182,-96 182,-132"/>
<text text-anchor="middle" x="139" y="-111.5" font-family="Helvetica,sans-Serif" font-size="10.00">templatemethod</text>
</a>
</g>
</g>
<!-- dir_c1fa3f7c2618a5afcd94a327fee210c6 -->
<g id="node12" class="node"><title>dir_c1fa3f7c2618a5afcd94a327fee210c6</title>
<g id="a_node12"><a xlink:href="dir_c1fa3f7c2618a5afcd94a327fee210c6.html" target="_top" xlink:title="visitor">
<polygon fill="white" stroke="black" points="78,-132 24,-132 24,-96 78,-96 78,-132"/>
<text text-anchor="middle" x="51" y="-111.5" font-family="Helvetica,sans-Serif" font-size="10.00">visitor</text>
</a>
</g>
</g>
<!-- dir_c1fa3f7c2618a5afcd94a327fee210c6&#45;&gt;dir_f01239d3cc421a673dc443c389362717 -->
<g id="edge1" class="edge"><title>dir_c1fa3f7c2618a5afcd94a327fee210c6&#45;&gt;dir_f01239d3cc421a673dc443c389362717</title>
<path fill="none" stroke="black" d="M78.1738,-99.1038C81.1053,-97.927 84.083,-96.8603 87,-96 215.781,-58.0208 376.08,-47.1891 447.567,-44.1536"/>
<polygon fill="black" stroke="black" points="448.004,-47.6391 457.858,-43.7451 447.727,-40.6446 448.004,-47.6391"/>
<g id="a_edge1&#45;headlabel"><a xlink:href="dir_000026_000019.html" target="_top" xlink:title="1">
<text text-anchor="middle" x="444.525" y="-48.1186" font-family="Helvetica,sans-Serif" font-size="10.00">1</text>
</a>
</g>
</g>
<!-- dir_3c0c3d6b075b2d31648cdc5c18b1adf7&#45;&gt;dir_f01239d3cc421a673dc443c389362717 -->
<g id="edge2" class="edge"><title>dir_3c0c3d6b075b2d31648cdc5c18b1adf7&#45;&gt;dir_f01239d3cc421a673dc443c389362717</title>
<path fill="none" stroke="black" d="M870.284,-42C754.267,-42 638.249,-42 522.232,-42"/>
<polygon fill="black" stroke="black" points="522.088,-38.5001 512.088,-42 522.088,-45.5001 522.088,-38.5001"/>
<g id="a_edge2&#45;headlabel"><a xlink:href="dir_000027_000019.html" target="_top" xlink:title="6">
<text text-anchor="middle" x="525.683" y="-33.1607" font-family="Helvetica,sans-Serif" font-size="10.00">6</text>
</a>
</g>
</g>
</g>
</svg>
