<?xml version="1.0" encoding="UTF-8" standalone="no"?>
<!DOCTYPE svg PUBLIC "-//W3C//DTD SVG 1.1//EN"
 "http://www.w3.org/Graphics/SVG/1.1/DTD/svg11.dtd">
<!-- Generated by graphviz version 2.38.0 (20140413.2041)
 -->
<!-- Title: Graphical Class Hierarchy Pages: 1 -->
<svg width="222pt" height="88pt"
 viewBox="0.00 0.00 222.00 88.00" xmlns="http://www.w3.org/2000/svg" xmlns:xlink="http://www.w3.org/1999/xlink">
<g id="graph0" class="graph" transform="scale(1 1) rotate(0) translate(4 84)">
<title>Graphical Class Hierarchy</title>
<polygon fill="white" stroke="none" points="-4,4 -4,-84 218,-84 218,4 -4,4"/>
<!-- Node1 -->
<g id="node1" class="node"><title>Node1</title>
<g id="a_node1"><a xlink:href="d8/db9/classstructural_1_1bridge_1_1_window_imp.html" target="_top" xlink:title="structural::bridge\l::WindowImp">
<polygon fill="white" stroke="black" points="0,-24.5 0,-54.5 89,-54.5 89,-24.5 0,-24.5"/>
<text text-anchor="start" x="8" y="-42.5" font-family="Helvetica,sans-Serif" font-size="10.00">structural::bridge</text>
<text text-anchor="middle" x="44.5" y="-31.5" font-family="Helvetica,sans-Serif" font-size="10.00">::WindowImp</text>
</a>
</g>
</g>
<!-- Node2 -->
<g id="node2" class="node"><title>Node2</title>
<g id="a_node2"><a xlink:href="da/db5/classstructural_1_1bridge_1_1_p_m_window_imp.html" target="_top" xlink:title="structural::bridge\l::PMWindowImp">
<polygon fill="white" stroke="black" points="125,-49.5 125,-79.5 214,-79.5 214,-49.5 125,-49.5"/>
<text text-anchor="start" x="133" y="-67.5" font-family="Helvetica,sans-Serif" font-size="10.00">structural::bridge</text>
<text text-anchor="middle" x="169.5" y="-56.5" font-family="Helvetica,sans-Serif" font-size="10.00">::PMWindowImp</text>
</a>
</g>
</g>
<!-- Node1&#45;&gt;Node2 -->
<g id="edge1" class="edge"><title>Node1&#45;&gt;Node2</title>
<path fill="none" stroke="midnightblue" d="M99.1774,-50.41C107.783,-52.1592 116.597,-53.9506 124.929,-55.6442"/>
<polygon fill="midnightblue" stroke="midnightblue" points="99.7083,-46.9465 89.2115,-48.3845 98.314,-53.8062 99.7083,-46.9465"/>
</g>
<!-- Node3 -->
<g id="node3" class="node"><title>Node3</title>
<g id="a_node3"><a xlink:href="d1/da2/classstructural_1_1bridge_1_1_x_window_imp.html" target="_top" xlink:title="structural::bridge\l::XWindowImp">
<polygon fill="white" stroke="black" points="125,-0.5 125,-30.5 214,-30.5 214,-0.5 125,-0.5"/>
<text text-anchor="start" x="133" y="-18.5" font-family="Helvetica,sans-Serif" font-size="10.00">structural::bridge</text>
<text text-anchor="middle" x="169.5" y="-7.5" font-family="Helvetica,sans-Serif" font-size="10.00">::XWindowImp</text>
</a>
</g>
</g>
<!-- Node1&#45;&gt;Node3 -->
<g id="edge2" class="edge"><title>Node1&#45;&gt;Node3</title>
<path fill="none" stroke="midnightblue" d="M99.1774,-29.0264C107.783,-27.3472 116.597,-25.6275 124.929,-24.0016"/>
<polygon fill="midnightblue" stroke="midnightblue" points="98.3561,-25.6205 89.2115,-30.9709 99.6967,-32.491 98.3561,-25.6205"/>
</g>
</g>
</svg>
