<?xml version="1.0" encoding="UTF-8" standalone="no"?>
<!DOCTYPE svg PUBLIC "-//W3C//DTD SVG 1.1//EN"
 "http://www.w3.org/Graphics/SVG/1.1/DTD/svg11.dtd">
<!-- Generated by graphviz version 2.38.0 (20140413.2041)
 -->
<!-- Title: Graphical Class Hierarchy Pages: 1 -->
<svg width="302pt" height="186pt"
 viewBox="0.00 0.00 302.00 186.00" xmlns="http://www.w3.org/2000/svg" xmlns:xlink="http://www.w3.org/1999/xlink">
<g id="graph0" class="graph" transform="scale(1 1) rotate(0) translate(4 182)">
<title>Graphical Class Hierarchy</title>
<polygon fill="white" stroke="none" points="-4,4 -4,-182 298,-182 298,4 -4,4"/>
<!-- Node1 -->
<g id="node1" class="node"><title>Node1</title>
<g id="a_node1"><a xlink:href="de/dce/classcreational_1_1abstractfactory_1_1_maze_factory_interface.html" target="_top" xlink:title="creational::abstractfactory\l::MazeFactoryInterface">
<polygon fill="white" stroke="black" points="0,-73.5 0,-103.5 129,-103.5 129,-73.5 0,-73.5"/>
<text text-anchor="start" x="8" y="-91.5" font-family="Helvetica,sans-Serif" font-size="10.00">creational::abstractfactory</text>
<text text-anchor="middle" x="64.5" y="-80.5" font-family="Helvetica,sans-Serif" font-size="10.00">::MazeFactoryInterface</text>
</a>
</g>
</g>
<!-- Node2 -->
<g id="node2" class="node"><title>Node2</title>
<g id="a_node2"><a xlink:href="d0/d3b/classcreational_1_1abstractfactory_1_1_bombed_maze_factory.html" target="_top" xlink:title="creational::abstractfactory\l::BombedMazeFactory">
<polygon fill="white" stroke="black" points="165,-147.5 165,-177.5 294,-177.5 294,-147.5 165,-147.5"/>
<text text-anchor="start" x="173" y="-165.5" font-family="Helvetica,sans-Serif" font-size="10.00">creational::abstractfactory</text>
<text text-anchor="middle" x="229.5" y="-154.5" font-family="Helvetica,sans-Serif" font-size="10.00">::BombedMazeFactory</text>
</a>
</g>
</g>
<!-- Node1&#45;&gt;Node2 -->
<g id="edge1" class="edge"><title>Node1&#45;&gt;Node2</title>
<path fill="none" stroke="midnightblue" d="M102.43,-108.212C120.987,-117.819 143.949,-129.263 165,-138.5 172.015,-141.578 179.561,-144.64 186.917,-147.496"/>
<polygon fill="midnightblue" stroke="midnightblue" points="103.918,-105.04 93.4328,-103.519 100.681,-111.247 103.918,-105.04"/>
</g>
<!-- Node3 -->
<g id="node3" class="node"><title>Node3</title>
<g id="a_node3"><a xlink:href="d5/d32/classcreational_1_1abstractfactory_1_1_enchanted_maze_factory.html" target="_top" xlink:title="creational::abstractfactory\l::EnchantedMazeFactory">
<polygon fill="white" stroke="black" points="165,-98.5 165,-128.5 294,-128.5 294,-98.5 165,-98.5"/>
<text text-anchor="start" x="173" y="-116.5" font-family="Helvetica,sans-Serif" font-size="10.00">creational::abstractfactory</text>
<text text-anchor="middle" x="229.5" y="-105.5" font-family="Helvetica,sans-Serif" font-size="10.00">::EnchantedMazeFactory</text>
</a>
</g>
</g>
<!-- Node1&#45;&gt;Node3 -->
<g id="edge2" class="edge"><title>Node1&#45;&gt;Node3</title>
<path fill="none" stroke="midnightblue" d="M139.409,-99.8358C147.953,-101.146 156.609,-102.474 164.998,-103.76"/>
<polygon fill="midnightblue" stroke="midnightblue" points="139.869,-96.3655 129.454,-98.3089 138.808,-103.285 139.869,-96.3655"/>
</g>
<!-- Node4 -->
<g id="node4" class="node"><title>Node4</title>
<g id="a_node4"><a xlink:href="d6/d04/classcreational_1_1abstractfactory_1_1_maze_factory.html" target="_top" xlink:title="creational::abstractfactory\l::MazeFactory">
<polygon fill="white" stroke="black" points="165,-49.5 165,-79.5 294,-79.5 294,-49.5 165,-49.5"/>
<text text-anchor="start" x="173" y="-67.5" font-family="Helvetica,sans-Serif" font-size="10.00">creational::abstractfactory</text>
<text text-anchor="middle" x="229.5" y="-56.5" font-family="Helvetica,sans-Serif" font-size="10.00">::MazeFactory</text>
</a>
</g>
</g>
<!-- Node1&#45;&gt;Node4 -->
<g id="edge3" class="edge"><title>Node1&#45;&gt;Node4</title>
<path fill="none" stroke="midnightblue" d="M139.409,-77.6176C147.953,-76.3596 156.609,-75.0851 164.998,-73.85"/>
<polygon fill="midnightblue" stroke="midnightblue" points="138.838,-74.164 129.454,-79.0834 139.857,-81.0893 138.838,-74.164"/>
</g>
<!-- Node5 -->
<g id="node5" class="node"><title>Node5</title>
<g id="a_node5"><a xlink:href="d9/d21/classcreational_1_1prototype_1_1_maze_prototype_factory.html" target="_top" xlink:title="creational::prototype\l::MazePrototypeFactory">
<polygon fill="white" stroke="black" points="168.5,-0.5 168.5,-30.5 290.5,-30.5 290.5,-0.5 168.5,-0.5"/>
<text text-anchor="start" x="176.5" y="-18.5" font-family="Helvetica,sans-Serif" font-size="10.00">creational::prototype</text>
<text text-anchor="middle" x="229.5" y="-7.5" font-family="Helvetica,sans-Serif" font-size="10.00">::MazePrototypeFactory</text>
</a>
</g>
</g>
<!-- Node1&#45;&gt;Node5 -->
<g id="edge4" class="edge"><title>Node1&#45;&gt;Node5</title>
<path fill="none" stroke="midnightblue" d="M104.431,-68.8902C122.676,-59.9144 144.799,-49.3347 165,-40.5 172.707,-37.1294 181.024,-33.7054 189.019,-30.5169"/>
<polygon fill="midnightblue" stroke="midnightblue" points="102.685,-65.8488 95.2738,-73.4201 105.789,-72.123 102.685,-65.8488"/>
</g>
</g>
</svg>
