<?xml version="1.0" encoding="UTF-8" standalone="no"?>
<!DOCTYPE svg PUBLIC "-//W3C//DTD SVG 1.1//EN"
 "http://www.w3.org/Graphics/SVG/1.1/DTD/svg11.dtd">
<!-- Generated by graphviz version 2.38.0 (20140413.2041)
 -->
<!-- Title: Graphical Class Hierarchy Pages: 1 -->
<svg width="442pt" height="88pt"
 viewBox="0.00 0.00 442.00 88.00" xmlns="http://www.w3.org/2000/svg" xmlns:xlink="http://www.w3.org/1999/xlink">
<g id="graph0" class="graph" transform="scale(1 1) rotate(0) translate(4 84)">
<title>Graphical Class Hierarchy</title>
<polygon fill="white" stroke="none" points="-4,4 -4,-84 438,-84 438,4 -4,4"/>
<!-- Node1 -->
<g id="node1" class="node"><title>Node1</title>
<g id="a_node1"><a xlink:href="da/da8/classstructural_1_1adapter_1_1_shape_interface.html" target="_top" xlink:title="structural::adapter\l::ShapeInterface">
<polygon fill="white" stroke="black" points="172,-0.5 172,-30.5 267,-30.5 267,-0.5 172,-0.5"/>
<text text-anchor="start" x="180" y="-18.5" font-family="Helvetica,sans-Serif" font-size="10.00">structural::adapter</text>
<text text-anchor="middle" x="219.5" y="-7.5" font-family="Helvetica,sans-Serif" font-size="10.00">::ShapeInterface</text>
</a>
</g>
</g>
<!-- Node2 -->
<g id="node2" class="node"><title>Node2</title>
<g id="a_node2"><a xlink:href="df/d8e/classstructural_1_1adapter_1_1_text_shape_class_adapter.html" target="_top" xlink:title="structural::adapter\l::TextShapeClassAdapter">
<polygon fill="white" stroke="black" points="304.5,-49.5 304.5,-79.5 432.5,-79.5 432.5,-49.5 304.5,-49.5"/>
<text text-anchor="start" x="312.5" y="-67.5" font-family="Helvetica,sans-Serif" font-size="10.00">structural::adapter</text>
<text text-anchor="middle" x="368.5" y="-56.5" font-family="Helvetica,sans-Serif" font-size="10.00">::TextShapeClassAdapter</text>
</a>
</g>
</g>
<!-- Node1&#45;&gt;Node2 -->
<g id="edge1" class="edge"><title>Node1&#45;&gt;Node2</title>
<path fill="none" stroke="midnightblue" d="M275.716,-33.9055C291.097,-39.0322 307.618,-44.5392 322.345,-49.4484"/>
<polygon fill="midnightblue" stroke="midnightblue" points="276.398,-30.4434 265.804,-30.6014 274.184,-37.0842 276.398,-30.4434"/>
</g>
<!-- Node3 -->
<g id="node3" class="node"><title>Node3</title>
<g id="a_node3"><a xlink:href="d2/d3e/classstructural_1_1adapter_1_1_text_shape_object_adapter.html" target="_top" xlink:title="structural::adapter\l::TextShapeObjectAdapter">
<polygon fill="white" stroke="black" points="303,-0.5 303,-30.5 434,-30.5 434,-0.5 303,-0.5"/>
<text text-anchor="start" x="311" y="-18.5" font-family="Helvetica,sans-Serif" font-size="10.00">structural::adapter</text>
<text text-anchor="middle" x="368.5" y="-7.5" font-family="Helvetica,sans-Serif" font-size="10.00">::TextShapeObjectAdapter</text>
</a>
</g>
</g>
<!-- Node1&#45;&gt;Node3 -->
<g id="edge2" class="edge"><title>Node1&#45;&gt;Node3</title>
<path fill="none" stroke="midnightblue" d="M277.077,-15.5C285.482,-15.5 294.2,-15.5 302.756,-15.5"/>
<polygon fill="midnightblue" stroke="midnightblue" points="277.012,-12.0001 267.012,-15.5 277.012,-19.0001 277.012,-12.0001"/>
</g>
<!-- Node4 -->
<g id="node4" class="node"><title>Node4</title>
<g id="a_node4"><a xlink:href="da/d96/classstructural_1_1adapter_1_1_visual_component_interface.html" target="_top" xlink:title="structural::adapter\l::VisualComponentInterface">
<polygon fill="white" stroke="black" points="0,-49.5 0,-79.5 136,-79.5 136,-49.5 0,-49.5"/>
<text text-anchor="start" x="8" y="-67.5" font-family="Helvetica,sans-Serif" font-size="10.00">structural::adapter</text>
<text text-anchor="middle" x="68" y="-56.5" font-family="Helvetica,sans-Serif" font-size="10.00">::VisualComponentInterface</text>
</a>
</g>
</g>
<!-- Node5 -->
<g id="node5" class="node"><title>Node5</title>
<g id="a_node5"><a xlink:href="d7/dce/classstructural_1_1adapter_1_1_text_view.html" target="_top" xlink:title="structural::adapter\l::TextView">
<polygon fill="white" stroke="black" points="172,-49.5 172,-79.5 267,-79.5 267,-49.5 172,-49.5"/>
<text text-anchor="start" x="180" y="-67.5" font-family="Helvetica,sans-Serif" font-size="10.00">structural::adapter</text>
<text text-anchor="middle" x="219.5" y="-56.5" font-family="Helvetica,sans-Serif" font-size="10.00">::TextView</text>
</a>
</g>
</g>
<!-- Node4&#45;&gt;Node5 -->
<g id="edge3" class="edge"><title>Node4&#45;&gt;Node5</title>
<path fill="none" stroke="midnightblue" d="M146.419,-64.5C155.03,-64.5 163.595,-64.5 171.654,-64.5"/>
<polygon fill="midnightblue" stroke="midnightblue" points="146.315,-61.0001 136.315,-64.5 146.315,-68.0001 146.315,-61.0001"/>
</g>
<!-- Node5&#45;&gt;Node2 -->
<g id="edge4" class="edge"><title>Node5&#45;&gt;Node2</title>
<path fill="none" stroke="midnightblue" d="M277.244,-64.5C286.123,-64.5 295.347,-64.5 304.359,-64.5"/>
<polygon fill="midnightblue" stroke="midnightblue" points="277.012,-61.0001 267.012,-64.5 277.012,-68.0001 277.012,-61.0001"/>
</g>
</g>
</svg>
