<?xml version="1.0" encoding="UTF-8" standalone="no"?>
<!DOCTYPE svg PUBLIC "-//W3C//DTD SVG 1.1//EN"
 "http://www.w3.org/Graphics/SVG/1.1/DTD/svg11.dtd">
<!-- Generated by graphviz version 2.38.0 (20140413.2041)
 -->
<!-- Title: Graphical Class Hierarchy Pages: 1 -->
<svg width="435pt" height="137pt"
 viewBox="0.00 0.00 435.00 137.00" xmlns="http://www.w3.org/2000/svg" xmlns:xlink="http://www.w3.org/1999/xlink">
<g id="graph0" class="graph" transform="scale(1 1) rotate(0) translate(4 133)">
<title>Graphical Class Hierarchy</title>
<polygon fill="white" stroke="none" points="-4,4 -4,-133 431,-133 431,4 -4,4"/>
<!-- Node1 -->
<g id="node1" class="node"><title>Node1</title>
<g id="a_node1"><a xlink:href="df/d68/classstructural_1_1composite_1_1_equipment_interface.html" target="_top" xlink:title="structural::composite\l::EquipmentInterface">
<polygon fill="white" stroke="black" points="0,-49.5 0,-79.5 108,-79.5 108,-49.5 0,-49.5"/>
<text text-anchor="start" x="8" y="-67.5" font-family="Helvetica,sans-Serif" font-size="10.00">structural::composite</text>
<text text-anchor="middle" x="54" y="-56.5" font-family="Helvetica,sans-Serif" font-size="10.00">::EquipmentInterface</text>
</a>
</g>
</g>
<!-- Node2 -->
<g id="node2" class="node"><title>Node2</title>
<g id="a_node2"><a xlink:href="d7/d98/classstructural_1_1composite_1_1_card.html" target="_top" xlink:title="structural::composite\l::Card">
<polygon fill="white" stroke="black" points="148,-98.5 148,-128.5 256,-128.5 256,-98.5 148,-98.5"/>
<text text-anchor="start" x="156" y="-116.5" font-family="Helvetica,sans-Serif" font-size="10.00">structural::composite</text>
<text text-anchor="middle" x="202" y="-105.5" font-family="Helvetica,sans-Serif" font-size="10.00">::Card</text>
</a>
</g>
</g>
<!-- Node1&#45;&gt;Node2 -->
<g id="edge1" class="edge"><title>Node1&#45;&gt;Node2</title>
<path fill="none" stroke="midnightblue" d="M109.841,-82.9055C125.116,-88.0322 141.525,-93.5392 156.152,-98.4484"/>
<polygon fill="midnightblue" stroke="midnightblue" points="110.59,-79.4651 99.9961,-79.6014 108.363,-86.1014 110.59,-79.4651"/>
</g>
<!-- Node3 -->
<g id="node3" class="node"><title>Node3</title>
<g id="a_node3"><a xlink:href="d9/d95/classstructural_1_1composite_1_1_composite_equipment.html" target="_top" xlink:title="structural::composite\l::CompositeEquipment">
<polygon fill="white" stroke="black" points="144,-49.5 144,-79.5 260,-79.5 260,-49.5 144,-49.5"/>
<text text-anchor="start" x="152" y="-67.5" font-family="Helvetica,sans-Serif" font-size="10.00">structural::composite</text>
<text text-anchor="middle" x="202" y="-56.5" font-family="Helvetica,sans-Serif" font-size="10.00">::CompositeEquipment</text>
</a>
</g>
</g>
<!-- Node1&#45;&gt;Node3 -->
<g id="edge2" class="edge"><title>Node1&#45;&gt;Node3</title>
<path fill="none" stroke="midnightblue" d="M118.312,-64.5C126.763,-64.5 135.391,-64.5 143.731,-64.5"/>
<polygon fill="midnightblue" stroke="midnightblue" points="118.122,-61.0001 108.122,-64.5 118.122,-68.0001 118.122,-61.0001"/>
</g>
<!-- Node7 -->
<g id="node7" class="node"><title>Node7</title>
<g id="a_node7"><a xlink:href="d5/d43/classstructural_1_1composite_1_1_floppy_disk.html" target="_top" xlink:title="structural::composite\l::FloppyDisk">
<polygon fill="white" stroke="black" points="148,-0.5 148,-30.5 256,-30.5 256,-0.5 148,-0.5"/>
<text text-anchor="start" x="156" y="-18.5" font-family="Helvetica,sans-Serif" font-size="10.00">structural::composite</text>
<text text-anchor="middle" x="202" y="-7.5" font-family="Helvetica,sans-Serif" font-size="10.00">::FloppyDisk</text>
</a>
</g>
</g>
<!-- Node1&#45;&gt;Node7 -->
<g id="edge6" class="edge"><title>Node1&#45;&gt;Node7</title>
<path fill="none" stroke="midnightblue" d="M109.841,-46.0945C125.116,-40.9678 141.525,-35.4608 156.152,-30.5516"/>
<polygon fill="midnightblue" stroke="midnightblue" points="108.363,-42.8986 99.9961,-49.3986 110.59,-49.5349 108.363,-42.8986"/>
</g>
<!-- Node4 -->
<g id="node4" class="node"><title>Node4</title>
<g id="a_node4"><a xlink:href="dc/d6c/classstructural_1_1composite_1_1_bus.html" target="_top" xlink:title="structural::composite::Bus">
<polygon fill="white" stroke="black" points="296,-99 296,-118 427,-118 427,-99 296,-99"/>
<text text-anchor="middle" x="361.5" y="-106" font-family="Helvetica,sans-Serif" font-size="10.00">structural::composite::Bus</text>
</a>
</g>
</g>
<!-- Node3&#45;&gt;Node4 -->
<g id="edge3" class="edge"><title>Node3&#45;&gt;Node4</title>
<path fill="none" stroke="midnightblue" d="M266.625,-82.2745C286.996,-87.9654 308.77,-94.0484 326.214,-98.9217"/>
<polygon fill="midnightblue" stroke="midnightblue" points="267.335,-78.839 256.762,-79.5192 265.452,-85.5809 267.335,-78.839"/>
</g>
<!-- Node5 -->
<g id="node5" class="node"><title>Node5</title>
<g id="a_node5"><a xlink:href="d1/d1f/classstructural_1_1composite_1_1_cabinet.html" target="_top" xlink:title="structural::composite\l::Cabinet">
<polygon fill="white" stroke="black" points="307.5,-49.5 307.5,-79.5 415.5,-79.5 415.5,-49.5 307.5,-49.5"/>
<text text-anchor="start" x="315.5" y="-67.5" font-family="Helvetica,sans-Serif" font-size="10.00">structural::composite</text>
<text text-anchor="middle" x="361.5" y="-56.5" font-family="Helvetica,sans-Serif" font-size="10.00">::Cabinet</text>
</a>
</g>
</g>
<!-- Node3&#45;&gt;Node5 -->
<g id="edge4" class="edge"><title>Node3&#45;&gt;Node5</title>
<path fill="none" stroke="midnightblue" d="M270.55,-64.5C282.882,-64.5 295.588,-64.5 307.426,-64.5"/>
<polygon fill="midnightblue" stroke="midnightblue" points="270.307,-61.0001 260.307,-64.5 270.307,-68.0001 270.307,-61.0001"/>
</g>
<!-- Node6 -->
<g id="node6" class="node"><title>Node6</title>
<g id="a_node6"><a xlink:href="d5/dd4/classstructural_1_1composite_1_1_chassis.html" target="_top" xlink:title="structural::composite\l::Chassis">
<polygon fill="white" stroke="black" points="307.5,-0.5 307.5,-30.5 415.5,-30.5 415.5,-0.5 307.5,-0.5"/>
<text text-anchor="start" x="315.5" y="-18.5" font-family="Helvetica,sans-Serif" font-size="10.00">structural::composite</text>
<text text-anchor="middle" x="361.5" y="-7.5" font-family="Helvetica,sans-Serif" font-size="10.00">::Chassis</text>
</a>
</g>
</g>
<!-- Node3&#45;&gt;Node6 -->
<g id="edge5" class="edge"><title>Node3&#45;&gt;Node6</title>
<path fill="none" stroke="midnightblue" d="M261.22,-46.3871C277.964,-41.1778 296.04,-35.5543 312.12,-30.5516"/>
<polygon fill="midnightblue" stroke="midnightblue" points="260.049,-43.0858 251.54,-49.3986 262.129,-49.7698 260.049,-43.0858"/>
</g>
</g>
</svg>
