<?xml version="1.0" encoding="UTF-8" standalone="no"?>
<!DOCTYPE svg PUBLIC "-//W3C//DTD SVG 1.1//EN"
 "http://www.w3.org/Graphics/SVG/1.1/DTD/svg11.dtd">
<!-- Generated by graphviz version 2.38.0 (20140413.2041)
 -->
<!-- Title: Graphical Class Hierarchy Pages: 1 -->
<svg width="407pt" height="235pt"
 viewBox="0.00 0.00 407.00 235.00" xmlns="http://www.w3.org/2000/svg" xmlns:xlink="http://www.w3.org/1999/xlink">
<g id="graph0" class="graph" transform="scale(1 1) rotate(0) translate(4 231)">
<title>Graphical Class Hierarchy</title>
<polygon fill="white" stroke="none" points="-4,4 -4,-231 403,-231 403,4 -4,4"/>
<!-- Node1 -->
<g id="node1" class="node"><title>Node1</title>
<g id="a_node1"><a xlink:href="d6/dde/classcreational_1_1commons_1_1_map_site_interface.html" target="_top" xlink:title="creational::commons\l::MapSiteInterface">
<polygon fill="white" stroke="black" points="0,-98.5 0,-128.5 107,-128.5 107,-98.5 0,-98.5"/>
<text text-anchor="start" x="8" y="-116.5" font-family="Helvetica,sans-Serif" font-size="10.00">creational::commons</text>
<text text-anchor="middle" x="53.5" y="-105.5" font-family="Helvetica,sans-Serif" font-size="10.00">::MapSiteInterface</text>
</a>
</g>
</g>
<!-- Node2 -->
<g id="node2" class="node"><title>Node2</title>
<g id="a_node2"><a xlink:href="df/d04/classcreational_1_1commons_1_1_door.html" target="_top" xlink:title="creational::commons\l::Door">
<polygon fill="white" stroke="black" points="143,-171.5 143,-201.5 250,-201.5 250,-171.5 143,-171.5"/>
<text text-anchor="start" x="151" y="-189.5" font-family="Helvetica,sans-Serif" font-size="10.00">creational::commons</text>
<text text-anchor="middle" x="196.5" y="-178.5" font-family="Helvetica,sans-Serif" font-size="10.00">::Door</text>
</a>
</g>
</g>
<!-- Node1&#45;&gt;Node2 -->
<g id="edge1" class="edge"><title>Node1&#45;&gt;Node2</title>
<path fill="none" stroke="midnightblue" d="M92.6033,-133.227C115.797,-145.235 144.968,-160.338 166.322,-171.394"/>
<polygon fill="midnightblue" stroke="midnightblue" points="94.2049,-130.115 83.7153,-128.626 90.9865,-136.332 94.2049,-130.115"/>
</g>
<!-- Node4 -->
<g id="node4" class="node"><title>Node4</title>
<g id="a_node4"><a xlink:href="d7/d33/classcreational_1_1commons_1_1_room.html" target="_top" xlink:title="creational::commons\l::Room">
<polygon fill="white" stroke="black" points="143,-98.5 143,-128.5 250,-128.5 250,-98.5 143,-98.5"/>
<text text-anchor="start" x="151" y="-116.5" font-family="Helvetica,sans-Serif" font-size="10.00">creational::commons</text>
<text text-anchor="middle" x="196.5" y="-105.5" font-family="Helvetica,sans-Serif" font-size="10.00">::Room</text>
</a>
</g>
</g>
<!-- Node1&#45;&gt;Node4 -->
<g id="edge3" class="edge"><title>Node1&#45;&gt;Node4</title>
<path fill="none" stroke="midnightblue" d="M117.05,-113.5C125.7,-113.5 134.51,-113.5 142.953,-113.5"/>
<polygon fill="midnightblue" stroke="midnightblue" points="117.003,-110 107.003,-113.5 117.003,-117 117.003,-110"/>
</g>
<!-- Node8 -->
<g id="node8" class="node"><title>Node8</title>
<g id="a_node8"><a xlink:href="da/d9e/classcreational_1_1commons_1_1_wall.html" target="_top" xlink:title="creational::commons\l::Wall">
<polygon fill="white" stroke="black" points="143,-25.5 143,-55.5 250,-55.5 250,-25.5 143,-25.5"/>
<text text-anchor="start" x="151" y="-43.5" font-family="Helvetica,sans-Serif" font-size="10.00">creational::commons</text>
<text text-anchor="middle" x="196.5" y="-32.5" font-family="Helvetica,sans-Serif" font-size="10.00">::Wall</text>
</a>
</g>
</g>
<!-- Node1&#45;&gt;Node8 -->
<g id="edge7" class="edge"><title>Node1&#45;&gt;Node8</title>
<path fill="none" stroke="midnightblue" d="M92.6033,-93.7727C115.797,-81.7648 144.968,-66.662 166.322,-55.6063"/>
<polygon fill="midnightblue" stroke="midnightblue" points="90.9865,-90.6685 83.7153,-98.3744 94.2049,-96.8848 90.9865,-90.6685"/>
</g>
<!-- Node3 -->
<g id="node3" class="node"><title>Node3</title>
<g id="a_node3"><a xlink:href="dd/da2/classcreational_1_1commons_1_1_door_needing_spell.html" target="_top" xlink:title="creational::commons\l::DoorNeedingSpell">
<polygon fill="white" stroke="black" points="289,-196.5 289,-226.5 396,-226.5 396,-196.5 289,-196.5"/>
<text text-anchor="start" x="297" y="-214.5" font-family="Helvetica,sans-Serif" font-size="10.00">creational::commons</text>
<text text-anchor="middle" x="342.5" y="-203.5" font-family="Helvetica,sans-Serif" font-size="10.00">::DoorNeedingSpell</text>
</a>
</g>
</g>
<!-- Node2&#45;&gt;Node3 -->
<g id="edge2" class="edge"><title>Node2&#45;&gt;Node3</title>
<path fill="none" stroke="midnightblue" d="M260.427,-197.425C269.862,-199.063 279.508,-200.738 288.704,-202.334"/>
<polygon fill="midnightblue" stroke="midnightblue" points="260.754,-193.929 250.303,-195.667 259.557,-200.826 260.754,-193.929"/>
</g>
<!-- Node5 -->
<g id="node5" class="node"><title>Node5</title>
<g id="a_node5"><a xlink:href="d8/d48/classcreational_1_1commons_1_1_enchanted_room.html" target="_top" xlink:title="creational::commons\l::EnchantedRoom">
<polygon fill="white" stroke="black" points="289,-147.5 289,-177.5 396,-177.5 396,-147.5 289,-147.5"/>
<text text-anchor="start" x="297" y="-165.5" font-family="Helvetica,sans-Serif" font-size="10.00">creational::commons</text>
<text text-anchor="middle" x="342.5" y="-154.5" font-family="Helvetica,sans-Serif" font-size="10.00">::EnchantedRoom</text>
</a>
</g>
</g>
<!-- Node4&#45;&gt;Node5 -->
<g id="edge4" class="edge"><title>Node4&#45;&gt;Node5</title>
<path fill="none" stroke="midnightblue" d="M251.543,-131.89C266.536,-136.992 282.64,-142.471 297.019,-147.364"/>
<polygon fill="midnightblue" stroke="midnightblue" points="252.474,-128.509 241.88,-128.601 250.219,-135.136 252.474,-128.509"/>
</g>
<!-- Node6 -->
<g id="node6" class="node"><title>Node6</title>
<g id="a_node6"><a xlink:href="d6/d96/classcreational_1_1commons_1_1_room_with_a_bomb.html" target="_top" xlink:title="creational::commons\l::RoomWithABomb">
<polygon fill="white" stroke="black" points="289,-98.5 289,-128.5 396,-128.5 396,-98.5 289,-98.5"/>
<text text-anchor="start" x="297" y="-116.5" font-family="Helvetica,sans-Serif" font-size="10.00">creational::commons</text>
<text text-anchor="middle" x="342.5" y="-105.5" font-family="Helvetica,sans-Serif" font-size="10.00">::RoomWithABomb</text>
</a>
</g>
</g>
<!-- Node4&#45;&gt;Node6 -->
<g id="edge5" class="edge"><title>Node4&#45;&gt;Node6</title>
<path fill="none" stroke="midnightblue" d="M260.427,-113.5C269.862,-113.5 279.508,-113.5 288.704,-113.5"/>
<polygon fill="midnightblue" stroke="midnightblue" points="260.303,-110 250.303,-113.5 260.303,-117 260.303,-110"/>
</g>
<!-- Node7 -->
<g id="node7" class="node"><title>Node7</title>
<g id="a_node7"><a xlink:href="d8/d0c/classcreational_1_1commons_1_1_twisty_turny_passage.html" target="_top" xlink:title="creational::commons\l::TwistyTurnyPassage">
<polygon fill="white" stroke="black" points="286,-49.5 286,-79.5 399,-79.5 399,-49.5 286,-49.5"/>
<text text-anchor="start" x="294" y="-67.5" font-family="Helvetica,sans-Serif" font-size="10.00">creational::commons</text>
<text text-anchor="middle" x="342.5" y="-56.5" font-family="Helvetica,sans-Serif" font-size="10.00">::TwistyTurnyPassage</text>
</a>
</g>
</g>
<!-- Node4&#45;&gt;Node7 -->
<g id="edge6" class="edge"><title>Node4&#45;&gt;Node7</title>
<path fill="none" stroke="midnightblue" d="M251.543,-95.1104C266.536,-90.0084 282.64,-84.5289 297.019,-79.6359"/>
<polygon fill="midnightblue" stroke="midnightblue" points="250.219,-91.8637 241.88,-98.3986 252.474,-98.4905 250.219,-91.8637"/>
</g>
<!-- Node9 -->
<g id="node9" class="node"><title>Node9</title>
<g id="a_node9"><a xlink:href="da/db1/classcreational_1_1commons_1_1_bombed_wall.html" target="_top" xlink:title="creational::commons\l::BombedWall">
<polygon fill="white" stroke="black" points="289,-0.5 289,-30.5 396,-30.5 396,-0.5 289,-0.5"/>
<text text-anchor="start" x="297" y="-18.5" font-family="Helvetica,sans-Serif" font-size="10.00">creational::commons</text>
<text text-anchor="middle" x="342.5" y="-7.5" font-family="Helvetica,sans-Serif" font-size="10.00">::BombedWall</text>
</a>
</g>
</g>
<!-- Node8&#45;&gt;Node9 -->
<g id="edge8" class="edge"><title>Node8&#45;&gt;Node9</title>
<path fill="none" stroke="midnightblue" d="M260.427,-29.5752C269.862,-27.9372 279.508,-26.2625 288.704,-24.666"/>
<polygon fill="midnightblue" stroke="midnightblue" points="259.557,-26.1739 250.303,-31.3329 260.754,-33.0707 259.557,-26.1739"/>
</g>
</g>
</svg>
