<?xml version="1.0" encoding="UTF-8" standalone="no"?>
<!DOCTYPE svg PUBLIC "-//W3C//DTD SVG 1.1//EN"
 "http://www.w3.org/Graphics/SVG/1.1/DTD/svg11.dtd">
<!-- Generated by graphviz version 2.38.0 (20140413.2041)
 -->
<!-- Title: Graphical Class Hierarchy Pages: 1 -->
<svg width="269pt" height="186pt"
 viewBox="0.00 0.00 269.00 186.00" xmlns="http://www.w3.org/2000/svg" xmlns:xlink="http://www.w3.org/1999/xlink">
<g id="graph0" class="graph" transform="scale(1 1) rotate(0) translate(4 182)">
<title>Graphical Class Hierarchy</title>
<polygon fill="white" stroke="none" points="-4,4 -4,-182 265,-182 265,4 -4,4"/>
<!-- Node1 -->
<g id="node1" class="node"><title>Node1</title>
<g id="a_node1"><a xlink:href="db/d14/classstructural_1_1facade_1_1_expression_node_interface.html" target="_top" xlink:title="structural::facade\l::ExpressionNodeInterface">
<polygon fill="white" stroke="black" points="0,-147.5 0,-177.5 131,-177.5 131,-147.5 0,-147.5"/>
<text text-anchor="start" x="8" y="-165.5" font-family="Helvetica,sans-Serif" font-size="10.00">structural::facade</text>
<text text-anchor="middle" x="65.5" y="-154.5" font-family="Helvetica,sans-Serif" font-size="10.00">::ExpressionNodeInterface</text>
</a>
</g>
</g>
<!-- Node2 -->
<g id="node2" class="node"><title>Node2</title>
<g id="a_node2"><a xlink:href="d4/ddf/classstructural_1_1facade_1_1_expression_node.html" target="_top" xlink:title="structural::facade\l::ExpressionNode">
<polygon fill="white" stroke="black" points="167,-134.5 167,-164.5 261,-164.5 261,-134.5 167,-134.5"/>
<text text-anchor="start" x="175" y="-152.5" font-family="Helvetica,sans-Serif" font-size="10.00">structural::facade</text>
<text text-anchor="middle" x="214" y="-141.5" font-family="Helvetica,sans-Serif" font-size="10.00">::ExpressionNode</text>
</a>
</g>
</g>
<!-- Node1&#45;&gt;Node2 -->
<g id="edge1" class="edge"><title>Node1&#45;&gt;Node2</title>
<path fill="none" stroke="midnightblue" d="M141.317,-155.861C149.963,-155.094 158.579,-154.329 166.684,-153.61"/>
<polygon fill="midnightblue" stroke="midnightblue" points="140.835,-152.39 131.183,-156.76 141.454,-159.362 140.835,-152.39"/>
</g>
<!-- Node3 -->
<g id="node3" class="node"><title>Node3</title>
<g id="a_node3"><a xlink:href="d9/d8e/classstructural_1_1facade_1_1_program_node_interface.html" target="_top" xlink:title="structural::facade\l::ProgramNodeInterface">
<polygon fill="white" stroke="black" points="6,-98.5 6,-128.5 125,-128.5 125,-98.5 6,-98.5"/>
<text text-anchor="start" x="14" y="-116.5" font-family="Helvetica,sans-Serif" font-size="10.00">structural::facade</text>
<text text-anchor="middle" x="65.5" y="-105.5" font-family="Helvetica,sans-Serif" font-size="10.00">::ProgramNodeInterface</text>
</a>
</g>
</g>
<!-- Node3&#45;&gt;Node2 -->
<g id="edge2" class="edge"><title>Node3&#45;&gt;Node2</title>
<path fill="none" stroke="midnightblue" d="M135.074,-130.351C145.85,-132.999 156.761,-135.68 166.87,-138.164"/>
<polygon fill="midnightblue" stroke="midnightblue" points="135.789,-126.923 125.243,-127.935 134.119,-133.72 135.789,-126.923"/>
</g>
<!-- Node4 -->
<g id="node4" class="node"><title>Node4</title>
<g id="a_node4"><a xlink:href="d1/de1/classstructural_1_1facade_1_1_statement_node.html" target="_top" xlink:title="structural::facade\l::StatementNode">
<polygon fill="white" stroke="black" points="168,-61.5 168,-91.5 260,-91.5 260,-61.5 168,-61.5"/>
<text text-anchor="start" x="176" y="-79.5" font-family="Helvetica,sans-Serif" font-size="10.00">structural::facade</text>
<text text-anchor="middle" x="214" y="-68.5" font-family="Helvetica,sans-Serif" font-size="10.00">::StatementNode</text>
</a>
</g>
</g>
<!-- Node3&#45;&gt;Node4 -->
<g id="edge3" class="edge"><title>Node3&#45;&gt;Node4</title>
<path fill="none" stroke="midnightblue" d="M134.964,-96.2087C146.099,-93.3965 157.382,-90.5469 167.778,-87.9213"/>
<polygon fill="midnightblue" stroke="midnightblue" points="134.082,-92.8216 125.243,-98.6639 135.796,-99.6085 134.082,-92.8216"/>
</g>
<!-- Node5 -->
<g id="node5" class="node"><title>Node5</title>
<g id="a_node5"><a xlink:href="d7/dc1/classstructural_1_1facade_1_1_variable_node.html" target="_top" xlink:title="structural::facade\l::VariableNode">
<polygon fill="white" stroke="black" points="168,-12.5 168,-42.5 260,-42.5 260,-12.5 168,-12.5"/>
<text text-anchor="start" x="176" y="-30.5" font-family="Helvetica,sans-Serif" font-size="10.00">structural::facade</text>
<text text-anchor="middle" x="214" y="-19.5" font-family="Helvetica,sans-Serif" font-size="10.00">::VariableNode</text>
</a>
</g>
</g>
<!-- Node3&#45;&gt;Node5 -->
<g id="edge4" class="edge"><title>Node3&#45;&gt;Node5</title>
<path fill="none" stroke="midnightblue" d="M123.517,-93.9349C126.099,-92.5374 128.607,-91.0597 131,-89.5 150.221,-76.9712 148.713,-66.3571 167,-52.5 171.636,-48.9867 176.83,-45.6675 182.011,-42.665"/>
<polygon fill="midnightblue" stroke="midnightblue" points="121.936,-90.8123 114.52,-98.3792 125.036,-97.0883 121.936,-90.8123"/>
</g>
<!-- Node6 -->
<g id="node6" class="node"><title>Node6</title>
<g id="a_node6"><a xlink:href="d6/d57/classstructural_1_1facade_1_1_statement_node_interface.html" target="_top" xlink:title="structural::facade\l::StatementNodeInterface">
<polygon fill="white" stroke="black" points="2,-49.5 2,-79.5 129,-79.5 129,-49.5 2,-49.5"/>
<text text-anchor="start" x="10" y="-67.5" font-family="Helvetica,sans-Serif" font-size="10.00">structural::facade</text>
<text text-anchor="middle" x="65.5" y="-56.5" font-family="Helvetica,sans-Serif" font-size="10.00">::StatementNodeInterface</text>
</a>
</g>
</g>
<!-- Node6&#45;&gt;Node4 -->
<g id="edge5" class="edge"><title>Node6&#45;&gt;Node4</title>
<path fill="none" stroke="midnightblue" d="M139.223,-70.4568C149.013,-71.2587 158.815,-72.0617 167.931,-72.8083"/>
<polygon fill="midnightblue" stroke="midnightblue" points="139.307,-66.952 129.054,-69.6239 138.735,-73.9287 139.307,-66.952"/>
</g>
<!-- Node7 -->
<g id="node7" class="node"><title>Node7</title>
<g id="a_node7"><a xlink:href="d7/df7/classstructural_1_1facade_1_1_variable_node_interface.html" target="_top" xlink:title="structural::facade\l::VariableNodeInterface">
<polygon fill="white" stroke="black" points="7,-0.5 7,-30.5 124,-30.5 124,-0.5 7,-0.5"/>
<text text-anchor="start" x="15" y="-18.5" font-family="Helvetica,sans-Serif" font-size="10.00">structural::facade</text>
<text text-anchor="middle" x="65.5" y="-7.5" font-family="Helvetica,sans-Serif" font-size="10.00">::VariableNodeInterface</text>
</a>
</g>
</g>
<!-- Node7&#45;&gt;Node5 -->
<g id="edge6" class="edge"><title>Node7&#45;&gt;Node5</title>
<path fill="none" stroke="midnightblue" d="M134.629,-21.0805C145.849,-21.9996 157.23,-22.9318 167.712,-23.7904"/>
<polygon fill="midnightblue" stroke="midnightblue" points="134.653,-17.5709 124.401,-20.2427 134.082,-24.5475 134.653,-17.5709"/>
</g>
</g>
</svg>
