<?xml version="1.0" encoding="UTF-8" standalone="no"?>
<!DOCTYPE svg PUBLIC "-//W3C//DTD SVG 1.1//EN"
 "http://www.w3.org/Graphics/SVG/1.1/DTD/svg11.dtd">
<!-- Generated by graphviz version 2.38.0 (20140413.2041)
 -->
<!-- Title: Graphical Class Hierarchy Pages: 1 -->
<svg width="378pt" height="112pt"
 viewBox="0.00 0.00 378.00 112.00" xmlns="http://www.w3.org/2000/svg" xmlns:xlink="http://www.w3.org/1999/xlink">
<g id="graph0" class="graph" transform="scale(1 1) rotate(0) translate(4 108)">
<title>Graphical Class Hierarchy</title>
<polygon fill="white" stroke="none" points="-4,4 -4,-108 374,-108 374,4 -4,4"/>
<!-- Node1 -->
<g id="node1" class="node"><title>Node1</title>
<g id="a_node1"><a xlink:href="df/dcd/classoperational_1_1chain_1_1_help_handler_interface.html" target="_top" xlink:title="operational::chain\l::HelpHandlerInterface">
<polygon fill="white" stroke="black" points="0,-48.5 0,-78.5 112,-78.5 112,-48.5 0,-48.5"/>
<text text-anchor="start" x="8" y="-66.5" font-family="Helvetica,sans-Serif" font-size="10.00">operational::chain</text>
<text text-anchor="middle" x="56" y="-55.5" font-family="Helvetica,sans-Serif" font-size="10.00">::HelpHandlerInterface</text>
</a>
</g>
</g>
<!-- Node2 -->
<g id="node2" class="node"><title>Node2</title>
<g id="a_node2"><a xlink:href="dc/d00/classoperational_1_1chain_1_1_application.html" target="_top" xlink:title="operational::chain\l::Application">
<polygon fill="white" stroke="black" points="148,-73.5 148,-103.5 241,-103.5 241,-73.5 148,-73.5"/>
<text text-anchor="start" x="156" y="-91.5" font-family="Helvetica,sans-Serif" font-size="10.00">operational::chain</text>
<text text-anchor="middle" x="194.5" y="-80.5" font-family="Helvetica,sans-Serif" font-size="10.00">::Application</text>
</a>
</g>
</g>
<!-- Node1&#45;&gt;Node2 -->
<g id="edge1" class="edge"><title>Node1&#45;&gt;Node2</title>
<path fill="none" stroke="midnightblue" d="M122.212,-75.4436C130.857,-77.0269 139.567,-78.6222 147.786,-80.1276"/>
<polygon fill="midnightblue" stroke="midnightblue" points="122.593,-71.9553 112.126,-73.5964 121.332,-78.8407 122.593,-71.9553"/>
</g>
<!-- Node3 -->
<g id="node3" class="node"><title>Node3</title>
<g id="a_node3"><a xlink:href="df/d6a/classoperational_1_1chain_1_1_widget.html" target="_top" xlink:title="operational::chain\l::Widget">
<polygon fill="white" stroke="black" points="148,-24.5 148,-54.5 241,-54.5 241,-24.5 148,-24.5"/>
<text text-anchor="start" x="156" y="-42.5" font-family="Helvetica,sans-Serif" font-size="10.00">operational::chain</text>
<text text-anchor="middle" x="194.5" y="-31.5" font-family="Helvetica,sans-Serif" font-size="10.00">::Widget</text>
</a>
</g>
</g>
<!-- Node1&#45;&gt;Node3 -->
<g id="edge2" class="edge"><title>Node1&#45;&gt;Node3</title>
<path fill="none" stroke="midnightblue" d="M122.212,-52.0342C130.857,-50.5142 139.567,-48.9827 147.786,-47.5375"/>
<polygon fill="midnightblue" stroke="midnightblue" points="121.369,-48.6286 112.126,-53.8075 122.581,-55.5228 121.369,-48.6286"/>
</g>
<!-- Node4 -->
<g id="node4" class="node"><title>Node4</title>
<g id="a_node4"><a xlink:href="d1/d32/classoperational_1_1chain_1_1_button.html" target="_top" xlink:title="operational::chain\l::Button">
<polygon fill="white" stroke="black" points="277,-49.5 277,-79.5 370,-79.5 370,-49.5 277,-49.5"/>
<text text-anchor="start" x="285" y="-67.5" font-family="Helvetica,sans-Serif" font-size="10.00">operational::chain</text>
<text text-anchor="middle" x="323.5" y="-56.5" font-family="Helvetica,sans-Serif" font-size="10.00">::Button</text>
</a>
</g>
</g>
<!-- Node3&#45;&gt;Node4 -->
<g id="edge3" class="edge"><title>Node3&#45;&gt;Node4</title>
<path fill="none" stroke="midnightblue" d="M251.224,-50.4692C259.74,-52.1458 268.447,-53.8596 276.717,-55.4877"/>
<polygon fill="midnightblue" stroke="midnightblue" points="251.838,-47.023 241.35,-48.5256 250.486,-53.8912 251.838,-47.023"/>
</g>
<!-- Node5 -->
<g id="node5" class="node"><title>Node5</title>
<g id="a_node5"><a xlink:href="dd/df0/classoperational_1_1chain_1_1_dialog.html" target="_top" xlink:title="operational::chain\l::Dialog">
<polygon fill="white" stroke="black" points="277,-0.5 277,-30.5 370,-30.5 370,-0.5 277,-0.5"/>
<text text-anchor="start" x="285" y="-18.5" font-family="Helvetica,sans-Serif" font-size="10.00">operational::chain</text>
<text text-anchor="middle" x="323.5" y="-7.5" font-family="Helvetica,sans-Serif" font-size="10.00">::Dialog</text>
</a>
</g>
</g>
<!-- Node3&#45;&gt;Node5 -->
<g id="edge4" class="edge"><title>Node3&#45;&gt;Node5</title>
<path fill="none" stroke="midnightblue" d="M251.224,-28.9696C259.74,-27.3601 268.447,-25.7148 276.717,-24.1518"/>
<polygon fill="midnightblue" stroke="midnightblue" points="250.526,-25.5393 241.35,-30.8354 251.826,-32.4176 250.526,-25.5393"/>
</g>
</g>
</svg>
