<?xml version="1.0" encoding="UTF-8" standalone="no"?>
<!DOCTYPE svg PUBLIC "-//W3C//DTD SVG 1.1//EN"
 "http://www.w3.org/Graphics/SVG/1.1/DTD/svg11.dtd">
<!-- Generated by graphviz version 2.38.0 (20140413.2041)
 -->
<!-- Title: Graphical Class Hierarchy Pages: 1 -->
<svg width="305pt" height="39pt"
 viewBox="0.00 0.00 305.00 39.00" xmlns="http://www.w3.org/2000/svg" xmlns:xlink="http://www.w3.org/1999/xlink">
<g id="graph0" class="graph" transform="scale(1 1) rotate(0) translate(4 35)">
<title>Graphical Class Hierarchy</title>
<polygon fill="white" stroke="none" points="-4,4 -4,-35 301,-35 301,4 -4,4"/>
<!-- Node1 -->
<g id="node1" class="node"><title>Node1</title>
<g id="a_node1"><a xlink:href="d9/d30/classstructural_1_1facade_1_1_program_node_builder_interface.html" target="_top" xlink:title="structural::facade\l::ProgramNodeBuilderInterface">
<polygon fill="white" stroke="black" points="0,-0.5 0,-30.5 149,-30.5 149,-0.5 0,-0.5"/>
<text text-anchor="start" x="8" y="-18.5" font-family="Helvetica,sans-Serif" font-size="10.00">structural::facade</text>
<text text-anchor="middle" x="74.5" y="-7.5" font-family="Helvetica,sans-Serif" font-size="10.00">::ProgramNodeBuilderInterface</text>
</a>
</g>
</g>
<!-- Node2 -->
<g id="node2" class="node"><title>Node2</title>
<g id="a_node2"><a xlink:href="d8/d7a/classstructural_1_1facade_1_1_program_node_builder.html" target="_top" xlink:title="structural::facade\l::ProgramNodeBuilder">
<polygon fill="white" stroke="black" points="185,-0.5 185,-30.5 297,-30.5 297,-0.5 185,-0.5"/>
<text text-anchor="start" x="193" y="-18.5" font-family="Helvetica,sans-Serif" font-size="10.00">structural::facade</text>
<text text-anchor="middle" x="241" y="-7.5" font-family="Helvetica,sans-Serif" font-size="10.00">::ProgramNodeBuilder</text>
</a>
</g>
</g>
<!-- Node1&#45;&gt;Node2 -->
<g id="edge1" class="edge"><title>Node1&#45;&gt;Node2</title>
<path fill="none" stroke="midnightblue" d="M159.23,-15.5C167.88,-15.5 176.507,-15.5 184.73,-15.5"/>
<polygon fill="midnightblue" stroke="midnightblue" points="159.09,-12.0001 149.089,-15.5 159.089,-19.0001 159.09,-12.0001"/>
</g>
</g>
</svg>
