<?xml version="1.0" encoding="UTF-8" standalone="no"?>
<!DOCTYPE svg PUBLIC "-//W3C//DTD SVG 1.1//EN"
 "http://www.w3.org/Graphics/SVG/1.1/DTD/svg11.dtd">
<!-- Generated by graphviz version 2.38.0 (20140413.2041)
 -->
<!-- Title: Graphical Class Hierarchy Pages: 1 -->
<svg width="273pt" height="88pt"
 viewBox="0.00 0.00 273.00 88.00" xmlns="http://www.w3.org/2000/svg" xmlns:xlink="http://www.w3.org/1999/xlink">
<g id="graph0" class="graph" transform="scale(1 1) rotate(0) translate(4 84)">
<title>Graphical Class Hierarchy</title>
<polygon fill="white" stroke="none" points="-4,4 -4,-84 269,-84 269,4 -4,4"/>
<!-- Node1 -->
<g id="node1" class="node"><title>Node1</title>
<g id="a_node1"><a xlink:href="d6/d66/classcreational_1_1builder_1_1_maze_builder_interface.html" target="_top" xlink:title="creational::builder\l::MazeBuilderInterface">
<polygon fill="white" stroke="black" points="0,-24.5 0,-54.5 113,-54.5 113,-24.5 0,-24.5"/>
<text text-anchor="start" x="8" y="-42.5" font-family="Helvetica,sans-Serif" font-size="10.00">creational::builder</text>
<text text-anchor="middle" x="56.5" y="-31.5" font-family="Helvetica,sans-Serif" font-size="10.00">::MazeBuilderInterface</text>
</a>
</g>
</g>
<!-- Node2 -->
<g id="node2" class="node"><title>Node2</title>
<g id="a_node2"><a xlink:href="d0/d8c/classcreational_1_1builder_1_1_counting_maze_builder.html" target="_top" xlink:title="creational::builder\l::CountingMazeBuilder">
<polygon fill="white" stroke="black" points="149.5,-49.5 149.5,-79.5 264.5,-79.5 264.5,-49.5 149.5,-49.5"/>
<text text-anchor="start" x="157.5" y="-67.5" font-family="Helvetica,sans-Serif" font-size="10.00">creational::builder</text>
<text text-anchor="middle" x="207" y="-56.5" font-family="Helvetica,sans-Serif" font-size="10.00">::CountingMazeBuilder</text>
</a>
</g>
</g>
<!-- Node1&#45;&gt;Node2 -->
<g id="edge1" class="edge"><title>Node1&#45;&gt;Node2</title>
<path fill="none" stroke="midnightblue" d="M123.348,-50.5856C132.063,-52.0528 140.935,-53.5463 149.475,-54.9839"/>
<polygon fill="midnightblue" stroke="midnightblue" points="123.661,-47.089 113.218,-48.8802 122.499,-53.9919 123.661,-47.089"/>
</g>
<!-- Node3 -->
<g id="node3" class="node"><title>Node3</title>
<g id="a_node3"><a xlink:href="d9/dcc/classcreational_1_1builder_1_1_standard_maze_builder.html" target="_top" xlink:title="creational::builder\l::StandardMazeBuilder">
<polygon fill="white" stroke="black" points="149,-0.5 149,-30.5 265,-30.5 265,-0.5 149,-0.5"/>
<text text-anchor="start" x="157" y="-18.5" font-family="Helvetica,sans-Serif" font-size="10.00">creational::builder</text>
<text text-anchor="middle" x="207" y="-7.5" font-family="Helvetica,sans-Serif" font-size="10.00">::StandardMazeBuilder</text>
</a>
</g>
</g>
<!-- Node1&#45;&gt;Node3 -->
<g id="edge2" class="edge"><title>Node1&#45;&gt;Node3</title>
<path fill="none" stroke="midnightblue" d="M123.206,-28.8808C131.799,-27.4921 140.546,-26.0784 148.979,-24.7155"/>
<polygon fill="midnightblue" stroke="midnightblue" points="122.532,-25.4443 113.218,-30.495 123.649,-32.3546 122.532,-25.4443"/>
</g>
</g>
</svg>
