<?xml version="1.0" encoding="UTF-8" standalone="no"?>
<!DOCTYPE svg PUBLIC "-//W3C//DTD SVG 1.1//EN"
 "http://www.w3.org/Graphics/SVG/1.1/DTD/svg11.dtd">
<!-- Generated by graphviz version 2.38.0 (20140413.2041)
 -->
<!-- Title: Graphical Class Hierarchy Pages: 1 -->
<svg width="298pt" height="235pt"
 viewBox="0.00 0.00 298.00 235.00" xmlns="http://www.w3.org/2000/svg" xmlns:xlink="http://www.w3.org/1999/xlink">
<g id="graph0" class="graph" transform="scale(1 1) rotate(0) translate(4 231)">
<title>Graphical Class Hierarchy</title>
<polygon fill="white" stroke="none" points="-4,4 -4,-231 294,-231 294,4 -4,4"/>
<!-- Node1 -->
<g id="node1" class="node"><title>Node1</title>
<g id="a_node1"><a xlink:href="d2/d37/classoperational_1_1visitor_1_1_bus_interface.html" target="_top" xlink:title="operational::visitor\l::BusInterface">
<polygon fill="white" stroke="black" points="20.5,-196.5 20.5,-226.5 115.5,-226.5 115.5,-196.5 20.5,-196.5"/>
<text text-anchor="start" x="28.5" y="-214.5" font-family="Helvetica,sans-Serif" font-size="10.00">operational::visitor</text>
<text text-anchor="middle" x="68" y="-203.5" font-family="Helvetica,sans-Serif" font-size="10.00">::BusInterface</text>
</a>
</g>
</g>
<!-- Node2 -->
<g id="node2" class="node"><title>Node2</title>
<g id="a_node2"><a xlink:href="dc/d83/classoperational_1_1visitor_1_1_bus.html" target="_top" xlink:title="operational::visitor::Bus">
<polygon fill="white" stroke="black" points="172,-195 172,-214 290,-214 290,-195 172,-195"/>
<text text-anchor="middle" x="231" y="-202" font-family="Helvetica,sans-Serif" font-size="10.00">operational::visitor::Bus</text>
</a>
</g>
</g>
<!-- Node1&#45;&gt;Node2 -->
<g id="edge1" class="edge"><title>Node1&#45;&gt;Node2</title>
<path fill="none" stroke="midnightblue" d="M125.69,-209.035C140.631,-208.386 156.773,-207.684 171.792,-207.031"/>
<polygon fill="midnightblue" stroke="midnightblue" points="125.406,-205.544 115.568,-209.475 125.71,-212.538 125.406,-205.544"/>
</g>
<!-- Node3 -->
<g id="node3" class="node"><title>Node3</title>
<g id="a_node3"><a xlink:href="d9/d17/classoperational_1_1visitor_1_1_card_interface.html" target="_top" xlink:title="operational::visitor\l::CardInterface">
<polygon fill="white" stroke="black" points="20.5,-147.5 20.5,-177.5 115.5,-177.5 115.5,-147.5 20.5,-147.5"/>
<text text-anchor="start" x="28.5" y="-165.5" font-family="Helvetica,sans-Serif" font-size="10.00">operational::visitor</text>
<text text-anchor="middle" x="68" y="-154.5" font-family="Helvetica,sans-Serif" font-size="10.00">::CardInterface</text>
</a>
</g>
</g>
<!-- Node4 -->
<g id="node4" class="node"><title>Node4</title>
<g id="a_node4"><a xlink:href="d1/df0/classoperational_1_1visitor_1_1_card.html" target="_top" xlink:title="operational::visitor\l::Card">
<polygon fill="white" stroke="black" points="183.5,-118.5 183.5,-148.5 278.5,-148.5 278.5,-118.5 183.5,-118.5"/>
<text text-anchor="start" x="191.5" y="-136.5" font-family="Helvetica,sans-Serif" font-size="10.00">operational::visitor</text>
<text text-anchor="middle" x="231" y="-125.5" font-family="Helvetica,sans-Serif" font-size="10.00">::Card</text>
</a>
</g>
</g>
<!-- Node3&#45;&gt;Node4 -->
<g id="edge2" class="edge"><title>Node3&#45;&gt;Node4</title>
<path fill="none" stroke="midnightblue" d="M125.53,-152.318C144.404,-148.918 165.213,-145.17 183.258,-141.919"/>
<polygon fill="midnightblue" stroke="midnightblue" points="124.789,-148.895 115.568,-154.112 126.03,-155.784 124.789,-148.895"/>
</g>
<!-- Node5 -->
<g id="node5" class="node"><title>Node5</title>
<g id="a_node5"><a xlink:href="d2/de1/classoperational_1_1visitor_1_1_chassis_interface.html" target="_top" xlink:title="operational::visitor\l::ChassisInterface">
<polygon fill="white" stroke="black" points="20.5,-49.5 20.5,-79.5 115.5,-79.5 115.5,-49.5 20.5,-49.5"/>
<text text-anchor="start" x="28.5" y="-67.5" font-family="Helvetica,sans-Serif" font-size="10.00">operational::visitor</text>
<text text-anchor="middle" x="68" y="-56.5" font-family="Helvetica,sans-Serif" font-size="10.00">::ChassisInterface</text>
</a>
</g>
</g>
<!-- Node6 -->
<g id="node6" class="node"><title>Node6</title>
<g id="a_node6"><a xlink:href="d6/d2e/classoperational_1_1visitor_1_1_chassis.html" target="_top" xlink:title="operational::visitor\l::Chassis">
<polygon fill="white" stroke="black" points="183.5,-56.5 183.5,-86.5 278.5,-86.5 278.5,-56.5 183.5,-56.5"/>
<text text-anchor="start" x="191.5" y="-74.5" font-family="Helvetica,sans-Serif" font-size="10.00">operational::visitor</text>
<text text-anchor="middle" x="231" y="-63.5" font-family="Helvetica,sans-Serif" font-size="10.00">::Chassis</text>
</a>
</g>
</g>
<!-- Node5&#45;&gt;Node6 -->
<g id="edge3" class="edge"><title>Node5&#45;&gt;Node6</title>
<path fill="none" stroke="midnightblue" d="M125.791,-66.9692C144.596,-67.7868 165.296,-68.6868 183.258,-69.4677"/>
<polygon fill="midnightblue" stroke="midnightblue" points="125.71,-63.4625 115.568,-66.5247 125.406,-70.4559 125.71,-63.4625"/>
</g>
<!-- Node7 -->
<g id="node7" class="node"><title>Node7</title>
<g id="a_node7"><a xlink:href="df/d17/classoperational_1_1visitor_1_1_floppy_disk_interface.html" target="_top" xlink:title="operational::visitor\l::FloppyDiskInterface">
<polygon fill="white" stroke="black" points="14,-0.5 14,-30.5 122,-30.5 122,-0.5 14,-0.5"/>
<text text-anchor="start" x="22" y="-18.5" font-family="Helvetica,sans-Serif" font-size="10.00">operational::visitor</text>
<text text-anchor="middle" x="68" y="-7.5" font-family="Helvetica,sans-Serif" font-size="10.00">::FloppyDiskInterface</text>
</a>
</g>
</g>
<!-- Node8 -->
<g id="node8" class="node"><title>Node8</title>
<g id="a_node8"><a xlink:href="d1/dfb/classoperational_1_1visitor_1_1_floppy_disk.html" target="_top" xlink:title="operational::visitor\l::FloppyDisk">
<polygon fill="white" stroke="black" points="183.5,-7.5 183.5,-37.5 278.5,-37.5 278.5,-7.5 183.5,-7.5"/>
<text text-anchor="start" x="191.5" y="-25.5" font-family="Helvetica,sans-Serif" font-size="10.00">operational::visitor</text>
<text text-anchor="middle" x="231" y="-14.5" font-family="Helvetica,sans-Serif" font-size="10.00">::FloppyDisk</text>
</a>
</g>
</g>
<!-- Node7&#45;&gt;Node8 -->
<g id="edge4" class="edge"><title>Node7&#45;&gt;Node8</title>
<path fill="none" stroke="midnightblue" d="M132.558,-18.2634C149.515,-19.0007 167.524,-19.7836 183.385,-20.4733"/>
<polygon fill="midnightblue" stroke="midnightblue" points="132.306,-14.7492 122.164,-17.8115 132.002,-21.7426 132.306,-14.7492"/>
</g>
<!-- Node9 -->
<g id="node9" class="node"><title>Node9</title>
<g id="a_node9"><a xlink:href="d3/d47/classoperational_1_1visitor_1_1_visited_equipment_interface.html" target="_top" xlink:title="operational::visitor\l::VisitedEquipmentInterface">
<polygon fill="white" stroke="black" points="0,-98.5 0,-128.5 136,-128.5 136,-98.5 0,-98.5"/>
<text text-anchor="start" x="8" y="-116.5" font-family="Helvetica,sans-Serif" font-size="10.00">operational::visitor</text>
<text text-anchor="middle" x="68" y="-105.5" font-family="Helvetica,sans-Serif" font-size="10.00">::VisitedEquipmentInterface</text>
</a>
</g>
</g>
<!-- Node9&#45;&gt;Node2 -->
<g id="edge5" class="edge"><title>Node9&#45;&gt;Node2</title>
<path fill="none" stroke="midnightblue" d="M125.676,-132.53C129.215,-134.108 132.684,-135.767 136,-137.5 168.147,-154.302 201.826,-180.838 218.801,-194.944"/>
<polygon fill="midnightblue" stroke="midnightblue" points="126.775,-129.195 116.2,-128.547 124.062,-135.648 126.775,-129.195"/>
</g>
<!-- Node9&#45;&gt;Node4 -->
<g id="edge6" class="edge"><title>Node9&#45;&gt;Node4</title>
<path fill="none" stroke="midnightblue" d="M146.448,-123.121C159.102,-124.693 171.857,-126.277 183.459,-127.719"/>
<polygon fill="midnightblue" stroke="midnightblue" points="146.701,-119.625 136.346,-121.866 145.838,-126.572 146.701,-119.625"/>
</g>
<!-- Node9&#45;&gt;Node6 -->
<g id="edge7" class="edge"><title>Node9&#45;&gt;Node6</title>
<path fill="none" stroke="midnightblue" d="M136.388,-95.9204C152.176,-91.8018 168.656,-87.5028 183.309,-83.6803"/>
<polygon fill="midnightblue" stroke="midnightblue" points="135.463,-92.5447 126.67,-98.4557 137.23,-99.318 135.463,-92.5447"/>
</g>
<!-- Node9&#45;&gt;Node8 -->
<g id="edge8" class="edge"><title>Node9&#45;&gt;Node8</title>
<path fill="none" stroke="midnightblue" d="M127.491,-93.7902C130.446,-92.1455 133.303,-90.3838 136,-88.5 156.156,-74.4228 152.095,-60.9298 172,-46.5 176.588,-43.1741 181.705,-40.2091 186.947,-37.5956"/>
<polygon fill="midnightblue" stroke="midnightblue" points="125.749,-90.7491 118.397,-98.3783 128.902,-96.9987 125.749,-90.7491"/>
</g>
</g>
</svg>
