<?xml version="1.0" encoding="UTF-8" standalone="no"?>
<!DOCTYPE svg PUBLIC "-//W3C//DTD SVG 1.1//EN"
 "http://www.w3.org/Graphics/SVG/1.1/DTD/svg11.dtd">
<!-- Generated by graphviz version 2.38.0 (20140413.2041)
 -->
<!-- Title: Graphical Class Hierarchy Pages: 1 -->
<svg width="270pt" height="235pt"
 viewBox="0.00 0.00 270.00 235.00" xmlns="http://www.w3.org/2000/svg" xmlns:xlink="http://www.w3.org/1999/xlink">
<g id="graph0" class="graph" transform="scale(1 1) rotate(0) translate(4 231)">
<title>Graphical Class Hierarchy</title>
<polygon fill="white" stroke="none" points="-4,4 -4,-231 266,-231 266,4 -4,4"/>
<!-- Node1 -->
<g id="node1" class="node"><title>Node1</title>
<g id="a_node1"><a xlink:href="d0/d5f/classoperational_1_1interpreter_1_1_boolean_exp_interface.html" target="_top" xlink:title="operational::interpreter\l::BooleanExpInterface">
<polygon fill="white" stroke="black" points="0,-98.5 0,-128.5 113,-128.5 113,-98.5 0,-98.5"/>
<text text-anchor="start" x="8" y="-116.5" font-family="Helvetica,sans-Serif" font-size="10.00">operational::interpreter</text>
<text text-anchor="middle" x="56.5" y="-105.5" font-family="Helvetica,sans-Serif" font-size="10.00">::BooleanExpInterface</text>
</a>
</g>
</g>
<!-- Node2 -->
<g id="node2" class="node"><title>Node2</title>
<g id="a_node2"><a xlink:href="d0/d5a/classoperational_1_1interpreter_1_1_and_exp.html" target="_top" xlink:title="operational::interpreter\l::AndExp">
<polygon fill="white" stroke="black" points="149,-196.5 149,-226.5 262,-226.5 262,-196.5 149,-196.5"/>
<text text-anchor="start" x="157" y="-214.5" font-family="Helvetica,sans-Serif" font-size="10.00">operational::interpreter</text>
<text text-anchor="middle" x="205.5" y="-203.5" font-family="Helvetica,sans-Serif" font-size="10.00">::AndExp</text>
</a>
</g>
</g>
<!-- Node1&#45;&gt;Node2 -->
<g id="edge1" class="edge"><title>Node1&#45;&gt;Node2</title>
<path fill="none" stroke="midnightblue" d="M80.9255,-135.447C98.6623,-151.292 124.14,-172.459 149,-187.5 154.299,-190.706 160.104,-193.709 165.899,-196.433"/>
<polygon fill="midnightblue" stroke="midnightblue" points="83.1112,-132.704 73.351,-128.582 78.4105,-137.891 83.1112,-132.704"/>
</g>
<!-- Node3 -->
<g id="node3" class="node"><title>Node3</title>
<g id="a_node3"><a xlink:href="db/df2/classoperational_1_1interpreter_1_1_constant.html" target="_top" xlink:title="operational::interpreter\l::Constant">
<polygon fill="white" stroke="black" points="149,-147.5 149,-177.5 262,-177.5 262,-147.5 149,-147.5"/>
<text text-anchor="start" x="157" y="-165.5" font-family="Helvetica,sans-Serif" font-size="10.00">operational::interpreter</text>
<text text-anchor="middle" x="205.5" y="-154.5" font-family="Helvetica,sans-Serif" font-size="10.00">::Constant</text>
</a>
</g>
</g>
<!-- Node1&#45;&gt;Node3 -->
<g id="edge2" class="edge"><title>Node1&#45;&gt;Node3</title>
<path fill="none" stroke="midnightblue" d="M112.716,-131.905C128.097,-137.032 144.618,-142.539 159.345,-147.448"/>
<polygon fill="midnightblue" stroke="midnightblue" points="113.398,-128.443 102.804,-128.601 111.184,-135.084 113.398,-128.443"/>
</g>
<!-- Node4 -->
<g id="node4" class="node"><title>Node4</title>
<g id="a_node4"><a xlink:href="da/d2d/classoperational_1_1interpreter_1_1_not_exp.html" target="_top" xlink:title="operational::interpreter\l::NotExp">
<polygon fill="white" stroke="black" points="149,-98.5 149,-128.5 262,-128.5 262,-98.5 149,-98.5"/>
<text text-anchor="start" x="157" y="-116.5" font-family="Helvetica,sans-Serif" font-size="10.00">operational::interpreter</text>
<text text-anchor="middle" x="205.5" y="-105.5" font-family="Helvetica,sans-Serif" font-size="10.00">::NotExp</text>
</a>
</g>
</g>
<!-- Node1&#45;&gt;Node4 -->
<g id="edge3" class="edge"><title>Node1&#45;&gt;Node4</title>
<path fill="none" stroke="midnightblue" d="M123.078,-113.5C131.681,-113.5 140.43,-113.5 148.847,-113.5"/>
<polygon fill="midnightblue" stroke="midnightblue" points="123.074,-110 113.074,-113.5 123.074,-117 123.074,-110"/>
</g>
<!-- Node5 -->
<g id="node5" class="node"><title>Node5</title>
<g id="a_node5"><a xlink:href="d2/d75/classoperational_1_1interpreter_1_1_or_exp.html" target="_top" xlink:title="operational::interpreter\l::OrExp">
<polygon fill="white" stroke="black" points="149,-49.5 149,-79.5 262,-79.5 262,-49.5 149,-49.5"/>
<text text-anchor="start" x="157" y="-67.5" font-family="Helvetica,sans-Serif" font-size="10.00">operational::interpreter</text>
<text text-anchor="middle" x="205.5" y="-56.5" font-family="Helvetica,sans-Serif" font-size="10.00">::OrExp</text>
</a>
</g>
</g>
<!-- Node1&#45;&gt;Node5 -->
<g id="edge4" class="edge"><title>Node1&#45;&gt;Node5</title>
<path fill="none" stroke="midnightblue" d="M112.716,-95.0945C128.097,-89.9678 144.618,-84.4608 159.345,-79.5516"/>
<polygon fill="midnightblue" stroke="midnightblue" points="111.184,-91.9158 102.804,-98.3986 113.398,-98.5566 111.184,-91.9158"/>
</g>
<!-- Node6 -->
<g id="node6" class="node"><title>Node6</title>
<g id="a_node6"><a xlink:href="d5/dae/classoperational_1_1interpreter_1_1_variable_exp.html" target="_top" xlink:title="operational::interpreter\l::VariableExp">
<polygon fill="white" stroke="black" points="149,-0.5 149,-30.5 262,-30.5 262,-0.5 149,-0.5"/>
<text text-anchor="start" x="157" y="-18.5" font-family="Helvetica,sans-Serif" font-size="10.00">operational::interpreter</text>
<text text-anchor="middle" x="205.5" y="-7.5" font-family="Helvetica,sans-Serif" font-size="10.00">::VariableExp</text>
</a>
</g>
</g>
<!-- Node1&#45;&gt;Node6 -->
<g id="edge5" class="edge"><title>Node1&#45;&gt;Node6</title>
<path fill="none" stroke="midnightblue" d="M81.3678,-91.6994C99.1471,-76.1669 124.486,-55.4729 149,-40.5 154.862,-36.9195 161.325,-33.5455 167.707,-30.5039"/>
<polygon fill="midnightblue" stroke="midnightblue" points="78.9285,-89.1843 73.761,-98.4336 83.5685,-94.4256 78.9285,-89.1843"/>
</g>
<!-- Node7 -->
<g id="node7" class="node"><title>Node7</title>
<g id="a_node7"><a xlink:href="d4/db4/classoperational_1_1interpreter_1_1_variable_exp_interface.html" target="_top" xlink:title="operational::interpreter\l::VariableExpInterface">
<polygon fill="white" stroke="black" points="0,-0.5 0,-30.5 113,-30.5 113,-0.5 0,-0.5"/>
<text text-anchor="start" x="8" y="-18.5" font-family="Helvetica,sans-Serif" font-size="10.00">operational::interpreter</text>
<text text-anchor="middle" x="56.5" y="-7.5" font-family="Helvetica,sans-Serif" font-size="10.00">::VariableExpInterface</text>
</a>
</g>
</g>
<!-- Node7&#45;&gt;Node6 -->
<g id="edge6" class="edge"><title>Node7&#45;&gt;Node6</title>
<path fill="none" stroke="midnightblue" d="M123.078,-15.5C131.681,-15.5 140.43,-15.5 148.847,-15.5"/>
<polygon fill="midnightblue" stroke="midnightblue" points="123.074,-12.0001 113.074,-15.5 123.074,-19.0001 123.074,-12.0001"/>
</g>
</g>
</svg>
