<?xml version="1.0" encoding="UTF-8" standalone="no"?>
<!DOCTYPE svg PUBLIC "-//W3C//DTD SVG 1.1//EN"
 "http://www.w3.org/Graphics/SVG/1.1/DTD/svg11.dtd">
<!-- Generated by graphviz version 2.38.0 (20140413.2041)
 -->
<!-- Title: Graphical Class Hierarchy Pages: 1 -->
<svg width="230pt" height="88pt"
 viewBox="0.00 0.00 230.00 88.00" xmlns="http://www.w3.org/2000/svg" xmlns:xlink="http://www.w3.org/1999/xlink">
<g id="graph0" class="graph" transform="scale(1 1) rotate(0) translate(4 84)">
<title>Graphical Class Hierarchy</title>
<polygon fill="white" stroke="none" points="-4,4 -4,-84 226,-84 226,4 -4,4"/>
<!-- Node1 -->
<g id="node1" class="node"><title>Node1</title>
<g id="a_node1"><a xlink:href="de/d6f/classstructural_1_1proxy_1_1_graphic_interface.html" target="_top" xlink:title="structural::proxy::\lGraphicInterface">
<polygon fill="white" stroke="black" points="0,-24.5 0,-54.5 93,-54.5 93,-24.5 0,-24.5"/>
<text text-anchor="start" x="8" y="-42.5" font-family="Helvetica,sans-Serif" font-size="10.00">structural::proxy::</text>
<text text-anchor="middle" x="46.5" y="-31.5" font-family="Helvetica,sans-Serif" font-size="10.00">GraphicInterface</text>
</a>
</g>
</g>
<!-- Node2 -->
<g id="node2" class="node"><title>Node2</title>
<g id="a_node2"><a xlink:href="dd/d5a/classstructural_1_1proxy_1_1_image.html" target="_top" xlink:title="structural::proxy::\lImage">
<polygon fill="white" stroke="black" points="129,-49.5 129,-79.5 222,-79.5 222,-49.5 129,-49.5"/>
<text text-anchor="start" x="137" y="-67.5" font-family="Helvetica,sans-Serif" font-size="10.00">structural::proxy::</text>
<text text-anchor="middle" x="175.5" y="-56.5" font-family="Helvetica,sans-Serif" font-size="10.00">Image</text>
</a>
</g>
</g>
<!-- Node1&#45;&gt;Node2 -->
<g id="edge1" class="edge"><title>Node1&#45;&gt;Node2</title>
<path fill="none" stroke="midnightblue" d="M103.224,-50.4692C111.74,-52.1458 120.447,-53.8596 128.717,-55.4877"/>
<polygon fill="midnightblue" stroke="midnightblue" points="103.838,-47.023 93.3499,-48.5256 102.486,-53.8912 103.838,-47.023"/>
</g>
<!-- Node3 -->
<g id="node3" class="node"><title>Node3</title>
<g id="a_node3"><a xlink:href="d9/d2c/classstructural_1_1proxy_1_1_image_proxy.html" target="_top" xlink:title="structural::proxy::\lImageProxy">
<polygon fill="white" stroke="black" points="129,-0.5 129,-30.5 222,-30.5 222,-0.5 129,-0.5"/>
<text text-anchor="start" x="137" y="-18.5" font-family="Helvetica,sans-Serif" font-size="10.00">structural::proxy::</text>
<text text-anchor="middle" x="175.5" y="-7.5" font-family="Helvetica,sans-Serif" font-size="10.00">ImageProxy</text>
</a>
</g>
</g>
<!-- Node1&#45;&gt;Node3 -->
<g id="edge2" class="edge"><title>Node1&#45;&gt;Node3</title>
<path fill="none" stroke="midnightblue" d="M103.224,-28.9696C111.74,-27.3601 120.447,-25.7148 128.717,-24.1518"/>
<polygon fill="midnightblue" stroke="midnightblue" points="102.526,-25.5393 93.3499,-30.8354 103.826,-32.4176 102.526,-25.5393"/>
</g>
</g>
</svg>
