<?xml version="1.0" encoding="UTF-8" standalone="no"?>
<!DOCTYPE svg PUBLIC "-//W3C//DTD SVG 1.1//EN"
 "http://www.w3.org/Graphics/SVG/1.1/DTD/svg11.dtd">
<!-- Generated by graphviz version 2.38.0 (20140413.2041)
 -->
<!-- Title: Graphical Class Hierarchy Pages: 1 -->
<svg width="258pt" height="137pt"
 viewBox="0.00 0.00 258.00 137.00" xmlns="http://www.w3.org/2000/svg" xmlns:xlink="http://www.w3.org/1999/xlink">
<g id="graph0" class="graph" transform="scale(1 1) rotate(0) translate(4 133)">
<title>Graphical Class Hierarchy</title>
<polygon fill="white" stroke="none" points="-4,4 -4,-133 254,-133 254,4 -4,4"/>
<!-- Node1 -->
<g id="node1" class="node"><title>Node1</title>
<g id="a_node1"><a xlink:href="d4/dad/classoperational_1_1strategy_1_1_compositor_interface.html" target="_top" xlink:title="operational::strategy\l::CompositorInterface">
<polygon fill="white" stroke="black" points="0,-49.5 0,-79.5 109,-79.5 109,-49.5 0,-49.5"/>
<text text-anchor="start" x="8" y="-67.5" font-family="Helvetica,sans-Serif" font-size="10.00">operational::strategy</text>
<text text-anchor="middle" x="54.5" y="-56.5" font-family="Helvetica,sans-Serif" font-size="10.00">::CompositorInterface</text>
</a>
</g>
</g>
<!-- Node2 -->
<g id="node2" class="node"><title>Node2</title>
<g id="a_node2"><a xlink:href="d8/d76/classoperational_1_1strategy_1_1_array_compositor.html" target="_top" xlink:title="operational::strategy\l::ArrayCompositor">
<polygon fill="white" stroke="black" points="145,-98.5 145,-128.5 250,-128.5 250,-98.5 145,-98.5"/>
<text text-anchor="start" x="153" y="-116.5" font-family="Helvetica,sans-Serif" font-size="10.00">operational::strategy</text>
<text text-anchor="middle" x="197.5" y="-105.5" font-family="Helvetica,sans-Serif" font-size="10.00">::ArrayCompositor</text>
</a>
</g>
</g>
<!-- Node1&#45;&gt;Node2 -->
<g id="edge1" class="edge"><title>Node1&#45;&gt;Node2</title>
<path fill="none" stroke="midnightblue" d="M108.417,-82.8896C123.098,-87.9916 138.866,-93.4711 152.946,-98.3641"/>
<polygon fill="midnightblue" stroke="midnightblue" points="109.55,-79.5781 98.9552,-79.6014 107.252,-86.1902 109.55,-79.5781"/>
</g>
<!-- Node3 -->
<g id="node3" class="node"><title>Node3</title>
<g id="a_node3"><a xlink:href="db/d1e/classoperational_1_1strategy_1_1_simple_compositor.html" target="_top" xlink:title="operational::strategy\l::SimpleCompositor">
<polygon fill="white" stroke="black" points="145,-49.5 145,-79.5 250,-79.5 250,-49.5 145,-49.5"/>
<text text-anchor="start" x="153" y="-67.5" font-family="Helvetica,sans-Serif" font-size="10.00">operational::strategy</text>
<text text-anchor="middle" x="197.5" y="-56.5" font-family="Helvetica,sans-Serif" font-size="10.00">::SimpleCompositor</text>
</a>
</g>
</g>
<!-- Node1&#45;&gt;Node3 -->
<g id="edge2" class="edge"><title>Node1&#45;&gt;Node3</title>
<path fill="none" stroke="midnightblue" d="M119.462,-64.5C127.947,-64.5 136.559,-64.5 144.802,-64.5"/>
<polygon fill="midnightblue" stroke="midnightblue" points="119.208,-61.0001 109.208,-64.5 119.208,-68.0001 119.208,-61.0001"/>
</g>
<!-- Node4 -->
<g id="node4" class="node"><title>Node4</title>
<g id="a_node4"><a xlink:href="d1/d0e/classoperational_1_1strategy_1_1_tex_compositor.html" target="_top" xlink:title="operational::strategy\l::TexCompositor">
<polygon fill="white" stroke="black" points="145,-0.5 145,-30.5 250,-30.5 250,-0.5 145,-0.5"/>
<text text-anchor="start" x="153" y="-18.5" font-family="Helvetica,sans-Serif" font-size="10.00">operational::strategy</text>
<text text-anchor="middle" x="197.5" y="-7.5" font-family="Helvetica,sans-Serif" font-size="10.00">::TexCompositor</text>
</a>
</g>
</g>
<!-- Node1&#45;&gt;Node4 -->
<g id="edge3" class="edge"><title>Node1&#45;&gt;Node4</title>
<path fill="none" stroke="midnightblue" d="M108.417,-46.1104C123.098,-41.0084 138.866,-35.5289 152.946,-30.6359"/>
<polygon fill="midnightblue" stroke="midnightblue" points="107.252,-42.8098 98.9552,-49.3986 109.55,-49.4219 107.252,-42.8098"/>
</g>
</g>
</svg>
