<?xml version="1.0" encoding="UTF-8" standalone="no"?>
<!DOCTYPE svg PUBLIC "-//W3C//DTD SVG 1.1//EN"
 "http://www.w3.org/Graphics/SVG/1.1/DTD/svg11.dtd">
<!-- Generated by graphviz version 2.38.0 (20140413.2041)
 -->
<!-- Title: Graphical Class Hierarchy Pages: 1 -->
<svg width="399pt" height="112pt"
 viewBox="0.00 0.00 399.00 112.00" xmlns="http://www.w3.org/2000/svg" xmlns:xlink="http://www.w3.org/1999/xlink">
<g id="graph0" class="graph" transform="scale(1 1) rotate(0) translate(4 108)">
<title>Graphical Class Hierarchy</title>
<polygon fill="white" stroke="none" points="-4,4 -4,-108 395,-108 395,4 -4,4"/>
<!-- Node1 -->
<g id="node1" class="node"><title>Node1</title>
<g id="a_node1"><a xlink:href="d1/dbf/classstructural_1_1decorator_1_1_stream_interface.html" target="_top" xlink:title="structural::decorator\l::StreamInterface">
<polygon fill="white" stroke="black" points="0,-48.5 0,-78.5 104,-78.5 104,-48.5 0,-48.5"/>
<text text-anchor="start" x="8" y="-66.5" font-family="Helvetica,sans-Serif" font-size="10.00">structural::decorator</text>
<text text-anchor="middle" x="52" y="-55.5" font-family="Helvetica,sans-Serif" font-size="10.00">::StreamInterface</text>
</a>
</g>
</g>
<!-- Node2 -->
<g id="node2" class="node"><title>Node2</title>
<g id="a_node2"><a xlink:href="d1/d73/classstructural_1_1decorator_1_1_file_stream.html" target="_top" xlink:title="structural::decorator\l::FileStream">
<polygon fill="white" stroke="black" points="140,-73.5 140,-103.5 244,-103.5 244,-73.5 140,-73.5"/>
<text text-anchor="start" x="148" y="-91.5" font-family="Helvetica,sans-Serif" font-size="10.00">structural::decorator</text>
<text text-anchor="middle" x="192" y="-80.5" font-family="Helvetica,sans-Serif" font-size="10.00">::FileStream</text>
</a>
</g>
</g>
<!-- Node1&#45;&gt;Node2 -->
<g id="edge1" class="edge"><title>Node1&#45;&gt;Node2</title>
<path fill="none" stroke="midnightblue" d="M114.496,-74.6405C122.872,-76.158 131.398,-77.7025 139.571,-79.1831"/>
<polygon fill="midnightblue" stroke="midnightblue" points="114.85,-71.1478 104.386,-72.8091 113.602,-78.0357 114.85,-71.1478"/>
</g>
<!-- Node3 -->
<g id="node3" class="node"><title>Node3</title>
<g id="a_node3"><a xlink:href="d6/de5/classstructural_1_1decorator_1_1_stream_decorator.html" target="_top" xlink:title="structural::decorator\l::StreamDecorator">
<polygon fill="white" stroke="black" points="140,-24.5 140,-54.5 244,-54.5 244,-24.5 140,-24.5"/>
<text text-anchor="start" x="148" y="-42.5" font-family="Helvetica,sans-Serif" font-size="10.00">structural::decorator</text>
<text text-anchor="middle" x="192" y="-31.5" font-family="Helvetica,sans-Serif" font-size="10.00">::StreamDecorator</text>
</a>
</g>
</g>
<!-- Node1&#45;&gt;Node3 -->
<g id="edge2" class="edge"><title>Node1&#45;&gt;Node3</title>
<path fill="none" stroke="midnightblue" d="M114.496,-52.8051C122.872,-51.3483 131.398,-49.8656 139.571,-48.4442"/>
<polygon fill="midnightblue" stroke="midnightblue" points="113.639,-49.4016 104.386,-54.5633 114.838,-56.298 113.639,-49.4016"/>
</g>
<!-- Node4 -->
<g id="node4" class="node"><title>Node4</title>
<g id="a_node4"><a xlink:href="da/dfb/classstructural_1_1decorator_1_1_a_s_c_i_i7_stream.html" target="_top" xlink:title="structural::decorator\l::ASCII7Stream">
<polygon fill="white" stroke="black" points="283.5,-49.5 283.5,-79.5 387.5,-79.5 387.5,-49.5 283.5,-49.5"/>
<text text-anchor="start" x="291.5" y="-67.5" font-family="Helvetica,sans-Serif" font-size="10.00">structural::decorator</text>
<text text-anchor="middle" x="335.5" y="-56.5" font-family="Helvetica,sans-Serif" font-size="10.00">::ASCII7Stream</text>
</a>
</g>
</g>
<!-- Node3&#45;&gt;Node4 -->
<g id="edge3" class="edge"><title>Node3&#45;&gt;Node4</title>
<path fill="none" stroke="midnightblue" d="M254.158,-50.3053C263.942,-52.0339 273.975,-53.8065 283.49,-55.4877"/>
<polygon fill="midnightblue" stroke="midnightblue" points="254.541,-46.8189 244.085,-48.5256 253.323,-53.7121 254.541,-46.8189"/>
</g>
<!-- Node5 -->
<g id="node5" class="node"><title>Node5</title>
<g id="a_node5"><a xlink:href="d6/d17/classstructural_1_1decorator_1_1_compressing_stream.html" target="_top" xlink:title="structural::decorator\l::CompressingStream">
<polygon fill="white" stroke="black" points="280,-0.5 280,-30.5 391,-30.5 391,-0.5 280,-0.5"/>
<text text-anchor="start" x="288" y="-18.5" font-family="Helvetica,sans-Serif" font-size="10.00">structural::decorator</text>
<text text-anchor="middle" x="335.5" y="-7.5" font-family="Helvetica,sans-Serif" font-size="10.00">::CompressingStream</text>
</a>
</g>
</g>
<!-- Node3&#45;&gt;Node5 -->
<g id="edge4" class="edge"><title>Node3&#45;&gt;Node5</title>
<path fill="none" stroke="midnightblue" d="M253.986,-29.156C262.523,-27.7081 271.253,-26.2275 279.666,-24.8005"/>
<polygon fill="midnightblue" stroke="midnightblue" points="253.359,-25.7124 244.085,-30.8354 254.529,-32.6139 253.359,-25.7124"/>
</g>
</g>
</svg>
