<?xml version="1.0" encoding="UTF-8" standalone="no"?>
<!DOCTYPE svg PUBLIC "-//W3C//DTD SVG 1.1//EN"
 "http://www.w3.org/Graphics/SVG/1.1/DTD/svg11.dtd">
<!-- Generated by graphviz version 2.38.0 (20140413.2041)
 -->
<!-- Title: Graphical Class Hierarchy Pages: 1 -->
<svg width="278pt" height="88pt"
 viewBox="0.00 0.00 278.00 88.00" xmlns="http://www.w3.org/2000/svg" xmlns:xlink="http://www.w3.org/1999/xlink">
<g id="graph0" class="graph" transform="scale(1 1) rotate(0) translate(4 84)">
<title>Graphical Class Hierarchy</title>
<polygon fill="white" stroke="none" points="-4,4 -4,-84 274,-84 274,4 -4,4"/>
<!-- Node1 -->
<g id="node1" class="node"><title>Node1</title>
<g id="a_node1"><a xlink:href="df/d1a/classoperational_1_1observer_1_1_clock_tick_observer.html" target="_top" xlink:title="operational::observer\l::ClockTickObserver">
<polygon fill="white" stroke="black" points="11,-49.5 11,-79.5 117,-79.5 117,-49.5 11,-49.5"/>
<text text-anchor="start" x="19" y="-67.5" font-family="Helvetica,sans-Serif" font-size="10.00">operational::observer</text>
<text text-anchor="middle" x="64" y="-56.5" font-family="Helvetica,sans-Serif" font-size="10.00">::ClockTickObserver</text>
</a>
</g>
</g>
<!-- Node2 -->
<g id="node2" class="node"><title>Node2</title>
<g id="a_node2"><a xlink:href="d3/d84/classoperational_1_1observer_1_1_analog_clock.html" target="_top" xlink:title="operational::observer\l::AnalogClock">
<polygon fill="white" stroke="black" points="164,-49.5 164,-79.5 270,-79.5 270,-49.5 164,-49.5"/>
<text text-anchor="start" x="172" y="-67.5" font-family="Helvetica,sans-Serif" font-size="10.00">operational::observer</text>
<text text-anchor="middle" x="217" y="-56.5" font-family="Helvetica,sans-Serif" font-size="10.00">::AnalogClock</text>
</a>
</g>
</g>
<!-- Node1&#45;&gt;Node2 -->
<g id="edge1" class="edge"><title>Node1&#45;&gt;Node2</title>
<path fill="none" stroke="midnightblue" d="M127.45,-64.5C139.591,-64.5 152.197,-64.5 163.959,-64.5"/>
<polygon fill="midnightblue" stroke="midnightblue" points="127.389,-61.0001 117.389,-64.5 127.389,-68.0001 127.389,-61.0001"/>
</g>
<!-- Node3 -->
<g id="node3" class="node"><title>Node3</title>
<g id="a_node3"><a xlink:href="d9/dd3/classoperational_1_1observer_1_1_digital_clock.html" target="_top" xlink:title="operational::observer\l::DigitalClock">
<polygon fill="white" stroke="black" points="164,-0.5 164,-30.5 270,-30.5 270,-0.5 164,-0.5"/>
<text text-anchor="start" x="172" y="-18.5" font-family="Helvetica,sans-Serif" font-size="10.00">operational::observer</text>
<text text-anchor="middle" x="217" y="-7.5" font-family="Helvetica,sans-Serif" font-size="10.00">::DigitalClock</text>
</a>
</g>
</g>
<!-- Node1&#45;&gt;Node3 -->
<g id="edge2" class="edge"><title>Node1&#45;&gt;Node3</title>
<path fill="none" stroke="midnightblue" d="M121.268,-46.2409C137.194,-41.0727 154.344,-35.5076 169.617,-30.5516"/>
<polygon fill="midnightblue" stroke="midnightblue" points="119.968,-42.9828 111.537,-49.3986 122.129,-49.641 119.968,-42.9828"/>
</g>
<!-- Node4 -->
<g id="node4" class="node"><title>Node4</title>
<g id="a_node4"><a xlink:href="d8/db9/classoperational_1_1observer_1_1_observer_widget_interface.html" target="_top" xlink:title="operational::observer\l::ObserverWidgetInterface">
<polygon fill="white" stroke="black" points="0,-0.5 0,-30.5 128,-30.5 128,-0.5 0,-0.5"/>
<text text-anchor="start" x="8" y="-18.5" font-family="Helvetica,sans-Serif" font-size="10.00">operational::observer</text>
<text text-anchor="middle" x="64" y="-7.5" font-family="Helvetica,sans-Serif" font-size="10.00">::ObserverWidgetInterface</text>
</a>
</g>
</g>
<!-- Node4&#45;&gt;Node2 -->
<g id="edge3" class="edge"><title>Node4&#45;&gt;Node2</title>
<path fill="none" stroke="midnightblue" d="M121.268,-33.7591C137.194,-38.9273 154.344,-44.4924 169.617,-49.4484"/>
<polygon fill="midnightblue" stroke="midnightblue" points="122.129,-30.359 111.537,-30.6014 119.968,-37.0172 122.129,-30.359"/>
</g>
<!-- Node4&#45;&gt;Node3 -->
<g id="edge4" class="edge"><title>Node4&#45;&gt;Node3</title>
<path fill="none" stroke="midnightblue" d="M138.19,-15.5C146.769,-15.5 155.389,-15.5 163.605,-15.5"/>
<polygon fill="midnightblue" stroke="midnightblue" points="138.163,-12.0001 128.163,-15.5 138.163,-19.0001 138.163,-12.0001"/>
</g>
</g>
</svg>
