<?xml version="1.0" encoding="UTF-8" standalone="no"?>
<!DOCTYPE svg PUBLIC "-//W3C//DTD SVG 1.1//EN"
 "http://www.w3.org/Graphics/SVG/1.1/DTD/svg11.dtd">
<!-- Generated by graphviz version 2.38.0 (20140413.2041)
 -->
<!-- Title: Graphical Class Hierarchy Pages: 1 -->
<svg width="422pt" height="112pt"
 viewBox="0.00 0.00 422.00 112.00" xmlns="http://www.w3.org/2000/svg" xmlns:xlink="http://www.w3.org/1999/xlink">
<g id="graph0" class="graph" transform="scale(1 1) rotate(0) translate(4 108)">
<title>Graphical Class Hierarchy</title>
<polygon fill="white" stroke="none" points="-4,4 -4,-108 418,-108 418,4 -4,4"/>
<!-- Node1 -->
<g id="node1" class="node"><title>Node1</title>
<g id="a_node1"><a xlink:href="de/d29/classoperational_1_1madiator_1_1_mediator_widget_interface.html" target="_top" xlink:title="operational::madiator\l::MediatorWidgetInterface">
<polygon fill="white" stroke="black" points="0,-48.5 0,-78.5 128,-78.5 128,-48.5 0,-48.5"/>
<text text-anchor="start" x="8" y="-66.5" font-family="Helvetica,sans-Serif" font-size="10.00">operational::madiator</text>
<text text-anchor="middle" x="64" y="-55.5" font-family="Helvetica,sans-Serif" font-size="10.00">::MediatorWidgetInterface</text>
</a>
</g>
</g>
<!-- Node2 -->
<g id="node2" class="node"><title>Node2</title>
<g id="a_node2"><a xlink:href="df/d1e/classoperational_1_1madiator_1_1_list_box.html" target="_top" xlink:title="operational::madiator\l::ListBox">
<polygon fill="white" stroke="black" points="164,-73.5 164,-103.5 271,-103.5 271,-73.5 164,-73.5"/>
<text text-anchor="start" x="172" y="-91.5" font-family="Helvetica,sans-Serif" font-size="10.00">operational::madiator</text>
<text text-anchor="middle" x="217.5" y="-80.5" font-family="Helvetica,sans-Serif" font-size="10.00">::ListBox</text>
</a>
</g>
</g>
<!-- Node1&#45;&gt;Node2 -->
<g id="edge1" class="edge"><title>Node1&#45;&gt;Node2</title>
<path fill="none" stroke="midnightblue" d="M138.432,-75.6175C147.04,-77.038 155.688,-78.4651 163.931,-79.8253"/>
<polygon fill="midnightblue" stroke="midnightblue" points="138.808,-72.1323 128.372,-73.9574 137.669,-79.0389 138.808,-72.1323"/>
</g>
<!-- Node3 -->
<g id="node3" class="node"><title>Node3</title>
<g id="a_node3"><a xlink:href="da/dd3/classoperational_1_1madiator_1_1_mediator_widget.html" target="_top" xlink:title="operational::madiator\l::MediatorWidget">
<polygon fill="white" stroke="black" points="164,-24.5 164,-54.5 271,-54.5 271,-24.5 164,-24.5"/>
<text text-anchor="start" x="172" y="-42.5" font-family="Helvetica,sans-Serif" font-size="10.00">operational::madiator</text>
<text text-anchor="middle" x="217.5" y="-31.5" font-family="Helvetica,sans-Serif" font-size="10.00">::MediatorWidget</text>
</a>
</g>
</g>
<!-- Node1&#45;&gt;Node3 -->
<g id="edge2" class="edge"><title>Node1&#45;&gt;Node3</title>
<path fill="none" stroke="midnightblue" d="M138.432,-51.8672C147.04,-50.5035 155.688,-49.1335 163.931,-47.8277"/>
<polygon fill="midnightblue" stroke="midnightblue" points="137.701,-48.4393 128.372,-53.4609 138.796,-55.3531 137.701,-48.4393"/>
</g>
<!-- Node4 -->
<g id="node4" class="node"><title>Node4</title>
<g id="a_node4"><a xlink:href="d7/d87/classoperational_1_1madiator_1_1_entry_field.html" target="_top" xlink:title="operational::madiator\l::EntryField">
<polygon fill="white" stroke="black" points="307,-49.5 307,-79.5 414,-79.5 414,-49.5 307,-49.5"/>
<text text-anchor="start" x="315" y="-67.5" font-family="Helvetica,sans-Serif" font-size="10.00">operational::madiator</text>
<text text-anchor="middle" x="360.5" y="-56.5" font-family="Helvetica,sans-Serif" font-size="10.00">::EntryField</text>
</a>
</g>
</g>
<!-- Node3&#45;&gt;Node4 -->
<g id="edge3" class="edge"><title>Node3&#45;&gt;Node4</title>
<path fill="none" stroke="midnightblue" d="M281.05,-50.5905C289.7,-52.124 298.51,-53.6862 306.953,-55.1831"/>
<polygon fill="midnightblue" stroke="midnightblue" points="281.461,-47.1087 271.003,-48.8091 280.239,-54.0012 281.461,-47.1087"/>
</g>
<!-- Node5 -->
<g id="node5" class="node"><title>Node5</title>
<g id="a_node5"><a xlink:href="d3/d5c/classoperational_1_1madiator_1_1_mediator_button.html" target="_top" xlink:title="operational::madiator\l::MediatorButton">
<polygon fill="white" stroke="black" points="307,-0.5 307,-30.5 414,-30.5 414,-0.5 307,-0.5"/>
<text text-anchor="start" x="315" y="-18.5" font-family="Helvetica,sans-Serif" font-size="10.00">operational::madiator</text>
<text text-anchor="middle" x="360.5" y="-7.5" font-family="Helvetica,sans-Serif" font-size="10.00">::MediatorButton</text>
</a>
</g>
</g>
<!-- Node3&#45;&gt;Node5 -->
<g id="edge4" class="edge"><title>Node3&#45;&gt;Node5</title>
<path fill="none" stroke="midnightblue" d="M281.05,-28.8531C289.7,-27.3809 298.51,-25.8812 306.953,-24.4442"/>
<polygon fill="midnightblue" stroke="midnightblue" points="280.274,-25.4348 271.003,-30.5633 281.449,-32.3356 280.274,-25.4348"/>
</g>
</g>
</svg>
