<?xml version="1.0" encoding="UTF-8" standalone="no"?>
<!DOCTYPE svg PUBLIC "-//W3C//DTD SVG 1.1//EN"
 "http://www.w3.org/Graphics/SVG/1.1/DTD/svg11.dtd">
<!-- Generated by graphviz version 2.38.0 (20140413.2041)
 -->
<!-- Title: Graphical Class Hierarchy Pages: 1 -->
<svg width="402pt" height="50pt"
 viewBox="0.00 0.00 402.00 50.00" xmlns="http://www.w3.org/2000/svg" xmlns:xlink="http://www.w3.org/1999/xlink">
<g id="graph0" class="graph" transform="scale(1 1) rotate(0) translate(4 46)">
<title>Graphical Class Hierarchy</title>
<polygon fill="white" stroke="none" points="-4,4 -4,-46 398,-46 398,4 -4,4"/>
<!-- Node1 -->
<g id="node1" class="node"><title>Node1</title>
<g id="a_node1"><a xlink:href="d3/d40/classoperational_1_1iterator_1_1_list_interface.html" target="_top" xlink:title="operational::iterator\l::ListInterface\&lt; operational\l::visitor::VisitedEquipmentInterface * \&gt;">
<polygon fill="white" stroke="black" points="0,-0.5 0,-41.5 182,-41.5 182,-0.5 0,-0.5"/>
<text text-anchor="start" x="8" y="-29.5" font-family="Helvetica,sans-Serif" font-size="10.00">operational::iterator</text>
<text text-anchor="start" x="8" y="-18.5" font-family="Helvetica,sans-Serif" font-size="10.00">::ListInterface&lt; operational</text>
<text text-anchor="middle" x="91" y="-7.5" font-family="Helvetica,sans-Serif" font-size="10.00">::visitor::VisitedEquipmentInterface * &gt;</text>
</a>
</g>
</g>
<!-- Node2 -->
<g id="node2" class="node"><title>Node2</title>
<g id="a_node2"><a xlink:href="d5/df6/classoperational_1_1iterator_1_1_list.html" target="_top" xlink:title="operational::iterator\l::List\&lt; operational::\lvisitor::VisitedEquipmentInterface * \&gt;">
<polygon fill="white" stroke="black" points="218,-0.5 218,-41.5 394,-41.5 394,-0.5 218,-0.5"/>
<text text-anchor="start" x="226" y="-29.5" font-family="Helvetica,sans-Serif" font-size="10.00">operational::iterator</text>
<text text-anchor="start" x="226" y="-18.5" font-family="Helvetica,sans-Serif" font-size="10.00">::List&lt; operational::</text>
<text text-anchor="middle" x="306" y="-7.5" font-family="Helvetica,sans-Serif" font-size="10.00">visitor::VisitedEquipmentInterface * &gt;</text>
</a>
</g>
</g>
<!-- Node1&#45;&gt;Node2 -->
<g id="edge1" class="edge"><title>Node1&#45;&gt;Node2</title>
<path fill="none" stroke="midnightblue" d="M192.038,-21C200.603,-21 209.224,-21 217.678,-21"/>
<polygon fill="midnightblue" stroke="midnightblue" points="192.022,-17.5001 182.022,-21 192.022,-24.5001 192.022,-17.5001"/>
</g>
</g>
</svg>
