<?xml version="1.0" encoding="UTF-8" standalone="no"?>
<!DOCTYPE svg PUBLIC "-//W3C//DTD SVG 1.1//EN"
 "http://www.w3.org/Graphics/SVG/1.1/DTD/svg11.dtd">
<!-- Generated by graphviz version 2.38.0 (20140413.2041)
 -->
<!-- Title: Graphical Class Hierarchy Pages: 1 -->
<svg width="228pt" height="137pt"
 viewBox="0.00 0.00 228.00 137.00" xmlns="http://www.w3.org/2000/svg" xmlns:xlink="http://www.w3.org/1999/xlink">
<g id="graph0" class="graph" transform="scale(1 1) rotate(0) translate(4 133)">
<title>Graphical Class Hierarchy</title>
<polygon fill="white" stroke="none" points="-4,4 -4,-133 224,-133 224,4 -4,4"/>
<!-- Node1 -->
<g id="node1" class="node"><title>Node1</title>
<g id="a_node1"><a xlink:href="de/d97/classoperational_1_1state_1_1_tcp_state.html" target="_top" xlink:title="operational::state\l::TcpState">
<polygon fill="white" stroke="black" points="0,-49.5 0,-79.5 92,-79.5 92,-49.5 0,-49.5"/>
<text text-anchor="start" x="8" y="-67.5" font-family="Helvetica,sans-Serif" font-size="10.00">operational::state</text>
<text text-anchor="middle" x="46" y="-56.5" font-family="Helvetica,sans-Serif" font-size="10.00">::TcpState</text>
</a>
</g>
</g>
<!-- Node2 -->
<g id="node2" class="node"><title>Node2</title>
<g id="a_node2"><a xlink:href="d0/de4/classoperational_1_1state_1_1_tcp_closed.html" target="_top" xlink:title="operational::state\l::TcpClosed">
<polygon fill="white" stroke="black" points="128,-98.5 128,-128.5 220,-128.5 220,-98.5 128,-98.5"/>
<text text-anchor="start" x="136" y="-116.5" font-family="Helvetica,sans-Serif" font-size="10.00">operational::state</text>
<text text-anchor="middle" x="174" y="-105.5" font-family="Helvetica,sans-Serif" font-size="10.00">::TcpClosed</text>
</a>
</g>
</g>
<!-- Node1&#45;&gt;Node2 -->
<g id="edge1" class="edge"><title>Node1&#45;&gt;Node2</title>
<path fill="none" stroke="midnightblue" d="M95.4145,-83.3278C108.211,-88.3042 121.857,-93.6109 134.079,-98.3641"/>
<polygon fill="midnightblue" stroke="midnightblue" points="96.4209,-79.9639 85.8323,-79.6014 93.8837,-86.488 96.4209,-79.9639"/>
</g>
<!-- Node3 -->
<g id="node3" class="node"><title>Node3</title>
<g id="a_node3"><a xlink:href="d2/dd0/classoperational_1_1state_1_1_tcp_established.html" target="_top" xlink:title="operational::state\l::TcpEstablished">
<polygon fill="white" stroke="black" points="128,-49.5 128,-79.5 220,-79.5 220,-49.5 128,-49.5"/>
<text text-anchor="start" x="136" y="-67.5" font-family="Helvetica,sans-Serif" font-size="10.00">operational::state</text>
<text text-anchor="middle" x="174" y="-56.5" font-family="Helvetica,sans-Serif" font-size="10.00">::TcpEstablished</text>
</a>
</g>
</g>
<!-- Node1&#45;&gt;Node3 -->
<g id="edge2" class="edge"><title>Node1&#45;&gt;Node3</title>
<path fill="none" stroke="midnightblue" d="M102.353,-64.5C110.844,-64.5 119.522,-64.5 127.759,-64.5"/>
<polygon fill="midnightblue" stroke="midnightblue" points="102.133,-61.0001 92.133,-64.5 102.133,-68.0001 102.133,-61.0001"/>
</g>
<!-- Node4 -->
<g id="node4" class="node"><title>Node4</title>
<g id="a_node4"><a xlink:href="d7/db3/classoperational_1_1state_1_1_tcp_listen.html" target="_top" xlink:title="operational::state\l::TcpListen">
<polygon fill="white" stroke="black" points="128,-0.5 128,-30.5 220,-30.5 220,-0.5 128,-0.5"/>
<text text-anchor="start" x="136" y="-18.5" font-family="Helvetica,sans-Serif" font-size="10.00">operational::state</text>
<text text-anchor="middle" x="174" y="-7.5" font-family="Helvetica,sans-Serif" font-size="10.00">::TcpListen</text>
</a>
</g>
</g>
<!-- Node1&#45;&gt;Node4 -->
<g id="edge3" class="edge"><title>Node1&#45;&gt;Node4</title>
<path fill="none" stroke="midnightblue" d="M95.4145,-45.6722C108.211,-40.6958 121.857,-35.3891 134.079,-30.6359"/>
<polygon fill="midnightblue" stroke="midnightblue" points="93.8837,-42.512 85.8323,-49.3986 96.4209,-49.0361 93.8837,-42.512"/>
</g>
</g>
</svg>
