<?xml version="1.0" encoding="UTF-8" standalone="no"?>
<!DOCTYPE svg PUBLIC "-//W3C//DTD SVG 1.1//EN"
 "http://www.w3.org/Graphics/SVG/1.1/DTD/svg11.dtd">
<!-- Generated by graphviz version 2.38.0 (20140413.2041)
 -->
<!-- Title: Graphical Class Hierarchy Pages: 1 -->
<svg width="309pt" height="186pt"
 viewBox="0.00 0.00 309.00 186.00" xmlns="http://www.w3.org/2000/svg" xmlns:xlink="http://www.w3.org/1999/xlink">
<g id="graph0" class="graph" transform="scale(1 1) rotate(0) translate(4 182)">
<title>Graphical Class Hierarchy</title>
<polygon fill="white" stroke="none" points="-4,4 -4,-182 305,-182 305,4 -4,4"/>
<!-- Node1 -->
<g id="node1" class="node"><title>Node1</title>
<g id="a_node1"><a xlink:href="db/d88/classoperational_1_1command_1_1_command_interface.html" target="_top" xlink:title="operational::command\l::CommandInterface">
<polygon fill="white" stroke="black" points="0,-73.5 0,-103.5 113,-103.5 113,-73.5 0,-73.5"/>
<text text-anchor="start" x="8" y="-91.5" font-family="Helvetica,sans-Serif" font-size="10.00">operational::command</text>
<text text-anchor="middle" x="56.5" y="-80.5" font-family="Helvetica,sans-Serif" font-size="10.00">::CommandInterface</text>
</a>
</g>
</g>
<!-- Node2 -->
<g id="node2" class="node"><title>Node2</title>
<g id="a_node2"><a xlink:href="db/da6/classoperational_1_1command_1_1_macro_command.html" target="_top" xlink:title="operational::command\l::MacroCommand">
<polygon fill="white" stroke="black" points="168.5,-147.5 168.5,-177.5 281.5,-177.5 281.5,-147.5 168.5,-147.5"/>
<text text-anchor="start" x="176.5" y="-165.5" font-family="Helvetica,sans-Serif" font-size="10.00">operational::command</text>
<text text-anchor="middle" x="225" y="-154.5" font-family="Helvetica,sans-Serif" font-size="10.00">::MacroCommand</text>
</a>
</g>
</g>
<!-- Node1&#45;&gt;Node2 -->
<g id="edge1" class="edge"><title>Node1&#45;&gt;Node2</title>
<path fill="none" stroke="midnightblue" d="M91.0689,-108.849C108.048,-118.619 129.205,-130.016 149,-138.5 156.414,-141.677 164.394,-144.665 172.286,-147.382"/>
<polygon fill="midnightblue" stroke="midnightblue" points="92.5027,-105.633 82.1014,-103.617 88.9752,-111.68 92.5027,-105.633"/>
</g>
<!-- Node3 -->
<g id="node3" class="node"><title>Node3</title>
<g id="a_node3"><a xlink:href="d8/d69/classoperational_1_1command_1_1_open_command.html" target="_top" xlink:title="operational::command\l::OpenCommand">
<polygon fill="white" stroke="black" points="168.5,-98.5 168.5,-128.5 281.5,-128.5 281.5,-98.5 168.5,-98.5"/>
<text text-anchor="start" x="176.5" y="-116.5" font-family="Helvetica,sans-Serif" font-size="10.00">operational::command</text>
<text text-anchor="middle" x="225" y="-105.5" font-family="Helvetica,sans-Serif" font-size="10.00">::OpenCommand</text>
</a>
</g>
</g>
<!-- Node1&#45;&gt;Node3 -->
<g id="edge2" class="edge"><title>Node1&#45;&gt;Node3</title>
<path fill="none" stroke="midnightblue" d="M123.513,-98.4119C138.324,-100.636 153.897,-102.974 168.242,-105.128"/>
<polygon fill="midnightblue" stroke="midnightblue" points="123.814,-94.9179 113.405,-96.8942 122.775,-101.84 123.814,-94.9179"/>
</g>
<!-- Node4 -->
<g id="node4" class="node"><title>Node4</title>
<g id="a_node4"><a xlink:href="d3/d98/classoperational_1_1command_1_1_paste_command.html" target="_top" xlink:title="operational::command\l::PasteCommand">
<polygon fill="white" stroke="black" points="168.5,-49.5 168.5,-79.5 281.5,-79.5 281.5,-49.5 168.5,-49.5"/>
<text text-anchor="start" x="176.5" y="-67.5" font-family="Helvetica,sans-Serif" font-size="10.00">operational::command</text>
<text text-anchor="middle" x="225" y="-56.5" font-family="Helvetica,sans-Serif" font-size="10.00">::PasteCommand</text>
</a>
</g>
</g>
<!-- Node1&#45;&gt;Node4 -->
<g id="edge3" class="edge"><title>Node1&#45;&gt;Node4</title>
<path fill="none" stroke="midnightblue" d="M123.513,-78.9846C138.324,-76.8497 153.897,-74.605 168.242,-72.5371"/>
<polygon fill="midnightblue" stroke="midnightblue" points="122.804,-75.5506 113.405,-80.4416 123.802,-82.479 122.804,-75.5506"/>
</g>
<!-- Node5 -->
<g id="node5" class="node"><title>Node5</title>
<g id="a_node5"><a xlink:href="d3/dc0/classoperational_1_1command_1_1_simple_command.html" target="_top" xlink:title="operational::command\l::SimpleCommand\&lt; Receiver \&gt;">
<polygon fill="white" stroke="black" points="149,-0.5 149,-30.5 301,-30.5 301,-0.5 149,-0.5"/>
<text text-anchor="start" x="157" y="-18.5" font-family="Helvetica,sans-Serif" font-size="10.00">operational::command</text>
<text text-anchor="middle" x="225" y="-7.5" font-family="Helvetica,sans-Serif" font-size="10.00">::SimpleCommand&lt; Receiver &gt;</text>
</a>
</g>
</g>
<!-- Node1&#45;&gt;Node5 -->
<g id="edge4" class="edge"><title>Node1&#45;&gt;Node5</title>
<path fill="none" stroke="midnightblue" d="M92.2966,-68.551C109.117,-59.3497 129.782,-48.6807 149,-40.5 157.335,-36.9521 166.357,-33.5719 175.158,-30.5087"/>
<polygon fill="midnightblue" stroke="midnightblue" points="90.4349,-65.581 83.3815,-73.4867 93.8254,-71.7051 90.4349,-65.581"/>
</g>
</g>
</svg>
