<?xml version="1.0" encoding="UTF-8" standalone="no"?>
<!DOCTYPE svg PUBLIC "-//W3C//DTD SVG 1.1//EN"
 "http://www.w3.org/Graphics/SVG/1.1/DTD/svg11.dtd">
<!-- Generated by graphviz version 2.38.0 (20140413.2041)
 -->
<!-- Title: Graphical Class Hierarchy Pages: 1 -->
<svg width="356pt" height="50pt"
 viewBox="0.00 0.00 356.00 50.00" xmlns="http://www.w3.org/2000/svg" xmlns:xlink="http://www.w3.org/1999/xlink">
<g id="graph0" class="graph" transform="scale(1 1) rotate(0) translate(4 46)">
<title>Graphical Class Hierarchy</title>
<polygon fill="white" stroke="none" points="-4,4 -4,-46 352,-46 352,4 -4,4"/>
<!-- Node1 -->
<g id="node1" class="node"><title>Node1</title>
<g id="a_node1"><a xlink:href="d3/d40/classoperational_1_1iterator_1_1_list_interface.html" target="_top" xlink:title="operational::iterator\l::ListInterface\&lt; structural\l::composite::EquipmentInterface * \&gt;">
<polygon fill="white" stroke="black" points="0,-0.5 0,-41.5 173,-41.5 173,-0.5 0,-0.5"/>
<text text-anchor="start" x="8" y="-29.5" font-family="Helvetica,sans-Serif" font-size="10.00">operational::iterator</text>
<text text-anchor="start" x="8" y="-18.5" font-family="Helvetica,sans-Serif" font-size="10.00">::ListInterface&lt; structural</text>
<text text-anchor="middle" x="86.5" y="-7.5" font-family="Helvetica,sans-Serif" font-size="10.00">::composite::EquipmentInterface * &gt;</text>
</a>
</g>
</g>
<!-- Node2 -->
<g id="node2" class="node"><title>Node2</title>
<g id="a_node2"><a xlink:href="d5/df6/classoperational_1_1iterator_1_1_list.html" target="_top" xlink:title="operational::iterator\l::List\&lt; structural::composite\l::EquipmentInterface * \&gt;">
<polygon fill="white" stroke="black" points="209,-0.5 209,-41.5 348,-41.5 348,-0.5 209,-0.5"/>
<text text-anchor="start" x="217" y="-29.5" font-family="Helvetica,sans-Serif" font-size="10.00">operational::iterator</text>
<text text-anchor="start" x="217" y="-18.5" font-family="Helvetica,sans-Serif" font-size="10.00">::List&lt; structural::composite</text>
<text text-anchor="middle" x="278.5" y="-7.5" font-family="Helvetica,sans-Serif" font-size="10.00">::EquipmentInterface * &gt;</text>
</a>
</g>
</g>
<!-- Node1&#45;&gt;Node2 -->
<g id="edge1" class="edge"><title>Node1&#45;&gt;Node2</title>
<path fill="none" stroke="midnightblue" d="M183.221,-21C191.896,-21 200.563,-21 208.933,-21"/>
<polygon fill="midnightblue" stroke="midnightblue" points="183.051,-17.5001 173.051,-21 183.051,-24.5001 183.051,-17.5001"/>
</g>
</g>
</svg>
