<?xml version="1.0" encoding="UTF-8" standalone="no"?>
<!DOCTYPE svg PUBLIC "-//W3C//DTD SVG 1.1//EN"
 "http://www.w3.org/Graphics/SVG/1.1/DTD/svg11.dtd">
<!-- Generated by graphviz version 2.38.0 (20140413.2041)
 -->
<!-- Title: Graphical Class Hierarchy Pages: 1 -->
<svg width="410pt" height="100pt"
 viewBox="0.00 0.00 410.00 99.50" xmlns="http://www.w3.org/2000/svg" xmlns:xlink="http://www.w3.org/1999/xlink">
<g id="graph0" class="graph" transform="scale(1 1) rotate(0) translate(4 95.5)">
<title>Graphical Class Hierarchy</title>
<polygon fill="white" stroke="none" points="-4,4 -4,-95.5 406,-95.5 406,4 -4,4"/>
<!-- Node1 -->
<g id="node1" class="node"><title>Node1</title>
<g id="a_node1"><a xlink:href="da/daf/classoperational_1_1iterator_1_1_iterator_interface.html" target="_top" xlink:title="operational::iterator\l::IteratorInterface\&lt;\l Item \&gt;">
<polygon fill="white" stroke="black" points="0,-27.5 0,-68.5 100,-68.5 100,-27.5 0,-27.5"/>
<text text-anchor="start" x="8" y="-56.5" font-family="Helvetica,sans-Serif" font-size="10.00">operational::iterator</text>
<text text-anchor="start" x="8" y="-45.5" font-family="Helvetica,sans-Serif" font-size="10.00">::IteratorInterface&lt;</text>
<text text-anchor="middle" x="50" y="-34.5" font-family="Helvetica,sans-Serif" font-size="10.00"> Item &gt;</text>
</a>
</g>
</g>
<!-- Node2 -->
<g id="node2" class="node"><title>Node2</title>
<g id="a_node2"><a xlink:href="da/d8a/classoperational_1_1iterator_1_1_list_iterator.html" target="_top" xlink:title="operational::iterator\l::ListIterator\&lt; Item \&gt;">
<polygon fill="white" stroke="black" points="136,-61 136,-91 241,-91 241,-61 136,-61"/>
<text text-anchor="start" x="144" y="-79" font-family="Helvetica,sans-Serif" font-size="10.00">operational::iterator</text>
<text text-anchor="middle" x="188.5" y="-68" font-family="Helvetica,sans-Serif" font-size="10.00">::ListIterator&lt; Item &gt;</text>
</a>
</g>
</g>
<!-- Node1&#45;&gt;Node2 -->
<g id="edge1" class="edge"><title>Node1&#45;&gt;Node2</title>
<path fill="none" stroke="midnightblue" d="M110.229,-60.1495C118.808,-61.9094 127.581,-63.709 135.992,-65.4344"/>
<polygon fill="midnightblue" stroke="midnightblue" points="110.779,-56.6896 100.28,-58.1086 109.372,-63.5468 110.779,-56.6896"/>
</g>
<!-- Node4 -->
<g id="node4" class="node"><title>Node4</title>
<g id="a_node4"><a xlink:href="d0/de7/classoperational_1_1iterator_1_1_reverse_list_iterator.html" target="_top" xlink:title="operational::iterator\l::ReverseListIterator\l\&lt; Item \&gt;">
<polygon fill="white" stroke="black" points="137,-0.5 137,-41.5 240,-41.5 240,-0.5 137,-0.5"/>
<text text-anchor="start" x="145" y="-29.5" font-family="Helvetica,sans-Serif" font-size="10.00">operational::iterator</text>
<text text-anchor="start" x="145" y="-18.5" font-family="Helvetica,sans-Serif" font-size="10.00">::ReverseListIterator</text>
<text text-anchor="middle" x="188.5" y="-7.5" font-family="Helvetica,sans-Serif" font-size="10.00">&lt; Item &gt;</text>
</a>
</g>
</g>
<!-- Node1&#45;&gt;Node4 -->
<g id="edge3" class="edge"><title>Node1&#45;&gt;Node4</title>
<path fill="none" stroke="midnightblue" d="M110.207,-36.2888C119.107,-34.5282 128.217,-32.7264 136.915,-31.0058"/>
<polygon fill="midnightblue" stroke="midnightblue" points="109.41,-32.8784 100.28,-38.2524 110.769,-39.7454 109.41,-32.8784"/>
</g>
<!-- Node3 -->
<g id="node3" class="node"><title>Node3</title>
<g id="a_node3"><a xlink:href="de/d7e/classoperational_1_1iterator_1_1_skip_list_iterator.html" target="_top" xlink:title="operational::iterator\l::SkipListIterator\&lt; Item \&gt;">
<polygon fill="white" stroke="black" points="277,-61 277,-91 402,-91 402,-61 277,-61"/>
<text text-anchor="start" x="285" y="-79" font-family="Helvetica,sans-Serif" font-size="10.00">operational::iterator</text>
<text text-anchor="middle" x="339.5" y="-68" font-family="Helvetica,sans-Serif" font-size="10.00">::SkipListIterator&lt; Item &gt;</text>
</a>
</g>
</g>
<!-- Node2&#45;&gt;Node3 -->
<g id="edge2" class="edge"><title>Node2&#45;&gt;Node3</title>
<path fill="none" stroke="midnightblue" d="M251.352,-76C259.795,-76 268.46,-76 276.899,-76"/>
<polygon fill="midnightblue" stroke="midnightblue" points="251.195,-72.5001 241.195,-76 251.195,-79.5001 251.195,-72.5001"/>
</g>
</g>
</svg>
