<?xml version="1.0" encoding="UTF-8" standalone="no"?>
<!DOCTYPE svg PUBLIC "-//W3C//DTD SVG 1.1//EN"
 "http://www.w3.org/Graphics/SVG/1.1/DTD/svg11.dtd">
<!-- Generated by graphviz version 2.38.0 (20140413.2041)
 -->
<!-- Title: Graphical Class Hierarchy Pages: 1 -->
<svg width="270pt" height="50pt"
 viewBox="0.00 0.00 270.00 50.00" xmlns="http://www.w3.org/2000/svg" xmlns:xlink="http://www.w3.org/1999/xlink">
<g id="graph0" class="graph" transform="scale(1 1) rotate(0) translate(4 46)">
<title>Graphical Class Hierarchy</title>
<polygon fill="white" stroke="none" points="-4,4 -4,-46 266,-46 266,4 -4,4"/>
<!-- Node1 -->
<g id="node1" class="node"><title>Node1</title>
<g id="a_node1"><a xlink:href="d4/d1d/classoperational_1_1iterator_1_1_list_traverser.html" target="_top" xlink:title="operational::iterator\l::ListTraverser\&lt; Item \&gt;">
<polygon fill="white" stroke="black" points="0,-6 0,-36 114,-36 114,-6 0,-6"/>
<text text-anchor="start" x="8" y="-24" font-family="Helvetica,sans-Serif" font-size="10.00">operational::iterator</text>
<text text-anchor="middle" x="57" y="-13" font-family="Helvetica,sans-Serif" font-size="10.00">::ListTraverser&lt; Item &gt;</text>
</a>
</g>
</g>
<!-- Node2 -->
<g id="node2" class="node"><title>Node2</title>
<g id="a_node2"><a xlink:href="d9/d0f/classoperational_1_1iterator_1_1_filtering_list_traverser.html" target="_top" xlink:title="operational::iterator\l::FilteringListTraverser\l\&lt; Item \&gt;">
<polygon fill="white" stroke="black" points="150,-0.5 150,-41.5 262,-41.5 262,-0.5 150,-0.5"/>
<text text-anchor="start" x="158" y="-29.5" font-family="Helvetica,sans-Serif" font-size="10.00">operational::iterator</text>
<text text-anchor="start" x="158" y="-18.5" font-family="Helvetica,sans-Serif" font-size="10.00">::FilteringListTraverser</text>
<text text-anchor="middle" x="206" y="-7.5" font-family="Helvetica,sans-Serif" font-size="10.00">&lt; Item &gt;</text>
</a>
</g>
</g>
<!-- Node1&#45;&gt;Node2 -->
<g id="edge1" class="edge"><title>Node1&#45;&gt;Node2</title>
<path fill="none" stroke="midnightblue" d="M124.646,-21C133.109,-21 141.695,-21 149.949,-21"/>
<polygon fill="midnightblue" stroke="midnightblue" points="124.414,-17.5001 114.414,-21 124.414,-24.5001 124.414,-17.5001"/>
</g>
</g>
</svg>
