<?xml version="1.0" encoding="UTF-8" standalone="no"?>
<!DOCTYPE svg PUBLIC "-//W3C//DTD SVG 1.1//EN"
 "http://www.w3.org/Graphics/SVG/1.1/DTD/svg11.dtd">
<!-- Generated by graphviz version 2.38.0 (20140413.2041)
 -->
<!-- Title: Graphical Class Hierarchy Pages: 1 -->
<svg width="270pt" height="127pt"
 viewBox="0.00 0.00 270.00 126.50" xmlns="http://www.w3.org/2000/svg" xmlns:xlink="http://www.w3.org/1999/xlink">
<g id="graph0" class="graph" transform="scale(1 1) rotate(0) translate(4 122.5)">
<title>Graphical Class Hierarchy</title>
<polygon fill="white" stroke="none" points="-4,4 -4,-122.5 266,-122.5 266,4 -4,4"/>
<!-- Node1 -->
<g id="node1" class="node"><title>Node1</title>
<g id="a_node1"><a xlink:href="dc/db6/classstructural_1_1flyweight_1_1_glyph_interface.html" target="_top" xlink:title="structural::flyweight\l::GlyphInterface">
<polygon fill="white" stroke="black" points="0,-39 0,-69 101,-69 101,-39 0,-39"/>
<text text-anchor="start" x="8" y="-57" font-family="Helvetica,sans-Serif" font-size="10.00">structural::flyweight</text>
<text text-anchor="middle" x="50.5" y="-46" font-family="Helvetica,sans-Serif" font-size="10.00">::GlyphInterface</text>
</a>
</g>
</g>
<!-- Node2 -->
<g id="node2" class="node"><title>Node2</title>
<g id="a_node2"><a xlink:href="d7/dd6/classstructural_1_1flyweight_1_1_character.html" target="_top" xlink:title="structural::flyweight\l::Character">
<polygon fill="white" stroke="black" points="149,-88 149,-118 250,-118 250,-88 149,-88"/>
<text text-anchor="start" x="157" y="-106" font-family="Helvetica,sans-Serif" font-size="10.00">structural::flyweight</text>
<text text-anchor="middle" x="199.5" y="-95" font-family="Helvetica,sans-Serif" font-size="10.00">::Character</text>
</a>
</g>
</g>
<!-- Node1&#45;&gt;Node2 -->
<g id="edge1" class="edge"><title>Node1&#45;&gt;Node2</title>
<path fill="none" stroke="midnightblue" d="M106.716,-72.4055C122.097,-77.5322 138.618,-83.0392 153.345,-87.9484"/>
<polygon fill="midnightblue" stroke="midnightblue" points="107.398,-68.9434 96.8043,-69.1014 105.184,-75.5842 107.398,-68.9434"/>
</g>
<!-- Node3 -->
<g id="node3" class="node"><title>Node3</title>
<g id="a_node3"><a xlink:href="d4/da7/classstructural_1_1flyweight_1_1_column.html" target="_top" xlink:title="structural::flyweight\l::Column">
<polygon fill="white" stroke="black" points="149,-39 149,-69 250,-69 250,-39 149,-39"/>
<text text-anchor="start" x="157" y="-57" font-family="Helvetica,sans-Serif" font-size="10.00">structural::flyweight</text>
<text text-anchor="middle" x="199.5" y="-46" font-family="Helvetica,sans-Serif" font-size="10.00">::Column</text>
</a>
</g>
</g>
<!-- Node1&#45;&gt;Node3 -->
<g id="edge2" class="edge"><title>Node1&#45;&gt;Node3</title>
<path fill="none" stroke="midnightblue" d="M111.514,-54C123.899,-54 136.813,-54 148.784,-54"/>
<polygon fill="midnightblue" stroke="midnightblue" points="111.268,-50.5001 101.267,-54 111.267,-57.5001 111.268,-50.5001"/>
</g>
<!-- Node4 -->
<g id="node4" class="node"><title>Node4</title>
<g id="a_node4"><a xlink:href="d4/d84/classstructural_1_1flyweight_1_1_row.html" target="_top" xlink:title="structural::flyweight::Row">
<polygon fill="white" stroke="black" points="137,-0.5 137,-19.5 262,-19.5 262,-0.5 137,-0.5"/>
<text text-anchor="middle" x="199.5" y="-7.5" font-family="Helvetica,sans-Serif" font-size="10.00">structural::flyweight::Row</text>
</a>
</g>
</g>
<!-- Node1&#45;&gt;Node4 -->
<g id="edge3" class="edge"><title>Node1&#45;&gt;Node4</title>
<path fill="none" stroke="midnightblue" d="M111.01,-36.1876C129.916,-30.5285 150.105,-24.4856 166.32,-19.6322"/>
<polygon fill="midnightblue" stroke="midnightblue" points="109.844,-32.883 101.267,-39.1036 111.851,-39.5891 109.844,-32.883"/>
</g>
</g>
</svg>
