<?xml version="1.0" encoding="UTF-8" standalone="no"?>
<!DOCTYPE svg PUBLIC "-//W3C//DTD SVG 1.1//EN"
 "http://www.w3.org/Graphics/SVG/1.1/DTD/svg11.dtd">
<!-- Generated by graphviz version 2.38.0 (20140413.2041)
 -->
<!-- Title: src/operational/src/mediator/dialog_director_interface.h Pages: 1 -->
<!--zoomable 340 -->
<svg id="main" version="1.1" xmlns="http://www.w3.org/2000/svg" xmlns:xlink="http://www.w3.org/1999/xlink" xml:space="preserve" onload="init(evt)">
<style type="text/css"><![CDATA[
.edge:hover path { stroke: red; }
.edge:hover polygon { stroke: red; fill: red; }
]]></style>
<script type="text/javascript"><![CDATA[
var edges = document.getElementsByTagName('g');
if (edges && edges.length) {
  for (var i=0;i<edges.length;i++) {
    if (edges[i].id.substr(0,4)=='edge') {
      edges[i].setAttribute('class','edge');
    }
  }
}
]]></script>
        <defs>
                <circle id="rim" cx="0" cy="0" r="7"/>
                <circle id="rim2" cx="0" cy="0" r="3.5"/>
                <g id="zoomPlus">
                        <use xlink:href="#rim" fill="#404040">
                                <set attributeName="fill" to="#808080" begin="zoomplus.mouseover" end="zoomplus.mouseout"/>
                        </use>
                        <path d="M-4,0h8M0,-4v8" fill="none" stroke="white" stroke-width="1.5" pointer-events="none"/>
                </g>
                <g id="zoomMin">
                        <use xlink:href="#rim" fill="#404040">
                                <set attributeName="fill" to="#808080" begin="zoomminus.mouseover" end="zoomminus.mouseout"/>
                        </use>
                        <path d="M-4,0h8" fill="none" stroke="white" stroke-width="1.5" pointer-events="none"/>
                </g>
                <g id="dirArrow">
                        <path fill="none" stroke="white" stroke-width="1.5" d="M0,-3.0v7 M-2.5,-0.5L0,-3.0L2.5,-0.5"/>
                </g>
               <g id="resetDef">
                       <use xlink:href="#rim2" fill="#404040">
                               <set attributeName="fill" to="#808080" begin="reset.mouseover" end="reset.mouseout"/>
                       </use>
               </g>
        </defs>

<script type="text/javascript">
var viewWidth = 646;
var viewHeight = 340;
var sectionId = 'dynsection-1';
</script>
<script xlink:href="../../svgpan.js"/>
<svg id="graph" class="graph">
<g id="viewport">
<title>src/operational/src/mediator/dialog_director_interface.h</title>
<polygon fill="white" stroke="none" points="-4,4 -4,-336 641.5,-336 641.5,4 -4,4"/>
<!-- Node1 -->
<g id="node1" class="node"><title>Node1</title>
<polygon fill="#bfbfbf" stroke="black" points="402.5,-290.5 402.5,-331.5 525.5,-331.5 525.5,-290.5 402.5,-290.5"/>
<text text-anchor="start" x="410.5" y="-319.5" font-family="Helvetica,sans-Serif" font-size="10.00">src/operational/src</text>
<text text-anchor="start" x="410.5" y="-308.5" font-family="Helvetica,sans-Serif" font-size="10.00">/mediator/dialog_director</text>
<text text-anchor="middle" x="464" y="-297.5" font-family="Helvetica,sans-Serif" font-size="10.00">_interface.h</text>
</g>
<!-- Node2 -->
<g id="node2" class="node"><title>Node2</title>
<g id="a_node2"><a xlink:href="../../dd/dcb/mediator__widget_8h.html" target="_top" xlink:title="src/operational/src\l/mediator/mediator_widget.h">
<polygon fill="white" stroke="black" points="215.5,-223.5 215.5,-253.5 354.5,-253.5 354.5,-223.5 215.5,-223.5"/>
<text text-anchor="start" x="223.5" y="-241.5" font-family="Helvetica,sans-Serif" font-size="10.00">src/operational/src</text>
<text text-anchor="middle" x="285" y="-230.5" font-family="Helvetica,sans-Serif" font-size="10.00">/mediator/mediator_widget.h</text>
</a>
</g>
</g>
<!-- Node1&#45;&gt;Node2 -->
<g id="edge1" class="edge"><title>Node1&#45;&gt;Node2</title>
<path fill="none" stroke="midnightblue" d="M404.522,-286.574C376.762,-275.641 344.644,-262.991 320.698,-253.56"/>
<polygon fill="midnightblue" stroke="midnightblue" points="403.552,-289.954 414.139,-290.362 406.117,-283.441 403.552,-289.954"/>
</g>
<!-- Node5 -->
<g id="node5" class="node"><title>Node5</title>
<g id="a_node5"><a xlink:href="../../d6/d4a/font__dialog__director_8h.html" target="_top" xlink:title="src/operational/src\l/mediator/font_dialog\l_director.h">
<polygon fill="white" stroke="black" points="353.5,-78.5 353.5,-119.5 460.5,-119.5 460.5,-78.5 353.5,-78.5"/>
<text text-anchor="start" x="361.5" y="-107.5" font-family="Helvetica,sans-Serif" font-size="10.00">src/operational/src</text>
<text text-anchor="start" x="361.5" y="-96.5" font-family="Helvetica,sans-Serif" font-size="10.00">/mediator/font_dialog</text>
<text text-anchor="middle" x="407" y="-85.5" font-family="Helvetica,sans-Serif" font-size="10.00">_director.h</text>
</a>
</g>
</g>
<!-- Node1&#45;&gt;Node5 -->
<g id="edge11" class="edge"><title>Node1&#45;&gt;Node5</title>
<path fill="none" stroke="midnightblue" d="M464.413,-279.954C463.918,-248.175 460.428,-197.054 445,-156 440.081,-142.912 431.525,-129.891 423.775,-119.703"/>
<polygon fill="midnightblue" stroke="midnightblue" points="460.916,-280.363 464.479,-290.34 467.916,-280.319 460.916,-280.363"/>
</g>
<!-- Node11 -->
<g id="node11" class="node"><title>Node11</title>
<g id="a_node11"><a xlink:href="../../df/d23/list__box_8h.html" target="_top" xlink:title="src/operational/src\l/mediator/list_box.h">
<polygon fill="white" stroke="black" points="492,-223.5 492,-253.5 594,-253.5 594,-223.5 492,-223.5"/>
<text text-anchor="start" x="500" y="-241.5" font-family="Helvetica,sans-Serif" font-size="10.00">src/operational/src</text>
<text text-anchor="middle" x="543" y="-230.5" font-family="Helvetica,sans-Serif" font-size="10.00">/mediator/list_box.h</text>
</a>
</g>
</g>
<!-- Node1&#45;&gt;Node11 -->
<g id="edge12" class="edge"><title>Node1&#45;&gt;Node11</title>
<path fill="none" stroke="midnightblue" d="M493.637,-283.551C505.002,-273.41 517.53,-262.229 527.122,-253.67"/>
<polygon fill="midnightblue" stroke="midnightblue" points="491.137,-281.092 486.006,-290.362 495.797,-286.315 491.137,-281.092"/>
</g>
<!-- Node3 -->
<g id="node3" class="node"><title>Node3</title>
<g id="a_node3"><a xlink:href="../../de/db6/entry__field_8h.html" target="_top" xlink:title="src/operational/src\l/mediator/entry_field.h">
<polygon fill="white" stroke="black" points="4.5,-156.5 4.5,-186.5 117.5,-186.5 117.5,-156.5 4.5,-156.5"/>
<text text-anchor="start" x="12.5" y="-174.5" font-family="Helvetica,sans-Serif" font-size="10.00">src/operational/src</text>
<text text-anchor="middle" x="61" y="-163.5" font-family="Helvetica,sans-Serif" font-size="10.00">/mediator/entry_field.h</text>
</a>
</g>
</g>
<!-- Node2&#45;&gt;Node3 -->
<g id="edge2" class="edge"><title>Node2&#45;&gt;Node3</title>
<path fill="none" stroke="midnightblue" d="M226.69,-220.58C190.308,-210.022 144.025,-196.592 109.628,-186.611"/>
<polygon fill="midnightblue" stroke="midnightblue" points="226.092,-224.05 236.671,-223.476 228.043,-217.328 226.092,-224.05"/>
</g>
<!-- Node8 -->
<g id="node8" class="node"><title>Node8</title>
<g id="a_node8"><a xlink:href="../../d0/dc7/mediator__button_8h.html" target="_top" xlink:title="src/operational/src\l/mediator/mediator_button.h">
<polygon fill="white" stroke="black" points="136,-156.5 136,-186.5 274,-186.5 274,-156.5 136,-156.5"/>
<text text-anchor="start" x="144" y="-174.5" font-family="Helvetica,sans-Serif" font-size="10.00">src/operational/src</text>
<text text-anchor="middle" x="205" y="-163.5" font-family="Helvetica,sans-Serif" font-size="10.00">/mediator/mediator_button.h</text>
</a>
</g>
</g>
<!-- Node2&#45;&gt;Node8 -->
<g id="edge7" class="edge"><title>Node2&#45;&gt;Node8</title>
<path fill="none" stroke="midnightblue" d="M259.625,-216.883C247.468,-207.005 233.221,-195.429 222.325,-186.577"/>
<polygon fill="midnightblue" stroke="midnightblue" points="257.673,-219.806 267.641,-223.396 262.087,-214.374 257.673,-219.806"/>
</g>
<!-- Node10 -->
<g id="node10" class="node"><title>Node10</title>
<g id="a_node10"><a xlink:href="../../de/d42/mediator__widget_8cc.html" target="_top" xlink:title="src/operational/src\l/mediator/mediator_widget.cc">
<polygon fill="white" stroke="black" points="292,-156.5 292,-186.5 436,-186.5 436,-156.5 292,-156.5"/>
<text text-anchor="start" x="300" y="-174.5" font-family="Helvetica,sans-Serif" font-size="10.00">src/operational/src</text>
<text text-anchor="middle" x="364" y="-163.5" font-family="Helvetica,sans-Serif" font-size="10.00">/mediator/mediator_widget.cc</text>
</a>
</g>
</g>
<!-- Node2&#45;&gt;Node10 -->
<g id="edge10" class="edge"><title>Node2&#45;&gt;Node10</title>
<path fill="none" stroke="midnightblue" d="M310.057,-216.883C322.063,-207.005 336.132,-195.429 346.892,-186.577"/>
<polygon fill="midnightblue" stroke="midnightblue" points="307.64,-214.34 302.142,-223.396 312.088,-219.745 307.64,-214.34"/>
</g>
<!-- Node4 -->
<g id="node4" class="node"><title>Node4</title>
<g id="a_node4"><a xlink:href="../../dd/d7d/entry__field_8cc.html" target="_top" xlink:title="src/operational/src\l/mediator/entry_field.cc">
<polygon fill="white" stroke="black" points="0,-84 0,-114 118,-114 118,-84 0,-84"/>
<text text-anchor="start" x="8" y="-102" font-family="Helvetica,sans-Serif" font-size="10.00">src/operational/src</text>
<text text-anchor="middle" x="59" y="-91" font-family="Helvetica,sans-Serif" font-size="10.00">/mediator/entry_field.cc</text>
</a>
</g>
</g>
<!-- Node3&#45;&gt;Node4 -->
<g id="edge3" class="edge"><title>Node3&#45;&gt;Node4</title>
<path fill="none" stroke="midnightblue" d="M60.3115,-146.232C60.009,-135.568 59.6642,-123.414 59.4041,-114.246"/>
<polygon fill="midnightblue" stroke="midnightblue" points="56.813,-146.337 60.5953,-156.233 63.8102,-146.138 56.813,-146.337"/>
</g>
<!-- Node3&#45;&gt;Node5 -->
<g id="edge4" class="edge"><title>Node3&#45;&gt;Node5</title>
<path fill="none" stroke="midnightblue" d="M127.328,-155.954C212.322,-138.178 298.94,-121.054 353.261,-110.435"/>
<polygon fill="midnightblue" stroke="midnightblue" points="126.58,-152.534 117.511,-158.011 128.016,-159.385 126.58,-152.534"/>
</g>
<!-- Node6 -->
<g id="node6" class="node"><title>Node6</title>
<g id="a_node6"><a xlink:href="../../d6/d8a/font__dialog__director_8cc.html" target="_top" xlink:title="src/operational/src\l/mediator/font_dialog\l_director.cc">
<polygon fill="white" stroke="black" points="288.5,-0.5 288.5,-41.5 395.5,-41.5 395.5,-0.5 288.5,-0.5"/>
<text text-anchor="start" x="296.5" y="-29.5" font-family="Helvetica,sans-Serif" font-size="10.00">src/operational/src</text>
<text text-anchor="start" x="296.5" y="-18.5" font-family="Helvetica,sans-Serif" font-size="10.00">/mediator/font_dialog</text>
<text text-anchor="middle" x="342" y="-7.5" font-family="Helvetica,sans-Serif" font-size="10.00">_director.cc</text>
</a>
</g>
</g>
<!-- Node5&#45;&gt;Node6 -->
<g id="edge5" class="edge"><title>Node5&#45;&gt;Node6</title>
<path fill="none" stroke="midnightblue" d="M383.589,-70.627C375.347,-60.9901 366.257,-50.3617 358.682,-41.5056"/>
<polygon fill="midnightblue" stroke="midnightblue" points="381.101,-73.1034 390.261,-78.4281 386.421,-68.5536 381.101,-73.1034"/>
</g>
<!-- Node7 -->
<g id="node7" class="node"><title>Node7</title>
<g id="a_node7"><a xlink:href="../../da/d87/mediator__test_8cc.html" target="_top" xlink:title="src/operational_tests\l/src/mediator/mediator\l_test.cc">
<polygon fill="white" stroke="black" points="414,-0.5 414,-41.5 528,-41.5 528,-0.5 414,-0.5"/>
<text text-anchor="start" x="422" y="-29.5" font-family="Helvetica,sans-Serif" font-size="10.00">src/operational_tests</text>
<text text-anchor="start" x="422" y="-18.5" font-family="Helvetica,sans-Serif" font-size="10.00">/src/mediator/mediator</text>
<text text-anchor="middle" x="471" y="-7.5" font-family="Helvetica,sans-Serif" font-size="10.00">_test.cc</text>
</a>
</g>
</g>
<!-- Node5&#45;&gt;Node7 -->
<g id="edge6" class="edge"><title>Node5&#45;&gt;Node7</title>
<path fill="none" stroke="midnightblue" d="M430.051,-70.627C438.166,-60.9901 447.117,-50.3617 454.574,-41.5056"/>
<polygon fill="midnightblue" stroke="midnightblue" points="427.246,-68.5245 423.482,-78.4281 432.6,-73.0335 427.246,-68.5245"/>
</g>
<!-- Node8&#45;&gt;Node5 -->
<g id="edge8" class="edge"><title>Node8&#45;&gt;Node5</title>
<path fill="none" stroke="midnightblue" d="M255.18,-152.987C285.011,-142.575 322.84,-129.373 353.275,-118.751"/>
<polygon fill="midnightblue" stroke="midnightblue" points="253.68,-149.803 245.392,-156.403 255.987,-156.412 253.68,-149.803"/>
</g>
<!-- Node9 -->
<g id="node9" class="node"><title>Node9</title>
<g id="a_node9"><a xlink:href="../../d5/d42/mediator__button_8cc.html" target="_top" xlink:title="src/operational/src\l/mediator/mediator_button.cc">
<polygon fill="white" stroke="black" points="136.5,-84 136.5,-114 279.5,-114 279.5,-84 136.5,-84"/>
<text text-anchor="start" x="144.5" y="-102" font-family="Helvetica,sans-Serif" font-size="10.00">src/operational/src</text>
<text text-anchor="middle" x="208" y="-91" font-family="Helvetica,sans-Serif" font-size="10.00">/mediator/mediator_button.cc</text>
</a>
</g>
</g>
<!-- Node8&#45;&gt;Node9 -->
<g id="edge9" class="edge"><title>Node8&#45;&gt;Node9</title>
<path fill="none" stroke="midnightblue" d="M206.033,-146.232C206.486,-135.568 207.004,-123.414 207.394,-114.246"/>
<polygon fill="midnightblue" stroke="midnightblue" points="202.536,-146.093 205.607,-156.233 209.529,-146.391 202.536,-146.093"/>
</g>
<!-- Node11&#45;&gt;Node5 -->
<g id="edge13" class="edge"><title>Node11&#45;&gt;Node5</title>
<path fill="none" stroke="midnightblue" d="M527.37,-215.175C514.929,-198.118 496.576,-174.476 478,-156 464.754,-142.826 448.481,-129.799 434.857,-119.629"/>
<polygon fill="midnightblue" stroke="midnightblue" points="524.628,-217.357 533.308,-223.433 530.311,-213.27 524.628,-217.357"/>
</g>
<!-- Node12 -->
<g id="node12" class="node"><title>Node12</title>
<g id="a_node12"><a xlink:href="../../d2/ddd/list__box_8cc.html" target="_top" xlink:title="src/operational/src\l/mediator/list_box.cc">
<polygon fill="white" stroke="black" points="530.5,-156.5 530.5,-186.5 637.5,-186.5 637.5,-156.5 530.5,-156.5"/>
<text text-anchor="start" x="538.5" y="-174.5" font-family="Helvetica,sans-Serif" font-size="10.00">src/operational/src</text>
<text text-anchor="middle" x="584" y="-163.5" font-family="Helvetica,sans-Serif" font-size="10.00">/mediator/list_box.cc</text>
</a>
</g>
</g>
<!-- Node11&#45;&gt;Node12 -->
<g id="edge14" class="edge"><title>Node11&#45;&gt;Node12</title>
<path fill="none" stroke="midnightblue" d="M557.276,-214.867C563.21,-205.459 569.913,-194.833 575.121,-186.577"/>
<polygon fill="midnightblue" stroke="midnightblue" points="554.271,-213.071 551.896,-223.396 560.192,-216.805 554.271,-213.071"/>
</g>
</g>
</svg>
        <g id="navigator" transform="translate(0 0)" fill="#404254">
                <rect fill="#f2f5e9" fill-opacity="0.5" stroke="#606060" stroke-width=".5" x="0" y="0" width="60" height="60"/>
                <use id="zoomplus" xlink:href="#zoomPlus" x="17" y="9" onmousedown="handleZoom(evt,'in')"/>
                <use id="zoomminus" xlink:href="#zoomMin" x="42" y="9" onmousedown="handleZoom(evt,'out')"/>
                <use id="reset" xlink:href="#resetDef" x="30" y="36" onmousedown="handleReset()"/>
                <g id="arrowUp" xlink:href="#dirArrow" transform="translate(30 24)" onmousedown="handlePan(0,-1)">
                  <use xlink:href="#rim" fill="#404040">
                        <set attributeName="fill" to="#808080" begin="arrowUp.mouseover" end="arrowUp.mouseout"/>
                  </use>
                  <path fill="none" stroke="white" stroke-width="1.5" d="M0,-3.0v7 M-2.5,-0.5L0,-3.0L2.5,-0.5"/>
                </g>
                <g id="arrowRight" xlink:href="#dirArrow" transform="rotate(90) translate(36 -43)" onmousedown="handlePan(1,0)">
                  <use xlink:href="#rim" fill="#404040">
                        <set attributeName="fill" to="#808080" begin="arrowRight.mouseover" end="arrowRight.mouseout"/>
                  </use>
                  <path fill="none" stroke="white" stroke-width="1.5" d="M0,-3.0v7 M-2.5,-0.5L0,-3.0L2.5,-0.5"/>
                </g>
                <g id="arrowDown" xlink:href="#dirArrow" transform="rotate(180) translate(-30 -48)" onmousedown="handlePan(0,1)">
                  <use xlink:href="#rim" fill="#404040">
                        <set attributeName="fill" to="#808080" begin="arrowDown.mouseover" end="arrowDown.mouseout"/>
                  </use>
                  <path fill="none" stroke="white" stroke-width="1.5" d="M0,-3.0v7 M-2.5,-0.5L0,-3.0L2.5,-0.5"/>
                </g>
                <g id="arrowLeft" xlink:href="#dirArrow" transform="rotate(270) translate(-36 17)" onmousedown="handlePan(-1,0)">
                  <use xlink:href="#rim" fill="#404040">
                        <set attributeName="fill" to="#808080" begin="arrowLeft.mouseover" end="arrowLeft.mouseout"/>
                  </use>
                  <path fill="none" stroke="white" stroke-width="1.5" d="M0,-3.0v7 M-2.5,-0.5L0,-3.0L2.5,-0.5"/>
                </g>
        </g>
        <svg viewBox="0 0 15 15" width="100%" height="30px" preserveAspectRatio="xMaxYMin meet">
         <g id="arrow_out" transform="scale(0.3 0.3)">
          <a xlink:href="dialog__director__interface_8h__dep__incl_org.svg" target="_base">
           <rect id="button" ry="5" rx="5" y="6" x="6" height="38" width="38"
                fill="#f2f5e9" fill-opacity="0.5" stroke="#606060" stroke-width="1.0"/>
           <path id="arrow"
             d="M 11.500037,31.436501 C 11.940474,20.09759 22.043105,11.32322 32.158766,21.979434 L 37.068811,17.246167 C 37.068811,17.246167 37.088388,32 37.088388,32 L 22.160133,31.978069 C 22.160133,31.978069 26.997745,27.140456 26.997745,27.140456 C 18.528582,18.264221 13.291696,25.230495 11.500037,31.436501 z"
             style="fill:#404040;"/>
          </a>
         </g>
        </svg>
</svg>
