<?xml version="1.0" encoding="UTF-8" standalone="no"?>
<!DOCTYPE svg PUBLIC "-//W3C//DTD SVG 1.1//EN"
 "http://www.w3.org/Graphics/SVG/1.1/DTD/svg11.dtd">
<!-- Generated by graphviz version 2.38.0 (20140413.2041)
 -->
<!-- Title: src/operational/src/command/command_application.h Pages: 1 -->
<svg width="433pt" height="184pt"
 viewBox="0.00 0.00 433.00 184.00" xmlns="http://www.w3.org/2000/svg" xmlns:xlink="http://www.w3.org/1999/xlink">
<g id="graph0" class="graph" transform="scale(1 1) rotate(0) translate(4 180)">
<title>src/operational/src/command/command_application.h</title>
<polygon fill="white" stroke="none" points="-4,4 -4,-180 429,-180 429,4 -4,4"/>
<!-- Node1 -->
<g id="node1" class="node"><title>Node1</title>
<polygon fill="#bfbfbf" stroke="black" points="178.5,-145.5 178.5,-175.5 346.5,-175.5 346.5,-145.5 178.5,-145.5"/>
<text text-anchor="start" x="186.5" y="-163.5" font-family="Helvetica,sans-Serif" font-size="10.00">src/operational/src</text>
<text text-anchor="middle" x="262.5" y="-152.5" font-family="Helvetica,sans-Serif" font-size="10.00">/command/command_application.h</text>
</g>
<!-- Node2 -->
<g id="node2" class="node"><title>Node2</title>
<g id="a_node2"><a xlink:href="../../d4/d1a/command__application_8cc.html" target="_top" xlink:title="src/operational/src\l/command/command_application.cc">
<polygon fill="white" stroke="black" points="0,-78.5 0,-108.5 173,-108.5 173,-78.5 0,-78.5"/>
<text text-anchor="start" x="8" y="-96.5" font-family="Helvetica,sans-Serif" font-size="10.00">src/operational/src</text>
<text text-anchor="middle" x="86.5" y="-85.5" font-family="Helvetica,sans-Serif" font-size="10.00">/command/command_application.cc</text>
</a>
</g>
</g>
<!-- Node1&#45;&gt;Node2 -->
<g id="edge1" class="edge"><title>Node1&#45;&gt;Node2</title>
<path fill="none" stroke="midnightblue" d="M214.624,-141.819C186.334,-131.371 151.006,-118.323 124.615,-108.577"/>
<polygon fill="midnightblue" stroke="midnightblue" points="213.717,-145.215 224.311,-145.396 216.143,-138.648 213.717,-145.215"/>
</g>
<!-- Node3 -->
<g id="node3" class="node"><title>Node3</title>
<g id="a_node3"><a xlink:href="../../d1/d01/open__command_8h.html" target="_top" xlink:title="src/operational/src\l/command/open_command.h">
<polygon fill="white" stroke="black" points="191,-78.5 191,-108.5 334,-108.5 334,-78.5 191,-78.5"/>
<text text-anchor="start" x="199" y="-96.5" font-family="Helvetica,sans-Serif" font-size="10.00">src/operational/src</text>
<text text-anchor="middle" x="262.5" y="-85.5" font-family="Helvetica,sans-Serif" font-size="10.00">/command/open_command.h</text>
</a>
</g>
</g>
<!-- Node1&#45;&gt;Node3 -->
<g id="edge2" class="edge"><title>Node1&#45;&gt;Node3</title>
<path fill="none" stroke="midnightblue" d="M262.5,-135.108C262.5,-126.154 262.5,-116.323 262.5,-108.577"/>
<polygon fill="midnightblue" stroke="midnightblue" points="259,-135.396 262.5,-145.396 266,-135.396 259,-135.396"/>
</g>
<!-- Node5 -->
<g id="node5" class="node"><title>Node5</title>
<g id="a_node5"><a xlink:href="../../de/de3/command__test_8cc.html" target="_top" xlink:title="src/operational_tests\l/src/command/command\l_test.cc">
<polygon fill="white" stroke="black" points="300,-0.5 300,-41.5 425,-41.5 425,-0.5 300,-0.5"/>
<text text-anchor="start" x="308" y="-29.5" font-family="Helvetica,sans-Serif" font-size="10.00">src/operational_tests</text>
<text text-anchor="start" x="308" y="-18.5" font-family="Helvetica,sans-Serif" font-size="10.00">/src/command/command</text>
<text text-anchor="middle" x="362.5" y="-7.5" font-family="Helvetica,sans-Serif" font-size="10.00">_test.cc</text>
</a>
</g>
</g>
<!-- Node1&#45;&gt;Node5 -->
<g id="edge5" class="edge"><title>Node1&#45;&gt;Node5</title>
<path fill="none" stroke="midnightblue" d="M306.444,-140.61C320.187,-132.702 334.178,-122.221 343.5,-109 357.577,-89.0368 361.515,-60.5756 362.467,-41.7105"/>
<polygon fill="midnightblue" stroke="midnightblue" points="304.637,-137.608 297.501,-145.438 307.963,-143.768 304.637,-137.608"/>
</g>
<!-- Node4 -->
<g id="node4" class="node"><title>Node4</title>
<g id="a_node4"><a xlink:href="../../d1/d26/open__command_8cc.html" target="_top" xlink:title="src/operational/src\l/command/open_command.cc">
<polygon fill="white" stroke="black" points="133.5,-6 133.5,-36 281.5,-36 281.5,-6 133.5,-6"/>
<text text-anchor="start" x="141.5" y="-24" font-family="Helvetica,sans-Serif" font-size="10.00">src/operational/src</text>
<text text-anchor="middle" x="207.5" y="-13" font-family="Helvetica,sans-Serif" font-size="10.00">/command/open_command.cc</text>
</a>
</g>
</g>
<!-- Node3&#45;&gt;Node4 -->
<g id="edge3" class="edge"><title>Node3&#45;&gt;Node4</title>
<path fill="none" stroke="midnightblue" d="M245.113,-70.2126C236.442,-59.0988 226.214,-45.9875 218.614,-36.2455"/>
<polygon fill="midnightblue" stroke="midnightblue" points="242.459,-72.5016 251.37,-78.2333 247.978,-68.1959 242.459,-72.5016"/>
</g>
<!-- Node3&#45;&gt;Node5 -->
<g id="edge4" class="edge"><title>Node3&#45;&gt;Node5</title>
<path fill="none" stroke="midnightblue" d="M291.282,-72.2088C304.939,-62.5808 321.188,-51.1248 334.715,-41.5884"/>
<polygon fill="midnightblue" stroke="midnightblue" points="288.893,-69.6106 282.736,-78.2333 292.926,-75.3318 288.893,-69.6106"/>
</g>
</g>
</svg>
