<?xml version="1.0" encoding="UTF-8" standalone="no"?>
<!DOCTYPE svg PUBLIC "-//W3C//DTD SVG 1.1//EN"
 "http://www.w3.org/Graphics/SVG/1.1/DTD/svg11.dtd">
<!-- Generated by graphviz version 2.38.0 (20140413.2041)
 -->
<!-- Title: src/structural/src/bridge/window.h Pages: 1 -->
<svg width="203pt" height="207pt"
 viewBox="0.00 0.00 203.00 207.00" xmlns="http://www.w3.org/2000/svg" xmlns:xlink="http://www.w3.org/1999/xlink">
<g id="graph0" class="graph" transform="scale(1 1) rotate(0) translate(4 203)">
<title>src/structural/src/bridge/window.h</title>
<polygon fill="white" stroke="none" points="-4,4 -4,-203 199,-203 199,4 -4,4"/>
<!-- Node1 -->
<g id="node1" class="node"><title>Node1</title>
<polygon fill="#bfbfbf" stroke="black" points="58.5,-168.5 58.5,-198.5 148.5,-198.5 148.5,-168.5 58.5,-168.5"/>
<text text-anchor="start" x="66.5" y="-186.5" font-family="Helvetica,sans-Serif" font-size="10.00">src/structural/src</text>
<text text-anchor="middle" x="103.5" y="-175.5" font-family="Helvetica,sans-Serif" font-size="10.00">/bridge/window.h</text>
</g>
<!-- Node2 -->
<g id="node2" class="node"><title>Node2</title>
<g id="a_node2"><a xlink:href="../../d5/d7d/window__interface_8h.html" target="_top" xlink:title="window_interface.h">
<polygon fill="white" stroke="black" points="1.5,-112.5 1.5,-131.5 99.5,-131.5 99.5,-112.5 1.5,-112.5"/>
<text text-anchor="middle" x="50.5" y="-119.5" font-family="Helvetica,sans-Serif" font-size="10.00">window_interface.h</text>
</a>
</g>
</g>
<!-- Node1&#45;&gt;Node2 -->
<g id="edge1" class="edge"><title>Node1&#45;&gt;Node2</title>
<path fill="none" stroke="midnightblue" d="M90.9397,-168.399C83.1588,-159.664 73.1364,-148.413 65.016,-139.296"/>
<polygon fill="midnightblue" stroke="midnightblue" points="67.4769,-136.797 58.212,-131.658 62.2499,-141.453 67.4769,-136.797"/>
</g>
<!-- Node5 -->
<g id="node5" class="node"><title>Node5</title>
<g id="a_node5"><a xlink:href="../../d5/d85/window__imp_8h.html" target="_top" xlink:title="window_imp.h">
<polygon fill="white" stroke="black" points="118,-112.5 118,-131.5 195,-131.5 195,-112.5 118,-112.5"/>
<text text-anchor="middle" x="156.5" y="-119.5" font-family="Helvetica,sans-Serif" font-size="10.00">window_imp.h</text>
</a>
</g>
</g>
<!-- Node1&#45;&gt;Node5 -->
<g id="edge4" class="edge"><title>Node1&#45;&gt;Node5</title>
<path fill="none" stroke="midnightblue" d="M116.06,-168.399C123.841,-159.664 133.864,-148.413 141.984,-139.296"/>
<polygon fill="midnightblue" stroke="midnightblue" points="144.75,-141.453 148.788,-131.658 139.523,-136.797 144.75,-141.453"/>
</g>
<!-- Node3 -->
<g id="node3" class="node"><title>Node3</title>
<g id="a_node3"><a xlink:href="../../d2/d91/point_8h.html" target="_top" xlink:title="../commons/point.h">
<polygon fill="white" stroke="black" points="0,-56.5 0,-75.5 101,-75.5 101,-56.5 0,-56.5"/>
<text text-anchor="middle" x="50.5" y="-63.5" font-family="Helvetica,sans-Serif" font-size="10.00">../commons/point.h</text>
</a>
</g>
</g>
<!-- Node2&#45;&gt;Node3 -->
<g id="edge2" class="edge"><title>Node2&#45;&gt;Node3</title>
<path fill="none" stroke="midnightblue" d="M50.5,-112.083C50.5,-105.006 50.5,-94.8611 50.5,-85.9865"/>
<polygon fill="midnightblue" stroke="midnightblue" points="54.0001,-85.751 50.5,-75.7511 47.0001,-85.7511 54.0001,-85.751"/>
</g>
<!-- Node4 -->
<g id="node4" class="node"><title>Node4</title>
<polygon fill="white" stroke="#bfbfbf" points="23.5,-0.5 23.5,-19.5 77.5,-19.5 77.5,-0.5 23.5,-0.5"/>
<text text-anchor="middle" x="50.5" y="-7.5" font-family="Helvetica,sans-Serif" font-size="10.00">iostream</text>
</g>
<!-- Node3&#45;&gt;Node4 -->
<g id="edge3" class="edge"><title>Node3&#45;&gt;Node4</title>
<path fill="none" stroke="midnightblue" d="M50.5,-56.083C50.5,-49.0059 50.5,-38.8611 50.5,-29.9865"/>
<polygon fill="midnightblue" stroke="midnightblue" points="54.0001,-29.751 50.5,-19.7511 47.0001,-29.7511 54.0001,-29.751"/>
</g>
<!-- Node6 -->
<g id="node6" class="node"><title>Node6</title>
<polygon fill="white" stroke="#bfbfbf" points="136,-56.5 136,-75.5 177,-75.5 177,-56.5 136,-56.5"/>
<text text-anchor="middle" x="156.5" y="-63.5" font-family="Helvetica,sans-Serif" font-size="10.00">string</text>
</g>
<!-- Node5&#45;&gt;Node6 -->
<g id="edge5" class="edge"><title>Node5&#45;&gt;Node6</title>
<path fill="none" stroke="midnightblue" d="M156.5,-112.083C156.5,-105.006 156.5,-94.8611 156.5,-85.9865"/>
<polygon fill="midnightblue" stroke="midnightblue" points="160,-85.751 156.5,-75.7511 153,-85.7511 160,-85.751"/>
</g>
</g>
</svg>
