<?xml version="1.0" encoding="UTF-8" standalone="no"?>
<!DOCTYPE svg PUBLIC "-//W3C//DTD SVG 1.1//EN"
 "http://www.w3.org/Graphics/SVG/1.1/DTD/svg11.dtd">
<!-- Generated by graphviz version 2.38.0 (20140413.2041)
 -->
<!-- Title: src/structural/src/decorator/compressing_stream.h Pages: 1 -->
<svg width="266pt" height="128pt"
 viewBox="0.00 0.00 265.50 128.00" xmlns="http://www.w3.org/2000/svg" xmlns:xlink="http://www.w3.org/1999/xlink">
<g id="graph0" class="graph" transform="scale(1 1) rotate(0) translate(4 124)">
<title>src/structural/src/decorator/compressing_stream.h</title>
<polygon fill="white" stroke="none" points="-4,4 -4,-124 261.5,-124 261.5,4 -4,4"/>
<!-- Node1 -->
<g id="node1" class="node"><title>Node1</title>
<polygon fill="#bfbfbf" stroke="black" points="69,-78.5 69,-119.5 188,-119.5 188,-78.5 69,-78.5"/>
<text text-anchor="start" x="77" y="-107.5" font-family="Helvetica,sans-Serif" font-size="10.00">src/structural/src</text>
<text text-anchor="start" x="77" y="-96.5" font-family="Helvetica,sans-Serif" font-size="10.00">/decorator/compressing</text>
<text text-anchor="middle" x="128.5" y="-85.5" font-family="Helvetica,sans-Serif" font-size="10.00">_stream.h</text>
</g>
<!-- Node2 -->
<g id="node2" class="node"><title>Node2</title>
<g id="a_node2"><a xlink:href="../../d4/ddd/compressing__stream_8cc.html" target="_top" xlink:title="src/structural/src\l/decorator/compressing\l_stream.cc">
<polygon fill="white" stroke="black" points="0,-0.5 0,-41.5 119,-41.5 119,-0.5 0,-0.5"/>
<text text-anchor="start" x="8" y="-29.5" font-family="Helvetica,sans-Serif" font-size="10.00">src/structural/src</text>
<text text-anchor="start" x="8" y="-18.5" font-family="Helvetica,sans-Serif" font-size="10.00">/decorator/compressing</text>
<text text-anchor="middle" x="59.5" y="-7.5" font-family="Helvetica,sans-Serif" font-size="10.00">_stream.cc</text>
</a>
</g>
</g>
<!-- Node1&#45;&gt;Node2 -->
<g id="edge1" class="edge"><title>Node1&#45;&gt;Node2</title>
<path fill="none" stroke="midnightblue" d="M103.91,-70.9158C95.0921,-61.2029 85.3298,-50.4502 77.209,-41.5056"/>
<polygon fill="midnightblue" stroke="midnightblue" points="101.418,-73.3769 110.731,-78.4281 106.6,-68.6716 101.418,-73.3769"/>
</g>
<!-- Node3 -->
<g id="node3" class="node"><title>Node3</title>
<g id="a_node3"><a xlink:href="../../d6/d1f/decorator__test_8cc.html" target="_top" xlink:title="src/structural_tests\l/src/decorator/decorator\l_test.cc">
<polygon fill="white" stroke="black" points="137.5,-0.5 137.5,-41.5 257.5,-41.5 257.5,-0.5 137.5,-0.5"/>
<text text-anchor="start" x="145.5" y="-29.5" font-family="Helvetica,sans-Serif" font-size="10.00">src/structural_tests</text>
<text text-anchor="start" x="145.5" y="-18.5" font-family="Helvetica,sans-Serif" font-size="10.00">/src/decorator/decorator</text>
<text text-anchor="middle" x="197.5" y="-7.5" font-family="Helvetica,sans-Serif" font-size="10.00">_test.cc</text>
</a>
</g>
</g>
<!-- Node1&#45;&gt;Node3 -->
<g id="edge2" class="edge"><title>Node1&#45;&gt;Node3</title>
<path fill="none" stroke="midnightblue" d="M153.09,-70.9158C161.908,-61.2029 171.67,-50.4502 179.791,-41.5056"/>
<polygon fill="midnightblue" stroke="midnightblue" points="150.4,-68.6716 146.269,-78.4281 155.582,-73.3769 150.4,-68.6716"/>
</g>
</g>
</svg>
