<?xml version="1.0" encoding="UTF-8" standalone="no"?>
<!DOCTYPE svg PUBLIC "-//W3C//DTD SVG 1.1//EN"
 "http://www.w3.org/Graphics/SVG/1.1/DTD/svg11.dtd">
<!-- Generated by graphviz version 2.38.0 (20140413.2041)
 -->
<!-- Title: structural::decorator::StreamDecorator Pages: 1 -->
<svg width="123pt" height="237pt"
 viewBox="0.00 0.00 123.00 237.00" xmlns="http://www.w3.org/2000/svg" xmlns:xlink="http://www.w3.org/1999/xlink">
<g id="graph0" class="graph" transform="scale(1 1) rotate(0) translate(4 233)">
<title>structural::decorator::StreamDecorator</title>
<polygon fill="white" stroke="none" points="-4,4 -4,-233 119,-233 119,4 -4,4"/>
<!-- Node1 -->
<g id="node1" class="node"><title>Node1</title>
<polygon fill="#bfbfbf" stroke="black" points="0.5,-0.5 0.5,-90.5 105.5,-90.5 105.5,-0.5 0.5,-0.5"/>
<text text-anchor="start" x="8.5" y="-78.5" font-family="Helvetica,sans-Serif" font-size="10.00">structural::decorator</text>
<text text-anchor="middle" x="53" y="-67.5" font-family="Helvetica,sans-Serif" font-size="10.00">::StreamDecorator</text>
<polyline fill="none" stroke="black" points="0.5,-60.5 105.5,-60.5 "/>
<text text-anchor="middle" x="53" y="-48.5" font-family="Helvetica,sans-Serif" font-size="10.00"> </text>
<polyline fill="none" stroke="black" points="0.5,-41.5 105.5,-41.5 "/>
<text text-anchor="start" x="8.5" y="-29.5" font-family="Helvetica,sans-Serif" font-size="10.00">+ StreamDecorator()</text>
<text text-anchor="start" x="8.5" y="-18.5" font-family="Helvetica,sans-Serif" font-size="10.00">+ PutInt()</text>
<text text-anchor="start" x="8.5" y="-7.5" font-family="Helvetica,sans-Serif" font-size="10.00">+ PutString()</text>
</g>
<!-- Node2 -->
<g id="node2" class="node"><title>Node2</title>
<g id="a_node2"><a xlink:href="../../d1/dbf/classstructural_1_1decorator_1_1_stream_interface.html" target="_top" xlink:title="{structural::decorator\l::StreamInterface\n||+ ~StreamInterface()\l+ PutInt()\l+ PutString()\l}">
<polygon fill="white" stroke="black" points="0,-138.5 0,-228.5 106,-228.5 106,-138.5 0,-138.5"/>
<text text-anchor="start" x="8" y="-216.5" font-family="Helvetica,sans-Serif" font-size="10.00">structural::decorator</text>
<text text-anchor="middle" x="53" y="-205.5" font-family="Helvetica,sans-Serif" font-size="10.00">::StreamInterface</text>
<polyline fill="none" stroke="black" points="0,-198.5 106,-198.5 "/>
<text text-anchor="middle" x="53" y="-186.5" font-family="Helvetica,sans-Serif" font-size="10.00"> </text>
<polyline fill="none" stroke="black" points="0,-179.5 106,-179.5 "/>
<text text-anchor="start" x="8" y="-167.5" font-family="Helvetica,sans-Serif" font-size="10.00">+ ~StreamInterface()</text>
<text text-anchor="start" x="8" y="-156.5" font-family="Helvetica,sans-Serif" font-size="10.00">+ PutInt()</text>
<text text-anchor="start" x="8" y="-145.5" font-family="Helvetica,sans-Serif" font-size="10.00">+ PutString()</text>
</a>
</g>
</g>
<!-- Node2&#45;&gt;Node1 -->
<g id="edge1" class="edge"><title>Node2&#45;&gt;Node1</title>
<path fill="none" stroke="midnightblue" d="M51.1589,-128.274C51.0971,-125.476 51.0433,-122.705 51,-120 50.8489,-110.555 50.9523,-100.429 51.1756,-90.8048"/>
<polygon fill="none" stroke="midnightblue" points="47.6646,-128.547 51.4139,-138.456 54.6624,-128.372 47.6646,-128.547"/>
</g>
<!-- Node2&#45;&gt;Node1 -->
<g id="edge2" class="edge"><title>Node2&#45;&gt;Node1</title>
<path fill="none" stroke="#404040" d="M53,-138.345C53,-127.062 53,-114.777 53,-102.969"/>
<polygon fill="none" stroke="#404040" points="53.0001,-102.899 49,-96.8992 53,-90.8992 57,-96.8991 53.0001,-102.899"/>
<text text-anchor="middle" x="84" y="-112" font-family="Helvetica,sans-Serif" font-size="10.00"> #component_</text>
</g>
</g>
</svg>
