<?xml version="1.0" encoding="UTF-8" standalone="no"?>
<!DOCTYPE svg PUBLIC "-//W3C//DTD SVG 1.1//EN"
 "http://www.w3.org/Graphics/SVG/1.1/DTD/svg11.dtd">
<!-- Generated by graphviz version 2.38.0 (20140413.2041)
 -->
<!-- Title: src/operational/src/strategy/array_compositor.cc Pages: 1 -->
<svg width="154pt" height="151pt"
 viewBox="0.00 0.00 154.00 151.00" xmlns="http://www.w3.org/2000/svg" xmlns:xlink="http://www.w3.org/1999/xlink">
<g id="graph0" class="graph" transform="scale(1 1) rotate(0) translate(4 147)">
<title>src/operational/src/strategy/array_compositor.cc</title>
<polygon fill="white" stroke="none" points="-4,4 -4,-147 150,-147 150,4 -4,4"/>
<!-- Node1 -->
<g id="node1" class="node"><title>Node1</title>
<polygon fill="#bfbfbf" stroke="black" points="0,-112.5 0,-142.5 146,-142.5 146,-112.5 0,-112.5"/>
<text text-anchor="start" x="8" y="-130.5" font-family="Helvetica,sans-Serif" font-size="10.00">src/operational/src</text>
<text text-anchor="middle" x="73" y="-119.5" font-family="Helvetica,sans-Serif" font-size="10.00">/strategy/array_compositor.cc</text>
</g>
<!-- Node2 -->
<g id="node2" class="node"><title>Node2</title>
<g id="a_node2"><a xlink:href="../../d1/df1/array__compositor_8h.html" target="_top" xlink:title="array_compositor.h">
<polygon fill="white" stroke="black" points="23,-56.5 23,-75.5 123,-75.5 123,-56.5 23,-56.5"/>
<text text-anchor="middle" x="73" y="-63.5" font-family="Helvetica,sans-Serif" font-size="10.00">array_compositor.h</text>
</a>
</g>
</g>
<!-- Node1&#45;&gt;Node2 -->
<g id="edge1" class="edge"><title>Node1&#45;&gt;Node2</title>
<path fill="none" stroke="midnightblue" d="M73,-112.399C73,-104.466 73,-94.458 73,-85.8583"/>
<polygon fill="midnightblue" stroke="midnightblue" points="76.5001,-85.6577 73,-75.6578 69.5001,-85.6578 76.5001,-85.6577"/>
</g>
<!-- Node3 -->
<g id="node3" class="node"><title>Node3</title>
<g id="a_node3"><a xlink:href="../../d0/d1f/compositor__interface_8h.html" target="_top" xlink:title="compositor_interface.h">
<polygon fill="white" stroke="black" points="15.5,-0.5 15.5,-19.5 130.5,-19.5 130.5,-0.5 15.5,-0.5"/>
<text text-anchor="middle" x="73" y="-7.5" font-family="Helvetica,sans-Serif" font-size="10.00">compositor_interface.h</text>
</a>
</g>
</g>
<!-- Node2&#45;&gt;Node3 -->
<g id="edge2" class="edge"><title>Node2&#45;&gt;Node3</title>
<path fill="none" stroke="midnightblue" d="M73,-56.083C73,-49.0059 73,-38.8611 73,-29.9865"/>
<polygon fill="midnightblue" stroke="midnightblue" points="76.5001,-29.751 73,-19.7511 69.5001,-29.7511 76.5001,-29.751"/>
</g>
</g>
</svg>
