<?xml version="1.0" encoding="UTF-8" standalone="no"?>
<!DOCTYPE svg PUBLIC "-//W3C//DTD SVG 1.1//EN"
 "http://www.w3.org/Graphics/SVG/1.1/DTD/svg11.dtd">
<!-- Generated by graphviz version 2.38.0 (20140413.2041)
 -->
<!-- Title: structural::facade::StatementNode Pages: 1 -->
<svg width="302pt" height="270pt"
 viewBox="0.00 0.00 302.00 270.00" xmlns="http://www.w3.org/2000/svg" xmlns:xlink="http://www.w3.org/1999/xlink">
<g id="graph0" class="graph" transform="scale(1 1) rotate(0) translate(4 266)">
<title>structural::facade::StatementNode</title>
<polygon fill="white" stroke="none" points="-4,4 -4,-266 298,-266 298,4 -4,4"/>
<!-- Node1 -->
<g id="node1" class="node"><title>Node1</title>
<polygon fill="#bfbfbf" stroke="black" points="88.5,-0.5 88.5,-112.5 201.5,-112.5 201.5,-0.5 88.5,-0.5"/>
<text text-anchor="start" x="96.5" y="-100.5" font-family="Helvetica,sans-Serif" font-size="10.00">structural::facade</text>
<text text-anchor="middle" x="145" y="-89.5" font-family="Helvetica,sans-Serif" font-size="10.00">::StatementNode</text>
<polyline fill="none" stroke="black" points="88.5,-82.5 201.5,-82.5 "/>
<text text-anchor="start" x="96.5" y="-70.5" font-family="Helvetica,sans-Serif" font-size="10.00"># children_</text>
<polyline fill="none" stroke="black" points="88.5,-63.5 201.5,-63.5 "/>
<text text-anchor="start" x="96.5" y="-51.5" font-family="Helvetica,sans-Serif" font-size="10.00">+ StatementNode()</text>
<text text-anchor="start" x="96.5" y="-40.5" font-family="Helvetica,sans-Serif" font-size="10.00">+ GetSourcePosition()</text>
<text text-anchor="start" x="96.5" y="-29.5" font-family="Helvetica,sans-Serif" font-size="10.00">+ Add()</text>
<text text-anchor="start" x="96.5" y="-18.5" font-family="Helvetica,sans-Serif" font-size="10.00">+ Remove()</text>
<text text-anchor="start" x="96.5" y="-7.5" font-family="Helvetica,sans-Serif" font-size="10.00">+ Traverse()</text>
</g>
<!-- Node2 -->
<g id="node2" class="node"><title>Node2</title>
<g id="a_node2"><a xlink:href="../../d9/d8e/classstructural_1_1facade_1_1_program_node_interface.html" target="_top" xlink:title="{structural::facade\l::ProgramNodeInterface\n||+ ~ProgramNodeInterface()\l+ GetSourcePosition()\l+ Add()\l+ Remove()\l+ Traverse()\l}">
<polygon fill="white" stroke="black" points="0,-149.5 0,-261.5 134,-261.5 134,-149.5 0,-149.5"/>
<text text-anchor="start" x="8" y="-249.5" font-family="Helvetica,sans-Serif" font-size="10.00">structural::facade</text>
<text text-anchor="middle" x="67" y="-238.5" font-family="Helvetica,sans-Serif" font-size="10.00">::ProgramNodeInterface</text>
<polyline fill="none" stroke="black" points="0,-231.5 134,-231.5 "/>
<text text-anchor="middle" x="67" y="-219.5" font-family="Helvetica,sans-Serif" font-size="10.00"> </text>
<polyline fill="none" stroke="black" points="0,-212.5 134,-212.5 "/>
<text text-anchor="start" x="8" y="-200.5" font-family="Helvetica,sans-Serif" font-size="10.00">+ ~ProgramNodeInterface()</text>
<text text-anchor="start" x="8" y="-189.5" font-family="Helvetica,sans-Serif" font-size="10.00">+ GetSourcePosition()</text>
<text text-anchor="start" x="8" y="-178.5" font-family="Helvetica,sans-Serif" font-size="10.00">+ Add()</text>
<text text-anchor="start" x="8" y="-167.5" font-family="Helvetica,sans-Serif" font-size="10.00">+ Remove()</text>
<text text-anchor="start" x="8" y="-156.5" font-family="Helvetica,sans-Serif" font-size="10.00">+ Traverse()</text>
</a>
</g>
</g>
<!-- Node2&#45;&gt;Node1 -->
<g id="edge1" class="edge"><title>Node2&#45;&gt;Node1</title>
<path fill="none" stroke="midnightblue" d="M101.057,-140.316C105.893,-131.203 110.832,-121.894 115.57,-112.965"/>
<polygon fill="none" stroke="midnightblue" points="97.8617,-138.87 96.2662,-149.344 104.045,-142.151 97.8617,-138.87"/>
</g>
<!-- Node3 -->
<g id="node3" class="node"><title>Node3</title>
<g id="a_node3"><a xlink:href="../../d6/d57/classstructural_1_1facade_1_1_statement_node_interface.html" target="_top" xlink:title="{structural::facade\l::StatementNodeInterface\n||+ ~StatementNodeInterface()\l+ statement()\l}">
<polygon fill="white" stroke="black" points="152,-166 152,-245 294,-245 294,-166 152,-166"/>
<text text-anchor="start" x="160" y="-233" font-family="Helvetica,sans-Serif" font-size="10.00">structural::facade</text>
<text text-anchor="middle" x="223" y="-222" font-family="Helvetica,sans-Serif" font-size="10.00">::StatementNodeInterface</text>
<polyline fill="none" stroke="black" points="152,-215 294,-215 "/>
<text text-anchor="middle" x="223" y="-203" font-family="Helvetica,sans-Serif" font-size="10.00"> </text>
<polyline fill="none" stroke="black" points="152,-196 294,-196 "/>
<text text-anchor="start" x="160" y="-184" font-family="Helvetica,sans-Serif" font-size="10.00">+ ~StatementNodeInterface()</text>
<text text-anchor="start" x="160" y="-173" font-family="Helvetica,sans-Serif" font-size="10.00">+ statement()</text>
</a>
</g>
</g>
<!-- Node3&#45;&gt;Node1 -->
<g id="edge2" class="edge"><title>Node3&#45;&gt;Node1</title>
<path fill="none" stroke="midnightblue" d="M197.721,-156.858C190.248,-142.776 182.006,-127.242 174.303,-112.724"/>
<polygon fill="none" stroke="midnightblue" points="194.727,-158.685 202.506,-165.877 200.911,-155.403 194.727,-158.685"/>
</g>
</g>
</svg>
