<?xml version="1.0" encoding="UTF-8" standalone="no"?>
<!DOCTYPE svg PUBLIC "-//W3C//DTD SVG 1.1//EN"
 "http://www.w3.org/Graphics/SVG/1.1/DTD/svg11.dtd">
<!-- Generated by graphviz version 2.38.0 (20140413.2041)
 -->
<!-- Title: src/operational/src/templatemethod/sample_application.h Pages: 1 -->
<svg width="330pt" height="128pt"
 viewBox="0.00 0.00 329.50 128.00" xmlns="http://www.w3.org/2000/svg" xmlns:xlink="http://www.w3.org/1999/xlink">
<g id="graph0" class="graph" transform="scale(1 1) rotate(0) translate(4 124)">
<title>src/operational/src/templatemethod/sample_application.h</title>
<polygon fill="white" stroke="none" points="-4,4 -4,-124 325.5,-124 325.5,4 -4,4"/>
<!-- Node1 -->
<g id="node1" class="node"><title>Node1</title>
<polygon fill="#bfbfbf" stroke="black" points="85,-78.5 85,-119.5 209,-119.5 209,-78.5 85,-78.5"/>
<text text-anchor="start" x="93" y="-107.5" font-family="Helvetica,sans-Serif" font-size="10.00">src/operational/src</text>
<text text-anchor="start" x="93" y="-96.5" font-family="Helvetica,sans-Serif" font-size="10.00">/templatemethod/sample</text>
<text text-anchor="middle" x="147" y="-85.5" font-family="Helvetica,sans-Serif" font-size="10.00">_application.h</text>
</g>
<!-- Node2 -->
<g id="node2" class="node"><title>Node2</title>
<g id="a_node2"><a xlink:href="../../de/da9/sample__application_8cc.html" target="_top" xlink:title="src/operational/src\l/templatemethod/sample\l_application.cc">
<polygon fill="white" stroke="black" points="0,-0.5 0,-41.5 124,-41.5 124,-0.5 0,-0.5"/>
<text text-anchor="start" x="8" y="-29.5" font-family="Helvetica,sans-Serif" font-size="10.00">src/operational/src</text>
<text text-anchor="start" x="8" y="-18.5" font-family="Helvetica,sans-Serif" font-size="10.00">/templatemethod/sample</text>
<text text-anchor="middle" x="62" y="-7.5" font-family="Helvetica,sans-Serif" font-size="10.00">_application.cc</text>
</a>
</g>
</g>
<!-- Node1&#45;&gt;Node2 -->
<g id="edge1" class="edge"><title>Node1&#45;&gt;Node2</title>
<path fill="none" stroke="midnightblue" d="M117.352,-71.4916C106.322,-61.6294 94.0174,-50.6273 83.8154,-41.5056"/>
<polygon fill="midnightblue" stroke="midnightblue" points="115.323,-74.3719 125.11,-78.4281 119.989,-69.1535 115.323,-74.3719"/>
</g>
<!-- Node3 -->
<g id="node3" class="node"><title>Node3</title>
<g id="a_node3"><a xlink:href="../../d3/d94/templatemethod__test_8cc.html" target="_top" xlink:title="src/operational_tests\l/src/templatemethod/templatemethod\l_test.cc">
<polygon fill="white" stroke="black" points="142.5,-0.5 142.5,-41.5 321.5,-41.5 321.5,-0.5 142.5,-0.5"/>
<text text-anchor="start" x="150.5" y="-29.5" font-family="Helvetica,sans-Serif" font-size="10.00">src/operational_tests</text>
<text text-anchor="start" x="150.5" y="-18.5" font-family="Helvetica,sans-Serif" font-size="10.00">/src/templatemethod/templatemethod</text>
<text text-anchor="middle" x="232" y="-7.5" font-family="Helvetica,sans-Serif" font-size="10.00">_test.cc</text>
</a>
</g>
</g>
<!-- Node1&#45;&gt;Node3 -->
<g id="edge2" class="edge"><title>Node1&#45;&gt;Node3</title>
<path fill="none" stroke="midnightblue" d="M176.648,-71.4916C187.678,-61.6294 199.983,-50.6273 210.185,-41.5056"/>
<polygon fill="midnightblue" stroke="midnightblue" points="174.011,-69.1535 168.89,-78.4281 178.677,-74.3719 174.011,-69.1535"/>
</g>
</g>
</svg>
