<?xml version="1.0" encoding="UTF-8" standalone="no"?>
<!DOCTYPE svg PUBLIC "-//W3C//DTD SVG 1.1//EN"
 "http://www.w3.org/Graphics/SVG/1.1/DTD/svg11.dtd">
<!-- Generated by graphviz version 2.38.0 (20140413.2041)
 -->
<!-- Title: src/operational/src/strategy/my_strategy.h Pages: 1 -->
<svg width="262pt" height="117pt"
 viewBox="0.00 0.00 261.50 117.00" xmlns="http://www.w3.org/2000/svg" xmlns:xlink="http://www.w3.org/1999/xlink">
<g id="graph0" class="graph" transform="scale(1 1) rotate(0) translate(4 113)">
<title>src/operational/src/strategy/my_strategy.h</title>
<polygon fill="white" stroke="none" points="-4,4 -4,-113 257.5,-113 257.5,4 -4,4"/>
<!-- Node1 -->
<g id="node1" class="node"><title>Node1</title>
<polygon fill="#bfbfbf" stroke="black" points="70.5,-78.5 70.5,-108.5 190.5,-108.5 190.5,-78.5 70.5,-78.5"/>
<text text-anchor="start" x="78.5" y="-96.5" font-family="Helvetica,sans-Serif" font-size="10.00">src/operational/src</text>
<text text-anchor="middle" x="130.5" y="-85.5" font-family="Helvetica,sans-Serif" font-size="10.00">/strategy/my_strategy.h</text>
</g>
<!-- Node2 -->
<g id="node2" class="node"><title>Node2</title>
<g id="a_node2"><a xlink:href="../../d9/d0c/my__strategy_8cc.html" target="_top" xlink:title="src/operational/src\l/strategy/my_strategy.cc">
<polygon fill="white" stroke="black" points="0,-6 0,-36 125,-36 125,-6 0,-6"/>
<text text-anchor="start" x="8" y="-24" font-family="Helvetica,sans-Serif" font-size="10.00">src/operational/src</text>
<text text-anchor="middle" x="62.5" y="-13" font-family="Helvetica,sans-Serif" font-size="10.00">/strategy/my_strategy.cc</text>
</a>
</g>
</g>
<!-- Node1&#45;&gt;Node2 -->
<g id="edge1" class="edge"><title>Node1&#45;&gt;Node2</title>
<path fill="none" stroke="midnightblue" d="M109.631,-70.8641C98.7804,-59.6142 85.8212,-46.1786 76.2403,-36.2455"/>
<polygon fill="midnightblue" stroke="midnightblue" points="107.278,-73.4655 116.739,-78.2333 112.316,-68.6059 107.278,-73.4655"/>
</g>
<!-- Node3 -->
<g id="node3" class="node"><title>Node3</title>
<g id="a_node3"><a xlink:href="../../d2/dba/strategy__test_8cc.html" target="_top" xlink:title="src/operational_tests\l/src/strategy/strategy\l_test.cc">
<polygon fill="white" stroke="black" points="143.5,-0.5 143.5,-41.5 253.5,-41.5 253.5,-0.5 143.5,-0.5"/>
<text text-anchor="start" x="151.5" y="-29.5" font-family="Helvetica,sans-Serif" font-size="10.00">src/operational_tests</text>
<text text-anchor="start" x="151.5" y="-18.5" font-family="Helvetica,sans-Serif" font-size="10.00">/src/strategy/strategy</text>
<text text-anchor="middle" x="198.5" y="-7.5" font-family="Helvetica,sans-Serif" font-size="10.00">_test.cc</text>
</a>
</g>
</g>
<!-- Node1&#45;&gt;Node3 -->
<g id="edge2" class="edge"><title>Node1&#45;&gt;Node3</title>
<path fill="none" stroke="midnightblue" d="M151.41,-70.8213C160.406,-61.4941 170.846,-50.6707 179.606,-41.5884"/>
<polygon fill="midnightblue" stroke="midnightblue" points="148.684,-68.6059 144.261,-78.2333 153.722,-73.4655 148.684,-68.6059"/>
</g>
</g>
</svg>
