<?xml version="1.0" encoding="UTF-8" standalone="no"?>
<!DOCTYPE svg PUBLIC "-//W3C//DTD SVG 1.1//EN"
 "http://www.w3.org/Graphics/SVG/1.1/DTD/svg11.dtd">
<!-- Generated by graphviz version 2.38.0 (20140413.2041)
 -->
<!-- Title: src/operational/src/visitor/bus_interface.h Pages: 1 -->
<svg width="911pt" height="407pt"
 viewBox="0.00 0.00 911.06 407.00" xmlns="http://www.w3.org/2000/svg" xmlns:xlink="http://www.w3.org/1999/xlink">
<g id="graph0" class="graph" transform="scale(1 1) rotate(0) translate(4 403)">
<title>src/operational/src/visitor/bus_interface.h</title>
<polygon fill="white" stroke="none" points="-4,4 -4,-403 907.057,-403 907.057,4 -4,4"/>
<!-- Node1 -->
<g id="node1" class="node"><title>Node1</title>
<polygon fill="#bfbfbf" stroke="black" points="644,-368.5 644,-398.5 757,-398.5 757,-368.5 644,-368.5"/>
<text text-anchor="start" x="652" y="-386.5" font-family="Helvetica,sans-Serif" font-size="10.00">src/operational/src</text>
<text text-anchor="middle" x="700.5" y="-375.5" font-family="Helvetica,sans-Serif" font-size="10.00">/visitor/bus_interface.h</text>
</g>
<!-- Node2 -->
<g id="node2" class="node"><title>Node2</title>
<g id="a_node2"><a xlink:href="../../d2/d43/equipment__visitor__interface_8h.html" target="_top" xlink:title="src/operational/src\l/visitor/equipment_visitor\l_interface.h">
<polygon fill="white" stroke="black" points="639.5,-290.5 639.5,-331.5 761.5,-331.5 761.5,-290.5 639.5,-290.5"/>
<text text-anchor="start" x="647.5" y="-319.5" font-family="Helvetica,sans-Serif" font-size="10.00">src/operational/src</text>
<text text-anchor="start" x="647.5" y="-308.5" font-family="Helvetica,sans-Serif" font-size="10.00">/visitor/equipment_visitor</text>
<text text-anchor="middle" x="700.5" y="-297.5" font-family="Helvetica,sans-Serif" font-size="10.00">_interface.h</text>
</a>
</g>
</g>
<!-- Node1&#45;&gt;Node2 -->
<g id="edge1" class="edge"><title>Node1&#45;&gt;Node2</title>
<path fill="none" stroke="midnightblue" d="M700.5,-357.982C700.5,-349.347 700.5,-339.762 700.5,-331.588"/>
<polygon fill="midnightblue" stroke="midnightblue" points="697,-358.233 700.5,-368.233 704,-358.233 697,-358.233"/>
</g>
<!-- Node3 -->
<g id="node3" class="node"><title>Node3</title>
<g id="a_node3"><a xlink:href="../../d8/d3b/visited__equipment__interface_8h.html" target="_top" xlink:title="src/operational/src\l/visitor/visited_equipment\l_interface.h">
<polygon fill="white" stroke="black" points="460,-212.5 460,-253.5 585,-253.5 585,-212.5 460,-212.5"/>
<text text-anchor="start" x="468" y="-241.5" font-family="Helvetica,sans-Serif" font-size="10.00">src/operational/src</text>
<text text-anchor="start" x="468" y="-230.5" font-family="Helvetica,sans-Serif" font-size="10.00">/visitor/visited_equipment</text>
<text text-anchor="middle" x="522.5" y="-219.5" font-family="Helvetica,sans-Serif" font-size="10.00">_interface.h</text>
</a>
</g>
</g>
<!-- Node2&#45;&gt;Node3 -->
<g id="edge2" class="edge"><title>Node2&#45;&gt;Node3</title>
<path fill="none" stroke="midnightblue" d="M645.388,-286.469C620.616,-275.892 591.726,-263.557 568.184,-253.506"/>
<polygon fill="midnightblue" stroke="midnightblue" points="644.089,-289.72 654.661,-290.428 646.838,-283.282 644.089,-289.72"/>
</g>
<!-- Node4 -->
<g id="node4" class="node"><title>Node4</title>
<g id="a_node4"><a xlink:href="../../dd/da3/operational_2src_2visitor_2bus_8h.html" target="_top" xlink:title="src/operational/src\l/visitor/bus.h">
<polygon fill="white" stroke="black" points="652,-145.5 652,-175.5 749,-175.5 749,-145.5 652,-145.5"/>
<text text-anchor="start" x="660" y="-163.5" font-family="Helvetica,sans-Serif" font-size="10.00">src/operational/src</text>
<text text-anchor="middle" x="700.5" y="-152.5" font-family="Helvetica,sans-Serif" font-size="10.00">/visitor/bus.h</text>
</a>
</g>
</g>
<!-- Node2&#45;&gt;Node4 -->
<g id="edge20" class="edge"><title>Node2&#45;&gt;Node4</title>
<path fill="none" stroke="midnightblue" d="M700.5,-280.219C700.5,-248.421 700.5,-199.397 700.5,-175.526"/>
<polygon fill="midnightblue" stroke="midnightblue" points="697,-280.28 700.5,-290.28 704,-280.28 697,-280.28"/>
</g>
<!-- Node17 -->
<g id="node17" class="node"><title>Node17</title>
<g id="a_node17"><a xlink:href="../../d4/d2c/pricing__visitor_8h.html" target="_top" xlink:title="src/operational/src\l/visitor/pricing_visitor.h">
<polygon fill="white" stroke="black" points="769.5,-218 769.5,-248 883.5,-248 883.5,-218 769.5,-218"/>
<text text-anchor="start" x="777.5" y="-236" font-family="Helvetica,sans-Serif" font-size="10.00">src/operational/src</text>
<text text-anchor="middle" x="826.5" y="-225" font-family="Helvetica,sans-Serif" font-size="10.00">/visitor/pricing_visitor.h</text>
</a>
</g>
</g>
<!-- Node2&#45;&gt;Node17 -->
<g id="edge21" class="edge"><title>Node2&#45;&gt;Node17</title>
<path fill="none" stroke="midnightblue" d="M741.698,-285.15C761.991,-272.91 785.726,-258.594 802.916,-248.225"/>
<polygon fill="midnightblue" stroke="midnightblue" points="739.703,-282.266 732.948,-290.428 743.319,-288.26 739.703,-282.266"/>
</g>
<!-- Node3&#45;&gt;Node4 -->
<g id="edge3" class="edge"><title>Node3&#45;&gt;Node4</title>
<path fill="none" stroke="midnightblue" d="M581.646,-208.574C609.251,-197.641 641.189,-184.991 665.002,-175.56"/>
<polygon fill="midnightblue" stroke="midnightblue" points="580.091,-205.425 572.083,-212.362 582.669,-211.933 580.091,-205.425"/>
</g>
<!-- Node7 -->
<g id="node7" class="node"><title>Node7</title>
<g id="a_node7"><a xlink:href="../../d8/d35/operational_2src_2visitor_2card_8h.html" target="_top" xlink:title="src/operational/src\l/visitor/card.h">
<polygon fill="white" stroke="black" points="299,-145.5 299,-175.5 396,-175.5 396,-145.5 299,-145.5"/>
<text text-anchor="start" x="307" y="-163.5" font-family="Helvetica,sans-Serif" font-size="10.00">src/operational/src</text>
<text text-anchor="middle" x="347.5" y="-152.5" font-family="Helvetica,sans-Serif" font-size="10.00">/visitor/card.h</text>
</a>
</g>
</g>
<!-- Node3&#45;&gt;Node7 -->
<g id="edge6" class="edge"><title>Node3&#45;&gt;Node7</title>
<path fill="none" stroke="midnightblue" d="M464.351,-208.574C437.212,-197.641 405.811,-184.991 382.4,-175.56"/>
<polygon fill="midnightblue" stroke="midnightblue" points="463.169,-211.871 473.753,-212.362 465.785,-205.379 463.169,-211.871"/>
</g>
<!-- Node9 -->
<g id="node9" class="node"><title>Node9</title>
<g id="a_node9"><a xlink:href="../../dc/dc0/operational_2src_2visitor_2chassis_8h.html" target="_top" xlink:title="src/operational/src\l/visitor/chassis.h">
<polygon fill="white" stroke="black" points="414,-145.5 414,-175.5 511,-175.5 511,-145.5 414,-145.5"/>
<text text-anchor="start" x="422" y="-163.5" font-family="Helvetica,sans-Serif" font-size="10.00">src/operational/src</text>
<text text-anchor="middle" x="462.5" y="-152.5" font-family="Helvetica,sans-Serif" font-size="10.00">/visitor/chassis.h</text>
</a>
</g>
</g>
<!-- Node3&#45;&gt;Node9 -->
<g id="edge9" class="edge"><title>Node3&#45;&gt;Node9</title>
<path fill="none" stroke="midnightblue" d="M499.289,-204.727C490.921,-194.895 481.81,-184.189 474.748,-175.892"/>
<polygon fill="midnightblue" stroke="midnightblue" points="496.64,-207.015 505.787,-212.362 501.971,-202.478 496.64,-207.015"/>
</g>
<!-- Node11 -->
<g id="node11" class="node"><title>Node11</title>
<g id="a_node11"><a xlink:href="../../d4/d9f/operational_2src_2visitor_2floppy__disk_8h.html" target="_top" xlink:title="src/operational/src\l/visitor/floppy_disk.h">
<polygon fill="white" stroke="black" points="529.5,-145.5 529.5,-175.5 633.5,-175.5 633.5,-145.5 529.5,-145.5"/>
<text text-anchor="start" x="537.5" y="-163.5" font-family="Helvetica,sans-Serif" font-size="10.00">src/operational/src</text>
<text text-anchor="middle" x="581.5" y="-152.5" font-family="Helvetica,sans-Serif" font-size="10.00">/visitor/floppy_disk.h</text>
</a>
</g>
</g>
<!-- Node3&#45;&gt;Node11 -->
<g id="edge12" class="edge"><title>Node3&#45;&gt;Node11</title>
<path fill="none" stroke="midnightblue" d="M545.569,-204.435C553.73,-194.683 562.581,-184.107 569.456,-175.892"/>
<polygon fill="midnightblue" stroke="midnightblue" points="542.669,-202.447 538.935,-212.362 548.037,-206.939 542.669,-202.447"/>
</g>
<!-- Node13 -->
<g id="node13" class="node"><title>Node13</title>
<g id="a_node13"><a xlink:href="../../da/dab/inventory_8h.html" target="_top" xlink:title="src/operational/src\l/visitor/inventory.h">
<polygon fill="white" stroke="black" points="146,-145.5 146,-175.5 243,-175.5 243,-145.5 146,-145.5"/>
<text text-anchor="start" x="154" y="-163.5" font-family="Helvetica,sans-Serif" font-size="10.00">src/operational/src</text>
<text text-anchor="middle" x="194.5" y="-152.5" font-family="Helvetica,sans-Serif" font-size="10.00">/visitor/inventory.h</text>
</a>
</g>
</g>
<!-- Node3&#45;&gt;Node13 -->
<g id="edge15" class="edge"><title>Node3&#45;&gt;Node13</title>
<path fill="none" stroke="midnightblue" d="M449.781,-216.37C386.845,-202.842 297.592,-183.658 243.005,-171.926"/>
<polygon fill="midnightblue" stroke="midnightblue" points="449.134,-219.811 459.646,-218.49 450.605,-212.967 449.134,-219.811"/>
</g>
<!-- Node5 -->
<g id="node5" class="node"><title>Node5</title>
<g id="a_node5"><a xlink:href="../../d9/d45/operational_2src_2visitor_2bus_8cc.html" target="_top" xlink:title="src/operational/src\l/visitor/bus.cc">
<polygon fill="white" stroke="black" points="737,-78.5 737,-108.5 834,-108.5 834,-78.5 737,-78.5"/>
<text text-anchor="start" x="745" y="-96.5" font-family="Helvetica,sans-Serif" font-size="10.00">src/operational/src</text>
<text text-anchor="middle" x="785.5" y="-85.5" font-family="Helvetica,sans-Serif" font-size="10.00">/visitor/bus.cc</text>
</a>
</g>
</g>
<!-- Node4&#45;&gt;Node5 -->
<g id="edge4" class="edge"><title>Node4&#45;&gt;Node5</title>
<path fill="none" stroke="midnightblue" d="M727.088,-139.168C740.086,-129.228 755.404,-117.514 767.092,-108.577"/>
<polygon fill="midnightblue" stroke="midnightblue" points="724.761,-136.541 718.944,-145.396 729.013,-142.102 724.761,-136.541"/>
</g>
<!-- Node6 -->
<g id="node6" class="node"><title>Node6</title>
<g id="a_node6"><a xlink:href="../../dc/d3a/visitor__test_8cc.html" target="_top" xlink:title="src/operational_tests\l/src/visitor/visitor\l_test.cc">
<polygon fill="white" stroke="black" points="450,-0.5 450,-41.5 557,-41.5 557,-0.5 450,-0.5"/>
<text text-anchor="start" x="458" y="-29.5" font-family="Helvetica,sans-Serif" font-size="10.00">src/operational_tests</text>
<text text-anchor="start" x="458" y="-18.5" font-family="Helvetica,sans-Serif" font-size="10.00">/src/visitor/visitor</text>
<text text-anchor="middle" x="503.5" y="-7.5" font-family="Helvetica,sans-Serif" font-size="10.00">_test.cc</text>
</a>
</g>
</g>
<!-- Node4&#45;&gt;Node6 -->
<g id="edge5" class="edge"><title>Node4&#45;&gt;Node6</title>
<path fill="none" stroke="midnightblue" d="M758.3,-142.397C795.252,-130.882 837.22,-116.482 842.5,-109 850.444,-97.7431 851.413,-88.5063 842.5,-78 806.563,-35.6395 643.48,-25.2753 557.28,-22.7723"/>
<polygon fill="midnightblue" stroke="midnightblue" points="757.067,-139.114 748.544,-145.408 759.131,-145.803 757.067,-139.114"/>
</g>
<!-- Node7&#45;&gt;Node6 -->
<g id="edge8" class="edge"><title>Node7&#45;&gt;Node6</title>
<path fill="none" stroke="midnightblue" d="M317.862,-139.077C297.225,-122.326 275.964,-98.1725 291.5,-78 310.721,-53.0424 393.694,-36.9495 449.956,-28.6903"/>
<polygon fill="midnightblue" stroke="midnightblue" points="315.905,-141.988 325.959,-145.33 320.184,-136.448 315.905,-141.988"/>
</g>
<!-- Node8 -->
<g id="node8" class="node"><title>Node8</title>
<g id="a_node8"><a xlink:href="../../d4/dc2/operational_2src_2visitor_2card_8cc.html" target="_top" xlink:title="src/operational/src\l/visitor/card.cc">
<polygon fill="white" stroke="black" points="301,-78.5 301,-108.5 398,-108.5 398,-78.5 301,-78.5"/>
<text text-anchor="start" x="309" y="-96.5" font-family="Helvetica,sans-Serif" font-size="10.00">src/operational/src</text>
<text text-anchor="middle" x="349.5" y="-85.5" font-family="Helvetica,sans-Serif" font-size="10.00">/visitor/card.cc</text>
</a>
</g>
</g>
<!-- Node7&#45;&gt;Node8 -->
<g id="edge7" class="edge"><title>Node7&#45;&gt;Node8</title>
<path fill="none" stroke="midnightblue" d="M348.251,-135.108C348.526,-126.154 348.829,-116.323 349.067,-108.577"/>
<polygon fill="midnightblue" stroke="midnightblue" points="344.743,-135.293 347.934,-145.396 351.74,-135.508 344.743,-135.293"/>
</g>
<!-- Node9&#45;&gt;Node6 -->
<g id="edge11" class="edge"><title>Node9&#45;&gt;Node6</title>
<path fill="none" stroke="midnightblue" d="M450.314,-135.92C443.414,-119.239 437.595,-96.6202 445.5,-78 451.626,-63.5699 463.493,-51.0474 474.906,-41.5253"/>
<polygon fill="midnightblue" stroke="midnightblue" points="447.319,-137.789 454.637,-145.45 453.693,-134.897 447.319,-137.789"/>
</g>
<!-- Node10 -->
<g id="node10" class="node"><title>Node10</title>
<g id="a_node10"><a xlink:href="../../d2/d10/operational_2src_2visitor_2chassis_8cc.html" target="_top" xlink:title="src/operational/src\l/visitor/chassis.cc">
<polygon fill="white" stroke="black" points="455,-78.5 455,-108.5 552,-108.5 552,-78.5 455,-78.5"/>
<text text-anchor="start" x="463" y="-96.5" font-family="Helvetica,sans-Serif" font-size="10.00">src/operational/src</text>
<text text-anchor="middle" x="503.5" y="-85.5" font-family="Helvetica,sans-Serif" font-size="10.00">/visitor/chassis.cc</text>
</a>
</g>
</g>
<!-- Node9&#45;&gt;Node10 -->
<g id="edge10" class="edge"><title>Node9&#45;&gt;Node10</title>
<path fill="none" stroke="midnightblue" d="M476.776,-136.867C482.71,-127.459 489.413,-116.833 494.621,-108.577"/>
<polygon fill="midnightblue" stroke="midnightblue" points="473.771,-135.071 471.396,-145.396 479.692,-138.805 473.771,-135.071"/>
</g>
<!-- Node11&#45;&gt;Node6 -->
<g id="edge14" class="edge"><title>Node11&#45;&gt;Node6</title>
<path fill="none" stroke="midnightblue" d="M578.736,-135.179C576.002,-118.255 570.681,-95.6502 560.5,-78 552.529,-64.1808 540.216,-51.4766 529.072,-41.6744"/>
<polygon fill="midnightblue" stroke="midnightblue" points="575.312,-135.963 580.185,-145.371 582.243,-134.978 575.312,-135.963"/>
</g>
<!-- Node12 -->
<g id="node12" class="node"><title>Node12</title>
<g id="a_node12"><a xlink:href="../../d5/d33/operational_2src_2visitor_2floppy__disk_8cc.html" target="_top" xlink:title="src/operational/src\l/visitor/floppy_disk.cc">
<polygon fill="white" stroke="black" points="608.5,-78.5 608.5,-108.5 718.5,-108.5 718.5,-78.5 608.5,-78.5"/>
<text text-anchor="start" x="616.5" y="-96.5" font-family="Helvetica,sans-Serif" font-size="10.00">src/operational/src</text>
<text text-anchor="middle" x="663.5" y="-85.5" font-family="Helvetica,sans-Serif" font-size="10.00">/visitor/floppy_disk.cc</text>
</a>
</g>
</g>
<!-- Node11&#45;&gt;Node12 -->
<g id="edge13" class="edge"><title>Node11&#45;&gt;Node12</title>
<path fill="none" stroke="midnightblue" d="M607.15,-139.168C619.689,-129.228 634.466,-117.514 645.742,-108.577"/>
<polygon fill="midnightblue" stroke="midnightblue" points="604.955,-136.441 599.293,-145.396 609.304,-141.927 604.955,-136.441"/>
</g>
<!-- Node14 -->
<g id="node14" class="node"><title>Node14</title>
<g id="a_node14"><a xlink:href="../../d1/dcc/inventory_8cc.html" target="_top" xlink:title="src/operational/src\l/visitor/inventory.cc">
<polygon fill="white" stroke="black" points="145,-78.5 145,-108.5 244,-108.5 244,-78.5 145,-78.5"/>
<text text-anchor="start" x="153" y="-96.5" font-family="Helvetica,sans-Serif" font-size="10.00">src/operational/src</text>
<text text-anchor="middle" x="194.5" y="-85.5" font-family="Helvetica,sans-Serif" font-size="10.00">/visitor/inventory.cc</text>
</a>
</g>
</g>
<!-- Node13&#45;&gt;Node14 -->
<g id="edge16" class="edge"><title>Node13&#45;&gt;Node14</title>
<path fill="none" stroke="midnightblue" d="M194.5,-135.108C194.5,-126.154 194.5,-116.323 194.5,-108.577"/>
<polygon fill="midnightblue" stroke="midnightblue" points="191,-135.396 194.5,-145.396 198,-135.396 191,-135.396"/>
</g>
<!-- Node15 -->
<g id="node15" class="node"><title>Node15</title>
<g id="a_node15"><a xlink:href="../../d4/dba/inventory__visitor_8h.html" target="_top" xlink:title="src/operational/src\l/visitor/inventory_visitor.h">
<polygon fill="white" stroke="black" points="2.5,-78.5 2.5,-108.5 126.5,-108.5 126.5,-78.5 2.5,-78.5"/>
<text text-anchor="start" x="10.5" y="-96.5" font-family="Helvetica,sans-Serif" font-size="10.00">src/operational/src</text>
<text text-anchor="middle" x="64.5" y="-85.5" font-family="Helvetica,sans-Serif" font-size="10.00">/visitor/inventory_visitor.h</text>
</a>
</g>
</g>
<!-- Node13&#45;&gt;Node15 -->
<g id="edge17" class="edge"><title>Node13&#45;&gt;Node15</title>
<path fill="none" stroke="midnightblue" d="M157.207,-140.853C136.652,-130.576 111.55,-118.025 92.653,-108.577"/>
<polygon fill="midnightblue" stroke="midnightblue" points="155.782,-144.054 166.292,-145.396 158.913,-137.793 155.782,-144.054"/>
</g>
<!-- Node15&#45;&gt;Node6 -->
<g id="edge19" class="edge"><title>Node15&#45;&gt;Node6</title>
<path fill="none" stroke="midnightblue" d="M136.674,-77.8397C253.965,-57.1458 379.888,-39.0113 449.729,-29.3161"/>
<polygon fill="midnightblue" stroke="midnightblue" points="136.039,-74.3976 126.804,-79.5909 137.262,-81.29 136.039,-74.3976"/>
</g>
<!-- Node16 -->
<g id="node16" class="node"><title>Node16</title>
<g id="a_node16"><a xlink:href="../../d3/d75/inventory__visitor_8cc.html" target="_top" xlink:title="src/operational/src\l/visitor/inventory_visitor.cc">
<polygon fill="white" stroke="black" points="0,-6 0,-36 129,-36 129,-6 0,-6"/>
<text text-anchor="start" x="8" y="-24" font-family="Helvetica,sans-Serif" font-size="10.00">src/operational/src</text>
<text text-anchor="middle" x="64.5" y="-13" font-family="Helvetica,sans-Serif" font-size="10.00">/visitor/inventory_visitor.cc</text>
</a>
</g>
</g>
<!-- Node15&#45;&gt;Node16 -->
<g id="edge18" class="edge"><title>Node15&#45;&gt;Node16</title>
<path fill="none" stroke="midnightblue" d="M64.5,-68.2317C64.5,-57.5679 64.5,-45.4145 64.5,-36.2455"/>
<polygon fill="midnightblue" stroke="midnightblue" points="61.0001,-68.2332 64.5,-78.2333 68.0001,-68.2333 61.0001,-68.2332"/>
</g>
<!-- Node17&#45;&gt;Node6 -->
<g id="edge23" class="edge"><title>Node17&#45;&gt;Node6</title>
<path fill="none" stroke="midnightblue" d="M861.529,-212.33C874.378,-203.115 887.486,-190.863 894.5,-176 914.176,-134.307 897.796,-105.101 860.5,-78 813.11,-43.5635 644.88,-29.5684 557.334,-24.5167"/>
<polygon fill="midnightblue" stroke="midnightblue" points="859.531,-209.456 853.189,-217.943 863.439,-215.263 859.531,-209.456"/>
</g>
<!-- Node18 -->
<g id="node18" class="node"><title>Node18</title>
<g id="a_node18"><a xlink:href="../../d8/d23/pricing__visitor_8cc.html" target="_top" xlink:title="src/operational/src\l/visitor/pricing_visitor.cc">
<polygon fill="white" stroke="black" points="767,-145.5 767,-175.5 886,-175.5 886,-145.5 767,-145.5"/>
<text text-anchor="start" x="775" y="-163.5" font-family="Helvetica,sans-Serif" font-size="10.00">src/operational/src</text>
<text text-anchor="middle" x="826.5" y="-152.5" font-family="Helvetica,sans-Serif" font-size="10.00">/visitor/pricing_visitor.cc</text>
</a>
</g>
</g>
<!-- Node17&#45;&gt;Node18 -->
<g id="edge22" class="edge"><title>Node17&#45;&gt;Node18</title>
<path fill="none" stroke="midnightblue" d="M826.5,-207.732C826.5,-197.068 826.5,-184.914 826.5,-175.746"/>
<polygon fill="midnightblue" stroke="midnightblue" points="823,-207.733 826.5,-217.733 830,-207.733 823,-207.733"/>
</g>
</g>
</svg>
