<?xml version="1.0" encoding="UTF-8" standalone="no"?>
<!DOCTYPE svg PUBLIC "-//W3C//DTD SVG 1.1//EN"
 "http://www.w3.org/Graphics/SVG/1.1/DTD/svg11.dtd">
<!-- Generated by graphviz version 2.38.0 (20140413.2041)
 -->
<!-- Title: structural::decorator::CompressingStream::PutString Pages: 1 -->
<svg width="298pt" height="100pt"
 viewBox="0.00 0.00 298.00 99.50" xmlns="http://www.w3.org/2000/svg" xmlns:xlink="http://www.w3.org/1999/xlink">
<g id="graph0" class="graph" transform="scale(1 1) rotate(0) translate(4 95.5)">
<title>structural::decorator::CompressingStream::PutString</title>
<polygon fill="white" stroke="none" points="-4,4 -4,-95.5 294,-95.5 294,4 -4,4"/>
<!-- Node1 -->
<g id="node1" class="node"><title>Node1</title>
<polygon fill="#bfbfbf" stroke="black" points="0,-22 0,-63 117,-63 117,-22 0,-22"/>
<text text-anchor="start" x="8" y="-51" font-family="Helvetica,sans-Serif" font-size="10.00">structural::decorator</text>
<text text-anchor="start" x="8" y="-40" font-family="Helvetica,sans-Serif" font-size="10.00">::CompressingStream::</text>
<text text-anchor="middle" x="58.5" y="-29" font-family="Helvetica,sans-Serif" font-size="10.00">PutString</text>
</g>
<!-- Node2 -->
<g id="node2" class="node"><title>Node2</title>
<g id="a_node2"><a xlink:href="../../d6/d17/classstructural_1_1decorator_1_1_compressing_stream.html#a728488292f305152d577f73ca14a679d" target="_top" xlink:title="structural::decorator\l::CompressingStream::\lmessage">
<polygon fill="white" stroke="black" points="163,-50 163,-91 280,-91 280,-50 163,-50"/>
<text text-anchor="start" x="171" y="-79" font-family="Helvetica,sans-Serif" font-size="10.00">structural::decorator</text>
<text text-anchor="start" x="171" y="-68" font-family="Helvetica,sans-Serif" font-size="10.00">::CompressingStream::</text>
<text text-anchor="middle" x="221.5" y="-57" font-family="Helvetica,sans-Serif" font-size="10.00">message</text>
</a>
</g>
</g>
<!-- Node1&#45;&gt;Node2 -->
<g id="edge1" class="edge"><title>Node1&#45;&gt;Node2</title>
<path fill="none" stroke="midnightblue" d="M117.17,-52.5296C128.801,-54.5524 141.125,-56.6957 153.056,-58.7707"/>
<polygon fill="midnightblue" stroke="midnightblue" points="152.51,-62.2282 162.962,-60.4934 153.71,-55.3317 152.51,-62.2282"/>
</g>
<!-- Node3 -->
<g id="node3" class="node"><title>Node3</title>
<g id="a_node3"><a xlink:href="../../d1/dbf/classstructural_1_1decorator_1_1_stream_interface.html#a3ffa25c0bb3d94f0eddae9866aa2694b" target="_top" xlink:title="structural::decorator\l::StreamInterface::PutString">
<polygon fill="white" stroke="black" points="153,-0.5 153,-30.5 290,-30.5 290,-0.5 153,-0.5"/>
<text text-anchor="start" x="161" y="-18.5" font-family="Helvetica,sans-Serif" font-size="10.00">structural::decorator</text>
<text text-anchor="middle" x="221.5" y="-7.5" font-family="Helvetica,sans-Serif" font-size="10.00">::StreamInterface::PutString</text>
</a>
</g>
</g>
<!-- Node1&#45;&gt;Node3 -->
<g id="edge2" class="edge"><title>Node1&#45;&gt;Node3</title>
<path fill="none" stroke="midnightblue" d="M117.17,-32.8286C125.471,-31.4365 134.125,-29.9852 142.737,-28.5409"/>
<polygon fill="midnightblue" stroke="midnightblue" points="143.521,-31.9584 152.805,-26.8526 142.364,-25.0548 143.521,-31.9584"/>
</g>
</g>
</svg>
