<?xml version="1.0" encoding="UTF-8" standalone="no"?>
<!DOCTYPE svg PUBLIC "-//W3C//DTD SVG 1.1//EN"
 "http://www.w3.org/Graphics/SVG/1.1/DTD/svg11.dtd">
<!-- Generated by graphviz version 2.38.0 (20140413.2041)
 -->
<!-- Title: src/structural/src/bridge/bitmap.h Pages: 1 -->
<svg width="332pt" height="173pt"
 viewBox="0.00 0.00 331.50 173.00" xmlns="http://www.w3.org/2000/svg" xmlns:xlink="http://www.w3.org/1999/xlink">
<g id="graph0" class="graph" transform="scale(1 1) rotate(0) translate(4 169)">
<title>src/structural/src/bridge/bitmap.h</title>
<polygon fill="white" stroke="none" points="-4,4 -4,-169 327.5,-169 327.5,4 -4,4"/>
<!-- Node1 -->
<g id="node1" class="node"><title>Node1</title>
<polygon fill="#bfbfbf" stroke="black" points="75,-134.5 75,-164.5 165,-164.5 165,-134.5 75,-134.5"/>
<text text-anchor="start" x="83" y="-152.5" font-family="Helvetica,sans-Serif" font-size="10.00">src/structural/src</text>
<text text-anchor="middle" x="120" y="-141.5" font-family="Helvetica,sans-Serif" font-size="10.00">/bridge/bitmap.h</text>
</g>
<!-- Node2 -->
<g id="node2" class="node"><title>Node2</title>
<g id="a_node2"><a xlink:href="../../d4/d13/bitmap_8cc.html" target="_top" xlink:title="src/structural/src\l/bridge/bitmap.cc">
<polygon fill="white" stroke="black" points="0,-67.5 0,-97.5 92,-97.5 92,-67.5 0,-67.5"/>
<text text-anchor="start" x="8" y="-85.5" font-family="Helvetica,sans-Serif" font-size="10.00">src/structural/src</text>
<text text-anchor="middle" x="46" y="-74.5" font-family="Helvetica,sans-Serif" font-size="10.00">/bridge/bitmap.cc</text>
</a>
</g>
</g>
<!-- Node1&#45;&gt;Node2 -->
<g id="edge1" class="edge"><title>Node1&#45;&gt;Node2</title>
<path fill="none" stroke="midnightblue" d="M96.2036,-127.598C85.0299,-117.783 72.0072,-106.344 62.0256,-97.5765"/>
<polygon fill="midnightblue" stroke="midnightblue" points="94.1201,-130.426 103.943,-134.396 98.7397,-125.167 94.1201,-130.426"/>
</g>
<!-- Node3 -->
<g id="node3" class="node"><title>Node3</title>
<g id="a_node3"><a xlink:href="../../dd/ddd/icon__window_8h.html" target="_top" xlink:title="src/structural/src\l/bridge/icon_window.h">
<polygon fill="white" stroke="black" points="148,-67.5 148,-97.5 260,-97.5 260,-67.5 148,-67.5"/>
<text text-anchor="start" x="156" y="-85.5" font-family="Helvetica,sans-Serif" font-size="10.00">src/structural/src</text>
<text text-anchor="middle" x="204" y="-74.5" font-family="Helvetica,sans-Serif" font-size="10.00">/bridge/icon_window.h</text>
</a>
</g>
</g>
<!-- Node1&#45;&gt;Node3 -->
<g id="edge2" class="edge"><title>Node1&#45;&gt;Node3</title>
<path fill="none" stroke="midnightblue" d="M146.276,-128.168C159.12,-118.228 174.258,-106.514 185.809,-97.5765"/>
<polygon fill="midnightblue" stroke="midnightblue" points="143.994,-125.508 138.227,-134.396 148.277,-131.044 143.994,-125.508"/>
</g>
<!-- Node4 -->
<g id="node4" class="node"><title>Node4</title>
<g id="a_node4"><a xlink:href="../../d3/d27/icon__window_8cc.html" target="_top" xlink:title="src/structural/src\l/bridge/icon_window.cc">
<polygon fill="white" stroke="black" points="61.5,-0.5 61.5,-30.5 178.5,-30.5 178.5,-0.5 61.5,-0.5"/>
<text text-anchor="start" x="69.5" y="-18.5" font-family="Helvetica,sans-Serif" font-size="10.00">src/structural/src</text>
<text text-anchor="middle" x="120" y="-7.5" font-family="Helvetica,sans-Serif" font-size="10.00">/bridge/icon_window.cc</text>
</a>
</g>
</g>
<!-- Node1&#45;&gt;Node4 -->
<g id="edge5" class="edge"><title>Node1&#45;&gt;Node4</title>
<path fill="none" stroke="midnightblue" d="M120,-124.024C120,-96.5121 120,-52.7894 120,-30.5247"/>
<polygon fill="midnightblue" stroke="midnightblue" points="116.5,-124.374 120,-134.374 123.5,-124.374 116.5,-124.374"/>
</g>
<!-- Node3&#45;&gt;Node4 -->
<g id="edge3" class="edge"><title>Node3&#45;&gt;Node4</title>
<path fill="none" stroke="midnightblue" d="M177.724,-61.1677C164.88,-51.2283 149.742,-39.5144 138.191,-30.5765"/>
<polygon fill="midnightblue" stroke="midnightblue" points="175.723,-64.0442 185.773,-67.396 180.006,-58.508 175.723,-64.0442"/>
</g>
<!-- Node5 -->
<g id="node5" class="node"><title>Node5</title>
<g id="a_node5"><a xlink:href="../../d5/de6/bridge__test_8cc.html" target="_top" xlink:title="src/structural_tests\l/src/bridge/bridge_test.cc">
<polygon fill="white" stroke="black" points="196.5,-0.5 196.5,-30.5 323.5,-30.5 323.5,-0.5 196.5,-0.5"/>
<text text-anchor="start" x="204.5" y="-18.5" font-family="Helvetica,sans-Serif" font-size="10.00">src/structural_tests</text>
<text text-anchor="middle" x="260" y="-7.5" font-family="Helvetica,sans-Serif" font-size="10.00">/src/bridge/bridge_test.cc</text>
</a>
</g>
</g>
<!-- Node3&#45;&gt;Node5 -->
<g id="edge4" class="edge"><title>Node3&#45;&gt;Node5</title>
<path fill="none" stroke="midnightblue" d="M222.75,-59.7362C231.036,-50.119 240.539,-39.0888 247.873,-30.5765"/>
<polygon fill="midnightblue" stroke="midnightblue" points="220.027,-57.5354 216.151,-67.396 225.33,-62.1044 220.027,-57.5354"/>
</g>
</g>
</svg>
