<?xml version="1.0" encoding="UTF-8" standalone="no"?>
<!DOCTYPE svg PUBLIC "-//W3C//DTD SVG 1.1//EN"
 "http://www.w3.org/Graphics/SVG/1.1/DTD/svg11.dtd">
<!-- Generated by graphviz version 2.38.0 (20140413.2041)
 -->
<!-- Title: operational::interpreter::OrExp::Replace Pages: 1 -->
<svg width="275pt" height="100pt"
 viewBox="0.00 0.00 275.00 99.50" xmlns="http://www.w3.org/2000/svg" xmlns:xlink="http://www.w3.org/1999/xlink">
<g id="graph0" class="graph" transform="scale(1 1) rotate(0) translate(4 95.5)">
<title>operational::interpreter::OrExp::Replace</title>
<polygon fill="white" stroke="none" points="-4,4 -4,-95.5 271,-95.5 271,4 -4,4"/>
<!-- Node1 -->
<g id="node1" class="node"><title>Node1</title>
<polygon fill="#bfbfbf" stroke="black" points="0,-33 0,-63 113,-63 113,-33 0,-33"/>
<text text-anchor="start" x="8" y="-51" font-family="Helvetica,sans-Serif" font-size="10.00">operational::interpreter</text>
<text text-anchor="middle" x="56.5" y="-40" font-family="Helvetica,sans-Serif" font-size="10.00">::OrExp::Replace</text>
</g>
<!-- Node2 -->
<g id="node2" class="node"><title>Node2</title>
<g id="a_node2"><a xlink:href="../../d2/d75/classoperational_1_1interpreter_1_1_or_exp.html#aa7cc7fe0cce9f5e470a3a4e39a7d2818" target="_top" xlink:title="operational::interpreter\l::OrExp::OrExp">
<polygon fill="white" stroke="black" points="151.5,-61 151.5,-91 264.5,-91 264.5,-61 151.5,-61"/>
<text text-anchor="start" x="159.5" y="-79" font-family="Helvetica,sans-Serif" font-size="10.00">operational::interpreter</text>
<text text-anchor="middle" x="208" y="-68" font-family="Helvetica,sans-Serif" font-size="10.00">::OrExp::OrExp</text>
</a>
</g>
</g>
<!-- Node1&#45;&gt;Node2 -->
<g id="edge1" class="edge"><title>Node1&#45;&gt;Node2</title>
<path fill="none" stroke="midnightblue" d="M113.168,-58.4262C122.313,-60.1389 131.866,-61.9282 141.229,-63.6817"/>
<polygon fill="midnightblue" stroke="midnightblue" points="140.812,-67.1643 151.285,-65.5651 142.1,-60.284 140.812,-67.1643"/>
</g>
<!-- Node3 -->
<g id="node3" class="node"><title>Node3</title>
<g id="a_node3"><a xlink:href="../../d0/d5f/classoperational_1_1interpreter_1_1_boolean_exp_interface.html#ae4e45663fa9e061438ab1e16a2e684f2" target="_top" xlink:title="operational::interpreter\l::BooleanExpInterface::\lReplace">
<polygon fill="white" stroke="black" points="149,-0.5 149,-41.5 267,-41.5 267,-0.5 149,-0.5"/>
<text text-anchor="start" x="157" y="-29.5" font-family="Helvetica,sans-Serif" font-size="10.00">operational::interpreter</text>
<text text-anchor="start" x="157" y="-18.5" font-family="Helvetica,sans-Serif" font-size="10.00">::BooleanExpInterface::</text>
<text text-anchor="middle" x="208" y="-7.5" font-family="Helvetica,sans-Serif" font-size="10.00">Replace</text>
</a>
</g>
</g>
<!-- Node1&#45;&gt;Node3 -->
<g id="edge2" class="edge"><title>Node1&#45;&gt;Node3</title>
<path fill="none" stroke="midnightblue" d="M113.168,-37.9462C121.522,-36.4375 130.216,-34.8673 138.795,-33.318"/>
<polygon fill="midnightblue" stroke="midnightblue" points="139.566,-36.7354 148.785,-31.5138 138.322,-29.8469 139.566,-36.7354"/>
</g>
</g>
</svg>
