<?xml version="1.0" encoding="UTF-8" standalone="no"?>
<!DOCTYPE svg PUBLIC "-//W3C//DTD SVG 1.1//EN"
 "http://www.w3.org/Graphics/SVG/1.1/DTD/svg11.dtd">
<!-- Generated by graphviz version 2.38.0 (20140413.2041)
 -->
<!-- Title: src/structural/src/proxy/event.h Pages: 1 -->
<svg width="508pt" height="329pt"
 viewBox="0.00 0.00 507.62 329.00" xmlns="http://www.w3.org/2000/svg" xmlns:xlink="http://www.w3.org/1999/xlink">
<g id="graph0" class="graph" transform="scale(1 1) rotate(0) translate(4 325)">
<title>src/structural/src/proxy/event.h</title>
<polygon fill="white" stroke="none" points="-4,4 -4,-325 503.621,-325 503.621,4 -4,4"/>
<!-- Node1 -->
<g id="node1" class="node"><title>Node1</title>
<polygon fill="#bfbfbf" stroke="black" points="193.5,-290.5 193.5,-320.5 283.5,-320.5 283.5,-290.5 193.5,-290.5"/>
<text text-anchor="start" x="201.5" y="-308.5" font-family="Helvetica,sans-Serif" font-size="10.00">src/structural/src</text>
<text text-anchor="middle" x="238.5" y="-297.5" font-family="Helvetica,sans-Serif" font-size="10.00">/proxy/event.h</text>
</g>
<!-- Node2 -->
<g id="node2" class="node"><title>Node2</title>
<g id="a_node2"><a xlink:href="../../d1/dda/graphic__interface_8h.html" target="_top" xlink:title="src/structural/src\l/proxy/graphic_interface.h">
<polygon fill="white" stroke="black" points="220.5,-223.5 220.5,-253.5 348.5,-253.5 348.5,-223.5 220.5,-223.5"/>
<text text-anchor="start" x="228.5" y="-241.5" font-family="Helvetica,sans-Serif" font-size="10.00">src/structural/src</text>
<text text-anchor="middle" x="284.5" y="-230.5" font-family="Helvetica,sans-Serif" font-size="10.00">/proxy/graphic_interface.h</text>
</a>
</g>
</g>
<!-- Node1&#45;&gt;Node2 -->
<g id="edge1" class="edge"><title>Node1&#45;&gt;Node2</title>
<path fill="none" stroke="midnightblue" d="M254.312,-282.157C261.02,-272.679 268.635,-261.919 274.538,-253.577"/>
<polygon fill="midnightblue" stroke="midnightblue" points="251.401,-280.211 248.481,-290.396 257.115,-284.255 251.401,-280.211"/>
</g>
<!-- Node3 -->
<g id="node3" class="node"><title>Node3</title>
<g id="a_node3"><a xlink:href="../../d5/db2/image_8h.html" target="_top" xlink:title="src/structural/src\l/proxy/image.h">
<polygon fill="white" stroke="black" points="147.5,-156.5 147.5,-186.5 237.5,-186.5 237.5,-156.5 147.5,-156.5"/>
<text text-anchor="start" x="155.5" y="-174.5" font-family="Helvetica,sans-Serif" font-size="10.00">src/structural/src</text>
<text text-anchor="middle" x="192.5" y="-163.5" font-family="Helvetica,sans-Serif" font-size="10.00">/proxy/image.h</text>
</a>
</g>
</g>
<!-- Node1&#45;&gt;Node3 -->
<g id="edge14" class="edge"><title>Node1&#45;&gt;Node3</title>
<path fill="none" stroke="midnightblue" d="M224.58,-281.529C219.914,-273.097 215.012,-263.329 211.5,-254 202.901,-231.156 197.406,-203.196 194.644,-186.672"/>
<polygon fill="midnightblue" stroke="midnightblue" points="221.648,-283.454 229.659,-290.387 227.721,-279.971 221.648,-283.454"/>
</g>
<!-- Node2&#45;&gt;Node3 -->
<g id="edge2" class="edge"><title>Node2&#45;&gt;Node3</title>
<path fill="none" stroke="midnightblue" d="M256.123,-217.451C241.97,-207.452 225.195,-195.6 212.424,-186.577"/>
<polygon fill="midnightblue" stroke="midnightblue" points="254.351,-220.484 264.537,-223.396 258.39,-214.767 254.351,-220.484"/>
</g>
<!-- Node5 -->
<g id="node5" class="node"><title>Node5</title>
<g id="a_node5"><a xlink:href="../../dc/dca/image__proxy_8h.html" target="_top" xlink:title="src/structural/src\l/proxy/image_proxy.h">
<polygon fill="white" stroke="black" points="229.5,-84 229.5,-114 339.5,-114 339.5,-84 229.5,-84"/>
<text text-anchor="start" x="237.5" y="-102" font-family="Helvetica,sans-Serif" font-size="10.00">src/structural/src</text>
<text text-anchor="middle" x="284.5" y="-91" font-family="Helvetica,sans-Serif" font-size="10.00">/proxy/image_proxy.h</text>
</a>
</g>
</g>
<!-- Node2&#45;&gt;Node5 -->
<g id="edge10" class="edge"><title>Node2&#45;&gt;Node5</title>
<path fill="none" stroke="midnightblue" d="M284.5,-213.287C284.5,-184.607 284.5,-137.775 284.5,-114.326"/>
<polygon fill="midnightblue" stroke="midnightblue" points="281,-213.303 284.5,-223.303 288,-213.303 281,-213.303"/>
</g>
<!-- Node10 -->
<g id="node10" class="node"><title>Node10</title>
<g id="a_node10"><a xlink:href="../../d9/d4b/text__document_8h.html" target="_top" xlink:title="src/structural/src\l/proxy/text_document.h">
<polygon fill="white" stroke="black" points="361,-156.5 361,-186.5 480,-186.5 480,-156.5 361,-156.5"/>
<text text-anchor="start" x="369" y="-174.5" font-family="Helvetica,sans-Serif" font-size="10.00">src/structural/src</text>
<text text-anchor="middle" x="420.5" y="-163.5" font-family="Helvetica,sans-Serif" font-size="10.00">/proxy/text_document.h</text>
</a>
</g>
</g>
<!-- Node2&#45;&gt;Node10 -->
<g id="edge11" class="edge"><title>Node2&#45;&gt;Node10</title>
<path fill="none" stroke="midnightblue" d="M323.224,-218.992C344.781,-208.689 371.189,-196.068 391.048,-186.577"/>
<polygon fill="midnightblue" stroke="midnightblue" points="321.523,-215.926 314.01,-223.396 324.542,-222.242 321.523,-215.926"/>
</g>
<!-- Node4 -->
<g id="node4" class="node"><title>Node4</title>
<g id="a_node4"><a xlink:href="../../db/d4d/image_8cc.html" target="_top" xlink:title="src/structural/src\l/proxy/image.cc">
<polygon fill="white" stroke="black" points="121.5,-84 121.5,-114 211.5,-114 211.5,-84 121.5,-84"/>
<text text-anchor="start" x="129.5" y="-102" font-family="Helvetica,sans-Serif" font-size="10.00">src/structural/src</text>
<text text-anchor="middle" x="166.5" y="-91" font-family="Helvetica,sans-Serif" font-size="10.00">/proxy/image.cc</text>
</a>
</g>
</g>
<!-- Node3&#45;&gt;Node4 -->
<g id="edge3" class="edge"><title>Node3&#45;&gt;Node4</title>
<path fill="none" stroke="midnightblue" d="M183.673,-146.564C179.711,-135.821 175.17,-123.51 171.754,-114.246"/>
<polygon fill="midnightblue" stroke="midnightblue" points="180.495,-148.062 187.239,-156.233 187.062,-145.64 180.495,-148.062"/>
</g>
<!-- Node3&#45;&gt;Node5 -->
<g id="edge4" class="edge"><title>Node3&#45;&gt;Node5</title>
<path fill="none" stroke="midnightblue" d="M219.108,-150.11C234.221,-138.529 252.753,-124.328 266.224,-114.005"/>
<polygon fill="midnightblue" stroke="midnightblue" points="216.926,-147.373 211.118,-156.233 221.184,-152.929 216.926,-147.373"/>
</g>
<!-- Node8 -->
<g id="node8" class="node"><title>Node8</title>
<g id="a_node8"><a xlink:href="../../d8/dbb/virtual__image__proxy_8h.html" target="_top" xlink:title="src/structural/src\l/proxy/virtual_image\l_proxy.h">
<polygon fill="white" stroke="black" points="0,-78.5 0,-119.5 103,-119.5 103,-78.5 0,-78.5"/>
<text text-anchor="start" x="8" y="-107.5" font-family="Helvetica,sans-Serif" font-size="10.00">src/structural/src</text>
<text text-anchor="start" x="8" y="-96.5" font-family="Helvetica,sans-Serif" font-size="10.00">/proxy/virtual_image</text>
<text text-anchor="middle" x="51.5" y="-85.5" font-family="Helvetica,sans-Serif" font-size="10.00">_proxy.h</text>
</a>
</g>
</g>
<!-- Node3&#45;&gt;Node8 -->
<g id="edge7" class="edge"><title>Node3&#45;&gt;Node8</title>
<path fill="none" stroke="midnightblue" d="M155.22,-151.86C135.297,-141.898 110.785,-129.642 90.5928,-119.546"/>
<polygon fill="midnightblue" stroke="midnightblue" points="153.796,-155.061 164.305,-156.403 156.926,-148.8 153.796,-155.061"/>
</g>
<!-- Node6 -->
<g id="node6" class="node"><title>Node6</title>
<g id="a_node6"><a xlink:href="../../dd/d1a/image__proxy_8cc.html" target="_top" xlink:title="src/structural/src\l/proxy/image_proxy.cc">
<polygon fill="white" stroke="black" points="173.5,-6 173.5,-36 289.5,-36 289.5,-6 173.5,-6"/>
<text text-anchor="start" x="181.5" y="-24" font-family="Helvetica,sans-Serif" font-size="10.00">src/structural/src</text>
<text text-anchor="middle" x="231.5" y="-13" font-family="Helvetica,sans-Serif" font-size="10.00">/proxy/image_proxy.cc</text>
</a>
</g>
</g>
<!-- Node5&#45;&gt;Node6 -->
<g id="edge5" class="edge"><title>Node5&#45;&gt;Node6</title>
<path fill="none" stroke="midnightblue" d="M268.768,-75.4408C259.907,-62.7348 249.111,-47.2536 241.424,-36.2309"/>
<polygon fill="midnightblue" stroke="midnightblue" points="265.94,-77.5046 274.531,-83.705 271.682,-73.5005 265.94,-77.5046"/>
</g>
<!-- Node7 -->
<g id="node7" class="node"><title>Node7</title>
<g id="a_node7"><a xlink:href="../../d1/d14/proxy__test_8cc.html" target="_top" xlink:title="src/structural_tests\l/src/proxy/proxy_test.cc">
<polygon fill="white" stroke="black" points="307.5,-6 307.5,-36 429.5,-36 429.5,-6 307.5,-6"/>
<text text-anchor="start" x="315.5" y="-24" font-family="Helvetica,sans-Serif" font-size="10.00">src/structural_tests</text>
<text text-anchor="middle" x="368.5" y="-13" font-family="Helvetica,sans-Serif" font-size="10.00">/src/proxy/proxy_test.cc</text>
</a>
</g>
</g>
<!-- Node5&#45;&gt;Node7 -->
<g id="edge6" class="edge"><title>Node5&#45;&gt;Node7</title>
<path fill="none" stroke="midnightblue" d="M307.828,-76.8941C322.154,-63.9322 340.12,-47.6775 352.771,-36.2309"/>
<polygon fill="midnightblue" stroke="midnightblue" points="305.367,-74.4004 300.3,-83.705 310.063,-79.5912 305.367,-74.4004"/>
</g>
<!-- Node8&#45;&gt;Node7 -->
<g id="edge9" class="edge"><title>Node8&#45;&gt;Node7</title>
<path fill="none" stroke="midnightblue" d="M113.107,-78.0089C195.759,-57.1603 219.647,-60.8577 298.5,-42 305.998,-40.2068 313.898,-38.1325 321.581,-36.0131"/>
<polygon fill="midnightblue" stroke="midnightblue" points="112.098,-74.6544 103.283,-80.5314 113.839,-81.4344 112.098,-74.6544"/>
</g>
<!-- Node9 -->
<g id="node9" class="node"><title>Node9</title>
<g id="a_node9"><a xlink:href="../../d8/d56/virtual__image__proxy_8cc.html" target="_top" xlink:title="src/structural/src\l/proxy/virtual_image\l_proxy.cc">
<polygon fill="white" stroke="black" points="0,-0.5 0,-41.5 103,-41.5 103,-0.5 0,-0.5"/>
<text text-anchor="start" x="8" y="-29.5" font-family="Helvetica,sans-Serif" font-size="10.00">src/structural/src</text>
<text text-anchor="start" x="8" y="-18.5" font-family="Helvetica,sans-Serif" font-size="10.00">/proxy/virtual_image</text>
<text text-anchor="middle" x="51.5" y="-7.5" font-family="Helvetica,sans-Serif" font-size="10.00">_proxy.cc</text>
</a>
</g>
</g>
<!-- Node8&#45;&gt;Node9 -->
<g id="edge8" class="edge"><title>Node8&#45;&gt;Node9</title>
<path fill="none" stroke="midnightblue" d="M51.5,-68.2965C51.5,-59.3009 51.5,-49.6532 51.5,-41.5056"/>
<polygon fill="midnightblue" stroke="midnightblue" points="48.0001,-68.4281 51.5,-78.4281 55.0001,-68.4281 48.0001,-68.4281"/>
</g>
<!-- Node10&#45;&gt;Node7 -->
<g id="edge13" class="edge"><title>Node10&#45;&gt;Node7</title>
<path fill="none" stroke="midnightblue" d="M461.885,-151.158C473.981,-143.304 485.754,-132.971 492.5,-120 501.113,-103.439 502.625,-93.6821 492.5,-78 478.406,-56.1709 453.53,-42.7618 429.74,-34.5672"/>
<polygon fill="midnightblue" stroke="midnightblue" points="459.859,-148.292 453.088,-156.441 463.463,-154.293 459.859,-148.292"/>
</g>
<!-- Node11 -->
<g id="node11" class="node"><title>Node11</title>
<g id="a_node11"><a xlink:href="../../dd/d9a/text__document_8cc.html" target="_top" xlink:title="src/structural/src\l/proxy/text_document.cc">
<polygon fill="white" stroke="black" points="358,-84 358,-114 483,-114 483,-84 358,-84"/>
<text text-anchor="start" x="366" y="-102" font-family="Helvetica,sans-Serif" font-size="10.00">src/structural/src</text>
<text text-anchor="middle" x="420.5" y="-91" font-family="Helvetica,sans-Serif" font-size="10.00">/proxy/text_document.cc</text>
</a>
</g>
</g>
<!-- Node10&#45;&gt;Node11 -->
<g id="edge12" class="edge"><title>Node10&#45;&gt;Node11</title>
<path fill="none" stroke="midnightblue" d="M420.5,-146.232C420.5,-135.568 420.5,-123.414 420.5,-114.246"/>
<polygon fill="midnightblue" stroke="midnightblue" points="417,-146.233 420.5,-156.233 424,-146.233 417,-146.233"/>
</g>
</g>
</svg>
