<?xml version="1.0" encoding="UTF-8" standalone="no"?>
<!DOCTYPE svg PUBLIC "-//W3C//DTD SVG 1.1//EN"
 "http://www.w3.org/Graphics/SVG/1.1/DTD/svg11.dtd">
<!-- Generated by graphviz version 2.38.0 (20140413.2041)
 -->
<!-- Title: src/operational/src/command/open_command.h Pages: 1 -->
<svg width="256pt" height="207pt"
 viewBox="0.00 0.00 255.50 207.00" xmlns="http://www.w3.org/2000/svg" xmlns:xlink="http://www.w3.org/1999/xlink">
<g id="graph0" class="graph" transform="scale(1 1) rotate(0) translate(4 203)">
<title>src/operational/src/command/open_command.h</title>
<polygon fill="white" stroke="none" points="-4,4 -4,-203 251.5,-203 251.5,4 -4,4"/>
<!-- Node1 -->
<g id="node1" class="node"><title>Node1</title>
<polygon fill="#bfbfbf" stroke="black" points="49.5,-168.5 49.5,-198.5 192.5,-198.5 192.5,-168.5 49.5,-168.5"/>
<text text-anchor="start" x="57.5" y="-186.5" font-family="Helvetica,sans-Serif" font-size="10.00">src/operational/src</text>
<text text-anchor="middle" x="121" y="-175.5" font-family="Helvetica,sans-Serif" font-size="10.00">/command/open_command.h</text>
</g>
<!-- Node2 -->
<g id="node2" class="node"><title>Node2</title>
<g id="a_node2"><a xlink:href="../../db/dd7/command__interface_8h.html" target="_top" xlink:title="command_interface.h">
<polygon fill="white" stroke="black" points="0,-112.5 0,-131.5 110,-131.5 110,-112.5 0,-112.5"/>
<text text-anchor="middle" x="55" y="-119.5" font-family="Helvetica,sans-Serif" font-size="10.00">command_interface.h</text>
</a>
</g>
</g>
<!-- Node1&#45;&gt;Node2 -->
<g id="edge1" class="edge"><title>Node1&#45;&gt;Node2</title>
<path fill="none" stroke="midnightblue" d="M105.359,-168.399C95.3728,-159.397 82.422,-147.721 72.1546,-138.465"/>
<polygon fill="midnightblue" stroke="midnightblue" points="74.3745,-135.754 64.6036,-131.658 69.6874,-140.953 74.3745,-135.754"/>
</g>
<!-- Node3 -->
<g id="node3" class="node"><title>Node3</title>
<g id="a_node3"><a xlink:href="../../d5/d94/command__application_8h.html" target="_top" xlink:title="command_application.h">
<polygon fill="white" stroke="black" points="128.5,-112.5 128.5,-131.5 247.5,-131.5 247.5,-112.5 128.5,-112.5"/>
<text text-anchor="middle" x="188" y="-119.5" font-family="Helvetica,sans-Serif" font-size="10.00">command_application.h</text>
</a>
</g>
</g>
<!-- Node1&#45;&gt;Node3 -->
<g id="edge2" class="edge"><title>Node1&#45;&gt;Node3</title>
<path fill="none" stroke="midnightblue" d="M136.878,-168.399C147.015,-159.397 160.162,-147.721 170.585,-138.465"/>
<polygon fill="midnightblue" stroke="midnightblue" points="173.098,-140.915 178.251,-131.658 168.45,-135.681 173.098,-140.915"/>
</g>
<!-- Node4 -->
<g id="node4" class="node"><title>Node4</title>
<g id="a_node4"><a xlink:href="../../d0/d06/command__document_8h.html" target="_top" xlink:title="command_document.h">
<polygon fill="white" stroke="black" points="130,-56.5 130,-75.5 246,-75.5 246,-56.5 130,-56.5"/>
<text text-anchor="middle" x="188" y="-63.5" font-family="Helvetica,sans-Serif" font-size="10.00">command_document.h</text>
</a>
</g>
</g>
<!-- Node3&#45;&gt;Node4 -->
<g id="edge3" class="edge"><title>Node3&#45;&gt;Node4</title>
<path fill="none" stroke="midnightblue" d="M188,-112.083C188,-105.006 188,-94.8611 188,-85.9865"/>
<polygon fill="midnightblue" stroke="midnightblue" points="191.5,-85.751 188,-75.7511 184.5,-85.7511 191.5,-85.751"/>
</g>
<!-- Node5 -->
<g id="node5" class="node"><title>Node5</title>
<polygon fill="white" stroke="#bfbfbf" points="167.5,-0.5 167.5,-19.5 208.5,-19.5 208.5,-0.5 167.5,-0.5"/>
<text text-anchor="middle" x="188" y="-7.5" font-family="Helvetica,sans-Serif" font-size="10.00">string</text>
</g>
<!-- Node4&#45;&gt;Node5 -->
<g id="edge4" class="edge"><title>Node4&#45;&gt;Node5</title>
<path fill="none" stroke="midnightblue" d="M188,-56.083C188,-49.0059 188,-38.8611 188,-29.9865"/>
<polygon fill="midnightblue" stroke="midnightblue" points="191.5,-29.751 188,-19.7511 184.5,-29.7511 191.5,-29.751"/>
</g>
</g>
</svg>
