<?xml version="1.0" encoding="UTF-8" standalone="no"?>
<!DOCTYPE svg PUBLIC "-//W3C//DTD SVG 1.1//EN"
 "http://www.w3.org/Graphics/SVG/1.1/DTD/svg11.dtd">
<!-- Generated by graphviz version 2.38.0 (20140413.2041)
 -->
<!-- Title: src/operational/src/observer/digital_clock.cc Pages: 1 -->
<svg width="462pt" height="375pt"
 viewBox="0.00 0.00 462.00 375.00" xmlns="http://www.w3.org/2000/svg" xmlns:xlink="http://www.w3.org/1999/xlink">
<g id="graph0" class="graph" transform="scale(1 1) rotate(0) translate(4 371)">
<title>src/operational/src/observer/digital_clock.cc</title>
<polygon fill="white" stroke="none" points="-4,4 -4,-371 458,-371 458,4 -4,4"/>
<!-- Node1 -->
<g id="node1" class="node"><title>Node1</title>
<polygon fill="#bfbfbf" stroke="black" points="171,-336.5 171,-366.5 297,-366.5 297,-336.5 171,-336.5"/>
<text text-anchor="start" x="179" y="-354.5" font-family="Helvetica,sans-Serif" font-size="10.00">src/operational/src</text>
<text text-anchor="middle" x="234" y="-343.5" font-family="Helvetica,sans-Serif" font-size="10.00">/observer/digital_clock.cc</text>
</g>
<!-- Node2 -->
<g id="node2" class="node"><title>Node2</title>
<g id="a_node2"><a xlink:href="../../d7/dee/digital__clock_8h.html" target="_top" xlink:title="digital_clock.h">
<polygon fill="white" stroke="black" points="152.5,-280.5 152.5,-299.5 231.5,-299.5 231.5,-280.5 152.5,-280.5"/>
<text text-anchor="middle" x="192" y="-287.5" font-family="Helvetica,sans-Serif" font-size="10.00">digital_clock.h</text>
</a>
</g>
</g>
<!-- Node1&#45;&gt;Node2 -->
<g id="edge1" class="edge"><title>Node1&#45;&gt;Node2</title>
<path fill="none" stroke="midnightblue" d="M224.047,-336.399C218.006,-327.842 210.262,-316.871 203.899,-307.857"/>
<polygon fill="midnightblue" stroke="midnightblue" points="206.738,-305.809 198.111,-299.658 201.019,-309.846 206.738,-305.809"/>
</g>
<!-- Node13 -->
<g id="node13" class="node"><title>Node13</title>
<polygon fill="white" stroke="#bfbfbf" points="250,-280.5 250,-299.5 302,-299.5 302,-280.5 250,-280.5"/>
<text text-anchor="middle" x="276" y="-287.5" font-family="Helvetica,sans-Serif" font-size="10.00">sstream</text>
</g>
<!-- Node1&#45;&gt;Node13 -->
<g id="edge15" class="edge"><title>Node1&#45;&gt;Node13</title>
<path fill="none" stroke="midnightblue" d="M243.953,-336.399C249.994,-327.842 257.738,-316.871 264.101,-307.857"/>
<polygon fill="midnightblue" stroke="midnightblue" points="266.981,-309.846 269.889,-299.658 261.262,-305.809 266.981,-309.846"/>
</g>
<!-- Node3 -->
<g id="node3" class="node"><title>Node3</title>
<g id="a_node3"><a xlink:href="../../de/d05/observer__widget__interface_8h.html" target="_top" xlink:title="observer_widget_interface.h">
<polygon fill="white" stroke="black" points="0,-224.5 0,-243.5 136,-243.5 136,-224.5 0,-224.5"/>
<text text-anchor="middle" x="68" y="-231.5" font-family="Helvetica,sans-Serif" font-size="10.00">observer_widget_interface.h</text>
</a>
</g>
</g>
<!-- Node2&#45;&gt;Node3 -->
<g id="edge2" class="edge"><title>Node2&#45;&gt;Node3</title>
<path fill="none" stroke="midnightblue" d="M172.352,-280.444C152.035,-271.596 120.097,-257.687 96.9023,-247.586"/>
<polygon fill="midnightblue" stroke="midnightblue" points="98.1221,-244.3 87.5562,-243.516 95.3271,-250.718 98.1221,-244.3"/>
</g>
<!-- Node4 -->
<g id="node4" class="node"><title>Node4</title>
<g id="a_node4"><a xlink:href="../../d7/d97/clock__timer_8h.html" target="_top" xlink:title="clock_timer.h">
<polygon fill="white" stroke="black" points="154.5,-224.5 154.5,-243.5 229.5,-243.5 229.5,-224.5 154.5,-224.5"/>
<text text-anchor="middle" x="192" y="-231.5" font-family="Helvetica,sans-Serif" font-size="10.00">clock_timer.h</text>
</a>
</g>
</g>
<!-- Node2&#45;&gt;Node4 -->
<g id="edge3" class="edge"><title>Node2&#45;&gt;Node4</title>
<path fill="none" stroke="midnightblue" d="M192,-280.083C192,-273.006 192,-262.861 192,-253.986"/>
<polygon fill="midnightblue" stroke="midnightblue" points="195.5,-253.751 192,-243.751 188.5,-253.751 195.5,-253.751"/>
</g>
<!-- Node12 -->
<g id="node12" class="node"><title>Node12</title>
<polygon fill="white" stroke="#bfbfbf" points="247.5,-224.5 247.5,-243.5 288.5,-243.5 288.5,-224.5 247.5,-224.5"/>
<text text-anchor="middle" x="268" y="-231.5" font-family="Helvetica,sans-Serif" font-size="10.00">string</text>
</g>
<!-- Node2&#45;&gt;Node12 -->
<g id="edge14" class="edge"><title>Node2&#45;&gt;Node12</title>
<path fill="none" stroke="midnightblue" d="M204.211,-280.324C215.776,-272.107 233.375,-259.602 247.161,-249.807"/>
<polygon fill="midnightblue" stroke="midnightblue" points="249.443,-252.479 255.567,-243.834 245.388,-246.773 249.443,-252.479"/>
</g>
<!-- Node5 -->
<g id="node5" class="node"><title>Node5</title>
<g id="a_node5"><a xlink:href="../../d0/d6a/clock__tick__observer_8h.html" target="_top" xlink:title="clock_tick_observer.h">
<polygon fill="white" stroke="black" points="129,-56.5 129,-75.5 239,-75.5 239,-56.5 129,-56.5"/>
<text text-anchor="middle" x="184" y="-63.5" font-family="Helvetica,sans-Serif" font-size="10.00">clock_tick_observer.h</text>
</a>
</g>
</g>
<!-- Node4&#45;&gt;Node5 -->
<g id="edge4" class="edge"><title>Node4&#45;&gt;Node5</title>
<path fill="none" stroke="midnightblue" d="M191.57,-224.075C190.311,-197.945 186.613,-121.211 184.895,-85.577"/>
<polygon fill="midnightblue" stroke="midnightblue" points="188.39,-85.388 184.413,-75.5681 181.398,-85.725 188.39,-85.388"/>
</g>
<!-- Node6 -->
<g id="node6" class="node"><title>Node6</title>
<g id="a_node6"><a xlink:href="../../d8/da8/clock__tick_8h.html" target="_top" xlink:title="clock_tick.h">
<polygon fill="white" stroke="black" points="203.5,-168.5 203.5,-187.5 272.5,-187.5 272.5,-168.5 203.5,-168.5"/>
<text text-anchor="middle" x="238" y="-175.5" font-family="Helvetica,sans-Serif" font-size="10.00">clock_tick.h</text>
</a>
</g>
</g>
<!-- Node4&#45;&gt;Node6 -->
<g id="edge5" class="edge"><title>Node4&#45;&gt;Node6</title>
<path fill="none" stroke="midnightblue" d="M199.596,-224.083C206.227,-216.298 216.021,-204.801 224.058,-195.367"/>
<polygon fill="midnightblue" stroke="midnightblue" points="226.725,-197.633 230.545,-187.751 221.396,-193.094 226.725,-197.633"/>
</g>
<!-- Node6&#45;&gt;Node5 -->
<g id="edge6" class="edge"><title>Node6&#45;&gt;Node5</title>
<path fill="none" stroke="midnightblue" d="M229.67,-168.386C221.783,-159.801 210.12,-145.923 203,-132 195.472,-117.28 190.482,-99.1181 187.512,-85.7376"/>
<polygon fill="midnightblue" stroke="midnightblue" points="190.913,-84.8997 185.482,-75.803 184.055,-86.3013 190.913,-84.8997"/>
</g>
<!-- Node7 -->
<g id="node7" class="node"><title>Node7</title>
<g id="a_node7"><a xlink:href="../../d6/db3/clock__tick__interface_8h.html" target="_top" xlink:title="clock_tick_interface.h">
<polygon fill="white" stroke="black" points="212.5,-112.5 212.5,-131.5 323.5,-131.5 323.5,-112.5 212.5,-112.5"/>
<text text-anchor="middle" x="268" y="-119.5" font-family="Helvetica,sans-Serif" font-size="10.00">clock_tick_interface.h</text>
</a>
</g>
</g>
<!-- Node6&#45;&gt;Node7 -->
<g id="edge7" class="edge"><title>Node6&#45;&gt;Node7</title>
<path fill="none" stroke="midnightblue" d="M242.954,-168.083C247.104,-160.613 253.153,-149.724 258.267,-140.52"/>
<polygon fill="midnightblue" stroke="midnightblue" points="261.341,-142.192 263.138,-131.751 255.222,-138.793 261.341,-142.192"/>
</g>
<!-- Node8 -->
<g id="node8" class="node"><title>Node8</title>
<g id="a_node8"><a xlink:href="../../da/d23/list_8h.html" target="_top" xlink:title="../iterator/list.h">
<polygon fill="white" stroke="black" points="342,-112.5 342,-131.5 422,-131.5 422,-112.5 342,-112.5"/>
<text text-anchor="middle" x="382" y="-119.5" font-family="Helvetica,sans-Serif" font-size="10.00">../iterator/list.h</text>
</a>
</g>
</g>
<!-- Node6&#45;&gt;Node8 -->
<g id="edge9" class="edge"><title>Node6&#45;&gt;Node8</title>
<path fill="none" stroke="midnightblue" d="M260.817,-168.444C284.832,-159.438 322.829,-145.189 349.869,-135.049"/>
<polygon fill="midnightblue" stroke="midnightblue" points="351.155,-138.305 359.29,-131.516 348.697,-131.751 351.155,-138.305"/>
</g>
<!-- Node7&#45;&gt;Node5 -->
<g id="edge8" class="edge"><title>Node7&#45;&gt;Node5</title>
<path fill="none" stroke="midnightblue" d="M254.504,-112.324C241.4,-103.9 221.288,-90.9709 205.893,-81.0741"/>
<polygon fill="midnightblue" stroke="midnightblue" points="207.767,-78.118 197.463,-75.6545 203.982,-84.0063 207.767,-78.118"/>
</g>
<!-- Node9 -->
<g id="node9" class="node"><title>Node9</title>
<g id="a_node9"><a xlink:href="../../d9/d71/list__iterator_8h.html" target="_top" xlink:title="list_iterator.h">
<polygon fill="white" stroke="black" points="312.5,-56.5 312.5,-75.5 385.5,-75.5 385.5,-56.5 312.5,-56.5"/>
<text text-anchor="middle" x="349" y="-63.5" font-family="Helvetica,sans-Serif" font-size="10.00">list_iterator.h</text>
</a>
</g>
</g>
<!-- Node8&#45;&gt;Node9 -->
<g id="edge10" class="edge"><title>Node8&#45;&gt;Node9</title>
<path fill="none" stroke="midnightblue" d="M376.551,-112.083C371.986,-104.613 365.332,-93.7244 359.707,-84.5199"/>
<polygon fill="midnightblue" stroke="midnightblue" points="362.549,-82.4588 354.348,-75.7511 356.576,-86.109 362.549,-82.4588"/>
</g>
<!-- Node11 -->
<g id="node11" class="node"><title>Node11</title>
<g id="a_node11"><a xlink:href="../../dd/d8c/list__interface_8h.html" target="_top" xlink:title="list_interface.h">
<polygon fill="white" stroke="black" points="374,-0.5 374,-19.5 454,-19.5 454,-0.5 374,-0.5"/>
<text text-anchor="middle" x="414" y="-7.5" font-family="Helvetica,sans-Serif" font-size="10.00">list_interface.h</text>
</a>
</g>
</g>
<!-- Node8&#45;&gt;Node11 -->
<g id="edge13" class="edge"><title>Node8&#45;&gt;Node11</title>
<path fill="none" stroke="midnightblue" d="M384.511,-112.368C389.698,-94.5366 401.696,-53.2953 408.685,-29.2717"/>
<polygon fill="midnightblue" stroke="midnightblue" points="412.068,-30.1711 411.501,-19.5914 405.347,-28.2157 412.068,-30.1711"/>
</g>
<!-- Node10 -->
<g id="node10" class="node"><title>Node10</title>
<g id="a_node10"><a xlink:href="../../d6/da4/iterator__interface_8h.html" target="_top" xlink:title="iterator_interface.h">
<polygon fill="white" stroke="black" points="258.5,-0.5 258.5,-19.5 355.5,-19.5 355.5,-0.5 258.5,-0.5"/>
<text text-anchor="middle" x="307" y="-7.5" font-family="Helvetica,sans-Serif" font-size="10.00">iterator_interface.h</text>
</a>
</g>
</g>
<!-- Node9&#45;&gt;Node10 -->
<g id="edge11" class="edge"><title>Node9&#45;&gt;Node10</title>
<path fill="none" stroke="midnightblue" d="M342.065,-56.083C336.071,-48.3768 327.248,-37.0333 319.952,-27.6531"/>
<polygon fill="midnightblue" stroke="midnightblue" points="322.709,-25.4958 313.806,-19.7511 317.183,-29.7934 322.709,-25.4958"/>
</g>
<!-- Node9&#45;&gt;Node11 -->
<g id="edge12" class="edge"><title>Node9&#45;&gt;Node11</title>
<path fill="none" stroke="midnightblue" d="M359.443,-56.324C369.146,-48.2631 383.815,-36.0765 395.5,-26.3695"/>
<polygon fill="midnightblue" stroke="midnightblue" points="397.911,-28.9163 403.367,-19.8339 393.438,-23.532 397.911,-28.9163"/>
</g>
</g>
</svg>
