<?xml version="1.0" encoding="UTF-8" standalone="no"?>
<!DOCTYPE svg PUBLIC "-//W3C//DTD SVG 1.1//EN"
 "http://www.w3.org/Graphics/SVG/1.1/DTD/svg11.dtd">
<!-- Generated by graphviz version 2.38.0 (20140413.2041)
 -->
<!-- Title: creational::commons::RoomWithABomb::Clone Pages: 1 -->
<svg width="360pt" height="39pt"
 viewBox="0.00 0.00 360.00 39.00" xmlns="http://www.w3.org/2000/svg" xmlns:xlink="http://www.w3.org/1999/xlink">
<g id="graph0" class="graph" transform="scale(1 1) rotate(0) translate(4 35)">
<title>creational::commons::RoomWithABomb::Clone</title>
<polygon fill="white" stroke="none" points="-4,4 -4,-35 356,-35 356,4 -4,4"/>
<!-- Node1 -->
<g id="node1" class="node"><title>Node1</title>
<polygon fill="#bfbfbf" stroke="black" points="0,-0.5 0,-30.5 131,-30.5 131,-0.5 0,-0.5"/>
<text text-anchor="start" x="8" y="-18.5" font-family="Helvetica,sans-Serif" font-size="10.00">creational::commons</text>
<text text-anchor="middle" x="65.5" y="-7.5" font-family="Helvetica,sans-Serif" font-size="10.00">::RoomWithABomb::Clone</text>
</g>
<!-- Node2 -->
<g id="node2" class="node"><title>Node2</title>
<g id="a_node2"><a xlink:href="../../d6/d96/classcreational_1_1commons_1_1_room_with_a_bomb.html#a2279bdc4ab8dfe29dd48f13c56386bfa" target="_top" xlink:title="creational::commons\l::RoomWithABomb::RoomWithABomb">
<polygon fill="white" stroke="black" points="167,-0.5 167,-30.5 352,-30.5 352,-0.5 167,-0.5"/>
<text text-anchor="start" x="175" y="-18.5" font-family="Helvetica,sans-Serif" font-size="10.00">creational::commons</text>
<text text-anchor="middle" x="259.5" y="-7.5" font-family="Helvetica,sans-Serif" font-size="10.00">::RoomWithABomb::RoomWithABomb</text>
</a>
</g>
</g>
<!-- Node1&#45;&gt;Node2 -->
<g id="edge1" class="edge"><title>Node1&#45;&gt;Node2</title>
<path fill="none" stroke="midnightblue" d="M131.235,-15.5C139.451,-15.5 148.01,-15.5 156.632,-15.5"/>
<polygon fill="midnightblue" stroke="midnightblue" points="156.766,-19.0001 166.766,-15.5 156.766,-12.0001 156.766,-19.0001"/>
</g>
</g>
</svg>
