<?xml version="1.0" encoding="UTF-8" standalone="no"?>
<!DOCTYPE svg PUBLIC "-//W3C//DTD SVG 1.1//EN"
 "http://www.w3.org/Graphics/SVG/1.1/DTD/svg11.dtd">
<!-- Generated by graphviz version 2.38.0 (20140413.2041)
 -->
<!-- Title: src/operational/src/interpreter/interpreter_context.h Pages: 1 -->
<svg width="262pt" height="128pt"
 viewBox="0.00 0.00 262.00 128.00" xmlns="http://www.w3.org/2000/svg" xmlns:xlink="http://www.w3.org/1999/xlink">
<g id="graph0" class="graph" transform="scale(1 1) rotate(0) translate(4 124)">
<title>src/operational/src/interpreter/interpreter_context.h</title>
<polygon fill="white" stroke="none" points="-4,4 -4,-124 258,-124 258,4 -4,4"/>
<!-- Node1 -->
<g id="node1" class="node"><title>Node1</title>
<polygon fill="#bfbfbf" stroke="black" points="68,-78.5 68,-119.5 178,-119.5 178,-78.5 68,-78.5"/>
<text text-anchor="start" x="76" y="-107.5" font-family="Helvetica,sans-Serif" font-size="10.00">src/operational/src</text>
<text text-anchor="start" x="76" y="-96.5" font-family="Helvetica,sans-Serif" font-size="10.00">/interpreter/interpreter</text>
<text text-anchor="middle" x="123" y="-85.5" font-family="Helvetica,sans-Serif" font-size="10.00">_context.h</text>
</g>
<!-- Node2 -->
<g id="node2" class="node"><title>Node2</title>
<g id="a_node2"><a xlink:href="../../da/d06/interpreter__context_8cc.html" target="_top" xlink:title="src/operational/src\l/interpreter/interpreter\l_context.cc">
<polygon fill="white" stroke="black" points="0,-0.5 0,-41.5 110,-41.5 110,-0.5 0,-0.5"/>
<text text-anchor="start" x="8" y="-29.5" font-family="Helvetica,sans-Serif" font-size="10.00">src/operational/src</text>
<text text-anchor="start" x="8" y="-18.5" font-family="Helvetica,sans-Serif" font-size="10.00">/interpreter/interpreter</text>
<text text-anchor="middle" x="55" y="-7.5" font-family="Helvetica,sans-Serif" font-size="10.00">_context.cc</text>
</a>
</g>
</g>
<!-- Node1&#45;&gt;Node2 -->
<g id="edge1" class="edge"><title>Node1&#45;&gt;Node2</title>
<path fill="none" stroke="midnightblue" d="M98.7668,-70.9158C90.0763,-61.2029 80.4555,-50.4502 72.4523,-41.5056"/>
<polygon fill="midnightblue" stroke="midnightblue" points="96.212,-73.3095 105.488,-78.4281 101.429,-68.6419 96.212,-73.3095"/>
</g>
<!-- Node3 -->
<g id="node3" class="node"><title>Node3</title>
<g id="a_node3"><a xlink:href="../../de/d72/interpreter__test_8cc.html" target="_top" xlink:title="src/operational_tests\l/src/interpreter/interpreter\l_test.cc">
<polygon fill="white" stroke="black" points="128,-0.5 128,-41.5 254,-41.5 254,-0.5 128,-0.5"/>
<text text-anchor="start" x="136" y="-29.5" font-family="Helvetica,sans-Serif" font-size="10.00">src/operational_tests</text>
<text text-anchor="start" x="136" y="-18.5" font-family="Helvetica,sans-Serif" font-size="10.00">/src/interpreter/interpreter</text>
<text text-anchor="middle" x="191" y="-7.5" font-family="Helvetica,sans-Serif" font-size="10.00">_test.cc</text>
</a>
</g>
</g>
<!-- Node1&#45;&gt;Node3 -->
<g id="edge2" class="edge"><title>Node1&#45;&gt;Node3</title>
<path fill="none" stroke="midnightblue" d="M147.233,-70.9158C155.924,-61.2029 165.545,-50.4502 173.548,-41.5056"/>
<polygon fill="midnightblue" stroke="midnightblue" points="144.571,-68.6419 140.512,-78.4281 149.788,-73.3095 144.571,-68.6419"/>
</g>
</g>
</svg>
