<?xml version="1.0" encoding="UTF-8" standalone="no"?>
<!DOCTYPE svg PUBLIC "-//W3C//DTD SVG 1.1//EN"
 "http://www.w3.org/Graphics/SVG/1.1/DTD/svg11.dtd">
<!-- Generated by graphviz version 2.38.0 (20140413.2041)
 -->
<!-- Title: structural::flyweight::Row Pages: 1 -->
<svg width="133pt" height="369pt"
 viewBox="0.00 0.00 133.00 369.00" xmlns="http://www.w3.org/2000/svg" xmlns:xlink="http://www.w3.org/1999/xlink">
<g id="graph0" class="graph" transform="scale(1 1) rotate(0) translate(4 365)">
<title>structural::flyweight::Row</title>
<polygon fill="white" stroke="none" points="-4,4 -4,-365 129,-365 129,4 -4,4"/>
<!-- Node1 -->
<g id="node1" class="node"><title>Node1</title>
<polygon fill="#bfbfbf" stroke="black" points="0,-0.5 0,-156.5 125,-156.5 125,-0.5 0,-0.5"/>
<text text-anchor="middle" x="62.5" y="-144.5" font-family="Helvetica,sans-Serif" font-size="10.00">structural::flyweight::Row</text>
<polyline fill="none" stroke="black" points="0,-137.5 125,-137.5 "/>
<text text-anchor="middle" x="62.5" y="-125.5" font-family="Helvetica,sans-Serif" font-size="10.00"> </text>
<polyline fill="none" stroke="black" points="0,-118.5 125,-118.5 "/>
<text text-anchor="start" x="8" y="-106.5" font-family="Helvetica,sans-Serif" font-size="10.00">+ ~Row()</text>
<text text-anchor="start" x="8" y="-95.5" font-family="Helvetica,sans-Serif" font-size="10.00">+ First()</text>
<text text-anchor="start" x="8" y="-84.5" font-family="Helvetica,sans-Serif" font-size="10.00">+ Next()</text>
<text text-anchor="start" x="8" y="-73.5" font-family="Helvetica,sans-Serif" font-size="10.00">+ IsDone()</text>
<text text-anchor="start" x="8" y="-62.5" font-family="Helvetica,sans-Serif" font-size="10.00">+ SetFont()</text>
<text text-anchor="start" x="8" y="-51.5" font-family="Helvetica,sans-Serif" font-size="10.00">+ GetFont()</text>
<text text-anchor="start" x="8" y="-40.5" font-family="Helvetica,sans-Serif" font-size="10.00">+ Current()</text>
<text text-anchor="start" x="8" y="-29.5" font-family="Helvetica,sans-Serif" font-size="10.00">+ Insert()</text>
<text text-anchor="start" x="8" y="-18.5" font-family="Helvetica,sans-Serif" font-size="10.00">+ Remove()</text>
<text text-anchor="start" x="8" y="-7.5" font-family="Helvetica,sans-Serif" font-size="10.00">+ Draw()</text>
</g>
<!-- Node2 -->
<g id="node2" class="node"><title>Node2</title>
<g id="a_node2"><a xlink:href="../../dc/db6/classstructural_1_1flyweight_1_1_glyph_interface.html" target="_top" xlink:title="{structural::flyweight\l::GlyphInterface\n||+ ~GlyphInterface()\l+ Draw()\l+ First()\l+ Next()\l+ IsDone()\l+ SetFont()\l+ GetFont()\l+ Current()\l+ Insert()\l+ Remove()\l}">
<polygon fill="white" stroke="black" points="12,-193.5 12,-360.5 113,-360.5 113,-193.5 12,-193.5"/>
<text text-anchor="start" x="20" y="-348.5" font-family="Helvetica,sans-Serif" font-size="10.00">structural::flyweight</text>
<text text-anchor="middle" x="62.5" y="-337.5" font-family="Helvetica,sans-Serif" font-size="10.00">::GlyphInterface</text>
<polyline fill="none" stroke="black" points="12,-330.5 113,-330.5 "/>
<text text-anchor="middle" x="62.5" y="-318.5" font-family="Helvetica,sans-Serif" font-size="10.00"> </text>
<polyline fill="none" stroke="black" points="12,-311.5 113,-311.5 "/>
<text text-anchor="start" x="20" y="-299.5" font-family="Helvetica,sans-Serif" font-size="10.00">+ ~GlyphInterface()</text>
<text text-anchor="start" x="20" y="-288.5" font-family="Helvetica,sans-Serif" font-size="10.00">+ Draw()</text>
<text text-anchor="start" x="20" y="-277.5" font-family="Helvetica,sans-Serif" font-size="10.00">+ First()</text>
<text text-anchor="start" x="20" y="-266.5" font-family="Helvetica,sans-Serif" font-size="10.00">+ Next()</text>
<text text-anchor="start" x="20" y="-255.5" font-family="Helvetica,sans-Serif" font-size="10.00">+ IsDone()</text>
<text text-anchor="start" x="20" y="-244.5" font-family="Helvetica,sans-Serif" font-size="10.00">+ SetFont()</text>
<text text-anchor="start" x="20" y="-233.5" font-family="Helvetica,sans-Serif" font-size="10.00">+ GetFont()</text>
<text text-anchor="start" x="20" y="-222.5" font-family="Helvetica,sans-Serif" font-size="10.00">+ Current()</text>
<text text-anchor="start" x="20" y="-211.5" font-family="Helvetica,sans-Serif" font-size="10.00">+ Insert()</text>
<text text-anchor="start" x="20" y="-200.5" font-family="Helvetica,sans-Serif" font-size="10.00">+ Remove()</text>
</a>
</g>
</g>
<!-- Node2&#45;&gt;Node1 -->
<g id="edge1" class="edge"><title>Node2&#45;&gt;Node1</title>
<path fill="none" stroke="midnightblue" d="M62.5,-183.198C62.5,-174.271 62.5,-165.283 62.5,-156.532"/>
<polygon fill="none" stroke="midnightblue" points="59.0001,-183.236 62.5,-193.236 66.0001,-183.236 59.0001,-183.236"/>
</g>
</g>
</svg>
