<?xml version="1.0" encoding="UTF-8" standalone="no"?>
<!DOCTYPE svg PUBLIC "-//W3C//DTD SVG 1.1//EN"
 "http://www.w3.org/Graphics/SVG/1.1/DTD/svg11.dtd">
<!-- Generated by graphviz version 2.38.0 (20140413.2041)
 -->
<!-- Title: src/operational/src/command/command_document.h Pages: 1 -->
<!--zoomable 251 -->
<svg id="main" version="1.1" xmlns="http://www.w3.org/2000/svg" xmlns:xlink="http://www.w3.org/1999/xlink" xml:space="preserve" onload="init(evt)">
<style type="text/css"><![CDATA[
.edge:hover path { stroke: red; }
.edge:hover polygon { stroke: red; fill: red; }
]]></style>
<script type="text/javascript"><![CDATA[
var edges = document.getElementsByTagName('g');
if (edges && edges.length) {
  for (var i=0;i<edges.length;i++) {
    if (edges[i].id.substr(0,4)=='edge') {
      edges[i].setAttribute('class','edge');
    }
  }
}
]]></script>
        <defs>
                <circle id="rim" cx="0" cy="0" r="7"/>
                <circle id="rim2" cx="0" cy="0" r="3.5"/>
                <g id="zoomPlus">
                        <use xlink:href="#rim" fill="#404040">
                                <set attributeName="fill" to="#808080" begin="zoomplus.mouseover" end="zoomplus.mouseout"/>
                        </use>
                        <path d="M-4,0h8M0,-4v8" fill="none" stroke="white" stroke-width="1.5" pointer-events="none"/>
                </g>
                <g id="zoomMin">
                        <use xlink:href="#rim" fill="#404040">
                                <set attributeName="fill" to="#808080" begin="zoomminus.mouseover" end="zoomminus.mouseout"/>
                        </use>
                        <path d="M-4,0h8" fill="none" stroke="white" stroke-width="1.5" pointer-events="none"/>
                </g>
                <g id="dirArrow">
                        <path fill="none" stroke="white" stroke-width="1.5" d="M0,-3.0v7 M-2.5,-0.5L0,-3.0L2.5,-0.5"/>
                </g>
               <g id="resetDef">
                       <use xlink:href="#rim2" fill="#404040">
                               <set attributeName="fill" to="#808080" begin="reset.mouseover" end="reset.mouseout"/>
                       </use>
               </g>
        </defs>

<script type="text/javascript">
var viewWidth = 685;
var viewHeight = 251;
var sectionId = 'dynsection-1';
</script>
<script xlink:href="../../svgpan.js"/>
<svg id="graph" class="graph">
<g id="viewport">
<title>src/operational/src/command/command_document.h</title>
<polygon fill="white" stroke="none" points="-4,4 -4,-247 681,-247 681,4 -4,4"/>
<!-- Node1 -->
<g id="node1" class="node"><title>Node1</title>
<polygon fill="#bfbfbf" stroke="black" points="343.5,-212.5 343.5,-242.5 507.5,-242.5 507.5,-212.5 343.5,-212.5"/>
<text text-anchor="start" x="351.5" y="-230.5" font-family="Helvetica,sans-Serif" font-size="10.00">src/operational/src</text>
<text text-anchor="middle" x="425.5" y="-219.5" font-family="Helvetica,sans-Serif" font-size="10.00">/command/command_document.h</text>
</g>
<!-- Node2 -->
<g id="node2" class="node"><title>Node2</title>
<g id="a_node2"><a xlink:href="../../d5/d94/command__application_8h.html" target="_top" xlink:title="src/operational/src\l/command/command_application.h">
<polygon fill="white" stroke="black" points="154.5,-145.5 154.5,-175.5 322.5,-175.5 322.5,-145.5 154.5,-145.5"/>
<text text-anchor="start" x="162.5" y="-163.5" font-family="Helvetica,sans-Serif" font-size="10.00">src/operational/src</text>
<text text-anchor="middle" x="238.5" y="-152.5" font-family="Helvetica,sans-Serif" font-size="10.00">/command/command_application.h</text>
</a>
</g>
</g>
<!-- Node1&#45;&gt;Node2 -->
<g id="edge1" class="edge"><title>Node1&#45;&gt;Node2</title>
<path fill="none" stroke="midnightblue" d="M375.418,-209.092C345.23,-198.599 307.282,-185.408 278.997,-175.577"/>
<polygon fill="midnightblue" stroke="midnightblue" points="374.329,-212.419 384.924,-212.396 376.627,-205.807 374.329,-212.419"/>
</g>
<!-- Node7 -->
<g id="node7" class="node"><title>Node7</title>
<g id="a_node7"><a xlink:href="../../d2/de6/command__document_8cc.html" target="_top" xlink:title="src/operational/src\l/command/command_document.cc">
<polygon fill="white" stroke="black" points="340.5,-145.5 340.5,-175.5 510.5,-175.5 510.5,-145.5 340.5,-145.5"/>
<text text-anchor="start" x="348.5" y="-163.5" font-family="Helvetica,sans-Serif" font-size="10.00">src/operational/src</text>
<text text-anchor="middle" x="425.5" y="-152.5" font-family="Helvetica,sans-Serif" font-size="10.00">/command/command_document.cc</text>
</a>
</g>
</g>
<!-- Node1&#45;&gt;Node7 -->
<g id="edge7" class="edge"><title>Node1&#45;&gt;Node7</title>
<path fill="none" stroke="midnightblue" d="M425.5,-202.108C425.5,-193.154 425.5,-183.323 425.5,-175.577"/>
<polygon fill="midnightblue" stroke="midnightblue" points="422,-202.396 425.5,-212.396 429,-202.396 422,-202.396"/>
</g>
<!-- Node8 -->
<g id="node8" class="node"><title>Node8</title>
<g id="a_node8"><a xlink:href="../../d5/dd8/paste__command_8h.html" target="_top" xlink:title="src/operational/src\l/command/paste_command.h">
<polygon fill="white" stroke="black" points="528.5,-145.5 528.5,-175.5 674.5,-175.5 674.5,-145.5 528.5,-145.5"/>
<text text-anchor="start" x="536.5" y="-163.5" font-family="Helvetica,sans-Serif" font-size="10.00">src/operational/src</text>
<text text-anchor="middle" x="601.5" y="-152.5" font-family="Helvetica,sans-Serif" font-size="10.00">/command/paste_command.h</text>
</a>
</g>
</g>
<!-- Node1&#45;&gt;Node8 -->
<g id="edge8" class="edge"><title>Node1&#45;&gt;Node8</title>
<path fill="none" stroke="midnightblue" d="M473.376,-208.819C501.666,-198.371 536.994,-185.323 563.385,-175.577"/>
<polygon fill="midnightblue" stroke="midnightblue" points="471.857,-205.648 463.689,-212.396 474.283,-212.215 471.857,-205.648"/>
</g>
<!-- Node3 -->
<g id="node3" class="node"><title>Node3</title>
<g id="a_node3"><a xlink:href="../../d4/d1a/command__application_8cc.html" target="_top" xlink:title="src/operational/src\l/command/command_application.cc">
<polygon fill="white" stroke="black" points="0,-78.5 0,-108.5 173,-108.5 173,-78.5 0,-78.5"/>
<text text-anchor="start" x="8" y="-96.5" font-family="Helvetica,sans-Serif" font-size="10.00">src/operational/src</text>
<text text-anchor="middle" x="86.5" y="-85.5" font-family="Helvetica,sans-Serif" font-size="10.00">/command/command_application.cc</text>
</a>
</g>
</g>
<!-- Node2&#45;&gt;Node3 -->
<g id="edge2" class="edge"><title>Node2&#45;&gt;Node3</title>
<path fill="none" stroke="midnightblue" d="M196.189,-141.407C171.923,-131.029 141.911,-118.195 119.417,-108.577"/>
<polygon fill="midnightblue" stroke="midnightblue" points="194.947,-144.682 205.518,-145.396 197.7,-138.246 194.947,-144.682"/>
</g>
<!-- Node4 -->
<g id="node4" class="node"><title>Node4</title>
<g id="a_node4"><a xlink:href="../../d1/d01/open__command_8h.html" target="_top" xlink:title="src/operational/src\l/command/open_command.h">
<polygon fill="white" stroke="black" points="191,-78.5 191,-108.5 334,-108.5 334,-78.5 191,-78.5"/>
<text text-anchor="start" x="199" y="-96.5" font-family="Helvetica,sans-Serif" font-size="10.00">src/operational/src</text>
<text text-anchor="middle" x="262.5" y="-85.5" font-family="Helvetica,sans-Serif" font-size="10.00">/command/open_command.h</text>
</a>
</g>
</g>
<!-- Node2&#45;&gt;Node4 -->
<g id="edge3" class="edge"><title>Node2&#45;&gt;Node4</title>
<path fill="none" stroke="midnightblue" d="M247.18,-135.991C250.572,-126.804 254.348,-116.578 257.303,-108.577"/>
<polygon fill="midnightblue" stroke="midnightblue" points="243.888,-134.803 243.708,-145.396 250.455,-137.227 243.888,-134.803"/>
</g>
<!-- Node6 -->
<g id="node6" class="node"><title>Node6</title>
<g id="a_node6"><a xlink:href="../../de/de3/command__test_8cc.html" target="_top" xlink:title="src/operational_tests\l/src/command/command\l_test.cc">
<polygon fill="white" stroke="black" points="341,-0.5 341,-41.5 466,-41.5 466,-0.5 341,-0.5"/>
<text text-anchor="start" x="349" y="-29.5" font-family="Helvetica,sans-Serif" font-size="10.00">src/operational_tests</text>
<text text-anchor="start" x="349" y="-18.5" font-family="Helvetica,sans-Serif" font-size="10.00">/src/command/command</text>
<text text-anchor="middle" x="403.5" y="-7.5" font-family="Helvetica,sans-Serif" font-size="10.00">_test.cc</text>
</a>
</g>
</g>
<!-- Node2&#45;&gt;Node6 -->
<g id="edge6" class="edge"><title>Node2&#45;&gt;Node6</title>
<path fill="none" stroke="midnightblue" d="M288.432,-141.424C306.675,-133.299 326.693,-122.468 342.5,-109 364.826,-89.9778 382.95,-61.0238 393.479,-41.8132"/>
<polygon fill="midnightblue" stroke="midnightblue" points="286.901,-138.272 279.086,-145.426 289.656,-144.707 286.901,-138.272"/>
</g>
<!-- Node5 -->
<g id="node5" class="node"><title>Node5</title>
<g id="a_node5"><a xlink:href="../../d1/d26/open__command_8cc.html" target="_top" xlink:title="src/operational/src\l/command/open_command.cc">
<polygon fill="white" stroke="black" points="174.5,-6 174.5,-36 322.5,-36 322.5,-6 174.5,-6"/>
<text text-anchor="start" x="182.5" y="-24" font-family="Helvetica,sans-Serif" font-size="10.00">src/operational/src</text>
<text text-anchor="middle" x="248.5" y="-13" font-family="Helvetica,sans-Serif" font-size="10.00">/command/open_command.cc</text>
</a>
</g>
</g>
<!-- Node4&#45;&gt;Node5 -->
<g id="edge4" class="edge"><title>Node4&#45;&gt;Node5</title>
<path fill="none" stroke="midnightblue" d="M257.681,-68.2317C255.563,-57.5679 253.15,-45.4145 251.329,-36.2455"/>
<polygon fill="midnightblue" stroke="midnightblue" points="254.286,-69.1065 259.667,-78.2333 261.152,-67.743 254.286,-69.1065"/>
</g>
<!-- Node4&#45;&gt;Node6 -->
<g id="edge5" class="edge"><title>Node4&#45;&gt;Node6</title>
<path fill="none" stroke="midnightblue" d="M299.78,-73.8601C319.703,-63.8984 344.215,-51.6423 364.407,-41.5464"/>
<polygon fill="midnightblue" stroke="midnightblue" points="298.074,-70.8 290.695,-78.4027 301.204,-77.061 298.074,-70.8"/>
</g>
<!-- Node8&#45;&gt;Node6 -->
<g id="edge10" class="edge"><title>Node8&#45;&gt;Node6</title>
<path fill="none" stroke="midnightblue" d="M567.218,-140.389C551.491,-131.305 532.767,-120.036 516.5,-109 484.538,-87.3157 449.568,-59.7527 427.125,-41.5279"/>
<polygon fill="midnightblue" stroke="midnightblue" points="565.672,-143.537 576.09,-145.467 569.149,-137.462 565.672,-143.537"/>
</g>
<!-- Node9 -->
<g id="node9" class="node"><title>Node9</title>
<g id="a_node9"><a xlink:href="../../d8/de2/paste__command_8cc.html" target="_top" xlink:title="src/operational/src\l/command/paste_command.cc">
<polygon fill="white" stroke="black" points="526,-78.5 526,-108.5 677,-108.5 677,-78.5 526,-78.5"/>
<text text-anchor="start" x="534" y="-96.5" font-family="Helvetica,sans-Serif" font-size="10.00">src/operational/src</text>
<text text-anchor="middle" x="601.5" y="-85.5" font-family="Helvetica,sans-Serif" font-size="10.00">/command/paste_command.cc</text>
</a>
</g>
</g>
<!-- Node8&#45;&gt;Node9 -->
<g id="edge9" class="edge"><title>Node8&#45;&gt;Node9</title>
<path fill="none" stroke="midnightblue" d="M601.5,-135.108C601.5,-126.154 601.5,-116.323 601.5,-108.577"/>
<polygon fill="midnightblue" stroke="midnightblue" points="598,-135.396 601.5,-145.396 605,-135.396 598,-135.396"/>
</g>
</g>
</svg>
        <g id="navigator" transform="translate(0 0)" fill="#404254">
                <rect fill="#f2f5e9" fill-opacity="0.5" stroke="#606060" stroke-width=".5" x="0" y="0" width="60" height="60"/>
                <use id="zoomplus" xlink:href="#zoomPlus" x="17" y="9" onmousedown="handleZoom(evt,'in')"/>
                <use id="zoomminus" xlink:href="#zoomMin" x="42" y="9" onmousedown="handleZoom(evt,'out')"/>
                <use id="reset" xlink:href="#resetDef" x="30" y="36" onmousedown="handleReset()"/>
                <g id="arrowUp" xlink:href="#dirArrow" transform="translate(30 24)" onmousedown="handlePan(0,-1)">
                  <use xlink:href="#rim" fill="#404040">
                        <set attributeName="fill" to="#808080" begin="arrowUp.mouseover" end="arrowUp.mouseout"/>
                  </use>
                  <path fill="none" stroke="white" stroke-width="1.5" d="M0,-3.0v7 M-2.5,-0.5L0,-3.0L2.5,-0.5"/>
                </g>
                <g id="arrowRight" xlink:href="#dirArrow" transform="rotate(90) translate(36 -43)" onmousedown="handlePan(1,0)">
                  <use xlink:href="#rim" fill="#404040">
                        <set attributeName="fill" to="#808080" begin="arrowRight.mouseover" end="arrowRight.mouseout"/>
                  </use>
                  <path fill="none" stroke="white" stroke-width="1.5" d="M0,-3.0v7 M-2.5,-0.5L0,-3.0L2.5,-0.5"/>
                </g>
                <g id="arrowDown" xlink:href="#dirArrow" transform="rotate(180) translate(-30 -48)" onmousedown="handlePan(0,1)">
                  <use xlink:href="#rim" fill="#404040">
                        <set attributeName="fill" to="#808080" begin="arrowDown.mouseover" end="arrowDown.mouseout"/>
                  </use>
                  <path fill="none" stroke="white" stroke-width="1.5" d="M0,-3.0v7 M-2.5,-0.5L0,-3.0L2.5,-0.5"/>
                </g>
                <g id="arrowLeft" xlink:href="#dirArrow" transform="rotate(270) translate(-36 17)" onmousedown="handlePan(-1,0)">
                  <use xlink:href="#rim" fill="#404040">
                        <set attributeName="fill" to="#808080" begin="arrowLeft.mouseover" end="arrowLeft.mouseout"/>
                  </use>
                  <path fill="none" stroke="white" stroke-width="1.5" d="M0,-3.0v7 M-2.5,-0.5L0,-3.0L2.5,-0.5"/>
                </g>
        </g>
        <svg viewBox="0 0 15 15" width="100%" height="30px" preserveAspectRatio="xMaxYMin meet">
         <g id="arrow_out" transform="scale(0.3 0.3)">
          <a xlink:href="command__document_8h__dep__incl_org.svg" target="_base">
           <rect id="button" ry="5" rx="5" y="6" x="6" height="38" width="38"
                fill="#f2f5e9" fill-opacity="0.5" stroke="#606060" stroke-width="1.0"/>
           <path id="arrow"
             d="M 11.500037,31.436501 C 11.940474,20.09759 22.043105,11.32322 32.158766,21.979434 L 37.068811,17.246167 C 37.068811,17.246167 37.088388,32 37.088388,32 L 22.160133,31.978069 C 22.160133,31.978069 26.997745,27.140456 26.997745,27.140456 C 18.528582,18.264221 13.291696,25.230495 11.500037,31.436501 z"
             style="fill:#404040;"/>
          </a>
         </g>
        </svg>
</svg>
