<?xml version="1.0" encoding="UTF-8" standalone="no"?>
<!DOCTYPE svg PUBLIC "-//W3C//DTD SVG 1.1//EN"
 "http://www.w3.org/Graphics/SVG/1.1/DTD/svg11.dtd">
<!-- Generated by graphviz version 2.38.0 (20140413.2041)
 -->
<!-- Title: src/structural/src/bridge/x_window_imp.h Pages: 1 -->
<svg width="140pt" height="151pt"
 viewBox="0.00 0.00 139.50 151.00" xmlns="http://www.w3.org/2000/svg" xmlns:xlink="http://www.w3.org/1999/xlink">
<g id="graph0" class="graph" transform="scale(1 1) rotate(0) translate(4 147)">
<title>src/structural/src/bridge/x_window_imp.h</title>
<polygon fill="white" stroke="none" points="-4,4 -4,-147 135.5,-147 135.5,4 -4,4"/>
<!-- Node1 -->
<g id="node1" class="node"><title>Node1</title>
<polygon fill="#bfbfbf" stroke="black" points="11.5,-112.5 11.5,-142.5 131.5,-142.5 131.5,-112.5 11.5,-112.5"/>
<text text-anchor="start" x="19.5" y="-130.5" font-family="Helvetica,sans-Serif" font-size="10.00">src/structural/src</text>
<text text-anchor="middle" x="71.5" y="-119.5" font-family="Helvetica,sans-Serif" font-size="10.00">/bridge/x_window_imp.h</text>
</g>
<!-- Node2 -->
<g id="node2" class="node"><title>Node2</title>
<g id="a_node2"><a xlink:href="../../d5/d85/window__imp_8h.html" target="_top" xlink:title="window_imp.h">
<polygon fill="white" stroke="black" points="0,-56.5 0,-75.5 77,-75.5 77,-56.5 0,-56.5"/>
<text text-anchor="middle" x="38.5" y="-63.5" font-family="Helvetica,sans-Serif" font-size="10.00">window_imp.h</text>
</a>
</g>
</g>
<!-- Node1&#45;&gt;Node2 -->
<g id="edge1" class="edge"><title>Node1&#45;&gt;Node2</title>
<path fill="none" stroke="midnightblue" d="M63.6795,-112.399C59.0325,-104.021 53.1015,-93.3269 48.1631,-84.4229"/>
<polygon fill="midnightblue" stroke="midnightblue" points="51.2128,-82.7052 43.3018,-75.6578 45.0913,-86.1004 51.2128,-82.7052"/>
</g>
<!-- Node3 -->
<g id="node3" class="node"><title>Node3</title>
<polygon fill="white" stroke="#bfbfbf" points="51,-0.5 51,-19.5 92,-19.5 92,-0.5 51,-0.5"/>
<text text-anchor="middle" x="71.5" y="-7.5" font-family="Helvetica,sans-Serif" font-size="10.00">string</text>
</g>
<!-- Node1&#45;&gt;Node3 -->
<g id="edge3" class="edge"><title>Node1&#45;&gt;Node3</title>
<path fill="none" stroke="midnightblue" d="M77.7014,-112.264C83.1288,-98.0791 89.6871,-75.6396 86.5,-56 85.0325,-46.9568 82.0077,-37.275 79.0562,-29.2176"/>
<polygon fill="midnightblue" stroke="midnightblue" points="82.2564,-27.7907 75.3557,-19.7514 75.7368,-30.3393 82.2564,-27.7907"/>
</g>
<!-- Node2&#45;&gt;Node3 -->
<g id="edge2" class="edge"><title>Node2&#45;&gt;Node3</title>
<path fill="none" stroke="midnightblue" d="M43.9493,-56.083C48.5145,-48.6127 55.1684,-37.7244 60.7934,-28.5199"/>
<polygon fill="midnightblue" stroke="midnightblue" points="63.9241,-30.109 66.1521,-19.7511 57.9511,-26.4588 63.9241,-30.109"/>
</g>
</g>
</svg>
