<?xml version="1.0" encoding="UTF-8" standalone="no"?>
<!DOCTYPE svg PUBLIC "-//W3C//DTD SVG 1.1//EN"
 "http://www.w3.org/Graphics/SVG/1.1/DTD/svg11.dtd">
<!-- Generated by graphviz version 2.38.0 (20140413.2041)
 -->
<!-- Title: src/operational/src/visitor/inventory.h Pages: 1 -->
<svg width="309pt" height="184pt"
 viewBox="0.00 0.00 309.00 184.00" xmlns="http://www.w3.org/2000/svg" xmlns:xlink="http://www.w3.org/1999/xlink">
<g id="graph0" class="graph" transform="scale(1 1) rotate(0) translate(4 180)">
<title>src/operational/src/visitor/inventory.h</title>
<polygon fill="white" stroke="none" points="-4,4 -4,-180 305,-180 305,4 -4,4"/>
<!-- Node1 -->
<g id="node1" class="node"><title>Node1</title>
<polygon fill="#bfbfbf" stroke="black" points="66,-145.5 66,-175.5 163,-175.5 163,-145.5 66,-145.5"/>
<text text-anchor="start" x="74" y="-163.5" font-family="Helvetica,sans-Serif" font-size="10.00">src/operational/src</text>
<text text-anchor="middle" x="114.5" y="-152.5" font-family="Helvetica,sans-Serif" font-size="10.00">/visitor/inventory.h</text>
</g>
<!-- Node2 -->
<g id="node2" class="node"><title>Node2</title>
<g id="a_node2"><a xlink:href="../../d1/dcc/inventory_8cc.html" target="_top" xlink:title="src/operational/src\l/visitor/inventory.cc">
<polygon fill="white" stroke="black" points="0,-78.5 0,-108.5 99,-108.5 99,-78.5 0,-78.5"/>
<text text-anchor="start" x="8" y="-96.5" font-family="Helvetica,sans-Serif" font-size="10.00">src/operational/src</text>
<text text-anchor="middle" x="49.5" y="-85.5" font-family="Helvetica,sans-Serif" font-size="10.00">/visitor/inventory.cc</text>
</a>
</g>
</g>
<!-- Node1&#45;&gt;Node2 -->
<g id="edge1" class="edge"><title>Node1&#45;&gt;Node2</title>
<path fill="none" stroke="midnightblue" d="M93.3115,-138.311C83.5612,-128.561 72.259,-117.259 63.5765,-108.577"/>
<polygon fill="midnightblue" stroke="midnightblue" points="90.85,-140.8 100.396,-145.396 95.7998,-135.85 90.85,-140.8"/>
</g>
<!-- Node3 -->
<g id="node3" class="node"><title>Node3</title>
<g id="a_node3"><a xlink:href="../../d4/dba/inventory__visitor_8h.html" target="_top" xlink:title="src/operational/src\l/visitor/inventory_visitor.h">
<polygon fill="white" stroke="black" points="117.5,-78.5 117.5,-108.5 241.5,-108.5 241.5,-78.5 117.5,-78.5"/>
<text text-anchor="start" x="125.5" y="-96.5" font-family="Helvetica,sans-Serif" font-size="10.00">src/operational/src</text>
<text text-anchor="middle" x="179.5" y="-85.5" font-family="Helvetica,sans-Serif" font-size="10.00">/visitor/inventory_visitor.h</text>
</a>
</g>
</g>
<!-- Node1&#45;&gt;Node3 -->
<g id="edge2" class="edge"><title>Node1&#45;&gt;Node3</title>
<path fill="none" stroke="midnightblue" d="M135.689,-138.311C145.439,-128.561 156.741,-117.259 165.423,-108.577"/>
<polygon fill="midnightblue" stroke="midnightblue" points="133.2,-135.85 128.604,-145.396 138.15,-140.8 133.2,-135.85"/>
</g>
<!-- Node4 -->
<g id="node4" class="node"><title>Node4</title>
<g id="a_node4"><a xlink:href="../../d3/d75/inventory__visitor_8cc.html" target="_top" xlink:title="src/operational/src\l/visitor/inventory_visitor.cc">
<polygon fill="white" stroke="black" points="47,-6 47,-36 176,-36 176,-6 47,-6"/>
<text text-anchor="start" x="55" y="-24" font-family="Helvetica,sans-Serif" font-size="10.00">src/operational/src</text>
<text text-anchor="middle" x="111.5" y="-13" font-family="Helvetica,sans-Serif" font-size="10.00">/visitor/inventory_visitor.cc</text>
</a>
</g>
</g>
<!-- Node3&#45;&gt;Node4 -->
<g id="edge3" class="edge"><title>Node3&#45;&gt;Node4</title>
<path fill="none" stroke="midnightblue" d="M158.631,-70.8641C147.78,-59.6142 134.821,-46.1786 125.24,-36.2455"/>
<polygon fill="midnightblue" stroke="midnightblue" points="156.278,-73.4655 165.739,-78.2333 161.316,-68.6059 156.278,-73.4655"/>
</g>
<!-- Node5 -->
<g id="node5" class="node"><title>Node5</title>
<g id="a_node5"><a xlink:href="../../dc/d3a/visitor__test_8cc.html" target="_top" xlink:title="src/operational_tests\l/src/visitor/visitor\l_test.cc">
<polygon fill="white" stroke="black" points="194,-0.5 194,-41.5 301,-41.5 301,-0.5 194,-0.5"/>
<text text-anchor="start" x="202" y="-29.5" font-family="Helvetica,sans-Serif" font-size="10.00">src/operational_tests</text>
<text text-anchor="start" x="202" y="-18.5" font-family="Helvetica,sans-Serif" font-size="10.00">/src/visitor/visitor</text>
<text text-anchor="middle" x="247.5" y="-7.5" font-family="Helvetica,sans-Serif" font-size="10.00">_test.cc</text>
</a>
</g>
</g>
<!-- Node3&#45;&gt;Node5 -->
<g id="edge4" class="edge"><title>Node3&#45;&gt;Node5</title>
<path fill="none" stroke="midnightblue" d="M200.41,-70.8213C209.406,-61.4941 219.846,-50.6707 228.606,-41.5884"/>
<polygon fill="midnightblue" stroke="midnightblue" points="197.684,-68.6059 193.261,-78.2333 202.722,-73.4655 197.684,-68.6059"/>
</g>
</g>
</svg>
