<?xml version="1.0" encoding="UTF-8" standalone="no"?>
<!DOCTYPE svg PUBLIC "-//W3C//DTD SVG 1.1//EN"
 "http://www.w3.org/Graphics/SVG/1.1/DTD/svg11.dtd">
<!-- Generated by graphviz version 2.38.0 (20140413.2041)
 -->
<!-- Title: operational::memento::MoveCommand::Unexecute Pages: 1 -->
<svg width="462pt" height="160pt"
 viewBox="0.00 0.00 462.00 159.50" xmlns="http://www.w3.org/2000/svg" xmlns:xlink="http://www.w3.org/1999/xlink">
<g id="graph0" class="graph" transform="scale(1 1) rotate(0) translate(4 155.5)">
<title>operational::memento::MoveCommand::Unexecute</title>
<polygon fill="white" stroke="none" points="-4,4 -4,-155.5 458,-155.5 458,4 -4,4"/>
<!-- Node1 -->
<g id="node1" class="node"><title>Node1</title>
<polygon fill="#bfbfbf" stroke="black" points="0,-66 0,-96 142,-96 142,-66 0,-66"/>
<text text-anchor="start" x="8" y="-84" font-family="Helvetica,sans-Serif" font-size="10.00">operational::memento</text>
<text text-anchor="middle" x="71" y="-73" font-family="Helvetica,sans-Serif" font-size="10.00">::MoveCommand::Unexecute</text>
</g>
<!-- Node2 -->
<g id="node2" class="node"><title>Node2</title>
<g id="a_node2"><a xlink:href="../../d2/db9/classoperational_1_1memento_1_1_graphic.html#ab4c66c1e039e7ddf4cabb3c71ad43339" target="_top" xlink:title="operational::memento\l::Graphic::Move">
<polygon fill="white" stroke="black" points="188,-121 188,-151 298,-151 298,-121 188,-121"/>
<text text-anchor="start" x="196" y="-139" font-family="Helvetica,sans-Serif" font-size="10.00">operational::memento</text>
<text text-anchor="middle" x="243" y="-128" font-family="Helvetica,sans-Serif" font-size="10.00">::Graphic::Move</text>
</a>
</g>
</g>
<!-- Node1&#45;&gt;Node2 -->
<g id="edge1" class="edge"><title>Node1&#45;&gt;Node2</title>
<path fill="none" stroke="midnightblue" d="M118.453,-96.029C139.255,-102.759 163.964,-110.753 185.798,-117.817"/>
<polygon fill="midnightblue" stroke="midnightblue" points="185.011,-121.241 195.603,-120.989 187.166,-114.581 185.011,-121.241"/>
</g>
<!-- Node4 -->
<g id="node4" class="node"><title>Node4</title>
<g id="a_node4"><a xlink:href="../../d4/dbc/classoperational_1_1memento_1_1_constraint_solver_interface.html#aca6a70b27825d02e7793ea929325ca3a" target="_top" xlink:title="operational::memento\l::ConstraintSolverInterface\l::SetMemento">
<polygon fill="white" stroke="black" points="178,-60.5 178,-101.5 308,-101.5 308,-60.5 178,-60.5"/>
<text text-anchor="start" x="186" y="-89.5" font-family="Helvetica,sans-Serif" font-size="10.00">operational::memento</text>
<text text-anchor="start" x="186" y="-78.5" font-family="Helvetica,sans-Serif" font-size="10.00">::ConstraintSolverInterface</text>
<text text-anchor="middle" x="243" y="-67.5" font-family="Helvetica,sans-Serif" font-size="10.00">::SetMemento</text>
</a>
</g>
</g>
<!-- Node1&#45;&gt;Node4 -->
<g id="edge3" class="edge"><title>Node1&#45;&gt;Node4</title>
<path fill="none" stroke="midnightblue" d="M142.127,-81C150.515,-81 159.103,-81 167.549,-81"/>
<polygon fill="midnightblue" stroke="midnightblue" points="167.759,-84.5001 177.759,-81 167.759,-77.5001 167.759,-84.5001"/>
</g>
<!-- Node5 -->
<g id="node5" class="node"><title>Node5</title>
<g id="a_node5"><a xlink:href="../../d4/dbc/classoperational_1_1memento_1_1_constraint_solver_interface.html#a8b266062ee161785d27caa180b76e5c4" target="_top" xlink:title="operational::memento\l::ConstraintSolverInterface\l::Solve">
<polygon fill="white" stroke="black" points="178,-0.5 178,-41.5 308,-41.5 308,-0.5 178,-0.5"/>
<text text-anchor="start" x="186" y="-29.5" font-family="Helvetica,sans-Serif" font-size="10.00">operational::memento</text>
<text text-anchor="start" x="186" y="-18.5" font-family="Helvetica,sans-Serif" font-size="10.00">::ConstraintSolverInterface</text>
<text text-anchor="middle" x="243" y="-7.5" font-family="Helvetica,sans-Serif" font-size="10.00">::Solve</text>
</a>
</g>
</g>
<!-- Node1&#45;&gt;Node5 -->
<g id="edge4" class="edge"><title>Node1&#45;&gt;Node5</title>
<path fill="none" stroke="midnightblue" d="M114.898,-65.8595C132.818,-59.5347 154.079,-52.031 174.033,-44.9883"/>
<polygon fill="midnightblue" stroke="midnightblue" points="175.439,-48.2039 183.704,-41.5751 173.109,-41.6029 175.439,-48.2039"/>
</g>
<!-- Node3 -->
<g id="node3" class="node"><title>Node3</title>
<g id="a_node3"><a xlink:href="../../d2/db9/classoperational_1_1memento_1_1_graphic.html#a624ad3ad8adfe852597aa57f21240161" target="_top" xlink:title="operational::memento\l::Graphic::point">
<polygon fill="white" stroke="black" points="344,-121 344,-151 454,-151 454,-121 344,-121"/>
<text text-anchor="start" x="352" y="-139" font-family="Helvetica,sans-Serif" font-size="10.00">operational::memento</text>
<text text-anchor="middle" x="399" y="-128" font-family="Helvetica,sans-Serif" font-size="10.00">::Graphic::point</text>
</a>
</g>
</g>
<!-- Node2&#45;&gt;Node3 -->
<g id="edge2" class="edge"><title>Node2&#45;&gt;Node3</title>
<path fill="none" stroke="midnightblue" d="M298.295,-136C309.748,-136 321.937,-136 333.718,-136"/>
<polygon fill="midnightblue" stroke="midnightblue" points="333.936,-139.5 343.936,-136 333.936,-132.5 333.936,-139.5"/>
</g>
</g>
</svg>
