<?xml version="1.0" encoding="UTF-8" standalone="no"?>
<!DOCTYPE svg PUBLIC "-//W3C//DTD SVG 1.1//EN"
 "http://www.w3.org/Graphics/SVG/1.1/DTD/svg11.dtd">
<!-- Generated by graphviz version 2.38.0 (20140413.2041)
 -->
<!-- Title: operational::memento::MoveCommand::Execute Pages: 1 -->
<svg width="451pt" height="160pt"
 viewBox="0.00 0.00 451.00 160.00" xmlns="http://www.w3.org/2000/svg" xmlns:xlink="http://www.w3.org/1999/xlink">
<g id="graph0" class="graph" transform="scale(1 1) rotate(0) translate(4 156)">
<title>operational::memento::MoveCommand::Execute</title>
<polygon fill="white" stroke="none" points="-4,4 -4,-156 447,-156 447,4 -4,4"/>
<!-- Node1 -->
<g id="node1" class="node"><title>Node1</title>
<polygon fill="#bfbfbf" stroke="black" points="0,-61 0,-91 131,-91 131,-61 0,-61"/>
<text text-anchor="start" x="8" y="-79" font-family="Helvetica,sans-Serif" font-size="10.00">operational::memento</text>
<text text-anchor="middle" x="65.5" y="-68" font-family="Helvetica,sans-Serif" font-size="10.00">::MoveCommand::Execute</text>
</g>
<!-- Node2 -->
<g id="node2" class="node"><title>Node2</title>
<g id="a_node2"><a xlink:href="../../d4/dbc/classoperational_1_1memento_1_1_constraint_solver_interface.html#a3fb2ddf5b10f82ee5852cb4f452c42a0" target="_top" xlink:title="operational::memento\l::ConstraintSolverInterface\l::CreateMemento">
<polygon fill="white" stroke="black" points="167,-110.5 167,-151.5 297,-151.5 297,-110.5 167,-110.5"/>
<text text-anchor="start" x="175" y="-139.5" font-family="Helvetica,sans-Serif" font-size="10.00">operational::memento</text>
<text text-anchor="start" x="175" y="-128.5" font-family="Helvetica,sans-Serif" font-size="10.00">::ConstraintSolverInterface</text>
<text text-anchor="middle" x="232" y="-117.5" font-family="Helvetica,sans-Serif" font-size="10.00">::CreateMemento</text>
</a>
</g>
</g>
<!-- Node1&#45;&gt;Node2 -->
<g id="edge1" class="edge"><title>Node1&#45;&gt;Node2</title>
<path fill="none" stroke="midnightblue" d="M111.45,-91.029C126.4,-96.0274 143.436,-101.723 159.869,-107.217"/>
<polygon fill="midnightblue" stroke="midnightblue" points="158.86,-110.571 169.454,-110.422 161.08,-103.932 158.86,-110.571"/>
</g>
<!-- Node3 -->
<g id="node3" class="node"><title>Node3</title>
<g id="a_node3"><a xlink:href="../../d2/db9/classoperational_1_1memento_1_1_graphic.html#ab4c66c1e039e7ddf4cabb3c71ad43339" target="_top" xlink:title="operational::memento\l::Graphic::Move">
<polygon fill="white" stroke="black" points="177,-61 177,-91 287,-91 287,-61 177,-61"/>
<text text-anchor="start" x="185" y="-79" font-family="Helvetica,sans-Serif" font-size="10.00">operational::memento</text>
<text text-anchor="middle" x="232" y="-68" font-family="Helvetica,sans-Serif" font-size="10.00">::Graphic::Move</text>
</a>
</g>
</g>
<!-- Node1&#45;&gt;Node3 -->
<g id="edge2" class="edge"><title>Node1&#45;&gt;Node3</title>
<path fill="none" stroke="midnightblue" d="M131.043,-76C142.738,-76 154.936,-76 166.627,-76"/>
<polygon fill="midnightblue" stroke="midnightblue" points="166.745,-79.5001 176.745,-76 166.745,-72.5001 166.745,-79.5001"/>
</g>
<!-- Node5 -->
<g id="node5" class="node"><title>Node5</title>
<g id="a_node5"><a xlink:href="../../d4/dbc/classoperational_1_1memento_1_1_constraint_solver_interface.html#a8b266062ee161785d27caa180b76e5c4" target="_top" xlink:title="operational::memento\l::ConstraintSolverInterface\l::Solve">
<polygon fill="white" stroke="black" points="167,-0.5 167,-41.5 297,-41.5 297,-0.5 167,-0.5"/>
<text text-anchor="start" x="175" y="-29.5" font-family="Helvetica,sans-Serif" font-size="10.00">operational::memento</text>
<text text-anchor="start" x="175" y="-18.5" font-family="Helvetica,sans-Serif" font-size="10.00">::ConstraintSolverInterface</text>
<text text-anchor="middle" x="232" y="-7.5" font-family="Helvetica,sans-Serif" font-size="10.00">::Solve</text>
</a>
</g>
</g>
<!-- Node1&#45;&gt;Node5 -->
<g id="edge4" class="edge"><title>Node1&#45;&gt;Node5</title>
<path fill="none" stroke="midnightblue" d="M111.45,-60.971C126.4,-55.9726 143.436,-50.2767 159.869,-44.7825"/>
<polygon fill="midnightblue" stroke="midnightblue" points="161.08,-48.0681 169.454,-41.5777 158.86,-41.4294 161.08,-48.0681"/>
</g>
<!-- Node4 -->
<g id="node4" class="node"><title>Node4</title>
<g id="a_node4"><a xlink:href="../../d2/db9/classoperational_1_1memento_1_1_graphic.html#a624ad3ad8adfe852597aa57f21240161" target="_top" xlink:title="operational::memento\l::Graphic::point">
<polygon fill="white" stroke="black" points="333,-61 333,-91 443,-91 443,-61 333,-61"/>
<text text-anchor="start" x="341" y="-79" font-family="Helvetica,sans-Serif" font-size="10.00">operational::memento</text>
<text text-anchor="middle" x="388" y="-68" font-family="Helvetica,sans-Serif" font-size="10.00">::Graphic::point</text>
</a>
</g>
</g>
<!-- Node3&#45;&gt;Node4 -->
<g id="edge3" class="edge"><title>Node3&#45;&gt;Node4</title>
<path fill="none" stroke="midnightblue" d="M287.295,-76C298.748,-76 310.937,-76 322.718,-76"/>
<polygon fill="midnightblue" stroke="midnightblue" points="322.936,-79.5001 332.936,-76 322.936,-72.5001 322.936,-79.5001"/>
</g>
</g>
</svg>
