<?xml version="1.0" encoding="UTF-8" standalone="no"?>
<!DOCTYPE svg PUBLIC "-//W3C//DTD SVG 1.1//EN"
 "http://www.w3.org/Graphics/SVG/1.1/DTD/svg11.dtd">
<!-- Generated by graphviz version 2.38.0 (20140413.2041)
 -->
<!-- Title: src/structural/src/bridge/x_window_imp.h Pages: 1 -->
<svg width="278pt" height="106pt"
 viewBox="0.00 0.00 278.00 106.00" xmlns="http://www.w3.org/2000/svg" xmlns:xlink="http://www.w3.org/1999/xlink">
<g id="graph0" class="graph" transform="scale(1 1) rotate(0) translate(4 102)">
<title>src/structural/src/bridge/x_window_imp.h</title>
<polygon fill="white" stroke="none" points="-4,4 -4,-102 274,-102 274,4 -4,4"/>
<!-- Node1 -->
<g id="node1" class="node"><title>Node1</title>
<polygon fill="#bfbfbf" stroke="black" points="74.5,-67.5 74.5,-97.5 194.5,-97.5 194.5,-67.5 74.5,-67.5"/>
<text text-anchor="start" x="82.5" y="-85.5" font-family="Helvetica,sans-Serif" font-size="10.00">src/structural/src</text>
<text text-anchor="middle" x="134.5" y="-74.5" font-family="Helvetica,sans-Serif" font-size="10.00">/bridge/x_window_imp.h</text>
</g>
<!-- Node2 -->
<g id="node2" class="node"><title>Node2</title>
<g id="a_node2"><a xlink:href="../../d0/df7/x__window__imp_8cc.html" target="_top" xlink:title="src/structural/src\l/bridge/x_window_imp.cc">
<polygon fill="white" stroke="black" points="0,-0.5 0,-30.5 125,-30.5 125,-0.5 0,-0.5"/>
<text text-anchor="start" x="8" y="-18.5" font-family="Helvetica,sans-Serif" font-size="10.00">src/structural/src</text>
<text text-anchor="middle" x="62.5" y="-7.5" font-family="Helvetica,sans-Serif" font-size="10.00">/bridge/x_window_imp.cc</text>
</a>
</g>
</g>
<!-- Node1&#45;&gt;Node2 -->
<g id="edge1" class="edge"><title>Node1&#45;&gt;Node2</title>
<path fill="none" stroke="midnightblue" d="M111.347,-60.5978C100.475,-50.7831 87.8043,-39.3442 78.0924,-30.5765"/>
<polygon fill="midnightblue" stroke="midnightblue" points="109.109,-63.2929 118.877,-67.396 113.8,-58.097 109.109,-63.2929"/>
</g>
<!-- Node3 -->
<g id="node3" class="node"><title>Node3</title>
<g id="a_node3"><a xlink:href="../../d5/de6/bridge__test_8cc.html" target="_top" xlink:title="src/structural_tests\l/src/bridge/bridge_test.cc">
<polygon fill="white" stroke="black" points="143,-0.5 143,-30.5 270,-30.5 270,-0.5 143,-0.5"/>
<text text-anchor="start" x="151" y="-18.5" font-family="Helvetica,sans-Serif" font-size="10.00">src/structural_tests</text>
<text text-anchor="middle" x="206.5" y="-7.5" font-family="Helvetica,sans-Serif" font-size="10.00">/src/bridge/bridge_test.cc</text>
</a>
</g>
</g>
<!-- Node1&#45;&gt;Node3 -->
<g id="edge2" class="edge"><title>Node1&#45;&gt;Node3</title>
<path fill="none" stroke="midnightblue" d="M157.653,-60.5978C168.525,-50.7831 181.196,-39.3442 190.908,-30.5765"/>
<polygon fill="midnightblue" stroke="midnightblue" points="155.2,-58.097 150.123,-67.396 159.891,-63.2929 155.2,-58.097"/>
</g>
</g>
</svg>
