<?xml version="1.0" encoding="UTF-8" standalone="no"?>
<!DOCTYPE svg PUBLIC "-//W3C//DTD SVG 1.1//EN"
 "http://www.w3.org/Graphics/SVG/1.1/DTD/svg11.dtd">
<!-- Generated by graphviz version 2.38.0 (20140413.2041)
 -->
<!-- Title: structural::facade::ProgramNodeBuilder::NewVariable Pages: 1 -->
<svg width="386pt" height="50pt"
 viewBox="0.00 0.00 386.00 50.00" xmlns="http://www.w3.org/2000/svg" xmlns:xlink="http://www.w3.org/1999/xlink">
<g id="graph0" class="graph" transform="scale(1 1) rotate(0) translate(4 46)">
<title>structural::facade::ProgramNodeBuilder::NewVariable</title>
<polygon fill="white" stroke="none" points="-4,4 -4,-46 382,-46 382,4 -4,4"/>
<!-- Node1 -->
<g id="node1" class="node"><title>Node1</title>
<polygon fill="#bfbfbf" stroke="black" points="0,-0.5 0,-41.5 112,-41.5 112,-0.5 0,-0.5"/>
<text text-anchor="start" x="8" y="-29.5" font-family="Helvetica,sans-Serif" font-size="10.00">structural::facade</text>
<text text-anchor="start" x="8" y="-18.5" font-family="Helvetica,sans-Serif" font-size="10.00">::ProgramNodeBuilder</text>
<text text-anchor="middle" x="56" y="-7.5" font-family="Helvetica,sans-Serif" font-size="10.00">::NewVariable</text>
</g>
<!-- Node2 -->
<g id="node2" class="node"><title>Node2</title>
<g id="a_node2"><a xlink:href="../../d7/d9c/classstructural_1_1facade_1_1_parser.html#aeecba45237f75b104989ebaf277c2208" target="_top" xlink:title="structural::facade\l::Parser::Parse">
<polygon fill="white" stroke="black" points="148,-6 148,-36 240,-36 240,-6 148,-6"/>
<text text-anchor="start" x="156" y="-24" font-family="Helvetica,sans-Serif" font-size="10.00">structural::facade</text>
<text text-anchor="middle" x="194" y="-13" font-family="Helvetica,sans-Serif" font-size="10.00">::Parser::Parse</text>
</a>
</g>
</g>
<!-- Node1&#45;&gt;Node2 -->
<g id="edge1" class="edge"><title>Node1&#45;&gt;Node2</title>
<path fill="none" stroke="midnightblue" d="M122.336,-21C130.922,-21 139.564,-21 147.714,-21"/>
<polygon fill="midnightblue" stroke="midnightblue" points="122.316,-17.5001 112.316,-21 122.316,-24.5001 122.316,-17.5001"/>
</g>
<!-- Node3 -->
<g id="node3" class="node"><title>Node3</title>
<g id="a_node3"><a xlink:href="../../df/d81/classstructural_1_1facade_1_1_compiler.html#a42e6928912f3931d3bf44917e4edd972" target="_top" xlink:title="structural::facade\l::Compiler::Compile">
<polygon fill="white" stroke="black" points="276,-6 276,-36 378,-36 378,-6 276,-6"/>
<text text-anchor="start" x="284" y="-24" font-family="Helvetica,sans-Serif" font-size="10.00">structural::facade</text>
<text text-anchor="middle" x="327" y="-13" font-family="Helvetica,sans-Serif" font-size="10.00">::Compiler::Compile</text>
</a>
</g>
</g>
<!-- Node2&#45;&gt;Node3 -->
<g id="edge2" class="edge"><title>Node2&#45;&gt;Node3</title>
<path fill="none" stroke="midnightblue" d="M250.291,-21C258.788,-21 267.52,-21 275.896,-21"/>
<polygon fill="midnightblue" stroke="midnightblue" points="250.083,-17.5001 240.083,-21 250.083,-24.5001 250.083,-17.5001"/>
</g>
</g>
</svg>
