<?xml version="1.0" encoding="UTF-8" standalone="no"?>
<!DOCTYPE svg PUBLIC "-//W3C//DTD SVG 1.1//EN"
 "http://www.w3.org/Graphics/SVG/1.1/DTD/svg11.dtd">
<!-- Generated by graphviz version 2.38.0 (20140413.2041)
 -->
<!-- Title: creational::commons::MapSiteInterface Pages: 1 -->
<svg width="636pt" height="430pt"
 viewBox="0.00 0.00 636.00 430.00" xmlns="http://www.w3.org/2000/svg" xmlns:xlink="http://www.w3.org/1999/xlink">
<g id="graph0" class="graph" transform="scale(1 1) rotate(0) translate(4 426)">
<title>creational::commons::MapSiteInterface</title>
<polygon fill="white" stroke="none" points="-4,4 -4,-426 632,-426 632,4 -4,4"/>
<!-- Node1 -->
<g id="node1" class="node"><title>Node1</title>
<polygon fill="#bfbfbf" stroke="black" points="252.5,-342.5 252.5,-421.5 362.5,-421.5 362.5,-342.5 252.5,-342.5"/>
<text text-anchor="start" x="260.5" y="-409.5" font-family="Helvetica,sans-Serif" font-size="10.00">creational::commons</text>
<text text-anchor="middle" x="307.5" y="-398.5" font-family="Helvetica,sans-Serif" font-size="10.00">::MapSiteInterface</text>
<polyline fill="none" stroke="black" points="252.5,-391.5 362.5,-391.5 "/>
<text text-anchor="middle" x="307.5" y="-379.5" font-family="Helvetica,sans-Serif" font-size="10.00"> </text>
<polyline fill="none" stroke="black" points="252.5,-372.5 362.5,-372.5 "/>
<text text-anchor="start" x="260.5" y="-360.5" font-family="Helvetica,sans-Serif" font-size="10.00">+ ~MapSiteInterface()</text>
<text text-anchor="start" x="260.5" y="-349.5" font-family="Helvetica,sans-Serif" font-size="10.00">+ Enter()</text>
</g>
<!-- Node2 -->
<g id="node2" class="node"><title>Node2</title>
<g id="a_node2"><a xlink:href="../../df/d04/classcreational_1_1commons_1_1_door.html" target="_top" xlink:title="{creational::commons\l::Door\n||+ Door()\l+ Door()\l+ Clone()\l+ Enter()\l+ Initialize()\l+ is_open()\l+ OtherSideFrom()\l+ entered()\l}">
<polygon fill="white" stroke="black" points="65,-160.5 65,-305.5 172,-305.5 172,-160.5 65,-160.5"/>
<text text-anchor="start" x="73" y="-293.5" font-family="Helvetica,sans-Serif" font-size="10.00">creational::commons</text>
<text text-anchor="middle" x="118.5" y="-282.5" font-family="Helvetica,sans-Serif" font-size="10.00">::Door</text>
<polyline fill="none" stroke="black" points="65,-275.5 172,-275.5 "/>
<text text-anchor="middle" x="118.5" y="-263.5" font-family="Helvetica,sans-Serif" font-size="10.00"> </text>
<polyline fill="none" stroke="black" points="65,-256.5 172,-256.5 "/>
<text text-anchor="start" x="73" y="-244.5" font-family="Helvetica,sans-Serif" font-size="10.00">+ Door()</text>
<text text-anchor="start" x="73" y="-233.5" font-family="Helvetica,sans-Serif" font-size="10.00">+ Door()</text>
<text text-anchor="start" x="73" y="-222.5" font-family="Helvetica,sans-Serif" font-size="10.00">+ Clone()</text>
<text text-anchor="start" x="73" y="-211.5" font-family="Helvetica,sans-Serif" font-size="10.00">+ Enter()</text>
<text text-anchor="start" x="73" y="-200.5" font-family="Helvetica,sans-Serif" font-size="10.00">+ Initialize()</text>
<text text-anchor="start" x="73" y="-189.5" font-family="Helvetica,sans-Serif" font-size="10.00">+ is_open()</text>
<text text-anchor="start" x="73" y="-178.5" font-family="Helvetica,sans-Serif" font-size="10.00">+ OtherSideFrom()</text>
<text text-anchor="start" x="73" y="-167.5" font-family="Helvetica,sans-Serif" font-size="10.00">+ entered()</text>
</a>
</g>
</g>
<!-- Node1&#45;&gt;Node2 -->
<g id="edge1" class="edge"><title>Node1&#45;&gt;Node2</title>
<path fill="none" stroke="midnightblue" d="M249.636,-335.995C224.956,-316.799 196.332,-294.536 172.135,-275.716"/>
<polygon fill="none" stroke="midnightblue" points="247.8,-339.001 257.842,-342.377 252.098,-333.475 247.8,-339.001"/>
</g>
<!-- Node4 -->
<g id="node4" class="node"><title>Node4</title>
<g id="a_node4"><a xlink:href="../../d7/d33/classcreational_1_1commons_1_1_room.html" target="_top" xlink:title="{creational::commons\l::Room\n|# room_number_\l|+ Room()\l+ Room()\l+ Clone()\l+ Enter()\l+ entered()\l+ GetSide()\l+ room_number()\l+ SetSide()\l}">
<polygon fill="white" stroke="black" points="254,-160.5 254,-305.5 361,-305.5 361,-160.5 254,-160.5"/>
<text text-anchor="start" x="262" y="-293.5" font-family="Helvetica,sans-Serif" font-size="10.00">creational::commons</text>
<text text-anchor="middle" x="307.5" y="-282.5" font-family="Helvetica,sans-Serif" font-size="10.00">::Room</text>
<polyline fill="none" stroke="black" points="254,-275.5 361,-275.5 "/>
<text text-anchor="start" x="262" y="-263.5" font-family="Helvetica,sans-Serif" font-size="10.00"># room_number_</text>
<polyline fill="none" stroke="black" points="254,-256.5 361,-256.5 "/>
<text text-anchor="start" x="262" y="-244.5" font-family="Helvetica,sans-Serif" font-size="10.00">+ Room()</text>
<text text-anchor="start" x="262" y="-233.5" font-family="Helvetica,sans-Serif" font-size="10.00">+ Room()</text>
<text text-anchor="start" x="262" y="-222.5" font-family="Helvetica,sans-Serif" font-size="10.00">+ Clone()</text>
<text text-anchor="start" x="262" y="-211.5" font-family="Helvetica,sans-Serif" font-size="10.00">+ Enter()</text>
<text text-anchor="start" x="262" y="-200.5" font-family="Helvetica,sans-Serif" font-size="10.00">+ entered()</text>
<text text-anchor="start" x="262" y="-189.5" font-family="Helvetica,sans-Serif" font-size="10.00">+ GetSide()</text>
<text text-anchor="start" x="262" y="-178.5" font-family="Helvetica,sans-Serif" font-size="10.00">+ room_number()</text>
<text text-anchor="start" x="262" y="-167.5" font-family="Helvetica,sans-Serif" font-size="10.00">+ SetSide()</text>
</a>
</g>
</g>
<!-- Node1&#45;&gt;Node4 -->
<g id="edge3" class="edge"><title>Node1&#45;&gt;Node4</title>
<path fill="none" stroke="midnightblue" d="M307.5,-332.243C307.5,-323.699 307.5,-314.651 307.5,-305.64"/>
<polygon fill="none" stroke="midnightblue" points="304,-332.377 307.5,-342.377 311,-332.378 304,-332.377"/>
</g>
<!-- Node8 -->
<g id="node8" class="node"><title>Node8</title>
<g id="a_node8"><a xlink:href="../../da/d9e/classcreational_1_1commons_1_1_wall.html" target="_top" xlink:title="{creational::commons\l::Wall\n|# entered_\l|+ Wall()\l+ Wall()\l+ ~Wall()\l+ Clone()\l+ Enter()\l+ entered()\l}">
<polygon fill="white" stroke="black" points="450,-171.5 450,-294.5 557,-294.5 557,-171.5 450,-171.5"/>
<text text-anchor="start" x="458" y="-282.5" font-family="Helvetica,sans-Serif" font-size="10.00">creational::commons</text>
<text text-anchor="middle" x="503.5" y="-271.5" font-family="Helvetica,sans-Serif" font-size="10.00">::Wall</text>
<polyline fill="none" stroke="black" points="450,-264.5 557,-264.5 "/>
<text text-anchor="start" x="458" y="-252.5" font-family="Helvetica,sans-Serif" font-size="10.00"># entered_</text>
<polyline fill="none" stroke="black" points="450,-245.5 557,-245.5 "/>
<text text-anchor="start" x="458" y="-233.5" font-family="Helvetica,sans-Serif" font-size="10.00">+ Wall()</text>
<text text-anchor="start" x="458" y="-222.5" font-family="Helvetica,sans-Serif" font-size="10.00">+ Wall()</text>
<text text-anchor="start" x="458" y="-211.5" font-family="Helvetica,sans-Serif" font-size="10.00">+ ~Wall()</text>
<text text-anchor="start" x="458" y="-200.5" font-family="Helvetica,sans-Serif" font-size="10.00">+ Clone()</text>
<text text-anchor="start" x="458" y="-189.5" font-family="Helvetica,sans-Serif" font-size="10.00">+ Enter()</text>
<text text-anchor="start" x="458" y="-178.5" font-family="Helvetica,sans-Serif" font-size="10.00">+ entered()</text>
</a>
</g>
</g>
<!-- Node1&#45;&gt;Node8 -->
<g id="edge7" class="edge"><title>Node1&#45;&gt;Node8</title>
<path fill="none" stroke="midnightblue" d="M367.039,-336.346C393.447,-316.54 424.283,-293.413 449.954,-274.159"/>
<polygon fill="none" stroke="midnightblue" points="364.897,-333.577 358.997,-342.377 369.097,-339.177 364.897,-333.577"/>
</g>
<!-- Node3 -->
<g id="node3" class="node"><title>Node3</title>
<g id="a_node3"><a xlink:href="../../dd/da2/classcreational_1_1commons_1_1_door_needing_spell.html" target="_top" xlink:title="{creational::commons\l::DoorNeedingSpell\n||+ DoorNeedingSpell()\l+ DoorNeedingSpell()\l+ TrySpell()\l}">
<polygon fill="white" stroke="black" points="0,-17 0,-107 109,-107 109,-17 0,-17"/>
<text text-anchor="start" x="8" y="-95" font-family="Helvetica,sans-Serif" font-size="10.00">creational::commons</text>
<text text-anchor="middle" x="54.5" y="-84" font-family="Helvetica,sans-Serif" font-size="10.00">::DoorNeedingSpell</text>
<polyline fill="none" stroke="black" points="0,-77 109,-77 "/>
<text text-anchor="middle" x="54.5" y="-65" font-family="Helvetica,sans-Serif" font-size="10.00"> </text>
<polyline fill="none" stroke="black" points="0,-58 109,-58 "/>
<text text-anchor="start" x="8" y="-46" font-family="Helvetica,sans-Serif" font-size="10.00">+ DoorNeedingSpell()</text>
<text text-anchor="start" x="8" y="-35" font-family="Helvetica,sans-Serif" font-size="10.00">+ DoorNeedingSpell()</text>
<text text-anchor="start" x="8" y="-24" font-family="Helvetica,sans-Serif" font-size="10.00">+ TrySpell()</text>
</a>
</g>
</g>
<!-- Node2&#45;&gt;Node3 -->
<g id="edge2" class="edge"><title>Node2&#45;&gt;Node3</title>
<path fill="none" stroke="midnightblue" d="M87.6635,-150.572C82.0191,-135.668 76.3264,-120.635 71.2891,-107.334"/>
<polygon fill="none" stroke="midnightblue" points="84.5435,-152.216 91.3582,-160.329 91.0898,-149.737 84.5435,-152.216"/>
</g>
<!-- Node5 -->
<g id="node5" class="node"><title>Node5</title>
<g id="a_node5"><a xlink:href="../../d8/d48/classcreational_1_1commons_1_1_enchanted_room.html" target="_top" xlink:title="{creational::commons\l::EnchantedRoom\n||+ EnchantedRoom()\l+ EnchantedRoom()\l+ Clone()\l+ HasSpell()\l+ Initialize()\l+ PickUpSpell()\l}">
<polygon fill="white" stroke="black" points="127,-0.5 127,-123.5 234,-123.5 234,-0.5 127,-0.5"/>
<text text-anchor="start" x="135" y="-111.5" font-family="Helvetica,sans-Serif" font-size="10.00">creational::commons</text>
<text text-anchor="middle" x="180.5" y="-100.5" font-family="Helvetica,sans-Serif" font-size="10.00">::EnchantedRoom</text>
<polyline fill="none" stroke="black" points="127,-93.5 234,-93.5 "/>
<text text-anchor="middle" x="180.5" y="-81.5" font-family="Helvetica,sans-Serif" font-size="10.00"> </text>
<polyline fill="none" stroke="black" points="127,-74.5 234,-74.5 "/>
<text text-anchor="start" x="135" y="-62.5" font-family="Helvetica,sans-Serif" font-size="10.00">+ EnchantedRoom()</text>
<text text-anchor="start" x="135" y="-51.5" font-family="Helvetica,sans-Serif" font-size="10.00">+ EnchantedRoom()</text>
<text text-anchor="start" x="135" y="-40.5" font-family="Helvetica,sans-Serif" font-size="10.00">+ Clone()</text>
<text text-anchor="start" x="135" y="-29.5" font-family="Helvetica,sans-Serif" font-size="10.00">+ HasSpell()</text>
<text text-anchor="start" x="135" y="-18.5" font-family="Helvetica,sans-Serif" font-size="10.00">+ Initialize()</text>
<text text-anchor="start" x="135" y="-7.5" font-family="Helvetica,sans-Serif" font-size="10.00">+ PickUpSpell()</text>
</a>
</g>
</g>
<!-- Node4&#45;&gt;Node5 -->
<g id="edge4" class="edge"><title>Node4&#45;&gt;Node5</title>
<path fill="none" stroke="midnightblue" d="M247.575,-152.258C240.328,-142.613 233.018,-132.886 226.025,-123.58"/>
<polygon fill="none" stroke="midnightblue" points="244.835,-154.437 253.641,-160.329 250.431,-150.232 244.835,-154.437"/>
</g>
<!-- Node6 -->
<g id="node6" class="node"><title>Node6</title>
<g id="a_node6"><a xlink:href="../../d6/d96/classcreational_1_1commons_1_1_room_with_a_bomb.html" target="_top" xlink:title="{creational::commons\l::RoomWithABomb\n||+ RoomWithABomb()\l+ RoomWithABomb()\l+ Clone()\l+ has_bomb()\l+ Initialize()\l}">
<polygon fill="white" stroke="black" points="252.5,-6 252.5,-118 362.5,-118 362.5,-6 252.5,-6"/>
<text text-anchor="start" x="260.5" y="-106" font-family="Helvetica,sans-Serif" font-size="10.00">creational::commons</text>
<text text-anchor="middle" x="307.5" y="-95" font-family="Helvetica,sans-Serif" font-size="10.00">::RoomWithABomb</text>
<polyline fill="none" stroke="black" points="252.5,-88 362.5,-88 "/>
<text text-anchor="middle" x="307.5" y="-76" font-family="Helvetica,sans-Serif" font-size="10.00"> </text>
<polyline fill="none" stroke="black" points="252.5,-69 362.5,-69 "/>
<text text-anchor="start" x="260.5" y="-57" font-family="Helvetica,sans-Serif" font-size="10.00">+ RoomWithABomb()</text>
<text text-anchor="start" x="260.5" y="-46" font-family="Helvetica,sans-Serif" font-size="10.00">+ RoomWithABomb()</text>
<text text-anchor="start" x="260.5" y="-35" font-family="Helvetica,sans-Serif" font-size="10.00">+ Clone()</text>
<text text-anchor="start" x="260.5" y="-24" font-family="Helvetica,sans-Serif" font-size="10.00">+ has_bomb()</text>
<text text-anchor="start" x="260.5" y="-13" font-family="Helvetica,sans-Serif" font-size="10.00">+ Initialize()</text>
</a>
</g>
</g>
<!-- Node4&#45;&gt;Node6 -->
<g id="edge5" class="edge"><title>Node4&#45;&gt;Node6</title>
<path fill="none" stroke="midnightblue" d="M307.5,-150.004C307.5,-139.193 307.5,-128.327 307.5,-118.116"/>
<polygon fill="none" stroke="midnightblue" points="304,-150.329 307.5,-160.329 311,-150.329 304,-150.329"/>
</g>
<!-- Node7 -->
<g id="node7" class="node"><title>Node7</title>
<g id="a_node7"><a xlink:href="../../d8/d0c/classcreational_1_1commons_1_1_twisty_turny_passage.html" target="_top" xlink:title="{creational::commons\l::TwistyTurnyPassage\n||+ TwistyTurnyPassage()\l+ Enter()\l+ entered()\l}">
<polygon fill="white" stroke="black" points="380.5,-17 380.5,-107 502.5,-107 502.5,-17 380.5,-17"/>
<text text-anchor="start" x="388.5" y="-95" font-family="Helvetica,sans-Serif" font-size="10.00">creational::commons</text>
<text text-anchor="middle" x="441.5" y="-84" font-family="Helvetica,sans-Serif" font-size="10.00">::TwistyTurnyPassage</text>
<polyline fill="none" stroke="black" points="380.5,-77 502.5,-77 "/>
<text text-anchor="middle" x="441.5" y="-65" font-family="Helvetica,sans-Serif" font-size="10.00"> </text>
<polyline fill="none" stroke="black" points="380.5,-58 502.5,-58 "/>
<text text-anchor="start" x="388.5" y="-46" font-family="Helvetica,sans-Serif" font-size="10.00">+ TwistyTurnyPassage()</text>
<text text-anchor="start" x="388.5" y="-35" font-family="Helvetica,sans-Serif" font-size="10.00">+ Enter()</text>
<text text-anchor="start" x="388.5" y="-24" font-family="Helvetica,sans-Serif" font-size="10.00">+ entered()</text>
</a>
</g>
</g>
<!-- Node4&#45;&gt;Node7 -->
<g id="edge6" class="edge"><title>Node4&#45;&gt;Node7</title>
<path fill="none" stroke="midnightblue" d="M367.667,-156.118C380.854,-139.486 394.399,-122.404 406.227,-107.486"/>
<polygon fill="none" stroke="midnightblue" points="364.701,-154.225 361.231,-164.235 370.186,-158.574 364.701,-154.225"/>
</g>
<!-- Node9 -->
<g id="node9" class="node"><title>Node9</title>
<g id="a_node9"><a xlink:href="../../da/db1/classcreational_1_1commons_1_1_bombed_wall.html" target="_top" xlink:title="{creational::commons\l::BombedWall\n||+ BombedWall()\l+ BombedWall()\l+ Clone()\l+ Enter()\l+ Intialize()\l+ bombed()\l}">
<polygon fill="white" stroke="black" points="521,-0.5 521,-123.5 628,-123.5 628,-0.5 521,-0.5"/>
<text text-anchor="start" x="529" y="-111.5" font-family="Helvetica,sans-Serif" font-size="10.00">creational::commons</text>
<text text-anchor="middle" x="574.5" y="-100.5" font-family="Helvetica,sans-Serif" font-size="10.00">::BombedWall</text>
<polyline fill="none" stroke="black" points="521,-93.5 628,-93.5 "/>
<text text-anchor="middle" x="574.5" y="-81.5" font-family="Helvetica,sans-Serif" font-size="10.00"> </text>
<polyline fill="none" stroke="black" points="521,-74.5 628,-74.5 "/>
<text text-anchor="start" x="529" y="-62.5" font-family="Helvetica,sans-Serif" font-size="10.00">+ BombedWall()</text>
<text text-anchor="start" x="529" y="-51.5" font-family="Helvetica,sans-Serif" font-size="10.00">+ BombedWall()</text>
<text text-anchor="start" x="529" y="-40.5" font-family="Helvetica,sans-Serif" font-size="10.00">+ Clone()</text>
<text text-anchor="start" x="529" y="-29.5" font-family="Helvetica,sans-Serif" font-size="10.00">+ Enter()</text>
<text text-anchor="start" x="529" y="-18.5" font-family="Helvetica,sans-Serif" font-size="10.00">+ Intialize()</text>
<text text-anchor="start" x="529" y="-7.5" font-family="Helvetica,sans-Serif" font-size="10.00">+ bombed()</text>
</a>
</g>
</g>
<!-- Node8&#45;&gt;Node9 -->
<g id="edge8" class="edge"><title>Node8&#45;&gt;Node9</title>
<path fill="none" stroke="midnightblue" d="M532.962,-161.873C538.289,-149.191 543.804,-136.064 549.007,-123.681"/>
<polygon fill="none" stroke="midnightblue" points="529.579,-160.889 528.932,-171.464 536.032,-163.601 529.579,-160.889"/>
</g>
</g>
</svg>
