<?xml version="1.0" encoding="UTF-8" standalone="no"?>
<!DOCTYPE svg PUBLIC "-//W3C//DTD SVG 1.1//EN"
 "http://www.w3.org/Graphics/SVG/1.1/DTD/svg11.dtd">
<!-- Generated by graphviz version 2.38.0 (20140413.2041)
 -->
<!-- Title: src/structural/src/composite/floppy_disk.cc Pages: 1 -->
<svg width="204pt" height="207pt"
 viewBox="0.00 0.00 203.50 207.00" xmlns="http://www.w3.org/2000/svg" xmlns:xlink="http://www.w3.org/1999/xlink">
<g id="graph0" class="graph" transform="scale(1 1) rotate(0) translate(4 203)">
<title>src/structural/src/composite/floppy_disk.cc</title>
<polygon fill="white" stroke="none" points="-4,4 -4,-203 199.5,-203 199.5,4 -4,4"/>
<!-- Node1 -->
<g id="node1" class="node"><title>Node1</title>
<polygon fill="#bfbfbf" stroke="black" points="65.5,-168.5 65.5,-198.5 195.5,-198.5 195.5,-168.5 65.5,-168.5"/>
<text text-anchor="start" x="73.5" y="-186.5" font-family="Helvetica,sans-Serif" font-size="10.00">src/structural/src</text>
<text text-anchor="middle" x="130.5" y="-175.5" font-family="Helvetica,sans-Serif" font-size="10.00">/composite/floppy_disk.cc</text>
</g>
<!-- Node2 -->
<g id="node2" class="node"><title>Node2</title>
<g id="a_node2"><a xlink:href="../../d3/d51/structural_2src_2composite_2floppy__disk_8h.html" target="_top" xlink:title="floppy_disk.h">
<polygon fill="white" stroke="black" points="93.5,-112.5 93.5,-131.5 167.5,-131.5 167.5,-112.5 93.5,-112.5"/>
<text text-anchor="middle" x="130.5" y="-119.5" font-family="Helvetica,sans-Serif" font-size="10.00">floppy_disk.h</text>
</a>
</g>
</g>
<!-- Node1&#45;&gt;Node2 -->
<g id="edge1" class="edge"><title>Node1&#45;&gt;Node2</title>
<path fill="none" stroke="midnightblue" d="M130.5,-168.399C130.5,-160.466 130.5,-150.458 130.5,-141.858"/>
<polygon fill="midnightblue" stroke="midnightblue" points="134,-141.658 130.5,-131.658 127,-141.658 134,-141.658"/>
</g>
<!-- Node3 -->
<g id="node3" class="node"><title>Node3</title>
<g id="a_node3"><a xlink:href="../../d4/d70/equipment__interface_8h.html" target="_top" xlink:title="equipment_interface.h">
<polygon fill="white" stroke="black" points="32.5,-56.5 32.5,-75.5 144.5,-75.5 144.5,-56.5 32.5,-56.5"/>
<text text-anchor="middle" x="88.5" y="-63.5" font-family="Helvetica,sans-Serif" font-size="10.00">equipment_interface.h</text>
</a>
</g>
</g>
<!-- Node2&#45;&gt;Node3 -->
<g id="edge2" class="edge"><title>Node2&#45;&gt;Node3</title>
<path fill="none" stroke="midnightblue" d="M123.565,-112.083C117.571,-104.377 108.748,-93.0333 101.452,-83.6531"/>
<polygon fill="midnightblue" stroke="midnightblue" points="104.209,-81.4958 95.3064,-75.7511 98.6831,-85.7934 104.209,-81.4958"/>
</g>
<!-- Node6 -->
<g id="node6" class="node"><title>Node6</title>
<polygon fill="white" stroke="#bfbfbf" points="145,-0.5 145,-19.5 186,-19.5 186,-0.5 145,-0.5"/>
<text text-anchor="middle" x="165.5" y="-7.5" font-family="Helvetica,sans-Serif" font-size="10.00">string</text>
</g>
<!-- Node2&#45;&gt;Node6 -->
<g id="edge6" class="edge"><title>Node2&#45;&gt;Node6</title>
<path fill="none" stroke="midnightblue" d="M135.872,-112.369C141.129,-103.547 148.984,-89.2918 153.5,-76 158.64,-60.8733 161.738,-42.9758 163.495,-29.7947"/>
<polygon fill="midnightblue" stroke="midnightblue" points="167.001,-29.9584 164.712,-19.6137 160.05,-29.1277 167.001,-29.9584"/>
</g>
<!-- Node4 -->
<g id="node4" class="node"><title>Node4</title>
<g id="a_node4"><a xlink:href="../../d9/d51/watt_8h.html" target="_top" xlink:title="watt.h">
<polygon fill="white" stroke="black" points="0,-0.5 0,-19.5 43,-19.5 43,-0.5 0,-0.5"/>
<text text-anchor="middle" x="21.5" y="-7.5" font-family="Helvetica,sans-Serif" font-size="10.00">watt.h</text>
</a>
</g>
</g>
<!-- Node3&#45;&gt;Node4 -->
<g id="edge3" class="edge"><title>Node3&#45;&gt;Node4</title>
<path fill="none" stroke="midnightblue" d="M77.7353,-56.324C67.7339,-48.2631 52.6135,-36.0765 40.5695,-26.3695"/>
<polygon fill="midnightblue" stroke="midnightblue" points="42.4429,-23.3841 32.4606,-19.8339 38.0502,-28.8343 42.4429,-23.3841"/>
</g>
<!-- Node5 -->
<g id="node5" class="node"><title>Node5</title>
<g id="a_node5"><a xlink:href="../../d1/dcf/currency_8h.html" target="_top" xlink:title="currency.h">
<polygon fill="white" stroke="black" points="61.5,-0.5 61.5,-19.5 123.5,-19.5 123.5,-0.5 61.5,-0.5"/>
<text text-anchor="middle" x="92.5" y="-7.5" font-family="Helvetica,sans-Serif" font-size="10.00">currency.h</text>
</a>
</g>
</g>
<!-- Node3&#45;&gt;Node5 -->
<g id="edge4" class="edge"><title>Node3&#45;&gt;Node5</title>
<path fill="none" stroke="midnightblue" d="M89.1605,-56.083C89.6848,-49.0059 90.4362,-38.8611 91.0936,-29.9865"/>
<polygon fill="midnightblue" stroke="midnightblue" points="94.6034,-29.9823 91.8518,-19.7511 87.6225,-29.4652 94.6034,-29.9823"/>
</g>
<!-- Node3&#45;&gt;Node6 -->
<g id="edge5" class="edge"><title>Node3&#45;&gt;Node6</title>
<path fill="none" stroke="midnightblue" d="M100.871,-56.324C112.658,-48.0577 130.632,-35.4527 144.636,-25.6322"/>
<polygon fill="midnightblue" stroke="midnightblue" points="146.982,-28.2619 153.159,-19.6545 142.962,-22.5307 146.982,-28.2619"/>
</g>
</g>
</svg>
