<?xml version="1.0" encoding="UTF-8" standalone="no"?>
<!DOCTYPE svg PUBLIC "-//W3C//DTD SVG 1.1//EN"
 "http://www.w3.org/Graphics/SVG/1.1/DTD/svg11.dtd">
<!-- Generated by graphviz version 2.38.0 (20140413.2041)
 -->
<!-- Title: operational::chain::Widget::HandleHelp Pages: 1 -->
<svg width="265pt" height="100pt"
 viewBox="0.00 0.00 265.00 99.50" xmlns="http://www.w3.org/2000/svg" xmlns:xlink="http://www.w3.org/1999/xlink">
<g id="graph0" class="graph" transform="scale(1 1) rotate(0) translate(4 95.5)">
<title>operational::chain::Widget::HandleHelp</title>
<polygon fill="white" stroke="none" points="-4,4 -4,-95.5 261,-95.5 261,4 -4,4"/>
<!-- Node1 -->
<g id="node1" class="node"><title>Node1</title>
<polygon fill="#bfbfbf" stroke="black" points="0,-33 0,-63 109,-63 109,-33 0,-33"/>
<text text-anchor="start" x="8" y="-51" font-family="Helvetica,sans-Serif" font-size="10.00">operational::chain</text>
<text text-anchor="middle" x="54.5" y="-40" font-family="Helvetica,sans-Serif" font-size="10.00">::Widget::HandleHelp</text>
</g>
<!-- Node2 -->
<g id="node2" class="node"><title>Node2</title>
<g id="a_node2"><a xlink:href="../../df/d6a/classoperational_1_1chain_1_1_widget.html#aac6cc8c0e76c3e4fa9c864b618ad7753" target="_top" xlink:title="operational::chain\l::Widget::HasHelp">
<polygon fill="white" stroke="black" points="153,-61 153,-91 249,-91 249,-61 153,-61"/>
<text text-anchor="start" x="161" y="-79" font-family="Helvetica,sans-Serif" font-size="10.00">operational::chain</text>
<text text-anchor="middle" x="201" y="-68" font-family="Helvetica,sans-Serif" font-size="10.00">::Widget::HasHelp</text>
</a>
</g>
</g>
<!-- Node1&#45;&gt;Node2 -->
<g id="edge1" class="edge"><title>Node1&#45;&gt;Node2</title>
<path fill="none" stroke="midnightblue" d="M109.306,-58.4262C120.242,-60.5451 131.781,-62.7811 142.828,-64.9218"/>
<polygon fill="midnightblue" stroke="midnightblue" points="142.321,-68.3884 152.804,-66.8548 143.652,-61.5163 142.321,-68.3884"/>
</g>
<!-- Node3 -->
<g id="node3" class="node"><title>Node3</title>
<g id="a_node3"><a xlink:href="../../df/dcd/classoperational_1_1chain_1_1_help_handler_interface.html#a297c6b35a5f78502a636714fe48f62ca" target="_top" xlink:title="operational::chain\l::HelpHandlerInterface\l::HandleHelp">
<polygon fill="white" stroke="black" points="145,-0.5 145,-41.5 257,-41.5 257,-0.5 145,-0.5"/>
<text text-anchor="start" x="153" y="-29.5" font-family="Helvetica,sans-Serif" font-size="10.00">operational::chain</text>
<text text-anchor="start" x="153" y="-18.5" font-family="Helvetica,sans-Serif" font-size="10.00">::HelpHandlerInterface</text>
<text text-anchor="middle" x="201" y="-7.5" font-family="Helvetica,sans-Serif" font-size="10.00">::HandleHelp</text>
</a>
</g>
</g>
<!-- Node1&#45;&gt;Node3 -->
<g id="edge2" class="edge"><title>Node1&#45;&gt;Node3</title>
<path fill="none" stroke="midnightblue" d="M109.306,-37.9462C117.611,-36.3944 126.265,-34.7775 134.786,-33.1852"/>
<polygon fill="midnightblue" stroke="midnightblue" points="135.514,-36.61 144.701,-31.3328 134.228,-29.7291 135.514,-36.61"/>
</g>
</g>
</svg>
