<?xml version="1.0" encoding="UTF-8" standalone="no"?>
<!DOCTYPE svg PUBLIC "-//W3C//DTD SVG 1.1//EN"
 "http://www.w3.org/Graphics/SVG/1.1/DTD/svg11.dtd">
<!-- Generated by graphviz version 2.38.0 (20140413.2041)
 -->
<!-- Title: operational::chain::Widget::SetHandler Pages: 1 -->
<svg width="244pt" height="39pt"
 viewBox="0.00 0.00 244.00 39.00" xmlns="http://www.w3.org/2000/svg" xmlns:xlink="http://www.w3.org/1999/xlink">
<g id="graph0" class="graph" transform="scale(1 1) rotate(0) translate(4 35)">
<title>operational::chain::Widget::SetHandler</title>
<polygon fill="white" stroke="none" points="-4,4 -4,-35 240,-35 240,4 -4,4"/>
<!-- Node1 -->
<g id="node1" class="node"><title>Node1</title>
<polygon fill="#bfbfbf" stroke="black" points="0,-0.5 0,-30.5 107,-30.5 107,-0.5 0,-0.5"/>
<text text-anchor="start" x="8" y="-18.5" font-family="Helvetica,sans-Serif" font-size="10.00">operational::chain</text>
<text text-anchor="middle" x="53.5" y="-7.5" font-family="Helvetica,sans-Serif" font-size="10.00">::Widget::SetHandler</text>
</g>
<!-- Node2 -->
<g id="node2" class="node"><title>Node2</title>
<g id="a_node2"><a xlink:href="../../df/d6a/classoperational_1_1chain_1_1_widget.html#adc3a831ebad715bded7a6873b6d43174" target="_top" xlink:title="operational::chain\l::Widget::topic">
<polygon fill="white" stroke="black" points="143,-0.5 143,-30.5 236,-30.5 236,-0.5 143,-0.5"/>
<text text-anchor="start" x="151" y="-18.5" font-family="Helvetica,sans-Serif" font-size="10.00">operational::chain</text>
<text text-anchor="middle" x="189.5" y="-7.5" font-family="Helvetica,sans-Serif" font-size="10.00">::Widget::topic</text>
</a>
</g>
</g>
<!-- Node1&#45;&gt;Node2 -->
<g id="edge1" class="edge"><title>Node1&#45;&gt;Node2</title>
<path fill="none" stroke="midnightblue" d="M107.076,-15.5C115.416,-15.5 124.07,-15.5 132.485,-15.5"/>
<polygon fill="midnightblue" stroke="midnightblue" points="132.596,-19.0001 142.596,-15.5 132.596,-12.0001 132.596,-19.0001"/>
</g>
</g>
</svg>
