<?xml version="1.0" encoding="UTF-8" standalone="no"?>
<!DOCTYPE svg PUBLIC "-//W3C//DTD SVG 1.1//EN"
 "http://www.w3.org/Graphics/SVG/1.1/DTD/svg11.dtd">
<!-- Generated by graphviz version 2.38.0 (20140413.2041)
 -->
<!-- Title: operational::chain::Widget::HandleHelp Pages: 1 -->
<svg width="260pt" height="88pt"
 viewBox="0.00 0.00 260.00 88.00" xmlns="http://www.w3.org/2000/svg" xmlns:xlink="http://www.w3.org/1999/xlink">
<g id="graph0" class="graph" transform="scale(1 1) rotate(0) translate(4 84)">
<title>operational::chain::Widget::HandleHelp</title>
<polygon fill="white" stroke="none" points="-4,4 -4,-84 256,-84 256,4 -4,4"/>
<!-- Node1 -->
<g id="node1" class="node"><title>Node1</title>
<polygon fill="#bfbfbf" stroke="black" points="0,-24.5 0,-54.5 109,-54.5 109,-24.5 0,-24.5"/>
<text text-anchor="start" x="8" y="-42.5" font-family="Helvetica,sans-Serif" font-size="10.00">operational::chain</text>
<text text-anchor="middle" x="54.5" y="-31.5" font-family="Helvetica,sans-Serif" font-size="10.00">::Widget::HandleHelp</text>
</g>
<!-- Node2 -->
<g id="node2" class="node"><title>Node2</title>
<g id="a_node2"><a xlink:href="../../d1/d32/classoperational_1_1chain_1_1_button.html#a9f9b4f4bf0ae2106e31547acb1e90f17" target="_top" xlink:title="operational::chain\l::Button::HandleHelp">
<polygon fill="white" stroke="black" points="145,-49.5 145,-79.5 252,-79.5 252,-49.5 145,-49.5"/>
<text text-anchor="start" x="153" y="-67.5" font-family="Helvetica,sans-Serif" font-size="10.00">operational::chain</text>
<text text-anchor="middle" x="198.5" y="-56.5" font-family="Helvetica,sans-Serif" font-size="10.00">::Button::HandleHelp</text>
</a>
</g>
</g>
<!-- Node1&#45;&gt;Node2 -->
<g id="edge1" class="edge"><title>Node1&#45;&gt;Node2</title>
<path fill="none" stroke="midnightblue" d="M119.118,-50.7004C127.662,-52.2046 136.351,-53.7343 144.681,-55.2009"/>
<polygon fill="midnightblue" stroke="midnightblue" points="119.64,-47.2384 109.184,-48.9514 118.426,-54.1324 119.64,-47.2384"/>
</g>
<!-- Node3 -->
<g id="node3" class="node"><title>Node3</title>
<g id="a_node3"><a xlink:href="../../dd/df0/classoperational_1_1chain_1_1_dialog.html#a3bc7ea13d7c585300c137c28549c2987" target="_top" xlink:title="operational::chain\l::Dialog::HandleHelp">
<polygon fill="white" stroke="black" points="146,-0.5 146,-30.5 251,-30.5 251,-0.5 146,-0.5"/>
<text text-anchor="start" x="154" y="-18.5" font-family="Helvetica,sans-Serif" font-size="10.00">operational::chain</text>
<text text-anchor="middle" x="198.5" y="-7.5" font-family="Helvetica,sans-Serif" font-size="10.00">::Dialog::HandleHelp</text>
</a>
</g>
</g>
<!-- Node1&#45;&gt;Node3 -->
<g id="edge2" class="edge"><title>Node1&#45;&gt;Node3</title>
<path fill="none" stroke="midnightblue" d="M119.103,-28.7502C127.973,-27.251 137,-25.7254 145.619,-24.2686"/>
<polygon fill="midnightblue" stroke="midnightblue" points="118.461,-25.309 109.184,-30.4266 119.628,-32.2111 118.461,-25.309"/>
</g>
</g>
</svg>
