<?xml version="1.0" encoding="UTF-8" standalone="no"?>
<!DOCTYPE svg PUBLIC "-//W3C//DTD SVG 1.1//EN"
 "http://www.w3.org/Graphics/SVG/1.1/DTD/svg11.dtd">
<!-- Generated by graphviz version 2.38.0 (20140413.2041)
 -->
<!-- Title: operational::chain::Widget::Widget Pages: 1 -->
<svg width="230pt" height="88pt"
 viewBox="0.00 0.00 230.00 88.00" xmlns="http://www.w3.org/2000/svg" xmlns:xlink="http://www.w3.org/1999/xlink">
<g id="graph0" class="graph" transform="scale(1 1) rotate(0) translate(4 84)">
<title>operational::chain::Widget::Widget</title>
<polygon fill="white" stroke="none" points="-4,4 -4,-84 226,-84 226,4 -4,4"/>
<!-- Node1 -->
<g id="node1" class="node"><title>Node1</title>
<polygon fill="#bfbfbf" stroke="black" points="0,-24.5 0,-54.5 93,-54.5 93,-24.5 0,-24.5"/>
<text text-anchor="start" x="8" y="-42.5" font-family="Helvetica,sans-Serif" font-size="10.00">operational::chain</text>
<text text-anchor="middle" x="46.5" y="-31.5" font-family="Helvetica,sans-Serif" font-size="10.00">::Widget::Widget</text>
</g>
<!-- Node2 -->
<g id="node2" class="node"><title>Node2</title>
<g id="a_node2"><a xlink:href="../../df/d6a/classoperational_1_1chain_1_1_widget.html#adc3a831ebad715bded7a6873b6d43174" target="_top" xlink:title="operational::chain\l::Widget::topic">
<polygon fill="white" stroke="black" points="129,-49.5 129,-79.5 222,-79.5 222,-49.5 129,-49.5"/>
<text text-anchor="start" x="137" y="-67.5" font-family="Helvetica,sans-Serif" font-size="10.00">operational::chain</text>
<text text-anchor="middle" x="175.5" y="-56.5" font-family="Helvetica,sans-Serif" font-size="10.00">::Widget::topic</text>
</a>
</g>
</g>
<!-- Node1&#45;&gt;Node2 -->
<g id="edge1" class="edge"><title>Node1&#45;&gt;Node2</title>
<path fill="none" stroke="midnightblue" d="M93.3499,-48.5256C101.623,-50.1541 110.33,-51.8681 118.846,-53.5444"/>
<polygon fill="midnightblue" stroke="midnightblue" points="118.23,-56.9903 128.717,-55.4877 119.582,-50.1221 118.23,-56.9903"/>
</g>
<!-- Node3 -->
<g id="node3" class="node"><title>Node3</title>
<g id="a_node3"><a xlink:href="../../df/d6a/classoperational_1_1chain_1_1_widget.html#acd95702812f9485e557d2368b71cb181" target="_top" xlink:title="operational::chain\l::Widget::name">
<polygon fill="white" stroke="black" points="129,-0.5 129,-30.5 222,-30.5 222,-0.5 129,-0.5"/>
<text text-anchor="start" x="137" y="-18.5" font-family="Helvetica,sans-Serif" font-size="10.00">operational::chain</text>
<text text-anchor="middle" x="175.5" y="-7.5" font-family="Helvetica,sans-Serif" font-size="10.00">::Widget::name</text>
</a>
</g>
</g>
<!-- Node1&#45;&gt;Node3 -->
<g id="edge2" class="edge"><title>Node1&#45;&gt;Node3</title>
<path fill="none" stroke="midnightblue" d="M93.3499,-30.8354C101.623,-29.2721 110.33,-27.6266 118.846,-26.0173"/>
<polygon fill="midnightblue" stroke="midnightblue" points="119.541,-29.4479 128.717,-24.1518 118.241,-22.5697 119.541,-29.4479"/>
</g>
</g>
</svg>
