<?xml version="1.0" encoding="UTF-8" standalone="no"?>
<!DOCTYPE svg PUBLIC "-//W3C//DTD SVG 1.1//EN"
 "http://www.w3.org/Graphics/SVG/1.1/DTD/svg11.dtd">
<!-- Generated by graphviz version 2.38.0 (20140413.2041)
 -->
<!-- Title: operational::chain::Widget::HasHelp Pages: 1 -->
<svg width="392pt" height="88pt"
 viewBox="0.00 0.00 392.00 88.00" xmlns="http://www.w3.org/2000/svg" xmlns:xlink="http://www.w3.org/1999/xlink">
<g id="graph0" class="graph" transform="scale(1 1) rotate(0) translate(4 84)">
<title>operational::chain::Widget::HasHelp</title>
<polygon fill="white" stroke="none" points="-4,4 -4,-84 388,-84 388,4 -4,4"/>
<!-- Node1 -->
<g id="node1" class="node"><title>Node1</title>
<polygon fill="#bfbfbf" stroke="black" points="0,-24.5 0,-54.5 96,-54.5 96,-24.5 0,-24.5"/>
<text text-anchor="start" x="8" y="-42.5" font-family="Helvetica,sans-Serif" font-size="10.00">operational::chain</text>
<text text-anchor="middle" x="48" y="-31.5" font-family="Helvetica,sans-Serif" font-size="10.00">::Widget::HasHelp</text>
</g>
<!-- Node2 -->
<g id="node2" class="node"><title>Node2</title>
<g id="a_node2"><a xlink:href="../../df/d6a/classoperational_1_1chain_1_1_widget.html#a787c0fbd6eccaa5063b22d9716220ad7" target="_top" xlink:title="operational::chain\l::Widget::HandleHelp">
<polygon fill="white" stroke="black" points="132,-24.5 132,-54.5 241,-54.5 241,-24.5 132,-24.5"/>
<text text-anchor="start" x="140" y="-42.5" font-family="Helvetica,sans-Serif" font-size="10.00">operational::chain</text>
<text text-anchor="middle" x="186.5" y="-31.5" font-family="Helvetica,sans-Serif" font-size="10.00">::Widget::HandleHelp</text>
</a>
</g>
</g>
<!-- Node1&#45;&gt;Node2 -->
<g id="edge1" class="edge"><title>Node1&#45;&gt;Node2</title>
<path fill="none" stroke="midnightblue" d="M106.421,-39.5C114.79,-39.5 123.383,-39.5 131.677,-39.5"/>
<polygon fill="midnightblue" stroke="midnightblue" points="106.358,-36.0001 96.358,-39.5 106.358,-43.0001 106.358,-36.0001"/>
</g>
<!-- Node3 -->
<g id="node3" class="node"><title>Node3</title>
<g id="a_node3"><a xlink:href="../../d1/d32/classoperational_1_1chain_1_1_button.html#a9f9b4f4bf0ae2106e31547acb1e90f17" target="_top" xlink:title="operational::chain\l::Button::HandleHelp">
<polygon fill="white" stroke="black" points="277,-49.5 277,-79.5 384,-79.5 384,-49.5 277,-49.5"/>
<text text-anchor="start" x="285" y="-67.5" font-family="Helvetica,sans-Serif" font-size="10.00">operational::chain</text>
<text text-anchor="middle" x="330.5" y="-56.5" font-family="Helvetica,sans-Serif" font-size="10.00">::Button::HandleHelp</text>
</a>
</g>
</g>
<!-- Node2&#45;&gt;Node3 -->
<g id="edge2" class="edge"><title>Node2&#45;&gt;Node3</title>
<path fill="none" stroke="midnightblue" d="M251.118,-50.7004C259.662,-52.2046 268.351,-53.7343 276.681,-55.2009"/>
<polygon fill="midnightblue" stroke="midnightblue" points="251.64,-47.2384 241.184,-48.9514 250.426,-54.1324 251.64,-47.2384"/>
</g>
<!-- Node4 -->
<g id="node4" class="node"><title>Node4</title>
<g id="a_node4"><a xlink:href="../../dd/df0/classoperational_1_1chain_1_1_dialog.html#a3bc7ea13d7c585300c137c28549c2987" target="_top" xlink:title="operational::chain\l::Dialog::HandleHelp">
<polygon fill="white" stroke="black" points="278,-0.5 278,-30.5 383,-30.5 383,-0.5 278,-0.5"/>
<text text-anchor="start" x="286" y="-18.5" font-family="Helvetica,sans-Serif" font-size="10.00">operational::chain</text>
<text text-anchor="middle" x="330.5" y="-7.5" font-family="Helvetica,sans-Serif" font-size="10.00">::Dialog::HandleHelp</text>
</a>
</g>
</g>
<!-- Node2&#45;&gt;Node4 -->
<g id="edge3" class="edge"><title>Node2&#45;&gt;Node4</title>
<path fill="none" stroke="midnightblue" d="M251.103,-28.7502C259.973,-27.251 269,-25.7254 277.619,-24.2686"/>
<polygon fill="midnightblue" stroke="midnightblue" points="250.461,-25.309 241.184,-30.4266 251.628,-32.2111 250.461,-25.309"/>
</g>
</g>
</svg>
