<?xml version="1.0" encoding="UTF-8" standalone="no"?>
<!DOCTYPE svg PUBLIC "-//W3C//DTD SVG 1.1//EN"
 "http://www.w3.org/Graphics/SVG/1.1/DTD/svg11.dtd">
<!-- Generated by graphviz version 2.38.0 (20140413.2041)
 -->
<!-- Title: src/operational/src/chain/widget.h Pages: 1 -->
<svg width="190pt" height="95pt"
 viewBox="0.00 0.00 189.50 95.00" xmlns="http://www.w3.org/2000/svg" xmlns:xlink="http://www.w3.org/1999/xlink">
<g id="graph0" class="graph" transform="scale(1 1) rotate(0) translate(4 91)">
<title>src/operational/src/chain/widget.h</title>
<polygon fill="white" stroke="none" points="-4,4 -4,-91 185.5,-91 185.5,4 -4,4"/>
<!-- Node1 -->
<g id="node1" class="node"><title>Node1</title>
<polygon fill="#bfbfbf" stroke="black" points="62.5,-56.5 62.5,-86.5 159.5,-86.5 159.5,-56.5 62.5,-56.5"/>
<text text-anchor="start" x="70.5" y="-74.5" font-family="Helvetica,sans-Serif" font-size="10.00">src/operational/src</text>
<text text-anchor="middle" x="111" y="-63.5" font-family="Helvetica,sans-Serif" font-size="10.00">/chain/widget.h</text>
</g>
<!-- Node2 -->
<g id="node2" class="node"><title>Node2</title>
<g id="a_node2"><a xlink:href="../../df/d85/help__handler__interface_8h.html" target="_top" xlink:title="help_handler_interface.h">
<polygon fill="white" stroke="black" points="0,-0.5 0,-19.5 122,-19.5 122,-0.5 0,-0.5"/>
<text text-anchor="middle" x="61" y="-7.5" font-family="Helvetica,sans-Serif" font-size="10.00">help_handler_interface.h</text>
</a>
</g>
</g>
<!-- Node1&#45;&gt;Node2 -->
<g id="edge1" class="edge"><title>Node1&#45;&gt;Node2</title>
<path fill="none" stroke="midnightblue" d="M99.1507,-56.3993C91.8851,-47.7533 82.5479,-36.642 74.9294,-27.576"/>
<polygon fill="midnightblue" stroke="midnightblue" points="77.3884,-25.0619 68.2754,-19.6578 72.0294,-29.5653 77.3884,-25.0619"/>
</g>
<!-- Node3 -->
<g id="node3" class="node"><title>Node3</title>
<polygon fill="white" stroke="#bfbfbf" points="140.5,-0.5 140.5,-19.5 181.5,-19.5 181.5,-0.5 140.5,-0.5"/>
<text text-anchor="middle" x="161" y="-7.5" font-family="Helvetica,sans-Serif" font-size="10.00">string</text>
</g>
<!-- Node1&#45;&gt;Node3 -->
<g id="edge2" class="edge"><title>Node1&#45;&gt;Node3</title>
<path fill="none" stroke="midnightblue" d="M122.849,-56.3993C130.115,-47.7533 139.452,-36.642 147.071,-27.576"/>
<polygon fill="midnightblue" stroke="midnightblue" points="149.971,-29.5653 153.725,-19.6578 144.612,-25.0619 149.971,-29.5653"/>
</g>
</g>
</svg>
