<?xml version="1.0" encoding="UTF-8" standalone="no"?>
<!DOCTYPE svg PUBLIC "-//W3C//DTD SVG 1.1//EN"
 "http://www.w3.org/Graphics/SVG/1.1/DTD/svg11.dtd">
<!-- Generated by graphviz version 2.38.0 (20140413.2041)
 -->
<!-- Title: src/operational/src/mediator/font_dialog_director.h Pages: 1 -->
<svg width="441pt" height="330pt"
 viewBox="0.00 0.00 440.83 330.00" xmlns="http://www.w3.org/2000/svg" xmlns:xlink="http://www.w3.org/1999/xlink">
<g id="graph0" class="graph" transform="scale(1 1) rotate(0) translate(4 326)">
<title>src/operational/src/mediator/font_dialog_director.h</title>
<polygon fill="white" stroke="none" points="-4,4 -4,-326 436.827,-326 436.827,4 -4,4"/>
<!-- Node1 -->
<g id="node1" class="node"><title>Node1</title>
<polygon fill="#bfbfbf" stroke="black" points="264.5,-280.5 264.5,-321.5 371.5,-321.5 371.5,-280.5 264.5,-280.5"/>
<text text-anchor="start" x="272.5" y="-309.5" font-family="Helvetica,sans-Serif" font-size="10.00">src/operational/src</text>
<text text-anchor="start" x="272.5" y="-298.5" font-family="Helvetica,sans-Serif" font-size="10.00">/mediator/font_dialog</text>
<text text-anchor="middle" x="318" y="-287.5" font-family="Helvetica,sans-Serif" font-size="10.00">_director.h</text>
</g>
<!-- Node2 -->
<g id="node2" class="node"><title>Node2</title>
<g id="a_node2"><a xlink:href="../../d6/d19/dialog__director__interface_8h.html" target="_top" xlink:title="dialog_director_interface.h">
<polygon fill="white" stroke="black" points="216,-112.5 216,-131.5 346,-131.5 346,-112.5 216,-112.5"/>
<text text-anchor="middle" x="281" y="-119.5" font-family="Helvetica,sans-Serif" font-size="10.00">dialog_director_interface.h</text>
</a>
</g>
</g>
<!-- Node1&#45;&gt;Node2 -->
<g id="edge1" class="edge"><title>Node1&#45;&gt;Node2</title>
<path fill="none" stroke="midnightblue" d="M371.618,-285.151C392.011,-276.605 413.166,-263.551 425,-244 433.397,-230.127 438.606,-190.426 421,-168 405.274,-147.968 380.545,-136.714 356.219,-130.44"/>
<polygon fill="midnightblue" stroke="midnightblue" points="356.743,-126.969 346.211,-128.12 355.163,-133.788 356.743,-126.969"/>
</g>
<!-- Node5 -->
<g id="node5" class="node"><title>Node5</title>
<g id="a_node5"><a xlink:href="../../df/d23/list__box_8h.html" target="_top" xlink:title="list_box.h">
<polygon fill="white" stroke="black" points="156.5,-224.5 156.5,-243.5 215.5,-243.5 215.5,-224.5 156.5,-224.5"/>
<text text-anchor="middle" x="186" y="-231.5" font-family="Helvetica,sans-Serif" font-size="10.00">list_box.h</text>
</a>
</g>
</g>
<!-- Node1&#45;&gt;Node5 -->
<g id="edge4" class="edge"><title>Node1&#45;&gt;Node5</title>
<path fill="none" stroke="midnightblue" d="M278.396,-280.498C257.185,-270.053 231.619,-257.464 212.762,-248.178"/>
<polygon fill="midnightblue" stroke="midnightblue" points="214.089,-244.93 203.571,-243.652 210.996,-251.21 214.089,-244.93"/>
</g>
<!-- Node11 -->
<g id="node11" class="node"><title>Node11</title>
<g id="a_node11"><a xlink:href="../../de/db6/entry__field_8h.html" target="_top" xlink:title="entry_field.h">
<polygon fill="white" stroke="black" points="233.5,-224.5 233.5,-243.5 302.5,-243.5 302.5,-224.5 233.5,-224.5"/>
<text text-anchor="middle" x="268" y="-231.5" font-family="Helvetica,sans-Serif" font-size="10.00">entry_field.h</text>
</a>
</g>
</g>
<!-- Node1&#45;&gt;Node11 -->
<g id="edge13" class="edge"><title>Node1&#45;&gt;Node11</title>
<path fill="none" stroke="midnightblue" d="M302.998,-280.498C295.922,-271.299 287.566,-260.436 280.794,-251.632"/>
<polygon fill="midnightblue" stroke="midnightblue" points="283.527,-249.445 274.656,-243.652 277.979,-253.713 283.527,-249.445"/>
</g>
<!-- Node13 -->
<g id="node13" class="node"><title>Node13</title>
<g id="a_node13"><a xlink:href="../../d0/dc7/mediator__button_8h.html" target="_top" xlink:title="mediator_button.h">
<polygon fill="white" stroke="black" points="320.5,-224.5 320.5,-243.5 415.5,-243.5 415.5,-224.5 320.5,-224.5"/>
<text text-anchor="middle" x="368" y="-231.5" font-family="Helvetica,sans-Serif" font-size="10.00">mediator_button.h</text>
</a>
</g>
</g>
<!-- Node1&#45;&gt;Node13 -->
<g id="edge18" class="edge"><title>Node1&#45;&gt;Node13</title>
<path fill="none" stroke="midnightblue" d="M333.002,-280.498C340.078,-271.299 348.434,-260.436 355.206,-251.632"/>
<polygon fill="midnightblue" stroke="midnightblue" points="358.021,-253.713 361.344,-243.652 352.473,-249.445 358.021,-253.713"/>
</g>
<!-- Node3 -->
<g id="node3" class="node"><title>Node3</title>
<g id="a_node3"><a xlink:href="../../d5/d0b/mediator__widget__interface_8h.html" target="_top" xlink:title="mediator_widget_interface.h">
<polygon fill="white" stroke="black" points="213.5,-56.5 213.5,-75.5 350.5,-75.5 350.5,-56.5 213.5,-56.5"/>
<text text-anchor="middle" x="282" y="-63.5" font-family="Helvetica,sans-Serif" font-size="10.00">mediator_widget_interface.h</text>
</a>
</g>
</g>
<!-- Node2&#45;&gt;Node3 -->
<g id="edge2" class="edge"><title>Node2&#45;&gt;Node3</title>
<path fill="none" stroke="midnightblue" d="M281.165,-112.083C281.296,-105.006 281.484,-94.8611 281.648,-85.9865"/>
<polygon fill="midnightblue" stroke="midnightblue" points="285.152,-85.8142 281.838,-75.7511 278.153,-85.6845 285.152,-85.8142"/>
</g>
<!-- Node4 -->
<g id="node4" class="node"><title>Node4</title>
<g id="a_node4"><a xlink:href="../../d4/da7/mouse__event_8h.html" target="_top" xlink:title="mouse_event.h">
<polygon fill="white" stroke="black" points="241,-0.5 241,-19.5 323,-19.5 323,-0.5 241,-0.5"/>
<text text-anchor="middle" x="282" y="-7.5" font-family="Helvetica,sans-Serif" font-size="10.00">mouse_event.h</text>
</a>
</g>
</g>
<!-- Node3&#45;&gt;Node4 -->
<g id="edge3" class="edge"><title>Node3&#45;&gt;Node4</title>
<path fill="none" stroke="midnightblue" d="M282,-56.083C282,-49.0059 282,-38.8611 282,-29.9865"/>
<polygon fill="midnightblue" stroke="midnightblue" points="285.5,-29.751 282,-19.7511 278.5,-29.7511 285.5,-29.751"/>
</g>
<!-- Node5&#45;&gt;Node2 -->
<g id="edge6" class="edge"><title>Node5&#45;&gt;Node2</title>
<path fill="none" stroke="midnightblue" d="M193.454,-224.368C209.271,-206.055 246.412,-163.049 266.869,-139.362"/>
<polygon fill="midnightblue" stroke="midnightblue" points="269.693,-141.447 273.58,-131.591 264.395,-136.872 269.693,-141.447"/>
</g>
<!-- Node5&#45;&gt;Node3 -->
<g id="edge5" class="edge"><title>Node5&#45;&gt;Node3</title>
<path fill="none" stroke="midnightblue" d="M185.203,-224.491C183.672,-203.409 182.401,-147.871 207,-112 216.863,-97.6181 232.97,-87.0837 247.734,-79.839"/>
<polygon fill="midnightblue" stroke="midnightblue" points="249.513,-82.875 257.164,-75.5459 246.612,-76.5043 249.513,-82.875"/>
</g>
<!-- Node6 -->
<g id="node6" class="node"><title>Node6</title>
<polygon fill="white" stroke="#bfbfbf" points="252.5,-168.5 252.5,-187.5 293.5,-187.5 293.5,-168.5 252.5,-168.5"/>
<text text-anchor="middle" x="273" y="-175.5" font-family="Helvetica,sans-Serif" font-size="10.00">string</text>
</g>
<!-- Node5&#45;&gt;Node6 -->
<g id="edge7" class="edge"><title>Node5&#45;&gt;Node6</title>
<path fill="none" stroke="midnightblue" d="M199.978,-224.324C213.55,-215.9 234.38,-202.971 250.325,-193.074"/>
<polygon fill="midnightblue" stroke="midnightblue" points="252.406,-195.902 259.057,-187.655 248.714,-189.954 252.406,-195.902"/>
</g>
<!-- Node7 -->
<g id="node7" class="node"><title>Node7</title>
<g id="a_node7"><a xlink:href="../../da/d23/list_8h.html" target="_top" xlink:title="../iterator/list.h">
<polygon fill="white" stroke="black" points="77,-168.5 77,-187.5 157,-187.5 157,-168.5 77,-168.5"/>
<text text-anchor="middle" x="117" y="-175.5" font-family="Helvetica,sans-Serif" font-size="10.00">../iterator/list.h</text>
</a>
</g>
</g>
<!-- Node5&#45;&gt;Node7 -->
<g id="edge8" class="edge"><title>Node5&#45;&gt;Node7</title>
<path fill="none" stroke="midnightblue" d="M174.914,-224.324C164.514,-216.185 148.739,-203.839 136.278,-194.087"/>
<polygon fill="midnightblue" stroke="midnightblue" points="138.32,-191.241 128.288,-187.834 134.006,-196.753 138.32,-191.241"/>
</g>
<!-- Node8 -->
<g id="node8" class="node"><title>Node8</title>
<g id="a_node8"><a xlink:href="../../d9/d71/list__iterator_8h.html" target="_top" xlink:title="list_iterator.h">
<polygon fill="white" stroke="black" points="80.5,-112.5 80.5,-131.5 153.5,-131.5 153.5,-112.5 80.5,-112.5"/>
<text text-anchor="middle" x="117" y="-119.5" font-family="Helvetica,sans-Serif" font-size="10.00">list_iterator.h</text>
</a>
</g>
</g>
<!-- Node7&#45;&gt;Node8 -->
<g id="edge9" class="edge"><title>Node7&#45;&gt;Node8</title>
<path fill="none" stroke="midnightblue" d="M117,-168.083C117,-161.006 117,-150.861 117,-141.986"/>
<polygon fill="midnightblue" stroke="midnightblue" points="120.5,-141.751 117,-131.751 113.5,-141.751 120.5,-141.751"/>
</g>
<!-- Node10 -->
<g id="node10" class="node"><title>Node10</title>
<g id="a_node10"><a xlink:href="../../dd/d8c/list__interface_8h.html" target="_top" xlink:title="list_interface.h">
<polygon fill="white" stroke="black" points="0,-56.5 0,-75.5 80,-75.5 80,-56.5 0,-56.5"/>
<text text-anchor="middle" x="40" y="-63.5" font-family="Helvetica,sans-Serif" font-size="10.00">list_interface.h</text>
</a>
</g>
</g>
<!-- Node7&#45;&gt;Node10 -->
<g id="edge12" class="edge"><title>Node7&#45;&gt;Node10</title>
<path fill="none" stroke="midnightblue" d="M106.067,-168.255C96.0006,-159.786 81.1364,-146.177 71,-132 60.5575,-117.394 52.0755,-98.7206 46.6406,-85.1391"/>
<polygon fill="midnightblue" stroke="midnightblue" points="49.7997,-83.6016 42.9559,-75.5138 43.2624,-86.1042 49.7997,-83.6016"/>
</g>
<!-- Node9 -->
<g id="node9" class="node"><title>Node9</title>
<g id="a_node9"><a xlink:href="../../d6/da4/iterator__interface_8h.html" target="_top" xlink:title="iterator_interface.h">
<polygon fill="white" stroke="black" points="98.5,-56.5 98.5,-75.5 195.5,-75.5 195.5,-56.5 98.5,-56.5"/>
<text text-anchor="middle" x="147" y="-63.5" font-family="Helvetica,sans-Serif" font-size="10.00">iterator_interface.h</text>
</a>
</g>
</g>
<!-- Node8&#45;&gt;Node9 -->
<g id="edge10" class="edge"><title>Node8&#45;&gt;Node9</title>
<path fill="none" stroke="midnightblue" d="M121.954,-112.083C126.104,-104.613 132.153,-93.7244 137.267,-84.5199"/>
<polygon fill="midnightblue" stroke="midnightblue" points="140.341,-86.1924 142.138,-75.7511 134.222,-82.7929 140.341,-86.1924"/>
</g>
<!-- Node8&#45;&gt;Node10 -->
<g id="edge11" class="edge"><title>Node8&#45;&gt;Node10</title>
<path fill="none" stroke="midnightblue" d="M104.629,-112.324C92.8415,-104.058 74.8677,-91.4527 60.8645,-81.6322"/>
<polygon fill="midnightblue" stroke="midnightblue" points="62.5376,-78.5307 52.3407,-75.6545 58.5184,-84.2619 62.5376,-78.5307"/>
</g>
<!-- Node11&#45;&gt;Node6 -->
<g id="edge17" class="edge"><title>Node11&#45;&gt;Node6</title>
<path fill="none" stroke="midnightblue" d="M268.826,-224.083C269.481,-217.006 270.42,-206.861 271.242,-197.986"/>
<polygon fill="midnightblue" stroke="midnightblue" points="274.753,-198.031 272.19,-187.751 267.783,-197.386 274.753,-198.031"/>
</g>
<!-- Node12 -->
<g id="node12" class="node"><title>Node12</title>
<g id="a_node12"><a xlink:href="../../dd/dcb/mediator__widget_8h.html" target="_top" xlink:title="mediator_widget.h">
<polygon fill="white" stroke="black" points="316.5,-168.5 316.5,-187.5 411.5,-187.5 411.5,-168.5 316.5,-168.5"/>
<text text-anchor="middle" x="364" y="-175.5" font-family="Helvetica,sans-Serif" font-size="10.00">mediator_widget.h</text>
</a>
</g>
</g>
<!-- Node11&#45;&gt;Node12 -->
<g id="edge14" class="edge"><title>Node11&#45;&gt;Node12</title>
<path fill="none" stroke="midnightblue" d="M283.424,-224.324C298.54,-215.822 321.815,-202.729 339.471,-192.797"/>
<polygon fill="midnightblue" stroke="midnightblue" points="341.614,-195.608 348.614,-187.655 338.183,-189.507 341.614,-195.608"/>
</g>
<!-- Node12&#45;&gt;Node2 -->
<g id="edge16" class="edge"><title>Node12&#45;&gt;Node2</title>
<path fill="none" stroke="midnightblue" d="M350.665,-168.324C337.838,-159.979 318.215,-147.212 303.06,-137.352"/>
<polygon fill="midnightblue" stroke="midnightblue" points="304.593,-134.174 294.302,-131.655 300.776,-140.042 304.593,-134.174"/>
</g>
<!-- Node12&#45;&gt;Node3 -->
<g id="edge15" class="edge"><title>Node12&#45;&gt;Node3</title>
<path fill="none" stroke="midnightblue" d="M365.018,-168.199C366.098,-154.893 366.328,-129.366 355,-112 345.659,-97.6792 330.007,-87.1511 315.587,-79.8948"/>
<polygon fill="midnightblue" stroke="midnightblue" points="316.91,-76.6496 306.368,-75.5918 313.949,-82.9927 316.91,-76.6496"/>
</g>
<!-- Node13&#45;&gt;Node6 -->
<g id="edge20" class="edge"><title>Node13&#45;&gt;Node6</title>
<path fill="none" stroke="midnightblue" d="M352.737,-224.324C337.779,-215.822 314.745,-202.729 297.273,-192.797"/>
<polygon fill="midnightblue" stroke="midnightblue" points="298.649,-189.553 288.226,-187.655 295.19,-195.639 298.649,-189.553"/>
</g>
<!-- Node13&#45;&gt;Node12 -->
<g id="edge19" class="edge"><title>Node13&#45;&gt;Node12</title>
<path fill="none" stroke="midnightblue" d="M367.339,-224.083C366.815,-217.006 366.064,-206.861 365.406,-197.986"/>
<polygon fill="midnightblue" stroke="midnightblue" points="368.877,-197.465 364.648,-187.751 361.897,-197.982 368.877,-197.465"/>
</g>
</g>
</svg>
