<?xml version="1.0" encoding="UTF-8" standalone="no"?>
<!DOCTYPE svg PUBLIC "-//W3C//DTD SVG 1.1//EN"
 "http://www.w3.org/Graphics/SVG/1.1/DTD/svg11.dtd">
<!-- Generated by graphviz version 2.38.0 (20140413.2041)
 -->
<!-- Title: operational::visitor::BusInterface::GetLuxPrice Pages: 1 -->
<svg width="304pt" height="39pt"
 viewBox="0.00 0.00 304.00 39.00" xmlns="http://www.w3.org/2000/svg" xmlns:xlink="http://www.w3.org/1999/xlink">
<g id="graph0" class="graph" transform="scale(1 1) rotate(0) translate(4 35)">
<title>operational::visitor::BusInterface::GetLuxPrice</title>
<polygon fill="white" stroke="none" points="-4,4 -4,-35 300,-35 300,4 -4,4"/>
<!-- Node1 -->
<g id="node1" class="node"><title>Node1</title>
<polygon fill="#bfbfbf" stroke="black" points="0,-0.5 0,-30.5 137,-30.5 137,-0.5 0,-0.5"/>
<text text-anchor="start" x="8" y="-18.5" font-family="Helvetica,sans-Serif" font-size="10.00">operational::visitor</text>
<text text-anchor="middle" x="68.5" y="-7.5" font-family="Helvetica,sans-Serif" font-size="10.00">::BusInterface::GetLuxPrice</text>
</g>
<!-- Node2 -->
<g id="node2" class="node"><title>Node2</title>
<g id="a_node2"><a xlink:href="../../d6/d7b/classoperational_1_1visitor_1_1_pricing_visitor.html#a3900ea92462b0d078e40911520b1a521" target="_top" xlink:title="operational::visitor\l::PricingVisitor::VisitBus">
<polygon fill="white" stroke="black" points="173,-0.5 173,-30.5 296,-30.5 296,-0.5 173,-0.5"/>
<text text-anchor="start" x="181" y="-18.5" font-family="Helvetica,sans-Serif" font-size="10.00">operational::visitor</text>
<text text-anchor="middle" x="234.5" y="-7.5" font-family="Helvetica,sans-Serif" font-size="10.00">::PricingVisitor::VisitBus</text>
</a>
</g>
</g>
<!-- Node1&#45;&gt;Node2 -->
<g id="edge1" class="edge"><title>Node1&#45;&gt;Node2</title>
<path fill="none" stroke="midnightblue" d="M147.203,-15.5C155.808,-15.5 164.477,-15.5 172.829,-15.5"/>
<polygon fill="midnightblue" stroke="midnightblue" points="147.152,-12.0001 137.152,-15.5 147.152,-19.0001 147.152,-12.0001"/>
</g>
</g>
</svg>
