<?xml version="1.0" encoding="UTF-8" standalone="no"?>
<!DOCTYPE svg PUBLIC "-//W3C//DTD SVG 1.1//EN"
 "http://www.w3.org/Graphics/SVG/1.1/DTD/svg11.dtd">
<!-- Generated by graphviz version 2.38.0 (20140413.2041)
 -->
<!-- Title: operational::observer::DigitalClock::Draw Pages: 1 -->
<svg width="286pt" height="39pt"
 viewBox="0.00 0.00 286.00 39.00" xmlns="http://www.w3.org/2000/svg" xmlns:xlink="http://www.w3.org/1999/xlink">
<g id="graph0" class="graph" transform="scale(1 1) rotate(0) translate(4 35)">
<title>operational::observer::DigitalClock::Draw</title>
<polygon fill="white" stroke="none" points="-4,4 -4,-35 282,-35 282,4 -4,4"/>
<!-- Node1 -->
<g id="node1" class="node"><title>Node1</title>
<polygon fill="#bfbfbf" stroke="black" points="0,-0.5 0,-30.5 106,-30.5 106,-0.5 0,-0.5"/>
<text text-anchor="start" x="8" y="-18.5" font-family="Helvetica,sans-Serif" font-size="10.00">operational::observer</text>
<text text-anchor="middle" x="53" y="-7.5" font-family="Helvetica,sans-Serif" font-size="10.00">::DigitalClock::Draw</text>
</g>
<!-- Node2 -->
<g id="node2" class="node"><title>Node2</title>
<g id="a_node2"><a xlink:href="../../d9/dd3/classoperational_1_1observer_1_1_digital_clock.html#a857f010196ef7443c48071e928ec6646" target="_top" xlink:title="operational::observer\l::DigitalClock::OnClockTick">
<polygon fill="white" stroke="black" points="142,-0.5 142,-30.5 278,-30.5 278,-0.5 142,-0.5"/>
<text text-anchor="start" x="150" y="-18.5" font-family="Helvetica,sans-Serif" font-size="10.00">operational::observer</text>
<text text-anchor="middle" x="210" y="-7.5" font-family="Helvetica,sans-Serif" font-size="10.00">::DigitalClock::OnClockTick</text>
</a>
</g>
</g>
<!-- Node1&#45;&gt;Node2 -->
<g id="edge1" class="edge"><title>Node1&#45;&gt;Node2</title>
<path fill="none" stroke="midnightblue" d="M116.218,-15.5C124.685,-15.5 133.406,-15.5 141.954,-15.5"/>
<polygon fill="midnightblue" stroke="midnightblue" points="116.044,-12.0001 106.044,-15.5 116.044,-19.0001 116.044,-12.0001"/>
</g>
</g>
</svg>
