<?xml version="1.0" encoding="UTF-8" standalone="no"?>
<!DOCTYPE svg PUBLIC "-//W3C//DTD SVG 1.1//EN"
 "http://www.w3.org/Graphics/SVG/1.1/DTD/svg11.dtd">
<!-- Generated by graphviz version 2.38.0 (20140413.2041)
 -->
<!-- Title: operational::observer::DigitalClock::~DigitalClock Pages: 1 -->
<svg width="432pt" height="39pt"
 viewBox="0.00 0.00 432.00 39.00" xmlns="http://www.w3.org/2000/svg" xmlns:xlink="http://www.w3.org/1999/xlink">
<g id="graph0" class="graph" transform="scale(1 1) rotate(0) translate(4 35)">
<title>operational::observer::DigitalClock::~DigitalClock</title>
<polygon fill="white" stroke="none" points="-4,4 -4,-35 428,-35 428,4 -4,4"/>
<!-- Node1 -->
<g id="node1" class="node"><title>Node1</title>
<polygon fill="#bfbfbf" stroke="black" points="0,-0.5 0,-30.5 138,-30.5 138,-0.5 0,-0.5"/>
<text text-anchor="start" x="8" y="-18.5" font-family="Helvetica,sans-Serif" font-size="10.00">operational::observer</text>
<text text-anchor="middle" x="69" y="-7.5" font-family="Helvetica,sans-Serif" font-size="10.00">::DigitalClock::~DigitalClock</text>
</g>
<!-- Node2 -->
<g id="node2" class="node"><title>Node2</title>
<g id="a_node2"><a xlink:href="../../d0/dd5/classoperational_1_1observer_1_1_clock_timer.html#a3605ad90b29bd98b9d4dcc4a69d7c41f" target="_top" xlink:title="operational::observer\l::ClockTimer::Detach">
<polygon fill="white" stroke="black" points="174,-0.5 174,-30.5 282,-30.5 282,-0.5 174,-0.5"/>
<text text-anchor="start" x="182" y="-18.5" font-family="Helvetica,sans-Serif" font-size="10.00">operational::observer</text>
<text text-anchor="middle" x="228" y="-7.5" font-family="Helvetica,sans-Serif" font-size="10.00">::ClockTimer::Detach</text>
</a>
</g>
</g>
<!-- Node1&#45;&gt;Node2 -->
<g id="edge1" class="edge"><title>Node1&#45;&gt;Node2</title>
<path fill="none" stroke="midnightblue" d="M138.406,-15.5C146.865,-15.5 155.484,-15.5 163.86,-15.5"/>
<polygon fill="midnightblue" stroke="midnightblue" points="163.929,-19.0001 173.929,-15.5 163.929,-12.0001 163.929,-19.0001"/>
</g>
<!-- Node3 -->
<g id="node3" class="node"><title>Node3</title>
<g id="a_node3"><a xlink:href="../../d4/de0/classoperational_1_1observer_1_1_clock_tick.html#a41abe8a38c0dd89c3b943d0059bf1ab9" target="_top" xlink:title="operational::observer\l::ClockTick::Detach">
<polygon fill="white" stroke="black" points="318,-0.5 318,-30.5 424,-30.5 424,-0.5 318,-0.5"/>
<text text-anchor="start" x="326" y="-18.5" font-family="Helvetica,sans-Serif" font-size="10.00">operational::observer</text>
<text text-anchor="middle" x="371" y="-7.5" font-family="Helvetica,sans-Serif" font-size="10.00">::ClockTick::Detach</text>
</a>
</g>
</g>
<!-- Node2&#45;&gt;Node3 -->
<g id="edge2" class="edge"><title>Node2&#45;&gt;Node3</title>
<path fill="none" stroke="midnightblue" d="M282.306,-15.5C290.512,-15.5 299.048,-15.5 307.433,-15.5"/>
<polygon fill="midnightblue" stroke="midnightblue" points="307.553,-19.0001 317.553,-15.5 307.553,-12.0001 307.553,-19.0001"/>
</g>
</g>
</svg>
