<?xml version="1.0" encoding="UTF-8" standalone="no"?>
<!DOCTYPE svg PUBLIC "-//W3C//DTD SVG 1.1//EN"
 "http://www.w3.org/Graphics/SVG/1.1/DTD/svg11.dtd">
<!-- Generated by graphviz version 2.38.0 (20140413.2041)
 -->
<!-- Title: operational::observer::DigitalClock::DigitalClock Pages: 1 -->
<svg width="424pt" height="39pt"
 viewBox="0.00 0.00 424.00 39.00" xmlns="http://www.w3.org/2000/svg" xmlns:xlink="http://www.w3.org/1999/xlink">
<g id="graph0" class="graph" transform="scale(1 1) rotate(0) translate(4 35)">
<title>operational::observer::DigitalClock::DigitalClock</title>
<polygon fill="white" stroke="none" points="-4,4 -4,-35 420,-35 420,4 -4,4"/>
<!-- Node1 -->
<g id="node1" class="node"><title>Node1</title>
<polygon fill="#bfbfbf" stroke="black" points="0,-0.5 0,-30.5 132,-30.5 132,-0.5 0,-0.5"/>
<text text-anchor="start" x="8" y="-18.5" font-family="Helvetica,sans-Serif" font-size="10.00">operational::observer</text>
<text text-anchor="middle" x="66" y="-7.5" font-family="Helvetica,sans-Serif" font-size="10.00">::DigitalClock::DigitalClock</text>
</g>
<!-- Node2 -->
<g id="node2" class="node"><title>Node2</title>
<g id="a_node2"><a xlink:href="../../d0/dd5/classoperational_1_1observer_1_1_clock_timer.html#af6a9fce74b4f702cba2cd4f72a4b93de" target="_top" xlink:title="operational::observer\l::ClockTimer::Attach">
<polygon fill="white" stroke="black" points="168,-0.5 168,-30.5 274,-30.5 274,-0.5 168,-0.5"/>
<text text-anchor="start" x="176" y="-18.5" font-family="Helvetica,sans-Serif" font-size="10.00">operational::observer</text>
<text text-anchor="middle" x="221" y="-7.5" font-family="Helvetica,sans-Serif" font-size="10.00">::ClockTimer::Attach</text>
</a>
</g>
</g>
<!-- Node1&#45;&gt;Node2 -->
<g id="edge1" class="edge"><title>Node1&#45;&gt;Node2</title>
<path fill="none" stroke="midnightblue" d="M132.33,-15.5C140.76,-15.5 149.375,-15.5 157.754,-15.5"/>
<polygon fill="midnightblue" stroke="midnightblue" points="157.829,-19.0001 167.829,-15.5 157.829,-12.0001 157.829,-19.0001"/>
</g>
<!-- Node3 -->
<g id="node3" class="node"><title>Node3</title>
<g id="a_node3"><a xlink:href="../../d4/de0/classoperational_1_1observer_1_1_clock_tick.html#a0dbe212228820862c5eb16bc8f88b04f" target="_top" xlink:title="operational::observer\l::ClockTick::Attach">
<polygon fill="white" stroke="black" points="310,-0.5 310,-30.5 416,-30.5 416,-0.5 310,-0.5"/>
<text text-anchor="start" x="318" y="-18.5" font-family="Helvetica,sans-Serif" font-size="10.00">operational::observer</text>
<text text-anchor="middle" x="363" y="-7.5" font-family="Helvetica,sans-Serif" font-size="10.00">::ClockTick::Attach</text>
</a>
</g>
</g>
<!-- Node2&#45;&gt;Node3 -->
<g id="edge2" class="edge"><title>Node2&#45;&gt;Node3</title>
<path fill="none" stroke="midnightblue" d="M274.131,-15.5C282.421,-15.5 291.07,-15.5 299.568,-15.5"/>
<polygon fill="midnightblue" stroke="midnightblue" points="299.826,-19.0001 309.826,-15.5 299.826,-12.0001 299.826,-19.0001"/>
</g>
</g>
</svg>
