<?xml version="1.0" encoding="UTF-8" standalone="no"?>
<!DOCTYPE svg PUBLIC "-//W3C//DTD SVG 1.1//EN"
 "http://www.w3.org/Graphics/SVG/1.1/DTD/svg11.dtd">
<!-- Generated by graphviz version 2.38.0 (20140413.2041)
 -->
<!-- Title: operational::observer::DigitalClock::OnClockTick Pages: 1 -->
<svg width="453pt" height="137pt"
 viewBox="0.00 0.00 453.00 137.00" xmlns="http://www.w3.org/2000/svg" xmlns:xlink="http://www.w3.org/1999/xlink">
<g id="graph0" class="graph" transform="scale(1 1) rotate(0) translate(4 133)">
<title>operational::observer::DigitalClock::OnClockTick</title>
<polygon fill="white" stroke="none" points="-4,4 -4,-133 449,-133 449,4 -4,4"/>
<!-- Node1 -->
<g id="node1" class="node"><title>Node1</title>
<polygon fill="#bfbfbf" stroke="black" points="0,-49.5 0,-79.5 136,-79.5 136,-49.5 0,-49.5"/>
<text text-anchor="start" x="8" y="-67.5" font-family="Helvetica,sans-Serif" font-size="10.00">operational::observer</text>
<text text-anchor="middle" x="68" y="-56.5" font-family="Helvetica,sans-Serif" font-size="10.00">::DigitalClock::OnClockTick</text>
</g>
<!-- Node2 -->
<g id="node2" class="node"><title>Node2</title>
<g id="a_node2"><a xlink:href="../../d9/dd3/classoperational_1_1observer_1_1_digital_clock.html#a6bbd45c6419016532065fbebbb108551" target="_top" xlink:title="operational::observer\l::DigitalClock::Draw">
<polygon fill="white" stroke="black" points="172,-49.5 172,-79.5 278,-79.5 278,-49.5 172,-49.5"/>
<text text-anchor="start" x="180" y="-67.5" font-family="Helvetica,sans-Serif" font-size="10.00">operational::observer</text>
<text text-anchor="middle" x="225" y="-56.5" font-family="Helvetica,sans-Serif" font-size="10.00">::DigitalClock::Draw</text>
</a>
</g>
</g>
<!-- Node1&#45;&gt;Node2 -->
<g id="edge1" class="edge"><title>Node1&#45;&gt;Node2</title>
<path fill="none" stroke="midnightblue" d="M136.084,-64.5C144.576,-64.5 153.239,-64.5 161.653,-64.5"/>
<polygon fill="midnightblue" stroke="midnightblue" points="161.766,-68.0001 171.765,-64.5 161.765,-61.0001 161.766,-68.0001"/>
</g>
<!-- Node3 -->
<g id="node3" class="node"><title>Node3</title>
<g id="a_node3"><a xlink:href="../../d0/dd5/classoperational_1_1observer_1_1_clock_timer.html#ad3638968eb369fdcf93fe9b41ac27b26" target="_top" xlink:title="operational::observer\l::ClockTimer::GetHours">
<polygon fill="white" stroke="black" points="320,-98.5 320,-128.5 439,-128.5 439,-98.5 320,-98.5"/>
<text text-anchor="start" x="328" y="-116.5" font-family="Helvetica,sans-Serif" font-size="10.00">operational::observer</text>
<text text-anchor="middle" x="379.5" y="-105.5" font-family="Helvetica,sans-Serif" font-size="10.00">::ClockTimer::GetHours</text>
</a>
</g>
</g>
<!-- Node2&#45;&gt;Node3 -->
<g id="edge2" class="edge"><title>Node2&#45;&gt;Node3</title>
<path fill="none" stroke="midnightblue" d="M272.999,-79.6014C288.436,-84.5615 305.759,-90.1274 321.835,-95.2929"/>
<polygon fill="midnightblue" stroke="midnightblue" points="321.064,-98.7215 331.656,-98.4484 323.206,-92.0571 321.064,-98.7215"/>
</g>
<!-- Node4 -->
<g id="node4" class="node"><title>Node4</title>
<g id="a_node4"><a xlink:href="../../d0/dd5/classoperational_1_1observer_1_1_clock_timer.html#a2b871310803ed9e2ca8f9909c4383bff" target="_top" xlink:title="operational::observer\l::ClockTimer::GetMinutes">
<polygon fill="white" stroke="black" points="315.5,-49.5 315.5,-79.5 443.5,-79.5 443.5,-49.5 315.5,-49.5"/>
<text text-anchor="start" x="323.5" y="-67.5" font-family="Helvetica,sans-Serif" font-size="10.00">operational::observer</text>
<text text-anchor="middle" x="379.5" y="-56.5" font-family="Helvetica,sans-Serif" font-size="10.00">::ClockTimer::GetMinutes</text>
</a>
</g>
</g>
<!-- Node2&#45;&gt;Node4 -->
<g id="edge3" class="edge"><title>Node2&#45;&gt;Node4</title>
<path fill="none" stroke="midnightblue" d="M278.055,-64.5C286.769,-64.5 295.954,-64.5 305.084,-64.5"/>
<polygon fill="midnightblue" stroke="midnightblue" points="305.341,-68.0001 315.341,-64.5 305.341,-61.0001 305.341,-68.0001"/>
</g>
<!-- Node5 -->
<g id="node5" class="node"><title>Node5</title>
<g id="a_node5"><a xlink:href="../../d0/dd5/classoperational_1_1observer_1_1_clock_timer.html#a1a6e37aa20d7ee7c75ee4a5112ed10a4" target="_top" xlink:title="operational::observer\l::ClockTimer::GetSeconds">
<polygon fill="white" stroke="black" points="314,-0.5 314,-30.5 445,-30.5 445,-0.5 314,-0.5"/>
<text text-anchor="start" x="322" y="-18.5" font-family="Helvetica,sans-Serif" font-size="10.00">operational::observer</text>
<text text-anchor="middle" x="379.5" y="-7.5" font-family="Helvetica,sans-Serif" font-size="10.00">::ClockTimer::GetSeconds</text>
</a>
</g>
</g>
<!-- Node2&#45;&gt;Node5 -->
<g id="edge4" class="edge"><title>Node2&#45;&gt;Node5</title>
<path fill="none" stroke="midnightblue" d="M272.999,-49.3986C288.436,-44.4385 305.759,-38.8726 321.835,-33.7071"/>
<polygon fill="midnightblue" stroke="midnightblue" points="323.206,-36.9429 331.656,-30.5516 321.064,-30.2785 323.206,-36.9429"/>
</g>
</g>
</svg>
