<?xml version="1.0" encoding="UTF-8" standalone="no"?>
<!DOCTYPE svg PUBLIC "-//W3C//DTD SVG 1.1//EN"
 "http://www.w3.org/Graphics/SVG/1.1/DTD/svg11.dtd">
<!-- Generated by graphviz version 2.38.0 (20140413.2041)
 -->
<!-- Title: operational::observer::DigitalClock::Draw Pages: 1 -->
<svg width="281pt" height="137pt"
 viewBox="0.00 0.00 281.00 137.00" xmlns="http://www.w3.org/2000/svg" xmlns:xlink="http://www.w3.org/1999/xlink">
<g id="graph0" class="graph" transform="scale(1 1) rotate(0) translate(4 133)">
<title>operational::observer::DigitalClock::Draw</title>
<polygon fill="white" stroke="none" points="-4,4 -4,-133 277,-133 277,4 -4,4"/>
<!-- Node1 -->
<g id="node1" class="node"><title>Node1</title>
<polygon fill="#bfbfbf" stroke="black" points="0,-49.5 0,-79.5 106,-79.5 106,-49.5 0,-49.5"/>
<text text-anchor="start" x="8" y="-67.5" font-family="Helvetica,sans-Serif" font-size="10.00">operational::observer</text>
<text text-anchor="middle" x="53" y="-56.5" font-family="Helvetica,sans-Serif" font-size="10.00">::DigitalClock::Draw</text>
</g>
<!-- Node2 -->
<g id="node2" class="node"><title>Node2</title>
<g id="a_node2"><a xlink:href="../../d0/dd5/classoperational_1_1observer_1_1_clock_timer.html#ad3638968eb369fdcf93fe9b41ac27b26" target="_top" xlink:title="operational::observer\l::ClockTimer::GetHours">
<polygon fill="white" stroke="black" points="148,-98.5 148,-128.5 267,-128.5 267,-98.5 148,-98.5"/>
<text text-anchor="start" x="156" y="-116.5" font-family="Helvetica,sans-Serif" font-size="10.00">operational::observer</text>
<text text-anchor="middle" x="207.5" y="-105.5" font-family="Helvetica,sans-Serif" font-size="10.00">::ClockTimer::GetHours</text>
</a>
</g>
</g>
<!-- Node1&#45;&gt;Node2 -->
<g id="edge1" class="edge"><title>Node1&#45;&gt;Node2</title>
<path fill="none" stroke="midnightblue" d="M100.999,-79.6014C116.436,-84.5615 133.759,-90.1274 149.835,-95.2929"/>
<polygon fill="midnightblue" stroke="midnightblue" points="149.064,-98.7215 159.656,-98.4484 151.206,-92.0571 149.064,-98.7215"/>
</g>
<!-- Node3 -->
<g id="node3" class="node"><title>Node3</title>
<g id="a_node3"><a xlink:href="../../d0/dd5/classoperational_1_1observer_1_1_clock_timer.html#a2b871310803ed9e2ca8f9909c4383bff" target="_top" xlink:title="operational::observer\l::ClockTimer::GetMinutes">
<polygon fill="white" stroke="black" points="143.5,-49.5 143.5,-79.5 271.5,-79.5 271.5,-49.5 143.5,-49.5"/>
<text text-anchor="start" x="151.5" y="-67.5" font-family="Helvetica,sans-Serif" font-size="10.00">operational::observer</text>
<text text-anchor="middle" x="207.5" y="-56.5" font-family="Helvetica,sans-Serif" font-size="10.00">::ClockTimer::GetMinutes</text>
</a>
</g>
</g>
<!-- Node1&#45;&gt;Node3 -->
<g id="edge2" class="edge"><title>Node1&#45;&gt;Node3</title>
<path fill="none" stroke="midnightblue" d="M106.055,-64.5C114.769,-64.5 123.954,-64.5 133.084,-64.5"/>
<polygon fill="midnightblue" stroke="midnightblue" points="133.341,-68.0001 143.341,-64.5 133.341,-61.0001 133.341,-68.0001"/>
</g>
<!-- Node4 -->
<g id="node4" class="node"><title>Node4</title>
<g id="a_node4"><a xlink:href="../../d0/dd5/classoperational_1_1observer_1_1_clock_timer.html#a1a6e37aa20d7ee7c75ee4a5112ed10a4" target="_top" xlink:title="operational::observer\l::ClockTimer::GetSeconds">
<polygon fill="white" stroke="black" points="142,-0.5 142,-30.5 273,-30.5 273,-0.5 142,-0.5"/>
<text text-anchor="start" x="150" y="-18.5" font-family="Helvetica,sans-Serif" font-size="10.00">operational::observer</text>
<text text-anchor="middle" x="207.5" y="-7.5" font-family="Helvetica,sans-Serif" font-size="10.00">::ClockTimer::GetSeconds</text>
</a>
</g>
</g>
<!-- Node1&#45;&gt;Node4 -->
<g id="edge3" class="edge"><title>Node1&#45;&gt;Node4</title>
<path fill="none" stroke="midnightblue" d="M100.999,-49.3986C116.436,-44.4385 133.759,-38.8726 149.835,-33.7071"/>
<polygon fill="midnightblue" stroke="midnightblue" points="151.206,-36.9429 159.656,-30.5516 149.064,-30.2785 151.206,-36.9429"/>
</g>
</g>
</svg>
