<?xml version="1.0" encoding="UTF-8" standalone="no"?>
<!DOCTYPE svg PUBLIC "-//W3C//DTD SVG 1.1//EN"
 "http://www.w3.org/Graphics/SVG/1.1/DTD/svg11.dtd">
<!-- Generated by graphviz version 2.38.0 (20140413.2041)
 -->
<!-- Title: operational::visitor::Card::price Pages: 1 -->
<svg width="249pt" height="137pt"
 viewBox="0.00 0.00 249.00 137.00" xmlns="http://www.w3.org/2000/svg" xmlns:xlink="http://www.w3.org/1999/xlink">
<g id="graph0" class="graph" transform="scale(1 1) rotate(0) translate(4 133)">
<title>operational::visitor::Card::price</title>
<polygon fill="white" stroke="none" points="-4,4 -4,-133 245,-133 245,4 -4,4"/>
<!-- Node1 -->
<g id="node1" class="node"><title>Node1</title>
<polygon fill="#bfbfbf" stroke="black" points="0,-49.5 0,-79.5 95,-79.5 95,-49.5 0,-49.5"/>
<text text-anchor="start" x="8" y="-67.5" font-family="Helvetica,sans-Serif" font-size="10.00">operational::visitor</text>
<text text-anchor="middle" x="47.5" y="-56.5" font-family="Helvetica,sans-Serif" font-size="10.00">::Card::price</text>
</g>
<!-- Node2 -->
<g id="node2" class="node"><title>Node2</title>
<g id="a_node2"><a xlink:href="../../d1/df0/classoperational_1_1visitor_1_1_card.html#af0e740729f4d016cf78c93c0243d1a7e" target="_top" xlink:title="operational::visitor\l::Card::price">
<polygon fill="white" stroke="black" points="138.5,-98.5 138.5,-128.5 233.5,-128.5 233.5,-98.5 138.5,-98.5"/>
<text text-anchor="start" x="146.5" y="-116.5" font-family="Helvetica,sans-Serif" font-size="10.00">operational::visitor</text>
<text text-anchor="middle" x="186" y="-105.5" font-family="Helvetica,sans-Serif" font-size="10.00">::Card::price</text>
</a>
</g>
</g>
<!-- Node1&#45;&gt;Node2 -->
<g id="edge1" class="edge"><title>Node1&#45;&gt;Node2</title>
<path fill="none" stroke="midnightblue" d="M100.135,-83.0355C114.231,-88.0959 129.335,-93.5177 142.836,-98.3641"/>
<polygon fill="midnightblue" stroke="midnightblue" points="101.163,-79.686 90.5683,-79.6014 98.7977,-86.2743 101.163,-79.686"/>
</g>
<!-- Node3 -->
<g id="node3" class="node"><title>Node3</title>
<g id="a_node3"><a xlink:href="../../d1/df0/classoperational_1_1visitor_1_1_card.html#abd400aa5a8c71f67f2a04aef9014e88e" target="_top" xlink:title="operational::visitor\l::Card::GetSilverPrice">
<polygon fill="white" stroke="black" points="131,-49.5 131,-79.5 241,-79.5 241,-49.5 131,-49.5"/>
<text text-anchor="start" x="139" y="-67.5" font-family="Helvetica,sans-Serif" font-size="10.00">operational::visitor</text>
<text text-anchor="middle" x="186" y="-56.5" font-family="Helvetica,sans-Serif" font-size="10.00">::Card::GetSilverPrice</text>
</a>
</g>
</g>
<!-- Node1&#45;&gt;Node3 -->
<g id="edge2" class="edge"><title>Node1&#45;&gt;Node3</title>
<path fill="none" stroke="midnightblue" d="M105.197,-64.5C113.607,-64.5 122.258,-64.5 130.62,-64.5"/>
<polygon fill="midnightblue" stroke="midnightblue" points="105.094,-61.0001 95.0938,-64.5 105.094,-68.0001 105.094,-61.0001"/>
</g>
<!-- Node4 -->
<g id="node4" class="node"><title>Node4</title>
<g id="a_node4"><a xlink:href="../../d1/df0/classoperational_1_1visitor_1_1_card.html#af18795edf3cefa0387ce5015f4515715" target="_top" xlink:title="operational::visitor\l::Card::GetGoldPrice">
<polygon fill="white" stroke="black" points="132.5,-0.5 132.5,-30.5 239.5,-30.5 239.5,-0.5 132.5,-0.5"/>
<text text-anchor="start" x="140.5" y="-18.5" font-family="Helvetica,sans-Serif" font-size="10.00">operational::visitor</text>
<text text-anchor="middle" x="186" y="-7.5" font-family="Helvetica,sans-Serif" font-size="10.00">::Card::GetGoldPrice</text>
</a>
</g>
</g>
<!-- Node1&#45;&gt;Node4 -->
<g id="edge3" class="edge"><title>Node1&#45;&gt;Node4</title>
<path fill="none" stroke="midnightblue" d="M100.135,-45.9645C114.231,-40.9041 129.335,-35.4823 142.836,-30.6359"/>
<polygon fill="midnightblue" stroke="midnightblue" points="98.7977,-42.7257 90.5683,-49.3986 101.163,-49.314 98.7977,-42.7257"/>
</g>
</g>
</svg>
