<?xml version="1.0" encoding="UTF-8" standalone="no"?>
<!DOCTYPE svg PUBLIC "-//W3C//DTD SVG 1.1//EN"
 "http://www.w3.org/Graphics/SVG/1.1/DTD/svg11.dtd">
<!-- Generated by graphviz version 2.38.0 (20140413.2041)
 -->
<!-- Title: src/operational/src/templatemethod/sample_application.cc Pages: 1 -->
<svg width="282pt" height="218pt"
 viewBox="0.00 0.00 282.00 218.00" xmlns="http://www.w3.org/2000/svg" xmlns:xlink="http://www.w3.org/1999/xlink">
<g id="graph0" class="graph" transform="scale(1 1) rotate(0) translate(4 214)">
<title>src/operational/src/templatemethod/sample_application.cc</title>
<polygon fill="white" stroke="none" points="-4,4 -4,-214 278,-214 278,4 -4,4"/>
<!-- Node1 -->
<g id="node1" class="node"><title>Node1</title>
<polygon fill="#bfbfbf" stroke="black" points="119,-168.5 119,-209.5 243,-209.5 243,-168.5 119,-168.5"/>
<text text-anchor="start" x="127" y="-197.5" font-family="Helvetica,sans-Serif" font-size="10.00">src/operational/src</text>
<text text-anchor="start" x="127" y="-186.5" font-family="Helvetica,sans-Serif" font-size="10.00">/templatemethod/sample</text>
<text text-anchor="middle" x="181" y="-175.5" font-family="Helvetica,sans-Serif" font-size="10.00">_application.cc</text>
</g>
<!-- Node2 -->
<g id="node2" class="node"><title>Node2</title>
<g id="a_node2"><a xlink:href="../../d9/de6/sample__application_8h.html" target="_top" xlink:title="sample_application.h">
<polygon fill="white" stroke="black" points="86,-112.5 86,-131.5 194,-131.5 194,-112.5 86,-112.5"/>
<text text-anchor="middle" x="140" y="-119.5" font-family="Helvetica,sans-Serif" font-size="10.00">sample_application.h</text>
</a>
</g>
</g>
<!-- Node1&#45;&gt;Node2 -->
<g id="edge1" class="edge"><title>Node1&#45;&gt;Node2</title>
<path fill="none" stroke="midnightblue" d="M168.699,-168.498C163.017,-159.49 156.329,-148.888 150.84,-140.185"/>
<polygon fill="midnightblue" stroke="midnightblue" points="153.753,-138.243 145.458,-131.652 147.833,-141.978 153.753,-138.243"/>
</g>
<!-- Node6 -->
<g id="node6" class="node"><title>Node6</title>
<g id="a_node6"><a xlink:href="../../d1/d86/sample__document_8h.html" target="_top" xlink:title="sample_document.h">
<polygon fill="white" stroke="black" points="170,-56.5 170,-75.5 274,-75.5 274,-56.5 170,-56.5"/>
<text text-anchor="middle" x="222" y="-63.5" font-family="Helvetica,sans-Serif" font-size="10.00">sample_document.h</text>
</a>
</g>
</g>
<!-- Node1&#45;&gt;Node6 -->
<g id="edge6" class="edge"><title>Node1&#45;&gt;Node6</title>
<path fill="none" stroke="midnightblue" d="M189.174,-168.464C193.518,-157.778 198.811,-144.256 203,-132 208.288,-116.529 213.438,-98.6861 217.039,-85.6131"/>
<polygon fill="midnightblue" stroke="midnightblue" points="220.43,-86.4779 219.668,-75.9105 213.674,-84.6467 220.43,-86.4779"/>
</g>
<!-- Node3 -->
<g id="node3" class="node"><title>Node3</title>
<g id="a_node3"><a xlink:href="../../d4/d77/template__application_8h.html" target="_top" xlink:title="template_application.h">
<polygon fill="white" stroke="black" points="0,-56.5 0,-75.5 114,-75.5 114,-56.5 0,-56.5"/>
<text text-anchor="middle" x="57" y="-63.5" font-family="Helvetica,sans-Serif" font-size="10.00">template_application.h</text>
</a>
</g>
</g>
<!-- Node2&#45;&gt;Node3 -->
<g id="edge2" class="edge"><title>Node2&#45;&gt;Node3</title>
<path fill="none" stroke="midnightblue" d="M126.665,-112.324C113.838,-103.979 94.215,-91.2122 79.0602,-81.3524"/>
<polygon fill="midnightblue" stroke="midnightblue" points="80.5932,-78.1742 70.3023,-75.6545 76.7757,-84.0417 80.5932,-78.1742"/>
</g>
<!-- Node4 -->
<g id="node4" class="node"><title>Node4</title>
<g id="a_node4"><a xlink:href="../../de/da9/document__interface_8h.html" target="_top" xlink:title="document_interface.h">
<polygon fill="white" stroke="black" points="89,-0.5 89,-19.5 199,-19.5 199,-0.5 89,-0.5"/>
<text text-anchor="middle" x="144" y="-7.5" font-family="Helvetica,sans-Serif" font-size="10.00">document_interface.h</text>
</a>
</g>
</g>
<!-- Node2&#45;&gt;Node4 -->
<g id="edge5" class="edge"><title>Node2&#45;&gt;Node4</title>
<path fill="none" stroke="midnightblue" d="M140.314,-112.368C140.959,-94.617 142.448,-53.6664 143.324,-29.5974"/>
<polygon fill="midnightblue" stroke="midnightblue" points="146.822,-29.712 143.688,-19.5914 139.826,-29.4576 146.822,-29.712"/>
</g>
<!-- Node3&#45;&gt;Node4 -->
<g id="edge3" class="edge"><title>Node3&#45;&gt;Node4</title>
<path fill="none" stroke="midnightblue" d="M70.9781,-56.324C84.5496,-47.9002 105.38,-34.9709 121.325,-25.0741"/>
<polygon fill="midnightblue" stroke="midnightblue" points="123.406,-27.9019 130.057,-19.6545 119.714,-21.9544 123.406,-27.9019"/>
</g>
<!-- Node5 -->
<g id="node5" class="node"><title>Node5</title>
<polygon fill="white" stroke="#bfbfbf" points="41.5,-0.5 41.5,-19.5 70.5,-19.5 70.5,-0.5 41.5,-0.5"/>
<text text-anchor="middle" x="56" y="-7.5" font-family="Helvetica,sans-Serif" font-size="10.00">list</text>
</g>
<!-- Node3&#45;&gt;Node5 -->
<g id="edge4" class="edge"><title>Node3&#45;&gt;Node5</title>
<path fill="none" stroke="midnightblue" d="M56.8349,-56.083C56.7038,-49.0059 56.5159,-38.8611 56.3516,-29.9865"/>
<polygon fill="midnightblue" stroke="midnightblue" points="59.8467,-29.6845 56.1621,-19.7511 52.8479,-29.8142 59.8467,-29.6845"/>
</g>
<!-- Node6&#45;&gt;Node4 -->
<g id="edge7" class="edge"><title>Node6&#45;&gt;Node4</title>
<path fill="none" stroke="midnightblue" d="M209.468,-56.324C197.414,-47.979 178.973,-35.2122 164.731,-25.3524"/>
<polygon fill="midnightblue" stroke="midnightblue" points="166.715,-22.469 156.501,-19.6545 162.731,-28.2243 166.715,-22.469"/>
</g>
</g>
</svg>
