<?xml version="1.0" encoding="UTF-8" standalone="no"?>
<!DOCTYPE svg PUBLIC "-//W3C//DTD SVG 1.1//EN"
 "http://www.w3.org/Graphics/SVG/1.1/DTD/svg11.dtd">
<!-- Generated by graphviz version 2.38.0 (20140413.2041)
 -->
<!-- Title: src/operational/src/strategy/simple_compositor.h Pages: 1 -->
<svg width="290pt" height="117pt"
 viewBox="0.00 0.00 289.50 117.00" xmlns="http://www.w3.org/2000/svg" xmlns:xlink="http://www.w3.org/1999/xlink">
<g id="graph0" class="graph" transform="scale(1 1) rotate(0) translate(4 113)">
<title>src/operational/src/strategy/simple_compositor.h</title>
<polygon fill="white" stroke="none" points="-4,4 -4,-113 285.5,-113 285.5,4 -4,4"/>
<!-- Node1 -->
<g id="node1" class="node"><title>Node1</title>
<polygon fill="#bfbfbf" stroke="black" points="77.5,-78.5 77.5,-108.5 225.5,-108.5 225.5,-78.5 77.5,-78.5"/>
<text text-anchor="start" x="85.5" y="-96.5" font-family="Helvetica,sans-Serif" font-size="10.00">src/operational/src</text>
<text text-anchor="middle" x="151.5" y="-85.5" font-family="Helvetica,sans-Serif" font-size="10.00">/strategy/simple_compositor.h</text>
</g>
<!-- Node2 -->
<g id="node2" class="node"><title>Node2</title>
<g id="a_node2"><a xlink:href="../../dd/d2a/simple__compositor_8cc.html" target="_top" xlink:title="src/operational/src\l/strategy/simple_compositor.cc">
<polygon fill="white" stroke="black" points="0,-6 0,-36 153,-36 153,-6 0,-6"/>
<text text-anchor="start" x="8" y="-24" font-family="Helvetica,sans-Serif" font-size="10.00">src/operational/src</text>
<text text-anchor="middle" x="76.5" y="-13" font-family="Helvetica,sans-Serif" font-size="10.00">/strategy/simple_compositor.cc</text>
</a>
</g>
</g>
<!-- Node1&#45;&gt;Node2 -->
<g id="edge1" class="edge"><title>Node1&#45;&gt;Node2</title>
<path fill="none" stroke="midnightblue" d="M128.776,-71.139C116.652,-59.7429 102.076,-46.0414 91.3988,-36.0049"/>
<polygon fill="midnightblue" stroke="midnightblue" points="126.639,-73.9343 136.323,-78.2333 131.434,-68.8339 126.639,-73.9343"/>
</g>
<!-- Node3 -->
<g id="node3" class="node"><title>Node3</title>
<g id="a_node3"><a xlink:href="../../d2/dba/strategy__test_8cc.html" target="_top" xlink:title="src/operational_tests\l/src/strategy/strategy\l_test.cc">
<polygon fill="white" stroke="black" points="171.5,-0.5 171.5,-41.5 281.5,-41.5 281.5,-0.5 171.5,-0.5"/>
<text text-anchor="start" x="179.5" y="-29.5" font-family="Helvetica,sans-Serif" font-size="10.00">src/operational_tests</text>
<text text-anchor="start" x="179.5" y="-18.5" font-family="Helvetica,sans-Serif" font-size="10.00">/src/strategy/strategy</text>
<text text-anchor="middle" x="226.5" y="-7.5" font-family="Helvetica,sans-Serif" font-size="10.00">_test.cc</text>
</a>
</g>
</g>
<!-- Node1&#45;&gt;Node3 -->
<g id="edge2" class="edge"><title>Node1&#45;&gt;Node3</title>
<path fill="none" stroke="midnightblue" d="M173.969,-71.3792C184.024,-61.9277 195.806,-50.8524 205.661,-41.5884"/>
<polygon fill="midnightblue" stroke="midnightblue" points="171.566,-68.8339 166.677,-78.2333 176.361,-73.9343 171.566,-68.8339"/>
</g>
</g>
</svg>
