<?xml version="1.0" encoding="UTF-8" standalone="no"?>
<!DOCTYPE svg PUBLIC "-//W3C//DTD SVG 1.1//EN"
 "http://www.w3.org/Graphics/SVG/1.1/DTD/svg11.dtd">
<!-- Generated by graphviz version 2.38.0 (20140413.2041)
 -->
<!-- Title: src/operational/src/observer/digital_clock.h Pages: 1 -->
<svg width="264pt" height="117pt"
 viewBox="0.00 0.00 263.50 117.00" xmlns="http://www.w3.org/2000/svg" xmlns:xlink="http://www.w3.org/1999/xlink">
<g id="graph0" class="graph" transform="scale(1 1) rotate(0) translate(4 113)">
<title>src/operational/src/observer/digital_clock.h</title>
<polygon fill="white" stroke="none" points="-4,4 -4,-113 259.5,-113 259.5,4 -4,4"/>
<!-- Node1 -->
<g id="node1" class="node"><title>Node1</title>
<polygon fill="#bfbfbf" stroke="black" points="70.5,-78.5 70.5,-108.5 191.5,-108.5 191.5,-78.5 70.5,-78.5"/>
<text text-anchor="start" x="78.5" y="-96.5" font-family="Helvetica,sans-Serif" font-size="10.00">src/operational/src</text>
<text text-anchor="middle" x="131" y="-85.5" font-family="Helvetica,sans-Serif" font-size="10.00">/observer/digital_clock.h</text>
</g>
<!-- Node2 -->
<g id="node2" class="node"><title>Node2</title>
<g id="a_node2"><a xlink:href="../../d6/db3/digital__clock_8cc.html" target="_top" xlink:title="src/operational/src\l/observer/digital_clock.cc">
<polygon fill="white" stroke="black" points="0,-6 0,-36 126,-36 126,-6 0,-6"/>
<text text-anchor="start" x="8" y="-24" font-family="Helvetica,sans-Serif" font-size="10.00">src/operational/src</text>
<text text-anchor="middle" x="63" y="-13" font-family="Helvetica,sans-Serif" font-size="10.00">/observer/digital_clock.cc</text>
</a>
</g>
</g>
<!-- Node1&#45;&gt;Node2 -->
<g id="edge1" class="edge"><title>Node1&#45;&gt;Node2</title>
<path fill="none" stroke="midnightblue" d="M110.131,-70.8641C99.2804,-59.6142 86.3212,-46.1786 76.7403,-36.2455"/>
<polygon fill="midnightblue" stroke="midnightblue" points="107.778,-73.4655 117.239,-78.2333 112.816,-68.6059 107.778,-73.4655"/>
</g>
<!-- Node3 -->
<g id="node3" class="node"><title>Node3</title>
<g id="a_node3"><a xlink:href="../../d6/d34/observer__test_8cc.html" target="_top" xlink:title="src/operational_tests\l/src/observer/observer\l_test.cc">
<polygon fill="white" stroke="black" points="144.5,-0.5 144.5,-41.5 255.5,-41.5 255.5,-0.5 144.5,-0.5"/>
<text text-anchor="start" x="152.5" y="-29.5" font-family="Helvetica,sans-Serif" font-size="10.00">src/operational_tests</text>
<text text-anchor="start" x="152.5" y="-18.5" font-family="Helvetica,sans-Serif" font-size="10.00">/src/observer/observer</text>
<text text-anchor="middle" x="200" y="-7.5" font-family="Helvetica,sans-Serif" font-size="10.00">_test.cc</text>
</a>
</g>
</g>
<!-- Node1&#45;&gt;Node3 -->
<g id="edge2" class="edge"><title>Node1&#45;&gt;Node3</title>
<path fill="none" stroke="midnightblue" d="M152.217,-70.8213C161.346,-61.4941 171.939,-50.6707 180.828,-41.5884"/>
<polygon fill="midnightblue" stroke="midnightblue" points="149.456,-68.6384 144.963,-78.2333 154.459,-73.5347 149.456,-68.6384"/>
</g>
</g>
</svg>
