<?xml version="1.0" encoding="UTF-8" standalone="no"?>
<!DOCTYPE svg PUBLIC "-//W3C//DTD SVG 1.1//EN"
 "http://www.w3.org/Graphics/SVG/1.1/DTD/svg11.dtd">
<!-- Generated by graphviz version 2.38.0 (20140413.2041)
 -->
<!-- Title: src/structural/src/adapter/text_view.h Pages: 1 -->
<svg width="212pt" height="95pt"
 viewBox="0.00 0.00 211.50 95.00" xmlns="http://www.w3.org/2000/svg" xmlns:xlink="http://www.w3.org/1999/xlink">
<g id="graph0" class="graph" transform="scale(1 1) rotate(0) translate(4 91)">
<title>src/structural/src/adapter/text_view.h</title>
<polygon fill="white" stroke="none" points="-4,4 -4,-91 207.5,-91 207.5,4 -4,4"/>
<!-- Node1 -->
<g id="node1" class="node"><title>Node1</title>
<polygon fill="#bfbfbf" stroke="black" points="24,-56.5 24,-86.5 127,-86.5 127,-56.5 24,-56.5"/>
<text text-anchor="start" x="32" y="-74.5" font-family="Helvetica,sans-Serif" font-size="10.00">src/structural/src</text>
<text text-anchor="middle" x="75.5" y="-63.5" font-family="Helvetica,sans-Serif" font-size="10.00">/adapter/text_view.h</text>
</g>
<!-- Node2 -->
<g id="node2" class="node"><title>Node2</title>
<polygon fill="white" stroke="#bfbfbf" points="0,-0.5 0,-19.5 41,-19.5 41,-0.5 0,-0.5"/>
<text text-anchor="middle" x="20.5" y="-7.5" font-family="Helvetica,sans-Serif" font-size="10.00">string</text>
</g>
<!-- Node1&#45;&gt;Node2 -->
<g id="edge1" class="edge"><title>Node1&#45;&gt;Node2</title>
<path fill="none" stroke="midnightblue" d="M62.4658,-56.3993C54.3088,-47.575 43.7781,-36.1827 35.3064,-27.0178"/>
<polygon fill="midnightblue" stroke="midnightblue" points="37.8611,-24.6253 28.503,-19.6578 32.7208,-29.3769 37.8611,-24.6253"/>
</g>
<!-- Node3 -->
<g id="node3" class="node"><title>Node3</title>
<g id="a_node3"><a xlink:href="../../d0/d2e/visual__component__interface_8h.html" target="_top" xlink:title="visual_component_interface.h">
<polygon fill="white" stroke="black" points="59.5,-0.5 59.5,-19.5 203.5,-19.5 203.5,-0.5 59.5,-0.5"/>
<text text-anchor="middle" x="131.5" y="-7.5" font-family="Helvetica,sans-Serif" font-size="10.00">visual_component_interface.h</text>
</a>
</g>
</g>
<!-- Node1&#45;&gt;Node3 -->
<g id="edge2" class="edge"><title>Node1&#45;&gt;Node3</title>
<path fill="none" stroke="midnightblue" d="M88.7712,-56.3993C97.0765,-47.575 107.799,-36.1827 116.424,-27.0178"/>
<polygon fill="midnightblue" stroke="midnightblue" points="119.047,-29.3386 123.352,-19.6578 113.949,-24.541 119.047,-29.3386"/>
</g>
</g>
</svg>
