<?xml version="1.0" encoding="UTF-8" standalone="no"?>
<!DOCTYPE svg PUBLIC "-//W3C//DTD SVG 1.1//EN"
 "http://www.w3.org/Graphics/SVG/1.1/DTD/svg11.dtd">
<!-- Generated by graphviz version 2.38.0 (20140413.2041)
 -->
<!-- Title: src/operational/src/templatemethod/sample_application.h Pages: 1 -->
<svg width="205pt" height="162pt"
 viewBox="0.00 0.00 205.00 162.00" xmlns="http://www.w3.org/2000/svg" xmlns:xlink="http://www.w3.org/1999/xlink">
<g id="graph0" class="graph" transform="scale(1 1) rotate(0) translate(4 158)">
<title>src/operational/src/templatemethod/sample_application.h</title>
<polygon fill="white" stroke="none" points="-4,4 -4,-158 201,-158 201,4 -4,4"/>
<!-- Node1 -->
<g id="node1" class="node"><title>Node1</title>
<polygon fill="#bfbfbf" stroke="black" points="35,-112.5 35,-153.5 159,-153.5 159,-112.5 35,-112.5"/>
<text text-anchor="start" x="43" y="-141.5" font-family="Helvetica,sans-Serif" font-size="10.00">src/operational/src</text>
<text text-anchor="start" x="43" y="-130.5" font-family="Helvetica,sans-Serif" font-size="10.00">/templatemethod/sample</text>
<text text-anchor="middle" x="97" y="-119.5" font-family="Helvetica,sans-Serif" font-size="10.00">_application.h</text>
</g>
<!-- Node2 -->
<g id="node2" class="node"><title>Node2</title>
<g id="a_node2"><a xlink:href="../../d4/d77/template__application_8h.html" target="_top" xlink:title="template_application.h">
<polygon fill="white" stroke="black" points="83,-56.5 83,-75.5 197,-75.5 197,-56.5 83,-56.5"/>
<text text-anchor="middle" x="140" y="-63.5" font-family="Helvetica,sans-Serif" font-size="10.00">template_application.h</text>
</a>
</g>
</g>
<!-- Node1&#45;&gt;Node2 -->
<g id="edge1" class="edge"><title>Node1&#45;&gt;Node2</title>
<path fill="none" stroke="midnightblue" d="M109.901,-112.498C115.86,-103.49 122.874,-92.8881 128.631,-84.1852"/>
<polygon fill="midnightblue" stroke="midnightblue" points="131.678,-85.9238 134.276,-75.6525 125.84,-82.0616 131.678,-85.9238"/>
</g>
<!-- Node3 -->
<g id="node3" class="node"><title>Node3</title>
<g id="a_node3"><a xlink:href="../../de/da9/document__interface_8h.html" target="_top" xlink:title="document_interface.h">
<polygon fill="white" stroke="black" points="0,-0.5 0,-19.5 110,-19.5 110,-0.5 0,-0.5"/>
<text text-anchor="middle" x="55" y="-7.5" font-family="Helvetica,sans-Serif" font-size="10.00">document_interface.h</text>
</a>
</g>
</g>
<!-- Node1&#45;&gt;Node3 -->
<g id="edge4" class="edge"><title>Node1&#45;&gt;Node3</title>
<path fill="none" stroke="midnightblue" d="M88.3988,-112.498C83.8409,-101.823 78.3099,-88.2995 74,-76 68.5324,-60.397 63.3385,-42.3223 59.7674,-29.1996"/>
<polygon fill="midnightblue" stroke="midnightblue" points="63.14,-28.263 57.179,-19.5042 56.3769,-30.0686 63.14,-28.263"/>
</g>
<!-- Node2&#45;&gt;Node3 -->
<g id="edge2" class="edge"><title>Node2&#45;&gt;Node3</title>
<path fill="none" stroke="midnightblue" d="M126.343,-56.324C113.084,-47.9002 92.732,-34.9709 77.1538,-25.0741"/>
<polygon fill="midnightblue" stroke="midnightblue" points="78.9404,-22.0626 68.6228,-19.6545 75.1867,-27.9711 78.9404,-22.0626"/>
</g>
<!-- Node4 -->
<g id="node4" class="node"><title>Node4</title>
<polygon fill="white" stroke="#bfbfbf" points="128.5,-0.5 128.5,-19.5 157.5,-19.5 157.5,-0.5 128.5,-0.5"/>
<text text-anchor="middle" x="143" y="-7.5" font-family="Helvetica,sans-Serif" font-size="10.00">list</text>
</g>
<!-- Node2&#45;&gt;Node4 -->
<g id="edge3" class="edge"><title>Node2&#45;&gt;Node4</title>
<path fill="none" stroke="midnightblue" d="M140.495,-56.083C140.889,-49.0059 141.452,-38.8611 141.945,-29.9865"/>
<polygon fill="midnightblue" stroke="midnightblue" points="145.454,-29.9299 142.514,-19.7511 138.464,-29.5415 145.454,-29.9299"/>
</g>
</g>
</svg>
