<?xml version="1.0" encoding="UTF-8" standalone="no"?>
<!DOCTYPE svg PUBLIC "-//W3C//DTD SVG 1.1//EN"
 "http://www.w3.org/Graphics/SVG/1.1/DTD/svg11.dtd">
<!-- Generated by graphviz version 2.38.0 (20140413.2041)
 -->
<!-- Title: operational::madiator::ListBox::HandleMouse Pages: 1 -->
<svg width="428pt" height="50pt"
 viewBox="0.00 0.00 428.00 50.00" xmlns="http://www.w3.org/2000/svg" xmlns:xlink="http://www.w3.org/1999/xlink">
<g id="graph0" class="graph" transform="scale(1 1) rotate(0) translate(4 46)">
<title>operational::madiator::ListBox::HandleMouse</title>
<polygon fill="white" stroke="none" points="-4,4 -4,-46 424,-46 424,4 -4,4"/>
<!-- Node1 -->
<g id="node1" class="node"><title>Node1</title>
<polygon fill="#bfbfbf" stroke="black" points="0,-6 0,-36 121,-36 121,-6 0,-6"/>
<text text-anchor="start" x="8" y="-24" font-family="Helvetica,sans-Serif" font-size="10.00">operational::madiator</text>
<text text-anchor="middle" x="60.5" y="-13" font-family="Helvetica,sans-Serif" font-size="10.00">::ListBox::HandleMouse</text>
</g>
<!-- Node2 -->
<g id="node2" class="node"><title>Node2</title>
<g id="a_node2"><a xlink:href="../../df/d1e/classoperational_1_1madiator_1_1_list_box.html#a5d36ed4269913867a47aacc19d5a1e7e" target="_top" xlink:title="operational::madiator\l::ListBox::Changed">
<polygon fill="white" stroke="black" points="157,-6 157,-36 264,-36 264,-6 157,-6"/>
<text text-anchor="start" x="165" y="-24" font-family="Helvetica,sans-Serif" font-size="10.00">operational::madiator</text>
<text text-anchor="middle" x="210.5" y="-13" font-family="Helvetica,sans-Serif" font-size="10.00">::ListBox::Changed</text>
</a>
</g>
</g>
<!-- Node1&#45;&gt;Node2 -->
<g id="edge1" class="edge"><title>Node1&#45;&gt;Node2</title>
<path fill="none" stroke="midnightblue" d="M121.271,-21C129.598,-21 138.175,-21 146.558,-21"/>
<polygon fill="midnightblue" stroke="midnightblue" points="146.658,-24.5001 156.658,-21 146.658,-17.5001 146.658,-24.5001"/>
</g>
<!-- Node3 -->
<g id="node3" class="node"><title>Node3</title>
<g id="a_node3"><a xlink:href="../../d3/d99/classoperational_1_1madiator_1_1_dialog_director_interface.html#a1f0513461bfd6be0164e040d9156b81b" target="_top" xlink:title="operational::madiator\l::DialogDirectorInterface\l::WidgetChanged">
<polygon fill="white" stroke="black" points="300,-0.5 300,-41.5 420,-41.5 420,-0.5 300,-0.5"/>
<text text-anchor="start" x="308" y="-29.5" font-family="Helvetica,sans-Serif" font-size="10.00">operational::madiator</text>
<text text-anchor="start" x="308" y="-18.5" font-family="Helvetica,sans-Serif" font-size="10.00">::DialogDirectorInterface</text>
<text text-anchor="middle" x="360" y="-7.5" font-family="Helvetica,sans-Serif" font-size="10.00">::WidgetChanged</text>
</a>
</g>
</g>
<!-- Node2&#45;&gt;Node3 -->
<g id="edge2" class="edge"><title>Node2&#45;&gt;Node3</title>
<path fill="none" stroke="midnightblue" d="M264.334,-21C272.503,-21 281.045,-21 289.512,-21"/>
<polygon fill="midnightblue" stroke="midnightblue" points="289.772,-24.5001 299.772,-21 289.772,-17.5001 289.772,-24.5001"/>
</g>
</g>
</svg>
