<?xml version="1.0" encoding="UTF-8" standalone="no"?>
<!DOCTYPE svg PUBLIC "-//W3C//DTD SVG 1.1//EN"
 "http://www.w3.org/Graphics/SVG/1.1/DTD/svg11.dtd">
<!-- Generated by graphviz version 2.38.0 (20140413.2041)
 -->
<!-- Title: structural::decorator::CompressingStream Pages: 1 -->
<svg width="128pt" height="375pt"
 viewBox="0.00 0.00 128.00 375.00" xmlns="http://www.w3.org/2000/svg" xmlns:xlink="http://www.w3.org/1999/xlink">
<g id="graph0" class="graph" transform="scale(1 1) rotate(0) translate(4 371)">
<title>structural::decorator::CompressingStream</title>
<polygon fill="white" stroke="none" points="-4,4 -4,-371 124,-371 124,4 -4,4"/>
<!-- Node1 -->
<g id="node1" class="node"><title>Node1</title>
<polygon fill="#bfbfbf" stroke="black" points="0,-0.5 0,-112.5 120,-112.5 120,-0.5 0,-0.5"/>
<text text-anchor="start" x="8" y="-100.5" font-family="Helvetica,sans-Serif" font-size="10.00">structural::decorator</text>
<text text-anchor="middle" x="60" y="-89.5" font-family="Helvetica,sans-Serif" font-size="10.00">::CompressingStream</text>
<polyline fill="none" stroke="black" points="0,-82.5 120,-82.5 "/>
<text text-anchor="middle" x="60" y="-70.5" font-family="Helvetica,sans-Serif" font-size="10.00"> </text>
<polyline fill="none" stroke="black" points="0,-63.5 120,-63.5 "/>
<text text-anchor="start" x="8" y="-51.5" font-family="Helvetica,sans-Serif" font-size="10.00">+ CompressingStream()</text>
<text text-anchor="start" x="8" y="-40.5" font-family="Helvetica,sans-Serif" font-size="10.00">+ PutInt()</text>
<text text-anchor="start" x="8" y="-29.5" font-family="Helvetica,sans-Serif" font-size="10.00">+ PutString()</text>
<text text-anchor="start" x="8" y="-18.5" font-family="Helvetica,sans-Serif" font-size="10.00">+ value()</text>
<text text-anchor="start" x="8" y="-7.5" font-family="Helvetica,sans-Serif" font-size="10.00">+ message()</text>
</g>
<!-- Node2 -->
<g id="node2" class="node"><title>Node2</title>
<g id="a_node2"><a xlink:href="../../d6/de5/classstructural_1_1decorator_1_1_stream_decorator.html" target="_top" xlink:title="{structural::decorator\l::StreamDecorator\n|# component_\l|+ StreamDecorator()\l+ PutInt()\l+ PutString()\l}">
<polygon fill="white" stroke="black" points="7.5,-149.5 7.5,-239.5 112.5,-239.5 112.5,-149.5 7.5,-149.5"/>
<text text-anchor="start" x="15.5" y="-227.5" font-family="Helvetica,sans-Serif" font-size="10.00">structural::decorator</text>
<text text-anchor="middle" x="60" y="-216.5" font-family="Helvetica,sans-Serif" font-size="10.00">::StreamDecorator</text>
<polyline fill="none" stroke="black" points="7.5,-209.5 112.5,-209.5 "/>
<text text-anchor="start" x="15.5" y="-197.5" font-family="Helvetica,sans-Serif" font-size="10.00"># component_</text>
<polyline fill="none" stroke="black" points="7.5,-190.5 112.5,-190.5 "/>
<text text-anchor="start" x="15.5" y="-178.5" font-family="Helvetica,sans-Serif" font-size="10.00">+ StreamDecorator()</text>
<text text-anchor="start" x="15.5" y="-167.5" font-family="Helvetica,sans-Serif" font-size="10.00">+ PutInt()</text>
<text text-anchor="start" x="15.5" y="-156.5" font-family="Helvetica,sans-Serif" font-size="10.00">+ PutString()</text>
</a>
</g>
</g>
<!-- Node2&#45;&gt;Node1 -->
<g id="edge1" class="edge"><title>Node2&#45;&gt;Node1</title>
<path fill="none" stroke="midnightblue" d="M60,-139.312C60,-130.611 60,-121.595 60,-112.867"/>
<polygon fill="none" stroke="midnightblue" points="56.5001,-139.345 60,-149.345 63.5001,-139.345 56.5001,-139.345"/>
</g>
<!-- Node3 -->
<g id="node3" class="node"><title>Node3</title>
<g id="a_node3"><a xlink:href="../../d1/dbf/classstructural_1_1decorator_1_1_stream_interface.html" target="_top" xlink:title="{structural::decorator\l::StreamInterface\n||+ ~StreamInterface()\l+ PutInt()\l+ PutString()\l}">
<polygon fill="white" stroke="black" points="7,-276.5 7,-366.5 113,-366.5 113,-276.5 7,-276.5"/>
<text text-anchor="start" x="15" y="-354.5" font-family="Helvetica,sans-Serif" font-size="10.00">structural::decorator</text>
<text text-anchor="middle" x="60" y="-343.5" font-family="Helvetica,sans-Serif" font-size="10.00">::StreamInterface</text>
<polyline fill="none" stroke="black" points="7,-336.5 113,-336.5 "/>
<text text-anchor="middle" x="60" y="-324.5" font-family="Helvetica,sans-Serif" font-size="10.00"> </text>
<polyline fill="none" stroke="black" points="7,-317.5 113,-317.5 "/>
<text text-anchor="start" x="15" y="-305.5" font-family="Helvetica,sans-Serif" font-size="10.00">+ ~StreamInterface()</text>
<text text-anchor="start" x="15" y="-294.5" font-family="Helvetica,sans-Serif" font-size="10.00">+ PutInt()</text>
<text text-anchor="start" x="15" y="-283.5" font-family="Helvetica,sans-Serif" font-size="10.00">+ PutString()</text>
</a>
</g>
</g>
<!-- Node3&#45;&gt;Node2 -->
<g id="edge2" class="edge"><title>Node3&#45;&gt;Node2</title>
<path fill="none" stroke="midnightblue" d="M60,-266.157C60,-257.282 60,-248.183 60,-239.594"/>
<polygon fill="none" stroke="midnightblue" points="56.5001,-266.43 60,-276.43 63.5001,-266.43 56.5001,-266.43"/>
</g>
</g>
</svg>
