<?xml version="1.0" encoding="UTF-8" standalone="no"?>
<!DOCTYPE svg PUBLIC "-//W3C//DTD SVG 1.1//EN"
 "http://www.w3.org/Graphics/SVG/1.1/DTD/svg11.dtd">
<!-- Generated by graphviz version 2.38.0 (20140413.2041)
 -->
<!-- Title: operational::command::MyClass::Action Pages: 1 -->
<svg width="273pt" height="39pt"
 viewBox="0.00 0.00 273.00 39.00" xmlns="http://www.w3.org/2000/svg" xmlns:xlink="http://www.w3.org/1999/xlink">
<g id="graph0" class="graph" transform="scale(1 1) rotate(0) translate(4 35)">
<title>operational::command::MyClass::Action</title>
<polygon fill="white" stroke="none" points="-4,4 -4,-35 269,-35 269,4 -4,4"/>
<!-- Node1 -->
<g id="node1" class="node"><title>Node1</title>
<polygon fill="#bfbfbf" stroke="black" points="0,-0.5 0,-30.5 113,-30.5 113,-0.5 0,-0.5"/>
<text text-anchor="start" x="8" y="-18.5" font-family="Helvetica,sans-Serif" font-size="10.00">operational::command</text>
<text text-anchor="middle" x="56.5" y="-7.5" font-family="Helvetica,sans-Serif" font-size="10.00">::MyClass::Action</text>
</g>
<!-- Node2 -->
<g id="node2" class="node"><title>Node2</title>
<g id="a_node2"><a xlink:href="../../d4/d60/namespaceoperationaltests.html#a9af8f4a32e8eaa8816be2e92d4e51bcb" target="_top" xlink:title="operationaltests::TEST\l_CLASS">
<polygon fill="white" stroke="black" points="149,-0.5 149,-30.5 265,-30.5 265,-0.5 149,-0.5"/>
<text text-anchor="start" x="157" y="-18.5" font-family="Helvetica,sans-Serif" font-size="10.00">operationaltests::TEST</text>
<text text-anchor="middle" x="207" y="-7.5" font-family="Helvetica,sans-Serif" font-size="10.00">_CLASS</text>
</a>
</g>
</g>
<!-- Node1&#45;&gt;Node2 -->
<g id="edge1" class="edge"><title>Node1&#45;&gt;Node2</title>
<path fill="none" stroke="midnightblue" d="M123.486,-15.5C131.989,-15.5 140.638,-15.5 148.979,-15.5"/>
<polygon fill="midnightblue" stroke="midnightblue" points="123.218,-12.0001 113.218,-15.5 123.218,-19.0001 123.218,-12.0001"/>
</g>
</g>
</svg>
