<?xml version="1.0" encoding="UTF-8" standalone="no"?>
<!DOCTYPE svg PUBLIC "-//W3C//DTD SVG 1.1//EN"
 "http://www.w3.org/Graphics/SVG/1.1/DTD/svg11.dtd">
<!-- Generated by graphviz version 2.38.0 (20140413.2041)
 -->
<!-- Title: operational::madiator::MediatorButton Pages: 1 -->
<svg width="151pt" height="364pt"
 viewBox="0.00 0.00 151.00 364.00" xmlns="http://www.w3.org/2000/svg" xmlns:xlink="http://www.w3.org/1999/xlink">
<g id="graph0" class="graph" transform="scale(1 1) rotate(0) translate(4 360)">
<title>operational::madiator::MediatorButton</title>
<polygon fill="white" stroke="none" points="-4,4 -4,-360 147,-360 147,4 -4,4"/>
<!-- Node1 -->
<g id="node1" class="node"><title>Node1</title>
<polygon fill="#bfbfbf" stroke="black" points="18,-0.5 18,-101.5 125,-101.5 125,-0.5 18,-0.5"/>
<text text-anchor="start" x="26" y="-89.5" font-family="Helvetica,sans-Serif" font-size="10.00">operational::madiator</text>
<text text-anchor="middle" x="71.5" y="-78.5" font-family="Helvetica,sans-Serif" font-size="10.00">::MediatorButton</text>
<polyline fill="none" stroke="black" points="18,-71.5 125,-71.5 "/>
<text text-anchor="middle" x="71.5" y="-59.5" font-family="Helvetica,sans-Serif" font-size="10.00"> </text>
<polyline fill="none" stroke="black" points="18,-52.5 125,-52.5 "/>
<text text-anchor="start" x="26" y="-40.5" font-family="Helvetica,sans-Serif" font-size="10.00">+ MediatorButton()</text>
<text text-anchor="start" x="26" y="-29.5" font-family="Helvetica,sans-Serif" font-size="10.00">+ text()</text>
<text text-anchor="start" x="26" y="-18.5" font-family="Helvetica,sans-Serif" font-size="10.00">+ text()</text>
<text text-anchor="start" x="26" y="-7.5" font-family="Helvetica,sans-Serif" font-size="10.00">+ HandleMouse()</text>
</g>
<!-- Node2 -->
<g id="node2" class="node"><title>Node2</title>
<g id="a_node2"><a xlink:href="../../da/dd3/classoperational_1_1madiator_1_1_mediator_widget.html" target="_top" xlink:title="{operational::madiator\l::MediatorWidget\n||+ MediatorWidget()\l+ Changed()\l+ HandleMouse()\l}">
<polygon fill="white" stroke="black" points="18,-138.5 18,-228.5 125,-228.5 125,-138.5 18,-138.5"/>
<text text-anchor="start" x="26" y="-216.5" font-family="Helvetica,sans-Serif" font-size="10.00">operational::madiator</text>
<text text-anchor="middle" x="71.5" y="-205.5" font-family="Helvetica,sans-Serif" font-size="10.00">::MediatorWidget</text>
<polyline fill="none" stroke="black" points="18,-198.5 125,-198.5 "/>
<text text-anchor="middle" x="71.5" y="-186.5" font-family="Helvetica,sans-Serif" font-size="10.00"> </text>
<polyline fill="none" stroke="black" points="18,-179.5 125,-179.5 "/>
<text text-anchor="start" x="26" y="-167.5" font-family="Helvetica,sans-Serif" font-size="10.00">+ MediatorWidget()</text>
<text text-anchor="start" x="26" y="-156.5" font-family="Helvetica,sans-Serif" font-size="10.00">+ Changed()</text>
<text text-anchor="start" x="26" y="-145.5" font-family="Helvetica,sans-Serif" font-size="10.00">+ HandleMouse()</text>
</a>
</g>
</g>
<!-- Node2&#45;&gt;Node1 -->
<g id="edge1" class="edge"><title>Node2&#45;&gt;Node1</title>
<path fill="none" stroke="midnightblue" d="M71.5,-128.131C71.5,-119.311 71.5,-110.219 71.5,-101.523"/>
<polygon fill="none" stroke="midnightblue" points="68.0001,-128.319 71.5,-138.319 75.0001,-128.319 68.0001,-128.319"/>
</g>
<!-- Node3 -->
<g id="node3" class="node"><title>Node3</title>
<g id="a_node3"><a xlink:href="../../de/d29/classoperational_1_1madiator_1_1_mediator_widget_interface.html" target="_top" xlink:title="{operational::madiator\l::MediatorWidgetInterface\n||+ ~MediatorWidgetInterface()\l+ Changed()\l+ HandleMouse()\l}">
<polygon fill="white" stroke="black" points="0,-265.5 0,-355.5 143,-355.5 143,-265.5 0,-265.5"/>
<text text-anchor="start" x="8" y="-343.5" font-family="Helvetica,sans-Serif" font-size="10.00">operational::madiator</text>
<text text-anchor="middle" x="71.5" y="-332.5" font-family="Helvetica,sans-Serif" font-size="10.00">::MediatorWidgetInterface</text>
<polyline fill="none" stroke="black" points="0,-325.5 143,-325.5 "/>
<text text-anchor="middle" x="71.5" y="-313.5" font-family="Helvetica,sans-Serif" font-size="10.00"> </text>
<polyline fill="none" stroke="black" points="0,-306.5 143,-306.5 "/>
<text text-anchor="start" x="8" y="-294.5" font-family="Helvetica,sans-Serif" font-size="10.00">+ ~MediatorWidgetInterface()</text>
<text text-anchor="start" x="8" y="-283.5" font-family="Helvetica,sans-Serif" font-size="10.00">+ Changed()</text>
<text text-anchor="start" x="8" y="-272.5" font-family="Helvetica,sans-Serif" font-size="10.00">+ HandleMouse()</text>
</a>
</g>
</g>
<!-- Node3&#45;&gt;Node2 -->
<g id="edge2" class="edge"><title>Node3&#45;&gt;Node2</title>
<path fill="none" stroke="midnightblue" d="M71.5,-255.157C71.5,-246.282 71.5,-237.183 71.5,-228.594"/>
<polygon fill="none" stroke="midnightblue" points="68.0001,-255.43 71.5,-265.43 75.0001,-255.43 68.0001,-255.43"/>
</g>
</g>
</svg>
