<?xml version="1.0" encoding="UTF-8" standalone="no"?>
<!DOCTYPE svg PUBLIC "-//W3C//DTD SVG 1.1//EN"
 "http://www.w3.org/Graphics/SVG/1.1/DTD/svg11.dtd">
<!-- Generated by graphviz version 2.38.0 (20140413.2041)
 -->
<!-- Title: src/structural/src/proxy/virtual_image_proxy.h Pages: 1 -->
<svg width="205pt" height="274pt"
 viewBox="0.00 0.00 205.00 274.00" xmlns="http://www.w3.org/2000/svg" xmlns:xlink="http://www.w3.org/1999/xlink">
<g id="graph0" class="graph" transform="scale(1 1) rotate(0) translate(4 270)">
<title>src/structural/src/proxy/virtual_image_proxy.h</title>
<polygon fill="white" stroke="none" points="-4,4 -4,-270 201,-270 201,4 -4,4"/>
<!-- Node1 -->
<g id="node1" class="node"><title>Node1</title>
<polygon fill="#bfbfbf" stroke="black" points="34,-224.5 34,-265.5 137,-265.5 137,-224.5 34,-224.5"/>
<text text-anchor="start" x="42" y="-253.5" font-family="Helvetica,sans-Serif" font-size="10.00">src/structural/src</text>
<text text-anchor="start" x="42" y="-242.5" font-family="Helvetica,sans-Serif" font-size="10.00">/proxy/virtual_image</text>
<text text-anchor="middle" x="85.5" y="-231.5" font-family="Helvetica,sans-Serif" font-size="10.00">_proxy.h</text>
</g>
<!-- Node2 -->
<g id="node2" class="node"><title>Node2</title>
<g id="a_node2"><a xlink:href="../../d5/db2/image_8h.html" target="_top" xlink:title="image.h">
<polygon fill="white" stroke="black" points="60,-168.5 60,-187.5 111,-187.5 111,-168.5 60,-168.5"/>
<text text-anchor="middle" x="85.5" y="-175.5" font-family="Helvetica,sans-Serif" font-size="10.00">image.h</text>
</a>
</g>
</g>
<!-- Node1&#45;&gt;Node2 -->
<g id="edge1" class="edge"><title>Node1&#45;&gt;Node2</title>
<path fill="none" stroke="midnightblue" d="M85.5,-224.498C85.5,-216.065 85.5,-206.235 85.5,-197.874"/>
<polygon fill="midnightblue" stroke="midnightblue" points="89.0001,-197.652 85.5,-187.652 82.0001,-197.653 89.0001,-197.652"/>
</g>
<!-- Node3 -->
<g id="node3" class="node"><title>Node3</title>
<g id="a_node3"><a xlink:href="../../dd/d20/event_8h.html" target="_top" xlink:title="event.h">
<polygon fill="white" stroke="black" points="0,-56.5 0,-75.5 47,-75.5 47,-56.5 0,-56.5"/>
<text text-anchor="middle" x="23.5" y="-63.5" font-family="Helvetica,sans-Serif" font-size="10.00">event.h</text>
</a>
</g>
</g>
<!-- Node2&#45;&gt;Node3 -->
<g id="edge2" class="edge"><title>Node2&#45;&gt;Node3</title>
<path fill="none" stroke="midnightblue" d="M67.6708,-168.481C54.079,-160.943 36.2543,-148.564 27.5,-132 19.9882,-117.787 19.5868,-99.3106 20.7147,-85.6911"/>
<polygon fill="midnightblue" stroke="midnightblue" points="24.2102,-85.9331 21.8992,-75.5934 17.2579,-85.1175 24.2102,-85.9331"/>
</g>
<!-- Node4 -->
<g id="node4" class="node"><title>Node4</title>
<g id="a_node4"><a xlink:href="../../d1/dda/graphic__interface_8h.html" target="_top" xlink:title="graphic_interface.h">
<polygon fill="white" stroke="black" points="36.5,-112.5 36.5,-131.5 134.5,-131.5 134.5,-112.5 36.5,-112.5"/>
<text text-anchor="middle" x="85.5" y="-119.5" font-family="Helvetica,sans-Serif" font-size="10.00">graphic_interface.h</text>
</a>
</g>
</g>
<!-- Node2&#45;&gt;Node4 -->
<g id="edge3" class="edge"><title>Node2&#45;&gt;Node4</title>
<path fill="none" stroke="midnightblue" d="M85.5,-168.083C85.5,-161.006 85.5,-150.861 85.5,-141.986"/>
<polygon fill="midnightblue" stroke="midnightblue" points="89.0001,-141.751 85.5,-131.751 82.0001,-141.751 89.0001,-141.751"/>
</g>
<!-- Node5 -->
<g id="node5" class="node"><title>Node5</title>
<g id="a_node5"><a xlink:href="../../d2/d91/point_8h.html" target="_top" xlink:title="../commons/point.h">
<polygon fill="white" stroke="black" points="96,-56.5 96,-75.5 197,-75.5 197,-56.5 96,-56.5"/>
<text text-anchor="middle" x="146.5" y="-63.5" font-family="Helvetica,sans-Serif" font-size="10.00">../commons/point.h</text>
</a>
</g>
</g>
<!-- Node2&#45;&gt;Node5 -->
<g id="edge7" class="edge"><title>Node2&#45;&gt;Node5</title>
<path fill="none" stroke="midnightblue" d="M103.677,-168.364C117.272,-160.831 134.932,-148.517 143.5,-132 150.896,-117.742 151.002,-99.2702 149.634,-85.6642"/>
<polygon fill="midnightblue" stroke="midnightblue" points="153.079,-85.0176 148.266,-75.5788 146.142,-85.9586 153.079,-85.0176"/>
</g>
<!-- Node4&#45;&gt;Node3 -->
<g id="edge4" class="edge"><title>Node4&#45;&gt;Node3</title>
<path fill="none" stroke="midnightblue" d="M75.5386,-112.324C66.3734,-104.341 52.5628,-92.3128 41.4718,-82.6529"/>
<polygon fill="midnightblue" stroke="midnightblue" points="43.4822,-79.7624 33.6426,-75.8339 38.8847,-85.041 43.4822,-79.7624"/>
</g>
<!-- Node4&#45;&gt;Node5 -->
<g id="edge5" class="edge"><title>Node4&#45;&gt;Node5</title>
<path fill="none" stroke="midnightblue" d="M95.3007,-112.324C104.318,-104.341 117.906,-92.3128 128.818,-82.6529"/>
<polygon fill="midnightblue" stroke="midnightblue" points="131.353,-85.083 136.521,-75.8339 126.713,-79.8416 131.353,-85.083"/>
</g>
<!-- Node6 -->
<g id="node6" class="node"><title>Node6</title>
<polygon fill="white" stroke="#bfbfbf" points="119.5,-0.5 119.5,-19.5 173.5,-19.5 173.5,-0.5 119.5,-0.5"/>
<text text-anchor="middle" x="146.5" y="-7.5" font-family="Helvetica,sans-Serif" font-size="10.00">iostream</text>
</g>
<!-- Node5&#45;&gt;Node6 -->
<g id="edge6" class="edge"><title>Node5&#45;&gt;Node6</title>
<path fill="none" stroke="midnightblue" d="M146.5,-56.083C146.5,-49.0059 146.5,-38.8611 146.5,-29.9865"/>
<polygon fill="midnightblue" stroke="midnightblue" points="150,-29.751 146.5,-19.7511 143,-29.7511 150,-29.751"/>
</g>
</g>
</svg>
