<?xml version="1.0" encoding="UTF-8" standalone="no"?>
<!DOCTYPE svg PUBLIC "-//W3C//DTD SVG 1.1//EN"
 "http://www.w3.org/Graphics/SVG/1.1/DTD/svg11.dtd">
<!-- Generated by graphviz version 2.38.0 (20140413.2041)
 -->
<!-- Title: src/operational/src/templatemethod/document_interface.h Pages: 1 -->
<svg width="488pt" height="284pt"
 viewBox="0.00 0.00 487.50 284.00" xmlns="http://www.w3.org/2000/svg" xmlns:xlink="http://www.w3.org/1999/xlink">
<g id="graph0" class="graph" transform="scale(1 1) rotate(0) translate(4 280)">
<title>src/operational/src/templatemethod/document_interface.h</title>
<polygon fill="white" stroke="none" points="-4,4 -4,-280 483.5,-280 483.5,4 -4,4"/>
<!-- Node1 -->
<g id="node1" class="node"><title>Node1</title>
<polygon fill="#bfbfbf" stroke="black" points="115,-234.5 115,-275.5 250,-275.5 250,-234.5 115,-234.5"/>
<text text-anchor="start" x="123" y="-263.5" font-family="Helvetica,sans-Serif" font-size="10.00">src/operational/src</text>
<text text-anchor="start" x="123" y="-252.5" font-family="Helvetica,sans-Serif" font-size="10.00">/templatemethod/document</text>
<text text-anchor="middle" x="182.5" y="-241.5" font-family="Helvetica,sans-Serif" font-size="10.00">_interface.h</text>
</g>
<!-- Node2 -->
<g id="node2" class="node"><title>Node2</title>
<g id="a_node2"><a xlink:href="../../d4/d77/template__application_8h.html" target="_top" xlink:title="src/operational/src\l/templatemethod/template\l_application.h">
<polygon fill="white" stroke="black" points="117.5,-156.5 117.5,-197.5 247.5,-197.5 247.5,-156.5 117.5,-156.5"/>
<text text-anchor="start" x="125.5" y="-185.5" font-family="Helvetica,sans-Serif" font-size="10.00">src/operational/src</text>
<text text-anchor="start" x="125.5" y="-174.5" font-family="Helvetica,sans-Serif" font-size="10.00">/templatemethod/template</text>
<text text-anchor="middle" x="182.5" y="-163.5" font-family="Helvetica,sans-Serif" font-size="10.00">_application.h</text>
</a>
</g>
</g>
<!-- Node1&#45;&gt;Node2 -->
<g id="edge1" class="edge"><title>Node1&#45;&gt;Node2</title>
<path fill="none" stroke="midnightblue" d="M182.5,-224.297C182.5,-215.301 182.5,-205.653 182.5,-197.506"/>
<polygon fill="midnightblue" stroke="midnightblue" points="179,-224.428 182.5,-234.428 186,-224.428 179,-224.428"/>
</g>
<!-- Node3 -->
<g id="node3" class="node"><title>Node3</title>
<g id="a_node3"><a xlink:href="../../d9/de6/sample__application_8h.html" target="_top" xlink:title="src/operational/src\l/templatemethod/sample\l_application.h">
<polygon fill="white" stroke="black" points="27.5,-78.5 27.5,-119.5 151.5,-119.5 151.5,-78.5 27.5,-78.5"/>
<text text-anchor="start" x="35.5" y="-107.5" font-family="Helvetica,sans-Serif" font-size="10.00">src/operational/src</text>
<text text-anchor="start" x="35.5" y="-96.5" font-family="Helvetica,sans-Serif" font-size="10.00">/templatemethod/sample</text>
<text text-anchor="middle" x="89.5" y="-85.5" font-family="Helvetica,sans-Serif" font-size="10.00">_application.h</text>
</a>
</g>
</g>
<!-- Node1&#45;&gt;Node3 -->
<g id="edge6" class="edge"><title>Node1&#45;&gt;Node3</title>
<path fill="none" stroke="midnightblue" d="M137.661,-228.289C126.599,-219.953 115.833,-209.768 108.5,-198 93.4689,-173.877 89.8988,-140.443 89.274,-119.527"/>
<polygon fill="midnightblue" stroke="midnightblue" points="135.945,-231.363 146.125,-234.298 139.998,-225.655 135.945,-231.363"/>
</g>
<!-- Node7 -->
<g id="node7" class="node"><title>Node7</title>
<g id="a_node7"><a xlink:href="../../d1/d86/sample__document_8h.html" target="_top" xlink:title="src/operational/src\l/templatemethod/sample\l_document.h">
<polygon fill="white" stroke="black" points="265.5,-156.5 265.5,-197.5 389.5,-197.5 389.5,-156.5 265.5,-156.5"/>
<text text-anchor="start" x="273.5" y="-185.5" font-family="Helvetica,sans-Serif" font-size="10.00">src/operational/src</text>
<text text-anchor="start" x="273.5" y="-174.5" font-family="Helvetica,sans-Serif" font-size="10.00">/templatemethod/sample</text>
<text text-anchor="middle" x="327.5" y="-163.5" font-family="Helvetica,sans-Serif" font-size="10.00">_document.h</text>
</a>
</g>
</g>
<!-- Node1&#45;&gt;Node7 -->
<g id="edge7" class="edge"><title>Node1&#45;&gt;Node7</title>
<path fill="none" stroke="midnightblue" d="M228.733,-229.768C248.609,-219.35 271.53,-207.336 290.285,-197.506"/>
<polygon fill="midnightblue" stroke="midnightblue" points="227.073,-226.686 219.841,-234.428 230.323,-232.886 227.073,-226.686"/>
</g>
<!-- Node2&#45;&gt;Node3 -->
<g id="edge2" class="edge"><title>Node2&#45;&gt;Node3</title>
<path fill="none" stroke="midnightblue" d="M150.763,-150.065C138.518,-140.057 124.748,-128.804 113.369,-119.506"/>
<polygon fill="midnightblue" stroke="midnightblue" points="148.592,-152.81 158.55,-156.428 153.022,-147.39 148.592,-152.81"/>
</g>
<!-- Node6 -->
<g id="node6" class="node"><title>Node6</title>
<g id="a_node6"><a xlink:href="../../d1/d5b/template__application_8cc.html" target="_top" xlink:title="src/operational/src\l/templatemethod/template\l_application.cc">
<polygon fill="white" stroke="black" points="169.5,-78.5 169.5,-119.5 299.5,-119.5 299.5,-78.5 169.5,-78.5"/>
<text text-anchor="start" x="177.5" y="-107.5" font-family="Helvetica,sans-Serif" font-size="10.00">src/operational/src</text>
<text text-anchor="start" x="177.5" y="-96.5" font-family="Helvetica,sans-Serif" font-size="10.00">/templatemethod/template</text>
<text text-anchor="middle" x="234.5" y="-85.5" font-family="Helvetica,sans-Serif" font-size="10.00">_application.cc</text>
</a>
</g>
</g>
<!-- Node2&#45;&gt;Node6 -->
<g id="edge5" class="edge"><title>Node2&#45;&gt;Node6</title>
<path fill="none" stroke="midnightblue" d="M201.625,-148.048C208.113,-138.566 215.216,-128.185 221.154,-119.506"/>
<polygon fill="midnightblue" stroke="midnightblue" points="198.65,-146.199 195.891,-156.428 204.427,-150.151 198.65,-146.199"/>
</g>
<!-- Node4 -->
<g id="node4" class="node"><title>Node4</title>
<g id="a_node4"><a xlink:href="../../de/da9/sample__application_8cc.html" target="_top" xlink:title="src/operational/src\l/templatemethod/sample\l_application.cc">
<polygon fill="white" stroke="black" points="231.5,-0.5 231.5,-41.5 355.5,-41.5 355.5,-0.5 231.5,-0.5"/>
<text text-anchor="start" x="239.5" y="-29.5" font-family="Helvetica,sans-Serif" font-size="10.00">src/operational/src</text>
<text text-anchor="start" x="239.5" y="-18.5" font-family="Helvetica,sans-Serif" font-size="10.00">/templatemethod/sample</text>
<text text-anchor="middle" x="293.5" y="-7.5" font-family="Helvetica,sans-Serif" font-size="10.00">_application.cc</text>
</a>
</g>
</g>
<!-- Node3&#45;&gt;Node4 -->
<g id="edge3" class="edge"><title>Node3&#45;&gt;Node4</title>
<path fill="none" stroke="midnightblue" d="M151.539,-74.8874C180.177,-64.2185 213.806,-51.6901 241.143,-41.5056"/>
<polygon fill="midnightblue" stroke="midnightblue" points="150.184,-71.6572 142.035,-78.4281 152.628,-78.2167 150.184,-71.6572"/>
</g>
<!-- Node5 -->
<g id="node5" class="node"><title>Node5</title>
<g id="a_node5"><a xlink:href="../../d3/d94/templatemethod__test_8cc.html" target="_top" xlink:title="src/operational_tests\l/src/templatemethod/templatemethod\l_test.cc">
<polygon fill="white" stroke="black" points="0,-0.5 0,-41.5 179,-41.5 179,-0.5 0,-0.5"/>
<text text-anchor="start" x="8" y="-29.5" font-family="Helvetica,sans-Serif" font-size="10.00">src/operational_tests</text>
<text text-anchor="start" x="8" y="-18.5" font-family="Helvetica,sans-Serif" font-size="10.00">/src/templatemethod/templatemethod</text>
<text text-anchor="middle" x="89.5" y="-7.5" font-family="Helvetica,sans-Serif" font-size="10.00">_test.cc</text>
</a>
</g>
</g>
<!-- Node3&#45;&gt;Node5 -->
<g id="edge4" class="edge"><title>Node3&#45;&gt;Node5</title>
<path fill="none" stroke="midnightblue" d="M89.5,-68.2965C89.5,-59.3009 89.5,-49.6532 89.5,-41.5056"/>
<polygon fill="midnightblue" stroke="midnightblue" points="86.0001,-68.4281 89.5,-78.4281 93.0001,-68.4281 86.0001,-68.4281"/>
</g>
<!-- Node7&#45;&gt;Node4 -->
<g id="edge8" class="edge"><title>Node7&#45;&gt;Node4</title>
<path fill="none" stroke="midnightblue" d="M322.302,-146.295C318.753,-126.804 313.757,-100.798 308.5,-78 305.696,-65.8385 302.089,-52.3198 299.115,-41.612"/>
<polygon fill="midnightblue" stroke="midnightblue" points="318.902,-147.168 324.117,-156.391 325.792,-145.93 318.902,-147.168"/>
</g>
<!-- Node8 -->
<g id="node8" class="node"><title>Node8</title>
<g id="a_node8"><a xlink:href="../../d3/d46/sample__document_8cc.html" target="_top" xlink:title="src/operational/src\l/templatemethod/sample\l_document.cc">
<polygon fill="white" stroke="black" points="355.5,-78.5 355.5,-119.5 479.5,-119.5 479.5,-78.5 355.5,-78.5"/>
<text text-anchor="start" x="363.5" y="-107.5" font-family="Helvetica,sans-Serif" font-size="10.00">src/operational/src</text>
<text text-anchor="start" x="363.5" y="-96.5" font-family="Helvetica,sans-Serif" font-size="10.00">/templatemethod/sample</text>
<text text-anchor="middle" x="417.5" y="-85.5" font-family="Helvetica,sans-Serif" font-size="10.00">_document.cc</text>
</a>
</g>
</g>
<!-- Node7&#45;&gt;Node8 -->
<g id="edge9" class="edge"><title>Node7&#45;&gt;Node8</title>
<path fill="none" stroke="midnightblue" d="M358.552,-149.779C370.317,-139.843 383.494,-128.716 394.401,-119.506"/>
<polygon fill="midnightblue" stroke="midnightblue" points="356.059,-147.302 350.677,-156.428 360.576,-152.65 356.059,-147.302"/>
</g>
</g>
</svg>
