<?xml version="1.0" encoding="UTF-8" standalone="no"?>
<!DOCTYPE svg PUBLIC "-//W3C//DTD SVG 1.1//EN"
 "http://www.w3.org/Graphics/SVG/1.1/DTD/svg11.dtd">
<!-- Generated by graphviz version 2.38.0 (20140413.2041)
 -->
<!-- Title: src/operational/src/visitor/equipment_visitor_interface.h Pages: 1 -->
<svg width="449pt" height="106pt"
 viewBox="0.00 0.00 448.50 106.00" xmlns="http://www.w3.org/2000/svg" xmlns:xlink="http://www.w3.org/1999/xlink">
<g id="graph0" class="graph" transform="scale(1 1) rotate(0) translate(4 102)">
<title>src/operational/src/visitor/equipment_visitor_interface.h</title>
<polygon fill="white" stroke="none" points="-4,4 -4,-102 444.5,-102 444.5,4 -4,4"/>
<!-- Node1 -->
<g id="node1" class="node"><title>Node1</title>
<polygon fill="#bfbfbf" stroke="black" points="172,-56.5 172,-97.5 294,-97.5 294,-56.5 172,-56.5"/>
<text text-anchor="start" x="180" y="-85.5" font-family="Helvetica,sans-Serif" font-size="10.00">src/operational/src</text>
<text text-anchor="start" x="180" y="-74.5" font-family="Helvetica,sans-Serif" font-size="10.00">/visitor/equipment_visitor</text>
<text text-anchor="middle" x="233" y="-63.5" font-family="Helvetica,sans-Serif" font-size="10.00">_interface.h</text>
</g>
<!-- Node2 -->
<g id="node2" class="node"><title>Node2</title>
<g id="a_node2"><a xlink:href="../../d0/db8/floppy__disk__interface_8h.html" target="_top" xlink:title="floppy_disk_interface.h">
<polygon fill="white" stroke="black" points="0,-0.5 0,-19.5 116,-19.5 116,-0.5 0,-0.5"/>
<text text-anchor="middle" x="58" y="-7.5" font-family="Helvetica,sans-Serif" font-size="10.00">floppy_disk_interface.h</text>
</a>
</g>
</g>
<!-- Node1&#45;&gt;Node2 -->
<g id="edge1" class="edge"><title>Node1&#45;&gt;Node2</title>
<path fill="none" stroke="midnightblue" d="M180.494,-56.4979C151.342,-45.6697 115.984,-32.5369 90.7643,-23.1696"/>
<polygon fill="midnightblue" stroke="midnightblue" points="91.8881,-19.8534 81.2952,-19.6525 89.4508,-26.4154 91.8881,-19.8534"/>
</g>
<!-- Node3 -->
<g id="node3" class="node"><title>Node3</title>
<g id="a_node3"><a xlink:href="../../d1/d04/card__interface_8h.html" target="_top" xlink:title="card_interface.h">
<polygon fill="white" stroke="black" points="134,-0.5 134,-19.5 220,-19.5 220,-0.5 134,-0.5"/>
<text text-anchor="middle" x="177" y="-7.5" font-family="Helvetica,sans-Serif" font-size="10.00">card_interface.h</text>
</a>
</g>
</g>
<!-- Node1&#45;&gt;Node3 -->
<g id="edge2" class="edge"><title>Node1&#45;&gt;Node3</title>
<path fill="none" stroke="midnightblue" d="M216.198,-56.4979C208.19,-47.2029 198.719,-36.2097 191.093,-27.3579"/>
<polygon fill="midnightblue" stroke="midnightblue" points="193.633,-24.9441 184.454,-19.6525 188.33,-29.5131 193.633,-24.9441"/>
</g>
<!-- Node4 -->
<g id="node4" class="node"><title>Node4</title>
<g id="a_node4"><a xlink:href="../../d4/d2b/chassis__interface_8h.html" target="_top" xlink:title="chassis_interface.h">
<polygon fill="white" stroke="black" points="238.5,-0.5 238.5,-19.5 339.5,-19.5 339.5,-0.5 238.5,-0.5"/>
<text text-anchor="middle" x="289" y="-7.5" font-family="Helvetica,sans-Serif" font-size="10.00">chassis_interface.h</text>
</a>
</g>
</g>
<!-- Node1&#45;&gt;Node4 -->
<g id="edge3" class="edge"><title>Node1&#45;&gt;Node4</title>
<path fill="none" stroke="midnightblue" d="M249.802,-56.4979C257.81,-47.2029 267.281,-36.2097 274.907,-27.3579"/>
<polygon fill="midnightblue" stroke="midnightblue" points="277.67,-29.5131 281.546,-19.6525 272.367,-24.9441 277.67,-29.5131"/>
</g>
<!-- Node5 -->
<g id="node5" class="node"><title>Node5</title>
<g id="a_node5"><a xlink:href="../../db/d88/bus__interface_8h.html" target="_top" xlink:title="bus_interface.h">
<polygon fill="white" stroke="black" points="357.5,-0.5 357.5,-19.5 440.5,-19.5 440.5,-0.5 357.5,-0.5"/>
<text text-anchor="middle" x="399" y="-7.5" font-family="Helvetica,sans-Serif" font-size="10.00">bus_interface.h</text>
</a>
</g>
</g>
<!-- Node1&#45;&gt;Node5 -->
<g id="edge4" class="edge"><title>Node1&#45;&gt;Node5</title>
<path fill="none" stroke="midnightblue" d="M282.805,-56.4979C310.214,-45.7655 343.405,-32.7691 367.283,-23.4192"/>
<polygon fill="midnightblue" stroke="midnightblue" points="368.867,-26.5577 376.903,-19.6525 366.315,-20.0396 368.867,-26.5577"/>
</g>
</g>
</svg>
