<?xml version="1.0" encoding="UTF-8" standalone="no"?>
<!DOCTYPE svg PUBLIC "-//W3C//DTD SVG 1.1//EN"
 "http://www.w3.org/Graphics/SVG/1.1/DTD/svg11.dtd">
<!-- Generated by graphviz version 2.38.0 (20140413.2041)
 -->
<!-- Title: src/operational/src/mediator/mediator_widget.h Pages: 1 -->
<svg width="507pt" height="262pt"
 viewBox="0.00 0.00 507.00 262.00" xmlns="http://www.w3.org/2000/svg" xmlns:xlink="http://www.w3.org/1999/xlink">
<g id="graph0" class="graph" transform="scale(1 1) rotate(0) translate(4 258)">
<title>src/operational/src/mediator/mediator_widget.h</title>
<polygon fill="white" stroke="none" points="-4,4 -4,-258 503,-258 503,4 -4,4"/>
<!-- Node1 -->
<g id="node1" class="node"><title>Node1</title>
<polygon fill="#bfbfbf" stroke="black" points="198.5,-223.5 198.5,-253.5 337.5,-253.5 337.5,-223.5 198.5,-223.5"/>
<text text-anchor="start" x="206.5" y="-241.5" font-family="Helvetica,sans-Serif" font-size="10.00">src/operational/src</text>
<text text-anchor="middle" x="268" y="-230.5" font-family="Helvetica,sans-Serif" font-size="10.00">/mediator/mediator_widget.h</text>
</g>
<!-- Node2 -->
<g id="node2" class="node"><title>Node2</title>
<g id="a_node2"><a xlink:href="../../de/db6/entry__field_8h.html" target="_top" xlink:title="src/operational/src\l/mediator/entry_field.h">
<polygon fill="white" stroke="black" points="67.5,-156.5 67.5,-186.5 180.5,-186.5 180.5,-156.5 67.5,-156.5"/>
<text text-anchor="start" x="75.5" y="-174.5" font-family="Helvetica,sans-Serif" font-size="10.00">src/operational/src</text>
<text text-anchor="middle" x="124" y="-163.5" font-family="Helvetica,sans-Serif" font-size="10.00">/mediator/entry_field.h</text>
</a>
</g>
</g>
<!-- Node1&#45;&gt;Node2 -->
<g id="edge1" class="edge"><title>Node1&#45;&gt;Node2</title>
<path fill="none" stroke="midnightblue" d="M227.611,-219.269C204.675,-208.916 176.4,-196.153 155.185,-186.577"/>
<polygon fill="midnightblue" stroke="midnightblue" points="226.2,-222.472 236.754,-223.396 229.08,-216.092 226.2,-222.472"/>
</g>
<!-- Node7 -->
<g id="node7" class="node"><title>Node7</title>
<g id="a_node7"><a xlink:href="../../d0/dc7/mediator__button_8h.html" target="_top" xlink:title="src/operational/src\l/mediator/mediator_button.h">
<polygon fill="white" stroke="black" points="199,-156.5 199,-186.5 337,-186.5 337,-156.5 199,-156.5"/>
<text text-anchor="start" x="207" y="-174.5" font-family="Helvetica,sans-Serif" font-size="10.00">src/operational/src</text>
<text text-anchor="middle" x="268" y="-163.5" font-family="Helvetica,sans-Serif" font-size="10.00">/mediator/mediator_button.h</text>
</a>
</g>
</g>
<!-- Node1&#45;&gt;Node7 -->
<g id="edge6" class="edge"><title>Node1&#45;&gt;Node7</title>
<path fill="none" stroke="midnightblue" d="M268,-213.108C268,-204.154 268,-194.323 268,-186.577"/>
<polygon fill="midnightblue" stroke="midnightblue" points="264.5,-213.396 268,-223.396 271.5,-213.396 264.5,-213.396"/>
</g>
<!-- Node9 -->
<g id="node9" class="node"><title>Node9</title>
<g id="a_node9"><a xlink:href="../../de/d42/mediator__widget_8cc.html" target="_top" xlink:title="src/operational/src\l/mediator/mediator_widget.cc">
<polygon fill="white" stroke="black" points="355,-156.5 355,-186.5 499,-186.5 499,-156.5 355,-156.5"/>
<text text-anchor="start" x="363" y="-174.5" font-family="Helvetica,sans-Serif" font-size="10.00">src/operational/src</text>
<text text-anchor="middle" x="427" y="-163.5" font-family="Helvetica,sans-Serif" font-size="10.00">/mediator/mediator_widget.cc</text>
</a>
</g>
</g>
<!-- Node1&#45;&gt;Node9 -->
<g id="edge9" class="edge"><title>Node1&#45;&gt;Node9</title>
<path fill="none" stroke="midnightblue" d="M311.923,-219.544C337.366,-209.143 368.933,-196.238 392.567,-186.577"/>
<polygon fill="midnightblue" stroke="midnightblue" points="310.433,-216.372 302.501,-223.396 313.081,-222.852 310.433,-216.372"/>
</g>
<!-- Node3 -->
<g id="node3" class="node"><title>Node3</title>
<g id="a_node3"><a xlink:href="../../dd/d7d/entry__field_8cc.html" target="_top" xlink:title="src/operational/src\l/mediator/entry_field.cc">
<polygon fill="white" stroke="black" points="0,-84 0,-114 118,-114 118,-84 0,-84"/>
<text text-anchor="start" x="8" y="-102" font-family="Helvetica,sans-Serif" font-size="10.00">src/operational/src</text>
<text text-anchor="middle" x="59" y="-91" font-family="Helvetica,sans-Serif" font-size="10.00">/mediator/entry_field.cc</text>
</a>
</g>
</g>
<!-- Node2&#45;&gt;Node3 -->
<g id="edge2" class="edge"><title>Node2&#45;&gt;Node3</title>
<path fill="none" stroke="midnightblue" d="M104.052,-148.864C93.6798,-137.614 81.2923,-124.179 72.1342,-114.246"/>
<polygon fill="midnightblue" stroke="midnightblue" points="101.495,-151.254 110.846,-156.233 106.641,-146.509 101.495,-151.254"/>
</g>
<!-- Node4 -->
<g id="node4" class="node"><title>Node4</title>
<g id="a_node4"><a xlink:href="../../d6/d4a/font__dialog__director_8h.html" target="_top" xlink:title="src/operational/src\l/mediator/font_dialog\l_director.h">
<polygon fill="white" stroke="black" points="136.5,-78.5 136.5,-119.5 243.5,-119.5 243.5,-78.5 136.5,-78.5"/>
<text text-anchor="start" x="144.5" y="-107.5" font-family="Helvetica,sans-Serif" font-size="10.00">src/operational/src</text>
<text text-anchor="start" x="144.5" y="-96.5" font-family="Helvetica,sans-Serif" font-size="10.00">/mediator/font_dialog</text>
<text text-anchor="middle" x="190" y="-85.5" font-family="Helvetica,sans-Serif" font-size="10.00">_director.h</text>
</a>
</g>
</g>
<!-- Node2&#45;&gt;Node4 -->
<g id="edge3" class="edge"><title>Node2&#45;&gt;Node4</title>
<path fill="none" stroke="midnightblue" d="M144.295,-148.821C153.027,-139.494 163.159,-128.671 171.662,-119.588"/>
<polygon fill="midnightblue" stroke="midnightblue" points="141.635,-146.541 137.356,-156.233 146.745,-151.325 141.635,-146.541"/>
</g>
<!-- Node5 -->
<g id="node5" class="node"><title>Node5</title>
<g id="a_node5"><a xlink:href="../../d6/d8a/font__dialog__director_8cc.html" target="_top" xlink:title="src/operational/src\l/mediator/font_dialog\l_director.cc">
<polygon fill="white" stroke="black" points="71.5,-0.5 71.5,-41.5 178.5,-41.5 178.5,-0.5 71.5,-0.5"/>
<text text-anchor="start" x="79.5" y="-29.5" font-family="Helvetica,sans-Serif" font-size="10.00">src/operational/src</text>
<text text-anchor="start" x="79.5" y="-18.5" font-family="Helvetica,sans-Serif" font-size="10.00">/mediator/font_dialog</text>
<text text-anchor="middle" x="125" y="-7.5" font-family="Helvetica,sans-Serif" font-size="10.00">_director.cc</text>
</a>
</g>
</g>
<!-- Node4&#45;&gt;Node5 -->
<g id="edge4" class="edge"><title>Node4&#45;&gt;Node5</title>
<path fill="none" stroke="midnightblue" d="M166.589,-70.627C158.347,-60.9901 149.257,-50.3617 141.682,-41.5056"/>
<polygon fill="midnightblue" stroke="midnightblue" points="164.101,-73.1034 173.261,-78.4281 169.421,-68.5536 164.101,-73.1034"/>
</g>
<!-- Node6 -->
<g id="node6" class="node"><title>Node6</title>
<g id="a_node6"><a xlink:href="../../da/d87/mediator__test_8cc.html" target="_top" xlink:title="src/operational_tests\l/src/mediator/mediator\l_test.cc">
<polygon fill="white" stroke="black" points="197,-0.5 197,-41.5 311,-41.5 311,-0.5 197,-0.5"/>
<text text-anchor="start" x="205" y="-29.5" font-family="Helvetica,sans-Serif" font-size="10.00">src/operational_tests</text>
<text text-anchor="start" x="205" y="-18.5" font-family="Helvetica,sans-Serif" font-size="10.00">/src/mediator/mediator</text>
<text text-anchor="middle" x="254" y="-7.5" font-family="Helvetica,sans-Serif" font-size="10.00">_test.cc</text>
</a>
</g>
</g>
<!-- Node4&#45;&gt;Node6 -->
<g id="edge5" class="edge"><title>Node4&#45;&gt;Node6</title>
<path fill="none" stroke="midnightblue" d="M213.051,-70.627C221.166,-60.9901 230.117,-50.3617 237.574,-41.5056"/>
<polygon fill="midnightblue" stroke="midnightblue" points="210.246,-68.5245 206.482,-78.4281 215.6,-73.0335 210.246,-68.5245"/>
</g>
<!-- Node7&#45;&gt;Node4 -->
<g id="edge7" class="edge"><title>Node7&#45;&gt;Node4</title>
<path fill="none" stroke="midnightblue" d="M244.632,-149.379C234.175,-139.928 221.922,-128.852 211.672,-119.588"/>
<polygon fill="midnightblue" stroke="midnightblue" points="242.45,-152.124 252.216,-156.233 247.144,-146.931 242.45,-152.124"/>
</g>
<!-- Node8 -->
<g id="node8" class="node"><title>Node8</title>
<g id="a_node8"><a xlink:href="../../d5/d42/mediator__button_8cc.html" target="_top" xlink:title="src/operational/src\l/mediator/mediator_button.cc">
<polygon fill="white" stroke="black" points="261.5,-84 261.5,-114 404.5,-114 404.5,-84 261.5,-84"/>
<text text-anchor="start" x="269.5" y="-102" font-family="Helvetica,sans-Serif" font-size="10.00">src/operational/src</text>
<text text-anchor="middle" x="333" y="-91" font-family="Helvetica,sans-Serif" font-size="10.00">/mediator/mediator_button.cc</text>
</a>
</g>
</g>
<!-- Node7&#45;&gt;Node8 -->
<g id="edge8" class="edge"><title>Node7&#45;&gt;Node8</title>
<path fill="none" stroke="midnightblue" d="M287.948,-148.864C298.32,-137.614 310.708,-124.179 319.866,-114.246"/>
<polygon fill="midnightblue" stroke="midnightblue" points="285.359,-146.509 281.154,-156.233 290.505,-151.254 285.359,-146.509"/>
</g>
</g>
</svg>
