<?xml version="1.0" encoding="UTF-8" standalone="no"?>
<!DOCTYPE svg PUBLIC "-//W3C//DTD SVG 1.1//EN"
 "http://www.w3.org/Graphics/SVG/1.1/DTD/svg11.dtd">
<!-- Generated by graphviz version 2.38.0 (20140413.2041)
 -->
<!-- Title: structural::bridge::IconWindow::DrawText Pages: 1 -->
<svg width="295pt" height="137pt"
 viewBox="0.00 0.00 295.00 137.00" xmlns="http://www.w3.org/2000/svg" xmlns:xlink="http://www.w3.org/1999/xlink">
<g id="graph0" class="graph" transform="scale(1 1) rotate(0) translate(4 133)">
<title>structural::bridge::IconWindow::DrawText</title>
<polygon fill="white" stroke="none" points="-4,4 -4,-133 291,-133 291,4 -4,4"/>
<!-- Node1 -->
<g id="node1" class="node"><title>Node1</title>
<polygon fill="#bfbfbf" stroke="black" points="0,-49.5 0,-79.5 122,-79.5 122,-49.5 0,-49.5"/>
<text text-anchor="start" x="8" y="-67.5" font-family="Helvetica,sans-Serif" font-size="10.00">structural::bridge</text>
<text text-anchor="middle" x="61" y="-56.5" font-family="Helvetica,sans-Serif" font-size="10.00">::IconWindow::DrawText</text>
</g>
<!-- Node2 -->
<g id="node2" class="node"><title>Node2</title>
<g id="a_node2"><a xlink:href="../../d5/d3d/classstructural_1_1bridge_1_1_window.html#a9ca2cea738469604f17b00631f45e208" target="_top" xlink:title="structural::bridge\l::Window::GetWindowImp">
<polygon fill="white" stroke="black" points="158,-98.5 158,-128.5 287,-128.5 287,-98.5 158,-98.5"/>
<text text-anchor="start" x="166" y="-116.5" font-family="Helvetica,sans-Serif" font-size="10.00">structural::bridge</text>
<text text-anchor="middle" x="222.5" y="-105.5" font-family="Helvetica,sans-Serif" font-size="10.00">::Window::GetWindowImp</text>
</a>
</g>
</g>
<!-- Node1&#45;&gt;Node2 -->
<g id="edge1" class="edge"><title>Node1&#45;&gt;Node2</title>
<path fill="none" stroke="midnightblue" d="M111.157,-79.6014C127.455,-84.6083 145.762,-90.2324 162.71,-95.439"/>
<polygon fill="midnightblue" stroke="midnightblue" points="161.919,-98.8574 172.506,-98.4484 163.974,-92.166 161.919,-98.8574"/>
</g>
<!-- Node3 -->
<g id="node3" class="node"><title>Node3</title>
<g id="a_node3"><a xlink:href="../../d2/db2/classstructural_1_1commons_1_1_point.html#a6c757dd2cc06d5db764471dd47e90176" target="_top" xlink:title="structural::commons\l::Point::x">
<polygon fill="white" stroke="black" points="169.5,-49.5 169.5,-79.5 275.5,-79.5 275.5,-49.5 169.5,-49.5"/>
<text text-anchor="start" x="177.5" y="-67.5" font-family="Helvetica,sans-Serif" font-size="10.00">structural::commons</text>
<text text-anchor="middle" x="222.5" y="-56.5" font-family="Helvetica,sans-Serif" font-size="10.00">::Point::x</text>
</a>
</g>
</g>
<!-- Node1&#45;&gt;Node3 -->
<g id="edge2" class="edge"><title>Node1&#45;&gt;Node3</title>
<path fill="none" stroke="midnightblue" d="M122.3,-64.5C134.43,-64.5 147.199,-64.5 159.39,-64.5"/>
<polygon fill="midnightblue" stroke="midnightblue" points="159.467,-68.0001 169.467,-64.5 159.467,-61.0001 159.467,-68.0001"/>
</g>
<!-- Node4 -->
<g id="node4" class="node"><title>Node4</title>
<g id="a_node4"><a xlink:href="../../d2/db2/classstructural_1_1commons_1_1_point.html#a879eaf11e2edad52cc239c75da03bf74" target="_top" xlink:title="structural::commons\l::Point::y">
<polygon fill="white" stroke="black" points="169.5,-0.5 169.5,-30.5 275.5,-30.5 275.5,-0.5 169.5,-0.5"/>
<text text-anchor="start" x="177.5" y="-18.5" font-family="Helvetica,sans-Serif" font-size="10.00">structural::commons</text>
<text text-anchor="middle" x="222.5" y="-7.5" font-family="Helvetica,sans-Serif" font-size="10.00">::Point::y</text>
</a>
</g>
</g>
<!-- Node1&#45;&gt;Node4 -->
<g id="edge3" class="edge"><title>Node1&#45;&gt;Node4</title>
<path fill="none" stroke="midnightblue" d="M111.157,-49.3986C127.455,-44.3917 145.762,-38.7676 162.71,-33.561"/>
<polygon fill="midnightblue" stroke="midnightblue" points="163.974,-36.834 172.506,-30.5516 161.919,-30.1426 163.974,-36.834"/>
</g>
</g>
</svg>
