<?xml version="1.0" encoding="UTF-8" standalone="no"?>
<!DOCTYPE svg PUBLIC "-//W3C//DTD SVG 1.1//EN"
 "http://www.w3.org/Graphics/SVG/1.1/DTD/svg11.dtd">
<!-- Generated by graphviz version 2.38.0 (20140413.2041)
 -->
<!-- Title: structural::bridge::IconWindow::DrawIcon Pages: 1 -->
<svg width="294pt" height="137pt"
 viewBox="0.00 0.00 294.00 137.00" xmlns="http://www.w3.org/2000/svg" xmlns:xlink="http://www.w3.org/1999/xlink">
<g id="graph0" class="graph" transform="scale(1 1) rotate(0) translate(4 133)">
<title>structural::bridge::IconWindow::DrawIcon</title>
<polygon fill="white" stroke="none" points="-4,4 -4,-133 290,-133 290,4 -4,4"/>
<!-- Node1 -->
<g id="node1" class="node"><title>Node1</title>
<polygon fill="#bfbfbf" stroke="black" points="0,-49.5 0,-79.5 121,-79.5 121,-49.5 0,-49.5"/>
<text text-anchor="start" x="8" y="-67.5" font-family="Helvetica,sans-Serif" font-size="10.00">structural::bridge</text>
<text text-anchor="middle" x="60.5" y="-56.5" font-family="Helvetica,sans-Serif" font-size="10.00">::IconWindow::DrawIcon</text>
</g>
<!-- Node2 -->
<g id="node2" class="node"><title>Node2</title>
<g id="a_node2"><a xlink:href="../../d5/d3d/classstructural_1_1bridge_1_1_window.html#a9ca2cea738469604f17b00631f45e208" target="_top" xlink:title="structural::bridge\l::Window::GetWindowImp">
<polygon fill="white" stroke="black" points="157,-98.5 157,-128.5 286,-128.5 286,-98.5 157,-98.5"/>
<text text-anchor="start" x="165" y="-116.5" font-family="Helvetica,sans-Serif" font-size="10.00">structural::bridge</text>
<text text-anchor="middle" x="221.5" y="-105.5" font-family="Helvetica,sans-Serif" font-size="10.00">::Window::GetWindowImp</text>
</a>
</g>
</g>
<!-- Node1&#45;&gt;Node2 -->
<g id="edge1" class="edge"><title>Node1&#45;&gt;Node2</title>
<path fill="none" stroke="midnightblue" d="M110.503,-79.6014C126.749,-84.6083 144.999,-90.2324 161.894,-95.439"/>
<polygon fill="midnightblue" stroke="midnightblue" points="161.072,-98.848 171.659,-98.4484 163.133,-92.1585 161.072,-98.848"/>
</g>
<!-- Node3 -->
<g id="node3" class="node"><title>Node3</title>
<g id="a_node3"><a xlink:href="../../d6/dce/classstructural_1_1bridge_1_1_bitmap.html#a2c3ccc1cde9be0e30ec6ac859d4d6893" target="_top" xlink:title="structural::bridge\l::Bitmap::width">
<polygon fill="white" stroke="black" points="177,-49.5 177,-79.5 266,-79.5 266,-49.5 177,-49.5"/>
<text text-anchor="start" x="185" y="-67.5" font-family="Helvetica,sans-Serif" font-size="10.00">structural::bridge</text>
<text text-anchor="middle" x="221.5" y="-56.5" font-family="Helvetica,sans-Serif" font-size="10.00">::Bitmap::width</text>
</a>
</g>
</g>
<!-- Node1&#45;&gt;Node3 -->
<g id="edge2" class="edge"><title>Node1&#45;&gt;Node3</title>
<path fill="none" stroke="midnightblue" d="M121.158,-64.5C136.049,-64.5 151.932,-64.5 166.53,-64.5"/>
<polygon fill="midnightblue" stroke="midnightblue" points="166.9,-68.0001 176.9,-64.5 166.9,-61.0001 166.9,-68.0001"/>
</g>
<!-- Node4 -->
<g id="node4" class="node"><title>Node4</title>
<g id="a_node4"><a xlink:href="../../d6/dce/classstructural_1_1bridge_1_1_bitmap.html#ada43e526c7d48deace85f02eb9f9ef8c" target="_top" xlink:title="structural::bridge\l::Bitmap::height">
<polygon fill="white" stroke="black" points="177,-0.5 177,-30.5 266,-30.5 266,-0.5 177,-0.5"/>
<text text-anchor="start" x="185" y="-18.5" font-family="Helvetica,sans-Serif" font-size="10.00">structural::bridge</text>
<text text-anchor="middle" x="221.5" y="-7.5" font-family="Helvetica,sans-Serif" font-size="10.00">::Bitmap::height</text>
</a>
</g>
</g>
<!-- Node1&#45;&gt;Node4 -->
<g id="edge3" class="edge"><title>Node1&#45;&gt;Node4</title>
<path fill="none" stroke="midnightblue" d="M110.503,-49.3986C128.447,-43.8686 148.834,-37.5857 167.141,-31.9441"/>
<polygon fill="midnightblue" stroke="midnightblue" points="168.257,-35.2624 176.783,-28.9725 166.196,-28.5729 168.257,-35.2624"/>
</g>
</g>
</svg>
