<?xml version="1.0" encoding="UTF-8" standalone="no"?>
<!DOCTYPE svg PUBLIC "-//W3C//DTD SVG 1.1//EN"
 "http://www.w3.org/Graphics/SVG/1.1/DTD/svg11.dtd">
<!-- Generated by graphviz version 2.38.0 (20140413.2041)
 -->
<!-- Title: src/operational/src/state/tcp_connection.cc Pages: 1 -->
<svg width="367pt" height="263pt"
 viewBox="0.00 0.00 367.00 263.00" xmlns="http://www.w3.org/2000/svg" xmlns:xlink="http://www.w3.org/1999/xlink">
<g id="graph0" class="graph" transform="scale(1 1) rotate(0) translate(4 259)">
<title>src/operational/src/state/tcp_connection.cc</title>
<polygon fill="white" stroke="none" points="-4,4 -4,-259 363,-259 363,4 -4,4"/>
<!-- Node1 -->
<g id="node1" class="node"><title>Node1</title>
<polygon fill="#bfbfbf" stroke="black" points="114.5,-224.5 114.5,-254.5 238.5,-254.5 238.5,-224.5 114.5,-224.5"/>
<text text-anchor="start" x="122.5" y="-242.5" font-family="Helvetica,sans-Serif" font-size="10.00">src/operational/src</text>
<text text-anchor="middle" x="176.5" y="-231.5" font-family="Helvetica,sans-Serif" font-size="10.00">/state/tcp_connection.cc</text>
</g>
<!-- Node2 -->
<g id="node2" class="node"><title>Node2</title>
<g id="a_node2"><a xlink:href="../../d1/df0/tcp__connection_8h.html" target="_top" xlink:title="tcp_connection.h">
<polygon fill="white" stroke="black" points="49,-56.5 49,-75.5 140,-75.5 140,-56.5 49,-56.5"/>
<text text-anchor="middle" x="94.5" y="-63.5" font-family="Helvetica,sans-Serif" font-size="10.00">tcp_connection.h</text>
</a>
</g>
</g>
<!-- Node1&#45;&gt;Node2 -->
<g id="edge1" class="edge"><title>Node1&#45;&gt;Node2</title>
<path fill="none" stroke="midnightblue" d="M127.378,-224.284C109.739,-216.546 91.6982,-204.971 81.5,-188 62.1698,-155.833 75.9226,-110.052 86.1552,-85.0344"/>
<polygon fill="midnightblue" stroke="midnightblue" points="89.4428,-86.2507 90.2184,-75.6843 83.0228,-83.4608 89.4428,-86.2507"/>
</g>
<!-- Node5 -->
<g id="node5" class="node"><title>Node5</title>
<g id="a_node5"><a xlink:href="../../d5/d99/tcp__closed_8h.html" target="_top" xlink:title="tcp_closed.h">
<polygon fill="white" stroke="black" points="90.5,-168.5 90.5,-187.5 162.5,-187.5 162.5,-168.5 90.5,-168.5"/>
<text text-anchor="middle" x="126.5" y="-175.5" font-family="Helvetica,sans-Serif" font-size="10.00">tcp_closed.h</text>
</a>
</g>
</g>
<!-- Node1&#45;&gt;Node5 -->
<g id="edge4" class="edge"><title>Node1&#45;&gt;Node5</title>
<path fill="none" stroke="midnightblue" d="M164.651,-224.399C157.385,-215.753 148.048,-204.642 140.429,-195.576"/>
<polygon fill="midnightblue" stroke="midnightblue" points="142.888,-193.062 133.775,-187.658 137.529,-197.565 142.888,-193.062"/>
</g>
<!-- Node7 -->
<g id="node7" class="node"><title>Node7</title>
<g id="a_node7"><a xlink:href="../../d5/d08/tcp__established_8h.html" target="_top" xlink:title="tcp_established.h">
<polygon fill="white" stroke="black" points="181,-168.5 181,-187.5 274,-187.5 274,-168.5 181,-168.5"/>
<text text-anchor="middle" x="227.5" y="-175.5" font-family="Helvetica,sans-Serif" font-size="10.00">tcp_established.h</text>
</a>
</g>
</g>
<!-- Node1&#45;&gt;Node7 -->
<g id="edge7" class="edge"><title>Node1&#45;&gt;Node7</title>
<path fill="none" stroke="midnightblue" d="M188.586,-224.399C196.074,-215.664 205.718,-204.413 213.532,-195.296"/>
<polygon fill="midnightblue" stroke="midnightblue" points="216.229,-197.528 220.079,-187.658 210.914,-192.973 216.229,-197.528"/>
</g>
<!-- Node8 -->
<g id="node8" class="node"><title>Node8</title>
<g id="a_node8"><a xlink:href="../../dd/d7a/tcp__listen_8h.html" target="_top" xlink:title="tcp_listen.h">
<polygon fill="white" stroke="black" points="292,-168.5 292,-187.5 359,-187.5 359,-168.5 292,-168.5"/>
<text text-anchor="middle" x="325.5" y="-175.5" font-family="Helvetica,sans-Serif" font-size="10.00">tcp_listen.h</text>
</a>
</g>
</g>
<!-- Node1&#45;&gt;Node8 -->
<g id="edge9" class="edge"><title>Node1&#45;&gt;Node8</title>
<path fill="none" stroke="midnightblue" d="M211.811,-224.399C236.922,-214.372 270.337,-201.028 294.435,-191.405"/>
<polygon fill="midnightblue" stroke="midnightblue" points="295.83,-194.617 303.819,-187.658 293.234,-188.116 295.83,-194.617"/>
</g>
<!-- Node3 -->
<g id="node3" class="node"><title>Node3</title>
<g id="a_node3"><a xlink:href="../../df/d13/tcp__octet__stream_8h.html" target="_top" xlink:title="tcp_octet_stream.h">
<polygon fill="white" stroke="black" points="0,-0.5 0,-19.5 101,-19.5 101,-0.5 0,-0.5"/>
<text text-anchor="middle" x="50.5" y="-7.5" font-family="Helvetica,sans-Serif" font-size="10.00">tcp_octet_stream.h</text>
</a>
</g>
</g>
<!-- Node2&#45;&gt;Node3 -->
<g id="edge2" class="edge"><title>Node2&#45;&gt;Node3</title>
<path fill="none" stroke="midnightblue" d="M87.2343,-56.083C80.9552,-48.3768 71.7124,-37.0333 64.0692,-27.6531"/>
<polygon fill="midnightblue" stroke="midnightblue" points="66.6606,-25.2926 57.6305,-19.7511 61.2339,-29.7143 66.6606,-25.2926"/>
</g>
<!-- Node4 -->
<g id="node4" class="node"><title>Node4</title>
<polygon fill="white" stroke="#bfbfbf" points="119,-0.5 119,-19.5 160,-19.5 160,-0.5 119,-0.5"/>
<text text-anchor="middle" x="139.5" y="-7.5" font-family="Helvetica,sans-Serif" font-size="10.00">string</text>
</g>
<!-- Node2&#45;&gt;Node4 -->
<g id="edge3" class="edge"><title>Node2&#45;&gt;Node4</title>
<path fill="none" stroke="midnightblue" d="M101.931,-56.083C108.353,-48.3768 117.806,-37.0333 125.622,-27.6531"/>
<polygon fill="midnightblue" stroke="midnightblue" points="128.494,-29.674 132.207,-19.7511 123.117,-25.1927 128.494,-29.674"/>
</g>
<!-- Node6 -->
<g id="node6" class="node"><title>Node6</title>
<g id="a_node6"><a xlink:href="../../da/dcf/tcp__state_8h.html" target="_top" xlink:title="tcp_state.h">
<polygon fill="white" stroke="black" points="144,-112.5 144,-131.5 209,-131.5 209,-112.5 144,-112.5"/>
<text text-anchor="middle" x="176.5" y="-119.5" font-family="Helvetica,sans-Serif" font-size="10.00">tcp_state.h</text>
</a>
</g>
</g>
<!-- Node5&#45;&gt;Node6 -->
<g id="edge5" class="edge"><title>Node5&#45;&gt;Node6</title>
<path fill="none" stroke="midnightblue" d="M134.756,-168.083C141.965,-160.298 152.61,-148.801 161.346,-139.367"/>
<polygon fill="midnightblue" stroke="midnightblue" points="164.171,-141.467 168.397,-131.751 159.035,-136.711 164.171,-141.467"/>
</g>
<!-- Node6&#45;&gt;Node2 -->
<g id="edge6" class="edge"><title>Node6&#45;&gt;Node2</title>
<path fill="none" stroke="midnightblue" d="M163.325,-112.324C150.653,-103.979 131.267,-91.2122 116.294,-81.3524"/>
<polygon fill="midnightblue" stroke="midnightblue" points="117.919,-78.2313 107.642,-75.6545 114.069,-84.0776 117.919,-78.2313"/>
</g>
<!-- Node7&#45;&gt;Node6 -->
<g id="edge8" class="edge"><title>Node7&#45;&gt;Node6</title>
<path fill="none" stroke="midnightblue" d="M219.078,-168.083C211.652,-160.22 200.648,-148.569 191.688,-139.081"/>
<polygon fill="midnightblue" stroke="midnightblue" points="194.176,-136.618 184.765,-131.751 189.087,-141.424 194.176,-136.618"/>
</g>
<!-- Node8&#45;&gt;Node6 -->
<g id="edge10" class="edge"><title>Node8&#45;&gt;Node6</title>
<path fill="none" stroke="midnightblue" d="M301.891,-168.444C277.042,-159.438 237.726,-145.189 209.746,-135.049"/>
<polygon fill="midnightblue" stroke="midnightblue" points="210.593,-131.633 199.999,-131.516 208.208,-138.214 210.593,-131.633"/>
</g>
</g>
</svg>
