<?xml version="1.0" encoding="UTF-8" standalone="no"?>
<!DOCTYPE svg PUBLIC "-//W3C//DTD SVG 1.1//EN"
 "http://www.w3.org/Graphics/SVG/1.1/DTD/svg11.dtd">
<!-- Generated by graphviz version 2.38.0 (20140413.2041)
 -->
<!-- Title: operational::command::CommandDocument::name Pages: 1 -->
<svg width="317pt" height="50pt"
 viewBox="0.00 0.00 317.00 50.00" xmlns="http://www.w3.org/2000/svg" xmlns:xlink="http://www.w3.org/1999/xlink">
<g id="graph0" class="graph" transform="scale(1 1) rotate(0) translate(4 46)">
<title>operational::command::CommandDocument::name</title>
<polygon fill="white" stroke="none" points="-4,4 -4,-46 313,-46 313,4 -4,4"/>
<!-- Node1 -->
<g id="node1" class="node"><title>Node1</title>
<polygon fill="#bfbfbf" stroke="black" points="0,-6 0,-36 141,-36 141,-6 0,-6"/>
<text text-anchor="start" x="8" y="-24" font-family="Helvetica,sans-Serif" font-size="10.00">operational::command</text>
<text text-anchor="middle" x="70.5" y="-13" font-family="Helvetica,sans-Serif" font-size="10.00">::CommandDocument::name</text>
</g>
<!-- Node2 -->
<g id="node2" class="node"><title>Node2</title>
<g id="a_node2"><a xlink:href="../../da/da9/classoperational_1_1command_1_1_command_application.html#a1151ef5deafeb2fca21dbd580151c0fa" target="_top" xlink:title="operational::command\l::CommandApplication\l::GetCurrentDocumentTitle">
<polygon fill="white" stroke="black" points="177,-0.5 177,-41.5 309,-41.5 309,-0.5 177,-0.5"/>
<text text-anchor="start" x="185" y="-29.5" font-family="Helvetica,sans-Serif" font-size="10.00">operational::command</text>
<text text-anchor="start" x="185" y="-18.5" font-family="Helvetica,sans-Serif" font-size="10.00">::CommandApplication</text>
<text text-anchor="middle" x="243" y="-7.5" font-family="Helvetica,sans-Serif" font-size="10.00">::GetCurrentDocumentTitle</text>
</a>
</g>
</g>
<!-- Node1&#45;&gt;Node2 -->
<g id="edge1" class="edge"><title>Node1&#45;&gt;Node2</title>
<path fill="none" stroke="midnightblue" d="M151.348,-21C159.92,-21 168.564,-21 176.933,-21"/>
<polygon fill="midnightblue" stroke="midnightblue" points="151.341,-17.5001 141.341,-21 151.341,-24.5001 151.341,-17.5001"/>
</g>
</g>
</svg>
