<?xml version="1.0" encoding="UTF-8" standalone="no"?>
<!DOCTYPE svg PUBLIC "-//W3C//DTD SVG 1.1//EN"
 "http://www.w3.org/Graphics/SVG/1.1/DTD/svg11.dtd">
<!-- Generated by graphviz version 2.38.0 (20140413.2041)
 -->
<!-- Title: src/creational_tests/src/utils/validator.cc Pages: 1 -->
<!--zoomable 307 -->
<svg id="main" version="1.1" xmlns="http://www.w3.org/2000/svg" xmlns:xlink="http://www.w3.org/1999/xlink" xml:space="preserve" onload="init(evt)">
<style type="text/css"><![CDATA[
.edge:hover path { stroke: red; }
.edge:hover polygon { stroke: red; fill: red; }
]]></style>
<script type="text/javascript"><![CDATA[
var edges = document.getElementsByTagName('g');
if (edges && edges.length) {
  for (var i=0;i<edges.length;i++) {
    if (edges[i].id.substr(0,4)=='edge') {
      edges[i].setAttribute('class','edge');
    }
  }
}
]]></script>
        <defs>
                <circle id="rim" cx="0" cy="0" r="7"/>
                <circle id="rim2" cx="0" cy="0" r="3.5"/>
                <g id="zoomPlus">
                        <use xlink:href="#rim" fill="#404040">
                                <set attributeName="fill" to="#808080" begin="zoomplus.mouseover" end="zoomplus.mouseout"/>
                        </use>
                        <path d="M-4,0h8M0,-4v8" fill="none" stroke="white" stroke-width="1.5" pointer-events="none"/>
                </g>
                <g id="zoomMin">
                        <use xlink:href="#rim" fill="#404040">
                                <set attributeName="fill" to="#808080" begin="zoomminus.mouseover" end="zoomminus.mouseout"/>
                        </use>
                        <path d="M-4,0h8" fill="none" stroke="white" stroke-width="1.5" pointer-events="none"/>
                </g>
                <g id="dirArrow">
                        <path fill="none" stroke="white" stroke-width="1.5" d="M0,-3.0v7 M-2.5,-0.5L0,-3.0L2.5,-0.5"/>
                </g>
               <g id="resetDef">
                       <use xlink:href="#rim2" fill="#404040">
                               <set attributeName="fill" to="#808080" begin="reset.mouseover" end="reset.mouseout"/>
                       </use>
               </g>
        </defs>

<script type="text/javascript">
var viewWidth = 650;
var viewHeight = 307;
var sectionId = 'dynsection-0';
</script>
<script xlink:href="../../svgpan.js"/>
<svg id="graph" class="graph">
<g id="viewport">
<title>src/creational_tests/src/utils/validator.cc</title>
<polygon fill="white" stroke="none" points="-4,4 -4,-303 645.5,-303 645.5,4 -4,4"/>
<!-- Node1 -->
<g id="node1" class="node"><title>Node1</title>
<polygon fill="#bfbfbf" stroke="black" points="238,-268.5 238,-298.5 344,-298.5 344,-268.5 238,-268.5"/>
<text text-anchor="start" x="246" y="-286.5" font-family="Helvetica,sans-Serif" font-size="10.00">src/creational_tests</text>
<text text-anchor="middle" x="291" y="-275.5" font-family="Helvetica,sans-Serif" font-size="10.00">/src/utils/validator.cc</text>
</g>
<!-- Node2 -->
<g id="node2" class="node"><title>Node2</title>
<g id="a_node2"><a xlink:href="../../d2/da1/validator_8h.html" target="_top" xlink:title="validator.h">
<polygon fill="white" stroke="black" points="232,-201.5 232,-220.5 292,-220.5 292,-201.5 232,-201.5"/>
<text text-anchor="middle" x="262" y="-208.5" font-family="Helvetica,sans-Serif" font-size="10.00">validator.h</text>
</a>
</g>
</g>
<!-- Node1&#45;&gt;Node2 -->
<g id="edge1" class="edge"><title>Node1&#45;&gt;Node2</title>
<path fill="none" stroke="midnightblue" d="M285.131,-268.233C280.626,-257.279 274.371,-242.075 269.502,-230.238"/>
<polygon fill="midnightblue" stroke="midnightblue" points="272.699,-228.81 265.658,-220.893 266.226,-231.473 272.699,-228.81"/>
</g>
<!-- Node3 -->
<g id="node3" class="node"><title>Node3</title>
<g id="a_node3"><a xlink:href="../../dc/db8/maze_8h.html" target="_top" xlink:title="../../../creational\l/src/mazeparts/maze.h">
<polygon fill="white" stroke="black" points="128.5,-118 128.5,-148 245.5,-148 245.5,-118 128.5,-118"/>
<text text-anchor="start" x="136.5" y="-136" font-family="Helvetica,sans-Serif" font-size="10.00">../../../creational</text>
<text text-anchor="middle" x="187" y="-125" font-family="Helvetica,sans-Serif" font-size="10.00">/src/mazeparts/maze.h</text>
</a>
</g>
</g>
<!-- Node1&#45;&gt;Node3 -->
<g id="edge7" class="edge"><title>Node1&#45;&gt;Node3</title>
<path fill="none" stroke="midnightblue" d="M265.121,-268.348C251.006,-259.502 234.183,-246.957 223,-232 206.379,-209.771 196.762,-179.071 191.716,-157.988"/>
<polygon fill="midnightblue" stroke="midnightblue" points="195.129,-157.212 189.538,-148.212 188.297,-158.734 195.129,-157.212"/>
</g>
<!-- Node8 -->
<g id="node8" class="node"><title>Node8</title>
<g id="a_node8"><a xlink:href="../../d2/d59/door_8h.html" target="_top" xlink:title="../../../creational\l/src/mazeparts/door.h">
<polygon fill="white" stroke="black" points="264,-118 264,-148 376,-148 376,-118 264,-118"/>
<text text-anchor="start" x="272" y="-136" font-family="Helvetica,sans-Serif" font-size="10.00">../../../creational</text>
<text text-anchor="middle" x="320" y="-125" font-family="Helvetica,sans-Serif" font-size="10.00">/src/mazeparts/door.h</text>
</a>
</g>
</g>
<!-- Node1&#45;&gt;Node8 -->
<g id="edge8" class="edge"><title>Node1&#45;&gt;Node8</title>
<path fill="none" stroke="midnightblue" d="M293.817,-268.354C295.829,-258.231 298.594,-244.279 301,-232 305.921,-206.888 311.486,-178.142 315.315,-158.308"/>
<polygon fill="midnightblue" stroke="midnightblue" points="318.791,-158.768 317.249,-148.286 311.918,-157.442 318.791,-158.768"/>
</g>
<!-- Node9 -->
<g id="node9" class="node"><title>Node9</title>
<g id="a_node9"><a xlink:href="../../d1/d4f/wall_8h.html" target="_top" xlink:title="../../../creational\l/src/mazeparts/wall.h">
<polygon fill="white" stroke="black" points="0,-118 0,-148 110,-148 110,-118 0,-118"/>
<text text-anchor="start" x="8" y="-136" font-family="Helvetica,sans-Serif" font-size="10.00">../../../creational</text>
<text text-anchor="middle" x="55" y="-125" font-family="Helvetica,sans-Serif" font-size="10.00">/src/mazeparts/wall.h</text>
</a>
</g>
</g>
<!-- Node1&#45;&gt;Node9 -->
<g id="edge11" class="edge"><title>Node1&#45;&gt;Node9</title>
<path fill="none" stroke="midnightblue" d="M237.857,-279.144C173.452,-273.841 70.5921,-260.975 47,-232 30.1585,-211.316 36.8564,-179.372 44.6326,-157.619"/>
<polygon fill="midnightblue" stroke="midnightblue" points="47.9579,-158.725 48.3191,-148.136 41.4335,-156.189 47.9579,-158.725"/>
</g>
<!-- Node10 -->
<g id="node10" class="node"><title>Node10</title>
<g id="a_node10"><a xlink:href="../../d1/d47/door__needing__spell_8h.html" target="_top" xlink:title="../../../creational\l/src/mazeparts/door\l_needing_spell.h">
<polygon fill="white" stroke="black" points="348,-190.5 348,-231.5 452,-231.5 452,-190.5 348,-190.5"/>
<text text-anchor="start" x="356" y="-219.5" font-family="Helvetica,sans-Serif" font-size="10.00">../../../creational</text>
<text text-anchor="start" x="356" y="-208.5" font-family="Helvetica,sans-Serif" font-size="10.00">/src/mazeparts/door</text>
<text text-anchor="middle" x="400" y="-197.5" font-family="Helvetica,sans-Serif" font-size="10.00">_needing_spell.h</text>
</a>
</g>
</g>
<!-- Node1&#45;&gt;Node10 -->
<g id="edge13" class="edge"><title>Node1&#45;&gt;Node10</title>
<path fill="none" stroke="midnightblue" d="M312.796,-268.403C326.53,-259.52 344.661,-247.793 360.831,-237.334"/>
<polygon fill="midnightblue" stroke="midnightblue" points="363.077,-240.05 369.573,-231.68 359.275,-234.172 363.077,-240.05"/>
</g>
<!-- Node13 -->
<g id="node13" class="node"><title>Node13</title>
<g id="a_node13"><a xlink:href="../../dd/dee/bombed__wall_8h.html" target="_top" xlink:title="../../../creational\l/src/mazeparts/bombed\l_wall.h">
<polygon fill="white" stroke="black" points="56.5,-190.5 56.5,-231.5 175.5,-231.5 175.5,-190.5 56.5,-190.5"/>
<text text-anchor="start" x="64.5" y="-219.5" font-family="Helvetica,sans-Serif" font-size="10.00">../../../creational</text>
<text text-anchor="start" x="64.5" y="-208.5" font-family="Helvetica,sans-Serif" font-size="10.00">/src/mazeparts/bombed</text>
<text text-anchor="middle" x="116" y="-197.5" font-family="Helvetica,sans-Serif" font-size="10.00">_wall.h</text>
</a>
</g>
</g>
<!-- Node1&#45;&gt;Node13 -->
<g id="edge18" class="edge"><title>Node1&#45;&gt;Node13</title>
<path fill="none" stroke="midnightblue" d="M256.007,-268.403C232.541,-258.949 201.079,-246.275 173.925,-235.335"/>
<polygon fill="midnightblue" stroke="midnightblue" points="175.103,-232.037 164.519,-231.546 172.487,-238.53 175.103,-232.037"/>
</g>
<!-- Node14 -->
<g id="node14" class="node"><title>Node14</title>
<g id="a_node14"><a xlink:href="../../d7/de2/room__with__a__bomb_8h.html" target="_top" xlink:title="../../../creational\l/src/mazeparts/room\l_with_a_bomb.h">
<polygon fill="white" stroke="black" points="432.5,-112.5 432.5,-153.5 539.5,-153.5 539.5,-112.5 432.5,-112.5"/>
<text text-anchor="start" x="440.5" y="-141.5" font-family="Helvetica,sans-Serif" font-size="10.00">../../../creational</text>
<text text-anchor="start" x="440.5" y="-130.5" font-family="Helvetica,sans-Serif" font-size="10.00">/src/mazeparts/room</text>
<text text-anchor="middle" x="486" y="-119.5" font-family="Helvetica,sans-Serif" font-size="10.00">_with_a_bomb.h</text>
</a>
</g>
</g>
<!-- Node1&#45;&gt;Node14 -->
<g id="edge20" class="edge"><title>Node1&#45;&gt;Node14</title>
<path fill="none" stroke="midnightblue" d="M344.081,-280.122C381.703,-275.602 430.694,-263.511 461,-232 478.389,-213.92 484.155,-185.499 485.856,-163.91"/>
<polygon fill="midnightblue" stroke="midnightblue" points="489.366,-163.808 486.406,-153.635 482.376,-163.434 489.366,-163.808"/>
</g>
<!-- Node15 -->
<g id="node15" class="node"><title>Node15</title>
<g id="a_node15"><a xlink:href="../../d6/d36/enchanted__room_8h.html" target="_top" xlink:title="../../../creational\l/src/mazeparts/enchanted\l_room.h">
<polygon fill="white" stroke="black" points="508,-190.5 508,-231.5 638,-231.5 638,-190.5 508,-190.5"/>
<text text-anchor="start" x="516" y="-219.5" font-family="Helvetica,sans-Serif" font-size="10.00">../../../creational</text>
<text text-anchor="start" x="516" y="-208.5" font-family="Helvetica,sans-Serif" font-size="10.00">/src/mazeparts/enchanted</text>
<text text-anchor="middle" x="573" y="-197.5" font-family="Helvetica,sans-Serif" font-size="10.00">_room.h</text>
</a>
</g>
</g>
<!-- Node1&#45;&gt;Node15 -->
<g id="edge22" class="edge"><title>Node1&#45;&gt;Node15</title>
<path fill="none" stroke="midnightblue" d="M344.015,-269.375C384.984,-259.217 443.1,-244.774 494,-232 495.274,-231.68 496.559,-231.358 497.853,-231.032"/>
<polygon fill="midnightblue" stroke="midnightblue" points="499.065,-234.337 507.908,-228.502 497.356,-227.548 499.065,-234.337"/>
</g>
<!-- Node2&#45;&gt;Node3 -->
<g id="edge2" class="edge"><title>Node2&#45;&gt;Node3</title>
<path fill="none" stroke="midnightblue" d="M253.397,-201.282C242.453,-190.192 223.178,-170.661 208.206,-155.489"/>
<polygon fill="midnightblue" stroke="midnightblue" points="210.351,-152.679 200.835,-148.02 205.368,-157.596 210.351,-152.679"/>
</g>
<!-- Node4 -->
<g id="node4" class="node"><title>Node4</title>
<g id="a_node4"><a xlink:href="../../d9/dc0/room_8h.html" target="_top" xlink:title="room.h">
<polygon fill="white" stroke="black" points="380.5,-56.5 380.5,-75.5 427.5,-75.5 427.5,-56.5 380.5,-56.5"/>
<text text-anchor="middle" x="404" y="-63.5" font-family="Helvetica,sans-Serif" font-size="10.00">room.h</text>
</a>
</g>
</g>
<!-- Node3&#45;&gt;Node4 -->
<g id="edge3" class="edge"><title>Node3&#45;&gt;Node4</title>
<path fill="none" stroke="midnightblue" d="M233.819,-117.976C275.046,-105.627 334.064,-87.9486 370.658,-76.9871"/>
<polygon fill="midnightblue" stroke="midnightblue" points="371.777,-80.3058 380.352,-74.0835 369.768,-73.6002 371.777,-80.3058"/>
</g>
<!-- Node7 -->
<g id="node7" class="node"><title>Node7</title>
<polygon fill="white" stroke="#bfbfbf" points="169.5,-56.5 169.5,-75.5 204.5,-75.5 204.5,-56.5 169.5,-56.5"/>
<text text-anchor="middle" x="187" y="-63.5" font-family="Helvetica,sans-Serif" font-size="10.00">map</text>
</g>
<!-- Node3&#45;&gt;Node7 -->
<g id="edge6" class="edge"><title>Node3&#45;&gt;Node7</title>
<path fill="none" stroke="midnightblue" d="M187,-117.896C187,-108.564 187,-96.2143 187,-86.0173"/>
<polygon fill="midnightblue" stroke="midnightblue" points="190.5,-85.6945 187,-75.6945 183.5,-85.6946 190.5,-85.6945"/>
</g>
<!-- Node5 -->
<g id="node5" class="node"><title>Node5</title>
<g id="a_node5"><a xlink:href="../../db/d1a/map__site__interface_8h.html" target="_top" xlink:title="map_site_interface.h">
<polygon fill="white" stroke="black" points="252.5,-0.5 252.5,-19.5 359.5,-19.5 359.5,-0.5 252.5,-0.5"/>
<text text-anchor="middle" x="306" y="-7.5" font-family="Helvetica,sans-Serif" font-size="10.00">map_site_interface.h</text>
</a>
</g>
</g>
<!-- Node4&#45;&gt;Node5 -->
<g id="edge4" class="edge"><title>Node4&#45;&gt;Node5</title>
<path fill="none" stroke="midnightblue" d="M388.255,-56.324C372.681,-47.7428 348.623,-34.486 330.541,-24.5224"/>
<polygon fill="midnightblue" stroke="midnightblue" points="332.154,-21.4152 321.706,-19.6545 328.776,-27.546 332.154,-21.4152"/>
</g>
<!-- Node6 -->
<g id="node6" class="node"><title>Node6</title>
<g id="a_node6"><a xlink:href="../../dd/d04/direction_8h.html" target="_top" xlink:title="direction.h">
<polygon fill="white" stroke="black" points="378,-0.5 378,-19.5 440,-19.5 440,-0.5 378,-0.5"/>
<text text-anchor="middle" x="409" y="-7.5" font-family="Helvetica,sans-Serif" font-size="10.00">direction.h</text>
</a>
</g>
</g>
<!-- Node4&#45;&gt;Node6 -->
<g id="edge5" class="edge"><title>Node4&#45;&gt;Node6</title>
<path fill="none" stroke="midnightblue" d="M404.826,-56.083C405.481,-49.0059 406.42,-38.8611 407.242,-29.9865"/>
<polygon fill="midnightblue" stroke="midnightblue" points="410.753,-30.0312 408.19,-19.7511 403.783,-29.3858 410.753,-30.0312"/>
</g>
<!-- Node8&#45;&gt;Node4 -->
<g id="edge10" class="edge"><title>Node8&#45;&gt;Node4</title>
<path fill="none" stroke="midnightblue" d="M338.227,-117.896C351.973,-107.259 370.784,-92.7028 384.769,-81.8813"/>
<polygon fill="midnightblue" stroke="midnightblue" points="386.997,-84.5825 392.764,-75.6945 382.713,-79.0464 386.997,-84.5825"/>
</g>
<!-- Node8&#45;&gt;Node5 -->
<g id="edge9" class="edge"><title>Node8&#45;&gt;Node5</title>
<path fill="none" stroke="midnightblue" d="M318.339,-117.645C315.8,-95.7034 310.955,-53.8268 308.151,-29.5906"/>
<polygon fill="midnightblue" stroke="midnightblue" points="311.616,-29.0836 306.99,-19.5522 304.662,-29.8882 311.616,-29.0836"/>
</g>
<!-- Node9&#45;&gt;Node5 -->
<g id="edge12" class="edge"><title>Node9&#45;&gt;Node5</title>
<path fill="none" stroke="midnightblue" d="M70.9978,-117.814C90.6975,-100.989 125.768,-73.0778 160,-56 190.573,-40.7478 227.344,-29.4513 256.334,-21.9914"/>
<polygon fill="midnightblue" stroke="midnightblue" points="257.39,-25.3352 266.241,-19.5125 255.691,-18.5445 257.39,-25.3352"/>
</g>
<!-- Node10&#45;&gt;Node4 -->
<g id="edge15" class="edge"><title>Node10&#45;&gt;Node4</title>
<path fill="none" stroke="midnightblue" d="M400.548,-190.416C401.319,-162.841 402.716,-112.912 403.475,-85.7794"/>
<polygon fill="midnightblue" stroke="midnightblue" points="406.976,-85.7722 403.757,-75.6782 399.979,-85.5764 406.976,-85.7722"/>
</g>
<!-- Node10&#45;&gt;Node8 -->
<g id="edge14" class="edge"><title>Node10&#45;&gt;Node8</title>
<path fill="none" stroke="midnightblue" d="M379.398,-190.428C368.113,-179.708 354.111,-166.406 342.536,-155.409"/>
<polygon fill="midnightblue" stroke="midnightblue" points="344.635,-152.575 334.974,-148.225 339.813,-157.65 344.635,-152.575"/>
</g>
<!-- Node11 -->
<g id="node11" class="node"><title>Node11</title>
<g id="a_node11"><a xlink:href="../../d4/de3/spell_8h.html" target="_top" xlink:title="spell.h">
<polygon fill="white" stroke="black" points="596.5,-123.5 596.5,-142.5 641.5,-142.5 641.5,-123.5 596.5,-123.5"/>
<text text-anchor="middle" x="619" y="-130.5" font-family="Helvetica,sans-Serif" font-size="10.00">spell.h</text>
</a>
</g>
</g>
<!-- Node10&#45;&gt;Node11 -->
<g id="edge16" class="edge"><title>Node10&#45;&gt;Node11</title>
<path fill="none" stroke="midnightblue" d="M452.178,-191.893C493.861,-177.427 550.979,-157.605 586.406,-145.311"/>
<polygon fill="midnightblue" stroke="midnightblue" points="587.927,-148.488 596.227,-141.903 585.632,-141.875 587.927,-148.488"/>
</g>
<!-- Node12 -->
<g id="node12" class="node"><title>Node12</title>
<polygon fill="white" stroke="#bfbfbf" points="598.5,-56.5 598.5,-75.5 639.5,-75.5 639.5,-56.5 598.5,-56.5"/>
<text text-anchor="middle" x="619" y="-63.5" font-family="Helvetica,sans-Serif" font-size="10.00">string</text>
</g>
<!-- Node11&#45;&gt;Node12 -->
<g id="edge17" class="edge"><title>Node11&#45;&gt;Node12</title>
<path fill="none" stroke="midnightblue" d="M619,-123.234C619,-113.683 619,-98.1183 619,-85.7829"/>
<polygon fill="midnightblue" stroke="midnightblue" points="622.5,-85.6273 619,-75.6273 615.5,-85.6273 622.5,-85.6273"/>
</g>
<!-- Node13&#45;&gt;Node9 -->
<g id="edge19" class="edge"><title>Node13&#45;&gt;Node9</title>
<path fill="none" stroke="midnightblue" d="M100.291,-190.428C91.852,-179.914 81.4196,-166.916 72.6951,-156.046"/>
<polygon fill="midnightblue" stroke="midnightblue" points="75.4068,-153.833 66.4177,-148.225 69.9477,-158.215 75.4068,-153.833"/>
</g>
<!-- Node14&#45;&gt;Node4 -->
<g id="edge21" class="edge"><title>Node14&#45;&gt;Node4</title>
<path fill="none" stroke="midnightblue" d="M461.397,-112.498C449.067,-102.724 434.368,-91.0719 422.931,-82.0066"/>
<polygon fill="midnightblue" stroke="midnightblue" points="424.926,-79.1216 414.915,-75.6525 420.578,-84.6073 424.926,-79.1216"/>
</g>
<!-- Node15&#45;&gt;Node4 -->
<g id="edge23" class="edge"><title>Node15&#45;&gt;Node4</title>
<path fill="none" stroke="midnightblue" d="M573.352,-190.417C572.668,-168.499 568.177,-133.278 548,-112 519.215,-81.6447 470.298,-71.6503 437.572,-68.4265"/>
<polygon fill="midnightblue" stroke="midnightblue" points="437.816,-64.9348 427.562,-67.6004 437.241,-71.9111 437.816,-64.9348"/>
</g>
<!-- Node15&#45;&gt;Node11 -->
<g id="edge24" class="edge"><title>Node15&#45;&gt;Node11</title>
<path fill="none" stroke="midnightblue" d="M584.846,-190.428C592.167,-178.333 601.476,-162.952 608.526,-151.304"/>
<polygon fill="midnightblue" stroke="midnightblue" points="611.64,-152.919 613.824,-142.552 605.651,-149.295 611.64,-152.919"/>
</g>
</g>
</svg>
        <g id="navigator" transform="translate(0 0)" fill="#404254">
                <rect fill="#f2f5e9" fill-opacity="0.5" stroke="#606060" stroke-width=".5" x="0" y="0" width="60" height="60"/>
                <use id="zoomplus" xlink:href="#zoomPlus" x="17" y="9" onmousedown="handleZoom(evt,'in')"/>
                <use id="zoomminus" xlink:href="#zoomMin" x="42" y="9" onmousedown="handleZoom(evt,'out')"/>
                <use id="reset" xlink:href="#resetDef" x="30" y="36" onmousedown="handleReset()"/>
                <g id="arrowUp" xlink:href="#dirArrow" transform="translate(30 24)" onmousedown="handlePan(0,-1)">
                  <use xlink:href="#rim" fill="#404040">
                        <set attributeName="fill" to="#808080" begin="arrowUp.mouseover" end="arrowUp.mouseout"/>
                  </use>
                  <path fill="none" stroke="white" stroke-width="1.5" d="M0,-3.0v7 M-2.5,-0.5L0,-3.0L2.5,-0.5"/>
                </g>
                <g id="arrowRight" xlink:href="#dirArrow" transform="rotate(90) translate(36 -43)" onmousedown="handlePan(1,0)">
                  <use xlink:href="#rim" fill="#404040">
                        <set attributeName="fill" to="#808080" begin="arrowRight.mouseover" end="arrowRight.mouseout"/>
                  </use>
                  <path fill="none" stroke="white" stroke-width="1.5" d="M0,-3.0v7 M-2.5,-0.5L0,-3.0L2.5,-0.5"/>
                </g>
                <g id="arrowDown" xlink:href="#dirArrow" transform="rotate(180) translate(-30 -48)" onmousedown="handlePan(0,1)">
                  <use xlink:href="#rim" fill="#404040">
                        <set attributeName="fill" to="#808080" begin="arrowDown.mouseover" end="arrowDown.mouseout"/>
                  </use>
                  <path fill="none" stroke="white" stroke-width="1.5" d="M0,-3.0v7 M-2.5,-0.5L0,-3.0L2.5,-0.5"/>
                </g>
                <g id="arrowLeft" xlink:href="#dirArrow" transform="rotate(270) translate(-36 17)" onmousedown="handlePan(-1,0)">
                  <use xlink:href="#rim" fill="#404040">
                        <set attributeName="fill" to="#808080" begin="arrowLeft.mouseover" end="arrowLeft.mouseout"/>
                  </use>
                  <path fill="none" stroke="white" stroke-width="1.5" d="M0,-3.0v7 M-2.5,-0.5L0,-3.0L2.5,-0.5"/>
                </g>
        </g>
        <svg viewBox="0 0 15 15" width="100%" height="30px" preserveAspectRatio="xMaxYMin meet">
         <g id="arrow_out" transform="scale(0.3 0.3)">
          <a xlink:href="validator_8cc__incl_org.svg" target="_base">
           <rect id="button" ry="5" rx="5" y="6" x="6" height="38" width="38"
                fill="#f2f5e9" fill-opacity="0.5" stroke="#606060" stroke-width="1.0"/>
           <path id="arrow"
             d="M 11.500037,31.436501 C 11.940474,20.09759 22.043105,11.32322 32.158766,21.979434 L 37.068811,17.246167 C 37.068811,17.246167 37.088388,32 37.088388,32 L 22.160133,31.978069 C 22.160133,31.978069 26.997745,27.140456 26.997745,27.140456 C 18.528582,18.264221 13.291696,25.230495 11.500037,31.436501 z"
             style="fill:#404040;"/>
          </a>
         </g>
        </svg>
</svg>
