<?xml version="1.0" encoding="UTF-8" standalone="no"?>
<!DOCTYPE svg PUBLIC "-//W3C//DTD SVG 1.1//EN"
 "http://www.w3.org/Graphics/SVG/1.1/DTD/svg11.dtd">
<!-- Generated by graphviz version 2.38.0 (20140413.2041)
 -->
<!-- Title: structural::commons::Point::y Pages: 1 -->
<svg width="413pt" height="345pt"
 viewBox="0.00 0.00 413.00 344.50" xmlns="http://www.w3.org/2000/svg" xmlns:xlink="http://www.w3.org/1999/xlink">
<g id="graph0" class="graph" transform="scale(1 1) rotate(0) translate(4 340.5)">
<title>structural::commons::Point::y</title>
<polygon fill="white" stroke="none" points="-4,4 -4,-340.5 409,-340.5 409,4 -4,4"/>
<!-- Node1 -->
<g id="node1" class="node"><title>Node1</title>
<polygon fill="#bfbfbf" stroke="black" points="0,-147.5 0,-177.5 106,-177.5 106,-147.5 0,-147.5"/>
<text text-anchor="start" x="8" y="-165.5" font-family="Helvetica,sans-Serif" font-size="10.00">structural::commons</text>
<text text-anchor="middle" x="53" y="-154.5" font-family="Helvetica,sans-Serif" font-size="10.00">::Point::y</text>
</g>
<!-- Node2 -->
<g id="node2" class="node"><title>Node2</title>
<g id="a_node2"><a xlink:href="../../d0/dbf/classstructural_1_1bridge_1_1_application_window.html#af2f1e385e04f14d911f03355933e5bba" target="_top" xlink:title="structural::bridge\l::ApplicationWindow\l::DrawText">
<polygon fill="white" stroke="black" points="150.5,-295 150.5,-336 255.5,-336 255.5,-295 150.5,-295"/>
<text text-anchor="start" x="158.5" y="-324" font-family="Helvetica,sans-Serif" font-size="10.00">structural::bridge</text>
<text text-anchor="start" x="158.5" y="-313" font-family="Helvetica,sans-Serif" font-size="10.00">::ApplicationWindow</text>
<text text-anchor="middle" x="203" y="-302" font-family="Helvetica,sans-Serif" font-size="10.00">::DrawText</text>
</a>
</g>
</g>
<!-- Node1&#45;&gt;Node2 -->
<g id="edge1" class="edge"><title>Node1&#45;&gt;Node2</title>
<path fill="none" stroke="midnightblue" d="M66.5434,-186.658C81.513,-213.597 108.744,-257.105 142,-285.5 145.986,-288.903 150.424,-292.037 155.033,-294.89"/>
<polygon fill="midnightblue" stroke="midnightblue" points="69.4415,-184.66 61.5946,-177.541 63.2895,-188 69.4415,-184.66"/>
</g>
<!-- Node4 -->
<g id="node4" class="node"><title>Node4</title>
<g id="a_node4"><a xlink:href="../../dc/d25/classstructural_1_1bridge_1_1_icon_window.html#aa74e7f4698050ac6ba17b4152b0d451d" target="_top" xlink:title="structural::bridge\l::IconWindow::DrawText">
<polygon fill="white" stroke="black" points="142,-245.5 142,-275.5 264,-275.5 264,-245.5 142,-245.5"/>
<text text-anchor="start" x="150" y="-263.5" font-family="Helvetica,sans-Serif" font-size="10.00">structural::bridge</text>
<text text-anchor="middle" x="203" y="-252.5" font-family="Helvetica,sans-Serif" font-size="10.00">::IconWindow::DrawText</text>
</a>
</g>
</g>
<!-- Node1&#45;&gt;Node4 -->
<g id="edge3" class="edge"><title>Node1&#45;&gt;Node4</title>
<path fill="none" stroke="midnightblue" d="M76.2671,-184.712C93.1942,-200.69 117.648,-221.908 142,-236.5 147.485,-239.787 153.503,-242.8 159.543,-245.498"/>
<polygon fill="midnightblue" stroke="midnightblue" points="78.6851,-182.182 69.0468,-177.783 73.8379,-187.232 78.6851,-182.182"/>
</g>
<!-- Node5 -->
<g id="node5" class="node"><title>Node5</title>
<g id="a_node5"><a xlink:href="../../d5/d3d/classstructural_1_1bridge_1_1_window.html#a89fde0df83fd4640f0aebfcaabaf4f33" target="_top" xlink:title="structural::bridge\l::Window::DrawRect">
<polygon fill="white" stroke="black" points="150.5,-196.5 150.5,-226.5 255.5,-226.5 255.5,-196.5 150.5,-196.5"/>
<text text-anchor="start" x="158.5" y="-214.5" font-family="Helvetica,sans-Serif" font-size="10.00">structural::bridge</text>
<text text-anchor="middle" x="203" y="-203.5" font-family="Helvetica,sans-Serif" font-size="10.00">::Window::DrawRect</text>
</a>
</g>
</g>
<!-- Node1&#45;&gt;Node5 -->
<g id="edge4" class="edge"><title>Node1&#45;&gt;Node5</title>
<path fill="none" stroke="midnightblue" d="M109.15,-180.759C124.76,-185.927 141.569,-191.492 156.538,-196.448"/>
<polygon fill="midnightblue" stroke="midnightblue" points="110.206,-177.422 99.6125,-177.601 108.006,-184.067 110.206,-177.422"/>
</g>
<!-- Node6 -->
<g id="node6" class="node"><title>Node6</title>
<g id="a_node6"><a xlink:href="../../d2/db2/classstructural_1_1commons_1_1_point.html#ae7044d2f3cfc325b3eb193210e70695a" target="_top" xlink:title="structural::commons\l::Point::operator+=">
<polygon fill="white" stroke="black" points="150,-147.5 150,-177.5 256,-177.5 256,-147.5 150,-147.5"/>
<text text-anchor="start" x="158" y="-165.5" font-family="Helvetica,sans-Serif" font-size="10.00">structural::commons</text>
<text text-anchor="middle" x="203" y="-154.5" font-family="Helvetica,sans-Serif" font-size="10.00">::Point::operator+=</text>
</a>
</g>
</g>
<!-- Node1&#45;&gt;Node6 -->
<g id="edge5" class="edge"><title>Node1&#45;&gt;Node6</title>
<path fill="none" stroke="midnightblue" d="M116.29,-162.5C127.443,-162.5 138.96,-162.5 149.793,-162.5"/>
<polygon fill="midnightblue" stroke="midnightblue" points="116.179,-159 106.179,-162.5 116.179,-166 116.179,-159"/>
</g>
<!-- Node7 -->
<g id="node7" class="node"><title>Node7</title>
<g id="a_node7"><a xlink:href="../../d2/db2/classstructural_1_1commons_1_1_point.html#a5f54e4f921239bb57b5870b0f65924f9" target="_top" xlink:title="structural::commons\l::Point::operator&#45;=">
<polygon fill="white" stroke="black" points="150,-98.5 150,-128.5 256,-128.5 256,-98.5 150,-98.5"/>
<text text-anchor="start" x="158" y="-116.5" font-family="Helvetica,sans-Serif" font-size="10.00">structural::commons</text>
<text text-anchor="middle" x="203" y="-105.5" font-family="Helvetica,sans-Serif" font-size="10.00">::Point::operator&#45;=</text>
</a>
</g>
</g>
<!-- Node1&#45;&gt;Node7 -->
<g id="edge6" class="edge"><title>Node1&#45;&gt;Node7</title>
<path fill="none" stroke="midnightblue" d="M109.15,-144.241C124.76,-139.073 141.569,-133.508 156.538,-128.552"/>
<polygon fill="midnightblue" stroke="midnightblue" points="108.006,-140.933 99.6125,-147.399 110.206,-147.578 108.006,-140.933"/>
</g>
<!-- Node8 -->
<g id="node8" class="node"><title>Node8</title>
<g id="a_node8"><a xlink:href="../../dd/d5a/classstructural_1_1proxy_1_1_image.html#ae872452935d47a0df1a047290f66417d" target="_top" xlink:title="structural::proxy::\lImage::Draw">
<polygon fill="white" stroke="black" points="156.5,-49.5 156.5,-79.5 249.5,-79.5 249.5,-49.5 156.5,-49.5"/>
<text text-anchor="start" x="164.5" y="-67.5" font-family="Helvetica,sans-Serif" font-size="10.00">structural::proxy::</text>
<text text-anchor="middle" x="203" y="-56.5" font-family="Helvetica,sans-Serif" font-size="10.00">Image::Draw</text>
</a>
</g>
</g>
<!-- Node1&#45;&gt;Node8 -->
<g id="edge7" class="edge"><title>Node1&#45;&gt;Node8</title>
<path fill="none" stroke="midnightblue" d="M76.2671,-140.288C93.1942,-124.31 117.648,-103.092 142,-88.5 147.485,-85.213 153.503,-82.1999 159.543,-79.5017"/>
<polygon fill="midnightblue" stroke="midnightblue" points="73.8379,-137.768 69.0468,-147.217 78.6851,-142.818 73.8379,-137.768"/>
</g>
<!-- Node10 -->
<g id="node10" class="node"><title>Node10</title>
<g id="a_node10"><a xlink:href="../../d5/dab/namespacestructuraltests.html#a65330cc5c6b545d30d8ea81309a87506" target="_top" xlink:title="structuraltests::TEST\l_CLASS">
<polygon fill="white" stroke="black" points="148.5,-0.5 148.5,-30.5 257.5,-30.5 257.5,-0.5 148.5,-0.5"/>
<text text-anchor="start" x="156.5" y="-18.5" font-family="Helvetica,sans-Serif" font-size="10.00">structuraltests::TEST</text>
<text text-anchor="middle" x="203" y="-7.5" font-family="Helvetica,sans-Serif" font-size="10.00">_CLASS</text>
</a>
</g>
</g>
<!-- Node1&#45;&gt;Node10 -->
<g id="edge9" class="edge"><title>Node1&#45;&gt;Node10</title>
<path fill="none" stroke="midnightblue" d="M65.9305,-138.187C80.4727,-110.806 107.441,-66.607 142,-39.5 146.325,-36.1072 151.193,-33.1339 156.237,-30.5439"/>
<polygon fill="midnightblue" stroke="midnightblue" points="62.7982,-136.624 61.3129,-147.114 69.0158,-139.84 62.7982,-136.624"/>
</g>
<!-- Node3 -->
<g id="node3" class="node"><title>Node3</title>
<g id="a_node3"><a xlink:href="../../d0/dbf/classstructural_1_1bridge_1_1_application_window.html#a5f9643f30f1ffa5d253a36ff42ffeb40" target="_top" xlink:title="structural::bridge\l::ApplicationWindow\l::DrawTitle">
<polygon fill="white" stroke="black" points="300,-295 300,-336 405,-336 405,-295 300,-295"/>
<text text-anchor="start" x="308" y="-324" font-family="Helvetica,sans-Serif" font-size="10.00">structural::bridge</text>
<text text-anchor="start" x="308" y="-313" font-family="Helvetica,sans-Serif" font-size="10.00">::ApplicationWindow</text>
<text text-anchor="middle" x="352.5" y="-302" font-family="Helvetica,sans-Serif" font-size="10.00">::DrawTitle</text>
</a>
</g>
</g>
<!-- Node2&#45;&gt;Node3 -->
<g id="edge2" class="edge"><title>Node2&#45;&gt;Node3</title>
<path fill="none" stroke="midnightblue" d="M265.806,-315.5C277.082,-315.5 288.742,-315.5 299.691,-315.5"/>
<polygon fill="midnightblue" stroke="midnightblue" points="265.588,-312 255.588,-315.5 265.588,-319 265.588,-312"/>
</g>
<!-- Node9 -->
<g id="node9" class="node"><title>Node9</title>
<g id="a_node9"><a xlink:href="../../d9/d2c/classstructural_1_1proxy_1_1_image_proxy.html#a7105d5b869b5dbe266ee25a58211a701" target="_top" xlink:title="structural::proxy::\lImageProxy::Draw">
<polygon fill="white" stroke="black" points="304.5,-49.5 304.5,-79.5 400.5,-79.5 400.5,-49.5 304.5,-49.5"/>
<text text-anchor="start" x="312.5" y="-67.5" font-family="Helvetica,sans-Serif" font-size="10.00">structural::proxy::</text>
<text text-anchor="middle" x="352.5" y="-56.5" font-family="Helvetica,sans-Serif" font-size="10.00">ImageProxy::Draw</text>
</a>
</g>
</g>
<!-- Node8&#45;&gt;Node9 -->
<g id="edge8" class="edge"><title>Node8&#45;&gt;Node9</title>
<path fill="none" stroke="midnightblue" d="M260.26,-64.5C274.824,-64.5 290.354,-64.5 304.394,-64.5"/>
<polygon fill="midnightblue" stroke="midnightblue" points="259.861,-61.0001 249.861,-64.5 259.861,-68.0001 259.861,-61.0001"/>
</g>
</g>
</svg>
