<?xml version="1.0" encoding="UTF-8" standalone="no"?>
<!DOCTYPE svg PUBLIC "-//W3C//DTD SVG 1.1//EN"
 "http://www.w3.org/Graphics/SVG/1.1/DTD/svg11.dtd">
<!-- Generated by graphviz version 2.38.0 (20140413.2041)
 -->
<!-- Title: structural::composite::Currency::value Pages: 1 -->
<svg width="442pt" height="296pt"
 viewBox="0.00 0.00 442.00 296.00" xmlns="http://www.w3.org/2000/svg" xmlns:xlink="http://www.w3.org/1999/xlink">
<g id="graph0" class="graph" transform="scale(1 1) rotate(0) translate(4 292)">
<title>structural::composite::Currency::value</title>
<polygon fill="white" stroke="none" points="-4,4 -4,-292 438,-292 438,4 -4,4"/>
<!-- Node1 -->
<g id="node1" class="node"><title>Node1</title>
<polygon fill="#bfbfbf" stroke="black" points="0,-125.5 0,-155.5 108,-155.5 108,-125.5 0,-125.5"/>
<text text-anchor="start" x="8" y="-143.5" font-family="Helvetica,sans-Serif" font-size="10.00">structural::composite</text>
<text text-anchor="middle" x="54" y="-132.5" font-family="Helvetica,sans-Serif" font-size="10.00">::Currency::value</text>
</g>
<!-- Node2 -->
<g id="node2" class="node"><title>Node2</title>
<g id="a_node2"><a xlink:href="../../d7/d98/classstructural_1_1composite_1_1_card.html#a7fa3d1508b978b433e51801f238c0057" target="_top" xlink:title="structural::composite\l::Card::DiscountPrice">
<polygon fill="white" stroke="black" points="158,-257.5 158,-287.5 268,-287.5 268,-257.5 158,-257.5"/>
<text text-anchor="start" x="166" y="-275.5" font-family="Helvetica,sans-Serif" font-size="10.00">structural::composite</text>
<text text-anchor="middle" x="213" y="-264.5" font-family="Helvetica,sans-Serif" font-size="10.00">::Card::DiscountPrice</text>
</a>
</g>
</g>
<!-- Node1&#45;&gt;Node2 -->
<g id="edge1" class="edge"><title>Node1&#45;&gt;Node2</title>
<path fill="none" stroke="midnightblue" d="M69.0639,-164.243C84.5848,-188.559 111.695,-225.901 144,-248.5 148.821,-251.873 154.165,-254.816 159.675,-257.374"/>
<polygon fill="midnightblue" stroke="midnightblue" points="71.9521,-162.26 63.6961,-155.62 66.0094,-165.959 71.9521,-162.26"/>
</g>
<!-- Node3 -->
<g id="node3" class="node"><title>Node3</title>
<g id="a_node3"><a xlink:href="../../d5/d43/classstructural_1_1composite_1_1_floppy_disk.html#a6b03335156bf9b3c2cd07b0893bb58c6" target="_top" xlink:title="structural::composite\l::FloppyDisk::DiscountPrice">
<polygon fill="white" stroke="black" points="144,-208.5 144,-238.5 282,-238.5 282,-208.5 144,-208.5"/>
<text text-anchor="start" x="152" y="-226.5" font-family="Helvetica,sans-Serif" font-size="10.00">structural::composite</text>
<text text-anchor="middle" x="213" y="-215.5" font-family="Helvetica,sans-Serif" font-size="10.00">::FloppyDisk::DiscountPrice</text>
</a>
</g>
</g>
<!-- Node1&#45;&gt;Node3 -->
<g id="edge2" class="edge"><title>Node1&#45;&gt;Node3</title>
<path fill="none" stroke="midnightblue" d="M83.78,-161.635C100.741,-173.476 122.943,-187.938 144,-198.5 151.196,-202.109 159.043,-205.476 166.767,-208.497"/>
<polygon fill="midnightblue" stroke="midnightblue" points="85.6056,-158.64 75.4218,-155.717 81.5605,-164.353 85.6056,-158.64"/>
</g>
<!-- Node4 -->
<g id="node4" class="node"><title>Node4</title>
<g id="a_node4"><a xlink:href="../../d9/d95/classstructural_1_1composite_1_1_composite_equipment.html#a23cb569abec8ab608e2f10ee85cd261d" target="_top" xlink:title="structural::composite\l::CompositeEquipment\l::NetPrice">
<polygon fill="white" stroke="black" points="155,-148 155,-189 271,-189 271,-148 155,-148"/>
<text text-anchor="start" x="163" y="-177" font-family="Helvetica,sans-Serif" font-size="10.00">structural::composite</text>
<text text-anchor="start" x="163" y="-166" font-family="Helvetica,sans-Serif" font-size="10.00">::CompositeEquipment</text>
<text text-anchor="middle" x="213" y="-155" font-family="Helvetica,sans-Serif" font-size="10.00">::NetPrice</text>
</a>
</g>
</g>
<!-- Node1&#45;&gt;Node4 -->
<g id="edge3" class="edge"><title>Node1&#45;&gt;Node4</title>
<path fill="none" stroke="midnightblue" d="M118.192,-151.77C130.317,-153.932 142.948,-156.185 154.868,-158.311"/>
<polygon fill="midnightblue" stroke="midnightblue" points="118.612,-148.29 108.153,-149.98 117.383,-155.181 118.612,-148.29"/>
</g>
<!-- Node6 -->
<g id="node6" class="node"><title>Node6</title>
<g id="a_node6"><a xlink:href="../../d8/ded/namespacestructural_1_1composite.html#a1a5a1ebcf095b8dbdd5c5374a8840244" target="_top" xlink:title="structural::composite\l::operator==">
<polygon fill="white" stroke="black" points="159,-98.5 159,-128.5 267,-128.5 267,-98.5 159,-98.5"/>
<text text-anchor="start" x="167" y="-116.5" font-family="Helvetica,sans-Serif" font-size="10.00">structural::composite</text>
<text text-anchor="middle" x="213" y="-105.5" font-family="Helvetica,sans-Serif" font-size="10.00">::operator==</text>
</a>
</g>
</g>
<!-- Node1&#45;&gt;Node6 -->
<g id="edge5" class="edge"><title>Node1&#45;&gt;Node6</title>
<path fill="none" stroke="midnightblue" d="M118.304,-129.613C131.772,-127.297 145.861,-124.874 158.902,-122.632"/>
<polygon fill="midnightblue" stroke="midnightblue" points="117.415,-126.215 108.153,-131.359 118.602,-133.113 117.415,-126.215"/>
</g>
<!-- Node7 -->
<g id="node7" class="node"><title>Node7</title>
<g id="a_node7"><a xlink:href="../../d8/ded/namespacestructural_1_1composite.html#a5d86db5146a967ee3935766ef4254f34" target="_top" xlink:title="structural::composite\l::operator!=">
<polygon fill="white" stroke="black" points="159,-49.5 159,-79.5 267,-79.5 267,-49.5 159,-49.5"/>
<text text-anchor="start" x="167" y="-67.5" font-family="Helvetica,sans-Serif" font-size="10.00">structural::composite</text>
<text text-anchor="middle" x="213" y="-56.5" font-family="Helvetica,sans-Serif" font-size="10.00">::operator!=</text>
</a>
</g>
</g>
<!-- Node1&#45;&gt;Node7 -->
<g id="edge6" class="edge"><title>Node1&#45;&gt;Node7</title>
<path fill="none" stroke="midnightblue" d="M87.6968,-120.002C104.223,-110.1 124.798,-98.4538 144,-89.5 151.524,-85.9916 159.688,-82.6306 167.662,-79.5741"/>
<polygon fill="midnightblue" stroke="midnightblue" points="85.7029,-117.118 78.9669,-125.296 89.3324,-123.103 85.7029,-117.118"/>
</g>
<!-- Node8 -->
<g id="node8" class="node"><title>Node8</title>
<g id="a_node8"><a xlink:href="../../d1/db1/classstructural_1_1composite_1_1_currency.html#a20bb37ccd41bfaccf3b0f24e6aafaefc" target="_top" xlink:title="structural::composite\l::Currency::value">
<polygon fill="white" stroke="black" points="159,-0.5 159,-30.5 267,-30.5 267,-0.5 159,-0.5"/>
<text text-anchor="start" x="167" y="-18.5" font-family="Helvetica,sans-Serif" font-size="10.00">structural::composite</text>
<text text-anchor="middle" x="213" y="-7.5" font-family="Helvetica,sans-Serif" font-size="10.00">::Currency::value</text>
</a>
</g>
</g>
<!-- Node1&#45;&gt;Node8 -->
<g id="edge7" class="edge"><title>Node1&#45;&gt;Node8</title>
<path fill="none" stroke="midnightblue" d="M70.7917,-116.854C86.8532,-94.4283 113.645,-61.1743 144,-40.5 149.51,-36.7473 155.653,-33.4769 161.931,-30.65"/>
<polygon fill="midnightblue" stroke="midnightblue" points="67.8467,-114.958 64.9795,-125.158 73.5814,-118.972 67.8467,-114.958"/>
</g>
<!-- Node5 -->
<g id="node5" class="node"><title>Node5</title>
<g id="a_node5"><a xlink:href="../../d9/d95/classstructural_1_1composite_1_1_composite_equipment.html#aea75ec1af630bd834b67798d1e6f06d9" target="_top" xlink:title="structural::composite\l::CompositeEquipment\l::DiscountPrice">
<polygon fill="white" stroke="black" points="318,-148 318,-189 434,-189 434,-148 318,-148"/>
<text text-anchor="start" x="326" y="-177" font-family="Helvetica,sans-Serif" font-size="10.00">structural::composite</text>
<text text-anchor="start" x="326" y="-166" font-family="Helvetica,sans-Serif" font-size="10.00">::CompositeEquipment</text>
<text text-anchor="middle" x="376" y="-155" font-family="Helvetica,sans-Serif" font-size="10.00">::DiscountPrice</text>
</a>
</g>
</g>
<!-- Node4&#45;&gt;Node5 -->
<g id="edge4" class="edge"><title>Node4&#45;&gt;Node5</title>
<path fill="none" stroke="midnightblue" d="M281.329,-168.5C293.514,-168.5 306.113,-168.5 317.968,-168.5"/>
<polygon fill="midnightblue" stroke="midnightblue" points="281.216,-165 271.216,-168.5 281.216,-172 281.216,-165"/>
</g>
</g>
</svg>
