<?xml version="1.0" encoding="UTF-8" standalone="no"?>
<!DOCTYPE svg PUBLIC "-//W3C//DTD SVG 1.1//EN"
 "http://www.w3.org/Graphics/SVG/1.1/DTD/svg11.dtd">
<!-- Generated by graphviz version 2.38.0 (20140413.2041)
 -->
<!-- Title: operational::visitor::FloppyDisk Pages: 1 -->
<svg width="300pt" height="281pt"
 viewBox="0.00 0.00 300.00 281.00" xmlns="http://www.w3.org/2000/svg" xmlns:xlink="http://www.w3.org/1999/xlink">
<g id="graph0" class="graph" transform="scale(1 1) rotate(0) translate(4 277)">
<title>operational::visitor::FloppyDisk</title>
<polygon fill="white" stroke="none" points="-4,4 -4,-277 296,-277 296,4 -4,4"/>
<!-- Node1 -->
<g id="node1" class="node"><title>Node1</title>
<polygon fill="#bfbfbf" stroke="black" points="105,-0.5 105,-123.5 200,-123.5 200,-0.5 105,-0.5"/>
<text text-anchor="start" x="113" y="-111.5" font-family="Helvetica,sans-Serif" font-size="10.00">operational::visitor</text>
<text text-anchor="middle" x="152.5" y="-100.5" font-family="Helvetica,sans-Serif" font-size="10.00">::FloppyDisk</text>
<polyline fill="none" stroke="black" points="105,-93.5 200,-93.5 "/>
<text text-anchor="middle" x="152.5" y="-81.5" font-family="Helvetica,sans-Serif" font-size="10.00"> </text>
<polyline fill="none" stroke="black" points="105,-74.5 200,-74.5 "/>
<text text-anchor="start" x="113" y="-62.5" font-family="Helvetica,sans-Serif" font-size="10.00">+ FloppyDisk()</text>
<text text-anchor="start" x="113" y="-51.5" font-family="Helvetica,sans-Serif" font-size="10.00">+ name()</text>
<text text-anchor="start" x="113" y="-40.5" font-family="Helvetica,sans-Serif" font-size="10.00">+ price()</text>
<text text-anchor="start" x="113" y="-29.5" font-family="Helvetica,sans-Serif" font-size="10.00">+ price()</text>
<text text-anchor="start" x="113" y="-18.5" font-family="Helvetica,sans-Serif" font-size="10.00">+ GetBoxPrice()</text>
<text text-anchor="start" x="113" y="-7.5" font-family="Helvetica,sans-Serif" font-size="10.00">+ Accept()</text>
</g>
<!-- Node2 -->
<g id="node2" class="node"><title>Node2</title>
<g id="a_node2"><a xlink:href="../../d3/d47/classoperational_1_1visitor_1_1_visited_equipment_interface.html" target="_top" xlink:title="{operational::visitor\l::VisitedEquipmentInterface\n||+ ~VisitedEquipmentInterface()\l+ name()\l+ price()\l+ price()\l+ Accept()\l}">
<polygon fill="white" stroke="black" points="0,-160.5 0,-272.5 151,-272.5 151,-160.5 0,-160.5"/>
<text text-anchor="start" x="8" y="-260.5" font-family="Helvetica,sans-Serif" font-size="10.00">operational::visitor</text>
<text text-anchor="middle" x="75.5" y="-249.5" font-family="Helvetica,sans-Serif" font-size="10.00">::VisitedEquipmentInterface</text>
<polyline fill="none" stroke="black" points="0,-242.5 151,-242.5 "/>
<text text-anchor="middle" x="75.5" y="-230.5" font-family="Helvetica,sans-Serif" font-size="10.00"> </text>
<polyline fill="none" stroke="black" points="0,-223.5 151,-223.5 "/>
<text text-anchor="start" x="8" y="-211.5" font-family="Helvetica,sans-Serif" font-size="10.00">+ ~VisitedEquipmentInterface()</text>
<text text-anchor="start" x="8" y="-200.5" font-family="Helvetica,sans-Serif" font-size="10.00">+ name()</text>
<text text-anchor="start" x="8" y="-189.5" font-family="Helvetica,sans-Serif" font-size="10.00">+ price()</text>
<text text-anchor="start" x="8" y="-178.5" font-family="Helvetica,sans-Serif" font-size="10.00">+ price()</text>
<text text-anchor="start" x="8" y="-167.5" font-family="Helvetica,sans-Serif" font-size="10.00">+ Accept()</text>
</a>
</g>
</g>
<!-- Node2&#45;&gt;Node1 -->
<g id="edge1" class="edge"><title>Node2&#45;&gt;Node1</title>
<path fill="none" stroke="midnightblue" d="M107.883,-151.365C112.518,-142.185 117.274,-132.765 121.874,-123.655"/>
<polygon fill="none" stroke="midnightblue" points="104.682,-149.94 103.299,-160.444 110.93,-153.095 104.682,-149.94"/>
</g>
<!-- Node3 -->
<g id="node3" class="node"><title>Node3</title>
<g id="a_node3"><a xlink:href="../../df/d17/classoperational_1_1visitor_1_1_floppy_disk_interface.html" target="_top" xlink:title="{operational::visitor\l::FloppyDiskInterface\n||+ ~FloppyDiskInterface()\l+ GetBoxPrice()\l}">
<polygon fill="white" stroke="black" points="169,-177 169,-256 292,-256 292,-177 169,-177"/>
<text text-anchor="start" x="177" y="-244" font-family="Helvetica,sans-Serif" font-size="10.00">operational::visitor</text>
<text text-anchor="middle" x="230.5" y="-233" font-family="Helvetica,sans-Serif" font-size="10.00">::FloppyDiskInterface</text>
<polyline fill="none" stroke="black" points="169,-226 292,-226 "/>
<text text-anchor="middle" x="230.5" y="-214" font-family="Helvetica,sans-Serif" font-size="10.00"> </text>
<polyline fill="none" stroke="black" points="169,-207 292,-207 "/>
<text text-anchor="start" x="177" y="-195" font-family="Helvetica,sans-Serif" font-size="10.00">+ ~FloppyDiskInterface()</text>
<text text-anchor="start" x="177" y="-184" font-family="Helvetica,sans-Serif" font-size="10.00">+ GetBoxPrice()</text>
</a>
</g>
</g>
<!-- Node3&#45;&gt;Node1 -->
<g id="edge2" class="edge"><title>Node3&#45;&gt;Node1</title>
<path fill="none" stroke="midnightblue" d="M206.054,-167.705C198.928,-153.773 191.045,-138.361 183.568,-123.743"/>
<polygon fill="none" stroke="midnightblue" points="202.946,-169.314 210.615,-176.623 209.178,-166.126 202.946,-169.314"/>
</g>
</g>
</svg>
