<?xml version="1.0" encoding="UTF-8" standalone="no"?>
<!DOCTYPE svg PUBLIC "-//W3C//DTD SVG 1.1//EN"
 "http://www.w3.org/Graphics/SVG/1.1/DTD/svg11.dtd">
<!-- Generated by graphviz version 2.38.0 (20140413.2041)
 -->
<!-- Title: src/structural/src/flyweight/btree.h Pages: 1 -->
<svg width="927pt" height="396pt"
 viewBox="0.00 0.00 926.50 396.00" xmlns="http://www.w3.org/2000/svg" xmlns:xlink="http://www.w3.org/1999/xlink">
<g id="graph0" class="graph" transform="scale(1 1) rotate(0) translate(4 392)">
<title>src/structural/src/flyweight/btree.h</title>
<polygon fill="white" stroke="none" points="-4,4 -4,-392 922.5,-392 922.5,4 -4,4"/>
<!-- Node1 -->
<g id="node1" class="node"><title>Node1</title>
<polygon fill="#bfbfbf" stroke="black" points="456,-357.5 456,-387.5 546,-387.5 546,-357.5 456,-357.5"/>
<text text-anchor="start" x="464" y="-375.5" font-family="Helvetica,sans-Serif" font-size="10.00">src/structural/src</text>
<text text-anchor="middle" x="501" y="-364.5" font-family="Helvetica,sans-Serif" font-size="10.00">/flyweight/btree.h</text>
</g>
<!-- Node2 -->
<g id="node2" class="node"><title>Node2</title>
<g id="a_node2"><a xlink:href="../../d7/d88/btree_8cc.html" target="_top" xlink:title="src/structural/src\l/flyweight/btree.cc">
<polygon fill="white" stroke="black" points="388.5,-290.5 388.5,-320.5 483.5,-320.5 483.5,-290.5 388.5,-290.5"/>
<text text-anchor="start" x="396.5" y="-308.5" font-family="Helvetica,sans-Serif" font-size="10.00">src/structural/src</text>
<text text-anchor="middle" x="436" y="-297.5" font-family="Helvetica,sans-Serif" font-size="10.00">/flyweight/btree.cc</text>
</a>
</g>
</g>
<!-- Node1&#45;&gt;Node2 -->
<g id="edge1" class="edge"><title>Node1&#45;&gt;Node2</title>
<path fill="none" stroke="midnightblue" d="M479.811,-350.311C470.061,-340.561 458.759,-329.259 450.077,-320.577"/>
<polygon fill="midnightblue" stroke="midnightblue" points="477.35,-352.8 486.896,-357.396 482.3,-347.85 477.35,-352.8"/>
</g>
<!-- Node3 -->
<g id="node3" class="node"><title>Node3</title>
<g id="a_node3"><a xlink:href="../../d3/de4/glyph__context_8h.html" target="_top" xlink:title="src/structural/src\l/flyweight/glyph_context.h">
<polygon fill="white" stroke="black" points="501.5,-290.5 501.5,-320.5 630.5,-320.5 630.5,-290.5 501.5,-290.5"/>
<text text-anchor="start" x="509.5" y="-308.5" font-family="Helvetica,sans-Serif" font-size="10.00">src/structural/src</text>
<text text-anchor="middle" x="566" y="-297.5" font-family="Helvetica,sans-Serif" font-size="10.00">/flyweight/glyph_context.h</text>
</a>
</g>
</g>
<!-- Node1&#45;&gt;Node3 -->
<g id="edge2" class="edge"><title>Node1&#45;&gt;Node3</title>
<path fill="none" stroke="midnightblue" d="M522.189,-350.311C531.939,-340.561 543.241,-329.259 551.923,-320.577"/>
<polygon fill="midnightblue" stroke="midnightblue" points="519.7,-347.85 515.104,-357.396 524.65,-352.8 519.7,-347.85"/>
</g>
<!-- Node4 -->
<g id="node4" class="node"><title>Node4</title>
<g id="a_node4"><a xlink:href="../../df/d3c/glyph__interface_8h.html" target="_top" xlink:title="src/structural/src\l/flyweight/glyph_interface.h">
<polygon fill="white" stroke="black" points="268,-218 268,-248 402,-248 402,-218 268,-218"/>
<text text-anchor="start" x="276" y="-236" font-family="Helvetica,sans-Serif" font-size="10.00">src/structural/src</text>
<text text-anchor="middle" x="335" y="-225" font-family="Helvetica,sans-Serif" font-size="10.00">/flyweight/glyph_interface.h</text>
</a>
</g>
</g>
<!-- Node3&#45;&gt;Node4 -->
<g id="edge3" class="edge"><title>Node3&#45;&gt;Node4</title>
<path fill="none" stroke="midnightblue" d="M510.337,-287.512C470.832,-275.455 418.423,-259.46 381.222,-248.107"/>
<polygon fill="midnightblue" stroke="midnightblue" points="509.499,-290.916 520.086,-290.487 511.543,-284.221 509.499,-290.916"/>
</g>
<!-- Node9 -->
<g id="node9" class="node"><title>Node9</title>
<g id="a_node9"><a xlink:href="../../dd/d09/flyweight__test_8cc.html" target="_top" xlink:title="src/structural_tests\l/src/flyweight/flyweight\l_test.cc">
<polygon fill="white" stroke="black" points="358,-0.5 358,-41.5 472,-41.5 472,-0.5 358,-0.5"/>
<text text-anchor="start" x="366" y="-29.5" font-family="Helvetica,sans-Serif" font-size="10.00">src/structural_tests</text>
<text text-anchor="start" x="366" y="-18.5" font-family="Helvetica,sans-Serif" font-size="10.00">/src/flyweight/flyweight</text>
<text text-anchor="middle" x="415" y="-7.5" font-family="Helvetica,sans-Serif" font-size="10.00">_test.cc</text>
</a>
</g>
</g>
<!-- Node3&#45;&gt;Node9 -->
<g id="edge18" class="edge"><title>Node3&#45;&gt;Node9</title>
<path fill="none" stroke="midnightblue" d="M550.68,-281.31C545.722,-272.975 540.584,-263.325 537,-254 508.289,-179.303 544.035,-144.15 499,-78 488.643,-62.7874 472.651,-50.6331 457.389,-41.5876"/>
<polygon fill="midnightblue" stroke="midnightblue" points="547.868,-283.416 556.109,-290.074 553.819,-279.73 547.868,-283.416"/>
</g>
<!-- Node10 -->
<g id="node10" class="node"><title>Node10</title>
<g id="a_node10"><a xlink:href="../../dc/df8/column_8h.html" target="_top" xlink:title="src/structural/src\l/flyweight/column.h">
<polygon fill="white" stroke="black" points="385,-145.5 385,-175.5 485,-175.5 485,-145.5 385,-145.5"/>
<text text-anchor="start" x="393" y="-163.5" font-family="Helvetica,sans-Serif" font-size="10.00">src/structural/src</text>
<text text-anchor="middle" x="435" y="-152.5" font-family="Helvetica,sans-Serif" font-size="10.00">/flyweight/column.h</text>
</a>
</g>
</g>
<!-- Node3&#45;&gt;Node10 -->
<g id="edge15" class="edge"><title>Node3&#45;&gt;Node10</title>
<path fill="none" stroke="midnightblue" d="M538.064,-284.132C526.93,-275.421 514.333,-264.783 504,-254 479.742,-228.685 456.406,-194.755 444.066,-175.818"/>
<polygon fill="midnightblue" stroke="midnightblue" points="536.164,-287.086 546.231,-290.388 540.421,-281.529 536.164,-287.086"/>
</g>
<!-- Node14 -->
<g id="node14" class="node"><title>Node14</title>
<g id="a_node14"><a xlink:href="../../db/d77/glyph__context_8cc.html" target="_top" xlink:title="src/structural/src\l/flyweight/glyph_context.cc">
<polygon fill="white" stroke="black" points="546,-218 546,-248 680,-248 680,-218 546,-218"/>
<text text-anchor="start" x="554" y="-236" font-family="Helvetica,sans-Serif" font-size="10.00">src/structural/src</text>
<text text-anchor="middle" x="613" y="-225" font-family="Helvetica,sans-Serif" font-size="10.00">/flyweight/glyph_context.cc</text>
</a>
</g>
</g>
<!-- Node3&#45;&gt;Node14 -->
<g id="edge16" class="edge"><title>Node3&#45;&gt;Node14</title>
<path fill="none" stroke="midnightblue" d="M581.077,-281.885C588.439,-270.842 597.072,-257.892 603.503,-248.246"/>
<polygon fill="midnightblue" stroke="midnightblue" points="578.146,-279.971 575.511,-290.233 583.97,-283.854 578.146,-279.971"/>
</g>
<!-- Node15 -->
<g id="node15" class="node"><title>Node15</title>
<g id="a_node15"><a xlink:href="../../df/dde/btree__test_8cc.html" target="_top" xlink:title="src/structural_tests\l/src/flyweight/btree\l_test.cc">
<polygon fill="white" stroke="black" points="698.5,-212.5 698.5,-253.5 799.5,-253.5 799.5,-212.5 698.5,-212.5"/>
<text text-anchor="start" x="706.5" y="-241.5" font-family="Helvetica,sans-Serif" font-size="10.00">src/structural_tests</text>
<text text-anchor="start" x="706.5" y="-230.5" font-family="Helvetica,sans-Serif" font-size="10.00">/src/flyweight/btree</text>
<text text-anchor="middle" x="749" y="-219.5" font-family="Helvetica,sans-Serif" font-size="10.00">_test.cc</text>
</a>
</g>
</g>
<!-- Node3&#45;&gt;Node15 -->
<g id="edge17" class="edge"><title>Node3&#45;&gt;Node15</title>
<path fill="none" stroke="midnightblue" d="M611.946,-286.8C638.222,-276.677 671.226,-263.962 698.263,-253.546"/>
<polygon fill="midnightblue" stroke="midnightblue" points="610.666,-283.542 602.593,-290.403 613.183,-290.074 610.666,-283.542"/>
</g>
<!-- Node16 -->
<g id="node16" class="node"><title>Node16</title>
<g id="a_node16"><a xlink:href="../../df/d9f/glyph__context__test_8cc.html" target="_top" xlink:title="src/structural_tests\l/src/flyweight/glyph\l_context_test.cc">
<polygon fill="white" stroke="black" points="817.5,-212.5 817.5,-253.5 918.5,-253.5 918.5,-212.5 817.5,-212.5"/>
<text text-anchor="start" x="825.5" y="-241.5" font-family="Helvetica,sans-Serif" font-size="10.00">src/structural_tests</text>
<text text-anchor="start" x="825.5" y="-230.5" font-family="Helvetica,sans-Serif" font-size="10.00">/src/flyweight/glyph</text>
<text text-anchor="middle" x="868" y="-219.5" font-family="Helvetica,sans-Serif" font-size="10.00">_context_test.cc</text>
</a>
</g>
</g>
<!-- Node3&#45;&gt;Node16 -->
<g id="edge19" class="edge"><title>Node3&#45;&gt;Node16</title>
<path fill="none" stroke="midnightblue" d="M640.785,-291.402C689.127,-282.336 753.205,-269.194 809,-254 811.713,-253.261 814.484,-252.466 817.272,-251.634"/>
<polygon fill="midnightblue" stroke="midnightblue" points="639.909,-288.005 630.717,-293.274 641.188,-294.887 639.909,-288.005"/>
</g>
<!-- Node5 -->
<g id="node5" class="node"><title>Node5</title>
<g id="a_node5"><a xlink:href="../../dc/d26/character_8h.html" target="_top" xlink:title="src/structural/src\l/flyweight/character.h">
<polygon fill="white" stroke="black" points="254.5,-145.5 254.5,-175.5 363.5,-175.5 363.5,-145.5 254.5,-145.5"/>
<text text-anchor="start" x="262.5" y="-163.5" font-family="Helvetica,sans-Serif" font-size="10.00">src/structural/src</text>
<text text-anchor="middle" x="309" y="-152.5" font-family="Helvetica,sans-Serif" font-size="10.00">/flyweight/character.h</text>
</a>
</g>
</g>
<!-- Node4&#45;&gt;Node5 -->
<g id="edge4" class="edge"><title>Node4&#45;&gt;Node5</title>
<path fill="none" stroke="midnightblue" d="M326.173,-208.064C322.211,-197.321 317.67,-185.01 314.254,-175.746"/>
<polygon fill="midnightblue" stroke="midnightblue" points="322.995,-209.562 329.739,-217.733 329.562,-207.14 322.995,-209.562"/>
</g>
<!-- Node4&#45;&gt;Node10 -->
<g id="edge9" class="edge"><title>Node4&#45;&gt;Node10</title>
<path fill="none" stroke="midnightblue" d="M363.467,-211.931C379.976,-200.292 400.356,-185.924 415.135,-175.505"/>
<polygon fill="midnightblue" stroke="midnightblue" points="361.393,-209.111 355.236,-217.733 365.426,-214.832 361.393,-209.111"/>
</g>
<!-- Node12 -->
<g id="node12" class="node"><title>Node12</title>
<g id="a_node12"><a xlink:href="../../d4/d6d/row_8h.html" target="_top" xlink:title="src/structural/src\l/flyweight/row.h">
<polygon fill="white" stroke="black" points="126,-145.5 126,-175.5 216,-175.5 216,-145.5 126,-145.5"/>
<text text-anchor="start" x="134" y="-163.5" font-family="Helvetica,sans-Serif" font-size="10.00">src/structural/src</text>
<text text-anchor="middle" x="171" y="-152.5" font-family="Helvetica,sans-Serif" font-size="10.00">/flyweight/row.h</text>
</a>
</g>
</g>
<!-- Node4&#45;&gt;Node12 -->
<g id="edge12" class="edge"><title>Node4&#45;&gt;Node12</title>
<path fill="none" stroke="midnightblue" d="M292.763,-213.843C265.037,-201.924 229.308,-186.566 203.737,-175.573"/>
<polygon fill="midnightblue" stroke="midnightblue" points="291.637,-217.169 302.206,-217.903 294.401,-210.738 291.637,-217.169"/>
</g>
<!-- Node6 -->
<g id="node6" class="node"><title>Node6</title>
<g id="a_node6"><a xlink:href="../../db/d57/character_8cc.html" target="_top" xlink:title="src/structural/src\l/flyweight/character.cc">
<polygon fill="white" stroke="black" points="252,-78.5 252,-108.5 366,-108.5 366,-78.5 252,-78.5"/>
<text text-anchor="start" x="260" y="-96.5" font-family="Helvetica,sans-Serif" font-size="10.00">src/structural/src</text>
<text text-anchor="middle" x="309" y="-85.5" font-family="Helvetica,sans-Serif" font-size="10.00">/flyweight/character.cc</text>
</a>
</g>
</g>
<!-- Node5&#45;&gt;Node6 -->
<g id="edge5" class="edge"><title>Node5&#45;&gt;Node6</title>
<path fill="none" stroke="midnightblue" d="M309,-135.108C309,-126.154 309,-116.323 309,-108.577"/>
<polygon fill="midnightblue" stroke="midnightblue" points="305.5,-135.396 309,-145.396 312.5,-135.396 305.5,-135.396"/>
</g>
<!-- Node7 -->
<g id="node7" class="node"><title>Node7</title>
<g id="a_node7"><a xlink:href="../../da/dec/glyph__factory_8h.html" target="_top" xlink:title="src/structural/src\l/flyweight/glyph_factory.h">
<polygon fill="white" stroke="black" points="108,-78.5 108,-108.5 234,-108.5 234,-78.5 108,-78.5"/>
<text text-anchor="start" x="116" y="-96.5" font-family="Helvetica,sans-Serif" font-size="10.00">src/structural/src</text>
<text text-anchor="middle" x="171" y="-85.5" font-family="Helvetica,sans-Serif" font-size="10.00">/flyweight/glyph_factory.h</text>
</a>
</g>
</g>
<!-- Node5&#45;&gt;Node7 -->
<g id="edge6" class="edge"><title>Node5&#45;&gt;Node7</title>
<path fill="none" stroke="midnightblue" d="M270,-141.131C248.073,-130.802 221.126,-118.11 200.886,-108.577"/>
<polygon fill="midnightblue" stroke="midnightblue" points="268.518,-144.301 279.056,-145.396 271.501,-137.968 268.518,-144.301"/>
</g>
<!-- Node8 -->
<g id="node8" class="node"><title>Node8</title>
<g id="a_node8"><a xlink:href="../../d6/dbd/glyph__factory_8cc.html" target="_top" xlink:title="src/structural/src\l/flyweight/glyph_factory.cc">
<polygon fill="white" stroke="black" points="105.5,-6 105.5,-36 236.5,-36 236.5,-6 105.5,-6"/>
<text text-anchor="start" x="113.5" y="-24" font-family="Helvetica,sans-Serif" font-size="10.00">src/structural/src</text>
<text text-anchor="middle" x="171" y="-13" font-family="Helvetica,sans-Serif" font-size="10.00">/flyweight/glyph_factory.cc</text>
</a>
</g>
</g>
<!-- Node7&#45;&gt;Node8 -->
<g id="edge7" class="edge"><title>Node7&#45;&gt;Node8</title>
<path fill="none" stroke="midnightblue" d="M171,-68.2317C171,-57.5679 171,-45.4145 171,-36.2455"/>
<polygon fill="midnightblue" stroke="midnightblue" points="167.5,-68.2332 171,-78.2333 174.5,-68.2333 167.5,-68.2332"/>
</g>
<!-- Node7&#45;&gt;Node9 -->
<g id="edge8" class="edge"><title>Node7&#45;&gt;Node9</title>
<path fill="none" stroke="midnightblue" d="M229.598,-75.569C268.394,-64.3595 319.035,-49.7275 357.587,-38.5886"/>
<polygon fill="midnightblue" stroke="midnightblue" points="228.134,-72.3488 219.498,-78.4872 230.077,-79.0738 228.134,-72.3488"/>
</g>
<!-- Node10&#45;&gt;Node7 -->
<g id="edge11" class="edge"><title>Node10&#45;&gt;Node7</title>
<path fill="none" stroke="midnightblue" d="M374.994,-144.726C330.89,-133.867 271.337,-119.204 227.965,-108.526"/>
<polygon fill="midnightblue" stroke="midnightblue" points="374.175,-148.129 384.722,-147.121 375.849,-141.332 374.175,-148.129"/>
</g>
<!-- Node11 -->
<g id="node11" class="node"><title>Node11</title>
<g id="a_node11"><a xlink:href="../../de/de6/column_8cc.html" target="_top" xlink:title="src/structural/src\l/flyweight/column.cc">
<polygon fill="white" stroke="black" points="384.5,-78.5 384.5,-108.5 489.5,-108.5 489.5,-78.5 384.5,-78.5"/>
<text text-anchor="start" x="392.5" y="-96.5" font-family="Helvetica,sans-Serif" font-size="10.00">src/structural/src</text>
<text text-anchor="middle" x="437" y="-85.5" font-family="Helvetica,sans-Serif" font-size="10.00">/flyweight/column.cc</text>
</a>
</g>
</g>
<!-- Node10&#45;&gt;Node11 -->
<g id="edge10" class="edge"><title>Node10&#45;&gt;Node11</title>
<path fill="none" stroke="midnightblue" d="M435.751,-135.108C436.026,-126.154 436.329,-116.323 436.567,-108.577"/>
<polygon fill="midnightblue" stroke="midnightblue" points="432.243,-135.293 435.434,-145.396 439.24,-135.508 432.243,-135.293"/>
</g>
<!-- Node12&#45;&gt;Node7 -->
<g id="edge13" class="edge"><title>Node12&#45;&gt;Node7</title>
<path fill="none" stroke="midnightblue" d="M171,-135.108C171,-126.154 171,-116.323 171,-108.577"/>
<polygon fill="midnightblue" stroke="midnightblue" points="167.5,-135.396 171,-145.396 174.5,-135.396 167.5,-135.396"/>
</g>
<!-- Node13 -->
<g id="node13" class="node"><title>Node13</title>
<g id="a_node13"><a xlink:href="../../df/d78/row_8cc.html" target="_top" xlink:title="src/structural/src\l/flyweight/row.cc">
<polygon fill="white" stroke="black" points="0,-78.5 0,-108.5 90,-108.5 90,-78.5 0,-78.5"/>
<text text-anchor="start" x="8" y="-96.5" font-family="Helvetica,sans-Serif" font-size="10.00">src/structural/src</text>
<text text-anchor="middle" x="45" y="-85.5" font-family="Helvetica,sans-Serif" font-size="10.00">/flyweight/row.cc</text>
</a>
</g>
</g>
<!-- Node12&#45;&gt;Node13 -->
<g id="edge14" class="edge"><title>Node12&#45;&gt;Node13</title>
<path fill="none" stroke="midnightblue" d="M134.585,-140.714C114.713,-130.463 90.5201,-117.983 72.2868,-108.577"/>
<polygon fill="midnightblue" stroke="midnightblue" points="133.168,-143.922 143.66,-145.396 136.377,-137.701 133.168,-143.922"/>
</g>
</g>
</svg>
