<?xml version="1.0" encoding="UTF-8" standalone="no"?>
<!DOCTYPE svg PUBLIC "-//W3C//DTD SVG 1.1//EN"
 "http://www.w3.org/Graphics/SVG/1.1/DTD/svg11.dtd">
<!-- Generated by graphviz version 2.38.0 (20140413.2041)
 -->
<!-- Title: structural::flyweight::Row::SetFont Pages: 1 -->
<svg width="267pt" height="39pt"
 viewBox="0.00 0.00 267.00 39.00" xmlns="http://www.w3.org/2000/svg" xmlns:xlink="http://www.w3.org/1999/xlink">
<g id="graph0" class="graph" transform="scale(1 1) rotate(0) translate(4 35)">
<title>structural::flyweight::Row::SetFont</title>
<polygon fill="white" stroke="none" points="-4,4 -4,-35 263,-35 263,4 -4,4"/>
<!-- Node1 -->
<g id="node1" class="node"><title>Node1</title>
<polygon fill="#bfbfbf" stroke="black" points="0,-0.5 0,-30.5 101,-30.5 101,-0.5 0,-0.5"/>
<text text-anchor="start" x="8" y="-18.5" font-family="Helvetica,sans-Serif" font-size="10.00">structural::flyweight</text>
<text text-anchor="middle" x="50.5" y="-7.5" font-family="Helvetica,sans-Serif" font-size="10.00">::Row::SetFont</text>
</g>
<!-- Node2 -->
<g id="node2" class="node"><title>Node2</title>
<g id="a_node2"><a xlink:href="../../d2/d57/classstructural_1_1flyweight_1_1_glyph_context.html#ae4a8542fb051b46fee542c3cfb87dfc6" target="_top" xlink:title="structural::flyweight\l::GlyphContext::SetFont">
<polygon fill="white" stroke="black" points="137,-0.5 137,-30.5 259,-30.5 259,-0.5 137,-0.5"/>
<text text-anchor="start" x="145" y="-18.5" font-family="Helvetica,sans-Serif" font-size="10.00">structural::flyweight</text>
<text text-anchor="middle" x="198" y="-7.5" font-family="Helvetica,sans-Serif" font-size="10.00">::GlyphContext::SetFont</text>
</a>
</g>
</g>
<!-- Node1&#45;&gt;Node2 -->
<g id="edge1" class="edge"><title>Node1&#45;&gt;Node2</title>
<path fill="none" stroke="midnightblue" d="M101.166,-15.5C109.45,-15.5 118.179,-15.5 126.859,-15.5"/>
<polygon fill="midnightblue" stroke="midnightblue" points="126.996,-19.0001 136.996,-15.5 126.996,-12.0001 126.996,-19.0001"/>
</g>
</g>
</svg>
