<?xml version="1.0" encoding="UTF-8" standalone="no"?>
<!DOCTYPE svg PUBLIC "-//W3C//DTD SVG 1.1//EN"
 "http://www.w3.org/Graphics/SVG/1.1/DTD/svg11.dtd">
<!-- Generated by graphviz version 2.38.0 (20140413.2041)
 -->
<!-- Title: structural::flyweight::Row::GetFont Pages: 1 -->
<svg width="405pt" height="39pt"
 viewBox="0.00 0.00 405.00 39.00" xmlns="http://www.w3.org/2000/svg" xmlns:xlink="http://www.w3.org/1999/xlink">
<g id="graph0" class="graph" transform="scale(1 1) rotate(0) translate(4 35)">
<title>structural::flyweight::Row::GetFont</title>
<polygon fill="white" stroke="none" points="-4,4 -4,-35 401,-35 401,4 -4,4"/>
<!-- Node1 -->
<g id="node1" class="node"><title>Node1</title>
<polygon fill="#bfbfbf" stroke="black" points="0,-0.5 0,-30.5 101,-30.5 101,-0.5 0,-0.5"/>
<text text-anchor="start" x="8" y="-18.5" font-family="Helvetica,sans-Serif" font-size="10.00">structural::flyweight</text>
<text text-anchor="middle" x="50.5" y="-7.5" font-family="Helvetica,sans-Serif" font-size="10.00">::Row::GetFont</text>
</g>
<!-- Node2 -->
<g id="node2" class="node"><title>Node2</title>
<g id="a_node2"><a xlink:href="../../d2/d57/classstructural_1_1flyweight_1_1_glyph_context.html#a4aa8f35261cad4fef834d07dadc9c622" target="_top" xlink:title="structural::flyweight\l::GlyphContext::GetFont">
<polygon fill="white" stroke="black" points="137,-0.5 137,-30.5 260,-30.5 260,-0.5 137,-0.5"/>
<text text-anchor="start" x="145" y="-18.5" font-family="Helvetica,sans-Serif" font-size="10.00">structural::flyweight</text>
<text text-anchor="middle" x="198.5" y="-7.5" font-family="Helvetica,sans-Serif" font-size="10.00">::GlyphContext::GetFont</text>
</a>
</g>
</g>
<!-- Node1&#45;&gt;Node2 -->
<g id="edge1" class="edge"><title>Node1&#45;&gt;Node2</title>
<path fill="none" stroke="midnightblue" d="M101.337,-15.5C109.53,-15.5 118.158,-15.5 126.745,-15.5"/>
<polygon fill="midnightblue" stroke="midnightblue" points="126.777,-19.0001 136.777,-15.5 126.777,-12.0001 126.777,-19.0001"/>
</g>
<!-- Node3 -->
<g id="node3" class="node"><title>Node3</title>
<g id="a_node3"><a xlink:href="../../dd/dd0/classstructural_1_1flyweight_1_1_b_tree.html#a4b0f1af2dae7456b2ac16f96e4ac35b5" target="_top" xlink:title="structural::flyweight\l::BTree::Get">
<polygon fill="white" stroke="black" points="296,-0.5 296,-30.5 397,-30.5 397,-0.5 296,-0.5"/>
<text text-anchor="start" x="304" y="-18.5" font-family="Helvetica,sans-Serif" font-size="10.00">structural::flyweight</text>
<text text-anchor="middle" x="346.5" y="-7.5" font-family="Helvetica,sans-Serif" font-size="10.00">::BTree::Get</text>
</a>
</g>
</g>
<!-- Node2&#45;&gt;Node3 -->
<g id="edge2" class="edge"><title>Node2&#45;&gt;Node3</title>
<path fill="none" stroke="midnightblue" d="M260.149,-15.5C268.615,-15.5 277.31,-15.5 285.759,-15.5"/>
<polygon fill="midnightblue" stroke="midnightblue" points="285.912,-19.0001 295.912,-15.5 285.912,-12.0001 285.912,-19.0001"/>
</g>
</g>
</svg>
