<?xml version="1.0" encoding="UTF-8" standalone="no"?>
<!DOCTYPE svg PUBLIC "-//W3C//DTD SVG 1.1//EN"
 "http://www.w3.org/Graphics/SVG/1.1/DTD/svg11.dtd">
<!-- Generated by graphviz version 2.38.0 (20140413.2041)
 -->
<!-- Title: structural::bridge::ApplicationWindow::DrawText Pages: 1 -->
<svg width="278pt" height="137pt"
 viewBox="0.00 0.00 278.00 137.00" xmlns="http://www.w3.org/2000/svg" xmlns:xlink="http://www.w3.org/1999/xlink">
<g id="graph0" class="graph" transform="scale(1 1) rotate(0) translate(4 133)">
<title>structural::bridge::ApplicationWindow::DrawText</title>
<polygon fill="white" stroke="none" points="-4,4 -4,-133 274,-133 274,4 -4,4"/>
<!-- Node1 -->
<g id="node1" class="node"><title>Node1</title>
<polygon fill="#bfbfbf" stroke="black" points="0,-44 0,-85 105,-85 105,-44 0,-44"/>
<text text-anchor="start" x="8" y="-73" font-family="Helvetica,sans-Serif" font-size="10.00">structural::bridge</text>
<text text-anchor="start" x="8" y="-62" font-family="Helvetica,sans-Serif" font-size="10.00">::ApplicationWindow</text>
<text text-anchor="middle" x="52.5" y="-51" font-family="Helvetica,sans-Serif" font-size="10.00">::DrawText</text>
</g>
<!-- Node2 -->
<g id="node2" class="node"><title>Node2</title>
<g id="a_node2"><a xlink:href="../../d5/d3d/classstructural_1_1bridge_1_1_window.html#a9ca2cea738469604f17b00631f45e208" target="_top" xlink:title="structural::bridge\l::Window::GetWindowImp">
<polygon fill="white" stroke="black" points="141,-98.5 141,-128.5 270,-128.5 270,-98.5 141,-98.5"/>
<text text-anchor="start" x="149" y="-116.5" font-family="Helvetica,sans-Serif" font-size="10.00">structural::bridge</text>
<text text-anchor="middle" x="205.5" y="-105.5" font-family="Helvetica,sans-Serif" font-size="10.00">::Window::GetWindowImp</text>
</a>
</g>
</g>
<!-- Node1&#45;&gt;Node2 -->
<g id="edge1" class="edge"><title>Node1&#45;&gt;Node2</title>
<path fill="none" stroke="midnightblue" d="M105.043,-81.226C119.066,-85.7762 134.318,-90.7257 148.571,-95.3507"/>
<polygon fill="midnightblue" stroke="midnightblue" points="147.659,-98.7344 158.251,-98.492 149.819,-92.0762 147.659,-98.7344"/>
</g>
<!-- Node3 -->
<g id="node3" class="node"><title>Node3</title>
<g id="a_node3"><a xlink:href="../../d2/db2/classstructural_1_1commons_1_1_point.html#a6c757dd2cc06d5db764471dd47e90176" target="_top" xlink:title="structural::commons\l::Point::x">
<polygon fill="white" stroke="black" points="152.5,-49.5 152.5,-79.5 258.5,-79.5 258.5,-49.5 152.5,-49.5"/>
<text text-anchor="start" x="160.5" y="-67.5" font-family="Helvetica,sans-Serif" font-size="10.00">structural::commons</text>
<text text-anchor="middle" x="205.5" y="-56.5" font-family="Helvetica,sans-Serif" font-size="10.00">::Point::x</text>
</a>
</g>
</g>
<!-- Node1&#45;&gt;Node3 -->
<g id="edge2" class="edge"><title>Node1&#45;&gt;Node3</title>
<path fill="none" stroke="midnightblue" d="M105.043,-64.5C116.991,-64.5 129.832,-64.5 142.186,-64.5"/>
<polygon fill="midnightblue" stroke="midnightblue" points="142.42,-68.0001 152.42,-64.5 142.42,-61.0001 142.42,-68.0001"/>
</g>
<!-- Node4 -->
<g id="node4" class="node"><title>Node4</title>
<g id="a_node4"><a xlink:href="../../d2/db2/classstructural_1_1commons_1_1_point.html#a879eaf11e2edad52cc239c75da03bf74" target="_top" xlink:title="structural::commons\l::Point::y">
<polygon fill="white" stroke="black" points="152.5,-0.5 152.5,-30.5 258.5,-30.5 258.5,-0.5 152.5,-0.5"/>
<text text-anchor="start" x="160.5" y="-18.5" font-family="Helvetica,sans-Serif" font-size="10.00">structural::commons</text>
<text text-anchor="middle" x="205.5" y="-7.5" font-family="Helvetica,sans-Serif" font-size="10.00">::Point::y</text>
</a>
</g>
</g>
<!-- Node1&#45;&gt;Node4 -->
<g id="edge3" class="edge"><title>Node1&#45;&gt;Node4</title>
<path fill="none" stroke="midnightblue" d="M105.043,-47.774C119.066,-43.2238 134.318,-38.2743 148.571,-33.6493"/>
<polygon fill="midnightblue" stroke="midnightblue" points="149.819,-36.9238 158.251,-30.508 147.659,-30.2656 149.819,-36.9238"/>
</g>
</g>
</svg>
