<?xml version="1.0" encoding="UTF-8" standalone="no"?>
<!DOCTYPE svg PUBLIC "-//W3C//DTD SVG 1.1//EN"
 "http://www.w3.org/Graphics/SVG/1.1/DTD/svg11.dtd">
<!-- Generated by graphviz version 2.38.0 (20140413.2041)
 -->
<!-- Title: structural::bridge::ApplicationWindow::DrawTitle Pages: 1 -->
<svg width="419pt" height="137pt"
 viewBox="0.00 0.00 419.00 137.00" xmlns="http://www.w3.org/2000/svg" xmlns:xlink="http://www.w3.org/1999/xlink">
<g id="graph0" class="graph" transform="scale(1 1) rotate(0) translate(4 133)">
<title>structural::bridge::ApplicationWindow::DrawTitle</title>
<polygon fill="white" stroke="none" points="-4,4 -4,-133 415,-133 415,4 -4,4"/>
<!-- Node1 -->
<g id="node1" class="node"><title>Node1</title>
<polygon fill="#bfbfbf" stroke="black" points="0,-44 0,-85 105,-85 105,-44 0,-44"/>
<text text-anchor="start" x="8" y="-73" font-family="Helvetica,sans-Serif" font-size="10.00">structural::bridge</text>
<text text-anchor="start" x="8" y="-62" font-family="Helvetica,sans-Serif" font-size="10.00">::ApplicationWindow</text>
<text text-anchor="middle" x="52.5" y="-51" font-family="Helvetica,sans-Serif" font-size="10.00">::DrawTitle</text>
</g>
<!-- Node2 -->
<g id="node2" class="node"><title>Node2</title>
<g id="a_node2"><a xlink:href="../../d0/dbf/classstructural_1_1bridge_1_1_application_window.html#af2f1e385e04f14d911f03355933e5bba" target="_top" xlink:title="structural::bridge\l::ApplicationWindow\l::DrawText">
<polygon fill="white" stroke="black" points="141,-44 141,-85 246,-85 246,-44 141,-44"/>
<text text-anchor="start" x="149" y="-73" font-family="Helvetica,sans-Serif" font-size="10.00">structural::bridge</text>
<text text-anchor="start" x="149" y="-62" font-family="Helvetica,sans-Serif" font-size="10.00">::ApplicationWindow</text>
<text text-anchor="middle" x="193.5" y="-51" font-family="Helvetica,sans-Serif" font-size="10.00">::DrawText</text>
</a>
</g>
</g>
<!-- Node1&#45;&gt;Node2 -->
<g id="edge1" class="edge"><title>Node1&#45;&gt;Node2</title>
<path fill="none" stroke="midnightblue" d="M105.258,-64.5C113.49,-64.5 122.077,-64.5 130.514,-64.5"/>
<polygon fill="midnightblue" stroke="midnightblue" points="130.698,-68.0001 140.698,-64.5 130.698,-61.0001 130.698,-68.0001"/>
</g>
<!-- Node3 -->
<g id="node3" class="node"><title>Node3</title>
<g id="a_node3"><a xlink:href="../../d5/d3d/classstructural_1_1bridge_1_1_window.html#a9ca2cea738469604f17b00631f45e208" target="_top" xlink:title="structural::bridge\l::Window::GetWindowImp">
<polygon fill="white" stroke="black" points="282,-98.5 282,-128.5 411,-128.5 411,-98.5 282,-98.5"/>
<text text-anchor="start" x="290" y="-116.5" font-family="Helvetica,sans-Serif" font-size="10.00">structural::bridge</text>
<text text-anchor="middle" x="346.5" y="-105.5" font-family="Helvetica,sans-Serif" font-size="10.00">::Window::GetWindowImp</text>
</a>
</g>
</g>
<!-- Node2&#45;&gt;Node3 -->
<g id="edge2" class="edge"><title>Node2&#45;&gt;Node3</title>
<path fill="none" stroke="midnightblue" d="M246.043,-81.226C260.066,-85.7762 275.318,-90.7257 289.571,-95.3507"/>
<polygon fill="midnightblue" stroke="midnightblue" points="288.659,-98.7344 299.251,-98.492 290.819,-92.0762 288.659,-98.7344"/>
</g>
<!-- Node4 -->
<g id="node4" class="node"><title>Node4</title>
<g id="a_node4"><a xlink:href="../../d2/db2/classstructural_1_1commons_1_1_point.html#a6c757dd2cc06d5db764471dd47e90176" target="_top" xlink:title="structural::commons\l::Point::x">
<polygon fill="white" stroke="black" points="293.5,-49.5 293.5,-79.5 399.5,-79.5 399.5,-49.5 293.5,-49.5"/>
<text text-anchor="start" x="301.5" y="-67.5" font-family="Helvetica,sans-Serif" font-size="10.00">structural::commons</text>
<text text-anchor="middle" x="346.5" y="-56.5" font-family="Helvetica,sans-Serif" font-size="10.00">::Point::x</text>
</a>
</g>
</g>
<!-- Node2&#45;&gt;Node4 -->
<g id="edge3" class="edge"><title>Node2&#45;&gt;Node4</title>
<path fill="none" stroke="midnightblue" d="M246.043,-64.5C257.991,-64.5 270.832,-64.5 283.186,-64.5"/>
<polygon fill="midnightblue" stroke="midnightblue" points="283.42,-68.0001 293.42,-64.5 283.42,-61.0001 283.42,-68.0001"/>
</g>
<!-- Node5 -->
<g id="node5" class="node"><title>Node5</title>
<g id="a_node5"><a xlink:href="../../d2/db2/classstructural_1_1commons_1_1_point.html#a879eaf11e2edad52cc239c75da03bf74" target="_top" xlink:title="structural::commons\l::Point::y">
<polygon fill="white" stroke="black" points="293.5,-0.5 293.5,-30.5 399.5,-30.5 399.5,-0.5 293.5,-0.5"/>
<text text-anchor="start" x="301.5" y="-18.5" font-family="Helvetica,sans-Serif" font-size="10.00">structural::commons</text>
<text text-anchor="middle" x="346.5" y="-7.5" font-family="Helvetica,sans-Serif" font-size="10.00">::Point::y</text>
</a>
</g>
</g>
<!-- Node2&#45;&gt;Node5 -->
<g id="edge4" class="edge"><title>Node2&#45;&gt;Node5</title>
<path fill="none" stroke="midnightblue" d="M246.043,-47.774C260.066,-43.2238 275.318,-38.2743 289.571,-33.6493"/>
<polygon fill="midnightblue" stroke="midnightblue" points="290.819,-36.9238 299.251,-30.508 288.659,-30.2656 290.819,-36.9238"/>
</g>
</g>
</svg>
