<?xml version="1.0" encoding="UTF-8" standalone="no"?>
<!DOCTYPE svg PUBLIC "-//W3C//DTD SVG 1.1//EN"
 "http://www.w3.org/Graphics/SVG/1.1/DTD/svg11.dtd">
<!-- Generated by graphviz version 2.38.0 (20140413.2041)
 -->
<!-- Title: creational::builder::StandardMazeBuilder Pages: 1 -->
<svg width="139pt" height="281pt"
 viewBox="0.00 0.00 139.00 281.00" xmlns="http://www.w3.org/2000/svg" xmlns:xlink="http://www.w3.org/1999/xlink">
<g id="graph0" class="graph" transform="scale(1 1) rotate(0) translate(4 277)">
<title>creational::builder::StandardMazeBuilder</title>
<polygon fill="white" stroke="none" points="-4,4 -4,-277 135,-277 135,4 -4,4"/>
<!-- Node1 -->
<g id="node1" class="node"><title>Node1</title>
<polygon fill="#bfbfbf" stroke="black" points="0,-0.5 0,-123.5 131,-123.5 131,-0.5 0,-0.5"/>
<text text-anchor="start" x="8" y="-111.5" font-family="Helvetica,sans-Serif" font-size="10.00">creational::builder</text>
<text text-anchor="middle" x="65.5" y="-100.5" font-family="Helvetica,sans-Serif" font-size="10.00">::StandardMazeBuilder</text>
<polyline fill="none" stroke="black" points="0,-93.5 131,-93.5 "/>
<text text-anchor="middle" x="65.5" y="-81.5" font-family="Helvetica,sans-Serif" font-size="10.00"> </text>
<polyline fill="none" stroke="black" points="0,-74.5 131,-74.5 "/>
<text text-anchor="start" x="8" y="-62.5" font-family="Helvetica,sans-Serif" font-size="10.00">+ StandardMazeBuilder()</text>
<text text-anchor="start" x="8" y="-51.5" font-family="Helvetica,sans-Serif" font-size="10.00">+ ~StandardMazeBuilder()</text>
<text text-anchor="start" x="8" y="-40.5" font-family="Helvetica,sans-Serif" font-size="10.00">+ BuildMaze()</text>
<text text-anchor="start" x="8" y="-29.5" font-family="Helvetica,sans-Serif" font-size="10.00">+ BuildRoom()</text>
<text text-anchor="start" x="8" y="-18.5" font-family="Helvetica,sans-Serif" font-size="10.00">+ BuildDoor()</text>
<text text-anchor="start" x="8" y="-7.5" font-family="Helvetica,sans-Serif" font-size="10.00">+ GetMaze()</text>
</g>
<!-- Node2 -->
<g id="node2" class="node"><title>Node2</title>
<g id="a_node2"><a xlink:href="../../d6/d66/classcreational_1_1builder_1_1_maze_builder_interface.html" target="_top" xlink:title="{creational::builder\l::MazeBuilderInterface\n||+ ~MazeBuilderInterface()\l+ BuildMaze()\l+ BuildRoom()\l+ BuildDoor()\l+ GetMaze()\l}">
<polygon fill="white" stroke="black" points="1.5,-160.5 1.5,-272.5 129.5,-272.5 129.5,-160.5 1.5,-160.5"/>
<text text-anchor="start" x="9.5" y="-260.5" font-family="Helvetica,sans-Serif" font-size="10.00">creational::builder</text>
<text text-anchor="middle" x="65.5" y="-249.5" font-family="Helvetica,sans-Serif" font-size="10.00">::MazeBuilderInterface</text>
<polyline fill="none" stroke="black" points="1.5,-242.5 129.5,-242.5 "/>
<text text-anchor="middle" x="65.5" y="-230.5" font-family="Helvetica,sans-Serif" font-size="10.00"> </text>
<polyline fill="none" stroke="black" points="1.5,-223.5 129.5,-223.5 "/>
<text text-anchor="start" x="9.5" y="-211.5" font-family="Helvetica,sans-Serif" font-size="10.00">+ ~MazeBuilderInterface()</text>
<text text-anchor="start" x="9.5" y="-200.5" font-family="Helvetica,sans-Serif" font-size="10.00">+ BuildMaze()</text>
<text text-anchor="start" x="9.5" y="-189.5" font-family="Helvetica,sans-Serif" font-size="10.00">+ BuildRoom()</text>
<text text-anchor="start" x="9.5" y="-178.5" font-family="Helvetica,sans-Serif" font-size="10.00">+ BuildDoor()</text>
<text text-anchor="start" x="9.5" y="-167.5" font-family="Helvetica,sans-Serif" font-size="10.00">+ GetMaze()</text>
</a>
</g>
</g>
<!-- Node2&#45;&gt;Node1 -->
<g id="edge1" class="edge"><title>Node2&#45;&gt;Node1</title>
<path fill="none" stroke="midnightblue" d="M65.5,-150.216C65.5,-141.401 65.5,-132.386 65.5,-123.655"/>
<polygon fill="none" stroke="midnightblue" points="62.0001,-150.444 65.5,-160.444 69.0001,-150.444 62.0001,-150.444"/>
</g>
</g>
</svg>
