<?xml version="1.0" encoding="UTF-8" standalone="no"?>
<!DOCTYPE svg PUBLIC "-//W3C//DTD SVG 1.1//EN"
 "http://www.w3.org/Graphics/SVG/1.1/DTD/svg11.dtd">
<!-- Generated by graphviz version 2.38.0 (20140413.2041)
 -->
<!-- Title: src/creational/src/builder/standard_maze_builder.h Pages: 1 -->
<svg width="204pt" height="274pt"
 viewBox="0.00 0.00 204.00 274.00" xmlns="http://www.w3.org/2000/svg" xmlns:xlink="http://www.w3.org/1999/xlink">
<g id="graph0" class="graph" transform="scale(1 1) rotate(0) translate(4 270)">
<title>src/creational/src/builder/standard_maze_builder.h</title>
<polygon fill="white" stroke="none" points="-4,4 -4,-270 200,-270 200,4 -4,4"/>
<!-- Node1 -->
<g id="node1" class="node"><title>Node1</title>
<polygon fill="#bfbfbf" stroke="black" points="74.5,-224.5 74.5,-265.5 192.5,-265.5 192.5,-224.5 74.5,-224.5"/>
<text text-anchor="start" x="82.5" y="-253.5" font-family="Helvetica,sans-Serif" font-size="10.00">src/creational/src</text>
<text text-anchor="start" x="82.5" y="-242.5" font-family="Helvetica,sans-Serif" font-size="10.00">/builder/standard_maze</text>
<text text-anchor="middle" x="133.5" y="-231.5" font-family="Helvetica,sans-Serif" font-size="10.00">_builder.h</text>
</g>
<!-- Node2 -->
<g id="node2" class="node"><title>Node2</title>
<g id="a_node2"><a xlink:href="../../d5/d18/maze__builder__interface_8h.html" target="_top" xlink:title="maze_builder_interface.h">
<polygon fill="white" stroke="black" points="71,-168.5 71,-187.5 196,-187.5 196,-168.5 71,-168.5"/>
<text text-anchor="middle" x="133.5" y="-175.5" font-family="Helvetica,sans-Serif" font-size="10.00">maze_builder_interface.h</text>
</a>
</g>
</g>
<!-- Node1&#45;&gt;Node2 -->
<g id="edge1" class="edge"><title>Node1&#45;&gt;Node2</title>
<path fill="none" stroke="midnightblue" d="M133.5,-224.498C133.5,-216.065 133.5,-206.235 133.5,-197.874"/>
<polygon fill="midnightblue" stroke="midnightblue" points="137,-197.652 133.5,-187.652 130,-197.653 137,-197.652"/>
</g>
<!-- Node3 -->
<g id="node3" class="node"><title>Node3</title>
<g id="a_node3"><a xlink:href="../../dc/db8/maze_8h.html" target="_top" xlink:title="../mazeparts/maze.h">
<polygon fill="white" stroke="black" points="80,-112.5 80,-131.5 187,-131.5 187,-112.5 80,-112.5"/>
<text text-anchor="middle" x="133.5" y="-119.5" font-family="Helvetica,sans-Serif" font-size="10.00">../mazeparts/maze.h</text>
</a>
</g>
</g>
<!-- Node2&#45;&gt;Node3 -->
<g id="edge2" class="edge"><title>Node2&#45;&gt;Node3</title>
<path fill="none" stroke="midnightblue" d="M133.5,-168.083C133.5,-161.006 133.5,-150.861 133.5,-141.986"/>
<polygon fill="midnightblue" stroke="midnightblue" points="137,-141.751 133.5,-131.751 130,-141.751 137,-141.751"/>
</g>
<!-- Node4 -->
<g id="node4" class="node"><title>Node4</title>
<g id="a_node4"><a xlink:href="../../d9/dc0/room_8h.html" target="_top" xlink:title="room.h">
<polygon fill="white" stroke="black" points="81,-56.5 81,-75.5 128,-75.5 128,-56.5 81,-56.5"/>
<text text-anchor="middle" x="104.5" y="-63.5" font-family="Helvetica,sans-Serif" font-size="10.00">room.h</text>
</a>
</g>
</g>
<!-- Node3&#45;&gt;Node4 -->
<g id="edge3" class="edge"><title>Node3&#45;&gt;Node4</title>
<path fill="none" stroke="midnightblue" d="M128.711,-112.083C124.742,-104.691 118.975,-93.9533 114.065,-84.8111"/>
<polygon fill="midnightblue" stroke="midnightblue" points="117.014,-82.9051 109.2,-75.7511 110.847,-86.217 117.014,-82.9051"/>
</g>
<!-- Node7 -->
<g id="node7" class="node"><title>Node7</title>
<polygon fill="white" stroke="#bfbfbf" points="146,-56.5 146,-75.5 181,-75.5 181,-56.5 146,-56.5"/>
<text text-anchor="middle" x="163.5" y="-63.5" font-family="Helvetica,sans-Serif" font-size="10.00">map</text>
</g>
<!-- Node3&#45;&gt;Node7 -->
<g id="edge6" class="edge"><title>Node3&#45;&gt;Node7</title>
<path fill="none" stroke="midnightblue" d="M138.454,-112.083C142.604,-104.613 148.653,-93.7244 153.767,-84.5199"/>
<polygon fill="midnightblue" stroke="midnightblue" points="156.841,-86.1924 158.638,-75.7511 150.722,-82.7929 156.841,-86.1924"/>
</g>
<!-- Node5 -->
<g id="node5" class="node"><title>Node5</title>
<g id="a_node5"><a xlink:href="../../db/d1a/map__site__interface_8h.html" target="_top" xlink:title="map_site_interface.h">
<polygon fill="white" stroke="black" points="0,-0.5 0,-19.5 107,-19.5 107,-0.5 0,-0.5"/>
<text text-anchor="middle" x="53.5" y="-7.5" font-family="Helvetica,sans-Serif" font-size="10.00">map_site_interface.h</text>
</a>
</g>
</g>
<!-- Node4&#45;&gt;Node5 -->
<g id="edge4" class="edge"><title>Node4&#45;&gt;Node5</title>
<path fill="none" stroke="midnightblue" d="M96.0784,-56.083C88.6518,-48.2195 77.6483,-36.5688 68.6878,-27.0813"/>
<polygon fill="midnightblue" stroke="midnightblue" points="71.1757,-24.618 61.7649,-19.7511 66.0866,-29.4244 71.1757,-24.618"/>
</g>
<!-- Node6 -->
<g id="node6" class="node"><title>Node6</title>
<g id="a_node6"><a xlink:href="../../dd/d04/direction_8h.html" target="_top" xlink:title="direction.h">
<polygon fill="white" stroke="black" points="125.5,-0.5 125.5,-19.5 187.5,-19.5 187.5,-0.5 125.5,-0.5"/>
<text text-anchor="middle" x="156.5" y="-7.5" font-family="Helvetica,sans-Serif" font-size="10.00">direction.h</text>
</a>
</g>
</g>
<!-- Node4&#45;&gt;Node6 -->
<g id="edge5" class="edge"><title>Node4&#45;&gt;Node6</title>
<path fill="none" stroke="midnightblue" d="M113.087,-56.083C120.659,-48.2195 131.878,-36.5688 141.014,-27.0813"/>
<polygon fill="midnightblue" stroke="midnightblue" points="143.658,-29.3821 148.073,-19.7511 138.615,-24.5266 143.658,-29.3821"/>
</g>
</g>
</svg>
