<?xml version="1.0" encoding="UTF-8" standalone="no"?>
<!DOCTYPE svg PUBLIC "-//W3C//DTD SVG 1.1//EN"
 "http://www.w3.org/Graphics/SVG/1.1/DTD/svg11.dtd">
<!-- Generated by graphviz version 2.38.0 (20140413.2041)
 -->
<!-- Title: creational::commons::EnchantedRoom Pages: 1 -->
<svg width="118pt" height="430pt"
 viewBox="0.00 0.00 118.00 430.00" xmlns="http://www.w3.org/2000/svg" xmlns:xlink="http://www.w3.org/1999/xlink">
<g id="graph0" class="graph" transform="scale(1 1) rotate(0) translate(4 426)">
<title>creational::commons::EnchantedRoom</title>
<polygon fill="white" stroke="none" points="-4,4 -4,-426 114,-426 114,4 -4,4"/>
<!-- Node1 -->
<g id="node1" class="node"><title>Node1</title>
<polygon fill="#bfbfbf" stroke="black" points="1.5,-0.5 1.5,-123.5 108.5,-123.5 108.5,-0.5 1.5,-0.5"/>
<text text-anchor="start" x="9.5" y="-111.5" font-family="Helvetica,sans-Serif" font-size="10.00">creational::commons</text>
<text text-anchor="middle" x="55" y="-100.5" font-family="Helvetica,sans-Serif" font-size="10.00">::EnchantedRoom</text>
<polyline fill="none" stroke="black" points="1.5,-93.5 108.5,-93.5 "/>
<text text-anchor="middle" x="55" y="-81.5" font-family="Helvetica,sans-Serif" font-size="10.00"> </text>
<polyline fill="none" stroke="black" points="1.5,-74.5 108.5,-74.5 "/>
<text text-anchor="start" x="9.5" y="-62.5" font-family="Helvetica,sans-Serif" font-size="10.00">+ EnchantedRoom()</text>
<text text-anchor="start" x="9.5" y="-51.5" font-family="Helvetica,sans-Serif" font-size="10.00">+ EnchantedRoom()</text>
<text text-anchor="start" x="9.5" y="-40.5" font-family="Helvetica,sans-Serif" font-size="10.00">+ Clone()</text>
<text text-anchor="start" x="9.5" y="-29.5" font-family="Helvetica,sans-Serif" font-size="10.00">+ HasSpell()</text>
<text text-anchor="start" x="9.5" y="-18.5" font-family="Helvetica,sans-Serif" font-size="10.00">+ Initialize()</text>
<text text-anchor="start" x="9.5" y="-7.5" font-family="Helvetica,sans-Serif" font-size="10.00">+ PickUpSpell()</text>
</g>
<!-- Node2 -->
<g id="node2" class="node"><title>Node2</title>
<g id="a_node2"><a xlink:href="../../d7/d33/classcreational_1_1commons_1_1_room.html" target="_top" xlink:title="{creational::commons\l::Room\n|# room_number_\l|+ Room()\l+ Room()\l+ Clone()\l+ Enter()\l+ entered()\l+ GetSide()\l+ room_number()\l+ SetSide()\l}">
<polygon fill="white" stroke="black" points="1.5,-160.5 1.5,-305.5 108.5,-305.5 108.5,-160.5 1.5,-160.5"/>
<text text-anchor="start" x="9.5" y="-293.5" font-family="Helvetica,sans-Serif" font-size="10.00">creational::commons</text>
<text text-anchor="middle" x="55" y="-282.5" font-family="Helvetica,sans-Serif" font-size="10.00">::Room</text>
<polyline fill="none" stroke="black" points="1.5,-275.5 108.5,-275.5 "/>
<text text-anchor="start" x="9.5" y="-263.5" font-family="Helvetica,sans-Serif" font-size="10.00"># room_number_</text>
<polyline fill="none" stroke="black" points="1.5,-256.5 108.5,-256.5 "/>
<text text-anchor="start" x="9.5" y="-244.5" font-family="Helvetica,sans-Serif" font-size="10.00">+ Room()</text>
<text text-anchor="start" x="9.5" y="-233.5" font-family="Helvetica,sans-Serif" font-size="10.00">+ Room()</text>
<text text-anchor="start" x="9.5" y="-222.5" font-family="Helvetica,sans-Serif" font-size="10.00">+ Clone()</text>
<text text-anchor="start" x="9.5" y="-211.5" font-family="Helvetica,sans-Serif" font-size="10.00">+ Enter()</text>
<text text-anchor="start" x="9.5" y="-200.5" font-family="Helvetica,sans-Serif" font-size="10.00">+ entered()</text>
<text text-anchor="start" x="9.5" y="-189.5" font-family="Helvetica,sans-Serif" font-size="10.00">+ GetSide()</text>
<text text-anchor="start" x="9.5" y="-178.5" font-family="Helvetica,sans-Serif" font-size="10.00">+ room_number()</text>
<text text-anchor="start" x="9.5" y="-167.5" font-family="Helvetica,sans-Serif" font-size="10.00">+ SetSide()</text>
</a>
</g>
</g>
<!-- Node2&#45;&gt;Node1 -->
<g id="edge1" class="edge"><title>Node2&#45;&gt;Node1</title>
<path fill="none" stroke="midnightblue" d="M55,-150.232C55,-141.254 55,-132.235 55,-123.58"/>
<polygon fill="none" stroke="midnightblue" points="51.5001,-150.329 55,-160.329 58.5001,-150.329 51.5001,-150.329"/>
</g>
<!-- Node3 -->
<g id="node3" class="node"><title>Node3</title>
<g id="a_node3"><a xlink:href="../../d6/dde/classcreational_1_1commons_1_1_map_site_interface.html" target="_top" xlink:title="{creational::commons\l::MapSiteInterface\n||+ ~MapSiteInterface()\l+ Enter()\l}">
<polygon fill="white" stroke="black" points="0,-342.5 0,-421.5 110,-421.5 110,-342.5 0,-342.5"/>
<text text-anchor="start" x="8" y="-409.5" font-family="Helvetica,sans-Serif" font-size="10.00">creational::commons</text>
<text text-anchor="middle" x="55" y="-398.5" font-family="Helvetica,sans-Serif" font-size="10.00">::MapSiteInterface</text>
<polyline fill="none" stroke="black" points="0,-391.5 110,-391.5 "/>
<text text-anchor="middle" x="55" y="-379.5" font-family="Helvetica,sans-Serif" font-size="10.00"> </text>
<polyline fill="none" stroke="black" points="0,-372.5 110,-372.5 "/>
<text text-anchor="start" x="8" y="-360.5" font-family="Helvetica,sans-Serif" font-size="10.00">+ ~MapSiteInterface()</text>
<text text-anchor="start" x="8" y="-349.5" font-family="Helvetica,sans-Serif" font-size="10.00">+ Enter()</text>
</a>
</g>
</g>
<!-- Node3&#45;&gt;Node2 -->
<g id="edge2" class="edge"><title>Node3&#45;&gt;Node2</title>
<path fill="none" stroke="midnightblue" d="M55,-332.243C55,-323.699 55,-314.651 55,-305.64"/>
<polygon fill="none" stroke="midnightblue" points="51.5001,-332.377 55,-342.377 58.5001,-332.378 51.5001,-332.377"/>
</g>
</g>
</svg>
