<?xml version="1.0" encoding="UTF-8" standalone="no"?>
<!DOCTYPE svg PUBLIC "-//W3C//DTD SVG 1.1//EN"
 "http://www.w3.org/Graphics/SVG/1.1/DTD/svg11.dtd">
<!-- Generated by graphviz version 2.38.0 (20140413.2041)
 -->
<!-- Title: structural::bridge::Window::GetWindowImp Pages: 1 -->
<svg width="436pt" height="198pt"
 viewBox="0.00 0.00 436.00 197.50" xmlns="http://www.w3.org/2000/svg" xmlns:xlink="http://www.w3.org/1999/xlink">
<g id="graph0" class="graph" transform="scale(1 1) rotate(0) translate(4 193.5)">
<title>structural::bridge::Window::GetWindowImp</title>
<polygon fill="white" stroke="none" points="-4,4 -4,-193.5 432,-193.5 432,4 -4,4"/>
<!-- Node1 -->
<g id="node1" class="node"><title>Node1</title>
<polygon fill="#bfbfbf" stroke="black" points="0,-73.5 0,-103.5 129,-103.5 129,-73.5 0,-73.5"/>
<text text-anchor="start" x="8" y="-91.5" font-family="Helvetica,sans-Serif" font-size="10.00">structural::bridge</text>
<text text-anchor="middle" x="64.5" y="-80.5" font-family="Helvetica,sans-Serif" font-size="10.00">::Window::GetWindowImp</text>
</g>
<!-- Node2 -->
<g id="node2" class="node"><title>Node2</title>
<g id="a_node2"><a xlink:href="../../d0/dbf/classstructural_1_1bridge_1_1_application_window.html#af2f1e385e04f14d911f03355933e5bba" target="_top" xlink:title="structural::bridge\l::ApplicationWindow\l::DrawText">
<polygon fill="white" stroke="black" points="173.5,-148 173.5,-189 278.5,-189 278.5,-148 173.5,-148"/>
<text text-anchor="start" x="181.5" y="-177" font-family="Helvetica,sans-Serif" font-size="10.00">structural::bridge</text>
<text text-anchor="start" x="181.5" y="-166" font-family="Helvetica,sans-Serif" font-size="10.00">::ApplicationWindow</text>
<text text-anchor="middle" x="226" y="-155" font-family="Helvetica,sans-Serif" font-size="10.00">::DrawText</text>
</a>
</g>
</g>
<!-- Node1&#45;&gt;Node2 -->
<g id="edge1" class="edge"><title>Node1&#45;&gt;Node2</title>
<path fill="none" stroke="midnightblue" d="M104.482,-108.111C122.839,-117.341 145.04,-128.495 165,-138.5 171.039,-141.527 177.421,-144.722 183.681,-147.854"/>
<polygon fill="midnightblue" stroke="midnightblue" points="106.042,-104.979 95.5356,-103.613 102.897,-111.232 106.042,-104.979"/>
</g>
<!-- Node4 -->
<g id="node4" class="node"><title>Node4</title>
<g id="a_node4"><a xlink:href="../../dc/d25/classstructural_1_1bridge_1_1_icon_window.html#aa74e7f4698050ac6ba17b4152b0d451d" target="_top" xlink:title="structural::bridge\l::IconWindow::DrawText">
<polygon fill="white" stroke="black" points="165,-98.5 165,-128.5 287,-128.5 287,-98.5 165,-98.5"/>
<text text-anchor="start" x="173" y="-116.5" font-family="Helvetica,sans-Serif" font-size="10.00">structural::bridge</text>
<text text-anchor="middle" x="226" y="-105.5" font-family="Helvetica,sans-Serif" font-size="10.00">::IconWindow::DrawText</text>
</a>
</g>
</g>
<!-- Node1&#45;&gt;Node4 -->
<g id="edge3" class="edge"><title>Node1&#45;&gt;Node4</title>
<path fill="none" stroke="midnightblue" d="M139.416,-100.086C147.956,-101.424 156.586,-102.777 164.911,-104.082"/>
<polygon fill="midnightblue" stroke="midnightblue" points="139.877,-96.6152 129.456,-98.5244 138.793,-103.531 139.877,-96.6152"/>
</g>
<!-- Node5 -->
<g id="node5" class="node"><title>Node5</title>
<g id="a_node5"><a xlink:href="../../dc/d25/classstructural_1_1bridge_1_1_icon_window.html#af3b53dcf0311c7eda8ef1d5b7ae9c927" target="_top" xlink:title="structural::bridge\l::IconWindow::DrawIcon">
<polygon fill="white" stroke="black" points="165.5,-49.5 165.5,-79.5 286.5,-79.5 286.5,-49.5 165.5,-49.5"/>
<text text-anchor="start" x="173.5" y="-67.5" font-family="Helvetica,sans-Serif" font-size="10.00">structural::bridge</text>
<text text-anchor="middle" x="226" y="-56.5" font-family="Helvetica,sans-Serif" font-size="10.00">::IconWindow::DrawIcon</text>
</a>
</g>
</g>
<!-- Node1&#45;&gt;Node5 -->
<g id="edge4" class="edge"><title>Node1&#45;&gt;Node5</title>
<path fill="none" stroke="midnightblue" d="M139.565,-77.3555C148.232,-76.0512 156.99,-74.7335 165.426,-73.4642"/>
<polygon fill="midnightblue" stroke="midnightblue" points="138.824,-73.9275 129.456,-78.8766 139.865,-80.8496 138.824,-73.9275"/>
</g>
<!-- Node6 -->
<g id="node6" class="node"><title>Node6</title>
<g id="a_node6"><a xlink:href="../../d5/d3d/classstructural_1_1bridge_1_1_window.html#a89fde0df83fd4640f0aebfcaabaf4f33" target="_top" xlink:title="structural::bridge\l::Window::DrawRect">
<polygon fill="white" stroke="black" points="173.5,-0.5 173.5,-30.5 278.5,-30.5 278.5,-0.5 173.5,-0.5"/>
<text text-anchor="start" x="181.5" y="-18.5" font-family="Helvetica,sans-Serif" font-size="10.00">structural::bridge</text>
<text text-anchor="middle" x="226" y="-7.5" font-family="Helvetica,sans-Serif" font-size="10.00">::Window::DrawRect</text>
</a>
</g>
</g>
<!-- Node1&#45;&gt;Node6 -->
<g id="edge5" class="edge"><title>Node1&#45;&gt;Node6</title>
<path fill="none" stroke="midnightblue" d="M104.917,-68.8724C123.1,-59.9765 145.036,-49.4666 165,-40.5 172.412,-37.1711 180.4,-33.7372 188.055,-30.5206"/>
<polygon fill="midnightblue" stroke="midnightblue" points="103.213,-65.8098 95.7811,-73.3605 106.3,-72.0927 103.213,-65.8098"/>
</g>
<!-- Node3 -->
<g id="node3" class="node"><title>Node3</title>
<g id="a_node3"><a xlink:href="../../d0/dbf/classstructural_1_1bridge_1_1_application_window.html#a5f9643f30f1ffa5d253a36ff42ffeb40" target="_top" xlink:title="structural::bridge\l::ApplicationWindow\l::DrawTitle">
<polygon fill="white" stroke="black" points="323,-148 323,-189 428,-189 428,-148 323,-148"/>
<text text-anchor="start" x="331" y="-177" font-family="Helvetica,sans-Serif" font-size="10.00">structural::bridge</text>
<text text-anchor="start" x="331" y="-166" font-family="Helvetica,sans-Serif" font-size="10.00">::ApplicationWindow</text>
<text text-anchor="middle" x="375.5" y="-155" font-family="Helvetica,sans-Serif" font-size="10.00">::DrawTitle</text>
</a>
</g>
</g>
<!-- Node2&#45;&gt;Node3 -->
<g id="edge2" class="edge"><title>Node2&#45;&gt;Node3</title>
<path fill="none" stroke="midnightblue" d="M288.806,-168.5C300.082,-168.5 311.742,-168.5 322.691,-168.5"/>
<polygon fill="midnightblue" stroke="midnightblue" points="288.588,-165 278.588,-168.5 288.588,-172 288.588,-165"/>
</g>
</g>
</svg>
