<?xml version="1.0" encoding="UTF-8" standalone="no"?>
<!DOCTYPE svg PUBLIC "-//W3C//DTD SVG 1.1//EN"
 "http://www.w3.org/Graphics/SVG/1.1/DTD/svg11.dtd">
<!-- Generated by graphviz version 2.38.0 (20140413.2041)
 -->
<!-- Title: operational::interpreter::AndExp::Evaluate Pages: 1 -->
<svg width="275pt" height="50pt"
 viewBox="0.00 0.00 275.00 50.00" xmlns="http://www.w3.org/2000/svg" xmlns:xlink="http://www.w3.org/1999/xlink">
<g id="graph0" class="graph" transform="scale(1 1) rotate(0) translate(4 46)">
<title>operational::interpreter::AndExp::Evaluate</title>
<polygon fill="white" stroke="none" points="-4,4 -4,-46 271,-46 271,4 -4,4"/>
<!-- Node1 -->
<g id="node1" class="node"><title>Node1</title>
<polygon fill="#bfbfbf" stroke="black" points="0,-6 0,-36 113,-36 113,-6 0,-6"/>
<text text-anchor="start" x="8" y="-24" font-family="Helvetica,sans-Serif" font-size="10.00">operational::interpreter</text>
<text text-anchor="middle" x="56.5" y="-13" font-family="Helvetica,sans-Serif" font-size="10.00">::AndExp::Evaluate</text>
</g>
<!-- Node2 -->
<g id="node2" class="node"><title>Node2</title>
<g id="a_node2"><a xlink:href="../../d0/d5f/classoperational_1_1interpreter_1_1_boolean_exp_interface.html#aa3762a8a1bc3b5ebf26cdeddc3601aa3" target="_top" xlink:title="operational::interpreter\l::BooleanExpInterface::\lEvaluate">
<polygon fill="white" stroke="black" points="149,-0.5 149,-41.5 267,-41.5 267,-0.5 149,-0.5"/>
<text text-anchor="start" x="157" y="-29.5" font-family="Helvetica,sans-Serif" font-size="10.00">operational::interpreter</text>
<text text-anchor="start" x="157" y="-18.5" font-family="Helvetica,sans-Serif" font-size="10.00">::BooleanExpInterface::</text>
<text text-anchor="middle" x="208" y="-7.5" font-family="Helvetica,sans-Serif" font-size="10.00">Evaluate</text>
</a>
</g>
</g>
<!-- Node1&#45;&gt;Node2 -->
<g id="edge1" class="edge"><title>Node1&#45;&gt;Node2</title>
<path fill="none" stroke="midnightblue" d="M113.168,-21C121.431,-21 130.027,-21 138.515,-21"/>
<polygon fill="midnightblue" stroke="midnightblue" points="138.785,-24.5001 148.785,-21 138.785,-17.5001 138.785,-24.5001"/>
</g>
</g>
</svg>
