<?xml version="1.0" encoding="UTF-8" standalone="no"?>
<!DOCTYPE svg PUBLIC "-//W3C//DTD SVG 1.1//EN"
 "http://www.w3.org/Graphics/SVG/1.1/DTD/svg11.dtd">
<!-- Generated by graphviz version 2.38.0 (20140413.2041)
 -->
<!-- Title: operational::observer::ClockTickObserver Pages: 1 -->
<svg width="238pt" height="237pt"
 viewBox="0.00 0.00 238.00 237.00" xmlns="http://www.w3.org/2000/svg" xmlns:xlink="http://www.w3.org/1999/xlink">
<g id="graph0" class="graph" transform="scale(1 1) rotate(0) translate(4 233)">
<title>operational::observer::ClockTickObserver</title>
<polygon fill="white" stroke="none" points="-4,4 -4,-233 234,-233 234,4 -4,4"/>
<!-- Node1 -->
<g id="node1" class="node"><title>Node1</title>
<polygon fill="#bfbfbf" stroke="black" points="55.5,-149.5 55.5,-228.5 174.5,-228.5 174.5,-149.5 55.5,-149.5"/>
<text text-anchor="start" x="63.5" y="-216.5" font-family="Helvetica,sans-Serif" font-size="10.00">operational::observer</text>
<text text-anchor="middle" x="115" y="-205.5" font-family="Helvetica,sans-Serif" font-size="10.00">::ClockTickObserver</text>
<polyline fill="none" stroke="black" points="55.5,-198.5 174.5,-198.5 "/>
<text text-anchor="middle" x="115" y="-186.5" font-family="Helvetica,sans-Serif" font-size="10.00"> </text>
<polyline fill="none" stroke="black" points="55.5,-179.5 174.5,-179.5 "/>
<text text-anchor="start" x="63.5" y="-167.5" font-family="Helvetica,sans-Serif" font-size="10.00">+ ~ClockTickObserver()</text>
<text text-anchor="start" x="63.5" y="-156.5" font-family="Helvetica,sans-Serif" font-size="10.00">+ OnClockTick()</text>
</g>
<!-- Node2 -->
<g id="node2" class="node"><title>Node2</title>
<g id="a_node2"><a xlink:href="../../d3/d84/classoperational_1_1observer_1_1_analog_clock.html" target="_top" xlink:title="{operational::observer\l::AnalogClock\n||+ AnalogClock()\l+ ~AnalogClock()\l+ OnClockTick()\l+ Draw()\l+ formated_time()\l}">
<polygon fill="white" stroke="black" points="0,-0.5 0,-112.5 106,-112.5 106,-0.5 0,-0.5"/>
<text text-anchor="start" x="8" y="-100.5" font-family="Helvetica,sans-Serif" font-size="10.00">operational::observer</text>
<text text-anchor="middle" x="53" y="-89.5" font-family="Helvetica,sans-Serif" font-size="10.00">::AnalogClock</text>
<polyline fill="none" stroke="black" points="0,-82.5 106,-82.5 "/>
<text text-anchor="middle" x="53" y="-70.5" font-family="Helvetica,sans-Serif" font-size="10.00"> </text>
<polyline fill="none" stroke="black" points="0,-63.5 106,-63.5 "/>
<text text-anchor="start" x="8" y="-51.5" font-family="Helvetica,sans-Serif" font-size="10.00">+ AnalogClock()</text>
<text text-anchor="start" x="8" y="-40.5" font-family="Helvetica,sans-Serif" font-size="10.00">+ ~AnalogClock()</text>
<text text-anchor="start" x="8" y="-29.5" font-family="Helvetica,sans-Serif" font-size="10.00">+ OnClockTick()</text>
<text text-anchor="start" x="8" y="-18.5" font-family="Helvetica,sans-Serif" font-size="10.00">+ Draw()</text>
<text text-anchor="start" x="8" y="-7.5" font-family="Helvetica,sans-Serif" font-size="10.00">+ formated_time()</text>
</a>
</g>
</g>
<!-- Node1&#45;&gt;Node2 -->
<g id="edge1" class="edge"><title>Node1&#45;&gt;Node2</title>
<path fill="none" stroke="midnightblue" d="M92.2606,-140.137C88.0389,-131.251 83.5967,-121.901 79.2795,-112.814"/>
<polygon fill="none" stroke="midnightblue" points="89.1131,-141.669 96.5658,-149.199 95.4358,-138.665 89.1131,-141.669"/>
</g>
<!-- Node3 -->
<g id="node3" class="node"><title>Node3</title>
<g id="a_node3"><a xlink:href="../../d9/dd3/classoperational_1_1observer_1_1_digital_clock.html" target="_top" xlink:title="{operational::observer\l::DigitalClock\n||+ DigitalClock()\l+ ~DigitalClock()\l+ OnClockTick()\l+ Draw()\l+ formated_time()\l}">
<polygon fill="white" stroke="black" points="124,-0.5 124,-112.5 230,-112.5 230,-0.5 124,-0.5"/>
<text text-anchor="start" x="132" y="-100.5" font-family="Helvetica,sans-Serif" font-size="10.00">operational::observer</text>
<text text-anchor="middle" x="177" y="-89.5" font-family="Helvetica,sans-Serif" font-size="10.00">::DigitalClock</text>
<polyline fill="none" stroke="black" points="124,-82.5 230,-82.5 "/>
<text text-anchor="middle" x="177" y="-70.5" font-family="Helvetica,sans-Serif" font-size="10.00"> </text>
<polyline fill="none" stroke="black" points="124,-63.5 230,-63.5 "/>
<text text-anchor="start" x="132" y="-51.5" font-family="Helvetica,sans-Serif" font-size="10.00">+ DigitalClock()</text>
<text text-anchor="start" x="132" y="-40.5" font-family="Helvetica,sans-Serif" font-size="10.00">+ ~DigitalClock()</text>
<text text-anchor="start" x="132" y="-29.5" font-family="Helvetica,sans-Serif" font-size="10.00">+ OnClockTick()</text>
<text text-anchor="start" x="132" y="-18.5" font-family="Helvetica,sans-Serif" font-size="10.00">+ Draw()</text>
<text text-anchor="start" x="132" y="-7.5" font-family="Helvetica,sans-Serif" font-size="10.00">+ formated_time()</text>
</a>
</g>
</g>
<!-- Node1&#45;&gt;Node3 -->
<g id="edge2" class="edge"><title>Node1&#45;&gt;Node3</title>
<path fill="none" stroke="midnightblue" d="M137.739,-140.137C141.961,-131.251 146.403,-121.901 150.72,-112.814"/>
<polygon fill="none" stroke="midnightblue" points="134.564,-138.665 133.434,-149.199 140.887,-141.669 134.564,-138.665"/>
</g>
</g>
</svg>
