<?xml version="1.0" encoding="UTF-8" standalone="no"?>
<!DOCTYPE svg PUBLIC "-//W3C//DTD SVG 1.1//EN"
 "http://www.w3.org/Graphics/SVG/1.1/DTD/svg11.dtd">
<!-- Generated by graphviz version 2.38.0 (20140413.2041)
 -->
<!-- Title: structural::adapter::TextView::IsEmpty Pages: 1 -->
<svg width="279pt" height="110pt"
 viewBox="0.00 0.00 279.00 110.00" xmlns="http://www.w3.org/2000/svg" xmlns:xlink="http://www.w3.org/1999/xlink">
<g id="graph0" class="graph" transform="scale(1 1) rotate(0) translate(4 106)">
<title>structural::adapter::TextView::IsEmpty</title>
<polygon fill="white" stroke="none" points="-4,4 -4,-106 275,-106 275,4 -4,4"/>
<!-- Node1 -->
<g id="node1" class="node"><title>Node1</title>
<polygon fill="#bfbfbf" stroke="black" points="0,-36 0,-66 104,-66 104,-36 0,-36"/>
<text text-anchor="start" x="8" y="-54" font-family="Helvetica,sans-Serif" font-size="10.00">structural::adapter</text>
<text text-anchor="middle" x="52" y="-43" font-family="Helvetica,sans-Serif" font-size="10.00">::TextView::IsEmpty</text>
</g>
<!-- Node2 -->
<g id="node2" class="node"><title>Node2</title>
<g id="a_node2"><a xlink:href="../../df/d8e/classstructural_1_1adapter_1_1_text_shape_class_adapter.html#a26bf803d3646b0e6f59aa1c6859cfe3f" target="_top" xlink:title="structural::adapter\l::TextShapeClassAdapter\l::IsEmpty">
<polygon fill="white" stroke="black" points="141.5,-60.5 141.5,-101.5 269.5,-101.5 269.5,-60.5 141.5,-60.5"/>
<text text-anchor="start" x="149.5" y="-89.5" font-family="Helvetica,sans-Serif" font-size="10.00">structural::adapter</text>
<text text-anchor="start" x="149.5" y="-78.5" font-family="Helvetica,sans-Serif" font-size="10.00">::TextShapeClassAdapter</text>
<text text-anchor="middle" x="205.5" y="-67.5" font-family="Helvetica,sans-Serif" font-size="10.00">::IsEmpty</text>
</a>
</g>
</g>
<!-- Node1&#45;&gt;Node2 -->
<g id="edge1" class="edge"><title>Node1&#45;&gt;Node2</title>
<path fill="none" stroke="midnightblue" d="M114.254,-63.1296C123.21,-64.9029 132.446,-66.7318 141.436,-68.5122"/>
<polygon fill="midnightblue" stroke="midnightblue" points="114.78,-59.6659 104.291,-61.1566 113.421,-66.5325 114.78,-59.6659"/>
</g>
<!-- Node3 -->
<g id="node3" class="node"><title>Node3</title>
<g id="a_node3"><a xlink:href="../../d2/d3e/classstructural_1_1adapter_1_1_text_shape_object_adapter.html#a039fd271d162721facf6ba4718aa0962" target="_top" xlink:title="structural::adapter\l::TextShapeObjectAdapter\l::IsEmpty">
<polygon fill="white" stroke="black" points="140,-0.5 140,-41.5 271,-41.5 271,-0.5 140,-0.5"/>
<text text-anchor="start" x="148" y="-29.5" font-family="Helvetica,sans-Serif" font-size="10.00">structural::adapter</text>
<text text-anchor="start" x="148" y="-18.5" font-family="Helvetica,sans-Serif" font-size="10.00">::TextShapeObjectAdapter</text>
<text text-anchor="middle" x="205.5" y="-7.5" font-family="Helvetica,sans-Serif" font-size="10.00">::IsEmpty</text>
</a>
</g>
</g>
<!-- Node1&#45;&gt;Node3 -->
<g id="edge2" class="edge"><title>Node1&#45;&gt;Node3</title>
<path fill="none" stroke="midnightblue" d="M114.371,-38.8474C122.758,-37.1866 131.388,-35.4775 139.832,-33.8056"/>
<polygon fill="midnightblue" stroke="midnightblue" points="113.421,-35.4675 104.291,-40.8434 114.78,-42.3341 113.421,-35.4675"/>
</g>
</g>
</svg>
