<?xml version="1.0" encoding="UTF-8" standalone="no"?>
<!DOCTYPE svg PUBLIC "-//W3C//DTD SVG 1.1//EN"
 "http://www.w3.org/Graphics/SVG/1.1/DTD/svg11.dtd">
<!-- Generated by graphviz version 2.38.0 (20140413.2041)
 -->
<!-- Title: structural::adapter::TextView::GetOrigin Pages: 1 -->
<svg width="285pt" height="110pt"
 viewBox="0.00 0.00 285.00 110.00" xmlns="http://www.w3.org/2000/svg" xmlns:xlink="http://www.w3.org/1999/xlink">
<g id="graph0" class="graph" transform="scale(1 1) rotate(0) translate(4 106)">
<title>structural::adapter::TextView::GetOrigin</title>
<polygon fill="white" stroke="none" points="-4,4 -4,-106 281,-106 281,4 -4,4"/>
<!-- Node1 -->
<g id="node1" class="node"><title>Node1</title>
<polygon fill="#bfbfbf" stroke="black" points="0,-36 0,-66 110,-66 110,-36 0,-36"/>
<text text-anchor="start" x="8" y="-54" font-family="Helvetica,sans-Serif" font-size="10.00">structural::adapter</text>
<text text-anchor="middle" x="55" y="-43" font-family="Helvetica,sans-Serif" font-size="10.00">::TextView::GetOrigin</text>
</g>
<!-- Node2 -->
<g id="node2" class="node"><title>Node2</title>
<g id="a_node2"><a xlink:href="../../df/d8e/classstructural_1_1adapter_1_1_text_shape_class_adapter.html#a7c406f2050f8e7e487596e431bf0a8e3" target="_top" xlink:title="structural::adapter\l::TextShapeClassAdapter\l::BoundingBox">
<polygon fill="white" stroke="black" points="147.5,-60.5 147.5,-101.5 275.5,-101.5 275.5,-60.5 147.5,-60.5"/>
<text text-anchor="start" x="155.5" y="-89.5" font-family="Helvetica,sans-Serif" font-size="10.00">structural::adapter</text>
<text text-anchor="start" x="155.5" y="-78.5" font-family="Helvetica,sans-Serif" font-size="10.00">::TextShapeClassAdapter</text>
<text text-anchor="middle" x="211.5" y="-67.5" font-family="Helvetica,sans-Serif" font-size="10.00">::BoundingBox</text>
</a>
</g>
</g>
<!-- Node1&#45;&gt;Node2 -->
<g id="edge1" class="edge"><title>Node1&#45;&gt;Node2</title>
<path fill="none" stroke="midnightblue" d="M120.119,-63.4503C129.167,-65.2071 138.462,-67.012 147.488,-68.7647"/>
<polygon fill="midnightblue" stroke="midnightblue" points="120.52,-59.9629 110.037,-61.4925 119.186,-66.8346 120.52,-59.9629"/>
</g>
<!-- Node3 -->
<g id="node3" class="node"><title>Node3</title>
<g id="a_node3"><a xlink:href="../../d2/d3e/classstructural_1_1adapter_1_1_text_shape_object_adapter.html#a91b655030a923a405f0e1f2843eca956" target="_top" xlink:title="structural::adapter\l::TextShapeObjectAdapter\l::BoundingBox">
<polygon fill="white" stroke="black" points="146,-0.5 146,-41.5 277,-41.5 277,-0.5 146,-0.5"/>
<text text-anchor="start" x="154" y="-29.5" font-family="Helvetica,sans-Serif" font-size="10.00">structural::adapter</text>
<text text-anchor="start" x="154" y="-18.5" font-family="Helvetica,sans-Serif" font-size="10.00">::TextShapeObjectAdapter</text>
<text text-anchor="middle" x="211.5" y="-7.5" font-family="Helvetica,sans-Serif" font-size="10.00">::BoundingBox</text>
</a>
</g>
</g>
<!-- Node1&#45;&gt;Node3 -->
<g id="edge2" class="edge"><title>Node1&#45;&gt;Node3</title>
<path fill="none" stroke="midnightblue" d="M119.957,-38.5811C128.518,-36.9187 137.304,-35.2128 145.877,-33.5482"/>
<polygon fill="midnightblue" stroke="midnightblue" points="119.186,-35.1654 110.037,-40.5075 120.52,-42.0371 119.186,-35.1654"/>
</g>
</g>
</svg>
