<?xml version="1.0" encoding="UTF-8" standalone="no"?>
<!DOCTYPE svg PUBLIC "-//W3C//DTD SVG 1.1//EN"
 "http://www.w3.org/Graphics/SVG/1.1/DTD/svg11.dtd">
<!-- Generated by graphviz version 2.38.0 (20140413.2041)
 -->
<!-- Title: structural::adapter::TextView::GetExtent Pages: 1 -->
<svg width="288pt" height="110pt"
 viewBox="0.00 0.00 288.00 110.00" xmlns="http://www.w3.org/2000/svg" xmlns:xlink="http://www.w3.org/1999/xlink">
<g id="graph0" class="graph" transform="scale(1 1) rotate(0) translate(4 106)">
<title>structural::adapter::TextView::GetExtent</title>
<polygon fill="white" stroke="none" points="-4,4 -4,-106 284,-106 284,4 -4,4"/>
<!-- Node1 -->
<g id="node1" class="node"><title>Node1</title>
<polygon fill="#bfbfbf" stroke="black" points="0,-36 0,-66 113,-66 113,-36 0,-36"/>
<text text-anchor="start" x="8" y="-54" font-family="Helvetica,sans-Serif" font-size="10.00">structural::adapter</text>
<text text-anchor="middle" x="56.5" y="-43" font-family="Helvetica,sans-Serif" font-size="10.00">::TextView::GetExtent</text>
</g>
<!-- Node2 -->
<g id="node2" class="node"><title>Node2</title>
<g id="a_node2"><a xlink:href="../../df/d8e/classstructural_1_1adapter_1_1_text_shape_class_adapter.html#a7c406f2050f8e7e487596e431bf0a8e3" target="_top" xlink:title="structural::adapter\l::TextShapeClassAdapter\l::BoundingBox">
<polygon fill="white" stroke="black" points="150.5,-60.5 150.5,-101.5 278.5,-101.5 278.5,-60.5 150.5,-60.5"/>
<text text-anchor="start" x="158.5" y="-89.5" font-family="Helvetica,sans-Serif" font-size="10.00">structural::adapter</text>
<text text-anchor="start" x="158.5" y="-78.5" font-family="Helvetica,sans-Serif" font-size="10.00">::TextShapeClassAdapter</text>
<text text-anchor="middle" x="214.5" y="-67.5" font-family="Helvetica,sans-Serif" font-size="10.00">::BoundingBox</text>
</a>
</g>
</g>
<!-- Node1&#45;&gt;Node2 -->
<g id="edge1" class="edge"><title>Node1&#45;&gt;Node2</title>
<path fill="none" stroke="midnightblue" d="M123.349,-63.6632C132.284,-65.3815 141.437,-67.1417 150.324,-68.8507"/>
<polygon fill="midnightblue" stroke="midnightblue" points="123.86,-60.1975 113.379,-61.746 122.538,-67.0715 123.86,-60.1975"/>
</g>
<!-- Node3 -->
<g id="node3" class="node"><title>Node3</title>
<g id="a_node3"><a xlink:href="../../d2/d3e/classstructural_1_1adapter_1_1_text_shape_object_adapter.html#a91b655030a923a405f0e1f2843eca956" target="_top" xlink:title="structural::adapter\l::TextShapeObjectAdapter\l::BoundingBox">
<polygon fill="white" stroke="black" points="149,-0.5 149,-41.5 280,-41.5 280,-0.5 149,-0.5"/>
<text text-anchor="start" x="157" y="-29.5" font-family="Helvetica,sans-Serif" font-size="10.00">structural::adapter</text>
<text text-anchor="start" x="157" y="-18.5" font-family="Helvetica,sans-Serif" font-size="10.00">::TextShapeObjectAdapter</text>
<text text-anchor="middle" x="214.5" y="-7.5" font-family="Helvetica,sans-Serif" font-size="10.00">::BoundingBox</text>
</a>
</g>
</g>
<!-- Node1&#45;&gt;Node3 -->
<g id="edge2" class="edge"><title>Node1&#45;&gt;Node3</title>
<path fill="none" stroke="midnightblue" d="M123.258,-38.3542C131.773,-36.7167 140.488,-35.0408 148.983,-33.4072"/>
<polygon fill="midnightblue" stroke="midnightblue" points="122.538,-34.9285 113.379,-40.254 123.86,-41.8025 122.538,-34.9285"/>
</g>
</g>
</svg>
