<?xml version="1.0" encoding="UTF-8" standalone="no"?>
<!DOCTYPE svg PUBLIC "-//W3C//DTD SVG 1.1//EN"
 "http://www.w3.org/Graphics/SVG/1.1/DTD/svg11.dtd">
<!-- Generated by graphviz version 2.38.0 (20140413.2041)
 -->
<!-- Title: operationaltests::TEST_CLASS Pages: 1 -->
<svg width="299pt" height="88pt"
 viewBox="0.00 0.00 299.00 88.00" xmlns="http://www.w3.org/2000/svg" xmlns:xlink="http://www.w3.org/1999/xlink">
<g id="graph0" class="graph" transform="scale(1 1) rotate(0) translate(4 84)">
<title>operationaltests::TEST_CLASS</title>
<polygon fill="white" stroke="none" points="-4,4 -4,-84 295,-84 295,4 -4,4"/>
<!-- Node1 -->
<g id="node1" class="node"><title>Node1</title>
<polygon fill="#bfbfbf" stroke="black" points="0,-24.5 0,-54.5 116,-54.5 116,-24.5 0,-24.5"/>
<text text-anchor="start" x="8" y="-42.5" font-family="Helvetica,sans-Serif" font-size="10.00">operationaltests::TEST</text>
<text text-anchor="middle" x="58" y="-31.5" font-family="Helvetica,sans-Serif" font-size="10.00">_CLASS</text>
</g>
<!-- Node2 -->
<g id="node2" class="node"><title>Node2</title>
<g id="a_node2"><a xlink:href="../../d1/d60/classoperational_1_1command_1_1_my_class.html#ab12e732f325c8abee05807b0652f303e" target="_top" xlink:title="operational::command\l::MyClass::Action">
<polygon fill="white" stroke="black" points="165,-49.5 165,-79.5 278,-79.5 278,-49.5 165,-49.5"/>
<text text-anchor="start" x="173" y="-67.5" font-family="Helvetica,sans-Serif" font-size="10.00">operational::command</text>
<text text-anchor="middle" x="221.5" y="-56.5" font-family="Helvetica,sans-Serif" font-size="10.00">::MyClass::Action</text>
</a>
</g>
</g>
<!-- Node1&#45;&gt;Node2 -->
<g id="edge1" class="edge"><title>Node1&#45;&gt;Node2</title>
<path fill="none" stroke="midnightblue" d="M116.394,-48.3845C128.841,-50.3114 142.099,-52.3637 154.838,-54.3356"/>
<polygon fill="midnightblue" stroke="midnightblue" points="154.5,-57.8248 164.917,-55.8959 155.57,-50.9072 154.5,-57.8248"/>
</g>
<!-- Node3 -->
<g id="node3" class="node"><title>Node3</title>
<g id="a_node3"><a xlink:href="../../d3/dc0/classoperational_1_1command_1_1_simple_command.html#aa7593f69543aeba82ad910aa977a5dd2" target="_top" xlink:title="operational::command\l::SimpleCommand::Execute">
<polygon fill="white" stroke="black" points="152,-0.5 152,-30.5 291,-30.5 291,-0.5 152,-0.5"/>
<text text-anchor="start" x="160" y="-18.5" font-family="Helvetica,sans-Serif" font-size="10.00">operational::command</text>
<text text-anchor="middle" x="221.5" y="-7.5" font-family="Helvetica,sans-Serif" font-size="10.00">::SimpleCommand::Execute</text>
</a>
</g>
</g>
<!-- Node1&#45;&gt;Node3 -->
<g id="edge2" class="edge"><title>Node1&#45;&gt;Node3</title>
<path fill="none" stroke="midnightblue" d="M116.394,-30.9709C124.669,-29.7411 133.303,-28.458 141.905,-27.1798"/>
<polygon fill="midnightblue" stroke="midnightblue" points="142.587,-30.6169 151.964,-25.685 141.558,-23.693 142.587,-30.6169"/>
</g>
</g>
</svg>
