<?xml version="1.0" encoding="UTF-8" standalone="no"?>
<!DOCTYPE svg PUBLIC "-//W3C//DTD SVG 1.1//EN"
 "http://www.w3.org/Graphics/SVG/1.1/DTD/svg11.dtd">
<!-- Generated by graphviz version 2.38.0 (20140413.2041)
 -->
<!-- Title: operationaltests::TEST_CLASS Pages: 1 -->
<svg width="474pt" height="160pt"
 viewBox="0.00 0.00 474.00 159.50" xmlns="http://www.w3.org/2000/svg" xmlns:xlink="http://www.w3.org/1999/xlink">
<g id="graph0" class="graph" transform="scale(1 1) rotate(0) translate(4 155.5)">
<title>operationaltests::TEST_CLASS</title>
<polygon fill="white" stroke="none" points="-4,4 -4,-155.5 470,-155.5 470,4 -4,4"/>
<!-- Node1 -->
<g id="node1" class="node"><title>Node1</title>
<polygon fill="#bfbfbf" stroke="black" points="0,-66 0,-96 116,-96 116,-66 0,-66"/>
<text text-anchor="start" x="8" y="-84" font-family="Helvetica,sans-Serif" font-size="10.00">operationaltests::TEST</text>
<text text-anchor="middle" x="58" y="-73" font-family="Helvetica,sans-Serif" font-size="10.00">_CLASS</text>
</g>
<!-- Node2 -->
<g id="node2" class="node"><title>Node2</title>
<g id="a_node2"><a xlink:href="../../d0/dfc/classoperational_1_1interpreter_1_1_interpreter_context.html#a84fdc65884c8b292b97a5bae75dee3d8" target="_top" xlink:title="operational::interpreter\l::InterpreterContext::Assign">
<polygon fill="white" stroke="black" points="152,-121 152,-151 288,-151 288,-121 152,-121"/>
<text text-anchor="start" x="160" y="-139" font-family="Helvetica,sans-Serif" font-size="10.00">operational::interpreter</text>
<text text-anchor="middle" x="220" y="-128" font-family="Helvetica,sans-Serif" font-size="10.00">::InterpreterContext::Assign</text>
</a>
</g>
</g>
<!-- Node1&#45;&gt;Node2 -->
<g id="edge1" class="edge"><title>Node1&#45;&gt;Node2</title>
<path fill="none" stroke="midnightblue" d="M102.721,-96.029C122.21,-102.729 145.345,-110.681 165.826,-117.721"/>
<polygon fill="midnightblue" stroke="midnightblue" points="164.737,-121.048 175.332,-120.989 167.013,-114.428 164.737,-121.048"/>
</g>
<!-- Node4 -->
<g id="node4" class="node"><title>Node4</title>
<g id="a_node4"><a xlink:href="../../d0/d5f/classoperational_1_1interpreter_1_1_boolean_exp_interface.html#ae4e45663fa9e061438ab1e16a2e684f2" target="_top" xlink:title="operational::interpreter\l::BooleanExpInterface::\lReplace">
<polygon fill="white" stroke="black" points="161,-60.5 161,-101.5 279,-101.5 279,-60.5 161,-60.5"/>
<text text-anchor="start" x="169" y="-89.5" font-family="Helvetica,sans-Serif" font-size="10.00">operational::interpreter</text>
<text text-anchor="start" x="169" y="-78.5" font-family="Helvetica,sans-Serif" font-size="10.00">::BooleanExpInterface::</text>
<text text-anchor="middle" x="220" y="-67.5" font-family="Helvetica,sans-Serif" font-size="10.00">Replace</text>
</a>
</g>
</g>
<!-- Node1&#45;&gt;Node4 -->
<g id="edge3" class="edge"><title>Node1&#45;&gt;Node4</title>
<path fill="none" stroke="midnightblue" d="M116.312,-81C127.365,-81 139.048,-81 150.417,-81"/>
<polygon fill="midnightblue" stroke="midnightblue" points="150.742,-84.5001 160.742,-81 150.742,-77.5001 150.742,-84.5001"/>
</g>
<!-- Node5 -->
<g id="node5" class="node"><title>Node5</title>
<g id="a_node5"><a xlink:href="../../d0/d5f/classoperational_1_1interpreter_1_1_boolean_exp_interface.html#aa3762a8a1bc3b5ebf26cdeddc3601aa3" target="_top" xlink:title="operational::interpreter\l::BooleanExpInterface::\lEvaluate">
<polygon fill="white" stroke="black" points="161,-0.5 161,-41.5 279,-41.5 279,-0.5 161,-0.5"/>
<text text-anchor="start" x="169" y="-29.5" font-family="Helvetica,sans-Serif" font-size="10.00">operational::interpreter</text>
<text text-anchor="start" x="169" y="-18.5" font-family="Helvetica,sans-Serif" font-size="10.00">::BooleanExpInterface::</text>
<text text-anchor="middle" x="220" y="-7.5" font-family="Helvetica,sans-Serif" font-size="10.00">Evaluate</text>
</a>
</g>
</g>
<!-- Node1&#45;&gt;Node5 -->
<g id="edge4" class="edge"><title>Node1&#45;&gt;Node5</title>
<path fill="none" stroke="midnightblue" d="M99.3748,-65.8595C116.088,-59.5922 135.887,-52.1673 154.519,-45.1805"/>
<polygon fill="midnightblue" stroke="midnightblue" points="155.999,-48.3636 164.133,-41.5751 153.541,-41.8093 155.999,-48.3636"/>
</g>
<!-- Node3 -->
<g id="node3" class="node"><title>Node3</title>
<g id="a_node3"><a xlink:href="../../d4/db4/classoperational_1_1interpreter_1_1_variable_exp_interface.html#a0f4e75316e2f402527c71a33dbff27ec" target="_top" xlink:title="operational::interpreter\l::VariableExpInterface::name">
<polygon fill="white" stroke="black" points="324,-121 324,-151 466,-151 466,-121 324,-121"/>
<text text-anchor="start" x="332" y="-139" font-family="Helvetica,sans-Serif" font-size="10.00">operational::interpreter</text>
<text text-anchor="middle" x="395" y="-128" font-family="Helvetica,sans-Serif" font-size="10.00">::VariableExpInterface::name</text>
</a>
</g>
</g>
<!-- Node2&#45;&gt;Node3 -->
<g id="edge2" class="edge"><title>Node2&#45;&gt;Node3</title>
<path fill="none" stroke="midnightblue" d="M288.382,-136C296.678,-136 305.221,-136 313.685,-136"/>
<polygon fill="midnightblue" stroke="midnightblue" points="313.948,-139.5 323.948,-136 313.948,-132.5 313.948,-139.5"/>
</g>
</g>
</svg>
