<?xml version="1.0" encoding="UTF-8" standalone="no"?>
<!DOCTYPE svg PUBLIC "-//W3C//DTD SVG 1.1//EN"
 "http://www.w3.org/Graphics/SVG/1.1/DTD/svg11.dtd">
<!-- Generated by graphviz version 2.38.0 (20140413.2041)
 -->
<!-- Title: operationaltests::TEST_CLASS Pages: 1 -->
<svg width="309pt" height="88pt"
 viewBox="0.00 0.00 309.00 88.00" xmlns="http://www.w3.org/2000/svg" xmlns:xlink="http://www.w3.org/1999/xlink">
<g id="graph0" class="graph" transform="scale(1 1) rotate(0) translate(4 84)">
<title>operationaltests::TEST_CLASS</title>
<polygon fill="white" stroke="none" points="-4,4 -4,-84 305,-84 305,4 -4,4"/>
<!-- Node1 -->
<g id="node1" class="node"><title>Node1</title>
<polygon fill="#bfbfbf" stroke="black" points="0,-24.5 0,-54.5 116,-54.5 116,-24.5 0,-24.5"/>
<text text-anchor="start" x="8" y="-42.5" font-family="Helvetica,sans-Serif" font-size="10.00">operationaltests::TEST</text>
<text text-anchor="middle" x="58" y="-31.5" font-family="Helvetica,sans-Serif" font-size="10.00">_CLASS</text>
</g>
<!-- Node2 -->
<g id="node2" class="node"><title>Node2</title>
<g id="a_node2"><a xlink:href="../../d4/dc2/classoperational_1_1visitor_1_1_inventory_visitor.html#a580e3dde65df1864741638f818864d40" target="_top" xlink:title="operational::visitor\l::InventoryVisitor::GetInventory">
<polygon fill="white" stroke="black" points="152,-49.5 152,-79.5 301,-79.5 301,-49.5 152,-49.5"/>
<text text-anchor="start" x="160" y="-67.5" font-family="Helvetica,sans-Serif" font-size="10.00">operational::visitor</text>
<text text-anchor="middle" x="226.5" y="-56.5" font-family="Helvetica,sans-Serif" font-size="10.00">::InventoryVisitor::GetInventory</text>
</a>
</g>
</g>
<!-- Node1&#45;&gt;Node2 -->
<g id="edge1" class="edge"><title>Node1&#45;&gt;Node2</title>
<path fill="none" stroke="midnightblue" d="M116.3,-48.1036C124.548,-49.3421 133.175,-50.6373 141.807,-51.9335"/>
<polygon fill="midnightblue" stroke="midnightblue" points="141.513,-55.4285 151.922,-53.4522 142.552,-48.5061 141.513,-55.4285"/>
</g>
<!-- Node3 -->
<g id="node3" class="node"><title>Node3</title>
<g id="a_node3"><a xlink:href="../../d6/d7b/classoperational_1_1visitor_1_1_pricing_visitor.html#a2af293b540f605407dd5306875c19acf" target="_top" xlink:title="operational::visitor\l::PricingVisitor::GetTotalPrice">
<polygon fill="white" stroke="black" points="153.5,-0.5 153.5,-30.5 299.5,-30.5 299.5,-0.5 153.5,-0.5"/>
<text text-anchor="start" x="161.5" y="-18.5" font-family="Helvetica,sans-Serif" font-size="10.00">operational::visitor</text>
<text text-anchor="middle" x="226.5" y="-7.5" font-family="Helvetica,sans-Serif" font-size="10.00">::PricingVisitor::GetTotalPrice</text>
</a>
</g>
</g>
<!-- Node1&#45;&gt;Node3 -->
<g id="edge2" class="edge"><title>Node1&#45;&gt;Node3</title>
<path fill="none" stroke="midnightblue" d="M116.3,-31.2406C125.073,-29.9759 134.274,-28.6498 143.455,-27.3264"/>
<polygon fill="midnightblue" stroke="midnightblue" points="143.99,-30.7855 153.388,-25.8945 142.991,-23.8571 143.99,-30.7855"/>
</g>
</g>
</svg>
