<?xml version="1.0" encoding="UTF-8" standalone="no"?>
<!DOCTYPE svg PUBLIC "-//W3C//DTD SVG 1.1//EN"
 "http://www.w3.org/Graphics/SVG/1.1/DTD/svg11.dtd">
<!-- Generated by graphviz version 2.38.0 (20140413.2041)
 -->
<!-- Title: operationaltests::TEST_CLASS Pages: 1 -->
<svg width="524pt" height="39pt"
 viewBox="0.00 0.00 524.00 39.00" xmlns="http://www.w3.org/2000/svg" xmlns:xlink="http://www.w3.org/1999/xlink">
<g id="graph0" class="graph" transform="scale(1 1) rotate(0) translate(4 35)">
<title>operationaltests::TEST_CLASS</title>
<polygon fill="white" stroke="none" points="-4,4 -4,-35 520,-35 520,4 -4,4"/>
<!-- Node1 -->
<g id="node1" class="node"><title>Node1</title>
<polygon fill="#bfbfbf" stroke="black" points="0,-0.5 0,-30.5 116,-30.5 116,-0.5 0,-0.5"/>
<text text-anchor="start" x="8" y="-18.5" font-family="Helvetica,sans-Serif" font-size="10.00">operationaltests::TEST</text>
<text text-anchor="middle" x="58" y="-7.5" font-family="Helvetica,sans-Serif" font-size="10.00">_CLASS</text>
</g>
<!-- Node2 -->
<g id="node2" class="node"><title>Node2</title>
<g id="a_node2"><a xlink:href="../../db/d61/classoperational_1_1state_1_1_tcp_connection.html#af1a279cbe3f2047adfb2ef0496174f8c" target="_top" xlink:title="operational::state\l::TcpConnection::CreateConnection">
<polygon fill="white" stroke="black" points="152,-0.5 152,-30.5 322,-30.5 322,-0.5 152,-0.5"/>
<text text-anchor="start" x="160" y="-18.5" font-family="Helvetica,sans-Serif" font-size="10.00">operational::state</text>
<text text-anchor="middle" x="237" y="-7.5" font-family="Helvetica,sans-Serif" font-size="10.00">::TcpConnection::CreateConnection</text>
</a>
</g>
</g>
<!-- Node1&#45;&gt;Node2 -->
<g id="edge1" class="edge"><title>Node1&#45;&gt;Node2</title>
<path fill="none" stroke="midnightblue" d="M116.467,-15.5C124.593,-15.5 133.118,-15.5 141.717,-15.5"/>
<polygon fill="midnightblue" stroke="midnightblue" points="141.825,-19.0001 151.825,-15.5 141.825,-12.0001 141.825,-19.0001"/>
</g>
<!-- Node3 -->
<g id="node3" class="node"><title>Node3</title>
<g id="a_node3"><a xlink:href="../../db/d61/classoperational_1_1state_1_1_tcp_connection.html#a635f694c17bfad9095dc4d74bf8fd6de" target="_top" xlink:title="operational::state\l::TcpConnection::TcpConnection">
<polygon fill="white" stroke="black" points="358,-0.5 358,-30.5 516,-30.5 516,-0.5 358,-0.5"/>
<text text-anchor="start" x="366" y="-18.5" font-family="Helvetica,sans-Serif" font-size="10.00">operational::state</text>
<text text-anchor="middle" x="437" y="-7.5" font-family="Helvetica,sans-Serif" font-size="10.00">::TcpConnection::TcpConnection</text>
</a>
</g>
</g>
<!-- Node2&#45;&gt;Node3 -->
<g id="edge2" class="edge"><title>Node2&#45;&gt;Node3</title>
<path fill="none" stroke="midnightblue" d="M322.257,-15.5C330.638,-15.5 339.163,-15.5 347.585,-15.5"/>
<polygon fill="midnightblue" stroke="midnightblue" points="347.79,-19.0001 357.79,-15.5 347.79,-12.0001 347.79,-19.0001"/>
</g>
</g>
</svg>
