<?xml version="1.0" encoding="UTF-8" standalone="no"?>
<!DOCTYPE svg PUBLIC "-//W3C//DTD SVG 1.1//EN"
 "http://www.w3.org/Graphics/SVG/1.1/DTD/svg11.dtd">
<!-- Generated by graphviz version 2.38.0 (20140413.2041)
 -->
<!-- Title: operationaltests::TEST_CLASS Pages: 1 -->
<svg width="301pt" height="88pt"
 viewBox="0.00 0.00 301.00 88.00" xmlns="http://www.w3.org/2000/svg" xmlns:xlink="http://www.w3.org/1999/xlink">
<g id="graph0" class="graph" transform="scale(1 1) rotate(0) translate(4 84)">
<title>operationaltests::TEST_CLASS</title>
<polygon fill="white" stroke="none" points="-4,4 -4,-84 297,-84 297,4 -4,4"/>
<!-- Node1 -->
<g id="node1" class="node"><title>Node1</title>
<polygon fill="#bfbfbf" stroke="black" points="0,-24.5 0,-54.5 116,-54.5 116,-24.5 0,-24.5"/>
<text text-anchor="start" x="8" y="-42.5" font-family="Helvetica,sans-Serif" font-size="10.00">operationaltests::TEST</text>
<text text-anchor="middle" x="58" y="-31.5" font-family="Helvetica,sans-Serif" font-size="10.00">_CLASS</text>
</g>
<!-- Node2 -->
<g id="node2" class="node"><title>Node2</title>
<g id="a_node2"><a xlink:href="../../d2/dc3/classoperational_1_1strategy_1_1_strategy_context.html#ac2e5a735d077676ef5bb2e4d1a95aee4" target="_top" xlink:title="operational::strategy\l::StrategyContext::Operation">
<polygon fill="white" stroke="black" points="152,-49.5 152,-79.5 293,-79.5 293,-49.5 152,-49.5"/>
<text text-anchor="start" x="160" y="-67.5" font-family="Helvetica,sans-Serif" font-size="10.00">operational::strategy</text>
<text text-anchor="middle" x="222.5" y="-56.5" font-family="Helvetica,sans-Serif" font-size="10.00">::StrategyContext::Operation</text>
</a>
</g>
</g>
<!-- Node1&#45;&gt;Node2 -->
<g id="edge1" class="edge"><title>Node1&#45;&gt;Node2</title>
<path fill="none" stroke="midnightblue" d="M116.291,-48.3141C124.567,-49.5872 133.206,-50.9163 141.822,-52.2418"/>
<polygon fill="midnightblue" stroke="midnightblue" points="141.486,-55.7313 151.902,-53.7926 142.551,-48.8127 141.486,-55.7313"/>
</g>
<!-- Node3 -->
<g id="node3" class="node"><title>Node3</title>
<g id="a_node3"><a xlink:href="../../d2/dc3/classoperational_1_1strategy_1_1_strategy_context.html#ad64d2103021d3641a7f3abee2e6b5b77" target="_top" xlink:title="operational::strategy\l::StrategyContext::result">
<polygon fill="white" stroke="black" points="161,-0.5 161,-30.5 284,-30.5 284,-0.5 161,-0.5"/>
<text text-anchor="start" x="169" y="-18.5" font-family="Helvetica,sans-Serif" font-size="10.00">operational::strategy</text>
<text text-anchor="middle" x="222.5" y="-7.5" font-family="Helvetica,sans-Serif" font-size="10.00">::StrategyContext::result</text>
</a>
</g>
</g>
<!-- Node1&#45;&gt;Node3 -->
<g id="edge2" class="edge"><title>Node1&#45;&gt;Node3</title>
<path fill="none" stroke="midnightblue" d="M116.291,-31.0385C127.458,-29.3893 139.287,-27.6422 150.827,-25.9378"/>
<polygon fill="midnightblue" stroke="midnightblue" points="151.489,-29.3782 160.87,-24.4546 150.466,-22.4533 151.489,-29.3782"/>
</g>
</g>
</svg>
