<?xml version="1.0" encoding="UTF-8" standalone="no"?>
<!DOCTYPE svg PUBLIC "-//W3C//DTD SVG 1.1//EN"
 "http://www.w3.org/Graphics/SVG/1.1/DTD/svg11.dtd">
<!-- Generated by graphviz version 2.38.0 (20140413.2041)
 -->
<!-- Title: src/operational/src/iterator/reverse_list_iterator.h Pages: 1 -->
<svg width="210pt" height="218pt"
 viewBox="0.00 0.00 209.50 218.00" xmlns="http://www.w3.org/2000/svg" xmlns:xlink="http://www.w3.org/1999/xlink">
<g id="graph0" class="graph" transform="scale(1 1) rotate(0) translate(4 214)">
<title>src/operational/src/iterator/reverse_list_iterator.h</title>
<polygon fill="white" stroke="none" points="-4,4 -4,-214 205.5,-214 205.5,4 -4,4"/>
<!-- Node1 -->
<g id="node1" class="node"><title>Node1</title>
<polygon fill="#bfbfbf" stroke="black" points="19,-168.5 19,-209.5 120,-209.5 120,-168.5 19,-168.5"/>
<text text-anchor="start" x="27" y="-197.5" font-family="Helvetica,sans-Serif" font-size="10.00">src/operational/src</text>
<text text-anchor="start" x="27" y="-186.5" font-family="Helvetica,sans-Serif" font-size="10.00">/iterator/reverse_list</text>
<text text-anchor="middle" x="69.5" y="-175.5" font-family="Helvetica,sans-Serif" font-size="10.00">_iterator.h</text>
</g>
<!-- Node2 -->
<g id="node2" class="node"><title>Node2</title>
<g id="a_node2"><a xlink:href="../../d6/da4/iterator__interface_8h.html" target="_top" xlink:title="iterator_interface.h">
<polygon fill="white" stroke="black" points="0,-0.5 0,-19.5 97,-19.5 97,-0.5 0,-0.5"/>
<text text-anchor="middle" x="48.5" y="-7.5" font-family="Helvetica,sans-Serif" font-size="10.00">iterator_interface.h</text>
</a>
</g>
</g>
<!-- Node1&#45;&gt;Node2 -->
<g id="edge1" class="edge"><title>Node1&#45;&gt;Node2</title>
<path fill="none" stroke="midnightblue" d="M67.1724,-168.382C63.103,-134.082 54.7475,-63.6579 50.7403,-29.8828"/>
<polygon fill="midnightblue" stroke="midnightblue" points="54.1723,-29.1018 49.5184,-19.5838 47.2211,-29.9265 54.1723,-29.1018"/>
</g>
<!-- Node3 -->
<g id="node3" class="node"><title>Node3</title>
<g id="a_node3"><a xlink:href="../../da/d23/list_8h.html" target="_top" xlink:title="list.h">
<polygon fill="white" stroke="black" points="83.5,-112.5 83.5,-131.5 121.5,-131.5 121.5,-112.5 83.5,-112.5"/>
<text text-anchor="middle" x="102.5" y="-119.5" font-family="Helvetica,sans-Serif" font-size="10.00">list.h</text>
</a>
</g>
</g>
<!-- Node1&#45;&gt;Node3 -->
<g id="edge2" class="edge"><title>Node1&#45;&gt;Node3</title>
<path fill="none" stroke="midnightblue" d="M79.4011,-168.498C83.8768,-159.682 89.1281,-149.339 93.4919,-140.743"/>
<polygon fill="midnightblue" stroke="midnightblue" points="96.7011,-142.154 98.1072,-131.652 90.4594,-138.985 96.7011,-142.154"/>
</g>
<!-- Node4 -->
<g id="node4" class="node"><title>Node4</title>
<g id="a_node4"><a xlink:href="../../d9/d71/list__iterator_8h.html" target="_top" xlink:title="list_iterator.h">
<polygon fill="white" stroke="black" points="66,-56.5 66,-75.5 139,-75.5 139,-56.5 66,-56.5"/>
<text text-anchor="middle" x="102.5" y="-63.5" font-family="Helvetica,sans-Serif" font-size="10.00">list_iterator.h</text>
</a>
</g>
</g>
<!-- Node3&#45;&gt;Node4 -->
<g id="edge3" class="edge"><title>Node3&#45;&gt;Node4</title>
<path fill="none" stroke="midnightblue" d="M102.5,-112.083C102.5,-105.006 102.5,-94.8611 102.5,-85.9865"/>
<polygon fill="midnightblue" stroke="midnightblue" points="106,-85.751 102.5,-75.7511 99.0001,-85.7511 106,-85.751"/>
</g>
<!-- Node5 -->
<g id="node5" class="node"><title>Node5</title>
<g id="a_node5"><a xlink:href="../../dd/d8c/list__interface_8h.html" target="_top" xlink:title="list_interface.h">
<polygon fill="white" stroke="black" points="121.5,-0.5 121.5,-19.5 201.5,-19.5 201.5,-0.5 121.5,-0.5"/>
<text text-anchor="middle" x="161.5" y="-7.5" font-family="Helvetica,sans-Serif" font-size="10.00">list_interface.h</text>
</a>
</g>
</g>
<!-- Node3&#45;&gt;Node5 -->
<g id="edge6" class="edge"><title>Node3&#45;&gt;Node5</title>
<path fill="none" stroke="midnightblue" d="M114.363,-112.377C124.73,-104.191 139.361,-90.9419 147.5,-76 155.351,-61.5862 158.8,-43.1319 160.315,-29.572"/>
<polygon fill="midnightblue" stroke="midnightblue" points="163.808,-29.7941 161.186,-19.5289 156.835,-29.1889 163.808,-29.7941"/>
</g>
<!-- Node4&#45;&gt;Node2 -->
<g id="edge4" class="edge"><title>Node4&#45;&gt;Node2</title>
<path fill="none" stroke="midnightblue" d="M93.583,-56.083C85.7195,-48.2195 74.0688,-36.5688 64.5813,-27.0813"/>
<polygon fill="midnightblue" stroke="midnightblue" points="66.7971,-24.3473 57.2511,-19.7511 61.8473,-29.2971 66.7971,-24.3473"/>
</g>
<!-- Node4&#45;&gt;Node5 -->
<g id="edge5" class="edge"><title>Node4&#45;&gt;Node5</title>
<path fill="none" stroke="midnightblue" d="M111.979,-56.324C120.701,-48.3414 133.843,-36.3128 144.398,-26.6529"/>
<polygon fill="midnightblue" stroke="midnightblue" points="146.834,-29.1674 151.848,-19.8339 142.108,-24.0036 146.834,-29.1674"/>
</g>
</g>
</svg>
