<?xml version="1.0" encoding="UTF-8" standalone="no"?>
<!DOCTYPE svg PUBLIC "-//W3C//DTD SVG 1.1//EN"
 "http://www.w3.org/Graphics/SVG/1.1/DTD/svg11.dtd">
<!-- Generated by graphviz version 2.38.0 (20140413.2041)
 -->
<!-- Title: src/structural/src/facade/program_node_builder_interface.h Pages: 1 -->
<svg width="308pt" height="273pt"
 viewBox="0.00 0.00 308.00 273.00" xmlns="http://www.w3.org/2000/svg" xmlns:xlink="http://www.w3.org/1999/xlink">
<g id="graph0" class="graph" transform="scale(1 1) rotate(0) translate(4 269)">
<title>src/structural/src/facade/program_node_builder_interface.h</title>
<polygon fill="white" stroke="none" points="-4,4 -4,-269 304,-269 304,4 -4,4"/>
<!-- Node1 -->
<g id="node1" class="node"><title>Node1</title>
<polygon fill="#bfbfbf" stroke="black" points="67,-223.5 67,-264.5 180,-264.5 180,-223.5 67,-223.5"/>
<text text-anchor="start" x="75" y="-252.5" font-family="Helvetica,sans-Serif" font-size="10.00">src/structural/src</text>
<text text-anchor="start" x="75" y="-241.5" font-family="Helvetica,sans-Serif" font-size="10.00">/facade/program_node</text>
<text text-anchor="middle" x="123.5" y="-230.5" font-family="Helvetica,sans-Serif" font-size="10.00">_builder_interface.h</text>
</g>
<!-- Node2 -->
<g id="node2" class="node"><title>Node2</title>
<g id="a_node2"><a xlink:href="../../d2/d57/program__node__builder_8h.html" target="_top" xlink:title="src/structural/src\l/facade/program_node\l_builder.h">
<polygon fill="white" stroke="black" points="67,-145.5 67,-186.5 180,-186.5 180,-145.5 67,-145.5"/>
<text text-anchor="start" x="75" y="-174.5" font-family="Helvetica,sans-Serif" font-size="10.00">src/structural/src</text>
<text text-anchor="start" x="75" y="-163.5" font-family="Helvetica,sans-Serif" font-size="10.00">/facade/program_node</text>
<text text-anchor="middle" x="123.5" y="-152.5" font-family="Helvetica,sans-Serif" font-size="10.00">_builder.h</text>
</a>
</g>
</g>
<!-- Node1&#45;&gt;Node2 -->
<g id="edge1" class="edge"><title>Node1&#45;&gt;Node2</title>
<path fill="none" stroke="midnightblue" d="M123.5,-213.297C123.5,-204.301 123.5,-194.653 123.5,-186.506"/>
<polygon fill="midnightblue" stroke="midnightblue" points="120,-213.428 123.5,-223.428 127,-213.428 120,-213.428"/>
</g>
<!-- Node3 -->
<g id="node3" class="node"><title>Node3</title>
<g id="a_node3"><a xlink:href="../../da/dc6/compiler_8cc.html" target="_top" xlink:title="src/structural/src\l/facade/compiler.cc">
<polygon fill="white" stroke="black" points="0,-0.5 0,-30.5 101,-30.5 101,-0.5 0,-0.5"/>
<text text-anchor="start" x="8" y="-18.5" font-family="Helvetica,sans-Serif" font-size="10.00">src/structural/src</text>
<text text-anchor="middle" x="50.5" y="-7.5" font-family="Helvetica,sans-Serif" font-size="10.00">/facade/compiler.cc</text>
</a>
</g>
</g>
<!-- Node2&#45;&gt;Node3 -->
<g id="edge2" class="edge"><title>Node2&#45;&gt;Node3</title>
<path fill="none" stroke="midnightblue" d="M91.6797,-138.16C83.3267,-129.631 75.0995,-119.628 69.5,-109 56.1269,-83.6173 52.1586,-49.7123 50.9863,-30.7978"/>
<polygon fill="midnightblue" stroke="midnightblue" points="89.376,-140.802 98.9896,-145.255 94.2512,-135.779 89.376,-140.802"/>
</g>
<!-- Node4 -->
<g id="node4" class="node"><title>Node4</title>
<g id="a_node4"><a xlink:href="../../d5/d36/parser_8h.html" target="_top" xlink:title="src/structural/src\l/facade/parser.h">
<polygon fill="white" stroke="black" points="78.5,-73 78.5,-103 168.5,-103 168.5,-73 78.5,-73"/>
<text text-anchor="start" x="86.5" y="-91" font-family="Helvetica,sans-Serif" font-size="10.00">src/structural/src</text>
<text text-anchor="middle" x="123.5" y="-80" font-family="Helvetica,sans-Serif" font-size="10.00">/facade/parser.h</text>
</a>
</g>
</g>
<!-- Node2&#45;&gt;Node4 -->
<g id="edge3" class="edge"><title>Node2&#45;&gt;Node4</title>
<path fill="none" stroke="midnightblue" d="M123.5,-135.283C123.5,-124.254 123.5,-112.246 123.5,-103.225"/>
<polygon fill="midnightblue" stroke="midnightblue" points="120,-135.428 123.5,-145.428 127,-135.428 120,-135.428"/>
</g>
<!-- Node6 -->
<g id="node6" class="node"><title>Node6</title>
<g id="a_node6"><a xlink:href="../../db/d62/program__node__builder_8cc.html" target="_top" xlink:title="src/structural/src\l/facade/program_node\l_builder.cc">
<polygon fill="white" stroke="black" points="187,-67.5 187,-108.5 300,-108.5 300,-67.5 187,-67.5"/>
<text text-anchor="start" x="195" y="-96.5" font-family="Helvetica,sans-Serif" font-size="10.00">src/structural/src</text>
<text text-anchor="start" x="195" y="-85.5" font-family="Helvetica,sans-Serif" font-size="10.00">/facade/program_node</text>
<text text-anchor="middle" x="243.5" y="-74.5" font-family="Helvetica,sans-Serif" font-size="10.00">_builder.cc</text>
</a>
</g>
</g>
<!-- Node2&#45;&gt;Node6 -->
<g id="edge6" class="edge"><title>Node2&#45;&gt;Node6</title>
<path fill="none" stroke="midnightblue" d="M163.101,-139.919C179.234,-129.702 197.6,-118.07 212.702,-108.506"/>
<polygon fill="midnightblue" stroke="midnightblue" points="160.978,-137.121 154.403,-145.428 164.724,-143.034 160.978,-137.121"/>
</g>
<!-- Node4&#45;&gt;Node3 -->
<g id="edge4" class="edge"><title>Node4&#45;&gt;Node3</title>
<path fill="none" stroke="midnightblue" d="M101.432,-65.688C89.7159,-54.3729 75.6349,-40.7741 65.2507,-30.7455"/>
<polygon fill="midnightblue" stroke="midnightblue" points="99.1028,-68.304 108.727,-72.7333 103.966,-63.2688 99.1028,-68.304"/>
</g>
<!-- Node5 -->
<g id="node5" class="node"><title>Node5</title>
<g id="a_node5"><a xlink:href="../../dc/dc9/parser_8cc.html" target="_top" xlink:title="src/structural/src\l/facade/parser.cc">
<polygon fill="white" stroke="black" points="119.5,-0.5 119.5,-30.5 211.5,-30.5 211.5,-0.5 119.5,-0.5"/>
<text text-anchor="start" x="127.5" y="-18.5" font-family="Helvetica,sans-Serif" font-size="10.00">src/structural/src</text>
<text text-anchor="middle" x="165.5" y="-7.5" font-family="Helvetica,sans-Serif" font-size="10.00">/facade/parser.cc</text>
</a>
</g>
</g>
<!-- Node4&#45;&gt;Node5 -->
<g id="edge5" class="edge"><title>Node4&#45;&gt;Node5</title>
<path fill="none" stroke="midnightblue" d="M137.168,-64.0566C143.704,-53.0859 151.323,-40.2965 157.013,-30.7455"/>
<polygon fill="midnightblue" stroke="midnightblue" points="134.111,-62.3509 131.999,-72.7333 140.124,-65.9336 134.111,-62.3509"/>
</g>
</g>
</svg>
