<?xml version="1.0" encoding="UTF-8" standalone="no"?>
<!DOCTYPE svg PUBLIC "-//W3C//DTD SVG 1.1//EN"
 "http://www.w3.org/Graphics/SVG/1.1/DTD/svg11.dtd">
<!-- Generated by graphviz version 2.38.0 (20140413.2041)
 -->
<!-- Title: src/operational/src/mediator/entry_field.h Pages: 1 -->
<svg width="319pt" height="195pt"
 viewBox="0.00 0.00 319.00 195.00" xmlns="http://www.w3.org/2000/svg" xmlns:xlink="http://www.w3.org/1999/xlink">
<g id="graph0" class="graph" transform="scale(1 1) rotate(0) translate(4 191)">
<title>src/operational/src/mediator/entry_field.h</title>
<polygon fill="white" stroke="none" points="-4,4 -4,-191 315,-191 315,4 -4,4"/>
<!-- Node1 -->
<g id="node1" class="node"><title>Node1</title>
<polygon fill="#bfbfbf" stroke="black" points="67.5,-156.5 67.5,-186.5 180.5,-186.5 180.5,-156.5 67.5,-156.5"/>
<text text-anchor="start" x="75.5" y="-174.5" font-family="Helvetica,sans-Serif" font-size="10.00">src/operational/src</text>
<text text-anchor="middle" x="124" y="-163.5" font-family="Helvetica,sans-Serif" font-size="10.00">/mediator/entry_field.h</text>
</g>
<!-- Node2 -->
<g id="node2" class="node"><title>Node2</title>
<g id="a_node2"><a xlink:href="../../dd/d7d/entry__field_8cc.html" target="_top" xlink:title="src/operational/src\l/mediator/entry_field.cc">
<polygon fill="white" stroke="black" points="0,-84 0,-114 118,-114 118,-84 0,-84"/>
<text text-anchor="start" x="8" y="-102" font-family="Helvetica,sans-Serif" font-size="10.00">src/operational/src</text>
<text text-anchor="middle" x="59" y="-91" font-family="Helvetica,sans-Serif" font-size="10.00">/mediator/entry_field.cc</text>
</a>
</g>
</g>
<!-- Node1&#45;&gt;Node2 -->
<g id="edge1" class="edge"><title>Node1&#45;&gt;Node2</title>
<path fill="none" stroke="midnightblue" d="M104.052,-148.864C93.6798,-137.614 81.2923,-124.179 72.1342,-114.246"/>
<polygon fill="midnightblue" stroke="midnightblue" points="101.495,-151.254 110.846,-156.233 106.641,-146.509 101.495,-151.254"/>
</g>
<!-- Node3 -->
<g id="node3" class="node"><title>Node3</title>
<g id="a_node3"><a xlink:href="../../d6/d4a/font__dialog__director_8h.html" target="_top" xlink:title="src/operational/src\l/mediator/font_dialog\l_director.h">
<polygon fill="white" stroke="black" points="136.5,-78.5 136.5,-119.5 243.5,-119.5 243.5,-78.5 136.5,-78.5"/>
<text text-anchor="start" x="144.5" y="-107.5" font-family="Helvetica,sans-Serif" font-size="10.00">src/operational/src</text>
<text text-anchor="start" x="144.5" y="-96.5" font-family="Helvetica,sans-Serif" font-size="10.00">/mediator/font_dialog</text>
<text text-anchor="middle" x="190" y="-85.5" font-family="Helvetica,sans-Serif" font-size="10.00">_director.h</text>
</a>
</g>
</g>
<!-- Node1&#45;&gt;Node3 -->
<g id="edge2" class="edge"><title>Node1&#45;&gt;Node3</title>
<path fill="none" stroke="midnightblue" d="M144.295,-148.821C153.027,-139.494 163.159,-128.671 171.662,-119.588"/>
<polygon fill="midnightblue" stroke="midnightblue" points="141.635,-146.541 137.356,-156.233 146.745,-151.325 141.635,-146.541"/>
</g>
<!-- Node4 -->
<g id="node4" class="node"><title>Node4</title>
<g id="a_node4"><a xlink:href="../../d6/d8a/font__dialog__director_8cc.html" target="_top" xlink:title="src/operational/src\l/mediator/font_dialog\l_director.cc">
<polygon fill="white" stroke="black" points="71.5,-0.5 71.5,-41.5 178.5,-41.5 178.5,-0.5 71.5,-0.5"/>
<text text-anchor="start" x="79.5" y="-29.5" font-family="Helvetica,sans-Serif" font-size="10.00">src/operational/src</text>
<text text-anchor="start" x="79.5" y="-18.5" font-family="Helvetica,sans-Serif" font-size="10.00">/mediator/font_dialog</text>
<text text-anchor="middle" x="125" y="-7.5" font-family="Helvetica,sans-Serif" font-size="10.00">_director.cc</text>
</a>
</g>
</g>
<!-- Node3&#45;&gt;Node4 -->
<g id="edge3" class="edge"><title>Node3&#45;&gt;Node4</title>
<path fill="none" stroke="midnightblue" d="M166.589,-70.627C158.347,-60.9901 149.257,-50.3617 141.682,-41.5056"/>
<polygon fill="midnightblue" stroke="midnightblue" points="164.101,-73.1034 173.261,-78.4281 169.421,-68.5536 164.101,-73.1034"/>
</g>
<!-- Node5 -->
<g id="node5" class="node"><title>Node5</title>
<g id="a_node5"><a xlink:href="../../da/d87/mediator__test_8cc.html" target="_top" xlink:title="src/operational_tests\l/src/mediator/mediator\l_test.cc">
<polygon fill="white" stroke="black" points="197,-0.5 197,-41.5 311,-41.5 311,-0.5 197,-0.5"/>
<text text-anchor="start" x="205" y="-29.5" font-family="Helvetica,sans-Serif" font-size="10.00">src/operational_tests</text>
<text text-anchor="start" x="205" y="-18.5" font-family="Helvetica,sans-Serif" font-size="10.00">/src/mediator/mediator</text>
<text text-anchor="middle" x="254" y="-7.5" font-family="Helvetica,sans-Serif" font-size="10.00">_test.cc</text>
</a>
</g>
</g>
<!-- Node3&#45;&gt;Node5 -->
<g id="edge4" class="edge"><title>Node3&#45;&gt;Node5</title>
<path fill="none" stroke="midnightblue" d="M213.051,-70.627C221.166,-60.9901 230.117,-50.3617 237.574,-41.5056"/>
<polygon fill="midnightblue" stroke="midnightblue" points="210.246,-68.5245 206.482,-78.4281 215.6,-73.0335 210.246,-68.5245"/>
</g>
</g>
</svg>
