<?xml version="1.0" encoding="UTF-8" standalone="no"?>
<!DOCTYPE svg PUBLIC "-//W3C//DTD SVG 1.1//EN"
 "http://www.w3.org/Graphics/SVG/1.1/DTD/svg11.dtd">
<!-- Generated by graphviz version 2.38.0 (20140413.2041)
 -->
<!-- Title: src/structural/src/bridge/p_m_window_imp.cc Pages: 1 -->
<svg width="201pt" height="207pt"
 viewBox="0.00 0.00 200.50 207.00" xmlns="http://www.w3.org/2000/svg" xmlns:xlink="http://www.w3.org/1999/xlink">
<g id="graph0" class="graph" transform="scale(1 1) rotate(0) translate(4 203)">
<title>src/structural/src/bridge/p_m_window_imp.cc</title>
<polygon fill="white" stroke="none" points="-4,4 -4,-203 196.5,-203 196.5,4 -4,4"/>
<!-- Node1 -->
<g id="node1" class="node"><title>Node1</title>
<polygon fill="#bfbfbf" stroke="black" points="49,-168.5 49,-198.5 188,-198.5 188,-168.5 49,-168.5"/>
<text text-anchor="start" x="57" y="-186.5" font-family="Helvetica,sans-Serif" font-size="10.00">src/structural/src</text>
<text text-anchor="middle" x="118.5" y="-175.5" font-family="Helvetica,sans-Serif" font-size="10.00">/bridge/p_m_window_imp.cc</text>
</g>
<!-- Node2 -->
<g id="node2" class="node"><title>Node2</title>
<g id="a_node2"><a xlink:href="../../d0/d0a/p__m__window__imp_8h.html" target="_top" xlink:title="p_m_window_imp.h">
<polygon fill="white" stroke="black" points="21,-112.5 21,-131.5 122,-131.5 122,-112.5 21,-112.5"/>
<text text-anchor="middle" x="71.5" y="-119.5" font-family="Helvetica,sans-Serif" font-size="10.00">p_m_window_imp.h</text>
</a>
</g>
</g>
<!-- Node1&#45;&gt;Node2 -->
<g id="edge1" class="edge"><title>Node1&#45;&gt;Node2</title>
<path fill="none" stroke="midnightblue" d="M107.362,-168.399C100.532,-159.753 91.755,-148.642 84.5936,-139.576"/>
<polygon fill="midnightblue" stroke="midnightblue" points="87.284,-137.335 78.3389,-131.658 81.791,-141.674 87.284,-137.335"/>
</g>
<!-- Node5 -->
<g id="node5" class="node"><title>Node5</title>
<polygon fill="white" stroke="#bfbfbf" points="140.5,-112.5 140.5,-131.5 192.5,-131.5 192.5,-112.5 140.5,-112.5"/>
<text text-anchor="middle" x="166.5" y="-119.5" font-family="Helvetica,sans-Serif" font-size="10.00">sstream</text>
</g>
<!-- Node1&#45;&gt;Node5 -->
<g id="edge5" class="edge"><title>Node1&#45;&gt;Node5</title>
<path fill="none" stroke="midnightblue" d="M129.875,-168.399C136.85,-159.753 145.814,-148.642 153.128,-139.576"/>
<polygon fill="midnightblue" stroke="midnightblue" points="155.961,-141.638 159.516,-131.658 150.513,-137.243 155.961,-141.638"/>
</g>
<!-- Node3 -->
<g id="node3" class="node"><title>Node3</title>
<g id="a_node3"><a xlink:href="../../d5/d85/window__imp_8h.html" target="_top" xlink:title="window_imp.h">
<polygon fill="white" stroke="black" points="0,-56.5 0,-75.5 77,-75.5 77,-56.5 0,-56.5"/>
<text text-anchor="middle" x="38.5" y="-63.5" font-family="Helvetica,sans-Serif" font-size="10.00">window_imp.h</text>
</a>
</g>
</g>
<!-- Node2&#45;&gt;Node3 -->
<g id="edge2" class="edge"><title>Node2&#45;&gt;Node3</title>
<path fill="none" stroke="midnightblue" d="M66.0507,-112.083C61.4855,-104.613 54.8316,-93.7244 49.2066,-84.5199"/>
<polygon fill="midnightblue" stroke="midnightblue" points="52.0489,-82.4588 43.8479,-75.7511 46.0759,-86.109 52.0489,-82.4588"/>
</g>
<!-- Node4 -->
<g id="node4" class="node"><title>Node4</title>
<polygon fill="white" stroke="#bfbfbf" points="51,-0.5 51,-19.5 92,-19.5 92,-0.5 51,-0.5"/>
<text text-anchor="middle" x="71.5" y="-7.5" font-family="Helvetica,sans-Serif" font-size="10.00">string</text>
</g>
<!-- Node2&#45;&gt;Node4 -->
<g id="edge4" class="edge"><title>Node2&#45;&gt;Node4</title>
<path fill="none" stroke="midnightblue" d="M75.3557,-112.249C79.0577,-103.333 84.3894,-89.006 86.5,-76 89.0798,-60.1027 84.4306,-42.2964 79.645,-29.3461"/>
<polygon fill="midnightblue" stroke="midnightblue" points="82.7561,-27.7049 75.7486,-19.7585 76.2711,-30.3404 82.7561,-27.7049"/>
</g>
<!-- Node3&#45;&gt;Node4 -->
<g id="edge3" class="edge"><title>Node3&#45;&gt;Node4</title>
<path fill="none" stroke="midnightblue" d="M43.9493,-56.083C48.5145,-48.6127 55.1684,-37.7244 60.7934,-28.5199"/>
<polygon fill="midnightblue" stroke="midnightblue" points="63.9241,-30.109 66.1521,-19.7511 57.9511,-26.4588 63.9241,-30.109"/>
</g>
</g>
</svg>
