<?xml version="1.0" encoding="UTF-8" standalone="no"?>
<!DOCTYPE svg PUBLIC "-//W3C//DTD SVG 1.1//EN"
 "http://www.w3.org/Graphics/SVG/1.1/DTD/svg11.dtd">
<!-- Generated by graphviz version 2.38.0 (20140413.2041)
 -->
<!-- Title: src/operational/src/mediator/dialog_director_interface.h Pages: 1 -->
<svg width="145pt" height="162pt"
 viewBox="0.00 0.00 145.00 162.00" xmlns="http://www.w3.org/2000/svg" xmlns:xlink="http://www.w3.org/1999/xlink">
<g id="graph0" class="graph" transform="scale(1 1) rotate(0) translate(4 158)">
<title>src/operational/src/mediator/dialog_director_interface.h</title>
<polygon fill="white" stroke="none" points="-4,4 -4,-158 141,-158 141,4 -4,4"/>
<!-- Node1 -->
<g id="node1" class="node"><title>Node1</title>
<polygon fill="#bfbfbf" stroke="black" points="7,-112.5 7,-153.5 130,-153.5 130,-112.5 7,-112.5"/>
<text text-anchor="start" x="15" y="-141.5" font-family="Helvetica,sans-Serif" font-size="10.00">src/operational/src</text>
<text text-anchor="start" x="15" y="-130.5" font-family="Helvetica,sans-Serif" font-size="10.00">/mediator/dialog_director</text>
<text text-anchor="middle" x="68.5" y="-119.5" font-family="Helvetica,sans-Serif" font-size="10.00">_interface.h</text>
</g>
<!-- Node2 -->
<g id="node2" class="node"><title>Node2</title>
<g id="a_node2"><a xlink:href="../../d5/d0b/mediator__widget__interface_8h.html" target="_top" xlink:title="mediator_widget_interface.h">
<polygon fill="white" stroke="black" points="0,-56.5 0,-75.5 137,-75.5 137,-56.5 0,-56.5"/>
<text text-anchor="middle" x="68.5" y="-63.5" font-family="Helvetica,sans-Serif" font-size="10.00">mediator_widget_interface.h</text>
</a>
</g>
</g>
<!-- Node1&#45;&gt;Node2 -->
<g id="edge1" class="edge"><title>Node1&#45;&gt;Node2</title>
<path fill="none" stroke="midnightblue" d="M68.5,-112.498C68.5,-104.065 68.5,-94.2351 68.5,-85.874"/>
<polygon fill="midnightblue" stroke="midnightblue" points="72.0001,-85.6525 68.5,-75.6525 65.0001,-85.6525 72.0001,-85.6525"/>
</g>
<!-- Node3 -->
<g id="node3" class="node"><title>Node3</title>
<g id="a_node3"><a xlink:href="../../d4/da7/mouse__event_8h.html" target="_top" xlink:title="mouse_event.h">
<polygon fill="white" stroke="black" points="27.5,-0.5 27.5,-19.5 109.5,-19.5 109.5,-0.5 27.5,-0.5"/>
<text text-anchor="middle" x="68.5" y="-7.5" font-family="Helvetica,sans-Serif" font-size="10.00">mouse_event.h</text>
</a>
</g>
</g>
<!-- Node2&#45;&gt;Node3 -->
<g id="edge2" class="edge"><title>Node2&#45;&gt;Node3</title>
<path fill="none" stroke="midnightblue" d="M68.5,-56.083C68.5,-49.0059 68.5,-38.8611 68.5,-29.9865"/>
<polygon fill="midnightblue" stroke="midnightblue" points="72.0001,-29.751 68.5,-19.7511 65.0001,-29.7511 72.0001,-29.751"/>
</g>
</g>
</svg>
