<?xml version="1.0" encoding="UTF-8" standalone="no"?>
<!DOCTYPE svg PUBLIC "-//W3C//DTD SVG 1.1//EN"
 "http://www.w3.org/Graphics/SVG/1.1/DTD/svg11.dtd">
<!-- Generated by graphviz version 2.38.0 (20140413.2041)
 -->
<!-- Title: structural::facade::StatementNode Pages: 1 -->
<svg width="472pt" height="585pt"
 viewBox="0.00 0.00 471.50 585.00" xmlns="http://www.w3.org/2000/svg" xmlns:xlink="http://www.w3.org/1999/xlink">
<g id="graph0" class="graph" transform="scale(1 1) rotate(0) translate(4 581)">
<title>structural::facade::StatementNode</title>
<polygon fill="white" stroke="none" points="-4,4 -4,-581 467.5,-581 467.5,4 -4,4"/>
<!-- Node1 -->
<g id="node1" class="node"><title>Node1</title>
<polygon fill="#bfbfbf" stroke="black" points="166.5,-0.5 166.5,-112.5 279.5,-112.5 279.5,-0.5 166.5,-0.5"/>
<text text-anchor="start" x="174.5" y="-100.5" font-family="Helvetica,sans-Serif" font-size="10.00">structural::facade</text>
<text text-anchor="middle" x="223" y="-89.5" font-family="Helvetica,sans-Serif" font-size="10.00">::StatementNode</text>
<polyline fill="none" stroke="black" points="166.5,-82.5 279.5,-82.5 "/>
<text text-anchor="middle" x="223" y="-70.5" font-family="Helvetica,sans-Serif" font-size="10.00"> </text>
<polyline fill="none" stroke="black" points="166.5,-63.5 279.5,-63.5 "/>
<text text-anchor="start" x="174.5" y="-51.5" font-family="Helvetica,sans-Serif" font-size="10.00">+ StatementNode()</text>
<text text-anchor="start" x="174.5" y="-40.5" font-family="Helvetica,sans-Serif" font-size="10.00">+ GetSourcePosition()</text>
<text text-anchor="start" x="174.5" y="-29.5" font-family="Helvetica,sans-Serif" font-size="10.00">+ Add()</text>
<text text-anchor="start" x="174.5" y="-18.5" font-family="Helvetica,sans-Serif" font-size="10.00">+ Remove()</text>
<text text-anchor="start" x="174.5" y="-7.5" font-family="Helvetica,sans-Serif" font-size="10.00">+ Traverse()</text>
</g>
<!-- Node2 -->
<g id="node2" class="node"><title>Node2</title>
<g id="a_node2"><a xlink:href="../../d9/d8e/classstructural_1_1facade_1_1_program_node_interface.html" target="_top" xlink:title="{structural::facade\l::ProgramNodeInterface\n||+ ~ProgramNodeInterface()\l+ GetSourcePosition()\l+ Add()\l+ Remove()\l+ Traverse()\l}">
<polygon fill="white" stroke="black" points="0,-199 0,-311 134,-311 134,-199 0,-199"/>
<text text-anchor="start" x="8" y="-299" font-family="Helvetica,sans-Serif" font-size="10.00">structural::facade</text>
<text text-anchor="middle" x="67" y="-288" font-family="Helvetica,sans-Serif" font-size="10.00">::ProgramNodeInterface</text>
<polyline fill="none" stroke="black" points="0,-281 134,-281 "/>
<text text-anchor="middle" x="67" y="-269" font-family="Helvetica,sans-Serif" font-size="10.00"> </text>
<polyline fill="none" stroke="black" points="0,-262 134,-262 "/>
<text text-anchor="start" x="8" y="-250" font-family="Helvetica,sans-Serif" font-size="10.00">+ ~ProgramNodeInterface()</text>
<text text-anchor="start" x="8" y="-239" font-family="Helvetica,sans-Serif" font-size="10.00">+ GetSourcePosition()</text>
<text text-anchor="start" x="8" y="-228" font-family="Helvetica,sans-Serif" font-size="10.00">+ Add()</text>
<text text-anchor="start" x="8" y="-217" font-family="Helvetica,sans-Serif" font-size="10.00">+ Remove()</text>
<text text-anchor="start" x="8" y="-206" font-family="Helvetica,sans-Serif" font-size="10.00">+ Traverse()</text>
</a>
</g>
</g>
<!-- Node2&#45;&gt;Node1 -->
<g id="edge1" class="edge"><title>Node2&#45;&gt;Node1</title>
<path fill="none" stroke="midnightblue" d="M117.241,-190.716C137.19,-165.588 159.924,-136.951 179.189,-112.684"/>
<polygon fill="none" stroke="midnightblue" points="114.346,-188.733 110.87,-198.741 119.829,-193.085 114.346,-188.733"/>
</g>
<!-- Node3 -->
<g id="node3" class="node"><title>Node3</title>
<g id="a_node3"><a xlink:href="../../d6/d57/classstructural_1_1facade_1_1_statement_node_interface.html" target="_top" xlink:title="{structural::facade\l::StatementNodeInterface\n||+ ~StatementNodeInterface()\l+ statement()\l}">
<polygon fill="white" stroke="black" points="152,-215.5 152,-294.5 294,-294.5 294,-215.5 152,-215.5"/>
<text text-anchor="start" x="160" y="-282.5" font-family="Helvetica,sans-Serif" font-size="10.00">structural::facade</text>
<text text-anchor="middle" x="223" y="-271.5" font-family="Helvetica,sans-Serif" font-size="10.00">::StatementNodeInterface</text>
<polyline fill="none" stroke="black" points="152,-264.5 294,-264.5 "/>
<text text-anchor="middle" x="223" y="-252.5" font-family="Helvetica,sans-Serif" font-size="10.00"> </text>
<polyline fill="none" stroke="black" points="152,-245.5 294,-245.5 "/>
<text text-anchor="start" x="160" y="-233.5" font-family="Helvetica,sans-Serif" font-size="10.00">+ ~StatementNodeInterface()</text>
<text text-anchor="start" x="160" y="-222.5" font-family="Helvetica,sans-Serif" font-size="10.00">+ statement()</text>
</a>
</g>
</g>
<!-- Node3&#45;&gt;Node1 -->
<g id="edge2" class="edge"><title>Node3&#45;&gt;Node1</title>
<path fill="none" stroke="midnightblue" d="M223,-204.812C223,-176.777 223,-141.571 223,-112.608"/>
<polygon fill="none" stroke="midnightblue" points="219.5,-205.178 223,-215.178 226.5,-205.178 219.5,-205.178"/>
</g>
<!-- Node4 -->
<g id="node4" class="node"><title>Node4</title>
<g id="a_node4"><a xlink:href="../../d5/df6/classoperational_1_1iterator_1_1_list.html" target="_top" xlink:title="{operational::iterator\l::List\&lt; structural::facade\l::ProgramNodeInterface * \&gt;\n||+ List()\l+ List()\l+ List()\l+ ~List()\l+ operator=()\l+ CreateIterator()\l+ Count()\l+ Get()\l+ First()\l+ Last()\land 11 more...\l}">
<polygon fill="white" stroke="black" points="312,-160.5 312,-349.5 446,-349.5 446,-160.5 312,-160.5"/>
<text text-anchor="start" x="320" y="-337.5" font-family="Helvetica,sans-Serif" font-size="10.00">operational::iterator</text>
<text text-anchor="start" x="320" y="-326.5" font-family="Helvetica,sans-Serif" font-size="10.00">::List&lt; structural::facade</text>
<text text-anchor="middle" x="379" y="-315.5" font-family="Helvetica,sans-Serif" font-size="10.00">::ProgramNodeInterface * &gt;</text>
<polyline fill="none" stroke="black" points="312,-308.5 446,-308.5 "/>
<text text-anchor="middle" x="379" y="-296.5" font-family="Helvetica,sans-Serif" font-size="10.00"> </text>
<polyline fill="none" stroke="black" points="312,-289.5 446,-289.5 "/>
<text text-anchor="start" x="320" y="-277.5" font-family="Helvetica,sans-Serif" font-size="10.00">+ List()</text>
<text text-anchor="start" x="320" y="-266.5" font-family="Helvetica,sans-Serif" font-size="10.00">+ List()</text>
<text text-anchor="start" x="320" y="-255.5" font-family="Helvetica,sans-Serif" font-size="10.00">+ List()</text>
<text text-anchor="start" x="320" y="-244.5" font-family="Helvetica,sans-Serif" font-size="10.00">+ ~List()</text>
<text text-anchor="start" x="320" y="-233.5" font-family="Helvetica,sans-Serif" font-size="10.00">+ operator=()</text>
<text text-anchor="start" x="320" y="-222.5" font-family="Helvetica,sans-Serif" font-size="10.00">+ CreateIterator()</text>
<text text-anchor="start" x="320" y="-211.5" font-family="Helvetica,sans-Serif" font-size="10.00">+ Count()</text>
<text text-anchor="start" x="320" y="-200.5" font-family="Helvetica,sans-Serif" font-size="10.00">+ Get()</text>
<text text-anchor="start" x="320" y="-189.5" font-family="Helvetica,sans-Serif" font-size="10.00">+ First()</text>
<text text-anchor="start" x="320" y="-178.5" font-family="Helvetica,sans-Serif" font-size="10.00">+ Last()</text>
<text text-anchor="start" x="320" y="-167.5" font-family="Helvetica,sans-Serif" font-size="10.00">and 11 more...</text>
</a>
</g>
</g>
<!-- Node4&#45;&gt;Node1 -->
<g id="edge3" class="edge"><title>Node4&#45;&gt;Node1</title>
<path fill="none" stroke="#404040" d="M311.937,-169.526C299.404,-153.74 286.488,-137.47 274.516,-122.39"/>
<polygon fill="none" stroke="#404040" points="274.26,-122.068 267.396,-119.855 266.798,-112.669 273.662,-114.881 274.26,-122.068"/>
<text text-anchor="middle" x="311" y="-134" font-family="Helvetica,sans-Serif" font-size="10.00"> #children_</text>
</g>
<!-- Node5 -->
<g id="node5" class="node"><title>Node5</title>
<g id="a_node5"><a xlink:href="../../d3/d40/classoperational_1_1iterator_1_1_list_interface.html" target="_top" xlink:title="{operational::iterator\l::ListInterface\&lt; structural\l::facade::ProgramNodeInterface * \&gt;\n||+ ~ListInterface()\l+ Count()\l+ Get()\l+ First()\l+ Last()\l+ Includes()\l+ Append()\l+ Prepend()\l+ Remove()\l+ RemoveAt()\land 6 more...\l}">
<polygon fill="white" stroke="black" points="294.5,-387.5 294.5,-576.5 463.5,-576.5 463.5,-387.5 294.5,-387.5"/>
<text text-anchor="start" x="302.5" y="-564.5" font-family="Helvetica,sans-Serif" font-size="10.00">operational::iterator</text>
<text text-anchor="start" x="302.5" y="-553.5" font-family="Helvetica,sans-Serif" font-size="10.00">::ListInterface&lt; structural</text>
<text text-anchor="middle" x="379" y="-542.5" font-family="Helvetica,sans-Serif" font-size="10.00">::facade::ProgramNodeInterface * &gt;</text>
<polyline fill="none" stroke="black" points="294.5,-535.5 463.5,-535.5 "/>
<text text-anchor="middle" x="379" y="-523.5" font-family="Helvetica,sans-Serif" font-size="10.00"> </text>
<polyline fill="none" stroke="black" points="294.5,-516.5 463.5,-516.5 "/>
<text text-anchor="start" x="302.5" y="-504.5" font-family="Helvetica,sans-Serif" font-size="10.00">+ ~ListInterface()</text>
<text text-anchor="start" x="302.5" y="-493.5" font-family="Helvetica,sans-Serif" font-size="10.00">+ Count()</text>
<text text-anchor="start" x="302.5" y="-482.5" font-family="Helvetica,sans-Serif" font-size="10.00">+ Get()</text>
<text text-anchor="start" x="302.5" y="-471.5" font-family="Helvetica,sans-Serif" font-size="10.00">+ First()</text>
<text text-anchor="start" x="302.5" y="-460.5" font-family="Helvetica,sans-Serif" font-size="10.00">+ Last()</text>
<text text-anchor="start" x="302.5" y="-449.5" font-family="Helvetica,sans-Serif" font-size="10.00">+ Includes()</text>
<text text-anchor="start" x="302.5" y="-438.5" font-family="Helvetica,sans-Serif" font-size="10.00">+ Append()</text>
<text text-anchor="start" x="302.5" y="-427.5" font-family="Helvetica,sans-Serif" font-size="10.00">+ Prepend()</text>
<text text-anchor="start" x="302.5" y="-416.5" font-family="Helvetica,sans-Serif" font-size="10.00">+ Remove()</text>
<text text-anchor="start" x="302.5" y="-405.5" font-family="Helvetica,sans-Serif" font-size="10.00">+ RemoveAt()</text>
<text text-anchor="start" x="302.5" y="-394.5" font-family="Helvetica,sans-Serif" font-size="10.00">and 6 more...</text>
</a>
</g>
</g>
<!-- Node5&#45;&gt;Node4 -->
<g id="edge4" class="edge"><title>Node5&#45;&gt;Node4</title>
<path fill="none" stroke="midnightblue" d="M379,-376.964C379,-367.849 379,-358.661 379,-349.639"/>
<polygon fill="none" stroke="midnightblue" points="375.5,-377.209 379,-387.209 382.5,-377.209 375.5,-377.209"/>
</g>
</g>
</svg>
