<?xml version="1.0" encoding="UTF-8" standalone="no"?>
<!DOCTYPE svg PUBLIC "-//W3C//DTD SVG 1.1//EN"
 "http://www.w3.org/Graphics/SVG/1.1/DTD/svg11.dtd">
<!-- Generated by graphviz version 2.38.0 (20140413.2041)
 -->
<!-- Title: src/structural/src/decorator/stream_decorator.h Pages: 1 -->
<svg width="523pt" height="195pt"
 viewBox="0.00 0.00 522.50 195.00" xmlns="http://www.w3.org/2000/svg" xmlns:xlink="http://www.w3.org/1999/xlink">
<g id="graph0" class="graph" transform="scale(1 1) rotate(0) translate(4 191)">
<title>src/structural/src/decorator/stream_decorator.h</title>
<polygon fill="white" stroke="none" points="-4,4 -4,-191 518.5,-191 518.5,4 -4,4"/>
<!-- Node1 -->
<g id="node1" class="node"><title>Node1</title>
<polygon fill="#bfbfbf" stroke="black" points="211,-156.5 211,-186.5 358,-186.5 358,-156.5 211,-156.5"/>
<text text-anchor="start" x="219" y="-174.5" font-family="Helvetica,sans-Serif" font-size="10.00">src/structural/src</text>
<text text-anchor="middle" x="284.5" y="-163.5" font-family="Helvetica,sans-Serif" font-size="10.00">/decorator/stream_decorator.h</text>
</g>
<!-- Node2 -->
<g id="node2" class="node"><title>Node2</title>
<g id="a_node2"><a xlink:href="../../d2/d75/ascii7__stream_8h.html" target="_top" xlink:title="src/structural/src\l/decorator/ascii7_stream.h">
<polygon fill="white" stroke="black" points="74.5,-84 74.5,-114 206.5,-114 206.5,-84 74.5,-84"/>
<text text-anchor="start" x="82.5" y="-102" font-family="Helvetica,sans-Serif" font-size="10.00">src/structural/src</text>
<text text-anchor="middle" x="140.5" y="-91" font-family="Helvetica,sans-Serif" font-size="10.00">/decorator/ascii7_stream.h</text>
</a>
</g>
</g>
<!-- Node1&#45;&gt;Node2 -->
<g id="edge1" class="edge"><title>Node1&#45;&gt;Node2</title>
<path fill="none" stroke="midnightblue" d="M246.453,-151.873C222.248,-140.023 191.404,-124.922 169.245,-114.073"/>
<polygon fill="midnightblue" stroke="midnightblue" points="245.185,-155.149 255.706,-156.403 248.263,-148.862 245.185,-155.149"/>
</g>
<!-- Node5 -->
<g id="node5" class="node"><title>Node5</title>
<g id="a_node5"><a xlink:href="../../d9/d25/compressing__stream_8h.html" target="_top" xlink:title="src/structural/src\l/decorator/compressing\l_stream.h">
<polygon fill="white" stroke="black" points="225,-78.5 225,-119.5 344,-119.5 344,-78.5 225,-78.5"/>
<text text-anchor="start" x="233" y="-107.5" font-family="Helvetica,sans-Serif" font-size="10.00">src/structural/src</text>
<text text-anchor="start" x="233" y="-96.5" font-family="Helvetica,sans-Serif" font-size="10.00">/decorator/compressing</text>
<text text-anchor="middle" x="284.5" y="-85.5" font-family="Helvetica,sans-Serif" font-size="10.00">_stream.h</text>
</a>
</g>
</g>
<!-- Node1&#45;&gt;Node5 -->
<g id="edge4" class="edge"><title>Node1&#45;&gt;Node5</title>
<path fill="none" stroke="midnightblue" d="M284.5,-145.982C284.5,-137.347 284.5,-127.762 284.5,-119.588"/>
<polygon fill="midnightblue" stroke="midnightblue" points="281,-146.233 284.5,-156.233 288,-146.233 281,-146.233"/>
</g>
<!-- Node7 -->
<g id="node7" class="node"><title>Node7</title>
<g id="a_node7"><a xlink:href="../../d4/d77/stream__decorator_8cc.html" target="_top" xlink:title="src/structural/src\l/decorator/stream_decorator.cc">
<polygon fill="white" stroke="black" points="362.5,-84 362.5,-114 514.5,-114 514.5,-84 362.5,-84"/>
<text text-anchor="start" x="370.5" y="-102" font-family="Helvetica,sans-Serif" font-size="10.00">src/structural/src</text>
<text text-anchor="middle" x="438.5" y="-91" font-family="Helvetica,sans-Serif" font-size="10.00">/decorator/stream_decorator.cc</text>
</a>
</g>
</g>
<!-- Node1&#45;&gt;Node7 -->
<g id="edge7" class="edge"><title>Node1&#45;&gt;Node7</title>
<path fill="none" stroke="midnightblue" d="M324.503,-152.187C350.49,-140.29 383.852,-125.018 407.759,-114.073"/>
<polygon fill="midnightblue" stroke="midnightblue" points="322.93,-149.058 315.294,-156.403 325.843,-155.423 322.93,-149.058"/>
</g>
<!-- Node3 -->
<g id="node3" class="node"><title>Node3</title>
<g id="a_node3"><a xlink:href="../../dd/d84/ascii7__stream_8cc.html" target="_top" xlink:title="src/structural/src\l/decorator/ascii7_stream.cc">
<polygon fill="white" stroke="black" points="0,-6 0,-36 137,-36 137,-6 0,-6"/>
<text text-anchor="start" x="8" y="-24" font-family="Helvetica,sans-Serif" font-size="10.00">src/structural/src</text>
<text text-anchor="middle" x="68.5" y="-13" font-family="Helvetica,sans-Serif" font-size="10.00">/decorator/ascii7_stream.cc</text>
</a>
</g>
</g>
<!-- Node2&#45;&gt;Node3 -->
<g id="edge2" class="edge"><title>Node2&#45;&gt;Node3</title>
<path fill="none" stroke="midnightblue" d="M119.82,-76.1707C107.657,-63.3319 92.6253,-47.4656 81.9819,-36.2309"/>
<polygon fill="midnightblue" stroke="midnightblue" points="117.539,-78.8525 126.957,-83.705 122.621,-74.0383 117.539,-78.8525"/>
</g>
<!-- Node4 -->
<g id="node4" class="node"><title>Node4</title>
<g id="a_node4"><a xlink:href="../../d6/d1f/decorator__test_8cc.html" target="_top" xlink:title="src/structural_tests\l/src/decorator/decorator\l_test.cc">
<polygon fill="white" stroke="black" points="155.5,-0.5 155.5,-41.5 275.5,-41.5 275.5,-0.5 155.5,-0.5"/>
<text text-anchor="start" x="163.5" y="-29.5" font-family="Helvetica,sans-Serif" font-size="10.00">src/structural_tests</text>
<text text-anchor="start" x="163.5" y="-18.5" font-family="Helvetica,sans-Serif" font-size="10.00">/src/decorator/decorator</text>
<text text-anchor="middle" x="215.5" y="-7.5" font-family="Helvetica,sans-Serif" font-size="10.00">_test.cc</text>
</a>
</g>
</g>
<!-- Node2&#45;&gt;Node4 -->
<g id="edge3" class="edge"><title>Node2&#45;&gt;Node4</title>
<path fill="none" stroke="midnightblue" d="M161.671,-76.547C172.477,-65.5963 185.532,-52.3674 196.079,-41.68"/>
<polygon fill="midnightblue" stroke="midnightblue" points="159.14,-74.1288 154.607,-83.705 164.122,-79.0457 159.14,-74.1288"/>
</g>
<!-- Node5&#45;&gt;Node4 -->
<g id="edge6" class="edge"><title>Node5&#45;&gt;Node4</title>
<path fill="none" stroke="midnightblue" d="M259.91,-70.9158C251.092,-61.2029 241.33,-50.4502 233.209,-41.5056"/>
<polygon fill="midnightblue" stroke="midnightblue" points="257.418,-73.3769 266.731,-78.4281 262.6,-68.6716 257.418,-73.3769"/>
</g>
<!-- Node6 -->
<g id="node6" class="node"><title>Node6</title>
<g id="a_node6"><a xlink:href="../../d4/ddd/compressing__stream_8cc.html" target="_top" xlink:title="src/structural/src\l/decorator/compressing\l_stream.cc">
<polygon fill="white" stroke="black" points="294,-0.5 294,-41.5 413,-41.5 413,-0.5 294,-0.5"/>
<text text-anchor="start" x="302" y="-29.5" font-family="Helvetica,sans-Serif" font-size="10.00">src/structural/src</text>
<text text-anchor="start" x="302" y="-18.5" font-family="Helvetica,sans-Serif" font-size="10.00">/decorator/compressing</text>
<text text-anchor="middle" x="353.5" y="-7.5" font-family="Helvetica,sans-Serif" font-size="10.00">_stream.cc</text>
</a>
</g>
</g>
<!-- Node5&#45;&gt;Node6 -->
<g id="edge5" class="edge"><title>Node5&#45;&gt;Node6</title>
<path fill="none" stroke="midnightblue" d="M309.09,-70.9158C317.908,-61.2029 327.67,-50.4502 335.791,-41.5056"/>
<polygon fill="midnightblue" stroke="midnightblue" points="306.4,-68.6716 302.269,-78.4281 311.582,-73.3769 306.4,-68.6716"/>
</g>
</g>
</svg>
