<?xml version="1.0" encoding="UTF-8" standalone="no"?>
<!DOCTYPE svg PUBLIC "-//W3C//DTD SVG 1.1//EN"
 "http://www.w3.org/Graphics/SVG/1.1/DTD/svg11.dtd">
<!-- Generated by graphviz version 2.38.0 (20140413.2041)
 -->
<!-- Title: src/operational/src/command/macro_command.h Pages: 1 -->
<svg width="248pt" height="207pt"
 viewBox="0.00 0.00 248.00 207.00" xmlns="http://www.w3.org/2000/svg" xmlns:xlink="http://www.w3.org/1999/xlink">
<g id="graph0" class="graph" transform="scale(1 1) rotate(0) translate(4 203)">
<title>src/operational/src/command/macro_command.h</title>
<polygon fill="white" stroke="none" points="-4,4 -4,-203 244,-203 244,4 -4,4"/>
<!-- Node1 -->
<g id="node1" class="node"><title>Node1</title>
<polygon fill="#bfbfbf" stroke="black" points="36.5,-168.5 36.5,-198.5 185.5,-198.5 185.5,-168.5 36.5,-168.5"/>
<text text-anchor="start" x="44.5" y="-186.5" font-family="Helvetica,sans-Serif" font-size="10.00">src/operational/src</text>
<text text-anchor="middle" x="111" y="-175.5" font-family="Helvetica,sans-Serif" font-size="10.00">/command/macro_command.h</text>
</g>
<!-- Node2 -->
<g id="node2" class="node"><title>Node2</title>
<g id="a_node2"><a xlink:href="../../db/dd7/command__interface_8h.html" target="_top" xlink:title="command_interface.h">
<polygon fill="white" stroke="black" points="0,-112.5 0,-131.5 110,-131.5 110,-112.5 0,-112.5"/>
<text text-anchor="middle" x="55" y="-119.5" font-family="Helvetica,sans-Serif" font-size="10.00">command_interface.h</text>
</a>
</g>
</g>
<!-- Node1&#45;&gt;Node2 -->
<g id="edge1" class="edge"><title>Node1&#45;&gt;Node2</title>
<path fill="none" stroke="midnightblue" d="M97.7288,-168.399C89.4235,-159.575 78.7014,-148.183 70.0756,-139.018"/>
<polygon fill="midnightblue" stroke="midnightblue" points="72.5509,-136.541 63.1485,-131.658 67.4535,-141.339 72.5509,-136.541"/>
</g>
<!-- Node3 -->
<g id="node3" class="node"><title>Node3</title>
<g id="a_node3"><a xlink:href="../../da/d23/list_8h.html" target="_top" xlink:title="../iterator/list.h">
<polygon fill="white" stroke="black" points="128,-112.5 128,-131.5 208,-131.5 208,-112.5 128,-112.5"/>
<text text-anchor="middle" x="168" y="-119.5" font-family="Helvetica,sans-Serif" font-size="10.00">../iterator/list.h</text>
</a>
</g>
</g>
<!-- Node1&#45;&gt;Node3 -->
<g id="edge2" class="edge"><title>Node1&#45;&gt;Node3</title>
<path fill="none" stroke="midnightblue" d="M124.508,-168.399C132.962,-159.575 143.875,-148.183 152.655,-139.018"/>
<polygon fill="midnightblue" stroke="midnightblue" points="155.316,-141.3 159.706,-131.658 150.261,-136.458 155.316,-141.3"/>
</g>
<!-- Node4 -->
<g id="node4" class="node"><title>Node4</title>
<g id="a_node4"><a xlink:href="../../d9/d71/list__iterator_8h.html" target="_top" xlink:title="list_iterator.h">
<polygon fill="white" stroke="black" points="98.5,-56.5 98.5,-75.5 171.5,-75.5 171.5,-56.5 98.5,-56.5"/>
<text text-anchor="middle" x="135" y="-63.5" font-family="Helvetica,sans-Serif" font-size="10.00">list_iterator.h</text>
</a>
</g>
</g>
<!-- Node3&#45;&gt;Node4 -->
<g id="edge3" class="edge"><title>Node3&#45;&gt;Node4</title>
<path fill="none" stroke="midnightblue" d="M162.551,-112.083C157.986,-104.613 151.332,-93.7244 145.707,-84.5199"/>
<polygon fill="midnightblue" stroke="midnightblue" points="148.549,-82.4588 140.348,-75.7511 142.576,-86.109 148.549,-82.4588"/>
</g>
<!-- Node6 -->
<g id="node6" class="node"><title>Node6</title>
<g id="a_node6"><a xlink:href="../../dd/d8c/list__interface_8h.html" target="_top" xlink:title="list_interface.h">
<polygon fill="white" stroke="black" points="160,-0.5 160,-19.5 240,-19.5 240,-0.5 160,-0.5"/>
<text text-anchor="middle" x="200" y="-7.5" font-family="Helvetica,sans-Serif" font-size="10.00">list_interface.h</text>
</a>
</g>
</g>
<!-- Node3&#45;&gt;Node6 -->
<g id="edge6" class="edge"><title>Node3&#45;&gt;Node6</title>
<path fill="none" stroke="midnightblue" d="M170.511,-112.368C175.698,-94.5366 187.696,-53.2953 194.685,-29.2717"/>
<polygon fill="midnightblue" stroke="midnightblue" points="198.068,-30.1711 197.501,-19.5914 191.347,-28.2157 198.068,-30.1711"/>
</g>
<!-- Node5 -->
<g id="node5" class="node"><title>Node5</title>
<g id="a_node5"><a xlink:href="../../d6/da4/iterator__interface_8h.html" target="_top" xlink:title="iterator_interface.h">
<polygon fill="white" stroke="black" points="44.5,-0.5 44.5,-19.5 141.5,-19.5 141.5,-0.5 44.5,-0.5"/>
<text text-anchor="middle" x="93" y="-7.5" font-family="Helvetica,sans-Serif" font-size="10.00">iterator_interface.h</text>
</a>
</g>
</g>
<!-- Node4&#45;&gt;Node5 -->
<g id="edge4" class="edge"><title>Node4&#45;&gt;Node5</title>
<path fill="none" stroke="midnightblue" d="M128.065,-56.083C122.071,-48.3768 113.248,-37.0333 105.952,-27.6531"/>
<polygon fill="midnightblue" stroke="midnightblue" points="108.709,-25.4958 99.8064,-19.7511 103.183,-29.7934 108.709,-25.4958"/>
</g>
<!-- Node4&#45;&gt;Node6 -->
<g id="edge5" class="edge"><title>Node4&#45;&gt;Node6</title>
<path fill="none" stroke="midnightblue" d="M145.443,-56.324C155.146,-48.2631 169.815,-36.0765 181.5,-26.3695"/>
<polygon fill="midnightblue" stroke="midnightblue" points="183.911,-28.9163 189.367,-19.8339 179.438,-23.532 183.911,-28.9163"/>
</g>
</g>
</svg>
