<?xml version="1.0" encoding="UTF-8" standalone="no"?>
<!DOCTYPE svg PUBLIC "-//W3C//DTD SVG 1.1//EN"
 "http://www.w3.org/Graphics/SVG/1.1/DTD/svg11.dtd">
<!-- Generated by graphviz version 2.38.0 (20140413.2041)
 -->
<!-- Title: src/structural/src/decorator/scroll_decorator.h Pages: 1 -->
<svg width="148pt" height="173pt"
 viewBox="0.00 0.00 148.00 173.00" xmlns="http://www.w3.org/2000/svg" xmlns:xlink="http://www.w3.org/1999/xlink">
<g id="graph0" class="graph" transform="scale(1 1) rotate(0) translate(4 169)">
<title>src/structural/src/decorator/scroll_decorator.h</title>
<polygon fill="white" stroke="none" points="-4,4 -4,-169 144,-169 144,4 -4,4"/>
<!-- Node1 -->
<g id="node1" class="node"><title>Node1</title>
<polygon fill="#bfbfbf" stroke="black" points="0,-134.5 0,-164.5 140,-164.5 140,-134.5 0,-134.5"/>
<text text-anchor="start" x="8" y="-152.5" font-family="Helvetica,sans-Serif" font-size="10.00">src/structural/src</text>
<text text-anchor="middle" x="70" y="-141.5" font-family="Helvetica,sans-Serif" font-size="10.00">/decorator/scroll_decorator.h</text>
</g>
<!-- Node2 -->
<g id="node2" class="node"><title>Node2</title>
<g id="a_node2"><a xlink:href="../../d9/d82/decorator_8h.html" target="_top" xlink:title="decorator.h">
<polygon fill="white" stroke="black" points="37.5,-78.5 37.5,-97.5 102.5,-97.5 102.5,-78.5 37.5,-78.5"/>
<text text-anchor="middle" x="70" y="-85.5" font-family="Helvetica,sans-Serif" font-size="10.00">decorator.h</text>
</a>
</g>
</g>
<!-- Node1&#45;&gt;Node2 -->
<g id="edge1" class="edge"><title>Node1&#45;&gt;Node2</title>
<path fill="none" stroke="midnightblue" d="M70,-134.399C70,-126.466 70,-116.458 70,-107.858"/>
<polygon fill="midnightblue" stroke="midnightblue" points="73.5001,-107.658 70,-97.6578 66.5001,-107.658 73.5001,-107.658"/>
</g>
<!-- Node3 -->
<g id="node3" class="node"><title>Node3</title>
<polygon fill="white" stroke="#bfbfbf" points="13.5,-0.5 13.5,-41.5 126.5,-41.5 126.5,-0.5 13.5,-0.5"/>
<text text-anchor="start" x="21.5" y="-29.5" font-family="Helvetica,sans-Serif" font-size="10.00">../../../foundation</text>
<text text-anchor="start" x="21.5" y="-18.5" font-family="Helvetica,sans-Serif" font-size="10.00">/src/visual_component</text>
<text text-anchor="middle" x="70" y="-7.5" font-family="Helvetica,sans-Serif" font-size="10.00">_interface.h</text>
</g>
<!-- Node2&#45;&gt;Node3 -->
<g id="edge2" class="edge"><title>Node2&#45;&gt;Node3</title>
<path fill="none" stroke="midnightblue" d="M70,-78.2338C70,-71.3628 70,-61.3799 70,-51.7259"/>
<polygon fill="midnightblue" stroke="midnightblue" points="73.5001,-51.542 70,-41.5421 66.5001,-51.5421 73.5001,-51.542"/>
</g>
</g>
</svg>
