<?xml version="1.0" encoding="UTF-8" standalone="no"?>
<!DOCTYPE svg PUBLIC "-//W3C//DTD SVG 1.1//EN"
 "http://www.w3.org/Graphics/SVG/1.1/DTD/svg11.dtd">
<!-- Generated by graphviz version 2.38.0 (20140413.2041)
 -->
<!-- Title: src/operational/src/visitor/visited_equipment_interface.h Pages: 1 -->
<svg width="880pt" height="262pt"
 viewBox="0.00 0.00 880.00 262.00" xmlns="http://www.w3.org/2000/svg" xmlns:xlink="http://www.w3.org/1999/xlink">
<g id="graph0" class="graph" transform="scale(1 1) rotate(0) translate(4 258)">
<title>src/operational/src/visitor/visited_equipment_interface.h</title>
<polygon fill="white" stroke="none" points="-4,4 -4,-258 876,-258 876,4 -4,4"/>
<!-- Node1 -->
<g id="node1" class="node"><title>Node1</title>
<polygon fill="#bfbfbf" stroke="black" points="293,-212.5 293,-253.5 418,-253.5 418,-212.5 293,-212.5"/>
<text text-anchor="start" x="301" y="-241.5" font-family="Helvetica,sans-Serif" font-size="10.00">src/operational/src</text>
<text text-anchor="start" x="301" y="-230.5" font-family="Helvetica,sans-Serif" font-size="10.00">/visitor/visited_equipment</text>
<text text-anchor="middle" x="355.5" y="-219.5" font-family="Helvetica,sans-Serif" font-size="10.00">_interface.h</text>
</g>
<!-- Node2 -->
<g id="node2" class="node"><title>Node2</title>
<g id="a_node2"><a xlink:href="../../dd/da3/operational_2src_2visitor_2bus_8h.html" target="_top" xlink:title="src/operational/src\l/visitor/bus.h">
<polygon fill="white" stroke="black" points="77,-145.5 77,-175.5 174,-175.5 174,-145.5 77,-145.5"/>
<text text-anchor="start" x="85" y="-163.5" font-family="Helvetica,sans-Serif" font-size="10.00">src/operational/src</text>
<text text-anchor="middle" x="125.5" y="-152.5" font-family="Helvetica,sans-Serif" font-size="10.00">/visitor/bus.h</text>
</a>
</g>
</g>
<!-- Node1&#45;&gt;Node2 -->
<g id="edge1" class="edge"><title>Node1&#45;&gt;Node2</title>
<path fill="none" stroke="midnightblue" d="M283.307,-209.871C246.663,-198.639 203.255,-185.334 171.249,-175.523"/>
<polygon fill="midnightblue" stroke="midnightblue" points="282.369,-213.244 292.955,-212.829 284.42,-206.552 282.369,-213.244"/>
</g>
<!-- Node5 -->
<g id="node5" class="node"><title>Node5</title>
<g id="a_node5"><a xlink:href="../../d8/d35/operational_2src_2visitor_2card_8h.html" target="_top" xlink:title="src/operational/src\l/visitor/card.h">
<polygon fill="white" stroke="black" points="192,-145.5 192,-175.5 289,-175.5 289,-145.5 192,-145.5"/>
<text text-anchor="start" x="200" y="-163.5" font-family="Helvetica,sans-Serif" font-size="10.00">src/operational/src</text>
<text text-anchor="middle" x="240.5" y="-152.5" font-family="Helvetica,sans-Serif" font-size="10.00">/visitor/card.h</text>
</a>
</g>
</g>
<!-- Node1&#45;&gt;Node5 -->
<g id="edge4" class="edge"><title>Node1&#45;&gt;Node5</title>
<path fill="none" stroke="midnightblue" d="M314.731,-207.007C297.577,-196.491 278.248,-184.641 263.614,-175.67"/>
<polygon fill="midnightblue" stroke="midnightblue" points="313.111,-210.119 323.466,-212.362 316.77,-204.151 313.111,-210.119"/>
</g>
<!-- Node7 -->
<g id="node7" class="node"><title>Node7</title>
<g id="a_node7"><a xlink:href="../../dc/dc0/operational_2src_2visitor_2chassis_8h.html" target="_top" xlink:title="src/operational/src\l/visitor/chassis.h">
<polygon fill="white" stroke="black" points="307,-145.5 307,-175.5 404,-175.5 404,-145.5 307,-145.5"/>
<text text-anchor="start" x="315" y="-163.5" font-family="Helvetica,sans-Serif" font-size="10.00">src/operational/src</text>
<text text-anchor="middle" x="355.5" y="-152.5" font-family="Helvetica,sans-Serif" font-size="10.00">/visitor/chassis.h</text>
</a>
</g>
</g>
<!-- Node1&#45;&gt;Node7 -->
<g id="edge7" class="edge"><title>Node1&#45;&gt;Node7</title>
<path fill="none" stroke="midnightblue" d="M355.5,-202.08C355.5,-193.006 355.5,-183.45 355.5,-175.892"/>
<polygon fill="midnightblue" stroke="midnightblue" points="352,-202.362 355.5,-212.362 359,-202.362 352,-202.362"/>
</g>
<!-- Node9 -->
<g id="node9" class="node"><title>Node9</title>
<g id="a_node9"><a xlink:href="../../d4/d9f/operational_2src_2visitor_2floppy__disk_8h.html" target="_top" xlink:title="src/operational/src\l/visitor/floppy_disk.h">
<polygon fill="white" stroke="black" points="422.5,-145.5 422.5,-175.5 526.5,-175.5 526.5,-145.5 422.5,-145.5"/>
<text text-anchor="start" x="430.5" y="-163.5" font-family="Helvetica,sans-Serif" font-size="10.00">src/operational/src</text>
<text text-anchor="middle" x="474.5" y="-152.5" font-family="Helvetica,sans-Serif" font-size="10.00">/visitor/floppy_disk.h</text>
</a>
</g>
</g>
<!-- Node1&#45;&gt;Node9 -->
<g id="edge10" class="edge"><title>Node1&#45;&gt;Node9</title>
<path fill="none" stroke="midnightblue" d="M397.687,-207.007C415.438,-196.491 435.44,-184.641 450.582,-175.67"/>
<polygon fill="midnightblue" stroke="midnightblue" points="395.468,-204.254 388.648,-212.362 399.036,-210.276 395.468,-204.254"/>
</g>
<!-- Node11 -->
<g id="node11" class="node"><title>Node11</title>
<g id="a_node11"><a xlink:href="../../da/dab/inventory_8h.html" target="_top" xlink:title="src/operational/src\l/visitor/inventory.h">
<polygon fill="white" stroke="black" points="629,-145.5 629,-175.5 726,-175.5 726,-145.5 629,-145.5"/>
<text text-anchor="start" x="637" y="-163.5" font-family="Helvetica,sans-Serif" font-size="10.00">src/operational/src</text>
<text text-anchor="middle" x="677.5" y="-152.5" font-family="Helvetica,sans-Serif" font-size="10.00">/visitor/inventory.h</text>
</a>
</g>
</g>
<!-- Node1&#45;&gt;Node11 -->
<g id="edge13" class="edge"><title>Node1&#45;&gt;Node11</title>
<path fill="none" stroke="midnightblue" d="M428.356,-216.049C489.709,-202.616 575.749,-183.778 628.987,-172.122"/>
<polygon fill="midnightblue" stroke="midnightblue" points="427.369,-212.682 418.349,-218.24 428.866,-219.52 427.369,-212.682"/>
</g>
<!-- Node3 -->
<g id="node3" class="node"><title>Node3</title>
<g id="a_node3"><a xlink:href="../../d9/d45/operational_2src_2visitor_2bus_8cc.html" target="_top" xlink:title="src/operational/src\l/visitor/bus.cc">
<polygon fill="white" stroke="black" points="0,-78.5 0,-108.5 97,-108.5 97,-78.5 0,-78.5"/>
<text text-anchor="start" x="8" y="-96.5" font-family="Helvetica,sans-Serif" font-size="10.00">src/operational/src</text>
<text text-anchor="middle" x="48.5" y="-85.5" font-family="Helvetica,sans-Serif" font-size="10.00">/visitor/bus.cc</text>
</a>
</g>
</g>
<!-- Node2&#45;&gt;Node3 -->
<g id="edge2" class="edge"><title>Node2&#45;&gt;Node3</title>
<path fill="none" stroke="midnightblue" d="M101.077,-138.883C89.3757,-129.005 75.6624,-117.429 65.1752,-108.577"/>
<polygon fill="midnightblue" stroke="midnightblue" points="98.893,-141.62 108.792,-145.396 103.408,-136.271 98.893,-141.62"/>
</g>
<!-- Node4 -->
<g id="node4" class="node"><title>Node4</title>
<g id="a_node4"><a xlink:href="../../dc/d3a/visitor__test_8cc.html" target="_top" xlink:title="src/operational_tests\l/src/visitor/visitor\l_test.cc">
<polygon fill="white" stroke="black" points="264,-0.5 264,-41.5 371,-41.5 371,-0.5 264,-0.5"/>
<text text-anchor="start" x="272" y="-29.5" font-family="Helvetica,sans-Serif" font-size="10.00">src/operational_tests</text>
<text text-anchor="start" x="272" y="-18.5" font-family="Helvetica,sans-Serif" font-size="10.00">/src/visitor/visitor</text>
<text text-anchor="middle" x="317.5" y="-7.5" font-family="Helvetica,sans-Serif" font-size="10.00">_test.cc</text>
</a>
</g>
</g>
<!-- Node2&#45;&gt;Node4 -->
<g id="edge3" class="edge"><title>Node2&#45;&gt;Node4</title>
<path fill="none" stroke="midnightblue" d="M134.532,-136.204C142.589,-118.146 155.983,-93.64 174.5,-78 200.063,-56.409 234.929,-42.5288 263.834,-33.9882"/>
<polygon fill="midnightblue" stroke="midnightblue" points="131.282,-134.903 130.606,-145.477 137.728,-137.632 131.282,-134.903"/>
</g>
<!-- Node5&#45;&gt;Node4 -->
<g id="edge6" class="edge"><title>Node5&#45;&gt;Node4</title>
<path fill="none" stroke="midnightblue" d="M210.008,-139.152C189.421,-122.805 168.366,-99.1646 182.5,-78 200.608,-50.8848 234.551,-36.8812 263.87,-29.6581"/>
<polygon fill="midnightblue" stroke="midnightblue" points="208.007,-142.026 218.098,-145.253 212.221,-136.437 208.007,-142.026"/>
</g>
<!-- Node6 -->
<g id="node6" class="node"><title>Node6</title>
<g id="a_node6"><a xlink:href="../../d4/dc2/operational_2src_2visitor_2card_8cc.html" target="_top" xlink:title="src/operational/src\l/visitor/card.cc">
<polygon fill="white" stroke="black" points="192,-78.5 192,-108.5 289,-108.5 289,-78.5 192,-78.5"/>
<text text-anchor="start" x="200" y="-96.5" font-family="Helvetica,sans-Serif" font-size="10.00">src/operational/src</text>
<text text-anchor="middle" x="240.5" y="-85.5" font-family="Helvetica,sans-Serif" font-size="10.00">/visitor/card.cc</text>
</a>
</g>
</g>
<!-- Node5&#45;&gt;Node6 -->
<g id="edge5" class="edge"><title>Node5&#45;&gt;Node6</title>
<path fill="none" stroke="midnightblue" d="M240.5,-135.108C240.5,-126.154 240.5,-116.323 240.5,-108.577"/>
<polygon fill="midnightblue" stroke="midnightblue" points="237,-135.396 240.5,-145.396 244,-135.396 237,-135.396"/>
</g>
<!-- Node7&#45;&gt;Node4 -->
<g id="edge9" class="edge"><title>Node7&#45;&gt;Node4</title>
<path fill="none" stroke="midnightblue" d="M345.706,-135.624C342.504,-127.288 339.105,-117.813 336.5,-109 329.75,-86.1681 324.246,-59.3225 320.931,-41.5545"/>
<polygon fill="midnightblue" stroke="midnightblue" points="342.521,-137.087 349.447,-145.104 349.032,-134.518 342.521,-137.087"/>
</g>
<!-- Node8 -->
<g id="node8" class="node"><title>Node8</title>
<g id="a_node8"><a xlink:href="../../d2/d10/operational_2src_2visitor_2chassis_8cc.html" target="_top" xlink:title="src/operational/src\l/visitor/chassis.cc">
<polygon fill="white" stroke="black" points="346,-78.5 346,-108.5 443,-108.5 443,-78.5 346,-78.5"/>
<text text-anchor="start" x="354" y="-96.5" font-family="Helvetica,sans-Serif" font-size="10.00">src/operational/src</text>
<text text-anchor="middle" x="394.5" y="-85.5" font-family="Helvetica,sans-Serif" font-size="10.00">/visitor/chassis.cc</text>
</a>
</g>
</g>
<!-- Node7&#45;&gt;Node8 -->
<g id="edge8" class="edge"><title>Node7&#45;&gt;Node8</title>
<path fill="none" stroke="midnightblue" d="M369.255,-136.576C374.856,-127.241 381.151,-116.748 386.054,-108.577"/>
<polygon fill="midnightblue" stroke="midnightblue" points="366.106,-135.02 363.962,-145.396 372.109,-138.622 366.106,-135.02"/>
</g>
<!-- Node9&#45;&gt;Node4 -->
<g id="edge12" class="edge"><title>Node9&#45;&gt;Node4</title>
<path fill="none" stroke="midnightblue" d="M473.173,-135.177C471.005,-117.41 465.468,-93.7655 451.5,-78 430.767,-54.5982 398.68,-40.7282 371.103,-32.6466"/>
<polygon fill="midnightblue" stroke="midnightblue" points="469.71,-135.73 474.133,-145.358 476.679,-135.073 469.71,-135.73"/>
</g>
<!-- Node10 -->
<g id="node10" class="node"><title>Node10</title>
<g id="a_node10"><a xlink:href="../../d5/d33/operational_2src_2visitor_2floppy__disk_8cc.html" target="_top" xlink:title="src/operational/src\l/visitor/floppy_disk.cc">
<polygon fill="white" stroke="black" points="499.5,-78.5 499.5,-108.5 609.5,-108.5 609.5,-78.5 499.5,-78.5"/>
<text text-anchor="start" x="507.5" y="-96.5" font-family="Helvetica,sans-Serif" font-size="10.00">src/operational/src</text>
<text text-anchor="middle" x="554.5" y="-85.5" font-family="Helvetica,sans-Serif" font-size="10.00">/visitor/floppy_disk.cc</text>
</a>
</g>
</g>
<!-- Node9&#45;&gt;Node10 -->
<g id="edge11" class="edge"><title>Node9&#45;&gt;Node10</title>
<path fill="none" stroke="midnightblue" d="M499.875,-138.883C512.032,-129.005 526.279,-117.429 537.175,-108.577"/>
<polygon fill="midnightblue" stroke="midnightblue" points="497.413,-136.374 491.859,-145.396 501.827,-141.806 497.413,-136.374"/>
</g>
<!-- Node12 -->
<g id="node12" class="node"><title>Node12</title>
<g id="a_node12"><a xlink:href="../../d1/dcc/inventory_8cc.html" target="_top" xlink:title="src/operational/src\l/visitor/inventory.cc">
<polygon fill="white" stroke="black" points="628,-78.5 628,-108.5 727,-108.5 727,-78.5 628,-78.5"/>
<text text-anchor="start" x="636" y="-96.5" font-family="Helvetica,sans-Serif" font-size="10.00">src/operational/src</text>
<text text-anchor="middle" x="677.5" y="-85.5" font-family="Helvetica,sans-Serif" font-size="10.00">/visitor/inventory.cc</text>
</a>
</g>
</g>
<!-- Node11&#45;&gt;Node12 -->
<g id="edge14" class="edge"><title>Node11&#45;&gt;Node12</title>
<path fill="none" stroke="midnightblue" d="M677.5,-135.108C677.5,-126.154 677.5,-116.323 677.5,-108.577"/>
<polygon fill="midnightblue" stroke="midnightblue" points="674,-135.396 677.5,-145.396 681,-135.396 674,-135.396"/>
</g>
<!-- Node13 -->
<g id="node13" class="node"><title>Node13</title>
<g id="a_node13"><a xlink:href="../../d4/dba/inventory__visitor_8h.html" target="_top" xlink:title="src/operational/src\l/visitor/inventory_visitor.h">
<polygon fill="white" stroke="black" points="745.5,-78.5 745.5,-108.5 869.5,-108.5 869.5,-78.5 745.5,-78.5"/>
<text text-anchor="start" x="753.5" y="-96.5" font-family="Helvetica,sans-Serif" font-size="10.00">src/operational/src</text>
<text text-anchor="middle" x="807.5" y="-85.5" font-family="Helvetica,sans-Serif" font-size="10.00">/visitor/inventory_visitor.h</text>
</a>
</g>
</g>
<!-- Node11&#45;&gt;Node13 -->
<g id="edge15" class="edge"><title>Node11&#45;&gt;Node13</title>
<path fill="none" stroke="midnightblue" d="M714.793,-140.853C735.348,-130.576 760.45,-118.025 779.347,-108.577"/>
<polygon fill="midnightblue" stroke="midnightblue" points="713.087,-137.793 705.708,-145.396 716.218,-144.054 713.087,-137.793"/>
</g>
<!-- Node13&#45;&gt;Node4 -->
<g id="edge17" class="edge"><title>Node13&#45;&gt;Node4</title>
<path fill="none" stroke="midnightblue" d="M734.976,-77.8091C598.367,-55.0473 449.203,-36.9361 371.252,-27.9883"/>
<polygon fill="midnightblue" stroke="midnightblue" points="734.766,-81.3226 745.207,-79.5266 735.925,-74.4192 734.766,-81.3226"/>
</g>
<!-- Node14 -->
<g id="node14" class="node"><title>Node14</title>
<g id="a_node14"><a xlink:href="../../d3/d75/inventory__visitor_8cc.html" target="_top" xlink:title="src/operational/src\l/visitor/inventory_visitor.cc">
<polygon fill="white" stroke="black" points="743,-6 743,-36 872,-36 872,-6 743,-6"/>
<text text-anchor="start" x="751" y="-24" font-family="Helvetica,sans-Serif" font-size="10.00">src/operational/src</text>
<text text-anchor="middle" x="807.5" y="-13" font-family="Helvetica,sans-Serif" font-size="10.00">/visitor/inventory_visitor.cc</text>
</a>
</g>
</g>
<!-- Node13&#45;&gt;Node14 -->
<g id="edge16" class="edge"><title>Node13&#45;&gt;Node14</title>
<path fill="none" stroke="midnightblue" d="M807.5,-68.2317C807.5,-57.5679 807.5,-45.4145 807.5,-36.2455"/>
<polygon fill="midnightblue" stroke="midnightblue" points="804,-68.2332 807.5,-78.2333 811,-68.2333 804,-68.2332"/>
</g>
</g>
</svg>
