<?xml version="1.0" encoding="UTF-8" standalone="no"?>
<!DOCTYPE svg PUBLIC "-//W3C//DTD SVG 1.1//EN"
 "http://www.w3.org/Graphics/SVG/1.1/DTD/svg11.dtd">
<!-- Generated by graphviz version 2.38.0 (20140413.2041)
 -->
<!-- Title: operational::iterator::FilteringListTraverser&lt; Item &gt; Pages: 1 -->
<svg width="135pt" height="270pt"
 viewBox="0.00 0.00 135.00 270.00" xmlns="http://www.w3.org/2000/svg" xmlns:xlink="http://www.w3.org/1999/xlink">
<g id="graph0" class="graph" transform="scale(1 1) rotate(0) translate(4 266)">
<title>operational::iterator::FilteringListTraverser&lt; Item &gt;</title>
<polygon fill="white" stroke="none" points="-4,4 -4,-266 131,-266 131,4 -4,4"/>
<!-- Node1 -->
<g id="node1" class="node"><title>Node1</title>
<polygon fill="#bfbfbf" stroke="black" points="0,-0.5 0,-123.5 127,-123.5 127,-0.5 0,-0.5"/>
<text text-anchor="start" x="8" y="-111.5" font-family="Helvetica,sans-Serif" font-size="10.00">operational::iterator</text>
<text text-anchor="start" x="8" y="-100.5" font-family="Helvetica,sans-Serif" font-size="10.00">::FilteringListTraverser</text>
<text text-anchor="middle" x="63.5" y="-89.5" font-family="Helvetica,sans-Serif" font-size="10.00">&lt; Item &gt;</text>
<polyline fill="none" stroke="black" points="0,-82.5 127,-82.5 "/>
<text text-anchor="middle" x="63.5" y="-70.5" font-family="Helvetica,sans-Serif" font-size="10.00"> </text>
<polyline fill="none" stroke="black" points="0,-63.5 127,-63.5 "/>
<text text-anchor="start" x="8" y="-51.5" font-family="Helvetica,sans-Serif" font-size="10.00">+ FilteringListTraverser()</text>
<text text-anchor="start" x="8" y="-40.5" font-family="Helvetica,sans-Serif" font-size="10.00">+ ~FilteringListTraverser()</text>
<text text-anchor="start" x="8" y="-29.5" font-family="Helvetica,sans-Serif" font-size="10.00">+ Traverse()</text>
<text text-anchor="start" x="8" y="-18.5" font-family="Helvetica,sans-Serif" font-size="10.00"># ProcessItem()</text>
<text text-anchor="start" x="8" y="-7.5" font-family="Helvetica,sans-Serif" font-size="10.00"># TestItem()</text>
</g>
<!-- Node2 -->
<g id="node2" class="node"><title>Node2</title>
<g id="a_node2"><a xlink:href="../../d4/d1d/classoperational_1_1iterator_1_1_list_traverser.html" target="_top" xlink:title="{operational::iterator\l::ListTraverser\&lt; Item \&gt;\n||+ ListTraverser()\l+ ~ListTraverser()\l+ Traverse()\l# ProcessItem()\l}">
<polygon fill="white" stroke="black" points="6.5,-160.5 6.5,-261.5 120.5,-261.5 120.5,-160.5 6.5,-160.5"/>
<text text-anchor="start" x="14.5" y="-249.5" font-family="Helvetica,sans-Serif" font-size="10.00">operational::iterator</text>
<text text-anchor="middle" x="63.5" y="-238.5" font-family="Helvetica,sans-Serif" font-size="10.00">::ListTraverser&lt; Item &gt;</text>
<polyline fill="none" stroke="black" points="6.5,-231.5 120.5,-231.5 "/>
<text text-anchor="middle" x="63.5" y="-219.5" font-family="Helvetica,sans-Serif" font-size="10.00"> </text>
<polyline fill="none" stroke="black" points="6.5,-212.5 120.5,-212.5 "/>
<text text-anchor="start" x="14.5" y="-200.5" font-family="Helvetica,sans-Serif" font-size="10.00">+ ListTraverser()</text>
<text text-anchor="start" x="14.5" y="-189.5" font-family="Helvetica,sans-Serif" font-size="10.00">+ ~ListTraverser()</text>
<text text-anchor="start" x="14.5" y="-178.5" font-family="Helvetica,sans-Serif" font-size="10.00">+ Traverse()</text>
<text text-anchor="start" x="14.5" y="-167.5" font-family="Helvetica,sans-Serif" font-size="10.00"># ProcessItem()</text>
</a>
</g>
</g>
<!-- Node2&#45;&gt;Node1 -->
<g id="edge1" class="edge"><title>Node2&#45;&gt;Node1</title>
<path fill="none" stroke="midnightblue" d="M63.5,-150.139C63.5,-141.411 63.5,-132.417 63.5,-123.672"/>
<polygon fill="none" stroke="midnightblue" points="60.0001,-150.232 63.5,-160.233 67.0001,-150.233 60.0001,-150.232"/>
</g>
</g>
</svg>
