<?xml version="1.0" encoding="UTF-8" standalone="no"?>
<!DOCTYPE svg PUBLIC "-//W3C//DTD SVG 1.1//EN"
 "http://www.w3.org/Graphics/SVG/1.1/DTD/svg11.dtd">
<!-- Generated by graphviz version 2.38.0 (20140413.2041)
 -->
<!-- Title: structural::facade::BytecodeStream::Write Pages: 1 -->
<svg width="279pt" height="50pt"
 viewBox="0.00 0.00 279.00 50.00" xmlns="http://www.w3.org/2000/svg" xmlns:xlink="http://www.w3.org/1999/xlink">
<g id="graph0" class="graph" transform="scale(1 1) rotate(0) translate(4 46)">
<title>structural::facade::BytecodeStream::Write</title>
<polygon fill="white" stroke="none" points="-4,4 -4,-46 275,-46 275,4 -4,4"/>
<!-- Node1 -->
<g id="node1" class="node"><title>Node1</title>
<polygon fill="#bfbfbf" stroke="black" points="0,-6 0,-36 125,-36 125,-6 0,-6"/>
<text text-anchor="start" x="8" y="-24" font-family="Helvetica,sans-Serif" font-size="10.00">structural::facade</text>
<text text-anchor="middle" x="62.5" y="-13" font-family="Helvetica,sans-Serif" font-size="10.00">::BytecodeStream::Write</text>
</g>
<!-- Node2 -->
<g id="node2" class="node"><title>Node2</title>
<g id="a_node2"><a xlink:href="../../d0/d8f/classstructural_1_1facade_1_1_r_i_s_c_code_generator.html#aff7eb93c3dd8fb524899cc5aa3c1faa4" target="_top" xlink:title="structural::facade\l::RISCCodeGenerator\l::Visit">
<polygon fill="white" stroke="black" points="161,-0.5 161,-41.5 271,-41.5 271,-0.5 161,-0.5"/>
<text text-anchor="start" x="169" y="-29.5" font-family="Helvetica,sans-Serif" font-size="10.00">structural::facade</text>
<text text-anchor="start" x="169" y="-18.5" font-family="Helvetica,sans-Serif" font-size="10.00">::RISCCodeGenerator</text>
<text text-anchor="middle" x="216" y="-7.5" font-family="Helvetica,sans-Serif" font-size="10.00">::Visit</text>
</a>
</g>
</g>
<!-- Node1&#45;&gt;Node2 -->
<g id="edge1" class="edge"><title>Node1&#45;&gt;Node2</title>
<path fill="none" stroke="midnightblue" d="M135.16,-21C143.762,-21 152.435,-21 160.733,-21"/>
<polygon fill="midnightblue" stroke="midnightblue" points="135.121,-17.5001 125.121,-21 135.121,-24.5001 135.121,-17.5001"/>
</g>
</g>
</svg>
