<?xml version="1.0" encoding="UTF-8" standalone="no"?>
<!DOCTYPE svg PUBLIC "-//W3C//DTD SVG 1.1//EN"
 "http://www.w3.org/Graphics/SVG/1.1/DTD/svg11.dtd">
<!-- Generated by graphviz version 2.38.0 (20140413.2041)
 -->
<!-- Title: creational::commons::Door::Initialize Pages: 1 -->
<svg width="273pt" height="50pt"
 viewBox="0.00 0.00 273.00 50.00" xmlns="http://www.w3.org/2000/svg" xmlns:xlink="http://www.w3.org/1999/xlink">
<g id="graph0" class="graph" transform="scale(1 1) rotate(0) translate(4 46)">
<title>creational::commons::Door::Initialize</title>
<polygon fill="white" stroke="none" points="-4,4 -4,-46 269,-46 269,4 -4,4"/>
<!-- Node1 -->
<g id="node1" class="node"><title>Node1</title>
<polygon fill="#bfbfbf" stroke="black" points="0,-6 0,-36 107,-36 107,-6 0,-6"/>
<text text-anchor="start" x="8" y="-24" font-family="Helvetica,sans-Serif" font-size="10.00">creational::commons</text>
<text text-anchor="middle" x="53.5" y="-13" font-family="Helvetica,sans-Serif" font-size="10.00">::Door::Initialize</text>
</g>
<!-- Node2 -->
<g id="node2" class="node"><title>Node2</title>
<g id="a_node2"><a xlink:href="../../d9/d21/classcreational_1_1prototype_1_1_maze_prototype_factory.html#a579cc8f24e548f309f38a778560b4096" target="_top" xlink:title="creational::prototype\l::MazePrototypeFactory\l::MakeDoor">
<polygon fill="white" stroke="black" points="143,-0.5 143,-41.5 265,-41.5 265,-0.5 143,-0.5"/>
<text text-anchor="start" x="151" y="-29.5" font-family="Helvetica,sans-Serif" font-size="10.00">creational::prototype</text>
<text text-anchor="start" x="151" y="-18.5" font-family="Helvetica,sans-Serif" font-size="10.00">::MazePrototypeFactory</text>
<text text-anchor="middle" x="204" y="-7.5" font-family="Helvetica,sans-Serif" font-size="10.00">::MakeDoor</text>
</a>
</g>
</g>
<!-- Node1&#45;&gt;Node2 -->
<g id="edge1" class="edge"><title>Node1&#45;&gt;Node2</title>
<path fill="none" stroke="midnightblue" d="M117.409,-21C125.823,-21 134.437,-21 142.803,-21"/>
<polygon fill="midnightblue" stroke="midnightblue" points="117.274,-17.5001 107.274,-21 117.274,-24.5001 117.274,-17.5001"/>
</g>
</g>
</svg>
