<?xml version="1.0" encoding="UTF-8" standalone="no"?>
<!DOCTYPE svg PUBLIC "-//W3C//DTD SVG 1.1//EN"
 "http://www.w3.org/Graphics/SVG/1.1/DTD/svg11.dtd">
<!-- Generated by graphviz version 2.38.0 (20140413.2041)
 -->
<!-- Title: creational::commons::Door::Door Pages: 1 -->
<svg width="416pt" height="50pt"
 viewBox="0.00 0.00 416.00 50.00" xmlns="http://www.w3.org/2000/svg" xmlns:xlink="http://www.w3.org/1999/xlink">
<g id="graph0" class="graph" transform="scale(1 1) rotate(0) translate(4 46)">
<title>creational::commons::Door::Door</title>
<polygon fill="white" stroke="none" points="-4,4 -4,-46 412,-46 412,4 -4,4"/>
<!-- Node1 -->
<g id="node1" class="node"><title>Node1</title>
<polygon fill="#bfbfbf" stroke="black" points="0,-6 0,-36 107,-36 107,-6 0,-6"/>
<text text-anchor="start" x="8" y="-24" font-family="Helvetica,sans-Serif" font-size="10.00">creational::commons</text>
<text text-anchor="middle" x="53.5" y="-13" font-family="Helvetica,sans-Serif" font-size="10.00">::Door::Door</text>
</g>
<!-- Node2 -->
<g id="node2" class="node"><title>Node2</title>
<g id="a_node2"><a xlink:href="../../df/d04/classcreational_1_1commons_1_1_door.html#a2168e2b001d02f3635386352e87f2f3c" target="_top" xlink:title="creational::commons\l::Door::Clone">
<polygon fill="white" stroke="black" points="143,-6 143,-36 250,-36 250,-6 143,-6"/>
<text text-anchor="start" x="151" y="-24" font-family="Helvetica,sans-Serif" font-size="10.00">creational::commons</text>
<text text-anchor="middle" x="196.5" y="-13" font-family="Helvetica,sans-Serif" font-size="10.00">::Door::Clone</text>
</a>
</g>
</g>
<!-- Node1&#45;&gt;Node2 -->
<g id="edge1" class="edge"><title>Node1&#45;&gt;Node2</title>
<path fill="none" stroke="midnightblue" d="M117.05,-21C125.7,-21 134.51,-21 142.953,-21"/>
<polygon fill="midnightblue" stroke="midnightblue" points="117.003,-17.5001 107.003,-21 117.003,-24.5001 117.003,-17.5001"/>
</g>
<!-- Node3 -->
<g id="node3" class="node"><title>Node3</title>
<g id="a_node3"><a xlink:href="../../d9/d21/classcreational_1_1prototype_1_1_maze_prototype_factory.html#a579cc8f24e548f309f38a778560b4096" target="_top" xlink:title="creational::prototype\l::MazePrototypeFactory\l::MakeDoor">
<polygon fill="white" stroke="black" points="286,-0.5 286,-41.5 408,-41.5 408,-0.5 286,-0.5"/>
<text text-anchor="start" x="294" y="-29.5" font-family="Helvetica,sans-Serif" font-size="10.00">creational::prototype</text>
<text text-anchor="start" x="294" y="-18.5" font-family="Helvetica,sans-Serif" font-size="10.00">::MazePrototypeFactory</text>
<text text-anchor="middle" x="347" y="-7.5" font-family="Helvetica,sans-Serif" font-size="10.00">::MakeDoor</text>
</a>
</g>
</g>
<!-- Node2&#45;&gt;Node3 -->
<g id="edge2" class="edge"><title>Node2&#45;&gt;Node3</title>
<path fill="none" stroke="midnightblue" d="M260.409,-21C268.823,-21 277.437,-21 285.803,-21"/>
<polygon fill="midnightblue" stroke="midnightblue" points="260.274,-17.5001 250.274,-21 260.274,-24.5001 260.274,-17.5001"/>
</g>
</g>
</svg>
