<?xml version="1.0" encoding="UTF-8" standalone="no"?>
<!DOCTYPE svg PUBLIC "-//W3C//DTD SVG 1.1//EN"
 "http://www.w3.org/Graphics/SVG/1.1/DTD/svg11.dtd">
<!-- Generated by graphviz version 2.38.0 (20140413.2041)
 -->
<!-- Title: src/structural/src/adapter/text_shape_object_adapter.h Pages: 1 -->
<svg width="234pt" height="128pt"
 viewBox="0.00 0.00 233.50 128.00" xmlns="http://www.w3.org/2000/svg" xmlns:xlink="http://www.w3.org/1999/xlink">
<g id="graph0" class="graph" transform="scale(1 1) rotate(0) translate(4 124)">
<title>src/structural/src/adapter/text_shape_object_adapter.h</title>
<polygon fill="white" stroke="none" points="-4,4 -4,-124 229.5,-124 229.5,4 -4,4"/>
<!-- Node1 -->
<g id="node1" class="node"><title>Node1</title>
<polygon fill="#bfbfbf" stroke="black" points="61,-78.5 61,-119.5 164,-119.5 164,-78.5 61,-78.5"/>
<text text-anchor="start" x="69" y="-107.5" font-family="Helvetica,sans-Serif" font-size="10.00">src/structural/src</text>
<text text-anchor="start" x="69" y="-96.5" font-family="Helvetica,sans-Serif" font-size="10.00">/adapter/text_shape</text>
<text text-anchor="middle" x="112.5" y="-85.5" font-family="Helvetica,sans-Serif" font-size="10.00">_object_adapter.h</text>
</g>
<!-- Node2 -->
<g id="node2" class="node"><title>Node2</title>
<g id="a_node2"><a xlink:href="../../d7/d61/text__shape__object__adapter_8cc.html" target="_top" xlink:title="src/structural/src\l/adapter/text_shape\l_object_adapter.cc">
<polygon fill="white" stroke="black" points="0,-0.5 0,-41.5 103,-41.5 103,-0.5 0,-0.5"/>
<text text-anchor="start" x="8" y="-29.5" font-family="Helvetica,sans-Serif" font-size="10.00">src/structural/src</text>
<text text-anchor="start" x="8" y="-18.5" font-family="Helvetica,sans-Serif" font-size="10.00">/adapter/text_shape</text>
<text text-anchor="middle" x="51.5" y="-7.5" font-family="Helvetica,sans-Serif" font-size="10.00">_object_adapter.cc</text>
</a>
</g>
</g>
<!-- Node1&#45;&gt;Node2 -->
<g id="edge1" class="edge"><title>Node1&#45;&gt;Node2</title>
<path fill="none" stroke="midnightblue" d="M90.5296,-70.627C82.7947,-60.9901 74.264,-50.3617 67.1558,-41.5056"/>
<polygon fill="midnightblue" stroke="midnightblue" points="87.8019,-72.8202 96.791,-78.4281 93.261,-68.4386 87.8019,-72.8202"/>
</g>
<!-- Node3 -->
<g id="node3" class="node"><title>Node3</title>
<g id="a_node3"><a xlink:href="../../d9/d38/adapter__test_8cc.html" target="_top" xlink:title="src/structural_tests\l/src/adapter/adapter\l_test.cc">
<polygon fill="white" stroke="black" points="121.5,-0.5 121.5,-41.5 225.5,-41.5 225.5,-0.5 121.5,-0.5"/>
<text text-anchor="start" x="129.5" y="-29.5" font-family="Helvetica,sans-Serif" font-size="10.00">src/structural_tests</text>
<text text-anchor="start" x="129.5" y="-18.5" font-family="Helvetica,sans-Serif" font-size="10.00">/src/adapter/adapter</text>
<text text-anchor="middle" x="173.5" y="-7.5" font-family="Helvetica,sans-Serif" font-size="10.00">_test.cc</text>
</a>
</g>
</g>
<!-- Node1&#45;&gt;Node3 -->
<g id="edge2" class="edge"><title>Node1&#45;&gt;Node3</title>
<path fill="none" stroke="midnightblue" d="M134.47,-70.627C142.205,-60.9901 150.736,-50.3617 157.844,-41.5056"/>
<polygon fill="midnightblue" stroke="midnightblue" points="131.739,-68.4386 128.209,-78.4281 137.198,-72.8202 131.739,-68.4386"/>
</g>
</g>
</svg>
