<?xml version="1.0" encoding="UTF-8" standalone="no"?>
<!DOCTYPE svg PUBLIC "-//W3C//DTD SVG 1.1//EN"
 "http://www.w3.org/Graphics/SVG/1.1/DTD/svg11.dtd">
<!-- Generated by graphviz version 2.38.0 (20140413.2041)
 -->
<!-- Title: operational::chain::HelpHandlerInterface Pages: 1 -->
<svg width="272pt" height="485pt"
 viewBox="0.00 0.00 272.00 485.00" xmlns="http://www.w3.org/2000/svg" xmlns:xlink="http://www.w3.org/1999/xlink">
<g id="graph0" class="graph" transform="scale(1 1) rotate(0) translate(4 481)">
<title>operational::chain::HelpHandlerInterface</title>
<polygon fill="white" stroke="none" points="-4,4 -4,-481 268,-481 268,4 -4,4"/>
<!-- Node1 -->
<g id="node1" class="node"><title>Node1</title>
<polygon fill="#bfbfbf" stroke="black" points="40,-375.5 40,-476.5 167,-476.5 167,-375.5 40,-375.5"/>
<text text-anchor="start" x="48" y="-464.5" font-family="Helvetica,sans-Serif" font-size="10.00">operational::chain</text>
<text text-anchor="middle" x="103.5" y="-453.5" font-family="Helvetica,sans-Serif" font-size="10.00">::HelpHandlerInterface</text>
<polyline fill="none" stroke="black" points="40,-446.5 167,-446.5 "/>
<text text-anchor="middle" x="103.5" y="-434.5" font-family="Helvetica,sans-Serif" font-size="10.00"> </text>
<polyline fill="none" stroke="black" points="40,-427.5 167,-427.5 "/>
<text text-anchor="start" x="48" y="-415.5" font-family="Helvetica,sans-Serif" font-size="10.00">+ ~HelpHandlerInterface()</text>
<text text-anchor="start" x="48" y="-404.5" font-family="Helvetica,sans-Serif" font-size="10.00">+ HasHelp()</text>
<text text-anchor="start" x="48" y="-393.5" font-family="Helvetica,sans-Serif" font-size="10.00">+ SetHandler()</text>
<text text-anchor="start" x="48" y="-382.5" font-family="Helvetica,sans-Serif" font-size="10.00">+ HandleHelp()</text>
</g>
<!-- Node2 -->
<g id="node2" class="node"><title>Node2</title>
<g id="a_node2"><a xlink:href="../../dc/d00/classoperational_1_1chain_1_1_application.html" target="_top" xlink:title="{operational::chain\l::Application\n||+ Application()\l+ Application()\l+ Application()\l+ Application()\l+ HasHelp()\l+ SetHandler()\l+ HandleHelp()\l+ topic()\l+ name()\l+ help_message()\l}">
<polygon fill="white" stroke="black" points="0,-171.5 0,-338.5 95,-338.5 95,-171.5 0,-171.5"/>
<text text-anchor="start" x="8" y="-326.5" font-family="Helvetica,sans-Serif" font-size="10.00">operational::chain</text>
<text text-anchor="middle" x="47.5" y="-315.5" font-family="Helvetica,sans-Serif" font-size="10.00">::Application</text>
<polyline fill="none" stroke="black" points="0,-308.5 95,-308.5 "/>
<text text-anchor="middle" x="47.5" y="-296.5" font-family="Helvetica,sans-Serif" font-size="10.00"> </text>
<polyline fill="none" stroke="black" points="0,-289.5 95,-289.5 "/>
<text text-anchor="start" x="8" y="-277.5" font-family="Helvetica,sans-Serif" font-size="10.00">+ Application()</text>
<text text-anchor="start" x="8" y="-266.5" font-family="Helvetica,sans-Serif" font-size="10.00">+ Application()</text>
<text text-anchor="start" x="8" y="-255.5" font-family="Helvetica,sans-Serif" font-size="10.00">+ Application()</text>
<text text-anchor="start" x="8" y="-244.5" font-family="Helvetica,sans-Serif" font-size="10.00">+ Application()</text>
<text text-anchor="start" x="8" y="-233.5" font-family="Helvetica,sans-Serif" font-size="10.00">+ HasHelp()</text>
<text text-anchor="start" x="8" y="-222.5" font-family="Helvetica,sans-Serif" font-size="10.00">+ SetHandler()</text>
<text text-anchor="start" x="8" y="-211.5" font-family="Helvetica,sans-Serif" font-size="10.00">+ HandleHelp()</text>
<text text-anchor="start" x="8" y="-200.5" font-family="Helvetica,sans-Serif" font-size="10.00">+ topic()</text>
<text text-anchor="start" x="8" y="-189.5" font-family="Helvetica,sans-Serif" font-size="10.00">+ name()</text>
<text text-anchor="start" x="8" y="-178.5" font-family="Helvetica,sans-Serif" font-size="10.00">+ help_message()</text>
</a>
</g>
</g>
<!-- Node1&#45;&gt;Node2 -->
<g id="edge1" class="edge"><title>Node1&#45;&gt;Node2</title>
<path fill="none" stroke="midnightblue" d="M83.8084,-365.574C80.9256,-356.874 77.9135,-347.784 74.9104,-338.721"/>
<polygon fill="none" stroke="midnightblue" points="80.5332,-366.817 87.001,-375.208 87.1779,-364.615 80.5332,-366.817"/>
</g>
<!-- Node3 -->
<g id="node3" class="node"><title>Node3</title>
<g id="a_node3"><a xlink:href="../../df/d6a/classoperational_1_1chain_1_1_widget.html" target="_top" xlink:title="{operational::chain\l::Widget\n||+ HasHelp()\l+ SetHandler()\l+ HandleHelp()\l+ topic()\l+ name()\l+ help_message()\l# Widget()\l# Widget()\l# Widget()\l# Widget()\l}">
<polygon fill="white" stroke="black" points="113,-171.5 113,-338.5 208,-338.5 208,-171.5 113,-171.5"/>
<text text-anchor="start" x="121" y="-326.5" font-family="Helvetica,sans-Serif" font-size="10.00">operational::chain</text>
<text text-anchor="middle" x="160.5" y="-315.5" font-family="Helvetica,sans-Serif" font-size="10.00">::Widget</text>
<polyline fill="none" stroke="black" points="113,-308.5 208,-308.5 "/>
<text text-anchor="middle" x="160.5" y="-296.5" font-family="Helvetica,sans-Serif" font-size="10.00"> </text>
<polyline fill="none" stroke="black" points="113,-289.5 208,-289.5 "/>
<text text-anchor="start" x="121" y="-277.5" font-family="Helvetica,sans-Serif" font-size="10.00">+ HasHelp()</text>
<text text-anchor="start" x="121" y="-266.5" font-family="Helvetica,sans-Serif" font-size="10.00">+ SetHandler()</text>
<text text-anchor="start" x="121" y="-255.5" font-family="Helvetica,sans-Serif" font-size="10.00">+ HandleHelp()</text>
<text text-anchor="start" x="121" y="-244.5" font-family="Helvetica,sans-Serif" font-size="10.00">+ topic()</text>
<text text-anchor="start" x="121" y="-233.5" font-family="Helvetica,sans-Serif" font-size="10.00">+ name()</text>
<text text-anchor="start" x="121" y="-222.5" font-family="Helvetica,sans-Serif" font-size="10.00">+ help_message()</text>
<text text-anchor="start" x="121" y="-211.5" font-family="Helvetica,sans-Serif" font-size="10.00"># Widget()</text>
<text text-anchor="start" x="121" y="-200.5" font-family="Helvetica,sans-Serif" font-size="10.00"># Widget()</text>
<text text-anchor="start" x="121" y="-189.5" font-family="Helvetica,sans-Serif" font-size="10.00"># Widget()</text>
<text text-anchor="start" x="121" y="-178.5" font-family="Helvetica,sans-Serif" font-size="10.00"># Widget()</text>
</a>
</g>
</g>
<!-- Node1&#45;&gt;Node3 -->
<g id="edge2" class="edge"><title>Node1&#45;&gt;Node3</title>
<path fill="none" stroke="midnightblue" d="M123.543,-365.574C126.478,-356.874 129.543,-347.784 132.6,-338.721"/>
<polygon fill="none" stroke="midnightblue" points="120.173,-364.614 120.294,-375.208 126.806,-366.852 120.173,-364.614"/>
</g>
<!-- Node4 -->
<g id="node4" class="node"><title>Node4</title>
<g id="a_node4"><a xlink:href="../../d1/d32/classoperational_1_1chain_1_1_button.html" target="_top" xlink:title="{operational::chain\l::Button\n||+ Button()\l+ Button()\l+ Button()\l+ Button()\l+ HasHelp()\l+ HandleHelp()\l+ help_message()\l}">
<polygon fill="white" stroke="black" points="56,-0.5 56,-134.5 151,-134.5 151,-0.5 56,-0.5"/>
<text text-anchor="start" x="64" y="-122.5" font-family="Helvetica,sans-Serif" font-size="10.00">operational::chain</text>
<text text-anchor="middle" x="103.5" y="-111.5" font-family="Helvetica,sans-Serif" font-size="10.00">::Button</text>
<polyline fill="none" stroke="black" points="56,-104.5 151,-104.5 "/>
<text text-anchor="middle" x="103.5" y="-92.5" font-family="Helvetica,sans-Serif" font-size="10.00"> </text>
<polyline fill="none" stroke="black" points="56,-85.5 151,-85.5 "/>
<text text-anchor="start" x="64" y="-73.5" font-family="Helvetica,sans-Serif" font-size="10.00">+ Button()</text>
<text text-anchor="start" x="64" y="-62.5" font-family="Helvetica,sans-Serif" font-size="10.00">+ Button()</text>
<text text-anchor="start" x="64" y="-51.5" font-family="Helvetica,sans-Serif" font-size="10.00">+ Button()</text>
<text text-anchor="start" x="64" y="-40.5" font-family="Helvetica,sans-Serif" font-size="10.00">+ Button()</text>
<text text-anchor="start" x="64" y="-29.5" font-family="Helvetica,sans-Serif" font-size="10.00">+ HasHelp()</text>
<text text-anchor="start" x="64" y="-18.5" font-family="Helvetica,sans-Serif" font-size="10.00">+ HandleHelp()</text>
<text text-anchor="start" x="64" y="-7.5" font-family="Helvetica,sans-Serif" font-size="10.00">+ help_message()</text>
</a>
</g>
</g>
<!-- Node3&#45;&gt;Node4 -->
<g id="edge3" class="edge"><title>Node3&#45;&gt;Node4</title>
<path fill="none" stroke="midnightblue" d="M132.069,-161.475C129.286,-152.417 126.502,-143.356 123.823,-134.638"/>
<polygon fill="none" stroke="midnightblue" points="128.801,-162.756 135.084,-171.286 135.492,-160.699 128.801,-162.756"/>
</g>
<!-- Node5 -->
<g id="node5" class="node"><title>Node5</title>
<g id="a_node5"><a xlink:href="../../dd/df0/classoperational_1_1chain_1_1_dialog.html" target="_top" xlink:title="{operational::chain\l::Dialog\n||+ Dialog()\l+ Dialog()\l+ Dialog()\l+ Dialog()\l+ HasHelp()\l+ HandleHelp()\l+ help_message()\l}">
<polygon fill="white" stroke="black" points="169,-0.5 169,-134.5 264,-134.5 264,-0.5 169,-0.5"/>
<text text-anchor="start" x="177" y="-122.5" font-family="Helvetica,sans-Serif" font-size="10.00">operational::chain</text>
<text text-anchor="middle" x="216.5" y="-111.5" font-family="Helvetica,sans-Serif" font-size="10.00">::Dialog</text>
<polyline fill="none" stroke="black" points="169,-104.5 264,-104.5 "/>
<text text-anchor="middle" x="216.5" y="-92.5" font-family="Helvetica,sans-Serif" font-size="10.00"> </text>
<polyline fill="none" stroke="black" points="169,-85.5 264,-85.5 "/>
<text text-anchor="start" x="177" y="-73.5" font-family="Helvetica,sans-Serif" font-size="10.00">+ Dialog()</text>
<text text-anchor="start" x="177" y="-62.5" font-family="Helvetica,sans-Serif" font-size="10.00">+ Dialog()</text>
<text text-anchor="start" x="177" y="-51.5" font-family="Helvetica,sans-Serif" font-size="10.00">+ Dialog()</text>
<text text-anchor="start" x="177" y="-40.5" font-family="Helvetica,sans-Serif" font-size="10.00">+ Dialog()</text>
<text text-anchor="start" x="177" y="-29.5" font-family="Helvetica,sans-Serif" font-size="10.00">+ HasHelp()</text>
<text text-anchor="start" x="177" y="-18.5" font-family="Helvetica,sans-Serif" font-size="10.00">+ HandleHelp()</text>
<text text-anchor="start" x="177" y="-7.5" font-family="Helvetica,sans-Serif" font-size="10.00">+ help_message()</text>
</a>
</g>
</g>
<!-- Node3&#45;&gt;Node5 -->
<g id="edge4" class="edge"><title>Node3&#45;&gt;Node5</title>
<path fill="none" stroke="midnightblue" d="M188.432,-161.475C191.167,-152.417 193.902,-143.356 196.534,-134.638"/>
<polygon fill="none" stroke="midnightblue" points="185.01,-160.702 185.47,-171.286 191.711,-162.725 185.01,-160.702"/>
</g>
</g>
</svg>
