<?xml version="1.0" encoding="UTF-8" standalone="no"?>
<!DOCTYPE svg PUBLIC "-//W3C//DTD SVG 1.1//EN"
 "http://www.w3.org/Graphics/SVG/1.1/DTD/svg11.dtd">
<!-- Generated by graphviz version 2.38.0 (20140413.2041)
 -->
<!-- Title: src/structural/src/flyweight/glyph_factory.h Pages: 1 -->
<svg width="272pt" height="117pt"
 viewBox="0.00 0.00 271.50 117.00" xmlns="http://www.w3.org/2000/svg" xmlns:xlink="http://www.w3.org/1999/xlink">
<g id="graph0" class="graph" transform="scale(1 1) rotate(0) translate(4 113)">
<title>src/structural/src/flyweight/glyph_factory.h</title>
<polygon fill="white" stroke="none" points="-4,4 -4,-113 267.5,-113 267.5,4 -4,4"/>
<!-- Node1 -->
<g id="node1" class="node"><title>Node1</title>
<polygon fill="#bfbfbf" stroke="black" points="72.5,-78.5 72.5,-108.5 198.5,-108.5 198.5,-78.5 72.5,-78.5"/>
<text text-anchor="start" x="80.5" y="-96.5" font-family="Helvetica,sans-Serif" font-size="10.00">src/structural/src</text>
<text text-anchor="middle" x="135.5" y="-85.5" font-family="Helvetica,sans-Serif" font-size="10.00">/flyweight/glyph_factory.h</text>
</g>
<!-- Node2 -->
<g id="node2" class="node"><title>Node2</title>
<g id="a_node2"><a xlink:href="../../d6/dbd/glyph__factory_8cc.html" target="_top" xlink:title="src/structural/src\l/flyweight/glyph_factory.cc">
<polygon fill="white" stroke="black" points="0,-6 0,-36 131,-36 131,-6 0,-6"/>
<text text-anchor="start" x="8" y="-24" font-family="Helvetica,sans-Serif" font-size="10.00">src/structural/src</text>
<text text-anchor="middle" x="65.5" y="-13" font-family="Helvetica,sans-Serif" font-size="10.00">/flyweight/glyph_factory.cc</text>
</a>
</g>
</g>
<!-- Node1&#45;&gt;Node2 -->
<g id="edge1" class="edge"><title>Node1&#45;&gt;Node2</title>
<path fill="none" stroke="midnightblue" d="M114.018,-70.8641C102.847,-59.6142 89.5071,-46.1786 79.6445,-36.2455"/>
<polygon fill="midnightblue" stroke="midnightblue" points="111.805,-73.6031 121.334,-78.2333 116.772,-68.671 111.805,-73.6031"/>
</g>
<!-- Node3 -->
<g id="node3" class="node"><title>Node3</title>
<g id="a_node3"><a xlink:href="../../dd/d09/flyweight__test_8cc.html" target="_top" xlink:title="src/structural_tests\l/src/flyweight/flyweight\l_test.cc">
<polygon fill="white" stroke="black" points="149.5,-0.5 149.5,-41.5 263.5,-41.5 263.5,-0.5 149.5,-0.5"/>
<text text-anchor="start" x="157.5" y="-29.5" font-family="Helvetica,sans-Serif" font-size="10.00">src/structural_tests</text>
<text text-anchor="start" x="157.5" y="-18.5" font-family="Helvetica,sans-Serif" font-size="10.00">/src/flyweight/flyweight</text>
<text text-anchor="middle" x="206.5" y="-7.5" font-family="Helvetica,sans-Serif" font-size="10.00">_test.cc</text>
</a>
</g>
</g>
<!-- Node1&#45;&gt;Node3 -->
<g id="edge2" class="edge"><title>Node1&#45;&gt;Node3</title>
<path fill="none" stroke="midnightblue" d="M157.051,-71.1007C166.508,-61.7107 177.534,-50.7615 186.773,-41.5884"/>
<polygon fill="midnightblue" stroke="midnightblue" points="154.498,-68.7036 149.868,-78.2333 159.43,-73.6708 154.498,-68.7036"/>
</g>
</g>
</svg>
