<?xml version="1.0" encoding="UTF-8" standalone="no"?>
<!DOCTYPE svg PUBLIC "-//W3C//DTD SVG 1.1//EN"
 "http://www.w3.org/Graphics/SVG/1.1/DTD/svg11.dtd">
<!-- Generated by graphviz version 2.38.0 (20140413.2041)
 -->
<!-- Title: src/operational/src/strategy/simple_compositor.cc Pages: 1 -->
<svg width="161pt" height="151pt"
 viewBox="0.00 0.00 161.00 151.00" xmlns="http://www.w3.org/2000/svg" xmlns:xlink="http://www.w3.org/1999/xlink">
<g id="graph0" class="graph" transform="scale(1 1) rotate(0) translate(4 147)">
<title>src/operational/src/strategy/simple_compositor.cc</title>
<polygon fill="white" stroke="none" points="-4,4 -4,-147 157,-147 157,4 -4,4"/>
<!-- Node1 -->
<g id="node1" class="node"><title>Node1</title>
<polygon fill="#bfbfbf" stroke="black" points="0,-112.5 0,-142.5 153,-142.5 153,-112.5 0,-112.5"/>
<text text-anchor="start" x="8" y="-130.5" font-family="Helvetica,sans-Serif" font-size="10.00">src/operational/src</text>
<text text-anchor="middle" x="76.5" y="-119.5" font-family="Helvetica,sans-Serif" font-size="10.00">/strategy/simple_compositor.cc</text>
</g>
<!-- Node2 -->
<g id="node2" class="node"><title>Node2</title>
<g id="a_node2"><a xlink:href="../../d8/d05/simple__compositor_8h.html" target="_top" xlink:title="simple_compositor.h">
<polygon fill="white" stroke="black" points="23,-56.5 23,-75.5 130,-75.5 130,-56.5 23,-56.5"/>
<text text-anchor="middle" x="76.5" y="-63.5" font-family="Helvetica,sans-Serif" font-size="10.00">simple_compositor.h</text>
</a>
</g>
</g>
<!-- Node1&#45;&gt;Node2 -->
<g id="edge1" class="edge"><title>Node1&#45;&gt;Node2</title>
<path fill="none" stroke="midnightblue" d="M76.5,-112.399C76.5,-104.466 76.5,-94.458 76.5,-85.8583"/>
<polygon fill="midnightblue" stroke="midnightblue" points="80.0001,-85.6577 76.5,-75.6578 73.0001,-85.6578 80.0001,-85.6577"/>
</g>
<!-- Node3 -->
<g id="node3" class="node"><title>Node3</title>
<g id="a_node3"><a xlink:href="../../d0/d1f/compositor__interface_8h.html" target="_top" xlink:title="compositor_interface.h">
<polygon fill="white" stroke="black" points="19,-0.5 19,-19.5 134,-19.5 134,-0.5 19,-0.5"/>
<text text-anchor="middle" x="76.5" y="-7.5" font-family="Helvetica,sans-Serif" font-size="10.00">compositor_interface.h</text>
</a>
</g>
</g>
<!-- Node2&#45;&gt;Node3 -->
<g id="edge2" class="edge"><title>Node2&#45;&gt;Node3</title>
<path fill="none" stroke="midnightblue" d="M76.5,-56.083C76.5,-49.0059 76.5,-38.8611 76.5,-29.9865"/>
<polygon fill="midnightblue" stroke="midnightblue" points="80.0001,-29.751 76.5,-19.7511 73.0001,-29.7511 80.0001,-29.751"/>
</g>
</g>
</svg>
