<?xml version="1.0" encoding="UTF-8" standalone="no"?>
<!DOCTYPE svg PUBLIC "-//W3C//DTD SVG 1.1//EN"
 "http://www.w3.org/Graphics/SVG/1.1/DTD/svg11.dtd">
<!-- Generated by graphviz version 2.38.0 (20140413.2041)
 -->
<!-- Title: structural::decorator::StreamInterface Pages: 1 -->
<svg width="308pt" height="408pt"
 viewBox="0.00 0.00 308.00 408.00" xmlns="http://www.w3.org/2000/svg" xmlns:xlink="http://www.w3.org/1999/xlink">
<g id="graph0" class="graph" transform="scale(1 1) rotate(0) translate(4 404)">
<title>structural::decorator::StreamInterface</title>
<polygon fill="white" stroke="none" points="-4,4 -4,-404 304,-404 304,4 -4,4"/>
<!-- Node1 -->
<g id="node1" class="node"><title>Node1</title>
<polygon fill="#bfbfbf" stroke="black" points="60,-309.5 60,-399.5 166,-399.5 166,-309.5 60,-309.5"/>
<text text-anchor="start" x="68" y="-387.5" font-family="Helvetica,sans-Serif" font-size="10.00">structural::decorator</text>
<text text-anchor="middle" x="113" y="-376.5" font-family="Helvetica,sans-Serif" font-size="10.00">::StreamInterface</text>
<polyline fill="none" stroke="black" points="60,-369.5 166,-369.5 "/>
<text text-anchor="middle" x="113" y="-357.5" font-family="Helvetica,sans-Serif" font-size="10.00"> </text>
<polyline fill="none" stroke="black" points="60,-350.5 166,-350.5 "/>
<text text-anchor="start" x="68" y="-338.5" font-family="Helvetica,sans-Serif" font-size="10.00">+ ~StreamInterface()</text>
<text text-anchor="start" x="68" y="-327.5" font-family="Helvetica,sans-Serif" font-size="10.00">+ PutInt()</text>
<text text-anchor="start" x="68" y="-316.5" font-family="Helvetica,sans-Serif" font-size="10.00">+ PutString()</text>
</g>
<!-- Node2 -->
<g id="node2" class="node"><title>Node2</title>
<g id="a_node2"><a xlink:href="../../d1/d73/classstructural_1_1decorator_1_1_file_stream.html" target="_top" xlink:title="{structural::decorator\l::FileStream\n||+ FileStream()\l+ FileStream()\l+ PutInt()\l+ PutString()\l+ value()\l+ message()\l}">
<polygon fill="white" stroke="black" points="0,-149.5 0,-272.5 104,-272.5 104,-149.5 0,-149.5"/>
<text text-anchor="start" x="8" y="-260.5" font-family="Helvetica,sans-Serif" font-size="10.00">structural::decorator</text>
<text text-anchor="middle" x="52" y="-249.5" font-family="Helvetica,sans-Serif" font-size="10.00">::FileStream</text>
<polyline fill="none" stroke="black" points="0,-242.5 104,-242.5 "/>
<text text-anchor="middle" x="52" y="-230.5" font-family="Helvetica,sans-Serif" font-size="10.00"> </text>
<polyline fill="none" stroke="black" points="0,-223.5 104,-223.5 "/>
<text text-anchor="start" x="8" y="-211.5" font-family="Helvetica,sans-Serif" font-size="10.00">+ FileStream()</text>
<text text-anchor="start" x="8" y="-200.5" font-family="Helvetica,sans-Serif" font-size="10.00">+ FileStream()</text>
<text text-anchor="start" x="8" y="-189.5" font-family="Helvetica,sans-Serif" font-size="10.00">+ PutInt()</text>
<text text-anchor="start" x="8" y="-178.5" font-family="Helvetica,sans-Serif" font-size="10.00">+ PutString()</text>
<text text-anchor="start" x="8" y="-167.5" font-family="Helvetica,sans-Serif" font-size="10.00">+ value()</text>
<text text-anchor="start" x="8" y="-156.5" font-family="Helvetica,sans-Serif" font-size="10.00">+ message()</text>
</a>
</g>
</g>
<!-- Node1&#45;&gt;Node2 -->
<g id="edge1" class="edge"><title>Node1&#45;&gt;Node2</title>
<path fill="none" stroke="midnightblue" d="M89.7968,-299.676C85.9762,-290.814 81.9934,-281.575 78.1076,-272.561"/>
<polygon fill="none" stroke="midnightblue" points="86.6937,-301.319 93.8666,-309.117 93.1218,-298.548 86.6937,-301.319"/>
</g>
<!-- Node3 -->
<g id="node3" class="node"><title>Node3</title>
<g id="a_node3"><a xlink:href="../../d6/de5/classstructural_1_1decorator_1_1_stream_decorator.html" target="_top" xlink:title="{structural::decorator\l::StreamDecorator\n|# component_\l|+ StreamDecorator()\l+ PutInt()\l+ PutString()\l}">
<polygon fill="white" stroke="black" points="122.5,-166 122.5,-256 227.5,-256 227.5,-166 122.5,-166"/>
<text text-anchor="start" x="130.5" y="-244" font-family="Helvetica,sans-Serif" font-size="10.00">structural::decorator</text>
<text text-anchor="middle" x="175" y="-233" font-family="Helvetica,sans-Serif" font-size="10.00">::StreamDecorator</text>
<polyline fill="none" stroke="black" points="122.5,-226 227.5,-226 "/>
<text text-anchor="start" x="130.5" y="-214" font-family="Helvetica,sans-Serif" font-size="10.00"># component_</text>
<polyline fill="none" stroke="black" points="122.5,-207 227.5,-207 "/>
<text text-anchor="start" x="130.5" y="-195" font-family="Helvetica,sans-Serif" font-size="10.00">+ StreamDecorator()</text>
<text text-anchor="start" x="130.5" y="-184" font-family="Helvetica,sans-Serif" font-size="10.00">+ PutInt()</text>
<text text-anchor="start" x="130.5" y="-173" font-family="Helvetica,sans-Serif" font-size="10.00">+ PutString()</text>
</a>
</g>
</g>
<!-- Node1&#45;&gt;Node3 -->
<g id="edge2" class="edge"><title>Node1&#45;&gt;Node3</title>
<path fill="none" stroke="midnightblue" d="M136.516,-299.83C142.822,-285.438 149.568,-270.043 155.622,-256.226"/>
<polygon fill="none" stroke="midnightblue" points="133.255,-298.553 132.447,-309.117 139.666,-301.362 133.255,-298.553"/>
</g>
<!-- Node4 -->
<g id="node4" class="node"><title>Node4</title>
<g id="a_node4"><a xlink:href="../../da/dfb/classstructural_1_1decorator_1_1_a_s_c_i_i7_stream.html" target="_top" xlink:title="{structural::decorator\l::ASCII7Stream\n||+ ASCII7Stream()\l+ PutInt()\l+ PutString()\l+ value()\l+ message()\l}">
<polygon fill="white" stroke="black" points="58,-0.5 58,-112.5 162,-112.5 162,-0.5 58,-0.5"/>
<text text-anchor="start" x="66" y="-100.5" font-family="Helvetica,sans-Serif" font-size="10.00">structural::decorator</text>
<text text-anchor="middle" x="110" y="-89.5" font-family="Helvetica,sans-Serif" font-size="10.00">::ASCII7Stream</text>
<polyline fill="none" stroke="black" points="58,-82.5 162,-82.5 "/>
<text text-anchor="middle" x="110" y="-70.5" font-family="Helvetica,sans-Serif" font-size="10.00"> </text>
<polyline fill="none" stroke="black" points="58,-63.5 162,-63.5 "/>
<text text-anchor="start" x="66" y="-51.5" font-family="Helvetica,sans-Serif" font-size="10.00">+ ASCII7Stream()</text>
<text text-anchor="start" x="66" y="-40.5" font-family="Helvetica,sans-Serif" font-size="10.00">+ PutInt()</text>
<text text-anchor="start" x="66" y="-29.5" font-family="Helvetica,sans-Serif" font-size="10.00">+ PutString()</text>
<text text-anchor="start" x="66" y="-18.5" font-family="Helvetica,sans-Serif" font-size="10.00">+ value()</text>
<text text-anchor="start" x="66" y="-7.5" font-family="Helvetica,sans-Serif" font-size="10.00">+ message()</text>
</a>
</g>
</g>
<!-- Node3&#45;&gt;Node4 -->
<g id="edge3" class="edge"><title>Node3&#45;&gt;Node4</title>
<path fill="none" stroke="midnightblue" d="M152.113,-156.303C146.081,-142.151 139.564,-126.861 133.5,-112.635"/>
<polygon fill="none" stroke="midnightblue" points="149.059,-158.064 156.199,-165.891 155.498,-155.319 149.059,-158.064"/>
</g>
<!-- Node5 -->
<g id="node5" class="node"><title>Node5</title>
<g id="a_node5"><a xlink:href="../../d6/d17/classstructural_1_1decorator_1_1_compressing_stream.html" target="_top" xlink:title="{structural::decorator\l::CompressingStream\n||+ CompressingStream()\l+ PutInt()\l+ PutString()\l+ value()\l+ message()\l}">
<polygon fill="white" stroke="black" points="180,-0.5 180,-112.5 300,-112.5 300,-0.5 180,-0.5"/>
<text text-anchor="start" x="188" y="-100.5" font-family="Helvetica,sans-Serif" font-size="10.00">structural::decorator</text>
<text text-anchor="middle" x="240" y="-89.5" font-family="Helvetica,sans-Serif" font-size="10.00">::CompressingStream</text>
<polyline fill="none" stroke="black" points="180,-82.5 300,-82.5 "/>
<text text-anchor="middle" x="240" y="-70.5" font-family="Helvetica,sans-Serif" font-size="10.00"> </text>
<polyline fill="none" stroke="black" points="180,-63.5 300,-63.5 "/>
<text text-anchor="start" x="188" y="-51.5" font-family="Helvetica,sans-Serif" font-size="10.00">+ CompressingStream()</text>
<text text-anchor="start" x="188" y="-40.5" font-family="Helvetica,sans-Serif" font-size="10.00">+ PutInt()</text>
<text text-anchor="start" x="188" y="-29.5" font-family="Helvetica,sans-Serif" font-size="10.00">+ PutString()</text>
<text text-anchor="start" x="188" y="-18.5" font-family="Helvetica,sans-Serif" font-size="10.00">+ value()</text>
<text text-anchor="start" x="188" y="-7.5" font-family="Helvetica,sans-Serif" font-size="10.00">+ message()</text>
</a>
</g>
</g>
<!-- Node3&#45;&gt;Node5 -->
<g id="edge4" class="edge"><title>Node3&#45;&gt;Node5</title>
<path fill="none" stroke="midnightblue" d="M197.887,-156.303C203.919,-142.151 210.436,-126.861 216.5,-112.635"/>
<polygon fill="none" stroke="midnightblue" points="194.502,-155.319 193.801,-165.891 200.941,-158.064 194.502,-155.319"/>
</g>
</g>
</svg>
