<?xml version="1.0" encoding="UTF-8" standalone="no"?>
<!DOCTYPE svg PUBLIC "-//W3C//DTD SVG 1.1//EN"
 "http://www.w3.org/Graphics/SVG/1.1/DTD/svg11.dtd">
<!-- Generated by graphviz version 2.38.0 (20140413.2041)
 -->
<!-- Title: structural::BorderDecorator Pages: 1 -->
<svg width="151pt" height="298pt"
 viewBox="0.00 0.00 151.00 298.00" xmlns="http://www.w3.org/2000/svg" xmlns:xlink="http://www.w3.org/1999/xlink">
<g id="graph0" class="graph" transform="scale(1 1) rotate(0) translate(4 294)">
<title>structural::BorderDecorator</title>
<polygon fill="white" stroke="none" points="-4,4 -4,-294 147,-294 147,4 -4,4"/>
<!-- Node1 -->
<g id="node1" class="node"><title>Node1</title>
<polygon fill="#bfbfbf" stroke="black" points="4.5,-0.5 4.5,-68.5 138.5,-68.5 138.5,-0.5 4.5,-0.5"/>
<text text-anchor="middle" x="71.5" y="-56.5" font-family="Helvetica,sans-Serif" font-size="10.00">structural::BorderDecorator</text>
<polyline fill="none" stroke="black" points="4.5,-49.5 138.5,-49.5 "/>
<text text-anchor="middle" x="71.5" y="-37.5" font-family="Helvetica,sans-Serif" font-size="10.00"> </text>
<polyline fill="none" stroke="black" points="4.5,-30.5 138.5,-30.5 "/>
<text text-anchor="start" x="12.5" y="-18.5" font-family="Helvetica,sans-Serif" font-size="10.00">+ BorderDecorator()</text>
<text text-anchor="start" x="12.5" y="-7.5" font-family="Helvetica,sans-Serif" font-size="10.00">+ Draw()</text>
</g>
<!-- Node2 -->
<g id="node2" class="node"><title>Node2</title>
<g id="a_node2"><a xlink:href="../../d1/d8c/classstructural_1_1_decorator.html" target="_top" xlink:title="{structural::Decorator\n||+ Decorator()\l+ Draw()\l+ Resize()\l}">
<polygon fill="white" stroke="black" points="19,-105.5 19,-184.5 124,-184.5 124,-105.5 19,-105.5"/>
<text text-anchor="middle" x="71.5" y="-172.5" font-family="Helvetica,sans-Serif" font-size="10.00">structural::Decorator</text>
<polyline fill="none" stroke="black" points="19,-165.5 124,-165.5 "/>
<text text-anchor="middle" x="71.5" y="-153.5" font-family="Helvetica,sans-Serif" font-size="10.00"> </text>
<polyline fill="none" stroke="black" points="19,-146.5 124,-146.5 "/>
<text text-anchor="start" x="27" y="-134.5" font-family="Helvetica,sans-Serif" font-size="10.00">+ Decorator()</text>
<text text-anchor="start" x="27" y="-123.5" font-family="Helvetica,sans-Serif" font-size="10.00">+ Draw()</text>
<text text-anchor="start" x="27" y="-112.5" font-family="Helvetica,sans-Serif" font-size="10.00">+ Resize()</text>
</a>
</g>
</g>
<!-- Node2&#45;&gt;Node1 -->
<g id="edge1" class="edge"><title>Node2&#45;&gt;Node1</title>
<path fill="none" stroke="midnightblue" d="M71.5,-95.3492C71.5,-86.2824 71.5,-77.0048 71.5,-68.5439"/>
<polygon fill="none" stroke="midnightblue" points="68.0001,-95.4414 71.5,-105.441 75.0001,-95.4415 68.0001,-95.4414"/>
</g>
<!-- Node3 -->
<g id="node3" class="node"><title>Node3</title>
<polygon fill="white" stroke="#bfbfbf" points="0,-221.5 0,-289.5 143,-289.5 143,-221.5 0,-221.5"/>
<text text-anchor="start" x="8" y="-277.5" font-family="Helvetica,sans-Serif" font-size="10.00">foundation::VisualComponent</text>
<text text-anchor="middle" x="71.5" y="-266.5" font-family="Helvetica,sans-Serif" font-size="10.00">Interface</text>
<polyline fill="none" stroke="#bfbfbf" points="0,-259.5 143,-259.5 "/>
<text text-anchor="middle" x="71.5" y="-247.5" font-family="Helvetica,sans-Serif" font-size="10.00"> </text>
<polyline fill="none" stroke="#bfbfbf" points="0,-240.5 143,-240.5 "/>
<text text-anchor="middle" x="71.5" y="-228.5" font-family="Helvetica,sans-Serif" font-size="10.00"> </text>
</g>
<!-- Node3&#45;&gt;Node2 -->
<g id="edge2" class="edge"><title>Node3&#45;&gt;Node2</title>
<path fill="none" stroke="midnightblue" d="M71.5,-211.274C71.5,-202.476 71.5,-193.275 71.5,-184.649"/>
<polygon fill="none" stroke="midnightblue" points="68.0001,-211.357 71.5,-221.357 75.0001,-211.357 68.0001,-211.357"/>
</g>
</g>
</svg>
