<?xml version="1.0" encoding="UTF-8" standalone="no"?>
<!DOCTYPE svg PUBLIC "-//W3C//DTD SVG 1.1//EN"
 "http://www.w3.org/Graphics/SVG/1.1/DTD/svg11.dtd">
<!-- Generated by graphviz version 2.38.0 (20140413.2041)
 -->
<!-- Title: src/structural/src/facade/parser.cc Pages: 1 -->
<svg width="668pt" height="442pt"
 viewBox="0.00 0.00 668.00 442.00" xmlns="http://www.w3.org/2000/svg" xmlns:xlink="http://www.w3.org/1999/xlink">
<g id="graph0" class="graph" transform="scale(1 1) rotate(0) translate(4 438)">
<title>src/structural/src/facade/parser.cc</title>
<polygon fill="white" stroke="none" points="-4,4 -4,-438 664,-438 664,4 -4,4"/>
<!-- Node1 -->
<g id="node1" class="node"><title>Node1</title>
<polygon fill="#bfbfbf" stroke="black" points="458,-403.5 458,-433.5 550,-433.5 550,-403.5 458,-403.5"/>
<text text-anchor="start" x="466" y="-421.5" font-family="Helvetica,sans-Serif" font-size="10.00">src/structural/src</text>
<text text-anchor="middle" x="504" y="-410.5" font-family="Helvetica,sans-Serif" font-size="10.00">/facade/parser.cc</text>
</g>
<!-- Node2 -->
<g id="node2" class="node"><title>Node2</title>
<g id="a_node2"><a xlink:href="../../d5/d36/parser_8h.html" target="_top" xlink:title="parser.h">
<polygon fill="white" stroke="black" points="478,-347.5 478,-366.5 530,-366.5 530,-347.5 478,-347.5"/>
<text text-anchor="middle" x="504" y="-354.5" font-family="Helvetica,sans-Serif" font-size="10.00">parser.h</text>
</a>
</g>
</g>
<!-- Node1&#45;&gt;Node2 -->
<g id="edge1" class="edge"><title>Node1&#45;&gt;Node2</title>
<path fill="none" stroke="midnightblue" d="M504,-403.399C504,-395.466 504,-385.458 504,-376.858"/>
<polygon fill="midnightblue" stroke="midnightblue" points="507.5,-376.658 504,-366.658 500.5,-376.658 507.5,-376.658"/>
</g>
<!-- Node3 -->
<g id="node3" class="node"><title>Node3</title>
<g id="a_node3"><a xlink:href="../../d2/d57/program__node__builder_8h.html" target="_top" xlink:title="program_node_builder.h">
<polygon fill="white" stroke="black" points="383,-291.5 383,-310.5 503,-310.5 503,-291.5 383,-291.5"/>
<text text-anchor="middle" x="443" y="-298.5" font-family="Helvetica,sans-Serif" font-size="10.00">program_node_builder.h</text>
</a>
</g>
</g>
<!-- Node2&#45;&gt;Node3 -->
<g id="edge2" class="edge"><title>Node2&#45;&gt;Node3</title>
<path fill="none" stroke="midnightblue" d="M494.199,-347.324C485.182,-339.341 471.594,-327.313 460.682,-317.653"/>
<polygon fill="midnightblue" stroke="midnightblue" points="462.787,-314.842 452.979,-310.834 458.147,-320.083 462.787,-314.842"/>
</g>
<!-- Node11 -->
<g id="node11" class="node"><title>Node11</title>
<g id="a_node11"><a xlink:href="../../db/d62/scanner_8h.html" target="_top" xlink:title="scanner.h">
<polygon fill="white" stroke="black" points="536.5,-291.5 536.5,-310.5 595.5,-310.5 595.5,-291.5 536.5,-291.5"/>
<text text-anchor="middle" x="566" y="-298.5" font-family="Helvetica,sans-Serif" font-size="10.00">scanner.h</text>
</a>
</g>
</g>
<!-- Node2&#45;&gt;Node11 -->
<g id="edge13" class="edge"><title>Node2&#45;&gt;Node11</title>
<path fill="none" stroke="midnightblue" d="M513.961,-347.324C523.127,-339.341 536.937,-327.313 548.028,-317.653"/>
<polygon fill="midnightblue" stroke="midnightblue" points="550.615,-320.041 555.857,-310.834 546.018,-314.762 550.615,-320.041"/>
</g>
<!-- Node4 -->
<g id="node4" class="node"><title>Node4</title>
<g id="a_node4"><a xlink:href="../../da/dc8/program__node__builder__interface_8h.html" target="_top" xlink:title="program_node_builder\l_interface.h">
<polygon fill="white" stroke="black" points="380,-224.5 380,-254.5 492,-254.5 492,-224.5 380,-224.5"/>
<text text-anchor="start" x="388" y="-242.5" font-family="Helvetica,sans-Serif" font-size="10.00">program_node_builder</text>
<text text-anchor="middle" x="436" y="-231.5" font-family="Helvetica,sans-Serif" font-size="10.00">_interface.h</text>
</a>
</g>
</g>
<!-- Node3&#45;&gt;Node4 -->
<g id="edge3" class="edge"><title>Node3&#45;&gt;Node4</title>
<path fill="none" stroke="midnightblue" d="M441.997,-291.475C441.173,-284.471 439.964,-274.192 438.847,-264.696"/>
<polygon fill="midnightblue" stroke="midnightblue" points="442.294,-264.046 437.65,-254.523 435.342,-264.863 442.294,-264.046"/>
</g>
<!-- Node5 -->
<g id="node5" class="node"><title>Node5</title>
<g id="a_node5"><a xlink:href="../../dc/d6c/program__node__interface_8h.html" target="_top" xlink:title="program_node_interface.h">
<polygon fill="white" stroke="black" points="310,-168.5 310,-187.5 438,-187.5 438,-168.5 310,-168.5"/>
<text text-anchor="middle" x="374" y="-175.5" font-family="Helvetica,sans-Serif" font-size="10.00">program_node_interface.h</text>
</a>
</g>
</g>
<!-- Node4&#45;&gt;Node5 -->
<g id="edge4" class="edge"><title>Node4&#45;&gt;Node5</title>
<path fill="none" stroke="midnightblue" d="M421.307,-224.399C412.019,-215.486 400.001,-203.952 390.402,-194.741"/>
<polygon fill="midnightblue" stroke="midnightblue" points="392.66,-192.057 383.022,-187.658 387.813,-197.107 392.66,-192.057"/>
</g>
<!-- Node8 -->
<g id="node8" class="node"><title>Node8</title>
<polygon fill="white" stroke="#bfbfbf" points="355.5,-0.5 355.5,-19.5 396.5,-19.5 396.5,-0.5 355.5,-0.5"/>
<text text-anchor="middle" x="376" y="-7.5" font-family="Helvetica,sans-Serif" font-size="10.00">string</text>
</g>
<!-- Node4&#45;&gt;Node8 -->
<g id="edge12" class="edge"><title>Node4&#45;&gt;Node8</title>
<path fill="none" stroke="midnightblue" d="M441.742,-224.107C453.673,-191.724 477.599,-111.622 447,-56 438.287,-40.1617 421.383,-29.1151 406.255,-21.9312"/>
<polygon fill="midnightblue" stroke="midnightblue" points="407.24,-18.5424 396.674,-17.7566 404.443,-24.9597 407.24,-18.5424"/>
</g>
<!-- Node6 -->
<g id="node6" class="node"><title>Node6</title>
<g id="a_node6"><a xlink:href="../../d7/df5/code__generator__interface_8h.html" target="_top" xlink:title="code_generator_interface.h">
<polygon fill="white" stroke="black" points="233,-112.5 233,-131.5 367,-131.5 367,-112.5 233,-112.5"/>
<text text-anchor="middle" x="300" y="-119.5" font-family="Helvetica,sans-Serif" font-size="10.00">code_generator_interface.h</text>
</a>
</g>
</g>
<!-- Node5&#45;&gt;Node6 -->
<g id="edge5" class="edge"><title>Node5&#45;&gt;Node6</title>
<path fill="none" stroke="midnightblue" d="M362.111,-168.324C350.85,-160.107 333.713,-147.602 320.291,-137.807"/>
<polygon fill="midnightblue" stroke="midnightblue" points="322.247,-134.901 312.106,-131.834 318.12,-140.556 322.247,-134.901"/>
</g>
<!-- Node7 -->
<g id="node7" class="node"><title>Node7</title>
<g id="a_node7"><a xlink:href="../../d9/d24/expression__node__interface_8h.html" target="_top" xlink:title="expression_node_interface.h">
<polygon fill="white" stroke="black" points="0,-56.5 0,-75.5 140,-75.5 140,-56.5 0,-56.5"/>
<text text-anchor="middle" x="70" y="-63.5" font-family="Helvetica,sans-Serif" font-size="10.00">expression_node_interface.h</text>
</a>
</g>
</g>
<!-- Node6&#45;&gt;Node7 -->
<g id="edge6" class="edge"><title>Node6&#45;&gt;Node7</title>
<path fill="none" stroke="midnightblue" d="M263.556,-112.444C223.601,-103.063 159.413,-87.9926 116.015,-77.8036"/>
<polygon fill="midnightblue" stroke="midnightblue" points="116.809,-74.3948 106.274,-75.5164 115.209,-81.2095 116.809,-74.3948"/>
</g>
<!-- Node9 -->
<g id="node9" class="node"><title>Node9</title>
<g id="a_node9"><a xlink:href="../../dd/d4b/statement__node__interface_8h.html" target="_top" xlink:title="statement_node_interface.h">
<polygon fill="white" stroke="black" points="158.5,-56.5 158.5,-75.5 295.5,-75.5 295.5,-56.5 158.5,-56.5"/>
<text text-anchor="middle" x="227" y="-63.5" font-family="Helvetica,sans-Serif" font-size="10.00">statement_node_interface.h</text>
</a>
</g>
</g>
<!-- Node6&#45;&gt;Node9 -->
<g id="edge8" class="edge"><title>Node6&#45;&gt;Node9</title>
<path fill="none" stroke="midnightblue" d="M288.271,-112.324C277.163,-104.107 260.258,-91.6017 247.017,-81.8069"/>
<polygon fill="midnightblue" stroke="midnightblue" points="249.063,-78.9671 238.942,-75.8339 244.9,-84.5948 249.063,-78.9671"/>
</g>
<!-- Node10 -->
<g id="node10" class="node"><title>Node10</title>
<g id="a_node10"><a xlink:href="../../df/d19/variable__node__interface_8h.html" target="_top" xlink:title="variable_node_interface.h">
<polygon fill="white" stroke="black" points="313.5,-56.5 313.5,-75.5 438.5,-75.5 438.5,-56.5 313.5,-56.5"/>
<text text-anchor="middle" x="376" y="-63.5" font-family="Helvetica,sans-Serif" font-size="10.00">variable_node_interface.h</text>
</a>
</g>
</g>
<!-- Node6&#45;&gt;Node10 -->
<g id="edge10" class="edge"><title>Node6&#45;&gt;Node10</title>
<path fill="none" stroke="midnightblue" d="M312.211,-112.324C323.776,-104.107 341.375,-91.6017 355.161,-81.8069"/>
<polygon fill="midnightblue" stroke="midnightblue" points="357.443,-84.4791 363.567,-75.8339 353.388,-78.7729 357.443,-84.4791"/>
</g>
<!-- Node7&#45;&gt;Node8 -->
<g id="edge7" class="edge"><title>Node7&#45;&gt;Node8</title>
<path fill="none" stroke="midnightblue" d="M118.487,-56.4435C182.157,-45.2076 292.081,-25.8092 345.327,-16.4128"/>
<polygon fill="midnightblue" stroke="midnightblue" points="345.951,-19.857 355.19,-14.6723 344.734,-12.9635 345.951,-19.857"/>
</g>
<!-- Node9&#45;&gt;Node8 -->
<g id="edge9" class="edge"><title>Node9&#45;&gt;Node8</title>
<path fill="none" stroke="midnightblue" d="M250.609,-56.4435C276.335,-47.1203 317.568,-32.1768 345.673,-21.9911"/>
<polygon fill="midnightblue" stroke="midnightblue" points="347.171,-25.1709 355.38,-18.473 344.786,-18.5898 347.171,-25.1709"/>
</g>
<!-- Node10&#45;&gt;Node8 -->
<g id="edge11" class="edge"><title>Node10&#45;&gt;Node8</title>
<path fill="none" stroke="midnightblue" d="M376,-56.083C376,-49.0059 376,-38.8611 376,-29.9865"/>
<polygon fill="midnightblue" stroke="midnightblue" points="379.5,-29.751 376,-19.7511 372.5,-29.7511 379.5,-29.751"/>
</g>
<!-- Node12 -->
<g id="node12" class="node"><title>Node12</title>
<g id="a_node12"><a xlink:href="../../d1/d07/token_8h.html" target="_top" xlink:title="token.h">
<polygon fill="white" stroke="black" points="495.5,-168.5 495.5,-187.5 544.5,-187.5 544.5,-168.5 495.5,-168.5"/>
<text text-anchor="middle" x="520" y="-175.5" font-family="Helvetica,sans-Serif" font-size="10.00">token.h</text>
</a>
</g>
</g>
<!-- Node11&#45;&gt;Node12 -->
<g id="edge14" class="edge"><title>Node11&#45;&gt;Node12</title>
<path fill="none" stroke="midnightblue" d="M559.81,-291.443C553.731,-282.679 544.579,-268.468 539,-255 531.21,-236.193 526.034,-213.399 523.079,-197.708"/>
<polygon fill="midnightblue" stroke="midnightblue" points="526.497,-196.938 521.313,-187.697 519.603,-198.153 526.497,-196.938"/>
</g>
<!-- Node13 -->
<g id="node13" class="node"><title>Node13</title>
<polygon fill="white" stroke="#bfbfbf" points="548,-230 548,-249 600,-249 600,-230 548,-230"/>
<text text-anchor="middle" x="574" y="-237" font-family="Helvetica,sans-Serif" font-size="10.00">sstream</text>
</g>
<!-- Node11&#45;&gt;Node13 -->
<g id="edge16" class="edge"><title>Node11&#45;&gt;Node13</title>
<path fill="none" stroke="midnightblue" d="M567.146,-291.475C568.275,-283.08 570.036,-269.981 571.491,-259.163"/>
<polygon fill="midnightblue" stroke="midnightblue" points="574.992,-259.386 572.856,-249.009 568.055,-258.453 574.992,-259.386"/>
</g>
<!-- Node14 -->
<g id="node14" class="node"><title>Node14</title>
<polygon fill="white" stroke="#bfbfbf" points="618,-230 618,-249 660,-249 660,-230 618,-230"/>
<text text-anchor="middle" x="639" y="-237" font-family="Helvetica,sans-Serif" font-size="10.00">vector</text>
</g>
<!-- Node11&#45;&gt;Node14 -->
<g id="edge17" class="edge"><title>Node11&#45;&gt;Node14</title>
<path fill="none" stroke="midnightblue" d="M576.459,-291.475C587.951,-282.108 606.63,-266.884 620.587,-255.508"/>
<polygon fill="midnightblue" stroke="midnightblue" points="623.02,-258.04 628.56,-249.009 618.598,-252.614 623.02,-258.04"/>
</g>
<!-- Node12&#45;&gt;Node8 -->
<g id="edge15" class="edge"><title>Node12&#45;&gt;Node8</title>
<path fill="none" stroke="midnightblue" d="M519.601,-168.489C518.149,-146.918 511.47,-89.4476 481,-56 461.454,-34.5443 429.942,-22.9136 406.533,-16.8863"/>
<polygon fill="midnightblue" stroke="midnightblue" points="407.275,-13.4654 396.737,-14.565 405.661,-20.2767 407.275,-13.4654"/>
</g>
</g>
</svg>
