<?xml version="1.0" encoding="UTF-8" standalone="no"?>
<!DOCTYPE svg PUBLIC "-//W3C//DTD SVG 1.1//EN"
 "http://www.w3.org/Graphics/SVG/1.1/DTD/svg11.dtd">
<!-- Generated by graphviz version 2.38.0 (20140413.2041)
 -->
<!-- Title: structural::bridge::Bitmap::width Pages: 1 -->
<svg width="254pt" height="39pt"
 viewBox="0.00 0.00 254.00 39.00" xmlns="http://www.w3.org/2000/svg" xmlns:xlink="http://www.w3.org/1999/xlink">
<g id="graph0" class="graph" transform="scale(1 1) rotate(0) translate(4 35)">
<title>structural::bridge::Bitmap::width</title>
<polygon fill="white" stroke="none" points="-4,4 -4,-35 250,-35 250,4 -4,4"/>
<!-- Node1 -->
<g id="node1" class="node"><title>Node1</title>
<polygon fill="#bfbfbf" stroke="black" points="0,-0.5 0,-30.5 89,-30.5 89,-0.5 0,-0.5"/>
<text text-anchor="start" x="8" y="-18.5" font-family="Helvetica,sans-Serif" font-size="10.00">structural::bridge</text>
<text text-anchor="middle" x="44.5" y="-7.5" font-family="Helvetica,sans-Serif" font-size="10.00">::Bitmap::width</text>
</g>
<!-- Node2 -->
<g id="node2" class="node"><title>Node2</title>
<g id="a_node2"><a xlink:href="../../dc/d25/classstructural_1_1bridge_1_1_icon_window.html#af3b53dcf0311c7eda8ef1d5b7ae9c927" target="_top" xlink:title="structural::bridge\l::IconWindow::DrawIcon">
<polygon fill="white" stroke="black" points="125,-0.5 125,-30.5 246,-30.5 246,-0.5 125,-0.5"/>
<text text-anchor="start" x="133" y="-18.5" font-family="Helvetica,sans-Serif" font-size="10.00">structural::bridge</text>
<text text-anchor="middle" x="185.5" y="-7.5" font-family="Helvetica,sans-Serif" font-size="10.00">::IconWindow::DrawIcon</text>
</a>
</g>
</g>
<!-- Node1&#45;&gt;Node2 -->
<g id="edge1" class="edge"><title>Node1&#45;&gt;Node2</title>
<path fill="none" stroke="midnightblue" d="M99.1354,-15.5C107.525,-15.5 116.24,-15.5 124.756,-15.5"/>
<polygon fill="midnightblue" stroke="midnightblue" points="99.0991,-12.0001 89.0991,-15.5 99.0991,-19.0001 99.0991,-12.0001"/>
</g>
</g>
</svg>
