<?xml version="1.0" encoding="UTF-8" standalone="no"?>
<!DOCTYPE svg PUBLIC "-//W3C//DTD SVG 1.1//EN"
 "http://www.w3.org/Graphics/SVG/1.1/DTD/svg11.dtd">
<!-- Generated by graphviz version 2.38.0 (20140413.2041)
 -->
<!-- Title: src/creational/src/builder/standard_maze_builder.cc Pages: 1 -->
<svg width="312pt" height="330pt"
 viewBox="0.00 0.00 312.00 330.00" xmlns="http://www.w3.org/2000/svg" xmlns:xlink="http://www.w3.org/1999/xlink">
<g id="graph0" class="graph" transform="scale(1 1) rotate(0) translate(4 326)">
<title>src/creational/src/builder/standard_maze_builder.cc</title>
<polygon fill="white" stroke="none" points="-4,4 -4,-326 308,-326 308,4 -4,4"/>
<!-- Node1 -->
<g id="node1" class="node"><title>Node1</title>
<polygon fill="#bfbfbf" stroke="black" points="117.5,-280.5 117.5,-321.5 235.5,-321.5 235.5,-280.5 117.5,-280.5"/>
<text text-anchor="start" x="125.5" y="-309.5" font-family="Helvetica,sans-Serif" font-size="10.00">src/creational/src</text>
<text text-anchor="start" x="125.5" y="-298.5" font-family="Helvetica,sans-Serif" font-size="10.00">/builder/standard_maze</text>
<text text-anchor="middle" x="176.5" y="-287.5" font-family="Helvetica,sans-Serif" font-size="10.00">_builder.cc</text>
</g>
<!-- Node2 -->
<g id="node2" class="node"><title>Node2</title>
<g id="a_node2"><a xlink:href="../../dc/d33/standard__maze__builder_8h.html" target="_top" xlink:title="standard_maze_builder.h">
<polygon fill="white" stroke="black" points="8,-224.5 8,-243.5 133,-243.5 133,-224.5 8,-224.5"/>
<text text-anchor="middle" x="70.5" y="-231.5" font-family="Helvetica,sans-Serif" font-size="10.00">standard_maze_builder.h</text>
</a>
</g>
</g>
<!-- Node1&#45;&gt;Node2 -->
<g id="edge1" class="edge"><title>Node1&#45;&gt;Node2</title>
<path fill="none" stroke="midnightblue" d="M144.697,-280.498C128.132,-270.34 108.261,-258.155 93.253,-248.952"/>
<polygon fill="midnightblue" stroke="midnightblue" points="94.9647,-245.896 84.6102,-243.652 91.3054,-251.864 94.9647,-245.896"/>
</g>
<!-- Node9 -->
<g id="node9" class="node"><title>Node9</title>
<g id="a_node9"><a xlink:href="../../d1/d4f/wall_8h.html" target="_top" xlink:title="../mazeparts/wall.h">
<polygon fill="white" stroke="black" points="205,-168.5 205,-187.5 304,-187.5 304,-168.5 205,-168.5"/>
<text text-anchor="middle" x="254.5" y="-175.5" font-family="Helvetica,sans-Serif" font-size="10.00">../mazeparts/wall.h</text>
</a>
</g>
</g>
<!-- Node1&#45;&gt;Node9 -->
<g id="edge8" class="edge"><title>Node1&#45;&gt;Node9</title>
<path fill="none" stroke="midnightblue" d="M189.206,-280.29C204.247,-256.956 229.056,-218.471 243.372,-196.263"/>
<polygon fill="midnightblue" stroke="midnightblue" points="246.496,-197.876 248.972,-187.575 240.613,-194.083 246.496,-197.876"/>
</g>
<!-- Node10 -->
<g id="node10" class="node"><title>Node10</title>
<g id="a_node10"><a xlink:href="../../d2/d59/door_8h.html" target="_top" xlink:title="../mazeparts/door.h">
<polygon fill="white" stroke="black" points="126,-112.5 126,-131.5 227,-131.5 227,-112.5 126,-112.5"/>
<text text-anchor="middle" x="176.5" y="-119.5" font-family="Helvetica,sans-Serif" font-size="10.00">../mazeparts/door.h</text>
</a>
</g>
</g>
<!-- Node1&#45;&gt;Node10 -->
<g id="edge10" class="edge"><title>Node1&#45;&gt;Node10</title>
<path fill="none" stroke="midnightblue" d="M176.5,-280.382C176.5,-246.082 176.5,-175.658 176.5,-141.883"/>
<polygon fill="midnightblue" stroke="midnightblue" points="180,-141.584 176.5,-131.584 173,-141.584 180,-141.584"/>
</g>
<!-- Node3 -->
<g id="node3" class="node"><title>Node3</title>
<g id="a_node3"><a xlink:href="../../d5/d18/maze__builder__interface_8h.html" target="_top" xlink:title="maze_builder_interface.h">
<polygon fill="white" stroke="black" points="0,-168.5 0,-187.5 125,-187.5 125,-168.5 0,-168.5"/>
<text text-anchor="middle" x="62.5" y="-175.5" font-family="Helvetica,sans-Serif" font-size="10.00">maze_builder_interface.h</text>
</a>
</g>
</g>
<!-- Node2&#45;&gt;Node3 -->
<g id="edge2" class="edge"><title>Node2&#45;&gt;Node3</title>
<path fill="none" stroke="midnightblue" d="M69.179,-224.083C68.1189,-216.927 66.5941,-206.635 65.2691,-197.691"/>
<polygon fill="midnightblue" stroke="midnightblue" points="68.7242,-197.13 63.7965,-187.751 61.7998,-198.156 68.7242,-197.13"/>
</g>
<!-- Node4 -->
<g id="node4" class="node"><title>Node4</title>
<g id="a_node4"><a xlink:href="../../dc/db8/maze_8h.html" target="_top" xlink:title="../mazeparts/maze.h">
<polygon fill="white" stroke="black" points="1,-112.5 1,-131.5 108,-131.5 108,-112.5 1,-112.5"/>
<text text-anchor="middle" x="54.5" y="-119.5" font-family="Helvetica,sans-Serif" font-size="10.00">../mazeparts/maze.h</text>
</a>
</g>
</g>
<!-- Node3&#45;&gt;Node4 -->
<g id="edge3" class="edge"><title>Node3&#45;&gt;Node4</title>
<path fill="none" stroke="midnightblue" d="M61.179,-168.083C60.1189,-160.927 58.5941,-150.635 57.2691,-141.691"/>
<polygon fill="midnightblue" stroke="midnightblue" points="60.7242,-141.13 55.7965,-131.751 53.7998,-142.156 60.7242,-141.13"/>
</g>
<!-- Node5 -->
<g id="node5" class="node"><title>Node5</title>
<g id="a_node5"><a xlink:href="../../d9/dc0/room_8h.html" target="_top" xlink:title="room.h">
<polygon fill="white" stroke="black" points="112,-56.5 112,-75.5 159,-75.5 159,-56.5 112,-56.5"/>
<text text-anchor="middle" x="135.5" y="-63.5" font-family="Helvetica,sans-Serif" font-size="10.00">room.h</text>
</a>
</g>
</g>
<!-- Node4&#45;&gt;Node5 -->
<g id="edge4" class="edge"><title>Node4&#45;&gt;Node5</title>
<path fill="none" stroke="midnightblue" d="M67.5141,-112.324C80.0316,-103.979 99.1817,-91.2122 113.971,-81.3524"/>
<polygon fill="midnightblue" stroke="midnightblue" points="116.139,-84.1137 122.518,-75.6545 112.256,-78.2894 116.139,-84.1137"/>
</g>
<!-- Node8 -->
<g id="node8" class="node"><title>Node8</title>
<polygon fill="white" stroke="#bfbfbf" points="37,-56.5 37,-75.5 72,-75.5 72,-56.5 37,-56.5"/>
<text text-anchor="middle" x="54.5" y="-63.5" font-family="Helvetica,sans-Serif" font-size="10.00">map</text>
</g>
<!-- Node4&#45;&gt;Node8 -->
<g id="edge7" class="edge"><title>Node4&#45;&gt;Node8</title>
<path fill="none" stroke="midnightblue" d="M54.5,-112.083C54.5,-105.006 54.5,-94.8611 54.5,-85.9865"/>
<polygon fill="midnightblue" stroke="midnightblue" points="58.0001,-85.751 54.5,-75.7511 51.0001,-85.7511 58.0001,-85.751"/>
</g>
<!-- Node6 -->
<g id="node6" class="node"><title>Node6</title>
<g id="a_node6"><a xlink:href="../../db/d1a/map__site__interface_8h.html" target="_top" xlink:title="map_site_interface.h">
<polygon fill="white" stroke="black" points="162,-0.5 162,-19.5 269,-19.5 269,-0.5 162,-0.5"/>
<text text-anchor="middle" x="215.5" y="-7.5" font-family="Helvetica,sans-Serif" font-size="10.00">map_site_interface.h</text>
</a>
</g>
</g>
<!-- Node5&#45;&gt;Node6 -->
<g id="edge5" class="edge"><title>Node5&#45;&gt;Node6</title>
<path fill="none" stroke="midnightblue" d="M148.353,-56.324C160.716,-47.979 179.63,-35.2122 194.237,-25.3524"/>
<polygon fill="midnightblue" stroke="midnightblue" points="196.348,-28.1503 202.679,-19.6545 192.432,-22.3483 196.348,-28.1503"/>
</g>
<!-- Node7 -->
<g id="node7" class="node"><title>Node7</title>
<g id="a_node7"><a xlink:href="../../dd/d04/direction_8h.html" target="_top" xlink:title="direction.h">
<polygon fill="white" stroke="black" points="81.5,-0.5 81.5,-19.5 143.5,-19.5 143.5,-0.5 81.5,-0.5"/>
<text text-anchor="middle" x="112.5" y="-7.5" font-family="Helvetica,sans-Serif" font-size="10.00">direction.h</text>
</a>
</g>
</g>
<!-- Node5&#45;&gt;Node7 -->
<g id="edge6" class="edge"><title>Node5&#45;&gt;Node7</title>
<path fill="none" stroke="midnightblue" d="M131.702,-56.083C128.587,-48.77 124.077,-38.1814 120.211,-29.1034"/>
<polygon fill="midnightblue" stroke="midnightblue" points="123.366,-27.5798 116.227,-19.7511 116.926,-30.3229 123.366,-27.5798"/>
</g>
<!-- Node9&#45;&gt;Node6 -->
<g id="edge9" class="edge"><title>Node9&#45;&gt;Node6</title>
<path fill="none" stroke="midnightblue" d="M252.403,-168.075C246.264,-141.945 228.236,-65.2106 219.864,-29.577"/>
<polygon fill="midnightblue" stroke="midnightblue" points="223.207,-28.5025 217.513,-19.5681 216.393,-30.1036 223.207,-28.5025"/>
</g>
<!-- Node10&#45;&gt;Node5 -->
<g id="edge12" class="edge"><title>Node10&#45;&gt;Node5</title>
<path fill="none" stroke="midnightblue" d="M169.73,-112.083C163.938,-104.455 155.442,-93.2645 148.362,-83.9408"/>
<polygon fill="midnightblue" stroke="midnightblue" points="150.979,-81.5991 142.144,-75.7511 145.404,-85.8321 150.979,-81.5991"/>
</g>
<!-- Node10&#45;&gt;Node6 -->
<g id="edge11" class="edge"><title>Node10&#45;&gt;Node6</title>
<path fill="none" stroke="midnightblue" d="M179.56,-112.368C185.882,-94.5366 200.504,-53.2953 209.022,-29.2717"/>
<polygon fill="midnightblue" stroke="midnightblue" points="212.411,-30.1862 212.454,-19.5914 205.813,-27.847 212.411,-30.1862"/>
</g>
</g>
</svg>
