<?xml version="1.0" encoding="UTF-8" standalone="no"?>
<!DOCTYPE svg PUBLIC "-//W3C//DTD SVG 1.1//EN"
 "http://www.w3.org/Graphics/SVG/1.1/DTD/svg11.dtd">
<!-- Generated by graphviz version 2.38.0 (20140413.2041)
 -->
<!-- Title: src/structural/src/flyweight/glyph_context.h Pages: 1 -->
<svg width="927pt" height="329pt"
 viewBox="0.00 0.00 926.50 329.00" xmlns="http://www.w3.org/2000/svg" xmlns:xlink="http://www.w3.org/1999/xlink">
<g id="graph0" class="graph" transform="scale(1 1) rotate(0) translate(4 325)">
<title>src/structural/src/flyweight/glyph_context.h</title>
<polygon fill="white" stroke="none" points="-4,4 -4,-325 922.5,-325 922.5,4 -4,4"/>
<!-- Node1 -->
<g id="node1" class="node"><title>Node1</title>
<polygon fill="#bfbfbf" stroke="black" points="500.5,-290.5 500.5,-320.5 629.5,-320.5 629.5,-290.5 500.5,-290.5"/>
<text text-anchor="start" x="508.5" y="-308.5" font-family="Helvetica,sans-Serif" font-size="10.00">src/structural/src</text>
<text text-anchor="middle" x="565" y="-297.5" font-family="Helvetica,sans-Serif" font-size="10.00">/flyweight/glyph_context.h</text>
</g>
<!-- Node2 -->
<g id="node2" class="node"><title>Node2</title>
<g id="a_node2"><a xlink:href="../../df/d3c/glyph__interface_8h.html" target="_top" xlink:title="src/structural/src\l/flyweight/glyph_interface.h">
<polygon fill="white" stroke="black" points="269,-218 269,-248 403,-248 403,-218 269,-218"/>
<text text-anchor="start" x="277" y="-236" font-family="Helvetica,sans-Serif" font-size="10.00">src/structural/src</text>
<text text-anchor="middle" x="336" y="-225" font-family="Helvetica,sans-Serif" font-size="10.00">/flyweight/glyph_interface.h</text>
</a>
</g>
</g>
<!-- Node1&#45;&gt;Node2 -->
<g id="edge1" class="edge"><title>Node1&#45;&gt;Node2</title>
<path fill="none" stroke="midnightblue" d="M509.819,-287.512C470.656,-275.455 418.701,-259.46 381.822,-248.107"/>
<polygon fill="midnightblue" stroke="midnightblue" points="508.896,-290.89 519.483,-290.487 510.956,-284.2 508.896,-290.89"/>
</g>
<!-- Node7 -->
<g id="node7" class="node"><title>Node7</title>
<g id="a_node7"><a xlink:href="../../dd/d09/flyweight__test_8cc.html" target="_top" xlink:title="src/structural_tests\l/src/flyweight/flyweight\l_test.cc">
<polygon fill="white" stroke="black" points="358,-0.5 358,-41.5 472,-41.5 472,-0.5 358,-0.5"/>
<text text-anchor="start" x="366" y="-29.5" font-family="Helvetica,sans-Serif" font-size="10.00">src/structural_tests</text>
<text text-anchor="start" x="366" y="-18.5" font-family="Helvetica,sans-Serif" font-size="10.00">/src/flyweight/flyweight</text>
<text text-anchor="middle" x="415" y="-7.5" font-family="Helvetica,sans-Serif" font-size="10.00">_test.cc</text>
</a>
</g>
</g>
<!-- Node1&#45;&gt;Node7 -->
<g id="edge16" class="edge"><title>Node1&#45;&gt;Node7</title>
<path fill="none" stroke="midnightblue" d="M550.446,-281.618C545.597,-273.194 540.536,-263.409 537,-254 508.85,-179.09 544.035,-144.15 499,-78 488.643,-62.7874 472.651,-50.6331 457.389,-41.5876"/>
<polygon fill="midnightblue" stroke="midnightblue" points="547.599,-283.676 555.739,-290.457 553.605,-280.08 547.599,-283.676"/>
</g>
<!-- Node8 -->
<g id="node8" class="node"><title>Node8</title>
<g id="a_node8"><a xlink:href="../../dc/df8/column_8h.html" target="_top" xlink:title="src/structural/src\l/flyweight/column.h">
<polygon fill="white" stroke="black" points="385,-145.5 385,-175.5 485,-175.5 485,-145.5 385,-145.5"/>
<text text-anchor="start" x="393" y="-163.5" font-family="Helvetica,sans-Serif" font-size="10.00">src/structural/src</text>
<text text-anchor="middle" x="435" y="-152.5" font-family="Helvetica,sans-Serif" font-size="10.00">/flyweight/column.h</text>
</a>
</g>
</g>
<!-- Node1&#45;&gt;Node8 -->
<g id="edge13" class="edge"><title>Node1&#45;&gt;Node8</title>
<path fill="none" stroke="midnightblue" d="M537.539,-284.068C526.588,-275.348 514.19,-264.72 504,-254 479.843,-228.589 456.47,-194.694 444.097,-175.789"/>
<polygon fill="midnightblue" stroke="midnightblue" points="535.533,-286.943 545.57,-290.335 539.839,-281.424 535.533,-286.943"/>
</g>
<!-- Node12 -->
<g id="node12" class="node"><title>Node12</title>
<g id="a_node12"><a xlink:href="../../db/d77/glyph__context_8cc.html" target="_top" xlink:title="src/structural/src\l/flyweight/glyph_context.cc">
<polygon fill="white" stroke="black" points="546,-218 546,-248 680,-248 680,-218 546,-218"/>
<text text-anchor="start" x="554" y="-236" font-family="Helvetica,sans-Serif" font-size="10.00">src/structural/src</text>
<text text-anchor="middle" x="613" y="-225" font-family="Helvetica,sans-Serif" font-size="10.00">/flyweight/glyph_context.cc</text>
</a>
</g>
</g>
<!-- Node1&#45;&gt;Node12 -->
<g id="edge14" class="edge"><title>Node1&#45;&gt;Node12</title>
<path fill="none" stroke="midnightblue" d="M580.397,-281.885C587.916,-270.842 596.733,-257.892 603.301,-248.246"/>
<polygon fill="midnightblue" stroke="midnightblue" points="577.448,-279.997 574.714,-290.233 583.235,-283.937 577.448,-279.997"/>
</g>
<!-- Node13 -->
<g id="node13" class="node"><title>Node13</title>
<g id="a_node13"><a xlink:href="../../df/dde/btree__test_8cc.html" target="_top" xlink:title="src/structural_tests\l/src/flyweight/btree\l_test.cc">
<polygon fill="white" stroke="black" points="698.5,-212.5 698.5,-253.5 799.5,-253.5 799.5,-212.5 698.5,-212.5"/>
<text text-anchor="start" x="706.5" y="-241.5" font-family="Helvetica,sans-Serif" font-size="10.00">src/structural_tests</text>
<text text-anchor="start" x="706.5" y="-230.5" font-family="Helvetica,sans-Serif" font-size="10.00">/src/flyweight/btree</text>
<text text-anchor="middle" x="749" y="-219.5" font-family="Helvetica,sans-Serif" font-size="10.00">_test.cc</text>
</a>
</g>
</g>
<!-- Node1&#45;&gt;Node13 -->
<g id="edge15" class="edge"><title>Node1&#45;&gt;Node13</title>
<path fill="none" stroke="midnightblue" d="M611.234,-286.785C637.76,-276.622 671.097,-263.849 698.333,-253.413"/>
<polygon fill="midnightblue" stroke="midnightblue" points="609.879,-283.556 601.793,-290.403 612.383,-290.093 609.879,-283.556"/>
</g>
<!-- Node14 -->
<g id="node14" class="node"><title>Node14</title>
<g id="a_node14"><a xlink:href="../../df/d9f/glyph__context__test_8cc.html" target="_top" xlink:title="src/structural_tests\l/src/flyweight/glyph\l_context_test.cc">
<polygon fill="white" stroke="black" points="817.5,-212.5 817.5,-253.5 918.5,-253.5 918.5,-212.5 817.5,-212.5"/>
<text text-anchor="start" x="825.5" y="-241.5" font-family="Helvetica,sans-Serif" font-size="10.00">src/structural_tests</text>
<text text-anchor="start" x="825.5" y="-230.5" font-family="Helvetica,sans-Serif" font-size="10.00">/src/flyweight/glyph</text>
<text text-anchor="middle" x="868" y="-219.5" font-family="Helvetica,sans-Serif" font-size="10.00">_context_test.cc</text>
</a>
</g>
</g>
<!-- Node1&#45;&gt;Node14 -->
<g id="edge17" class="edge"><title>Node1&#45;&gt;Node14</title>
<path fill="none" stroke="midnightblue" d="M639.842,-291.474C688.413,-282.417 752.881,-269.257 809,-254 811.714,-253.262 814.484,-252.468 817.273,-251.637"/>
<polygon fill="midnightblue" stroke="midnightblue" points="638.925,-288.084 629.727,-293.344 640.197,-294.968 638.925,-288.084"/>
</g>
<!-- Node3 -->
<g id="node3" class="node"><title>Node3</title>
<g id="a_node3"><a xlink:href="../../dc/d26/character_8h.html" target="_top" xlink:title="src/structural/src\l/flyweight/character.h">
<polygon fill="white" stroke="black" points="254.5,-145.5 254.5,-175.5 363.5,-175.5 363.5,-145.5 254.5,-145.5"/>
<text text-anchor="start" x="262.5" y="-163.5" font-family="Helvetica,sans-Serif" font-size="10.00">src/structural/src</text>
<text text-anchor="middle" x="309" y="-152.5" font-family="Helvetica,sans-Serif" font-size="10.00">/flyweight/character.h</text>
</a>
</g>
</g>
<!-- Node2&#45;&gt;Node3 -->
<g id="edge2" class="edge"><title>Node2&#45;&gt;Node3</title>
<path fill="none" stroke="midnightblue" d="M326.833,-208.064C322.719,-197.321 318.004,-185.01 314.456,-175.746"/>
<polygon fill="midnightblue" stroke="midnightblue" points="323.691,-209.646 330.536,-217.733 330.228,-207.143 323.691,-209.646"/>
</g>
<!-- Node2&#45;&gt;Node8 -->
<g id="edge7" class="edge"><title>Node2&#45;&gt;Node8</title>
<path fill="none" stroke="midnightblue" d="M364.182,-211.931C380.526,-200.292 400.703,-185.924 415.334,-175.505"/>
<polygon fill="midnightblue" stroke="midnightblue" points="362.15,-209.082 356.034,-217.733 366.21,-214.784 362.15,-209.082"/>
</g>
<!-- Node10 -->
<g id="node10" class="node"><title>Node10</title>
<g id="a_node10"><a xlink:href="../../d4/d6d/row_8h.html" target="_top" xlink:title="src/structural/src\l/flyweight/row.h">
<polygon fill="white" stroke="black" points="126,-145.5 126,-175.5 216,-175.5 216,-145.5 126,-145.5"/>
<text text-anchor="start" x="134" y="-163.5" font-family="Helvetica,sans-Serif" font-size="10.00">src/structural/src</text>
<text text-anchor="middle" x="171" y="-152.5" font-family="Helvetica,sans-Serif" font-size="10.00">/flyweight/row.h</text>
</a>
</g>
</g>
<!-- Node2&#45;&gt;Node10 -->
<g id="edge10" class="edge"><title>Node2&#45;&gt;Node10</title>
<path fill="none" stroke="midnightblue" d="M293.505,-213.843C265.61,-201.924 229.664,-186.566 203.936,-175.573"/>
<polygon fill="midnightblue" stroke="midnightblue" points="292.435,-217.192 303.006,-217.903 295.186,-210.755 292.435,-217.192"/>
</g>
<!-- Node4 -->
<g id="node4" class="node"><title>Node4</title>
<g id="a_node4"><a xlink:href="../../db/d57/character_8cc.html" target="_top" xlink:title="src/structural/src\l/flyweight/character.cc">
<polygon fill="white" stroke="black" points="252,-78.5 252,-108.5 366,-108.5 366,-78.5 252,-78.5"/>
<text text-anchor="start" x="260" y="-96.5" font-family="Helvetica,sans-Serif" font-size="10.00">src/structural/src</text>
<text text-anchor="middle" x="309" y="-85.5" font-family="Helvetica,sans-Serif" font-size="10.00">/flyweight/character.cc</text>
</a>
</g>
</g>
<!-- Node3&#45;&gt;Node4 -->
<g id="edge3" class="edge"><title>Node3&#45;&gt;Node4</title>
<path fill="none" stroke="midnightblue" d="M309,-135.108C309,-126.154 309,-116.323 309,-108.577"/>
<polygon fill="midnightblue" stroke="midnightblue" points="305.5,-135.396 309,-145.396 312.5,-135.396 305.5,-135.396"/>
</g>
<!-- Node5 -->
<g id="node5" class="node"><title>Node5</title>
<g id="a_node5"><a xlink:href="../../da/dec/glyph__factory_8h.html" target="_top" xlink:title="src/structural/src\l/flyweight/glyph_factory.h">
<polygon fill="white" stroke="black" points="108,-78.5 108,-108.5 234,-108.5 234,-78.5 108,-78.5"/>
<text text-anchor="start" x="116" y="-96.5" font-family="Helvetica,sans-Serif" font-size="10.00">src/structural/src</text>
<text text-anchor="middle" x="171" y="-85.5" font-family="Helvetica,sans-Serif" font-size="10.00">/flyweight/glyph_factory.h</text>
</a>
</g>
</g>
<!-- Node3&#45;&gt;Node5 -->
<g id="edge4" class="edge"><title>Node3&#45;&gt;Node5</title>
<path fill="none" stroke="midnightblue" d="M270,-141.131C248.073,-130.802 221.126,-118.11 200.886,-108.577"/>
<polygon fill="midnightblue" stroke="midnightblue" points="268.518,-144.301 279.056,-145.396 271.501,-137.968 268.518,-144.301"/>
</g>
<!-- Node6 -->
<g id="node6" class="node"><title>Node6</title>
<g id="a_node6"><a xlink:href="../../d6/dbd/glyph__factory_8cc.html" target="_top" xlink:title="src/structural/src\l/flyweight/glyph_factory.cc">
<polygon fill="white" stroke="black" points="105.5,-6 105.5,-36 236.5,-36 236.5,-6 105.5,-6"/>
<text text-anchor="start" x="113.5" y="-24" font-family="Helvetica,sans-Serif" font-size="10.00">src/structural/src</text>
<text text-anchor="middle" x="171" y="-13" font-family="Helvetica,sans-Serif" font-size="10.00">/flyweight/glyph_factory.cc</text>
</a>
</g>
</g>
<!-- Node5&#45;&gt;Node6 -->
<g id="edge5" class="edge"><title>Node5&#45;&gt;Node6</title>
<path fill="none" stroke="midnightblue" d="M171,-68.2317C171,-57.5679 171,-45.4145 171,-36.2455"/>
<polygon fill="midnightblue" stroke="midnightblue" points="167.5,-68.2332 171,-78.2333 174.5,-68.2333 167.5,-68.2332"/>
</g>
<!-- Node5&#45;&gt;Node7 -->
<g id="edge6" class="edge"><title>Node5&#45;&gt;Node7</title>
<path fill="none" stroke="midnightblue" d="M229.598,-75.569C268.394,-64.3595 319.035,-49.7275 357.587,-38.5886"/>
<polygon fill="midnightblue" stroke="midnightblue" points="228.134,-72.3488 219.498,-78.4872 230.077,-79.0738 228.134,-72.3488"/>
</g>
<!-- Node8&#45;&gt;Node5 -->
<g id="edge9" class="edge"><title>Node8&#45;&gt;Node5</title>
<path fill="none" stroke="midnightblue" d="M374.994,-144.726C330.89,-133.867 271.337,-119.204 227.965,-108.526"/>
<polygon fill="midnightblue" stroke="midnightblue" points="374.175,-148.129 384.722,-147.121 375.849,-141.332 374.175,-148.129"/>
</g>
<!-- Node9 -->
<g id="node9" class="node"><title>Node9</title>
<g id="a_node9"><a xlink:href="../../de/de6/column_8cc.html" target="_top" xlink:title="src/structural/src\l/flyweight/column.cc">
<polygon fill="white" stroke="black" points="384.5,-78.5 384.5,-108.5 489.5,-108.5 489.5,-78.5 384.5,-78.5"/>
<text text-anchor="start" x="392.5" y="-96.5" font-family="Helvetica,sans-Serif" font-size="10.00">src/structural/src</text>
<text text-anchor="middle" x="437" y="-85.5" font-family="Helvetica,sans-Serif" font-size="10.00">/flyweight/column.cc</text>
</a>
</g>
</g>
<!-- Node8&#45;&gt;Node9 -->
<g id="edge8" class="edge"><title>Node8&#45;&gt;Node9</title>
<path fill="none" stroke="midnightblue" d="M435.751,-135.108C436.026,-126.154 436.329,-116.323 436.567,-108.577"/>
<polygon fill="midnightblue" stroke="midnightblue" points="432.243,-135.293 435.434,-145.396 439.24,-135.508 432.243,-135.293"/>
</g>
<!-- Node10&#45;&gt;Node5 -->
<g id="edge11" class="edge"><title>Node10&#45;&gt;Node5</title>
<path fill="none" stroke="midnightblue" d="M171,-135.108C171,-126.154 171,-116.323 171,-108.577"/>
<polygon fill="midnightblue" stroke="midnightblue" points="167.5,-135.396 171,-145.396 174.5,-135.396 167.5,-135.396"/>
</g>
<!-- Node11 -->
<g id="node11" class="node"><title>Node11</title>
<g id="a_node11"><a xlink:href="../../df/d78/row_8cc.html" target="_top" xlink:title="src/structural/src\l/flyweight/row.cc">
<polygon fill="white" stroke="black" points="0,-78.5 0,-108.5 90,-108.5 90,-78.5 0,-78.5"/>
<text text-anchor="start" x="8" y="-96.5" font-family="Helvetica,sans-Serif" font-size="10.00">src/structural/src</text>
<text text-anchor="middle" x="45" y="-85.5" font-family="Helvetica,sans-Serif" font-size="10.00">/flyweight/row.cc</text>
</a>
</g>
</g>
<!-- Node10&#45;&gt;Node11 -->
<g id="edge12" class="edge"><title>Node10&#45;&gt;Node11</title>
<path fill="none" stroke="midnightblue" d="M134.585,-140.714C114.713,-130.463 90.5201,-117.983 72.2868,-108.577"/>
<polygon fill="midnightblue" stroke="midnightblue" points="133.168,-143.922 143.66,-145.396 136.377,-137.701 133.168,-143.922"/>
</g>
</g>
</svg>
