<?xml version="1.0" encoding="UTF-8" standalone="no"?>
<!DOCTYPE svg PUBLIC "-//W3C//DTD SVG 1.1//EN"
 "http://www.w3.org/Graphics/SVG/1.1/DTD/svg11.dtd">
<!-- Generated by graphviz version 2.38.0 (20140413.2041)
 -->
<!-- Title: src/operational/src/mediator/mediator_widget.cc Pages: 1 -->
<svg width="192pt" height="263pt"
 viewBox="0.00 0.00 192.00 263.00" xmlns="http://www.w3.org/2000/svg" xmlns:xlink="http://www.w3.org/1999/xlink">
<g id="graph0" class="graph" transform="scale(1 1) rotate(0) translate(4 259)">
<title>src/operational/src/mediator/mediator_widget.cc</title>
<polygon fill="white" stroke="none" points="-4,4 -4,-259 188,-259 188,4 -4,4"/>
<!-- Node1 -->
<g id="node1" class="node"><title>Node1</title>
<polygon fill="#bfbfbf" stroke="black" points="0,-224.5 0,-254.5 144,-254.5 144,-224.5 0,-224.5"/>
<text text-anchor="start" x="8" y="-242.5" font-family="Helvetica,sans-Serif" font-size="10.00">src/operational/src</text>
<text text-anchor="middle" x="72" y="-231.5" font-family="Helvetica,sans-Serif" font-size="10.00">/mediator/mediator_widget.cc</text>
</g>
<!-- Node2 -->
<g id="node2" class="node"><title>Node2</title>
<g id="a_node2"><a xlink:href="../../dd/dcb/mediator__widget_8h.html" target="_top" xlink:title="mediator_widget.h">
<polygon fill="white" stroke="black" points="24.5,-168.5 24.5,-187.5 119.5,-187.5 119.5,-168.5 24.5,-168.5"/>
<text text-anchor="middle" x="72" y="-175.5" font-family="Helvetica,sans-Serif" font-size="10.00">mediator_widget.h</text>
</a>
</g>
</g>
<!-- Node1&#45;&gt;Node2 -->
<g id="edge1" class="edge"><title>Node1&#45;&gt;Node2</title>
<path fill="none" stroke="midnightblue" d="M72,-224.399C72,-216.466 72,-206.458 72,-197.858"/>
<polygon fill="midnightblue" stroke="midnightblue" points="75.5001,-197.658 72,-187.658 68.5001,-197.658 75.5001,-197.658"/>
</g>
<!-- Node3 -->
<g id="node3" class="node"><title>Node3</title>
<g id="a_node3"><a xlink:href="../../d5/d0b/mediator__widget__interface_8h.html" target="_top" xlink:title="mediator_widget_interface.h">
<polygon fill="white" stroke="black" points="3.5,-56.5 3.5,-75.5 140.5,-75.5 140.5,-56.5 3.5,-56.5"/>
<text text-anchor="middle" x="72" y="-63.5" font-family="Helvetica,sans-Serif" font-size="10.00">mediator_widget_interface.h</text>
</a>
</g>
</g>
<!-- Node2&#45;&gt;Node3 -->
<g id="edge2" class="edge"><title>Node2&#45;&gt;Node3</title>
<path fill="none" stroke="midnightblue" d="M64.8485,-168.364C58.2268,-159.763 48.8426,-145.873 45,-132 40.328,-115.132 49.3364,-96.7917 58.1792,-83.9067"/>
<polygon fill="midnightblue" stroke="midnightblue" points="61.2123,-85.6945 64.3908,-75.5877 55.6033,-81.5064 61.2123,-85.6945"/>
</g>
<!-- Node5 -->
<g id="node5" class="node"><title>Node5</title>
<g id="a_node5"><a xlink:href="../../d6/d19/dialog__director__interface_8h.html" target="_top" xlink:title="dialog_director_interface.h">
<polygon fill="white" stroke="black" points="54,-112.5 54,-131.5 184,-131.5 184,-112.5 54,-112.5"/>
<text text-anchor="middle" x="119" y="-119.5" font-family="Helvetica,sans-Serif" font-size="10.00">dialog_director_interface.h</text>
</a>
</g>
</g>
<!-- Node2&#45;&gt;Node5 -->
<g id="edge4" class="edge"><title>Node2&#45;&gt;Node5</title>
<path fill="none" stroke="midnightblue" d="M79.7611,-168.083C86.5368,-160.298 96.5432,-148.801 104.755,-139.367"/>
<polygon fill="midnightblue" stroke="midnightblue" points="107.458,-141.592 111.383,-131.751 102.178,-136.996 107.458,-141.592"/>
</g>
<!-- Node4 -->
<g id="node4" class="node"><title>Node4</title>
<g id="a_node4"><a xlink:href="../../d4/da7/mouse__event_8h.html" target="_top" xlink:title="mouse_event.h">
<polygon fill="white" stroke="black" points="31,-0.5 31,-19.5 113,-19.5 113,-0.5 31,-0.5"/>
<text text-anchor="middle" x="72" y="-7.5" font-family="Helvetica,sans-Serif" font-size="10.00">mouse_event.h</text>
</a>
</g>
</g>
<!-- Node3&#45;&gt;Node4 -->
<g id="edge3" class="edge"><title>Node3&#45;&gt;Node4</title>
<path fill="none" stroke="midnightblue" d="M72,-56.083C72,-49.0059 72,-38.8611 72,-29.9865"/>
<polygon fill="midnightblue" stroke="midnightblue" points="75.5001,-29.751 72,-19.7511 68.5001,-29.7511 75.5001,-29.751"/>
</g>
<!-- Node5&#45;&gt;Node3 -->
<g id="edge5" class="edge"><title>Node5&#45;&gt;Node3</title>
<path fill="none" stroke="midnightblue" d="M111.239,-112.083C104.463,-104.298 94.4568,-92.8015 86.2449,-83.3665"/>
<polygon fill="midnightblue" stroke="midnightblue" points="88.822,-80.9963 79.6167,-75.7511 83.5419,-85.592 88.822,-80.9963"/>
</g>
</g>
</svg>
