<?xml version="1.0" encoding="UTF-8" standalone="no"?>
<!DOCTYPE svg PUBLIC "-//W3C//DTD SVG 1.1//EN"
 "http://www.w3.org/Graphics/SVG/1.1/DTD/svg11.dtd">
<!-- Generated by graphviz version 2.38.0 (20140413.2041)
 -->
<!-- Title: operational::chain::Dialog::HasHelp Pages: 1 -->
<svg width="242pt" height="39pt"
 viewBox="0.00 0.00 242.00 39.00" xmlns="http://www.w3.org/2000/svg" xmlns:xlink="http://www.w3.org/1999/xlink">
<g id="graph0" class="graph" transform="scale(1 1) rotate(0) translate(4 35)">
<title>operational::chain::Dialog::HasHelp</title>
<polygon fill="white" stroke="none" points="-4,4 -4,-35 238,-35 238,4 -4,4"/>
<!-- Node1 -->
<g id="node1" class="node"><title>Node1</title>
<polygon fill="#bfbfbf" stroke="black" points="0,-0.5 0,-30.5 93,-30.5 93,-0.5 0,-0.5"/>
<text text-anchor="start" x="8" y="-18.5" font-family="Helvetica,sans-Serif" font-size="10.00">operational::chain</text>
<text text-anchor="middle" x="46.5" y="-7.5" font-family="Helvetica,sans-Serif" font-size="10.00">::Dialog::HasHelp</text>
</g>
<!-- Node2 -->
<g id="node2" class="node"><title>Node2</title>
<g id="a_node2"><a xlink:href="../../dd/df0/classoperational_1_1chain_1_1_dialog.html#a3bc7ea13d7c585300c137c28549c2987" target="_top" xlink:title="operational::chain\l::Dialog::HandleHelp">
<polygon fill="white" stroke="black" points="129,-0.5 129,-30.5 234,-30.5 234,-0.5 129,-0.5"/>
<text text-anchor="start" x="137" y="-18.5" font-family="Helvetica,sans-Serif" font-size="10.00">operational::chain</text>
<text text-anchor="middle" x="181.5" y="-7.5" font-family="Helvetica,sans-Serif" font-size="10.00">::Dialog::HandleHelp</text>
</a>
</g>
</g>
<!-- Node1&#45;&gt;Node2 -->
<g id="edge1" class="edge"><title>Node1&#45;&gt;Node2</title>
<path fill="none" stroke="midnightblue" d="M103.365,-15.5C111.766,-15.5 120.399,-15.5 128.71,-15.5"/>
<polygon fill="midnightblue" stroke="midnightblue" points="103.271,-12.0001 93.2711,-15.5 103.271,-19.0001 103.271,-12.0001"/>
</g>
</g>
</svg>
