<?xml version="1.0" encoding="UTF-8" standalone="no"?>
<!DOCTYPE svg PUBLIC "-//W3C//DTD SVG 1.1//EN"
 "http://www.w3.org/Graphics/SVG/1.1/DTD/svg11.dtd">
<!-- Generated by graphviz version 2.38.0 (20140413.2041)
 -->
<!-- Title: operational::chain::Dialog::HandleHelp Pages: 1 -->
<svg width="406pt" height="170pt"
 viewBox="0.00 0.00 406.00 169.50" xmlns="http://www.w3.org/2000/svg" xmlns:xlink="http://www.w3.org/1999/xlink">
<g id="graph0" class="graph" transform="scale(1 1) rotate(0) translate(4 165.5)">
<title>operational::chain::Dialog::HandleHelp</title>
<polygon fill="white" stroke="none" points="-4,4 -4,-165.5 402,-165.5 402,4 -4,4"/>
<!-- Node1 -->
<g id="node1" class="node"><title>Node1</title>
<polygon fill="#bfbfbf" stroke="black" points="0,-82 0,-112 105,-112 105,-82 0,-82"/>
<text text-anchor="start" x="8" y="-100" font-family="Helvetica,sans-Serif" font-size="10.00">operational::chain</text>
<text text-anchor="middle" x="52.5" y="-89" font-family="Helvetica,sans-Serif" font-size="10.00">::Dialog::HandleHelp</text>
</g>
<!-- Node2 -->
<g id="node2" class="node"><title>Node2</title>
<g id="a_node2"><a xlink:href="../../dd/df0/classoperational_1_1chain_1_1_dialog.html#a7fe6effe6b9311acc72f6dc0ca6589f6" target="_top" xlink:title="operational::chain\l::Dialog::HasHelp">
<polygon fill="white" stroke="black" points="149,-131 149,-161 242,-161 242,-131 149,-131"/>
<text text-anchor="start" x="157" y="-149" font-family="Helvetica,sans-Serif" font-size="10.00">operational::chain</text>
<text text-anchor="middle" x="195.5" y="-138" font-family="Helvetica,sans-Serif" font-size="10.00">::Dialog::HasHelp</text>
</a>
</g>
</g>
<!-- Node1&#45;&gt;Node2 -->
<g id="edge1" class="edge"><title>Node1&#45;&gt;Node2</title>
<path fill="none" stroke="midnightblue" d="M96.9552,-112.101C111.027,-116.992 126.793,-122.471 141.479,-127.574"/>
<polygon fill="midnightblue" stroke="midnightblue" points="140.351,-130.887 150.946,-130.864 142.649,-124.275 140.351,-130.887"/>
</g>
<!-- Node3 -->
<g id="node3" class="node"><title>Node3</title>
<g id="a_node3"><a xlink:href="../../df/d6a/classoperational_1_1chain_1_1_widget.html#acd95702812f9485e557d2368b71cb181" target="_top" xlink:title="operational::chain\l::Widget::name">
<polygon fill="white" stroke="black" points="149,-82 149,-112 242,-112 242,-82 149,-82"/>
<text text-anchor="start" x="157" y="-100" font-family="Helvetica,sans-Serif" font-size="10.00">operational::chain</text>
<text text-anchor="middle" x="195.5" y="-89" font-family="Helvetica,sans-Serif" font-size="10.00">::Widget::name</text>
</a>
</g>
</g>
<!-- Node1&#45;&gt;Node3 -->
<g id="edge2" class="edge"><title>Node1&#45;&gt;Node3</title>
<path fill="none" stroke="midnightblue" d="M105.203,-97C116.154,-97 127.759,-97 138.85,-97"/>
<polygon fill="midnightblue" stroke="midnightblue" points="138.858,-100.5 148.858,-97 138.858,-93.5001 138.858,-100.5"/>
</g>
<!-- Node4 -->
<g id="node4" class="node"><title>Node4</title>
<g id="a_node4"><a xlink:href="../../df/d6a/classoperational_1_1chain_1_1_widget.html#a787c0fbd6eccaa5063b22d9716220ad7" target="_top" xlink:title="operational::chain\l::Widget::HandleHelp">
<polygon fill="white" stroke="black" points="141,-33 141,-63 250,-63 250,-33 141,-33"/>
<text text-anchor="start" x="149" y="-51" font-family="Helvetica,sans-Serif" font-size="10.00">operational::chain</text>
<text text-anchor="middle" x="195.5" y="-40" font-family="Helvetica,sans-Serif" font-size="10.00">::Widget::HandleHelp</text>
</a>
</g>
</g>
<!-- Node1&#45;&gt;Node4 -->
<g id="edge3" class="edge"><title>Node1&#45;&gt;Node4</title>
<path fill="none" stroke="midnightblue" d="M96.9552,-81.8986C111.027,-77.0083 126.793,-71.5293 141.479,-66.4256"/>
<polygon fill="midnightblue" stroke="midnightblue" points="142.649,-69.7247 150.946,-63.1359 140.351,-63.1125 142.649,-69.7247"/>
</g>
<!-- Node5 -->
<g id="node5" class="node"><title>Node5</title>
<g id="a_node5"><a xlink:href="../../df/d6a/classoperational_1_1chain_1_1_widget.html#aac6cc8c0e76c3e4fa9c864b618ad7753" target="_top" xlink:title="operational::chain\l::Widget::HasHelp">
<polygon fill="white" stroke="black" points="294,-61 294,-91 390,-91 390,-61 294,-61"/>
<text text-anchor="start" x="302" y="-79" font-family="Helvetica,sans-Serif" font-size="10.00">operational::chain</text>
<text text-anchor="middle" x="342" y="-68" font-family="Helvetica,sans-Serif" font-size="10.00">::Widget::HasHelp</text>
</a>
</g>
</g>
<!-- Node4&#45;&gt;Node5 -->
<g id="edge4" class="edge"><title>Node4&#45;&gt;Node5</title>
<path fill="none" stroke="midnightblue" d="M250.306,-58.4262C261.242,-60.5451 272.781,-62.7811 283.828,-64.9218"/>
<polygon fill="midnightblue" stroke="midnightblue" points="283.321,-68.3884 293.804,-66.8548 284.652,-61.5163 283.321,-68.3884"/>
</g>
<!-- Node6 -->
<g id="node6" class="node"><title>Node6</title>
<g id="a_node6"><a xlink:href="../../df/dcd/classoperational_1_1chain_1_1_help_handler_interface.html#a297c6b35a5f78502a636714fe48f62ca" target="_top" xlink:title="operational::chain\l::HelpHandlerInterface\l::HandleHelp">
<polygon fill="white" stroke="black" points="286,-0.5 286,-41.5 398,-41.5 398,-0.5 286,-0.5"/>
<text text-anchor="start" x="294" y="-29.5" font-family="Helvetica,sans-Serif" font-size="10.00">operational::chain</text>
<text text-anchor="start" x="294" y="-18.5" font-family="Helvetica,sans-Serif" font-size="10.00">::HelpHandlerInterface</text>
<text text-anchor="middle" x="342" y="-7.5" font-family="Helvetica,sans-Serif" font-size="10.00">::HandleHelp</text>
</a>
</g>
</g>
<!-- Node4&#45;&gt;Node6 -->
<g id="edge5" class="edge"><title>Node4&#45;&gt;Node6</title>
<path fill="none" stroke="midnightblue" d="M250.306,-37.9462C258.611,-36.3944 267.265,-34.7775 275.786,-33.1852"/>
<polygon fill="midnightblue" stroke="midnightblue" points="276.514,-36.61 285.701,-31.3328 275.228,-29.7291 276.514,-36.61"/>
</g>
</g>
</svg>
