<?xml version="1.0" encoding="UTF-8" standalone="no"?>
<!DOCTYPE svg PUBLIC "-//W3C//DTD SVG 1.1//EN"
 "http://www.w3.org/Graphics/SVG/1.1/DTD/svg11.dtd">
<!-- Generated by graphviz version 2.38.0 (20140413.2041)
 -->
<!-- Title: operational::visitor::Bus Pages: 1 -->
<svg width="280pt" height="281pt"
 viewBox="0.00 0.00 280.00 281.00" xmlns="http://www.w3.org/2000/svg" xmlns:xlink="http://www.w3.org/1999/xlink">
<g id="graph0" class="graph" transform="scale(1 1) rotate(0) translate(4 277)">
<title>operational::visitor::Bus</title>
<polygon fill="white" stroke="none" points="-4,4 -4,-277 276,-277 276,4 -4,4"/>
<!-- Node1 -->
<g id="node1" class="node"><title>Node1</title>
<polygon fill="#bfbfbf" stroke="black" points="88.5,-0.5 88.5,-123.5 206.5,-123.5 206.5,-0.5 88.5,-0.5"/>
<text text-anchor="middle" x="147.5" y="-111.5" font-family="Helvetica,sans-Serif" font-size="10.00">operational::visitor::Bus</text>
<polyline fill="none" stroke="black" points="88.5,-104.5 206.5,-104.5 "/>
<text text-anchor="middle" x="147.5" y="-92.5" font-family="Helvetica,sans-Serif" font-size="10.00"> </text>
<polyline fill="none" stroke="black" points="88.5,-85.5 206.5,-85.5 "/>
<text text-anchor="start" x="96.5" y="-73.5" font-family="Helvetica,sans-Serif" font-size="10.00">+ Bus()</text>
<text text-anchor="start" x="96.5" y="-62.5" font-family="Helvetica,sans-Serif" font-size="10.00">+ name()</text>
<text text-anchor="start" x="96.5" y="-51.5" font-family="Helvetica,sans-Serif" font-size="10.00">+ price()</text>
<text text-anchor="start" x="96.5" y="-40.5" font-family="Helvetica,sans-Serif" font-size="10.00">+ price()</text>
<text text-anchor="start" x="96.5" y="-29.5" font-family="Helvetica,sans-Serif" font-size="10.00">+ GetLuxPrice()</text>
<text text-anchor="start" x="96.5" y="-18.5" font-family="Helvetica,sans-Serif" font-size="10.00">+ GetRegularPrice()</text>
<text text-anchor="start" x="96.5" y="-7.5" font-family="Helvetica,sans-Serif" font-size="10.00">+ Accept()</text>
</g>
<!-- Node2 -->
<g id="node2" class="node"><title>Node2</title>
<g id="a_node2"><a xlink:href="../../d3/d47/classoperational_1_1visitor_1_1_visited_equipment_interface.html" target="_top" xlink:title="{operational::visitor\l::VisitedEquipmentInterface\n||+ ~VisitedEquipmentInterface()\l+ name()\l+ price()\l+ price()\l+ Accept()\l}">
<polygon fill="white" stroke="black" points="0,-160.5 0,-272.5 151,-272.5 151,-160.5 0,-160.5"/>
<text text-anchor="start" x="8" y="-260.5" font-family="Helvetica,sans-Serif" font-size="10.00">operational::visitor</text>
<text text-anchor="middle" x="75.5" y="-249.5" font-family="Helvetica,sans-Serif" font-size="10.00">::VisitedEquipmentInterface</text>
<polyline fill="none" stroke="black" points="0,-242.5 151,-242.5 "/>
<text text-anchor="middle" x="75.5" y="-230.5" font-family="Helvetica,sans-Serif" font-size="10.00"> </text>
<polyline fill="none" stroke="black" points="0,-223.5 151,-223.5 "/>
<text text-anchor="start" x="8" y="-211.5" font-family="Helvetica,sans-Serif" font-size="10.00">+ ~VisitedEquipmentInterface()</text>
<text text-anchor="start" x="8" y="-200.5" font-family="Helvetica,sans-Serif" font-size="10.00">+ name()</text>
<text text-anchor="start" x="8" y="-189.5" font-family="Helvetica,sans-Serif" font-size="10.00">+ price()</text>
<text text-anchor="start" x="8" y="-178.5" font-family="Helvetica,sans-Serif" font-size="10.00">+ price()</text>
<text text-anchor="start" x="8" y="-167.5" font-family="Helvetica,sans-Serif" font-size="10.00">+ Accept()</text>
</a>
</g>
</g>
<!-- Node2&#45;&gt;Node1 -->
<g id="edge1" class="edge"><title>Node2&#45;&gt;Node1</title>
<path fill="none" stroke="midnightblue" d="M105.78,-151.365C110.114,-142.185 114.562,-132.765 118.863,-123.655"/>
<polygon fill="none" stroke="midnightblue" points="102.598,-149.907 101.494,-160.444 108.928,-152.895 102.598,-149.907"/>
</g>
<!-- Node3 -->
<g id="node3" class="node"><title>Node3</title>
<g id="a_node3"><a xlink:href="../../d2/d37/classoperational_1_1visitor_1_1_bus_interface.html" target="_top" xlink:title="{operational::visitor\l::BusInterface\n||+ ~BusInterface()\l+ GetLuxPrice()\l+ GetRegularPrice()\l}">
<polygon fill="white" stroke="black" points="169,-171.5 169,-261.5 272,-261.5 272,-171.5 169,-171.5"/>
<text text-anchor="start" x="177" y="-249.5" font-family="Helvetica,sans-Serif" font-size="10.00">operational::visitor</text>
<text text-anchor="middle" x="220.5" y="-238.5" font-family="Helvetica,sans-Serif" font-size="10.00">::BusInterface</text>
<polyline fill="none" stroke="black" points="169,-231.5 272,-231.5 "/>
<text text-anchor="middle" x="220.5" y="-219.5" font-family="Helvetica,sans-Serif" font-size="10.00"> </text>
<polyline fill="none" stroke="black" points="169,-212.5 272,-212.5 "/>
<text text-anchor="start" x="177" y="-200.5" font-family="Helvetica,sans-Serif" font-size="10.00">+ ~BusInterface()</text>
<text text-anchor="start" x="177" y="-189.5" font-family="Helvetica,sans-Serif" font-size="10.00">+ GetLuxPrice()</text>
<text text-anchor="start" x="177" y="-178.5" font-family="Helvetica,sans-Serif" font-size="10.00">+ GetRegularPrice()</text>
</a>
</g>
</g>
<!-- Node3&#45;&gt;Node1 -->
<g id="edge2" class="edge"><title>Node3&#45;&gt;Node1</title>
<path fill="none" stroke="midnightblue" d="M194.942,-162.109C189.009,-149.713 182.65,-136.429 176.577,-123.743"/>
<polygon fill="none" stroke="midnightblue" points="191.911,-163.882 199.385,-171.391 198.225,-160.86 191.911,-163.882"/>
</g>
</g>
</svg>
