<?xml version="1.0" encoding="UTF-8" standalone="no"?>
<!DOCTYPE svg PUBLIC "-//W3C//DTD SVG 1.1//EN"
 "http://www.w3.org/Graphics/SVG/1.1/DTD/svg11.dtd">
<!-- Generated by graphviz version 2.38.0 (20140413.2041)
 -->
<!-- Title: operational::state::TcpConnection::PassiveOpen Pages: 1 -->
<svg width="319pt" height="39pt"
 viewBox="0.00 0.00 319.00 39.00" xmlns="http://www.w3.org/2000/svg" xmlns:xlink="http://www.w3.org/1999/xlink">
<g id="graph0" class="graph" transform="scale(1 1) rotate(0) translate(4 35)">
<title>operational::state::TcpConnection::PassiveOpen</title>
<polygon fill="white" stroke="none" points="-4,4 -4,-35 315,-35 315,4 -4,4"/>
<!-- Node1 -->
<g id="node1" class="node"><title>Node1</title>
<polygon fill="#bfbfbf" stroke="black" points="0,-0.5 0,-30.5 150,-30.5 150,-0.5 0,-0.5"/>
<text text-anchor="start" x="8" y="-18.5" font-family="Helvetica,sans-Serif" font-size="10.00">operational::state</text>
<text text-anchor="middle" x="75" y="-7.5" font-family="Helvetica,sans-Serif" font-size="10.00">::TcpConnection::PassiveOpen</text>
</g>
<!-- Node2 -->
<g id="node2" class="node"><title>Node2</title>
<g id="a_node2"><a xlink:href="../../de/d97/classoperational_1_1state_1_1_tcp_state.html#acc49a6d71338e0e3794ac6ec44cd3cf1" target="_top" xlink:title="operational::state\l::TcpState::PassiveOpen">
<polygon fill="white" stroke="black" points="186,-0.5 186,-30.5 311,-30.5 311,-0.5 186,-0.5"/>
<text text-anchor="start" x="194" y="-18.5" font-family="Helvetica,sans-Serif" font-size="10.00">operational::state</text>
<text text-anchor="middle" x="248.5" y="-7.5" font-family="Helvetica,sans-Serif" font-size="10.00">::TcpState::PassiveOpen</text>
</a>
</g>
</g>
<!-- Node1&#45;&gt;Node2 -->
<g id="edge1" class="edge"><title>Node1&#45;&gt;Node2</title>
<path fill="none" stroke="midnightblue" d="M150.225,-15.5C158.656,-15.5 167.238,-15.5 175.638,-15.5"/>
<polygon fill="midnightblue" stroke="midnightblue" points="175.771,-19.0001 185.771,-15.5 175.771,-12.0001 175.771,-19.0001"/>
</g>
</g>
</svg>
