<?xml version="1.0" encoding="UTF-8" standalone="no"?>
<!DOCTYPE svg PUBLIC "-//W3C//DTD SVG 1.1//EN"
 "http://www.w3.org/Graphics/SVG/1.1/DTD/svg11.dtd">
<!-- Generated by graphviz version 2.38.0 (20140413.2041)
 -->
<!-- Title: structural::facade::Parser::Parse Pages: 1 -->
<svg width="426pt" height="50pt"
 viewBox="0.00 0.00 426.00 50.00" xmlns="http://www.w3.org/2000/svg" xmlns:xlink="http://www.w3.org/1999/xlink">
<g id="graph0" class="graph" transform="scale(1 1) rotate(0) translate(4 46)">
<title>structural::facade::Parser::Parse</title>
<polygon fill="white" stroke="none" points="-4,4 -4,-46 422,-46 422,4 -4,4"/>
<!-- Node1 -->
<g id="node1" class="node"><title>Node1</title>
<polygon fill="#bfbfbf" stroke="black" points="0,-6 0,-36 92,-36 92,-6 0,-6"/>
<text text-anchor="start" x="8" y="-24" font-family="Helvetica,sans-Serif" font-size="10.00">structural::facade</text>
<text text-anchor="middle" x="46" y="-13" font-family="Helvetica,sans-Serif" font-size="10.00">::Parser::Parse</text>
</g>
<!-- Node2 -->
<g id="node2" class="node"><title>Node2</title>
<g id="a_node2"><a xlink:href="../../d8/d7a/classstructural_1_1facade_1_1_program_node_builder.html#af425287aea91ec726c7c558869a97326" target="_top" xlink:title="structural::facade\l::ProgramNodeBuilder\l::NewVariable">
<polygon fill="white" stroke="black" points="128,-0.5 128,-41.5 240,-41.5 240,-0.5 128,-0.5"/>
<text text-anchor="start" x="136" y="-29.5" font-family="Helvetica,sans-Serif" font-size="10.00">structural::facade</text>
<text text-anchor="start" x="136" y="-18.5" font-family="Helvetica,sans-Serif" font-size="10.00">::ProgramNodeBuilder</text>
<text text-anchor="middle" x="184" y="-7.5" font-family="Helvetica,sans-Serif" font-size="10.00">::NewVariable</text>
</a>
</g>
</g>
<!-- Node1&#45;&gt;Node2 -->
<g id="edge1" class="edge"><title>Node1&#45;&gt;Node2</title>
<path fill="none" stroke="midnightblue" d="M92.286,-21C100.506,-21 109.226,-21 117.883,-21"/>
<polygon fill="midnightblue" stroke="midnightblue" points="117.984,-24.5001 127.984,-21 117.984,-17.5001 117.984,-24.5001"/>
</g>
<!-- Node3 -->
<g id="node3" class="node"><title>Node3</title>
<g id="a_node3"><a xlink:href="../../d9/d8e/classstructural_1_1facade_1_1_program_node_interface.html#ae057f911881253ed1fe107c6901bf021" target="_top" xlink:title="structural::facade\l::ProgramNodeInterface::Add">
<polygon fill="white" stroke="black" points="276,-6 276,-36 418,-36 418,-6 276,-6"/>
<text text-anchor="start" x="284" y="-24" font-family="Helvetica,sans-Serif" font-size="10.00">structural::facade</text>
<text text-anchor="middle" x="347" y="-13" font-family="Helvetica,sans-Serif" font-size="10.00">::ProgramNodeInterface::Add</text>
</a>
</g>
</g>
<!-- Node2&#45;&gt;Node3 -->
<g id="edge2" class="edge"><title>Node2&#45;&gt;Node3</title>
<path fill="none" stroke="midnightblue" d="M240.407,-21C248.645,-21 257.272,-21 265.893,-21"/>
<polygon fill="midnightblue" stroke="midnightblue" points="265.987,-24.5001 275.987,-21 265.987,-17.5001 265.987,-24.5001"/>
</g>
</g>
</svg>
