<?xml version="1.0" encoding="UTF-8" standalone="no"?>
<!DOCTYPE svg PUBLIC "-//W3C//DTD SVG 1.1//EN"
 "http://www.w3.org/Graphics/SVG/1.1/DTD/svg11.dtd">
<!-- Generated by graphviz version 2.38.0 (20140413.2041)
 -->
<!-- Title: src/structural/src/facade/program_node_interface.h Pages: 1 -->
<svg width="447pt" height="218pt"
 viewBox="0.00 0.00 446.50 218.00" xmlns="http://www.w3.org/2000/svg" xmlns:xlink="http://www.w3.org/1999/xlink">
<g id="graph0" class="graph" transform="scale(1 1) rotate(0) translate(4 214)">
<title>src/structural/src/facade/program_node_interface.h</title>
<polygon fill="white" stroke="none" points="-4,4 -4,-214 442.5,-214 442.5,4 -4,4"/>
<!-- Node1 -->
<g id="node1" class="node"><title>Node1</title>
<polygon fill="#bfbfbf" stroke="black" points="170.5,-168.5 170.5,-209.5 283.5,-209.5 283.5,-168.5 170.5,-168.5"/>
<text text-anchor="start" x="178.5" y="-197.5" font-family="Helvetica,sans-Serif" font-size="10.00">src/structural/src</text>
<text text-anchor="start" x="178.5" y="-186.5" font-family="Helvetica,sans-Serif" font-size="10.00">/facade/program_node</text>
<text text-anchor="middle" x="227" y="-175.5" font-family="Helvetica,sans-Serif" font-size="10.00">_interface.h</text>
</g>
<!-- Node2 -->
<g id="node2" class="node"><title>Node2</title>
<g id="a_node2"><a xlink:href="../../d7/df5/code__generator__interface_8h.html" target="_top" xlink:title="code_generator_interface.h">
<polygon fill="white" stroke="black" points="160,-112.5 160,-131.5 294,-131.5 294,-112.5 160,-112.5"/>
<text text-anchor="middle" x="227" y="-119.5" font-family="Helvetica,sans-Serif" font-size="10.00">code_generator_interface.h</text>
</a>
</g>
</g>
<!-- Node1&#45;&gt;Node2 -->
<g id="edge1" class="edge"><title>Node1&#45;&gt;Node2</title>
<path fill="none" stroke="midnightblue" d="M227,-168.498C227,-160.065 227,-150.235 227,-141.874"/>
<polygon fill="midnightblue" stroke="midnightblue" points="230.5,-141.652 227,-131.652 223.5,-141.653 230.5,-141.652"/>
</g>
<!-- Node3 -->
<g id="node3" class="node"><title>Node3</title>
<g id="a_node3"><a xlink:href="../../d9/d24/expression__node__interface_8h.html" target="_top" xlink:title="expression_node_interface.h">
<polygon fill="white" stroke="black" points="0,-56.5 0,-75.5 140,-75.5 140,-56.5 0,-56.5"/>
<text text-anchor="middle" x="70" y="-63.5" font-family="Helvetica,sans-Serif" font-size="10.00">expression_node_interface.h</text>
</a>
</g>
</g>
<!-- Node2&#45;&gt;Node3 -->
<g id="edge2" class="edge"><title>Node2&#45;&gt;Node3</title>
<path fill="none" stroke="midnightblue" d="M202.123,-112.444C175.711,-103.359 133.785,-88.9388 104.258,-78.7831"/>
<polygon fill="midnightblue" stroke="midnightblue" points="105.355,-75.4593 94.7607,-75.5164 103.079,-82.0787 105.355,-75.4593"/>
</g>
<!-- Node5 -->
<g id="node5" class="node"><title>Node5</title>
<g id="a_node5"><a xlink:href="../../dd/d4b/statement__node__interface_8h.html" target="_top" xlink:title="statement_node_interface.h">
<polygon fill="white" stroke="black" points="158.5,-56.5 158.5,-75.5 295.5,-75.5 295.5,-56.5 158.5,-56.5"/>
<text text-anchor="middle" x="227" y="-63.5" font-family="Helvetica,sans-Serif" font-size="10.00">statement_node_interface.h</text>
</a>
</g>
</g>
<!-- Node2&#45;&gt;Node5 -->
<g id="edge4" class="edge"><title>Node2&#45;&gt;Node5</title>
<path fill="none" stroke="midnightblue" d="M227,-112.083C227,-105.006 227,-94.8611 227,-85.9865"/>
<polygon fill="midnightblue" stroke="midnightblue" points="230.5,-85.751 227,-75.7511 223.5,-85.7511 230.5,-85.751"/>
</g>
<!-- Node6 -->
<g id="node6" class="node"><title>Node6</title>
<g id="a_node6"><a xlink:href="../../df/d19/variable__node__interface_8h.html" target="_top" xlink:title="variable_node_interface.h">
<polygon fill="white" stroke="black" points="313.5,-56.5 313.5,-75.5 438.5,-75.5 438.5,-56.5 313.5,-56.5"/>
<text text-anchor="middle" x="376" y="-63.5" font-family="Helvetica,sans-Serif" font-size="10.00">variable_node_interface.h</text>
</a>
</g>
</g>
<!-- Node2&#45;&gt;Node6 -->
<g id="edge6" class="edge"><title>Node2&#45;&gt;Node6</title>
<path fill="none" stroke="midnightblue" d="M250.609,-112.444C275.458,-103.438 314.774,-89.1891 342.754,-79.049"/>
<polygon fill="midnightblue" stroke="midnightblue" points="344.292,-82.2144 352.501,-75.5164 341.907,-75.6332 344.292,-82.2144"/>
</g>
<!-- Node4 -->
<g id="node4" class="node"><title>Node4</title>
<polygon fill="white" stroke="#bfbfbf" points="206.5,-0.5 206.5,-19.5 247.5,-19.5 247.5,-0.5 206.5,-0.5"/>
<text text-anchor="middle" x="227" y="-7.5" font-family="Helvetica,sans-Serif" font-size="10.00">string</text>
</g>
<!-- Node3&#45;&gt;Node4 -->
<g id="edge3" class="edge"><title>Node3&#45;&gt;Node4</title>
<path fill="none" stroke="midnightblue" d="M94.8771,-56.4435C122.412,-46.973 166.807,-31.7032 196.437,-21.512"/>
<polygon fill="midnightblue" stroke="midnightblue" points="197.932,-24.6991 206.25,-18.1368 195.656,-18.0797 197.932,-24.6991"/>
</g>
<!-- Node5&#45;&gt;Node4 -->
<g id="edge5" class="edge"><title>Node5&#45;&gt;Node4</title>
<path fill="none" stroke="midnightblue" d="M227,-56.083C227,-49.0059 227,-38.8611 227,-29.9865"/>
<polygon fill="midnightblue" stroke="midnightblue" points="230.5,-29.751 227,-19.7511 223.5,-29.7511 230.5,-29.751"/>
</g>
<!-- Node6&#45;&gt;Node4 -->
<g id="edge7" class="edge"><title>Node6&#45;&gt;Node4</title>
<path fill="none" stroke="midnightblue" d="M352.391,-56.4435C326.665,-47.1203 285.432,-32.1768 257.327,-21.9911"/>
<polygon fill="midnightblue" stroke="midnightblue" points="258.214,-18.5898 247.62,-18.473 255.829,-25.1709 258.214,-18.5898"/>
</g>
</g>
</svg>
