<?xml version="1.0" encoding="UTF-8" standalone="no"?>
<!DOCTYPE svg PUBLIC "-//W3C//DTD SVG 1.1//EN"
 "http://www.w3.org/Graphics/SVG/1.1/DTD/svg11.dtd">
<!-- Generated by graphviz version 2.38.0 (20140413.2041)
 -->
<!-- Title: operational::visitor::FloppyDiskInterface Pages: 1 -->
<svg width="131pt" height="248pt"
 viewBox="0.00 0.00 131.00 248.00" xmlns="http://www.w3.org/2000/svg" xmlns:xlink="http://www.w3.org/1999/xlink">
<g id="graph0" class="graph" transform="scale(1 1) rotate(0) translate(4 244)">
<title>operational::visitor::FloppyDiskInterface</title>
<polygon fill="white" stroke="none" points="-4,4 -4,-244 127,-244 127,4 -4,4"/>
<!-- Node1 -->
<g id="node1" class="node"><title>Node1</title>
<polygon fill="#bfbfbf" stroke="black" points="0,-160.5 0,-239.5 123,-239.5 123,-160.5 0,-160.5"/>
<text text-anchor="start" x="8" y="-227.5" font-family="Helvetica,sans-Serif" font-size="10.00">operational::visitor</text>
<text text-anchor="middle" x="61.5" y="-216.5" font-family="Helvetica,sans-Serif" font-size="10.00">::FloppyDiskInterface</text>
<polyline fill="none" stroke="black" points="0,-209.5 123,-209.5 "/>
<text text-anchor="middle" x="61.5" y="-197.5" font-family="Helvetica,sans-Serif" font-size="10.00"> </text>
<polyline fill="none" stroke="black" points="0,-190.5 123,-190.5 "/>
<text text-anchor="start" x="8" y="-178.5" font-family="Helvetica,sans-Serif" font-size="10.00">+ ~FloppyDiskInterface()</text>
<text text-anchor="start" x="8" y="-167.5" font-family="Helvetica,sans-Serif" font-size="10.00">+ GetBoxPrice()</text>
</g>
<!-- Node2 -->
<g id="node2" class="node"><title>Node2</title>
<g id="a_node2"><a xlink:href="../../d1/dfb/classoperational_1_1visitor_1_1_floppy_disk.html" target="_top" xlink:title="{operational::visitor\l::FloppyDisk\n||+ FloppyDisk()\l+ name()\l+ price()\l+ price()\l+ GetBoxPrice()\l+ Accept()\l}">
<polygon fill="white" stroke="black" points="14,-0.5 14,-123.5 109,-123.5 109,-0.5 14,-0.5"/>
<text text-anchor="start" x="22" y="-111.5" font-family="Helvetica,sans-Serif" font-size="10.00">operational::visitor</text>
<text text-anchor="middle" x="61.5" y="-100.5" font-family="Helvetica,sans-Serif" font-size="10.00">::FloppyDisk</text>
<polyline fill="none" stroke="black" points="14,-93.5 109,-93.5 "/>
<text text-anchor="middle" x="61.5" y="-81.5" font-family="Helvetica,sans-Serif" font-size="10.00"> </text>
<polyline fill="none" stroke="black" points="14,-74.5 109,-74.5 "/>
<text text-anchor="start" x="22" y="-62.5" font-family="Helvetica,sans-Serif" font-size="10.00">+ FloppyDisk()</text>
<text text-anchor="start" x="22" y="-51.5" font-family="Helvetica,sans-Serif" font-size="10.00">+ name()</text>
<text text-anchor="start" x="22" y="-40.5" font-family="Helvetica,sans-Serif" font-size="10.00">+ price()</text>
<text text-anchor="start" x="22" y="-29.5" font-family="Helvetica,sans-Serif" font-size="10.00">+ price()</text>
<text text-anchor="start" x="22" y="-18.5" font-family="Helvetica,sans-Serif" font-size="10.00">+ GetBoxPrice()</text>
<text text-anchor="start" x="22" y="-7.5" font-family="Helvetica,sans-Serif" font-size="10.00">+ Accept()</text>
</a>
</g>
</g>
<!-- Node1&#45;&gt;Node2 -->
<g id="edge1" class="edge"><title>Node1&#45;&gt;Node2</title>
<path fill="none" stroke="midnightblue" d="M61.5,-150.144C61.5,-141.528 61.5,-132.465 61.5,-123.574"/>
<polygon fill="none" stroke="midnightblue" points="58.0001,-150.392 61.5,-160.392 65.0001,-150.392 58.0001,-150.392"/>
</g>
</g>
</svg>
