<?xml version="1.0" encoding="UTF-8" standalone="no"?>
<!DOCTYPE svg PUBLIC "-//W3C//DTD SVG 1.1//EN"
 "http://www.w3.org/Graphics/SVG/1.1/DTD/svg11.dtd">
<!-- Generated by graphviz version 2.38.0 (20140413.2041)
 -->
<!-- Title: src/structural/src/facade/risc_code_generator.h Pages: 1 -->
<svg width="280pt" height="106pt"
 viewBox="0.00 0.00 279.50 106.00" xmlns="http://www.w3.org/2000/svg" xmlns:xlink="http://www.w3.org/1999/xlink">
<g id="graph0" class="graph" transform="scale(1 1) rotate(0) translate(4 102)">
<title>src/structural/src/facade/risc_code_generator.h</title>
<polygon fill="white" stroke="none" points="-4,4 -4,-102 275.5,-102 275.5,4 -4,4"/>
<!-- Node1 -->
<g id="node1" class="node"><title>Node1</title>
<polygon fill="#bfbfbf" stroke="black" points="49,-67.5 49,-97.5 196,-97.5 196,-67.5 49,-67.5"/>
<text text-anchor="start" x="57" y="-85.5" font-family="Helvetica,sans-Serif" font-size="10.00">src/structural/src</text>
<text text-anchor="middle" x="122.5" y="-74.5" font-family="Helvetica,sans-Serif" font-size="10.00">/facade/risc_code_generator.h</text>
</g>
<!-- Node2 -->
<g id="node2" class="node"><title>Node2</title>
<g id="a_node2"><a xlink:href="../../da/dc6/compiler_8cc.html" target="_top" xlink:title="src/structural/src\l/facade/compiler.cc">
<polygon fill="white" stroke="black" points="0,-0.5 0,-30.5 101,-30.5 101,-0.5 0,-0.5"/>
<text text-anchor="start" x="8" y="-18.5" font-family="Helvetica,sans-Serif" font-size="10.00">src/structural/src</text>
<text text-anchor="middle" x="50.5" y="-7.5" font-family="Helvetica,sans-Serif" font-size="10.00">/facade/compiler.cc</text>
</a>
</g>
</g>
<!-- Node1&#45;&gt;Node2 -->
<g id="edge1" class="edge"><title>Node1&#45;&gt;Node2</title>
<path fill="none" stroke="midnightblue" d="M99.3468,-60.5978C88.4751,-50.7831 75.8043,-39.3442 66.0924,-30.5765"/>
<polygon fill="midnightblue" stroke="midnightblue" points="97.109,-63.2929 106.877,-67.396 101.8,-58.097 97.109,-63.2929"/>
</g>
<!-- Node3 -->
<g id="node3" class="node"><title>Node3</title>
<g id="a_node3"><a xlink:href="../../d1/d9d/risc__code__generator_8cc.html" target="_top" xlink:title="src/structural/src\l/facade/risc_code_generator.cc">
<polygon fill="white" stroke="black" points="119.5,-0.5 119.5,-30.5 271.5,-30.5 271.5,-0.5 119.5,-0.5"/>
<text text-anchor="start" x="127.5" y="-18.5" font-family="Helvetica,sans-Serif" font-size="10.00">src/structural/src</text>
<text text-anchor="middle" x="195.5" y="-7.5" font-family="Helvetica,sans-Serif" font-size="10.00">/facade/risc_code_generator.cc</text>
</a>
</g>
</g>
<!-- Node1&#45;&gt;Node3 -->
<g id="edge2" class="edge"><title>Node1&#45;&gt;Node3</title>
<path fill="none" stroke="midnightblue" d="M145.975,-60.5978C156.997,-50.7831 169.844,-39.3442 179.691,-30.5765"/>
<polygon fill="midnightblue" stroke="midnightblue" points="143.481,-58.132 138.34,-67.396 148.136,-63.3599 143.481,-58.132"/>
</g>
</g>
</svg>
