<?xml version="1.0" encoding="UTF-8" standalone="no"?>
<!DOCTYPE svg PUBLIC "-//W3C//DTD SVG 1.1//EN"
 "http://www.w3.org/Graphics/SVG/1.1/DTD/svg11.dtd">
<!-- Generated by graphviz version 2.38.0 (20140413.2041)
 -->
<!-- Title: operational::chain::Application::HandleHelp Pages: 1 -->
<svg width="283pt" height="100pt"
 viewBox="0.00 0.00 283.00 99.50" xmlns="http://www.w3.org/2000/svg" xmlns:xlink="http://www.w3.org/1999/xlink">
<g id="graph0" class="graph" transform="scale(1 1) rotate(0) translate(4 95.5)">
<title>operational::chain::Application::HandleHelp</title>
<polygon fill="white" stroke="none" points="-4,4 -4,-95.5 279,-95.5 279,4 -4,4"/>
<!-- Node1 -->
<g id="node1" class="node"><title>Node1</title>
<polygon fill="#bfbfbf" stroke="black" points="0,-33 0,-63 126,-63 126,-33 0,-33"/>
<text text-anchor="start" x="8" y="-51" font-family="Helvetica,sans-Serif" font-size="10.00">operational::chain</text>
<text text-anchor="middle" x="63" y="-40" font-family="Helvetica,sans-Serif" font-size="10.00">::Application::HandleHelp</text>
</g>
<!-- Node2 -->
<g id="node2" class="node"><title>Node2</title>
<g id="a_node2"><a xlink:href="../../dc/d00/classoperational_1_1chain_1_1_application.html#ac3a44a2e989d4bb8820c8af92f9d1e6d" target="_top" xlink:title="operational::chain\l::Application::HasHelp">
<polygon fill="white" stroke="black" points="162,-61 162,-91 275,-91 275,-61 162,-61"/>
<text text-anchor="start" x="170" y="-79" font-family="Helvetica,sans-Serif" font-size="10.00">operational::chain</text>
<text text-anchor="middle" x="218.5" y="-68" font-family="Helvetica,sans-Serif" font-size="10.00">::Application::HasHelp</text>
</a>
</g>
</g>
<!-- Node1&#45;&gt;Node2 -->
<g id="edge1" class="edge"><title>Node1&#45;&gt;Node2</title>
<path fill="none" stroke="midnightblue" d="M126.434,-59.3887C134.696,-60.8956 143.186,-62.4444 151.505,-63.9619"/>
<polygon fill="midnightblue" stroke="midnightblue" points="151.074,-67.4409 161.54,-65.7923 152.331,-60.5546 151.074,-67.4409"/>
</g>
<!-- Node3 -->
<g id="node3" class="node"><title>Node3</title>
<g id="a_node3"><a xlink:href="../../df/dcd/classoperational_1_1chain_1_1_help_handler_interface.html#a297c6b35a5f78502a636714fe48f62ca" target="_top" xlink:title="operational::chain\l::HelpHandlerInterface\l::HandleHelp">
<polygon fill="white" stroke="black" points="162.5,-0.5 162.5,-41.5 274.5,-41.5 274.5,-0.5 162.5,-0.5"/>
<text text-anchor="start" x="170.5" y="-29.5" font-family="Helvetica,sans-Serif" font-size="10.00">operational::chain</text>
<text text-anchor="start" x="170.5" y="-18.5" font-family="Helvetica,sans-Serif" font-size="10.00">::HelpHandlerInterface</text>
<text text-anchor="middle" x="218.5" y="-7.5" font-family="Helvetica,sans-Serif" font-size="10.00">::HandleHelp</text>
</a>
</g>
</g>
<!-- Node1&#45;&gt;Node3 -->
<g id="edge2" class="edge"><title>Node1&#45;&gt;Node3</title>
<path fill="none" stroke="midnightblue" d="M126.434,-37.0181C134.906,-35.528 143.618,-33.9954 152.14,-32.4966"/>
<polygon fill="midnightblue" stroke="midnightblue" points="152.786,-35.9367 162.029,-30.7572 151.574,-29.0425 152.786,-35.9367"/>
</g>
</g>
</svg>
