<?xml version="1.0" encoding="UTF-8" standalone="no"?>
<!DOCTYPE svg PUBLIC "-//W3C//DTD SVG 1.1//EN"
 "http://www.w3.org/Graphics/SVG/1.1/DTD/svg11.dtd">
<!-- Generated by graphviz version 2.38.0 (20140413.2041)
 -->
<!-- Title: operational::chain::Application::topic Pages: 1 -->
<svg width="267pt" height="88pt"
 viewBox="0.00 0.00 267.00 88.00" xmlns="http://www.w3.org/2000/svg" xmlns:xlink="http://www.w3.org/1999/xlink">
<g id="graph0" class="graph" transform="scale(1 1) rotate(0) translate(4 84)">
<title>operational::chain::Application::topic</title>
<polygon fill="white" stroke="none" points="-4,4 -4,-84 263,-84 263,4 -4,4"/>
<!-- Node1 -->
<g id="node1" class="node"><title>Node1</title>
<polygon fill="#bfbfbf" stroke="black" points="0,-24.5 0,-54.5 98,-54.5 98,-24.5 0,-24.5"/>
<text text-anchor="start" x="8" y="-42.5" font-family="Helvetica,sans-Serif" font-size="10.00">operational::chain</text>
<text text-anchor="middle" x="49" y="-31.5" font-family="Helvetica,sans-Serif" font-size="10.00">::Application::topic</text>
</g>
<!-- Node2 -->
<g id="node2" class="node"><title>Node2</title>
<g id="a_node2"><a xlink:href="../../dc/d00/classoperational_1_1chain_1_1_application.html#ac5c322f9482f5c6d94ef547cadbf1634" target="_top" xlink:title="operational::chain\l::Application::Application">
<polygon fill="white" stroke="black" points="134,-49.5 134,-79.5 259,-79.5 259,-49.5 134,-49.5"/>
<text text-anchor="start" x="142" y="-67.5" font-family="Helvetica,sans-Serif" font-size="10.00">operational::chain</text>
<text text-anchor="middle" x="196.5" y="-56.5" font-family="Helvetica,sans-Serif" font-size="10.00">::Application::Application</text>
</a>
</g>
</g>
<!-- Node1&#45;&gt;Node2 -->
<g id="edge1" class="edge"><title>Node1&#45;&gt;Node2</title>
<path fill="none" stroke="midnightblue" d="M108.15,-49.4915C116.572,-50.9384 125.265,-52.4321 133.754,-53.8907"/>
<polygon fill="midnightblue" stroke="midnightblue" points="108.494,-45.9992 98.0454,-47.7552 107.308,-52.8982 108.494,-45.9992"/>
</g>
<!-- Node3 -->
<g id="node3" class="node"><title>Node3</title>
<g id="a_node3"><a xlink:href="../../dc/d00/classoperational_1_1chain_1_1_application.html#a5cdb279a87c4cb1898d7a12afb16ed79" target="_top" xlink:title="operational::chain\l::Application::SetHandler">
<polygon fill="white" stroke="black" points="134,-0.5 134,-30.5 259,-30.5 259,-0.5 134,-0.5"/>
<text text-anchor="start" x="142" y="-18.5" font-family="Helvetica,sans-Serif" font-size="10.00">operational::chain</text>
<text text-anchor="middle" x="196.5" y="-7.5" font-family="Helvetica,sans-Serif" font-size="10.00">::Application::SetHandler</text>
</a>
</g>
</g>
<!-- Node1&#45;&gt;Node3 -->
<g id="edge2" class="edge"><title>Node1&#45;&gt;Node3</title>
<path fill="none" stroke="midnightblue" d="M108.15,-29.9082C116.572,-28.5191 125.265,-27.0852 133.754,-25.685"/>
<polygon fill="midnightblue" stroke="midnightblue" points="107.342,-26.4941 98.0454,-31.575 108.482,-33.4008 107.342,-26.4941"/>
</g>
</g>
</svg>
