<?xml version="1.0" encoding="UTF-8" standalone="no"?>
<!DOCTYPE svg PUBLIC "-//W3C//DTD SVG 1.1//EN"
 "http://www.w3.org/Graphics/SVG/1.1/DTD/svg11.dtd">
<!-- Generated by graphviz version 2.38.0 (20140413.2041)
 -->
<!-- Title: structural::facade::VariableNodeInterface Pages: 1 -->
<svg width="140pt" height="259pt"
 viewBox="0.00 0.00 140.00 259.00" xmlns="http://www.w3.org/2000/svg" xmlns:xlink="http://www.w3.org/1999/xlink">
<g id="graph0" class="graph" transform="scale(1 1) rotate(0) translate(4 255)">
<title>structural::facade::VariableNodeInterface</title>
<polygon fill="white" stroke="none" points="-4,4 -4,-255 136,-255 136,4 -4,4"/>
<!-- Node1 -->
<g id="node1" class="node"><title>Node1</title>
<polygon fill="#bfbfbf" stroke="black" points="0,-171.5 0,-250.5 132,-250.5 132,-171.5 0,-171.5"/>
<text text-anchor="start" x="8" y="-238.5" font-family="Helvetica,sans-Serif" font-size="10.00">structural::facade</text>
<text text-anchor="middle" x="66" y="-227.5" font-family="Helvetica,sans-Serif" font-size="10.00">::VariableNodeInterface</text>
<polyline fill="none" stroke="black" points="0,-220.5 132,-220.5 "/>
<text text-anchor="middle" x="66" y="-208.5" font-family="Helvetica,sans-Serif" font-size="10.00"> </text>
<polyline fill="none" stroke="black" points="0,-201.5 132,-201.5 "/>
<text text-anchor="start" x="8" y="-189.5" font-family="Helvetica,sans-Serif" font-size="10.00">+ ~VariableNodeInterface()</text>
<text text-anchor="start" x="8" y="-178.5" font-family="Helvetica,sans-Serif" font-size="10.00">+ name()</text>
</g>
<!-- Node2 -->
<g id="node2" class="node"><title>Node2</title>
<g id="a_node2"><a xlink:href="../../d7/dc1/classstructural_1_1facade_1_1_variable_node.html" target="_top" xlink:title="{structural::facade\l::VariableNode\n|# children_\l# name_\l|+ VariableNode()\l+ GetSourcePosition()\l+ Add()\l+ Remove()\l+ Traverse()\l+ name()\l}">
<polygon fill="white" stroke="black" points="9.5,-0.5 9.5,-134.5 122.5,-134.5 122.5,-0.5 9.5,-0.5"/>
<text text-anchor="start" x="17.5" y="-122.5" font-family="Helvetica,sans-Serif" font-size="10.00">structural::facade</text>
<text text-anchor="middle" x="66" y="-111.5" font-family="Helvetica,sans-Serif" font-size="10.00">::VariableNode</text>
<polyline fill="none" stroke="black" points="9.5,-104.5 122.5,-104.5 "/>
<text text-anchor="start" x="17.5" y="-92.5" font-family="Helvetica,sans-Serif" font-size="10.00"># children_</text>
<text text-anchor="start" x="17.5" y="-81.5" font-family="Helvetica,sans-Serif" font-size="10.00"># name_</text>
<polyline fill="none" stroke="black" points="9.5,-74.5 122.5,-74.5 "/>
<text text-anchor="start" x="17.5" y="-62.5" font-family="Helvetica,sans-Serif" font-size="10.00">+ VariableNode()</text>
<text text-anchor="start" x="17.5" y="-51.5" font-family="Helvetica,sans-Serif" font-size="10.00">+ GetSourcePosition()</text>
<text text-anchor="start" x="17.5" y="-40.5" font-family="Helvetica,sans-Serif" font-size="10.00">+ Add()</text>
<text text-anchor="start" x="17.5" y="-29.5" font-family="Helvetica,sans-Serif" font-size="10.00">+ Remove()</text>
<text text-anchor="start" x="17.5" y="-18.5" font-family="Helvetica,sans-Serif" font-size="10.00">+ Traverse()</text>
<text text-anchor="start" x="17.5" y="-7.5" font-family="Helvetica,sans-Serif" font-size="10.00">+ name()</text>
</a>
</g>
</g>
<!-- Node1&#45;&gt;Node2 -->
<g id="edge1" class="edge"><title>Node1&#45;&gt;Node2</title>
<path fill="none" stroke="midnightblue" d="M66,-161.158C66,-152.59 66,-143.546 66,-134.602"/>
<polygon fill="none" stroke="midnightblue" points="62.5001,-161.334 66,-171.335 69.5001,-161.335 62.5001,-161.334"/>
</g>
</g>
</svg>
