<?xml version="1.0" encoding="UTF-8" standalone="no"?>
<!DOCTYPE svg PUBLIC "-//W3C//DTD SVG 1.1//EN"
 "http://www.w3.org/Graphics/SVG/1.1/DTD/svg11.dtd">
<!-- Generated by graphviz version 2.38.0 (20140413.2041)
 -->
<!-- Title: structural::facade::VariableNode Pages: 1 -->
<svg width="292pt" height="292pt"
 viewBox="0.00 0.00 292.00 292.00" xmlns="http://www.w3.org/2000/svg" xmlns:xlink="http://www.w3.org/1999/xlink">
<g id="graph0" class="graph" transform="scale(1 1) rotate(0) translate(4 288)">
<title>structural::facade::VariableNode</title>
<polygon fill="white" stroke="none" points="-4,4 -4,-288 288,-288 288,4 -4,4"/>
<!-- Node1 -->
<g id="node1" class="node"><title>Node1</title>
<polygon fill="#bfbfbf" stroke="black" points="85.5,-0.5 85.5,-134.5 198.5,-134.5 198.5,-0.5 85.5,-0.5"/>
<text text-anchor="start" x="93.5" y="-122.5" font-family="Helvetica,sans-Serif" font-size="10.00">structural::facade</text>
<text text-anchor="middle" x="142" y="-111.5" font-family="Helvetica,sans-Serif" font-size="10.00">::VariableNode</text>
<polyline fill="none" stroke="black" points="85.5,-104.5 198.5,-104.5 "/>
<text text-anchor="start" x="93.5" y="-92.5" font-family="Helvetica,sans-Serif" font-size="10.00"># children_</text>
<text text-anchor="start" x="93.5" y="-81.5" font-family="Helvetica,sans-Serif" font-size="10.00"># name_</text>
<polyline fill="none" stroke="black" points="85.5,-74.5 198.5,-74.5 "/>
<text text-anchor="start" x="93.5" y="-62.5" font-family="Helvetica,sans-Serif" font-size="10.00">+ VariableNode()</text>
<text text-anchor="start" x="93.5" y="-51.5" font-family="Helvetica,sans-Serif" font-size="10.00">+ GetSourcePosition()</text>
<text text-anchor="start" x="93.5" y="-40.5" font-family="Helvetica,sans-Serif" font-size="10.00">+ Add()</text>
<text text-anchor="start" x="93.5" y="-29.5" font-family="Helvetica,sans-Serif" font-size="10.00">+ Remove()</text>
<text text-anchor="start" x="93.5" y="-18.5" font-family="Helvetica,sans-Serif" font-size="10.00">+ Traverse()</text>
<text text-anchor="start" x="93.5" y="-7.5" font-family="Helvetica,sans-Serif" font-size="10.00">+ name()</text>
</g>
<!-- Node2 -->
<g id="node2" class="node"><title>Node2</title>
<g id="a_node2"><a xlink:href="../../d9/d8e/classstructural_1_1facade_1_1_program_node_interface.html" target="_top" xlink:title="{structural::facade\l::ProgramNodeInterface\n||+ ~ProgramNodeInterface()\l+ GetSourcePosition()\l+ Add()\l+ Remove()\l+ Traverse()\l}">
<polygon fill="white" stroke="black" points="0,-171.5 0,-283.5 134,-283.5 134,-171.5 0,-171.5"/>
<text text-anchor="start" x="8" y="-271.5" font-family="Helvetica,sans-Serif" font-size="10.00">structural::facade</text>
<text text-anchor="middle" x="67" y="-260.5" font-family="Helvetica,sans-Serif" font-size="10.00">::ProgramNodeInterface</text>
<polyline fill="none" stroke="black" points="0,-253.5 134,-253.5 "/>
<text text-anchor="middle" x="67" y="-241.5" font-family="Helvetica,sans-Serif" font-size="10.00"> </text>
<polyline fill="none" stroke="black" points="0,-234.5 134,-234.5 "/>
<text text-anchor="start" x="8" y="-222.5" font-family="Helvetica,sans-Serif" font-size="10.00">+ ~ProgramNodeInterface()</text>
<text text-anchor="start" x="8" y="-211.5" font-family="Helvetica,sans-Serif" font-size="10.00">+ GetSourcePosition()</text>
<text text-anchor="start" x="8" y="-200.5" font-family="Helvetica,sans-Serif" font-size="10.00">+ Add()</text>
<text text-anchor="start" x="8" y="-189.5" font-family="Helvetica,sans-Serif" font-size="10.00">+ Remove()</text>
<text text-anchor="start" x="8" y="-178.5" font-family="Helvetica,sans-Serif" font-size="10.00">+ Traverse()</text>
</a>
</g>
</g>
<!-- Node2&#45;&gt;Node1 -->
<g id="edge1" class="edge"><title>Node2&#45;&gt;Node1</title>
<path fill="none" stroke="midnightblue" d="M97.641,-161.95C101.925,-152.925 106.332,-143.64 110.63,-134.587"/>
<polygon fill="none" stroke="midnightblue" points="94.3578,-160.704 93.2314,-171.239 100.682,-163.706 94.3578,-160.704"/>
</g>
<!-- Node3 -->
<g id="node3" class="node"><title>Node3</title>
<g id="a_node3"><a xlink:href="../../d7/df7/classstructural_1_1facade_1_1_variable_node_interface.html" target="_top" xlink:title="{structural::facade\l::VariableNodeInterface\n||+ ~VariableNodeInterface()\l+ name()\l}">
<polygon fill="white" stroke="black" points="152,-188 152,-267 284,-267 284,-188 152,-188"/>
<text text-anchor="start" x="160" y="-255" font-family="Helvetica,sans-Serif" font-size="10.00">structural::facade</text>
<text text-anchor="middle" x="218" y="-244" font-family="Helvetica,sans-Serif" font-size="10.00">::VariableNodeInterface</text>
<polyline fill="none" stroke="black" points="152,-237 284,-237 "/>
<text text-anchor="middle" x="218" y="-225" font-family="Helvetica,sans-Serif" font-size="10.00"> </text>
<polyline fill="none" stroke="black" points="152,-218 284,-218 "/>
<text text-anchor="start" x="160" y="-206" font-family="Helvetica,sans-Serif" font-size="10.00">+ ~VariableNodeInterface()</text>
<text text-anchor="start" x="160" y="-195" font-family="Helvetica,sans-Serif" font-size="10.00">+ name()</text>
</a>
</g>
</g>
<!-- Node3&#45;&gt;Node1 -->
<g id="edge2" class="edge"><title>Node3&#45;&gt;Node1</title>
<path fill="none" stroke="midnightblue" d="M194.942,-178.564C188.306,-164.768 180.947,-149.468 173.878,-134.772"/>
<polygon fill="none" stroke="midnightblue" points="191.919,-180.354 199.408,-187.849 198.228,-177.32 191.919,-180.354"/>
</g>
</g>
</svg>
