<?xml version="1.0" encoding="UTF-8" standalone="no"?>
<!DOCTYPE svg PUBLIC "-//W3C//DTD SVG 1.1//EN"
 "http://www.w3.org/Graphics/SVG/1.1/DTD/svg11.dtd">
<!-- Generated by graphviz version 2.38.0 (20140413.2041)
 -->
<!-- Title: src/structural/src/decorator/file_stream.cc Pages: 1 -->
<svg width="163pt" height="207pt"
 viewBox="0.00 0.00 162.50 207.00" xmlns="http://www.w3.org/2000/svg" xmlns:xlink="http://www.w3.org/1999/xlink">
<g id="graph0" class="graph" transform="scale(1 1) rotate(0) translate(4 203)">
<title>src/structural/src/decorator/file_stream.cc</title>
<polygon fill="white" stroke="none" points="-4,4 -4,-203 158.5,-203 158.5,4 -4,4"/>
<!-- Node1 -->
<g id="node1" class="node"><title>Node1</title>
<polygon fill="#bfbfbf" stroke="black" points="26.5,-168.5 26.5,-198.5 150.5,-198.5 150.5,-168.5 26.5,-168.5"/>
<text text-anchor="start" x="34.5" y="-186.5" font-family="Helvetica,sans-Serif" font-size="10.00">src/structural/src</text>
<text text-anchor="middle" x="88.5" y="-175.5" font-family="Helvetica,sans-Serif" font-size="10.00">/decorator/file_stream.cc</text>
</g>
<!-- Node2 -->
<g id="node2" class="node"><title>Node2</title>
<g id="a_node2"><a xlink:href="../../d2/d70/file__stream_8h.html" target="_top" xlink:title="file_stream.h">
<polygon fill="white" stroke="black" points="12.5,-112.5 12.5,-131.5 84.5,-131.5 84.5,-112.5 12.5,-112.5"/>
<text text-anchor="middle" x="48.5" y="-119.5" font-family="Helvetica,sans-Serif" font-size="10.00">file_stream.h</text>
</a>
</g>
</g>
<!-- Node1&#45;&gt;Node2 -->
<g id="edge1" class="edge"><title>Node1&#45;&gt;Node2</title>
<path fill="none" stroke="midnightblue" d="M79.0206,-168.399C73.3279,-159.932 66.0456,-149.099 60.0222,-140.139"/>
<polygon fill="midnightblue" stroke="midnightblue" points="62.8042,-138.004 54.3204,-131.658 56.9949,-141.909 62.8042,-138.004"/>
</g>
<!-- Node5 -->
<g id="node5" class="node"><title>Node5</title>
<polygon fill="white" stroke="#bfbfbf" points="102.5,-112.5 102.5,-131.5 154.5,-131.5 154.5,-112.5 102.5,-112.5"/>
<text text-anchor="middle" x="128.5" y="-119.5" font-family="Helvetica,sans-Serif" font-size="10.00">sstream</text>
</g>
<!-- Node1&#45;&gt;Node5 -->
<g id="edge4" class="edge"><title>Node1&#45;&gt;Node5</title>
<path fill="none" stroke="midnightblue" d="M97.9794,-168.399C103.672,-159.932 110.954,-149.099 116.978,-140.139"/>
<polygon fill="midnightblue" stroke="midnightblue" points="120.005,-141.909 122.68,-131.658 114.196,-138.004 120.005,-141.909"/>
</g>
<!-- Node3 -->
<g id="node3" class="node"><title>Node3</title>
<g id="a_node3"><a xlink:href="../../d3/d9f/stream__interface_8h.html" target="_top" xlink:title="stream_interface.h">
<polygon fill="white" stroke="black" points="0,-56.5 0,-75.5 97,-75.5 97,-56.5 0,-56.5"/>
<text text-anchor="middle" x="48.5" y="-63.5" font-family="Helvetica,sans-Serif" font-size="10.00">stream_interface.h</text>
</a>
</g>
</g>
<!-- Node2&#45;&gt;Node3 -->
<g id="edge2" class="edge"><title>Node2&#45;&gt;Node3</title>
<path fill="none" stroke="midnightblue" d="M48.5,-112.083C48.5,-105.006 48.5,-94.8611 48.5,-85.9865"/>
<polygon fill="midnightblue" stroke="midnightblue" points="52.0001,-85.751 48.5,-75.7511 45.0001,-85.7511 52.0001,-85.751"/>
</g>
<!-- Node4 -->
<g id="node4" class="node"><title>Node4</title>
<polygon fill="white" stroke="#bfbfbf" points="28,-0.5 28,-19.5 69,-19.5 69,-0.5 28,-0.5"/>
<text text-anchor="middle" x="48.5" y="-7.5" font-family="Helvetica,sans-Serif" font-size="10.00">string</text>
</g>
<!-- Node3&#45;&gt;Node4 -->
<g id="edge3" class="edge"><title>Node3&#45;&gt;Node4</title>
<path fill="none" stroke="midnightblue" d="M48.5,-56.083C48.5,-49.0059 48.5,-38.8611 48.5,-29.9865"/>
<polygon fill="midnightblue" stroke="midnightblue" points="52.0001,-29.751 48.5,-19.7511 45.0001,-29.7511 52.0001,-29.751"/>
</g>
</g>
</svg>
