<?xml version="1.0" encoding="UTF-8" standalone="no"?>
<!DOCTYPE svg PUBLIC "-//W3C//DTD SVG 1.1//EN"
 "http://www.w3.org/Graphics/SVG/1.1/DTD/svg11.dtd">
<!-- Generated by graphviz version 2.38.0 (20140413.2041)
 -->
<!-- Title: src/structural/src/flyweight/glyph_factory.h Pages: 1 -->
<svg width="277pt" height="442pt"
 viewBox="0.00 0.00 277.00 442.00" xmlns="http://www.w3.org/2000/svg" xmlns:xlink="http://www.w3.org/1999/xlink">
<g id="graph0" class="graph" transform="scale(1 1) rotate(0) translate(4 438)">
<title>src/structural/src/flyweight/glyph_factory.h</title>
<polygon fill="white" stroke="none" points="-4,4 -4,-438 273,-438 273,4 -4,4"/>
<!-- Node1 -->
<g id="node1" class="node"><title>Node1</title>
<polygon fill="#bfbfbf" stroke="black" points="40.5,-403.5 40.5,-433.5 166.5,-433.5 166.5,-403.5 40.5,-403.5"/>
<text text-anchor="start" x="48.5" y="-421.5" font-family="Helvetica,sans-Serif" font-size="10.00">src/structural/src</text>
<text text-anchor="middle" x="103.5" y="-410.5" font-family="Helvetica,sans-Serif" font-size="10.00">/flyweight/glyph_factory.h</text>
</g>
<!-- Node2 -->
<g id="node2" class="node"><title>Node2</title>
<g id="a_node2"><a xlink:href="../../dc/d26/character_8h.html" target="_top" xlink:title="character.h">
<polygon fill="white" stroke="black" points="0,-347.5 0,-366.5 65,-366.5 65,-347.5 0,-347.5"/>
<text text-anchor="middle" x="32.5" y="-354.5" font-family="Helvetica,sans-Serif" font-size="10.00">character.h</text>
</a>
</g>
</g>
<!-- Node1&#45;&gt;Node2 -->
<g id="edge1" class="edge"><title>Node1&#45;&gt;Node2</title>
<path fill="none" stroke="midnightblue" d="M86.674,-403.399C75.825,-394.308 61.7233,-382.49 50.627,-373.191"/>
<polygon fill="midnightblue" stroke="midnightblue" points="52.7437,-370.398 42.8311,-366.658 48.2476,-375.763 52.7437,-370.398"/>
</g>
<!-- Node13 -->
<g id="node13" class="node"><title>Node13</title>
<g id="a_node13"><a xlink:href="../../dc/df8/column_8h.html" target="_top" xlink:title="column.h">
<polygon fill="white" stroke="black" points="141.5,-347.5 141.5,-366.5 197.5,-366.5 197.5,-347.5 141.5,-347.5"/>
<text text-anchor="middle" x="169.5" y="-354.5" font-family="Helvetica,sans-Serif" font-size="10.00">column.h</text>
</a>
</g>
</g>
<!-- Node1&#45;&gt;Node13 -->
<g id="edge14" class="edge"><title>Node1&#45;&gt;Node13</title>
<path fill="none" stroke="midnightblue" d="M119.141,-403.399C129.127,-394.397 142.078,-382.721 152.345,-373.465"/>
<polygon fill="midnightblue" stroke="midnightblue" points="154.813,-375.953 159.896,-366.658 150.125,-370.754 154.813,-375.953"/>
</g>
<!-- Node14 -->
<g id="node14" class="node"><title>Node14</title>
<g id="a_node14"><a xlink:href="../../d4/d6d/row_8h.html" target="_top" xlink:title="row.h">
<polygon fill="white" stroke="black" points="83.5,-347.5 83.5,-366.5 123.5,-366.5 123.5,-347.5 83.5,-347.5"/>
<text text-anchor="middle" x="103.5" y="-354.5" font-family="Helvetica,sans-Serif" font-size="10.00">row.h</text>
</a>
</g>
</g>
<!-- Node1&#45;&gt;Node14 -->
<g id="edge18" class="edge"><title>Node1&#45;&gt;Node14</title>
<path fill="none" stroke="midnightblue" d="M103.5,-403.399C103.5,-395.466 103.5,-385.458 103.5,-376.858"/>
<polygon fill="midnightblue" stroke="midnightblue" points="107,-376.658 103.5,-366.658 100,-376.658 107,-376.658"/>
</g>
<!-- Node3 -->
<g id="node3" class="node"><title>Node3</title>
<g id="a_node3"><a xlink:href="../../df/d3c/glyph__interface_8h.html" target="_top" xlink:title="glyph_interface.h">
<polygon fill="white" stroke="black" points="51.5,-291.5 51.5,-310.5 141.5,-310.5 141.5,-291.5 51.5,-291.5"/>
<text text-anchor="middle" x="96.5" y="-298.5" font-family="Helvetica,sans-Serif" font-size="10.00">glyph_interface.h</text>
</a>
</g>
</g>
<!-- Node2&#45;&gt;Node3 -->
<g id="edge2" class="edge"><title>Node2&#45;&gt;Node3</title>
<path fill="none" stroke="midnightblue" d="M42.7827,-347.324C52.3363,-339.263 66.7797,-327.077 78.2843,-317.369"/>
<polygon fill="midnightblue" stroke="midnightblue" points="80.6443,-319.958 86.0302,-310.834 76.1302,-314.608 80.6443,-319.958"/>
</g>
<!-- Node4 -->
<g id="node4" class="node"><title>Node4</title>
<g id="a_node4"><a xlink:href="../../d2/d07/flyweight_2window_8h.html" target="_top" xlink:title="window.h">
<polygon fill="white" stroke="black" points="179.5,-235.5 179.5,-254.5 235.5,-254.5 235.5,-235.5 179.5,-235.5"/>
<text text-anchor="middle" x="207.5" y="-242.5" font-family="Helvetica,sans-Serif" font-size="10.00">window.h</text>
</a>
</g>
</g>
<!-- Node3&#45;&gt;Node4 -->
<g id="edge3" class="edge"><title>Node3&#45;&gt;Node4</title>
<path fill="none" stroke="midnightblue" d="M114.334,-291.324C132.216,-282.625 159.975,-269.12 180.546,-259.113"/>
<polygon fill="midnightblue" stroke="midnightblue" points="182.249,-262.177 189.71,-254.655 179.187,-255.882 182.249,-262.177"/>
</g>
<!-- Node5 -->
<g id="node5" class="node"><title>Node5</title>
<g id="a_node5"><a xlink:href="../../d3/de4/glyph__context_8h.html" target="_top" xlink:title="glyph_context.h">
<polygon fill="white" stroke="black" points="75.5,-235.5 75.5,-254.5 161.5,-254.5 161.5,-235.5 75.5,-235.5"/>
<text text-anchor="middle" x="118.5" y="-242.5" font-family="Helvetica,sans-Serif" font-size="10.00">glyph_context.h</text>
</a>
</g>
</g>
<!-- Node3&#45;&gt;Node5 -->
<g id="edge4" class="edge"><title>Node3&#45;&gt;Node5</title>
<path fill="none" stroke="midnightblue" d="M100.133,-291.083C103.112,-283.77 107.426,-273.181 111.125,-264.103"/>
<polygon fill="midnightblue" stroke="midnightblue" points="114.403,-265.333 114.935,-254.751 107.92,-262.691 114.403,-265.333"/>
</g>
<!-- Node7 -->
<g id="node7" class="node"><title>Node7</title>
<g id="a_node7"><a xlink:href="../../d9/d67/font_8h.html" target="_top" xlink:title="font.h">
<polygon fill="white" stroke="black" points="27,-118 27,-137 68,-137 68,-118 27,-118"/>
<text text-anchor="middle" x="47.5" y="-125" font-family="Helvetica,sans-Serif" font-size="10.00">font.h</text>
</a>
</g>
</g>
<!-- Node3&#45;&gt;Node7 -->
<g id="edge13" class="edge"><title>Node3&#45;&gt;Node7</title>
<path fill="none" stroke="midnightblue" d="M89.0265,-291.35C82.0195,-282.737 71.8445,-268.839 66.5,-255 52.4158,-218.53 48.7172,-172.4 47.7808,-147.141"/>
<polygon fill="midnightblue" stroke="midnightblue" points="51.2789,-147.018 47.5175,-137.113 44.2813,-147.202 51.2789,-147.018"/>
</g>
<!-- Node6 -->
<g id="node6" class="node"><title>Node6</title>
<g id="a_node6"><a xlink:href="../../d9/d13/btree_8h.html" target="_top" xlink:title="btree.h">
<polygon fill="white" stroke="black" points="95,-179.5 95,-198.5 142,-198.5 142,-179.5 95,-179.5"/>
<text text-anchor="middle" x="118.5" y="-186.5" font-family="Helvetica,sans-Serif" font-size="10.00">btree.h</text>
</a>
</g>
</g>
<!-- Node5&#45;&gt;Node6 -->
<g id="edge5" class="edge"><title>Node5&#45;&gt;Node6</title>
<path fill="none" stroke="midnightblue" d="M118.5,-235.083C118.5,-228.006 118.5,-217.861 118.5,-208.986"/>
<polygon fill="midnightblue" stroke="midnightblue" points="122,-208.751 118.5,-198.751 115,-208.751 122,-208.751"/>
</g>
<!-- Node6&#45;&gt;Node7 -->
<g id="edge6" class="edge"><title>Node6&#45;&gt;Node7</title>
<path fill="none" stroke="midnightblue" d="M108.327,-179.475C97.1502,-170.108 78.9833,-154.884 65.4088,-143.508"/>
<polygon fill="midnightblue" stroke="midnightblue" points="67.5663,-140.75 57.6537,-137.009 63.0701,-146.115 67.5663,-140.75"/>
</g>
<!-- Node9 -->
<g id="node9" class="node"><title>Node9</title>
<g id="a_node9"><a xlink:href="../../da/d23/list_8h.html" target="_top" xlink:title="../../../operational\l/src/iterator/list.h">
<polygon fill="white" stroke="black" points="86,-112.5 86,-142.5 177,-142.5 177,-112.5 86,-112.5"/>
<text text-anchor="start" x="94" y="-130.5" font-family="Helvetica,sans-Serif" font-size="10.00">../../../operational</text>
<text text-anchor="middle" x="131.5" y="-119.5" font-family="Helvetica,sans-Serif" font-size="10.00">/src/iterator/list.h</text>
</a>
</g>
</g>
<!-- Node6&#45;&gt;Node9 -->
<g id="edge8" class="edge"><title>Node6&#45;&gt;Node9</title>
<path fill="none" stroke="midnightblue" d="M120.363,-179.475C121.909,-172.396 124.187,-161.97 126.28,-152.39"/>
<polygon fill="midnightblue" stroke="midnightblue" points="129.721,-153.04 128.436,-142.523 122.882,-151.545 129.721,-153.04"/>
</g>
<!-- Node8 -->
<g id="node8" class="node"><title>Node8</title>
<polygon fill="white" stroke="#bfbfbf" points="27,-56.5 27,-75.5 68,-75.5 68,-56.5 27,-56.5"/>
<text text-anchor="middle" x="47.5" y="-63.5" font-family="Helvetica,sans-Serif" font-size="10.00">string</text>
</g>
<!-- Node7&#45;&gt;Node8 -->
<g id="edge7" class="edge"><title>Node7&#45;&gt;Node8</title>
<path fill="none" stroke="midnightblue" d="M47.5,-117.975C47.5,-109.58 47.5,-96.4806 47.5,-85.6631"/>
<polygon fill="midnightblue" stroke="midnightblue" points="51.0001,-85.5091 47.5,-75.5091 44.0001,-85.5091 51.0001,-85.5091"/>
</g>
<!-- Node10 -->
<g id="node10" class="node"><title>Node10</title>
<g id="a_node10"><a xlink:href="../../d9/d71/list__iterator_8h.html" target="_top" xlink:title="list_iterator.h">
<polygon fill="white" stroke="black" points="142,-56.5 142,-75.5 215,-75.5 215,-56.5 142,-56.5"/>
<text text-anchor="middle" x="178.5" y="-63.5" font-family="Helvetica,sans-Serif" font-size="10.00">list_iterator.h</text>
</a>
</g>
</g>
<!-- Node9&#45;&gt;Node10 -->
<g id="edge9" class="edge"><title>Node9&#45;&gt;Node10</title>
<path fill="none" stroke="midnightblue" d="M142.638,-112.399C149.468,-103.753 158.245,-92.642 165.406,-83.576"/>
<polygon fill="midnightblue" stroke="midnightblue" points="168.209,-85.6745 171.661,-75.6578 162.716,-81.3354 168.209,-85.6745"/>
</g>
<!-- Node12 -->
<g id="node12" class="node"><title>Node12</title>
<g id="a_node12"><a xlink:href="../../dd/d8c/list__interface_8h.html" target="_top" xlink:title="list_interface.h">
<polygon fill="white" stroke="black" points="73.5,-0.5 73.5,-19.5 153.5,-19.5 153.5,-0.5 73.5,-0.5"/>
<text text-anchor="middle" x="113.5" y="-7.5" font-family="Helvetica,sans-Serif" font-size="10.00">list_interface.h</text>
</a>
</g>
</g>
<!-- Node9&#45;&gt;Node12 -->
<g id="edge12" class="edge"><title>Node9&#45;&gt;Node12</title>
<path fill="none" stroke="midnightblue" d="M129.293,-112.337C126.05,-91.5271 119.993,-52.6632 116.396,-29.5834"/>
<polygon fill="midnightblue" stroke="midnightblue" points="119.849,-29.0112 114.851,-19.6695 112.933,-30.0892 119.849,-29.0112"/>
</g>
<!-- Node11 -->
<g id="node11" class="node"><title>Node11</title>
<g id="a_node11"><a xlink:href="../../d6/da4/iterator__interface_8h.html" target="_top" xlink:title="iterator_interface.h">
<polygon fill="white" stroke="black" points="172,-0.5 172,-19.5 269,-19.5 269,-0.5 172,-0.5"/>
<text text-anchor="middle" x="220.5" y="-7.5" font-family="Helvetica,sans-Serif" font-size="10.00">iterator_interface.h</text>
</a>
</g>
</g>
<!-- Node10&#45;&gt;Node11 -->
<g id="edge10" class="edge"><title>Node10&#45;&gt;Node11</title>
<path fill="none" stroke="midnightblue" d="M185.435,-56.083C191.429,-48.3768 200.252,-37.0333 207.548,-27.6531"/>
<polygon fill="midnightblue" stroke="midnightblue" points="210.317,-29.7934 213.694,-19.7511 204.791,-25.4958 210.317,-29.7934"/>
</g>
<!-- Node10&#45;&gt;Node12 -->
<g id="edge11" class="edge"><title>Node10&#45;&gt;Node12</title>
<path fill="none" stroke="midnightblue" d="M168.057,-56.324C158.354,-48.2631 143.685,-36.0765 132,-26.3695"/>
<polygon fill="midnightblue" stroke="midnightblue" points="134.062,-23.532 124.133,-19.8339 129.589,-28.9163 134.062,-23.532"/>
</g>
<!-- Node13&#45;&gt;Node3 -->
<g id="edge17" class="edge"><title>Node13&#45;&gt;Node3</title>
<path fill="none" stroke="midnightblue" d="M157.771,-347.324C146.663,-339.107 129.758,-326.602 116.517,-316.807"/>
<polygon fill="midnightblue" stroke="midnightblue" points="118.563,-313.967 108.442,-310.834 114.4,-319.595 118.563,-313.967"/>
</g>
<!-- Node13&#45;&gt;Node4 -->
<g id="edge16" class="edge"><title>Node13&#45;&gt;Node4</title>
<path fill="none" stroke="midnightblue" d="M172.482,-347.368C178.642,-329.537 192.889,-288.295 201.188,-264.272"/>
<polygon fill="midnightblue" stroke="midnightblue" points="204.575,-265.186 204.532,-254.591 197.959,-262.9 204.575,-265.186"/>
</g>
<!-- Node13&#45;&gt;Node5 -->
<g id="edge15" class="edge"><title>Node13&#45;&gt;Node5</title>
<path fill="none" stroke="midnightblue" d="M167.911,-347.251C165.373,-334.442 159.729,-310.044 150.5,-291 145.649,-280.99 138.622,-270.81 132.387,-262.67"/>
<polygon fill="midnightblue" stroke="midnightblue" points="135.042,-260.384 126.074,-254.742 129.566,-264.745 135.042,-260.384"/>
</g>
<!-- Node14&#45;&gt;Node3 -->
<g id="edge19" class="edge"><title>Node14&#45;&gt;Node3</title>
<path fill="none" stroke="midnightblue" d="M102.344,-347.083C101.416,-339.927 100.082,-329.635 98.9229,-320.691"/>
<polygon fill="midnightblue" stroke="midnightblue" points="102.391,-320.218 97.6344,-310.751 95.4491,-321.118 102.391,-320.218"/>
</g>
</g>
</svg>
