<?xml version="1.0" encoding="UTF-8" standalone="no"?>
<!DOCTYPE svg PUBLIC "-//W3C//DTD SVG 1.1//EN"
 "http://www.w3.org/Graphics/SVG/1.1/DTD/svg11.dtd">
<!-- Generated by graphviz version 2.38.0 (20140413.2041)
 -->
<!-- Title: src/structural/src/decorator/compressing_stream.h Pages: 1 -->
<svg width="127pt" height="218pt"
 viewBox="0.00 0.00 127.00 218.00" xmlns="http://www.w3.org/2000/svg" xmlns:xlink="http://www.w3.org/1999/xlink">
<g id="graph0" class="graph" transform="scale(1 1) rotate(0) translate(4 214)">
<title>src/structural/src/decorator/compressing_stream.h</title>
<polygon fill="white" stroke="none" points="-4,4 -4,-214 123,-214 123,4 -4,4"/>
<!-- Node1 -->
<g id="node1" class="node"><title>Node1</title>
<polygon fill="#bfbfbf" stroke="black" points="0,-168.5 0,-209.5 119,-209.5 119,-168.5 0,-168.5"/>
<text text-anchor="start" x="8" y="-197.5" font-family="Helvetica,sans-Serif" font-size="10.00">src/structural/src</text>
<text text-anchor="start" x="8" y="-186.5" font-family="Helvetica,sans-Serif" font-size="10.00">/decorator/compressing</text>
<text text-anchor="middle" x="59.5" y="-175.5" font-family="Helvetica,sans-Serif" font-size="10.00">_stream.h</text>
</g>
<!-- Node2 -->
<g id="node2" class="node"><title>Node2</title>
<g id="a_node2"><a xlink:href="../../d2/dd2/stream__decorator_8h.html" target="_top" xlink:title="stream_decorator.h">
<polygon fill="white" stroke="black" points="9,-112.5 9,-131.5 110,-131.5 110,-112.5 9,-112.5"/>
<text text-anchor="middle" x="59.5" y="-119.5" font-family="Helvetica,sans-Serif" font-size="10.00">stream_decorator.h</text>
</a>
</g>
</g>
<!-- Node1&#45;&gt;Node2 -->
<g id="edge1" class="edge"><title>Node1&#45;&gt;Node2</title>
<path fill="none" stroke="midnightblue" d="M59.5,-168.498C59.5,-160.065 59.5,-150.235 59.5,-141.874"/>
<polygon fill="midnightblue" stroke="midnightblue" points="63.0001,-141.652 59.5,-131.652 56.0001,-141.653 63.0001,-141.652"/>
</g>
<!-- Node3 -->
<g id="node3" class="node"><title>Node3</title>
<g id="a_node3"><a xlink:href="../../d3/d9f/stream__interface_8h.html" target="_top" xlink:title="stream_interface.h">
<polygon fill="white" stroke="black" points="11,-56.5 11,-75.5 108,-75.5 108,-56.5 11,-56.5"/>
<text text-anchor="middle" x="59.5" y="-63.5" font-family="Helvetica,sans-Serif" font-size="10.00">stream_interface.h</text>
</a>
</g>
</g>
<!-- Node2&#45;&gt;Node3 -->
<g id="edge2" class="edge"><title>Node2&#45;&gt;Node3</title>
<path fill="none" stroke="midnightblue" d="M59.5,-112.083C59.5,-105.006 59.5,-94.8611 59.5,-85.9865"/>
<polygon fill="midnightblue" stroke="midnightblue" points="63.0001,-85.751 59.5,-75.7511 56.0001,-85.7511 63.0001,-85.751"/>
</g>
<!-- Node4 -->
<g id="node4" class="node"><title>Node4</title>
<polygon fill="white" stroke="#bfbfbf" points="39,-0.5 39,-19.5 80,-19.5 80,-0.5 39,-0.5"/>
<text text-anchor="middle" x="59.5" y="-7.5" font-family="Helvetica,sans-Serif" font-size="10.00">string</text>
</g>
<!-- Node3&#45;&gt;Node4 -->
<g id="edge3" class="edge"><title>Node3&#45;&gt;Node4</title>
<path fill="none" stroke="midnightblue" d="M59.5,-56.083C59.5,-49.0059 59.5,-38.8611 59.5,-29.9865"/>
<polygon fill="midnightblue" stroke="midnightblue" points="63.0001,-29.751 59.5,-19.7511 56.0001,-29.7511 63.0001,-29.751"/>
</g>
</g>
</svg>
