<?xml version="1.0" encoding="UTF-8" standalone="no"?>
<!DOCTYPE svg PUBLIC "-//W3C//DTD SVG 1.1//EN"
 "http://www.w3.org/Graphics/SVG/1.1/DTD/svg11.dtd">
<!-- Generated by graphviz version 2.38.0 (20140413.2041)
 -->
<!-- Title: src/operational/src/interpreter/interpreter_context_interface.h Pages: 1 -->
<svg width="167pt" height="162pt"
 viewBox="0.00 0.00 167.00 162.00" xmlns="http://www.w3.org/2000/svg" xmlns:xlink="http://www.w3.org/1999/xlink">
<g id="graph0" class="graph" transform="scale(1 1) rotate(0) translate(4 158)">
<title>src/operational/src/interpreter/interpreter_context_interface.h</title>
<polygon fill="white" stroke="none" points="-4,4 -4,-158 163,-158 163,4 -4,4"/>
<!-- Node1 -->
<g id="node1" class="node"><title>Node1</title>
<polygon fill="#bfbfbf" stroke="black" points="49,-112.5 49,-153.5 159,-153.5 159,-112.5 49,-112.5"/>
<text text-anchor="start" x="57" y="-141.5" font-family="Helvetica,sans-Serif" font-size="10.00">src/operational/src</text>
<text text-anchor="start" x="57" y="-130.5" font-family="Helvetica,sans-Serif" font-size="10.00">/interpreter/interpreter</text>
<text text-anchor="middle" x="104" y="-119.5" font-family="Helvetica,sans-Serif" font-size="10.00">_context_interface.h</text>
</g>
<!-- Node2 -->
<g id="node2" class="node"><title>Node2</title>
<g id="a_node2"><a xlink:href="../../d9/df8/variable__exp__interface_8h.html" target="_top" xlink:title="variable_exp_interface.h">
<polygon fill="white" stroke="black" points="0,-56.5 0,-75.5 120,-75.5 120,-56.5 0,-56.5"/>
<text text-anchor="middle" x="60" y="-63.5" font-family="Helvetica,sans-Serif" font-size="10.00">variable_exp_interface.h</text>
</a>
</g>
</g>
<!-- Node1&#45;&gt;Node2 -->
<g id="edge1" class="edge"><title>Node1&#45;&gt;Node2</title>
<path fill="none" stroke="midnightblue" d="M90.7985,-112.498C84.7012,-103.49 77.5242,-92.8881 71.6331,-84.1852"/>
<polygon fill="midnightblue" stroke="midnightblue" points="74.3612,-81.9716 65.8571,-75.6525 68.5644,-85.8956 74.3612,-81.9716"/>
</g>
<!-- Node3 -->
<g id="node3" class="node"><title>Node3</title>
<polygon fill="white" stroke="#bfbfbf" points="83.5,-0.5 83.5,-19.5 124.5,-19.5 124.5,-0.5 83.5,-0.5"/>
<text text-anchor="middle" x="104" y="-7.5" font-family="Helvetica,sans-Serif" font-size="10.00">string</text>
</g>
<!-- Node1&#45;&gt;Node3 -->
<g id="edge3" class="edge"><title>Node1&#45;&gt;Node3</title>
<path fill="none" stroke="midnightblue" d="M117.049,-112.206C125.48,-96.9887 134.017,-75.3621 129,-56 126.454,-46.1752 121.247,-36.2118 116.241,-28.166"/>
<polygon fill="midnightblue" stroke="midnightblue" points="119.08,-26.1143 110.629,-19.7252 113.251,-29.9903 119.08,-26.1143"/>
</g>
<!-- Node2&#45;&gt;Node3 -->
<g id="edge2" class="edge"><title>Node2&#45;&gt;Node3</title>
<path fill="none" stroke="midnightblue" d="M67.2657,-56.083C73.5448,-48.3768 82.7876,-37.0333 90.4308,-27.6531"/>
<polygon fill="midnightblue" stroke="midnightblue" points="93.2661,-29.7143 96.8695,-19.7511 87.8394,-25.2926 93.2661,-29.7143"/>
</g>
</g>
</svg>
