<?xml version="1.0" encoding="UTF-8" standalone="no"?>
<!DOCTYPE svg PUBLIC "-//W3C//DTD SVG 1.1//EN"
 "http://www.w3.org/Graphics/SVG/1.1/DTD/svg11.dtd">
<!-- Generated by graphviz version 2.38.0 (20140413.2041)
 -->
<!-- Title: src/structural/src/facade/scanner.cc Pages: 1 -->
<svg width="240pt" height="207pt"
 viewBox="0.00 0.00 240.00 207.00" xmlns="http://www.w3.org/2000/svg" xmlns:xlink="http://www.w3.org/1999/xlink">
<g id="graph0" class="graph" transform="scale(1 1) rotate(0) translate(4 203)">
<title>src/structural/src/facade/scanner.cc</title>
<polygon fill="white" stroke="none" points="-4,4 -4,-203 236,-203 236,4 -4,4"/>
<!-- Node1 -->
<g id="node1" class="node"><title>Node1</title>
<polygon fill="#bfbfbf" stroke="black" points="107,-168.5 107,-198.5 206,-198.5 206,-168.5 107,-168.5"/>
<text text-anchor="start" x="115" y="-186.5" font-family="Helvetica,sans-Serif" font-size="10.00">src/structural/src</text>
<text text-anchor="middle" x="156.5" y="-175.5" font-family="Helvetica,sans-Serif" font-size="10.00">/facade/scanner.cc</text>
</g>
<!-- Node2 -->
<g id="node2" class="node"><title>Node2</title>
<g id="a_node2"><a xlink:href="../../db/d62/scanner_8h.html" target="_top" xlink:title="scanner.h">
<polygon fill="white" stroke="black" points="66,-112.5 66,-131.5 125,-131.5 125,-112.5 66,-112.5"/>
<text text-anchor="middle" x="95.5" y="-119.5" font-family="Helvetica,sans-Serif" font-size="10.00">scanner.h</text>
</a>
</g>
</g>
<!-- Node1&#45;&gt;Node2 -->
<g id="edge1" class="edge"><title>Node1&#45;&gt;Node2</title>
<path fill="none" stroke="midnightblue" d="M142.044,-168.399C132.906,-159.486 121.081,-147.952 111.638,-138.741"/>
<polygon fill="midnightblue" stroke="midnightblue" points="113.978,-136.135 104.376,-131.658 109.091,-141.146 113.978,-136.135"/>
</g>
<!-- Node6 -->
<g id="node6" class="node"><title>Node6</title>
<polygon fill="white" stroke="#bfbfbf" points="137.5,-56.5 137.5,-75.5 179.5,-75.5 179.5,-56.5 137.5,-56.5"/>
<text text-anchor="middle" x="158.5" y="-63.5" font-family="Helvetica,sans-Serif" font-size="10.00">vector</text>
</g>
<!-- Node1&#45;&gt;Node6 -->
<g id="edge6" class="edge"><title>Node1&#45;&gt;Node6</title>
<path fill="none" stroke="midnightblue" d="M156.745,-168.337C157.104,-147.622 157.772,-109.016 158.173,-85.8991"/>
<polygon fill="midnightblue" stroke="midnightblue" points="161.676,-85.7286 158.35,-75.6695 154.677,-85.6073 161.676,-85.7286"/>
</g>
<!-- Node7 -->
<g id="node7" class="node"><title>Node7</title>
<polygon fill="white" stroke="#bfbfbf" points="185,-112.5 185,-131.5 232,-131.5 232,-112.5 185,-112.5"/>
<text text-anchor="middle" x="208.5" y="-119.5" font-family="Helvetica,sans-Serif" font-size="10.00">iterator</text>
</g>
<!-- Node1&#45;&gt;Node7 -->
<g id="edge7" class="edge"><title>Node1&#45;&gt;Node7</title>
<path fill="none" stroke="midnightblue" d="M168.823,-168.399C176.457,-159.664 186.291,-148.413 194.258,-139.296"/>
<polygon fill="midnightblue" stroke="midnightblue" points="196.988,-141.491 200.934,-131.658 191.718,-136.884 196.988,-141.491"/>
</g>
<!-- Node3 -->
<g id="node3" class="node"><title>Node3</title>
<g id="a_node3"><a xlink:href="../../d1/d07/token_8h.html" target="_top" xlink:title="token.h">
<polygon fill="white" stroke="black" points="0,-56.5 0,-75.5 49,-75.5 49,-56.5 0,-56.5"/>
<text text-anchor="middle" x="24.5" y="-63.5" font-family="Helvetica,sans-Serif" font-size="10.00">token.h</text>
</a>
</g>
</g>
<!-- Node2&#45;&gt;Node3 -->
<g id="edge2" class="edge"><title>Node2&#45;&gt;Node3</title>
<path fill="none" stroke="midnightblue" d="M84.0926,-112.324C73.3912,-104.185 57.1593,-91.8395 44.3372,-82.0874"/>
<polygon fill="midnightblue" stroke="midnightblue" points="46.1932,-79.1018 36.1149,-75.8339 41.9556,-84.6734 46.1932,-79.1018"/>
</g>
<!-- Node5 -->
<g id="node5" class="node"><title>Node5</title>
<polygon fill="white" stroke="#bfbfbf" points="67.5,-56.5 67.5,-75.5 119.5,-75.5 119.5,-56.5 67.5,-56.5"/>
<text text-anchor="middle" x="93.5" y="-63.5" font-family="Helvetica,sans-Serif" font-size="10.00">sstream</text>
</g>
<!-- Node2&#45;&gt;Node5 -->
<g id="edge4" class="edge"><title>Node2&#45;&gt;Node5</title>
<path fill="none" stroke="midnightblue" d="M95.1697,-112.083C94.9076,-105.006 94.5319,-94.8611 94.2032,-85.9865"/>
<polygon fill="midnightblue" stroke="midnightblue" points="97.6919,-85.6147 93.8241,-75.7511 90.6967,-85.8738 97.6919,-85.6147"/>
</g>
<!-- Node2&#45;&gt;Node6 -->
<g id="edge5" class="edge"><title>Node2&#45;&gt;Node6</title>
<path fill="none" stroke="midnightblue" d="M105.622,-112.324C115.026,-104.263 129.244,-92.0765 140.569,-82.3695"/>
<polygon fill="midnightblue" stroke="midnightblue" points="142.879,-84.9993 148.194,-75.8339 138.323,-79.6844 142.879,-84.9993"/>
</g>
<!-- Node4 -->
<g id="node4" class="node"><title>Node4</title>
<polygon fill="white" stroke="#bfbfbf" points="4,-0.5 4,-19.5 45,-19.5 45,-0.5 4,-0.5"/>
<text text-anchor="middle" x="24.5" y="-7.5" font-family="Helvetica,sans-Serif" font-size="10.00">string</text>
</g>
<!-- Node3&#45;&gt;Node4 -->
<g id="edge3" class="edge"><title>Node3&#45;&gt;Node4</title>
<path fill="none" stroke="midnightblue" d="M24.5,-56.083C24.5,-49.0059 24.5,-38.8611 24.5,-29.9865"/>
<polygon fill="midnightblue" stroke="midnightblue" points="28.0001,-29.751 24.5,-19.7511 21.0001,-29.7511 28.0001,-29.751"/>
</g>
</g>
</svg>
