<?xml version="1.0" encoding="UTF-8" standalone="no"?>
<!DOCTYPE svg PUBLIC "-//W3C//DTD SVG 1.1//EN"
 "http://www.w3.org/Graphics/SVG/1.1/DTD/svg11.dtd">
<!-- Generated by graphviz version 2.38.0 (20140413.2041)
 -->
<!-- Title: src/operational/src/memento/move_command.cc Pages: 1 -->
<svg width="316pt" height="386pt"
 viewBox="0.00 0.00 315.50 386.00" xmlns="http://www.w3.org/2000/svg" xmlns:xlink="http://www.w3.org/1999/xlink">
<g id="graph0" class="graph" transform="scale(1 1) rotate(0) translate(4 382)">
<title>src/operational/src/memento/move_command.cc</title>
<polygon fill="white" stroke="none" points="-4,4 -4,-382 311.5,-382 311.5,4 -4,4"/>
<!-- Node1 -->
<g id="node1" class="node"><title>Node1</title>
<polygon fill="#bfbfbf" stroke="black" points="23,-347.5 23,-377.5 170,-377.5 170,-347.5 23,-347.5"/>
<text text-anchor="start" x="31" y="-365.5" font-family="Helvetica,sans-Serif" font-size="10.00">src/operational/src</text>
<text text-anchor="middle" x="96.5" y="-354.5" font-family="Helvetica,sans-Serif" font-size="10.00">/memento/move_command.cc</text>
</g>
<!-- Node2 -->
<g id="node2" class="node"><title>Node2</title>
<g id="a_node2"><a xlink:href="../../d8/dc6/move__command_8h.html" target="_top" xlink:title="move_command.h">
<polygon fill="white" stroke="black" points="49,-291.5 49,-310.5 144,-310.5 144,-291.5 49,-291.5"/>
<text text-anchor="middle" x="96.5" y="-298.5" font-family="Helvetica,sans-Serif" font-size="10.00">move_command.h</text>
</a>
</g>
</g>
<!-- Node1&#45;&gt;Node2 -->
<g id="edge1" class="edge"><title>Node1&#45;&gt;Node2</title>
<path fill="none" stroke="midnightblue" d="M96.5,-347.399C96.5,-339.466 96.5,-329.458 96.5,-320.858"/>
<polygon fill="midnightblue" stroke="midnightblue" points="100,-320.658 96.5,-310.658 93.0001,-320.658 100,-320.658"/>
</g>
<!-- Node3 -->
<g id="node3" class="node"><title>Node3</title>
<g id="a_node3"><a xlink:href="../../de/de8/constraint__solver__interface_8h.html" target="_top" xlink:title="constraint_solver_interface.h">
<polygon fill="white" stroke="black" points="26.5,-235.5 26.5,-254.5 166.5,-254.5 166.5,-235.5 26.5,-235.5"/>
<text text-anchor="middle" x="96.5" y="-242.5" font-family="Helvetica,sans-Serif" font-size="10.00">constraint_solver_interface.h</text>
</a>
</g>
</g>
<!-- Node2&#45;&gt;Node3 -->
<g id="edge2" class="edge"><title>Node2&#45;&gt;Node3</title>
<path fill="none" stroke="midnightblue" d="M96.5,-291.083C96.5,-284.006 96.5,-273.861 96.5,-264.986"/>
<polygon fill="midnightblue" stroke="midnightblue" points="100,-264.751 96.5,-254.751 93.0001,-264.751 100,-264.751"/>
</g>
<!-- Node4 -->
<g id="node4" class="node"><title>Node4</title>
<g id="a_node4"><a xlink:href="../../da/d7f/constraint__solver__memento_8h.html" target="_top" xlink:title="constraint_solver_memento.h">
<polygon fill="white" stroke="black" points="75,-179.5 75,-198.5 218,-198.5 218,-179.5 75,-179.5"/>
<text text-anchor="middle" x="146.5" y="-186.5" font-family="Helvetica,sans-Serif" font-size="10.00">constraint_solver_memento.h</text>
</a>
</g>
</g>
<!-- Node3&#45;&gt;Node4 -->
<g id="edge3" class="edge"><title>Node3&#45;&gt;Node4</title>
<path fill="none" stroke="midnightblue" d="M104.756,-235.083C111.965,-227.298 122.61,-215.801 131.346,-206.367"/>
<polygon fill="midnightblue" stroke="midnightblue" points="134.171,-208.467 138.397,-198.751 129.035,-203.711 134.171,-208.467"/>
</g>
<!-- Node5 -->
<g id="node5" class="node"><title>Node5</title>
<g id="a_node5"><a xlink:href="../../dd/d36/graphic_8h.html" target="_top" xlink:title="graphic.h">
<polygon fill="white" stroke="black" points="27.5,-123.5 27.5,-142.5 83.5,-142.5 83.5,-123.5 27.5,-123.5"/>
<text text-anchor="middle" x="55.5" y="-130.5" font-family="Helvetica,sans-Serif" font-size="10.00">graphic.h</text>
</a>
</g>
</g>
<!-- Node3&#45;&gt;Node5 -->
<g id="edge13" class="edge"><title>Node3&#45;&gt;Node5</title>
<path fill="none" stroke="midnightblue" d="M88.7811,-235.39C81.5433,-226.808 71.0311,-212.931 65.5,-199 59.6345,-184.226 57.1912,-166.298 56.1826,-153.015"/>
<polygon fill="midnightblue" stroke="midnightblue" points="59.661,-152.526 55.6156,-142.734 52.6717,-152.912 59.661,-152.526"/>
</g>
<!-- Node4&#45;&gt;Node5 -->
<g id="edge4" class="edge"><title>Node4&#45;&gt;Node5</title>
<path fill="none" stroke="midnightblue" d="M131.879,-179.324C117.551,-170.822 95.4875,-157.729 78.7513,-147.797"/>
<polygon fill="midnightblue" stroke="midnightblue" points="80.4704,-144.748 70.0844,-142.655 76.8982,-150.768 80.4704,-144.748"/>
</g>
<!-- Node8 -->
<g id="node8" class="node"><title>Node8</title>
<polygon fill="white" stroke="#bfbfbf" points="120,-123.5 120,-142.5 155,-142.5 155,-123.5 120,-123.5"/>
<text text-anchor="middle" x="137.5" y="-130.5" font-family="Helvetica,sans-Serif" font-size="10.00">map</text>
</g>
<!-- Node4&#45;&gt;Node8 -->
<g id="edge7" class="edge"><title>Node4&#45;&gt;Node8</title>
<path fill="none" stroke="midnightblue" d="M145.014,-179.083C143.821,-171.927 142.106,-161.635 140.615,-152.691"/>
<polygon fill="midnightblue" stroke="midnightblue" points="144.055,-152.04 138.959,-142.751 137.15,-153.19 144.055,-152.04"/>
</g>
<!-- Node9 -->
<g id="node9" class="node"><title>Node9</title>
<g id="a_node9"><a xlink:href="../../da/d23/list_8h.html" target="_top" xlink:title="../iterator/list.h">
<polygon fill="white" stroke="black" points="173.5,-123.5 173.5,-142.5 253.5,-142.5 253.5,-123.5 173.5,-123.5"/>
<text text-anchor="middle" x="213.5" y="-130.5" font-family="Helvetica,sans-Serif" font-size="10.00">../iterator/list.h</text>
</a>
</g>
</g>
<!-- Node4&#45;&gt;Node9 -->
<g id="edge8" class="edge"><title>Node4&#45;&gt;Node9</title>
<path fill="none" stroke="midnightblue" d="M157.265,-179.324C167.266,-171.263 182.387,-159.077 194.43,-149.369"/>
<polygon fill="midnightblue" stroke="midnightblue" points="196.95,-151.834 202.539,-142.834 192.557,-146.384 196.95,-151.834"/>
</g>
<!-- Node6 -->
<g id="node6" class="node"><title>Node6</title>
<g id="a_node6"><a xlink:href="../../d2/d91/point_8h.html" target="_top" xlink:title="../../../structural\l/src/commons/point.h">
<polygon fill="white" stroke="black" points="0,-56.5 0,-86.5 111,-86.5 111,-56.5 0,-56.5"/>
<text text-anchor="start" x="8" y="-74.5" font-family="Helvetica,sans-Serif" font-size="10.00">../../../structural</text>
<text text-anchor="middle" x="55.5" y="-63.5" font-family="Helvetica,sans-Serif" font-size="10.00">/src/commons/point.h</text>
</a>
</g>
</g>
<!-- Node5&#45;&gt;Node6 -->
<g id="edge5" class="edge"><title>Node5&#45;&gt;Node6</title>
<path fill="none" stroke="midnightblue" d="M55.5,-123.475C55.5,-116.471 55.5,-106.192 55.5,-96.6956"/>
<polygon fill="midnightblue" stroke="midnightblue" points="59.0001,-96.5229 55.5,-86.523 52.0001,-96.523 59.0001,-96.5229"/>
</g>
<!-- Node7 -->
<g id="node7" class="node"><title>Node7</title>
<polygon fill="white" stroke="#bfbfbf" points="28.5,-0.5 28.5,-19.5 82.5,-19.5 82.5,-0.5 28.5,-0.5"/>
<text text-anchor="middle" x="55.5" y="-7.5" font-family="Helvetica,sans-Serif" font-size="10.00">iostream</text>
</g>
<!-- Node6&#45;&gt;Node7 -->
<g id="edge6" class="edge"><title>Node6&#45;&gt;Node7</title>
<path fill="none" stroke="midnightblue" d="M55.5,-56.3993C55.5,-48.4664 55.5,-38.458 55.5,-29.8583"/>
<polygon fill="midnightblue" stroke="midnightblue" points="59.0001,-29.6577 55.5,-19.6578 52.0001,-29.6578 59.0001,-29.6577"/>
</g>
<!-- Node10 -->
<g id="node10" class="node"><title>Node10</title>
<g id="a_node10"><a xlink:href="../../d9/d71/list__iterator_8h.html" target="_top" xlink:title="list_iterator.h">
<polygon fill="white" stroke="black" points="166,-62 166,-81 239,-81 239,-62 166,-62"/>
<text text-anchor="middle" x="202.5" y="-69" font-family="Helvetica,sans-Serif" font-size="10.00">list_iterator.h</text>
</a>
</g>
</g>
<!-- Node9&#45;&gt;Node10 -->
<g id="edge9" class="edge"><title>Node9&#45;&gt;Node10</title>
<path fill="none" stroke="midnightblue" d="M211.924,-123.475C210.372,-115.08 207.95,-101.981 205.95,-91.1631"/>
<polygon fill="midnightblue" stroke="midnightblue" points="209.333,-90.2062 204.073,-81.0091 202.449,-91.4788 209.333,-90.2062"/>
</g>
<!-- Node12 -->
<g id="node12" class="node"><title>Node12</title>
<g id="a_node12"><a xlink:href="../../dd/d8c/list__interface_8h.html" target="_top" xlink:title="list_interface.h">
<polygon fill="white" stroke="black" points="227.5,-0.5 227.5,-19.5 307.5,-19.5 307.5,-0.5 227.5,-0.5"/>
<text text-anchor="middle" x="267.5" y="-7.5" font-family="Helvetica,sans-Serif" font-size="10.00">list_interface.h</text>
</a>
</g>
</g>
<!-- Node9&#45;&gt;Node12 -->
<g id="edge12" class="edge"><title>Node9&#45;&gt;Node12</title>
<path fill="none" stroke="midnightblue" d="M221.661,-123.383C229.373,-114.796 240.74,-100.916 247.5,-87 256.422,-68.6317 261.748,-45.7631 264.633,-29.9352"/>
<polygon fill="midnightblue" stroke="midnightblue" points="268.127,-30.2588 266.319,-19.8195 261.223,-29.1081 268.127,-30.2588"/>
</g>
<!-- Node11 -->
<g id="node11" class="node"><title>Node11</title>
<g id="a_node11"><a xlink:href="../../d6/da4/iterator__interface_8h.html" target="_top" xlink:title="iterator_interface.h">
<polygon fill="white" stroke="black" points="112,-0.5 112,-19.5 209,-19.5 209,-0.5 112,-0.5"/>
<text text-anchor="middle" x="160.5" y="-7.5" font-family="Helvetica,sans-Serif" font-size="10.00">iterator_interface.h</text>
</a>
</g>
</g>
<!-- Node10&#45;&gt;Node11 -->
<g id="edge10" class="edge"><title>Node10&#45;&gt;Node11</title>
<path fill="none" stroke="midnightblue" d="M196.482,-61.9751C190.245,-53.1384 180.327,-39.0886 172.482,-27.975"/>
<polygon fill="midnightblue" stroke="midnightblue" points="175.133,-25.6604 166.506,-19.5091 169.414,-29.6972 175.133,-25.6604"/>
</g>
<!-- Node10&#45;&gt;Node12 -->
<g id="edge11" class="edge"><title>Node10&#45;&gt;Node12</title>
<path fill="none" stroke="midnightblue" d="M211.813,-61.9751C221.949,-52.6966 238.364,-37.6706 250.752,-26.331"/>
<polygon fill="midnightblue" stroke="midnightblue" points="253.191,-28.8429 258.204,-19.5091 248.465,-23.6795 253.191,-28.8429"/>
</g>
</g>
</svg>
