<?xml version="1.0" encoding="UTF-8" standalone="no"?>
<!DOCTYPE svg PUBLIC "-//W3C//DTD SVG 1.1//EN"
 "http://www.w3.org/Graphics/SVG/1.1/DTD/svg11.dtd">
<!-- Generated by graphviz version 2.38.0 (20140413.2041)
 -->
<!-- Title: src/structural/src/facade/statement_node.h Pages: 1 -->
<svg width="661pt" height="274pt"
 viewBox="0.00 0.00 660.50 274.00" xmlns="http://www.w3.org/2000/svg" xmlns:xlink="http://www.w3.org/1999/xlink">
<g id="graph0" class="graph" transform="scale(1 1) rotate(0) translate(4 270)">
<title>src/structural/src/facade/statement_node.h</title>
<polygon fill="white" stroke="none" points="-4,4 -4,-270 656.5,-270 656.5,4 -4,4"/>
<!-- Node1 -->
<g id="node1" class="node"><title>Node1</title>
<polygon fill="#bfbfbf" stroke="black" points="161,-235.5 161,-265.5 290,-265.5 290,-235.5 161,-235.5"/>
<text text-anchor="start" x="169" y="-253.5" font-family="Helvetica,sans-Serif" font-size="10.00">src/structural/src</text>
<text text-anchor="middle" x="225.5" y="-242.5" font-family="Helvetica,sans-Serif" font-size="10.00">/facade/statement_node.h</text>
</g>
<!-- Node2 -->
<g id="node2" class="node"><title>Node2</title>
<g id="a_node2"><a xlink:href="../../dd/d4b/statement__node__interface_8h.html" target="_top" xlink:title="statement_node_interface.h">
<polygon fill="white" stroke="black" points="0,-56.5 0,-75.5 137,-75.5 137,-56.5 0,-56.5"/>
<text text-anchor="middle" x="68.5" y="-63.5" font-family="Helvetica,sans-Serif" font-size="10.00">statement_node_interface.h</text>
</a>
</g>
</g>
<!-- Node1&#45;&gt;Node2 -->
<g id="edge1" class="edge"><title>Node1&#45;&gt;Node2</title>
<path fill="none" stroke="midnightblue" d="M199.951,-235.333C184.999,-226.233 166.391,-213.436 152.5,-199 118.248,-163.404 90.2695,-111.768 76.9368,-84.8449"/>
<polygon fill="midnightblue" stroke="midnightblue" points="79.9313,-82.9981 72.4211,-75.5249 73.6318,-86.0504 79.9313,-82.9981"/>
</g>
<!-- Node4 -->
<g id="node4" class="node"><title>Node4</title>
<g id="a_node4"><a xlink:href="../../dc/d6c/program__node__interface_8h.html" target="_top" xlink:title="program_node_interface.h">
<polygon fill="white" stroke="black" points="161.5,-174 161.5,-193 289.5,-193 289.5,-174 161.5,-174"/>
<text text-anchor="middle" x="225.5" y="-181" font-family="Helvetica,sans-Serif" font-size="10.00">program_node_interface.h</text>
</a>
</g>
</g>
<!-- Node1&#45;&gt;Node4 -->
<g id="edge3" class="edge"><title>Node1&#45;&gt;Node4</title>
<path fill="none" stroke="midnightblue" d="M225.5,-235.396C225.5,-226.064 225.5,-213.714 225.5,-203.517"/>
<polygon fill="midnightblue" stroke="midnightblue" points="229,-203.195 225.5,-193.195 222,-203.195 229,-203.195"/>
</g>
<!-- Node8 -->
<g id="node8" class="node"><title>Node8</title>
<g id="a_node8"><a xlink:href="../../da/d23/list_8h.html" target="_top" xlink:title="../../../operational\l/src/iterator/list.h">
<polygon fill="white" stroke="black" points="470,-168.5 470,-198.5 561,-198.5 561,-168.5 470,-168.5"/>
<text text-anchor="start" x="478" y="-186.5" font-family="Helvetica,sans-Serif" font-size="10.00">../../../operational</text>
<text text-anchor="middle" x="515.5" y="-175.5" font-family="Helvetica,sans-Serif" font-size="10.00">/src/iterator/list.h</text>
</a>
</g>
</g>
<!-- Node1&#45;&gt;Node8 -->
<g id="edge10" class="edge"><title>Node1&#45;&gt;Node8</title>
<path fill="none" stroke="midnightblue" d="M288.069,-235.476C339.163,-224.024 410.706,-207.988 459.833,-196.977"/>
<polygon fill="midnightblue" stroke="midnightblue" points="460.661,-200.378 469.654,-194.776 459.13,-193.548 460.661,-200.378"/>
</g>
<!-- Node3 -->
<g id="node3" class="node"><title>Node3</title>
<polygon fill="white" stroke="#bfbfbf" points="205,-0.5 205,-19.5 246,-19.5 246,-0.5 205,-0.5"/>
<text text-anchor="middle" x="225.5" y="-7.5" font-family="Helvetica,sans-Serif" font-size="10.00">string</text>
</g>
<!-- Node2&#45;&gt;Node3 -->
<g id="edge2" class="edge"><title>Node2&#45;&gt;Node3</title>
<path fill="none" stroke="midnightblue" d="M93.3771,-56.4435C120.912,-46.973 165.307,-31.7032 194.937,-21.512"/>
<polygon fill="midnightblue" stroke="midnightblue" points="196.432,-24.6991 204.75,-18.1368 194.156,-18.0797 196.432,-24.6991"/>
</g>
<!-- Node5 -->
<g id="node5" class="node"><title>Node5</title>
<g id="a_node5"><a xlink:href="../../d7/df5/code__generator__interface_8h.html" target="_top" xlink:title="code_generator_interface.h">
<polygon fill="white" stroke="black" points="158.5,-112.5 158.5,-131.5 292.5,-131.5 292.5,-112.5 158.5,-112.5"/>
<text text-anchor="middle" x="225.5" y="-119.5" font-family="Helvetica,sans-Serif" font-size="10.00">code_generator_interface.h</text>
</a>
</g>
</g>
<!-- Node4&#45;&gt;Node5 -->
<g id="edge4" class="edge"><title>Node4&#45;&gt;Node5</title>
<path fill="none" stroke="midnightblue" d="M225.5,-173.975C225.5,-165.58 225.5,-152.481 225.5,-141.663"/>
<polygon fill="midnightblue" stroke="midnightblue" points="229,-141.509 225.5,-131.509 222,-141.509 229,-141.509"/>
</g>
<!-- Node5&#45;&gt;Node2 -->
<g id="edge7" class="edge"><title>Node5&#45;&gt;Node2</title>
<path fill="none" stroke="midnightblue" d="M200.623,-112.444C174.211,-103.359 132.285,-88.9388 102.758,-78.7831"/>
<polygon fill="midnightblue" stroke="midnightblue" points="103.855,-75.4593 93.2607,-75.5164 101.579,-82.0787 103.855,-75.4593"/>
</g>
<!-- Node6 -->
<g id="node6" class="node"><title>Node6</title>
<g id="a_node6"><a xlink:href="../../d9/d24/expression__node__interface_8h.html" target="_top" xlink:title="expression_node_interface.h">
<polygon fill="white" stroke="black" points="155.5,-56.5 155.5,-75.5 295.5,-75.5 295.5,-56.5 155.5,-56.5"/>
<text text-anchor="middle" x="225.5" y="-63.5" font-family="Helvetica,sans-Serif" font-size="10.00">expression_node_interface.h</text>
</a>
</g>
</g>
<!-- Node5&#45;&gt;Node6 -->
<g id="edge5" class="edge"><title>Node5&#45;&gt;Node6</title>
<path fill="none" stroke="midnightblue" d="M225.5,-112.083C225.5,-105.006 225.5,-94.8611 225.5,-85.9865"/>
<polygon fill="midnightblue" stroke="midnightblue" points="229,-85.751 225.5,-75.7511 222,-85.7511 229,-85.751"/>
</g>
<!-- Node7 -->
<g id="node7" class="node"><title>Node7</title>
<g id="a_node7"><a xlink:href="../../df/d19/variable__node__interface_8h.html" target="_top" xlink:title="variable_node_interface.h">
<polygon fill="white" stroke="black" points="314,-56.5 314,-75.5 439,-75.5 439,-56.5 314,-56.5"/>
<text text-anchor="middle" x="376.5" y="-63.5" font-family="Helvetica,sans-Serif" font-size="10.00">variable_node_interface.h</text>
</a>
</g>
</g>
<!-- Node5&#45;&gt;Node7 -->
<g id="edge8" class="edge"><title>Node5&#45;&gt;Node7</title>
<path fill="none" stroke="midnightblue" d="M249.426,-112.444C274.719,-103.399 314.802,-89.064 343.18,-78.9158"/>
<polygon fill="midnightblue" stroke="midnightblue" points="344.448,-82.1794 352.686,-75.5164 342.091,-75.5882 344.448,-82.1794"/>
</g>
<!-- Node6&#45;&gt;Node3 -->
<g id="edge6" class="edge"><title>Node6&#45;&gt;Node3</title>
<path fill="none" stroke="midnightblue" d="M225.5,-56.083C225.5,-49.0059 225.5,-38.8611 225.5,-29.9865"/>
<polygon fill="midnightblue" stroke="midnightblue" points="229,-29.751 225.5,-19.7511 222,-29.7511 229,-29.751"/>
</g>
<!-- Node7&#45;&gt;Node3 -->
<g id="edge9" class="edge"><title>Node7&#45;&gt;Node3</title>
<path fill="none" stroke="midnightblue" d="M352.574,-56.4435C326.389,-47.0794 284.35,-32.0456 255.86,-21.8574"/>
<polygon fill="midnightblue" stroke="midnightblue" points="256.991,-18.5448 246.397,-18.473 254.634,-25.136 256.991,-18.5448"/>
</g>
<!-- Node9 -->
<g id="node9" class="node"><title>Node9</title>
<g id="a_node9"><a xlink:href="../../d9/d71/list__iterator_8h.html" target="_top" xlink:title="list_iterator.h">
<polygon fill="white" stroke="black" points="479,-112.5 479,-131.5 552,-131.5 552,-112.5 479,-112.5"/>
<text text-anchor="middle" x="515.5" y="-119.5" font-family="Helvetica,sans-Serif" font-size="10.00">list_iterator.h</text>
</a>
</g>
</g>
<!-- Node8&#45;&gt;Node9 -->
<g id="edge11" class="edge"><title>Node8&#45;&gt;Node9</title>
<path fill="none" stroke="midnightblue" d="M515.5,-168.399C515.5,-160.466 515.5,-150.458 515.5,-141.858"/>
<polygon fill="midnightblue" stroke="midnightblue" points="519,-141.658 515.5,-131.658 512,-141.658 519,-141.658"/>
</g>
<!-- Node11 -->
<g id="node11" class="node"><title>Node11</title>
<g id="a_node11"><a xlink:href="../../dd/d8c/list__interface_8h.html" target="_top" xlink:title="list_interface.h">
<polygon fill="white" stroke="black" points="572.5,-56.5 572.5,-75.5 652.5,-75.5 652.5,-56.5 572.5,-56.5"/>
<text text-anchor="middle" x="612.5" y="-63.5" font-family="Helvetica,sans-Serif" font-size="10.00">list_interface.h</text>
</a>
</g>
</g>
<!-- Node8&#45;&gt;Node11 -->
<g id="edge14" class="edge"><title>Node8&#45;&gt;Node11</title>
<path fill="none" stroke="midnightblue" d="M528.704,-168.095C537.784,-158.088 550.044,-144.381 560.5,-132 574.137,-115.853 589.164,-96.9407 599.542,-83.6931"/>
<polygon fill="midnightblue" stroke="midnightblue" points="602.519,-85.5676 605.91,-75.5301 596.999,-81.262 602.519,-85.5676"/>
</g>
<!-- Node10 -->
<g id="node10" class="node"><title>Node10</title>
<g id="a_node10"><a xlink:href="../../d6/da4/iterator__interface_8h.html" target="_top" xlink:title="iterator_interface.h">
<polygon fill="white" stroke="black" points="457,-56.5 457,-75.5 554,-75.5 554,-56.5 457,-56.5"/>
<text text-anchor="middle" x="505.5" y="-63.5" font-family="Helvetica,sans-Serif" font-size="10.00">iterator_interface.h</text>
</a>
</g>
</g>
<!-- Node9&#45;&gt;Node10 -->
<g id="edge12" class="edge"><title>Node9&#45;&gt;Node10</title>
<path fill="none" stroke="midnightblue" d="M513.849,-112.083C512.524,-104.927 510.618,-94.6353 508.961,-85.6911"/>
<polygon fill="midnightblue" stroke="midnightblue" points="512.383,-84.9466 507.121,-75.7511 505.5,-86.2212 512.383,-84.9466"/>
</g>
<!-- Node9&#45;&gt;Node11 -->
<g id="edge13" class="edge"><title>Node9&#45;&gt;Node11</title>
<path fill="none" stroke="midnightblue" d="M531.085,-112.324C546.499,-103.743 570.312,-90.486 588.21,-80.5224"/>
<polygon fill="midnightblue" stroke="midnightblue" points="589.919,-83.5767 596.954,-75.6545 586.514,-77.4606 589.919,-83.5767"/>
</g>
</g>
</svg>
