<?xml version="1.0" encoding="UTF-8" standalone="no"?>
<!DOCTYPE svg PUBLIC "-//W3C//DTD SVG 1.1//EN"
 "http://www.w3.org/Graphics/SVG/1.1/DTD/svg11.dtd">
<!-- Generated by graphviz version 2.38.0 (20140413.2041)
 -->
<!-- Title: structural::flyweight::Column::First Pages: 1 -->
<svg width="252pt" height="39pt"
 viewBox="0.00 0.00 252.00 39.00" xmlns="http://www.w3.org/2000/svg" xmlns:xlink="http://www.w3.org/1999/xlink">
<g id="graph0" class="graph" transform="scale(1 1) rotate(0) translate(4 35)">
<title>structural::flyweight::Column::First</title>
<polygon fill="white" stroke="none" points="-4,4 -4,-35 248,-35 248,4 -4,4"/>
<!-- Node1 -->
<g id="node1" class="node"><title>Node1</title>
<polygon fill="#bfbfbf" stroke="black" points="0,-0.5 0,-30.5 101,-30.5 101,-0.5 0,-0.5"/>
<text text-anchor="start" x="8" y="-18.5" font-family="Helvetica,sans-Serif" font-size="10.00">structural::flyweight</text>
<text text-anchor="middle" x="50.5" y="-7.5" font-family="Helvetica,sans-Serif" font-size="10.00">::Column::First</text>
</g>
<!-- Node2 -->
<g id="node2" class="node"><title>Node2</title>
<g id="a_node2"><a xlink:href="../../d2/d57/classstructural_1_1flyweight_1_1_glyph_context.html#a5fc5a3463f22ae500ca352b0f310757e" target="_top" xlink:title="structural::flyweight\l::GlyphContext::First">
<polygon fill="white" stroke="black" points="137,-0.5 137,-30.5 244,-30.5 244,-0.5 137,-0.5"/>
<text text-anchor="start" x="145" y="-18.5" font-family="Helvetica,sans-Serif" font-size="10.00">structural::flyweight</text>
<text text-anchor="middle" x="190.5" y="-7.5" font-family="Helvetica,sans-Serif" font-size="10.00">::GlyphContext::First</text>
</a>
</g>
</g>
<!-- Node1&#45;&gt;Node2 -->
<g id="edge1" class="edge"><title>Node1&#45;&gt;Node2</title>
<path fill="none" stroke="midnightblue" d="M101.321,-15.5C109.554,-15.5 118.183,-15.5 126.686,-15.5"/>
<polygon fill="midnightblue" stroke="midnightblue" points="126.959,-19.0001 136.959,-15.5 126.959,-12.0001 126.959,-19.0001"/>
</g>
</g>
</svg>
