<?xml version="1.0" encoding="UTF-8" standalone="no"?>
<!DOCTYPE svg PUBLIC "-//W3C//DTD SVG 1.1//EN"
 "http://www.w3.org/Graphics/SVG/1.1/DTD/svg11.dtd">
<!-- Generated by graphviz version 2.38.0 (20140413.2041)
 -->
<!-- Title: creational::builder::MazeBuilderInterface Pages: 1 -->
<svg width="288pt" height="292pt"
 viewBox="0.00 0.00 287.50 292.00" xmlns="http://www.w3.org/2000/svg" xmlns:xlink="http://www.w3.org/1999/xlink">
<g id="graph0" class="graph" transform="scale(1 1) rotate(0) translate(4 288)">
<title>creational::builder::MazeBuilderInterface</title>
<polygon fill="white" stroke="none" points="-4,4 -4,-288 283.5,-288 283.5,4 -4,4"/>
<!-- Node1 -->
<g id="node1" class="node"><title>Node1</title>
<polygon fill="#bfbfbf" stroke="black" points="75,-171.5 75,-283.5 203,-283.5 203,-171.5 75,-171.5"/>
<text text-anchor="start" x="83" y="-271.5" font-family="Helvetica,sans-Serif" font-size="10.00">creational::builder</text>
<text text-anchor="middle" x="139" y="-260.5" font-family="Helvetica,sans-Serif" font-size="10.00">::MazeBuilderInterface</text>
<polyline fill="none" stroke="black" points="75,-253.5 203,-253.5 "/>
<text text-anchor="middle" x="139" y="-241.5" font-family="Helvetica,sans-Serif" font-size="10.00"> </text>
<polyline fill="none" stroke="black" points="75,-234.5 203,-234.5 "/>
<text text-anchor="start" x="83" y="-222.5" font-family="Helvetica,sans-Serif" font-size="10.00">+ ~MazeBuilderInterface()</text>
<text text-anchor="start" x="83" y="-211.5" font-family="Helvetica,sans-Serif" font-size="10.00">+ BuildMaze()</text>
<text text-anchor="start" x="83" y="-200.5" font-family="Helvetica,sans-Serif" font-size="10.00">+ BuildRoom()</text>
<text text-anchor="start" x="83" y="-189.5" font-family="Helvetica,sans-Serif" font-size="10.00">+ BuildDoor()</text>
<text text-anchor="start" x="83" y="-178.5" font-family="Helvetica,sans-Serif" font-size="10.00">+ GetMaze()</text>
</g>
<!-- Node2 -->
<g id="node2" class="node"><title>Node2</title>
<g id="a_node2"><a xlink:href="../../d0/d8c/classcreational_1_1builder_1_1_counting_maze_builder.html" target="_top" xlink:title="{creational::builder\l::CountingMazeBuilder\n||+ CountingMazeBuilder()\l+ ~CountingMazeBuilder()\l+ BuildMaze()\l+ BuildRoom()\l+ BuildDoor()\l+ GetMaze()\l+ GetCounts()\l}">
<polygon fill="white" stroke="black" points="0,-0.5 0,-134.5 130,-134.5 130,-0.5 0,-0.5"/>
<text text-anchor="start" x="8" y="-122.5" font-family="Helvetica,sans-Serif" font-size="10.00">creational::builder</text>
<text text-anchor="middle" x="65" y="-111.5" font-family="Helvetica,sans-Serif" font-size="10.00">::CountingMazeBuilder</text>
<polyline fill="none" stroke="black" points="0,-104.5 130,-104.5 "/>
<text text-anchor="middle" x="65" y="-92.5" font-family="Helvetica,sans-Serif" font-size="10.00"> </text>
<polyline fill="none" stroke="black" points="0,-85.5 130,-85.5 "/>
<text text-anchor="start" x="8" y="-73.5" font-family="Helvetica,sans-Serif" font-size="10.00">+ CountingMazeBuilder()</text>
<text text-anchor="start" x="8" y="-62.5" font-family="Helvetica,sans-Serif" font-size="10.00">+ ~CountingMazeBuilder()</text>
<text text-anchor="start" x="8" y="-51.5" font-family="Helvetica,sans-Serif" font-size="10.00">+ BuildMaze()</text>
<text text-anchor="start" x="8" y="-40.5" font-family="Helvetica,sans-Serif" font-size="10.00">+ BuildRoom()</text>
<text text-anchor="start" x="8" y="-29.5" font-family="Helvetica,sans-Serif" font-size="10.00">+ BuildDoor()</text>
<text text-anchor="start" x="8" y="-18.5" font-family="Helvetica,sans-Serif" font-size="10.00">+ GetMaze()</text>
<text text-anchor="start" x="8" y="-7.5" font-family="Helvetica,sans-Serif" font-size="10.00">+ GetCounts()</text>
</a>
</g>
</g>
<!-- Node1&#45;&gt;Node2 -->
<g id="edge1" class="edge"><title>Node1&#45;&gt;Node2</title>
<path fill="none" stroke="midnightblue" d="M108.768,-161.95C104.541,-152.925 100.192,-143.64 95.9522,-134.587"/>
<polygon fill="none" stroke="midnightblue" points="105.707,-163.668 113.118,-171.239 112.047,-160.699 105.707,-163.668"/>
</g>
<!-- Node3 -->
<g id="node3" class="node"><title>Node3</title>
<g id="a_node3"><a xlink:href="../../d9/dcc/classcreational_1_1builder_1_1_standard_maze_builder.html" target="_top" xlink:title="{creational::builder\l::StandardMazeBuilder\n||+ StandardMazeBuilder()\l+ ~StandardMazeBuilder()\l+ BuildMaze()\l+ BuildRoom()\l+ BuildDoor()\l+ GetMaze()\l}">
<polygon fill="white" stroke="black" points="148.5,-6 148.5,-129 279.5,-129 279.5,-6 148.5,-6"/>
<text text-anchor="start" x="156.5" y="-117" font-family="Helvetica,sans-Serif" font-size="10.00">creational::builder</text>
<text text-anchor="middle" x="214" y="-106" font-family="Helvetica,sans-Serif" font-size="10.00">::StandardMazeBuilder</text>
<polyline fill="none" stroke="black" points="148.5,-99 279.5,-99 "/>
<text text-anchor="middle" x="214" y="-87" font-family="Helvetica,sans-Serif" font-size="10.00"> </text>
<polyline fill="none" stroke="black" points="148.5,-80 279.5,-80 "/>
<text text-anchor="start" x="156.5" y="-68" font-family="Helvetica,sans-Serif" font-size="10.00">+ StandardMazeBuilder()</text>
<text text-anchor="start" x="156.5" y="-57" font-family="Helvetica,sans-Serif" font-size="10.00">+ ~StandardMazeBuilder()</text>
<text text-anchor="start" x="156.5" y="-46" font-family="Helvetica,sans-Serif" font-size="10.00">+ BuildMaze()</text>
<text text-anchor="start" x="156.5" y="-35" font-family="Helvetica,sans-Serif" font-size="10.00">+ BuildRoom()</text>
<text text-anchor="start" x="156.5" y="-24" font-family="Helvetica,sans-Serif" font-size="10.00">+ BuildDoor()</text>
<text text-anchor="start" x="156.5" y="-13" font-family="Helvetica,sans-Serif" font-size="10.00">+ GetMaze()</text>
</a>
</g>
</g>
<!-- Node1&#45;&gt;Node3 -->
<g id="edge2" class="edge"><title>Node1&#45;&gt;Node3</title>
<path fill="none" stroke="midnightblue" d="M169.534,-162.174C174.719,-151.252 180.088,-139.941 185.226,-129.117"/>
<polygon fill="none" stroke="midnightblue" points="166.358,-160.704 165.231,-171.239 172.682,-163.706 166.358,-160.704"/>
</g>
</g>
</svg>
