<?xml version="1.0" encoding="UTF-8" standalone="no"?>
<!DOCTYPE svg PUBLIC "-//W3C//DTD SVG 1.1//EN"
 "http://www.w3.org/Graphics/SVG/1.1/DTD/svg11.dtd">
<!-- Generated by graphviz version 2.38.0 (20140413.2041)
 -->
<!-- Title: structural::facade::ExpressionNode::Traverse Pages: 1 -->
<svg width="305pt" height="247pt"
 viewBox="0.00 0.00 305.00 246.50" xmlns="http://www.w3.org/2000/svg" xmlns:xlink="http://www.w3.org/1999/xlink">
<g id="graph0" class="graph" transform="scale(1 1) rotate(0) translate(4 242.5)">
<title>structural::facade::ExpressionNode::Traverse</title>
<polygon fill="white" stroke="none" points="-4,4 -4,-242.5 301,-242.5 301,4 -4,4"/>
<!-- Node1 -->
<g id="node1" class="node"><title>Node1</title>
<polygon fill="#bfbfbf" stroke="black" points="0,-98.5 0,-128.5 136,-128.5 136,-98.5 0,-98.5"/>
<text text-anchor="start" x="8" y="-116.5" font-family="Helvetica,sans-Serif" font-size="10.00">structural::facade</text>
<text text-anchor="middle" x="68" y="-105.5" font-family="Helvetica,sans-Serif" font-size="10.00">::ExpressionNode::Traverse</text>
</g>
<!-- Node2 -->
<g id="node2" class="node"><title>Node2</title>
<g id="a_node2"><a xlink:href="../../df/d81/classstructural_1_1facade_1_1_code_generator_interface.html#a4c8a46fb3eea6dcb56a3f3e0da3816ff" target="_top" xlink:title="structural::facade\l::CodeGeneratorInterface\l::Visit">
<polygon fill="white" stroke="black" points="172,-197 172,-238 297,-238 297,-197 172,-197"/>
<text text-anchor="start" x="180" y="-226" font-family="Helvetica,sans-Serif" font-size="10.00">structural::facade</text>
<text text-anchor="start" x="180" y="-215" font-family="Helvetica,sans-Serif" font-size="10.00">::CodeGeneratorInterface</text>
<text text-anchor="middle" x="234.5" y="-204" font-family="Helvetica,sans-Serif" font-size="10.00">::Visit</text>
</a>
</g>
</g>
<!-- Node1&#45;&gt;Node2 -->
<g id="edge1" class="edge"><title>Node1&#45;&gt;Node2</title>
<path fill="none" stroke="midnightblue" d="M88.0765,-128.706C108.264,-144.434 141.377,-169.209 172,-187.5 174.618,-189.064 177.33,-190.616 180.09,-192.142"/>
<polygon fill="midnightblue" stroke="midnightblue" points="178.545,-195.285 189.013,-196.916 181.846,-189.113 178.545,-195.285"/>
</g>
<!-- Node3 -->
<g id="node3" class="node"><title>Node3</title>
<g id="a_node3"><a xlink:href="../../da/d8a/classoperational_1_1iterator_1_1_list_iterator.html#af957220a47026d5126a8220ada421352" target="_top" xlink:title="operational::iterator\l::ListIterator::First">
<polygon fill="white" stroke="black" points="184.5,-147.5 184.5,-177.5 284.5,-177.5 284.5,-147.5 184.5,-147.5"/>
<text text-anchor="start" x="192.5" y="-165.5" font-family="Helvetica,sans-Serif" font-size="10.00">operational::iterator</text>
<text text-anchor="middle" x="234.5" y="-154.5" font-family="Helvetica,sans-Serif" font-size="10.00">::ListIterator::First</text>
</a>
</g>
</g>
<!-- Node1&#45;&gt;Node3 -->
<g id="edge2" class="edge"><title>Node1&#45;&gt;Node3</title>
<path fill="none" stroke="midnightblue" d="M119.698,-128.601C137.062,-133.774 156.637,-139.605 174.594,-144.954"/>
<polygon fill="midnightblue" stroke="midnightblue" points="173.797,-148.368 184.38,-147.868 175.795,-141.659 173.797,-148.368"/>
</g>
<!-- Node4 -->
<g id="node4" class="node"><title>Node4</title>
<g id="a_node4"><a xlink:href="../../da/d8a/classoperational_1_1iterator_1_1_list_iterator.html#a7aabc4cc183b3c49e6e135514f271c0e" target="_top" xlink:title="operational::iterator\l::ListIterator::IsDone">
<polygon fill="white" stroke="black" points="182.5,-98.5 182.5,-128.5 286.5,-128.5 286.5,-98.5 182.5,-98.5"/>
<text text-anchor="start" x="190.5" y="-116.5" font-family="Helvetica,sans-Serif" font-size="10.00">operational::iterator</text>
<text text-anchor="middle" x="234.5" y="-105.5" font-family="Helvetica,sans-Serif" font-size="10.00">::ListIterator::IsDone</text>
</a>
</g>
</g>
<!-- Node1&#45;&gt;Node4 -->
<g id="edge3" class="edge"><title>Node1&#45;&gt;Node4</title>
<path fill="none" stroke="midnightblue" d="M136.383,-113.5C148.255,-113.5 160.555,-113.5 172.248,-113.5"/>
<polygon fill="midnightblue" stroke="midnightblue" points="172.342,-117 182.341,-113.5 172.341,-110 172.342,-117"/>
</g>
<!-- Node5 -->
<g id="node5" class="node"><title>Node5</title>
<g id="a_node5"><a xlink:href="../../da/d8a/classoperational_1_1iterator_1_1_list_iterator.html#a375f2f3451b40f2d7477d03e4f5c9676" target="_top" xlink:title="operational::iterator\l::ListIterator::Next">
<polygon fill="white" stroke="black" points="184.5,-49.5 184.5,-79.5 284.5,-79.5 284.5,-49.5 184.5,-49.5"/>
<text text-anchor="start" x="192.5" y="-67.5" font-family="Helvetica,sans-Serif" font-size="10.00">operational::iterator</text>
<text text-anchor="middle" x="234.5" y="-56.5" font-family="Helvetica,sans-Serif" font-size="10.00">::ListIterator::Next</text>
</a>
</g>
</g>
<!-- Node1&#45;&gt;Node5 -->
<g id="edge4" class="edge"><title>Node1&#45;&gt;Node5</title>
<path fill="none" stroke="midnightblue" d="M119.698,-98.3986C137.062,-93.2263 156.637,-87.3953 174.594,-82.0464"/>
<polygon fill="midnightblue" stroke="midnightblue" points="175.795,-85.3408 184.38,-79.1316 173.797,-78.6321 175.795,-85.3408"/>
</g>
<!-- Node6 -->
<g id="node6" class="node"><title>Node6</title>
<g id="a_node6"><a xlink:href="../../da/d8a/classoperational_1_1iterator_1_1_list_iterator.html#abb9ec87938406dd6f4c77bae016e8a8a" target="_top" xlink:title="operational::iterator\l::ListIterator::CurrentItem">
<polygon fill="white" stroke="black" points="172,-0.5 172,-30.5 297,-30.5 297,-0.5 172,-0.5"/>
<text text-anchor="start" x="180" y="-18.5" font-family="Helvetica,sans-Serif" font-size="10.00">operational::iterator</text>
<text text-anchor="middle" x="234.5" y="-7.5" font-family="Helvetica,sans-Serif" font-size="10.00">::ListIterator::CurrentItem</text>
</a>
</g>
</g>
<!-- Node1&#45;&gt;Node6 -->
<g id="edge5" class="edge"><title>Node1&#45;&gt;Node6</title>
<path fill="none" stroke="midnightblue" d="M87.4994,-98.3954C107.48,-82.5698 140.671,-57.6697 172,-40.5 175.639,-38.5059 179.47,-36.5783 183.368,-34.7378"/>
<polygon fill="midnightblue" stroke="midnightblue" points="184.846,-37.9109 192.525,-30.6115 181.97,-31.5289 184.846,-37.9109"/>
</g>
</g>
</svg>
