<?xml version="1.0" encoding="UTF-8" standalone="no"?>
<!DOCTYPE svg PUBLIC "-//W3C//DTD SVG 1.1//EN"
 "http://www.w3.org/Graphics/SVG/1.1/DTD/svg11.dtd">
<!-- Generated by graphviz version 2.38.0 (20140413.2041)
 -->
<!-- Title: src/structural/src/composite/bus.h Pages: 1 -->
<svg width="252pt" height="117pt"
 viewBox="0.00 0.00 252.00 117.00" xmlns="http://www.w3.org/2000/svg" xmlns:xlink="http://www.w3.org/1999/xlink">
<g id="graph0" class="graph" transform="scale(1 1) rotate(0) translate(4 113)">
<title>src/structural/src/composite/bus.h</title>
<polygon fill="white" stroke="none" points="-4,4 -4,-113 248,-113 248,4 -4,4"/>
<!-- Node1 -->
<g id="node1" class="node"><title>Node1</title>
<polygon fill="#bfbfbf" stroke="black" points="67.5,-78.5 67.5,-108.5 159.5,-108.5 159.5,-78.5 67.5,-78.5"/>
<text text-anchor="start" x="75.5" y="-96.5" font-family="Helvetica,sans-Serif" font-size="10.00">src/structural/src</text>
<text text-anchor="middle" x="113.5" y="-85.5" font-family="Helvetica,sans-Serif" font-size="10.00">/composite/bus.h</text>
</g>
<!-- Node2 -->
<g id="node2" class="node"><title>Node2</title>
<g id="a_node2"><a xlink:href="../../d5/dbd/structural_2src_2composite_2bus_8cc.html" target="_top" xlink:title="src/structural/src\l/composite/bus.cc">
<polygon fill="white" stroke="black" points="0,-6 0,-36 97,-36 97,-6 0,-6"/>
<text text-anchor="start" x="8" y="-24" font-family="Helvetica,sans-Serif" font-size="10.00">src/structural/src</text>
<text text-anchor="middle" x="48.5" y="-13" font-family="Helvetica,sans-Serif" font-size="10.00">/composite/bus.cc</text>
</a>
</g>
</g>
<!-- Node1&#45;&gt;Node2 -->
<g id="edge1" class="edge"><title>Node1&#45;&gt;Node2</title>
<path fill="none" stroke="midnightblue" d="M93.552,-70.8641C83.1798,-59.6142 70.7923,-46.1786 61.6342,-36.2455"/>
<polygon fill="midnightblue" stroke="midnightblue" points="90.9946,-73.2537 100.346,-78.2333 96.141,-68.5087 90.9946,-73.2537"/>
</g>
<!-- Node3 -->
<g id="node3" class="node"><title>Node3</title>
<g id="a_node3"><a xlink:href="../../d3/dcb/composite__test_8cc.html" target="_top" xlink:title="src/structural_tests\l/src/composite/composite\l_test.cc">
<polygon fill="white" stroke="black" points="115,-0.5 115,-41.5 244,-41.5 244,-0.5 115,-0.5"/>
<text text-anchor="start" x="123" y="-29.5" font-family="Helvetica,sans-Serif" font-size="10.00">src/structural_tests</text>
<text text-anchor="start" x="123" y="-18.5" font-family="Helvetica,sans-Serif" font-size="10.00">/src/composite/composite</text>
<text text-anchor="middle" x="179.5" y="-7.5" font-family="Helvetica,sans-Serif" font-size="10.00">_test.cc</text>
</a>
</g>
</g>
<!-- Node1&#45;&gt;Node3 -->
<g id="edge2" class="edge"><title>Node1&#45;&gt;Node3</title>
<path fill="none" stroke="midnightblue" d="M133.795,-70.8213C142.527,-61.4941 152.659,-50.6707 161.162,-41.5884"/>
<polygon fill="midnightblue" stroke="midnightblue" points="131.135,-68.541 126.856,-78.2333 136.245,-73.325 131.135,-68.541"/>
</g>
</g>
</svg>
