<?xml version="1.0" encoding="UTF-8" standalone="no"?>
<!DOCTYPE svg PUBLIC "-//W3C//DTD SVG 1.1//EN"
 "http://www.w3.org/Graphics/SVG/1.1/DTD/svg11.dtd">
<!-- Generated by graphviz version 2.38.0 (20140413.2041)
 -->
<!-- Title: src/operational/src/state/tcp_state.h Pages: 1 -->
<svg width="550pt" height="173pt"
 viewBox="0.00 0.00 549.50 173.00" xmlns="http://www.w3.org/2000/svg" xmlns:xlink="http://www.w3.org/1999/xlink">
<g id="graph0" class="graph" transform="scale(1 1) rotate(0) translate(4 169)">
<title>src/operational/src/state/tcp_state.h</title>
<polygon fill="white" stroke="none" points="-4,4 -4,-169 545.5,-169 545.5,4 -4,4"/>
<!-- Node1 -->
<g id="node1" class="node"><title>Node1</title>
<polygon fill="#bfbfbf" stroke="black" points="264,-134.5 264,-164.5 361,-164.5 361,-134.5 264,-134.5"/>
<text text-anchor="start" x="272" y="-152.5" font-family="Helvetica,sans-Serif" font-size="10.00">src/operational/src</text>
<text text-anchor="middle" x="312.5" y="-141.5" font-family="Helvetica,sans-Serif" font-size="10.00">/state/tcp_state.h</text>
</g>
<!-- Node2 -->
<g id="node2" class="node"><title>Node2</title>
<g id="a_node2"><a xlink:href="../../d5/d99/tcp__closed_8h.html" target="_top" xlink:title="src/operational/src\l/state/tcp_closed.h">
<polygon fill="white" stroke="black" points="70.5,-67.5 70.5,-97.5 170.5,-97.5 170.5,-67.5 70.5,-67.5"/>
<text text-anchor="start" x="78.5" y="-85.5" font-family="Helvetica,sans-Serif" font-size="10.00">src/operational/src</text>
<text text-anchor="middle" x="120.5" y="-74.5" font-family="Helvetica,sans-Serif" font-size="10.00">/state/tcp_closed.h</text>
</a>
</g>
</g>
<!-- Node1&#45;&gt;Node2 -->
<g id="edge1" class="edge"><title>Node1&#45;&gt;Node2</title>
<path fill="none" stroke="midnightblue" d="M261.078,-131.092C230.084,-120.599 191.121,-107.408 162.08,-97.5765"/>
<polygon fill="midnightblue" stroke="midnightblue" points="260.245,-134.504 270.839,-134.396 262.489,-127.874 260.245,-134.504"/>
</g>
<!-- Node5 -->
<g id="node5" class="node"><title>Node5</title>
<g id="a_node5"><a xlink:href="../../d5/d08/tcp__established_8h.html" target="_top" xlink:title="src/operational/src\l/state/tcp_established.h">
<polygon fill="white" stroke="black" points="189,-67.5 189,-97.5 310,-97.5 310,-67.5 189,-67.5"/>
<text text-anchor="start" x="197" y="-85.5" font-family="Helvetica,sans-Serif" font-size="10.00">src/operational/src</text>
<text text-anchor="middle" x="249.5" y="-74.5" font-family="Helvetica,sans-Serif" font-size="10.00">/state/tcp_established.h</text>
</a>
</g>
</g>
<!-- Node1&#45;&gt;Node5 -->
<g id="edge4" class="edge"><title>Node1&#45;&gt;Node5</title>
<path fill="none" stroke="midnightblue" d="M291.685,-127.024C282.299,-117.34 271.476,-106.174 263.143,-97.5765"/>
<polygon fill="midnightblue" stroke="midnightblue" points="289.357,-129.651 298.83,-134.396 294.383,-124.779 289.357,-129.651"/>
</g>
<!-- Node7 -->
<g id="node7" class="node"><title>Node7</title>
<g id="a_node7"><a xlink:href="../../dd/d7a/tcp__listen_8h.html" target="_top" xlink:title="src/operational/src\l/state/tcp_listen.h">
<polygon fill="white" stroke="black" points="328,-67.5 328,-97.5 425,-97.5 425,-67.5 328,-67.5"/>
<text text-anchor="start" x="336" y="-85.5" font-family="Helvetica,sans-Serif" font-size="10.00">src/operational/src</text>
<text text-anchor="middle" x="376.5" y="-74.5" font-family="Helvetica,sans-Serif" font-size="10.00">/state/tcp_listen.h</text>
</a>
</g>
</g>
<!-- Node1&#45;&gt;Node7 -->
<g id="edge7" class="edge"><title>Node1&#45;&gt;Node7</title>
<path fill="none" stroke="midnightblue" d="M333.645,-127.024C343.181,-117.34 354.175,-106.174 362.64,-97.5765"/>
<polygon fill="midnightblue" stroke="midnightblue" points="330.909,-124.815 326.387,-134.396 335.897,-129.726 330.909,-124.815"/>
</g>
<!-- Node9 -->
<g id="node9" class="node"><title>Node9</title>
<g id="a_node9"><a xlink:href="../../d1/d58/tcp__state_8cc.html" target="_top" xlink:title="src/operational/src\l/state/tcp_state.cc">
<polygon fill="white" stroke="black" points="443.5,-67.5 443.5,-97.5 541.5,-97.5 541.5,-67.5 443.5,-67.5"/>
<text text-anchor="start" x="451.5" y="-85.5" font-family="Helvetica,sans-Serif" font-size="10.00">src/operational/src</text>
<text text-anchor="middle" x="492.5" y="-74.5" font-family="Helvetica,sans-Serif" font-size="10.00">/state/tcp_state.cc</text>
</a>
</g>
</g>
<!-- Node1&#45;&gt;Node9 -->
<g id="edge10" class="edge"><title>Node1&#45;&gt;Node9</title>
<path fill="none" stroke="midnightblue" d="M361.085,-130.955C390.081,-120.485 426.411,-107.366 453.519,-97.5765"/>
<polygon fill="midnightblue" stroke="midnightblue" points="359.774,-127.708 351.557,-134.396 362.152,-134.291 359.774,-127.708"/>
</g>
<!-- Node3 -->
<g id="node3" class="node"><title>Node3</title>
<g id="a_node3"><a xlink:href="../../df/d43/tcp__closed_8cc.html" target="_top" xlink:title="src/operational/src\l/state/tcp_closed.cc">
<polygon fill="white" stroke="black" points="0,-0.5 0,-30.5 105,-30.5 105,-0.5 0,-0.5"/>
<text text-anchor="start" x="8" y="-18.5" font-family="Helvetica,sans-Serif" font-size="10.00">src/operational/src</text>
<text text-anchor="middle" x="52.5" y="-7.5" font-family="Helvetica,sans-Serif" font-size="10.00">/state/tcp_closed.cc</text>
</a>
</g>
</g>
<!-- Node2&#45;&gt;Node3 -->
<g id="edge2" class="edge"><title>Node2&#45;&gt;Node3</title>
<path fill="none" stroke="midnightblue" d="M98.3335,-60.3115C88.1333,-50.5612 76.3095,-39.259 67.2262,-30.5765"/>
<polygon fill="midnightblue" stroke="midnightblue" points="96.0978,-63.0162 105.745,-67.396 100.935,-57.9561 96.0978,-63.0162"/>
</g>
<!-- Node4 -->
<g id="node4" class="node"><title>Node4</title>
<g id="a_node4"><a xlink:href="../../d6/d12/tcp__connection_8cc.html" target="_top" xlink:title="src/operational/src\l/state/tcp_connection.cc">
<polygon fill="white" stroke="black" points="123.5,-0.5 123.5,-30.5 247.5,-30.5 247.5,-0.5 123.5,-0.5"/>
<text text-anchor="start" x="131.5" y="-18.5" font-family="Helvetica,sans-Serif" font-size="10.00">src/operational/src</text>
<text text-anchor="middle" x="185.5" y="-7.5" font-family="Helvetica,sans-Serif" font-size="10.00">/state/tcp_connection.cc</text>
</a>
</g>
</g>
<!-- Node2&#45;&gt;Node4 -->
<g id="edge3" class="edge"><title>Node2&#45;&gt;Node4</title>
<path fill="none" stroke="midnightblue" d="M141.689,-60.3115C151.439,-50.5612 162.741,-39.259 171.423,-30.5765"/>
<polygon fill="midnightblue" stroke="midnightblue" points="139.2,-57.85 134.604,-67.396 144.15,-62.7998 139.2,-57.85"/>
</g>
<!-- Node5&#45;&gt;Node4 -->
<g id="edge5" class="edge"><title>Node5&#45;&gt;Node4</title>
<path fill="none" stroke="midnightblue" d="M228.355,-60.0243C218.819,-50.3398 207.825,-39.1739 199.36,-30.5765"/>
<polygon fill="midnightblue" stroke="midnightblue" points="226.103,-62.7259 235.613,-67.396 231.091,-57.8146 226.103,-62.7259"/>
</g>
<!-- Node6 -->
<g id="node6" class="node"><title>Node6</title>
<g id="a_node6"><a xlink:href="../../d3/d9d/tcp__established_8cc.html" target="_top" xlink:title="src/operational/src\l/state/tcp_established.cc">
<polygon fill="white" stroke="black" points="265.5,-0.5 265.5,-30.5 391.5,-30.5 391.5,-0.5 265.5,-0.5"/>
<text text-anchor="start" x="273.5" y="-18.5" font-family="Helvetica,sans-Serif" font-size="10.00">src/operational/src</text>
<text text-anchor="middle" x="328.5" y="-7.5" font-family="Helvetica,sans-Serif" font-size="10.00">/state/tcp_established.cc</text>
</a>
</g>
</g>
<!-- Node5&#45;&gt;Node6 -->
<g id="edge6" class="edge"><title>Node5&#45;&gt;Node6</title>
<path fill="none" stroke="midnightblue" d="M274.557,-60.8832C286.563,-51.0054 300.632,-39.4293 311.392,-30.5765"/>
<polygon fill="midnightblue" stroke="midnightblue" points="272.14,-58.3395 266.642,-67.396 276.588,-63.745 272.14,-58.3395"/>
</g>
<!-- Node7&#45;&gt;Node4 -->
<g id="edge8" class="edge"><title>Node7&#45;&gt;Node4</title>
<path fill="none" stroke="midnightblue" d="M325.346,-64.0917C294.513,-53.5988 255.753,-40.4082 226.863,-30.5765"/>
<polygon fill="midnightblue" stroke="midnightblue" points="324.461,-67.4876 335.056,-67.396 326.717,-60.8608 324.461,-67.4876"/>
</g>
<!-- Node8 -->
<g id="node8" class="node"><title>Node8</title>
<g id="a_node8"><a xlink:href="../../d5/d5e/tcp__listen_8cc.html" target="_top" xlink:title="src/operational/src\l/state/tcp_listen.cc">
<polygon fill="white" stroke="black" points="409.5,-0.5 409.5,-30.5 509.5,-30.5 509.5,-0.5 409.5,-0.5"/>
<text text-anchor="start" x="417.5" y="-18.5" font-family="Helvetica,sans-Serif" font-size="10.00">src/operational/src</text>
<text text-anchor="middle" x="459.5" y="-7.5" font-family="Helvetica,sans-Serif" font-size="10.00">/state/tcp_listen.cc</text>
</a>
</g>
</g>
<!-- Node7&#45;&gt;Node8 -->
<g id="edge9" class="edge"><title>Node7&#45;&gt;Node8</title>
<path fill="none" stroke="midnightblue" d="M402.463,-61.1677C415.155,-51.2283 430.112,-39.5144 441.525,-30.5765"/>
<polygon fill="midnightblue" stroke="midnightblue" points="400.225,-58.4747 394.51,-67.396 404.541,-63.9859 400.225,-58.4747"/>
</g>
</g>
</svg>
