<?xml version="1.0" encoding="UTF-8" standalone="no"?>
<!DOCTYPE svg PUBLIC "-//W3C//DTD SVG 1.1//EN"
 "http://www.w3.org/Graphics/SVG/1.1/DTD/svg11.dtd">
<!-- Generated by graphviz version 2.38.0 (20140413.2041)
 -->
<!-- Title: structural::bridge::WindowImp Pages: 1 -->
<svg width="212pt" height="237pt"
 viewBox="0.00 0.00 212.00 237.00" xmlns="http://www.w3.org/2000/svg" xmlns:xlink="http://www.w3.org/1999/xlink">
<g id="graph0" class="graph" transform="scale(1 1) rotate(0) translate(4 233)">
<title>structural::bridge::WindowImp</title>
<polygon fill="white" stroke="none" points="-4,4 -4,-233 208,-233 208,4 -4,4"/>
<!-- Node1 -->
<g id="node1" class="node"><title>Node1</title>
<polygon fill="#bfbfbf" stroke="black" points="59,-138.5 59,-228.5 148,-228.5 148,-138.5 59,-138.5"/>
<text text-anchor="start" x="67" y="-216.5" font-family="Helvetica,sans-Serif" font-size="10.00">structural::bridge</text>
<text text-anchor="middle" x="103.5" y="-205.5" font-family="Helvetica,sans-Serif" font-size="10.00">::WindowImp</text>
<polyline fill="none" stroke="black" points="59,-198.5 148,-198.5 "/>
<text text-anchor="middle" x="103.5" y="-186.5" font-family="Helvetica,sans-Serif" font-size="10.00"> </text>
<polyline fill="none" stroke="black" points="59,-179.5 148,-179.5 "/>
<text text-anchor="start" x="67" y="-167.5" font-family="Helvetica,sans-Serif" font-size="10.00">+ ~WindowImp()</text>
<text text-anchor="start" x="67" y="-156.5" font-family="Helvetica,sans-Serif" font-size="10.00">+ DeviceRect()</text>
<text text-anchor="start" x="67" y="-145.5" font-family="Helvetica,sans-Serif" font-size="10.00">+ DeviceText()</text>
</g>
<!-- Node2 -->
<g id="node2" class="node"><title>Node2</title>
<g id="a_node2"><a xlink:href="../../da/db5/classstructural_1_1bridge_1_1_p_m_window_imp.html" target="_top" xlink:title="{structural::bridge\l::PMWindowImp\n||+ PMWindowImp()\l+ DeviceRect()\l+ DeviceText()\l+ text()\l}">
<polygon fill="white" stroke="black" points="0,-0.5 0,-101.5 97,-101.5 97,-0.5 0,-0.5"/>
<text text-anchor="start" x="8" y="-89.5" font-family="Helvetica,sans-Serif" font-size="10.00">structural::bridge</text>
<text text-anchor="middle" x="48.5" y="-78.5" font-family="Helvetica,sans-Serif" font-size="10.00">::PMWindowImp</text>
<polyline fill="none" stroke="black" points="0,-71.5 97,-71.5 "/>
<text text-anchor="middle" x="48.5" y="-59.5" font-family="Helvetica,sans-Serif" font-size="10.00"> </text>
<polyline fill="none" stroke="black" points="0,-52.5 97,-52.5 "/>
<text text-anchor="start" x="8" y="-40.5" font-family="Helvetica,sans-Serif" font-size="10.00">+ PMWindowImp()</text>
<text text-anchor="start" x="8" y="-29.5" font-family="Helvetica,sans-Serif" font-size="10.00">+ DeviceRect()</text>
<text text-anchor="start" x="8" y="-18.5" font-family="Helvetica,sans-Serif" font-size="10.00">+ DeviceText()</text>
<text text-anchor="start" x="8" y="-7.5" font-family="Helvetica,sans-Serif" font-size="10.00">+ text()</text>
</a>
</g>
</g>
<!-- Node1&#45;&gt;Node2 -->
<g id="edge1" class="edge"><title>Node1&#45;&gt;Node2</title>
<path fill="none" stroke="midnightblue" d="M80.949,-128.993C77.1188,-119.905 73.1561,-110.502 69.3716,-101.523"/>
<polygon fill="none" stroke="midnightblue" points="77.7705,-130.463 84.8795,-138.319 84.221,-127.744 77.7705,-130.463"/>
</g>
<!-- Node3 -->
<g id="node3" class="node"><title>Node3</title>
<g id="a_node3"><a xlink:href="../../d1/da2/classstructural_1_1bridge_1_1_x_window_imp.html" target="_top" xlink:title="{structural::bridge\l::XWindowImp\n||+ XWindowImp()\l+ DeviceText()\l+ DeviceRect()\l+ text()\l}">
<polygon fill="white" stroke="black" points="115,-0.5 115,-101.5 204,-101.5 204,-0.5 115,-0.5"/>
<text text-anchor="start" x="123" y="-89.5" font-family="Helvetica,sans-Serif" font-size="10.00">structural::bridge</text>
<text text-anchor="middle" x="159.5" y="-78.5" font-family="Helvetica,sans-Serif" font-size="10.00">::XWindowImp</text>
<polyline fill="none" stroke="black" points="115,-71.5 204,-71.5 "/>
<text text-anchor="middle" x="159.5" y="-59.5" font-family="Helvetica,sans-Serif" font-size="10.00"> </text>
<polyline fill="none" stroke="black" points="115,-52.5 204,-52.5 "/>
<text text-anchor="start" x="123" y="-40.5" font-family="Helvetica,sans-Serif" font-size="10.00">+ XWindowImp()</text>
<text text-anchor="start" x="123" y="-29.5" font-family="Helvetica,sans-Serif" font-size="10.00">+ DeviceText()</text>
<text text-anchor="start" x="123" y="-18.5" font-family="Helvetica,sans-Serif" font-size="10.00">+ DeviceRect()</text>
<text text-anchor="start" x="123" y="-7.5" font-family="Helvetica,sans-Serif" font-size="10.00">+ text()</text>
</a>
</g>
</g>
<!-- Node1&#45;&gt;Node3 -->
<g id="edge2" class="edge"><title>Node1&#45;&gt;Node3</title>
<path fill="none" stroke="midnightblue" d="M126.461,-128.993C130.361,-119.905 134.396,-110.502 138.249,-101.523"/>
<polygon fill="none" stroke="midnightblue" points="123.186,-127.749 122.459,-138.319 129.619,-130.509 123.186,-127.749"/>
</g>
</g>
</svg>
