<?xml version="1.0" encoding="UTF-8" standalone="no"?>
<!DOCTYPE svg PUBLIC "-//W3C//DTD SVG 1.1//EN"
 "http://www.w3.org/Graphics/SVG/1.1/DTD/svg11.dtd">
<!-- Generated by graphviz version 2.38.0 (20140413.2041)
 -->
<!-- Title: creational::MazeGame Pages: 1 -->
<svg width="280pt" height="292pt"
 viewBox="0.00 0.00 280.00 292.00" xmlns="http://www.w3.org/2000/svg" xmlns:xlink="http://www.w3.org/1999/xlink">
<g id="graph0" class="graph" transform="scale(1 1) rotate(0) translate(4 288)">
<title>creational::MazeGame</title>
<polygon fill="white" stroke="none" points="-4,4 -4,-288 276,-288 276,4 -4,4"/>
<!-- Node1 -->
<g id="node1" class="node"><title>Node1</title>
<polygon fill="#bfbfbf" stroke="black" points="77.5,-138.5 77.5,-283.5 192.5,-283.5 192.5,-138.5 77.5,-138.5"/>
<text text-anchor="middle" x="135" y="-271.5" font-family="Helvetica,sans-Serif" font-size="10.00">creational::MazeGame</text>
<polyline fill="none" stroke="black" points="77.5,-264.5 192.5,-264.5 "/>
<text text-anchor="middle" x="135" y="-252.5" font-family="Helvetica,sans-Serif" font-size="10.00"> </text>
<polyline fill="none" stroke="black" points="77.5,-245.5 192.5,-245.5 "/>
<text text-anchor="start" x="85.5" y="-233.5" font-family="Helvetica,sans-Serif" font-size="10.00">+ ~MazeGame()</text>
<text text-anchor="start" x="85.5" y="-222.5" font-family="Helvetica,sans-Serif" font-size="10.00">+ CreateSimpleMaze()</text>
<text text-anchor="start" x="85.5" y="-211.5" font-family="Helvetica,sans-Serif" font-size="10.00">+ MakeMaze()</text>
<text text-anchor="start" x="85.5" y="-200.5" font-family="Helvetica,sans-Serif" font-size="10.00">+ MakeRoom()</text>
<text text-anchor="start" x="85.5" y="-189.5" font-family="Helvetica,sans-Serif" font-size="10.00">+ MakeWall()</text>
<text text-anchor="start" x="85.5" y="-178.5" font-family="Helvetica,sans-Serif" font-size="10.00">+ MakeDoor()</text>
<text text-anchor="start" x="85.5" y="-167.5" font-family="Helvetica,sans-Serif" font-size="10.00">+ CreateMaze()</text>
<text text-anchor="start" x="85.5" y="-156.5" font-family="Helvetica,sans-Serif" font-size="10.00">+ CreateMaze()</text>
<text text-anchor="start" x="85.5" y="-145.5" font-family="Helvetica,sans-Serif" font-size="10.00">+ CreateMaze()</text>
</g>
<!-- Node2 -->
<g id="node2" class="node"><title>Node2</title>
<g id="a_node2"><a xlink:href="../../d8/d85/classcreational_1_1factorymethod_1_1_bombed_maze_game.html" target="_top" xlink:title="{creational::factorymethod\l::BombedMazeGame\n||+ BombedMazeGame()\l+ MakeWall()\l+ MakeRoom()\l}">
<polygon fill="white" stroke="black" points="0,-6 0,-96 126,-96 126,-6 0,-6"/>
<text text-anchor="start" x="8" y="-84" font-family="Helvetica,sans-Serif" font-size="10.00">creational::factorymethod</text>
<text text-anchor="middle" x="63" y="-73" font-family="Helvetica,sans-Serif" font-size="10.00">::BombedMazeGame</text>
<polyline fill="none" stroke="black" points="0,-66 126,-66 "/>
<text text-anchor="middle" x="63" y="-54" font-family="Helvetica,sans-Serif" font-size="10.00"> </text>
<polyline fill="none" stroke="black" points="0,-47 126,-47 "/>
<text text-anchor="start" x="8" y="-35" font-family="Helvetica,sans-Serif" font-size="10.00">+ BombedMazeGame()</text>
<text text-anchor="start" x="8" y="-24" font-family="Helvetica,sans-Serif" font-size="10.00">+ MakeWall()</text>
<text text-anchor="start" x="8" y="-13" font-family="Helvetica,sans-Serif" font-size="10.00">+ MakeRoom()</text>
</a>
</g>
</g>
<!-- Node1&#45;&gt;Node2 -->
<g id="edge1" class="edge"><title>Node1&#45;&gt;Node2</title>
<path fill="none" stroke="midnightblue" d="M98.2148,-129.277C93.0284,-117.896 87.8638,-106.562 83.1518,-96.2219"/>
<polygon fill="none" stroke="midnightblue" points="95.0389,-130.748 102.371,-138.397 101.409,-127.846 95.0389,-130.748"/>
</g>
<!-- Node3 -->
<g id="node3" class="node"><title>Node3</title>
<g id="a_node3"><a xlink:href="../../d0/d01/classcreational_1_1factorymethod_1_1_enchanted_maze_game.html" target="_top" xlink:title="{creational::factorymethod\l::EnchantedMazeGame\n||+ EnchantedMazeGame()\l+ MakeRoom()\l+ MakeDoor()\l# WeaveSpell()\l}">
<polygon fill="white" stroke="black" points="144,-0.5 144,-101.5 272,-101.5 272,-0.5 144,-0.5"/>
<text text-anchor="start" x="152" y="-89.5" font-family="Helvetica,sans-Serif" font-size="10.00">creational::factorymethod</text>
<text text-anchor="middle" x="208" y="-78.5" font-family="Helvetica,sans-Serif" font-size="10.00">::EnchantedMazeGame</text>
<polyline fill="none" stroke="black" points="144,-71.5 272,-71.5 "/>
<text text-anchor="middle" x="208" y="-59.5" font-family="Helvetica,sans-Serif" font-size="10.00"> </text>
<polyline fill="none" stroke="black" points="144,-52.5 272,-52.5 "/>
<text text-anchor="start" x="152" y="-40.5" font-family="Helvetica,sans-Serif" font-size="10.00">+ EnchantedMazeGame()</text>
<text text-anchor="start" x="152" y="-29.5" font-family="Helvetica,sans-Serif" font-size="10.00">+ MakeRoom()</text>
<text text-anchor="start" x="152" y="-18.5" font-family="Helvetica,sans-Serif" font-size="10.00">+ MakeDoor()</text>
<text text-anchor="start" x="152" y="-7.5" font-family="Helvetica,sans-Serif" font-size="10.00"># WeaveSpell()</text>
</a>
</g>
</g>
<!-- Node1&#45;&gt;Node3 -->
<g id="edge2" class="edge"><title>Node1&#45;&gt;Node3</title>
<path fill="none" stroke="midnightblue" d="M172.395,-129.062C176.712,-119.72 181.011,-110.414 185.053,-101.667"/>
<polygon fill="none" stroke="midnightblue" points="169.1,-127.851 168.083,-138.397 175.454,-130.787 169.1,-127.851"/>
</g>
</g>
</svg>
