<?xml version="1.0" encoding="UTF-8" standalone="no"?>
<!DOCTYPE svg PUBLIC "-//W3C//DTD SVG 1.1//EN"
 "http://www.w3.org/Graphics/SVG/1.1/DTD/svg11.dtd">
<!-- Generated by graphviz version 2.38.0 (20140413.2041)
 -->
<!-- Title: operational::state::TcpState Pages: 1 -->
<svg width="326pt" height="336pt"
 viewBox="0.00 0.00 326.00 336.00" xmlns="http://www.w3.org/2000/svg" xmlns:xlink="http://www.w3.org/1999/xlink">
<g id="graph0" class="graph" transform="scale(1 1) rotate(0) translate(4 332)">
<title>operational::state::TcpState</title>
<polygon fill="white" stroke="none" points="-4,4 -4,-332 322,-332 322,4 -4,4"/>
<!-- Node1 -->
<g id="node1" class="node"><title>Node1</title>
<polygon fill="#bfbfbf" stroke="black" points="113,-160.5 113,-327.5 205,-327.5 205,-160.5 113,-160.5"/>
<text text-anchor="start" x="121" y="-315.5" font-family="Helvetica,sans-Serif" font-size="10.00">operational::state</text>
<text text-anchor="middle" x="159" y="-304.5" font-family="Helvetica,sans-Serif" font-size="10.00">::TcpState</text>
<polyline fill="none" stroke="black" points="113,-297.5 205,-297.5 "/>
<text text-anchor="middle" x="159" y="-285.5" font-family="Helvetica,sans-Serif" font-size="10.00"> </text>
<polyline fill="none" stroke="black" points="113,-278.5 205,-278.5 "/>
<text text-anchor="start" x="121" y="-266.5" font-family="Helvetica,sans-Serif" font-size="10.00">+ ~TcpState()</text>
<text text-anchor="start" x="121" y="-255.5" font-family="Helvetica,sans-Serif" font-size="10.00">+ Transmit()</text>
<text text-anchor="start" x="121" y="-244.5" font-family="Helvetica,sans-Serif" font-size="10.00">+ ActiveOpen()</text>
<text text-anchor="start" x="121" y="-233.5" font-family="Helvetica,sans-Serif" font-size="10.00">+ PassiveOpen()</text>
<text text-anchor="start" x="121" y="-222.5" font-family="Helvetica,sans-Serif" font-size="10.00">+ Close()</text>
<text text-anchor="start" x="121" y="-211.5" font-family="Helvetica,sans-Serif" font-size="10.00">+ Synchronize()</text>
<text text-anchor="start" x="121" y="-200.5" font-family="Helvetica,sans-Serif" font-size="10.00">+ Acknowledge()</text>
<text text-anchor="start" x="121" y="-189.5" font-family="Helvetica,sans-Serif" font-size="10.00">+ Send()</text>
<text text-anchor="start" x="121" y="-178.5" font-family="Helvetica,sans-Serif" font-size="10.00">+ Info()</text>
<text text-anchor="start" x="121" y="-167.5" font-family="Helvetica,sans-Serif" font-size="10.00"># ChangeState()</text>
</g>
<!-- Node2 -->
<g id="node2" class="node"><title>Node2</title>
<g id="a_node2"><a xlink:href="../../d0/de4/classoperational_1_1state_1_1_tcp_closed.html" target="_top" xlink:title="{operational::state\l::TcpClosed\n||+ TcpClosed()\l+ Initialize()\l+ ActiveOpen()\l+ PassiveOpen()\l+ Info()\l}">
<polygon fill="white" stroke="black" points="0,-6 0,-118 92,-118 92,-6 0,-6"/>
<text text-anchor="start" x="8" y="-106" font-family="Helvetica,sans-Serif" font-size="10.00">operational::state</text>
<text text-anchor="middle" x="46" y="-95" font-family="Helvetica,sans-Serif" font-size="10.00">::TcpClosed</text>
<polyline fill="none" stroke="black" points="0,-88 92,-88 "/>
<text text-anchor="middle" x="46" y="-76" font-family="Helvetica,sans-Serif" font-size="10.00"> </text>
<polyline fill="none" stroke="black" points="0,-69 92,-69 "/>
<text text-anchor="start" x="8" y="-57" font-family="Helvetica,sans-Serif" font-size="10.00">+ TcpClosed()</text>
<text text-anchor="start" x="8" y="-46" font-family="Helvetica,sans-Serif" font-size="10.00">+ Initialize()</text>
<text text-anchor="start" x="8" y="-35" font-family="Helvetica,sans-Serif" font-size="10.00">+ ActiveOpen()</text>
<text text-anchor="start" x="8" y="-24" font-family="Helvetica,sans-Serif" font-size="10.00">+ PassiveOpen()</text>
<text text-anchor="start" x="8" y="-13" font-family="Helvetica,sans-Serif" font-size="10.00">+ Info()</text>
</a>
</g>
</g>
<!-- Node1&#45;&gt;Node2 -->
<g id="edge1" class="edge"><title>Node1&#45;&gt;Node2</title>
<path fill="none" stroke="midnightblue" d="M107.524,-161.003C98.388,-146.45 89.0753,-131.616 80.5517,-118.038"/>
<polygon fill="none" stroke="midnightblue" points="104.594,-162.919 112.876,-169.527 110.523,-159.197 104.594,-162.919"/>
</g>
<!-- Node3 -->
<g id="node3" class="node"><title>Node3</title>
<g id="a_node3"><a xlink:href="../../d2/dd0/classoperational_1_1state_1_1_tcp_established.html" target="_top" xlink:title="{operational::state\l::TcpEstablished\n||+ TcpEstablished()\l+ Initialize()\l+ Transmit()\l+ Acknowledge()\l+ Close()\l+ Info()\l}">
<polygon fill="white" stroke="black" points="110,-0.5 110,-123.5 208,-123.5 208,-0.5 110,-0.5"/>
<text text-anchor="start" x="118" y="-111.5" font-family="Helvetica,sans-Serif" font-size="10.00">operational::state</text>
<text text-anchor="middle" x="159" y="-100.5" font-family="Helvetica,sans-Serif" font-size="10.00">::TcpEstablished</text>
<polyline fill="none" stroke="black" points="110,-93.5 208,-93.5 "/>
<text text-anchor="middle" x="159" y="-81.5" font-family="Helvetica,sans-Serif" font-size="10.00"> </text>
<polyline fill="none" stroke="black" points="110,-74.5 208,-74.5 "/>
<text text-anchor="start" x="118" y="-62.5" font-family="Helvetica,sans-Serif" font-size="10.00">+ TcpEstablished()</text>
<text text-anchor="start" x="118" y="-51.5" font-family="Helvetica,sans-Serif" font-size="10.00">+ Initialize()</text>
<text text-anchor="start" x="118" y="-40.5" font-family="Helvetica,sans-Serif" font-size="10.00">+ Transmit()</text>
<text text-anchor="start" x="118" y="-29.5" font-family="Helvetica,sans-Serif" font-size="10.00">+ Acknowledge()</text>
<text text-anchor="start" x="118" y="-18.5" font-family="Helvetica,sans-Serif" font-size="10.00">+ Close()</text>
<text text-anchor="start" x="118" y="-7.5" font-family="Helvetica,sans-Serif" font-size="10.00">+ Info()</text>
</a>
</g>
</g>
<!-- Node1&#45;&gt;Node3 -->
<g id="edge2" class="edge"><title>Node1&#45;&gt;Node3</title>
<path fill="none" stroke="midnightblue" d="M159,-150.194C159,-141.173 159,-132.189 159,-123.607"/>
<polygon fill="none" stroke="midnightblue" points="155.5,-150.375 159,-160.375 162.5,-150.375 155.5,-150.375"/>
</g>
<!-- Node4 -->
<g id="node4" class="node"><title>Node4</title>
<g id="a_node4"><a xlink:href="../../d7/db3/classoperational_1_1state_1_1_tcp_listen.html" target="_top" xlink:title="{operational::state\l::TcpListen\n||+ TcpListen()\l+ Initialize()\l+ Close()\l+ Send()\l+ Info()\l}">
<polygon fill="white" stroke="black" points="226,-6 226,-118 318,-118 318,-6 226,-6"/>
<text text-anchor="start" x="234" y="-106" font-family="Helvetica,sans-Serif" font-size="10.00">operational::state</text>
<text text-anchor="middle" x="272" y="-95" font-family="Helvetica,sans-Serif" font-size="10.00">::TcpListen</text>
<polyline fill="none" stroke="black" points="226,-88 318,-88 "/>
<text text-anchor="middle" x="272" y="-76" font-family="Helvetica,sans-Serif" font-size="10.00"> </text>
<polyline fill="none" stroke="black" points="226,-69 318,-69 "/>
<text text-anchor="start" x="234" y="-57" font-family="Helvetica,sans-Serif" font-size="10.00">+ TcpListen()</text>
<text text-anchor="start" x="234" y="-46" font-family="Helvetica,sans-Serif" font-size="10.00">+ Initialize()</text>
<text text-anchor="start" x="234" y="-35" font-family="Helvetica,sans-Serif" font-size="10.00">+ Close()</text>
<text text-anchor="start" x="234" y="-24" font-family="Helvetica,sans-Serif" font-size="10.00">+ Send()</text>
<text text-anchor="start" x="234" y="-13" font-family="Helvetica,sans-Serif" font-size="10.00">+ Info()</text>
</a>
</g>
</g>
<!-- Node1&#45;&gt;Node4 -->
<g id="edge3" class="edge"><title>Node1&#45;&gt;Node4</title>
<path fill="none" stroke="midnightblue" d="M210.476,-161.003C219.612,-146.45 228.925,-131.616 237.448,-118.038"/>
<polygon fill="none" stroke="midnightblue" points="207.477,-159.197 205.124,-169.527 213.406,-162.919 207.477,-159.197"/>
</g>
</g>
</svg>
