<?xml version="1.0" encoding="UTF-8" standalone="no"?>
<!DOCTYPE svg PUBLIC "-//W3C//DTD SVG 1.1//EN"
 "http://www.w3.org/Graphics/SVG/1.1/DTD/svg11.dtd">
<!-- Generated by graphviz version 2.38.0 (20140413.2041)
 -->
<!-- Title: operational::observer::AnalogClock Pages: 1 -->
<svg width="288pt" height="237pt"
 viewBox="0.00 0.00 288.00 237.00" xmlns="http://www.w3.org/2000/svg" xmlns:xlink="http://www.w3.org/1999/xlink">
<g id="graph0" class="graph" transform="scale(1 1) rotate(0) translate(4 233)">
<title>operational::observer::AnalogClock</title>
<polygon fill="white" stroke="none" points="-4,4 -4,-233 284,-233 284,4 -4,4"/>
<!-- Node1 -->
<g id="node1" class="node"><title>Node1</title>
<polygon fill="#bfbfbf" stroke="black" points="92.5,-0.5 92.5,-112.5 198.5,-112.5 198.5,-0.5 92.5,-0.5"/>
<text text-anchor="start" x="100.5" y="-100.5" font-family="Helvetica,sans-Serif" font-size="10.00">operational::observer</text>
<text text-anchor="middle" x="145.5" y="-89.5" font-family="Helvetica,sans-Serif" font-size="10.00">::AnalogClock</text>
<polyline fill="none" stroke="black" points="92.5,-82.5 198.5,-82.5 "/>
<text text-anchor="middle" x="145.5" y="-70.5" font-family="Helvetica,sans-Serif" font-size="10.00"> </text>
<polyline fill="none" stroke="black" points="92.5,-63.5 198.5,-63.5 "/>
<text text-anchor="start" x="100.5" y="-51.5" font-family="Helvetica,sans-Serif" font-size="10.00">+ AnalogClock()</text>
<text text-anchor="start" x="100.5" y="-40.5" font-family="Helvetica,sans-Serif" font-size="10.00">+ ~AnalogClock()</text>
<text text-anchor="start" x="100.5" y="-29.5" font-family="Helvetica,sans-Serif" font-size="10.00">+ OnClockTick()</text>
<text text-anchor="start" x="100.5" y="-18.5" font-family="Helvetica,sans-Serif" font-size="10.00">+ Draw()</text>
<text text-anchor="start" x="100.5" y="-7.5" font-family="Helvetica,sans-Serif" font-size="10.00">+ formated_time()</text>
</g>
<!-- Node2 -->
<g id="node2" class="node"><title>Node2</title>
<g id="a_node2"><a xlink:href="../../d8/db9/classoperational_1_1observer_1_1_observer_widget_interface.html" target="_top" xlink:title="{operational::observer\l::ObserverWidgetInterface\n||+ ~ObserverWidgetInterface()\l+ Draw()\l}">
<polygon fill="white" stroke="black" points="0,-149.5 0,-228.5 143,-228.5 143,-149.5 0,-149.5"/>
<text text-anchor="start" x="8" y="-216.5" font-family="Helvetica,sans-Serif" font-size="10.00">operational::observer</text>
<text text-anchor="middle" x="71.5" y="-205.5" font-family="Helvetica,sans-Serif" font-size="10.00">::ObserverWidgetInterface</text>
<polyline fill="none" stroke="black" points="0,-198.5 143,-198.5 "/>
<text text-anchor="middle" x="71.5" y="-186.5" font-family="Helvetica,sans-Serif" font-size="10.00"> </text>
<polyline fill="none" stroke="black" points="0,-179.5 143,-179.5 "/>
<text text-anchor="start" x="8" y="-167.5" font-family="Helvetica,sans-Serif" font-size="10.00">+ ~ObserverWidgetInterface()</text>
<text text-anchor="start" x="8" y="-156.5" font-family="Helvetica,sans-Serif" font-size="10.00">+ Draw()</text>
</a>
</g>
</g>
<!-- Node2&#45;&gt;Node1 -->
<g id="edge1" class="edge"><title>Node2&#45;&gt;Node1</title>
<path fill="none" stroke="midnightblue" d="M98.4815,-140.418C103.568,-131.448 108.927,-121.997 114.134,-112.814"/>
<polygon fill="none" stroke="midnightblue" points="95.3902,-138.774 93.5021,-149.199 101.479,-142.227 95.3902,-138.774"/>
</g>
<!-- Node3 -->
<g id="node3" class="node"><title>Node3</title>
<g id="a_node3"><a xlink:href="../../df/d1a/classoperational_1_1observer_1_1_clock_tick_observer.html" target="_top" xlink:title="{operational::observer\l::ClockTickObserver\n||+ ~ClockTickObserver()\l+ OnClockTick()\l}">
<polygon fill="white" stroke="black" points="161,-149.5 161,-228.5 280,-228.5 280,-149.5 161,-149.5"/>
<text text-anchor="start" x="169" y="-216.5" font-family="Helvetica,sans-Serif" font-size="10.00">operational::observer</text>
<text text-anchor="middle" x="220.5" y="-205.5" font-family="Helvetica,sans-Serif" font-size="10.00">::ClockTickObserver</text>
<polyline fill="none" stroke="black" points="161,-198.5 280,-198.5 "/>
<text text-anchor="middle" x="220.5" y="-186.5" font-family="Helvetica,sans-Serif" font-size="10.00"> </text>
<polyline fill="none" stroke="black" points="161,-179.5 280,-179.5 "/>
<text text-anchor="start" x="169" y="-167.5" font-family="Helvetica,sans-Serif" font-size="10.00">+ ~ClockTickObserver()</text>
<text text-anchor="start" x="169" y="-156.5" font-family="Helvetica,sans-Serif" font-size="10.00">+ OnClockTick()</text>
</a>
</g>
</g>
<!-- Node3&#45;&gt;Node1 -->
<g id="edge2" class="edge"><title>Node3&#45;&gt;Node1</title>
<path fill="none" stroke="midnightblue" d="M193.154,-140.418C187.999,-131.448 182.567,-121.997 177.29,-112.814"/>
<polygon fill="none" stroke="midnightblue" points="190.183,-142.273 198.201,-149.199 196.252,-138.785 190.183,-142.273"/>
</g>
</g>
</svg>
