<?xml version="1.0" encoding="UTF-8" standalone="no"?>
<!DOCTYPE svg PUBLIC "-//W3C//DTD SVG 1.1//EN"
 "http://www.w3.org/Graphics/SVG/1.1/DTD/svg11.dtd">
<!-- Generated by graphviz version 2.38.0 (20140413.2041)
 -->
<!-- Title: src/operational/src/iterator/filtering_list_traverser.h Pages: 1 -->
<svg width="204pt" height="274pt"
 viewBox="0.00 0.00 203.50 274.00" xmlns="http://www.w3.org/2000/svg" xmlns:xlink="http://www.w3.org/1999/xlink">
<g id="graph0" class="graph" transform="scale(1 1) rotate(0) translate(4 270)">
<title>src/operational/src/iterator/filtering_list_traverser.h</title>
<polygon fill="white" stroke="none" points="-4,4 -4,-270 199.5,-270 199.5,4 -4,4"/>
<!-- Node1 -->
<g id="node1" class="node"><title>Node1</title>
<polygon fill="#bfbfbf" stroke="black" points="62,-224.5 62,-265.5 159,-265.5 159,-224.5 62,-224.5"/>
<text text-anchor="start" x="70" y="-253.5" font-family="Helvetica,sans-Serif" font-size="10.00">src/operational/src</text>
<text text-anchor="start" x="70" y="-242.5" font-family="Helvetica,sans-Serif" font-size="10.00">/iterator/filtering</text>
<text text-anchor="middle" x="110.5" y="-231.5" font-family="Helvetica,sans-Serif" font-size="10.00">_list_traverser.h</text>
</g>
<!-- Node2 -->
<g id="node2" class="node"><title>Node2</title>
<g id="a_node2"><a xlink:href="../../da/d23/list_8h.html" target="_top" xlink:title="list.h">
<polygon fill="white" stroke="black" points="132.5,-112.5 132.5,-131.5 170.5,-131.5 170.5,-112.5 132.5,-112.5"/>
<text text-anchor="middle" x="151.5" y="-119.5" font-family="Helvetica,sans-Serif" font-size="10.00">list.h</text>
</a>
</g>
</g>
<!-- Node1&#45;&gt;Node2 -->
<g id="edge1" class="edge"><title>Node1&#45;&gt;Node2</title>
<path fill="none" stroke="midnightblue" d="M133.964,-224.406C143.856,-214.62 154.275,-201.907 159.5,-188 165.124,-173.033 162.155,-154.895 158.337,-141.587"/>
<polygon fill="midnightblue" stroke="midnightblue" points="161.543,-140.13 155.1,-131.719 154.891,-142.312 161.543,-140.13"/>
</g>
<!-- Node3 -->
<g id="node3" class="node"><title>Node3</title>
<g id="a_node3"><a xlink:href="../../d9/d71/list__iterator_8h.html" target="_top" xlink:title="list_iterator.h">
<polygon fill="white" stroke="black" points="54,-56.5 54,-75.5 127,-75.5 127,-56.5 54,-56.5"/>
<text text-anchor="middle" x="90.5" y="-63.5" font-family="Helvetica,sans-Serif" font-size="10.00">list_iterator.h</text>
</a>
</g>
</g>
<!-- Node1&#45;&gt;Node3 -->
<g id="edge6" class="edge"><title>Node1&#45;&gt;Node3</title>
<path fill="none" stroke="midnightblue" d="M87.0359,-224.406C77.1442,-214.62 66.7254,-201.907 61.5,-188 48.1371,-152.435 66.8227,-108.627 79.8285,-84.6882"/>
<polygon fill="midnightblue" stroke="midnightblue" points="83.026,-86.1468 84.9447,-75.7271 76.947,-82.6761 83.026,-86.1468"/>
</g>
<!-- Node6 -->
<g id="node6" class="node"><title>Node6</title>
<g id="a_node6"><a xlink:href="../../d3/df0/list__traverser_8h.html" target="_top" xlink:title="list_traverser.h">
<polygon fill="white" stroke="black" points="70.5,-168.5 70.5,-187.5 150.5,-187.5 150.5,-168.5 70.5,-168.5"/>
<text text-anchor="middle" x="110.5" y="-175.5" font-family="Helvetica,sans-Serif" font-size="10.00">list_traverser.h</text>
</a>
</g>
</g>
<!-- Node1&#45;&gt;Node6 -->
<g id="edge7" class="edge"><title>Node1&#45;&gt;Node6</title>
<path fill="none" stroke="midnightblue" d="M110.5,-224.498C110.5,-216.065 110.5,-206.235 110.5,-197.874"/>
<polygon fill="midnightblue" stroke="midnightblue" points="114,-197.652 110.5,-187.652 107,-197.653 114,-197.652"/>
</g>
<!-- Node2&#45;&gt;Node3 -->
<g id="edge2" class="edge"><title>Node2&#45;&gt;Node3</title>
<path fill="none" stroke="midnightblue" d="M141.699,-112.324C132.682,-104.341 119.094,-92.3128 108.182,-82.6529"/>
<polygon fill="midnightblue" stroke="midnightblue" points="110.287,-79.8416 100.479,-75.8339 105.647,-85.083 110.287,-79.8416"/>
</g>
<!-- Node5 -->
<g id="node5" class="node"><title>Node5</title>
<g id="a_node5"><a xlink:href="../../dd/d8c/list__interface_8h.html" target="_top" xlink:title="list_interface.h">
<polygon fill="white" stroke="black" points="115.5,-0.5 115.5,-19.5 195.5,-19.5 195.5,-0.5 115.5,-0.5"/>
<text text-anchor="middle" x="155.5" y="-7.5" font-family="Helvetica,sans-Serif" font-size="10.00">list_interface.h</text>
</a>
</g>
</g>
<!-- Node2&#45;&gt;Node5 -->
<g id="edge5" class="edge"><title>Node2&#45;&gt;Node5</title>
<path fill="none" stroke="midnightblue" d="M151.814,-112.368C152.459,-94.617 153.948,-53.6664 154.824,-29.5974"/>
<polygon fill="midnightblue" stroke="midnightblue" points="158.322,-29.712 155.188,-19.5914 151.326,-29.4576 158.322,-29.712"/>
</g>
<!-- Node4 -->
<g id="node4" class="node"><title>Node4</title>
<g id="a_node4"><a xlink:href="../../d6/da4/iterator__interface_8h.html" target="_top" xlink:title="iterator_interface.h">
<polygon fill="white" stroke="black" points="0,-0.5 0,-19.5 97,-19.5 97,-0.5 0,-0.5"/>
<text text-anchor="middle" x="48.5" y="-7.5" font-family="Helvetica,sans-Serif" font-size="10.00">iterator_interface.h</text>
</a>
</g>
</g>
<!-- Node3&#45;&gt;Node4 -->
<g id="edge3" class="edge"><title>Node3&#45;&gt;Node4</title>
<path fill="none" stroke="midnightblue" d="M83.5646,-56.083C77.5708,-48.3768 68.7482,-37.0333 61.4524,-27.6531"/>
<polygon fill="midnightblue" stroke="midnightblue" points="64.2086,-25.4958 55.3064,-19.7511 58.6831,-29.7934 64.2086,-25.4958"/>
</g>
<!-- Node3&#45;&gt;Node5 -->
<g id="edge4" class="edge"><title>Node3&#45;&gt;Node5</title>
<path fill="none" stroke="midnightblue" d="M100.943,-56.324C110.646,-48.2631 125.315,-36.0765 137,-26.3695"/>
<polygon fill="midnightblue" stroke="midnightblue" points="139.411,-28.9163 144.867,-19.8339 134.938,-23.532 139.411,-28.9163"/>
</g>
<!-- Node6&#45;&gt;Node2 -->
<g id="edge8" class="edge"><title>Node6&#45;&gt;Node2</title>
<path fill="none" stroke="midnightblue" d="M117.27,-168.083C123.062,-160.455 131.558,-149.264 138.638,-139.941"/>
<polygon fill="midnightblue" stroke="midnightblue" points="141.596,-141.832 144.856,-131.751 136.021,-137.599 141.596,-141.832"/>
</g>
<!-- Node6&#45;&gt;Node3 -->
<g id="edge9" class="edge"><title>Node6&#45;&gt;Node3</title>
<path fill="none" stroke="midnightblue" d="M108.931,-168.368C105.703,-150.617 98.2575,-109.666 93.8814,-85.5974"/>
<polygon fill="midnightblue" stroke="midnightblue" points="97.2946,-84.804 92.0621,-75.5914 90.4075,-86.0562 97.2946,-84.804"/>
</g>
</g>
</svg>
