<?xml version="1.0" encoding="UTF-8" standalone="no"?>
<!DOCTYPE svg PUBLIC "-//W3C//DTD SVG 1.1//EN"
 "http://www.w3.org/Graphics/SVG/1.1/DTD/svg11.dtd">
<!-- Generated by graphviz version 2.38.0 (20140413.2041)
 -->
<!-- Title: structural::decorator::StreamDecorator Pages: 1 -->
<svg width="250pt" height="375pt"
 viewBox="0.00 0.00 250.00 375.00" xmlns="http://www.w3.org/2000/svg" xmlns:xlink="http://www.w3.org/1999/xlink">
<g id="graph0" class="graph" transform="scale(1 1) rotate(0) translate(4 371)">
<title>structural::decorator::StreamDecorator</title>
<polygon fill="white" stroke="none" points="-4,4 -4,-371 246,-371 246,4 -4,4"/>
<!-- Node1 -->
<g id="node1" class="node"><title>Node1</title>
<polygon fill="#bfbfbf" stroke="black" points="64.5,-149.5 64.5,-239.5 169.5,-239.5 169.5,-149.5 64.5,-149.5"/>
<text text-anchor="start" x="72.5" y="-227.5" font-family="Helvetica,sans-Serif" font-size="10.00">structural::decorator</text>
<text text-anchor="middle" x="117" y="-216.5" font-family="Helvetica,sans-Serif" font-size="10.00">::StreamDecorator</text>
<polyline fill="none" stroke="black" points="64.5,-209.5 169.5,-209.5 "/>
<text text-anchor="start" x="72.5" y="-197.5" font-family="Helvetica,sans-Serif" font-size="10.00"># component_</text>
<polyline fill="none" stroke="black" points="64.5,-190.5 169.5,-190.5 "/>
<text text-anchor="start" x="72.5" y="-178.5" font-family="Helvetica,sans-Serif" font-size="10.00">+ StreamDecorator()</text>
<text text-anchor="start" x="72.5" y="-167.5" font-family="Helvetica,sans-Serif" font-size="10.00">+ PutInt()</text>
<text text-anchor="start" x="72.5" y="-156.5" font-family="Helvetica,sans-Serif" font-size="10.00">+ PutString()</text>
</g>
<!-- Node3 -->
<g id="node3" class="node"><title>Node3</title>
<g id="a_node3"><a xlink:href="../../da/dfb/classstructural_1_1decorator_1_1_a_s_c_i_i7_stream.html" target="_top" xlink:title="{structural::decorator\l::ASCII7Stream\n||+ ASCII7Stream()\l+ PutInt()\l+ PutString()\l+ value()\l+ message()\l}">
<polygon fill="white" stroke="black" points="0,-0.5 0,-112.5 104,-112.5 104,-0.5 0,-0.5"/>
<text text-anchor="start" x="8" y="-100.5" font-family="Helvetica,sans-Serif" font-size="10.00">structural::decorator</text>
<text text-anchor="middle" x="52" y="-89.5" font-family="Helvetica,sans-Serif" font-size="10.00">::ASCII7Stream</text>
<polyline fill="none" stroke="black" points="0,-82.5 104,-82.5 "/>
<text text-anchor="middle" x="52" y="-70.5" font-family="Helvetica,sans-Serif" font-size="10.00"> </text>
<polyline fill="none" stroke="black" points="0,-63.5 104,-63.5 "/>
<text text-anchor="start" x="8" y="-51.5" font-family="Helvetica,sans-Serif" font-size="10.00">+ ASCII7Stream()</text>
<text text-anchor="start" x="8" y="-40.5" font-family="Helvetica,sans-Serif" font-size="10.00">+ PutInt()</text>
<text text-anchor="start" x="8" y="-29.5" font-family="Helvetica,sans-Serif" font-size="10.00">+ PutString()</text>
<text text-anchor="start" x="8" y="-18.5" font-family="Helvetica,sans-Serif" font-size="10.00">+ value()</text>
<text text-anchor="start" x="8" y="-7.5" font-family="Helvetica,sans-Serif" font-size="10.00">+ message()</text>
</a>
</g>
</g>
<!-- Node1&#45;&gt;Node3 -->
<g id="edge2" class="edge"><title>Node1&#45;&gt;Node3</title>
<path fill="none" stroke="midnightblue" d="M91.5074,-140.162C87.2238,-131.199 82.7696,-121.88 78.4622,-112.867"/>
<polygon fill="none" stroke="midnightblue" points="88.4262,-141.832 95.8964,-149.345 94.742,-138.813 88.4262,-141.832"/>
</g>
<!-- Node4 -->
<g id="node4" class="node"><title>Node4</title>
<g id="a_node4"><a xlink:href="../../d6/d17/classstructural_1_1decorator_1_1_compressing_stream.html" target="_top" xlink:title="{structural::decorator\l::CompressingStream\n||+ CompressingStream()\l+ PutInt()\l+ PutString()\l+ value()\l+ message()\l}">
<polygon fill="white" stroke="black" points="122,-0.5 122,-112.5 242,-112.5 242,-0.5 122,-0.5"/>
<text text-anchor="start" x="130" y="-100.5" font-family="Helvetica,sans-Serif" font-size="10.00">structural::decorator</text>
<text text-anchor="middle" x="182" y="-89.5" font-family="Helvetica,sans-Serif" font-size="10.00">::CompressingStream</text>
<polyline fill="none" stroke="black" points="122,-82.5 242,-82.5 "/>
<text text-anchor="middle" x="182" y="-70.5" font-family="Helvetica,sans-Serif" font-size="10.00"> </text>
<polyline fill="none" stroke="black" points="122,-63.5 242,-63.5 "/>
<text text-anchor="start" x="130" y="-51.5" font-family="Helvetica,sans-Serif" font-size="10.00">+ CompressingStream()</text>
<text text-anchor="start" x="130" y="-40.5" font-family="Helvetica,sans-Serif" font-size="10.00">+ PutInt()</text>
<text text-anchor="start" x="130" y="-29.5" font-family="Helvetica,sans-Serif" font-size="10.00">+ PutString()</text>
<text text-anchor="start" x="130" y="-18.5" font-family="Helvetica,sans-Serif" font-size="10.00">+ value()</text>
<text text-anchor="start" x="130" y="-7.5" font-family="Helvetica,sans-Serif" font-size="10.00">+ message()</text>
</a>
</g>
</g>
<!-- Node1&#45;&gt;Node4 -->
<g id="edge3" class="edge"><title>Node1&#45;&gt;Node4</title>
<path fill="none" stroke="midnightblue" d="M142.493,-140.162C146.776,-131.199 151.23,-121.88 155.538,-112.867"/>
<polygon fill="none" stroke="midnightblue" points="139.258,-138.813 138.104,-149.345 145.574,-141.832 139.258,-138.813"/>
</g>
<!-- Node2 -->
<g id="node2" class="node"><title>Node2</title>
<g id="a_node2"><a xlink:href="../../d1/dbf/classstructural_1_1decorator_1_1_stream_interface.html" target="_top" xlink:title="{structural::decorator\l::StreamInterface\n||+ ~StreamInterface()\l+ PutInt()\l+ PutString()\l}">
<polygon fill="white" stroke="black" points="64,-276.5 64,-366.5 170,-366.5 170,-276.5 64,-276.5"/>
<text text-anchor="start" x="72" y="-354.5" font-family="Helvetica,sans-Serif" font-size="10.00">structural::decorator</text>
<text text-anchor="middle" x="117" y="-343.5" font-family="Helvetica,sans-Serif" font-size="10.00">::StreamInterface</text>
<polyline fill="none" stroke="black" points="64,-336.5 170,-336.5 "/>
<text text-anchor="middle" x="117" y="-324.5" font-family="Helvetica,sans-Serif" font-size="10.00"> </text>
<polyline fill="none" stroke="black" points="64,-317.5 170,-317.5 "/>
<text text-anchor="start" x="72" y="-305.5" font-family="Helvetica,sans-Serif" font-size="10.00">+ ~StreamInterface()</text>
<text text-anchor="start" x="72" y="-294.5" font-family="Helvetica,sans-Serif" font-size="10.00">+ PutInt()</text>
<text text-anchor="start" x="72" y="-283.5" font-family="Helvetica,sans-Serif" font-size="10.00">+ PutString()</text>
</a>
</g>
</g>
<!-- Node2&#45;&gt;Node1 -->
<g id="edge1" class="edge"><title>Node2&#45;&gt;Node1</title>
<path fill="none" stroke="midnightblue" d="M117,-266.157C117,-257.282 117,-248.183 117,-239.594"/>
<polygon fill="none" stroke="midnightblue" points="113.5,-266.43 117,-276.43 120.5,-266.43 113.5,-266.43"/>
</g>
</g>
</svg>
