<?xml version="1.0" encoding="UTF-8" standalone="no"?>
<!DOCTYPE svg PUBLIC "-//W3C//DTD SVG 1.1//EN"
 "http://www.w3.org/Graphics/SVG/1.1/DTD/svg11.dtd">
<!-- Generated by graphviz version 2.38.0 (20140413.2041)
 -->
<!-- Title: src/creational/src/mazeparts/enchanted_room.h Pages: 1 -->
<svg width="255pt" height="162pt"
 viewBox="0.00 0.00 255.00 162.00" xmlns="http://www.w3.org/2000/svg" xmlns:xlink="http://www.w3.org/1999/xlink">
<g id="graph0" class="graph" transform="scale(1 1) rotate(0) translate(4 158)">
<title>src/creational/src/mazeparts/enchanted_room.h</title>
<polygon fill="white" stroke="none" points="-4,4 -4,-158 251,-158 251,4 -4,4"/>
<!-- Node1 -->
<g id="node1" class="node"><title>Node1</title>
<polygon fill="#bfbfbf" stroke="black" points="133,-112.5 133,-153.5 246,-153.5 246,-112.5 133,-112.5"/>
<text text-anchor="start" x="141" y="-141.5" font-family="Helvetica,sans-Serif" font-size="10.00">src/creational/src</text>
<text text-anchor="start" x="141" y="-130.5" font-family="Helvetica,sans-Serif" font-size="10.00">/mazeparts/enchanted</text>
<text text-anchor="middle" x="189.5" y="-119.5" font-family="Helvetica,sans-Serif" font-size="10.00">_room.h</text>
</g>
<!-- Node2 -->
<g id="node2" class="node"><title>Node2</title>
<g id="a_node2"><a xlink:href="../../d9/dc0/room_8h.html" target="_top" xlink:title="room.h">
<polygon fill="white" stroke="black" points="133,-56.5 133,-75.5 180,-75.5 180,-56.5 133,-56.5"/>
<text text-anchor="middle" x="156.5" y="-63.5" font-family="Helvetica,sans-Serif" font-size="10.00">room.h</text>
</a>
</g>
</g>
<!-- Node1&#45;&gt;Node2 -->
<g id="edge1" class="edge"><title>Node1&#45;&gt;Node2</title>
<path fill="none" stroke="midnightblue" d="M179.599,-112.498C175.123,-103.682 169.872,-93.3385 165.508,-84.7432"/>
<polygon fill="midnightblue" stroke="midnightblue" points="168.541,-82.9847 160.893,-75.6525 162.299,-86.1536 168.541,-82.9847"/>
</g>
<!-- Node5 -->
<g id="node5" class="node"><title>Node5</title>
<g id="a_node5"><a xlink:href="../../d4/de3/spell_8h.html" target="_top" xlink:title="spell.h">
<polygon fill="white" stroke="black" points="201,-56.5 201,-75.5 246,-75.5 246,-56.5 201,-56.5"/>
<text text-anchor="middle" x="223.5" y="-63.5" font-family="Helvetica,sans-Serif" font-size="10.00">spell.h</text>
</a>
</g>
</g>
<!-- Node1&#45;&gt;Node5 -->
<g id="edge4" class="edge"><title>Node1&#45;&gt;Node5</title>
<path fill="none" stroke="midnightblue" d="M199.701,-112.498C204.312,-103.682 209.723,-93.3385 214.219,-84.7432"/>
<polygon fill="midnightblue" stroke="midnightblue" points="217.44,-86.1357 218.974,-75.6525 211.238,-82.8912 217.44,-86.1357"/>
</g>
<!-- Node3 -->
<g id="node3" class="node"><title>Node3</title>
<g id="a_node3"><a xlink:href="../../db/d1a/map__site__interface_8h.html" target="_top" xlink:title="map_site_interface.h">
<polygon fill="white" stroke="black" points="0,-0.5 0,-19.5 107,-19.5 107,-0.5 0,-0.5"/>
<text text-anchor="middle" x="53.5" y="-7.5" font-family="Helvetica,sans-Serif" font-size="10.00">map_site_interface.h</text>
</a>
</g>
</g>
<!-- Node2&#45;&gt;Node3 -->
<g id="edge2" class="edge"><title>Node2&#45;&gt;Node3</title>
<path fill="none" stroke="midnightblue" d="M139.951,-56.324C123.508,-47.7034 98.0652,-34.3643 79.0316,-24.3855"/>
<polygon fill="midnightblue" stroke="midnightblue" points="80.4895,-21.198 70.0077,-19.6545 77.2391,-27.3977 80.4895,-21.198"/>
</g>
<!-- Node4 -->
<g id="node4" class="node"><title>Node4</title>
<g id="a_node4"><a xlink:href="../../dd/d04/direction_8h.html" target="_top" xlink:title="direction.h">
<polygon fill="white" stroke="black" points="125.5,-0.5 125.5,-19.5 187.5,-19.5 187.5,-0.5 125.5,-0.5"/>
<text text-anchor="middle" x="156.5" y="-7.5" font-family="Helvetica,sans-Serif" font-size="10.00">direction.h</text>
</a>
</g>
</g>
<!-- Node2&#45;&gt;Node4 -->
<g id="edge3" class="edge"><title>Node2&#45;&gt;Node4</title>
<path fill="none" stroke="midnightblue" d="M156.5,-56.083C156.5,-49.0059 156.5,-38.8611 156.5,-29.9865"/>
<polygon fill="midnightblue" stroke="midnightblue" points="160,-29.751 156.5,-19.7511 153,-29.7511 160,-29.751"/>
</g>
<!-- Node6 -->
<g id="node6" class="node"><title>Node6</title>
<polygon fill="white" stroke="#bfbfbf" points="206,-0.5 206,-19.5 247,-19.5 247,-0.5 206,-0.5"/>
<text text-anchor="middle" x="226.5" y="-7.5" font-family="Helvetica,sans-Serif" font-size="10.00">string</text>
</g>
<!-- Node5&#45;&gt;Node6 -->
<g id="edge5" class="edge"><title>Node5&#45;&gt;Node6</title>
<path fill="none" stroke="midnightblue" d="M223.995,-56.083C224.389,-49.0059 224.952,-38.8611 225.445,-29.9865"/>
<polygon fill="midnightblue" stroke="midnightblue" points="228.954,-29.9299 226.014,-19.7511 221.964,-29.5415 228.954,-29.9299"/>
</g>
</g>
</svg>
