<?xml version="1.0" encoding="UTF-8" standalone="no"?>
<!DOCTYPE svg PUBLIC "-//W3C//DTD SVG 1.1//EN"
 "http://www.w3.org/Graphics/SVG/1.1/DTD/svg11.dtd">
<!-- Generated by graphviz version 2.38.0 (20140413.2041)
 -->
<!-- Title: src/operational/src/observer/analog_clock.h Pages: 1 -->
<svg width="518pt" height="319pt"
 viewBox="0.00 0.00 518.00 319.00" xmlns="http://www.w3.org/2000/svg" xmlns:xlink="http://www.w3.org/1999/xlink">
<g id="graph0" class="graph" transform="scale(1 1) rotate(0) translate(4 315)">
<title>src/operational/src/observer/analog_clock.h</title>
<polygon fill="white" stroke="none" points="-4,4 -4,-315 514,-315 514,4 -4,4"/>
<!-- Node1 -->
<g id="node1" class="node"><title>Node1</title>
<polygon fill="#bfbfbf" stroke="black" points="135,-280.5 135,-310.5 259,-310.5 259,-280.5 135,-280.5"/>
<text text-anchor="start" x="143" y="-298.5" font-family="Helvetica,sans-Serif" font-size="10.00">src/operational/src</text>
<text text-anchor="middle" x="197" y="-287.5" font-family="Helvetica,sans-Serif" font-size="10.00">/observer/analog_clock.h</text>
</g>
<!-- Node2 -->
<g id="node2" class="node"><title>Node2</title>
<g id="a_node2"><a xlink:href="../../de/d05/observer__widget__interface_8h.html" target="_top" xlink:title="observer_widget_interface.h">
<polygon fill="white" stroke="black" points="0,-224.5 0,-243.5 136,-243.5 136,-224.5 0,-224.5"/>
<text text-anchor="middle" x="68" y="-231.5" font-family="Helvetica,sans-Serif" font-size="10.00">observer_widget_interface.h</text>
</a>
</g>
</g>
<!-- Node1&#45;&gt;Node2 -->
<g id="edge1" class="edge"><title>Node1&#45;&gt;Node2</title>
<path fill="none" stroke="midnightblue" d="M166.429,-280.399C145.075,-270.55 116.785,-257.501 96.0151,-247.922"/>
<polygon fill="midnightblue" stroke="midnightblue" points="97.3172,-244.668 86.7706,-243.658 94.3853,-251.024 97.3172,-244.668"/>
</g>
<!-- Node3 -->
<g id="node3" class="node"><title>Node3</title>
<g id="a_node3"><a xlink:href="../../d0/d6a/clock__tick__observer_8h.html" target="_top" xlink:title="clock_tick_observer.h">
<polygon fill="white" stroke="black" points="166,-56.5 166,-75.5 276,-75.5 276,-56.5 166,-56.5"/>
<text text-anchor="middle" x="221" y="-63.5" font-family="Helvetica,sans-Serif" font-size="10.00">clock_tick_observer.h</text>
</a>
</g>
</g>
<!-- Node1&#45;&gt;Node3 -->
<g id="edge2" class="edge"><title>Node1&#45;&gt;Node3</title>
<path fill="none" stroke="midnightblue" d="M191.897,-280.133C188.629,-270.143 184.693,-256.441 183,-244 175.006,-185.243 199.436,-116.953 212.838,-85.0965"/>
<polygon fill="midnightblue" stroke="midnightblue" points="216.122,-86.3225 216.898,-75.7562 209.702,-83.5321 216.122,-86.3225"/>
</g>
<!-- Node4 -->
<g id="node4" class="node"><title>Node4</title>
<g id="a_node4"><a xlink:href="../../d7/d97/clock__timer_8h.html" target="_top" xlink:title="clock_timer.h">
<polygon fill="white" stroke="black" points="192.5,-224.5 192.5,-243.5 267.5,-243.5 267.5,-224.5 192.5,-224.5"/>
<text text-anchor="middle" x="230" y="-231.5" font-family="Helvetica,sans-Serif" font-size="10.00">clock_timer.h</text>
</a>
</g>
</g>
<!-- Node1&#45;&gt;Node4 -->
<g id="edge3" class="edge"><title>Node1&#45;&gt;Node4</title>
<path fill="none" stroke="midnightblue" d="M204.821,-280.399C209.468,-272.021 215.399,-261.327 220.337,-252.423"/>
<polygon fill="midnightblue" stroke="midnightblue" points="223.409,-254.1 225.198,-243.658 217.287,-250.705 223.409,-254.1"/>
</g>
<!-- Node11 -->
<g id="node11" class="node"><title>Node11</title>
<polygon fill="white" stroke="#bfbfbf" points="285.5,-224.5 285.5,-243.5 326.5,-243.5 326.5,-224.5 285.5,-224.5"/>
<text text-anchor="middle" x="306" y="-231.5" font-family="Helvetica,sans-Serif" font-size="10.00">string</text>
</g>
<!-- Node1&#45;&gt;Node11 -->
<g id="edge14" class="edge"><title>Node1&#45;&gt;Node11</title>
<path fill="none" stroke="midnightblue" d="M222.831,-280.399C240.467,-270.773 263.7,-258.09 281.128,-248.577"/>
<polygon fill="midnightblue" stroke="midnightblue" points="283.039,-251.521 290.14,-243.658 279.685,-245.377 283.039,-251.521"/>
</g>
<!-- Node4&#45;&gt;Node3 -->
<g id="edge4" class="edge"><title>Node4&#45;&gt;Node3</title>
<path fill="none" stroke="midnightblue" d="M229.516,-224.075C228.099,-197.945 223.939,-121.211 222.007,-85.577"/>
<polygon fill="midnightblue" stroke="midnightblue" points="225.501,-85.3639 221.465,-75.5681 218.511,-85.743 225.501,-85.3639"/>
</g>
<!-- Node5 -->
<g id="node5" class="node"><title>Node5</title>
<g id="a_node5"><a xlink:href="../../d8/da8/clock__tick_8h.html" target="_top" xlink:title="clock_tick.h">
<polygon fill="white" stroke="black" points="259.5,-168.5 259.5,-187.5 328.5,-187.5 328.5,-168.5 259.5,-168.5"/>
<text text-anchor="middle" x="294" y="-175.5" font-family="Helvetica,sans-Serif" font-size="10.00">clock_tick.h</text>
</a>
</g>
</g>
<!-- Node4&#45;&gt;Node5 -->
<g id="edge5" class="edge"><title>Node4&#45;&gt;Node5</title>
<path fill="none" stroke="midnightblue" d="M240.283,-224.324C249.836,-216.263 264.28,-204.077 275.784,-194.369"/>
<polygon fill="midnightblue" stroke="midnightblue" points="278.144,-196.958 283.53,-187.834 273.63,-191.608 278.144,-196.958"/>
</g>
<!-- Node5&#45;&gt;Node3 -->
<g id="edge6" class="edge"><title>Node5&#45;&gt;Node3</title>
<path fill="none" stroke="midnightblue" d="M286.671,-168.294C279.329,-159.414 267.877,-145.114 259,-132 248.49,-116.473 237.828,-97.9395 230.484,-84.6432"/>
<polygon fill="midnightblue" stroke="midnightblue" points="233.431,-82.7377 225.572,-75.6329 227.285,-86.0883 233.431,-82.7377"/>
</g>
<!-- Node6 -->
<g id="node6" class="node"><title>Node6</title>
<g id="a_node6"><a xlink:href="../../d6/db3/clock__tick__interface_8h.html" target="_top" xlink:title="clock_tick_interface.h">
<polygon fill="white" stroke="black" points="268.5,-112.5 268.5,-131.5 379.5,-131.5 379.5,-112.5 268.5,-112.5"/>
<text text-anchor="middle" x="324" y="-119.5" font-family="Helvetica,sans-Serif" font-size="10.00">clock_tick_interface.h</text>
</a>
</g>
</g>
<!-- Node5&#45;&gt;Node6 -->
<g id="edge7" class="edge"><title>Node5&#45;&gt;Node6</title>
<path fill="none" stroke="midnightblue" d="M298.954,-168.083C303.104,-160.613 309.153,-149.724 314.267,-140.52"/>
<polygon fill="midnightblue" stroke="midnightblue" points="317.341,-142.192 319.138,-131.751 311.222,-138.793 317.341,-142.192"/>
</g>
<!-- Node7 -->
<g id="node7" class="node"><title>Node7</title>
<g id="a_node7"><a xlink:href="../../da/d23/list_8h.html" target="_top" xlink:title="../iterator/list.h">
<polygon fill="white" stroke="black" points="398,-112.5 398,-131.5 478,-131.5 478,-112.5 398,-112.5"/>
<text text-anchor="middle" x="438" y="-119.5" font-family="Helvetica,sans-Serif" font-size="10.00">../iterator/list.h</text>
</a>
</g>
</g>
<!-- Node5&#45;&gt;Node7 -->
<g id="edge9" class="edge"><title>Node5&#45;&gt;Node7</title>
<path fill="none" stroke="midnightblue" d="M316.817,-168.444C340.832,-159.438 378.829,-145.189 405.869,-135.049"/>
<polygon fill="midnightblue" stroke="midnightblue" points="407.155,-138.305 415.29,-131.516 404.697,-131.751 407.155,-138.305"/>
</g>
<!-- Node6&#45;&gt;Node3 -->
<g id="edge8" class="edge"><title>Node6&#45;&gt;Node3</title>
<path fill="none" stroke="midnightblue" d="M307.451,-112.324C291.008,-103.703 265.565,-90.3643 246.532,-80.3855"/>
<polygon fill="midnightblue" stroke="midnightblue" points="247.989,-77.198 237.508,-75.6545 244.739,-83.3977 247.989,-77.198"/>
</g>
<!-- Node8 -->
<g id="node8" class="node"><title>Node8</title>
<g id="a_node8"><a xlink:href="../../d9/d71/list__iterator_8h.html" target="_top" xlink:title="list_iterator.h">
<polygon fill="white" stroke="black" points="368.5,-56.5 368.5,-75.5 441.5,-75.5 441.5,-56.5 368.5,-56.5"/>
<text text-anchor="middle" x="405" y="-63.5" font-family="Helvetica,sans-Serif" font-size="10.00">list_iterator.h</text>
</a>
</g>
</g>
<!-- Node7&#45;&gt;Node8 -->
<g id="edge10" class="edge"><title>Node7&#45;&gt;Node8</title>
<path fill="none" stroke="midnightblue" d="M432.551,-112.083C427.986,-104.613 421.332,-93.7244 415.707,-84.5199"/>
<polygon fill="midnightblue" stroke="midnightblue" points="418.549,-82.4588 410.348,-75.7511 412.576,-86.109 418.549,-82.4588"/>
</g>
<!-- Node10 -->
<g id="node10" class="node"><title>Node10</title>
<g id="a_node10"><a xlink:href="../../dd/d8c/list__interface_8h.html" target="_top" xlink:title="list_interface.h">
<polygon fill="white" stroke="black" points="430,-0.5 430,-19.5 510,-19.5 510,-0.5 430,-0.5"/>
<text text-anchor="middle" x="470" y="-7.5" font-family="Helvetica,sans-Serif" font-size="10.00">list_interface.h</text>
</a>
</g>
</g>
<!-- Node7&#45;&gt;Node10 -->
<g id="edge13" class="edge"><title>Node7&#45;&gt;Node10</title>
<path fill="none" stroke="midnightblue" d="M440.511,-112.368C445.698,-94.5366 457.696,-53.2953 464.685,-29.2717"/>
<polygon fill="midnightblue" stroke="midnightblue" points="468.068,-30.1711 467.501,-19.5914 461.347,-28.2157 468.068,-30.1711"/>
</g>
<!-- Node9 -->
<g id="node9" class="node"><title>Node9</title>
<g id="a_node9"><a xlink:href="../../d6/da4/iterator__interface_8h.html" target="_top" xlink:title="iterator_interface.h">
<polygon fill="white" stroke="black" points="314.5,-0.5 314.5,-19.5 411.5,-19.5 411.5,-0.5 314.5,-0.5"/>
<text text-anchor="middle" x="363" y="-7.5" font-family="Helvetica,sans-Serif" font-size="10.00">iterator_interface.h</text>
</a>
</g>
</g>
<!-- Node8&#45;&gt;Node9 -->
<g id="edge11" class="edge"><title>Node8&#45;&gt;Node9</title>
<path fill="none" stroke="midnightblue" d="M398.065,-56.083C392.071,-48.3768 383.248,-37.0333 375.952,-27.6531"/>
<polygon fill="midnightblue" stroke="midnightblue" points="378.709,-25.4958 369.806,-19.7511 373.183,-29.7934 378.709,-25.4958"/>
</g>
<!-- Node8&#45;&gt;Node10 -->
<g id="edge12" class="edge"><title>Node8&#45;&gt;Node10</title>
<path fill="none" stroke="midnightblue" d="M415.443,-56.324C425.146,-48.2631 439.815,-36.0765 451.5,-26.3695"/>
<polygon fill="midnightblue" stroke="midnightblue" points="453.911,-28.9163 459.367,-19.8339 449.438,-23.532 453.911,-28.9163"/>
</g>
</g>
</svg>
