<?xml version="1.0" encoding="UTF-8" standalone="no"?>
<!DOCTYPE svg PUBLIC "-//W3C//DTD SVG 1.1//EN"
 "http://www.w3.org/Graphics/SVG/1.1/DTD/svg11.dtd">
<!-- Generated by graphviz version 2.38.0 (20140413.2041)
 -->
<!-- Title: structural::proxy::ImageProxy::HandleMouse Pages: 1 -->
<svg width="294pt" height="88pt"
 viewBox="0.00 0.00 294.00 88.00" xmlns="http://www.w3.org/2000/svg" xmlns:xlink="http://www.w3.org/1999/xlink">
<g id="graph0" class="graph" transform="scale(1 1) rotate(0) translate(4 84)">
<title>structural::proxy::ImageProxy::HandleMouse</title>
<polygon fill="white" stroke="none" points="-4,4 -4,-84 290,-84 290,4 -4,4"/>
<!-- Node1 -->
<g id="node1" class="node"><title>Node1</title>
<polygon fill="#bfbfbf" stroke="black" points="0,-24.5 0,-54.5 134,-54.5 134,-24.5 0,-24.5"/>
<text text-anchor="start" x="8" y="-42.5" font-family="Helvetica,sans-Serif" font-size="10.00">structural::proxy::</text>
<text text-anchor="middle" x="67" y="-31.5" font-family="Helvetica,sans-Serif" font-size="10.00">ImageProxy::HandleMouse</text>
</g>
<!-- Node2 -->
<g id="node2" class="node"><title>Node2</title>
<g id="a_node2"><a xlink:href="../../d9/d2c/classstructural_1_1proxy_1_1_image_proxy.html#a87ff8fc4a40d347638e1bbf068230fea" target="_top" xlink:title="structural::proxy::\lImageProxy::GetImage">
<polygon fill="white" stroke="black" points="170,-49.5 170,-79.5 286,-79.5 286,-49.5 170,-49.5"/>
<text text-anchor="start" x="178" y="-67.5" font-family="Helvetica,sans-Serif" font-size="10.00">structural::proxy::</text>
<text text-anchor="middle" x="228" y="-56.5" font-family="Helvetica,sans-Serif" font-size="10.00">ImageProxy::GetImage</text>
</a>
</g>
</g>
<!-- Node1&#45;&gt;Node2 -->
<g id="edge1" class="edge"><title>Node1&#45;&gt;Node2</title>
<path fill="none" stroke="midnightblue" d="M134.049,-49.8851C142.573,-51.2254 151.31,-52.5991 159.852,-53.9421"/>
<polygon fill="midnightblue" stroke="midnightblue" points="159.343,-57.405 169.765,-55.5008 160.43,-50.4899 159.343,-57.405"/>
</g>
<!-- Node3 -->
<g id="node3" class="node"><title>Node3</title>
<g id="a_node3"><a xlink:href="../../dd/d5a/classstructural_1_1proxy_1_1_image.html#aaa7cdc906866e70e1a9ca53c2a56f1eb" target="_top" xlink:title="structural::proxy::\lImage::HandleMouse">
<polygon fill="white" stroke="black" points="174,-0.5 174,-30.5 282,-30.5 282,-0.5 174,-0.5"/>
<text text-anchor="start" x="182" y="-18.5" font-family="Helvetica,sans-Serif" font-size="10.00">structural::proxy::</text>
<text text-anchor="middle" x="228" y="-7.5" font-family="Helvetica,sans-Serif" font-size="10.00">Image::HandleMouse</text>
</a>
</g>
</g>
<!-- Node1&#45;&gt;Node3 -->
<g id="edge2" class="edge"><title>Node1&#45;&gt;Node3</title>
<path fill="none" stroke="midnightblue" d="M134.049,-29.5303C143.928,-28.0392 154.092,-26.505 163.907,-25.0235"/>
<polygon fill="midnightblue" stroke="midnightblue" points="164.617,-28.456 173.983,-23.5026 163.572,-21.5344 164.617,-28.456"/>
</g>
</g>
</svg>
