<?xml version="1.0" encoding="UTF-8" standalone="no"?>
<!DOCTYPE svg PUBLIC "-//W3C//DTD SVG 1.1//EN"
 "http://www.w3.org/Graphics/SVG/1.1/DTD/svg11.dtd">
<!-- Generated by graphviz version 2.38.0 (20140413.2041)
 -->
<!-- Title: structural::proxy::ImageProxy::GetExtent Pages: 1 -->
<svg width="279pt" height="88pt"
 viewBox="0.00 0.00 279.00 88.00" xmlns="http://www.w3.org/2000/svg" xmlns:xlink="http://www.w3.org/1999/xlink">
<g id="graph0" class="graph" transform="scale(1 1) rotate(0) translate(4 84)">
<title>structural::proxy::ImageProxy::GetExtent</title>
<polygon fill="white" stroke="none" points="-4,4 -4,-84 275,-84 275,4 -4,4"/>
<!-- Node1 -->
<g id="node1" class="node"><title>Node1</title>
<polygon fill="#bfbfbf" stroke="black" points="0,-24.5 0,-54.5 119,-54.5 119,-24.5 0,-24.5"/>
<text text-anchor="start" x="8" y="-42.5" font-family="Helvetica,sans-Serif" font-size="10.00">structural::proxy::</text>
<text text-anchor="middle" x="59.5" y="-31.5" font-family="Helvetica,sans-Serif" font-size="10.00">ImageProxy::GetExtent</text>
</g>
<!-- Node2 -->
<g id="node2" class="node"><title>Node2</title>
<g id="a_node2"><a xlink:href="../../d9/d2c/classstructural_1_1proxy_1_1_image_proxy.html#a87ff8fc4a40d347638e1bbf068230fea" target="_top" xlink:title="structural::proxy::\lImageProxy::GetImage">
<polygon fill="white" stroke="black" points="155,-49.5 155,-79.5 271,-79.5 271,-49.5 155,-49.5"/>
<text text-anchor="start" x="163" y="-67.5" font-family="Helvetica,sans-Serif" font-size="10.00">structural::proxy::</text>
<text text-anchor="middle" x="213" y="-56.5" font-family="Helvetica,sans-Serif" font-size="10.00">ImageProxy::GetImage</text>
</a>
</g>
</g>
<!-- Node1&#45;&gt;Node2 -->
<g id="edge1" class="edge"><title>Node1&#45;&gt;Node2</title>
<path fill="none" stroke="midnightblue" d="M119.074,-49.1657C127.452,-50.5483 136.127,-51.9797 144.658,-53.3874"/>
<polygon fill="midnightblue" stroke="midnightblue" points="144.143,-56.8497 154.579,-55.0246 145.283,-49.9431 144.143,-56.8497"/>
</g>
<!-- Node3 -->
<g id="node3" class="node"><title>Node3</title>
<g id="a_node3"><a xlink:href="../../dd/d5a/classstructural_1_1proxy_1_1_image.html#afa769568e71b2e6475cd30e6a33396a5" target="_top" xlink:title="structural::proxy::\lImage::GetExtent">
<polygon fill="white" stroke="black" points="166.5,-0.5 166.5,-30.5 259.5,-30.5 259.5,-0.5 166.5,-0.5"/>
<text text-anchor="start" x="174.5" y="-18.5" font-family="Helvetica,sans-Serif" font-size="10.00">structural::proxy::</text>
<text text-anchor="middle" x="213" y="-7.5" font-family="Helvetica,sans-Serif" font-size="10.00">Image::GetExtent</text>
</a>
</g>
</g>
<!-- Node1&#45;&gt;Node3 -->
<g id="edge2" class="edge"><title>Node1&#45;&gt;Node3</title>
<path fill="none" stroke="midnightblue" d="M119.074,-30.221C131.304,-28.2836 144.164,-26.2463 156.286,-24.3259"/>
<polygon fill="midnightblue" stroke="midnightblue" points="156.936,-27.7667 166.266,-22.745 155.841,-20.8529 156.936,-27.7667"/>
</g>
</g>
</svg>
