<?xml version="1.0" encoding="UTF-8" standalone="no"?>
<!DOCTYPE svg PUBLIC "-//W3C//DTD SVG 1.1//EN"
 "http://www.w3.org/Graphics/SVG/1.1/DTD/svg11.dtd">
<!-- Generated by graphviz version 2.38.0 (20140413.2041)
 -->
<!-- Title: structural::proxy::ImageProxy::GetImage Pages: 1 -->
<svg width="294pt" height="137pt"
 viewBox="0.00 0.00 294.00 137.00" xmlns="http://www.w3.org/2000/svg" xmlns:xlink="http://www.w3.org/1999/xlink">
<g id="graph0" class="graph" transform="scale(1 1) rotate(0) translate(4 133)">
<title>structural::proxy::ImageProxy::GetImage</title>
<polygon fill="white" stroke="none" points="-4,4 -4,-133 290,-133 290,4 -4,4"/>
<!-- Node1 -->
<g id="node1" class="node"><title>Node1</title>
<polygon fill="#bfbfbf" stroke="black" points="0,-49.5 0,-79.5 116,-79.5 116,-49.5 0,-49.5"/>
<text text-anchor="start" x="8" y="-67.5" font-family="Helvetica,sans-Serif" font-size="10.00">structural::proxy::</text>
<text text-anchor="middle" x="58" y="-56.5" font-family="Helvetica,sans-Serif" font-size="10.00">ImageProxy::GetImage</text>
</g>
<!-- Node2 -->
<g id="node2" class="node"><title>Node2</title>
<g id="a_node2"><a xlink:href="../../d9/d2c/classstructural_1_1proxy_1_1_image_proxy.html#a8776c3c03a04149fd9b1c858507cf134" target="_top" xlink:title="structural::proxy::\lImageProxy::GetExtent">
<polygon fill="white" stroke="black" points="159.5,-98.5 159.5,-128.5 278.5,-128.5 278.5,-98.5 159.5,-98.5"/>
<text text-anchor="start" x="167.5" y="-116.5" font-family="Helvetica,sans-Serif" font-size="10.00">structural::proxy::</text>
<text text-anchor="middle" x="219" y="-105.5" font-family="Helvetica,sans-Serif" font-size="10.00">ImageProxy::GetExtent</text>
</a>
</g>
</g>
<!-- Node1&#45;&gt;Node2 -->
<g id="edge1" class="edge"><title>Node1&#45;&gt;Node2</title>
<path fill="none" stroke="midnightblue" d="M117.775,-82.6129C134.678,-87.8222 152.926,-93.4457 169.159,-98.4484"/>
<polygon fill="midnightblue" stroke="midnightblue" points="118.59,-79.2018 108.003,-79.6014 116.528,-85.8914 118.59,-79.2018"/>
</g>
<!-- Node3 -->
<g id="node3" class="node"><title>Node3</title>
<g id="a_node3"><a xlink:href="../../d9/d2c/classstructural_1_1proxy_1_1_image_proxy.html#a7105d5b869b5dbe266ee25a58211a701" target="_top" xlink:title="structural::proxy::\lImageProxy::Draw">
<polygon fill="white" stroke="black" points="171,-49.5 171,-79.5 267,-79.5 267,-49.5 171,-49.5"/>
<text text-anchor="start" x="179" y="-67.5" font-family="Helvetica,sans-Serif" font-size="10.00">structural::proxy::</text>
<text text-anchor="middle" x="219" y="-56.5" font-family="Helvetica,sans-Serif" font-size="10.00">ImageProxy::Draw</text>
</a>
</g>
</g>
<!-- Node1&#45;&gt;Node3 -->
<g id="edge2" class="edge"><title>Node1&#45;&gt;Node3</title>
<path fill="none" stroke="midnightblue" d="M126.604,-64.5C141.51,-64.5 156.986,-64.5 170.873,-64.5"/>
<polygon fill="midnightblue" stroke="midnightblue" points="126.403,-61.0001 116.403,-64.5 126.403,-68.0001 126.403,-61.0001"/>
</g>
<!-- Node4 -->
<g id="node4" class="node"><title>Node4</title>
<g id="a_node4"><a xlink:href="../../d9/d2c/classstructural_1_1proxy_1_1_image_proxy.html#ad8e5c38b13434fffcb2bc9f2b1838a1c" target="_top" xlink:title="structural::proxy::\lImageProxy::HandleMouse">
<polygon fill="white" stroke="black" points="152,-0.5 152,-30.5 286,-30.5 286,-0.5 152,-0.5"/>
<text text-anchor="start" x="160" y="-18.5" font-family="Helvetica,sans-Serif" font-size="10.00">structural::proxy::</text>
<text text-anchor="middle" x="219" y="-7.5" font-family="Helvetica,sans-Serif" font-size="10.00">ImageProxy::HandleMouse</text>
</a>
</g>
</g>
<!-- Node1&#45;&gt;Node4 -->
<g id="edge3" class="edge"><title>Node1&#45;&gt;Node4</title>
<path fill="none" stroke="midnightblue" d="M117.775,-46.3871C134.678,-41.1778 152.926,-35.5543 169.159,-30.5516"/>
<polygon fill="midnightblue" stroke="midnightblue" points="116.528,-43.1086 108.003,-49.3986 118.59,-49.7982 116.528,-43.1086"/>
</g>
</g>
</svg>
