<?xml version="1.0" encoding="UTF-8" standalone="no"?>
<!DOCTYPE svg PUBLIC "-//W3C//DTD SVG 1.1//EN"
 "http://www.w3.org/Graphics/SVG/1.1/DTD/svg11.dtd">
<!-- Generated by graphviz version 2.38.0 (20140413.2041)
 -->
<!-- Title: structural::proxy::ImageProxy::Draw Pages: 1 -->
<svg width="398pt" height="112pt"
 viewBox="0.00 0.00 398.00 112.00" xmlns="http://www.w3.org/2000/svg" xmlns:xlink="http://www.w3.org/1999/xlink">
<g id="graph0" class="graph" transform="scale(1 1) rotate(0) translate(4 108)">
<title>structural::proxy::ImageProxy::Draw</title>
<polygon fill="white" stroke="none" points="-4,4 -4,-108 394,-108 394,4 -4,4"/>
<!-- Node1 -->
<g id="node1" class="node"><title>Node1</title>
<polygon fill="#bfbfbf" stroke="black" points="0,-48.5 0,-78.5 96,-78.5 96,-48.5 0,-48.5"/>
<text text-anchor="start" x="8" y="-66.5" font-family="Helvetica,sans-Serif" font-size="10.00">structural::proxy::</text>
<text text-anchor="middle" x="48" y="-55.5" font-family="Helvetica,sans-Serif" font-size="10.00">ImageProxy::Draw</text>
</g>
<!-- Node2 -->
<g id="node2" class="node"><title>Node2</title>
<g id="a_node2"><a xlink:href="../../d9/d2c/classstructural_1_1proxy_1_1_image_proxy.html#a87ff8fc4a40d347638e1bbf068230fea" target="_top" xlink:title="structural::proxy::\lImageProxy::GetImage">
<polygon fill="white" stroke="black" points="132,-73.5 132,-103.5 248,-103.5 248,-73.5 132,-73.5"/>
<text text-anchor="start" x="140" y="-91.5" font-family="Helvetica,sans-Serif" font-size="10.00">structural::proxy::</text>
<text text-anchor="middle" x="190" y="-80.5" font-family="Helvetica,sans-Serif" font-size="10.00">ImageProxy::GetImage</text>
</a>
</g>
</g>
<!-- Node1&#45;&gt;Node2 -->
<g id="edge1" class="edge"><title>Node1&#45;&gt;Node2</title>
<path fill="none" stroke="midnightblue" d="M96.0074,-71.8942C104.229,-73.3623 112.927,-74.9155 121.572,-76.4593"/>
<polygon fill="midnightblue" stroke="midnightblue" points="121.206,-79.9492 131.665,-78.2617 122.436,-73.0582 121.206,-79.9492"/>
</g>
<!-- Node3 -->
<g id="node3" class="node"><title>Node3</title>
<g id="a_node3"><a xlink:href="../../dd/d5a/classstructural_1_1proxy_1_1_image.html#ae872452935d47a0df1a047290f66417d" target="_top" xlink:title="structural::proxy::\lImage::Draw">
<polygon fill="white" stroke="black" points="143.5,-24.5 143.5,-54.5 236.5,-54.5 236.5,-24.5 143.5,-24.5"/>
<text text-anchor="start" x="151.5" y="-42.5" font-family="Helvetica,sans-Serif" font-size="10.00">structural::proxy::</text>
<text text-anchor="middle" x="190" y="-31.5" font-family="Helvetica,sans-Serif" font-size="10.00">Image::Draw</text>
</a>
</g>
</g>
<!-- Node1&#45;&gt;Node3 -->
<g id="edge2" class="edge"><title>Node1&#45;&gt;Node3</title>
<path fill="none" stroke="midnightblue" d="M96.0074,-55.4416C107.923,-53.3989 120.838,-51.1849 133.145,-49.0752"/>
<polygon fill="midnightblue" stroke="midnightblue" points="134.039,-52.473 143.304,-47.3336 132.856,-45.5736 134.039,-52.473"/>
</g>
<!-- Node4 -->
<g id="node4" class="node"><title>Node4</title>
<g id="a_node4"><a xlink:href="../../d2/db2/classstructural_1_1commons_1_1_point.html#a6c757dd2cc06d5db764471dd47e90176" target="_top" xlink:title="structural::commons\l::Point::x">
<polygon fill="white" stroke="black" points="284,-49.5 284,-79.5 390,-79.5 390,-49.5 284,-49.5"/>
<text text-anchor="start" x="292" y="-67.5" font-family="Helvetica,sans-Serif" font-size="10.00">structural::commons</text>
<text text-anchor="middle" x="337" y="-56.5" font-family="Helvetica,sans-Serif" font-size="10.00">::Point::x</text>
</a>
</g>
</g>
<!-- Node3&#45;&gt;Node4 -->
<g id="edge3" class="edge"><title>Node3&#45;&gt;Node4</title>
<path fill="none" stroke="midnightblue" d="M236.879,-47.4102C248.663,-49.4419 261.537,-51.6616 273.989,-53.8085"/>
<polygon fill="midnightblue" stroke="midnightblue" points="273.407,-57.2597 283.857,-55.5097 274.597,-50.3615 273.407,-57.2597"/>
</g>
<!-- Node5 -->
<g id="node5" class="node"><title>Node5</title>
<g id="a_node5"><a xlink:href="../../d2/db2/classstructural_1_1commons_1_1_point.html#a879eaf11e2edad52cc239c75da03bf74" target="_top" xlink:title="structural::commons\l::Point::y">
<polygon fill="white" stroke="black" points="284,-0.5 284,-30.5 390,-30.5 390,-0.5 284,-0.5"/>
<text text-anchor="start" x="292" y="-18.5" font-family="Helvetica,sans-Serif" font-size="10.00">structural::commons</text>
<text text-anchor="middle" x="337" y="-7.5" font-family="Helvetica,sans-Serif" font-size="10.00">::Point::y</text>
</a>
</g>
</g>
<!-- Node3&#45;&gt;Node5 -->
<g id="edge4" class="edge"><title>Node3&#45;&gt;Node5</title>
<path fill="none" stroke="midnightblue" d="M236.879,-31.9063C248.663,-29.9557 261.537,-27.8249 273.989,-25.7638"/>
<polygon fill="midnightblue" stroke="midnightblue" points="274.562,-29.2167 283.857,-24.1306 273.419,-22.3107 274.562,-29.2167"/>
</g>
</g>
</svg>
