<?xml version="1.0" encoding="UTF-8" standalone="no"?>
<!DOCTYPE svg PUBLIC "-//W3C//DTD SVG 1.1//EN"
 "http://www.w3.org/Graphics/SVG/1.1/DTD/svg11.dtd">
<!-- Generated by graphviz version 2.38.0 (20140413.2041)
 -->
<!-- Title: operational::observer::AnalogClock::OnClockTick Pages: 1 -->
<svg width="453pt" height="88pt"
 viewBox="0.00 0.00 453.00 88.00" xmlns="http://www.w3.org/2000/svg" xmlns:xlink="http://www.w3.org/1999/xlink">
<g id="graph0" class="graph" transform="scale(1 1) rotate(0) translate(4 84)">
<title>operational::observer::AnalogClock::OnClockTick</title>
<polygon fill="white" stroke="none" points="-4,4 -4,-84 449,-84 449,4 -4,4"/>
<!-- Node1 -->
<g id="node1" class="node"><title>Node1</title>
<polygon fill="#bfbfbf" stroke="black" points="0,-24.5 0,-54.5 139,-54.5 139,-24.5 0,-24.5"/>
<text text-anchor="start" x="8" y="-42.5" font-family="Helvetica,sans-Serif" font-size="10.00">operational::observer</text>
<text text-anchor="middle" x="69.5" y="-31.5" font-family="Helvetica,sans-Serif" font-size="10.00">::AnalogClock::OnClockTick</text>
</g>
<!-- Node2 -->
<g id="node2" class="node"><title>Node2</title>
<g id="a_node2"><a xlink:href="../../d3/d84/classoperational_1_1observer_1_1_analog_clock.html#ae1282fbb62e8dec801d78e6c849adb33" target="_top" xlink:title="operational::observer\l::AnalogClock::Draw">
<polygon fill="white" stroke="black" points="175,-24.5 175,-54.5 281,-54.5 281,-24.5 175,-24.5"/>
<text text-anchor="start" x="183" y="-42.5" font-family="Helvetica,sans-Serif" font-size="10.00">operational::observer</text>
<text text-anchor="middle" x="228" y="-31.5" font-family="Helvetica,sans-Serif" font-size="10.00">::AnalogClock::Draw</text>
</a>
</g>
</g>
<!-- Node1&#45;&gt;Node2 -->
<g id="edge1" class="edge"><title>Node1&#45;&gt;Node2</title>
<path fill="none" stroke="midnightblue" d="M139.143,-39.5C147.668,-39.5 156.347,-39.5 164.767,-39.5"/>
<polygon fill="midnightblue" stroke="midnightblue" points="164.883,-43.0001 174.883,-39.5 164.883,-36.0001 164.883,-43.0001"/>
</g>
<!-- Node3 -->
<g id="node3" class="node"><title>Node3</title>
<g id="a_node3"><a xlink:href="../../d0/dd5/classoperational_1_1observer_1_1_clock_timer.html#ad3638968eb369fdcf93fe9b41ac27b26" target="_top" xlink:title="operational::observer\l::ClockTimer::GetHours">
<polygon fill="white" stroke="black" points="321.5,-49.5 321.5,-79.5 440.5,-79.5 440.5,-49.5 321.5,-49.5"/>
<text text-anchor="start" x="329.5" y="-67.5" font-family="Helvetica,sans-Serif" font-size="10.00">operational::observer</text>
<text text-anchor="middle" x="381" y="-56.5" font-family="Helvetica,sans-Serif" font-size="10.00">::ClockTimer::GetHours</text>
</a>
</g>
</g>
<!-- Node2&#45;&gt;Node3 -->
<g id="edge2" class="edge"><title>Node2&#45;&gt;Node3</title>
<path fill="none" stroke="midnightblue" d="M281.389,-48.1736C291.035,-49.7708 301.239,-51.4601 311.282,-53.1228"/>
<polygon fill="midnightblue" stroke="midnightblue" points="310.806,-56.5917 321.244,-54.7721 311.95,-49.6857 310.806,-56.5917"/>
</g>
<!-- Node4 -->
<g id="node4" class="node"><title>Node4</title>
<g id="a_node4"><a xlink:href="../../d0/dd5/classoperational_1_1observer_1_1_clock_timer.html#a2b871310803ed9e2ca8f9909c4383bff" target="_top" xlink:title="operational::observer\l::ClockTimer::GetMinutes">
<polygon fill="white" stroke="black" points="317,-0.5 317,-30.5 445,-30.5 445,-0.5 317,-0.5"/>
<text text-anchor="start" x="325" y="-18.5" font-family="Helvetica,sans-Serif" font-size="10.00">operational::observer</text>
<text text-anchor="middle" x="381" y="-7.5" font-family="Helvetica,sans-Serif" font-size="10.00">::ClockTimer::GetMinutes</text>
</a>
</g>
</g>
<!-- Node2&#45;&gt;Node4 -->
<g id="edge3" class="edge"><title>Node2&#45;&gt;Node4</title>
<path fill="none" stroke="midnightblue" d="M281.389,-31.1733C289.593,-29.8694 298.2,-28.5014 306.767,-27.1396"/>
<polygon fill="midnightblue" stroke="midnightblue" points="307.454,-30.5745 316.781,-25.5481 306.356,-23.6612 307.454,-30.5745"/>
</g>
</g>
</svg>
