<?xml version="1.0" encoding="UTF-8" standalone="no"?>
<!DOCTYPE svg PUBLIC "-//W3C//DTD SVG 1.1//EN"
 "http://www.w3.org/Graphics/SVG/1.1/DTD/svg11.dtd">
<!-- Generated by graphviz version 2.38.0 (20140413.2041)
 -->
<!-- Title: operational::observer::AnalogClock::Draw Pages: 1 -->
<svg width="278pt" height="88pt"
 viewBox="0.00 0.00 278.00 88.00" xmlns="http://www.w3.org/2000/svg" xmlns:xlink="http://www.w3.org/1999/xlink">
<g id="graph0" class="graph" transform="scale(1 1) rotate(0) translate(4 84)">
<title>operational::observer::AnalogClock::Draw</title>
<polygon fill="white" stroke="none" points="-4,4 -4,-84 274,-84 274,4 -4,4"/>
<!-- Node1 -->
<g id="node1" class="node"><title>Node1</title>
<polygon fill="#bfbfbf" stroke="black" points="0,-24.5 0,-54.5 106,-54.5 106,-24.5 0,-24.5"/>
<text text-anchor="start" x="8" y="-42.5" font-family="Helvetica,sans-Serif" font-size="10.00">operational::observer</text>
<text text-anchor="middle" x="53" y="-31.5" font-family="Helvetica,sans-Serif" font-size="10.00">::AnalogClock::Draw</text>
</g>
<!-- Node2 -->
<g id="node2" class="node"><title>Node2</title>
<g id="a_node2"><a xlink:href="../../d0/dd5/classoperational_1_1observer_1_1_clock_timer.html#ad3638968eb369fdcf93fe9b41ac27b26" target="_top" xlink:title="operational::observer\l::ClockTimer::GetHours">
<polygon fill="white" stroke="black" points="146.5,-49.5 146.5,-79.5 265.5,-79.5 265.5,-49.5 146.5,-49.5"/>
<text text-anchor="start" x="154.5" y="-67.5" font-family="Helvetica,sans-Serif" font-size="10.00">operational::observer</text>
<text text-anchor="middle" x="206" y="-56.5" font-family="Helvetica,sans-Serif" font-size="10.00">::ClockTimer::GetHours</text>
</a>
</g>
</g>
<!-- Node1&#45;&gt;Node2 -->
<g id="edge1" class="edge"><title>Node1&#45;&gt;Node2</title>
<path fill="none" stroke="midnightblue" d="M106.389,-48.1736C116.035,-49.7708 126.239,-51.4601 136.282,-53.1228"/>
<polygon fill="midnightblue" stroke="midnightblue" points="135.806,-56.5917 146.244,-54.7721 136.95,-49.6857 135.806,-56.5917"/>
</g>
<!-- Node3 -->
<g id="node3" class="node"><title>Node3</title>
<g id="a_node3"><a xlink:href="../../d0/dd5/classoperational_1_1observer_1_1_clock_timer.html#a2b871310803ed9e2ca8f9909c4383bff" target="_top" xlink:title="operational::observer\l::ClockTimer::GetMinutes">
<polygon fill="white" stroke="black" points="142,-0.5 142,-30.5 270,-30.5 270,-0.5 142,-0.5"/>
<text text-anchor="start" x="150" y="-18.5" font-family="Helvetica,sans-Serif" font-size="10.00">operational::observer</text>
<text text-anchor="middle" x="206" y="-7.5" font-family="Helvetica,sans-Serif" font-size="10.00">::ClockTimer::GetMinutes</text>
</a>
</g>
</g>
<!-- Node1&#45;&gt;Node3 -->
<g id="edge2" class="edge"><title>Node1&#45;&gt;Node3</title>
<path fill="none" stroke="midnightblue" d="M106.389,-31.1733C114.593,-29.8694 123.2,-28.5014 131.767,-27.1396"/>
<polygon fill="midnightblue" stroke="midnightblue" points="132.454,-30.5745 141.781,-25.5481 131.356,-23.6612 132.454,-30.5745"/>
</g>
</g>
</svg>
