<?xml version="1.0" encoding="UTF-8" standalone="no"?>
<!DOCTYPE svg PUBLIC "-//W3C//DTD SVG 1.1//EN"
 "http://www.w3.org/Graphics/SVG/1.1/DTD/svg11.dtd">
<!-- Generated by graphviz version 2.38.0 (20140413.2041)
 -->
<!-- Title: operational::observer::AnalogClock::~AnalogClock Pages: 1 -->
<svg width="438pt" height="39pt"
 viewBox="0.00 0.00 438.00 39.00" xmlns="http://www.w3.org/2000/svg" xmlns:xlink="http://www.w3.org/1999/xlink">
<g id="graph0" class="graph" transform="scale(1 1) rotate(0) translate(4 35)">
<title>operational::observer::AnalogClock::~AnalogClock</title>
<polygon fill="white" stroke="none" points="-4,4 -4,-35 434,-35 434,4 -4,4"/>
<!-- Node1 -->
<g id="node1" class="node"><title>Node1</title>
<polygon fill="#bfbfbf" stroke="black" points="0,-0.5 0,-30.5 144,-30.5 144,-0.5 0,-0.5"/>
<text text-anchor="start" x="8" y="-18.5" font-family="Helvetica,sans-Serif" font-size="10.00">operational::observer</text>
<text text-anchor="middle" x="72" y="-7.5" font-family="Helvetica,sans-Serif" font-size="10.00">::AnalogClock::~AnalogClock</text>
</g>
<!-- Node2 -->
<g id="node2" class="node"><title>Node2</title>
<g id="a_node2"><a xlink:href="../../d0/dd5/classoperational_1_1observer_1_1_clock_timer.html#a3605ad90b29bd98b9d4dcc4a69d7c41f" target="_top" xlink:title="operational::observer\l::ClockTimer::Detach">
<polygon fill="white" stroke="black" points="180,-0.5 180,-30.5 288,-30.5 288,-0.5 180,-0.5"/>
<text text-anchor="start" x="188" y="-18.5" font-family="Helvetica,sans-Serif" font-size="10.00">operational::observer</text>
<text text-anchor="middle" x="234" y="-7.5" font-family="Helvetica,sans-Serif" font-size="10.00">::ClockTimer::Detach</text>
</a>
</g>
</g>
<!-- Node1&#45;&gt;Node2 -->
<g id="edge1" class="edge"><title>Node1&#45;&gt;Node2</title>
<path fill="none" stroke="midnightblue" d="M144.11,-15.5C152.654,-15.5 161.336,-15.5 169.758,-15.5"/>
<polygon fill="midnightblue" stroke="midnightblue" points="169.875,-19.0001 179.875,-15.5 169.875,-12.0001 169.875,-19.0001"/>
</g>
<!-- Node3 -->
<g id="node3" class="node"><title>Node3</title>
<g id="a_node3"><a xlink:href="../../d4/de0/classoperational_1_1observer_1_1_clock_tick.html#a41abe8a38c0dd89c3b943d0059bf1ab9" target="_top" xlink:title="operational::observer\l::ClockTick::Detach">
<polygon fill="white" stroke="black" points="324,-0.5 324,-30.5 430,-30.5 430,-0.5 324,-0.5"/>
<text text-anchor="start" x="332" y="-18.5" font-family="Helvetica,sans-Serif" font-size="10.00">operational::observer</text>
<text text-anchor="middle" x="377" y="-7.5" font-family="Helvetica,sans-Serif" font-size="10.00">::ClockTick::Detach</text>
</a>
</g>
</g>
<!-- Node2&#45;&gt;Node3 -->
<g id="edge2" class="edge"><title>Node2&#45;&gt;Node3</title>
<path fill="none" stroke="midnightblue" d="M288.306,-15.5C296.512,-15.5 305.048,-15.5 313.433,-15.5"/>
<polygon fill="midnightblue" stroke="midnightblue" points="313.553,-19.0001 323.553,-15.5 313.553,-12.0001 313.553,-19.0001"/>
</g>
</g>
</svg>
