<?xml version="1.0" encoding="UTF-8" standalone="no"?>
<!DOCTYPE svg PUBLIC "-//W3C//DTD SVG 1.1//EN"
 "http://www.w3.org/Graphics/SVG/1.1/DTD/svg11.dtd">
<!-- Generated by graphviz version 2.38.0 (20140413.2041)
 -->
<!-- Title: src/operational/src/command/command_application.cc Pages: 1 -->
<svg width="181pt" height="207pt"
 viewBox="0.00 0.00 181.00 207.00" xmlns="http://www.w3.org/2000/svg" xmlns:xlink="http://www.w3.org/1999/xlink">
<g id="graph0" class="graph" transform="scale(1 1) rotate(0) translate(4 203)">
<title>src/operational/src/command/command_application.cc</title>
<polygon fill="white" stroke="none" points="-4,4 -4,-203 177,-203 177,4 -4,4"/>
<!-- Node1 -->
<g id="node1" class="node"><title>Node1</title>
<polygon fill="#bfbfbf" stroke="black" points="0,-168.5 0,-198.5 173,-198.5 173,-168.5 0,-168.5"/>
<text text-anchor="start" x="8" y="-186.5" font-family="Helvetica,sans-Serif" font-size="10.00">src/operational/src</text>
<text text-anchor="middle" x="86.5" y="-175.5" font-family="Helvetica,sans-Serif" font-size="10.00">/command/command_application.cc</text>
</g>
<!-- Node2 -->
<g id="node2" class="node"><title>Node2</title>
<g id="a_node2"><a xlink:href="../../d5/d94/command__application_8h.html" target="_top" xlink:title="command_application.h">
<polygon fill="white" stroke="black" points="27,-112.5 27,-131.5 146,-131.5 146,-112.5 27,-112.5"/>
<text text-anchor="middle" x="86.5" y="-119.5" font-family="Helvetica,sans-Serif" font-size="10.00">command_application.h</text>
</a>
</g>
</g>
<!-- Node1&#45;&gt;Node2 -->
<g id="edge1" class="edge"><title>Node1&#45;&gt;Node2</title>
<path fill="none" stroke="midnightblue" d="M86.5,-168.399C86.5,-160.466 86.5,-150.458 86.5,-141.858"/>
<polygon fill="midnightblue" stroke="midnightblue" points="90.0001,-141.658 86.5,-131.658 83.0001,-141.658 90.0001,-141.658"/>
</g>
<!-- Node3 -->
<g id="node3" class="node"><title>Node3</title>
<g id="a_node3"><a xlink:href="../../d0/d06/command__document_8h.html" target="_top" xlink:title="command_document.h">
<polygon fill="white" stroke="black" points="28.5,-56.5 28.5,-75.5 144.5,-75.5 144.5,-56.5 28.5,-56.5"/>
<text text-anchor="middle" x="86.5" y="-63.5" font-family="Helvetica,sans-Serif" font-size="10.00">command_document.h</text>
</a>
</g>
</g>
<!-- Node2&#45;&gt;Node3 -->
<g id="edge2" class="edge"><title>Node2&#45;&gt;Node3</title>
<path fill="none" stroke="midnightblue" d="M86.5,-112.083C86.5,-105.006 86.5,-94.8611 86.5,-85.9865"/>
<polygon fill="midnightblue" stroke="midnightblue" points="90.0001,-85.751 86.5,-75.7511 83.0001,-85.7511 90.0001,-85.751"/>
</g>
<!-- Node4 -->
<g id="node4" class="node"><title>Node4</title>
<polygon fill="white" stroke="#bfbfbf" points="66,-0.5 66,-19.5 107,-19.5 107,-0.5 66,-0.5"/>
<text text-anchor="middle" x="86.5" y="-7.5" font-family="Helvetica,sans-Serif" font-size="10.00">string</text>
</g>
<!-- Node3&#45;&gt;Node4 -->
<g id="edge3" class="edge"><title>Node3&#45;&gt;Node4</title>
<path fill="none" stroke="midnightblue" d="M86.5,-56.083C86.5,-49.0059 86.5,-38.8611 86.5,-29.9865"/>
<polygon fill="midnightblue" stroke="midnightblue" points="90.0001,-29.751 86.5,-19.7511 83.0001,-29.7511 90.0001,-29.751"/>
</g>
</g>
</svg>
