<?xml version="1.0" encoding="UTF-8" standalone="no"?>
<!DOCTYPE svg PUBLIC "-//W3C//DTD SVG 1.1//EN"
 "http://www.w3.org/Graphics/SVG/1.1/DTD/svg11.dtd">
<!-- Generated by graphviz version 2.38.0 (20140413.2041)
 -->
<!-- Title: src/creational/src/factorymethod/enchanted_maze_game.cc Pages: 1 -->
<!--zoomable 475 -->
<svg id="main" version="1.1" xmlns="http://www.w3.org/2000/svg" xmlns:xlink="http://www.w3.org/1999/xlink" xml:space="preserve" onload="init(evt)">
<style type="text/css"><![CDATA[
.edge:hover path { stroke: red; }
.edge:hover polygon { stroke: red; fill: red; }
]]></style>
<script type="text/javascript"><![CDATA[
var edges = document.getElementsByTagName('g');
if (edges && edges.length) {
  for (var i=0;i<edges.length;i++) {
    if (edges[i].id.substr(0,4)=='edge') {
      edges[i].setAttribute('class','edge');
    }
  }
}
]]></script>
        <defs>
                <circle id="rim" cx="0" cy="0" r="7"/>
                <circle id="rim2" cx="0" cy="0" r="3.5"/>
                <g id="zoomPlus">
                        <use xlink:href="#rim" fill="#404040">
                                <set attributeName="fill" to="#808080" begin="zoomplus.mouseover" end="zoomplus.mouseout"/>
                        </use>
                        <path d="M-4,0h8M0,-4v8" fill="none" stroke="white" stroke-width="1.5" pointer-events="none"/>
                </g>
                <g id="zoomMin">
                        <use xlink:href="#rim" fill="#404040">
                                <set attributeName="fill" to="#808080" begin="zoomminus.mouseover" end="zoomminus.mouseout"/>
                        </use>
                        <path d="M-4,0h8" fill="none" stroke="white" stroke-width="1.5" pointer-events="none"/>
                </g>
                <g id="dirArrow">
                        <path fill="none" stroke="white" stroke-width="1.5" d="M0,-3.0v7 M-2.5,-0.5L0,-3.0L2.5,-0.5"/>
                </g>
               <g id="resetDef">
                       <use xlink:href="#rim2" fill="#404040">
                               <set attributeName="fill" to="#808080" begin="reset.mouseover" end="reset.mouseout"/>
                       </use>
               </g>
        </defs>

<script type="text/javascript">
var viewWidth = 552;
var viewHeight = 475;
var sectionId = 'dynsection-0';
</script>
<script xlink:href="../../svgpan.js"/>
<svg id="graph" class="graph">
<g id="viewport">
<title>src/creational/src/factorymethod/enchanted_maze_game.cc</title>
<polygon fill="white" stroke="none" points="-4,4 -4,-471 548,-471 548,4 -4,4"/>
<!-- Node1 -->
<g id="node1" class="node"><title>Node1</title>
<polygon fill="#bfbfbf" stroke="black" points="276,-425.5 276,-466.5 405,-466.5 405,-425.5 276,-425.5"/>
<text text-anchor="start" x="284" y="-454.5" font-family="Helvetica,sans-Serif" font-size="10.00">src/creational/src</text>
<text text-anchor="start" x="284" y="-443.5" font-family="Helvetica,sans-Serif" font-size="10.00">/factorymethod/enchanted</text>
<text text-anchor="middle" x="340.5" y="-432.5" font-family="Helvetica,sans-Serif" font-size="10.00">_maze_game.cc</text>
</g>
<!-- Node2 -->
<g id="node2" class="node"><title>Node2</title>
<g id="a_node2"><a xlink:href="../../df/d13/enchanted__maze__game_8h.html" target="_top" xlink:title="enchanted_maze_game.h">
<polygon fill="white" stroke="black" points="128.5,-364 128.5,-383 256.5,-383 256.5,-364 128.5,-364"/>
<text text-anchor="middle" x="192.5" y="-371" font-family="Helvetica,sans-Serif" font-size="10.00">enchanted_maze_game.h</text>
</a>
</g>
</g>
<!-- Node1&#45;&gt;Node2 -->
<g id="edge1" class="edge"><title>Node1&#45;&gt;Node2</title>
<path fill="none" stroke="midnightblue" d="M299.274,-425.362C273.942,-413.295 242.189,-398.169 219.92,-387.561"/>
<polygon fill="midnightblue" stroke="midnightblue" points="221.241,-384.314 210.708,-383.173 218.231,-390.634 221.241,-384.314"/>
</g>
<!-- Node16 -->
<g id="node16" class="node"><title>Node16</title>
<g id="a_node16"><a xlink:href="../../d6/d36/enchanted__room_8h.html" target="_top" xlink:title="../mazeparts/enchanted\l_room.h">
<polygon fill="white" stroke="black" points="425,-358.5 425,-388.5 544,-388.5 544,-358.5 425,-358.5"/>
<text text-anchor="start" x="433" y="-376.5" font-family="Helvetica,sans-Serif" font-size="10.00">../mazeparts/enchanted</text>
<text text-anchor="middle" x="484.5" y="-365.5" font-family="Helvetica,sans-Serif" font-size="10.00">_room.h</text>
</a>
</g>
</g>
<!-- Node1&#45;&gt;Node16 -->
<g id="edge19" class="edge"><title>Node1&#45;&gt;Node16</title>
<path fill="none" stroke="midnightblue" d="M380.612,-425.362C401.159,-415.302 426.047,-403.117 446.312,-393.196"/>
<polygon fill="midnightblue" stroke="midnightblue" points="448.115,-396.211 455.557,-388.67 445.037,-389.924 448.115,-396.211"/>
</g>
<!-- Node17 -->
<g id="node17" class="node"><title>Node17</title>
<g id="a_node17"><a xlink:href="../../d1/d47/door__needing__spell_8h.html" target="_top" xlink:title="../mazeparts/door_needing\l_spell.h">
<polygon fill="white" stroke="black" points="274.5,-358.5 274.5,-388.5 406.5,-388.5 406.5,-358.5 274.5,-358.5"/>
<text text-anchor="start" x="282.5" y="-376.5" font-family="Helvetica,sans-Serif" font-size="10.00">../mazeparts/door_needing</text>
<text text-anchor="middle" x="340.5" y="-365.5" font-family="Helvetica,sans-Serif" font-size="10.00">_spell.h</text>
</a>
</g>
</g>
<!-- Node1&#45;&gt;Node17 -->
<g id="edge22" class="edge"><title>Node1&#45;&gt;Node17</title>
<path fill="none" stroke="midnightblue" d="M340.5,-425.362C340.5,-417.226 340.5,-407.7 340.5,-399.105"/>
<polygon fill="midnightblue" stroke="midnightblue" points="344,-398.892 340.5,-388.892 337,-398.892 344,-398.892"/>
</g>
<!-- Node3 -->
<g id="node3" class="node"><title>Node3</title>
<g id="a_node3"><a xlink:href="../../d2/df0/maze__game_8h.html" target="_top" xlink:title="../mazegame/maze_game.h">
<polygon fill="white" stroke="black" points="120.5,-302.5 120.5,-321.5 258.5,-321.5 258.5,-302.5 120.5,-302.5"/>
<text text-anchor="middle" x="189.5" y="-309.5" font-family="Helvetica,sans-Serif" font-size="10.00">../mazegame/maze_game.h</text>
</a>
</g>
</g>
<!-- Node2&#45;&gt;Node3 -->
<g id="edge2" class="edge"><title>Node2&#45;&gt;Node3</title>
<path fill="none" stroke="midnightblue" d="M192.07,-363.975C191.647,-355.58 190.986,-342.481 190.441,-331.663"/>
<polygon fill="midnightblue" stroke="midnightblue" points="193.928,-331.32 189.929,-321.509 186.937,-331.673 193.928,-331.32"/>
</g>
<!-- Node14 -->
<g id="node14" class="node"><title>Node14</title>
<g id="a_node14"><a xlink:href="../../d4/de3/spell_8h.html" target="_top" xlink:title="../mazeparts/spell.h">
<polygon fill="white" stroke="black" points="315,-302.5 315,-321.5 418,-321.5 418,-302.5 315,-302.5"/>
<text text-anchor="middle" x="366.5" y="-309.5" font-family="Helvetica,sans-Serif" font-size="10.00">../mazeparts/spell.h</text>
</a>
</g>
</g>
<!-- Node2&#45;&gt;Node14 -->
<g id="edge17" class="edge"><title>Node2&#45;&gt;Node14</title>
<path fill="none" stroke="midnightblue" d="M217.43,-363.975C247.536,-353.68 298.332,-336.31 332.138,-324.75"/>
<polygon fill="midnightblue" stroke="midnightblue" points="333.287,-328.056 341.616,-321.509 331.022,-321.433 333.287,-328.056"/>
</g>
<!-- Node4 -->
<g id="node4" class="node"><title>Node4</title>
<g id="a_node4"><a xlink:href="../../d6/d3b/maze__factory_8h.html" target="_top" xlink:title="../abstractfactory\l/maze_factory.h">
<polygon fill="white" stroke="black" points="147.5,-235.5 147.5,-265.5 237.5,-265.5 237.5,-235.5 147.5,-235.5"/>
<text text-anchor="start" x="155.5" y="-253.5" font-family="Helvetica,sans-Serif" font-size="10.00">../abstractfactory</text>
<text text-anchor="middle" x="192.5" y="-242.5" font-family="Helvetica,sans-Serif" font-size="10.00">/maze_factory.h</text>
</a>
</g>
</g>
<!-- Node3&#45;&gt;Node4 -->
<g id="edge3" class="edge"><title>Node3&#45;&gt;Node4</title>
<path fill="none" stroke="midnightblue" d="M189.93,-302.475C190.283,-295.471 190.801,-285.192 191.28,-275.696"/>
<polygon fill="midnightblue" stroke="midnightblue" points="194.785,-275.687 191.793,-265.523 187.794,-275.334 194.785,-275.687"/>
</g>
<!-- Node13 -->
<g id="node13" class="node"><title>Node13</title>
<g id="a_node13"><a xlink:href="../../d5/d18/maze__builder__interface_8h.html" target="_top" xlink:title="../builder/maze_builder\l_interface.h">
<polygon fill="white" stroke="black" points="0,-168.5 0,-198.5 115,-198.5 115,-168.5 0,-168.5"/>
<text text-anchor="start" x="8" y="-186.5" font-family="Helvetica,sans-Serif" font-size="10.00">../builder/maze_builder</text>
<text text-anchor="middle" x="57.5" y="-175.5" font-family="Helvetica,sans-Serif" font-size="10.00">_interface.h</text>
</a>
</g>
</g>
<!-- Node3&#45;&gt;Node13 -->
<g id="edge15" class="edge"><title>Node3&#45;&gt;Node13</title>
<path fill="none" stroke="midnightblue" d="M179.164,-302.228C168.734,-293.296 152.25,-278.957 138.5,-266 117.539,-246.248 94.4582,-222.853 78.3151,-206.207"/>
<polygon fill="midnightblue" stroke="midnightblue" points="80.4529,-203.382 70.9873,-198.622 75.4187,-208.246 80.4529,-203.382"/>
</g>
<!-- Node5 -->
<g id="node5" class="node"><title>Node5</title>
<g id="a_node5"><a xlink:href="../../de/d6d/maze__factory__interface_8h.html" target="_top" xlink:title="maze_factory_interface.h">
<polygon fill="white" stroke="black" points="133,-174 133,-193 258,-193 258,-174 133,-174"/>
<text text-anchor="middle" x="195.5" y="-181" font-family="Helvetica,sans-Serif" font-size="10.00">maze_factory_interface.h</text>
</a>
</g>
</g>
<!-- Node4&#45;&gt;Node5 -->
<g id="edge4" class="edge"><title>Node4&#45;&gt;Node5</title>
<path fill="none" stroke="midnightblue" d="M193.151,-235.396C193.586,-225.963 194.164,-213.448 194.637,-203.189"/>
<polygon fill="midnightblue" stroke="midnightblue" points="198.134,-203.345 195.099,-193.195 191.141,-203.023 198.134,-203.345"/>
</g>
<!-- Node6 -->
<g id="node6" class="node"><title>Node6</title>
<g id="a_node6"><a xlink:href="../../dc/db8/maze_8h.html" target="_top" xlink:title="../mazeparts/maze.h">
<polygon fill="white" stroke="black" points="70,-112.5 70,-131.5 177,-131.5 177,-112.5 70,-112.5"/>
<text text-anchor="middle" x="123.5" y="-119.5" font-family="Helvetica,sans-Serif" font-size="10.00">../mazeparts/maze.h</text>
</a>
</g>
</g>
<!-- Node5&#45;&gt;Node6 -->
<g id="edge5" class="edge"><title>Node5&#45;&gt;Node6</title>
<path fill="none" stroke="midnightblue" d="M185.184,-173.975C173.849,-164.608 155.427,-149.384 141.661,-138.008"/>
<polygon fill="midnightblue" stroke="midnightblue" points="143.735,-135.181 133.797,-131.509 139.276,-140.577 143.735,-135.181"/>
</g>
<!-- Node11 -->
<g id="node11" class="node"><title>Node11</title>
<g id="a_node11"><a xlink:href="../../d1/d4f/wall_8h.html" target="_top" xlink:title="../mazeparts/wall.h">
<polygon fill="white" stroke="black" points="159,-56.5 159,-75.5 258,-75.5 258,-56.5 159,-56.5"/>
<text text-anchor="middle" x="208.5" y="-63.5" font-family="Helvetica,sans-Serif" font-size="10.00">../mazeparts/wall.h</text>
</a>
</g>
</g>
<!-- Node5&#45;&gt;Node11 -->
<g id="edge10" class="edge"><title>Node5&#45;&gt;Node11</title>
<path fill="none" stroke="midnightblue" d="M196.477,-173.819C198.566,-155.257 203.509,-111.339 206.364,-85.9734"/>
<polygon fill="midnightblue" stroke="midnightblue" points="209.871,-86.1108 207.512,-75.782 202.915,-85.3278 209.871,-86.1108"/>
</g>
<!-- Node12 -->
<g id="node12" class="node"><title>Node12</title>
<g id="a_node12"><a xlink:href="../../d2/d59/door_8h.html" target="_top" xlink:title="../mazeparts/door.h">
<polygon fill="white" stroke="black" points="236,-112.5 236,-131.5 337,-131.5 337,-112.5 236,-112.5"/>
<text text-anchor="middle" x="286.5" y="-119.5" font-family="Helvetica,sans-Serif" font-size="10.00">../mazeparts/door.h</text>
</a>
</g>
</g>
<!-- Node5&#45;&gt;Node12 -->
<g id="edge12" class="edge"><title>Node5&#45;&gt;Node12</title>
<path fill="none" stroke="midnightblue" d="M208.538,-173.975C223.269,-164.343 247.473,-148.517 265.009,-137.052"/>
<polygon fill="midnightblue" stroke="midnightblue" points="267.032,-139.911 273.486,-131.509 263.201,-134.052 267.032,-139.911"/>
</g>
<!-- Node7 -->
<g id="node7" class="node"><title>Node7</title>
<g id="a_node7"><a xlink:href="../../d9/dc0/room_8h.html" target="_top" xlink:title="room.h">
<polygon fill="white" stroke="black" points="340,-56.5 340,-75.5 387,-75.5 387,-56.5 340,-56.5"/>
<text text-anchor="middle" x="363.5" y="-63.5" font-family="Helvetica,sans-Serif" font-size="10.00">room.h</text>
</a>
</g>
</g>
<!-- Node6&#45;&gt;Node7 -->
<g id="edge6" class="edge"><title>Node6&#45;&gt;Node7</title>
<path fill="none" stroke="midnightblue" d="M161.529,-112.444C207.905,-102.009 285.57,-84.5342 329.86,-74.569"/>
<polygon fill="midnightblue" stroke="midnightblue" points="330.848,-77.9344 339.835,-72.3245 329.311,-71.1051 330.848,-77.9344"/>
</g>
<!-- Node10 -->
<g id="node10" class="node"><title>Node10</title>
<polygon fill="white" stroke="#bfbfbf" points="106,-56.5 106,-75.5 141,-75.5 141,-56.5 106,-56.5"/>
<text text-anchor="middle" x="123.5" y="-63.5" font-family="Helvetica,sans-Serif" font-size="10.00">map</text>
</g>
<!-- Node6&#45;&gt;Node10 -->
<g id="edge9" class="edge"><title>Node6&#45;&gt;Node10</title>
<path fill="none" stroke="midnightblue" d="M123.5,-112.083C123.5,-105.006 123.5,-94.8611 123.5,-85.9865"/>
<polygon fill="midnightblue" stroke="midnightblue" points="127,-85.751 123.5,-75.7511 120,-85.7511 127,-85.751"/>
</g>
<!-- Node8 -->
<g id="node8" class="node"><title>Node8</title>
<g id="a_node8"><a xlink:href="../../db/d1a/map__site__interface_8h.html" target="_top" xlink:title="map_site_interface.h">
<polygon fill="white" stroke="black" points="220,-0.5 220,-19.5 327,-19.5 327,-0.5 220,-0.5"/>
<text text-anchor="middle" x="273.5" y="-7.5" font-family="Helvetica,sans-Serif" font-size="10.00">map_site_interface.h</text>
</a>
</g>
</g>
<!-- Node7&#45;&gt;Node8 -->
<g id="edge7" class="edge"><title>Node7&#45;&gt;Node8</title>
<path fill="none" stroke="midnightblue" d="M349.04,-56.324C335,-47.9002 313.452,-34.9709 296.957,-25.0741"/>
<polygon fill="midnightblue" stroke="midnightblue" points="298.3,-21.7983 287.924,-19.6545 294.698,-27.8007 298.3,-21.7983"/>
</g>
<!-- Node9 -->
<g id="node9" class="node"><title>Node9</title>
<g id="a_node9"><a xlink:href="../../dd/d04/direction_8h.html" target="_top" xlink:title="direction.h">
<polygon fill="white" stroke="black" points="345.5,-0.5 345.5,-19.5 407.5,-19.5 407.5,-0.5 345.5,-0.5"/>
<text text-anchor="middle" x="376.5" y="-7.5" font-family="Helvetica,sans-Serif" font-size="10.00">direction.h</text>
</a>
</g>
</g>
<!-- Node7&#45;&gt;Node9 -->
<g id="edge8" class="edge"><title>Node7&#45;&gt;Node9</title>
<path fill="none" stroke="midnightblue" d="M365.647,-56.083C367.369,-48.9272 369.847,-38.6353 372,-29.6911"/>
<polygon fill="midnightblue" stroke="midnightblue" points="375.455,-30.2925 374.393,-19.7511 368.65,-28.6541 375.455,-30.2925"/>
</g>
<!-- Node11&#45;&gt;Node8 -->
<g id="edge11" class="edge"><title>Node11&#45;&gt;Node8</title>
<path fill="none" stroke="midnightblue" d="M218.943,-56.324C228.646,-48.2631 243.315,-36.0765 255,-26.3695"/>
<polygon fill="midnightblue" stroke="midnightblue" points="257.411,-28.9163 262.867,-19.8339 252.938,-23.532 257.411,-28.9163"/>
</g>
<!-- Node12&#45;&gt;Node7 -->
<g id="edge14" class="edge"><title>Node12&#45;&gt;Node7</title>
<path fill="none" stroke="midnightblue" d="M298.871,-112.324C310.658,-104.058 328.632,-91.4527 342.636,-81.6322"/>
<polygon fill="midnightblue" stroke="midnightblue" points="344.982,-84.2619 351.159,-75.6545 340.962,-78.5307 344.982,-84.2619"/>
</g>
<!-- Node12&#45;&gt;Node8 -->
<g id="edge13" class="edge"><title>Node12&#45;&gt;Node8</title>
<path fill="none" stroke="midnightblue" d="M285.48,-112.368C283.382,-94.617 278.542,-53.6664 275.698,-29.5974"/>
<polygon fill="midnightblue" stroke="midnightblue" points="279.165,-29.1115 274.515,-19.5914 272.213,-29.9331 279.165,-29.1115"/>
</g>
<!-- Node13&#45;&gt;Node6 -->
<g id="edge16" class="edge"><title>Node13&#45;&gt;Node6</title>
<path fill="none" stroke="midnightblue" d="M73.1411,-168.399C83.1272,-159.397 96.078,-147.721 106.345,-138.465"/>
<polygon fill="midnightblue" stroke="midnightblue" points="108.813,-140.953 113.896,-131.658 104.125,-135.754 108.813,-140.953"/>
</g>
<!-- Node15 -->
<g id="node15" class="node"><title>Node15</title>
<polygon fill="white" stroke="#bfbfbf" points="346,-241 346,-260 387,-260 387,-241 346,-241"/>
<text text-anchor="middle" x="366.5" y="-248" font-family="Helvetica,sans-Serif" font-size="10.00">string</text>
</g>
<!-- Node14&#45;&gt;Node15 -->
<g id="edge18" class="edge"><title>Node14&#45;&gt;Node15</title>
<path fill="none" stroke="midnightblue" d="M366.5,-302.475C366.5,-294.08 366.5,-280.981 366.5,-270.163"/>
<polygon fill="midnightblue" stroke="midnightblue" points="370,-270.009 366.5,-260.009 363,-270.009 370,-270.009"/>
</g>
<!-- Node16&#45;&gt;Node7 -->
<g id="edge20" class="edge"><title>Node16&#45;&gt;Node7</title>
<path fill="none" stroke="midnightblue" d="M484.5,-358.342C484.5,-335.751 484.5,-290.153 484.5,-251.5 484.5,-251.5 484.5,-251.5 484.5,-182.5 484.5,-132.382 429.511,-97.3466 393.673,-79.835"/>
<polygon fill="midnightblue" stroke="midnightblue" points="395.116,-76.6461 384.577,-75.562 392.139,-82.9818 395.116,-76.6461"/>
</g>
<!-- Node16&#45;&gt;Node14 -->
<g id="edge21" class="edge"><title>Node16&#45;&gt;Node14</title>
<path fill="none" stroke="midnightblue" d="M456.536,-358.399C437.179,-348.639 411.592,-335.737 392.644,-326.183"/>
<polygon fill="midnightblue" stroke="midnightblue" points="394.175,-323.035 383.67,-321.658 391.023,-329.285 394.175,-323.035"/>
</g>
<!-- Node17&#45;&gt;Node7 -->
<g id="edge24" class="edge"><title>Node17&#45;&gt;Node7</title>
<path fill="none" stroke="midnightblue" d="M378.598,-358.346C395.827,-350.158 415.068,-338.216 427.5,-322 447.244,-296.246 446.5,-283.951 446.5,-251.5 446.5,-251.5 446.5,-251.5 446.5,-182.5 446.5,-139.649 408.359,-101.818 383.787,-81.893"/>
<polygon fill="midnightblue" stroke="midnightblue" points="385.782,-79.0101 375.747,-75.6131 381.474,-84.5269 385.782,-79.0101"/>
</g>
<!-- Node17&#45;&gt;Node12 -->
<g id="edge23" class="edge"><title>Node17&#45;&gt;Node12</title>
<path fill="none" stroke="midnightblue" d="M327.575,-358.171C319.769,-348.631 310.41,-335.424 305.5,-322 282.481,-259.06 283.378,-177.846 285.208,-141.738"/>
<polygon fill="midnightblue" stroke="midnightblue" points="288.707,-141.869 285.806,-131.679 281.719,-141.454 288.707,-141.869"/>
</g>
<!-- Node17&#45;&gt;Node14 -->
<g id="edge25" class="edge"><title>Node17&#45;&gt;Node14</title>
<path fill="none" stroke="midnightblue" d="M346.662,-358.399C350.245,-350.199 354.797,-339.781 358.637,-330.994"/>
<polygon fill="midnightblue" stroke="midnightblue" points="361.92,-332.223 362.717,-321.658 355.505,-329.42 361.92,-332.223"/>
</g>
</g>
</svg>
        <g id="navigator" transform="translate(0 0)" fill="#404254">
                <rect fill="#f2f5e9" fill-opacity="0.5" stroke="#606060" stroke-width=".5" x="0" y="0" width="60" height="60"/>
                <use id="zoomplus" xlink:href="#zoomPlus" x="17" y="9" onmousedown="handleZoom(evt,'in')"/>
                <use id="zoomminus" xlink:href="#zoomMin" x="42" y="9" onmousedown="handleZoom(evt,'out')"/>
                <use id="reset" xlink:href="#resetDef" x="30" y="36" onmousedown="handleReset()"/>
                <g id="arrowUp" xlink:href="#dirArrow" transform="translate(30 24)" onmousedown="handlePan(0,-1)">
                  <use xlink:href="#rim" fill="#404040">
                        <set attributeName="fill" to="#808080" begin="arrowUp.mouseover" end="arrowUp.mouseout"/>
                  </use>
                  <path fill="none" stroke="white" stroke-width="1.5" d="M0,-3.0v7 M-2.5,-0.5L0,-3.0L2.5,-0.5"/>
                </g>
                <g id="arrowRight" xlink:href="#dirArrow" transform="rotate(90) translate(36 -43)" onmousedown="handlePan(1,0)">
                  <use xlink:href="#rim" fill="#404040">
                        <set attributeName="fill" to="#808080" begin="arrowRight.mouseover" end="arrowRight.mouseout"/>
                  </use>
                  <path fill="none" stroke="white" stroke-width="1.5" d="M0,-3.0v7 M-2.5,-0.5L0,-3.0L2.5,-0.5"/>
                </g>
                <g id="arrowDown" xlink:href="#dirArrow" transform="rotate(180) translate(-30 -48)" onmousedown="handlePan(0,1)">
                  <use xlink:href="#rim" fill="#404040">
                        <set attributeName="fill" to="#808080" begin="arrowDown.mouseover" end="arrowDown.mouseout"/>
                  </use>
                  <path fill="none" stroke="white" stroke-width="1.5" d="M0,-3.0v7 M-2.5,-0.5L0,-3.0L2.5,-0.5"/>
                </g>
                <g id="arrowLeft" xlink:href="#dirArrow" transform="rotate(270) translate(-36 17)" onmousedown="handlePan(-1,0)">
                  <use xlink:href="#rim" fill="#404040">
                        <set attributeName="fill" to="#808080" begin="arrowLeft.mouseover" end="arrowLeft.mouseout"/>
                  </use>
                  <path fill="none" stroke="white" stroke-width="1.5" d="M0,-3.0v7 M-2.5,-0.5L0,-3.0L2.5,-0.5"/>
                </g>
        </g>
        <svg viewBox="0 0 15 15" width="100%" height="30px" preserveAspectRatio="xMaxYMin meet">
         <g id="arrow_out" transform="scale(0.3 0.3)">
          <a xlink:href="enchanted__maze__game_8cc__incl_org.svg" target="_base">
           <rect id="button" ry="5" rx="5" y="6" x="6" height="38" width="38"
                fill="#f2f5e9" fill-opacity="0.5" stroke="#606060" stroke-width="1.0"/>
           <path id="arrow"
             d="M 11.500037,31.436501 C 11.940474,20.09759 22.043105,11.32322 32.158766,21.979434 L 37.068811,17.246167 C 37.068811,17.246167 37.088388,32 37.088388,32 L 22.160133,31.978069 C 22.160133,31.978069 26.997745,27.140456 26.997745,27.140456 C 18.528582,18.264221 13.291696,25.230495 11.500037,31.436501 z"
             style="fill:#404040;"/>
          </a>
         </g>
        </svg>
</svg>
