<?xml version="1.0" encoding="UTF-8" standalone="no"?>
<!DOCTYPE svg PUBLIC "-//W3C//DTD SVG 1.1//EN"
 "http://www.w3.org/Graphics/SVG/1.1/DTD/svg11.dtd">
<!-- Generated by graphviz version 2.38.0 (20140413.2041)
 -->
<!-- Title: operational::interpreter::BooleanExpInterface Pages: 1 -->
<svg width="645pt" height="259pt"
 viewBox="0.00 0.00 645.00 259.00" xmlns="http://www.w3.org/2000/svg" xmlns:xlink="http://www.w3.org/1999/xlink">
<g id="graph0" class="graph" transform="scale(1 1) rotate(0) translate(4 255)">
<title>operational::interpreter::BooleanExpInterface</title>
<polygon fill="white" stroke="none" points="-4,4 -4,-255 641,-255 641,4 -4,4"/>
<!-- Node1 -->
<g id="node1" class="node"><title>Node1</title>
<polygon fill="#bfbfbf" stroke="black" points="255,-149.5 255,-250.5 382,-250.5 382,-149.5 255,-149.5"/>
<text text-anchor="start" x="263" y="-238.5" font-family="Helvetica,sans-Serif" font-size="10.00">operational::interpreter</text>
<text text-anchor="middle" x="318.5" y="-227.5" font-family="Helvetica,sans-Serif" font-size="10.00">::BooleanExpInterface</text>
<polyline fill="none" stroke="black" points="255,-220.5 382,-220.5 "/>
<text text-anchor="middle" x="318.5" y="-208.5" font-family="Helvetica,sans-Serif" font-size="10.00"> </text>
<polyline fill="none" stroke="black" points="255,-201.5 382,-201.5 "/>
<text text-anchor="start" x="263" y="-189.5" font-family="Helvetica,sans-Serif" font-size="10.00">+ ~BooleanExpInterface()</text>
<text text-anchor="start" x="263" y="-178.5" font-family="Helvetica,sans-Serif" font-size="10.00">+ Evaluate()</text>
<text text-anchor="start" x="263" y="-167.5" font-family="Helvetica,sans-Serif" font-size="10.00">+ Replace()</text>
<text text-anchor="start" x="263" y="-156.5" font-family="Helvetica,sans-Serif" font-size="10.00">+ Copy()</text>
</g>
<!-- Node2 -->
<g id="node2" class="node"><title>Node2</title>
<g id="a_node2"><a xlink:href="../../d0/d5a/classoperational_1_1interpreter_1_1_and_exp.html" target="_top" xlink:title="{operational::interpreter\l::AndExp\n||+ AndExp()\l+ Evaluate()\l+ Replace()\l+ Copy()\l}">
<polygon fill="white" stroke="black" points="0,-6 0,-107 113,-107 113,-6 0,-6"/>
<text text-anchor="start" x="8" y="-95" font-family="Helvetica,sans-Serif" font-size="10.00">operational::interpreter</text>
<text text-anchor="middle" x="56.5" y="-84" font-family="Helvetica,sans-Serif" font-size="10.00">::AndExp</text>
<polyline fill="none" stroke="black" points="0,-77 113,-77 "/>
<text text-anchor="middle" x="56.5" y="-65" font-family="Helvetica,sans-Serif" font-size="10.00"> </text>
<polyline fill="none" stroke="black" points="0,-58 113,-58 "/>
<text text-anchor="start" x="8" y="-46" font-family="Helvetica,sans-Serif" font-size="10.00">+ AndExp()</text>
<text text-anchor="start" x="8" y="-35" font-family="Helvetica,sans-Serif" font-size="10.00">+ Evaluate()</text>
<text text-anchor="start" x="8" y="-24" font-family="Helvetica,sans-Serif" font-size="10.00">+ Replace()</text>
<text text-anchor="start" x="8" y="-13" font-family="Helvetica,sans-Serif" font-size="10.00">+ Copy()</text>
</a>
</g>
</g>
<!-- Node1&#45;&gt;Node2 -->
<g id="edge1" class="edge"><title>Node1&#45;&gt;Node2</title>
<path fill="none" stroke="midnightblue" d="M245.373,-173.055C207.11,-158.022 160.287,-137.273 121.5,-113 118.607,-111.19 115.709,-109.256 112.83,-107.237"/>
<polygon fill="none" stroke="midnightblue" points="244.318,-176.4 254.907,-176.753 246.849,-169.874 244.318,-176.4"/>
</g>
<!-- Node3 -->
<g id="node3" class="node"><title>Node3</title>
<g id="a_node3"><a xlink:href="../../db/df2/classoperational_1_1interpreter_1_1_constant.html" target="_top" xlink:title="{operational::interpreter\l::Constant\n||+ Constant()\l+ Evaluate()\l+ Replace()\l+ Copy()\l}">
<polygon fill="white" stroke="black" points="131,-6 131,-107 244,-107 244,-6 131,-6"/>
<text text-anchor="start" x="139" y="-95" font-family="Helvetica,sans-Serif" font-size="10.00">operational::interpreter</text>
<text text-anchor="middle" x="187.5" y="-84" font-family="Helvetica,sans-Serif" font-size="10.00">::Constant</text>
<polyline fill="none" stroke="black" points="131,-77 244,-77 "/>
<text text-anchor="middle" x="187.5" y="-65" font-family="Helvetica,sans-Serif" font-size="10.00"> </text>
<polyline fill="none" stroke="black" points="131,-58 244,-58 "/>
<text text-anchor="start" x="139" y="-46" font-family="Helvetica,sans-Serif" font-size="10.00">+ Constant()</text>
<text text-anchor="start" x="139" y="-35" font-family="Helvetica,sans-Serif" font-size="10.00">+ Evaluate()</text>
<text text-anchor="start" x="139" y="-24" font-family="Helvetica,sans-Serif" font-size="10.00">+ Replace()</text>
<text text-anchor="start" x="139" y="-13" font-family="Helvetica,sans-Serif" font-size="10.00">+ Copy()</text>
</a>
</g>
</g>
<!-- Node1&#45;&gt;Node3 -->
<g id="edge2" class="edge"><title>Node1&#45;&gt;Node3</title>
<path fill="none" stroke="midnightblue" d="M265.476,-141.725C254.953,-130.359 243.984,-118.511 233.71,-107.414"/>
<polygon fill="none" stroke="midnightblue" points="262.952,-144.152 272.314,-149.112 268.089,-139.397 262.952,-144.152"/>
</g>
<!-- Node4 -->
<g id="node4" class="node"><title>Node4</title>
<g id="a_node4"><a xlink:href="../../da/d2d/classoperational_1_1interpreter_1_1_not_exp.html" target="_top" xlink:title="{operational::interpreter\l::NotExp\n||+ NotExp()\l+ Evaluate()\l+ Replace()\l+ Copy()\l}">
<polygon fill="white" stroke="black" points="262,-6 262,-107 375,-107 375,-6 262,-6"/>
<text text-anchor="start" x="270" y="-95" font-family="Helvetica,sans-Serif" font-size="10.00">operational::interpreter</text>
<text text-anchor="middle" x="318.5" y="-84" font-family="Helvetica,sans-Serif" font-size="10.00">::NotExp</text>
<polyline fill="none" stroke="black" points="262,-77 375,-77 "/>
<text text-anchor="middle" x="318.5" y="-65" font-family="Helvetica,sans-Serif" font-size="10.00"> </text>
<polyline fill="none" stroke="black" points="262,-58 375,-58 "/>
<text text-anchor="start" x="270" y="-46" font-family="Helvetica,sans-Serif" font-size="10.00">+ NotExp()</text>
<text text-anchor="start" x="270" y="-35" font-family="Helvetica,sans-Serif" font-size="10.00">+ Evaluate()</text>
<text text-anchor="start" x="270" y="-24" font-family="Helvetica,sans-Serif" font-size="10.00">+ Replace()</text>
<text text-anchor="start" x="270" y="-13" font-family="Helvetica,sans-Serif" font-size="10.00">+ Copy()</text>
</a>
</g>
</g>
<!-- Node1&#45;&gt;Node4 -->
<g id="edge3" class="edge"><title>Node1&#45;&gt;Node4</title>
<path fill="none" stroke="midnightblue" d="M318.5,-138.793C318.5,-128.334 318.5,-117.56 318.5,-107.414"/>
<polygon fill="none" stroke="midnightblue" points="315,-139.112 318.5,-149.112 322,-139.112 315,-139.112"/>
</g>
<!-- Node5 -->
<g id="node5" class="node"><title>Node5</title>
<g id="a_node5"><a xlink:href="../../d2/d75/classoperational_1_1interpreter_1_1_or_exp.html" target="_top" xlink:title="{operational::interpreter\l::OrExp\n||+ OrExp()\l+ Evaluate()\l+ Replace()\l+ Copy()\l}">
<polygon fill="white" stroke="black" points="393,-6 393,-107 506,-107 506,-6 393,-6"/>
<text text-anchor="start" x="401" y="-95" font-family="Helvetica,sans-Serif" font-size="10.00">operational::interpreter</text>
<text text-anchor="middle" x="449.5" y="-84" font-family="Helvetica,sans-Serif" font-size="10.00">::OrExp</text>
<polyline fill="none" stroke="black" points="393,-77 506,-77 "/>
<text text-anchor="middle" x="449.5" y="-65" font-family="Helvetica,sans-Serif" font-size="10.00"> </text>
<polyline fill="none" stroke="black" points="393,-58 506,-58 "/>
<text text-anchor="start" x="401" y="-46" font-family="Helvetica,sans-Serif" font-size="10.00">+ OrExp()</text>
<text text-anchor="start" x="401" y="-35" font-family="Helvetica,sans-Serif" font-size="10.00">+ Evaluate()</text>
<text text-anchor="start" x="401" y="-24" font-family="Helvetica,sans-Serif" font-size="10.00">+ Replace()</text>
<text text-anchor="start" x="401" y="-13" font-family="Helvetica,sans-Serif" font-size="10.00">+ Copy()</text>
</a>
</g>
</g>
<!-- Node1&#45;&gt;Node5 -->
<g id="edge4" class="edge"><title>Node1&#45;&gt;Node5</title>
<path fill="none" stroke="midnightblue" d="M371.524,-141.725C382.047,-130.359 393.016,-118.511 403.29,-107.414"/>
<polygon fill="none" stroke="midnightblue" points="368.911,-139.397 364.686,-149.112 374.048,-144.152 368.911,-139.397"/>
</g>
<!-- Node6 -->
<g id="node6" class="node"><title>Node6</title>
<g id="a_node6"><a xlink:href="../../d5/dae/classoperational_1_1interpreter_1_1_variable_exp.html" target="_top" xlink:title="{operational::interpreter\l::VariableExp\n||+ VariableExp()\l+ Evaluate()\l+ Replace()\l+ Copy()\l+ name()\l}">
<polygon fill="white" stroke="black" points="524,-0.5 524,-112.5 637,-112.5 637,-0.5 524,-0.5"/>
<text text-anchor="start" x="532" y="-100.5" font-family="Helvetica,sans-Serif" font-size="10.00">operational::interpreter</text>
<text text-anchor="middle" x="580.5" y="-89.5" font-family="Helvetica,sans-Serif" font-size="10.00">::VariableExp</text>
<polyline fill="none" stroke="black" points="524,-82.5 637,-82.5 "/>
<text text-anchor="middle" x="580.5" y="-70.5" font-family="Helvetica,sans-Serif" font-size="10.00"> </text>
<polyline fill="none" stroke="black" points="524,-63.5 637,-63.5 "/>
<text text-anchor="start" x="532" y="-51.5" font-family="Helvetica,sans-Serif" font-size="10.00">+ VariableExp()</text>
<text text-anchor="start" x="532" y="-40.5" font-family="Helvetica,sans-Serif" font-size="10.00">+ Evaluate()</text>
<text text-anchor="start" x="532" y="-29.5" font-family="Helvetica,sans-Serif" font-size="10.00">+ Replace()</text>
<text text-anchor="start" x="532" y="-18.5" font-family="Helvetica,sans-Serif" font-size="10.00">+ Copy()</text>
<text text-anchor="start" x="532" y="-7.5" font-family="Helvetica,sans-Serif" font-size="10.00">+ name()</text>
</a>
</g>
</g>
<!-- Node1&#45;&gt;Node6 -->
<g id="edge5" class="edge"><title>Node1&#45;&gt;Node6</title>
<path fill="none" stroke="midnightblue" d="M391.627,-173.055C429.89,-158.022 476.713,-137.273 515.5,-113 518.267,-111.268 521.039,-109.424 523.794,-107.5"/>
<polygon fill="none" stroke="midnightblue" points="390.151,-169.874 382.093,-176.753 392.682,-176.4 390.151,-169.874"/>
</g>
</g>
</svg>
