<?xml version="1.0" encoding="UTF-8" standalone="no"?>
<!DOCTYPE svg PUBLIC "-//W3C//DTD SVG 1.1//EN"
 "http://www.w3.org/Graphics/SVG/1.1/DTD/svg11.dtd">
<!-- Generated by graphviz version 2.38.0 (20140413.2041)
 -->
<!-- Title: structural::composite::EquipmentInterface Pages: 1 -->
<svg width="403pt" height="507pt"
 viewBox="0.00 0.00 402.50 507.00" xmlns="http://www.w3.org/2000/svg" xmlns:xlink="http://www.w3.org/1999/xlink">
<g id="graph0" class="graph" transform="scale(1 1) rotate(0) translate(4 503)">
<title>structural::composite::EquipmentInterface</title>
<polygon fill="white" stroke="none" points="-4,4 -4,-503 398.5,-503 398.5,4 -4,4"/>
<!-- Node1 -->
<g id="node1" class="node"><title>Node1</title>
<polygon fill="#bfbfbf" stroke="black" points="143,-353.5 143,-498.5 264,-498.5 264,-353.5 143,-353.5"/>
<text text-anchor="start" x="151" y="-486.5" font-family="Helvetica,sans-Serif" font-size="10.00">structural::composite</text>
<text text-anchor="middle" x="203.5" y="-475.5" font-family="Helvetica,sans-Serif" font-size="10.00">::EquipmentInterface</text>
<polyline fill="none" stroke="black" points="143,-468.5 264,-468.5 "/>
<text text-anchor="middle" x="203.5" y="-456.5" font-family="Helvetica,sans-Serif" font-size="10.00"> </text>
<polyline fill="none" stroke="black" points="143,-449.5 264,-449.5 "/>
<text text-anchor="start" x="151" y="-437.5" font-family="Helvetica,sans-Serif" font-size="10.00">+ ~EquipmentInterface()</text>
<text text-anchor="start" x="151" y="-426.5" font-family="Helvetica,sans-Serif" font-size="10.00">+ name()</text>
<text text-anchor="start" x="151" y="-415.5" font-family="Helvetica,sans-Serif" font-size="10.00">+ price()</text>
<text text-anchor="start" x="151" y="-404.5" font-family="Helvetica,sans-Serif" font-size="10.00">+ price()</text>
<text text-anchor="start" x="151" y="-393.5" font-family="Helvetica,sans-Serif" font-size="10.00">+ power()</text>
<text text-anchor="start" x="151" y="-382.5" font-family="Helvetica,sans-Serif" font-size="10.00">+ power()</text>
<text text-anchor="start" x="151" y="-371.5" font-family="Helvetica,sans-Serif" font-size="10.00">+ NetPrice()</text>
<text text-anchor="start" x="151" y="-360.5" font-family="Helvetica,sans-Serif" font-size="10.00">+ DiscountPrice()</text>
</g>
<!-- Node2 -->
<g id="node2" class="node"><title>Node2</title>
<g id="a_node2"><a xlink:href="../../d7/d98/classstructural_1_1composite_1_1_card.html" target="_top" xlink:title="{structural::composite\l::Card\n||+ Card()\l+ Card()\l+ name()\l+ price()\l+ price()\l+ power()\l+ power()\l+ NetPrice()\l+ DiscountPrice()\l}">
<polygon fill="white" stroke="black" points="12.5,-138.5 12.5,-294.5 120.5,-294.5 120.5,-138.5 12.5,-138.5"/>
<text text-anchor="start" x="20.5" y="-282.5" font-family="Helvetica,sans-Serif" font-size="10.00">structural::composite</text>
<text text-anchor="middle" x="66.5" y="-271.5" font-family="Helvetica,sans-Serif" font-size="10.00">::Card</text>
<polyline fill="none" stroke="black" points="12.5,-264.5 120.5,-264.5 "/>
<text text-anchor="middle" x="66.5" y="-252.5" font-family="Helvetica,sans-Serif" font-size="10.00"> </text>
<polyline fill="none" stroke="black" points="12.5,-245.5 120.5,-245.5 "/>
<text text-anchor="start" x="20.5" y="-233.5" font-family="Helvetica,sans-Serif" font-size="10.00">+ Card()</text>
<text text-anchor="start" x="20.5" y="-222.5" font-family="Helvetica,sans-Serif" font-size="10.00">+ Card()</text>
<text text-anchor="start" x="20.5" y="-211.5" font-family="Helvetica,sans-Serif" font-size="10.00">+ name()</text>
<text text-anchor="start" x="20.5" y="-200.5" font-family="Helvetica,sans-Serif" font-size="10.00">+ price()</text>
<text text-anchor="start" x="20.5" y="-189.5" font-family="Helvetica,sans-Serif" font-size="10.00">+ price()</text>
<text text-anchor="start" x="20.5" y="-178.5" font-family="Helvetica,sans-Serif" font-size="10.00">+ power()</text>
<text text-anchor="start" x="20.5" y="-167.5" font-family="Helvetica,sans-Serif" font-size="10.00">+ power()</text>
<text text-anchor="start" x="20.5" y="-156.5" font-family="Helvetica,sans-Serif" font-size="10.00">+ NetPrice()</text>
<text text-anchor="start" x="20.5" y="-145.5" font-family="Helvetica,sans-Serif" font-size="10.00">+ DiscountPrice()</text>
</a>
</g>
</g>
<!-- Node1&#45;&gt;Node2 -->
<g id="edge1" class="edge"><title>Node1&#45;&gt;Node2</title>
<path fill="none" stroke="midnightblue" d="M148.006,-344.697C141.715,-335.391 135.436,-326.009 129.5,-317 124.719,-309.744 119.789,-302.155 114.892,-294.543"/>
<polygon fill="none" stroke="midnightblue" points="145.268,-346.896 153.776,-353.209 151.062,-342.968 145.268,-346.896"/>
</g>
<!-- Node3 -->
<g id="node3" class="node"><title>Node3</title>
<g id="a_node3"><a xlink:href="../../d9/d95/classstructural_1_1composite_1_1_composite_equipment.html" target="_top" xlink:title="{structural::composite\l::CompositeEquipment\n||+ name()\l+ price()\l+ price()\l+ power()\l+ power()\l+ NetPrice()\l+ DiscountPrice()\l+ Add()\l+ Remove()\l+ CreateIterator()\l# CompositeEquipment()\l# CompositeEquipment()\l# ~CompositeEquipment()\l}">
<polygon fill="white" stroke="black" points="138.5,-116.5 138.5,-316.5 268.5,-316.5 268.5,-116.5 138.5,-116.5"/>
<text text-anchor="start" x="146.5" y="-304.5" font-family="Helvetica,sans-Serif" font-size="10.00">structural::composite</text>
<text text-anchor="middle" x="203.5" y="-293.5" font-family="Helvetica,sans-Serif" font-size="10.00">::CompositeEquipment</text>
<polyline fill="none" stroke="black" points="138.5,-286.5 268.5,-286.5 "/>
<text text-anchor="middle" x="203.5" y="-274.5" font-family="Helvetica,sans-Serif" font-size="10.00"> </text>
<polyline fill="none" stroke="black" points="138.5,-267.5 268.5,-267.5 "/>
<text text-anchor="start" x="146.5" y="-255.5" font-family="Helvetica,sans-Serif" font-size="10.00">+ name()</text>
<text text-anchor="start" x="146.5" y="-244.5" font-family="Helvetica,sans-Serif" font-size="10.00">+ price()</text>
<text text-anchor="start" x="146.5" y="-233.5" font-family="Helvetica,sans-Serif" font-size="10.00">+ price()</text>
<text text-anchor="start" x="146.5" y="-222.5" font-family="Helvetica,sans-Serif" font-size="10.00">+ power()</text>
<text text-anchor="start" x="146.5" y="-211.5" font-family="Helvetica,sans-Serif" font-size="10.00">+ power()</text>
<text text-anchor="start" x="146.5" y="-200.5" font-family="Helvetica,sans-Serif" font-size="10.00">+ NetPrice()</text>
<text text-anchor="start" x="146.5" y="-189.5" font-family="Helvetica,sans-Serif" font-size="10.00">+ DiscountPrice()</text>
<text text-anchor="start" x="146.5" y="-178.5" font-family="Helvetica,sans-Serif" font-size="10.00">+ Add()</text>
<text text-anchor="start" x="146.5" y="-167.5" font-family="Helvetica,sans-Serif" font-size="10.00">+ Remove()</text>
<text text-anchor="start" x="146.5" y="-156.5" font-family="Helvetica,sans-Serif" font-size="10.00">+ CreateIterator()</text>
<text text-anchor="start" x="146.5" y="-145.5" font-family="Helvetica,sans-Serif" font-size="10.00"># CompositeEquipment()</text>
<text text-anchor="start" x="146.5" y="-134.5" font-family="Helvetica,sans-Serif" font-size="10.00"># CompositeEquipment()</text>
<text text-anchor="start" x="146.5" y="-123.5" font-family="Helvetica,sans-Serif" font-size="10.00"># ~CompositeEquipment()</text>
</a>
</g>
</g>
<!-- Node1&#45;&gt;Node3 -->
<g id="edge2" class="edge"><title>Node1&#45;&gt;Node3</title>
<path fill="none" stroke="midnightblue" d="M203.5,-343.186C203.5,-334.473 203.5,-325.544 203.5,-316.659"/>
<polygon fill="none" stroke="midnightblue" points="200,-343.3 203.5,-353.3 207,-343.3 200,-343.3"/>
</g>
<!-- Node7 -->
<g id="node7" class="node"><title>Node7</title>
<g id="a_node7"><a xlink:href="../../d5/d43/classstructural_1_1composite_1_1_floppy_disk.html" target="_top" xlink:title="{structural::composite\l::FloppyDisk\n||+ FloppyDisk()\l+ FloppyDisk()\l+ name()\l+ price()\l+ price()\l+ power()\l+ power()\l+ NetPrice()\l+ DiscountPrice()\l}">
<polygon fill="white" stroke="black" points="286.5,-138.5 286.5,-294.5 394.5,-294.5 394.5,-138.5 286.5,-138.5"/>
<text text-anchor="start" x="294.5" y="-282.5" font-family="Helvetica,sans-Serif" font-size="10.00">structural::composite</text>
<text text-anchor="middle" x="340.5" y="-271.5" font-family="Helvetica,sans-Serif" font-size="10.00">::FloppyDisk</text>
<polyline fill="none" stroke="black" points="286.5,-264.5 394.5,-264.5 "/>
<text text-anchor="middle" x="340.5" y="-252.5" font-family="Helvetica,sans-Serif" font-size="10.00"> </text>
<polyline fill="none" stroke="black" points="286.5,-245.5 394.5,-245.5 "/>
<text text-anchor="start" x="294.5" y="-233.5" font-family="Helvetica,sans-Serif" font-size="10.00">+ FloppyDisk()</text>
<text text-anchor="start" x="294.5" y="-222.5" font-family="Helvetica,sans-Serif" font-size="10.00">+ FloppyDisk()</text>
<text text-anchor="start" x="294.5" y="-211.5" font-family="Helvetica,sans-Serif" font-size="10.00">+ name()</text>
<text text-anchor="start" x="294.5" y="-200.5" font-family="Helvetica,sans-Serif" font-size="10.00">+ price()</text>
<text text-anchor="start" x="294.5" y="-189.5" font-family="Helvetica,sans-Serif" font-size="10.00">+ price()</text>
<text text-anchor="start" x="294.5" y="-178.5" font-family="Helvetica,sans-Serif" font-size="10.00">+ power()</text>
<text text-anchor="start" x="294.5" y="-167.5" font-family="Helvetica,sans-Serif" font-size="10.00">+ power()</text>
<text text-anchor="start" x="294.5" y="-156.5" font-family="Helvetica,sans-Serif" font-size="10.00">+ NetPrice()</text>
<text text-anchor="start" x="294.5" y="-145.5" font-family="Helvetica,sans-Serif" font-size="10.00">+ DiscountPrice()</text>
</a>
</g>
</g>
<!-- Node1&#45;&gt;Node7 -->
<g id="edge6" class="edge"><title>Node1&#45;&gt;Node7</title>
<path fill="none" stroke="midnightblue" d="M258.994,-344.697C265.285,-335.391 271.564,-326.009 277.5,-317 282.281,-309.744 287.211,-302.155 292.108,-294.543"/>
<polygon fill="none" stroke="midnightblue" points="255.938,-342.968 253.224,-353.209 261.732,-346.896 255.938,-342.968"/>
</g>
<!-- Node4 -->
<g id="node4" class="node"><title>Node4</title>
<g id="a_node4"><a xlink:href="../../dc/d6c/classstructural_1_1composite_1_1_bus.html" target="_top" xlink:title="{structural::composite::Bus\n||+ Bus()\l+ Bus()\l}">
<polygon fill="white" stroke="black" points="0,-6 0,-74 131,-74 131,-6 0,-6"/>
<text text-anchor="middle" x="65.5" y="-62" font-family="Helvetica,sans-Serif" font-size="10.00">structural::composite::Bus</text>
<polyline fill="none" stroke="black" points="0,-55 131,-55 "/>
<text text-anchor="middle" x="65.5" y="-43" font-family="Helvetica,sans-Serif" font-size="10.00"> </text>
<polyline fill="none" stroke="black" points="0,-36 131,-36 "/>
<text text-anchor="start" x="8" y="-24" font-family="Helvetica,sans-Serif" font-size="10.00">+ Bus()</text>
<text text-anchor="start" x="8" y="-13" font-family="Helvetica,sans-Serif" font-size="10.00">+ Bus()</text>
</a>
</g>
</g>
<!-- Node3&#45;&gt;Node4 -->
<g id="edge3" class="edge"><title>Node3&#45;&gt;Node4</title>
<path fill="none" stroke="midnightblue" d="M131.999,-119.147C131.164,-118.091 130.33,-117.042 129.5,-116 118.404,-102.079 105.761,-87.091 94.6594,-74.2003"/>
<polygon fill="none" stroke="midnightblue" points="129.518,-121.655 138.445,-127.361 135.025,-117.334 129.518,-121.655"/>
</g>
<!-- Node5 -->
<g id="node5" class="node"><title>Node5</title>
<g id="a_node5"><a xlink:href="../../d1/d1f/classstructural_1_1composite_1_1_cabinet.html" target="_top" xlink:title="{structural::composite\l::Cabinet\n||+ Cabinet()\l+ Cabinet()\l}">
<polygon fill="white" stroke="black" points="149.5,-0.5 149.5,-79.5 257.5,-79.5 257.5,-0.5 149.5,-0.5"/>
<text text-anchor="start" x="157.5" y="-67.5" font-family="Helvetica,sans-Serif" font-size="10.00">structural::composite</text>
<text text-anchor="middle" x="203.5" y="-56.5" font-family="Helvetica,sans-Serif" font-size="10.00">::Cabinet</text>
<polyline fill="none" stroke="black" points="149.5,-49.5 257.5,-49.5 "/>
<text text-anchor="middle" x="203.5" y="-37.5" font-family="Helvetica,sans-Serif" font-size="10.00"> </text>
<polyline fill="none" stroke="black" points="149.5,-30.5 257.5,-30.5 "/>
<text text-anchor="start" x="157.5" y="-18.5" font-family="Helvetica,sans-Serif" font-size="10.00">+ Cabinet()</text>
<text text-anchor="start" x="157.5" y="-7.5" font-family="Helvetica,sans-Serif" font-size="10.00">+ Cabinet()</text>
</a>
</g>
</g>
<!-- Node3&#45;&gt;Node5 -->
<g id="edge4" class="edge"><title>Node3&#45;&gt;Node5</title>
<path fill="none" stroke="midnightblue" d="M203.5,-106.094C203.5,-96.8262 203.5,-87.9152 203.5,-79.8186"/>
<polygon fill="none" stroke="midnightblue" points="200,-106.27 203.5,-116.27 207,-106.27 200,-106.27"/>
</g>
<!-- Node6 -->
<g id="node6" class="node"><title>Node6</title>
<g id="a_node6"><a xlink:href="../../d5/dd4/classstructural_1_1composite_1_1_chassis.html" target="_top" xlink:title="{structural::composite\l::Chassis\n||+ Chassis()\l+ Chassis()\l}">
<polygon fill="white" stroke="black" points="275.5,-0.5 275.5,-79.5 383.5,-79.5 383.5,-0.5 275.5,-0.5"/>
<text text-anchor="start" x="283.5" y="-67.5" font-family="Helvetica,sans-Serif" font-size="10.00">structural::composite</text>
<text text-anchor="middle" x="329.5" y="-56.5" font-family="Helvetica,sans-Serif" font-size="10.00">::Chassis</text>
<polyline fill="none" stroke="black" points="275.5,-49.5 383.5,-49.5 "/>
<text text-anchor="middle" x="329.5" y="-37.5" font-family="Helvetica,sans-Serif" font-size="10.00"> </text>
<polyline fill="none" stroke="black" points="275.5,-30.5 383.5,-30.5 "/>
<text text-anchor="start" x="283.5" y="-18.5" font-family="Helvetica,sans-Serif" font-size="10.00">+ Chassis()</text>
<text text-anchor="start" x="283.5" y="-7.5" font-family="Helvetica,sans-Serif" font-size="10.00">+ Chassis()</text>
</a>
</g>
</g>
<!-- Node3&#45;&gt;Node6 -->
<g id="edge5" class="edge"><title>Node3&#45;&gt;Node6</title>
<path fill="none" stroke="midnightblue" d="M274.533,-117.125C284.134,-103.828 293.483,-90.8808 301.667,-79.5471"/>
<polygon fill="none" stroke="midnightblue" points="271.546,-115.282 268.53,-125.439 277.222,-119.38 271.546,-115.282"/>
</g>
</g>
</svg>
