<?xml version="1.0" encoding="UTF-8" standalone="no"?>
<!DOCTYPE svg PUBLIC "-//W3C//DTD SVG 1.1//EN"
 "http://www.w3.org/Graphics/SVG/1.1/DTD/svg11.dtd">
<!-- Generated by graphviz version 2.38.0 (20140413.2041)
 -->
<!-- Title: src/operational/src/command/command_interface.h Pages: 1 -->
<!--zoomable 184 -->
<svg id="main" version="1.1" xmlns="http://www.w3.org/2000/svg" xmlns:xlink="http://www.w3.org/1999/xlink" xml:space="preserve" onload="init(evt)">
<style type="text/css"><![CDATA[
.edge:hover path { stroke: red; }
.edge:hover polygon { stroke: red; fill: red; }
]]></style>
<script type="text/javascript"><![CDATA[
var edges = document.getElementsByTagName('g');
if (edges && edges.length) {
  for (var i=0;i<edges.length;i++) {
    if (edges[i].id.substr(0,4)=='edge') {
      edges[i].setAttribute('class','edge');
    }
  }
}
]]></script>
        <defs>
                <circle id="rim" cx="0" cy="0" r="7"/>
                <circle id="rim2" cx="0" cy="0" r="3.5"/>
                <g id="zoomPlus">
                        <use xlink:href="#rim" fill="#404040">
                                <set attributeName="fill" to="#808080" begin="zoomplus.mouseover" end="zoomplus.mouseout"/>
                        </use>
                        <path d="M-4,0h8M0,-4v8" fill="none" stroke="white" stroke-width="1.5" pointer-events="none"/>
                </g>
                <g id="zoomMin">
                        <use xlink:href="#rim" fill="#404040">
                                <set attributeName="fill" to="#808080" begin="zoomminus.mouseover" end="zoomminus.mouseout"/>
                        </use>
                        <path d="M-4,0h8" fill="none" stroke="white" stroke-width="1.5" pointer-events="none"/>
                </g>
                <g id="dirArrow">
                        <path fill="none" stroke="white" stroke-width="1.5" d="M0,-3.0v7 M-2.5,-0.5L0,-3.0L2.5,-0.5"/>
                </g>
               <g id="resetDef">
                       <use xlink:href="#rim2" fill="#404040">
                               <set attributeName="fill" to="#808080" begin="reset.mouseover" end="reset.mouseout"/>
                       </use>
               </g>
        </defs>

<script type="text/javascript">
var viewWidth = 658;
var viewHeight = 184;
var sectionId = 'dynsection-0';
</script>
<script xlink:href="../../svgpan.js"/>
<svg id="graph" class="graph">
<g id="viewport">
<title>src/operational/src/command/command_interface.h</title>
<polygon fill="white" stroke="none" points="-4,4 -4,-180 653.5,-180 653.5,4 -4,4"/>
<!-- Node1 -->
<g id="node1" class="node"><title>Node1</title>
<polygon fill="#bfbfbf" stroke="black" points="246,-145.5 246,-175.5 404,-175.5 404,-145.5 246,-145.5"/>
<text text-anchor="start" x="254" y="-163.5" font-family="Helvetica,sans-Serif" font-size="10.00">src/operational/src</text>
<text text-anchor="middle" x="325" y="-152.5" font-family="Helvetica,sans-Serif" font-size="10.00">/command/command_interface.h</text>
</g>
<!-- Node2 -->
<g id="node2" class="node"><title>Node2</title>
<g id="a_node2"><a xlink:href="../../d6/de4/macro__command_8h.html" target="_top" xlink:title="src/operational/src\l/command/macro_command.h">
<polygon fill="white" stroke="black" points="4.5,-78.5 4.5,-108.5 153.5,-108.5 153.5,-78.5 4.5,-78.5"/>
<text text-anchor="start" x="12.5" y="-96.5" font-family="Helvetica,sans-Serif" font-size="10.00">src/operational/src</text>
<text text-anchor="middle" x="79" y="-85.5" font-family="Helvetica,sans-Serif" font-size="10.00">/command/macro_command.h</text>
</a>
</g>
</g>
<!-- Node1&#45;&gt;Node2 -->
<g id="edge1" class="edge"><title>Node1&#45;&gt;Node2</title>
<path fill="none" stroke="midnightblue" d="M262.24,-142.917C222.096,-132.31 170.583,-118.699 132.404,-108.611"/>
<polygon fill="midnightblue" stroke="midnightblue" points="261.362,-146.305 271.925,-145.476 263.15,-139.537 261.362,-146.305"/>
</g>
<!-- Node5 -->
<g id="node5" class="node"><title>Node5</title>
<g id="a_node5"><a xlink:href="../../d1/d01/open__command_8h.html" target="_top" xlink:title="src/operational/src\l/command/open_command.h">
<polygon fill="white" stroke="black" points="171.5,-78.5 171.5,-108.5 314.5,-108.5 314.5,-78.5 171.5,-78.5"/>
<text text-anchor="start" x="179.5" y="-96.5" font-family="Helvetica,sans-Serif" font-size="10.00">src/operational/src</text>
<text text-anchor="middle" x="243" y="-85.5" font-family="Helvetica,sans-Serif" font-size="10.00">/command/open_command.h</text>
</a>
</g>
</g>
<!-- Node1&#45;&gt;Node5 -->
<g id="edge4" class="edge"><title>Node1&#45;&gt;Node5</title>
<path fill="none" stroke="midnightblue" d="M299.35,-139.168C286.811,-129.228 272.034,-117.514 260.758,-108.577"/>
<polygon fill="midnightblue" stroke="midnightblue" points="297.196,-141.927 307.207,-145.396 301.545,-136.441 297.196,-141.927"/>
</g>
<!-- Node7 -->
<g id="node7" class="node"><title>Node7</title>
<g id="a_node7"><a xlink:href="../../d5/dd8/paste__command_8h.html" target="_top" xlink:title="src/operational/src\l/command/paste_command.h">
<polygon fill="white" stroke="black" points="501,-78.5 501,-108.5 647,-108.5 647,-78.5 501,-78.5"/>
<text text-anchor="start" x="509" y="-96.5" font-family="Helvetica,sans-Serif" font-size="10.00">src/operational/src</text>
<text text-anchor="middle" x="574" y="-85.5" font-family="Helvetica,sans-Serif" font-size="10.00">/command/paste_command.h</text>
</a>
</g>
</g>
<!-- Node1&#45;&gt;Node7 -->
<g id="edge7" class="edge"><title>Node1&#45;&gt;Node7</title>
<path fill="none" stroke="midnightblue" d="M388.525,-142.917C429.159,-132.31 481.3,-118.699 519.944,-108.611"/>
<polygon fill="midnightblue" stroke="midnightblue" points="387.514,-139.564 378.723,-145.476 389.283,-146.337 387.514,-139.564"/>
</g>
<!-- Node9 -->
<g id="node9" class="node"><title>Node9</title>
<g id="a_node9"><a xlink:href="../../dc/dc6/simple__command_8h.html" target="_top" xlink:title="src/operational/src\l/command/simple_command.h">
<polygon fill="white" stroke="black" points="333,-78.5 333,-108.5 483,-108.5 483,-78.5 333,-78.5"/>
<text text-anchor="start" x="341" y="-96.5" font-family="Helvetica,sans-Serif" font-size="10.00">src/operational/src</text>
<text text-anchor="middle" x="408" y="-85.5" font-family="Helvetica,sans-Serif" font-size="10.00">/command/simple_command.h</text>
</a>
</g>
</g>
<!-- Node1&#45;&gt;Node9 -->
<g id="edge10" class="edge"><title>Node1&#45;&gt;Node9</title>
<path fill="none" stroke="midnightblue" d="M350.963,-139.168C363.655,-129.228 378.612,-117.514 390.025,-108.577"/>
<polygon fill="midnightblue" stroke="midnightblue" points="348.725,-136.475 343.01,-145.396 353.041,-141.986 348.725,-136.475"/>
</g>
<!-- Node3 -->
<g id="node3" class="node"><title>Node3</title>
<g id="a_node3"><a xlink:href="../../d0/df6/macro__command_8cc.html" target="_top" xlink:title="src/operational/src\l/command/macro_command.cc">
<polygon fill="white" stroke="black" points="0,-6 0,-36 154,-36 154,-6 0,-6"/>
<text text-anchor="start" x="8" y="-24" font-family="Helvetica,sans-Serif" font-size="10.00">src/operational/src</text>
<text text-anchor="middle" x="77" y="-13" font-family="Helvetica,sans-Serif" font-size="10.00">/command/macro_command.cc</text>
</a>
</g>
</g>
<!-- Node2&#45;&gt;Node3 -->
<g id="edge2" class="edge"><title>Node2&#45;&gt;Node3</title>
<path fill="none" stroke="midnightblue" d="M78.3115,-68.2317C78.009,-57.5679 77.6642,-45.4145 77.4041,-36.2455"/>
<polygon fill="midnightblue" stroke="midnightblue" points="74.813,-68.3366 78.5953,-78.2333 81.8102,-68.138 74.813,-68.3366"/>
</g>
<!-- Node4 -->
<g id="node4" class="node"><title>Node4</title>
<g id="a_node4"><a xlink:href="../../de/de3/command__test_8cc.html" target="_top" xlink:title="src/operational_tests\l/src/command/command\l_test.cc">
<polygon fill="white" stroke="black" points="340.5,-0.5 340.5,-41.5 465.5,-41.5 465.5,-0.5 340.5,-0.5"/>
<text text-anchor="start" x="348.5" y="-29.5" font-family="Helvetica,sans-Serif" font-size="10.00">src/operational_tests</text>
<text text-anchor="start" x="348.5" y="-18.5" font-family="Helvetica,sans-Serif" font-size="10.00">/src/command/command</text>
<text text-anchor="middle" x="403" y="-7.5" font-family="Helvetica,sans-Serif" font-size="10.00">_test.cc</text>
</a>
</g>
</g>
<!-- Node2&#45;&gt;Node4 -->
<g id="edge3" class="edge"><title>Node2&#45;&gt;Node4</title>
<path fill="none" stroke="midnightblue" d="M163.503,-76.8403C212.084,-67.4857 274.166,-54.9339 329,-42 332.756,-41.114 336.611,-40.1721 340.494,-39.1983"/>
<polygon fill="midnightblue" stroke="midnightblue" points="162.823,-73.4068 153.661,-78.7273 164.141,-80.2816 162.823,-73.4068"/>
</g>
<!-- Node5&#45;&gt;Node4 -->
<g id="edge6" class="edge"><title>Node5&#45;&gt;Node4</title>
<path fill="none" stroke="midnightblue" d="M284.386,-74.2645C307.155,-64.2315 335.416,-51.7794 358.639,-41.5464"/>
<polygon fill="midnightblue" stroke="midnightblue" points="282.734,-71.1676 274.994,-78.4027 285.556,-77.5733 282.734,-71.1676"/>
</g>
<!-- Node6 -->
<g id="node6" class="node"><title>Node6</title>
<g id="a_node6"><a xlink:href="../../d1/d26/open__command_8cc.html" target="_top" xlink:title="src/operational/src\l/command/open_command.cc">
<polygon fill="white" stroke="black" points="172,-6 172,-36 320,-36 320,-6 172,-6"/>
<text text-anchor="start" x="180" y="-24" font-family="Helvetica,sans-Serif" font-size="10.00">src/operational/src</text>
<text text-anchor="middle" x="246" y="-13" font-family="Helvetica,sans-Serif" font-size="10.00">/command/open_command.cc</text>
</a>
</g>
</g>
<!-- Node5&#45;&gt;Node6 -->
<g id="edge5" class="edge"><title>Node5&#45;&gt;Node6</title>
<path fill="none" stroke="midnightblue" d="M244.033,-68.2317C244.486,-57.5679 245.004,-45.4145 245.394,-36.2455"/>
<polygon fill="midnightblue" stroke="midnightblue" points="240.536,-68.0935 243.607,-78.2333 247.529,-68.3911 240.536,-68.0935"/>
</g>
<!-- Node7&#45;&gt;Node4 -->
<g id="edge9" class="edge"><title>Node7&#45;&gt;Node4</title>
<path fill="none" stroke="midnightblue" d="M530.42,-74.5327C505.974,-64.4541 475.452,-51.8707 450.41,-41.5464"/>
<polygon fill="midnightblue" stroke="midnightblue" points="529.227,-77.8269 539.807,-78.4027 531.896,-71.3553 529.227,-77.8269"/>
</g>
<!-- Node8 -->
<g id="node8" class="node"><title>Node8</title>
<g id="a_node8"><a xlink:href="../../d8/de2/paste__command_8cc.html" target="_top" xlink:title="src/operational/src\l/command/paste_command.cc">
<polygon fill="white" stroke="black" points="498.5,-6 498.5,-36 649.5,-36 649.5,-6 498.5,-6"/>
<text text-anchor="start" x="506.5" y="-24" font-family="Helvetica,sans-Serif" font-size="10.00">src/operational/src</text>
<text text-anchor="middle" x="574" y="-13" font-family="Helvetica,sans-Serif" font-size="10.00">/command/paste_command.cc</text>
</a>
</g>
</g>
<!-- Node7&#45;&gt;Node8 -->
<g id="edge8" class="edge"><title>Node7&#45;&gt;Node8</title>
<path fill="none" stroke="midnightblue" d="M574,-68.2317C574,-57.5679 574,-45.4145 574,-36.2455"/>
<polygon fill="midnightblue" stroke="midnightblue" points="570.5,-68.2332 574,-78.2333 577.5,-68.2333 570.5,-68.2332"/>
</g>
<!-- Node9&#45;&gt;Node4 -->
<g id="edge11" class="edge"><title>Node9&#45;&gt;Node4</title>
<path fill="none" stroke="midnightblue" d="M406.261,-67.9815C405.649,-59.3468 404.969,-49.7625 404.389,-41.5884"/>
<polygon fill="midnightblue" stroke="midnightblue" points="402.789,-68.506 406.988,-78.2333 409.772,-68.0107 402.789,-68.506"/>
</g>
</g>
</svg>
        <g id="navigator" transform="translate(0 0)" fill="#404254">
                <rect fill="#f2f5e9" fill-opacity="0.5" stroke="#606060" stroke-width=".5" x="0" y="0" width="60" height="60"/>
                <use id="zoomplus" xlink:href="#zoomPlus" x="17" y="9" onmousedown="handleZoom(evt,'in')"/>
                <use id="zoomminus" xlink:href="#zoomMin" x="42" y="9" onmousedown="handleZoom(evt,'out')"/>
                <use id="reset" xlink:href="#resetDef" x="30" y="36" onmousedown="handleReset()"/>
                <g id="arrowUp" xlink:href="#dirArrow" transform="translate(30 24)" onmousedown="handlePan(0,-1)">
                  <use xlink:href="#rim" fill="#404040">
                        <set attributeName="fill" to="#808080" begin="arrowUp.mouseover" end="arrowUp.mouseout"/>
                  </use>
                  <path fill="none" stroke="white" stroke-width="1.5" d="M0,-3.0v7 M-2.5,-0.5L0,-3.0L2.5,-0.5"/>
                </g>
                <g id="arrowRight" xlink:href="#dirArrow" transform="rotate(90) translate(36 -43)" onmousedown="handlePan(1,0)">
                  <use xlink:href="#rim" fill="#404040">
                        <set attributeName="fill" to="#808080" begin="arrowRight.mouseover" end="arrowRight.mouseout"/>
                  </use>
                  <path fill="none" stroke="white" stroke-width="1.5" d="M0,-3.0v7 M-2.5,-0.5L0,-3.0L2.5,-0.5"/>
                </g>
                <g id="arrowDown" xlink:href="#dirArrow" transform="rotate(180) translate(-30 -48)" onmousedown="handlePan(0,1)">
                  <use xlink:href="#rim" fill="#404040">
                        <set attributeName="fill" to="#808080" begin="arrowDown.mouseover" end="arrowDown.mouseout"/>
                  </use>
                  <path fill="none" stroke="white" stroke-width="1.5" d="M0,-3.0v7 M-2.5,-0.5L0,-3.0L2.5,-0.5"/>
                </g>
                <g id="arrowLeft" xlink:href="#dirArrow" transform="rotate(270) translate(-36 17)" onmousedown="handlePan(-1,0)">
                  <use xlink:href="#rim" fill="#404040">
                        <set attributeName="fill" to="#808080" begin="arrowLeft.mouseover" end="arrowLeft.mouseout"/>
                  </use>
                  <path fill="none" stroke="white" stroke-width="1.5" d="M0,-3.0v7 M-2.5,-0.5L0,-3.0L2.5,-0.5"/>
                </g>
        </g>
        <svg viewBox="0 0 15 15" width="100%" height="30px" preserveAspectRatio="xMaxYMin meet">
         <g id="arrow_out" transform="scale(0.3 0.3)">
          <a xlink:href="command__interface_8h__dep__incl_org.svg" target="_base">
           <rect id="button" ry="5" rx="5" y="6" x="6" height="38" width="38"
                fill="#f2f5e9" fill-opacity="0.5" stroke="#606060" stroke-width="1.0"/>
           <path id="arrow"
             d="M 11.500037,31.436501 C 11.940474,20.09759 22.043105,11.32322 32.158766,21.979434 L 37.068811,17.246167 C 37.068811,17.246167 37.088388,32 37.088388,32 L 22.160133,31.978069 C 22.160133,31.978069 26.997745,27.140456 26.997745,27.140456 C 18.528582,18.264221 13.291696,25.230495 11.500037,31.436501 z"
             style="fill:#404040;"/>
          </a>
         </g>
        </svg>
</svg>
