<?xml version="1.0" encoding="UTF-8" standalone="no"?>
<!DOCTYPE svg PUBLIC "-//W3C//DTD SVG 1.1//EN"
 "http://www.w3.org/Graphics/SVG/1.1/DTD/svg11.dtd">
<!-- Generated by graphviz version 2.38.0 (20140413.2041)
 -->
<!-- Title: operational::templatemethod::TemplateApplication Pages: 1 -->
<svg width="154pt" height="270pt"
 viewBox="0.00 0.00 154.00 270.00" xmlns="http://www.w3.org/2000/svg" xmlns:xlink="http://www.w3.org/1999/xlink">
<g id="graph0" class="graph" transform="scale(1 1) rotate(0) translate(4 266)">
<title>operational::templatemethod::TemplateApplication</title>
<polygon fill="white" stroke="none" points="-4,4 -4,-266 150,-266 150,4 -4,4"/>
<!-- Node1 -->
<g id="node1" class="node"><title>Node1</title>
<polygon fill="#bfbfbf" stroke="black" points="0,-127.5 0,-261.5 146,-261.5 146,-127.5 0,-127.5"/>
<text text-anchor="start" x="8" y="-249.5" font-family="Helvetica,sans-Serif" font-size="10.00">operational::templatemethod</text>
<text text-anchor="middle" x="73" y="-238.5" font-family="Helvetica,sans-Serif" font-size="10.00">::TemplateApplication</text>
<polyline fill="none" stroke="black" points="0,-231.5 146,-231.5 "/>
<text text-anchor="middle" x="73" y="-219.5" font-family="Helvetica,sans-Serif" font-size="10.00"> </text>
<polyline fill="none" stroke="black" points="0,-212.5 146,-212.5 "/>
<text text-anchor="start" x="8" y="-200.5" font-family="Helvetica,sans-Serif" font-size="10.00">+ TemplateApplication()</text>
<text text-anchor="start" x="8" y="-189.5" font-family="Helvetica,sans-Serif" font-size="10.00">+ ~TemplateApplication()</text>
<text text-anchor="start" x="8" y="-178.5" font-family="Helvetica,sans-Serif" font-size="10.00">+ OpenDocument()</text>
<text text-anchor="start" x="8" y="-167.5" font-family="Helvetica,sans-Serif" font-size="10.00">+ GetCurrentDocumentState()</text>
<text text-anchor="start" x="8" y="-156.5" font-family="Helvetica,sans-Serif" font-size="10.00">+ CreateDocument()</text>
<text text-anchor="start" x="8" y="-145.5" font-family="Helvetica,sans-Serif" font-size="10.00">+ CanOpenDocument()</text>
<text text-anchor="start" x="8" y="-134.5" font-family="Helvetica,sans-Serif" font-size="10.00">+ AboutToOpenDocument()</text>
</g>
<!-- Node2 -->
<g id="node2" class="node"><title>Node2</title>
<g id="a_node2"><a xlink:href="../../d6/df2/classoperational_1_1templatemethod_1_1_sample_application.html" target="_top" xlink:title="{operational::templatemethod\l::SampleApplication\n||+ CreateDocument()\l+ CanOpenDocument()\l+ AboutToOpenDocument()\l}">
<polygon fill="white" stroke="black" points="3,-0.5 3,-90.5 143,-90.5 143,-0.5 3,-0.5"/>
<text text-anchor="start" x="11" y="-78.5" font-family="Helvetica,sans-Serif" font-size="10.00">operational::templatemethod</text>
<text text-anchor="middle" x="73" y="-67.5" font-family="Helvetica,sans-Serif" font-size="10.00">::SampleApplication</text>
<polyline fill="none" stroke="black" points="3,-60.5 143,-60.5 "/>
<text text-anchor="middle" x="73" y="-48.5" font-family="Helvetica,sans-Serif" font-size="10.00"> </text>
<polyline fill="none" stroke="black" points="3,-41.5 143,-41.5 "/>
<text text-anchor="start" x="11" y="-29.5" font-family="Helvetica,sans-Serif" font-size="10.00">+ CreateDocument()</text>
<text text-anchor="start" x="11" y="-18.5" font-family="Helvetica,sans-Serif" font-size="10.00">+ CanOpenDocument()</text>
<text text-anchor="start" x="11" y="-7.5" font-family="Helvetica,sans-Serif" font-size="10.00">+ AboutToOpenDocument()</text>
</a>
</g>
</g>
<!-- Node1&#45;&gt;Node2 -->
<g id="edge1" class="edge"><title>Node1&#45;&gt;Node2</title>
<path fill="none" stroke="midnightblue" d="M73,-117.15C73,-108.147 73,-99.2002 73,-90.8525"/>
<polygon fill="none" stroke="midnightblue" points="69.5001,-117.31 73,-127.311 76.5001,-117.311 69.5001,-117.31"/>
</g>
</g>
</svg>
