<?xml version="1.0" encoding="UTF-8" standalone="no"?>
<!DOCTYPE svg PUBLIC "-//W3C//DTD SVG 1.1//EN"
 "http://www.w3.org/Graphics/SVG/1.1/DTD/svg11.dtd">
<!-- Generated by graphviz version 2.38.0 (20140413.2041)
 -->
<!-- Title: src/structural/src/composite/currency.h Pages: 1 -->
<svg width="795pt" height="351pt"
 viewBox="0.00 0.00 794.50 351.00" xmlns="http://www.w3.org/2000/svg" xmlns:xlink="http://www.w3.org/1999/xlink">
<g id="graph0" class="graph" transform="scale(1 1) rotate(0) translate(4 347)">
<title>src/structural/src/composite/currency.h</title>
<polygon fill="white" stroke="none" points="-4,4 -4,-347 790.5,-347 790.5,4 -4,4"/>
<!-- Node1 -->
<g id="node1" class="node"><title>Node1</title>
<polygon fill="#bfbfbf" stroke="black" points="543,-312.5 543,-342.5 656,-342.5 656,-312.5 543,-312.5"/>
<text text-anchor="start" x="551" y="-330.5" font-family="Helvetica,sans-Serif" font-size="10.00">src/structural/src</text>
<text text-anchor="middle" x="599.5" y="-319.5" font-family="Helvetica,sans-Serif" font-size="10.00">/composite/currency.h</text>
</g>
<!-- Node2 -->
<g id="node2" class="node"><title>Node2</title>
<g id="a_node2"><a xlink:href="../../d4/d70/equipment__interface_8h.html" target="_top" xlink:title="src/structural/src\l/composite/equipment\l_interface.h">
<polygon fill="white" stroke="black" points="475,-234.5 475,-275.5 588,-275.5 588,-234.5 475,-234.5"/>
<text text-anchor="start" x="483" y="-263.5" font-family="Helvetica,sans-Serif" font-size="10.00">src/structural/src</text>
<text text-anchor="start" x="483" y="-252.5" font-family="Helvetica,sans-Serif" font-size="10.00">/composite/equipment</text>
<text text-anchor="middle" x="531.5" y="-241.5" font-family="Helvetica,sans-Serif" font-size="10.00">_interface.h</text>
</a>
</g>
</g>
<!-- Node1&#45;&gt;Node2 -->
<g id="edge1" class="edge"><title>Node1&#45;&gt;Node2</title>
<path fill="none" stroke="midnightblue" d="M578.59,-304.821C569.594,-295.494 559.154,-284.671 550.394,-275.588"/>
<polygon fill="midnightblue" stroke="midnightblue" points="576.278,-307.466 585.739,-312.233 581.316,-302.606 576.278,-307.466"/>
</g>
<!-- Node16 -->
<g id="node16" class="node"><title>Node16</title>
<g id="a_node16"><a xlink:href="../../d5/d43/currrency_8cc.html" target="_top" xlink:title="src/structural/src\l/composite/currrency.cc">
<polygon fill="white" stroke="black" points="606.5,-240 606.5,-270 728.5,-270 728.5,-240 606.5,-240"/>
<text text-anchor="start" x="614.5" y="-258" font-family="Helvetica,sans-Serif" font-size="10.00">src/structural/src</text>
<text text-anchor="middle" x="667.5" y="-247" font-family="Helvetica,sans-Serif" font-size="10.00">/composite/currrency.cc</text>
</a>
</g>
</g>
<!-- Node1&#45;&gt;Node16 -->
<g id="edge17" class="edge"><title>Node1&#45;&gt;Node16</title>
<path fill="none" stroke="midnightblue" d="M620.369,-304.864C631.22,-293.614 644.179,-280.179 653.76,-270.246"/>
<polygon fill="midnightblue" stroke="midnightblue" points="617.684,-302.606 613.261,-312.233 622.722,-307.466 617.684,-302.606"/>
</g>
<!-- Node3 -->
<g id="node3" class="node"><title>Node3</title>
<g id="a_node3"><a xlink:href="../../d7/d12/composite__equipment_8h.html" target="_top" xlink:title="src/structural/src\l/composite/composite\l_equipment.h">
<polygon fill="white" stroke="black" points="259,-156.5 259,-197.5 372,-197.5 372,-156.5 259,-156.5"/>
<text text-anchor="start" x="267" y="-185.5" font-family="Helvetica,sans-Serif" font-size="10.00">src/structural/src</text>
<text text-anchor="start" x="267" y="-174.5" font-family="Helvetica,sans-Serif" font-size="10.00">/composite/composite</text>
<text text-anchor="middle" x="315.5" y="-163.5" font-family="Helvetica,sans-Serif" font-size="10.00">_equipment.h</text>
</a>
</g>
</g>
<!-- Node2&#45;&gt;Node3 -->
<g id="edge2" class="edge"><title>Node2&#45;&gt;Node3</title>
<path fill="none" stroke="midnightblue" d="M466.207,-231.026C435.799,-220.328 400.008,-207.734 370.937,-197.506"/>
<polygon fill="midnightblue" stroke="midnightblue" points="465.28,-234.411 475.875,-234.428 467.603,-227.807 465.28,-234.411"/>
</g>
<!-- Node12 -->
<g id="node12" class="node"><title>Node12</title>
<g id="a_node12"><a xlink:href="../../d1/def/structural_2src_2composite_2card_8h.html" target="_top" xlink:title="src/structural/src\l/composite/card.h">
<polygon fill="white" stroke="black" points="484,-162 484,-192 579,-192 579,-162 484,-162"/>
<text text-anchor="start" x="492" y="-180" font-family="Helvetica,sans-Serif" font-size="10.00">src/structural/src</text>
<text text-anchor="middle" x="531.5" y="-169" font-family="Helvetica,sans-Serif" font-size="10.00">/composite/card.h</text>
</a>
</g>
</g>
<!-- Node2&#45;&gt;Node12 -->
<g id="edge12" class="edge"><title>Node2&#45;&gt;Node12</title>
<path fill="none" stroke="midnightblue" d="M531.5,-224.283C531.5,-213.254 531.5,-201.246 531.5,-192.225"/>
<polygon fill="midnightblue" stroke="midnightblue" points="528,-224.428 531.5,-234.428 535,-224.428 528,-224.428"/>
</g>
<!-- Node14 -->
<g id="node14" class="node"><title>Node14</title>
<g id="a_node14"><a xlink:href="../../d3/d51/structural_2src_2composite_2floppy__disk_8h.html" target="_top" xlink:title="src/structural/src\l/composite/floppy_disk.h">
<polygon fill="white" stroke="black" points="638,-162 638,-192 763,-192 763,-162 638,-162"/>
<text text-anchor="start" x="646" y="-180" font-family="Helvetica,sans-Serif" font-size="10.00">src/structural/src</text>
<text text-anchor="middle" x="700.5" y="-169" font-family="Helvetica,sans-Serif" font-size="10.00">/composite/floppy_disk.h</text>
</a>
</g>
</g>
<!-- Node2&#45;&gt;Node14 -->
<g id="edge15" class="edge"><title>Node2&#45;&gt;Node14</title>
<path fill="none" stroke="midnightblue" d="M584.24,-230.282C612.096,-217.755 645.341,-202.805 669.132,-192.106"/>
<polygon fill="midnightblue" stroke="midnightblue" points="582.706,-227.135 575.022,-234.428 585.577,-233.519 582.706,-227.135"/>
</g>
<!-- Node4 -->
<g id="node4" class="node"><title>Node4</title>
<g id="a_node4"><a xlink:href="../../d7/d66/structural_2src_2composite_2bus_8h.html" target="_top" xlink:title="src/structural/src\l/composite/bus.h">
<polygon fill="white" stroke="black" points="390.5,-84 390.5,-114 482.5,-114 482.5,-84 390.5,-84"/>
<text text-anchor="start" x="398.5" y="-102" font-family="Helvetica,sans-Serif" font-size="10.00">src/structural/src</text>
<text text-anchor="middle" x="436.5" y="-91" font-family="Helvetica,sans-Serif" font-size="10.00">/composite/bus.h</text>
</a>
</g>
</g>
<!-- Node3&#45;&gt;Node4 -->
<g id="edge3" class="edge"><title>Node3&#45;&gt;Node4</title>
<path fill="none" stroke="midnightblue" d="M355.326,-150.985C374.755,-138.782 397.418,-124.548 413.852,-114.225"/>
<polygon fill="midnightblue" stroke="midnightblue" points="353.267,-148.145 346.661,-156.428 356.99,-154.073 353.267,-148.145"/>
</g>
<!-- Node7 -->
<g id="node7" class="node"><title>Node7</title>
<g id="a_node7"><a xlink:href="../../d4/d06/cabinet_8h.html" target="_top" xlink:title="src/structural/src\l/composite/cabinet.h">
<polygon fill="white" stroke="black" points="134,-84 134,-114 241,-114 241,-84 134,-84"/>
<text text-anchor="start" x="142" y="-102" font-family="Helvetica,sans-Serif" font-size="10.00">src/structural/src</text>
<text text-anchor="middle" x="187.5" y="-91" font-family="Helvetica,sans-Serif" font-size="10.00">/composite/cabinet.h</text>
</a>
</g>
</g>
<!-- Node3&#45;&gt;Node7 -->
<g id="edge6" class="edge"><title>Node3&#45;&gt;Node7</title>
<path fill="none" stroke="midnightblue" d="M273.925,-151.315C253.25,-139.039 229,-124.641 211.458,-114.225"/>
<polygon fill="midnightblue" stroke="midnightblue" points="272.151,-154.332 282.537,-156.428 275.725,-148.313 272.151,-154.332"/>
</g>
<!-- Node9 -->
<g id="node9" class="node"><title>Node9</title>
<g id="a_node9"><a xlink:href="../../db/d73/structural_2src_2composite_2chassis_8h.html" target="_top" xlink:title="src/structural/src\l/composite/chassis.h">
<polygon fill="white" stroke="black" points="3.5,-84 3.5,-114 113.5,-114 113.5,-84 3.5,-84"/>
<text text-anchor="start" x="11.5" y="-102" font-family="Helvetica,sans-Serif" font-size="10.00">src/structural/src</text>
<text text-anchor="middle" x="58.5" y="-91" font-family="Helvetica,sans-Serif" font-size="10.00">/composite/chassis.h</text>
</a>
</g>
</g>
<!-- Node3&#45;&gt;Node9 -->
<g id="edge9" class="edge"><title>Node3&#45;&gt;Node9</title>
<path fill="none" stroke="midnightblue" d="M249.023,-156.669C212.286,-145.946 165.843,-132.324 124.5,-120 118.075,-118.085 111.302,-116.05 104.642,-114.04"/>
<polygon fill="midnightblue" stroke="midnightblue" points="248.049,-160.031 258.629,-159.472 250.009,-153.311 248.049,-160.031"/>
</g>
<!-- Node11 -->
<g id="node11" class="node"><title>Node11</title>
<g id="a_node11"><a xlink:href="../../d6/dc4/composite__equipment_8cc.html" target="_top" xlink:title="src/structural/src\l/composite/composite\l_equipment.cc">
<polygon fill="white" stroke="black" points="259,-78.5 259,-119.5 372,-119.5 372,-78.5 259,-78.5"/>
<text text-anchor="start" x="267" y="-107.5" font-family="Helvetica,sans-Serif" font-size="10.00">src/structural/src</text>
<text text-anchor="start" x="267" y="-96.5" font-family="Helvetica,sans-Serif" font-size="10.00">/composite/composite</text>
<text text-anchor="middle" x="315.5" y="-85.5" font-family="Helvetica,sans-Serif" font-size="10.00">_equipment.cc</text>
</a>
</g>
</g>
<!-- Node3&#45;&gt;Node11 -->
<g id="edge11" class="edge"><title>Node3&#45;&gt;Node11</title>
<path fill="none" stroke="midnightblue" d="M315.5,-146.297C315.5,-137.301 315.5,-127.653 315.5,-119.506"/>
<polygon fill="midnightblue" stroke="midnightblue" points="312,-146.428 315.5,-156.428 319,-146.428 312,-146.428"/>
</g>
<!-- Node5 -->
<g id="node5" class="node"><title>Node5</title>
<g id="a_node5"><a xlink:href="../../d5/dbd/structural_2src_2composite_2bus_8cc.html" target="_top" xlink:title="src/structural/src\l/composite/bus.cc">
<polygon fill="white" stroke="black" points="297,-6 297,-36 394,-36 394,-6 297,-6"/>
<text text-anchor="start" x="305" y="-24" font-family="Helvetica,sans-Serif" font-size="10.00">src/structural/src</text>
<text text-anchor="middle" x="345.5" y="-13" font-family="Helvetica,sans-Serif" font-size="10.00">/composite/bus.cc</text>
</a>
</g>
</g>
<!-- Node4&#45;&gt;Node5 -->
<g id="edge4" class="edge"><title>Node4&#45;&gt;Node5</title>
<path fill="none" stroke="midnightblue" d="M411.659,-77.2533C396.069,-64.2337 376.372,-47.7835 362.54,-36.2309"/>
<polygon fill="midnightblue" stroke="midnightblue" points="409.465,-79.9812 419.384,-83.705 413.952,-74.6084 409.465,-79.9812"/>
</g>
<!-- Node6 -->
<g id="node6" class="node"><title>Node6</title>
<g id="a_node6"><a xlink:href="../../d3/dcb/composite__test_8cc.html" target="_top" xlink:title="src/structural_tests\l/src/composite/composite\l_test.cc">
<polygon fill="white" stroke="black" points="412,-0.5 412,-41.5 541,-41.5 541,-0.5 412,-0.5"/>
<text text-anchor="start" x="420" y="-29.5" font-family="Helvetica,sans-Serif" font-size="10.00">src/structural_tests</text>
<text text-anchor="start" x="420" y="-18.5" font-family="Helvetica,sans-Serif" font-size="10.00">/src/composite/composite</text>
<text text-anchor="middle" x="476.5" y="-7.5" font-family="Helvetica,sans-Serif" font-size="10.00">_test.cc</text>
</a>
</g>
</g>
<!-- Node4&#45;&gt;Node6 -->
<g id="edge5" class="edge"><title>Node4&#45;&gt;Node6</title>
<path fill="none" stroke="midnightblue" d="M448.8,-74.6299C454.353,-64.0784 460.842,-51.7508 466.142,-41.68"/>
<polygon fill="midnightblue" stroke="midnightblue" points="445.584,-73.2257 444.024,-83.705 451.778,-76.4859 445.584,-73.2257"/>
</g>
<!-- Node7&#45;&gt;Node6 -->
<g id="edge8" class="edge"><title>Node7&#45;&gt;Node6</title>
<path fill="none" stroke="midnightblue" d="M239.186,-80.982C242.668,-79.9424 246.129,-78.9386 249.5,-78 316.797,-59.2615 334.772,-59.1155 402.5,-42 405.597,-41.2175 408.763,-40.4059 411.959,-39.5775"/>
<polygon fill="midnightblue" stroke="midnightblue" points="237.921,-77.7089 229.383,-83.982 239.969,-84.4025 237.921,-77.7089"/>
</g>
<!-- Node8 -->
<g id="node8" class="node"><title>Node8</title>
<g id="a_node8"><a xlink:href="../../da/dfc/cabinet_8cc.html" target="_top" xlink:title="src/structural/src\l/composite/cabinet.cc">
<polygon fill="white" stroke="black" points="133,-6 133,-36 246,-36 246,-6 133,-6"/>
<text text-anchor="start" x="141" y="-24" font-family="Helvetica,sans-Serif" font-size="10.00">src/structural/src</text>
<text text-anchor="middle" x="189.5" y="-13" font-family="Helvetica,sans-Serif" font-size="10.00">/composite/cabinet.cc</text>
</a>
</g>
</g>
<!-- Node7&#45;&gt;Node8 -->
<g id="edge7" class="edge"><title>Node7&#45;&gt;Node8</title>
<path fill="none" stroke="midnightblue" d="M188.142,-73.5898C188.467,-61.2565 188.849,-46.7237 189.126,-36.2309"/>
<polygon fill="midnightblue" stroke="midnightblue" points="184.641,-73.6163 187.876,-83.705 191.638,-73.8005 184.641,-73.6163"/>
</g>
<!-- Node10 -->
<g id="node10" class="node"><title>Node10</title>
<g id="a_node10"><a xlink:href="../../d6/d70/structural_2src_2composite_2chassis_8cc.html" target="_top" xlink:title="src/structural/src\l/composite/chassis.cc">
<polygon fill="white" stroke="black" points="0,-6 0,-36 115,-36 115,-6 0,-6"/>
<text text-anchor="start" x="8" y="-24" font-family="Helvetica,sans-Serif" font-size="10.00">src/structural/src</text>
<text text-anchor="middle" x="57.5" y="-13" font-family="Helvetica,sans-Serif" font-size="10.00">/composite/chassis.cc</text>
</a>
</g>
</g>
<!-- Node9&#45;&gt;Node10 -->
<g id="edge10" class="edge"><title>Node9&#45;&gt;Node10</title>
<path fill="none" stroke="midnightblue" d="M58.1788,-73.5898C58.0165,-61.2565 57.8253,-46.7237 57.6872,-36.2309"/>
<polygon fill="midnightblue" stroke="midnightblue" points="54.6805,-73.7519 58.3119,-83.705 61.6799,-73.6598 54.6805,-73.7519"/>
</g>
<!-- Node12&#45;&gt;Node6 -->
<g id="edge14" class="edge"><title>Node12&#45;&gt;Node6</title>
<path fill="none" stroke="midnightblue" d="M522.931,-152.008C512.081,-121.627 493.591,-69.854 483.529,-41.6802"/>
<polygon fill="midnightblue" stroke="midnightblue" points="519.765,-153.548 526.424,-161.788 526.357,-151.193 519.765,-153.548"/>
</g>
<!-- Node13 -->
<g id="node13" class="node"><title>Node13</title>
<g id="a_node13"><a xlink:href="../../d0/d6f/structural_2src_2composite_2card_8cc.html" target="_top" xlink:title="src/structural/src\l/composite/card.cc">
<polygon fill="white" stroke="black" points="538.5,-84 538.5,-114 638.5,-114 638.5,-84 538.5,-84"/>
<text text-anchor="start" x="546.5" y="-102" font-family="Helvetica,sans-Serif" font-size="10.00">src/structural/src</text>
<text text-anchor="middle" x="588.5" y="-91" font-family="Helvetica,sans-Serif" font-size="10.00">/composite/card.cc</text>
</a>
</g>
</g>
<!-- Node12&#45;&gt;Node13 -->
<g id="edge13" class="edge"><title>Node12&#45;&gt;Node13</title>
<path fill="none" stroke="midnightblue" d="M548.419,-153.441C557.949,-140.735 569.56,-125.254 577.827,-114.231"/>
<polygon fill="midnightblue" stroke="midnightblue" points="545.421,-151.605 542.221,-161.705 551.021,-155.805 545.421,-151.605"/>
</g>
<!-- Node15 -->
<g id="node15" class="node"><title>Node15</title>
<g id="a_node15"><a xlink:href="../../df/d40/structural_2src_2composite_2floppy__disk_8cc.html" target="_top" xlink:title="src/structural/src\l/composite/floppy_disk.cc">
<polygon fill="white" stroke="black" points="656.5,-84 656.5,-114 786.5,-114 786.5,-84 656.5,-84"/>
<text text-anchor="start" x="664.5" y="-102" font-family="Helvetica,sans-Serif" font-size="10.00">src/structural/src</text>
<text text-anchor="middle" x="721.5" y="-91" font-family="Helvetica,sans-Serif" font-size="10.00">/composite/floppy_disk.cc</text>
</a>
</g>
</g>
<!-- Node14&#45;&gt;Node15 -->
<g id="edge16" class="edge"><title>Node14&#45;&gt;Node15</title>
<path fill="none" stroke="midnightblue" d="M707.142,-151.963C710.572,-139.551 714.639,-124.83 717.568,-114.231"/>
<polygon fill="midnightblue" stroke="midnightblue" points="703.74,-151.134 704.45,-161.705 710.487,-152.998 703.74,-151.134"/>
</g>
</g>
</svg>
