<?xml version="1.0" encoding="UTF-8" standalone="no"?>
<!DOCTYPE svg PUBLIC "-//W3C//DTD SVG 1.1//EN"
 "http://www.w3.org/Graphics/SVG/1.1/DTD/svg11.dtd">
<!-- Generated by graphviz version 2.38.0 (20140413.2041)
 -->
<!-- Title: structuraltests::TEST_CLASS Pages: 1 -->
<svg width="290pt" height="88pt"
 viewBox="0.00 0.00 290.00 88.00" xmlns="http://www.w3.org/2000/svg" xmlns:xlink="http://www.w3.org/1999/xlink">
<g id="graph0" class="graph" transform="scale(1 1) rotate(0) translate(4 84)">
<title>structuraltests::TEST_CLASS</title>
<polygon fill="white" stroke="none" points="-4,4 -4,-84 286,-84 286,4 -4,4"/>
<!-- Node1 -->
<g id="node1" class="node"><title>Node1</title>
<polygon fill="#bfbfbf" stroke="black" points="0,-24.5 0,-54.5 109,-54.5 109,-24.5 0,-24.5"/>
<text text-anchor="start" x="8" y="-42.5" font-family="Helvetica,sans-Serif" font-size="10.00">structuraltests::TEST</text>
<text text-anchor="middle" x="54.5" y="-31.5" font-family="Helvetica,sans-Serif" font-size="10.00">_CLASS</text>
</g>
<!-- Node2 -->
<g id="node2" class="node"><title>Node2</title>
<g id="a_node2"><a xlink:href="../../d1/dbf/classstructural_1_1decorator_1_1_stream_interface.html#aa82441d0df882769d3ab0ee3f8aa3a3e" target="_top" xlink:title="structural::decorator\l::StreamInterface::PutInt">
<polygon fill="white" stroke="black" points="152.5,-49.5 152.5,-79.5 274.5,-79.5 274.5,-49.5 152.5,-49.5"/>
<text text-anchor="start" x="160.5" y="-67.5" font-family="Helvetica,sans-Serif" font-size="10.00">structural::decorator</text>
<text text-anchor="middle" x="213.5" y="-56.5" font-family="Helvetica,sans-Serif" font-size="10.00">::StreamInterface::PutInt</text>
</a>
</g>
</g>
<!-- Node1&#45;&gt;Node2 -->
<g id="edge1" class="edge"><title>Node1&#45;&gt;Node2</title>
<path fill="none" stroke="midnightblue" d="M109.091,-48.0337C119.769,-49.7339 131.133,-51.5435 142.272,-53.3172"/>
<polygon fill="midnightblue" stroke="midnightblue" points="141.987,-56.8158 152.413,-54.9319 143.087,-49.9029 141.987,-56.8158"/>
</g>
<!-- Node3 -->
<g id="node3" class="node"><title>Node3</title>
<g id="a_node3"><a xlink:href="../../d1/dbf/classstructural_1_1decorator_1_1_stream_interface.html#a3ffa25c0bb3d94f0eddae9866aa2694b" target="_top" xlink:title="structural::decorator\l::StreamInterface::PutString">
<polygon fill="white" stroke="black" points="145,-0.5 145,-30.5 282,-30.5 282,-0.5 145,-0.5"/>
<text text-anchor="start" x="153" y="-18.5" font-family="Helvetica,sans-Serif" font-size="10.00">structural::decorator</text>
<text text-anchor="middle" x="213.5" y="-7.5" font-family="Helvetica,sans-Serif" font-size="10.00">::StreamInterface::PutString</text>
</a>
</g>
</g>
<!-- Node1&#45;&gt;Node3 -->
<g id="edge2" class="edge"><title>Node1&#45;&gt;Node3</title>
<path fill="none" stroke="midnightblue" d="M109.091,-31.3077C117.482,-30.0251 126.296,-28.6777 135.091,-27.3332"/>
<polygon fill="midnightblue" stroke="midnightblue" points="135.634,-30.7909 144.991,-25.8199 134.577,-23.8713 135.634,-30.7909"/>
</g>
</g>
</svg>
