<?xml version="1.0" encoding="UTF-8" standalone="no"?>
<!DOCTYPE svg PUBLIC "-//W3C//DTD SVG 1.1//EN"
 "http://www.w3.org/Graphics/SVG/1.1/DTD/svg11.dtd">
<!-- Generated by graphviz version 2.38.0 (20140413.2041)
 -->
<!-- Title: structuraltests::TEST_CLASS Pages: 1 -->
<svg width="413pt" height="186pt"
 viewBox="0.00 0.00 413.00 186.00" xmlns="http://www.w3.org/2000/svg" xmlns:xlink="http://www.w3.org/1999/xlink">
<g id="graph0" class="graph" transform="scale(1 1) rotate(0) translate(4 182)">
<title>structuraltests::TEST_CLASS</title>
<polygon fill="white" stroke="none" points="-4,4 -4,-182 409,-182 409,4 -4,4"/>
<!-- Node1 -->
<g id="node1" class="node"><title>Node1</title>
<polygon fill="#bfbfbf" stroke="black" points="0,-73.5 0,-103.5 109,-103.5 109,-73.5 0,-73.5"/>
<text text-anchor="start" x="8" y="-91.5" font-family="Helvetica,sans-Serif" font-size="10.00">structuraltests::TEST</text>
<text text-anchor="middle" x="54.5" y="-80.5" font-family="Helvetica,sans-Serif" font-size="10.00">_CLASS</text>
</g>
<!-- Node2 -->
<g id="node2" class="node"><title>Node2</title>
<g id="a_node2"><a xlink:href="../../d2/d57/classstructural_1_1flyweight_1_1_glyph_context.html#ae4a8542fb051b46fee542c3cfb87dfc6" target="_top" xlink:title="structural::flyweight\l::GlyphContext::SetFont">
<polygon fill="white" stroke="black" points="145.5,-147.5 145.5,-177.5 267.5,-177.5 267.5,-147.5 145.5,-147.5"/>
<text text-anchor="start" x="153.5" y="-165.5" font-family="Helvetica,sans-Serif" font-size="10.00">structural::flyweight</text>
<text text-anchor="middle" x="206.5" y="-154.5" font-family="Helvetica,sans-Serif" font-size="10.00">::GlyphContext::SetFont</text>
</a>
</g>
</g>
<!-- Node1&#45;&gt;Node2 -->
<g id="edge1" class="edge"><title>Node1&#45;&gt;Node2</title>
<path fill="none" stroke="midnightblue" d="M80.493,-103.632C98.1885,-114.054 122.654,-127.883 145,-138.5 148.572,-140.197 152.298,-141.879 156.07,-143.518"/>
<polygon fill="midnightblue" stroke="midnightblue" points="154.902,-146.824 165.476,-147.487 157.624,-140.375 154.902,-146.824"/>
</g>
<!-- Node3 -->
<g id="node3" class="node"><title>Node3</title>
<g id="a_node3"><a xlink:href="../../d2/d57/classstructural_1_1flyweight_1_1_glyph_context.html#a03ed36c0e939b2a5b04d8f2fe5ea6176" target="_top" xlink:title="structural::flyweight\l::GlyphContext::Next">
<polygon fill="white" stroke="black" points="152.5,-98.5 152.5,-128.5 260.5,-128.5 260.5,-98.5 152.5,-98.5"/>
<text text-anchor="start" x="160.5" y="-116.5" font-family="Helvetica,sans-Serif" font-size="10.00">structural::flyweight</text>
<text text-anchor="middle" x="206.5" y="-105.5" font-family="Helvetica,sans-Serif" font-size="10.00">::GlyphContext::Next</text>
</a>
</g>
</g>
<!-- Node1&#45;&gt;Node3 -->
<g id="edge2" class="edge"><title>Node1&#45;&gt;Node3</title>
<path fill="none" stroke="midnightblue" d="M109.23,-97.455C119.978,-99.2464 131.362,-101.144 142.393,-102.982"/>
<polygon fill="midnightblue" stroke="midnightblue" points="141.958,-106.458 152.397,-104.65 143.109,-99.5531 141.958,-106.458"/>
</g>
<!-- Node4 -->
<g id="node4" class="node"><title>Node4</title>
<g id="a_node4"><a xlink:href="../../d2/d57/classstructural_1_1flyweight_1_1_glyph_context.html#a5fc5a3463f22ae500ca352b0f310757e" target="_top" xlink:title="structural::flyweight\l::GlyphContext::First">
<polygon fill="white" stroke="black" points="153,-49.5 153,-79.5 260,-79.5 260,-49.5 153,-49.5"/>
<text text-anchor="start" x="161" y="-67.5" font-family="Helvetica,sans-Serif" font-size="10.00">structural::flyweight</text>
<text text-anchor="middle" x="206.5" y="-56.5" font-family="Helvetica,sans-Serif" font-size="10.00">::GlyphContext::First</text>
</a>
</g>
</g>
<!-- Node1&#45;&gt;Node4 -->
<g id="edge3" class="edge"><title>Node1&#45;&gt;Node4</title>
<path fill="none" stroke="midnightblue" d="M109.23,-79.9032C120.107,-78.1629 131.635,-76.3184 142.79,-74.5337"/>
<polygon fill="midnightblue" stroke="midnightblue" points="143.578,-77.9521 152.9,-72.916 142.472,-71.04 143.578,-77.9521"/>
</g>
<!-- Node5 -->
<g id="node5" class="node"><title>Node5</title>
<g id="a_node5"><a xlink:href="../../d2/d57/classstructural_1_1flyweight_1_1_glyph_context.html#a4aa8f35261cad4fef834d07dadc9c622" target="_top" xlink:title="structural::flyweight\l::GlyphContext::GetFont">
<polygon fill="white" stroke="black" points="145,-0.5 145,-30.5 268,-30.5 268,-0.5 145,-0.5"/>
<text text-anchor="start" x="153" y="-18.5" font-family="Helvetica,sans-Serif" font-size="10.00">structural::flyweight</text>
<text text-anchor="middle" x="206.5" y="-7.5" font-family="Helvetica,sans-Serif" font-size="10.00">::GlyphContext::GetFont</text>
</a>
</g>
</g>
<!-- Node1&#45;&gt;Node5 -->
<g id="edge4" class="edge"><title>Node1&#45;&gt;Node5</title>
<path fill="none" stroke="midnightblue" d="M82.1633,-73.2916C99.7726,-63.4745 123.485,-50.683 145,-40.5 149.269,-38.4792 153.747,-36.4557 158.253,-34.4835"/>
<polygon fill="midnightblue" stroke="midnightblue" points="159.673,-37.6828 167.484,-30.5248 156.914,-31.2495 159.673,-37.6828"/>
</g>
<!-- Node6 -->
<g id="node6" class="node"><title>Node6</title>
<g id="a_node6"><a xlink:href="../../dd/dd0/classstructural_1_1flyweight_1_1_b_tree.html#a4b0f1af2dae7456b2ac16f96e4ac35b5" target="_top" xlink:title="structural::flyweight\l::BTree::Get">
<polygon fill="white" stroke="black" points="304,-0.5 304,-30.5 405,-30.5 405,-0.5 304,-0.5"/>
<text text-anchor="start" x="312" y="-18.5" font-family="Helvetica,sans-Serif" font-size="10.00">structural::flyweight</text>
<text text-anchor="middle" x="354.5" y="-7.5" font-family="Helvetica,sans-Serif" font-size="10.00">::BTree::Get</text>
</a>
</g>
</g>
<!-- Node5&#45;&gt;Node6 -->
<g id="edge5" class="edge"><title>Node5&#45;&gt;Node6</title>
<path fill="none" stroke="midnightblue" d="M268.149,-15.5C276.615,-15.5 285.31,-15.5 293.759,-15.5"/>
<polygon fill="midnightblue" stroke="midnightblue" points="293.912,-19.0001 303.912,-15.5 293.912,-12.0001 293.912,-19.0001"/>
</g>
</g>
</svg>
