<?xml version="1.0" encoding="UTF-8" standalone="no"?>
<!DOCTYPE svg PUBLIC "-//W3C//DTD SVG 1.1//EN"
 "http://www.w3.org/Graphics/SVG/1.1/DTD/svg11.dtd">
<!-- Generated by graphviz version 2.38.0 (20140413.2041)
 -->
<!-- Title: src/structural/src/flyweight/glyph_interface.h Pages: 1 -->
<svg width="250pt" height="330pt"
 viewBox="0.00 0.00 250.00 330.00" xmlns="http://www.w3.org/2000/svg" xmlns:xlink="http://www.w3.org/1999/xlink">
<g id="graph0" class="graph" transform="scale(1 1) rotate(0) translate(4 326)">
<title>src/structural/src/flyweight/glyph_interface.h</title>
<polygon fill="white" stroke="none" points="-4,4 -4,-326 246,-326 246,4 -4,4"/>
<!-- Node1 -->
<g id="node1" class="node"><title>Node1</title>
<polygon fill="#bfbfbf" stroke="black" points="83.5,-291.5 83.5,-321.5 217.5,-321.5 217.5,-291.5 83.5,-291.5"/>
<text text-anchor="start" x="91.5" y="-309.5" font-family="Helvetica,sans-Serif" font-size="10.00">src/structural/src</text>
<text text-anchor="middle" x="150.5" y="-298.5" font-family="Helvetica,sans-Serif" font-size="10.00">/flyweight/glyph_interface.h</text>
</g>
<!-- Node2 -->
<g id="node2" class="node"><title>Node2</title>
<g id="a_node2"><a xlink:href="../../d2/d07/flyweight_2window_8h.html" target="_top" xlink:title="window.h">
<polygon fill="white" stroke="black" points="33.5,-235.5 33.5,-254.5 89.5,-254.5 89.5,-235.5 33.5,-235.5"/>
<text text-anchor="middle" x="61.5" y="-242.5" font-family="Helvetica,sans-Serif" font-size="10.00">window.h</text>
</a>
</g>
</g>
<!-- Node1&#45;&gt;Node2 -->
<g id="edge1" class="edge"><title>Node1&#45;&gt;Node2</title>
<path fill="none" stroke="midnightblue" d="M129.408,-291.399C115.409,-282.04 97.0886,-269.792 83.0053,-260.377"/>
<polygon fill="midnightblue" stroke="midnightblue" points="84.7089,-257.306 74.4503,-254.658 80.8184,-263.125 84.7089,-257.306"/>
</g>
<!-- Node3 -->
<g id="node3" class="node"><title>Node3</title>
<g id="a_node3"><a xlink:href="../../d3/de4/glyph__context_8h.html" target="_top" xlink:title="glyph_context.h">
<polygon fill="white" stroke="black" points="107.5,-235.5 107.5,-254.5 193.5,-254.5 193.5,-235.5 107.5,-235.5"/>
<text text-anchor="middle" x="150.5" y="-242.5" font-family="Helvetica,sans-Serif" font-size="10.00">glyph_context.h</text>
</a>
</g>
</g>
<!-- Node1&#45;&gt;Node3 -->
<g id="edge2" class="edge"><title>Node1&#45;&gt;Node3</title>
<path fill="none" stroke="midnightblue" d="M150.5,-291.399C150.5,-283.466 150.5,-273.458 150.5,-264.858"/>
<polygon fill="midnightblue" stroke="midnightblue" points="154,-264.658 150.5,-254.658 147,-264.658 154,-264.658"/>
</g>
<!-- Node5 -->
<g id="node5" class="node"><title>Node5</title>
<g id="a_node5"><a xlink:href="../../d9/d67/font_8h.html" target="_top" xlink:title="font.h">
<polygon fill="white" stroke="black" points="201,-118 201,-137 242,-137 242,-118 201,-118"/>
<text text-anchor="middle" x="221.5" y="-125" font-family="Helvetica,sans-Serif" font-size="10.00">font.h</text>
</a>
</g>
</g>
<!-- Node1&#45;&gt;Node5 -->
<g id="edge11" class="edge"><title>Node1&#45;&gt;Node5</title>
<path fill="none" stroke="midnightblue" d="M170.458,-291.417C181.732,-282.347 195.025,-269.552 202.5,-255 220.452,-220.054 222.666,-172.998 222.321,-147.257"/>
<polygon fill="midnightblue" stroke="midnightblue" points="225.813,-146.946 222.029,-137.05 218.816,-147.146 225.813,-146.946"/>
</g>
<!-- Node4 -->
<g id="node4" class="node"><title>Node4</title>
<g id="a_node4"><a xlink:href="../../d9/d13/btree_8h.html" target="_top" xlink:title="btree.h">
<polygon fill="white" stroke="black" points="127,-179.5 127,-198.5 174,-198.5 174,-179.5 127,-179.5"/>
<text text-anchor="middle" x="150.5" y="-186.5" font-family="Helvetica,sans-Serif" font-size="10.00">btree.h</text>
</a>
</g>
</g>
<!-- Node3&#45;&gt;Node4 -->
<g id="edge3" class="edge"><title>Node3&#45;&gt;Node4</title>
<path fill="none" stroke="midnightblue" d="M150.5,-235.083C150.5,-228.006 150.5,-217.861 150.5,-208.986"/>
<polygon fill="midnightblue" stroke="midnightblue" points="154,-208.751 150.5,-198.751 147,-208.751 154,-208.751"/>
</g>
<!-- Node4&#45;&gt;Node5 -->
<g id="edge4" class="edge"><title>Node4&#45;&gt;Node5</title>
<path fill="none" stroke="midnightblue" d="M160.673,-179.475C171.85,-170.108 190.017,-154.884 203.591,-143.508"/>
<polygon fill="midnightblue" stroke="midnightblue" points="205.93,-146.115 211.346,-137.009 201.434,-140.75 205.93,-146.115"/>
</g>
<!-- Node7 -->
<g id="node7" class="node"><title>Node7</title>
<g id="a_node7"><a xlink:href="../../da/d23/list_8h.html" target="_top" xlink:title="../../../operational\l/src/iterator/list.h">
<polygon fill="white" stroke="black" points="92,-112.5 92,-142.5 183,-142.5 183,-112.5 92,-112.5"/>
<text text-anchor="start" x="100" y="-130.5" font-family="Helvetica,sans-Serif" font-size="10.00">../../../operational</text>
<text text-anchor="middle" x="137.5" y="-119.5" font-family="Helvetica,sans-Serif" font-size="10.00">/src/iterator/list.h</text>
</a>
</g>
</g>
<!-- Node4&#45;&gt;Node7 -->
<g id="edge6" class="edge"><title>Node4&#45;&gt;Node7</title>
<path fill="none" stroke="midnightblue" d="M148.637,-179.475C147.091,-172.396 144.813,-161.97 142.72,-152.39"/>
<polygon fill="midnightblue" stroke="midnightblue" points="146.118,-151.545 140.564,-142.523 139.279,-153.04 146.118,-151.545"/>
</g>
<!-- Node6 -->
<g id="node6" class="node"><title>Node6</title>
<polygon fill="white" stroke="#bfbfbf" points="201,-56.5 201,-75.5 242,-75.5 242,-56.5 201,-56.5"/>
<text text-anchor="middle" x="221.5" y="-63.5" font-family="Helvetica,sans-Serif" font-size="10.00">string</text>
</g>
<!-- Node5&#45;&gt;Node6 -->
<g id="edge5" class="edge"><title>Node5&#45;&gt;Node6</title>
<path fill="none" stroke="midnightblue" d="M221.5,-117.975C221.5,-109.58 221.5,-96.4806 221.5,-85.6631"/>
<polygon fill="midnightblue" stroke="midnightblue" points="225,-85.5091 221.5,-75.5091 218,-85.5091 225,-85.5091"/>
</g>
<!-- Node8 -->
<g id="node8" class="node"><title>Node8</title>
<g id="a_node8"><a xlink:href="../../d9/d71/list__iterator_8h.html" target="_top" xlink:title="list_iterator.h">
<polygon fill="white" stroke="black" points="54,-56.5 54,-75.5 127,-75.5 127,-56.5 54,-56.5"/>
<text text-anchor="middle" x="90.5" y="-63.5" font-family="Helvetica,sans-Serif" font-size="10.00">list_iterator.h</text>
</a>
</g>
</g>
<!-- Node7&#45;&gt;Node8 -->
<g id="edge7" class="edge"><title>Node7&#45;&gt;Node8</title>
<path fill="none" stroke="midnightblue" d="M126.362,-112.399C119.532,-103.753 110.755,-92.642 103.594,-83.576"/>
<polygon fill="midnightblue" stroke="midnightblue" points="106.284,-81.3354 97.3389,-75.6578 100.791,-85.6745 106.284,-81.3354"/>
</g>
<!-- Node10 -->
<g id="node10" class="node"><title>Node10</title>
<g id="a_node10"><a xlink:href="../../dd/d8c/list__interface_8h.html" target="_top" xlink:title="list_interface.h">
<polygon fill="white" stroke="black" points="115.5,-0.5 115.5,-19.5 195.5,-19.5 195.5,-0.5 115.5,-0.5"/>
<text text-anchor="middle" x="155.5" y="-7.5" font-family="Helvetica,sans-Serif" font-size="10.00">list_interface.h</text>
</a>
</g>
</g>
<!-- Node7&#45;&gt;Node10 -->
<g id="edge10" class="edge"><title>Node7&#45;&gt;Node10</title>
<path fill="none" stroke="midnightblue" d="M139.707,-112.337C142.95,-91.5271 149.007,-52.6632 152.604,-29.5834"/>
<polygon fill="midnightblue" stroke="midnightblue" points="156.067,-30.0892 154.149,-19.6695 149.151,-29.0112 156.067,-30.0892"/>
</g>
<!-- Node9 -->
<g id="node9" class="node"><title>Node9</title>
<g id="a_node9"><a xlink:href="../../d6/da4/iterator__interface_8h.html" target="_top" xlink:title="iterator_interface.h">
<polygon fill="white" stroke="black" points="0,-0.5 0,-19.5 97,-19.5 97,-0.5 0,-0.5"/>
<text text-anchor="middle" x="48.5" y="-7.5" font-family="Helvetica,sans-Serif" font-size="10.00">iterator_interface.h</text>
</a>
</g>
</g>
<!-- Node8&#45;&gt;Node9 -->
<g id="edge8" class="edge"><title>Node8&#45;&gt;Node9</title>
<path fill="none" stroke="midnightblue" d="M83.5646,-56.083C77.5708,-48.3768 68.7482,-37.0333 61.4524,-27.6531"/>
<polygon fill="midnightblue" stroke="midnightblue" points="64.2086,-25.4958 55.3064,-19.7511 58.6831,-29.7934 64.2086,-25.4958"/>
</g>
<!-- Node8&#45;&gt;Node10 -->
<g id="edge9" class="edge"><title>Node8&#45;&gt;Node10</title>
<path fill="none" stroke="midnightblue" d="M100.943,-56.324C110.646,-48.2631 125.315,-36.0765 137,-26.3695"/>
<polygon fill="midnightblue" stroke="midnightblue" points="139.411,-28.9163 144.867,-19.8339 134.938,-23.532 139.411,-28.9163"/>
</g>
</g>
</svg>
