<?xml version="1.0" encoding="UTF-8" standalone="no"?>
<!DOCTYPE svg PUBLIC "-//W3C//DTD SVG 1.1//EN"
 "http://www.w3.org/Graphics/SVG/1.1/DTD/svg11.dtd">
<!-- Generated by graphviz version 2.38.0 (20140413.2041)
 -->
<!-- Title: operational::memento::ConstraintSolverInterface Pages: 1 -->
<svg width="153pt" height="292pt"
 viewBox="0.00 0.00 153.00 292.00" xmlns="http://www.w3.org/2000/svg" xmlns:xlink="http://www.w3.org/1999/xlink">
<g id="graph0" class="graph" transform="scale(1 1) rotate(0) translate(4 288)">
<title>operational::memento::ConstraintSolverInterface</title>
<polygon fill="white" stroke="none" points="-4,4 -4,-288 149,-288 149,4 -4,4"/>
<!-- Node1 -->
<g id="node1" class="node"><title>Node1</title>
<polygon fill="#bfbfbf" stroke="black" points="0,-160.5 0,-283.5 145,-283.5 145,-160.5 0,-160.5"/>
<text text-anchor="start" x="8" y="-271.5" font-family="Helvetica,sans-Serif" font-size="10.00">operational::memento</text>
<text text-anchor="middle" x="72.5" y="-260.5" font-family="Helvetica,sans-Serif" font-size="10.00">::ConstraintSolverInterface</text>
<polyline fill="none" stroke="black" points="0,-253.5 145,-253.5 "/>
<text text-anchor="middle" x="72.5" y="-241.5" font-family="Helvetica,sans-Serif" font-size="10.00"> </text>
<polyline fill="none" stroke="black" points="0,-234.5 145,-234.5 "/>
<text text-anchor="start" x="8" y="-222.5" font-family="Helvetica,sans-Serif" font-size="10.00">+ ~ConstraintSolverInterface()</text>
<text text-anchor="start" x="8" y="-211.5" font-family="Helvetica,sans-Serif" font-size="10.00">+ Solve()</text>
<text text-anchor="start" x="8" y="-200.5" font-family="Helvetica,sans-Serif" font-size="10.00">+ AddConstraint()</text>
<text text-anchor="start" x="8" y="-189.5" font-family="Helvetica,sans-Serif" font-size="10.00">+ RemoveConstraint()</text>
<text text-anchor="start" x="8" y="-178.5" font-family="Helvetica,sans-Serif" font-size="10.00">+ CreateMemento()</text>
<text text-anchor="start" x="8" y="-167.5" font-family="Helvetica,sans-Serif" font-size="10.00">+ SetMemento()</text>
</g>
<!-- Node2 -->
<g id="node2" class="node"><title>Node2</title>
<g id="a_node2"><a xlink:href="../../dd/d5a/classoperational_1_1memento_1_1_constraint_solver.html" target="_top" xlink:title="{operational::memento\l::ConstraintSolver\n||+ Solve()\l+ AddConstraint()\l+ RemoveConstraint()\l+ CreateMemento()\l+ SetMemento()\l+ Instance()\l}">
<polygon fill="white" stroke="black" points="17.5,-0.5 17.5,-123.5 127.5,-123.5 127.5,-0.5 17.5,-0.5"/>
<text text-anchor="start" x="25.5" y="-111.5" font-family="Helvetica,sans-Serif" font-size="10.00">operational::memento</text>
<text text-anchor="middle" x="72.5" y="-100.5" font-family="Helvetica,sans-Serif" font-size="10.00">::ConstraintSolver</text>
<polyline fill="none" stroke="black" points="17.5,-93.5 127.5,-93.5 "/>
<text text-anchor="middle" x="72.5" y="-81.5" font-family="Helvetica,sans-Serif" font-size="10.00"> </text>
<polyline fill="none" stroke="black" points="17.5,-74.5 127.5,-74.5 "/>
<text text-anchor="start" x="25.5" y="-62.5" font-family="Helvetica,sans-Serif" font-size="10.00">+ Solve()</text>
<text text-anchor="start" x="25.5" y="-51.5" font-family="Helvetica,sans-Serif" font-size="10.00">+ AddConstraint()</text>
<text text-anchor="start" x="25.5" y="-40.5" font-family="Helvetica,sans-Serif" font-size="10.00">+ RemoveConstraint()</text>
<text text-anchor="start" x="25.5" y="-29.5" font-family="Helvetica,sans-Serif" font-size="10.00">+ CreateMemento()</text>
<text text-anchor="start" x="25.5" y="-18.5" font-family="Helvetica,sans-Serif" font-size="10.00">+ SetMemento()</text>
<text text-anchor="start" x="25.5" y="-7.5" font-family="Helvetica,sans-Serif" font-size="10.00">+ Instance()</text>
</a>
</g>
</g>
<!-- Node1&#45;&gt;Node2 -->
<g id="edge1" class="edge"><title>Node1&#45;&gt;Node2</title>
<path fill="none" stroke="midnightblue" d="M72.5,-150.116C72.5,-141.31 72.5,-132.368 72.5,-123.734"/>
<polygon fill="none" stroke="midnightblue" points="69.0001,-150.365 72.5,-160.365 76.0001,-150.365 69.0001,-150.365"/>
</g>
</g>
</svg>
