<?xml version="1.0" encoding="UTF-8" standalone="no"?>
<!DOCTYPE svg PUBLIC "-//W3C//DTD SVG 1.1//EN"
 "http://www.w3.org/Graphics/SVG/1.1/DTD/svg11.dtd">
<!-- Generated by graphviz version 2.38.0 (20140413.2041)
 -->
<!-- Title: operational::iterator::IteratorInterface&lt; Item &gt; Pages: 1 -->
<svg width="260pt" height="463pt"
 viewBox="0.00 0.00 259.50 463.00" xmlns="http://www.w3.org/2000/svg" xmlns:xlink="http://www.w3.org/1999/xlink">
<g id="graph0" class="graph" transform="scale(1 1) rotate(0) translate(4 459)">
<title>operational::iterator::IteratorInterface&lt; Item &gt;</title>
<polygon fill="white" stroke="none" points="-4,4 -4,-459 255.5,-459 255.5,4 -4,4"/>
<!-- Node1 -->
<g id="node1" class="node"><title>Node1</title>
<polygon fill="#bfbfbf" stroke="black" points="75.5,-331.5 75.5,-454.5 179.5,-454.5 179.5,-331.5 75.5,-331.5"/>
<text text-anchor="start" x="83.5" y="-442.5" font-family="Helvetica,sans-Serif" font-size="10.00">operational::iterator</text>
<text text-anchor="start" x="83.5" y="-431.5" font-family="Helvetica,sans-Serif" font-size="10.00">::IteratorInterface&lt;</text>
<text text-anchor="middle" x="127.5" y="-420.5" font-family="Helvetica,sans-Serif" font-size="10.00"> Item &gt;</text>
<polyline fill="none" stroke="black" points="75.5,-413.5 179.5,-413.5 "/>
<text text-anchor="middle" x="127.5" y="-401.5" font-family="Helvetica,sans-Serif" font-size="10.00"> </text>
<polyline fill="none" stroke="black" points="75.5,-394.5 179.5,-394.5 "/>
<text text-anchor="start" x="83.5" y="-382.5" font-family="Helvetica,sans-Serif" font-size="10.00">+ ~IteratorInterface()</text>
<text text-anchor="start" x="83.5" y="-371.5" font-family="Helvetica,sans-Serif" font-size="10.00">+ First()</text>
<text text-anchor="start" x="83.5" y="-360.5" font-family="Helvetica,sans-Serif" font-size="10.00">+ Next()</text>
<text text-anchor="start" x="83.5" y="-349.5" font-family="Helvetica,sans-Serif" font-size="10.00">+ IsDone()</text>
<text text-anchor="start" x="83.5" y="-338.5" font-family="Helvetica,sans-Serif" font-size="10.00">+ CurrentItem()</text>
</g>
<!-- Node2 -->
<g id="node2" class="node"><title>Node2</title>
<g id="a_node2"><a xlink:href="../../da/d8a/classoperational_1_1iterator_1_1_list_iterator.html" target="_top" xlink:title="{operational::iterator\l::ListIterator\&lt; Item \&gt;\n||+ ListIterator()\l+ ~ListIterator()\l+ First()\l+ Next()\l+ IsDone()\l+ CurrentItem()\l}">
<polygon fill="white" stroke="black" points="10,-166 10,-289 115,-289 115,-166 10,-166"/>
<text text-anchor="start" x="18" y="-277" font-family="Helvetica,sans-Serif" font-size="10.00">operational::iterator</text>
<text text-anchor="middle" x="62.5" y="-266" font-family="Helvetica,sans-Serif" font-size="10.00">::ListIterator&lt; Item &gt;</text>
<polyline fill="none" stroke="black" points="10,-259 115,-259 "/>
<text text-anchor="middle" x="62.5" y="-247" font-family="Helvetica,sans-Serif" font-size="10.00"> </text>
<polyline fill="none" stroke="black" points="10,-240 115,-240 "/>
<text text-anchor="start" x="18" y="-228" font-family="Helvetica,sans-Serif" font-size="10.00">+ ListIterator()</text>
<text text-anchor="start" x="18" y="-217" font-family="Helvetica,sans-Serif" font-size="10.00">+ ~ListIterator()</text>
<text text-anchor="start" x="18" y="-206" font-family="Helvetica,sans-Serif" font-size="10.00">+ First()</text>
<text text-anchor="start" x="18" y="-195" font-family="Helvetica,sans-Serif" font-size="10.00">+ Next()</text>
<text text-anchor="start" x="18" y="-184" font-family="Helvetica,sans-Serif" font-size="10.00">+ IsDone()</text>
<text text-anchor="start" x="18" y="-173" font-family="Helvetica,sans-Serif" font-size="10.00">+ CurrentItem()</text>
</a>
</g>
</g>
<!-- Node1&#45;&gt;Node2 -->
<g id="edge1" class="edge"><title>Node1&#45;&gt;Node2</title>
<path fill="none" stroke="midnightblue" d="M99.5483,-321.691C95.2426,-310.86 90.8282,-299.756 86.6156,-289.16"/>
<polygon fill="none" stroke="midnightblue" points="96.3496,-323.119 103.296,-331.119 102.854,-320.533 96.3496,-323.119"/>
</g>
<!-- Node4 -->
<g id="node4" class="node"><title>Node4</title>
<g id="a_node4"><a xlink:href="../../d0/de7/classoperational_1_1iterator_1_1_reverse_list_iterator.html" target="_top" xlink:title="{operational::iterator\l::ReverseListIterator\l\&lt; Item \&gt;\n||+ ReverseListIterator()\l+ ~ReverseListIterator()\l+ First()\l+ Next()\l+ IsDone()\l+ CurrentItem()\l}">
<polygon fill="white" stroke="black" points="133.5,-160.5 133.5,-294.5 251.5,-294.5 251.5,-160.5 133.5,-160.5"/>
<text text-anchor="start" x="141.5" y="-282.5" font-family="Helvetica,sans-Serif" font-size="10.00">operational::iterator</text>
<text text-anchor="start" x="141.5" y="-271.5" font-family="Helvetica,sans-Serif" font-size="10.00">::ReverseListIterator</text>
<text text-anchor="middle" x="192.5" y="-260.5" font-family="Helvetica,sans-Serif" font-size="10.00">&lt; Item &gt;</text>
<polyline fill="none" stroke="black" points="133.5,-253.5 251.5,-253.5 "/>
<text text-anchor="middle" x="192.5" y="-241.5" font-family="Helvetica,sans-Serif" font-size="10.00"> </text>
<polyline fill="none" stroke="black" points="133.5,-234.5 251.5,-234.5 "/>
<text text-anchor="start" x="141.5" y="-222.5" font-family="Helvetica,sans-Serif" font-size="10.00">+ ReverseListIterator()</text>
<text text-anchor="start" x="141.5" y="-211.5" font-family="Helvetica,sans-Serif" font-size="10.00">+ ~ReverseListIterator()</text>
<text text-anchor="start" x="141.5" y="-200.5" font-family="Helvetica,sans-Serif" font-size="10.00">+ First()</text>
<text text-anchor="start" x="141.5" y="-189.5" font-family="Helvetica,sans-Serif" font-size="10.00">+ Next()</text>
<text text-anchor="start" x="141.5" y="-178.5" font-family="Helvetica,sans-Serif" font-size="10.00">+ IsDone()</text>
<text text-anchor="start" x="141.5" y="-167.5" font-family="Helvetica,sans-Serif" font-size="10.00">+ CurrentItem()</text>
</a>
</g>
</g>
<!-- Node1&#45;&gt;Node4 -->
<g id="edge3" class="edge"><title>Node1&#45;&gt;Node4</title>
<path fill="none" stroke="midnightblue" d="M155.403,-321.813C158.987,-312.798 162.647,-303.592 166.204,-294.645"/>
<polygon fill="none" stroke="midnightblue" points="152.146,-320.533 151.704,-331.119 158.65,-323.119 152.146,-320.533"/>
</g>
<!-- Node3 -->
<g id="node3" class="node"><title>Node3</title>
<g id="a_node3"><a xlink:href="../../de/d7e/classoperational_1_1iterator_1_1_skip_list_iterator.html" target="_top" xlink:title="{operational::iterator\l::SkipListIterator\&lt; Item \&gt;\n||+ SkipListIterator()\l+ ~SkipListIterator()\l+ First()\l+ Next()\l+ IsDone()\l+ CurrentItem()\l}">
<polygon fill="white" stroke="black" points="0,-0.5 0,-123.5 125,-123.5 125,-0.5 0,-0.5"/>
<text text-anchor="start" x="8" y="-111.5" font-family="Helvetica,sans-Serif" font-size="10.00">operational::iterator</text>
<text text-anchor="middle" x="62.5" y="-100.5" font-family="Helvetica,sans-Serif" font-size="10.00">::SkipListIterator&lt; Item &gt;</text>
<polyline fill="none" stroke="black" points="0,-93.5 125,-93.5 "/>
<text text-anchor="middle" x="62.5" y="-81.5" font-family="Helvetica,sans-Serif" font-size="10.00"> </text>
<polyline fill="none" stroke="black" points="0,-74.5 125,-74.5 "/>
<text text-anchor="start" x="8" y="-62.5" font-family="Helvetica,sans-Serif" font-size="10.00">+ SkipListIterator()</text>
<text text-anchor="start" x="8" y="-51.5" font-family="Helvetica,sans-Serif" font-size="10.00">+ ~SkipListIterator()</text>
<text text-anchor="start" x="8" y="-40.5" font-family="Helvetica,sans-Serif" font-size="10.00">+ First()</text>
<text text-anchor="start" x="8" y="-29.5" font-family="Helvetica,sans-Serif" font-size="10.00">+ Next()</text>
<text text-anchor="start" x="8" y="-18.5" font-family="Helvetica,sans-Serif" font-size="10.00">+ IsDone()</text>
<text text-anchor="start" x="8" y="-7.5" font-family="Helvetica,sans-Serif" font-size="10.00">+ CurrentItem()</text>
</a>
</g>
</g>
<!-- Node2&#45;&gt;Node3 -->
<g id="edge2" class="edge"><title>Node2&#45;&gt;Node3</title>
<path fill="none" stroke="midnightblue" d="M62.5,-155.534C62.5,-144.912 62.5,-134.042 62.5,-123.66"/>
<polygon fill="none" stroke="midnightblue" points="59.0001,-155.619 62.5,-165.619 66.0001,-155.619 59.0001,-155.619"/>
</g>
</g>
</svg>
