<?xml version="1.0" encoding="UTF-8" standalone="no"?>
<!DOCTYPE svg PUBLIC "-//W3C//DTD SVG 1.1//EN"
 "http://www.w3.org/Graphics/SVG/1.1/DTD/svg11.dtd">
<!-- Generated by graphviz version 2.38.0 (20140413.2041)
 -->
<!-- Title: src/structural/src/flyweight/row.h Pages: 1 -->
<svg width="315pt" height="184pt"
 viewBox="0.00 0.00 314.50 184.00" xmlns="http://www.w3.org/2000/svg" xmlns:xlink="http://www.w3.org/1999/xlink">
<g id="graph0" class="graph" transform="scale(1 1) rotate(0) translate(4 180)">
<title>src/structural/src/flyweight/row.h</title>
<polygon fill="white" stroke="none" points="-4,4 -4,-180 310.5,-180 310.5,4 -4,4"/>
<!-- Node1 -->
<g id="node1" class="node"><title>Node1</title>
<polygon fill="#bfbfbf" stroke="black" points="153.5,-145.5 153.5,-175.5 243.5,-175.5 243.5,-145.5 153.5,-145.5"/>
<text text-anchor="start" x="161.5" y="-163.5" font-family="Helvetica,sans-Serif" font-size="10.00">src/structural/src</text>
<text text-anchor="middle" x="198.5" y="-152.5" font-family="Helvetica,sans-Serif" font-size="10.00">/flyweight/row.h</text>
</g>
<!-- Node2 -->
<g id="node2" class="node"><title>Node2</title>
<g id="a_node2"><a xlink:href="../../da/dec/glyph__factory_8h.html" target="_top" xlink:title="src/structural/src\l/flyweight/glyph_factory.h">
<polygon fill="white" stroke="black" points="72.5,-78.5 72.5,-108.5 198.5,-108.5 198.5,-78.5 72.5,-78.5"/>
<text text-anchor="start" x="80.5" y="-96.5" font-family="Helvetica,sans-Serif" font-size="10.00">src/structural/src</text>
<text text-anchor="middle" x="135.5" y="-85.5" font-family="Helvetica,sans-Serif" font-size="10.00">/flyweight/glyph_factory.h</text>
</a>
</g>
</g>
<!-- Node1&#45;&gt;Node2 -->
<g id="edge1" class="edge"><title>Node1&#45;&gt;Node2</title>
<path fill="none" stroke="midnightblue" d="M177.685,-138.024C168.299,-128.34 157.476,-117.174 149.143,-108.577"/>
<polygon fill="midnightblue" stroke="midnightblue" points="175.357,-140.651 184.83,-145.396 180.383,-135.779 175.357,-140.651"/>
</g>
<!-- Node5 -->
<g id="node5" class="node"><title>Node5</title>
<g id="a_node5"><a xlink:href="../../df/d78/row_8cc.html" target="_top" xlink:title="src/structural/src\l/flyweight/row.cc">
<polygon fill="white" stroke="black" points="216.5,-78.5 216.5,-108.5 306.5,-108.5 306.5,-78.5 216.5,-78.5"/>
<text text-anchor="start" x="224.5" y="-96.5" font-family="Helvetica,sans-Serif" font-size="10.00">src/structural/src</text>
<text text-anchor="middle" x="261.5" y="-85.5" font-family="Helvetica,sans-Serif" font-size="10.00">/flyweight/row.cc</text>
</a>
</g>
</g>
<!-- Node1&#45;&gt;Node5 -->
<g id="edge4" class="edge"><title>Node1&#45;&gt;Node5</title>
<path fill="none" stroke="midnightblue" d="M219.315,-138.024C228.701,-128.34 239.524,-117.174 247.857,-108.577"/>
<polygon fill="midnightblue" stroke="midnightblue" points="216.617,-135.779 212.17,-145.396 221.643,-140.651 216.617,-135.779"/>
</g>
<!-- Node3 -->
<g id="node3" class="node"><title>Node3</title>
<g id="a_node3"><a xlink:href="../../d6/dbd/glyph__factory_8cc.html" target="_top" xlink:title="src/structural/src\l/flyweight/glyph_factory.cc">
<polygon fill="white" stroke="black" points="0,-6 0,-36 131,-36 131,-6 0,-6"/>
<text text-anchor="start" x="8" y="-24" font-family="Helvetica,sans-Serif" font-size="10.00">src/structural/src</text>
<text text-anchor="middle" x="65.5" y="-13" font-family="Helvetica,sans-Serif" font-size="10.00">/flyweight/glyph_factory.cc</text>
</a>
</g>
</g>
<!-- Node2&#45;&gt;Node3 -->
<g id="edge2" class="edge"><title>Node2&#45;&gt;Node3</title>
<path fill="none" stroke="midnightblue" d="M114.018,-70.8641C102.847,-59.6142 89.5071,-46.1786 79.6445,-36.2455"/>
<polygon fill="midnightblue" stroke="midnightblue" points="111.805,-73.6031 121.334,-78.2333 116.772,-68.671 111.805,-73.6031"/>
</g>
<!-- Node4 -->
<g id="node4" class="node"><title>Node4</title>
<g id="a_node4"><a xlink:href="../../dd/d09/flyweight__test_8cc.html" target="_top" xlink:title="src/structural_tests\l/src/flyweight/flyweight\l_test.cc">
<polygon fill="white" stroke="black" points="149.5,-0.5 149.5,-41.5 263.5,-41.5 263.5,-0.5 149.5,-0.5"/>
<text text-anchor="start" x="157.5" y="-29.5" font-family="Helvetica,sans-Serif" font-size="10.00">src/structural_tests</text>
<text text-anchor="start" x="157.5" y="-18.5" font-family="Helvetica,sans-Serif" font-size="10.00">/src/flyweight/flyweight</text>
<text text-anchor="middle" x="206.5" y="-7.5" font-family="Helvetica,sans-Serif" font-size="10.00">_test.cc</text>
</a>
</g>
</g>
<!-- Node2&#45;&gt;Node4 -->
<g id="edge3" class="edge"><title>Node2&#45;&gt;Node4</title>
<path fill="none" stroke="midnightblue" d="M157.051,-71.1007C166.508,-61.7107 177.534,-50.7615 186.773,-41.5884"/>
<polygon fill="midnightblue" stroke="midnightblue" points="154.498,-68.7036 149.868,-78.2333 159.43,-73.6708 154.498,-68.7036"/>
</g>
</g>
</svg>
