<?xml version="1.0" encoding="UTF-8" standalone="no"?>
<!DOCTYPE svg PUBLIC "-//W3C//DTD SVG 1.1//EN"
 "http://www.w3.org/Graphics/SVG/1.1/DTD/svg11.dtd">
<!-- Generated by graphviz version 2.38.0 (20140413.2041)
 -->
<!-- Title: src/structural/src/decorator/border_decorator.h Pages: 1 -->
<svg width="152pt" height="173pt"
 viewBox="0.00 0.00 152.00 173.00" xmlns="http://www.w3.org/2000/svg" xmlns:xlink="http://www.w3.org/1999/xlink">
<g id="graph0" class="graph" transform="scale(1 1) rotate(0) translate(4 169)">
<title>src/structural/src/decorator/border_decorator.h</title>
<polygon fill="white" stroke="none" points="-4,4 -4,-169 148,-169 148,4 -4,4"/>
<!-- Node1 -->
<g id="node1" class="node"><title>Node1</title>
<polygon fill="#bfbfbf" stroke="black" points="0,-134.5 0,-164.5 144,-164.5 144,-134.5 0,-134.5"/>
<text text-anchor="start" x="8" y="-152.5" font-family="Helvetica,sans-Serif" font-size="10.00">src/structural/src</text>
<text text-anchor="middle" x="72" y="-141.5" font-family="Helvetica,sans-Serif" font-size="10.00">/decorator/border_decorator.h</text>
</g>
<!-- Node2 -->
<g id="node2" class="node"><title>Node2</title>
<g id="a_node2"><a xlink:href="../../d9/d82/decorator_8h.html" target="_top" xlink:title="decorator.h">
<polygon fill="white" stroke="black" points="9.5,-78.5 9.5,-97.5 74.5,-97.5 74.5,-78.5 9.5,-78.5"/>
<text text-anchor="middle" x="42" y="-85.5" font-family="Helvetica,sans-Serif" font-size="10.00">decorator.h</text>
</a>
</g>
</g>
<!-- Node1&#45;&gt;Node2 -->
<g id="edge1" class="edge"><title>Node1&#45;&gt;Node2</title>
<path fill="none" stroke="midnightblue" d="M64.8904,-134.399C60.7108,-126.11 55.3887,-115.554 50.9282,-106.708"/>
<polygon fill="midnightblue" stroke="midnightblue" points="53.9927,-105.011 46.3653,-97.6578 47.7422,-108.163 53.9927,-105.011"/>
</g>
<!-- Node3 -->
<g id="node3" class="node"><title>Node3</title>
<polygon fill="white" stroke="#bfbfbf" points="15.5,-0.5 15.5,-41.5 128.5,-41.5 128.5,-0.5 15.5,-0.5"/>
<text text-anchor="start" x="23.5" y="-29.5" font-family="Helvetica,sans-Serif" font-size="10.00">../../../foundation</text>
<text text-anchor="start" x="23.5" y="-18.5" font-family="Helvetica,sans-Serif" font-size="10.00">/src/visual_component</text>
<text text-anchor="middle" x="72" y="-7.5" font-family="Helvetica,sans-Serif" font-size="10.00">_interface.h</text>
</g>
<!-- Node1&#45;&gt;Node3 -->
<g id="edge3" class="edge"><title>Node1&#45;&gt;Node3</title>
<path fill="none" stroke="midnightblue" d="M76.3758,-134.076C79.1787,-124.061 82.5527,-110.351 84,-98 85.7963,-82.6702 83.5265,-65.696 80.495,-51.6847"/>
<polygon fill="midnightblue" stroke="midnightblue" points="83.8181,-50.5326 78.0831,-41.6241 77.0109,-52.1646 83.8181,-50.5326"/>
</g>
<!-- Node2&#45;&gt;Node3 -->
<g id="edge2" class="edge"><title>Node2&#45;&gt;Node3</title>
<path fill="none" stroke="midnightblue" d="M46.0459,-78.2338C49.3184,-71.1435 54.1202,-60.7395 58.7065,-50.8026"/>
<polygon fill="midnightblue" stroke="midnightblue" points="61.9678,-52.0884 62.9806,-41.5421 55.6121,-49.155 61.9678,-52.0884"/>
</g>
</g>
</svg>
