<?xml version="1.0" encoding="UTF-8" standalone="no"?>
<!DOCTYPE svg PUBLIC "-//W3C//DTD SVG 1.1//EN"
 "http://www.w3.org/Graphics/SVG/1.1/DTD/svg11.dtd">
<!-- Generated by graphviz version 2.38.0 (20140413.2041)
 -->
<!-- Title: src/operational/src/interpreter/variable_exp_interface.h Pages: 1 -->
<svg width="859pt" height="362pt"
 viewBox="0.00 0.00 859.00 362.00" xmlns="http://www.w3.org/2000/svg" xmlns:xlink="http://www.w3.org/1999/xlink">
<g id="graph0" class="graph" transform="scale(1 1) rotate(0) translate(4 358)">
<title>src/operational/src/interpreter/variable_exp_interface.h</title>
<polygon fill="white" stroke="none" points="-4,4 -4,-358 855,-358 855,4 -4,4"/>
<!-- Node1 -->
<g id="node1" class="node"><title>Node1</title>
<polygon fill="#bfbfbf" stroke="black" points="521,-312.5 521,-353.5 619,-353.5 619,-312.5 521,-312.5"/>
<text text-anchor="start" x="529" y="-341.5" font-family="Helvetica,sans-Serif" font-size="10.00">src/operational/src</text>
<text text-anchor="start" x="529" y="-330.5" font-family="Helvetica,sans-Serif" font-size="10.00">/interpreter/variable</text>
<text text-anchor="middle" x="570" y="-319.5" font-family="Helvetica,sans-Serif" font-size="10.00">_exp_interface.h</text>
</g>
<!-- Node2 -->
<g id="node2" class="node"><title>Node2</title>
<g id="a_node2"><a xlink:href="../../d2/d69/interpreter__context__interface_8h.html" target="_top" xlink:title="src/operational/src\l/interpreter/interpreter\l_context_interface.h">
<polygon fill="white" stroke="black" points="419,-234.5 419,-275.5 529,-275.5 529,-234.5 419,-234.5"/>
<text text-anchor="start" x="427" y="-263.5" font-family="Helvetica,sans-Serif" font-size="10.00">src/operational/src</text>
<text text-anchor="start" x="427" y="-252.5" font-family="Helvetica,sans-Serif" font-size="10.00">/interpreter/interpreter</text>
<text text-anchor="middle" x="474" y="-241.5" font-family="Helvetica,sans-Serif" font-size="10.00">_context_interface.h</text>
</a>
</g>
</g>
<!-- Node1&#45;&gt;Node2 -->
<g id="edge1" class="edge"><title>Node1&#45;&gt;Node2</title>
<path fill="none" stroke="midnightblue" d="M537.24,-306.065C524.599,-296.057 510.385,-284.804 498.639,-275.506"/>
<polygon fill="midnightblue" stroke="midnightblue" points="535.265,-308.965 545.278,-312.428 539.61,-303.477 535.265,-308.965"/>
</g>
<!-- Node13 -->
<g id="node13" class="node"><title>Node13</title>
<g id="a_node13"><a xlink:href="../../de/d5a/variable__exp_8h.html" target="_top" xlink:title="src/operational/src\l/interpreter/variable_exp.h">
<polygon fill="white" stroke="black" points="714,-84 714,-114 842,-114 842,-84 714,-84"/>
<text text-anchor="start" x="722" y="-102" font-family="Helvetica,sans-Serif" font-size="10.00">src/operational/src</text>
<text text-anchor="middle" x="778" y="-91" font-family="Helvetica,sans-Serif" font-size="10.00">/interpreter/variable_exp.h</text>
</a>
</g>
</g>
<!-- Node1&#45;&gt;Node13 -->
<g id="edge22" class="edge"><title>Node1&#45;&gt;Node13</title>
<path fill="none" stroke="midnightblue" d="M594.436,-304.744C638.872,-255.182 731.438,-151.934 765.268,-114.201"/>
<polygon fill="midnightblue" stroke="midnightblue" points="591.803,-302.438 587.734,-312.22 597.015,-307.111 591.803,-302.438"/>
</g>
<!-- Node3 -->
<g id="node3" class="node"><title>Node3</title>
<g id="a_node3"><a xlink:href="../../df/de3/boolean__exp__interface_8h.html" target="_top" xlink:title="src/operational/src\l/interpreter/boolean\l_exp_interface.h">
<polygon fill="white" stroke="black" points="424,-156.5 424,-197.5 524,-197.5 524,-156.5 424,-156.5"/>
<text text-anchor="start" x="432" y="-185.5" font-family="Helvetica,sans-Serif" font-size="10.00">src/operational/src</text>
<text text-anchor="start" x="432" y="-174.5" font-family="Helvetica,sans-Serif" font-size="10.00">/interpreter/boolean</text>
<text text-anchor="middle" x="474" y="-163.5" font-family="Helvetica,sans-Serif" font-size="10.00">_exp_interface.h</text>
</a>
</g>
</g>
<!-- Node2&#45;&gt;Node3 -->
<g id="edge2" class="edge"><title>Node2&#45;&gt;Node3</title>
<path fill="none" stroke="midnightblue" d="M474,-224.297C474,-215.301 474,-205.653 474,-197.506"/>
<polygon fill="midnightblue" stroke="midnightblue" points="470.5,-224.428 474,-234.428 477.5,-224.428 470.5,-224.428"/>
</g>
<!-- Node15 -->
<g id="node15" class="node"><title>Node15</title>
<g id="a_node15"><a xlink:href="../../d9/d24/interpreter__context_8h.html" target="_top" xlink:title="src/operational/src\l/interpreter/interpreter\l_context.h">
<polygon fill="white" stroke="black" points="83,-156.5 83,-197.5 193,-197.5 193,-156.5 83,-156.5"/>
<text text-anchor="start" x="91" y="-185.5" font-family="Helvetica,sans-Serif" font-size="10.00">src/operational/src</text>
<text text-anchor="start" x="91" y="-174.5" font-family="Helvetica,sans-Serif" font-size="10.00">/interpreter/interpreter</text>
<text text-anchor="middle" x="138" y="-163.5" font-family="Helvetica,sans-Serif" font-size="10.00">_context.h</text>
</a>
</g>
</g>
<!-- Node2&#45;&gt;Node15 -->
<g id="edge19" class="edge"><title>Node2&#45;&gt;Node15</title>
<path fill="none" stroke="midnightblue" d="M409.102,-239.321C346.365,-225.13 252.351,-203.865 193.137,-190.472"/>
<polygon fill="midnightblue" stroke="midnightblue" points="408.367,-242.743 418.893,-241.535 409.911,-235.915 408.367,-242.743"/>
</g>
<!-- Node4 -->
<g id="node4" class="node"><title>Node4</title>
<g id="a_node4"><a xlink:href="../../d0/d2a/and__exp_8h.html" target="_top" xlink:title="src/operational/src\l/interpreter/and_exp.h">
<polygon fill="white" stroke="black" points="584.5,-84 584.5,-114 695.5,-114 695.5,-84 584.5,-84"/>
<text text-anchor="start" x="592.5" y="-102" font-family="Helvetica,sans-Serif" font-size="10.00">src/operational/src</text>
<text text-anchor="middle" x="640" y="-91" font-family="Helvetica,sans-Serif" font-size="10.00">/interpreter/and_exp.h</text>
</a>
</g>
</g>
<!-- Node3&#45;&gt;Node4 -->
<g id="edge3" class="edge"><title>Node3&#45;&gt;Node4</title>
<path fill="none" stroke="midnightblue" d="M526.161,-152.119C553.45,-139.625 585.922,-124.759 609.188,-114.106"/>
<polygon fill="midnightblue" stroke="midnightblue" points="524.385,-149.083 516.749,-156.428 527.299,-155.448 524.385,-149.083"/>
</g>
<!-- Node6 -->
<g id="node6" class="node"><title>Node6</title>
<g id="a_node6"><a xlink:href="../../de/d72/interpreter__test_8cc.html" target="_top" xlink:title="src/operational_tests\l/src/interpreter/interpreter\l_test.cc">
<polygon fill="white" stroke="black" points="347,-0.5 347,-41.5 473,-41.5 473,-0.5 347,-0.5"/>
<text text-anchor="start" x="355" y="-29.5" font-family="Helvetica,sans-Serif" font-size="10.00">src/operational_tests</text>
<text text-anchor="start" x="355" y="-18.5" font-family="Helvetica,sans-Serif" font-size="10.00">/src/interpreter/interpreter</text>
<text text-anchor="middle" x="410" y="-7.5" font-family="Helvetica,sans-Serif" font-size="10.00">_test.cc</text>
</a>
</g>
</g>
<!-- Node3&#45;&gt;Node6 -->
<g id="edge18" class="edge"><title>Node3&#45;&gt;Node6</title>
<path fill="none" stroke="midnightblue" d="M462.017,-147.167C449.245,-116.432 429.362,-68.5895 418.242,-41.8323"/>
<polygon fill="midnightblue" stroke="midnightblue" points="458.825,-148.605 465.894,-156.496 465.289,-145.918 458.825,-148.605"/>
</g>
<!-- Node7 -->
<g id="node7" class="node"><title>Node7</title>
<g id="a_node7"><a xlink:href="../../dd/d17/constant_8h.html" target="_top" xlink:title="src/operational/src\l/interpreter/constant.h">
<polygon fill="white" stroke="black" points="166,-84 166,-114 278,-114 278,-84 166,-84"/>
<text text-anchor="start" x="174" y="-102" font-family="Helvetica,sans-Serif" font-size="10.00">src/operational/src</text>
<text text-anchor="middle" x="222" y="-91" font-family="Helvetica,sans-Serif" font-size="10.00">/interpreter/constant.h</text>
</a>
</g>
</g>
<!-- Node3&#45;&gt;Node7 -->
<g id="edge6" class="edge"><title>Node3&#45;&gt;Node7</title>
<path fill="none" stroke="midnightblue" d="M413.928,-158.136C377.241,-147.195 329.388,-132.868 287,-120 280.673,-118.079 274.004,-116.042 267.445,-114.031"/>
<polygon fill="midnightblue" stroke="midnightblue" points="413.383,-161.625 423.966,-161.128 415.383,-154.917 413.383,-161.625"/>
</g>
<!-- Node9 -->
<g id="node9" class="node"><title>Node9</title>
<g id="a_node9"><a xlink:href="../../da/de4/not__exp_8h.html" target="_top" xlink:title="src/operational/src\l/interpreter/not_exp.h">
<polygon fill="white" stroke="black" points="296.5,-84 296.5,-114 405.5,-114 405.5,-84 296.5,-84"/>
<text text-anchor="start" x="304.5" y="-102" font-family="Helvetica,sans-Serif" font-size="10.00">src/operational/src</text>
<text text-anchor="middle" x="351" y="-91" font-family="Helvetica,sans-Serif" font-size="10.00">/interpreter/not_exp.h</text>
</a>
</g>
</g>
<!-- Node3&#45;&gt;Node9 -->
<g id="edge9" class="edge"><title>Node3&#45;&gt;Node9</title>
<path fill="none" stroke="midnightblue" d="M433.783,-151.15C413.973,-138.91 390.804,-124.594 374.023,-114.225"/>
<polygon fill="midnightblue" stroke="midnightblue" points="431.978,-154.149 442.324,-156.428 435.657,-148.194 431.978,-154.149"/>
</g>
<!-- Node11 -->
<g id="node11" class="node"><title>Node11</title>
<g id="a_node11"><a xlink:href="../../da/d46/or__exp_8h.html" target="_top" xlink:title="src/operational/src\l/interpreter/or_exp.h">
<polygon fill="white" stroke="black" points="462,-84 462,-114 566,-114 566,-84 462,-84"/>
<text text-anchor="start" x="470" y="-102" font-family="Helvetica,sans-Serif" font-size="10.00">src/operational/src</text>
<text text-anchor="middle" x="514" y="-91" font-family="Helvetica,sans-Serif" font-size="10.00">/interpreter/or_exp.h</text>
</a>
</g>
</g>
<!-- Node3&#45;&gt;Node11 -->
<g id="edge12" class="edge"><title>Node3&#45;&gt;Node11</title>
<path fill="none" stroke="midnightblue" d="M489.104,-147.303C495.053,-135.999 501.619,-123.525 506.513,-114.225"/>
<polygon fill="midnightblue" stroke="midnightblue" points="485.861,-145.949 484.301,-156.428 492.056,-149.209 485.861,-145.949"/>
</g>
<!-- Node3&#45;&gt;Node13 -->
<g id="edge15" class="edge"><title>Node3&#45;&gt;Node13</title>
<path fill="none" stroke="midnightblue" d="M534.245,-161.769C580.703,-150.689 646.52,-134.763 704,-120 711.347,-118.113 719.091,-116.075 726.691,-114.046"/>
<polygon fill="midnightblue" stroke="midnightblue" points="533.259,-158.406 524.342,-164.127 534.881,-165.216 533.259,-158.406"/>
</g>
<!-- Node5 -->
<g id="node5" class="node"><title>Node5</title>
<g id="a_node5"><a xlink:href="../../dd/df5/and__exp_8cc.html" target="_top" xlink:title="src/operational/src\l/interpreter/and_exp.cc">
<polygon fill="white" stroke="black" points="619,-6 619,-36 735,-36 735,-6 619,-6"/>
<text text-anchor="start" x="627" y="-24" font-family="Helvetica,sans-Serif" font-size="10.00">src/operational/src</text>
<text text-anchor="middle" x="677" y="-13" font-family="Helvetica,sans-Serif" font-size="10.00">/interpreter/and_exp.cc</text>
</a>
</g>
</g>
<!-- Node4&#45;&gt;Node5 -->
<g id="edge4" class="edge"><title>Node4&#45;&gt;Node5</title>
<path fill="none" stroke="midnightblue" d="M651.341,-74.7047C657.458,-62.141 664.809,-47.0416 670.072,-36.2309"/>
<polygon fill="midnightblue" stroke="midnightblue" points="648.19,-73.1818 646.959,-83.705 654.484,-76.2459 648.19,-73.1818"/>
</g>
<!-- Node4&#45;&gt;Node6 -->
<g id="edge5" class="edge"><title>Node4&#45;&gt;Node6</title>
<path fill="none" stroke="midnightblue" d="M587.904,-80.7858C552.581,-69.1137 505.82,-53.6622 469.103,-41.5298"/>
<polygon fill="midnightblue" stroke="midnightblue" points="586.953,-84.1576 597.546,-83.9719 589.15,-77.511 586.953,-84.1576"/>
</g>
<!-- Node7&#45;&gt;Node6 -->
<g id="edge8" class="edge"><title>Node7&#45;&gt;Node6</title>
<path fill="none" stroke="midnightblue" d="M266.261,-80.1074C294.846,-68.5516 332.051,-53.5113 361.447,-41.6279"/>
<polygon fill="midnightblue" stroke="midnightblue" points="264.88,-76.8903 256.921,-83.8831 267.504,-83.38 264.88,-76.8903"/>
</g>
<!-- Node8 -->
<g id="node8" class="node"><title>Node8</title>
<g id="a_node8"><a xlink:href="../../d6/d35/constant_8cc.html" target="_top" xlink:title="src/operational/src\l/interpreter/constant.cc">
<polygon fill="white" stroke="black" points="79.5,-6 79.5,-36 196.5,-36 196.5,-6 79.5,-6"/>
<text text-anchor="start" x="87.5" y="-24" font-family="Helvetica,sans-Serif" font-size="10.00">src/operational/src</text>
<text text-anchor="middle" x="138" y="-13" font-family="Helvetica,sans-Serif" font-size="10.00">/interpreter/constant.cc</text>
</a>
</g>
</g>
<!-- Node7&#45;&gt;Node8 -->
<g id="edge7" class="edge"><title>Node7&#45;&gt;Node8</title>
<path fill="none" stroke="midnightblue" d="M198.672,-76.8941C184.346,-63.9322 166.38,-47.6775 153.729,-36.2309"/>
<polygon fill="midnightblue" stroke="midnightblue" points="196.437,-79.5912 206.2,-83.705 201.133,-74.4004 196.437,-79.5912"/>
</g>
<!-- Node9&#45;&gt;Node6 -->
<g id="edge11" class="edge"><title>Node9&#45;&gt;Node6</title>
<path fill="none" stroke="midnightblue" d="M368.394,-75.5938C376.746,-64.8352 386.665,-52.0591 394.722,-41.68"/>
<polygon fill="midnightblue" stroke="midnightblue" points="365.465,-73.6596 362.097,-83.705 370.994,-77.9521 365.465,-73.6596"/>
</g>
<!-- Node10 -->
<g id="node10" class="node"><title>Node10</title>
<g id="a_node10"><a xlink:href="../../d7/d6d/not__exp_8cc.html" target="_top" xlink:title="src/operational/src\l/interpreter/not_exp.cc">
<polygon fill="white" stroke="black" points="215,-6 215,-36 329,-36 329,-6 215,-6"/>
<text text-anchor="start" x="223" y="-24" font-family="Helvetica,sans-Serif" font-size="10.00">src/operational/src</text>
<text text-anchor="middle" x="272" y="-13" font-family="Helvetica,sans-Serif" font-size="10.00">/interpreter/not_exp.cc</text>
</a>
</g>
</g>
<!-- Node9&#45;&gt;Node10 -->
<g id="edge10" class="edge"><title>Node9&#45;&gt;Node10</title>
<path fill="none" stroke="midnightblue" d="M328.686,-76.5332C315.275,-63.6316 298.581,-47.5716 286.793,-36.2309"/>
<polygon fill="midnightblue" stroke="midnightblue" points="326.508,-79.2944 336.141,-83.705 331.361,-74.2497 326.508,-79.2944"/>
</g>
<!-- Node11&#45;&gt;Node6 -->
<g id="edge14" class="edge"><title>Node11&#45;&gt;Node6</title>
<path fill="none" stroke="midnightblue" d="M486.358,-77.8001C471.056,-66.6177 452.118,-52.7785 436.931,-41.68"/>
<polygon fill="midnightblue" stroke="midnightblue" points="484.299,-80.6307 494.438,-83.705 488.43,-74.9789 484.299,-80.6307"/>
</g>
<!-- Node12 -->
<g id="node12" class="node"><title>Node12</title>
<g id="a_node12"><a xlink:href="../../d6/d16/or__exp_8cc.html" target="_top" xlink:title="src/operational/src\l/interpreter/or_exp.cc">
<polygon fill="white" stroke="black" points="491.5,-6 491.5,-36 600.5,-36 600.5,-6 491.5,-6"/>
<text text-anchor="start" x="499.5" y="-24" font-family="Helvetica,sans-Serif" font-size="10.00">src/operational/src</text>
<text text-anchor="middle" x="546" y="-13" font-family="Helvetica,sans-Serif" font-size="10.00">/interpreter/or_exp.cc</text>
</a>
</g>
</g>
<!-- Node11&#45;&gt;Node12 -->
<g id="edge13" class="edge"><title>Node11&#45;&gt;Node12</title>
<path fill="none" stroke="midnightblue" d="M523.964,-74.3345C529.223,-61.8454 535.501,-46.9356 540.008,-36.2309"/>
<polygon fill="midnightblue" stroke="midnightblue" points="520.674,-73.1304 520.019,-83.705 527.125,-75.8468 520.674,-73.1304"/>
</g>
<!-- Node13&#45;&gt;Node6 -->
<g id="edge17" class="edge"><title>Node13&#45;&gt;Node6</title>
<path fill="none" stroke="midnightblue" d="M719.074,-81.4884C713.991,-80.2423 708.915,-79.0598 704,-78 606.29,-56.9323 579.636,-63.4087 482,-42 479.085,-41.3609 476.113,-40.6752 473.118,-39.9565"/>
<polygon fill="midnightblue" stroke="midnightblue" points="718.262,-84.8933 728.815,-83.9472 719.976,-78.1062 718.262,-84.8933"/>
</g>
<!-- Node14 -->
<g id="node14" class="node"><title>Node14</title>
<g id="a_node14"><a xlink:href="../../d0/da3/variable__exp_8cc.html" target="_top" xlink:title="src/operational/src\l/interpreter/variable\l_exp.cc">
<polygon fill="white" stroke="black" points="753,-0.5 753,-41.5 851,-41.5 851,-0.5 753,-0.5"/>
<text text-anchor="start" x="761" y="-29.5" font-family="Helvetica,sans-Serif" font-size="10.00">src/operational/src</text>
<text text-anchor="start" x="761" y="-18.5" font-family="Helvetica,sans-Serif" font-size="10.00">/interpreter/variable</text>
<text text-anchor="middle" x="802" y="-7.5" font-family="Helvetica,sans-Serif" font-size="10.00">_exp.cc</text>
</a>
</g>
</g>
<!-- Node13&#45;&gt;Node14 -->
<g id="edge16" class="edge"><title>Node13&#45;&gt;Node14</title>
<path fill="none" stroke="midnightblue" d="M785.585,-73.9817C788.871,-63.5762 792.67,-51.5453 795.785,-41.68"/>
<polygon fill="midnightblue" stroke="midnightblue" points="782.188,-73.1152 782.514,-83.705 788.863,-75.2231 782.188,-73.1152"/>
</g>
<!-- Node15&#45;&gt;Node6 -->
<g id="edge21" class="edge"><title>Node15&#45;&gt;Node6</title>
<path fill="none" stroke="midnightblue" d="M135.619,-146.077C135.611,-124.292 139.455,-95.6298 157,-78 214.857,-19.8631 258.208,-60.9893 338,-42 340.903,-41.3092 343.865,-40.581 346.853,-39.8279"/>
<polygon fill="midnightblue" stroke="midnightblue" points="132.122,-146.238 135.89,-156.14 139.12,-146.05 132.122,-146.238"/>
</g>
<!-- Node16 -->
<g id="node16" class="node"><title>Node16</title>
<g id="a_node16"><a xlink:href="../../da/d06/interpreter__context_8cc.html" target="_top" xlink:title="src/operational/src\l/interpreter/interpreter\l_context.cc">
<polygon fill="white" stroke="black" points="0,-78.5 0,-119.5 110,-119.5 110,-78.5 0,-78.5"/>
<text text-anchor="start" x="8" y="-107.5" font-family="Helvetica,sans-Serif" font-size="10.00">src/operational/src</text>
<text text-anchor="start" x="8" y="-96.5" font-family="Helvetica,sans-Serif" font-size="10.00">/interpreter/interpreter</text>
<text text-anchor="middle" x="55" y="-85.5" font-family="Helvetica,sans-Serif" font-size="10.00">_context.cc</text>
</a>
</g>
</g>
<!-- Node15&#45;&gt;Node16 -->
<g id="edge20" class="edge"><title>Node15&#45;&gt;Node16</title>
<path fill="none" stroke="midnightblue" d="M109.05,-149.492C98.2795,-139.629 86.2641,-128.627 76.3021,-119.506"/>
<polygon fill="midnightblue" stroke="midnightblue" points="106.887,-152.256 116.625,-156.428 111.614,-147.094 106.887,-152.256"/>
</g>
</g>
</svg>
