<?xml version="1.0" encoding="UTF-8" standalone="no"?>
<!DOCTYPE svg PUBLIC "-//W3C//DTD SVG 1.1//EN"
 "http://www.w3.org/Graphics/SVG/1.1/DTD/svg11.dtd">
<!-- Generated by graphviz version 2.38.0 (20140413.2041)
 -->
<!-- Title: operational::observer::ClockTimer::GetSeconds Pages: 1 -->
<svg width="453pt" height="39pt"
 viewBox="0.00 0.00 453.00 39.00" xmlns="http://www.w3.org/2000/svg" xmlns:xlink="http://www.w3.org/1999/xlink">
<g id="graph0" class="graph" transform="scale(1 1) rotate(0) translate(4 35)">
<title>operational::observer::ClockTimer::GetSeconds</title>
<polygon fill="white" stroke="none" points="-4,4 -4,-35 449,-35 449,4 -4,4"/>
<!-- Node1 -->
<g id="node1" class="node"><title>Node1</title>
<polygon fill="#bfbfbf" stroke="black" points="0,-0.5 0,-30.5 131,-30.5 131,-0.5 0,-0.5"/>
<text text-anchor="start" x="8" y="-18.5" font-family="Helvetica,sans-Serif" font-size="10.00">operational::observer</text>
<text text-anchor="middle" x="65.5" y="-7.5" font-family="Helvetica,sans-Serif" font-size="10.00">::ClockTimer::GetSeconds</text>
</g>
<!-- Node2 -->
<g id="node2" class="node"><title>Node2</title>
<g id="a_node2"><a xlink:href="../../d9/dd3/classoperational_1_1observer_1_1_digital_clock.html#a6bbd45c6419016532065fbebbb108551" target="_top" xlink:title="operational::observer\l::DigitalClock::Draw">
<polygon fill="white" stroke="black" points="167,-0.5 167,-30.5 273,-30.5 273,-0.5 167,-0.5"/>
<text text-anchor="start" x="175" y="-18.5" font-family="Helvetica,sans-Serif" font-size="10.00">operational::observer</text>
<text text-anchor="middle" x="220" y="-7.5" font-family="Helvetica,sans-Serif" font-size="10.00">::DigitalClock::Draw</text>
</a>
</g>
</g>
<!-- Node1&#45;&gt;Node2 -->
<g id="edge1" class="edge"><title>Node1&#45;&gt;Node2</title>
<path fill="none" stroke="midnightblue" d="M141.238,-15.5C149.844,-15.5 158.476,-15.5 166.695,-15.5"/>
<polygon fill="midnightblue" stroke="midnightblue" points="141.174,-12.0001 131.174,-15.5 141.174,-19.0001 141.174,-12.0001"/>
</g>
<!-- Node3 -->
<g id="node3" class="node"><title>Node3</title>
<g id="a_node3"><a xlink:href="../../d9/dd3/classoperational_1_1observer_1_1_digital_clock.html#a857f010196ef7443c48071e928ec6646" target="_top" xlink:title="operational::observer\l::DigitalClock::OnClockTick">
<polygon fill="white" stroke="black" points="309,-0.5 309,-30.5 445,-30.5 445,-0.5 309,-0.5"/>
<text text-anchor="start" x="317" y="-18.5" font-family="Helvetica,sans-Serif" font-size="10.00">operational::observer</text>
<text text-anchor="middle" x="377" y="-7.5" font-family="Helvetica,sans-Serif" font-size="10.00">::DigitalClock::OnClockTick</text>
</a>
</g>
</g>
<!-- Node2&#45;&gt;Node3 -->
<g id="edge2" class="edge"><title>Node2&#45;&gt;Node3</title>
<path fill="none" stroke="midnightblue" d="M283.218,-15.5C291.685,-15.5 300.406,-15.5 308.954,-15.5"/>
<polygon fill="midnightblue" stroke="midnightblue" points="283.044,-12.0001 273.044,-15.5 283.044,-19.0001 283.044,-12.0001"/>
</g>
</g>
</svg>
