<?xml version="1.0" encoding="UTF-8" standalone="no"?>
<!DOCTYPE svg PUBLIC "-//W3C//DTD SVG 1.1//EN"
 "http://www.w3.org/Graphics/SVG/1.1/DTD/svg11.dtd">
<!-- Generated by graphviz version 2.38.0 (20140413.2041)
 -->
<!-- Title: operational::observer::ClockTimer::Attach Pages: 1 -->
<svg width="288pt" height="88pt"
 viewBox="0.00 0.00 288.00 88.00" xmlns="http://www.w3.org/2000/svg" xmlns:xlink="http://www.w3.org/1999/xlink">
<g id="graph0" class="graph" transform="scale(1 1) rotate(0) translate(4 84)">
<title>operational::observer::ClockTimer::Attach</title>
<polygon fill="white" stroke="none" points="-4,4 -4,-84 284,-84 284,4 -4,4"/>
<!-- Node1 -->
<g id="node1" class="node"><title>Node1</title>
<polygon fill="#bfbfbf" stroke="black" points="0,-24.5 0,-54.5 106,-54.5 106,-24.5 0,-24.5"/>
<text text-anchor="start" x="8" y="-42.5" font-family="Helvetica,sans-Serif" font-size="10.00">operational::observer</text>
<text text-anchor="middle" x="53" y="-31.5" font-family="Helvetica,sans-Serif" font-size="10.00">::ClockTimer::Attach</text>
</g>
<!-- Node2 -->
<g id="node2" class="node"><title>Node2</title>
<g id="a_node2"><a xlink:href="../../d3/d84/classoperational_1_1observer_1_1_analog_clock.html#a4c8d07931d31d73e890409b119625460" target="_top" xlink:title="operational::observer\l::AnalogClock::AnalogClock">
<polygon fill="white" stroke="black" points="142,-49.5 142,-79.5 280,-79.5 280,-49.5 142,-49.5"/>
<text text-anchor="start" x="150" y="-67.5" font-family="Helvetica,sans-Serif" font-size="10.00">operational::observer</text>
<text text-anchor="middle" x="211" y="-56.5" font-family="Helvetica,sans-Serif" font-size="10.00">::AnalogClock::AnalogClock</text>
</a>
</g>
</g>
<!-- Node1&#45;&gt;Node2 -->
<g id="edge1" class="edge"><title>Node1&#45;&gt;Node2</title>
<path fill="none" stroke="midnightblue" d="M116.461,-49.5097C124.849,-50.8541 133.488,-52.2385 141.967,-53.5973"/>
<polygon fill="midnightblue" stroke="midnightblue" points="116.808,-46.0207 106.38,-47.8942 115.7,-52.9325 116.808,-46.0207"/>
</g>
<!-- Node3 -->
<g id="node3" class="node"><title>Node3</title>
<g id="a_node3"><a xlink:href="../../d9/dd3/classoperational_1_1observer_1_1_digital_clock.html#ad44c92ab85010486484f882cc0eaab00" target="_top" xlink:title="operational::observer\l::DigitalClock::DigitalClock">
<polygon fill="white" stroke="black" points="145,-0.5 145,-30.5 277,-30.5 277,-0.5 145,-0.5"/>
<text text-anchor="start" x="153" y="-18.5" font-family="Helvetica,sans-Serif" font-size="10.00">operational::observer</text>
<text text-anchor="middle" x="211" y="-7.5" font-family="Helvetica,sans-Serif" font-size="10.00">::DigitalClock::DigitalClock</text>
</a>
</g>
</g>
<!-- Node1&#45;&gt;Node3 -->
<g id="edge2" class="edge"><title>Node1&#45;&gt;Node3</title>
<path fill="none" stroke="midnightblue" d="M116.36,-29.9062C125.695,-28.47 135.341,-26.986 144.734,-25.5409"/>
<polygon fill="midnightblue" stroke="midnightblue" points="115.731,-26.4616 106.38,-31.4416 116.796,-33.3802 115.731,-26.4616"/>
</g>
</g>
</svg>
