<?xml version="1.0" encoding="UTF-8" standalone="no"?>
<!DOCTYPE svg PUBLIC "-//W3C//DTD SVG 1.1//EN"
 "http://www.w3.org/Graphics/SVG/1.1/DTD/svg11.dtd">
<!-- Generated by graphviz version 2.38.0 (20140413.2041)
 -->
<!-- Title: operational::observer::ClockTimer::GetMinutes Pages: 1 -->
<svg width="453pt" height="88pt"
 viewBox="0.00 0.00 453.00 88.00" xmlns="http://www.w3.org/2000/svg" xmlns:xlink="http://www.w3.org/1999/xlink">
<g id="graph0" class="graph" transform="scale(1 1) rotate(0) translate(4 84)">
<title>operational::observer::ClockTimer::GetMinutes</title>
<polygon fill="white" stroke="none" points="-4,4 -4,-84 449,-84 449,4 -4,4"/>
<!-- Node1 -->
<g id="node1" class="node"><title>Node1</title>
<polygon fill="#bfbfbf" stroke="black" points="0,-24.5 0,-54.5 128,-54.5 128,-24.5 0,-24.5"/>
<text text-anchor="start" x="8" y="-42.5" font-family="Helvetica,sans-Serif" font-size="10.00">operational::observer</text>
<text text-anchor="middle" x="64" y="-31.5" font-family="Helvetica,sans-Serif" font-size="10.00">::ClockTimer::GetMinutes</text>
</g>
<!-- Node2 -->
<g id="node2" class="node"><title>Node2</title>
<g id="a_node2"><a xlink:href="../../d3/d84/classoperational_1_1observer_1_1_analog_clock.html#ae1282fbb62e8dec801d78e6c849adb33" target="_top" xlink:title="operational::observer\l::AnalogClock::Draw">
<polygon fill="white" stroke="black" points="164,-49.5 164,-79.5 270,-79.5 270,-49.5 164,-49.5"/>
<text text-anchor="start" x="172" y="-67.5" font-family="Helvetica,sans-Serif" font-size="10.00">operational::observer</text>
<text text-anchor="middle" x="217" y="-56.5" font-family="Helvetica,sans-Serif" font-size="10.00">::AnalogClock::Draw</text>
</a>
</g>
</g>
<!-- Node1&#45;&gt;Node2 -->
<g id="edge1" class="edge"><title>Node1&#45;&gt;Node2</title>
<path fill="none" stroke="midnightblue" d="M138.19,-51.6175C146.769,-53.038 155.389,-54.4651 163.605,-55.8253"/>
<polygon fill="midnightblue" stroke="midnightblue" points="138.6,-48.1379 128.163,-49.9574 137.457,-55.0439 138.6,-48.1379"/>
</g>
<!-- Node4 -->
<g id="node4" class="node"><title>Node4</title>
<g id="a_node4"><a xlink:href="../../d9/dd3/classoperational_1_1observer_1_1_digital_clock.html#a6bbd45c6419016532065fbebbb108551" target="_top" xlink:title="operational::observer\l::DigitalClock::Draw">
<polygon fill="white" stroke="black" points="164,-0.5 164,-30.5 270,-30.5 270,-0.5 164,-0.5"/>
<text text-anchor="start" x="172" y="-18.5" font-family="Helvetica,sans-Serif" font-size="10.00">operational::observer</text>
<text text-anchor="middle" x="217" y="-7.5" font-family="Helvetica,sans-Serif" font-size="10.00">::DigitalClock::Draw</text>
</a>
</g>
</g>
<!-- Node1&#45;&gt;Node4 -->
<g id="edge3" class="edge"><title>Node1&#45;&gt;Node4</title>
<path fill="none" stroke="midnightblue" d="M138.19,-27.8672C146.769,-26.5035 155.389,-25.1335 163.605,-23.8277"/>
<polygon fill="midnightblue" stroke="midnightblue" points="137.489,-24.4345 128.163,-29.4609 138.588,-31.3477 137.489,-24.4345"/>
</g>
<!-- Node3 -->
<g id="node3" class="node"><title>Node3</title>
<g id="a_node3"><a xlink:href="../../d3/d84/classoperational_1_1observer_1_1_analog_clock.html#ae0eee57dd3486083353bbff1789bfed4" target="_top" xlink:title="operational::observer\l::AnalogClock::OnClockTick">
<polygon fill="white" stroke="black" points="306,-49.5 306,-79.5 445,-79.5 445,-49.5 306,-49.5"/>
<text text-anchor="start" x="314" y="-67.5" font-family="Helvetica,sans-Serif" font-size="10.00">operational::observer</text>
<text text-anchor="middle" x="375.5" y="-56.5" font-family="Helvetica,sans-Serif" font-size="10.00">::AnalogClock::OnClockTick</text>
</a>
</g>
</g>
<!-- Node2&#45;&gt;Node3 -->
<g id="edge2" class="edge"><title>Node2&#45;&gt;Node3</title>
<path fill="none" stroke="midnightblue" d="M280.244,-64.5C288.678,-64.5 297.371,-64.5 305.908,-64.5"/>
<polygon fill="midnightblue" stroke="midnightblue" points="280.112,-61.0001 270.112,-64.5 280.112,-68.0001 280.112,-61.0001"/>
</g>
<!-- Node5 -->
<g id="node5" class="node"><title>Node5</title>
<g id="a_node5"><a xlink:href="../../d9/dd3/classoperational_1_1observer_1_1_digital_clock.html#a857f010196ef7443c48071e928ec6646" target="_top" xlink:title="operational::observer\l::DigitalClock::OnClockTick">
<polygon fill="white" stroke="black" points="307.5,-0.5 307.5,-30.5 443.5,-30.5 443.5,-0.5 307.5,-0.5"/>
<text text-anchor="start" x="315.5" y="-18.5" font-family="Helvetica,sans-Serif" font-size="10.00">operational::observer</text>
<text text-anchor="middle" x="375.5" y="-7.5" font-family="Helvetica,sans-Serif" font-size="10.00">::DigitalClock::OnClockTick</text>
</a>
</g>
</g>
<!-- Node4&#45;&gt;Node5 -->
<g id="edge4" class="edge"><title>Node4&#45;&gt;Node5</title>
<path fill="none" stroke="midnightblue" d="M280.353,-15.5C289.213,-15.5 298.357,-15.5 307.303,-15.5"/>
<polygon fill="midnightblue" stroke="midnightblue" points="280.112,-12.0001 270.112,-15.5 280.112,-19.0001 280.112,-12.0001"/>
</g>
</g>
</svg>
