<?xml version="1.0" encoding="UTF-8" standalone="no"?>
<!DOCTYPE svg PUBLIC "-//W3C//DTD SVG 1.1//EN"
 "http://www.w3.org/Graphics/SVG/1.1/DTD/svg11.dtd">
<!-- Generated by graphviz version 2.38.0 (20140413.2041)
 -->
<!-- Title: operational::observer::ClockTimer::GetHours Pages: 1 -->
<svg width="454pt" height="137pt"
 viewBox="0.00 0.00 454.00 137.00" xmlns="http://www.w3.org/2000/svg" xmlns:xlink="http://www.w3.org/1999/xlink">
<g id="graph0" class="graph" transform="scale(1 1) rotate(0) translate(4 133)">
<title>operational::observer::ClockTimer::GetHours</title>
<polygon fill="white" stroke="none" points="-4,4 -4,-133 450,-133 450,4 -4,4"/>
<!-- Node1 -->
<g id="node1" class="node"><title>Node1</title>
<polygon fill="#bfbfbf" stroke="black" points="0,-49.5 0,-79.5 119,-79.5 119,-49.5 0,-49.5"/>
<text text-anchor="start" x="8" y="-67.5" font-family="Helvetica,sans-Serif" font-size="10.00">operational::observer</text>
<text text-anchor="middle" x="59.5" y="-56.5" font-family="Helvetica,sans-Serif" font-size="10.00">::ClockTimer::GetHours</text>
</g>
<!-- Node2 -->
<g id="node2" class="node"><title>Node2</title>
<g id="a_node2"><a xlink:href="../../d3/d84/classoperational_1_1observer_1_1_analog_clock.html#ae1282fbb62e8dec801d78e6c849adb33" target="_top" xlink:title="operational::observer\l::AnalogClock::Draw">
<polygon fill="white" stroke="black" points="160,-98.5 160,-128.5 266,-128.5 266,-98.5 160,-98.5"/>
<text text-anchor="start" x="168" y="-116.5" font-family="Helvetica,sans-Serif" font-size="10.00">operational::observer</text>
<text text-anchor="middle" x="213" y="-105.5" font-family="Helvetica,sans-Serif" font-size="10.00">::AnalogClock::Draw</text>
</a>
</g>
</g>
<!-- Node1&#45;&gt;Node2 -->
<g id="edge1" class="edge"><title>Node1&#45;&gt;Node2</title>
<path fill="none" stroke="midnightblue" d="M116.954,-82.7591C132.933,-87.9273 150.14,-93.4924 165.463,-98.4484"/>
<polygon fill="midnightblue" stroke="midnightblue" points="117.783,-79.3487 107.191,-79.6014 115.629,-86.009 117.783,-79.3487"/>
</g>
<!-- Node4 -->
<g id="node4" class="node"><title>Node4</title>
<g id="a_node4"><a xlink:href="../../d9/dd3/classoperational_1_1observer_1_1_digital_clock.html#a6bbd45c6419016532065fbebbb108551" target="_top" xlink:title="operational::observer\l::DigitalClock::Draw">
<polygon fill="white" stroke="black" points="160,-49.5 160,-79.5 266,-79.5 266,-49.5 160,-49.5"/>
<text text-anchor="start" x="168" y="-67.5" font-family="Helvetica,sans-Serif" font-size="10.00">operational::observer</text>
<text text-anchor="middle" x="213" y="-56.5" font-family="Helvetica,sans-Serif" font-size="10.00">::DigitalClock::Draw</text>
</a>
</g>
</g>
<!-- Node1&#45;&gt;Node4 -->
<g id="edge3" class="edge"><title>Node1&#45;&gt;Node4</title>
<path fill="none" stroke="midnightblue" d="M129.178,-64.5C139.368,-64.5 149.73,-64.5 159.517,-64.5"/>
<polygon fill="midnightblue" stroke="midnightblue" points="129.074,-61.0001 119.074,-64.5 129.074,-68.0001 129.074,-61.0001"/>
</g>
<!-- Node6 -->
<g id="node6" class="node"><title>Node6</title>
<g id="a_node6"><a xlink:href="../../d4/d60/namespaceoperationaltests.html#ac05210d5717a9941120a787b5db70849" target="_top" xlink:title="operationaltests::TEST\l_CLASS">
<polygon fill="white" stroke="black" points="155,-0.5 155,-30.5 271,-30.5 271,-0.5 155,-0.5"/>
<text text-anchor="start" x="163" y="-18.5" font-family="Helvetica,sans-Serif" font-size="10.00">operationaltests::TEST</text>
<text text-anchor="middle" x="213" y="-7.5" font-family="Helvetica,sans-Serif" font-size="10.00">_CLASS</text>
</a>
</g>
</g>
<!-- Node1&#45;&gt;Node6 -->
<g id="edge5" class="edge"><title>Node1&#45;&gt;Node6</title>
<path fill="none" stroke="midnightblue" d="M116.954,-46.2409C132.933,-41.0727 150.14,-35.5076 165.463,-30.5516"/>
<polygon fill="midnightblue" stroke="midnightblue" points="115.629,-42.991 107.191,-49.3986 117.783,-49.6513 115.629,-42.991"/>
</g>
<!-- Node3 -->
<g id="node3" class="node"><title>Node3</title>
<g id="a_node3"><a xlink:href="../../d3/d84/classoperational_1_1observer_1_1_analog_clock.html#ae0eee57dd3486083353bbff1789bfed4" target="_top" xlink:title="operational::observer\l::AnalogClock::OnClockTick">
<polygon fill="white" stroke="black" points="307,-98.5 307,-128.5 446,-128.5 446,-98.5 307,-98.5"/>
<text text-anchor="start" x="315" y="-116.5" font-family="Helvetica,sans-Serif" font-size="10.00">operational::observer</text>
<text text-anchor="middle" x="376.5" y="-105.5" font-family="Helvetica,sans-Serif" font-size="10.00">::AnalogClock::OnClockTick</text>
</a>
</g>
</g>
<!-- Node2&#45;&gt;Node3 -->
<g id="edge2" class="edge"><title>Node2&#45;&gt;Node3</title>
<path fill="none" stroke="midnightblue" d="M276.601,-113.5C286.515,-113.5 296.815,-113.5 306.859,-113.5"/>
<polygon fill="midnightblue" stroke="midnightblue" points="276.434,-110 266.434,-113.5 276.434,-117 276.434,-110"/>
</g>
<!-- Node5 -->
<g id="node5" class="node"><title>Node5</title>
<g id="a_node5"><a xlink:href="../../d9/dd3/classoperational_1_1observer_1_1_digital_clock.html#a857f010196ef7443c48071e928ec6646" target="_top" xlink:title="operational::observer\l::DigitalClock::OnClockTick">
<polygon fill="white" stroke="black" points="308.5,-49.5 308.5,-79.5 444.5,-79.5 444.5,-49.5 308.5,-49.5"/>
<text text-anchor="start" x="316.5" y="-67.5" font-family="Helvetica,sans-Serif" font-size="10.00">operational::observer</text>
<text text-anchor="middle" x="376.5" y="-56.5" font-family="Helvetica,sans-Serif" font-size="10.00">::DigitalClock::OnClockTick</text>
</a>
</g>
</g>
<!-- Node4&#45;&gt;Node5 -->
<g id="edge4" class="edge"><title>Node4&#45;&gt;Node5</title>
<path fill="none" stroke="midnightblue" d="M276.645,-64.5C287.024,-64.5 297.823,-64.5 308.308,-64.5"/>
<polygon fill="midnightblue" stroke="midnightblue" points="276.434,-61.0001 266.434,-64.5 276.434,-68.0001 276.434,-61.0001"/>
</g>
</g>
</svg>
