<?xml version="1.0" encoding="UTF-8" standalone="no"?>
<!DOCTYPE svg PUBLIC "-//W3C//DTD SVG 1.1//EN"
 "http://www.w3.org/Graphics/SVG/1.1/DTD/svg11.dtd">
<!-- Generated by graphviz version 2.38.0 (20140413.2041)
 -->
<!-- Title: operational::observer::ClockTimer::Detach Pages: 1 -->
<svg width="296pt" height="88pt"
 viewBox="0.00 0.00 296.00 88.00" xmlns="http://www.w3.org/2000/svg" xmlns:xlink="http://www.w3.org/1999/xlink">
<g id="graph0" class="graph" transform="scale(1 1) rotate(0) translate(4 84)">
<title>operational::observer::ClockTimer::Detach</title>
<polygon fill="white" stroke="none" points="-4,4 -4,-84 292,-84 292,4 -4,4"/>
<!-- Node1 -->
<g id="node1" class="node"><title>Node1</title>
<polygon fill="#bfbfbf" stroke="black" points="0,-24.5 0,-54.5 108,-54.5 108,-24.5 0,-24.5"/>
<text text-anchor="start" x="8" y="-42.5" font-family="Helvetica,sans-Serif" font-size="10.00">operational::observer</text>
<text text-anchor="middle" x="54" y="-31.5" font-family="Helvetica,sans-Serif" font-size="10.00">::ClockTimer::Detach</text>
</g>
<!-- Node2 -->
<g id="node2" class="node"><title>Node2</title>
<g id="a_node2"><a xlink:href="../../d3/d84/classoperational_1_1observer_1_1_analog_clock.html#ab1f4aaeb3d862eab8c804d02c95d7312" target="_top" xlink:title="operational::observer\l::AnalogClock::~AnalogClock">
<polygon fill="white" stroke="black" points="144,-49.5 144,-79.5 288,-79.5 288,-49.5 144,-49.5"/>
<text text-anchor="start" x="152" y="-67.5" font-family="Helvetica,sans-Serif" font-size="10.00">operational::observer</text>
<text text-anchor="middle" x="216" y="-56.5" font-family="Helvetica,sans-Serif" font-size="10.00">::AnalogClock::~AnalogClock</text>
</a>
</g>
</g>
<!-- Node1&#45;&gt;Node2 -->
<g id="edge1" class="edge"><title>Node1&#45;&gt;Node2</title>
<path fill="none" stroke="midnightblue" d="M118.31,-49.3921C126.658,-50.6966 135.261,-52.0408 143.731,-53.3643"/>
<polygon fill="midnightblue" stroke="midnightblue" points="118.698,-45.9104 108.278,-47.8246 117.617,-52.8265 118.698,-45.9104"/>
</g>
<!-- Node3 -->
<g id="node3" class="node"><title>Node3</title>
<g id="a_node3"><a xlink:href="../../d9/dd3/classoperational_1_1observer_1_1_digital_clock.html#a63dc47e732a10b5e301f112b75a98d37" target="_top" xlink:title="operational::observer\l::DigitalClock::~DigitalClock">
<polygon fill="white" stroke="black" points="147,-0.5 147,-30.5 285,-30.5 285,-0.5 147,-0.5"/>
<text text-anchor="start" x="155" y="-18.5" font-family="Helvetica,sans-Serif" font-size="10.00">operational::observer</text>
<text text-anchor="middle" x="216" y="-7.5" font-family="Helvetica,sans-Serif" font-size="10.00">::DigitalClock::~DigitalClock</text>
</a>
</g>
</g>
<!-- Node1&#45;&gt;Node3 -->
<g id="edge2" class="edge"><title>Node1&#45;&gt;Node3</title>
<path fill="none" stroke="midnightblue" d="M118.307,-30.0039C127.69,-28.5965 137.394,-27.1409 146.87,-25.7195"/>
<polygon fill="midnightblue" stroke="midnightblue" points="117.648,-26.5636 108.278,-31.5083 118.686,-33.4861 117.648,-26.5636"/>
</g>
</g>
</svg>
