<?xml version="1.0" encoding="UTF-8" standalone="no"?>
<!DOCTYPE svg PUBLIC "-//W3C//DTD SVG 1.1//EN"
 "http://www.w3.org/Graphics/SVG/1.1/DTD/svg11.dtd">
<!-- Generated by graphviz version 2.38.0 (20140413.2041)
 -->
<!-- Title: operational::observer::ClockTimer::Tick Pages: 1 -->
<svg width="417pt" height="186pt"
 viewBox="0.00 0.00 417.00 186.00" xmlns="http://www.w3.org/2000/svg" xmlns:xlink="http://www.w3.org/1999/xlink">
<g id="graph0" class="graph" transform="scale(1 1) rotate(0) translate(4 182)">
<title>operational::observer::ClockTimer::Tick</title>
<polygon fill="white" stroke="none" points="-4,4 -4,-182 413,-182 413,4 -4,4"/>
<!-- Node1 -->
<g id="node1" class="node"><title>Node1</title>
<polygon fill="#bfbfbf" stroke="black" points="0,-73.5 0,-103.5 106,-103.5 106,-73.5 0,-73.5"/>
<text text-anchor="start" x="8" y="-91.5" font-family="Helvetica,sans-Serif" font-size="10.00">operational::observer</text>
<text text-anchor="middle" x="53" y="-80.5" font-family="Helvetica,sans-Serif" font-size="10.00">::ClockTimer::Tick</text>
</g>
<!-- Node2 -->
<g id="node2" class="node"><title>Node2</title>
<g id="a_node2"><a xlink:href="../../d4/de0/classoperational_1_1observer_1_1_clock_tick.html#a36ea25dc85c72397356653fd97f835ce" target="_top" xlink:title="operational::observer\l::ClockTick::Notify">
<polygon fill="white" stroke="black" points="142,-73.5 142,-103.5 248,-103.5 248,-73.5 142,-73.5"/>
<text text-anchor="start" x="150" y="-91.5" font-family="Helvetica,sans-Serif" font-size="10.00">operational::observer</text>
<text text-anchor="middle" x="195" y="-80.5" font-family="Helvetica,sans-Serif" font-size="10.00">::ClockTick::Notify</text>
</a>
</g>
</g>
<!-- Node1&#45;&gt;Node2 -->
<g id="edge1" class="edge"><title>Node1&#45;&gt;Node2</title>
<path fill="none" stroke="midnightblue" d="M106.131,-88.5C114.421,-88.5 123.07,-88.5 131.568,-88.5"/>
<polygon fill="midnightblue" stroke="midnightblue" points="131.826,-92.0001 141.826,-88.5 131.826,-85.0001 131.826,-92.0001"/>
</g>
<!-- Node3 -->
<g id="node3" class="node"><title>Node3</title>
<g id="a_node3"><a xlink:href="../../da/d8a/classoperational_1_1iterator_1_1_list_iterator.html#af957220a47026d5126a8220ada421352" target="_top" xlink:title="operational::iterator\l::ListIterator::First">
<polygon fill="white" stroke="black" points="296.5,-147.5 296.5,-177.5 396.5,-177.5 396.5,-147.5 296.5,-147.5"/>
<text text-anchor="start" x="304.5" y="-165.5" font-family="Helvetica,sans-Serif" font-size="10.00">operational::iterator</text>
<text text-anchor="middle" x="346.5" y="-154.5" font-family="Helvetica,sans-Serif" font-size="10.00">::ListIterator::First</text>
</a>
</g>
</g>
<!-- Node2&#45;&gt;Node3 -->
<g id="edge2" class="edge"><title>Node2&#45;&gt;Node3</title>
<path fill="none" stroke="midnightblue" d="M220.523,-103.706C237.899,-114.161 261.948,-128 284,-138.5 287.565,-140.198 291.285,-141.873 295.052,-143.501"/>
<polygon fill="midnightblue" stroke="midnightblue" points="293.881,-146.805 304.457,-147.438 296.584,-140.348 293.881,-146.805"/>
</g>
<!-- Node4 -->
<g id="node4" class="node"><title>Node4</title>
<g id="a_node4"><a xlink:href="../../da/d8a/classoperational_1_1iterator_1_1_list_iterator.html#a7aabc4cc183b3c49e6e135514f271c0e" target="_top" xlink:title="operational::iterator\l::ListIterator::IsDone">
<polygon fill="white" stroke="black" points="294.5,-98.5 294.5,-128.5 398.5,-128.5 398.5,-98.5 294.5,-98.5"/>
<text text-anchor="start" x="302.5" y="-116.5" font-family="Helvetica,sans-Serif" font-size="10.00">operational::iterator</text>
<text text-anchor="middle" x="346.5" y="-105.5" font-family="Helvetica,sans-Serif" font-size="10.00">::ListIterator::IsDone</text>
</a>
</g>
</g>
<!-- Node2&#45;&gt;Node4 -->
<g id="edge3" class="edge"><title>Node2&#45;&gt;Node4</title>
<path fill="none" stroke="midnightblue" d="M248.288,-97.2438C259.931,-99.1909 272.377,-101.272 284.341,-103.273"/>
<polygon fill="midnightblue" stroke="midnightblue" points="283.81,-106.732 294.25,-104.93 284.964,-99.8283 283.81,-106.732"/>
</g>
<!-- Node5 -->
<g id="node5" class="node"><title>Node5</title>
<g id="a_node5"><a xlink:href="../../da/d8a/classoperational_1_1iterator_1_1_list_iterator.html#a375f2f3451b40f2d7477d03e4f5c9676" target="_top" xlink:title="operational::iterator\l::ListIterator::Next">
<polygon fill="white" stroke="black" points="296.5,-49.5 296.5,-79.5 396.5,-79.5 396.5,-49.5 296.5,-49.5"/>
<text text-anchor="start" x="304.5" y="-67.5" font-family="Helvetica,sans-Serif" font-size="10.00">operational::iterator</text>
<text text-anchor="middle" x="346.5" y="-56.5" font-family="Helvetica,sans-Serif" font-size="10.00">::ListIterator::Next</text>
</a>
</g>
</g>
<!-- Node2&#45;&gt;Node5 -->
<g id="edge4" class="edge"><title>Node2&#45;&gt;Node5</title>
<path fill="none" stroke="midnightblue" d="M248.288,-80.106C260.513,-78.1434 273.622,-76.039 286.13,-74.031"/>
<polygon fill="midnightblue" stroke="midnightblue" points="286.685,-77.4867 296.004,-72.4458 285.576,-70.5752 286.685,-77.4867"/>
</g>
<!-- Node6 -->
<g id="node6" class="node"><title>Node6</title>
<g id="a_node6"><a xlink:href="../../da/d8a/classoperational_1_1iterator_1_1_list_iterator.html#abb9ec87938406dd6f4c77bae016e8a8a" target="_top" xlink:title="operational::iterator\l::ListIterator::CurrentItem">
<polygon fill="white" stroke="black" points="284,-0.5 284,-30.5 409,-30.5 409,-0.5 284,-0.5"/>
<text text-anchor="start" x="292" y="-18.5" font-family="Helvetica,sans-Serif" font-size="10.00">operational::iterator</text>
<text text-anchor="middle" x="346.5" y="-7.5" font-family="Helvetica,sans-Serif" font-size="10.00">::ListIterator::CurrentItem</text>
</a>
</g>
</g>
<!-- Node2&#45;&gt;Node6 -->
<g id="edge5" class="edge"><title>Node2&#45;&gt;Node6</title>
<path fill="none" stroke="midnightblue" d="M221.783,-73.4307C239.115,-63.5525 262.614,-50.6393 284,-40.5 288.267,-38.4771 292.743,-36.4615 297.252,-34.5025"/>
<polygon fill="midnightblue" stroke="midnightblue" points="298.661,-37.7067 306.498,-30.5769 295.925,-31.2634 298.661,-37.7067"/>
</g>
</g>
</svg>
