<?xml version="1.0" encoding="UTF-8" standalone="no"?>
<!DOCTYPE svg PUBLIC "-//W3C//DTD SVG 1.1//EN"
 "http://www.w3.org/Graphics/SVG/1.1/DTD/svg11.dtd">
<!-- Generated by graphviz version 2.38.0 (20140413.2041)
 -->
<!-- Title: operational::madiator::MediatorButton::HandleMouse Pages: 1 -->
<svg width="489pt" height="50pt"
 viewBox="0.00 0.00 489.00 50.00" xmlns="http://www.w3.org/2000/svg" xmlns:xlink="http://www.w3.org/1999/xlink">
<g id="graph0" class="graph" transform="scale(1 1) rotate(0) translate(4 46)">
<title>operational::madiator::MediatorButton::HandleMouse</title>
<polygon fill="white" stroke="none" points="-4,4 -4,-46 485,-46 485,4 -4,4"/>
<!-- Node1 -->
<g id="node1" class="node"><title>Node1</title>
<polygon fill="#bfbfbf" stroke="black" points="0,-6 0,-36 154,-36 154,-6 0,-6"/>
<text text-anchor="start" x="8" y="-24" font-family="Helvetica,sans-Serif" font-size="10.00">operational::madiator</text>
<text text-anchor="middle" x="77" y="-13" font-family="Helvetica,sans-Serif" font-size="10.00">::MediatorButton::HandleMouse</text>
</g>
<!-- Node2 -->
<g id="node2" class="node"><title>Node2</title>
<g id="a_node2"><a xlink:href="../../da/dd3/classoperational_1_1madiator_1_1_mediator_widget.html#a42d6d627d18ba26a9c47c911bdd191a0" target="_top" xlink:title="operational::madiator\l::MediatorWidget::Changed">
<polygon fill="white" stroke="black" points="190,-6 190,-36 325,-36 325,-6 190,-6"/>
<text text-anchor="start" x="198" y="-24" font-family="Helvetica,sans-Serif" font-size="10.00">operational::madiator</text>
<text text-anchor="middle" x="257.5" y="-13" font-family="Helvetica,sans-Serif" font-size="10.00">::MediatorWidget::Changed</text>
</a>
</g>
</g>
<!-- Node1&#45;&gt;Node2 -->
<g id="edge1" class="edge"><title>Node1&#45;&gt;Node2</title>
<path fill="none" stroke="midnightblue" d="M154.218,-21C162.639,-21 171.218,-21 179.646,-21"/>
<polygon fill="midnightblue" stroke="midnightblue" points="179.832,-24.5001 189.832,-21 179.832,-17.5001 179.832,-24.5001"/>
</g>
<!-- Node3 -->
<g id="node3" class="node"><title>Node3</title>
<g id="a_node3"><a xlink:href="../../d3/d99/classoperational_1_1madiator_1_1_dialog_director_interface.html#a1f0513461bfd6be0164e040d9156b81b" target="_top" xlink:title="operational::madiator\l::DialogDirectorInterface\l::WidgetChanged">
<polygon fill="white" stroke="black" points="361,-0.5 361,-41.5 481,-41.5 481,-0.5 361,-0.5"/>
<text text-anchor="start" x="369" y="-29.5" font-family="Helvetica,sans-Serif" font-size="10.00">operational::madiator</text>
<text text-anchor="start" x="369" y="-18.5" font-family="Helvetica,sans-Serif" font-size="10.00">::DialogDirectorInterface</text>
<text text-anchor="middle" x="421" y="-7.5" font-family="Helvetica,sans-Serif" font-size="10.00">::WidgetChanged</text>
</a>
</g>
</g>
<!-- Node2&#45;&gt;Node3 -->
<g id="edge2" class="edge"><title>Node2&#45;&gt;Node3</title>
<path fill="none" stroke="midnightblue" d="M325.121,-21C333.522,-21 342.133,-21 350.576,-21"/>
<polygon fill="midnightblue" stroke="midnightblue" points="350.766,-24.5001 360.766,-21 350.766,-17.5001 350.766,-24.5001"/>
</g>
</g>
</svg>
