<?xml version="1.0" encoding="UTF-8" standalone="no"?>
<!DOCTYPE svg PUBLIC "-//W3C//DTD SVG 1.1//EN"
 "http://www.w3.org/Graphics/SVG/1.1/DTD/svg11.dtd">
<!-- Generated by graphviz version 2.38.0 (20140413.2041)
 -->
<!-- Title: src/operational/src/observer/clock_tick.h Pages: 1 -->
<svg width="682pt" height="262pt"
 viewBox="0.00 0.00 682.00 262.00" xmlns="http://www.w3.org/2000/svg" xmlns:xlink="http://www.w3.org/1999/xlink">
<g id="graph0" class="graph" transform="scale(1 1) rotate(0) translate(4 258)">
<title>src/operational/src/observer/clock_tick.h</title>
<polygon fill="white" stroke="none" points="-4,4 -4,-258 678,-258 678,4 -4,4"/>
<!-- Node1 -->
<g id="node1" class="node"><title>Node1</title>
<polygon fill="#bfbfbf" stroke="black" points="354,-223.5 354,-253.5 465,-253.5 465,-223.5 354,-223.5"/>
<text text-anchor="start" x="362" y="-241.5" font-family="Helvetica,sans-Serif" font-size="10.00">src/operational/src</text>
<text text-anchor="middle" x="409.5" y="-230.5" font-family="Helvetica,sans-Serif" font-size="10.00">/observer/clock_tick.h</text>
</g>
<!-- Node2 -->
<g id="node2" class="node"><title>Node2</title>
<g id="a_node2"><a xlink:href="../../d7/d97/clock__timer_8h.html" target="_top" xlink:title="src/operational/src\l/observer/clock_timer.h">
<polygon fill="white" stroke="black" points="287,-156.5 287,-186.5 404,-186.5 404,-156.5 287,-156.5"/>
<text text-anchor="start" x="295" y="-174.5" font-family="Helvetica,sans-Serif" font-size="10.00">src/operational/src</text>
<text text-anchor="middle" x="345.5" y="-163.5" font-family="Helvetica,sans-Serif" font-size="10.00">/observer/clock_timer.h</text>
</a>
</g>
</g>
<!-- Node1&#45;&gt;Node2 -->
<g id="edge1" class="edge"><title>Node1&#45;&gt;Node2</title>
<path fill="none" stroke="midnightblue" d="M388.355,-216.024C378.819,-206.34 367.825,-195.174 359.36,-186.577"/>
<polygon fill="midnightblue" stroke="midnightblue" points="386.103,-218.726 395.613,-223.396 391.091,-213.815 386.103,-218.726"/>
</g>
<!-- Node11 -->
<g id="node11" class="node"><title>Node11</title>
<g id="a_node11"><a xlink:href="../../d5/dd3/subject_8cc.html" target="_top" xlink:title="src/operational/src\l/observer/subject.cc">
<polygon fill="white" stroke="black" points="422.5,-156.5 422.5,-186.5 526.5,-186.5 526.5,-156.5 422.5,-156.5"/>
<text text-anchor="start" x="430.5" y="-174.5" font-family="Helvetica,sans-Serif" font-size="10.00">src/operational/src</text>
<text text-anchor="middle" x="474.5" y="-163.5" font-family="Helvetica,sans-Serif" font-size="10.00">/observer/subject.cc</text>
</a>
</g>
</g>
<!-- Node1&#45;&gt;Node11 -->
<g id="edge11" class="edge"><title>Node1&#45;&gt;Node11</title>
<path fill="none" stroke="midnightblue" d="M430.689,-216.311C440.439,-206.561 451.741,-195.259 460.423,-186.577"/>
<polygon fill="midnightblue" stroke="midnightblue" points="428.2,-213.85 423.604,-223.396 433.15,-218.8 428.2,-213.85"/>
</g>
<!-- Node3 -->
<g id="node3" class="node"><title>Node3</title>
<g id="a_node3"><a xlink:href="../../d7/d55/analog__clock_8h.html" target="_top" xlink:title="src/operational/src\l/observer/analog_clock.h">
<polygon fill="white" stroke="black" points="2.5,-84 2.5,-114 126.5,-114 126.5,-84 2.5,-84"/>
<text text-anchor="start" x="10.5" y="-102" font-family="Helvetica,sans-Serif" font-size="10.00">src/operational/src</text>
<text text-anchor="middle" x="64.5" y="-91" font-family="Helvetica,sans-Serif" font-size="10.00">/observer/analog_clock.h</text>
</a>
</g>
</g>
<!-- Node2&#45;&gt;Node3 -->
<g id="edge2" class="edge"><title>Node2&#45;&gt;Node3</title>
<path fill="none" stroke="midnightblue" d="M277.047,-154.743C235.918,-145.1 182.594,-132.291 135.5,-120 128.313,-118.124 120.738,-116.072 113.32,-114.019"/>
<polygon fill="midnightblue" stroke="midnightblue" points="276.428,-158.192 286.962,-157.061 278.022,-151.376 276.428,-158.192"/>
</g>
<!-- Node6 -->
<g id="node6" class="node"><title>Node6</title>
<g id="a_node6"><a xlink:href="../../da/d4d/clock__timer_8cc.html" target="_top" xlink:title="src/operational/src\l/observer/clock_timer.cc">
<polygon fill="white" stroke="black" points="144.5,-84 144.5,-114 266.5,-114 266.5,-84 144.5,-84"/>
<text text-anchor="start" x="152.5" y="-102" font-family="Helvetica,sans-Serif" font-size="10.00">src/operational/src</text>
<text text-anchor="middle" x="205.5" y="-91" font-family="Helvetica,sans-Serif" font-size="10.00">/observer/clock_timer.cc</text>
</a>
</g>
</g>
<!-- Node2&#45;&gt;Node6 -->
<g id="edge5" class="edge"><title>Node2&#45;&gt;Node6</title>
<path fill="none" stroke="midnightblue" d="M308.51,-151.873C284.978,-140.023 254.99,-124.922 233.446,-114.073"/>
<polygon fill="midnightblue" stroke="midnightblue" points="307,-155.031 317.505,-156.403 310.148,-148.779 307,-155.031"/>
</g>
<!-- Node7 -->
<g id="node7" class="node"><title>Node7</title>
<g id="a_node7"><a xlink:href="../../d7/dee/digital__clock_8h.html" target="_top" xlink:title="src/operational/src\l/observer/digital_clock.h">
<polygon fill="white" stroke="black" points="285,-84 285,-114 406,-114 406,-84 285,-84"/>
<text text-anchor="start" x="293" y="-102" font-family="Helvetica,sans-Serif" font-size="10.00">src/operational/src</text>
<text text-anchor="middle" x="345.5" y="-91" font-family="Helvetica,sans-Serif" font-size="10.00">/observer/digital_clock.h</text>
</a>
</g>
</g>
<!-- Node2&#45;&gt;Node7 -->
<g id="edge6" class="edge"><title>Node2&#45;&gt;Node7</title>
<path fill="none" stroke="midnightblue" d="M345.5,-146.232C345.5,-135.568 345.5,-123.414 345.5,-114.246"/>
<polygon fill="midnightblue" stroke="midnightblue" points="342,-146.233 345.5,-156.233 349,-146.233 342,-146.233"/>
</g>
<!-- Node9 -->
<g id="node9" class="node"><title>Node9</title>
<g id="a_node9"><a xlink:href="../../d9/d6d/iterator__test_8cc.html" target="_top" xlink:title="src/operational_tests\l/src/iterator/iterator\l_test.cc">
<polygon fill="white" stroke="black" points="424,-78.5 424,-119.5 531,-119.5 531,-78.5 424,-78.5"/>
<text text-anchor="start" x="432" y="-107.5" font-family="Helvetica,sans-Serif" font-size="10.00">src/operational_tests</text>
<text text-anchor="start" x="432" y="-96.5" font-family="Helvetica,sans-Serif" font-size="10.00">/src/iterator/iterator</text>
<text text-anchor="middle" x="477.5" y="-85.5" font-family="Helvetica,sans-Serif" font-size="10.00">_test.cc</text>
</a>
</g>
</g>
<!-- Node2&#45;&gt;Node9 -->
<g id="edge9" class="edge"><title>Node2&#45;&gt;Node9</title>
<path fill="none" stroke="midnightblue" d="M380.908,-151.589C399.467,-141.677 422.171,-129.551 440.903,-119.546"/>
<polygon fill="midnightblue" stroke="midnightblue" points="379.067,-148.604 371.895,-156.403 382.365,-154.779 379.067,-148.604"/>
</g>
<!-- Node10 -->
<g id="node10" class="node"><title>Node10</title>
<g id="a_node10"><a xlink:href="../../df/d15/clock__timer__test_8cc.html" target="_top" xlink:title="src/operational_tests\l/src/observer/clock_timer\l_test.cc">
<polygon fill="white" stroke="black" points="549,-78.5 549,-119.5 674,-119.5 674,-78.5 549,-78.5"/>
<text text-anchor="start" x="557" y="-107.5" font-family="Helvetica,sans-Serif" font-size="10.00">src/operational_tests</text>
<text text-anchor="start" x="557" y="-96.5" font-family="Helvetica,sans-Serif" font-size="10.00">/src/observer/clock_timer</text>
<text text-anchor="middle" x="611.5" y="-85.5" font-family="Helvetica,sans-Serif" font-size="10.00">_test.cc</text>
</a>
</g>
</g>
<!-- Node2&#45;&gt;Node10 -->
<g id="edge10" class="edge"><title>Node2&#45;&gt;Node10</title>
<path fill="none" stroke="midnightblue" d="M410.949,-153.919C448.844,-144.226 497.424,-131.644 540.5,-120 543.22,-119.265 545.996,-118.508 548.8,-117.74"/>
<polygon fill="midnightblue" stroke="midnightblue" points="409.88,-150.579 401.057,-156.445 411.613,-157.361 409.88,-150.579"/>
</g>
<!-- Node4 -->
<g id="node4" class="node"><title>Node4</title>
<g id="a_node4"><a xlink:href="../../dc/dcb/analog__clock_8cc.html" target="_top" xlink:title="src/operational/src\l/observer/analog_clock.cc">
<polygon fill="white" stroke="black" points="0,-6 0,-36 129,-36 129,-6 0,-6"/>
<text text-anchor="start" x="8" y="-24" font-family="Helvetica,sans-Serif" font-size="10.00">src/operational/src</text>
<text text-anchor="middle" x="64.5" y="-13" font-family="Helvetica,sans-Serif" font-size="10.00">/observer/analog_clock.cc</text>
</a>
</g>
</g>
<!-- Node3&#45;&gt;Node4 -->
<g id="edge3" class="edge"><title>Node3&#45;&gt;Node4</title>
<path fill="none" stroke="midnightblue" d="M64.5,-73.5898C64.5,-61.2565 64.5,-46.7237 64.5,-36.2309"/>
<polygon fill="midnightblue" stroke="midnightblue" points="61.0001,-73.7049 64.5,-83.705 68.0001,-73.705 61.0001,-73.7049"/>
</g>
<!-- Node5 -->
<g id="node5" class="node"><title>Node5</title>
<g id="a_node5"><a xlink:href="../../d6/d34/observer__test_8cc.html" target="_top" xlink:title="src/operational_tests\l/src/observer/observer\l_test.cc">
<polygon fill="white" stroke="black" points="150,-0.5 150,-41.5 261,-41.5 261,-0.5 150,-0.5"/>
<text text-anchor="start" x="158" y="-29.5" font-family="Helvetica,sans-Serif" font-size="10.00">src/operational_tests</text>
<text text-anchor="start" x="158" y="-18.5" font-family="Helvetica,sans-Serif" font-size="10.00">/src/observer/observer</text>
<text text-anchor="middle" x="205.5" y="-7.5" font-family="Helvetica,sans-Serif" font-size="10.00">_test.cc</text>
</a>
</g>
</g>
<!-- Node3&#45;&gt;Node5 -->
<g id="edge4" class="edge"><title>Node3&#45;&gt;Node5</title>
<path fill="none" stroke="midnightblue" d="M99.6707,-79.0428C120.828,-67.639 147.709,-53.1497 169.085,-41.6279"/>
<polygon fill="midnightblue" stroke="midnightblue" points="97.8326,-76.0574 90.6906,-83.8831 101.154,-82.2193 97.8326,-76.0574"/>
</g>
<!-- Node7&#45;&gt;Node5 -->
<g id="edge8" class="edge"><title>Node7&#45;&gt;Node5</title>
<path fill="none" stroke="midnightblue" d="M310.579,-79.0428C289.572,-67.639 262.881,-53.1497 241.657,-41.6279"/>
<polygon fill="midnightblue" stroke="midnightblue" points="309.037,-82.1881 319.495,-83.8831 312.376,-76.0361 309.037,-82.1881"/>
</g>
<!-- Node8 -->
<g id="node8" class="node"><title>Node8</title>
<g id="a_node8"><a xlink:href="../../d6/db3/digital__clock_8cc.html" target="_top" xlink:title="src/operational/src\l/observer/digital_clock.cc">
<polygon fill="white" stroke="black" points="282.5,-6 282.5,-36 408.5,-36 408.5,-6 282.5,-6"/>
<text text-anchor="start" x="290.5" y="-24" font-family="Helvetica,sans-Serif" font-size="10.00">src/operational/src</text>
<text text-anchor="middle" x="345.5" y="-13" font-family="Helvetica,sans-Serif" font-size="10.00">/observer/digital_clock.cc</text>
</a>
</g>
</g>
<!-- Node7&#45;&gt;Node8 -->
<g id="edge7" class="edge"><title>Node7&#45;&gt;Node8</title>
<path fill="none" stroke="midnightblue" d="M345.5,-73.5898C345.5,-61.2565 345.5,-46.7237 345.5,-36.2309"/>
<polygon fill="midnightblue" stroke="midnightblue" points="342,-73.7049 345.5,-83.705 349,-73.705 342,-73.7049"/>
</g>
</g>
</svg>
