<?xml version="1.0" encoding="UTF-8" standalone="no"?>
<!DOCTYPE svg PUBLIC "-//W3C//DTD SVG 1.1//EN"
 "http://www.w3.org/Graphics/SVG/1.1/DTD/svg11.dtd">
<!-- Generated by graphviz version 2.38.0 (20140413.2041)
 -->
<!-- Title: structural::adapter::TextView Pages: 1 -->
<svg width="159pt" height="325pt"
 viewBox="0.00 0.00 159.00 325.00" xmlns="http://www.w3.org/2000/svg" xmlns:xlink="http://www.w3.org/1999/xlink">
<g id="graph0" class="graph" transform="scale(1 1) rotate(0) translate(4 321)">
<title>structural::adapter::TextView</title>
<polygon fill="white" stroke="none" points="-4,4 -4,-321 155,-321 155,4 -4,4"/>
<!-- Node1 -->
<g id="node1" class="node"><title>Node1</title>
<polygon fill="#bfbfbf" stroke="black" points="28,-0.5 28,-189.5 123,-189.5 123,-0.5 28,-0.5"/>
<text text-anchor="start" x="36" y="-177.5" font-family="Helvetica,sans-Serif" font-size="10.00">structural::adapter</text>
<text text-anchor="middle" x="75.5" y="-166.5" font-family="Helvetica,sans-Serif" font-size="10.00">::TextView</text>
<polyline fill="none" stroke="black" points="28,-159.5 123,-159.5 "/>
<text text-anchor="middle" x="75.5" y="-147.5" font-family="Helvetica,sans-Serif" font-size="10.00"> </text>
<polyline fill="none" stroke="black" points="28,-140.5 123,-140.5 "/>
<text text-anchor="start" x="36" y="-128.5" font-family="Helvetica,sans-Serif" font-size="10.00">+ TextView()</text>
<text text-anchor="start" x="36" y="-117.5" font-family="Helvetica,sans-Serif" font-size="10.00">+ TextView()</text>
<text text-anchor="start" x="36" y="-106.5" font-family="Helvetica,sans-Serif" font-size="10.00">+ ~TextView()</text>
<text text-anchor="start" x="36" y="-95.5" font-family="Helvetica,sans-Serif" font-size="10.00">+ Draw()</text>
<text text-anchor="start" x="36" y="-84.5" font-family="Helvetica,sans-Serif" font-size="10.00">+ Resize()</text>
<text text-anchor="start" x="36" y="-73.5" font-family="Helvetica,sans-Serif" font-size="10.00">+ GetOrigin()</text>
<text text-anchor="start" x="36" y="-62.5" font-family="Helvetica,sans-Serif" font-size="10.00">+ SetOrigin()</text>
<text text-anchor="start" x="36" y="-51.5" font-family="Helvetica,sans-Serif" font-size="10.00">+ GetExtent()</text>
<text text-anchor="start" x="36" y="-40.5" font-family="Helvetica,sans-Serif" font-size="10.00">+ SetExtent()</text>
<text text-anchor="start" x="36" y="-29.5" font-family="Helvetica,sans-Serif" font-size="10.00">+ IsEmpty()</text>
<text text-anchor="start" x="36" y="-18.5" font-family="Helvetica,sans-Serif" font-size="10.00">+ content()</text>
<text text-anchor="start" x="36" y="-7.5" font-family="Helvetica,sans-Serif" font-size="10.00">+ content()</text>
</g>
<!-- Node2 -->
<g id="node2" class="node"><title>Node2</title>
<g id="a_node2"><a xlink:href="../../da/d96/classstructural_1_1adapter_1_1_visual_component_interface.html" target="_top" xlink:title="{structural::adapter\l::VisualComponentInterface\n||+ ~VisualComponentInterface()\l+ Draw()\l+ Resize()\l}">
<polygon fill="white" stroke="black" points="0,-226.5 0,-316.5 151,-316.5 151,-226.5 0,-226.5"/>
<text text-anchor="start" x="8" y="-304.5" font-family="Helvetica,sans-Serif" font-size="10.00">structural::adapter</text>
<text text-anchor="middle" x="75.5" y="-293.5" font-family="Helvetica,sans-Serif" font-size="10.00">::VisualComponentInterface</text>
<polyline fill="none" stroke="black" points="0,-286.5 151,-286.5 "/>
<text text-anchor="middle" x="75.5" y="-274.5" font-family="Helvetica,sans-Serif" font-size="10.00"> </text>
<polyline fill="none" stroke="black" points="0,-267.5 151,-267.5 "/>
<text text-anchor="start" x="8" y="-255.5" font-family="Helvetica,sans-Serif" font-size="10.00">+ ~VisualComponentInterface()</text>
<text text-anchor="start" x="8" y="-244.5" font-family="Helvetica,sans-Serif" font-size="10.00">+ Draw()</text>
<text text-anchor="start" x="8" y="-233.5" font-family="Helvetica,sans-Serif" font-size="10.00">+ Resize()</text>
</a>
</g>
</g>
<!-- Node2&#45;&gt;Node1 -->
<g id="edge1" class="edge"><title>Node2&#45;&gt;Node1</title>
<path fill="none" stroke="midnightblue" d="M75.5,-216.362C75.5,-207.856 75.5,-198.857 75.5,-189.763"/>
<polygon fill="none" stroke="midnightblue" points="72.0001,-216.466 75.5,-226.466 79.0001,-216.466 72.0001,-216.466"/>
</g>
</g>
</svg>
