<?xml version="1.0" encoding="UTF-8" standalone="no"?>
<!DOCTYPE svg PUBLIC "-//W3C//DTD SVG 1.1//EN"
 "http://www.w3.org/Graphics/SVG/1.1/DTD/svg11.dtd">
<!-- Generated by graphviz version 2.38.0 (20140413.2041)
 -->
<!-- Title: src/structural/src/facade/code_generator_interface.h Pages: 1 -->
<svg width="447pt" height="162pt"
 viewBox="0.00 0.00 446.50 162.00" xmlns="http://www.w3.org/2000/svg" xmlns:xlink="http://www.w3.org/1999/xlink">
<g id="graph0" class="graph" transform="scale(1 1) rotate(0) translate(4 158)">
<title>src/structural/src/facade/code_generator_interface.h</title>
<polygon fill="white" stroke="none" points="-4,4 -4,-158 442.5,-158 442.5,4 -4,4"/>
<!-- Node1 -->
<g id="node1" class="node"><title>Node1</title>
<polygon fill="#bfbfbf" stroke="black" points="168,-112.5 168,-153.5 286,-153.5 286,-112.5 168,-112.5"/>
<text text-anchor="start" x="176" y="-141.5" font-family="Helvetica,sans-Serif" font-size="10.00">src/structural/src</text>
<text text-anchor="start" x="176" y="-130.5" font-family="Helvetica,sans-Serif" font-size="10.00">/facade/code_generator</text>
<text text-anchor="middle" x="227" y="-119.5" font-family="Helvetica,sans-Serif" font-size="10.00">_interface.h</text>
</g>
<!-- Node2 -->
<g id="node2" class="node"><title>Node2</title>
<g id="a_node2"><a xlink:href="../../d9/d24/expression__node__interface_8h.html" target="_top" xlink:title="expression_node_interface.h">
<polygon fill="white" stroke="black" points="0,-56.5 0,-75.5 140,-75.5 140,-56.5 0,-56.5"/>
<text text-anchor="middle" x="70" y="-63.5" font-family="Helvetica,sans-Serif" font-size="10.00">expression_node_interface.h</text>
</a>
</g>
</g>
<!-- Node1&#45;&gt;Node2 -->
<g id="edge1" class="edge"><title>Node1&#45;&gt;Node2</title>
<path fill="none" stroke="midnightblue" d="M179.895,-112.498C154.088,-101.813 122.861,-88.8851 100.3,-79.5446"/>
<polygon fill="midnightblue" stroke="midnightblue" points="101.477,-76.244 90.8991,-75.6525 98.7997,-82.7116 101.477,-76.244"/>
</g>
<!-- Node4 -->
<g id="node4" class="node"><title>Node4</title>
<g id="a_node4"><a xlink:href="../../dd/d4b/statement__node__interface_8h.html" target="_top" xlink:title="statement_node_interface.h">
<polygon fill="white" stroke="black" points="158.5,-56.5 158.5,-75.5 295.5,-75.5 295.5,-56.5 158.5,-56.5"/>
<text text-anchor="middle" x="227" y="-63.5" font-family="Helvetica,sans-Serif" font-size="10.00">statement_node_interface.h</text>
</a>
</g>
</g>
<!-- Node1&#45;&gt;Node4 -->
<g id="edge3" class="edge"><title>Node1&#45;&gt;Node4</title>
<path fill="none" stroke="midnightblue" d="M227,-112.498C227,-104.065 227,-94.2351 227,-85.874"/>
<polygon fill="midnightblue" stroke="midnightblue" points="230.5,-85.6525 227,-75.6525 223.5,-85.6525 230.5,-85.6525"/>
</g>
<!-- Node5 -->
<g id="node5" class="node"><title>Node5</title>
<g id="a_node5"><a xlink:href="../../df/d19/variable__node__interface_8h.html" target="_top" xlink:title="variable_node_interface.h">
<polygon fill="white" stroke="black" points="313.5,-56.5 313.5,-75.5 438.5,-75.5 438.5,-56.5 313.5,-56.5"/>
<text text-anchor="middle" x="376" y="-63.5" font-family="Helvetica,sans-Serif" font-size="10.00">variable_node_interface.h</text>
</a>
</g>
</g>
<!-- Node1&#45;&gt;Node5 -->
<g id="edge5" class="edge"><title>Node1&#45;&gt;Node5</title>
<path fill="none" stroke="midnightblue" d="M271.705,-112.498C296.087,-101.861 325.567,-89.001 346.955,-79.6705"/>
<polygon fill="midnightblue" stroke="midnightblue" points="348.4,-82.8591 356.166,-75.6525 345.601,-76.443 348.4,-82.8591"/>
</g>
<!-- Node3 -->
<g id="node3" class="node"><title>Node3</title>
<polygon fill="white" stroke="#bfbfbf" points="206.5,-0.5 206.5,-19.5 247.5,-19.5 247.5,-0.5 206.5,-0.5"/>
<text text-anchor="middle" x="227" y="-7.5" font-family="Helvetica,sans-Serif" font-size="10.00">string</text>
</g>
<!-- Node2&#45;&gt;Node3 -->
<g id="edge2" class="edge"><title>Node2&#45;&gt;Node3</title>
<path fill="none" stroke="midnightblue" d="M94.8771,-56.4435C122.412,-46.973 166.807,-31.7032 196.437,-21.512"/>
<polygon fill="midnightblue" stroke="midnightblue" points="197.932,-24.6991 206.25,-18.1368 195.656,-18.0797 197.932,-24.6991"/>
</g>
<!-- Node4&#45;&gt;Node3 -->
<g id="edge4" class="edge"><title>Node4&#45;&gt;Node3</title>
<path fill="none" stroke="midnightblue" d="M227,-56.083C227,-49.0059 227,-38.8611 227,-29.9865"/>
<polygon fill="midnightblue" stroke="midnightblue" points="230.5,-29.751 227,-19.7511 223.5,-29.7511 230.5,-29.751"/>
</g>
<!-- Node5&#45;&gt;Node3 -->
<g id="edge6" class="edge"><title>Node5&#45;&gt;Node3</title>
<path fill="none" stroke="midnightblue" d="M352.391,-56.4435C326.665,-47.1203 285.432,-32.1768 257.327,-21.9911"/>
<polygon fill="midnightblue" stroke="midnightblue" points="258.214,-18.5898 247.62,-18.473 255.829,-25.1709 258.214,-18.5898"/>
</g>
</g>
</svg>
