<?xml version="1.0" encoding="UTF-8" standalone="no"?>
<!DOCTYPE svg PUBLIC "-//W3C//DTD SVG 1.1//EN"
 "http://www.w3.org/Graphics/SVG/1.1/DTD/svg11.dtd">
<!-- Generated by graphviz version 2.38.0 (20140413.2041)
 -->
<!-- Title: structural::facade::ProgramNodeInterface::Add Pages: 1 -->
<svg width="564pt" height="50pt"
 viewBox="0.00 0.00 564.00 50.00" xmlns="http://www.w3.org/2000/svg" xmlns:xlink="http://www.w3.org/1999/xlink">
<g id="graph0" class="graph" transform="scale(1 1) rotate(0) translate(4 46)">
<title>structural::facade::ProgramNodeInterface::Add</title>
<polygon fill="white" stroke="none" points="-4,4 -4,-46 560,-46 560,4 -4,4"/>
<!-- Node1 -->
<g id="node1" class="node"><title>Node1</title>
<polygon fill="#bfbfbf" stroke="black" points="0,-6 0,-36 142,-36 142,-6 0,-6"/>
<text text-anchor="start" x="8" y="-24" font-family="Helvetica,sans-Serif" font-size="10.00">structural::facade</text>
<text text-anchor="middle" x="71" y="-13" font-family="Helvetica,sans-Serif" font-size="10.00">::ProgramNodeInterface::Add</text>
</g>
<!-- Node2 -->
<g id="node2" class="node"><title>Node2</title>
<g id="a_node2"><a xlink:href="../../d8/d7a/classstructural_1_1facade_1_1_program_node_builder.html#af425287aea91ec726c7c558869a97326" target="_top" xlink:title="structural::facade\l::ProgramNodeBuilder\l::NewVariable">
<polygon fill="white" stroke="black" points="178,-0.5 178,-41.5 290,-41.5 290,-0.5 178,-0.5"/>
<text text-anchor="start" x="186" y="-29.5" font-family="Helvetica,sans-Serif" font-size="10.00">structural::facade</text>
<text text-anchor="start" x="186" y="-18.5" font-family="Helvetica,sans-Serif" font-size="10.00">::ProgramNodeBuilder</text>
<text text-anchor="middle" x="234" y="-7.5" font-family="Helvetica,sans-Serif" font-size="10.00">::NewVariable</text>
</a>
</g>
</g>
<!-- Node1&#45;&gt;Node2 -->
<g id="edge1" class="edge"><title>Node1&#45;&gt;Node2</title>
<path fill="none" stroke="midnightblue" d="M152.207,-21C160.797,-21 169.392,-21 177.6,-21"/>
<polygon fill="midnightblue" stroke="midnightblue" points="152.149,-17.5001 142.149,-21 152.149,-24.5001 152.149,-17.5001"/>
</g>
<!-- Node3 -->
<g id="node3" class="node"><title>Node3</title>
<g id="a_node3"><a xlink:href="../../d7/d9c/classstructural_1_1facade_1_1_parser.html#aeecba45237f75b104989ebaf277c2208" target="_top" xlink:title="structural::facade\l::Parser::Parse">
<polygon fill="white" stroke="black" points="326,-6 326,-36 418,-36 418,-6 326,-6"/>
<text text-anchor="start" x="334" y="-24" font-family="Helvetica,sans-Serif" font-size="10.00">structural::facade</text>
<text text-anchor="middle" x="372" y="-13" font-family="Helvetica,sans-Serif" font-size="10.00">::Parser::Parse</text>
</a>
</g>
</g>
<!-- Node2&#45;&gt;Node3 -->
<g id="edge2" class="edge"><title>Node2&#45;&gt;Node3</title>
<path fill="none" stroke="midnightblue" d="M300.336,-21C308.922,-21 317.564,-21 325.714,-21"/>
<polygon fill="midnightblue" stroke="midnightblue" points="300.316,-17.5001 290.316,-21 300.316,-24.5001 300.316,-17.5001"/>
</g>
<!-- Node4 -->
<g id="node4" class="node"><title>Node4</title>
<g id="a_node4"><a xlink:href="../../df/d81/classstructural_1_1facade_1_1_compiler.html#a42e6928912f3931d3bf44917e4edd972" target="_top" xlink:title="structural::facade\l::Compiler::Compile">
<polygon fill="white" stroke="black" points="454,-6 454,-36 556,-36 556,-6 454,-6"/>
<text text-anchor="start" x="462" y="-24" font-family="Helvetica,sans-Serif" font-size="10.00">structural::facade</text>
<text text-anchor="middle" x="505" y="-13" font-family="Helvetica,sans-Serif" font-size="10.00">::Compiler::Compile</text>
</a>
</g>
</g>
<!-- Node3&#45;&gt;Node4 -->
<g id="edge3" class="edge"><title>Node3&#45;&gt;Node4</title>
<path fill="none" stroke="midnightblue" d="M428.291,-21C436.788,-21 445.52,-21 453.896,-21"/>
<polygon fill="midnightblue" stroke="midnightblue" points="428.083,-17.5001 418.083,-21 428.083,-24.5001 428.083,-17.5001"/>
</g>
</g>
</svg>
