<?xml version="1.0" encoding="UTF-8" standalone="no"?>
<!DOCTYPE svg PUBLIC "-//W3C//DTD SVG 1.1//EN"
 "http://www.w3.org/Graphics/SVG/1.1/DTD/svg11.dtd">
<!-- Generated by graphviz version 2.38.0 (20140413.2041)
 -->
<!-- Title: src/creational/src/builder/counting_maze_builder.h Pages: 1 -->
<svg width="284pt" height="128pt"
 viewBox="0.00 0.00 283.50 128.00" xmlns="http://www.w3.org/2000/svg" xmlns:xlink="http://www.w3.org/1999/xlink">
<g id="graph0" class="graph" transform="scale(1 1) rotate(0) translate(4 124)">
<title>src/creational/src/builder/counting_maze_builder.h</title>
<polygon fill="white" stroke="none" points="-4,4 -4,-124 279.5,-124 279.5,4 -4,4"/>
<!-- Node1 -->
<g id="node1" class="node"><title>Node1</title>
<polygon fill="#bfbfbf" stroke="black" points="73,-78.5 73,-119.5 190,-119.5 190,-78.5 73,-78.5"/>
<text text-anchor="start" x="81" y="-107.5" font-family="Helvetica,sans-Serif" font-size="10.00">src/creational/src</text>
<text text-anchor="start" x="81" y="-96.5" font-family="Helvetica,sans-Serif" font-size="10.00">/builder/counting_maze</text>
<text text-anchor="middle" x="131.5" y="-85.5" font-family="Helvetica,sans-Serif" font-size="10.00">_builder.h</text>
</g>
<!-- Node2 -->
<g id="node2" class="node"><title>Node2</title>
<g id="a_node2"><a xlink:href="../../d3/d4e/counting__maze__builder_8cc.html" target="_top" xlink:title="src/creational/src\l/builder/counting_maze\l_builder.cc">
<polygon fill="white" stroke="black" points="0,-0.5 0,-41.5 117,-41.5 117,-0.5 0,-0.5"/>
<text text-anchor="start" x="8" y="-29.5" font-family="Helvetica,sans-Serif" font-size="10.00">src/creational/src</text>
<text text-anchor="start" x="8" y="-18.5" font-family="Helvetica,sans-Serif" font-size="10.00">/builder/counting_maze</text>
<text text-anchor="middle" x="58.5" y="-7.5" font-family="Helvetica,sans-Serif" font-size="10.00">_builder.cc</text>
</a>
</g>
</g>
<!-- Node1&#45;&gt;Node2 -->
<g id="edge1" class="edge"><title>Node1&#45;&gt;Node2</title>
<path fill="none" stroke="midnightblue" d="M105.762,-71.204C96.3601,-61.416 85.9122,-50.5388 77.2356,-41.5056"/>
<polygon fill="midnightblue" stroke="midnightblue" points="103.249,-73.6407 112.701,-78.4281 108.298,-68.7915 103.249,-73.6407"/>
</g>
<!-- Node3 -->
<g id="node3" class="node"><title>Node3</title>
<g id="a_node3"><a xlink:href="../../d5/d51/maze__game__test_8cc.html" target="_top" xlink:title="src/creational_tests\l/src/mazegame/maze_game\l_test.cc">
<polygon fill="white" stroke="black" points="135.5,-0.5 135.5,-41.5 275.5,-41.5 275.5,-0.5 135.5,-0.5"/>
<text text-anchor="start" x="143.5" y="-29.5" font-family="Helvetica,sans-Serif" font-size="10.00">src/creational_tests</text>
<text text-anchor="start" x="143.5" y="-18.5" font-family="Helvetica,sans-Serif" font-size="10.00">/src/mazegame/maze_game</text>
<text text-anchor="middle" x="205.5" y="-7.5" font-family="Helvetica,sans-Serif" font-size="10.00">_test.cc</text>
</a>
</g>
</g>
<!-- Node1&#45;&gt;Node3 -->
<g id="edge2" class="edge"><title>Node1&#45;&gt;Node3</title>
<path fill="none" stroke="midnightblue" d="M157.591,-71.204C167.121,-61.416 177.712,-50.5388 186.508,-41.5056"/>
<polygon fill="midnightblue" stroke="midnightblue" points="155.025,-68.8217 150.557,-78.4281 160.041,-73.705 155.025,-68.8217"/>
</g>
</g>
</svg>
