<?xml version="1.0" encoding="UTF-8" standalone="no"?>
<!DOCTYPE svg PUBLIC "-//W3C//DTD SVG 1.1//EN"
 "http://www.w3.org/Graphics/SVG/1.1/DTD/svg11.dtd">
<!-- Generated by graphviz version 2.38.0 (20140413.2041)
 -->
<!-- Title: src/structural/src/bridge/icon_window.cc Pages: 1 -->
<svg width="259pt" height="319pt"
 viewBox="0.00 0.00 258.50 319.00" xmlns="http://www.w3.org/2000/svg" xmlns:xlink="http://www.w3.org/1999/xlink">
<g id="graph0" class="graph" transform="scale(1 1) rotate(0) translate(4 315)">
<title>src/structural/src/bridge/icon_window.cc</title>
<polygon fill="white" stroke="none" points="-4,4 -4,-315 254.5,-315 254.5,4 -4,4"/>
<!-- Node1 -->
<g id="node1" class="node"><title>Node1</title>
<polygon fill="#bfbfbf" stroke="black" points="131,-280.5 131,-310.5 248,-310.5 248,-280.5 131,-280.5"/>
<text text-anchor="start" x="139" y="-298.5" font-family="Helvetica,sans-Serif" font-size="10.00">src/structural/src</text>
<text text-anchor="middle" x="189.5" y="-287.5" font-family="Helvetica,sans-Serif" font-size="10.00">/bridge/icon_window.cc</text>
</g>
<!-- Node2 -->
<g id="node2" class="node"><title>Node2</title>
<g id="a_node2"><a xlink:href="../../dd/ddd/icon__window_8h.html" target="_top" xlink:title="icon_window.h">
<polygon fill="white" stroke="black" points="115.5,-224.5 115.5,-243.5 195.5,-243.5 195.5,-224.5 115.5,-224.5"/>
<text text-anchor="middle" x="155.5" y="-231.5" font-family="Helvetica,sans-Serif" font-size="10.00">icon_window.h</text>
</a>
</g>
</g>
<!-- Node1&#45;&gt;Node2 -->
<g id="edge1" class="edge"><title>Node1&#45;&gt;Node2</title>
<path fill="none" stroke="midnightblue" d="M181.442,-280.399C176.655,-272.021 170.544,-261.327 165.456,-252.423"/>
<polygon fill="midnightblue" stroke="midnightblue" points="168.448,-250.604 160.447,-243.658 162.37,-254.077 168.448,-250.604"/>
</g>
<!-- Node9 -->
<g id="node9" class="node"><title>Node9</title>
<g id="a_node9"><a xlink:href="../../da/dcb/bitmap_8h.html" target="_top" xlink:title="bitmap.h">
<polygon fill="white" stroke="black" points="196.5,-168.5 196.5,-187.5 250.5,-187.5 250.5,-168.5 196.5,-168.5"/>
<text text-anchor="middle" x="223.5" y="-175.5" font-family="Helvetica,sans-Serif" font-size="10.00">bitmap.h</text>
</a>
</g>
</g>
<!-- Node1&#45;&gt;Node9 -->
<g id="edge10" class="edge"><title>Node1&#45;&gt;Node9</title>
<path fill="none" stroke="midnightblue" d="M193.719,-280.356C196.734,-270.234 200.881,-256.282 204.5,-244 209.121,-228.317 214.328,-210.492 218.121,-197.48"/>
<polygon fill="midnightblue" stroke="midnightblue" points="221.494,-198.415 220.931,-187.835 214.774,-196.457 221.494,-198.415"/>
</g>
<!-- Node3 -->
<g id="node3" class="node"><title>Node3</title>
<g id="a_node3"><a xlink:href="../../db/d82/bridge_2window_8h.html" target="_top" xlink:title="window.h">
<polygon fill="white" stroke="black" points="122.5,-168.5 122.5,-187.5 178.5,-187.5 178.5,-168.5 122.5,-168.5"/>
<text text-anchor="middle" x="150.5" y="-175.5" font-family="Helvetica,sans-Serif" font-size="10.00">window.h</text>
</a>
</g>
</g>
<!-- Node2&#45;&gt;Node3 -->
<g id="edge2" class="edge"><title>Node2&#45;&gt;Node3</title>
<path fill="none" stroke="midnightblue" d="M154.674,-224.083C154.019,-217.006 153.08,-206.861 152.258,-197.986"/>
<polygon fill="midnightblue" stroke="midnightblue" points="155.717,-197.386 151.31,-187.751 148.747,-198.031 155.717,-197.386"/>
</g>
<!-- Node2&#45;&gt;Node9 -->
<g id="edge8" class="edge"><title>Node2&#45;&gt;Node9</title>
<path fill="none" stroke="midnightblue" d="M166.425,-224.324C176.675,-216.185 192.221,-203.839 204.501,-194.087"/>
<polygon fill="midnightblue" stroke="midnightblue" points="206.721,-196.794 212.376,-187.834 202.368,-191.312 206.721,-196.794"/>
</g>
<!-- Node4 -->
<g id="node4" class="node"><title>Node4</title>
<g id="a_node4"><a xlink:href="../../d5/d7d/window__interface_8h.html" target="_top" xlink:title="window_interface.h">
<polygon fill="white" stroke="black" points="1.5,-112.5 1.5,-131.5 99.5,-131.5 99.5,-112.5 1.5,-112.5"/>
<text text-anchor="middle" x="50.5" y="-119.5" font-family="Helvetica,sans-Serif" font-size="10.00">window_interface.h</text>
</a>
</g>
</g>
<!-- Node3&#45;&gt;Node4 -->
<g id="edge3" class="edge"><title>Node3&#45;&gt;Node4</title>
<path fill="none" stroke="midnightblue" d="M134.433,-168.324C118.542,-159.743 93.9926,-146.486 75.5415,-136.522"/>
<polygon fill="midnightblue" stroke="midnightblue" points="76.989,-133.326 66.5269,-131.655 73.6629,-139.486 76.989,-133.326"/>
</g>
<!-- Node7 -->
<g id="node7" class="node"><title>Node7</title>
<g id="a_node7"><a xlink:href="../../d5/d85/window__imp_8h.html" target="_top" xlink:title="window_imp.h">
<polygon fill="white" stroke="black" points="118,-112.5 118,-131.5 195,-131.5 195,-112.5 118,-112.5"/>
<text text-anchor="middle" x="156.5" y="-119.5" font-family="Helvetica,sans-Serif" font-size="10.00">window_imp.h</text>
</a>
</g>
</g>
<!-- Node3&#45;&gt;Node7 -->
<g id="edge6" class="edge"><title>Node3&#45;&gt;Node7</title>
<path fill="none" stroke="midnightblue" d="M151.491,-168.083C152.286,-160.927 153.429,-150.635 154.423,-141.691"/>
<polygon fill="midnightblue" stroke="midnightblue" points="157.902,-142.076 155.528,-131.751 150.945,-141.303 157.902,-142.076"/>
</g>
<!-- Node5 -->
<g id="node5" class="node"><title>Node5</title>
<g id="a_node5"><a xlink:href="../../d2/d91/point_8h.html" target="_top" xlink:title="../commons/point.h">
<polygon fill="white" stroke="black" points="0,-56.5 0,-75.5 101,-75.5 101,-56.5 0,-56.5"/>
<text text-anchor="middle" x="50.5" y="-63.5" font-family="Helvetica,sans-Serif" font-size="10.00">../commons/point.h</text>
</a>
</g>
</g>
<!-- Node4&#45;&gt;Node5 -->
<g id="edge4" class="edge"><title>Node4&#45;&gt;Node5</title>
<path fill="none" stroke="midnightblue" d="M50.5,-112.083C50.5,-105.006 50.5,-94.8611 50.5,-85.9865"/>
<polygon fill="midnightblue" stroke="midnightblue" points="54.0001,-85.751 50.5,-75.7511 47.0001,-85.7511 54.0001,-85.751"/>
</g>
<!-- Node6 -->
<g id="node6" class="node"><title>Node6</title>
<polygon fill="white" stroke="#bfbfbf" points="23.5,-0.5 23.5,-19.5 77.5,-19.5 77.5,-0.5 23.5,-0.5"/>
<text text-anchor="middle" x="50.5" y="-7.5" font-family="Helvetica,sans-Serif" font-size="10.00">iostream</text>
</g>
<!-- Node5&#45;&gt;Node6 -->
<g id="edge5" class="edge"><title>Node5&#45;&gt;Node6</title>
<path fill="none" stroke="midnightblue" d="M50.5,-56.083C50.5,-49.0059 50.5,-38.8611 50.5,-29.9865"/>
<polygon fill="midnightblue" stroke="midnightblue" points="54.0001,-29.751 50.5,-19.7511 47.0001,-29.7511 54.0001,-29.751"/>
</g>
<!-- Node8 -->
<g id="node8" class="node"><title>Node8</title>
<polygon fill="white" stroke="#bfbfbf" points="169,-56.5 169,-75.5 210,-75.5 210,-56.5 169,-56.5"/>
<text text-anchor="middle" x="189.5" y="-63.5" font-family="Helvetica,sans-Serif" font-size="10.00">string</text>
</g>
<!-- Node7&#45;&gt;Node8 -->
<g id="edge7" class="edge"><title>Node7&#45;&gt;Node8</title>
<path fill="none" stroke="midnightblue" d="M161.949,-112.083C166.514,-104.613 173.168,-93.7244 178.793,-84.5199"/>
<polygon fill="midnightblue" stroke="midnightblue" points="181.924,-86.109 184.152,-75.7511 175.951,-82.4588 181.924,-86.109"/>
</g>
<!-- Node9&#45;&gt;Node8 -->
<g id="edge9" class="edge"><title>Node9&#45;&gt;Node8</title>
<path fill="none" stroke="midnightblue" d="M220.791,-168.166C216.955,-155.659 209.712,-132.077 203.5,-112 200.776,-103.196 197.739,-93.4271 195.191,-85.2474"/>
<polygon fill="midnightblue" stroke="midnightblue" points="198.509,-84.1299 192.192,-75.6243 191.826,-86.2128 198.509,-84.1299"/>
</g>
</g>
</svg>
