<?xml version="1.0" encoding="UTF-8" standalone="no"?>
<!DOCTYPE svg PUBLIC "-//W3C//DTD SVG 1.1//EN"
 "http://www.w3.org/Graphics/SVG/1.1/DTD/svg11.dtd">
<!-- Generated by graphviz version 2.38.0 (20140413.2041)
 -->
<!-- Title: src/creational/src/mazegame/maze_game.cc Pages: 1 -->
<svg width="323pt" height="397pt"
 viewBox="0.00 0.00 323.00 397.00" xmlns="http://www.w3.org/2000/svg" xmlns:xlink="http://www.w3.org/1999/xlink">
<g id="graph0" class="graph" transform="scale(1 1) rotate(0) translate(4 393)">
<title>src/creational/src/mazegame/maze_game.cc</title>
<polygon fill="white" stroke="none" points="-4,4 -4,-393 319,-393 319,4 -4,4"/>
<!-- Node1 -->
<g id="node1" class="node"><title>Node1</title>
<polygon fill="#bfbfbf" stroke="black" points="106,-358.5 106,-388.5 243,-388.5 243,-358.5 106,-358.5"/>
<text text-anchor="start" x="114" y="-376.5" font-family="Helvetica,sans-Serif" font-size="10.00">src/creational/src</text>
<text text-anchor="middle" x="174.5" y="-365.5" font-family="Helvetica,sans-Serif" font-size="10.00">/mazegame/maze_game.cc</text>
</g>
<!-- Node2 -->
<g id="node2" class="node"><title>Node2</title>
<g id="a_node2"><a xlink:href="../../d2/df0/maze__game_8h.html" target="_top" xlink:title="maze_game.h">
<polygon fill="white" stroke="black" points="94.5,-302.5 94.5,-321.5 172.5,-321.5 172.5,-302.5 94.5,-302.5"/>
<text text-anchor="middle" x="133.5" y="-309.5" font-family="Helvetica,sans-Serif" font-size="10.00">maze_game.h</text>
</a>
</g>
</g>
<!-- Node1&#45;&gt;Node2 -->
<g id="edge1" class="edge"><title>Node1&#45;&gt;Node2</title>
<path fill="none" stroke="midnightblue" d="M164.784,-358.399C158.949,-349.932 151.484,-339.099 145.31,-330.139"/>
<polygon fill="midnightblue" stroke="midnightblue" points="148.022,-327.906 139.466,-321.658 142.258,-331.878 148.022,-327.906"/>
</g>
<!-- Node13 -->
<g id="node13" class="node"><title>Node13</title>
<polygon fill="white" stroke="#bfbfbf" points="190.5,-302.5 190.5,-321.5 242.5,-321.5 242.5,-302.5 190.5,-302.5"/>
<text text-anchor="middle" x="216.5" y="-309.5" font-family="Helvetica,sans-Serif" font-size="10.00">memory</text>
</g>
<!-- Node1&#45;&gt;Node13 -->
<g id="edge16" class="edge"><title>Node1&#45;&gt;Node13</title>
<path fill="none" stroke="midnightblue" d="M184.453,-358.399C190.494,-349.842 198.238,-338.871 204.601,-329.857"/>
<polygon fill="midnightblue" stroke="midnightblue" points="207.481,-331.846 210.389,-321.658 201.762,-327.809 207.481,-331.846"/>
</g>
<!-- Node3 -->
<g id="node3" class="node"><title>Node3</title>
<g id="a_node3"><a xlink:href="../../d6/d3b/maze__factory_8h.html" target="_top" xlink:title="../abstractfactory\l/maze_factory.h">
<polygon fill="white" stroke="black" points="133.5,-235.5 133.5,-265.5 223.5,-265.5 223.5,-235.5 133.5,-235.5"/>
<text text-anchor="start" x="141.5" y="-253.5" font-family="Helvetica,sans-Serif" font-size="10.00">../abstractfactory</text>
<text text-anchor="middle" x="178.5" y="-242.5" font-family="Helvetica,sans-Serif" font-size="10.00">/maze_factory.h</text>
</a>
</g>
</g>
<!-- Node2&#45;&gt;Node3 -->
<g id="edge2" class="edge"><title>Node2&#45;&gt;Node3</title>
<path fill="none" stroke="midnightblue" d="M139.947,-302.475C145.643,-294.944 154.203,-283.626 161.811,-273.566"/>
<polygon fill="midnightblue" stroke="midnightblue" points="164.654,-275.61 167.894,-265.523 159.071,-271.388 164.654,-275.61"/>
</g>
<!-- Node12 -->
<g id="node12" class="node"><title>Node12</title>
<g id="a_node12"><a xlink:href="../../d5/d18/maze__builder__interface_8h.html" target="_top" xlink:title="../builder/maze_builder\l_interface.h">
<polygon fill="white" stroke="black" points="0,-168.5 0,-198.5 115,-198.5 115,-168.5 0,-168.5"/>
<text text-anchor="start" x="8" y="-186.5" font-family="Helvetica,sans-Serif" font-size="10.00">../builder/maze_builder</text>
<text text-anchor="middle" x="57.5" y="-175.5" font-family="Helvetica,sans-Serif" font-size="10.00">_interface.h</text>
</a>
</g>
</g>
<!-- Node2&#45;&gt;Node12 -->
<g id="edge14" class="edge"><title>Node2&#45;&gt;Node12</title>
<path fill="none" stroke="midnightblue" d="M128.276,-302.305C116.706,-283.047 88.5931,-236.254 71.4845,-207.777"/>
<polygon fill="midnightblue" stroke="midnightblue" points="74.2943,-205.657 66.1442,-198.888 68.294,-209.262 74.2943,-205.657"/>
</g>
<!-- Node4 -->
<g id="node4" class="node"><title>Node4</title>
<g id="a_node4"><a xlink:href="../../de/d6d/maze__factory__interface_8h.html" target="_top" xlink:title="maze_factory_interface.h">
<polygon fill="white" stroke="black" points="133,-174 133,-193 258,-193 258,-174 133,-174"/>
<text text-anchor="middle" x="195.5" y="-181" font-family="Helvetica,sans-Serif" font-size="10.00">maze_factory_interface.h</text>
</a>
</g>
</g>
<!-- Node3&#45;&gt;Node4 -->
<g id="edge3" class="edge"><title>Node3&#45;&gt;Node4</title>
<path fill="none" stroke="midnightblue" d="M182.189,-235.396C184.656,-225.963 187.929,-213.448 190.612,-203.189"/>
<polygon fill="midnightblue" stroke="midnightblue" points="194.082,-203.755 193.226,-193.195 187.31,-201.984 194.082,-203.755"/>
</g>
<!-- Node5 -->
<g id="node5" class="node"><title>Node5</title>
<g id="a_node5"><a xlink:href="../../dc/db8/maze_8h.html" target="_top" xlink:title="../mazeparts/maze.h">
<polygon fill="white" stroke="black" points="12,-112.5 12,-131.5 119,-131.5 119,-112.5 12,-112.5"/>
<text text-anchor="middle" x="65.5" y="-119.5" font-family="Helvetica,sans-Serif" font-size="10.00">../mazeparts/maze.h</text>
</a>
</g>
</g>
<!-- Node4&#45;&gt;Node5 -->
<g id="edge4" class="edge"><title>Node4&#45;&gt;Node5</title>
<path fill="none" stroke="midnightblue" d="M176.874,-173.975C155.057,-163.99 118.696,-147.348 93.4828,-135.807"/>
<polygon fill="midnightblue" stroke="midnightblue" points="94.6408,-132.488 84.0913,-131.509 91.7275,-138.853 94.6408,-132.488"/>
</g>
<!-- Node10 -->
<g id="node10" class="node"><title>Node10</title>
<g id="a_node10"><a xlink:href="../../d1/d4f/wall_8h.html" target="_top" xlink:title="../mazeparts/wall.h">
<polygon fill="white" stroke="black" points="216,-56.5 216,-75.5 315,-75.5 315,-56.5 216,-56.5"/>
<text text-anchor="middle" x="265.5" y="-63.5" font-family="Helvetica,sans-Serif" font-size="10.00">../mazeparts/wall.h</text>
</a>
</g>
</g>
<!-- Node4&#45;&gt;Node10 -->
<g id="edge9" class="edge"><title>Node4&#45;&gt;Node10</title>
<path fill="none" stroke="midnightblue" d="M207.622,-173.829C219.487,-164.717 237.233,-149.321 247.5,-132 255.99,-117.678 260.602,-99.2134 263.024,-85.6263"/>
<polygon fill="midnightblue" stroke="midnightblue" points="266.512,-85.9758 264.581,-75.5583 259.594,-84.9058 266.512,-85.9758"/>
</g>
<!-- Node11 -->
<g id="node11" class="node"><title>Node11</title>
<g id="a_node11"><a xlink:href="../../d2/d59/door_8h.html" target="_top" xlink:title="../mazeparts/door.h">
<polygon fill="white" stroke="black" points="137,-112.5 137,-131.5 238,-131.5 238,-112.5 137,-112.5"/>
<text text-anchor="middle" x="187.5" y="-119.5" font-family="Helvetica,sans-Serif" font-size="10.00">../mazeparts/door.h</text>
</a>
</g>
</g>
<!-- Node4&#45;&gt;Node11 -->
<g id="edge11" class="edge"><title>Node4&#45;&gt;Node11</title>
<path fill="none" stroke="midnightblue" d="M194.354,-173.975C193.225,-165.58 191.464,-152.481 190.009,-141.663"/>
<polygon fill="midnightblue" stroke="midnightblue" points="193.445,-140.953 188.644,-131.509 186.508,-141.886 193.445,-140.953"/>
</g>
<!-- Node6 -->
<g id="node6" class="node"><title>Node6</title>
<g id="a_node6"><a xlink:href="../../d9/dc0/room_8h.html" target="_top" xlink:title="room.h">
<polygon fill="white" stroke="black" points="107,-56.5 107,-75.5 154,-75.5 154,-56.5 107,-56.5"/>
<text text-anchor="middle" x="130.5" y="-63.5" font-family="Helvetica,sans-Serif" font-size="10.00">room.h</text>
</a>
</g>
</g>
<!-- Node5&#45;&gt;Node6 -->
<g id="edge5" class="edge"><title>Node5&#45;&gt;Node6</title>
<path fill="none" stroke="midnightblue" d="M75.9434,-112.324C85.6462,-104.263 100.315,-92.0765 112,-82.3695"/>
<polygon fill="midnightblue" stroke="midnightblue" points="114.411,-84.9163 119.867,-75.8339 109.938,-79.532 114.411,-84.9163"/>
</g>
<!-- Node9 -->
<g id="node9" class="node"><title>Node9</title>
<polygon fill="white" stroke="#bfbfbf" points="48,-56.5 48,-75.5 83,-75.5 83,-56.5 48,-56.5"/>
<text text-anchor="middle" x="65.5" y="-63.5" font-family="Helvetica,sans-Serif" font-size="10.00">map</text>
</g>
<!-- Node5&#45;&gt;Node9 -->
<g id="edge8" class="edge"><title>Node5&#45;&gt;Node9</title>
<path fill="none" stroke="midnightblue" d="M65.5,-112.083C65.5,-105.006 65.5,-94.8611 65.5,-85.9865"/>
<polygon fill="midnightblue" stroke="midnightblue" points="69.0001,-85.751 65.5,-75.7511 62.0001,-85.7511 69.0001,-85.751"/>
</g>
<!-- Node7 -->
<g id="node7" class="node"><title>Node7</title>
<g id="a_node7"><a xlink:href="../../db/d1a/map__site__interface_8h.html" target="_top" xlink:title="map_site_interface.h">
<polygon fill="white" stroke="black" points="157,-0.5 157,-19.5 264,-19.5 264,-0.5 157,-0.5"/>
<text text-anchor="middle" x="210.5" y="-7.5" font-family="Helvetica,sans-Serif" font-size="10.00">map_site_interface.h</text>
</a>
</g>
</g>
<!-- Node6&#45;&gt;Node7 -->
<g id="edge6" class="edge"><title>Node6&#45;&gt;Node7</title>
<path fill="none" stroke="midnightblue" d="M143.353,-56.324C155.716,-47.979 174.63,-35.2122 189.237,-25.3524"/>
<polygon fill="midnightblue" stroke="midnightblue" points="191.348,-28.1503 197.679,-19.6545 187.432,-22.3483 191.348,-28.1503"/>
</g>
<!-- Node8 -->
<g id="node8" class="node"><title>Node8</title>
<g id="a_node8"><a xlink:href="../../dd/d04/direction_8h.html" target="_top" xlink:title="direction.h">
<polygon fill="white" stroke="black" points="76.5,-0.5 76.5,-19.5 138.5,-19.5 138.5,-0.5 76.5,-0.5"/>
<text text-anchor="middle" x="107.5" y="-7.5" font-family="Helvetica,sans-Serif" font-size="10.00">direction.h</text>
</a>
</g>
</g>
<!-- Node6&#45;&gt;Node8 -->
<g id="edge7" class="edge"><title>Node6&#45;&gt;Node8</title>
<path fill="none" stroke="midnightblue" d="M126.702,-56.083C123.587,-48.77 119.077,-38.1814 115.211,-29.1034"/>
<polygon fill="midnightblue" stroke="midnightblue" points="118.366,-27.5798 111.227,-19.7511 111.926,-30.3229 118.366,-27.5798"/>
</g>
<!-- Node10&#45;&gt;Node7 -->
<g id="edge10" class="edge"><title>Node10&#45;&gt;Node7</title>
<path fill="none" stroke="midnightblue" d="M256.418,-56.083C248.329,-48.1409 236.305,-36.3354 226.59,-26.7973"/>
<polygon fill="midnightblue" stroke="midnightblue" points="229.001,-24.2595 219.413,-19.7511 224.097,-29.2545 229.001,-24.2595"/>
</g>
<!-- Node11&#45;&gt;Node6 -->
<g id="edge13" class="edge"><title>Node11&#45;&gt;Node6</title>
<path fill="none" stroke="midnightblue" d="M178.342,-112.324C169.999,-104.42 157.468,-92.5482 147.323,-82.9377"/>
<polygon fill="midnightblue" stroke="midnightblue" points="149.491,-80.1705 139.825,-75.8339 144.677,-85.2522 149.491,-80.1705"/>
</g>
<!-- Node11&#45;&gt;Node7 -->
<g id="edge12" class="edge"><title>Node11&#45;&gt;Node7</title>
<path fill="none" stroke="midnightblue" d="M189.305,-112.368C193.016,-94.617 201.579,-53.6664 206.611,-29.5974"/>
<polygon fill="midnightblue" stroke="midnightblue" points="210.083,-30.0961 208.704,-19.5914 203.231,-28.6634 210.083,-30.0961"/>
</g>
<!-- Node12&#45;&gt;Node5 -->
<g id="edge15" class="edge"><title>Node12&#45;&gt;Node5</title>
<path fill="none" stroke="midnightblue" d="M59.3959,-168.399C60.4745,-160.377 61.8384,-150.233 63.0033,-141.569"/>
<polygon fill="midnightblue" stroke="midnightblue" points="66.4721,-142.035 64.3359,-131.658 59.5345,-141.102 66.4721,-142.035"/>
</g>
</g>
</svg>
