<?xml version="1.0" encoding="UTF-8" standalone="no"?>
<!DOCTYPE svg PUBLIC "-//W3C//DTD SVG 1.1//EN"
 "http://www.w3.org/Graphics/SVG/1.1/DTD/svg11.dtd">
<!-- Generated by graphviz version 2.38.0 (20140413.2041)
 -->
<!-- Title: src/operational/src/observer/subject.cc Pages: 1 -->
<svg width="371pt" height="263pt"
 viewBox="0.00 0.00 371.00 263.00" xmlns="http://www.w3.org/2000/svg" xmlns:xlink="http://www.w3.org/1999/xlink">
<g id="graph0" class="graph" transform="scale(1 1) rotate(0) translate(4 259)">
<title>src/operational/src/observer/subject.cc</title>
<polygon fill="white" stroke="none" points="-4,4 -4,-259 367,-259 367,4 -4,4"/>
<!-- Node1 -->
<g id="node1" class="node"><title>Node1</title>
<polygon fill="#bfbfbf" stroke="black" points="189.5,-224.5 189.5,-254.5 293.5,-254.5 293.5,-224.5 189.5,-224.5"/>
<text text-anchor="start" x="197.5" y="-242.5" font-family="Helvetica,sans-Serif" font-size="10.00">src/operational/src</text>
<text text-anchor="middle" x="241.5" y="-231.5" font-family="Helvetica,sans-Serif" font-size="10.00">/observer/subject.cc</text>
</g>
<!-- Node2 -->
<g id="node2" class="node"><title>Node2</title>
<g id="a_node2"><a xlink:href="../../d8/da8/clock__tick_8h.html" target="_top" xlink:title="clock_tick.h">
<polygon fill="white" stroke="black" points="139,-168.5 139,-187.5 208,-187.5 208,-168.5 139,-168.5"/>
<text text-anchor="middle" x="173.5" y="-175.5" font-family="Helvetica,sans-Serif" font-size="10.00">clock_tick.h</text>
</a>
</g>
</g>
<!-- Node1&#45;&gt;Node2 -->
<g id="edge1" class="edge"><title>Node1&#45;&gt;Node2</title>
<path fill="none" stroke="midnightblue" d="M225.385,-224.399C215.096,-215.397 201.753,-203.721 191.174,-194.465"/>
<polygon fill="midnightblue" stroke="midnightblue" points="193.225,-191.609 183.395,-187.658 188.616,-196.877 193.225,-191.609"/>
</g>
<!-- Node6 -->
<g id="node6" class="node"><title>Node6</title>
<g id="a_node6"><a xlink:href="../../d9/d71/list__iterator_8h.html" target="_top" xlink:title="list_iterator.h">
<polygon fill="white" stroke="black" points="237,-56.5 237,-75.5 310,-75.5 310,-56.5 237,-56.5"/>
<text text-anchor="middle" x="273.5" y="-63.5" font-family="Helvetica,sans-Serif" font-size="10.00">list_iterator.h</text>
</a>
</g>
</g>
<!-- Node1&#45;&gt;Node6 -->
<g id="edge10" class="edge"><title>Node1&#45;&gt;Node6</title>
<path fill="none" stroke="midnightblue" d="M244.119,-224.465C249.859,-193.704 263.549,-120.329 270.011,-85.7003"/>
<polygon fill="midnightblue" stroke="midnightblue" points="273.509,-86.0321 271.903,-75.5597 266.628,-84.748 273.509,-86.0321"/>
</g>
<!-- Node3 -->
<g id="node3" class="node"><title>Node3</title>
<g id="a_node3"><a xlink:href="../../d0/d6a/clock__tick__observer_8h.html" target="_top" xlink:title="clock_tick_observer.h">
<polygon fill="white" stroke="black" points="35.5,-56.5 35.5,-75.5 145.5,-75.5 145.5,-56.5 35.5,-56.5"/>
<text text-anchor="middle" x="90.5" y="-63.5" font-family="Helvetica,sans-Serif" font-size="10.00">clock_tick_observer.h</text>
</a>
</g>
</g>
<!-- Node2&#45;&gt;Node3 -->
<g id="edge2" class="edge"><title>Node2&#45;&gt;Node3</title>
<path fill="none" stroke="midnightblue" d="M166.987,-168.368C153.229,-150.135 121.003,-107.426 103.082,-83.6752"/>
<polygon fill="midnightblue" stroke="midnightblue" points="105.8,-81.4659 96.9826,-75.5914 100.212,-85.6821 105.8,-81.4659"/>
</g>
<!-- Node4 -->
<g id="node4" class="node"><title>Node4</title>
<g id="a_node4"><a xlink:href="../../d6/db3/clock__tick__interface_8h.html" target="_top" xlink:title="clock_tick_interface.h">
<polygon fill="white" stroke="black" points="0,-112.5 0,-131.5 111,-131.5 111,-112.5 0,-112.5"/>
<text text-anchor="middle" x="55.5" y="-119.5" font-family="Helvetica,sans-Serif" font-size="10.00">clock_tick_interface.h</text>
</a>
</g>
</g>
<!-- Node2&#45;&gt;Node4 -->
<g id="edge3" class="edge"><title>Node2&#45;&gt;Node4</title>
<path fill="none" stroke="midnightblue" d="M154.803,-168.444C135.556,-159.636 105.348,-145.812 83.2999,-135.722"/>
<polygon fill="midnightblue" stroke="midnightblue" points="84.6595,-132.495 74.11,-131.516 81.7466,-138.86 84.6595,-132.495"/>
</g>
<!-- Node5 -->
<g id="node5" class="node"><title>Node5</title>
<g id="a_node5"><a xlink:href="../../da/d23/list_8h.html" target="_top" xlink:title="../iterator/list.h">
<polygon fill="white" stroke="black" points="167.5,-112.5 167.5,-131.5 247.5,-131.5 247.5,-112.5 167.5,-112.5"/>
<text text-anchor="middle" x="207.5" y="-119.5" font-family="Helvetica,sans-Serif" font-size="10.00">../iterator/list.h</text>
</a>
</g>
</g>
<!-- Node2&#45;&gt;Node5 -->
<g id="edge5" class="edge"><title>Node2&#45;&gt;Node5</title>
<path fill="none" stroke="midnightblue" d="M179.114,-168.083C183.867,-160.534 190.818,-149.495 196.652,-140.23"/>
<polygon fill="midnightblue" stroke="midnightblue" points="199.624,-142.078 201.99,-131.751 193.7,-138.349 199.624,-142.078"/>
</g>
<!-- Node4&#45;&gt;Node3 -->
<g id="edge4" class="edge"><title>Node4&#45;&gt;Node3</title>
<path fill="none" stroke="midnightblue" d="M61.2795,-112.083C66.1724,-104.534 73.3274,-93.4948 79.3326,-84.2298"/>
<polygon fill="midnightblue" stroke="midnightblue" points="82.326,-86.0463 84.828,-75.7511 76.452,-82.239 82.326,-86.0463"/>
</g>
<!-- Node5&#45;&gt;Node6 -->
<g id="edge6" class="edge"><title>Node5&#45;&gt;Node6</title>
<path fill="none" stroke="midnightblue" d="M218.104,-112.324C227.956,-104.263 242.851,-92.0765 254.715,-82.3695"/>
<polygon fill="midnightblue" stroke="midnightblue" points="257.18,-84.8752 262.703,-75.8339 252.747,-79.4575 257.18,-84.8752"/>
</g>
<!-- Node8 -->
<g id="node8" class="node"><title>Node8</title>
<g id="a_node8"><a xlink:href="../../dd/d8c/list__interface_8h.html" target="_top" xlink:title="list_interface.h">
<polygon fill="white" stroke="black" points="167.5,-0.5 167.5,-19.5 247.5,-19.5 247.5,-0.5 167.5,-0.5"/>
<text text-anchor="middle" x="207.5" y="-7.5" font-family="Helvetica,sans-Serif" font-size="10.00">list_interface.h</text>
</a>
</g>
</g>
<!-- Node5&#45;&gt;Node8 -->
<g id="edge9" class="edge"><title>Node5&#45;&gt;Node8</title>
<path fill="none" stroke="midnightblue" d="M207.5,-112.368C207.5,-94.617 207.5,-53.6664 207.5,-29.5974"/>
<polygon fill="midnightblue" stroke="midnightblue" points="211,-29.5914 207.5,-19.5914 204,-29.5915 211,-29.5914"/>
</g>
<!-- Node7 -->
<g id="node7" class="node"><title>Node7</title>
<g id="a_node7"><a xlink:href="../../d6/da4/iterator__interface_8h.html" target="_top" xlink:title="iterator_interface.h">
<polygon fill="white" stroke="black" points="266,-0.5 266,-19.5 363,-19.5 363,-0.5 266,-0.5"/>
<text text-anchor="middle" x="314.5" y="-7.5" font-family="Helvetica,sans-Serif" font-size="10.00">iterator_interface.h</text>
</a>
</g>
</g>
<!-- Node6&#45;&gt;Node7 -->
<g id="edge7" class="edge"><title>Node6&#45;&gt;Node7</title>
<path fill="none" stroke="midnightblue" d="M280.27,-56.083C286.062,-48.4554 294.558,-37.2645 301.638,-27.9408"/>
<polygon fill="midnightblue" stroke="midnightblue" points="304.596,-29.8321 307.856,-19.7511 299.021,-25.5991 304.596,-29.8321"/>
</g>
<!-- Node6&#45;&gt;Node8 -->
<g id="edge8" class="edge"><title>Node6&#45;&gt;Node8</title>
<path fill="none" stroke="midnightblue" d="M262.896,-56.324C253.044,-48.2631 238.149,-36.0765 226.285,-26.3695"/>
<polygon fill="midnightblue" stroke="midnightblue" points="228.253,-23.4575 218.297,-19.8339 223.82,-28.8752 228.253,-23.4575"/>
</g>
</g>
</svg>
