<?xml version="1.0" encoding="UTF-8" standalone="no"?>
<!DOCTYPE svg PUBLIC "-//W3C//DTD SVG 1.1//EN"
 "http://www.w3.org/Graphics/SVG/1.1/DTD/svg11.dtd">
<!-- Generated by graphviz version 2.38.0 (20140413.2041)
 -->
<!-- Title: src/structural/src/decorator/ascii7_stream.h Pages: 1 -->
<svg width="140pt" height="207pt"
 viewBox="0.00 0.00 140.00 207.00" xmlns="http://www.w3.org/2000/svg" xmlns:xlink="http://www.w3.org/1999/xlink">
<g id="graph0" class="graph" transform="scale(1 1) rotate(0) translate(4 203)">
<title>src/structural/src/decorator/ascii7_stream.h</title>
<polygon fill="white" stroke="none" points="-4,4 -4,-203 136,-203 136,4 -4,4"/>
<!-- Node1 -->
<g id="node1" class="node"><title>Node1</title>
<polygon fill="#bfbfbf" stroke="black" points="0,-168.5 0,-198.5 132,-198.5 132,-168.5 0,-168.5"/>
<text text-anchor="start" x="8" y="-186.5" font-family="Helvetica,sans-Serif" font-size="10.00">src/structural/src</text>
<text text-anchor="middle" x="66" y="-175.5" font-family="Helvetica,sans-Serif" font-size="10.00">/decorator/ascii7_stream.h</text>
</g>
<!-- Node2 -->
<g id="node2" class="node"><title>Node2</title>
<g id="a_node2"><a xlink:href="../../d2/dd2/stream__decorator_8h.html" target="_top" xlink:title="stream_decorator.h">
<polygon fill="white" stroke="black" points="15.5,-112.5 15.5,-131.5 116.5,-131.5 116.5,-112.5 15.5,-112.5"/>
<text text-anchor="middle" x="66" y="-119.5" font-family="Helvetica,sans-Serif" font-size="10.00">stream_decorator.h</text>
</a>
</g>
</g>
<!-- Node1&#45;&gt;Node2 -->
<g id="edge1" class="edge"><title>Node1&#45;&gt;Node2</title>
<path fill="none" stroke="midnightblue" d="M66,-168.399C66,-160.466 66,-150.458 66,-141.858"/>
<polygon fill="midnightblue" stroke="midnightblue" points="69.5001,-141.658 66,-131.658 62.5001,-141.658 69.5001,-141.658"/>
</g>
<!-- Node3 -->
<g id="node3" class="node"><title>Node3</title>
<g id="a_node3"><a xlink:href="../../d3/d9f/stream__interface_8h.html" target="_top" xlink:title="stream_interface.h">
<polygon fill="white" stroke="black" points="17.5,-56.5 17.5,-75.5 114.5,-75.5 114.5,-56.5 17.5,-56.5"/>
<text text-anchor="middle" x="66" y="-63.5" font-family="Helvetica,sans-Serif" font-size="10.00">stream_interface.h</text>
</a>
</g>
</g>
<!-- Node2&#45;&gt;Node3 -->
<g id="edge2" class="edge"><title>Node2&#45;&gt;Node3</title>
<path fill="none" stroke="midnightblue" d="M66,-112.083C66,-105.006 66,-94.8611 66,-85.9865"/>
<polygon fill="midnightblue" stroke="midnightblue" points="69.5001,-85.751 66,-75.7511 62.5001,-85.7511 69.5001,-85.751"/>
</g>
<!-- Node4 -->
<g id="node4" class="node"><title>Node4</title>
<polygon fill="white" stroke="#bfbfbf" points="45.5,-0.5 45.5,-19.5 86.5,-19.5 86.5,-0.5 45.5,-0.5"/>
<text text-anchor="middle" x="66" y="-7.5" font-family="Helvetica,sans-Serif" font-size="10.00">string</text>
</g>
<!-- Node3&#45;&gt;Node4 -->
<g id="edge3" class="edge"><title>Node3&#45;&gt;Node4</title>
<path fill="none" stroke="midnightblue" d="M66,-56.083C66,-49.0059 66,-38.8611 66,-29.9865"/>
<polygon fill="midnightblue" stroke="midnightblue" points="69.5001,-29.751 66,-19.7511 62.5001,-29.7511 69.5001,-29.751"/>
</g>
</g>
</svg>
