<?xml version="1.0" encoding="UTF-8" standalone="no"?>
<!DOCTYPE svg PUBLIC "-//W3C//DTD SVG 1.1//EN"
 "http://www.w3.org/Graphics/SVG/1.1/DTD/svg11.dtd">
<!-- Generated by graphviz version 2.38.0 (20140413.2041)
 -->
<!-- Title: structural::composite::CompositeEquipment Pages: 1 -->
<!--zoomable 507 -->
<svg id="main" version="1.1" xmlns="http://www.w3.org/2000/svg" xmlns:xlink="http://www.w3.org/1999/xlink" xml:space="preserve" onload="init(evt)">
<style type="text/css"><![CDATA[
.edge:hover path { stroke: red; }
.edge:hover polygon { stroke: red; fill: red; }
]]></style>
<script type="text/javascript"><![CDATA[
var edges = document.getElementsByTagName('g');
if (edges && edges.length) {
  for (var i=0;i<edges.length;i++) {
    if (edges[i].id.substr(0,4)=='edge') {
      edges[i].setAttribute('class','edge');
    }
  }
}
]]></script>
        <defs>
                <circle id="rim" cx="0" cy="0" r="7"/>
                <circle id="rim2" cx="0" cy="0" r="3.5"/>
                <g id="zoomPlus">
                        <use xlink:href="#rim" fill="#404040">
                                <set attributeName="fill" to="#808080" begin="zoomplus.mouseover" end="zoomplus.mouseout"/>
                        </use>
                        <path d="M-4,0h8M0,-4v8" fill="none" stroke="white" stroke-width="1.5" pointer-events="none"/>
                </g>
                <g id="zoomMin">
                        <use xlink:href="#rim" fill="#404040">
                                <set attributeName="fill" to="#808080" begin="zoomminus.mouseover" end="zoomminus.mouseout"/>
                        </use>
                        <path d="M-4,0h8" fill="none" stroke="white" stroke-width="1.5" pointer-events="none"/>
                </g>
                <g id="dirArrow">
                        <path fill="none" stroke="white" stroke-width="1.5" d="M0,-3.0v7 M-2.5,-0.5L0,-3.0L2.5,-0.5"/>
                </g>
               <g id="resetDef">
                       <use xlink:href="#rim2" fill="#404040">
                               <set attributeName="fill" to="#808080" begin="reset.mouseover" end="reset.mouseout"/>
                       </use>
               </g>
        </defs>

<script type="text/javascript">
var viewWidth = 392;
var viewHeight = 507;
var sectionId = 'dynsection-0';
</script>
<script xlink:href="../../svgpan.js"/>
<svg id="graph" class="graph">
<g id="viewport">
<title>structural::composite::CompositeEquipment</title>
<polygon fill="white" stroke="none" points="-4,4 -4,-503 387.5,-503 387.5,4 -4,4"/>
<!-- Node1 -->
<g id="node1" class="node"><title>Node1</title>
<polygon fill="#bfbfbf" stroke="black" points="138.5,-116.5 138.5,-316.5 268.5,-316.5 268.5,-116.5 138.5,-116.5"/>
<text text-anchor="start" x="146.5" y="-304.5" font-family="Helvetica,sans-Serif" font-size="10.00">structural::composite</text>
<text text-anchor="middle" x="203.5" y="-293.5" font-family="Helvetica,sans-Serif" font-size="10.00">::CompositeEquipment</text>
<polyline fill="none" stroke="black" points="138.5,-286.5 268.5,-286.5 "/>
<text text-anchor="middle" x="203.5" y="-274.5" font-family="Helvetica,sans-Serif" font-size="10.00"> </text>
<polyline fill="none" stroke="black" points="138.5,-267.5 268.5,-267.5 "/>
<text text-anchor="start" x="146.5" y="-255.5" font-family="Helvetica,sans-Serif" font-size="10.00">+ name()</text>
<text text-anchor="start" x="146.5" y="-244.5" font-family="Helvetica,sans-Serif" font-size="10.00">+ price()</text>
<text text-anchor="start" x="146.5" y="-233.5" font-family="Helvetica,sans-Serif" font-size="10.00">+ price()</text>
<text text-anchor="start" x="146.5" y="-222.5" font-family="Helvetica,sans-Serif" font-size="10.00">+ power()</text>
<text text-anchor="start" x="146.5" y="-211.5" font-family="Helvetica,sans-Serif" font-size="10.00">+ power()</text>
<text text-anchor="start" x="146.5" y="-200.5" font-family="Helvetica,sans-Serif" font-size="10.00">+ NetPrice()</text>
<text text-anchor="start" x="146.5" y="-189.5" font-family="Helvetica,sans-Serif" font-size="10.00">+ DiscountPrice()</text>
<text text-anchor="start" x="146.5" y="-178.5" font-family="Helvetica,sans-Serif" font-size="10.00">+ Add()</text>
<text text-anchor="start" x="146.5" y="-167.5" font-family="Helvetica,sans-Serif" font-size="10.00">+ Remove()</text>
<text text-anchor="start" x="146.5" y="-156.5" font-family="Helvetica,sans-Serif" font-size="10.00">+ CreateIterator()</text>
<text text-anchor="start" x="146.5" y="-145.5" font-family="Helvetica,sans-Serif" font-size="10.00"># CompositeEquipment()</text>
<text text-anchor="start" x="146.5" y="-134.5" font-family="Helvetica,sans-Serif" font-size="10.00"># CompositeEquipment()</text>
<text text-anchor="start" x="146.5" y="-123.5" font-family="Helvetica,sans-Serif" font-size="10.00"># ~CompositeEquipment()</text>
</g>
<!-- Node3 -->
<g id="node3" class="node"><title>Node3</title>
<g id="a_node3"><a xlink:href="../../dc/d6c/classstructural_1_1composite_1_1_bus.html" target="_top" xlink:title="{structural::composite::Bus\n||+ Bus()\l+ Bus()\l}">
<polygon fill="white" stroke="black" points="0,-6 0,-74 131,-74 131,-6 0,-6"/>
<text text-anchor="middle" x="65.5" y="-62" font-family="Helvetica,sans-Serif" font-size="10.00">structural::composite::Bus</text>
<polyline fill="none" stroke="black" points="0,-55 131,-55 "/>
<text text-anchor="middle" x="65.5" y="-43" font-family="Helvetica,sans-Serif" font-size="10.00"> </text>
<polyline fill="none" stroke="black" points="0,-36 131,-36 "/>
<text text-anchor="start" x="8" y="-24" font-family="Helvetica,sans-Serif" font-size="10.00">+ Bus()</text>
<text text-anchor="start" x="8" y="-13" font-family="Helvetica,sans-Serif" font-size="10.00">+ Bus()</text>
</a>
</g>
</g>
<!-- Node1&#45;&gt;Node3 -->
<g id="edge2" class="edge"><title>Node1&#45;&gt;Node3</title>
<path fill="none" stroke="midnightblue" d="M131.77,-124.798C117.478,-106.726 103.342,-88.8515 91.821,-74.2827"/>
<polygon fill="none" stroke="midnightblue" points="129.391,-127.432 138.339,-133.104 134.881,-123.09 129.391,-127.432"/>
</g>
<!-- Node4 -->
<g id="node4" class="node"><title>Node4</title>
<g id="a_node4"><a xlink:href="../../d1/d1f/classstructural_1_1composite_1_1_cabinet.html" target="_top" xlink:title="{structural::composite\l::Cabinet\n||+ Cabinet()\l+ Cabinet()\l}">
<polygon fill="white" stroke="black" points="149.5,-0.5 149.5,-79.5 257.5,-79.5 257.5,-0.5 149.5,-0.5"/>
<text text-anchor="start" x="157.5" y="-67.5" font-family="Helvetica,sans-Serif" font-size="10.00">structural::composite</text>
<text text-anchor="middle" x="203.5" y="-56.5" font-family="Helvetica,sans-Serif" font-size="10.00">::Cabinet</text>
<polyline fill="none" stroke="black" points="149.5,-49.5 257.5,-49.5 "/>
<text text-anchor="middle" x="203.5" y="-37.5" font-family="Helvetica,sans-Serif" font-size="10.00"> </text>
<polyline fill="none" stroke="black" points="149.5,-30.5 257.5,-30.5 "/>
<text text-anchor="start" x="157.5" y="-18.5" font-family="Helvetica,sans-Serif" font-size="10.00">+ Cabinet()</text>
<text text-anchor="start" x="157.5" y="-7.5" font-family="Helvetica,sans-Serif" font-size="10.00">+ Cabinet()</text>
</a>
</g>
</g>
<!-- Node1&#45;&gt;Node4 -->
<g id="edge3" class="edge"><title>Node1&#45;&gt;Node4</title>
<path fill="none" stroke="midnightblue" d="M203.5,-106.094C203.5,-96.8262 203.5,-87.9152 203.5,-79.8186"/>
<polygon fill="none" stroke="midnightblue" points="200,-106.27 203.5,-116.27 207,-106.27 200,-106.27"/>
</g>
<!-- Node5 -->
<g id="node5" class="node"><title>Node5</title>
<g id="a_node5"><a xlink:href="../../d5/dd4/classstructural_1_1composite_1_1_chassis.html" target="_top" xlink:title="{structural::composite\l::Chassis\n||+ Chassis()\l+ Chassis()\l}">
<polygon fill="white" stroke="black" points="275.5,-0.5 275.5,-79.5 383.5,-79.5 383.5,-0.5 275.5,-0.5"/>
<text text-anchor="start" x="283.5" y="-67.5" font-family="Helvetica,sans-Serif" font-size="10.00">structural::composite</text>
<text text-anchor="middle" x="329.5" y="-56.5" font-family="Helvetica,sans-Serif" font-size="10.00">::Chassis</text>
<polyline fill="none" stroke="black" points="275.5,-49.5 383.5,-49.5 "/>
<text text-anchor="middle" x="329.5" y="-37.5" font-family="Helvetica,sans-Serif" font-size="10.00"> </text>
<polyline fill="none" stroke="black" points="275.5,-30.5 383.5,-30.5 "/>
<text text-anchor="start" x="283.5" y="-18.5" font-family="Helvetica,sans-Serif" font-size="10.00">+ Chassis()</text>
<text text-anchor="start" x="283.5" y="-7.5" font-family="Helvetica,sans-Serif" font-size="10.00">+ Chassis()</text>
</a>
</g>
</g>
<!-- Node1&#45;&gt;Node5 -->
<g id="edge4" class="edge"><title>Node1&#45;&gt;Node5</title>
<path fill="none" stroke="midnightblue" d="M274.533,-117.125C284.134,-103.828 293.483,-90.8808 301.667,-79.5471"/>
<polygon fill="none" stroke="midnightblue" points="271.546,-115.282 268.53,-125.439 277.222,-119.38 271.546,-115.282"/>
</g>
<!-- Node2 -->
<g id="node2" class="node"><title>Node2</title>
<g id="a_node2"><a xlink:href="../../df/d68/classstructural_1_1composite_1_1_equipment_interface.html" target="_top" xlink:title="{structural::composite\l::EquipmentInterface\n||+ ~EquipmentInterface()\l+ name()\l+ price()\l+ price()\l+ power()\l+ power()\l+ NetPrice()\l+ DiscountPrice()\l}">
<polygon fill="white" stroke="black" points="143,-353.5 143,-498.5 264,-498.5 264,-353.5 143,-353.5"/>
<text text-anchor="start" x="151" y="-486.5" font-family="Helvetica,sans-Serif" font-size="10.00">structural::composite</text>
<text text-anchor="middle" x="203.5" y="-475.5" font-family="Helvetica,sans-Serif" font-size="10.00">::EquipmentInterface</text>
<polyline fill="none" stroke="black" points="143,-468.5 264,-468.5 "/>
<text text-anchor="middle" x="203.5" y="-456.5" font-family="Helvetica,sans-Serif" font-size="10.00"> </text>
<polyline fill="none" stroke="black" points="143,-449.5 264,-449.5 "/>
<text text-anchor="start" x="151" y="-437.5" font-family="Helvetica,sans-Serif" font-size="10.00">+ ~EquipmentInterface()</text>
<text text-anchor="start" x="151" y="-426.5" font-family="Helvetica,sans-Serif" font-size="10.00">+ name()</text>
<text text-anchor="start" x="151" y="-415.5" font-family="Helvetica,sans-Serif" font-size="10.00">+ price()</text>
<text text-anchor="start" x="151" y="-404.5" font-family="Helvetica,sans-Serif" font-size="10.00">+ price()</text>
<text text-anchor="start" x="151" y="-393.5" font-family="Helvetica,sans-Serif" font-size="10.00">+ power()</text>
<text text-anchor="start" x="151" y="-382.5" font-family="Helvetica,sans-Serif" font-size="10.00">+ power()</text>
<text text-anchor="start" x="151" y="-371.5" font-family="Helvetica,sans-Serif" font-size="10.00">+ NetPrice()</text>
<text text-anchor="start" x="151" y="-360.5" font-family="Helvetica,sans-Serif" font-size="10.00">+ DiscountPrice()</text>
</a>
</g>
</g>
<!-- Node2&#45;&gt;Node1 -->
<g id="edge1" class="edge"><title>Node2&#45;&gt;Node1</title>
<path fill="none" stroke="midnightblue" d="M203.5,-343.186C203.5,-334.473 203.5,-325.544 203.5,-316.659"/>
<polygon fill="none" stroke="midnightblue" points="200,-343.3 203.5,-353.3 207,-343.3 200,-343.3"/>
</g>
</g>
</svg>
        <g id="navigator" transform="translate(0 0)" fill="#404254">
                <rect fill="#f2f5e9" fill-opacity="0.5" stroke="#606060" stroke-width=".5" x="0" y="0" width="60" height="60"/>
                <use id="zoomplus" xlink:href="#zoomPlus" x="17" y="9" onmousedown="handleZoom(evt,'in')"/>
                <use id="zoomminus" xlink:href="#zoomMin" x="42" y="9" onmousedown="handleZoom(evt,'out')"/>
                <use id="reset" xlink:href="#resetDef" x="30" y="36" onmousedown="handleReset()"/>
                <g id="arrowUp" xlink:href="#dirArrow" transform="translate(30 24)" onmousedown="handlePan(0,-1)">
                  <use xlink:href="#rim" fill="#404040">
                        <set attributeName="fill" to="#808080" begin="arrowUp.mouseover" end="arrowUp.mouseout"/>
                  </use>
                  <path fill="none" stroke="white" stroke-width="1.5" d="M0,-3.0v7 M-2.5,-0.5L0,-3.0L2.5,-0.5"/>
                </g>
                <g id="arrowRight" xlink:href="#dirArrow" transform="rotate(90) translate(36 -43)" onmousedown="handlePan(1,0)">
                  <use xlink:href="#rim" fill="#404040">
                        <set attributeName="fill" to="#808080" begin="arrowRight.mouseover" end="arrowRight.mouseout"/>
                  </use>
                  <path fill="none" stroke="white" stroke-width="1.5" d="M0,-3.0v7 M-2.5,-0.5L0,-3.0L2.5,-0.5"/>
                </g>
                <g id="arrowDown" xlink:href="#dirArrow" transform="rotate(180) translate(-30 -48)" onmousedown="handlePan(0,1)">
                  <use xlink:href="#rim" fill="#404040">
                        <set attributeName="fill" to="#808080" begin="arrowDown.mouseover" end="arrowDown.mouseout"/>
                  </use>
                  <path fill="none" stroke="white" stroke-width="1.5" d="M0,-3.0v7 M-2.5,-0.5L0,-3.0L2.5,-0.5"/>
                </g>
                <g id="arrowLeft" xlink:href="#dirArrow" transform="rotate(270) translate(-36 17)" onmousedown="handlePan(-1,0)">
                  <use xlink:href="#rim" fill="#404040">
                        <set attributeName="fill" to="#808080" begin="arrowLeft.mouseover" end="arrowLeft.mouseout"/>
                  </use>
                  <path fill="none" stroke="white" stroke-width="1.5" d="M0,-3.0v7 M-2.5,-0.5L0,-3.0L2.5,-0.5"/>
                </g>
        </g>
        <svg viewBox="0 0 15 15" width="100%" height="30px" preserveAspectRatio="xMaxYMin meet">
         <g id="arrow_out" transform="scale(0.3 0.3)">
          <a xlink:href="classstructural_1_1composite_1_1_composite_equipment__inherit__graph_org.svg" target="_base">
           <rect id="button" ry="5" rx="5" y="6" x="6" height="38" width="38"
                fill="#f2f5e9" fill-opacity="0.5" stroke="#606060" stroke-width="1.0"/>
           <path id="arrow"
             d="M 11.500037,31.436501 C 11.940474,20.09759 22.043105,11.32322 32.158766,21.979434 L 37.068811,17.246167 C 37.068811,17.246167 37.088388,32 37.088388,32 L 22.160133,31.978069 C 22.160133,31.978069 26.997745,27.140456 26.997745,27.140456 C 18.528582,18.264221 13.291696,25.230495 11.500037,31.436501 z"
             style="fill:#404040;"/>
          </a>
         </g>
        </svg>
</svg>
