<?xml version="1.0" encoding="UTF-8" standalone="no"?>
<!DOCTYPE svg PUBLIC "-//W3C//DTD SVG 1.1//EN"
 "http://www.w3.org/Graphics/SVG/1.1/DTD/svg11.dtd">
<!-- Generated by graphviz version 2.38.0 (20140413.2041)
 -->
<!-- Title: src/operational/src/visitor/chassis.h Pages: 1 -->
<svg width="663pt" height="207pt"
 viewBox="0.00 0.00 662.50 207.00" xmlns="http://www.w3.org/2000/svg" xmlns:xlink="http://www.w3.org/1999/xlink">
<g id="graph0" class="graph" transform="scale(1 1) rotate(0) translate(4 203)">
<title>src/operational/src/visitor/chassis.h</title>
<polygon fill="white" stroke="none" points="-4,4 -4,-203 658.5,-203 658.5,4 -4,4"/>
<!-- Node1 -->
<g id="node1" class="node"><title>Node1</title>
<polygon fill="#bfbfbf" stroke="black" points="230,-168.5 230,-198.5 327,-198.5 327,-168.5 230,-168.5"/>
<text text-anchor="start" x="238" y="-186.5" font-family="Helvetica,sans-Serif" font-size="10.00">src/operational/src</text>
<text text-anchor="middle" x="278.5" y="-175.5" font-family="Helvetica,sans-Serif" font-size="10.00">/visitor/chassis.h</text>
</g>
<!-- Node2 -->
<g id="node2" class="node"><title>Node2</title>
<g id="a_node2"><a xlink:href="../../d4/d2b/chassis__interface_8h.html" target="_top" xlink:title="chassis_interface.h">
<polygon fill="white" stroke="black" points="0,-0.5 0,-19.5 101,-19.5 101,-0.5 0,-0.5"/>
<text text-anchor="middle" x="50.5" y="-7.5" font-family="Helvetica,sans-Serif" font-size="10.00">chassis_interface.h</text>
</a>
</g>
</g>
<!-- Node1&#45;&gt;Node2 -->
<g id="edge1" class="edge"><title>Node1&#45;&gt;Node2</title>
<path fill="none" stroke="midnightblue" d="M254.216,-168.497C237.838,-158.78 215.937,-145.248 197.5,-132 148.572,-96.8416 94.7963,-50.408 67.88,-26.5788"/>
<polygon fill="midnightblue" stroke="midnightblue" points="69.9225,-23.7113 60.1249,-19.6792 65.2696,-28.9411 69.9225,-23.7113"/>
</g>
<!-- Node3 -->
<g id="node3" class="node"><title>Node3</title>
<g id="a_node3"><a xlink:href="../../d8/d3b/visited__equipment__interface_8h.html" target="_top" xlink:title="visited_equipment_interface.h">
<polygon fill="white" stroke="black" points="206.5,-112.5 206.5,-131.5 350.5,-131.5 350.5,-112.5 206.5,-112.5"/>
<text text-anchor="middle" x="278.5" y="-119.5" font-family="Helvetica,sans-Serif" font-size="10.00">visited_equipment_interface.h</text>
</a>
</g>
</g>
<!-- Node1&#45;&gt;Node3 -->
<g id="edge2" class="edge"><title>Node1&#45;&gt;Node3</title>
<path fill="none" stroke="midnightblue" d="M278.5,-168.399C278.5,-160.466 278.5,-150.458 278.5,-141.858"/>
<polygon fill="midnightblue" stroke="midnightblue" points="282,-141.658 278.5,-131.658 275,-141.658 282,-141.658"/>
</g>
<!-- Node9 -->
<g id="node9" class="node"><title>Node9</title>
<g id="a_node9"><a xlink:href="../../da/d23/list_8h.html" target="_top" xlink:title="../iterator/list.h">
<polygon fill="white" stroke="black" points="477.5,-112.5 477.5,-131.5 557.5,-131.5 557.5,-112.5 477.5,-112.5"/>
<text text-anchor="middle" x="517.5" y="-119.5" font-family="Helvetica,sans-Serif" font-size="10.00">../iterator/list.h</text>
</a>
</g>
</g>
<!-- Node1&#45;&gt;Node9 -->
<g id="edge9" class="edge"><title>Node1&#45;&gt;Node9</title>
<path fill="none" stroke="midnightblue" d="M327.153,-170.388C370.023,-159.715 431.932,-144.303 473.385,-133.983"/>
<polygon fill="midnightblue" stroke="midnightblue" points="474.341,-137.351 483.2,-131.539 472.65,-130.559 474.341,-137.351"/>
</g>
<!-- Node4 -->
<g id="node4" class="node"><title>Node4</title>
<g id="a_node4"><a xlink:href="../../d2/d43/equipment__visitor__interface_8h.html" target="_top" xlink:title="equipment_visitor_interface.h">
<polygon fill="white" stroke="black" points="166.5,-56.5 166.5,-75.5 308.5,-75.5 308.5,-56.5 166.5,-56.5"/>
<text text-anchor="middle" x="237.5" y="-63.5" font-family="Helvetica,sans-Serif" font-size="10.00">equipment_visitor_interface.h</text>
</a>
</g>
</g>
<!-- Node3&#45;&gt;Node4 -->
<g id="edge3" class="edge"><title>Node3&#45;&gt;Node4</title>
<path fill="none" stroke="midnightblue" d="M271.73,-112.083C265.938,-104.455 257.442,-93.2645 250.362,-83.9408"/>
<polygon fill="midnightblue" stroke="midnightblue" points="252.979,-81.5991 244.144,-75.7511 247.404,-85.8321 252.979,-81.5991"/>
</g>
<!-- Node8 -->
<g id="node8" class="node"><title>Node8</title>
<polygon fill="white" stroke="#bfbfbf" points="327,-56.5 327,-75.5 368,-75.5 368,-56.5 327,-56.5"/>
<text text-anchor="middle" x="347.5" y="-63.5" font-family="Helvetica,sans-Serif" font-size="10.00">string</text>
</g>
<!-- Node3&#45;&gt;Node8 -->
<g id="edge8" class="edge"><title>Node3&#45;&gt;Node8</title>
<path fill="none" stroke="midnightblue" d="M289.586,-112.324C299.986,-104.185 315.761,-91.8395 328.222,-82.0874"/>
<polygon fill="midnightblue" stroke="midnightblue" points="330.494,-84.7533 336.212,-75.8339 326.18,-79.2407 330.494,-84.7533"/>
</g>
<!-- Node4&#45;&gt;Node2 -->
<g id="edge6" class="edge"><title>Node4&#45;&gt;Node2</title>
<path fill="none" stroke="midnightblue" d="M207.869,-56.4435C176,-47.2406 125.167,-32.5617 89.936,-22.3879"/>
<polygon fill="midnightblue" stroke="midnightblue" points="90.5706,-18.9282 79.9921,-19.5164 88.6285,-25.6534 90.5706,-18.9282"/>
</g>
<!-- Node5 -->
<g id="node5" class="node"><title>Node5</title>
<g id="a_node5"><a xlink:href="../../d0/db8/floppy__disk__interface_8h.html" target="_top" xlink:title="floppy_disk_interface.h">
<polygon fill="white" stroke="black" points="119.5,-0.5 119.5,-19.5 235.5,-19.5 235.5,-0.5 119.5,-0.5"/>
<text text-anchor="middle" x="177.5" y="-7.5" font-family="Helvetica,sans-Serif" font-size="10.00">floppy_disk_interface.h</text>
</a>
</g>
</g>
<!-- Node4&#45;&gt;Node5 -->
<g id="edge4" class="edge"><title>Node4&#45;&gt;Node5</title>
<path fill="none" stroke="midnightblue" d="M227.86,-56.324C218.99,-48.3414 205.625,-36.3128 194.892,-26.6529"/>
<polygon fill="midnightblue" stroke="midnightblue" points="197.09,-23.922 187.315,-19.8339 192.407,-29.1251 197.09,-23.922"/>
</g>
<!-- Node6 -->
<g id="node6" class="node"><title>Node6</title>
<g id="a_node6"><a xlink:href="../../d1/d04/card__interface_8h.html" target="_top" xlink:title="card_interface.h">
<polygon fill="white" stroke="black" points="253.5,-0.5 253.5,-19.5 339.5,-19.5 339.5,-0.5 253.5,-0.5"/>
<text text-anchor="middle" x="296.5" y="-7.5" font-family="Helvetica,sans-Serif" font-size="10.00">card_interface.h</text>
</a>
</g>
</g>
<!-- Node4&#45;&gt;Node6 -->
<g id="edge5" class="edge"><title>Node4&#45;&gt;Node6</title>
<path fill="none" stroke="midnightblue" d="M246.979,-56.324C255.701,-48.3414 268.843,-36.3128 279.398,-26.6529"/>
<polygon fill="midnightblue" stroke="midnightblue" points="281.834,-29.1674 286.848,-19.8339 277.108,-24.0036 281.834,-29.1674"/>
</g>
<!-- Node7 -->
<g id="node7" class="node"><title>Node7</title>
<g id="a_node7"><a xlink:href="../../db/d88/bus__interface_8h.html" target="_top" xlink:title="bus_interface.h">
<polygon fill="white" stroke="black" points="358,-0.5 358,-19.5 441,-19.5 441,-0.5 358,-0.5"/>
<text text-anchor="middle" x="399.5" y="-7.5" font-family="Helvetica,sans-Serif" font-size="10.00">bus_interface.h</text>
</a>
</g>
</g>
<!-- Node4&#45;&gt;Node7 -->
<g id="edge7" class="edge"><title>Node4&#45;&gt;Node7</title>
<path fill="none" stroke="midnightblue" d="M263.169,-56.4435C290.423,-47.3591 333.684,-32.9388 364.151,-22.7831"/>
<polygon fill="midnightblue" stroke="midnightblue" points="365.571,-25.9992 373.951,-19.5164 363.357,-19.3584 365.571,-25.9992"/>
</g>
<!-- Node10 -->
<g id="node10" class="node"><title>Node10</title>
<g id="a_node10"><a xlink:href="../../d9/d71/list__iterator_8h.html" target="_top" xlink:title="list_iterator.h">
<polygon fill="white" stroke="black" points="481,-56.5 481,-75.5 554,-75.5 554,-56.5 481,-56.5"/>
<text text-anchor="middle" x="517.5" y="-63.5" font-family="Helvetica,sans-Serif" font-size="10.00">list_iterator.h</text>
</a>
</g>
</g>
<!-- Node9&#45;&gt;Node10 -->
<g id="edge10" class="edge"><title>Node9&#45;&gt;Node10</title>
<path fill="none" stroke="midnightblue" d="M517.5,-112.083C517.5,-105.006 517.5,-94.8611 517.5,-85.9865"/>
<polygon fill="midnightblue" stroke="midnightblue" points="521,-85.751 517.5,-75.7511 514,-85.7511 521,-85.751"/>
</g>
<!-- Node12 -->
<g id="node12" class="node"><title>Node12</title>
<g id="a_node12"><a xlink:href="../../dd/d8c/list__interface_8h.html" target="_top" xlink:title="list_interface.h">
<polygon fill="white" stroke="black" points="574.5,-0.5 574.5,-19.5 654.5,-19.5 654.5,-0.5 574.5,-0.5"/>
<text text-anchor="middle" x="614.5" y="-7.5" font-family="Helvetica,sans-Serif" font-size="10.00">list_interface.h</text>
</a>
</g>
</g>
<!-- Node9&#45;&gt;Node12 -->
<g id="edge13" class="edge"><title>Node9&#45;&gt;Node12</title>
<path fill="none" stroke="midnightblue" d="M526.765,-112.319C536.08,-103.457 550.71,-89.1721 562.5,-76 576.596,-60.2515 591.557,-41.2828 601.795,-27.913"/>
<polygon fill="midnightblue" stroke="midnightblue" points="604.801,-29.7414 608.059,-19.6599 599.225,-25.5093 604.801,-29.7414"/>
</g>
<!-- Node11 -->
<g id="node11" class="node"><title>Node11</title>
<g id="a_node11"><a xlink:href="../../d6/da4/iterator__interface_8h.html" target="_top" xlink:title="iterator_interface.h">
<polygon fill="white" stroke="black" points="459,-0.5 459,-19.5 556,-19.5 556,-0.5 459,-0.5"/>
<text text-anchor="middle" x="507.5" y="-7.5" font-family="Helvetica,sans-Serif" font-size="10.00">iterator_interface.h</text>
</a>
</g>
</g>
<!-- Node10&#45;&gt;Node11 -->
<g id="edge11" class="edge"><title>Node10&#45;&gt;Node11</title>
<path fill="none" stroke="midnightblue" d="M515.849,-56.083C514.524,-48.9272 512.618,-38.6353 510.961,-29.6911"/>
<polygon fill="midnightblue" stroke="midnightblue" points="514.383,-28.9466 509.121,-19.7511 507.5,-30.2212 514.383,-28.9466"/>
</g>
<!-- Node10&#45;&gt;Node12 -->
<g id="edge12" class="edge"><title>Node10&#45;&gt;Node12</title>
<path fill="none" stroke="midnightblue" d="M533.085,-56.324C548.499,-47.7428 572.312,-34.486 590.21,-24.5224"/>
<polygon fill="midnightblue" stroke="midnightblue" points="591.919,-27.5767 598.954,-19.6545 588.514,-21.4606 591.919,-27.5767"/>
</g>
</g>
</svg>
