<?xml version="1.0" encoding="UTF-8" standalone="no"?>
<!DOCTYPE svg PUBLIC "-//W3C//DTD SVG 1.1//EN"
 "http://www.w3.org/Graphics/SVG/1.1/DTD/svg11.dtd">
<!-- Generated by graphviz version 2.38.0 (20140413.2041)
 -->
<!-- Title: src/structural/src/composite/card.h Pages: 1 -->
<svg width="256pt" height="117pt"
 viewBox="0.00 0.00 255.50 117.00" xmlns="http://www.w3.org/2000/svg" xmlns:xlink="http://www.w3.org/1999/xlink">
<g id="graph0" class="graph" transform="scale(1 1) rotate(0) translate(4 113)">
<title>src/structural/src/composite/card.h</title>
<polygon fill="white" stroke="none" points="-4,4 -4,-113 251.5,-113 251.5,4 -4,4"/>
<!-- Node1 -->
<g id="node1" class="node"><title>Node1</title>
<polygon fill="#bfbfbf" stroke="black" points="68.5,-78.5 68.5,-108.5 163.5,-108.5 163.5,-78.5 68.5,-78.5"/>
<text text-anchor="start" x="76.5" y="-96.5" font-family="Helvetica,sans-Serif" font-size="10.00">src/structural/src</text>
<text text-anchor="middle" x="116" y="-85.5" font-family="Helvetica,sans-Serif" font-size="10.00">/composite/card.h</text>
</g>
<!-- Node2 -->
<g id="node2" class="node"><title>Node2</title>
<g id="a_node2"><a xlink:href="../../d0/d6f/structural_2src_2composite_2card_8cc.html" target="_top" xlink:title="src/structural/src\l/composite/card.cc">
<polygon fill="white" stroke="black" points="0,-6 0,-36 100,-36 100,-6 0,-6"/>
<text text-anchor="start" x="8" y="-24" font-family="Helvetica,sans-Serif" font-size="10.00">src/structural/src</text>
<text text-anchor="middle" x="50" y="-13" font-family="Helvetica,sans-Serif" font-size="10.00">/composite/card.cc</text>
</a>
</g>
</g>
<!-- Node1&#45;&gt;Node2 -->
<g id="edge1" class="edge"><title>Node1&#45;&gt;Node2</title>
<path fill="none" stroke="midnightblue" d="M95.7451,-70.8641C85.2133,-59.6142 72.6353,-46.1786 63.3362,-36.2455"/>
<polygon fill="midnightblue" stroke="midnightblue" points="93.2546,-73.325 102.644,-78.2333 98.3647,-68.541 93.2546,-73.325"/>
</g>
<!-- Node3 -->
<g id="node3" class="node"><title>Node3</title>
<g id="a_node3"><a xlink:href="../../d3/dcb/composite__test_8cc.html" target="_top" xlink:title="src/structural_tests\l/src/composite/composite\l_test.cc">
<polygon fill="white" stroke="black" points="118.5,-0.5 118.5,-41.5 247.5,-41.5 247.5,-0.5 118.5,-0.5"/>
<text text-anchor="start" x="126.5" y="-29.5" font-family="Helvetica,sans-Serif" font-size="10.00">src/structural_tests</text>
<text text-anchor="start" x="126.5" y="-18.5" font-family="Helvetica,sans-Serif" font-size="10.00">/src/composite/composite</text>
<text text-anchor="middle" x="183" y="-7.5" font-family="Helvetica,sans-Serif" font-size="10.00">_test.cc</text>
</a>
</g>
</g>
<!-- Node1&#45;&gt;Node3 -->
<g id="edge2" class="edge"><title>Node1&#45;&gt;Node3</title>
<path fill="none" stroke="midnightblue" d="M136.602,-70.8213C145.467,-61.4941 155.753,-50.6707 164.384,-41.5884"/>
<polygon fill="midnightblue" stroke="midnightblue" points="133.91,-68.5734 129.558,-78.2333 138.984,-73.3956 133.91,-68.5734"/>
</g>
</g>
</svg>
