<?xml version="1.0" encoding="UTF-8" standalone="no"?>
<!DOCTYPE svg PUBLIC "-//W3C//DTD SVG 1.1//EN"
 "http://www.w3.org/Graphics/SVG/1.1/DTD/svg11.dtd">
<!-- Generated by graphviz version 2.38.0 (20140413.2041)
 -->
<!-- Title: src/operational/src/chain/button.cc Pages: 1 -->
<svg width="215pt" height="207pt"
 viewBox="0.00 0.00 215.00 207.00" xmlns="http://www.w3.org/2000/svg" xmlns:xlink="http://www.w3.org/1999/xlink">
<g id="graph0" class="graph" transform="scale(1 1) rotate(0) translate(4 203)">
<title>src/operational/src/chain/button.cc</title>
<polygon fill="white" stroke="none" points="-4,4 -4,-203 211,-203 211,4 -4,4"/>
<!-- Node1 -->
<g id="node1" class="node"><title>Node1</title>
<polygon fill="#bfbfbf" stroke="black" points="97.5,-168.5 97.5,-198.5 194.5,-198.5 194.5,-168.5 97.5,-168.5"/>
<text text-anchor="start" x="105.5" y="-186.5" font-family="Helvetica,sans-Serif" font-size="10.00">src/operational/src</text>
<text text-anchor="middle" x="146" y="-175.5" font-family="Helvetica,sans-Serif" font-size="10.00">/chain/button.cc</text>
</g>
<!-- Node2 -->
<g id="node2" class="node"><title>Node2</title>
<g id="a_node2"><a xlink:href="../../d7/d0e/button_8h.html" target="_top" xlink:title="button.h">
<polygon fill="white" stroke="black" points="85,-112.5 85,-131.5 137,-131.5 137,-112.5 85,-112.5"/>
<text text-anchor="middle" x="111" y="-119.5" font-family="Helvetica,sans-Serif" font-size="10.00">button.h</text>
</a>
</g>
</g>
<!-- Node1&#45;&gt;Node2 -->
<g id="edge1" class="edge"><title>Node1&#45;&gt;Node2</title>
<path fill="none" stroke="midnightblue" d="M137.705,-168.399C132.777,-160.021 126.486,-149.327 121.249,-140.423"/>
<polygon fill="midnightblue" stroke="midnightblue" points="124.18,-138.503 116.093,-131.658 118.146,-142.052 124.18,-138.503"/>
</g>
<!-- Node6 -->
<g id="node6" class="node"><title>Node6</title>
<polygon fill="white" stroke="#bfbfbf" points="155,-112.5 155,-131.5 207,-131.5 207,-112.5 155,-112.5"/>
<text text-anchor="middle" x="181" y="-119.5" font-family="Helvetica,sans-Serif" font-size="10.00">sstream</text>
</g>
<!-- Node1&#45;&gt;Node6 -->
<g id="edge5" class="edge"><title>Node1&#45;&gt;Node6</title>
<path fill="none" stroke="midnightblue" d="M154.295,-168.399C159.223,-160.021 165.514,-149.327 170.751,-140.423"/>
<polygon fill="midnightblue" stroke="midnightblue" points="173.854,-142.052 175.907,-131.658 167.82,-138.503 173.854,-142.052"/>
</g>
<!-- Node3 -->
<g id="node3" class="node"><title>Node3</title>
<g id="a_node3"><a xlink:href="../../df/d65/widget_8h.html" target="_top" xlink:title="widget.h">
<polygon fill="white" stroke="black" points="84.5,-56.5 84.5,-75.5 137.5,-75.5 137.5,-56.5 84.5,-56.5"/>
<text text-anchor="middle" x="111" y="-63.5" font-family="Helvetica,sans-Serif" font-size="10.00">widget.h</text>
</a>
</g>
</g>
<!-- Node2&#45;&gt;Node3 -->
<g id="edge2" class="edge"><title>Node2&#45;&gt;Node3</title>
<path fill="none" stroke="midnightblue" d="M111,-112.083C111,-105.006 111,-94.8611 111,-85.9865"/>
<polygon fill="midnightblue" stroke="midnightblue" points="114.5,-85.751 111,-75.7511 107.5,-85.7511 114.5,-85.751"/>
</g>
<!-- Node4 -->
<g id="node4" class="node"><title>Node4</title>
<g id="a_node4"><a xlink:href="../../df/d85/help__handler__interface_8h.html" target="_top" xlink:title="help_handler_interface.h">
<polygon fill="white" stroke="black" points="0,-0.5 0,-19.5 122,-19.5 122,-0.5 0,-0.5"/>
<text text-anchor="middle" x="61" y="-7.5" font-family="Helvetica,sans-Serif" font-size="10.00">help_handler_interface.h</text>
</a>
</g>
</g>
<!-- Node3&#45;&gt;Node4 -->
<g id="edge3" class="edge"><title>Node3&#45;&gt;Node4</title>
<path fill="none" stroke="midnightblue" d="M102.744,-56.083C95.5353,-48.2982 84.8902,-36.8015 76.1542,-27.3665"/>
<polygon fill="midnightblue" stroke="midnightblue" points="78.4651,-24.7108 69.1028,-19.7511 73.3288,-29.4666 78.4651,-24.7108"/>
</g>
<!-- Node5 -->
<g id="node5" class="node"><title>Node5</title>
<polygon fill="white" stroke="#bfbfbf" points="140.5,-0.5 140.5,-19.5 181.5,-19.5 181.5,-0.5 140.5,-0.5"/>
<text text-anchor="middle" x="161" y="-7.5" font-family="Helvetica,sans-Serif" font-size="10.00">string</text>
</g>
<!-- Node3&#45;&gt;Node5 -->
<g id="edge4" class="edge"><title>Node3&#45;&gt;Node5</title>
<path fill="none" stroke="midnightblue" d="M119.256,-56.083C126.465,-48.2982 137.11,-36.8015 145.846,-27.3665"/>
<polygon fill="midnightblue" stroke="midnightblue" points="148.671,-29.4666 152.897,-19.7511 143.535,-24.7108 148.671,-29.4666"/>
</g>
</g>
</svg>
