<?xml version="1.0" encoding="UTF-8" standalone="no"?>
<!DOCTYPE svg PUBLIC "-//W3C//DTD SVG 1.1//EN"
 "http://www.w3.org/Graphics/SVG/1.1/DTD/svg11.dtd">
<!-- Generated by graphviz version 2.38.0 (20140413.2041)
 -->
<!-- Title: operational::chain::Button::HasHelp Pages: 1 -->
<svg width="245pt" height="39pt"
 viewBox="0.00 0.00 245.00 39.00" xmlns="http://www.w3.org/2000/svg" xmlns:xlink="http://www.w3.org/1999/xlink">
<g id="graph0" class="graph" transform="scale(1 1) rotate(0) translate(4 35)">
<title>operational::chain::Button::HasHelp</title>
<polygon fill="white" stroke="none" points="-4,4 -4,-35 241,-35 241,4 -4,4"/>
<!-- Node1 -->
<g id="node1" class="node"><title>Node1</title>
<polygon fill="#bfbfbf" stroke="black" points="0,-0.5 0,-30.5 94,-30.5 94,-0.5 0,-0.5"/>
<text text-anchor="start" x="8" y="-18.5" font-family="Helvetica,sans-Serif" font-size="10.00">operational::chain</text>
<text text-anchor="middle" x="47" y="-7.5" font-family="Helvetica,sans-Serif" font-size="10.00">::Button::HasHelp</text>
</g>
<!-- Node2 -->
<g id="node2" class="node"><title>Node2</title>
<g id="a_node2"><a xlink:href="../../d1/d32/classoperational_1_1chain_1_1_button.html#a9f9b4f4bf0ae2106e31547acb1e90f17" target="_top" xlink:title="operational::chain\l::Button::HandleHelp">
<polygon fill="white" stroke="black" points="130,-0.5 130,-30.5 237,-30.5 237,-0.5 130,-0.5"/>
<text text-anchor="start" x="138" y="-18.5" font-family="Helvetica,sans-Serif" font-size="10.00">operational::chain</text>
<text text-anchor="middle" x="183.5" y="-7.5" font-family="Helvetica,sans-Serif" font-size="10.00">::Button::HandleHelp</text>
</a>
</g>
</g>
<!-- Node1&#45;&gt;Node2 -->
<g id="edge1" class="edge"><title>Node1&#45;&gt;Node2</title>
<path fill="none" stroke="midnightblue" d="M104.359,-15.5C112.74,-15.5 121.353,-15.5 129.659,-15.5"/>
<polygon fill="midnightblue" stroke="midnightblue" points="104.287,-12.0001 94.2873,-15.5 104.287,-19.0001 104.287,-12.0001"/>
</g>
</g>
</svg>
