<?xml version="1.0" encoding="UTF-8" standalone="no"?>
<!DOCTYPE svg PUBLIC "-//W3C//DTD SVG 1.1//EN"
 "http://www.w3.org/Graphics/SVG/1.1/DTD/svg11.dtd">
<!-- Generated by graphviz version 2.38.0 (20140413.2041)
 -->
<!-- Title: operational::chain::Button::HandleHelp Pages: 1 -->
<svg width="408pt" height="170pt"
 viewBox="0.00 0.00 408.00 169.50" xmlns="http://www.w3.org/2000/svg" xmlns:xlink="http://www.w3.org/1999/xlink">
<g id="graph0" class="graph" transform="scale(1 1) rotate(0) translate(4 165.5)">
<title>operational::chain::Button::HandleHelp</title>
<polygon fill="white" stroke="none" points="-4,4 -4,-165.5 404,-165.5 404,4 -4,4"/>
<!-- Node1 -->
<g id="node1" class="node"><title>Node1</title>
<polygon fill="#bfbfbf" stroke="black" points="0,-82 0,-112 107,-112 107,-82 0,-82"/>
<text text-anchor="start" x="8" y="-100" font-family="Helvetica,sans-Serif" font-size="10.00">operational::chain</text>
<text text-anchor="middle" x="53.5" y="-89" font-family="Helvetica,sans-Serif" font-size="10.00">::Button::HandleHelp</text>
</g>
<!-- Node2 -->
<g id="node2" class="node"><title>Node2</title>
<g id="a_node2"><a xlink:href="../../d1/d32/classoperational_1_1chain_1_1_button.html#ac150437f43d02d05a1a9dbe949bb42b6" target="_top" xlink:title="operational::chain\l::Button::HasHelp">
<polygon fill="white" stroke="black" points="150.5,-131 150.5,-161 244.5,-161 244.5,-131 150.5,-131"/>
<text text-anchor="start" x="158.5" y="-149" font-family="Helvetica,sans-Serif" font-size="10.00">operational::chain</text>
<text text-anchor="middle" x="197.5" y="-138" font-family="Helvetica,sans-Serif" font-size="10.00">::Button::HasHelp</text>
</a>
</g>
</g>
<!-- Node1&#45;&gt;Node2 -->
<g id="edge1" class="edge"><title>Node1&#45;&gt;Node2</title>
<path fill="none" stroke="midnightblue" d="M98.2634,-112.101C112.435,-116.992 128.313,-122.471 143.103,-127.574"/>
<polygon fill="midnightblue" stroke="midnightblue" points="142.042,-130.911 152.637,-130.864 144.325,-124.293 142.042,-130.911"/>
</g>
<!-- Node3 -->
<g id="node3" class="node"><title>Node3</title>
<g id="a_node3"><a xlink:href="../../df/d6a/classoperational_1_1chain_1_1_widget.html#acd95702812f9485e557d2368b71cb181" target="_top" xlink:title="operational::chain\l::Widget::name">
<polygon fill="white" stroke="black" points="151,-82 151,-112 244,-112 244,-82 151,-82"/>
<text text-anchor="start" x="159" y="-100" font-family="Helvetica,sans-Serif" font-size="10.00">operational::chain</text>
<text text-anchor="middle" x="197.5" y="-89" font-family="Helvetica,sans-Serif" font-size="10.00">::Widget::name</text>
</a>
</g>
</g>
<!-- Node1&#45;&gt;Node3 -->
<g id="edge2" class="edge"><title>Node1&#45;&gt;Node3</title>
<path fill="none" stroke="midnightblue" d="M107.376,-97C118.132,-97 129.482,-97 140.347,-97"/>
<polygon fill="midnightblue" stroke="midnightblue" points="140.581,-100.5 150.581,-97 140.58,-93.5001 140.581,-100.5"/>
</g>
<!-- Node4 -->
<g id="node4" class="node"><title>Node4</title>
<g id="a_node4"><a xlink:href="../../df/d6a/classoperational_1_1chain_1_1_widget.html#a787c0fbd6eccaa5063b22d9716220ad7" target="_top" xlink:title="operational::chain\l::Widget::HandleHelp">
<polygon fill="white" stroke="black" points="143,-33 143,-63 252,-63 252,-33 143,-33"/>
<text text-anchor="start" x="151" y="-51" font-family="Helvetica,sans-Serif" font-size="10.00">operational::chain</text>
<text text-anchor="middle" x="197.5" y="-40" font-family="Helvetica,sans-Serif" font-size="10.00">::Widget::HandleHelp</text>
</a>
</g>
</g>
<!-- Node1&#45;&gt;Node4 -->
<g id="edge3" class="edge"><title>Node1&#45;&gt;Node4</title>
<path fill="none" stroke="midnightblue" d="M98.2634,-81.8986C112.435,-77.0083 128.313,-71.5293 143.103,-66.4256"/>
<polygon fill="midnightblue" stroke="midnightblue" points="144.325,-69.7065 152.637,-63.1359 142.042,-63.0894 144.325,-69.7065"/>
</g>
<!-- Node5 -->
<g id="node5" class="node"><title>Node5</title>
<g id="a_node5"><a xlink:href="../../df/d6a/classoperational_1_1chain_1_1_widget.html#aac6cc8c0e76c3e4fa9c864b618ad7753" target="_top" xlink:title="operational::chain\l::Widget::HasHelp">
<polygon fill="white" stroke="black" points="296,-61 296,-91 392,-91 392,-61 296,-61"/>
<text text-anchor="start" x="304" y="-79" font-family="Helvetica,sans-Serif" font-size="10.00">operational::chain</text>
<text text-anchor="middle" x="344" y="-68" font-family="Helvetica,sans-Serif" font-size="10.00">::Widget::HasHelp</text>
</a>
</g>
</g>
<!-- Node4&#45;&gt;Node5 -->
<g id="edge4" class="edge"><title>Node4&#45;&gt;Node5</title>
<path fill="none" stroke="midnightblue" d="M252.306,-58.4262C263.242,-60.5451 274.781,-62.7811 285.828,-64.9218"/>
<polygon fill="midnightblue" stroke="midnightblue" points="285.321,-68.3884 295.804,-66.8548 286.652,-61.5163 285.321,-68.3884"/>
</g>
<!-- Node6 -->
<g id="node6" class="node"><title>Node6</title>
<g id="a_node6"><a xlink:href="../../df/dcd/classoperational_1_1chain_1_1_help_handler_interface.html#a297c6b35a5f78502a636714fe48f62ca" target="_top" xlink:title="operational::chain\l::HelpHandlerInterface\l::HandleHelp">
<polygon fill="white" stroke="black" points="288,-0.5 288,-41.5 400,-41.5 400,-0.5 288,-0.5"/>
<text text-anchor="start" x="296" y="-29.5" font-family="Helvetica,sans-Serif" font-size="10.00">operational::chain</text>
<text text-anchor="start" x="296" y="-18.5" font-family="Helvetica,sans-Serif" font-size="10.00">::HelpHandlerInterface</text>
<text text-anchor="middle" x="344" y="-7.5" font-family="Helvetica,sans-Serif" font-size="10.00">::HandleHelp</text>
</a>
</g>
</g>
<!-- Node4&#45;&gt;Node6 -->
<g id="edge5" class="edge"><title>Node4&#45;&gt;Node6</title>
<path fill="none" stroke="midnightblue" d="M252.306,-37.9462C260.611,-36.3944 269.265,-34.7775 277.786,-33.1852"/>
<polygon fill="midnightblue" stroke="midnightblue" points="278.514,-36.61 287.701,-31.3328 277.228,-29.7291 278.514,-36.61"/>
</g>
</g>
</svg>
