<?xml version="1.0" encoding="UTF-8" standalone="no"?>
<!DOCTYPE svg PUBLIC "-//W3C//DTD SVG 1.1//EN"
 "http://www.w3.org/Graphics/SVG/1.1/DTD/svg11.dtd">
<!-- Generated by graphviz version 2.38.0 (20140413.2041)
 -->
<!-- Title: creational::commons::Maze::AddRoom Pages: 1 -->
<svg width="267pt" height="160pt"
 viewBox="0.00 0.00 267.00 159.50" xmlns="http://www.w3.org/2000/svg" xmlns:xlink="http://www.w3.org/1999/xlink">
<g id="graph0" class="graph" transform="scale(1 1) rotate(0) translate(4 155.5)">
<title>creational::commons::Maze::AddRoom</title>
<polygon fill="white" stroke="none" points="-4,4 -4,-155.5 263,-155.5 263,4 -4,4"/>
<!-- Node1 -->
<g id="node1" class="node"><title>Node1</title>
<polygon fill="#bfbfbf" stroke="black" points="0,-55.5 0,-85.5 107,-85.5 107,-55.5 0,-55.5"/>
<text text-anchor="start" x="8" y="-73.5" font-family="Helvetica,sans-Serif" font-size="10.00">creational::commons</text>
<text text-anchor="middle" x="53.5" y="-62.5" font-family="Helvetica,sans-Serif" font-size="10.00">::Maze::AddRoom</text>
</g>
<!-- Node2 -->
<g id="node2" class="node"><title>Node2</title>
<g id="a_node2"><a xlink:href="../../d0/d8c/classcreational_1_1builder_1_1_counting_maze_builder.html#aaf0d29955538f70da13d6da04df5b046" target="_top" xlink:title="creational::builder\l::CountingMazeBuilder\l::BuildRoom">
<polygon fill="white" stroke="black" points="143.5,-110 143.5,-151 258.5,-151 258.5,-110 143.5,-110"/>
<text text-anchor="start" x="151.5" y="-139" font-family="Helvetica,sans-Serif" font-size="10.00">creational::builder</text>
<text text-anchor="start" x="151.5" y="-128" font-family="Helvetica,sans-Serif" font-size="10.00">::CountingMazeBuilder</text>
<text text-anchor="middle" x="201" y="-117" font-family="Helvetica,sans-Serif" font-size="10.00">::BuildRoom</text>
</a>
</g>
</g>
<!-- Node1&#45;&gt;Node2 -->
<g id="edge1" class="edge"><title>Node1&#45;&gt;Node2</title>
<path fill="none" stroke="midnightblue" d="M100.73,-89.5638C116.458,-96.0497 134.103,-103.326 150.105,-109.925"/>
<polygon fill="midnightblue" stroke="midnightblue" points="101.795,-86.2172 91.2158,-85.6405 99.1263,-92.6886 101.795,-86.2172"/>
</g>
<!-- Node3 -->
<g id="node3" class="node"><title>Node3</title>
<g id="a_node3"><a xlink:href="../../d9/dcc/classcreational_1_1builder_1_1_standard_maze_builder.html#a0684d842a56c41eaab9913eb218e4c49" target="_top" xlink:title="creational::builder\l::StandardMazeBuilder\l::BuildRoom">
<polygon fill="white" stroke="black" points="143,-50 143,-91 259,-91 259,-50 143,-50"/>
<text text-anchor="start" x="151" y="-79" font-family="Helvetica,sans-Serif" font-size="10.00">creational::builder</text>
<text text-anchor="start" x="151" y="-68" font-family="Helvetica,sans-Serif" font-size="10.00">::StandardMazeBuilder</text>
<text text-anchor="middle" x="201" y="-57" font-family="Helvetica,sans-Serif" font-size="10.00">::BuildRoom</text>
</a>
</g>
</g>
<!-- Node1&#45;&gt;Node3 -->
<g id="edge2" class="edge"><title>Node1&#45;&gt;Node3</title>
<path fill="none" stroke="midnightblue" d="M117.207,-70.5C125.651,-70.5 134.279,-70.5 142.625,-70.5"/>
<polygon fill="midnightblue" stroke="midnightblue" points="117.029,-67.0001 107.029,-70.5 117.029,-74.0001 117.029,-67.0001"/>
</g>
<!-- Node4 -->
<g id="node4" class="node"><title>Node4</title>
<g id="a_node4"><a xlink:href="../../d7/de2/namespacecreationaltests.html#a2fa80646bb54f58afd8f24d65fd346e2" target="_top" xlink:title="creationaltests::TEST\l_CLASS">
<polygon fill="white" stroke="black" points="146,-0.5 146,-30.5 256,-30.5 256,-0.5 146,-0.5"/>
<text text-anchor="start" x="154" y="-18.5" font-family="Helvetica,sans-Serif" font-size="10.00">creationaltests::TEST</text>
<text text-anchor="middle" x="201" y="-7.5" font-family="Helvetica,sans-Serif" font-size="10.00">_CLASS</text>
</a>
</g>
</g>
<!-- Node1&#45;&gt;Node4 -->
<g id="edge3" class="edge"><title>Node1&#45;&gt;Node4</title>
<path fill="none" stroke="midnightblue" d="M103.666,-51.915C122.106,-44.9445 142.813,-37.1172 160.29,-30.5108"/>
<polygon fill="midnightblue" stroke="midnightblue" points="102.375,-48.6612 94.2585,-55.471 104.85,-55.209 102.375,-48.6612"/>
</g>
</g>
</svg>
