<?xml version="1.0" encoding="UTF-8" standalone="no"?>
<!DOCTYPE svg PUBLIC "-//W3C//DTD SVG 1.1//EN"
 "http://www.w3.org/Graphics/SVG/1.1/DTD/svg11.dtd">
<!-- Generated by graphviz version 2.38.0 (20140413.2041)
 -->
<!-- Title: creational::commons::Maze::Clone Pages: 1 -->
<svg width="273pt" height="100pt"
 viewBox="0.00 0.00 273.00 99.50" xmlns="http://www.w3.org/2000/svg" xmlns:xlink="http://www.w3.org/1999/xlink">
<g id="graph0" class="graph" transform="scale(1 1) rotate(0) translate(4 95.5)">
<title>creational::commons::Maze::Clone</title>
<polygon fill="white" stroke="none" points="-4,4 -4,-95.5 269,-95.5 269,4 -4,4"/>
<!-- Node1 -->
<g id="node1" class="node"><title>Node1</title>
<polygon fill="#bfbfbf" stroke="black" points="0,-27.5 0,-57.5 107,-57.5 107,-27.5 0,-27.5"/>
<text text-anchor="start" x="8" y="-45.5" font-family="Helvetica,sans-Serif" font-size="10.00">creational::commons</text>
<text text-anchor="middle" x="53.5" y="-34.5" font-family="Helvetica,sans-Serif" font-size="10.00">::Maze::Clone</text>
</g>
<!-- Node2 -->
<g id="node2" class="node"><title>Node2</title>
<g id="a_node2"><a xlink:href="../../d9/d21/classcreational_1_1prototype_1_1_maze_prototype_factory.html#a9f6d7bba31aa187175af8546fcacb59f" target="_top" xlink:title="creational::prototype\l::MazePrototypeFactory\l::MakeMaze">
<polygon fill="white" stroke="black" points="143,-50 143,-91 265,-91 265,-50 143,-50"/>
<text text-anchor="start" x="151" y="-79" font-family="Helvetica,sans-Serif" font-size="10.00">creational::prototype</text>
<text text-anchor="start" x="151" y="-68" font-family="Helvetica,sans-Serif" font-size="10.00">::MazePrototypeFactory</text>
<text text-anchor="middle" x="204" y="-57" font-family="Helvetica,sans-Serif" font-size="10.00">::MakeMaze</text>
</a>
</g>
</g>
<!-- Node1&#45;&gt;Node2 -->
<g id="edge1" class="edge"><title>Node1&#45;&gt;Node2</title>
<path fill="none" stroke="midnightblue" d="M117.132,-54.3093C125.634,-55.9125 134.345,-57.555 142.803,-59.1498"/>
<polygon fill="midnightblue" stroke="midnightblue" points="117.749,-50.8641 107.274,-52.4506 116.452,-57.7429 117.749,-50.8641"/>
</g>
<!-- Node3 -->
<g id="node3" class="node"><title>Node3</title>
<g id="a_node3"><a xlink:href="../../d7/de2/namespacecreationaltests.html#a2fa80646bb54f58afd8f24d65fd346e2" target="_top" xlink:title="creationaltests::TEST\l_CLASS">
<polygon fill="white" stroke="black" points="149,-0.5 149,-30.5 259,-30.5 259,-0.5 149,-0.5"/>
<text text-anchor="start" x="157" y="-18.5" font-family="Helvetica,sans-Serif" font-size="10.00">creationaltests::TEST</text>
<text text-anchor="middle" x="204" y="-7.5" font-family="Helvetica,sans-Serif" font-size="10.00">_CLASS</text>
</a>
</g>
</g>
<!-- Node1&#45;&gt;Node3 -->
<g id="edge2" class="edge"><title>Node1&#45;&gt;Node3</title>
<path fill="none" stroke="midnightblue" d="M117.24,-31.0927C127.766,-29.1789 138.608,-27.2076 148.892,-25.3377"/>
<polygon fill="midnightblue" stroke="midnightblue" points="116.486,-27.6723 107.274,-32.9048 117.739,-34.5594 116.486,-27.6723"/>
</g>
</g>
</svg>
