<?xml version="1.0" encoding="UTF-8" standalone="no"?>
<!DOCTYPE svg PUBLIC "-//W3C//DTD SVG 1.1//EN"
 "http://www.w3.org/Graphics/SVG/1.1/DTD/svg11.dtd">
<!-- Generated by graphviz version 2.38.0 (20140413.2041)
 -->
<!-- Title: creational::abstractfactory::EnchantedMazeFactory::MakeRoom Pages: 1 -->
<svg width="308pt" height="50pt"
 viewBox="0.00 0.00 308.00 50.00" xmlns="http://www.w3.org/2000/svg" xmlns:xlink="http://www.w3.org/1999/xlink">
<g id="graph0" class="graph" transform="scale(1 1) rotate(0) translate(4 46)">
<title>creational::abstractfactory::EnchantedMazeFactory::MakeRoom</title>
<polygon fill="white" stroke="none" points="-4,4 -4,-46 304,-46 304,4 -4,4"/>
<!-- Node1 -->
<g id="node1" class="node"><title>Node1</title>
<polygon fill="#bfbfbf" stroke="black" points="0,-0.5 0,-41.5 132,-41.5 132,-0.5 0,-0.5"/>
<text text-anchor="start" x="8" y="-29.5" font-family="Helvetica,sans-Serif" font-size="10.00">creational::abstractfactory</text>
<text text-anchor="start" x="8" y="-18.5" font-family="Helvetica,sans-Serif" font-size="10.00">::EnchantedMazeFactory::</text>
<text text-anchor="middle" x="66" y="-7.5" font-family="Helvetica,sans-Serif" font-size="10.00">MakeRoom</text>
</g>
<!-- Node2 -->
<g id="node2" class="node"><title>Node2</title>
<g id="a_node2"><a xlink:href="../../d5/d32/classcreational_1_1abstractfactory_1_1_enchanted_maze_factory.html#a8dede7a7701792661e370f3591f826b9" target="_top" xlink:title="creational::abstractfactory\l::EnchantedMazeFactory::\lCastSpell">
<polygon fill="white" stroke="black" points="168,-0.5 168,-41.5 300,-41.5 300,-0.5 168,-0.5"/>
<text text-anchor="start" x="176" y="-29.5" font-family="Helvetica,sans-Serif" font-size="10.00">creational::abstractfactory</text>
<text text-anchor="start" x="176" y="-18.5" font-family="Helvetica,sans-Serif" font-size="10.00">::EnchantedMazeFactory::</text>
<text text-anchor="middle" x="234" y="-7.5" font-family="Helvetica,sans-Serif" font-size="10.00">CastSpell</text>
</a>
</g>
</g>
<!-- Node1&#45;&gt;Node2 -->
<g id="edge1" class="edge"><title>Node1&#45;&gt;Node2</title>
<path fill="none" stroke="midnightblue" d="M132.131,-21C140.461,-21 149.044,-21 157.521,-21"/>
<polygon fill="midnightblue" stroke="midnightblue" points="157.784,-24.5001 167.784,-21 157.784,-17.5001 157.784,-24.5001"/>
</g>
</g>
</svg>
