<?xml version="1.0" encoding="UTF-8" standalone="no"?>
<!DOCTYPE svg PUBLIC "-//W3C//DTD SVG 1.1//EN"
 "http://www.w3.org/Graphics/SVG/1.1/DTD/svg11.dtd">
<!-- Generated by graphviz version 2.38.0 (20140413.2041)
 -->
<!-- Title: structural::bridge::WindowInterface Pages: 1 -->
<svg width="230pt" height="386pt"
 viewBox="0.00 0.00 230.00 386.00" xmlns="http://www.w3.org/2000/svg" xmlns:xlink="http://www.w3.org/1999/xlink">
<g id="graph0" class="graph" transform="scale(1 1) rotate(0) translate(4 382)">
<title>structural::bridge::WindowInterface</title>
<polygon fill="white" stroke="none" points="-4,4 -4,-382 226,-382 226,4 -4,4"/>
<!-- Node1 -->
<g id="node1" class="node"><title>Node1</title>
<polygon fill="#bfbfbf" stroke="black" points="62.5,-287.5 62.5,-377.5 171.5,-377.5 171.5,-287.5 62.5,-287.5"/>
<text text-anchor="start" x="70.5" y="-365.5" font-family="Helvetica,sans-Serif" font-size="10.00">structural::bridge</text>
<text text-anchor="middle" x="117" y="-354.5" font-family="Helvetica,sans-Serif" font-size="10.00">::WindowInterface</text>
<polyline fill="none" stroke="black" points="62.5,-347.5 171.5,-347.5 "/>
<text text-anchor="middle" x="117" y="-335.5" font-family="Helvetica,sans-Serif" font-size="10.00"> </text>
<polyline fill="none" stroke="black" points="62.5,-328.5 171.5,-328.5 "/>
<text text-anchor="start" x="70.5" y="-316.5" font-family="Helvetica,sans-Serif" font-size="10.00">+ ~WindowInterface()</text>
<text text-anchor="start" x="70.5" y="-305.5" font-family="Helvetica,sans-Serif" font-size="10.00">+ DrawRect()</text>
<text text-anchor="start" x="70.5" y="-294.5" font-family="Helvetica,sans-Serif" font-size="10.00">+ DrawText()</text>
</g>
<!-- Node2 -->
<g id="node2" class="node"><title>Node2</title>
<g id="a_node2"><a xlink:href="../../d5/d3d/classstructural_1_1bridge_1_1_window.html" target="_top" xlink:title="{structural::bridge\l::Window\n||+ Window()\l+ ~Window()\l+ DrawRect()\l+ DrawText()\l# GetWindowImp()\l}">
<polygon fill="white" stroke="black" points="68.5,-138.5 68.5,-250.5 165.5,-250.5 165.5,-138.5 68.5,-138.5"/>
<text text-anchor="start" x="76.5" y="-238.5" font-family="Helvetica,sans-Serif" font-size="10.00">structural::bridge</text>
<text text-anchor="middle" x="117" y="-227.5" font-family="Helvetica,sans-Serif" font-size="10.00">::Window</text>
<polyline fill="none" stroke="black" points="68.5,-220.5 165.5,-220.5 "/>
<text text-anchor="middle" x="117" y="-208.5" font-family="Helvetica,sans-Serif" font-size="10.00"> </text>
<polyline fill="none" stroke="black" points="68.5,-201.5 165.5,-201.5 "/>
<text text-anchor="start" x="76.5" y="-189.5" font-family="Helvetica,sans-Serif" font-size="10.00">+ Window()</text>
<text text-anchor="start" x="76.5" y="-178.5" font-family="Helvetica,sans-Serif" font-size="10.00">+ ~Window()</text>
<text text-anchor="start" x="76.5" y="-167.5" font-family="Helvetica,sans-Serif" font-size="10.00">+ DrawRect()</text>
<text text-anchor="start" x="76.5" y="-156.5" font-family="Helvetica,sans-Serif" font-size="10.00">+ DrawText()</text>
<text text-anchor="start" x="76.5" y="-145.5" font-family="Helvetica,sans-Serif" font-size="10.00"># GetWindowImp()</text>
</a>
</g>
</g>
<!-- Node1&#45;&gt;Node2 -->
<g id="edge1" class="edge"><title>Node1&#45;&gt;Node2</title>
<path fill="none" stroke="midnightblue" d="M117,-277.312C117,-268.611 117,-259.595 117,-250.867"/>
<polygon fill="none" stroke="midnightblue" points="113.5,-277.345 117,-287.345 120.5,-277.345 113.5,-277.345"/>
</g>
<!-- Node3 -->
<g id="node3" class="node"><title>Node3</title>
<g id="a_node3"><a xlink:href="../../d0/dbf/classstructural_1_1bridge_1_1_application_window.html" target="_top" xlink:title="{structural::bridge\l::ApplicationWindow\n||+ ApplicationWindow()\l+ DrawText()\l+ DrawTitle()\l}">
<polygon fill="white" stroke="black" points="0,-6 0,-96 114,-96 114,-6 0,-6"/>
<text text-anchor="start" x="8" y="-84" font-family="Helvetica,sans-Serif" font-size="10.00">structural::bridge</text>
<text text-anchor="middle" x="57" y="-73" font-family="Helvetica,sans-Serif" font-size="10.00">::ApplicationWindow</text>
<polyline fill="none" stroke="black" points="0,-66 114,-66 "/>
<text text-anchor="middle" x="57" y="-54" font-family="Helvetica,sans-Serif" font-size="10.00"> </text>
<polyline fill="none" stroke="black" points="0,-47 114,-47 "/>
<text text-anchor="start" x="8" y="-35" font-family="Helvetica,sans-Serif" font-size="10.00">+ ApplicationWindow()</text>
<text text-anchor="start" x="8" y="-24" font-family="Helvetica,sans-Serif" font-size="10.00">+ DrawText()</text>
<text text-anchor="start" x="8" y="-13" font-family="Helvetica,sans-Serif" font-size="10.00">+ DrawTitle()</text>
</a>
</g>
</g>
<!-- Node2&#45;&gt;Node3 -->
<g id="edge2" class="edge"><title>Node2&#45;&gt;Node3</title>
<path fill="none" stroke="midnightblue" d="M89.702,-129.122C84.9877,-118.004 80.1837,-106.675 75.7607,-96.2439"/>
<polygon fill="none" stroke="midnightblue" points="86.5045,-130.547 93.6306,-138.387 92.949,-127.814 86.5045,-130.547"/>
</g>
<!-- Node4 -->
<g id="node4" class="node"><title>Node4</title>
<g id="a_node4"><a xlink:href="../../dc/d25/classstructural_1_1bridge_1_1_icon_window.html" target="_top" xlink:title="{structural::bridge\l::IconWindow\n||+ IconWindow()\l+ ~IconWindow()\l+ DrawText()\l+ DrawIcon()\l}">
<polygon fill="white" stroke="black" points="132,-0.5 132,-101.5 222,-101.5 222,-0.5 132,-0.5"/>
<text text-anchor="start" x="140" y="-89.5" font-family="Helvetica,sans-Serif" font-size="10.00">structural::bridge</text>
<text text-anchor="middle" x="177" y="-78.5" font-family="Helvetica,sans-Serif" font-size="10.00">::IconWindow</text>
<polyline fill="none" stroke="black" points="132,-71.5 222,-71.5 "/>
<text text-anchor="middle" x="177" y="-59.5" font-family="Helvetica,sans-Serif" font-size="10.00"> </text>
<polyline fill="none" stroke="black" points="132,-52.5 222,-52.5 "/>
<text text-anchor="start" x="140" y="-40.5" font-family="Helvetica,sans-Serif" font-size="10.00">+ IconWindow()</text>
<text text-anchor="start" x="140" y="-29.5" font-family="Helvetica,sans-Serif" font-size="10.00">+ ~IconWindow()</text>
<text text-anchor="start" x="140" y="-18.5" font-family="Helvetica,sans-Serif" font-size="10.00">+ DrawText()</text>
<text text-anchor="start" x="140" y="-7.5" font-family="Helvetica,sans-Serif" font-size="10.00">+ DrawIcon()</text>
</a>
</g>
</g>
<!-- Node2&#45;&gt;Node4 -->
<g id="edge3" class="edge"><title>Node2&#45;&gt;Node4</title>
<path fill="none" stroke="midnightblue" d="M144.383,-128.922C148.265,-119.766 152.206,-110.472 155.944,-101.658"/>
<polygon fill="none" stroke="midnightblue" points="141.051,-127.814 140.369,-138.387 147.496,-130.547 141.051,-127.814"/>
</g>
</g>
</svg>
