<?xml version="1.0" encoding="UTF-8" standalone="no"?>
<!DOCTYPE svg PUBLIC "-//W3C//DTD SVG 1.1//EN"
 "http://www.w3.org/Graphics/SVG/1.1/DTD/svg11.dtd">
<!-- Generated by graphviz version 2.38.0 (20140413.2041)
 -->
<!-- Title: operational::interpreter::BooleanExpInterface::Evaluate Pages: 1 -->
<svg width="278pt" height="186pt"
 viewBox="0.00 0.00 278.00 186.00" xmlns="http://www.w3.org/2000/svg" xmlns:xlink="http://www.w3.org/1999/xlink">
<g id="graph0" class="graph" transform="scale(1 1) rotate(0) translate(4 182)">
<title>operational::interpreter::BooleanExpInterface::Evaluate</title>
<polygon fill="white" stroke="none" points="-4,4 -4,-182 274,-182 274,4 -4,4"/>
<!-- Node1 -->
<g id="node1" class="node"><title>Node1</title>
<polygon fill="#bfbfbf" stroke="black" points="0,-68 0,-109 118,-109 118,-68 0,-68"/>
<text text-anchor="start" x="8" y="-97" font-family="Helvetica,sans-Serif" font-size="10.00">operational::interpreter</text>
<text text-anchor="start" x="8" y="-86" font-family="Helvetica,sans-Serif" font-size="10.00">::BooleanExpInterface::</text>
<text text-anchor="middle" x="59" y="-75" font-family="Helvetica,sans-Serif" font-size="10.00">Evaluate</text>
</g>
<!-- Node2 -->
<g id="node2" class="node"><title>Node2</title>
<g id="a_node2"><a xlink:href="../../d0/d5a/classoperational_1_1interpreter_1_1_and_exp.html#acf1b96c12cb1c9da0a030ccca6c7daba" target="_top" xlink:title="operational::interpreter\l::AndExp::Evaluate">
<polygon fill="white" stroke="black" points="155.5,-147.5 155.5,-177.5 268.5,-177.5 268.5,-147.5 155.5,-147.5"/>
<text text-anchor="start" x="163.5" y="-165.5" font-family="Helvetica,sans-Serif" font-size="10.00">operational::interpreter</text>
<text text-anchor="middle" x="212" y="-154.5" font-family="Helvetica,sans-Serif" font-size="10.00">::AndExp::Evaluate</text>
</a>
</g>
</g>
<!-- Node1&#45;&gt;Node2 -->
<g id="edge1" class="edge"><title>Node1&#45;&gt;Node2</title>
<path fill="none" stroke="midnightblue" d="M106.238,-114.162C121.319,-122.243 138.239,-131.009 154,-138.5 160.4,-141.542 167.289,-144.611 173.989,-147.49"/>
<polygon fill="midnightblue" stroke="midnightblue" points="107.575,-110.906 97.113,-109.236 104.25,-117.066 107.575,-110.906"/>
</g>
<!-- Node3 -->
<g id="node3" class="node"><title>Node3</title>
<g id="a_node3"><a xlink:href="../../da/d2d/classoperational_1_1interpreter_1_1_not_exp.html#a7e9c7b006f26a435be2cf11f89910010" target="_top" xlink:title="operational::interpreter\l::NotExp::Evaluate">
<polygon fill="white" stroke="black" points="155.5,-98.5 155.5,-128.5 268.5,-128.5 268.5,-98.5 155.5,-98.5"/>
<text text-anchor="start" x="163.5" y="-116.5" font-family="Helvetica,sans-Serif" font-size="10.00">operational::interpreter</text>
<text text-anchor="middle" x="212" y="-105.5" font-family="Helvetica,sans-Serif" font-size="10.00">::NotExp::Evaluate</text>
</a>
</g>
</g>
<!-- Node1&#45;&gt;Node3 -->
<g id="edge2" class="edge"><title>Node1&#45;&gt;Node3</title>
<path fill="none" stroke="midnightblue" d="M128.432,-99.8298C137.409,-101.316 146.521,-102.825 155.254,-104.271"/>
<polygon fill="midnightblue" stroke="midnightblue" points="128.818,-96.3461 118.381,-98.1657 127.675,-103.252 128.818,-96.3461"/>
</g>
<!-- Node4 -->
<g id="node4" class="node"><title>Node4</title>
<g id="a_node4"><a xlink:href="../../d2/d75/classoperational_1_1interpreter_1_1_or_exp.html#ad4d4a92ab6d1eb691f59f0e1c779f224" target="_top" xlink:title="operational::interpreter\l::OrExp::Evaluate">
<polygon fill="white" stroke="black" points="155.5,-49.5 155.5,-79.5 268.5,-79.5 268.5,-49.5 155.5,-49.5"/>
<text text-anchor="start" x="163.5" y="-67.5" font-family="Helvetica,sans-Serif" font-size="10.00">operational::interpreter</text>
<text text-anchor="middle" x="212" y="-56.5" font-family="Helvetica,sans-Serif" font-size="10.00">::OrExp::Evaluate</text>
</a>
</g>
</g>
<!-- Node1&#45;&gt;Node4 -->
<g id="edge3" class="edge"><title>Node1&#45;&gt;Node4</title>
<path fill="none" stroke="midnightblue" d="M128.432,-77.6234C137.409,-76.1965 146.521,-74.7483 155.254,-73.3603"/>
<polygon fill="midnightblue" stroke="midnightblue" points="127.707,-74.1946 118.381,-79.221 128.806,-81.1078 127.707,-74.1946"/>
</g>
<!-- Node5 -->
<g id="node5" class="node"><title>Node5</title>
<g id="a_node5"><a xlink:href="../../d4/d60/namespaceoperationaltests.html#a039e03c5d64eebc49928494dfb5f86af" target="_top" xlink:title="operationaltests::TEST\l_CLASS">
<polygon fill="white" stroke="black" points="154,-0.5 154,-30.5 270,-30.5 270,-0.5 154,-0.5"/>
<text text-anchor="start" x="162" y="-18.5" font-family="Helvetica,sans-Serif" font-size="10.00">operationaltests::TEST</text>
<text text-anchor="middle" x="212" y="-7.5" font-family="Helvetica,sans-Serif" font-size="10.00">_CLASS</text>
</a>
</g>
</g>
<!-- Node1&#45;&gt;Node5 -->
<g id="edge4" class="edge"><title>Node1&#45;&gt;Node5</title>
<path fill="none" stroke="midnightblue" d="M107.988,-63.3096C122.666,-55.7904 138.917,-47.6509 154,-40.5 161.03,-37.1669 168.615,-33.7312 175.885,-30.5141"/>
<polygon fill="midnightblue" stroke="midnightblue" points="106.366,-60.208 99.077,-67.8967 109.57,-66.4318 106.366,-60.208"/>
</g>
</g>
</svg>
