<?xml version="1.0" encoding="UTF-8" standalone="no"?>
<!DOCTYPE svg PUBLIC "-//W3C//DTD SVG 1.1//EN"
 "http://www.w3.org/Graphics/SVG/1.1/DTD/svg11.dtd">
<!-- Generated by graphviz version 2.38.0 (20140413.2041)
 -->
<!-- Title: operational::interpreter::BooleanExpInterface::Copy Pages: 1 -->
<svg width="300pt" height="235pt"
 viewBox="0.00 0.00 300.00 235.00" xmlns="http://www.w3.org/2000/svg" xmlns:xlink="http://www.w3.org/1999/xlink">
<g id="graph0" class="graph" transform="scale(1 1) rotate(0) translate(4 231)">
<title>operational::interpreter::BooleanExpInterface::Copy</title>
<polygon fill="white" stroke="none" points="-4,4 -4,-231 296,-231 296,4 -4,4"/>
<!-- Node1 -->
<g id="node1" class="node"><title>Node1</title>
<polygon fill="#bfbfbf" stroke="black" points="0,-98.5 0,-128.5 140,-128.5 140,-98.5 0,-98.5"/>
<text text-anchor="start" x="8" y="-116.5" font-family="Helvetica,sans-Serif" font-size="10.00">operational::interpreter</text>
<text text-anchor="middle" x="70" y="-105.5" font-family="Helvetica,sans-Serif" font-size="10.00">::BooleanExpInterface::Copy</text>
</g>
<!-- Node2 -->
<g id="node2" class="node"><title>Node2</title>
<g id="a_node2"><a xlink:href="../../d0/d5a/classoperational_1_1interpreter_1_1_and_exp.html#a6593f0fd9b60030becd205cda29cf4a7" target="_top" xlink:title="operational::interpreter\l::AndExp::Copy">
<polygon fill="white" stroke="black" points="177.5,-196.5 177.5,-226.5 290.5,-226.5 290.5,-196.5 177.5,-196.5"/>
<text text-anchor="start" x="185.5" y="-214.5" font-family="Helvetica,sans-Serif" font-size="10.00">operational::interpreter</text>
<text text-anchor="middle" x="234" y="-203.5" font-family="Helvetica,sans-Serif" font-size="10.00">::AndExp::Copy</text>
</a>
</g>
</g>
<!-- Node1&#45;&gt;Node2 -->
<g id="edge1" class="edge"><title>Node1&#45;&gt;Node2</title>
<path fill="none" stroke="midnightblue" d="M97.8977,-134.901C118.506,-150.681 148.058,-172.009 176,-187.5 181.728,-190.676 187.963,-193.701 194.138,-196.467"/>
<polygon fill="midnightblue" stroke="midnightblue" points="99.9668,-132.076 89.9163,-128.724 95.6825,-137.612 99.9668,-132.076"/>
</g>
<!-- Node3 -->
<g id="node3" class="node"><title>Node3</title>
<g id="a_node3"><a xlink:href="../../db/df2/classoperational_1_1interpreter_1_1_constant.html#a9deddfef244bc22870219a9f20bbb522" target="_top" xlink:title="operational::interpreter\l::Constant::Replace">
<polygon fill="white" stroke="black" points="177.5,-147.5 177.5,-177.5 290.5,-177.5 290.5,-147.5 177.5,-147.5"/>
<text text-anchor="start" x="185.5" y="-165.5" font-family="Helvetica,sans-Serif" font-size="10.00">operational::interpreter</text>
<text text-anchor="middle" x="234" y="-154.5" font-family="Helvetica,sans-Serif" font-size="10.00">::Constant::Replace</text>
</a>
</g>
</g>
<!-- Node1&#45;&gt;Node3 -->
<g id="edge2" class="edge"><title>Node1&#45;&gt;Node3</title>
<path fill="none" stroke="midnightblue" d="M130.884,-131.613C148.106,-136.822 166.698,-142.446 183.238,-147.448"/>
<polygon fill="midnightblue" stroke="midnightblue" points="131.512,-128.147 120.927,-128.601 129.486,-134.847 131.512,-128.147"/>
</g>
<!-- Node4 -->
<g id="node4" class="node"><title>Node4</title>
<g id="a_node4"><a xlink:href="../../da/d2d/classoperational_1_1interpreter_1_1_not_exp.html#a7f9d5aa558029b25b12656fb1bcb222d" target="_top" xlink:title="operational::interpreter\l::NotExp::Copy">
<polygon fill="white" stroke="black" points="177.5,-98.5 177.5,-128.5 290.5,-128.5 290.5,-98.5 177.5,-98.5"/>
<text text-anchor="start" x="185.5" y="-116.5" font-family="Helvetica,sans-Serif" font-size="10.00">operational::interpreter</text>
<text text-anchor="middle" x="234" y="-105.5" font-family="Helvetica,sans-Serif" font-size="10.00">::NotExp::Copy</text>
</a>
</g>
</g>
<!-- Node1&#45;&gt;Node4 -->
<g id="edge3" class="edge"><title>Node1&#45;&gt;Node4</title>
<path fill="none" stroke="midnightblue" d="M150.391,-113.5C159.474,-113.5 168.583,-113.5 177.263,-113.5"/>
<polygon fill="midnightblue" stroke="midnightblue" points="150.173,-110 140.172,-113.5 150.172,-117 150.173,-110"/>
</g>
<!-- Node5 -->
<g id="node5" class="node"><title>Node5</title>
<g id="a_node5"><a xlink:href="../../d2/d75/classoperational_1_1interpreter_1_1_or_exp.html#a9207f5c37358dd81140600ddb7d623c7" target="_top" xlink:title="operational::interpreter\l::OrExp::Copy">
<polygon fill="white" stroke="black" points="177.5,-49.5 177.5,-79.5 290.5,-79.5 290.5,-49.5 177.5,-49.5"/>
<text text-anchor="start" x="185.5" y="-67.5" font-family="Helvetica,sans-Serif" font-size="10.00">operational::interpreter</text>
<text text-anchor="middle" x="234" y="-56.5" font-family="Helvetica,sans-Serif" font-size="10.00">::OrExp::Copy</text>
</a>
</g>
</g>
<!-- Node1&#45;&gt;Node5 -->
<g id="edge4" class="edge"><title>Node1&#45;&gt;Node5</title>
<path fill="none" stroke="midnightblue" d="M130.884,-95.3871C148.106,-90.1778 166.698,-84.5543 183.238,-79.5516"/>
<polygon fill="midnightblue" stroke="midnightblue" points="129.486,-92.1532 120.927,-98.3986 131.512,-98.8534 129.486,-92.1532"/>
</g>
<!-- Node6 -->
<g id="node6" class="node"><title>Node6</title>
<g id="a_node6"><a xlink:href="../../d5/dae/classoperational_1_1interpreter_1_1_variable_exp.html#aa8fa8319967befc7a24ec9cc838ff67e" target="_top" xlink:title="operational::interpreter\l::VariableExp::Replace">
<polygon fill="white" stroke="black" points="176,-0.5 176,-30.5 292,-30.5 292,-0.5 176,-0.5"/>
<text text-anchor="start" x="184" y="-18.5" font-family="Helvetica,sans-Serif" font-size="10.00">operational::interpreter</text>
<text text-anchor="middle" x="234" y="-7.5" font-family="Helvetica,sans-Serif" font-size="10.00">::VariableExp::Replace</text>
</a>
</g>
</g>
<!-- Node1&#45;&gt;Node6 -->
<g id="edge5" class="edge"><title>Node1&#45;&gt;Node6</title>
<path fill="none" stroke="midnightblue" d="M98.3895,-92.2522C119.036,-76.7903 148.418,-55.9439 176,-40.5 182.223,-37.0157 189.026,-33.6664 195.696,-30.6139"/>
<polygon fill="midnightblue" stroke="midnightblue" points="96.2458,-89.4852 90.3804,-98.3083 100.468,-95.0687 96.2458,-89.4852"/>
</g>
</g>
</svg>
