<?xml version="1.0" encoding="UTF-8" standalone="no"?>
<!DOCTYPE svg PUBLIC "-//W3C//DTD SVG 1.1//EN"
 "http://www.w3.org/Graphics/SVG/1.1/DTD/svg11.dtd">
<!-- Generated by graphviz version 2.38.0 (20140413.2041)
 -->
<!-- Title: src/structural/src/facade/token.h Pages: 1 -->
<svg width="294pt" height="240pt"
 viewBox="0.00 0.00 294.00 240.00" xmlns="http://www.w3.org/2000/svg" xmlns:xlink="http://www.w3.org/1999/xlink">
<g id="graph0" class="graph" transform="scale(1 1) rotate(0) translate(4 236)">
<title>src/structural/src/facade/token.h</title>
<polygon fill="white" stroke="none" points="-4,4 -4,-236 290,-236 290,4 -4,4"/>
<!-- Node1 -->
<g id="node1" class="node"><title>Node1</title>
<polygon fill="#bfbfbf" stroke="black" points="133.5,-201.5 133.5,-231.5 223.5,-231.5 223.5,-201.5 133.5,-201.5"/>
<text text-anchor="start" x="141.5" y="-219.5" font-family="Helvetica,sans-Serif" font-size="10.00">src/structural/src</text>
<text text-anchor="middle" x="178.5" y="-208.5" font-family="Helvetica,sans-Serif" font-size="10.00">/facade/token.h</text>
</g>
<!-- Node2 -->
<g id="node2" class="node"><title>Node2</title>
<g id="a_node2"><a xlink:href="../../db/d62/scanner_8h.html" target="_top" xlink:title="src/structural/src\l/facade/scanner.h">
<polygon fill="white" stroke="black" points="76.5,-134.5 76.5,-164.5 170.5,-164.5 170.5,-134.5 76.5,-134.5"/>
<text text-anchor="start" x="84.5" y="-152.5" font-family="Helvetica,sans-Serif" font-size="10.00">src/structural/src</text>
<text text-anchor="middle" x="123.5" y="-141.5" font-family="Helvetica,sans-Serif" font-size="10.00">/facade/scanner.h</text>
</a>
</g>
</g>
<!-- Node1&#45;&gt;Node2 -->
<g id="edge1" class="edge"><title>Node1&#45;&gt;Node2</title>
<path fill="none" stroke="midnightblue" d="M160.084,-193.736C151.947,-184.119 142.614,-173.089 135.411,-164.577"/>
<polygon fill="midnightblue" stroke="midnightblue" points="157.435,-196.023 166.566,-201.396 162.778,-191.501 157.435,-196.023"/>
</g>
<!-- Node7 -->
<g id="node7" class="node"><title>Node7</title>
<g id="a_node7"><a xlink:href="../../d4/d55/token_8cc.html" target="_top" xlink:title="src/structural/src\l/facade/token.cc">
<polygon fill="white" stroke="black" points="188.5,-134.5 188.5,-164.5 278.5,-164.5 278.5,-134.5 188.5,-134.5"/>
<text text-anchor="start" x="196.5" y="-152.5" font-family="Helvetica,sans-Serif" font-size="10.00">src/structural/src</text>
<text text-anchor="middle" x="233.5" y="-141.5" font-family="Helvetica,sans-Serif" font-size="10.00">/facade/token.cc</text>
</a>
</g>
</g>
<!-- Node1&#45;&gt;Node7 -->
<g id="edge7" class="edge"><title>Node1&#45;&gt;Node7</title>
<path fill="none" stroke="midnightblue" d="M196.916,-193.736C205.053,-184.119 214.386,-173.089 221.589,-164.577"/>
<polygon fill="midnightblue" stroke="midnightblue" points="194.222,-191.501 190.434,-201.396 199.565,-196.023 194.222,-191.501"/>
</g>
<!-- Node3 -->
<g id="node3" class="node"><title>Node3</title>
<g id="a_node3"><a xlink:href="../../da/dc6/compiler_8cc.html" target="_top" xlink:title="src/structural/src\l/facade/compiler.cc">
<polygon fill="white" stroke="black" points="0,-0.5 0,-30.5 101,-30.5 101,-0.5 0,-0.5"/>
<text text-anchor="start" x="8" y="-18.5" font-family="Helvetica,sans-Serif" font-size="10.00">src/structural/src</text>
<text text-anchor="middle" x="50.5" y="-7.5" font-family="Helvetica,sans-Serif" font-size="10.00">/facade/compiler.cc</text>
</a>
</g>
</g>
<!-- Node2&#45;&gt;Node3 -->
<g id="edge2" class="edge"><title>Node2&#45;&gt;Node3</title>
<path fill="none" stroke="midnightblue" d="M95.375,-127.862C85.8686,-119.567 76.0222,-109.287 69.5,-98 57.1429,-76.6146 52.819,-47.6919 51.3084,-30.6729"/>
<polygon fill="midnightblue" stroke="midnightblue" points="93.2655,-130.66 103.2,-134.342 97.73,-125.268 93.2655,-130.66"/>
</g>
<!-- Node4 -->
<g id="node4" class="node"><title>Node4</title>
<g id="a_node4"><a xlink:href="../../d5/d36/parser_8h.html" target="_top" xlink:title="src/structural/src\l/facade/parser.h">
<polygon fill="white" stroke="black" points="78.5,-67.5 78.5,-97.5 168.5,-97.5 168.5,-67.5 78.5,-67.5"/>
<text text-anchor="start" x="86.5" y="-85.5" font-family="Helvetica,sans-Serif" font-size="10.00">src/structural/src</text>
<text text-anchor="middle" x="123.5" y="-74.5" font-family="Helvetica,sans-Serif" font-size="10.00">/facade/parser.h</text>
</a>
</g>
</g>
<!-- Node2&#45;&gt;Node4 -->
<g id="edge3" class="edge"><title>Node2&#45;&gt;Node4</title>
<path fill="none" stroke="midnightblue" d="M123.5,-124.108C123.5,-115.154 123.5,-105.323 123.5,-97.5765"/>
<polygon fill="midnightblue" stroke="midnightblue" points="120,-124.396 123.5,-134.396 127,-124.396 120,-124.396"/>
</g>
<!-- Node6 -->
<g id="node6" class="node"><title>Node6</title>
<g id="a_node6"><a xlink:href="../../de/d1e/scanner_8cc.html" target="_top" xlink:title="src/structural/src\l/facade/scanner.cc">
<polygon fill="white" stroke="black" points="187,-67.5 187,-97.5 286,-97.5 286,-67.5 187,-67.5"/>
<text text-anchor="start" x="195" y="-85.5" font-family="Helvetica,sans-Serif" font-size="10.00">src/structural/src</text>
<text text-anchor="middle" x="236.5" y="-74.5" font-family="Helvetica,sans-Serif" font-size="10.00">/facade/scanner.cc</text>
</a>
</g>
</g>
<!-- Node2&#45;&gt;Node6 -->
<g id="edge6" class="edge"><title>Node2&#45;&gt;Node6</title>
<path fill="none" stroke="midnightblue" d="M156.886,-129.296C174.568,-119.125 195.898,-106.855 212.029,-97.5765"/>
<polygon fill="midnightblue" stroke="midnightblue" points="154.942,-126.376 148.019,-134.396 158.433,-132.444 154.942,-126.376"/>
</g>
<!-- Node4&#45;&gt;Node3 -->
<g id="edge4" class="edge"><title>Node4&#45;&gt;Node3</title>
<path fill="none" stroke="midnightblue" d="M100.025,-60.5978C89.0025,-50.7831 76.1558,-39.3442 66.309,-30.5765"/>
<polygon fill="midnightblue" stroke="midnightblue" points="97.8641,-63.3599 107.66,-67.396 102.519,-58.132 97.8641,-63.3599"/>
</g>
<!-- Node5 -->
<g id="node5" class="node"><title>Node5</title>
<g id="a_node5"><a xlink:href="../../dc/dc9/parser_8cc.html" target="_top" xlink:title="src/structural/src\l/facade/parser.cc">
<polygon fill="white" stroke="black" points="119.5,-0.5 119.5,-30.5 211.5,-30.5 211.5,-0.5 119.5,-0.5"/>
<text text-anchor="start" x="127.5" y="-18.5" font-family="Helvetica,sans-Serif" font-size="10.00">src/structural/src</text>
<text text-anchor="middle" x="165.5" y="-7.5" font-family="Helvetica,sans-Serif" font-size="10.00">/facade/parser.cc</text>
</a>
</g>
</g>
<!-- Node4&#45;&gt;Node5 -->
<g id="edge5" class="edge"><title>Node4&#45;&gt;Node5</title>
<path fill="none" stroke="midnightblue" d="M138.124,-58.8669C144.203,-49.4594 151.069,-38.8334 156.404,-30.5765"/>
<polygon fill="midnightblue" stroke="midnightblue" points="135.101,-57.0973 132.613,-67.396 140.98,-60.8963 135.101,-57.0973"/>
</g>
</g>
</svg>
