<?xml version="1.0" encoding="UTF-8" standalone="no"?>
<!DOCTYPE svg PUBLIC "-//W3C//DTD SVG 1.1//EN"
 "http://www.w3.org/Graphics/SVG/1.1/DTD/svg11.dtd">
<!-- Generated by graphviz version 2.38.0 (20140413.2041)
 -->
<!-- Title: src/structural/src/flyweight/column.cc Pages: 1 -->
<svg width="322pt" height="442pt"
 viewBox="0.00 0.00 321.50 442.00" xmlns="http://www.w3.org/2000/svg" xmlns:xlink="http://www.w3.org/1999/xlink">
<g id="graph0" class="graph" transform="scale(1 1) rotate(0) translate(4 438)">
<title>src/structural/src/flyweight/column.cc</title>
<polygon fill="white" stroke="none" points="-4,4 -4,-438 317.5,-438 317.5,4 -4,4"/>
<!-- Node1 -->
<g id="node1" class="node"><title>Node1</title>
<polygon fill="#bfbfbf" stroke="black" points="169,-403.5 169,-433.5 274,-433.5 274,-403.5 169,-403.5"/>
<text text-anchor="start" x="177" y="-421.5" font-family="Helvetica,sans-Serif" font-size="10.00">src/structural/src</text>
<text text-anchor="middle" x="221.5" y="-410.5" font-family="Helvetica,sans-Serif" font-size="10.00">/flyweight/column.cc</text>
</g>
<!-- Node2 -->
<g id="node2" class="node"><title>Node2</title>
<g id="a_node2"><a xlink:href="../../dc/df8/column_8h.html" target="_top" xlink:title="column.h">
<polygon fill="white" stroke="black" points="193.5,-347.5 193.5,-366.5 249.5,-366.5 249.5,-347.5 193.5,-347.5"/>
<text text-anchor="middle" x="221.5" y="-354.5" font-family="Helvetica,sans-Serif" font-size="10.00">column.h</text>
</a>
</g>
</g>
<!-- Node1&#45;&gt;Node2 -->
<g id="edge1" class="edge"><title>Node1&#45;&gt;Node2</title>
<path fill="none" stroke="midnightblue" d="M221.5,-403.399C221.5,-395.466 221.5,-385.458 221.5,-376.858"/>
<polygon fill="midnightblue" stroke="midnightblue" points="225,-376.658 221.5,-366.658 218,-376.658 225,-376.658"/>
</g>
<!-- Node3 -->
<g id="node3" class="node"><title>Node3</title>
<g id="a_node3"><a xlink:href="../../d3/de4/glyph__context_8h.html" target="_top" xlink:title="glyph_context.h">
<polygon fill="white" stroke="black" points="106.5,-235.5 106.5,-254.5 192.5,-254.5 192.5,-235.5 106.5,-235.5"/>
<text text-anchor="middle" x="149.5" y="-242.5" font-family="Helvetica,sans-Serif" font-size="10.00">glyph_context.h</text>
</a>
</g>
</g>
<!-- Node2&#45;&gt;Node3 -->
<g id="edge2" class="edge"><title>Node2&#45;&gt;Node3</title>
<path fill="none" stroke="midnightblue" d="M206.985,-347.471C194.709,-339.528 177.558,-326.586 167.5,-311 158.472,-297.011 153.92,-278.509 151.657,-264.824"/>
<polygon fill="midnightblue" stroke="midnightblue" points="155.088,-264.089 150.246,-254.665 148.155,-265.052 155.088,-264.089"/>
</g>
<!-- Node11 -->
<g id="node11" class="node"><title>Node11</title>
<g id="a_node11"><a xlink:href="../../d2/d07/flyweight_2window_8h.html" target="_top" xlink:title="window.h">
<polygon fill="white" stroke="black" points="257.5,-235.5 257.5,-254.5 313.5,-254.5 313.5,-235.5 257.5,-235.5"/>
<text text-anchor="middle" x="285.5" y="-242.5" font-family="Helvetica,sans-Serif" font-size="10.00">window.h</text>
</a>
</g>
</g>
<!-- Node2&#45;&gt;Node11 -->
<g id="edge11" class="edge"><title>Node2&#45;&gt;Node11</title>
<path fill="none" stroke="midnightblue" d="M236.976,-347.441C249.503,-339.647 266.494,-326.937 275.5,-311 283.487,-296.866 285.686,-278.381 286.064,-264.738"/>
<polygon fill="midnightblue" stroke="midnightblue" points="289.563,-264.61 286.039,-254.619 282.564,-264.627 289.563,-264.61"/>
</g>
<!-- Node12 -->
<g id="node12" class="node"><title>Node12</title>
<g id="a_node12"><a xlink:href="../../df/d3c/glyph__interface_8h.html" target="_top" xlink:title="glyph_interface.h">
<polygon fill="white" stroke="black" points="176.5,-291.5 176.5,-310.5 266.5,-310.5 266.5,-291.5 176.5,-291.5"/>
<text text-anchor="middle" x="221.5" y="-298.5" font-family="Helvetica,sans-Serif" font-size="10.00">glyph_interface.h</text>
</a>
</g>
</g>
<!-- Node2&#45;&gt;Node12 -->
<g id="edge12" class="edge"><title>Node2&#45;&gt;Node12</title>
<path fill="none" stroke="midnightblue" d="M221.5,-347.083C221.5,-340.006 221.5,-329.861 221.5,-320.986"/>
<polygon fill="midnightblue" stroke="midnightblue" points="225,-320.751 221.5,-310.751 218,-320.751 225,-320.751"/>
</g>
<!-- Node4 -->
<g id="node4" class="node"><title>Node4</title>
<g id="a_node4"><a xlink:href="../../d9/d13/btree_8h.html" target="_top" xlink:title="btree.h">
<polygon fill="white" stroke="black" points="126,-179.5 126,-198.5 173,-198.5 173,-179.5 126,-179.5"/>
<text text-anchor="middle" x="149.5" y="-186.5" font-family="Helvetica,sans-Serif" font-size="10.00">btree.h</text>
</a>
</g>
</g>
<!-- Node3&#45;&gt;Node4 -->
<g id="edge3" class="edge"><title>Node3&#45;&gt;Node4</title>
<path fill="none" stroke="midnightblue" d="M149.5,-235.083C149.5,-228.006 149.5,-217.861 149.5,-208.986"/>
<polygon fill="midnightblue" stroke="midnightblue" points="153,-208.751 149.5,-198.751 146,-208.751 153,-208.751"/>
</g>
<!-- Node5 -->
<g id="node5" class="node"><title>Node5</title>
<g id="a_node5"><a xlink:href="../../d9/d67/font_8h.html" target="_top" xlink:title="font.h">
<polygon fill="white" stroke="black" points="201,-118 201,-137 242,-137 242,-118 201,-118"/>
<text text-anchor="middle" x="221.5" y="-125" font-family="Helvetica,sans-Serif" font-size="10.00">font.h</text>
</a>
</g>
</g>
<!-- Node4&#45;&gt;Node5 -->
<g id="edge4" class="edge"><title>Node4&#45;&gt;Node5</title>
<path fill="none" stroke="midnightblue" d="M159.816,-179.475C171.151,-170.108 189.573,-154.884 203.339,-143.508"/>
<polygon fill="midnightblue" stroke="midnightblue" points="205.724,-146.077 211.203,-137.009 201.265,-140.681 205.724,-146.077"/>
</g>
<!-- Node7 -->
<g id="node7" class="node"><title>Node7</title>
<g id="a_node7"><a xlink:href="../../da/d23/list_8h.html" target="_top" xlink:title="../../../operational\l/src/iterator/list.h">
<polygon fill="white" stroke="black" points="92,-112.5 92,-142.5 183,-142.5 183,-112.5 92,-112.5"/>
<text text-anchor="start" x="100" y="-130.5" font-family="Helvetica,sans-Serif" font-size="10.00">../../../operational</text>
<text text-anchor="middle" x="137.5" y="-119.5" font-family="Helvetica,sans-Serif" font-size="10.00">/src/iterator/list.h</text>
</a>
</g>
</g>
<!-- Node4&#45;&gt;Node7 -->
<g id="edge6" class="edge"><title>Node4&#45;&gt;Node7</title>
<path fill="none" stroke="midnightblue" d="M147.781,-179.475C146.353,-172.396 144.25,-161.97 142.318,-152.39"/>
<polygon fill="midnightblue" stroke="midnightblue" points="145.736,-151.634 140.328,-142.523 138.874,-153.018 145.736,-151.634"/>
</g>
<!-- Node6 -->
<g id="node6" class="node"><title>Node6</title>
<polygon fill="white" stroke="#bfbfbf" points="201,-56.5 201,-75.5 242,-75.5 242,-56.5 201,-56.5"/>
<text text-anchor="middle" x="221.5" y="-63.5" font-family="Helvetica,sans-Serif" font-size="10.00">string</text>
</g>
<!-- Node5&#45;&gt;Node6 -->
<g id="edge5" class="edge"><title>Node5&#45;&gt;Node6</title>
<path fill="none" stroke="midnightblue" d="M221.5,-117.975C221.5,-109.58 221.5,-96.4806 221.5,-85.6631"/>
<polygon fill="midnightblue" stroke="midnightblue" points="225,-85.5091 221.5,-75.5091 218,-85.5091 225,-85.5091"/>
</g>
<!-- Node8 -->
<g id="node8" class="node"><title>Node8</title>
<g id="a_node8"><a xlink:href="../../d9/d71/list__iterator_8h.html" target="_top" xlink:title="list_iterator.h">
<polygon fill="white" stroke="black" points="54,-56.5 54,-75.5 127,-75.5 127,-56.5 54,-56.5"/>
<text text-anchor="middle" x="90.5" y="-63.5" font-family="Helvetica,sans-Serif" font-size="10.00">list_iterator.h</text>
</a>
</g>
</g>
<!-- Node7&#45;&gt;Node8 -->
<g id="edge7" class="edge"><title>Node7&#45;&gt;Node8</title>
<path fill="none" stroke="midnightblue" d="M126.362,-112.399C119.532,-103.753 110.755,-92.642 103.594,-83.576"/>
<polygon fill="midnightblue" stroke="midnightblue" points="106.284,-81.3354 97.3389,-75.6578 100.791,-85.6745 106.284,-81.3354"/>
</g>
<!-- Node10 -->
<g id="node10" class="node"><title>Node10</title>
<g id="a_node10"><a xlink:href="../../dd/d8c/list__interface_8h.html" target="_top" xlink:title="list_interface.h">
<polygon fill="white" stroke="black" points="115.5,-0.5 115.5,-19.5 195.5,-19.5 195.5,-0.5 115.5,-0.5"/>
<text text-anchor="middle" x="155.5" y="-7.5" font-family="Helvetica,sans-Serif" font-size="10.00">list_interface.h</text>
</a>
</g>
</g>
<!-- Node7&#45;&gt;Node10 -->
<g id="edge10" class="edge"><title>Node7&#45;&gt;Node10</title>
<path fill="none" stroke="midnightblue" d="M139.707,-112.337C142.95,-91.5271 149.007,-52.6632 152.604,-29.5834"/>
<polygon fill="midnightblue" stroke="midnightblue" points="156.067,-30.0892 154.149,-19.6695 149.151,-29.0112 156.067,-30.0892"/>
</g>
<!-- Node9 -->
<g id="node9" class="node"><title>Node9</title>
<g id="a_node9"><a xlink:href="../../d6/da4/iterator__interface_8h.html" target="_top" xlink:title="iterator_interface.h">
<polygon fill="white" stroke="black" points="0,-0.5 0,-19.5 97,-19.5 97,-0.5 0,-0.5"/>
<text text-anchor="middle" x="48.5" y="-7.5" font-family="Helvetica,sans-Serif" font-size="10.00">iterator_interface.h</text>
</a>
</g>
</g>
<!-- Node8&#45;&gt;Node9 -->
<g id="edge8" class="edge"><title>Node8&#45;&gt;Node9</title>
<path fill="none" stroke="midnightblue" d="M83.5646,-56.083C77.5708,-48.3768 68.7482,-37.0333 61.4524,-27.6531"/>
<polygon fill="midnightblue" stroke="midnightblue" points="64.2086,-25.4958 55.3064,-19.7511 58.6831,-29.7934 64.2086,-25.4958"/>
</g>
<!-- Node8&#45;&gt;Node10 -->
<g id="edge9" class="edge"><title>Node8&#45;&gt;Node10</title>
<path fill="none" stroke="midnightblue" d="M100.943,-56.324C110.646,-48.2631 125.315,-36.0765 137,-26.3695"/>
<polygon fill="midnightblue" stroke="midnightblue" points="139.411,-28.9163 144.867,-19.8339 134.938,-23.532 139.411,-28.9163"/>
</g>
<!-- Node12&#45;&gt;Node3 -->
<g id="edge14" class="edge"><title>Node12&#45;&gt;Node3</title>
<path fill="none" stroke="midnightblue" d="M209.932,-291.324C199.08,-283.185 182.619,-270.839 169.617,-261.087"/>
<polygon fill="midnightblue" stroke="midnightblue" points="171.379,-258.034 161.279,-254.834 167.179,-263.634 171.379,-258.034"/>
</g>
<!-- Node12&#45;&gt;Node5 -->
<g id="edge15" class="edge"><title>Node12&#45;&gt;Node5</title>
<path fill="none" stroke="midnightblue" d="M221.5,-291.26C221.5,-264.651 221.5,-184.215 221.5,-147.338"/>
<polygon fill="midnightblue" stroke="midnightblue" points="225,-147.019 221.5,-137.019 218,-147.019 225,-147.019"/>
</g>
<!-- Node12&#45;&gt;Node11 -->
<g id="edge13" class="edge"><title>Node12&#45;&gt;Node11</title>
<path fill="none" stroke="midnightblue" d="M231.783,-291.324C241.336,-283.263 255.78,-271.077 267.284,-261.369"/>
<polygon fill="midnightblue" stroke="midnightblue" points="269.644,-263.958 275.03,-254.834 265.13,-258.608 269.644,-263.958"/>
</g>
</g>
</svg>
