<?xml version="1.0" encoding="UTF-8" standalone="no"?>
<!DOCTYPE svg PUBLIC "-//W3C//DTD SVG 1.1//EN"
 "http://www.w3.org/Graphics/SVG/1.1/DTD/svg11.dtd">
<!-- Generated by graphviz version 2.38.0 (20140413.2041)
 -->
<!-- Title: src/operational/src/mediator/mediator_button.h Pages: 1 -->
<svg width="340pt" height="195pt"
 viewBox="0.00 0.00 340.00 195.00" xmlns="http://www.w3.org/2000/svg" xmlns:xlink="http://www.w3.org/1999/xlink">
<g id="graph0" class="graph" transform="scale(1 1) rotate(0) translate(4 191)">
<title>src/operational/src/mediator/mediator_button.h</title>
<polygon fill="white" stroke="none" points="-4,4 -4,-191 336,-191 336,4 -4,4"/>
<!-- Node1 -->
<g id="node1" class="node"><title>Node1</title>
<polygon fill="#bfbfbf" stroke="black" points="119.5,-156.5 119.5,-186.5 257.5,-186.5 257.5,-156.5 119.5,-156.5"/>
<text text-anchor="start" x="127.5" y="-174.5" font-family="Helvetica,sans-Serif" font-size="10.00">src/operational/src</text>
<text text-anchor="middle" x="188.5" y="-163.5" font-family="Helvetica,sans-Serif" font-size="10.00">/mediator/mediator_button.h</text>
</g>
<!-- Node2 -->
<g id="node2" class="node"><title>Node2</title>
<g id="a_node2"><a xlink:href="../../d6/d4a/font__dialog__director_8h.html" target="_top" xlink:title="src/operational/src\l/mediator/font_dialog\l_director.h">
<polygon fill="white" stroke="black" points="64,-78.5 64,-119.5 171,-119.5 171,-78.5 64,-78.5"/>
<text text-anchor="start" x="72" y="-107.5" font-family="Helvetica,sans-Serif" font-size="10.00">src/operational/src</text>
<text text-anchor="start" x="72" y="-96.5" font-family="Helvetica,sans-Serif" font-size="10.00">/mediator/font_dialog</text>
<text text-anchor="middle" x="117.5" y="-85.5" font-family="Helvetica,sans-Serif" font-size="10.00">_director.h</text>
</a>
</g>
</g>
<!-- Node1&#45;&gt;Node2 -->
<g id="edge1" class="edge"><title>Node1&#45;&gt;Node2</title>
<path fill="none" stroke="midnightblue" d="M166.949,-149.101C157.492,-139.711 146.466,-128.762 137.227,-119.588"/>
<polygon fill="midnightblue" stroke="midnightblue" points="164.57,-151.671 174.132,-156.233 169.502,-146.704 164.57,-151.671"/>
</g>
<!-- Node5 -->
<g id="node5" class="node"><title>Node5</title>
<g id="a_node5"><a xlink:href="../../d5/d42/mediator__button_8cc.html" target="_top" xlink:title="src/operational/src\l/mediator/mediator_button.cc">
<polygon fill="white" stroke="black" points="189,-84 189,-114 332,-114 332,-84 189,-84"/>
<text text-anchor="start" x="197" y="-102" font-family="Helvetica,sans-Serif" font-size="10.00">src/operational/src</text>
<text text-anchor="middle" x="260.5" y="-91" font-family="Helvetica,sans-Serif" font-size="10.00">/mediator/mediator_button.cc</text>
</a>
</g>
</g>
<!-- Node1&#45;&gt;Node5 -->
<g id="edge4" class="edge"><title>Node1&#45;&gt;Node5</title>
<path fill="none" stroke="midnightblue" d="M210.265,-149.188C221.821,-137.873 235.709,-124.274 245.951,-114.246"/>
<polygon fill="midnightblue" stroke="midnightblue" points="207.767,-146.736 203.07,-156.233 212.664,-151.738 207.767,-146.736"/>
</g>
<!-- Node3 -->
<g id="node3" class="node"><title>Node3</title>
<g id="a_node3"><a xlink:href="../../d6/d8a/font__dialog__director_8cc.html" target="_top" xlink:title="src/operational/src\l/mediator/font_dialog\l_director.cc">
<polygon fill="white" stroke="black" points="0,-0.5 0,-41.5 107,-41.5 107,-0.5 0,-0.5"/>
<text text-anchor="start" x="8" y="-29.5" font-family="Helvetica,sans-Serif" font-size="10.00">src/operational/src</text>
<text text-anchor="start" x="8" y="-18.5" font-family="Helvetica,sans-Serif" font-size="10.00">/mediator/font_dialog</text>
<text text-anchor="middle" x="53.5" y="-7.5" font-family="Helvetica,sans-Serif" font-size="10.00">_director.cc</text>
</a>
</g>
</g>
<!-- Node2&#45;&gt;Node3 -->
<g id="edge2" class="edge"><title>Node2&#45;&gt;Node3</title>
<path fill="none" stroke="midnightblue" d="M94.4491,-70.627C86.3338,-60.9901 77.3835,-50.3617 69.9257,-41.5056"/>
<polygon fill="midnightblue" stroke="midnightblue" points="91.8998,-73.0335 101.018,-78.4281 97.2542,-68.5245 91.8998,-73.0335"/>
</g>
<!-- Node4 -->
<g id="node4" class="node"><title>Node4</title>
<g id="a_node4"><a xlink:href="../../da/d87/mediator__test_8cc.html" target="_top" xlink:title="src/operational_tests\l/src/mediator/mediator\l_test.cc">
<polygon fill="white" stroke="black" points="125.5,-0.5 125.5,-41.5 239.5,-41.5 239.5,-0.5 125.5,-0.5"/>
<text text-anchor="start" x="133.5" y="-29.5" font-family="Helvetica,sans-Serif" font-size="10.00">src/operational_tests</text>
<text text-anchor="start" x="133.5" y="-18.5" font-family="Helvetica,sans-Serif" font-size="10.00">/src/mediator/mediator</text>
<text text-anchor="middle" x="182.5" y="-7.5" font-family="Helvetica,sans-Serif" font-size="10.00">_test.cc</text>
</a>
</g>
</g>
<!-- Node2&#45;&gt;Node4 -->
<g id="edge3" class="edge"><title>Node2&#45;&gt;Node4</title>
<path fill="none" stroke="midnightblue" d="M140.911,-70.627C149.153,-60.9901 158.243,-50.3617 165.818,-41.5056"/>
<polygon fill="midnightblue" stroke="midnightblue" points="138.079,-68.5536 134.239,-78.4281 143.399,-73.1034 138.079,-68.5536"/>
</g>
</g>
</svg>
