<?xml version="1.0" encoding="UTF-8" standalone="no"?>
<!DOCTYPE svg PUBLIC "-//W3C//DTD SVG 1.1//EN"
 "http://www.w3.org/Graphics/SVG/1.1/DTD/svg11.dtd">
<!-- Generated by graphviz version 2.38.0 (20140413.2041)
 -->
<!-- Title: src/structural/src/flyweight/window.h Pages: 1 -->
<svg width="498pt" height="318pt"
 viewBox="0.00 0.00 497.50 318.00" xmlns="http://www.w3.org/2000/svg" xmlns:xlink="http://www.w3.org/1999/xlink">
<g id="graph0" class="graph" transform="scale(1 1) rotate(0) translate(4 314)">
<title>src/structural/src/flyweight/window.h</title>
<polygon fill="white" stroke="none" points="-4,4 -4,-314 493.5,-314 493.5,4 -4,4"/>
<!-- Node1 -->
<g id="node1" class="node"><title>Node1</title>
<polygon fill="#bfbfbf" stroke="black" points="252,-279.5 252,-309.5 352,-309.5 352,-279.5 252,-279.5"/>
<text text-anchor="start" x="260" y="-297.5" font-family="Helvetica,sans-Serif" font-size="10.00">src/structural/src</text>
<text text-anchor="middle" x="302" y="-286.5" font-family="Helvetica,sans-Serif" font-size="10.00">/flyweight/window.h</text>
</g>
<!-- Node2 -->
<g id="node2" class="node"><title>Node2</title>
<g id="a_node2"><a xlink:href="../../df/d3c/glyph__interface_8h.html" target="_top" xlink:title="src/structural/src\l/flyweight/glyph_interface.h">
<polygon fill="white" stroke="black" points="183,-212.5 183,-242.5 317,-242.5 317,-212.5 183,-212.5"/>
<text text-anchor="start" x="191" y="-230.5" font-family="Helvetica,sans-Serif" font-size="10.00">src/structural/src</text>
<text text-anchor="middle" x="250" y="-219.5" font-family="Helvetica,sans-Serif" font-size="10.00">/flyweight/glyph_interface.h</text>
</a>
</g>
</g>
<!-- Node1&#45;&gt;Node2 -->
<g id="edge1" class="edge"><title>Node1&#45;&gt;Node2</title>
<path fill="none" stroke="midnightblue" d="M284.358,-271.447C276.719,-261.899 268.003,-251.004 261.261,-242.577"/>
<polygon fill="midnightblue" stroke="midnightblue" points="281.737,-273.774 290.717,-279.396 287.203,-269.401 281.737,-273.774"/>
</g>
<!-- Node8 -->
<g id="node8" class="node"><title>Node8</title>
<g id="a_node8"><a xlink:href="../../dc/df8/column_8h.html" target="_top" xlink:title="src/structural/src\l/flyweight/column.h">
<polygon fill="white" stroke="black" points="309,-145.5 309,-175.5 409,-175.5 409,-145.5 309,-145.5"/>
<text text-anchor="start" x="317" y="-163.5" font-family="Helvetica,sans-Serif" font-size="10.00">src/structural/src</text>
<text text-anchor="middle" x="359" y="-152.5" font-family="Helvetica,sans-Serif" font-size="10.00">/flyweight/column.h</text>
</a>
</g>
</g>
<!-- Node1&#45;&gt;Node8 -->
<g id="edge13" class="edge"><title>Node1&#45;&gt;Node8</title>
<path fill="none" stroke="midnightblue" d="M313.314,-270.432C317.421,-261.868 322.026,-252.039 326,-243 336.26,-219.663 347.177,-192.091 353.528,-175.74"/>
<polygon fill="midnightblue" stroke="midnightblue" points="310.154,-268.927 308.949,-279.454 316.455,-271.976 310.154,-268.927"/>
</g>
<!-- Node3 -->
<g id="node3" class="node"><title>Node3</title>
<g id="a_node3"><a xlink:href="../../dc/d26/character_8h.html" target="_top" xlink:title="src/structural/src\l/flyweight/character.h">
<polygon fill="white" stroke="black" points="73.5,-145.5 73.5,-175.5 182.5,-175.5 182.5,-145.5 73.5,-145.5"/>
<text text-anchor="start" x="81.5" y="-163.5" font-family="Helvetica,sans-Serif" font-size="10.00">src/structural/src</text>
<text text-anchor="middle" x="128" y="-152.5" font-family="Helvetica,sans-Serif" font-size="10.00">/flyweight/character.h</text>
</a>
</g>
</g>
<!-- Node2&#45;&gt;Node3 -->
<g id="edge2" class="edge"><title>Node2&#45;&gt;Node3</title>
<path fill="none" stroke="midnightblue" d="M214.479,-207.575C195.288,-197.35 171.995,-184.94 154.421,-175.577"/>
<polygon fill="midnightblue" stroke="midnightblue" points="213.057,-210.783 223.528,-212.396 216.348,-204.605 213.057,-210.783"/>
</g>
<!-- Node2&#45;&gt;Node8 -->
<g id="edge7" class="edge"><title>Node2&#45;&gt;Node8</title>
<path fill="none" stroke="midnightblue" d="M282.675,-207.015C299.637,-196.9 319.978,-184.77 335.395,-175.577"/>
<polygon fill="midnightblue" stroke="midnightblue" points="280.448,-204.268 273.651,-212.396 284.033,-210.28 280.448,-204.268"/>
</g>
<!-- Node10 -->
<g id="node10" class="node"><title>Node10</title>
<g id="a_node10"><a xlink:href="../../d4/d6d/row_8h.html" target="_top" xlink:title="src/structural/src\l/flyweight/row.h">
<polygon fill="white" stroke="black" points="201,-145.5 201,-175.5 291,-175.5 291,-145.5 201,-145.5"/>
<text text-anchor="start" x="209" y="-163.5" font-family="Helvetica,sans-Serif" font-size="10.00">src/structural/src</text>
<text text-anchor="middle" x="246" y="-152.5" font-family="Helvetica,sans-Serif" font-size="10.00">/flyweight/row.h</text>
</a>
</g>
</g>
<!-- Node2&#45;&gt;Node10 -->
<g id="edge10" class="edge"><title>Node2&#45;&gt;Node10</title>
<path fill="none" stroke="midnightblue" d="M248.517,-202.403C247.961,-193.37 247.348,-183.408 246.866,-175.577"/>
<polygon fill="midnightblue" stroke="midnightblue" points="245.024,-202.63 249.132,-212.396 252.011,-202.2 245.024,-202.63"/>
</g>
<!-- Node4 -->
<g id="node4" class="node"><title>Node4</title>
<g id="a_node4"><a xlink:href="../../db/d57/character_8cc.html" target="_top" xlink:title="src/structural/src\l/flyweight/character.cc">
<polygon fill="white" stroke="black" points="0,-78.5 0,-108.5 114,-108.5 114,-78.5 0,-78.5"/>
<text text-anchor="start" x="8" y="-96.5" font-family="Helvetica,sans-Serif" font-size="10.00">src/structural/src</text>
<text text-anchor="middle" x="57" y="-85.5" font-family="Helvetica,sans-Serif" font-size="10.00">/flyweight/character.cc</text>
</a>
</g>
</g>
<!-- Node3&#45;&gt;Node4 -->
<g id="edge3" class="edge"><title>Node3&#45;&gt;Node4</title>
<path fill="none" stroke="midnightblue" d="M105.168,-138.598C94.4477,-128.783 81.9529,-117.344 72.3759,-108.577"/>
<polygon fill="midnightblue" stroke="midnightblue" points="102.855,-141.225 112.594,-145.396 107.582,-136.062 102.855,-141.225"/>
</g>
<!-- Node5 -->
<g id="node5" class="node"><title>Node5</title>
<g id="a_node5"><a xlink:href="../../da/dec/glyph__factory_8h.html" target="_top" xlink:title="src/structural/src\l/flyweight/glyph_factory.h">
<polygon fill="white" stroke="black" points="240,-78.5 240,-108.5 366,-108.5 366,-78.5 240,-78.5"/>
<text text-anchor="start" x="248" y="-96.5" font-family="Helvetica,sans-Serif" font-size="10.00">src/structural/src</text>
<text text-anchor="middle" x="303" y="-85.5" font-family="Helvetica,sans-Serif" font-size="10.00">/flyweight/glyph_factory.h</text>
</a>
</g>
</g>
<!-- Node3&#45;&gt;Node5 -->
<g id="edge4" class="edge"><title>Node3&#45;&gt;Node5</title>
<path fill="none" stroke="midnightblue" d="M175.604,-141.819C203.733,-131.371 238.861,-118.323 265.102,-108.577"/>
<polygon fill="midnightblue" stroke="midnightblue" points="174.128,-138.633 165.972,-145.396 176.565,-145.195 174.128,-138.633"/>
</g>
<!-- Node6 -->
<g id="node6" class="node"><title>Node6</title>
<g id="a_node6"><a xlink:href="../../d6/dbd/glyph__factory_8cc.html" target="_top" xlink:title="src/structural/src\l/flyweight/glyph_factory.cc">
<polygon fill="white" stroke="black" points="166.5,-6 166.5,-36 297.5,-36 297.5,-6 166.5,-6"/>
<text text-anchor="start" x="174.5" y="-24" font-family="Helvetica,sans-Serif" font-size="10.00">src/structural/src</text>
<text text-anchor="middle" x="232" y="-13" font-family="Helvetica,sans-Serif" font-size="10.00">/flyweight/glyph_factory.cc</text>
</a>
</g>
</g>
<!-- Node5&#45;&gt;Node6 -->
<g id="edge5" class="edge"><title>Node5&#45;&gt;Node6</title>
<path fill="none" stroke="midnightblue" d="M281.211,-70.8641C269.881,-59.6142 256.35,-46.1786 246.347,-36.2455"/>
<polygon fill="midnightblue" stroke="midnightblue" points="279.07,-73.6708 288.632,-78.2333 284.002,-68.7036 279.07,-73.6708"/>
</g>
<!-- Node7 -->
<g id="node7" class="node"><title>Node7</title>
<g id="a_node7"><a xlink:href="../../dd/d09/flyweight__test_8cc.html" target="_top" xlink:title="src/structural_tests\l/src/flyweight/flyweight\l_test.cc">
<polygon fill="white" stroke="black" points="316,-0.5 316,-41.5 430,-41.5 430,-0.5 316,-0.5"/>
<text text-anchor="start" x="324" y="-29.5" font-family="Helvetica,sans-Serif" font-size="10.00">src/structural_tests</text>
<text text-anchor="start" x="324" y="-18.5" font-family="Helvetica,sans-Serif" font-size="10.00">/src/flyweight/flyweight</text>
<text text-anchor="middle" x="373" y="-7.5" font-family="Helvetica,sans-Serif" font-size="10.00">_test.cc</text>
</a>
</g>
</g>
<!-- Node5&#45;&gt;Node7 -->
<g id="edge6" class="edge"><title>Node5&#45;&gt;Node7</title>
<path fill="none" stroke="midnightblue" d="M324.248,-71.1007C333.571,-61.7107 344.442,-50.7615 353.55,-41.5884"/>
<polygon fill="midnightblue" stroke="midnightblue" points="321.728,-68.671 317.166,-78.2333 326.695,-73.6031 321.728,-68.671"/>
</g>
<!-- Node8&#45;&gt;Node5 -->
<g id="edge9" class="edge"><title>Node8&#45;&gt;Node5</title>
<path fill="none" stroke="midnightblue" d="M340.25,-137.736C331.964,-128.119 322.461,-117.089 315.127,-108.577"/>
<polygon fill="midnightblue" stroke="midnightblue" points="337.67,-140.104 346.849,-145.396 342.973,-135.535 337.67,-140.104"/>
</g>
<!-- Node9 -->
<g id="node9" class="node"><title>Node9</title>
<g id="a_node9"><a xlink:href="../../de/de6/column_8cc.html" target="_top" xlink:title="src/structural/src\l/flyweight/column.cc">
<polygon fill="white" stroke="black" points="384.5,-78.5 384.5,-108.5 489.5,-108.5 489.5,-78.5 384.5,-78.5"/>
<text text-anchor="start" x="392.5" y="-96.5" font-family="Helvetica,sans-Serif" font-size="10.00">src/structural/src</text>
<text text-anchor="middle" x="437" y="-85.5" font-family="Helvetica,sans-Serif" font-size="10.00">/flyweight/column.cc</text>
</a>
</g>
</g>
<!-- Node8&#45;&gt;Node9 -->
<g id="edge8" class="edge"><title>Node8&#45;&gt;Node9</title>
<path fill="none" stroke="midnightblue" d="M383.74,-138.883C395.593,-129.005 409.485,-117.429 420.108,-108.577"/>
<polygon fill="midnightblue" stroke="midnightblue" points="381.366,-136.305 375.925,-145.396 385.848,-141.683 381.366,-136.305"/>
</g>
<!-- Node10&#45;&gt;Node5 -->
<g id="edge11" class="edge"><title>Node10&#45;&gt;Node5</title>
<path fill="none" stroke="midnightblue" d="M265.085,-137.736C273.519,-128.119 283.191,-117.089 290.656,-108.577"/>
<polygon fill="midnightblue" stroke="midnightblue" points="262.33,-135.57 258.368,-145.396 267.593,-140.185 262.33,-135.57"/>
</g>
<!-- Node11 -->
<g id="node11" class="node"><title>Node11</title>
<g id="a_node11"><a xlink:href="../../df/d78/row_8cc.html" target="_top" xlink:title="src/structural/src\l/flyweight/row.cc">
<polygon fill="white" stroke="black" points="132,-78.5 132,-108.5 222,-108.5 222,-78.5 132,-78.5"/>
<text text-anchor="start" x="140" y="-96.5" font-family="Helvetica,sans-Serif" font-size="10.00">src/structural/src</text>
<text text-anchor="middle" x="177" y="-85.5" font-family="Helvetica,sans-Serif" font-size="10.00">/flyweight/row.cc</text>
</a>
</g>
</g>
<!-- Node10&#45;&gt;Node11 -->
<g id="edge12" class="edge"><title>Node10&#45;&gt;Node11</title>
<path fill="none" stroke="midnightblue" d="M223.508,-138.311C213.157,-128.561 201.16,-117.259 191.943,-108.577"/>
<polygon fill="midnightblue" stroke="midnightblue" points="221.349,-141.087 231.028,-145.396 226.149,-135.991 221.349,-141.087"/>
</g>
</g>
</svg>
