<?xml version="1.0" encoding="UTF-8" standalone="no"?>
<!DOCTYPE svg PUBLIC "-//W3C//DTD SVG 1.1//EN"
 "http://www.w3.org/Graphics/SVG/1.1/DTD/svg11.dtd">
<!-- Generated by graphviz version 2.38.0 (20140413.2041)
 -->
<!-- Title: operational::visitor::Chassis Pages: 1 -->
<svg width="288pt" height="303pt"
 viewBox="0.00 0.00 287.50 303.00" xmlns="http://www.w3.org/2000/svg" xmlns:xlink="http://www.w3.org/1999/xlink">
<g id="graph0" class="graph" transform="scale(1 1) rotate(0) translate(4 299)">
<title>operational::visitor::Chassis</title>
<polygon fill="white" stroke="none" points="-4,4 -4,-299 283.5,-299 283.5,4 -4,4"/>
<!-- Node1 -->
<g id="node1" class="node"><title>Node1</title>
<polygon fill="#bfbfbf" stroke="black" points="102,-0.5 102,-145.5 197,-145.5 197,-0.5 102,-0.5"/>
<text text-anchor="start" x="110" y="-133.5" font-family="Helvetica,sans-Serif" font-size="10.00">operational::visitor</text>
<text text-anchor="middle" x="149.5" y="-122.5" font-family="Helvetica,sans-Serif" font-size="10.00">::Chassis</text>
<polyline fill="none" stroke="black" points="102,-115.5 197,-115.5 "/>
<text text-anchor="middle" x="149.5" y="-103.5" font-family="Helvetica,sans-Serif" font-size="10.00"> </text>
<polyline fill="none" stroke="black" points="102,-96.5 197,-96.5 "/>
<text text-anchor="start" x="110" y="-84.5" font-family="Helvetica,sans-Serif" font-size="10.00">+ Chassis()</text>
<text text-anchor="start" x="110" y="-73.5" font-family="Helvetica,sans-Serif" font-size="10.00">+ ~Chassis()</text>
<text text-anchor="start" x="110" y="-62.5" font-family="Helvetica,sans-Serif" font-size="10.00">+ name()</text>
<text text-anchor="start" x="110" y="-51.5" font-family="Helvetica,sans-Serif" font-size="10.00">+ price()</text>
<text text-anchor="start" x="110" y="-40.5" font-family="Helvetica,sans-Serif" font-size="10.00">+ price()</text>
<text text-anchor="start" x="110" y="-29.5" font-family="Helvetica,sans-Serif" font-size="10.00">+ GetPrice()</text>
<text text-anchor="start" x="110" y="-18.5" font-family="Helvetica,sans-Serif" font-size="10.00">+ Accept()</text>
<text text-anchor="start" x="110" y="-7.5" font-family="Helvetica,sans-Serif" font-size="10.00">+ AddPart()</text>
</g>
<!-- Node2 -->
<g id="node2" class="node"><title>Node2</title>
<g id="a_node2"><a xlink:href="../../d3/d47/classoperational_1_1visitor_1_1_visited_equipment_interface.html" target="_top" xlink:title="{operational::visitor\l::VisitedEquipmentInterface\n||+ ~VisitedEquipmentInterface()\l+ name()\l+ price()\l+ price()\l+ Accept()\l}">
<polygon fill="white" stroke="black" points="0,-182.5 0,-294.5 151,-294.5 151,-182.5 0,-182.5"/>
<text text-anchor="start" x="8" y="-282.5" font-family="Helvetica,sans-Serif" font-size="10.00">operational::visitor</text>
<text text-anchor="middle" x="75.5" y="-271.5" font-family="Helvetica,sans-Serif" font-size="10.00">::VisitedEquipmentInterface</text>
<polyline fill="none" stroke="black" points="0,-264.5 151,-264.5 "/>
<text text-anchor="middle" x="75.5" y="-252.5" font-family="Helvetica,sans-Serif" font-size="10.00"> </text>
<polyline fill="none" stroke="black" points="0,-245.5 151,-245.5 "/>
<text text-anchor="start" x="8" y="-233.5" font-family="Helvetica,sans-Serif" font-size="10.00">+ ~VisitedEquipmentInterface()</text>
<text text-anchor="start" x="8" y="-222.5" font-family="Helvetica,sans-Serif" font-size="10.00">+ name()</text>
<text text-anchor="start" x="8" y="-211.5" font-family="Helvetica,sans-Serif" font-size="10.00">+ price()</text>
<text text-anchor="start" x="8" y="-200.5" font-family="Helvetica,sans-Serif" font-size="10.00">+ price()</text>
<text text-anchor="start" x="8" y="-189.5" font-family="Helvetica,sans-Serif" font-size="10.00">+ Accept()</text>
</a>
</g>
</g>
<!-- Node2&#45;&gt;Node1 -->
<g id="edge1" class="edge"><title>Node2&#45;&gt;Node1</title>
<path fill="none" stroke="midnightblue" d="M104.737,-172.903C108.805,-163.914 113.005,-154.635 117.127,-145.528"/>
<polygon fill="none" stroke="midnightblue" points="101.488,-171.593 100.553,-182.146 107.865,-174.479 101.488,-171.593"/>
</g>
<!-- Node3 -->
<g id="node3" class="node"><title>Node3</title>
<g id="a_node3"><a xlink:href="../../d2/de1/classoperational_1_1visitor_1_1_chassis_interface.html" target="_top" xlink:title="{operational::visitor\l::ChassisInterface\n||+ ~ChassisInterface()\l+ GetPrice()\l}">
<polygon fill="white" stroke="black" points="169.5,-199 169.5,-278 279.5,-278 279.5,-199 169.5,-199"/>
<text text-anchor="start" x="177.5" y="-266" font-family="Helvetica,sans-Serif" font-size="10.00">operational::visitor</text>
<text text-anchor="middle" x="224.5" y="-255" font-family="Helvetica,sans-Serif" font-size="10.00">::ChassisInterface</text>
<polyline fill="none" stroke="black" points="169.5,-248 279.5,-248 "/>
<text text-anchor="middle" x="224.5" y="-236" font-family="Helvetica,sans-Serif" font-size="10.00"> </text>
<polyline fill="none" stroke="black" points="169.5,-229 279.5,-229 "/>
<text text-anchor="start" x="177.5" y="-217" font-family="Helvetica,sans-Serif" font-size="10.00">+ ~ChassisInterface()</text>
<text text-anchor="start" x="177.5" y="-206" font-family="Helvetica,sans-Serif" font-size="10.00">+ GetPrice()</text>
</a>
</g>
</g>
<!-- Node3&#45;&gt;Node1 -->
<g id="edge2" class="edge"><title>Node3&#45;&gt;Node1</title>
<path fill="none" stroke="midnightblue" d="M202.498,-189.535C196.211,-175.83 189.219,-160.588 182.43,-145.788"/>
<polygon fill="none" stroke="midnightblue" points="199.375,-191.123 206.726,-198.753 205.738,-188.204 199.375,-191.123"/>
</g>
</g>
</svg>
