<?xml version="1.0" encoding="UTF-8" standalone="no"?>
<!DOCTYPE svg PUBLIC "-//W3C//DTD SVG 1.1//EN"
 "http://www.w3.org/Graphics/SVG/1.1/DTD/svg11.dtd">
<!-- Generated by graphviz version 2.38.0 (20140413.2041)
 -->
<!-- Title: src/operational/src/state/tcp_closed.h Pages: 1 -->
<svg width="256pt" height="106pt"
 viewBox="0.00 0.00 255.50 106.00" xmlns="http://www.w3.org/2000/svg" xmlns:xlink="http://www.w3.org/1999/xlink">
<g id="graph0" class="graph" transform="scale(1 1) rotate(0) translate(4 102)">
<title>src/operational/src/state/tcp_closed.h</title>
<polygon fill="white" stroke="none" points="-4,4 -4,-102 251.5,-102 251.5,4 -4,4"/>
<!-- Node1 -->
<g id="node1" class="node"><title>Node1</title>
<polygon fill="#bfbfbf" stroke="black" points="68.5,-67.5 68.5,-97.5 168.5,-97.5 168.5,-67.5 68.5,-67.5"/>
<text text-anchor="start" x="76.5" y="-85.5" font-family="Helvetica,sans-Serif" font-size="10.00">src/operational/src</text>
<text text-anchor="middle" x="118.5" y="-74.5" font-family="Helvetica,sans-Serif" font-size="10.00">/state/tcp_closed.h</text>
</g>
<!-- Node2 -->
<g id="node2" class="node"><title>Node2</title>
<g id="a_node2"><a xlink:href="../../df/d43/tcp__closed_8cc.html" target="_top" xlink:title="src/operational/src\l/state/tcp_closed.cc">
<polygon fill="white" stroke="black" points="0,-0.5 0,-30.5 105,-30.5 105,-0.5 0,-0.5"/>
<text text-anchor="start" x="8" y="-18.5" font-family="Helvetica,sans-Serif" font-size="10.00">src/operational/src</text>
<text text-anchor="middle" x="52.5" y="-7.5" font-family="Helvetica,sans-Serif" font-size="10.00">/state/tcp_closed.cc</text>
</a>
</g>
</g>
<!-- Node1&#45;&gt;Node2 -->
<g id="edge1" class="edge"><title>Node1&#45;&gt;Node2</title>
<path fill="none" stroke="midnightblue" d="M96.9855,-60.3115C87.0852,-50.5612 75.6092,-39.259 66.7931,-30.5765"/>
<polygon fill="midnightblue" stroke="midnightblue" points="94.5982,-62.8728 104.179,-67.396 99.51,-57.8853 94.5982,-62.8728"/>
</g>
<!-- Node3 -->
<g id="node3" class="node"><title>Node3</title>
<g id="a_node3"><a xlink:href="../../d6/d12/tcp__connection_8cc.html" target="_top" xlink:title="src/operational/src\l/state/tcp_connection.cc">
<polygon fill="white" stroke="black" points="123.5,-0.5 123.5,-30.5 247.5,-30.5 247.5,-0.5 123.5,-0.5"/>
<text text-anchor="start" x="131.5" y="-18.5" font-family="Helvetica,sans-Serif" font-size="10.00">src/operational/src</text>
<text text-anchor="middle" x="185.5" y="-7.5" font-family="Helvetica,sans-Serif" font-size="10.00">/state/tcp_connection.cc</text>
</a>
</g>
</g>
<!-- Node1&#45;&gt;Node3 -->
<g id="edge2" class="edge"><title>Node1&#45;&gt;Node3</title>
<path fill="none" stroke="midnightblue" d="M140.34,-60.3115C150.391,-50.5612 162.041,-39.259 170.99,-30.5765"/>
<polygon fill="midnightblue" stroke="midnightblue" points="137.778,-57.9207 133.038,-67.396 142.653,-62.9449 137.778,-57.9207"/>
</g>
</g>
</svg>
