<?xml version="1.0" encoding="UTF-8" standalone="no"?>
<!DOCTYPE svg PUBLIC "-//W3C//DTD SVG 1.1//EN"
 "http://www.w3.org/Graphics/SVG/1.1/DTD/svg11.dtd">
<!-- Generated by graphviz version 2.38.0 (20140413.2041)
 -->
<!-- Title: creational::builder::CountingMazeBuilder Pages: 1 -->
<svg width="138pt" height="292pt"
 viewBox="0.00 0.00 138.00 292.00" xmlns="http://www.w3.org/2000/svg" xmlns:xlink="http://www.w3.org/1999/xlink">
<g id="graph0" class="graph" transform="scale(1 1) rotate(0) translate(4 288)">
<title>creational::builder::CountingMazeBuilder</title>
<polygon fill="white" stroke="none" points="-4,4 -4,-288 134,-288 134,4 -4,4"/>
<!-- Node1 -->
<g id="node1" class="node"><title>Node1</title>
<polygon fill="#bfbfbf" stroke="black" points="0,-0.5 0,-134.5 130,-134.5 130,-0.5 0,-0.5"/>
<text text-anchor="start" x="8" y="-122.5" font-family="Helvetica,sans-Serif" font-size="10.00">creational::builder</text>
<text text-anchor="middle" x="65" y="-111.5" font-family="Helvetica,sans-Serif" font-size="10.00">::CountingMazeBuilder</text>
<polyline fill="none" stroke="black" points="0,-104.5 130,-104.5 "/>
<text text-anchor="middle" x="65" y="-92.5" font-family="Helvetica,sans-Serif" font-size="10.00"> </text>
<polyline fill="none" stroke="black" points="0,-85.5 130,-85.5 "/>
<text text-anchor="start" x="8" y="-73.5" font-family="Helvetica,sans-Serif" font-size="10.00">+ CountingMazeBuilder()</text>
<text text-anchor="start" x="8" y="-62.5" font-family="Helvetica,sans-Serif" font-size="10.00">+ ~CountingMazeBuilder()</text>
<text text-anchor="start" x="8" y="-51.5" font-family="Helvetica,sans-Serif" font-size="10.00">+ BuildMaze()</text>
<text text-anchor="start" x="8" y="-40.5" font-family="Helvetica,sans-Serif" font-size="10.00">+ BuildRoom()</text>
<text text-anchor="start" x="8" y="-29.5" font-family="Helvetica,sans-Serif" font-size="10.00">+ BuildDoor()</text>
<text text-anchor="start" x="8" y="-18.5" font-family="Helvetica,sans-Serif" font-size="10.00">+ GetMaze()</text>
<text text-anchor="start" x="8" y="-7.5" font-family="Helvetica,sans-Serif" font-size="10.00">+ GetCounts()</text>
</g>
<!-- Node2 -->
<g id="node2" class="node"><title>Node2</title>
<g id="a_node2"><a xlink:href="../../d6/d66/classcreational_1_1builder_1_1_maze_builder_interface.html" target="_top" xlink:title="{creational::builder\l::MazeBuilderInterface\n||+ ~MazeBuilderInterface()\l+ BuildMaze()\l+ BuildRoom()\l+ BuildDoor()\l+ GetMaze()\l}">
<polygon fill="white" stroke="black" points="1,-171.5 1,-283.5 129,-283.5 129,-171.5 1,-171.5"/>
<text text-anchor="start" x="9" y="-271.5" font-family="Helvetica,sans-Serif" font-size="10.00">creational::builder</text>
<text text-anchor="middle" x="65" y="-260.5" font-family="Helvetica,sans-Serif" font-size="10.00">::MazeBuilderInterface</text>
<polyline fill="none" stroke="black" points="1,-253.5 129,-253.5 "/>
<text text-anchor="middle" x="65" y="-241.5" font-family="Helvetica,sans-Serif" font-size="10.00"> </text>
<polyline fill="none" stroke="black" points="1,-234.5 129,-234.5 "/>
<text text-anchor="start" x="9" y="-222.5" font-family="Helvetica,sans-Serif" font-size="10.00">+ ~MazeBuilderInterface()</text>
<text text-anchor="start" x="9" y="-211.5" font-family="Helvetica,sans-Serif" font-size="10.00">+ BuildMaze()</text>
<text text-anchor="start" x="9" y="-200.5" font-family="Helvetica,sans-Serif" font-size="10.00">+ BuildRoom()</text>
<text text-anchor="start" x="9" y="-189.5" font-family="Helvetica,sans-Serif" font-size="10.00">+ BuildDoor()</text>
<text text-anchor="start" x="9" y="-178.5" font-family="Helvetica,sans-Serif" font-size="10.00">+ GetMaze()</text>
</a>
</g>
</g>
<!-- Node2&#45;&gt;Node1 -->
<g id="edge1" class="edge"><title>Node2&#45;&gt;Node1</title>
<path fill="none" stroke="midnightblue" d="M65,-161.094C65,-152.339 65,-143.354 65,-134.587"/>
<polygon fill="none" stroke="midnightblue" points="61.5001,-161.239 65,-171.239 68.5001,-161.239 61.5001,-161.239"/>
</g>
</g>
</svg>
