<?xml version="1.0" encoding="UTF-8" standalone="no"?>
<!DOCTYPE svg PUBLIC "-//W3C//DTD SVG 1.1//EN"
 "http://www.w3.org/Graphics/SVG/1.1/DTD/svg11.dtd">
<!-- Generated by graphviz version 2.38.0 (20140413.2041)
 -->
<!-- Title: src/operational/src/strategy/compositor_interface.h Pages: 1 -->
<svg width="752pt" height="195pt"
 viewBox="0.00 0.00 752.00 195.00" xmlns="http://www.w3.org/2000/svg" xmlns:xlink="http://www.w3.org/1999/xlink">
<g id="graph0" class="graph" transform="scale(1 1) rotate(0) translate(4 191)">
<title>src/operational/src/strategy/compositor_interface.h</title>
<polygon fill="white" stroke="none" points="-4,4 -4,-191 748,-191 748,4 -4,4"/>
<!-- Node1 -->
<g id="node1" class="node"><title>Node1</title>
<polygon fill="#bfbfbf" stroke="black" points="315,-145.5 315,-186.5 421,-186.5 421,-145.5 315,-145.5"/>
<text text-anchor="start" x="323" y="-174.5" font-family="Helvetica,sans-Serif" font-size="10.00">src/operational/src</text>
<text text-anchor="start" x="323" y="-163.5" font-family="Helvetica,sans-Serif" font-size="10.00">/strategy/compositor</text>
<text text-anchor="middle" x="368" y="-152.5" font-family="Helvetica,sans-Serif" font-size="10.00">_interface.h</text>
</g>
<!-- Node2 -->
<g id="node2" class="node"><title>Node2</title>
<g id="a_node2"><a xlink:href="../../d1/df1/array__compositor_8h.html" target="_top" xlink:title="src/operational/src\l/strategy/array_compositor.h">
<polygon fill="white" stroke="black" points="73.5,-78.5 73.5,-108.5 214.5,-108.5 214.5,-78.5 73.5,-78.5"/>
<text text-anchor="start" x="81.5" y="-96.5" font-family="Helvetica,sans-Serif" font-size="10.00">src/operational/src</text>
<text text-anchor="middle" x="144" y="-85.5" font-family="Helvetica,sans-Serif" font-size="10.00">/strategy/array_compositor.h</text>
</a>
</g>
</g>
<!-- Node1&#45;&gt;Node2 -->
<g id="edge1" class="edge"><title>Node1&#45;&gt;Node2</title>
<path fill="none" stroke="midnightblue" d="M305.213,-145.239C268.166,-133.579 222.151,-119.097 188.777,-108.593"/>
<polygon fill="midnightblue" stroke="midnightblue" points="304.326,-148.629 314.915,-148.292 306.427,-141.952 304.326,-148.629"/>
</g>
<!-- Node5 -->
<g id="node5" class="node"><title>Node5</title>
<g id="a_node5"><a xlink:href="../../de/d5c/composition_8h.html" target="_top" xlink:title="src/operational/src\l/strategy/composition.h">
<polygon fill="white" stroke="black" points="232.5,-78.5 232.5,-108.5 351.5,-108.5 351.5,-78.5 232.5,-78.5"/>
<text text-anchor="start" x="240.5" y="-96.5" font-family="Helvetica,sans-Serif" font-size="10.00">src/operational/src</text>
<text text-anchor="middle" x="292" y="-85.5" font-family="Helvetica,sans-Serif" font-size="10.00">/strategy/composition.h</text>
</a>
</g>
</g>
<!-- Node1&#45;&gt;Node5 -->
<g id="edge4" class="edge"><title>Node1&#45;&gt;Node5</title>
<path fill="none" stroke="midnightblue" d="M339.228,-138.31C328.458,-128.32 316.636,-117.353 307.514,-108.892"/>
<polygon fill="midnightblue" stroke="midnightblue" points="337.118,-141.127 346.83,-145.362 341.879,-135.995 337.118,-141.127"/>
</g>
<!-- Node7 -->
<g id="node7" class="node"><title>Node7</title>
<g id="a_node7"><a xlink:href="../../d8/d05/simple__compositor_8h.html" target="_top" xlink:title="src/operational/src\l/strategy/simple_compositor.h">
<polygon fill="white" stroke="black" points="370,-78.5 370,-108.5 518,-108.5 518,-78.5 370,-78.5"/>
<text text-anchor="start" x="378" y="-96.5" font-family="Helvetica,sans-Serif" font-size="10.00">src/operational/src</text>
<text text-anchor="middle" x="444" y="-85.5" font-family="Helvetica,sans-Serif" font-size="10.00">/strategy/simple_compositor.h</text>
</a>
</g>
</g>
<!-- Node1&#45;&gt;Node7 -->
<g id="edge7" class="edge"><title>Node1&#45;&gt;Node7</title>
<path fill="none" stroke="midnightblue" d="M396.772,-138.31C407.542,-128.32 419.364,-117.353 428.486,-108.892"/>
<polygon fill="midnightblue" stroke="midnightblue" points="394.121,-135.995 389.17,-145.362 398.882,-141.127 394.121,-135.995"/>
</g>
<!-- Node9 -->
<g id="node9" class="node"><title>Node9</title>
<g id="a_node9"><a xlink:href="../../d5/dee/tex__compositor_8h.html" target="_top" xlink:title="src/operational/src\l/strategy/tex_compositor.h">
<polygon fill="white" stroke="black" points="536.5,-78.5 536.5,-108.5 669.5,-108.5 669.5,-78.5 536.5,-78.5"/>
<text text-anchor="start" x="544.5" y="-96.5" font-family="Helvetica,sans-Serif" font-size="10.00">src/operational/src</text>
<text text-anchor="middle" x="603" y="-85.5" font-family="Helvetica,sans-Serif" font-size="10.00">/strategy/tex_compositor.h</text>
</a>
</g>
</g>
<!-- Node1&#45;&gt;Node9 -->
<g id="edge10" class="edge"><title>Node1&#45;&gt;Node9</title>
<path fill="none" stroke="midnightblue" d="M430.808,-146.158C470.214,-134.336 520.183,-119.345 556.13,-108.561"/>
<polygon fill="midnightblue" stroke="midnightblue" points="429.604,-142.865 421.032,-149.091 431.616,-149.569 429.604,-142.865"/>
</g>
<!-- Node3 -->
<g id="node3" class="node"><title>Node3</title>
<g id="a_node3"><a xlink:href="../../d3/d80/array__compositor_8cc.html" target="_top" xlink:title="src/operational/src\l/strategy/array_compositor.cc">
<polygon fill="white" stroke="black" points="0,-6 0,-36 146,-36 146,-6 0,-6"/>
<text text-anchor="start" x="8" y="-24" font-family="Helvetica,sans-Serif" font-size="10.00">src/operational/src</text>
<text text-anchor="middle" x="73" y="-13" font-family="Helvetica,sans-Serif" font-size="10.00">/strategy/array_compositor.cc</text>
</a>
</g>
</g>
<!-- Node2&#45;&gt;Node3 -->
<g id="edge2" class="edge"><title>Node2&#45;&gt;Node3</title>
<path fill="none" stroke="midnightblue" d="M122.211,-70.8641C110.881,-59.6142 97.35,-46.1786 87.3465,-36.2455"/>
<polygon fill="midnightblue" stroke="midnightblue" points="120.07,-73.6708 129.632,-78.2333 125.002,-68.7036 120.07,-73.6708"/>
</g>
<!-- Node4 -->
<g id="node4" class="node"><title>Node4</title>
<g id="a_node4"><a xlink:href="../../d2/dba/strategy__test_8cc.html" target="_top" xlink:title="src/operational_tests\l/src/strategy/strategy\l_test.cc">
<polygon fill="white" stroke="black" points="306,-0.5 306,-41.5 416,-41.5 416,-0.5 306,-0.5"/>
<text text-anchor="start" x="314" y="-29.5" font-family="Helvetica,sans-Serif" font-size="10.00">src/operational_tests</text>
<text text-anchor="start" x="314" y="-18.5" font-family="Helvetica,sans-Serif" font-size="10.00">/src/strategy/strategy</text>
<text text-anchor="middle" x="361" y="-7.5" font-family="Helvetica,sans-Serif" font-size="10.00">_test.cc</text>
</a>
</g>
</g>
<!-- Node2&#45;&gt;Node4 -->
<g id="edge3" class="edge"><title>Node2&#45;&gt;Node4</title>
<path fill="none" stroke="midnightblue" d="M197.068,-75.2589C230.123,-64.5201 272.561,-50.7324 305.977,-39.8763"/>
<polygon fill="midnightblue" stroke="midnightblue" points="195.561,-72.0685 187.132,-78.4872 197.724,-78.726 195.561,-72.0685"/>
</g>
<!-- Node5&#45;&gt;Node4 -->
<g id="edge6" class="edge"><title>Node5&#45;&gt;Node4</title>
<path fill="none" stroke="midnightblue" d="M313.217,-70.8213C322.346,-61.4941 332.939,-50.6707 341.828,-41.5884"/>
<polygon fill="midnightblue" stroke="midnightblue" points="310.456,-68.6384 305.963,-78.2333 315.459,-73.5347 310.456,-68.6384"/>
</g>
<!-- Node6 -->
<g id="node6" class="node"><title>Node6</title>
<g id="a_node6"><a xlink:href="../../dc/d45/composition_8cc.html" target="_top" xlink:title="src/operational/src\l/strategy/composition.cc">
<polygon fill="white" stroke="black" points="164,-6 164,-36 288,-36 288,-6 164,-6"/>
<text text-anchor="start" x="172" y="-24" font-family="Helvetica,sans-Serif" font-size="10.00">src/operational/src</text>
<text text-anchor="middle" x="226" y="-13" font-family="Helvetica,sans-Serif" font-size="10.00">/strategy/composition.cc</text>
</a>
</g>
</g>
<!-- Node5&#45;&gt;Node6 -->
<g id="edge5" class="edge"><title>Node5&#45;&gt;Node6</title>
<path fill="none" stroke="midnightblue" d="M271.745,-70.8641C261.213,-59.6142 248.635,-46.1786 239.336,-36.2455"/>
<polygon fill="midnightblue" stroke="midnightblue" points="269.255,-73.325 278.644,-78.2333 274.365,-68.541 269.255,-73.325"/>
</g>
<!-- Node7&#45;&gt;Node4 -->
<g id="edge9" class="edge"><title>Node7&#45;&gt;Node4</title>
<path fill="none" stroke="midnightblue" d="M419.461,-71.6567C408.263,-62.1451 395.075,-50.9432 384.062,-41.5884"/>
<polygon fill="midnightblue" stroke="midnightblue" points="417.316,-74.427 427.204,-78.2333 421.848,-69.0918 417.316,-74.427"/>
</g>
<!-- Node8 -->
<g id="node8" class="node"><title>Node8</title>
<g id="a_node8"><a xlink:href="../../dd/d2a/simple__compositor_8cc.html" target="_top" xlink:title="src/operational/src\l/strategy/simple_compositor.cc">
<polygon fill="white" stroke="black" points="434.5,-6 434.5,-36 587.5,-36 587.5,-6 434.5,-6"/>
<text text-anchor="start" x="442.5" y="-24" font-family="Helvetica,sans-Serif" font-size="10.00">src/operational/src</text>
<text text-anchor="middle" x="511" y="-13" font-family="Helvetica,sans-Serif" font-size="10.00">/strategy/simple_compositor.cc</text>
</a>
</g>
</g>
<!-- Node7&#45;&gt;Node8 -->
<g id="edge8" class="edge"><title>Node7&#45;&gt;Node8</title>
<path fill="none" stroke="midnightblue" d="M464.562,-70.8641C475.253,-59.6142 488.022,-46.1786 497.462,-36.2455"/>
<polygon fill="midnightblue" stroke="midnightblue" points="461.91,-68.5734 457.558,-78.2333 466.984,-73.3956 461.91,-68.5734"/>
</g>
<!-- Node9&#45;&gt;Node4 -->
<g id="edge12" class="edge"><title>Node9&#45;&gt;Node4</title>
<path fill="none" stroke="midnightblue" d="M542.34,-75.719C507.87,-66.0757 463.946,-53.6076 425,-42 422.099,-41.1355 419.128,-40.2403 416.13,-39.3295"/>
<polygon fill="midnightblue" stroke="midnightblue" points="541.685,-79.1699 552.258,-78.4886 543.568,-72.4278 541.685,-79.1699"/>
</g>
<!-- Node10 -->
<g id="node10" class="node"><title>Node10</title>
<g id="a_node10"><a xlink:href="../../df/d4e/tex__compositor_8cc.html" target="_top" xlink:title="src/operational/src\l/strategy/tex_compositor.cc">
<polygon fill="white" stroke="black" points="606,-6 606,-36 744,-36 744,-6 606,-6"/>
<text text-anchor="start" x="614" y="-24" font-family="Helvetica,sans-Serif" font-size="10.00">src/operational/src</text>
<text text-anchor="middle" x="675" y="-13" font-family="Helvetica,sans-Serif" font-size="10.00">/strategy/tex_compositor.cc</text>
</a>
</g>
</g>
<!-- Node9&#45;&gt;Node10 -->
<g id="edge11" class="edge"><title>Node9&#45;&gt;Node10</title>
<path fill="none" stroke="midnightblue" d="M624.765,-71.188C636.321,-59.8729 650.209,-46.2741 660.451,-36.2455"/>
<polygon fill="midnightblue" stroke="midnightblue" points="622.267,-68.7362 617.57,-78.2333 627.164,-73.7378 622.267,-68.7362"/>
</g>
</g>
</svg>
