<?xml version="1.0" encoding="UTF-8" standalone="no"?>
<!DOCTYPE svg PUBLIC "-//W3C//DTD SVG 1.1//EN"
 "http://www.w3.org/Graphics/SVG/1.1/DTD/svg11.dtd">
<!-- Generated by graphviz version 2.38.0 (20140413.2041)
 -->
<!-- Title: structural::composite::Bus Pages: 1 -->
<svg width="139pt" height="496pt"
 viewBox="0.00 0.00 139.00 496.00" xmlns="http://www.w3.org/2000/svg" xmlns:xlink="http://www.w3.org/1999/xlink">
<g id="graph0" class="graph" transform="scale(1 1) rotate(0) translate(4 492)">
<title>structural::composite::Bus</title>
<polygon fill="white" stroke="none" points="-4,4 -4,-492 135,-492 135,4 -4,4"/>
<!-- Node1 -->
<g id="node1" class="node"><title>Node1</title>
<polygon fill="#bfbfbf" stroke="black" points="0,-0.5 0,-68.5 131,-68.5 131,-0.5 0,-0.5"/>
<text text-anchor="middle" x="65.5" y="-56.5" font-family="Helvetica,sans-Serif" font-size="10.00">structural::composite::Bus</text>
<polyline fill="none" stroke="black" points="0,-49.5 131,-49.5 "/>
<text text-anchor="middle" x="65.5" y="-37.5" font-family="Helvetica,sans-Serif" font-size="10.00"> </text>
<polyline fill="none" stroke="black" points="0,-30.5 131,-30.5 "/>
<text text-anchor="start" x="8" y="-18.5" font-family="Helvetica,sans-Serif" font-size="10.00">+ Bus()</text>
<text text-anchor="start" x="8" y="-7.5" font-family="Helvetica,sans-Serif" font-size="10.00">+ Bus()</text>
</g>
<!-- Node2 -->
<g id="node2" class="node"><title>Node2</title>
<g id="a_node2"><a xlink:href="../../d9/d95/classstructural_1_1composite_1_1_composite_equipment.html" target="_top" xlink:title="{structural::composite\l::CompositeEquipment\n||+ name()\l+ price()\l+ price()\l+ power()\l+ power()\l+ NetPrice()\l+ DiscountPrice()\l+ Add()\l+ Remove()\l+ CreateIterator()\l# CompositeEquipment()\l# CompositeEquipment()\l# ~CompositeEquipment()\l}">
<polygon fill="white" stroke="black" points="0.5,-105.5 0.5,-305.5 130.5,-305.5 130.5,-105.5 0.5,-105.5"/>
<text text-anchor="start" x="8.5" y="-293.5" font-family="Helvetica,sans-Serif" font-size="10.00">structural::composite</text>
<text text-anchor="middle" x="65.5" y="-282.5" font-family="Helvetica,sans-Serif" font-size="10.00">::CompositeEquipment</text>
<polyline fill="none" stroke="black" points="0.5,-275.5 130.5,-275.5 "/>
<text text-anchor="middle" x="65.5" y="-263.5" font-family="Helvetica,sans-Serif" font-size="10.00"> </text>
<polyline fill="none" stroke="black" points="0.5,-256.5 130.5,-256.5 "/>
<text text-anchor="start" x="8.5" y="-244.5" font-family="Helvetica,sans-Serif" font-size="10.00">+ name()</text>
<text text-anchor="start" x="8.5" y="-233.5" font-family="Helvetica,sans-Serif" font-size="10.00">+ price()</text>
<text text-anchor="start" x="8.5" y="-222.5" font-family="Helvetica,sans-Serif" font-size="10.00">+ price()</text>
<text text-anchor="start" x="8.5" y="-211.5" font-family="Helvetica,sans-Serif" font-size="10.00">+ power()</text>
<text text-anchor="start" x="8.5" y="-200.5" font-family="Helvetica,sans-Serif" font-size="10.00">+ power()</text>
<text text-anchor="start" x="8.5" y="-189.5" font-family="Helvetica,sans-Serif" font-size="10.00">+ NetPrice()</text>
<text text-anchor="start" x="8.5" y="-178.5" font-family="Helvetica,sans-Serif" font-size="10.00">+ DiscountPrice()</text>
<text text-anchor="start" x="8.5" y="-167.5" font-family="Helvetica,sans-Serif" font-size="10.00">+ Add()</text>
<text text-anchor="start" x="8.5" y="-156.5" font-family="Helvetica,sans-Serif" font-size="10.00">+ Remove()</text>
<text text-anchor="start" x="8.5" y="-145.5" font-family="Helvetica,sans-Serif" font-size="10.00">+ CreateIterator()</text>
<text text-anchor="start" x="8.5" y="-134.5" font-family="Helvetica,sans-Serif" font-size="10.00"># CompositeEquipment()</text>
<text text-anchor="start" x="8.5" y="-123.5" font-family="Helvetica,sans-Serif" font-size="10.00"># CompositeEquipment()</text>
<text text-anchor="start" x="8.5" y="-112.5" font-family="Helvetica,sans-Serif" font-size="10.00"># ~CompositeEquipment()</text>
</a>
</g>
</g>
<!-- Node2&#45;&gt;Node1 -->
<g id="edge1" class="edge"><title>Node2&#45;&gt;Node1</title>
<path fill="none" stroke="midnightblue" d="M65.5,-94.9218C65.5,-85.5767 65.5,-76.6815 65.5,-68.7534"/>
<polygon fill="none" stroke="midnightblue" points="62.0001,-95.2144 65.5,-105.214 69.0001,-95.2145 62.0001,-95.2144"/>
</g>
<!-- Node3 -->
<g id="node3" class="node"><title>Node3</title>
<g id="a_node3"><a xlink:href="../../df/d68/classstructural_1_1composite_1_1_equipment_interface.html" target="_top" xlink:title="{structural::composite\l::EquipmentInterface\n||+ ~EquipmentInterface()\l+ name()\l+ price()\l+ price()\l+ power()\l+ power()\l+ NetPrice()\l+ DiscountPrice()\l}">
<polygon fill="white" stroke="black" points="5,-342.5 5,-487.5 126,-487.5 126,-342.5 5,-342.5"/>
<text text-anchor="start" x="13" y="-475.5" font-family="Helvetica,sans-Serif" font-size="10.00">structural::composite</text>
<text text-anchor="middle" x="65.5" y="-464.5" font-family="Helvetica,sans-Serif" font-size="10.00">::EquipmentInterface</text>
<polyline fill="none" stroke="black" points="5,-457.5 126,-457.5 "/>
<text text-anchor="middle" x="65.5" y="-445.5" font-family="Helvetica,sans-Serif" font-size="10.00"> </text>
<polyline fill="none" stroke="black" points="5,-438.5 126,-438.5 "/>
<text text-anchor="start" x="13" y="-426.5" font-family="Helvetica,sans-Serif" font-size="10.00">+ ~EquipmentInterface()</text>
<text text-anchor="start" x="13" y="-415.5" font-family="Helvetica,sans-Serif" font-size="10.00">+ name()</text>
<text text-anchor="start" x="13" y="-404.5" font-family="Helvetica,sans-Serif" font-size="10.00">+ price()</text>
<text text-anchor="start" x="13" y="-393.5" font-family="Helvetica,sans-Serif" font-size="10.00">+ price()</text>
<text text-anchor="start" x="13" y="-382.5" font-family="Helvetica,sans-Serif" font-size="10.00">+ power()</text>
<text text-anchor="start" x="13" y="-371.5" font-family="Helvetica,sans-Serif" font-size="10.00">+ power()</text>
<text text-anchor="start" x="13" y="-360.5" font-family="Helvetica,sans-Serif" font-size="10.00">+ NetPrice()</text>
<text text-anchor="start" x="13" y="-349.5" font-family="Helvetica,sans-Serif" font-size="10.00">+ DiscountPrice()</text>
</a>
</g>
</g>
<!-- Node3&#45;&gt;Node2 -->
<g id="edge2" class="edge"><title>Node3&#45;&gt;Node2</title>
<path fill="none" stroke="midnightblue" d="M65.5,-332.186C65.5,-323.473 65.5,-314.544 65.5,-305.659"/>
<polygon fill="none" stroke="midnightblue" points="62.0001,-332.3 65.5,-342.3 69.0001,-332.3 62.0001,-332.3"/>
</g>
</g>
</svg>
