<?xml version="1.0" encoding="UTF-8" standalone="no"?>
<!DOCTYPE svg PUBLIC "-//W3C//DTD SVG 1.1//EN"
 "http://www.w3.org/Graphics/SVG/1.1/DTD/svg11.dtd">
<!-- Generated by graphviz version 2.38.0 (20140413.2041)
 -->
<!-- Title: src/structural/src/flyweight/glyph_factory.cc Pages: 1 -->
<!--zoomable 498 -->
<svg id="main" version="1.1" xmlns="http://www.w3.org/2000/svg" xmlns:xlink="http://www.w3.org/1999/xlink" xml:space="preserve" onload="init(evt)">
<style type="text/css"><![CDATA[
.edge:hover path { stroke: red; }
.edge:hover polygon { stroke: red; fill: red; }
]]></style>
<script type="text/javascript"><![CDATA[
var edges = document.getElementsByTagName('g');
if (edges && edges.length) {
  for (var i=0;i<edges.length;i++) {
    if (edges[i].id.substr(0,4)=='edge') {
      edges[i].setAttribute('class','edge');
    }
  }
}
]]></script>
        <defs>
                <circle id="rim" cx="0" cy="0" r="7"/>
                <circle id="rim2" cx="0" cy="0" r="3.5"/>
                <g id="zoomPlus">
                        <use xlink:href="#rim" fill="#404040">
                                <set attributeName="fill" to="#808080" begin="zoomplus.mouseover" end="zoomplus.mouseout"/>
                        </use>
                        <path d="M-4,0h8M0,-4v8" fill="none" stroke="white" stroke-width="1.5" pointer-events="none"/>
                </g>
                <g id="zoomMin">
                        <use xlink:href="#rim" fill="#404040">
                                <set attributeName="fill" to="#808080" begin="zoomminus.mouseover" end="zoomminus.mouseout"/>
                        </use>
                        <path d="M-4,0h8" fill="none" stroke="white" stroke-width="1.5" pointer-events="none"/>
                </g>
                <g id="dirArrow">
                        <path fill="none" stroke="white" stroke-width="1.5" d="M0,-3.0v7 M-2.5,-0.5L0,-3.0L2.5,-0.5"/>
                </g>
               <g id="resetDef">
                       <use xlink:href="#rim2" fill="#404040">
                               <set attributeName="fill" to="#808080" begin="reset.mouseover" end="reset.mouseout"/>
                       </use>
               </g>
        </defs>

<script type="text/javascript">
var viewWidth = 277;
var viewHeight = 498;
var sectionId = 'dynsection-0';
</script>
<script xlink:href="../../svgpan.js"/>
<svg id="graph" class="graph">
<g id="viewport">
<title>src/structural/src/flyweight/glyph_factory.cc</title>
<polygon fill="white" stroke="none" points="-4,4 -4,-494 273,-494 273,4 -4,4"/>
<!-- Node1 -->
<g id="node1" class="node"><title>Node1</title>
<polygon fill="#bfbfbf" stroke="black" points="38,-459.5 38,-489.5 169,-489.5 169,-459.5 38,-459.5"/>
<text text-anchor="start" x="46" y="-477.5" font-family="Helvetica,sans-Serif" font-size="10.00">src/structural/src</text>
<text text-anchor="middle" x="103.5" y="-466.5" font-family="Helvetica,sans-Serif" font-size="10.00">/flyweight/glyph_factory.cc</text>
</g>
<!-- Node2 -->
<g id="node2" class="node"><title>Node2</title>
<g id="a_node2"><a xlink:href="../../da/dec/glyph__factory_8h.html" target="_top" xlink:title="glyph_factory.h">
<polygon fill="white" stroke="black" points="62,-403.5 62,-422.5 145,-422.5 145,-403.5 62,-403.5"/>
<text text-anchor="middle" x="103.5" y="-410.5" font-family="Helvetica,sans-Serif" font-size="10.00">glyph_factory.h</text>
</a>
</g>
</g>
<!-- Node1&#45;&gt;Node2 -->
<g id="edge1" class="edge"><title>Node1&#45;&gt;Node2</title>
<path fill="none" stroke="midnightblue" d="M103.5,-459.399C103.5,-451.466 103.5,-441.458 103.5,-432.858"/>
<polygon fill="midnightblue" stroke="midnightblue" points="107,-432.658 103.5,-422.658 100,-432.658 107,-432.658"/>
</g>
<!-- Node3 -->
<g id="node3" class="node"><title>Node3</title>
<g id="a_node3"><a xlink:href="../../dc/d26/character_8h.html" target="_top" xlink:title="character.h">
<polygon fill="white" stroke="black" points="0,-347.5 0,-366.5 65,-366.5 65,-347.5 0,-347.5"/>
<text text-anchor="middle" x="32.5" y="-354.5" font-family="Helvetica,sans-Serif" font-size="10.00">character.h</text>
</a>
</g>
</g>
<!-- Node2&#45;&gt;Node3 -->
<g id="edge2" class="edge"><title>Node2&#45;&gt;Node3</title>
<path fill="none" stroke="midnightblue" d="M92.0926,-403.324C81.3912,-395.185 65.1593,-382.839 52.3372,-373.087"/>
<polygon fill="midnightblue" stroke="midnightblue" points="54.1932,-370.102 44.1149,-366.834 49.9556,-375.673 54.1932,-370.102"/>
</g>
<!-- Node14 -->
<g id="node14" class="node"><title>Node14</title>
<g id="a_node14"><a xlink:href="../../dc/df8/column_8h.html" target="_top" xlink:title="column.h">
<polygon fill="white" stroke="black" points="141.5,-347.5 141.5,-366.5 197.5,-366.5 197.5,-347.5 141.5,-347.5"/>
<text text-anchor="middle" x="169.5" y="-354.5" font-family="Helvetica,sans-Serif" font-size="10.00">column.h</text>
</a>
</g>
</g>
<!-- Node2&#45;&gt;Node14 -->
<g id="edge15" class="edge"><title>Node2&#45;&gt;Node14</title>
<path fill="none" stroke="midnightblue" d="M114.104,-403.324C123.956,-395.263 138.851,-383.077 150.715,-373.369"/>
<polygon fill="midnightblue" stroke="midnightblue" points="153.18,-375.875 158.703,-366.834 148.747,-370.457 153.18,-375.875"/>
</g>
<!-- Node15 -->
<g id="node15" class="node"><title>Node15</title>
<g id="a_node15"><a xlink:href="../../d4/d6d/row_8h.html" target="_top" xlink:title="row.h">
<polygon fill="white" stroke="black" points="83.5,-347.5 83.5,-366.5 123.5,-366.5 123.5,-347.5 83.5,-347.5"/>
<text text-anchor="middle" x="103.5" y="-354.5" font-family="Helvetica,sans-Serif" font-size="10.00">row.h</text>
</a>
</g>
</g>
<!-- Node2&#45;&gt;Node15 -->
<g id="edge19" class="edge"><title>Node2&#45;&gt;Node15</title>
<path fill="none" stroke="midnightblue" d="M103.5,-403.083C103.5,-396.006 103.5,-385.861 103.5,-376.986"/>
<polygon fill="midnightblue" stroke="midnightblue" points="107,-376.751 103.5,-366.751 100,-376.751 107,-376.751"/>
</g>
<!-- Node4 -->
<g id="node4" class="node"><title>Node4</title>
<g id="a_node4"><a xlink:href="../../df/d3c/glyph__interface_8h.html" target="_top" xlink:title="glyph_interface.h">
<polygon fill="white" stroke="black" points="51.5,-291.5 51.5,-310.5 141.5,-310.5 141.5,-291.5 51.5,-291.5"/>
<text text-anchor="middle" x="96.5" y="-298.5" font-family="Helvetica,sans-Serif" font-size="10.00">glyph_interface.h</text>
</a>
</g>
</g>
<!-- Node3&#45;&gt;Node4 -->
<g id="edge3" class="edge"><title>Node3&#45;&gt;Node4</title>
<path fill="none" stroke="midnightblue" d="M42.7827,-347.324C52.3363,-339.263 66.7797,-327.077 78.2843,-317.369"/>
<polygon fill="midnightblue" stroke="midnightblue" points="80.6443,-319.958 86.0302,-310.834 76.1302,-314.608 80.6443,-319.958"/>
</g>
<!-- Node5 -->
<g id="node5" class="node"><title>Node5</title>
<g id="a_node5"><a xlink:href="../../d2/d07/flyweight_2window_8h.html" target="_top" xlink:title="window.h">
<polygon fill="white" stroke="black" points="179.5,-235.5 179.5,-254.5 235.5,-254.5 235.5,-235.5 179.5,-235.5"/>
<text text-anchor="middle" x="207.5" y="-242.5" font-family="Helvetica,sans-Serif" font-size="10.00">window.h</text>
</a>
</g>
</g>
<!-- Node4&#45;&gt;Node5 -->
<g id="edge4" class="edge"><title>Node4&#45;&gt;Node5</title>
<path fill="none" stroke="midnightblue" d="M114.334,-291.324C132.216,-282.625 159.975,-269.12 180.546,-259.113"/>
<polygon fill="midnightblue" stroke="midnightblue" points="182.249,-262.177 189.71,-254.655 179.187,-255.882 182.249,-262.177"/>
</g>
<!-- Node6 -->
<g id="node6" class="node"><title>Node6</title>
<g id="a_node6"><a xlink:href="../../d3/de4/glyph__context_8h.html" target="_top" xlink:title="glyph_context.h">
<polygon fill="white" stroke="black" points="75.5,-235.5 75.5,-254.5 161.5,-254.5 161.5,-235.5 75.5,-235.5"/>
<text text-anchor="middle" x="118.5" y="-242.5" font-family="Helvetica,sans-Serif" font-size="10.00">glyph_context.h</text>
</a>
</g>
</g>
<!-- Node4&#45;&gt;Node6 -->
<g id="edge5" class="edge"><title>Node4&#45;&gt;Node6</title>
<path fill="none" stroke="midnightblue" d="M100.133,-291.083C103.112,-283.77 107.426,-273.181 111.125,-264.103"/>
<polygon fill="midnightblue" stroke="midnightblue" points="114.403,-265.333 114.935,-254.751 107.92,-262.691 114.403,-265.333"/>
</g>
<!-- Node8 -->
<g id="node8" class="node"><title>Node8</title>
<g id="a_node8"><a xlink:href="../../d9/d67/font_8h.html" target="_top" xlink:title="font.h">
<polygon fill="white" stroke="black" points="27,-118 27,-137 68,-137 68,-118 27,-118"/>
<text text-anchor="middle" x="47.5" y="-125" font-family="Helvetica,sans-Serif" font-size="10.00">font.h</text>
</a>
</g>
</g>
<!-- Node4&#45;&gt;Node8 -->
<g id="edge14" class="edge"><title>Node4&#45;&gt;Node8</title>
<path fill="none" stroke="midnightblue" d="M89.0265,-291.35C82.0195,-282.737 71.8445,-268.839 66.5,-255 52.4158,-218.53 48.7172,-172.4 47.7808,-147.141"/>
<polygon fill="midnightblue" stroke="midnightblue" points="51.2789,-147.018 47.5175,-137.113 44.2813,-147.202 51.2789,-147.018"/>
</g>
<!-- Node7 -->
<g id="node7" class="node"><title>Node7</title>
<g id="a_node7"><a xlink:href="../../d9/d13/btree_8h.html" target="_top" xlink:title="btree.h">
<polygon fill="white" stroke="black" points="95,-179.5 95,-198.5 142,-198.5 142,-179.5 95,-179.5"/>
<text text-anchor="middle" x="118.5" y="-186.5" font-family="Helvetica,sans-Serif" font-size="10.00">btree.h</text>
</a>
</g>
</g>
<!-- Node6&#45;&gt;Node7 -->
<g id="edge6" class="edge"><title>Node6&#45;&gt;Node7</title>
<path fill="none" stroke="midnightblue" d="M118.5,-235.083C118.5,-228.006 118.5,-217.861 118.5,-208.986"/>
<polygon fill="midnightblue" stroke="midnightblue" points="122,-208.751 118.5,-198.751 115,-208.751 122,-208.751"/>
</g>
<!-- Node7&#45;&gt;Node8 -->
<g id="edge7" class="edge"><title>Node7&#45;&gt;Node8</title>
<path fill="none" stroke="midnightblue" d="M108.327,-179.475C97.1502,-170.108 78.9833,-154.884 65.4088,-143.508"/>
<polygon fill="midnightblue" stroke="midnightblue" points="67.5663,-140.75 57.6537,-137.009 63.0701,-146.115 67.5663,-140.75"/>
</g>
<!-- Node10 -->
<g id="node10" class="node"><title>Node10</title>
<g id="a_node10"><a xlink:href="../../da/d23/list_8h.html" target="_top" xlink:title="../../../operational\l/src/iterator/list.h">
<polygon fill="white" stroke="black" points="86,-112.5 86,-142.5 177,-142.5 177,-112.5 86,-112.5"/>
<text text-anchor="start" x="94" y="-130.5" font-family="Helvetica,sans-Serif" font-size="10.00">../../../operational</text>
<text text-anchor="middle" x="131.5" y="-119.5" font-family="Helvetica,sans-Serif" font-size="10.00">/src/iterator/list.h</text>
</a>
</g>
</g>
<!-- Node7&#45;&gt;Node10 -->
<g id="edge9" class="edge"><title>Node7&#45;&gt;Node10</title>
<path fill="none" stroke="midnightblue" d="M120.363,-179.475C121.909,-172.396 124.187,-161.97 126.28,-152.39"/>
<polygon fill="midnightblue" stroke="midnightblue" points="129.721,-153.04 128.436,-142.523 122.882,-151.545 129.721,-153.04"/>
</g>
<!-- Node9 -->
<g id="node9" class="node"><title>Node9</title>
<polygon fill="white" stroke="#bfbfbf" points="27,-56.5 27,-75.5 68,-75.5 68,-56.5 27,-56.5"/>
<text text-anchor="middle" x="47.5" y="-63.5" font-family="Helvetica,sans-Serif" font-size="10.00">string</text>
</g>
<!-- Node8&#45;&gt;Node9 -->
<g id="edge8" class="edge"><title>Node8&#45;&gt;Node9</title>
<path fill="none" stroke="midnightblue" d="M47.5,-117.975C47.5,-109.58 47.5,-96.4806 47.5,-85.6631"/>
<polygon fill="midnightblue" stroke="midnightblue" points="51.0001,-85.5091 47.5,-75.5091 44.0001,-85.5091 51.0001,-85.5091"/>
</g>
<!-- Node11 -->
<g id="node11" class="node"><title>Node11</title>
<g id="a_node11"><a xlink:href="../../d9/d71/list__iterator_8h.html" target="_top" xlink:title="list_iterator.h">
<polygon fill="white" stroke="black" points="142,-56.5 142,-75.5 215,-75.5 215,-56.5 142,-56.5"/>
<text text-anchor="middle" x="178.5" y="-63.5" font-family="Helvetica,sans-Serif" font-size="10.00">list_iterator.h</text>
</a>
</g>
</g>
<!-- Node10&#45;&gt;Node11 -->
<g id="edge10" class="edge"><title>Node10&#45;&gt;Node11</title>
<path fill="none" stroke="midnightblue" d="M142.638,-112.399C149.468,-103.753 158.245,-92.642 165.406,-83.576"/>
<polygon fill="midnightblue" stroke="midnightblue" points="168.209,-85.6745 171.661,-75.6578 162.716,-81.3354 168.209,-85.6745"/>
</g>
<!-- Node13 -->
<g id="node13" class="node"><title>Node13</title>
<g id="a_node13"><a xlink:href="../../dd/d8c/list__interface_8h.html" target="_top" xlink:title="list_interface.h">
<polygon fill="white" stroke="black" points="73.5,-0.5 73.5,-19.5 153.5,-19.5 153.5,-0.5 73.5,-0.5"/>
<text text-anchor="middle" x="113.5" y="-7.5" font-family="Helvetica,sans-Serif" font-size="10.00">list_interface.h</text>
</a>
</g>
</g>
<!-- Node10&#45;&gt;Node13 -->
<g id="edge13" class="edge"><title>Node10&#45;&gt;Node13</title>
<path fill="none" stroke="midnightblue" d="M129.293,-112.337C126.05,-91.5271 119.993,-52.6632 116.396,-29.5834"/>
<polygon fill="midnightblue" stroke="midnightblue" points="119.849,-29.0112 114.851,-19.6695 112.933,-30.0892 119.849,-29.0112"/>
</g>
<!-- Node12 -->
<g id="node12" class="node"><title>Node12</title>
<g id="a_node12"><a xlink:href="../../d6/da4/iterator__interface_8h.html" target="_top" xlink:title="iterator_interface.h">
<polygon fill="white" stroke="black" points="172,-0.5 172,-19.5 269,-19.5 269,-0.5 172,-0.5"/>
<text text-anchor="middle" x="220.5" y="-7.5" font-family="Helvetica,sans-Serif" font-size="10.00">iterator_interface.h</text>
</a>
</g>
</g>
<!-- Node11&#45;&gt;Node12 -->
<g id="edge11" class="edge"><title>Node11&#45;&gt;Node12</title>
<path fill="none" stroke="midnightblue" d="M185.435,-56.083C191.429,-48.3768 200.252,-37.0333 207.548,-27.6531"/>
<polygon fill="midnightblue" stroke="midnightblue" points="210.317,-29.7934 213.694,-19.7511 204.791,-25.4958 210.317,-29.7934"/>
</g>
<!-- Node11&#45;&gt;Node13 -->
<g id="edge12" class="edge"><title>Node11&#45;&gt;Node13</title>
<path fill="none" stroke="midnightblue" d="M168.057,-56.324C158.354,-48.2631 143.685,-36.0765 132,-26.3695"/>
<polygon fill="midnightblue" stroke="midnightblue" points="134.062,-23.532 124.133,-19.8339 129.589,-28.9163 134.062,-23.532"/>
</g>
<!-- Node14&#45;&gt;Node4 -->
<g id="edge18" class="edge"><title>Node14&#45;&gt;Node4</title>
<path fill="none" stroke="midnightblue" d="M157.771,-347.324C146.663,-339.107 129.758,-326.602 116.517,-316.807"/>
<polygon fill="midnightblue" stroke="midnightblue" points="118.563,-313.967 108.442,-310.834 114.4,-319.595 118.563,-313.967"/>
</g>
<!-- Node14&#45;&gt;Node5 -->
<g id="edge17" class="edge"><title>Node14&#45;&gt;Node5</title>
<path fill="none" stroke="midnightblue" d="M172.482,-347.368C178.642,-329.537 192.889,-288.295 201.188,-264.272"/>
<polygon fill="midnightblue" stroke="midnightblue" points="204.575,-265.186 204.532,-254.591 197.959,-262.9 204.575,-265.186"/>
</g>
<!-- Node14&#45;&gt;Node6 -->
<g id="edge16" class="edge"><title>Node14&#45;&gt;Node6</title>
<path fill="none" stroke="midnightblue" d="M167.911,-347.251C165.373,-334.442 159.729,-310.044 150.5,-291 145.649,-280.99 138.622,-270.81 132.387,-262.67"/>
<polygon fill="midnightblue" stroke="midnightblue" points="135.042,-260.384 126.074,-254.742 129.566,-264.745 135.042,-260.384"/>
</g>
<!-- Node15&#45;&gt;Node4 -->
<g id="edge20" class="edge"><title>Node15&#45;&gt;Node4</title>
<path fill="none" stroke="midnightblue" d="M102.344,-347.083C101.416,-339.927 100.082,-329.635 98.9229,-320.691"/>
<polygon fill="midnightblue" stroke="midnightblue" points="102.391,-320.218 97.6344,-310.751 95.4491,-321.118 102.391,-320.218"/>
</g>
</g>
</svg>
        <g id="navigator" transform="translate(0 0)" fill="#404254">
                <rect fill="#f2f5e9" fill-opacity="0.5" stroke="#606060" stroke-width=".5" x="0" y="0" width="60" height="60"/>
                <use id="zoomplus" xlink:href="#zoomPlus" x="17" y="9" onmousedown="handleZoom(evt,'in')"/>
                <use id="zoomminus" xlink:href="#zoomMin" x="42" y="9" onmousedown="handleZoom(evt,'out')"/>
                <use id="reset" xlink:href="#resetDef" x="30" y="36" onmousedown="handleReset()"/>
                <g id="arrowUp" xlink:href="#dirArrow" transform="translate(30 24)" onmousedown="handlePan(0,-1)">
                  <use xlink:href="#rim" fill="#404040">
                        <set attributeName="fill" to="#808080" begin="arrowUp.mouseover" end="arrowUp.mouseout"/>
                  </use>
                  <path fill="none" stroke="white" stroke-width="1.5" d="M0,-3.0v7 M-2.5,-0.5L0,-3.0L2.5,-0.5"/>
                </g>
                <g id="arrowRight" xlink:href="#dirArrow" transform="rotate(90) translate(36 -43)" onmousedown="handlePan(1,0)">
                  <use xlink:href="#rim" fill="#404040">
                        <set attributeName="fill" to="#808080" begin="arrowRight.mouseover" end="arrowRight.mouseout"/>
                  </use>
                  <path fill="none" stroke="white" stroke-width="1.5" d="M0,-3.0v7 M-2.5,-0.5L0,-3.0L2.5,-0.5"/>
                </g>
                <g id="arrowDown" xlink:href="#dirArrow" transform="rotate(180) translate(-30 -48)" onmousedown="handlePan(0,1)">
                  <use xlink:href="#rim" fill="#404040">
                        <set attributeName="fill" to="#808080" begin="arrowDown.mouseover" end="arrowDown.mouseout"/>
                  </use>
                  <path fill="none" stroke="white" stroke-width="1.5" d="M0,-3.0v7 M-2.5,-0.5L0,-3.0L2.5,-0.5"/>
                </g>
                <g id="arrowLeft" xlink:href="#dirArrow" transform="rotate(270) translate(-36 17)" onmousedown="handlePan(-1,0)">
                  <use xlink:href="#rim" fill="#404040">
                        <set attributeName="fill" to="#808080" begin="arrowLeft.mouseover" end="arrowLeft.mouseout"/>
                  </use>
                  <path fill="none" stroke="white" stroke-width="1.5" d="M0,-3.0v7 M-2.5,-0.5L0,-3.0L2.5,-0.5"/>
                </g>
        </g>
        <svg viewBox="0 0 15 15" width="100%" height="30px" preserveAspectRatio="xMaxYMin meet">
         <g id="arrow_out" transform="scale(0.3 0.3)">
          <a xlink:href="glyph__factory_8cc__incl_org.svg" target="_base">
           <rect id="button" ry="5" rx="5" y="6" x="6" height="38" width="38"
                fill="#f2f5e9" fill-opacity="0.5" stroke="#606060" stroke-width="1.0"/>
           <path id="arrow"
             d="M 11.500037,31.436501 C 11.940474,20.09759 22.043105,11.32322 32.158766,21.979434 L 37.068811,17.246167 C 37.068811,17.246167 37.088388,32 37.088388,32 L 22.160133,31.978069 C 22.160133,31.978069 26.997745,27.140456 26.997745,27.140456 C 18.528582,18.264221 13.291696,25.230495 11.500037,31.436501 z"
             style="fill:#404040;"/>
          </a>
         </g>
        </svg>
</svg>
