<?xml version="1.0" encoding="UTF-8" standalone="no"?>
<!DOCTYPE svg PUBLIC "-//W3C//DTD SVG 1.1//EN"
 "http://www.w3.org/Graphics/SVG/1.1/DTD/svg11.dtd">
<!-- Generated by graphviz version 2.38.0 (20140413.2041)
 -->
<!-- Title: src/structural/src/decorator/compressing_stream.cc Pages: 1 -->
<svg width="194pt" height="274pt"
 viewBox="0.00 0.00 194.00 274.00" xmlns="http://www.w3.org/2000/svg" xmlns:xlink="http://www.w3.org/1999/xlink">
<g id="graph0" class="graph" transform="scale(1 1) rotate(0) translate(4 270)">
<title>src/structural/src/decorator/compressing_stream.cc</title>
<polygon fill="white" stroke="none" points="-4,4 -4,-270 190,-270 190,4 -4,4"/>
<!-- Node1 -->
<g id="node1" class="node"><title>Node1</title>
<polygon fill="#bfbfbf" stroke="black" points="49.5,-224.5 49.5,-265.5 168.5,-265.5 168.5,-224.5 49.5,-224.5"/>
<text text-anchor="start" x="57.5" y="-253.5" font-family="Helvetica,sans-Serif" font-size="10.00">src/structural/src</text>
<text text-anchor="start" x="57.5" y="-242.5" font-family="Helvetica,sans-Serif" font-size="10.00">/decorator/compressing</text>
<text text-anchor="middle" x="109" y="-231.5" font-family="Helvetica,sans-Serif" font-size="10.00">_stream.cc</text>
</g>
<!-- Node2 -->
<g id="node2" class="node"><title>Node2</title>
<g id="a_node2"><a xlink:href="../../d9/d25/compressing__stream_8h.html" target="_top" xlink:title="compressing_stream.h">
<polygon fill="white" stroke="black" points="0,-168.5 0,-187.5 116,-187.5 116,-168.5 0,-168.5"/>
<text text-anchor="middle" x="58" y="-175.5" font-family="Helvetica,sans-Serif" font-size="10.00">compressing_stream.h</text>
</a>
</g>
</g>
<!-- Node1&#45;&gt;Node2 -->
<g id="edge1" class="edge"><title>Node1&#45;&gt;Node2</title>
<path fill="none" stroke="midnightblue" d="M93.6983,-224.498C86.4805,-215.299 77.9576,-204.436 71.05,-195.632"/>
<polygon fill="midnightblue" stroke="midnightblue" points="73.7154,-193.359 64.7889,-187.652 68.2082,-197.68 73.7154,-193.359"/>
</g>
<!-- Node6 -->
<g id="node6" class="node"><title>Node6</title>
<polygon fill="white" stroke="#bfbfbf" points="134,-168.5 134,-187.5 186,-187.5 186,-168.5 134,-168.5"/>
<text text-anchor="middle" x="160" y="-175.5" font-family="Helvetica,sans-Serif" font-size="10.00">sstream</text>
</g>
<!-- Node1&#45;&gt;Node6 -->
<g id="edge5" class="edge"><title>Node1&#45;&gt;Node6</title>
<path fill="none" stroke="midnightblue" d="M124.302,-224.498C131.519,-215.299 140.042,-204.436 146.95,-195.632"/>
<polygon fill="midnightblue" stroke="midnightblue" points="149.792,-197.68 153.211,-187.652 144.285,-193.359 149.792,-197.68"/>
</g>
<!-- Node3 -->
<g id="node3" class="node"><title>Node3</title>
<g id="a_node3"><a xlink:href="../../d2/dd2/stream__decorator_8h.html" target="_top" xlink:title="stream_decorator.h">
<polygon fill="white" stroke="black" points="7.5,-112.5 7.5,-131.5 108.5,-131.5 108.5,-112.5 7.5,-112.5"/>
<text text-anchor="middle" x="58" y="-119.5" font-family="Helvetica,sans-Serif" font-size="10.00">stream_decorator.h</text>
</a>
</g>
</g>
<!-- Node2&#45;&gt;Node3 -->
<g id="edge2" class="edge"><title>Node2&#45;&gt;Node3</title>
<path fill="none" stroke="midnightblue" d="M58,-168.083C58,-161.006 58,-150.861 58,-141.986"/>
<polygon fill="midnightblue" stroke="midnightblue" points="61.5001,-141.751 58,-131.751 54.5001,-141.751 61.5001,-141.751"/>
</g>
<!-- Node4 -->
<g id="node4" class="node"><title>Node4</title>
<g id="a_node4"><a xlink:href="../../d3/d9f/stream__interface_8h.html" target="_top" xlink:title="stream_interface.h">
<polygon fill="white" stroke="black" points="9.5,-56.5 9.5,-75.5 106.5,-75.5 106.5,-56.5 9.5,-56.5"/>
<text text-anchor="middle" x="58" y="-63.5" font-family="Helvetica,sans-Serif" font-size="10.00">stream_interface.h</text>
</a>
</g>
</g>
<!-- Node3&#45;&gt;Node4 -->
<g id="edge3" class="edge"><title>Node3&#45;&gt;Node4</title>
<path fill="none" stroke="midnightblue" d="M58,-112.083C58,-105.006 58,-94.8611 58,-85.9865"/>
<polygon fill="midnightblue" stroke="midnightblue" points="61.5001,-85.751 58,-75.7511 54.5001,-85.7511 61.5001,-85.751"/>
</g>
<!-- Node5 -->
<g id="node5" class="node"><title>Node5</title>
<polygon fill="white" stroke="#bfbfbf" points="37.5,-0.5 37.5,-19.5 78.5,-19.5 78.5,-0.5 37.5,-0.5"/>
<text text-anchor="middle" x="58" y="-7.5" font-family="Helvetica,sans-Serif" font-size="10.00">string</text>
</g>
<!-- Node4&#45;&gt;Node5 -->
<g id="edge4" class="edge"><title>Node4&#45;&gt;Node5</title>
<path fill="none" stroke="midnightblue" d="M58,-56.083C58,-49.0059 58,-38.8611 58,-29.9865"/>
<polygon fill="midnightblue" stroke="midnightblue" points="61.5001,-29.751 58,-19.7511 54.5001,-29.7511 61.5001,-29.751"/>
</g>
</g>
</svg>
