<?xml version="1.0" encoding="UTF-8" standalone="no"?>
<!DOCTYPE svg PUBLIC "-//W3C//DTD SVG 1.1//EN"
 "http://www.w3.org/Graphics/SVG/1.1/DTD/svg11.dtd">
<!-- Generated by graphviz version 2.38.0 (20140413.2041)
 -->
<!-- Title: structural::facade::StatementNodeInterface Pages: 1 -->
<svg width="150pt" height="237pt"
 viewBox="0.00 0.00 150.00 237.00" xmlns="http://www.w3.org/2000/svg" xmlns:xlink="http://www.w3.org/1999/xlink">
<g id="graph0" class="graph" transform="scale(1 1) rotate(0) translate(4 233)">
<title>structural::facade::StatementNodeInterface</title>
<polygon fill="white" stroke="none" points="-4,4 -4,-233 146,-233 146,4 -4,4"/>
<!-- Node1 -->
<g id="node1" class="node"><title>Node1</title>
<polygon fill="#bfbfbf" stroke="black" points="0,-149.5 0,-228.5 142,-228.5 142,-149.5 0,-149.5"/>
<text text-anchor="start" x="8" y="-216.5" font-family="Helvetica,sans-Serif" font-size="10.00">structural::facade</text>
<text text-anchor="middle" x="71" y="-205.5" font-family="Helvetica,sans-Serif" font-size="10.00">::StatementNodeInterface</text>
<polyline fill="none" stroke="black" points="0,-198.5 142,-198.5 "/>
<text text-anchor="middle" x="71" y="-186.5" font-family="Helvetica,sans-Serif" font-size="10.00"> </text>
<polyline fill="none" stroke="black" points="0,-179.5 142,-179.5 "/>
<text text-anchor="start" x="8" y="-167.5" font-family="Helvetica,sans-Serif" font-size="10.00">+ ~StatementNodeInterface()</text>
<text text-anchor="start" x="8" y="-156.5" font-family="Helvetica,sans-Serif" font-size="10.00">+ statement()</text>
</g>
<!-- Node2 -->
<g id="node2" class="node"><title>Node2</title>
<g id="a_node2"><a xlink:href="../../d1/de1/classstructural_1_1facade_1_1_statement_node.html" target="_top" xlink:title="{structural::facade\l::StatementNode\n|# children_\l|+ StatementNode()\l+ GetSourcePosition()\l+ Add()\l+ Remove()\l+ Traverse()\l}">
<polygon fill="white" stroke="black" points="14.5,-0.5 14.5,-112.5 127.5,-112.5 127.5,-0.5 14.5,-0.5"/>
<text text-anchor="start" x="22.5" y="-100.5" font-family="Helvetica,sans-Serif" font-size="10.00">structural::facade</text>
<text text-anchor="middle" x="71" y="-89.5" font-family="Helvetica,sans-Serif" font-size="10.00">::StatementNode</text>
<polyline fill="none" stroke="black" points="14.5,-82.5 127.5,-82.5 "/>
<text text-anchor="start" x="22.5" y="-70.5" font-family="Helvetica,sans-Serif" font-size="10.00"># children_</text>
<polyline fill="none" stroke="black" points="14.5,-63.5 127.5,-63.5 "/>
<text text-anchor="start" x="22.5" y="-51.5" font-family="Helvetica,sans-Serif" font-size="10.00">+ StatementNode()</text>
<text text-anchor="start" x="22.5" y="-40.5" font-family="Helvetica,sans-Serif" font-size="10.00">+ GetSourcePosition()</text>
<text text-anchor="start" x="22.5" y="-29.5" font-family="Helvetica,sans-Serif" font-size="10.00">+ Add()</text>
<text text-anchor="start" x="22.5" y="-18.5" font-family="Helvetica,sans-Serif" font-size="10.00">+ Remove()</text>
<text text-anchor="start" x="22.5" y="-7.5" font-family="Helvetica,sans-Serif" font-size="10.00">+ Traverse()</text>
</a>
</g>
</g>
<!-- Node1&#45;&gt;Node2 -->
<g id="edge1" class="edge"><title>Node1&#45;&gt;Node2</title>
<path fill="none" stroke="midnightblue" d="M71,-139.012C71,-130.464 71,-121.518 71,-112.814"/>
<polygon fill="none" stroke="midnightblue" points="67.5001,-139.199 71,-149.199 74.5001,-139.199 67.5001,-139.199"/>
</g>
</g>
</svg>
