<?xml version="1.0" encoding="UTF-8" standalone="no"?>
<!DOCTYPE svg PUBLIC "-//W3C//DTD SVG 1.1//EN"
 "http://www.w3.org/Graphics/SVG/1.1/DTD/svg11.dtd">
<!-- Generated by graphviz version 2.38.0 (20140413.2041)
 -->
<!-- Title: structural::flyweight::GlyphContext::Next Pages: 1 -->
<svg width="261pt" height="186pt"
 viewBox="0.00 0.00 261.00 186.00" xmlns="http://www.w3.org/2000/svg" xmlns:xlink="http://www.w3.org/1999/xlink">
<g id="graph0" class="graph" transform="scale(1 1) rotate(0) translate(4 182)">
<title>structural::flyweight::GlyphContext::Next</title>
<polygon fill="white" stroke="none" points="-4,4 -4,-182 257,-182 257,4 -4,4"/>
<!-- Node1 -->
<g id="node1" class="node"><title>Node1</title>
<polygon fill="#bfbfbf" stroke="black" points="0,-73.5 0,-103.5 108,-103.5 108,-73.5 0,-73.5"/>
<text text-anchor="start" x="8" y="-91.5" font-family="Helvetica,sans-Serif" font-size="10.00">structural::flyweight</text>
<text text-anchor="middle" x="54" y="-80.5" font-family="Helvetica,sans-Serif" font-size="10.00">::GlyphContext::Next</text>
</g>
<!-- Node2 -->
<g id="node2" class="node"><title>Node2</title>
<g id="a_node2"><a xlink:href="../../d7/dd6/classstructural_1_1flyweight_1_1_character.html#a4627a38538f9df6f196020e132f714d4" target="_top" xlink:title="structural::flyweight\l::Character::Next">
<polygon fill="white" stroke="black" points="148,-147.5 148,-177.5 249,-177.5 249,-147.5 148,-147.5"/>
<text text-anchor="start" x="156" y="-165.5" font-family="Helvetica,sans-Serif" font-size="10.00">structural::flyweight</text>
<text text-anchor="middle" x="198.5" y="-154.5" font-family="Helvetica,sans-Serif" font-size="10.00">::Character::Next</text>
</a>
</g>
</g>
<!-- Node1&#45;&gt;Node2 -->
<g id="edge1" class="edge"><title>Node1&#45;&gt;Node2</title>
<path fill="none" stroke="midnightblue" d="M89.0821,-108.598C105.495,-118.031 125.572,-129.214 144,-138.5 150,-141.523 156.462,-144.583 162.75,-147.46"/>
<polygon fill="midnightblue" stroke="midnightblue" points="90.7831,-105.539 80.3744,-103.561 87.2779,-111.598 90.7831,-105.539"/>
</g>
<!-- Node3 -->
<g id="node3" class="node"><title>Node3</title>
<g id="a_node3"><a xlink:href="../../d4/da7/classstructural_1_1flyweight_1_1_column.html#a48dc2e3c91c6405546c82dac5b005f89" target="_top" xlink:title="structural::flyweight\l::Column::Next">
<polygon fill="white" stroke="black" points="148,-98.5 148,-128.5 249,-128.5 249,-98.5 148,-98.5"/>
<text text-anchor="start" x="156" y="-116.5" font-family="Helvetica,sans-Serif" font-size="10.00">structural::flyweight</text>
<text text-anchor="middle" x="198.5" y="-105.5" font-family="Helvetica,sans-Serif" font-size="10.00">::Column::Next</text>
</a>
</g>
</g>
<!-- Node1&#45;&gt;Node3 -->
<g id="edge2" class="edge"><title>Node1&#45;&gt;Node3</title>
<path fill="none" stroke="midnightblue" d="M117.927,-99.5398C127.895,-101.289 138.084,-103.076 147.698,-104.763"/>
<polygon fill="midnightblue" stroke="midnightblue" points="118.516,-96.0898 108.062,-97.8091 117.306,-102.985 118.516,-96.0898"/>
</g>
<!-- Node4 -->
<g id="node4" class="node"><title>Node4</title>
<g id="a_node4"><a xlink:href="../../d4/d84/classstructural_1_1flyweight_1_1_row.html#a4c6fe0a346195ef0234794cfabaff453" target="_top" xlink:title="structural::flyweight\l::Row::Next">
<polygon fill="white" stroke="black" points="148,-49.5 148,-79.5 249,-79.5 249,-49.5 148,-49.5"/>
<text text-anchor="start" x="156" y="-67.5" font-family="Helvetica,sans-Serif" font-size="10.00">structural::flyweight</text>
<text text-anchor="middle" x="198.5" y="-56.5" font-family="Helvetica,sans-Serif" font-size="10.00">::Row::Next</text>
</a>
</g>
</g>
<!-- Node1&#45;&gt;Node4 -->
<g id="edge3" class="edge"><title>Node1&#45;&gt;Node4</title>
<path fill="none" stroke="midnightblue" d="M117.927,-77.9018C127.895,-76.2229 138.084,-74.5069 147.698,-72.8877"/>
<polygon fill="midnightblue" stroke="midnightblue" points="117.342,-74.451 108.062,-79.5633 118.504,-81.3538 117.342,-74.451"/>
</g>
<!-- Node5 -->
<g id="node5" class="node"><title>Node5</title>
<g id="a_node5"><a xlink:href="../../d5/dab/namespacestructuraltests.html#aa99c6e1b868b8650d7952a693a106c21" target="_top" xlink:title="structuraltests::TEST\l_CLASS">
<polygon fill="white" stroke="black" points="144,-0.5 144,-30.5 253,-30.5 253,-0.5 144,-0.5"/>
<text text-anchor="start" x="152" y="-18.5" font-family="Helvetica,sans-Serif" font-size="10.00">structuraltests::TEST</text>
<text text-anchor="middle" x="198.5" y="-7.5" font-family="Helvetica,sans-Serif" font-size="10.00">_CLASS</text>
</a>
</g>
</g>
<!-- Node1&#45;&gt;Node5 -->
<g id="edge4" class="edge"><title>Node1&#45;&gt;Node5</title>
<path fill="none" stroke="midnightblue" d="M91.119,-68.4109C107.197,-59.6267 126.431,-49.3335 144,-40.5 150.595,-37.1841 157.712,-33.7559 164.536,-30.5408"/>
<polygon fill="midnightblue" stroke="midnightblue" points="89.1363,-65.5065 82.0537,-73.386 92.5042,-71.6431 89.1363,-65.5065"/>
</g>
</g>
</svg>
