<?xml version="1.0" encoding="UTF-8" standalone="no"?>
<!DOCTYPE svg PUBLIC "-//W3C//DTD SVG 1.1//EN"
 "http://www.w3.org/Graphics/SVG/1.1/DTD/svg11.dtd">
<!-- Generated by graphviz version 2.38.0 (20140413.2041)
 -->
<!-- Title: structural::flyweight::GlyphContext::SetFont Pages: 1 -->
<svg width="275pt" height="186pt"
 viewBox="0.00 0.00 275.00 186.00" xmlns="http://www.w3.org/2000/svg" xmlns:xlink="http://www.w3.org/1999/xlink">
<g id="graph0" class="graph" transform="scale(1 1) rotate(0) translate(4 182)">
<title>structural::flyweight::GlyphContext::SetFont</title>
<polygon fill="white" stroke="none" points="-4,4 -4,-182 271,-182 271,4 -4,4"/>
<!-- Node1 -->
<g id="node1" class="node"><title>Node1</title>
<polygon fill="#bfbfbf" stroke="black" points="0,-73.5 0,-103.5 122,-103.5 122,-73.5 0,-73.5"/>
<text text-anchor="start" x="8" y="-91.5" font-family="Helvetica,sans-Serif" font-size="10.00">structural::flyweight</text>
<text text-anchor="middle" x="61" y="-80.5" font-family="Helvetica,sans-Serif" font-size="10.00">::GlyphContext::SetFont</text>
</g>
<!-- Node2 -->
<g id="node2" class="node"><title>Node2</title>
<g id="a_node2"><a xlink:href="../../d7/dd6/classstructural_1_1flyweight_1_1_character.html#ac686c7ad3a1e089d707d8a2514be1c62" target="_top" xlink:title="structural::flyweight\l::Character::SetFont">
<polygon fill="white" stroke="black" points="160,-147.5 160,-177.5 265,-177.5 265,-147.5 160,-147.5"/>
<text text-anchor="start" x="168" y="-165.5" font-family="Helvetica,sans-Serif" font-size="10.00">structural::flyweight</text>
<text text-anchor="middle" x="212.5" y="-154.5" font-family="Helvetica,sans-Serif" font-size="10.00">::Character::SetFont</text>
</a>
</g>
</g>
<!-- Node1&#45;&gt;Node2 -->
<g id="edge1" class="edge"><title>Node1&#45;&gt;Node2</title>
<path fill="none" stroke="midnightblue" d="M98.8236,-108.321C116.583,-117.716 138.268,-128.946 158,-138.5 164.139,-141.472 170.729,-144.533 177.114,-147.432"/>
<polygon fill="midnightblue" stroke="midnightblue" points="100.399,-105.195 89.9253,-103.595 97.1148,-111.377 100.399,-105.195"/>
</g>
<!-- Node3 -->
<g id="node3" class="node"><title>Node3</title>
<g id="a_node3"><a xlink:href="../../d4/da7/classstructural_1_1flyweight_1_1_column.html#a9cbdd5c0e3388aa64045f6be7a998e19" target="_top" xlink:title="structural::flyweight\l::Column::SetFont">
<polygon fill="white" stroke="black" points="162,-98.5 162,-128.5 263,-128.5 263,-98.5 162,-98.5"/>
<text text-anchor="start" x="170" y="-116.5" font-family="Helvetica,sans-Serif" font-size="10.00">structural::flyweight</text>
<text text-anchor="middle" x="212.5" y="-105.5" font-family="Helvetica,sans-Serif" font-size="10.00">::Column::SetFont</text>
</a>
</g>
</g>
<!-- Node1&#45;&gt;Node3 -->
<g id="edge2" class="edge"><title>Node1&#45;&gt;Node3</title>
<path fill="none" stroke="midnightblue" d="M132.311,-100.258C142.308,-101.929 152.411,-103.619 161.902,-105.206"/>
<polygon fill="midnightblue" stroke="midnightblue" points="132.817,-96.7938 122.376,-98.5964 131.662,-103.698 132.817,-96.7938"/>
</g>
<!-- Node4 -->
<g id="node4" class="node"><title>Node4</title>
<g id="a_node4"><a xlink:href="../../d4/d84/classstructural_1_1flyweight_1_1_row.html#af74c0df001044d422deb9241ab04311c" target="_top" xlink:title="structural::flyweight\l::Row::SetFont">
<polygon fill="white" stroke="black" points="162,-49.5 162,-79.5 263,-79.5 263,-49.5 162,-49.5"/>
<text text-anchor="start" x="170" y="-67.5" font-family="Helvetica,sans-Serif" font-size="10.00">structural::flyweight</text>
<text text-anchor="middle" x="212.5" y="-56.5" font-family="Helvetica,sans-Serif" font-size="10.00">::Row::SetFont</text>
</a>
</g>
</g>
<!-- Node1&#45;&gt;Node4 -->
<g id="edge3" class="edge"><title>Node1&#45;&gt;Node4</title>
<path fill="none" stroke="midnightblue" d="M132.311,-77.2126C142.308,-75.6077 152.411,-73.9858 161.902,-72.4622"/>
<polygon fill="midnightblue" stroke="midnightblue" points="131.695,-73.7666 122.376,-78.8075 132.805,-80.6781 131.695,-73.7666"/>
</g>
<!-- Node5 -->
<g id="node5" class="node"><title>Node5</title>
<g id="a_node5"><a xlink:href="../../d5/dab/namespacestructuraltests.html#aa99c6e1b868b8650d7952a693a106c21" target="_top" xlink:title="structuraltests::TEST\l_CLASS">
<polygon fill="white" stroke="black" points="158,-0.5 158,-30.5 267,-30.5 267,-0.5 158,-0.5"/>
<text text-anchor="start" x="166" y="-18.5" font-family="Helvetica,sans-Serif" font-size="10.00">structuraltests::TEST</text>
<text text-anchor="middle" x="212.5" y="-7.5" font-family="Helvetica,sans-Serif" font-size="10.00">_CLASS</text>
</a>
</g>
</g>
<!-- Node1&#45;&gt;Node5 -->
<g id="edge4" class="edge"><title>Node1&#45;&gt;Node5</title>
<path fill="none" stroke="midnightblue" d="M101.017,-68.6984C118.407,-59.9486 139.175,-49.6028 158,-40.5 164.738,-37.242 171.983,-33.8092 178.899,-30.5663"/>
<polygon fill="midnightblue" stroke="midnightblue" points="99.0905,-65.7498 91.737,-73.3772 102.242,-72.0003 99.0905,-65.7498"/>
</g>
</g>
</svg>
