<?xml version="1.0" encoding="UTF-8" standalone="no"?>
<!DOCTYPE svg PUBLIC "-//W3C//DTD SVG 1.1//EN"
 "http://www.w3.org/Graphics/SVG/1.1/DTD/svg11.dtd">
<!-- Generated by graphviz version 2.38.0 (20140413.2041)
 -->
<!-- Title: structural::flyweight::GlyphContext::First Pages: 1 -->
<svg width="260pt" height="186pt"
 viewBox="0.00 0.00 260.00 186.00" xmlns="http://www.w3.org/2000/svg" xmlns:xlink="http://www.w3.org/1999/xlink">
<g id="graph0" class="graph" transform="scale(1 1) rotate(0) translate(4 182)">
<title>structural::flyweight::GlyphContext::First</title>
<polygon fill="white" stroke="none" points="-4,4 -4,-182 256,-182 256,4 -4,4"/>
<!-- Node1 -->
<g id="node1" class="node"><title>Node1</title>
<polygon fill="#bfbfbf" stroke="black" points="0,-73.5 0,-103.5 107,-103.5 107,-73.5 0,-73.5"/>
<text text-anchor="start" x="8" y="-91.5" font-family="Helvetica,sans-Serif" font-size="10.00">structural::flyweight</text>
<text text-anchor="middle" x="53.5" y="-80.5" font-family="Helvetica,sans-Serif" font-size="10.00">::GlyphContext::First</text>
</g>
<!-- Node2 -->
<g id="node2" class="node"><title>Node2</title>
<g id="a_node2"><a xlink:href="../../d7/dd6/classstructural_1_1flyweight_1_1_character.html#a9ac70d2711a095293261d061ffa5a818" target="_top" xlink:title="structural::flyweight\l::Character::First">
<polygon fill="white" stroke="black" points="147,-147.5 147,-177.5 248,-177.5 248,-147.5 147,-147.5"/>
<text text-anchor="start" x="155" y="-165.5" font-family="Helvetica,sans-Serif" font-size="10.00">structural::flyweight</text>
<text text-anchor="middle" x="197.5" y="-154.5" font-family="Helvetica,sans-Serif" font-size="10.00">::Character::First</text>
</a>
</g>
</g>
<!-- Node1&#45;&gt;Node2 -->
<g id="edge1" class="edge"><title>Node1&#45;&gt;Node2</title>
<path fill="none" stroke="midnightblue" d="M88.3784,-108.614C104.696,-118.05 124.661,-129.231 143,-138.5 148.996,-141.531 155.457,-144.594 161.744,-147.471"/>
<polygon fill="midnightblue" stroke="midnightblue" points="90.1247,-105.581 79.7215,-103.574 86.6029,-111.63 90.1247,-105.581"/>
</g>
<!-- Node3 -->
<g id="node3" class="node"><title>Node3</title>
<g id="a_node3"><a xlink:href="../../d4/da7/classstructural_1_1flyweight_1_1_column.html#a2d1f20d04af508ac15af6480da1ecbad" target="_top" xlink:title="structural::flyweight\l::Column::First">
<polygon fill="white" stroke="black" points="147,-98.5 147,-128.5 248,-128.5 248,-98.5 147,-98.5"/>
<text text-anchor="start" x="155" y="-116.5" font-family="Helvetica,sans-Serif" font-size="10.00">structural::flyweight</text>
<text text-anchor="middle" x="197.5" y="-105.5" font-family="Helvetica,sans-Serif" font-size="10.00">::Column::First</text>
</a>
</g>
</g>
<!-- Node1&#45;&gt;Node3 -->
<g id="edge2" class="edge"><title>Node1&#45;&gt;Node3</title>
<path fill="none" stroke="midnightblue" d="M117.517,-99.5945C127.351,-101.326 137.392,-103.094 146.873,-104.763"/>
<polygon fill="midnightblue" stroke="midnightblue" points="117.831,-96.0961 107.376,-97.8091 116.617,-102.99 117.831,-96.0961"/>
</g>
<!-- Node4 -->
<g id="node4" class="node"><title>Node4</title>
<g id="a_node4"><a xlink:href="../../d4/d84/classstructural_1_1flyweight_1_1_row.html#a6b6965c537fda0e5013366d266ce8584" target="_top" xlink:title="structural::flyweight\l::Row::First">
<polygon fill="white" stroke="black" points="147,-49.5 147,-79.5 248,-79.5 248,-49.5 147,-49.5"/>
<text text-anchor="start" x="155" y="-67.5" font-family="Helvetica,sans-Serif" font-size="10.00">structural::flyweight</text>
<text text-anchor="middle" x="197.5" y="-56.5" font-family="Helvetica,sans-Serif" font-size="10.00">::Row::First</text>
</a>
</g>
</g>
<!-- Node1&#45;&gt;Node4 -->
<g id="edge3" class="edge"><title>Node1&#45;&gt;Node4</title>
<path fill="none" stroke="midnightblue" d="M117.517,-77.8493C127.351,-76.1871 137.392,-74.4901 146.873,-72.8877"/>
<polygon fill="midnightblue" stroke="midnightblue" points="116.652,-74.4456 107.376,-79.5633 117.819,-81.3478 116.652,-74.4456"/>
</g>
<!-- Node5 -->
<g id="node5" class="node"><title>Node5</title>
<g id="a_node5"><a xlink:href="../../d5/dab/namespacestructuraltests.html#aa99c6e1b868b8650d7952a693a106c21" target="_top" xlink:title="structuraltests::TEST\l_CLASS">
<polygon fill="white" stroke="black" points="143,-0.5 143,-30.5 252,-30.5 252,-0.5 143,-0.5"/>
<text text-anchor="start" x="151" y="-18.5" font-family="Helvetica,sans-Serif" font-size="10.00">structuraltests::TEST</text>
<text text-anchor="middle" x="197.5" y="-7.5" font-family="Helvetica,sans-Serif" font-size="10.00">_CLASS</text>
</a>
</g>
</g>
<!-- Node1&#45;&gt;Node5 -->
<g id="edge4" class="edge"><title>Node1&#45;&gt;Node5</title>
<path fill="none" stroke="midnightblue" d="M90.4048,-68.394C106.39,-59.6066 125.518,-49.3157 143,-40.5 149.591,-37.1764 156.707,-33.7447 163.53,-30.5288"/>
<polygon fill="midnightblue" stroke="midnightblue" points="88.4536,-65.4732 81.392,-73.3715 91.8378,-71.6008 88.4536,-65.4732"/>
</g>
</g>
</svg>
