<?xml version="1.0" encoding="UTF-8" standalone="no"?>
<!DOCTYPE svg PUBLIC "-//W3C//DTD SVG 1.1//EN"
 "http://www.w3.org/Graphics/SVG/1.1/DTD/svg11.dtd">
<!-- Generated by graphviz version 2.38.0 (20140413.2041)
 -->
<!-- Title: structural::flyweight::GlyphContext::GetFont Pages: 1 -->
<svg width="422pt" height="235pt"
 viewBox="0.00 0.00 422.00 235.00" xmlns="http://www.w3.org/2000/svg" xmlns:xlink="http://www.w3.org/1999/xlink">
<g id="graph0" class="graph" transform="scale(1 1) rotate(0) translate(4 231)">
<title>structural::flyweight::GlyphContext::GetFont</title>
<polygon fill="white" stroke="none" points="-4,4 -4,-231 418,-231 418,4 -4,4"/>
<!-- Node1 -->
<g id="node1" class="node"><title>Node1</title>
<polygon fill="#bfbfbf" stroke="black" points="0,-98.5 0,-128.5 123,-128.5 123,-98.5 0,-98.5"/>
<text text-anchor="start" x="8" y="-116.5" font-family="Helvetica,sans-Serif" font-size="10.00">structural::flyweight</text>
<text text-anchor="middle" x="61.5" y="-105.5" font-family="Helvetica,sans-Serif" font-size="10.00">::GlyphContext::GetFont</text>
</g>
<!-- Node2 -->
<g id="node2" class="node"><title>Node2</title>
<g id="a_node2"><a xlink:href="../../d7/dd6/classstructural_1_1flyweight_1_1_character.html#aa2a911aecd907ef9250eeff638683b86" target="_top" xlink:title="structural::flyweight\l::Character::GetFont">
<polygon fill="white" stroke="black" points="165,-196.5 165,-226.5 271,-226.5 271,-196.5 165,-196.5"/>
<text text-anchor="start" x="173" y="-214.5" font-family="Helvetica,sans-Serif" font-size="10.00">structural::flyweight</text>
<text text-anchor="middle" x="218" y="-203.5" font-family="Helvetica,sans-Serif" font-size="10.00">::Character::GetFont</text>
</a>
</g>
</g>
<!-- Node1&#45;&gt;Node2 -->
<g id="edge1" class="edge"><title>Node1&#45;&gt;Node2</title>
<path fill="none" stroke="midnightblue" d="M87.0772,-135.254C105.856,-151.133 132.875,-172.428 159,-187.5 164.569,-190.713 170.652,-193.72 176.716,-196.445"/>
<polygon fill="midnightblue" stroke="midnightblue" points="89.1817,-132.448 79.3111,-128.598 84.6264,-137.764 89.1817,-132.448"/>
</g>
<!-- Node3 -->
<g id="node3" class="node"><title>Node3</title>
<g id="a_node3"><a xlink:href="../../d4/da7/classstructural_1_1flyweight_1_1_column.html#a7b2213b6789525e6154aa73ca27e3049" target="_top" xlink:title="structural::flyweight\l::Column::GetFont">
<polygon fill="white" stroke="black" points="167.5,-147.5 167.5,-177.5 268.5,-177.5 268.5,-147.5 167.5,-147.5"/>
<text text-anchor="start" x="175.5" y="-165.5" font-family="Helvetica,sans-Serif" font-size="10.00">structural::flyweight</text>
<text text-anchor="middle" x="218" y="-154.5" font-family="Helvetica,sans-Serif" font-size="10.00">::Column::GetFont</text>
</a>
</g>
</g>
<!-- Node1&#45;&gt;Node3 -->
<g id="edge2" class="edge"><title>Node1&#45;&gt;Node3</title>
<path fill="none" stroke="midnightblue" d="M120.072,-131.759C136.368,-136.927 153.915,-142.492 169.541,-147.448"/>
<polygon fill="midnightblue" stroke="midnightblue" points="120.706,-128.288 110.116,-128.601 118.59,-134.961 120.706,-128.288"/>
</g>
<!-- Node4 -->
<g id="node4" class="node"><title>Node4</title>
<g id="a_node4"><a xlink:href="../../d2/d57/classstructural_1_1flyweight_1_1_glyph_context.html#ae91ee88c5c2aa2bf913a5e0eb517183f" target="_top" xlink:title="structural::flyweight\l::GlyphContext::IsDone">
<polygon fill="white" stroke="black" points="159,-98.5 159,-128.5 277,-128.5 277,-98.5 159,-98.5"/>
<text text-anchor="start" x="167" y="-116.5" font-family="Helvetica,sans-Serif" font-size="10.00">structural::flyweight</text>
<text text-anchor="middle" x="218" y="-105.5" font-family="Helvetica,sans-Serif" font-size="10.00">::GlyphContext::IsDone</text>
</a>
</g>
</g>
<!-- Node1&#45;&gt;Node4 -->
<g id="edge3" class="edge"><title>Node1&#45;&gt;Node4</title>
<path fill="none" stroke="midnightblue" d="M133.136,-113.5C141.734,-113.5 150.442,-113.5 158.83,-113.5"/>
<polygon fill="midnightblue" stroke="midnightblue" points="133.119,-110 123.119,-113.5 133.119,-117 133.119,-110"/>
</g>
<!-- Node8 -->
<g id="node8" class="node"><title>Node8</title>
<g id="a_node8"><a xlink:href="../../d4/d84/classstructural_1_1flyweight_1_1_row.html#a236657bd40e8f4daccf313c1a0cfeaa7" target="_top" xlink:title="structural::flyweight\l::Row::GetFont">
<polygon fill="white" stroke="black" points="167.5,-49.5 167.5,-79.5 268.5,-79.5 268.5,-49.5 167.5,-49.5"/>
<text text-anchor="start" x="175.5" y="-67.5" font-family="Helvetica,sans-Serif" font-size="10.00">structural::flyweight</text>
<text text-anchor="middle" x="218" y="-56.5" font-family="Helvetica,sans-Serif" font-size="10.00">::Row::GetFont</text>
</a>
</g>
</g>
<!-- Node1&#45;&gt;Node8 -->
<g id="edge7" class="edge"><title>Node1&#45;&gt;Node8</title>
<path fill="none" stroke="midnightblue" d="M120.072,-95.2409C136.368,-90.0727 153.915,-84.5076 169.541,-79.5516"/>
<polygon fill="midnightblue" stroke="midnightblue" points="118.59,-92.0391 110.116,-98.3986 120.706,-98.7116 118.59,-92.0391"/>
</g>
<!-- Node9 -->
<g id="node9" class="node"><title>Node9</title>
<g id="a_node9"><a xlink:href="../../d5/dab/namespacestructuraltests.html#aa99c6e1b868b8650d7952a693a106c21" target="_top" xlink:title="structuraltests::TEST\l_CLASS">
<polygon fill="white" stroke="black" points="163.5,-0.5 163.5,-30.5 272.5,-30.5 272.5,-0.5 163.5,-0.5"/>
<text text-anchor="start" x="171.5" y="-18.5" font-family="Helvetica,sans-Serif" font-size="10.00">structuraltests::TEST</text>
<text text-anchor="middle" x="218" y="-7.5" font-family="Helvetica,sans-Serif" font-size="10.00">_CLASS</text>
</a>
</g>
</g>
<!-- Node1&#45;&gt;Node9 -->
<g id="edge8" class="edge"><title>Node1&#45;&gt;Node9</title>
<path fill="none" stroke="midnightblue" d="M87.0772,-91.7457C105.856,-75.8667 132.875,-54.5718 159,-39.5 164.569,-36.2871 170.652,-33.2804 176.716,-30.5554"/>
<polygon fill="midnightblue" stroke="midnightblue" points="84.6264,-89.2365 79.3111,-98.4015 89.1817,-94.5515 84.6264,-89.2365"/>
</g>
<!-- Node5 -->
<g id="node5" class="node"><title>Node5</title>
<g id="a_node5"><a xlink:href="../../d7/dd6/classstructural_1_1flyweight_1_1_character.html#a1baf342f210fe52c8e5f143e80a90feb" target="_top" xlink:title="structural::flyweight\l::Character::IsDone">
<polygon fill="white" stroke="black" points="313,-147.5 313,-177.5 414,-177.5 414,-147.5 313,-147.5"/>
<text text-anchor="start" x="321" y="-165.5" font-family="Helvetica,sans-Serif" font-size="10.00">structural::flyweight</text>
<text text-anchor="middle" x="363.5" y="-154.5" font-family="Helvetica,sans-Serif" font-size="10.00">::Character::IsDone</text>
</a>
</g>
</g>
<!-- Node4&#45;&gt;Node5 -->
<g id="edge4" class="edge"><title>Node4&#45;&gt;Node5</title>
<path fill="none" stroke="midnightblue" d="M272.855,-131.89C287.797,-136.992 303.844,-142.471 318.173,-147.364"/>
<polygon fill="midnightblue" stroke="midnightblue" points="273.82,-128.521 263.226,-128.601 271.558,-135.145 273.82,-128.521"/>
</g>
<!-- Node6 -->
<g id="node6" class="node"><title>Node6</title>
<g id="a_node6"><a xlink:href="../../d4/da7/classstructural_1_1flyweight_1_1_column.html#a2bf1a23838a960f033e07dcce7db6537" target="_top" xlink:title="structural::flyweight\l::Column::IsDone">
<polygon fill="white" stroke="black" points="313,-98.5 313,-128.5 414,-128.5 414,-98.5 313,-98.5"/>
<text text-anchor="start" x="321" y="-116.5" font-family="Helvetica,sans-Serif" font-size="10.00">structural::flyweight</text>
<text text-anchor="middle" x="363.5" y="-105.5" font-family="Helvetica,sans-Serif" font-size="10.00">::Column::IsDone</text>
</a>
</g>
</g>
<!-- Node4&#45;&gt;Node6 -->
<g id="edge5" class="edge"><title>Node4&#45;&gt;Node6</title>
<path fill="none" stroke="midnightblue" d="M287.408,-113.5C296.011,-113.5 304.679,-113.5 312.915,-113.5"/>
<polygon fill="midnightblue" stroke="midnightblue" points="287.367,-110 277.367,-113.5 287.367,-117 287.367,-110"/>
</g>
<!-- Node7 -->
<g id="node7" class="node"><title>Node7</title>
<g id="a_node7"><a xlink:href="../../d4/d84/classstructural_1_1flyweight_1_1_row.html#af06d4584b55e7688d99b3426d042af77" target="_top" xlink:title="structural::flyweight\l::Row::IsDone">
<polygon fill="white" stroke="black" points="313,-49.5 313,-79.5 414,-79.5 414,-49.5 313,-49.5"/>
<text text-anchor="start" x="321" y="-67.5" font-family="Helvetica,sans-Serif" font-size="10.00">structural::flyweight</text>
<text text-anchor="middle" x="363.5" y="-56.5" font-family="Helvetica,sans-Serif" font-size="10.00">::Row::IsDone</text>
</a>
</g>
</g>
<!-- Node4&#45;&gt;Node7 -->
<g id="edge6" class="edge"><title>Node4&#45;&gt;Node7</title>
<path fill="none" stroke="midnightblue" d="M272.855,-95.1104C287.797,-90.0084 303.844,-84.5289 318.173,-79.6359"/>
<polygon fill="midnightblue" stroke="midnightblue" points="271.558,-91.8548 263.226,-98.3986 273.82,-98.4793 271.558,-91.8548"/>
</g>
</g>
</svg>
