<?xml version="1.0" encoding="UTF-8" standalone="no"?>
<!DOCTYPE svg PUBLIC "-//W3C//DTD SVG 1.1//EN"
 "http://www.w3.org/Graphics/SVG/1.1/DTD/svg11.dtd">
<!-- Generated by graphviz version 2.38.0 (20140413.2041)
 -->
<!-- Title: structural::flyweight::GlyphContext::IsDone Pages: 1 -->
<svg width="263pt" height="137pt"
 viewBox="0.00 0.00 263.00 137.00" xmlns="http://www.w3.org/2000/svg" xmlns:xlink="http://www.w3.org/1999/xlink">
<g id="graph0" class="graph" transform="scale(1 1) rotate(0) translate(4 133)">
<title>structural::flyweight::GlyphContext::IsDone</title>
<polygon fill="white" stroke="none" points="-4,4 -4,-133 259,-133 259,4 -4,4"/>
<!-- Node1 -->
<g id="node1" class="node"><title>Node1</title>
<polygon fill="#bfbfbf" stroke="black" points="0,-49.5 0,-79.5 118,-79.5 118,-49.5 0,-49.5"/>
<text text-anchor="start" x="8" y="-67.5" font-family="Helvetica,sans-Serif" font-size="10.00">structural::flyweight</text>
<text text-anchor="middle" x="59" y="-56.5" font-family="Helvetica,sans-Serif" font-size="10.00">::GlyphContext::IsDone</text>
</g>
<!-- Node2 -->
<g id="node2" class="node"><title>Node2</title>
<g id="a_node2"><a xlink:href="../../d7/dd6/classstructural_1_1flyweight_1_1_character.html#a1baf342f210fe52c8e5f143e80a90feb" target="_top" xlink:title="structural::flyweight\l::Character::IsDone">
<polygon fill="white" stroke="black" points="154,-98.5 154,-128.5 255,-128.5 255,-98.5 154,-98.5"/>
<text text-anchor="start" x="162" y="-116.5" font-family="Helvetica,sans-Serif" font-size="10.00">structural::flyweight</text>
<text text-anchor="middle" x="204.5" y="-105.5" font-family="Helvetica,sans-Serif" font-size="10.00">::Character::IsDone</text>
</a>
</g>
</g>
<!-- Node1&#45;&gt;Node2 -->
<g id="edge1" class="edge"><title>Node1&#45;&gt;Node2</title>
<path fill="none" stroke="midnightblue" d="M113.855,-82.8896C128.797,-87.9916 144.844,-93.4711 159.173,-98.3641"/>
<polygon fill="midnightblue" stroke="midnightblue" points="114.82,-79.5207 104.226,-79.6014 112.558,-86.1452 114.82,-79.5207"/>
</g>
<!-- Node3 -->
<g id="node3" class="node"><title>Node3</title>
<g id="a_node3"><a xlink:href="../../d4/da7/classstructural_1_1flyweight_1_1_column.html#a2bf1a23838a960f033e07dcce7db6537" target="_top" xlink:title="structural::flyweight\l::Column::IsDone">
<polygon fill="white" stroke="black" points="154,-49.5 154,-79.5 255,-79.5 255,-49.5 154,-49.5"/>
<text text-anchor="start" x="162" y="-67.5" font-family="Helvetica,sans-Serif" font-size="10.00">structural::flyweight</text>
<text text-anchor="middle" x="204.5" y="-56.5" font-family="Helvetica,sans-Serif" font-size="10.00">::Column::IsDone</text>
</a>
</g>
</g>
<!-- Node1&#45;&gt;Node3 -->
<g id="edge2" class="edge"><title>Node1&#45;&gt;Node3</title>
<path fill="none" stroke="midnightblue" d="M128.408,-64.5C137.011,-64.5 145.679,-64.5 153.915,-64.5"/>
<polygon fill="midnightblue" stroke="midnightblue" points="128.367,-61.0001 118.367,-64.5 128.367,-68.0001 128.367,-61.0001"/>
</g>
<!-- Node4 -->
<g id="node4" class="node"><title>Node4</title>
<g id="a_node4"><a xlink:href="../../d4/d84/classstructural_1_1flyweight_1_1_row.html#af06d4584b55e7688d99b3426d042af77" target="_top" xlink:title="structural::flyweight\l::Row::IsDone">
<polygon fill="white" stroke="black" points="154,-0.5 154,-30.5 255,-30.5 255,-0.5 154,-0.5"/>
<text text-anchor="start" x="162" y="-18.5" font-family="Helvetica,sans-Serif" font-size="10.00">structural::flyweight</text>
<text text-anchor="middle" x="204.5" y="-7.5" font-family="Helvetica,sans-Serif" font-size="10.00">::Row::IsDone</text>
</a>
</g>
</g>
<!-- Node1&#45;&gt;Node4 -->
<g id="edge3" class="edge"><title>Node1&#45;&gt;Node4</title>
<path fill="none" stroke="midnightblue" d="M113.855,-46.1104C128.797,-41.0084 144.844,-35.5289 159.173,-30.6359"/>
<polygon fill="midnightblue" stroke="midnightblue" points="112.558,-42.8548 104.226,-49.3986 114.82,-49.4793 112.558,-42.8548"/>
</g>
</g>
</svg>
