<?xml version="1.0" encoding="UTF-8" standalone="no"?>
<!DOCTYPE svg PUBLIC "-//W3C//DTD SVG 1.1//EN"
 "http://www.w3.org/Graphics/SVG/1.1/DTD/svg11.dtd">
<!-- Generated by graphviz version 2.38.0 (20140413.2041)
 -->
<!-- Title: structural::flyweight::GlyphContext::IsDone Pages: 1 -->
<svg width="422pt" height="39pt"
 viewBox="0.00 0.00 422.00 39.00" xmlns="http://www.w3.org/2000/svg" xmlns:xlink="http://www.w3.org/1999/xlink">
<g id="graph0" class="graph" transform="scale(1 1) rotate(0) translate(4 35)">
<title>structural::flyweight::GlyphContext::IsDone</title>
<polygon fill="white" stroke="none" points="-4,4 -4,-35 418,-35 418,4 -4,4"/>
<!-- Node1 -->
<g id="node1" class="node"><title>Node1</title>
<polygon fill="#bfbfbf" stroke="black" points="0,-0.5 0,-30.5 118,-30.5 118,-0.5 0,-0.5"/>
<text text-anchor="start" x="8" y="-18.5" font-family="Helvetica,sans-Serif" font-size="10.00">structural::flyweight</text>
<text text-anchor="middle" x="59" y="-7.5" font-family="Helvetica,sans-Serif" font-size="10.00">::GlyphContext::IsDone</text>
</g>
<!-- Node2 -->
<g id="node2" class="node"><title>Node2</title>
<g id="a_node2"><a xlink:href="../../d2/d57/classstructural_1_1flyweight_1_1_glyph_context.html#a4aa8f35261cad4fef834d07dadc9c622" target="_top" xlink:title="structural::flyweight\l::GlyphContext::GetFont">
<polygon fill="white" stroke="black" points="154,-0.5 154,-30.5 277,-30.5 277,-0.5 154,-0.5"/>
<text text-anchor="start" x="162" y="-18.5" font-family="Helvetica,sans-Serif" font-size="10.00">structural::flyweight</text>
<text text-anchor="middle" x="215.5" y="-7.5" font-family="Helvetica,sans-Serif" font-size="10.00">::GlyphContext::GetFont</text>
</a>
</g>
</g>
<!-- Node1&#45;&gt;Node2 -->
<g id="edge1" class="edge"><title>Node1&#45;&gt;Node2</title>
<path fill="none" stroke="midnightblue" d="M118.41,-15.5C126.672,-15.5 135.24,-15.5 143.705,-15.5"/>
<polygon fill="midnightblue" stroke="midnightblue" points="143.95,-19.0001 153.95,-15.5 143.95,-12.0001 143.95,-19.0001"/>
</g>
<!-- Node3 -->
<g id="node3" class="node"><title>Node3</title>
<g id="a_node3"><a xlink:href="../../dd/dd0/classstructural_1_1flyweight_1_1_b_tree.html#a4b0f1af2dae7456b2ac16f96e4ac35b5" target="_top" xlink:title="structural::flyweight\l::BTree::Get">
<polygon fill="white" stroke="black" points="313,-0.5 313,-30.5 414,-30.5 414,-0.5 313,-0.5"/>
<text text-anchor="start" x="321" y="-18.5" font-family="Helvetica,sans-Serif" font-size="10.00">structural::flyweight</text>
<text text-anchor="middle" x="363.5" y="-7.5" font-family="Helvetica,sans-Serif" font-size="10.00">::BTree::Get</text>
</a>
</g>
</g>
<!-- Node2&#45;&gt;Node3 -->
<g id="edge2" class="edge"><title>Node2&#45;&gt;Node3</title>
<path fill="none" stroke="midnightblue" d="M277.149,-15.5C285.615,-15.5 294.31,-15.5 302.759,-15.5"/>
<polygon fill="midnightblue" stroke="midnightblue" points="302.912,-19.0001 312.912,-15.5 302.912,-12.0001 302.912,-19.0001"/>
</g>
</g>
</svg>
