<?xml version="1.0" encoding="UTF-8" standalone="no"?>
<!DOCTYPE svg PUBLIC "-//W3C//DTD SVG 1.1//EN"
 "http://www.w3.org/Graphics/SVG/1.1/DTD/svg11.dtd">
<!-- Generated by graphviz version 2.38.0 (20140413.2041)
 -->
<!-- Title: structural::flyweight::GlyphContext::Insert Pages: 1 -->
<svg width="257pt" height="88pt"
 viewBox="0.00 0.00 257.00 88.00" xmlns="http://www.w3.org/2000/svg" xmlns:xlink="http://www.w3.org/1999/xlink">
<g id="graph0" class="graph" transform="scale(1 1) rotate(0) translate(4 84)">
<title>structural::flyweight::GlyphContext::Insert</title>
<polygon fill="white" stroke="none" points="-4,4 -4,-84 253,-84 253,4 -4,4"/>
<!-- Node1 -->
<g id="node1" class="node"><title>Node1</title>
<polygon fill="#bfbfbf" stroke="black" points="0,-24.5 0,-54.5 112,-54.5 112,-24.5 0,-24.5"/>
<text text-anchor="start" x="8" y="-42.5" font-family="Helvetica,sans-Serif" font-size="10.00">structural::flyweight</text>
<text text-anchor="middle" x="56" y="-31.5" font-family="Helvetica,sans-Serif" font-size="10.00">::GlyphContext::Insert</text>
</g>
<!-- Node2 -->
<g id="node2" class="node"><title>Node2</title>
<g id="a_node2"><a xlink:href="../../dd/dd0/classstructural_1_1flyweight_1_1_b_tree.html#a4b0f1af2dae7456b2ac16f96e4ac35b5" target="_top" xlink:title="structural::flyweight\l::BTree::Get">
<polygon fill="white" stroke="black" points="148,-49.5 148,-79.5 249,-79.5 249,-49.5 148,-49.5"/>
<text text-anchor="start" x="156" y="-67.5" font-family="Helvetica,sans-Serif" font-size="10.00">structural::flyweight</text>
<text text-anchor="middle" x="198.5" y="-56.5" font-family="Helvetica,sans-Serif" font-size="10.00">::BTree::Get</text>
</a>
</g>
</g>
<!-- Node1&#45;&gt;Node2 -->
<g id="edge1" class="edge"><title>Node1&#45;&gt;Node2</title>
<path fill="none" stroke="midnightblue" d="M112.126,-49.3089C120.434,-50.7871 129.038,-52.3181 137.443,-53.8137"/>
<polygon fill="midnightblue" stroke="midnightblue" points="137.105,-57.3084 147.563,-55.6144 138.331,-50.4166 137.105,-57.3084"/>
</g>
<!-- Node3 -->
<g id="node3" class="node"><title>Node3</title>
<g id="a_node3"><a xlink:href="../../dd/dd0/classstructural_1_1flyweight_1_1_b_tree.html#a4daf99447f78c2d08b09b38a9d59f2b0" target="_top" xlink:title="structural::flyweight\l::BTree::Set">
<polygon fill="white" stroke="black" points="148,-0.5 148,-30.5 249,-30.5 249,-0.5 148,-0.5"/>
<text text-anchor="start" x="156" y="-18.5" font-family="Helvetica,sans-Serif" font-size="10.00">structural::flyweight</text>
<text text-anchor="middle" x="198.5" y="-7.5" font-family="Helvetica,sans-Serif" font-size="10.00">::BTree::Set</text>
</a>
</g>
</g>
<!-- Node1&#45;&gt;Node3 -->
<g id="edge2" class="edge"><title>Node1&#45;&gt;Node3</title>
<path fill="none" stroke="midnightblue" d="M112.126,-30.0834C120.434,-28.6643 129.038,-27.1946 137.443,-25.7589"/>
<polygon fill="midnightblue" stroke="midnightblue" points="138.295,-29.164 147.563,-24.0301 137.117,-22.264 138.295,-29.164"/>
</g>
</g>
</svg>
