<?xml version="1.0" encoding="UTF-8" standalone="no"?>
<!DOCTYPE svg PUBLIC "-//W3C//DTD SVG 1.1//EN"
 "http://www.w3.org/Graphics/SVG/1.1/DTD/svg11.dtd">
<!-- Generated by graphviz version 2.38.0 (20140413.2041)
 -->
<!-- Title: src/structural/src/bridge/window.h Pages: 1 -->
<svg width="414pt" height="195pt"
 viewBox="0.00 0.00 413.50 195.00" xmlns="http://www.w3.org/2000/svg" xmlns:xlink="http://www.w3.org/1999/xlink">
<g id="graph0" class="graph" transform="scale(1 1) rotate(0) translate(4 191)">
<title>src/structural/src/bridge/window.h</title>
<polygon fill="white" stroke="none" points="-4,4 -4,-191 409.5,-191 409.5,4 -4,4"/>
<!-- Node1 -->
<g id="node1" class="node"><title>Node1</title>
<polygon fill="#bfbfbf" stroke="black" points="192.5,-156.5 192.5,-186.5 282.5,-186.5 282.5,-156.5 192.5,-156.5"/>
<text text-anchor="start" x="200.5" y="-174.5" font-family="Helvetica,sans-Serif" font-size="10.00">src/structural/src</text>
<text text-anchor="middle" x="237.5" y="-163.5" font-family="Helvetica,sans-Serif" font-size="10.00">/bridge/window.h</text>
</g>
<!-- Node2 -->
<g id="node2" class="node"><title>Node2</title>
<g id="a_node2"><a xlink:href="../../d8/d32/application__window_8h.html" target="_top" xlink:title="src/structural/src\l/bridge/application\l_window.h">
<polygon fill="white" stroke="black" points="68,-78.5 68,-119.5 163,-119.5 163,-78.5 68,-78.5"/>
<text text-anchor="start" x="76" y="-107.5" font-family="Helvetica,sans-Serif" font-size="10.00">src/structural/src</text>
<text text-anchor="start" x="76" y="-96.5" font-family="Helvetica,sans-Serif" font-size="10.00">/bridge/application</text>
<text text-anchor="middle" x="115.5" y="-85.5" font-family="Helvetica,sans-Serif" font-size="10.00">_window.h</text>
</a>
</g>
</g>
<!-- Node1&#45;&gt;Node2 -->
<g id="edge1" class="edge"><title>Node1&#45;&gt;Node2</title>
<path fill="none" stroke="midnightblue" d="M204.104,-151.201C187.153,-141.406 166.599,-129.528 149.556,-119.68"/>
<polygon fill="midnightblue" stroke="midnightblue" points="202.695,-154.43 213.105,-156.403 206.198,-148.369 202.695,-154.43"/>
</g>
<!-- Node5 -->
<g id="node5" class="node"><title>Node5</title>
<g id="a_node5"><a xlink:href="../../dd/ddd/icon__window_8h.html" target="_top" xlink:title="src/structural/src\l/bridge/icon_window.h">
<polygon fill="white" stroke="black" points="181.5,-84 181.5,-114 293.5,-114 293.5,-84 181.5,-84"/>
<text text-anchor="start" x="189.5" y="-102" font-family="Helvetica,sans-Serif" font-size="10.00">src/structural/src</text>
<text text-anchor="middle" x="237.5" y="-91" font-family="Helvetica,sans-Serif" font-size="10.00">/bridge/icon_window.h</text>
</a>
</g>
</g>
<!-- Node1&#45;&gt;Node5 -->
<g id="edge4" class="edge"><title>Node1&#45;&gt;Node5</title>
<path fill="none" stroke="midnightblue" d="M237.5,-146.232C237.5,-135.568 237.5,-123.414 237.5,-114.246"/>
<polygon fill="midnightblue" stroke="midnightblue" points="234,-146.233 237.5,-156.233 241,-146.233 234,-146.233"/>
</g>
<!-- Node7 -->
<g id="node7" class="node"><title>Node7</title>
<g id="a_node7"><a xlink:href="../../d7/d60/window_8cc.html" target="_top" xlink:title="src/structural/src\l/bridge/window.cc">
<polygon fill="white" stroke="black" points="311.5,-84 311.5,-114 405.5,-114 405.5,-84 311.5,-84"/>
<text text-anchor="start" x="319.5" y="-102" font-family="Helvetica,sans-Serif" font-size="10.00">src/structural/src</text>
<text text-anchor="middle" x="358.5" y="-91" font-family="Helvetica,sans-Serif" font-size="10.00">/bridge/window.cc</text>
</a>
</g>
</g>
<!-- Node1&#45;&gt;Node7 -->
<g id="edge7" class="edge"><title>Node1&#45;&gt;Node7</title>
<path fill="none" stroke="midnightblue" d="M270.555,-151.241C290.724,-139.489 316.056,-124.73 334.347,-114.073"/>
<polygon fill="midnightblue" stroke="midnightblue" points="268.574,-148.344 261.695,-156.403 272.098,-154.393 268.574,-148.344"/>
</g>
<!-- Node3 -->
<g id="node3" class="node"><title>Node3</title>
<g id="a_node3"><a xlink:href="../../d7/de3/application__window_8cc.html" target="_top" xlink:title="src/structural/src\l/bridge/application\l_window.cc">
<polygon fill="white" stroke="black" points="0,-0.5 0,-41.5 95,-41.5 95,-0.5 0,-0.5"/>
<text text-anchor="start" x="8" y="-29.5" font-family="Helvetica,sans-Serif" font-size="10.00">src/structural/src</text>
<text text-anchor="start" x="8" y="-18.5" font-family="Helvetica,sans-Serif" font-size="10.00">/bridge/application</text>
<text text-anchor="middle" x="47.5" y="-7.5" font-family="Helvetica,sans-Serif" font-size="10.00">_window.cc</text>
</a>
</g>
</g>
<!-- Node2&#45;&gt;Node3 -->
<g id="edge2" class="edge"><title>Node2&#45;&gt;Node3</title>
<path fill="none" stroke="midnightblue" d="M91.2668,-70.9158C82.5763,-61.2029 72.9555,-50.4502 64.9523,-41.5056"/>
<polygon fill="midnightblue" stroke="midnightblue" points="88.712,-73.3095 97.9883,-78.4281 93.9287,-68.6419 88.712,-73.3095"/>
</g>
<!-- Node4 -->
<g id="node4" class="node"><title>Node4</title>
<g id="a_node4"><a xlink:href="../../d5/de6/bridge__test_8cc.html" target="_top" xlink:title="src/structural_tests\l/src/bridge/bridge_test.cc">
<polygon fill="white" stroke="black" points="113,-6 113,-36 240,-36 240,-6 113,-6"/>
<text text-anchor="start" x="121" y="-24" font-family="Helvetica,sans-Serif" font-size="10.00">src/structural_tests</text>
<text text-anchor="middle" x="176.5" y="-13" font-family="Helvetica,sans-Serif" font-size="10.00">/src/bridge/bridge_test.cc</text>
</a>
</g>
</g>
<!-- Node2&#45;&gt;Node4 -->
<g id="edge3" class="edge"><title>Node2&#45;&gt;Node4</title>
<path fill="none" stroke="midnightblue" d="M137.719,-70.3174C147.003,-58.7505 157.394,-45.8037 165.082,-36.2254"/>
<polygon fill="midnightblue" stroke="midnightblue" points="134.739,-68.4386 131.209,-78.4281 140.198,-72.8202 134.739,-68.4386"/>
</g>
<!-- Node5&#45;&gt;Node4 -->
<g id="edge6" class="edge"><title>Node5&#45;&gt;Node4</title>
<path fill="none" stroke="midnightblue" d="M219.687,-75.8065C209.434,-63.0329 196.854,-47.3596 187.922,-36.2309"/>
<polygon fill="midnightblue" stroke="midnightblue" points="217.037,-78.0971 226.026,-83.705 222.496,-73.7155 217.037,-78.0971"/>
</g>
<!-- Node6 -->
<g id="node6" class="node"><title>Node6</title>
<g id="a_node6"><a xlink:href="../../d3/d27/icon__window_8cc.html" target="_top" xlink:title="src/structural/src\l/bridge/icon_window.cc">
<polygon fill="white" stroke="black" points="258,-6 258,-36 375,-36 375,-6 258,-6"/>
<text text-anchor="start" x="266" y="-24" font-family="Helvetica,sans-Serif" font-size="10.00">src/structural/src</text>
<text text-anchor="middle" x="316.5" y="-13" font-family="Helvetica,sans-Serif" font-size="10.00">/bridge/icon_window.cc</text>
</a>
</g>
</g>
<!-- Node5&#45;&gt;Node6 -->
<g id="edge5" class="edge"><title>Node5&#45;&gt;Node6</title>
<path fill="none" stroke="midnightblue" d="M259.814,-76.5332C273.225,-63.6316 289.919,-47.5716 301.707,-36.2309"/>
<polygon fill="midnightblue" stroke="midnightblue" points="257.139,-74.2497 252.359,-83.705 261.992,-79.2944 257.139,-74.2497"/>
</g>
</g>
</svg>
