<?xml version="1.0" encoding="UTF-8" standalone="no"?>
<!DOCTYPE svg PUBLIC "-//W3C//DTD SVG 1.1//EN"
 "http://www.w3.org/Graphics/SVG/1.1/DTD/svg11.dtd">
<!-- Generated by graphviz version 2.38.0 (20140413.2041)
 -->
<!-- Title: src/structural/src/flyweight/glyph_context.cc Pages: 1 -->
<svg width="217pt" height="330pt"
 viewBox="0.00 0.00 217.00 330.00" xmlns="http://www.w3.org/2000/svg" xmlns:xlink="http://www.w3.org/1999/xlink">
<g id="graph0" class="graph" transform="scale(1 1) rotate(0) translate(4 326)">
<title>src/structural/src/flyweight/glyph_context.cc</title>
<polygon fill="white" stroke="none" points="-4,4 -4,-326 213,-326 213,4 -4,4"/>
<!-- Node1 -->
<g id="node1" class="node"><title>Node1</title>
<polygon fill="#bfbfbf" stroke="black" points="0,-291.5 0,-321.5 134,-321.5 134,-291.5 0,-291.5"/>
<text text-anchor="start" x="8" y="-309.5" font-family="Helvetica,sans-Serif" font-size="10.00">src/structural/src</text>
<text text-anchor="middle" x="67" y="-298.5" font-family="Helvetica,sans-Serif" font-size="10.00">/flyweight/glyph_context.cc</text>
</g>
<!-- Node2 -->
<g id="node2" class="node"><title>Node2</title>
<g id="a_node2"><a xlink:href="../../d3/de4/glyph__context_8h.html" target="_top" xlink:title="glyph_context.h">
<polygon fill="white" stroke="black" points="24,-235.5 24,-254.5 110,-254.5 110,-235.5 24,-235.5"/>
<text text-anchor="middle" x="67" y="-242.5" font-family="Helvetica,sans-Serif" font-size="10.00">glyph_context.h</text>
</a>
</g>
</g>
<!-- Node1&#45;&gt;Node2 -->
<g id="edge1" class="edge"><title>Node1&#45;&gt;Node2</title>
<path fill="none" stroke="midnightblue" d="M67,-291.399C67,-283.466 67,-273.458 67,-264.858"/>
<polygon fill="midnightblue" stroke="midnightblue" points="70.5001,-264.658 67,-254.658 63.5001,-264.658 70.5001,-264.658"/>
</g>
<!-- Node3 -->
<g id="node3" class="node"><title>Node3</title>
<g id="a_node3"><a xlink:href="../../d9/d13/btree_8h.html" target="_top" xlink:title="btree.h">
<polygon fill="white" stroke="black" points="43.5,-179.5 43.5,-198.5 90.5,-198.5 90.5,-179.5 43.5,-179.5"/>
<text text-anchor="middle" x="67" y="-186.5" font-family="Helvetica,sans-Serif" font-size="10.00">btree.h</text>
</a>
</g>
</g>
<!-- Node2&#45;&gt;Node3 -->
<g id="edge2" class="edge"><title>Node2&#45;&gt;Node3</title>
<path fill="none" stroke="midnightblue" d="M67,-235.083C67,-228.006 67,-217.861 67,-208.986"/>
<polygon fill="midnightblue" stroke="midnightblue" points="70.5001,-208.751 67,-198.751 63.5001,-208.751 70.5001,-208.751"/>
</g>
<!-- Node4 -->
<g id="node4" class="node"><title>Node4</title>
<g id="a_node4"><a xlink:href="../../d9/d67/font_8h.html" target="_top" xlink:title="font.h">
<polygon fill="white" stroke="black" points="4.5,-118 4.5,-137 45.5,-137 45.5,-118 4.5,-118"/>
<text text-anchor="middle" x="25" y="-125" font-family="Helvetica,sans-Serif" font-size="10.00">font.h</text>
</a>
</g>
</g>
<!-- Node3&#45;&gt;Node4 -->
<g id="edge3" class="edge"><title>Node3&#45;&gt;Node4</title>
<path fill="none" stroke="midnightblue" d="M60.9824,-179.475C54.7448,-170.638 44.8273,-156.589 36.9824,-145.475"/>
<polygon fill="midnightblue" stroke="midnightblue" points="39.6327,-143.16 31.0064,-137.009 33.9139,-147.197 39.6327,-143.16"/>
</g>
<!-- Node6 -->
<g id="node6" class="node"><title>Node6</title>
<g id="a_node6"><a xlink:href="../../da/d23/list_8h.html" target="_top" xlink:title="../../../operational\l/src/iterator/list.h">
<polygon fill="white" stroke="black" points="63.5,-112.5 63.5,-142.5 154.5,-142.5 154.5,-112.5 63.5,-112.5"/>
<text text-anchor="start" x="71.5" y="-130.5" font-family="Helvetica,sans-Serif" font-size="10.00">../../../operational</text>
<text text-anchor="middle" x="109" y="-119.5" font-family="Helvetica,sans-Serif" font-size="10.00">/src/iterator/list.h</text>
</a>
</g>
</g>
<!-- Node3&#45;&gt;Node6 -->
<g id="edge5" class="edge"><title>Node3&#45;&gt;Node6</title>
<path fill="none" stroke="midnightblue" d="M73.0176,-179.475C78.2806,-172.019 86.1633,-160.852 93.2105,-150.869"/>
<polygon fill="midnightblue" stroke="midnightblue" points="96.194,-152.711 99.1014,-142.523 90.4752,-148.674 96.194,-152.711"/>
</g>
<!-- Node5 -->
<g id="node5" class="node"><title>Node5</title>
<polygon fill="white" stroke="#bfbfbf" points="4.5,-56.5 4.5,-75.5 45.5,-75.5 45.5,-56.5 4.5,-56.5"/>
<text text-anchor="middle" x="25" y="-63.5" font-family="Helvetica,sans-Serif" font-size="10.00">string</text>
</g>
<!-- Node4&#45;&gt;Node5 -->
<g id="edge4" class="edge"><title>Node4&#45;&gt;Node5</title>
<path fill="none" stroke="midnightblue" d="M25,-117.975C25,-109.58 25,-96.4806 25,-85.6631"/>
<polygon fill="midnightblue" stroke="midnightblue" points="28.5001,-85.5091 25,-75.5091 21.5001,-85.5091 28.5001,-85.5091"/>
</g>
<!-- Node7 -->
<g id="node7" class="node"><title>Node7</title>
<g id="a_node7"><a xlink:href="../../d9/d71/list__iterator_8h.html" target="_top" xlink:title="list_iterator.h">
<polygon fill="white" stroke="black" points="67.5,-56.5 67.5,-75.5 140.5,-75.5 140.5,-56.5 67.5,-56.5"/>
<text text-anchor="middle" x="104" y="-63.5" font-family="Helvetica,sans-Serif" font-size="10.00">list_iterator.h</text>
</a>
</g>
</g>
<!-- Node6&#45;&gt;Node7 -->
<g id="edge6" class="edge"><title>Node6&#45;&gt;Node7</title>
<path fill="none" stroke="midnightblue" d="M107.815,-112.399C107.148,-104.466 106.307,-94.458 105.585,-85.8583"/>
<polygon fill="midnightblue" stroke="midnightblue" points="109.053,-85.3295 104.728,-75.6578 102.077,-85.9158 109.053,-85.3295"/>
</g>
<!-- Node9 -->
<g id="node9" class="node"><title>Node9</title>
<g id="a_node9"><a xlink:href="../../dd/d8c/list__interface_8h.html" target="_top" xlink:title="list_interface.h">
<polygon fill="white" stroke="black" points="129,-0.5 129,-19.5 209,-19.5 209,-0.5 129,-0.5"/>
<text text-anchor="middle" x="169" y="-7.5" font-family="Helvetica,sans-Serif" font-size="10.00">list_interface.h</text>
</a>
</g>
</g>
<!-- Node6&#45;&gt;Node9 -->
<g id="edge9" class="edge"><title>Node6&#45;&gt;Node9</title>
<path fill="none" stroke="midnightblue" d="M122.46,-112.488C131.073,-102.873 141.919,-89.4624 149,-76 156.729,-61.3052 162.001,-43.1409 165.184,-29.753"/>
<polygon fill="midnightblue" stroke="midnightblue" points="168.641,-30.3304 167.374,-19.8116 161.805,-28.8244 168.641,-30.3304"/>
</g>
<!-- Node8 -->
<g id="node8" class="node"><title>Node8</title>
<g id="a_node8"><a xlink:href="../../d6/da4/iterator__interface_8h.html" target="_top" xlink:title="iterator_interface.h">
<polygon fill="white" stroke="black" points="13.5,-0.5 13.5,-19.5 110.5,-19.5 110.5,-0.5 13.5,-0.5"/>
<text text-anchor="middle" x="62" y="-7.5" font-family="Helvetica,sans-Serif" font-size="10.00">iterator_interface.h</text>
</a>
</g>
</g>
<!-- Node7&#45;&gt;Node8 -->
<g id="edge7" class="edge"><title>Node7&#45;&gt;Node8</title>
<path fill="none" stroke="midnightblue" d="M97.0646,-56.083C91.0708,-48.3768 82.2482,-37.0333 74.9524,-27.6531"/>
<polygon fill="midnightblue" stroke="midnightblue" points="77.7086,-25.4958 68.8064,-19.7511 72.1831,-29.7934 77.7086,-25.4958"/>
</g>
<!-- Node7&#45;&gt;Node9 -->
<g id="edge8" class="edge"><title>Node7&#45;&gt;Node9</title>
<path fill="none" stroke="midnightblue" d="M114.443,-56.324C124.146,-48.2631 138.815,-36.0765 150.5,-26.3695"/>
<polygon fill="midnightblue" stroke="midnightblue" points="152.911,-28.9163 158.367,-19.8339 148.438,-23.532 152.911,-28.9163"/>
</g>
</g>
</svg>
