<?xml version="1.0" encoding="UTF-8" standalone="no"?>
<!DOCTYPE svg PUBLIC "-//W3C//DTD SVG 1.1//EN"
 "http://www.w3.org/Graphics/SVG/1.1/DTD/svg11.dtd">
<!-- Generated by graphviz version 2.38.0 (20140413.2041)
 -->
<!-- Title: src/operational/src/visitor/bus.h Pages: 1 -->
<svg width="230pt" height="117pt"
 viewBox="0.00 0.00 230.00 117.00" xmlns="http://www.w3.org/2000/svg" xmlns:xlink="http://www.w3.org/1999/xlink">
<g id="graph0" class="graph" transform="scale(1 1) rotate(0) translate(4 113)">
<title>src/operational/src/visitor/bus.h</title>
<polygon fill="white" stroke="none" points="-4,4 -4,-113 226,-113 226,4 -4,4"/>
<!-- Node1 -->
<g id="node1" class="node"><title>Node1</title>
<polygon fill="#bfbfbf" stroke="black" points="60,-78.5 60,-108.5 157,-108.5 157,-78.5 60,-78.5"/>
<text text-anchor="start" x="68" y="-96.5" font-family="Helvetica,sans-Serif" font-size="10.00">src/operational/src</text>
<text text-anchor="middle" x="108.5" y="-85.5" font-family="Helvetica,sans-Serif" font-size="10.00">/visitor/bus.h</text>
</g>
<!-- Node2 -->
<g id="node2" class="node"><title>Node2</title>
<g id="a_node2"><a xlink:href="../../d9/d45/operational_2src_2visitor_2bus_8cc.html" target="_top" xlink:title="src/operational/src\l/visitor/bus.cc">
<polygon fill="white" stroke="black" points="0,-6 0,-36 97,-36 97,-6 0,-6"/>
<text text-anchor="start" x="8" y="-24" font-family="Helvetica,sans-Serif" font-size="10.00">src/operational/src</text>
<text text-anchor="middle" x="48.5" y="-13" font-family="Helvetica,sans-Serif" font-size="10.00">/visitor/bus.cc</text>
</a>
</g>
</g>
<!-- Node1&#45;&gt;Node2 -->
<g id="edge1" class="edge"><title>Node1&#45;&gt;Node2</title>
<path fill="none" stroke="midnightblue" d="M89.8097,-70.5389C80.2925,-59.3562 68.9962,-46.0831 60.6238,-36.2455"/>
<polygon fill="midnightblue" stroke="midnightblue" points="87.2115,-72.8863 96.3581,-78.2333 92.5423,-68.3494 87.2115,-72.8863"/>
</g>
<!-- Node3 -->
<g id="node3" class="node"><title>Node3</title>
<g id="a_node3"><a xlink:href="../../dc/d3a/visitor__test_8cc.html" target="_top" xlink:title="src/operational_tests\l/src/visitor/visitor\l_test.cc">
<polygon fill="white" stroke="black" points="115,-0.5 115,-41.5 222,-41.5 222,-0.5 115,-0.5"/>
<text text-anchor="start" x="123" y="-29.5" font-family="Helvetica,sans-Serif" font-size="10.00">src/operational_tests</text>
<text text-anchor="start" x="123" y="-18.5" font-family="Helvetica,sans-Serif" font-size="10.00">/src/visitor/visitor</text>
<text text-anchor="middle" x="168.5" y="-7.5" font-family="Helvetica,sans-Serif" font-size="10.00">_test.cc</text>
</a>
</g>
</g>
<!-- Node1&#45;&gt;Node3 -->
<g id="edge2" class="edge"><title>Node1&#45;&gt;Node3</title>
<path fill="none" stroke="midnightblue" d="M127.188,-70.5411C135.072,-61.2778 144.177,-50.5799 151.829,-41.5884"/>
<polygon fill="midnightblue" stroke="midnightblue" points="124.458,-68.3494 120.642,-78.2333 129.789,-72.8863 124.458,-68.3494"/>
</g>
</g>
</svg>
