<?xml version="1.0" encoding="UTF-8" standalone="no"?>
<!DOCTYPE svg PUBLIC "-//W3C//DTD SVG 1.1//EN"
 "http://www.w3.org/Graphics/SVG/1.1/DTD/svg11.dtd">
<!-- Generated by graphviz version 2.38.0 (20140413.2041)
 -->
<!-- Title: structural::composite::FloppyDisk Pages: 1 -->
<svg width="129pt" height="347pt"
 viewBox="0.00 0.00 129.00 347.00" xmlns="http://www.w3.org/2000/svg" xmlns:xlink="http://www.w3.org/1999/xlink">
<g id="graph0" class="graph" transform="scale(1 1) rotate(0) translate(4 343)">
<title>structural::composite::FloppyDisk</title>
<polygon fill="white" stroke="none" points="-4,4 -4,-343 125,-343 125,4 -4,4"/>
<!-- Node1 -->
<g id="node1" class="node"><title>Node1</title>
<polygon fill="#bfbfbf" stroke="black" points="6.5,-0.5 6.5,-156.5 114.5,-156.5 114.5,-0.5 6.5,-0.5"/>
<text text-anchor="start" x="14.5" y="-144.5" font-family="Helvetica,sans-Serif" font-size="10.00">structural::composite</text>
<text text-anchor="middle" x="60.5" y="-133.5" font-family="Helvetica,sans-Serif" font-size="10.00">::FloppyDisk</text>
<polyline fill="none" stroke="black" points="6.5,-126.5 114.5,-126.5 "/>
<text text-anchor="middle" x="60.5" y="-114.5" font-family="Helvetica,sans-Serif" font-size="10.00"> </text>
<polyline fill="none" stroke="black" points="6.5,-107.5 114.5,-107.5 "/>
<text text-anchor="start" x="14.5" y="-95.5" font-family="Helvetica,sans-Serif" font-size="10.00">+ FloppyDisk()</text>
<text text-anchor="start" x="14.5" y="-84.5" font-family="Helvetica,sans-Serif" font-size="10.00">+ FloppyDisk()</text>
<text text-anchor="start" x="14.5" y="-73.5" font-family="Helvetica,sans-Serif" font-size="10.00">+ name()</text>
<text text-anchor="start" x="14.5" y="-62.5" font-family="Helvetica,sans-Serif" font-size="10.00">+ price()</text>
<text text-anchor="start" x="14.5" y="-51.5" font-family="Helvetica,sans-Serif" font-size="10.00">+ price()</text>
<text text-anchor="start" x="14.5" y="-40.5" font-family="Helvetica,sans-Serif" font-size="10.00">+ power()</text>
<text text-anchor="start" x="14.5" y="-29.5" font-family="Helvetica,sans-Serif" font-size="10.00">+ power()</text>
<text text-anchor="start" x="14.5" y="-18.5" font-family="Helvetica,sans-Serif" font-size="10.00">+ NetPrice()</text>
<text text-anchor="start" x="14.5" y="-7.5" font-family="Helvetica,sans-Serif" font-size="10.00">+ DiscountPrice()</text>
</g>
<!-- Node2 -->
<g id="node2" class="node"><title>Node2</title>
<g id="a_node2"><a xlink:href="../../df/d68/classstructural_1_1composite_1_1_equipment_interface.html" target="_top" xlink:title="{structural::composite\l::EquipmentInterface\n||+ ~EquipmentInterface()\l+ name()\l+ price()\l+ price()\l+ power()\l+ power()\l+ NetPrice()\l+ DiscountPrice()\l}">
<polygon fill="white" stroke="black" points="0,-193.5 0,-338.5 121,-338.5 121,-193.5 0,-193.5"/>
<text text-anchor="start" x="8" y="-326.5" font-family="Helvetica,sans-Serif" font-size="10.00">structural::composite</text>
<text text-anchor="middle" x="60.5" y="-315.5" font-family="Helvetica,sans-Serif" font-size="10.00">::EquipmentInterface</text>
<polyline fill="none" stroke="black" points="0,-308.5 121,-308.5 "/>
<text text-anchor="middle" x="60.5" y="-296.5" font-family="Helvetica,sans-Serif" font-size="10.00"> </text>
<polyline fill="none" stroke="black" points="0,-289.5 121,-289.5 "/>
<text text-anchor="start" x="8" y="-277.5" font-family="Helvetica,sans-Serif" font-size="10.00">+ ~EquipmentInterface()</text>
<text text-anchor="start" x="8" y="-266.5" font-family="Helvetica,sans-Serif" font-size="10.00">+ name()</text>
<text text-anchor="start" x="8" y="-255.5" font-family="Helvetica,sans-Serif" font-size="10.00">+ price()</text>
<text text-anchor="start" x="8" y="-244.5" font-family="Helvetica,sans-Serif" font-size="10.00">+ price()</text>
<text text-anchor="start" x="8" y="-233.5" font-family="Helvetica,sans-Serif" font-size="10.00">+ power()</text>
<text text-anchor="start" x="8" y="-222.5" font-family="Helvetica,sans-Serif" font-size="10.00">+ power()</text>
<text text-anchor="start" x="8" y="-211.5" font-family="Helvetica,sans-Serif" font-size="10.00">+ NetPrice()</text>
<text text-anchor="start" x="8" y="-200.5" font-family="Helvetica,sans-Serif" font-size="10.00">+ DiscountPrice()</text>
</a>
</g>
</g>
<!-- Node2&#45;&gt;Node1 -->
<g id="edge1" class="edge"><title>Node2&#45;&gt;Node1</title>
<path fill="none" stroke="midnightblue" d="M60.5,-183.031C60.5,-174.232 60.5,-165.302 60.5,-156.563"/>
<polygon fill="none" stroke="midnightblue" points="57.0001,-183.281 60.5,-193.281 64.0001,-183.281 57.0001,-183.281"/>
</g>
</g>
</svg>
