<?xml version="1.0" encoding="UTF-8" standalone="no"?>
<!DOCTYPE svg PUBLIC "-//W3C//DTD SVG 1.1//EN"
 "http://www.w3.org/Graphics/SVG/1.1/DTD/svg11.dtd">
<!-- Generated by graphviz version 2.38.0 (20140413.2041)
 -->
<!-- Title: src/structural/src/decorator/ascii7_stream.cc Pages: 1 -->
<svg width="172pt" height="263pt"
 viewBox="0.00 0.00 171.50 263.00" xmlns="http://www.w3.org/2000/svg" xmlns:xlink="http://www.w3.org/1999/xlink">
<g id="graph0" class="graph" transform="scale(1 1) rotate(0) translate(4 259)">
<title>src/structural/src/decorator/ascii7_stream.cc</title>
<polygon fill="white" stroke="none" points="-4,4 -4,-259 167.5,-259 167.5,4 -4,4"/>
<!-- Node1 -->
<g id="node1" class="node"><title>Node1</title>
<polygon fill="#bfbfbf" stroke="black" points="25,-224.5 25,-254.5 162,-254.5 162,-224.5 25,-224.5"/>
<text text-anchor="start" x="33" y="-242.5" font-family="Helvetica,sans-Serif" font-size="10.00">src/structural/src</text>
<text text-anchor="middle" x="93.5" y="-231.5" font-family="Helvetica,sans-Serif" font-size="10.00">/decorator/ascii7_stream.cc</text>
</g>
<!-- Node2 -->
<g id="node2" class="node"><title>Node2</title>
<g id="a_node2"><a xlink:href="../../d2/d75/ascii7__stream_8h.html" target="_top" xlink:title="ascii7_stream.h">
<polygon fill="white" stroke="black" points="7.5,-168.5 7.5,-187.5 93.5,-187.5 93.5,-168.5 7.5,-168.5"/>
<text text-anchor="middle" x="50.5" y="-175.5" font-family="Helvetica,sans-Serif" font-size="10.00">ascii7_stream.h</text>
</a>
</g>
</g>
<!-- Node1&#45;&gt;Node2 -->
<g id="edge1" class="edge"><title>Node1&#45;&gt;Node2</title>
<path fill="none" stroke="midnightblue" d="M83.3096,-224.399C77.1256,-215.842 69.1965,-204.871 62.6824,-195.857"/>
<polygon fill="midnightblue" stroke="midnightblue" points="65.4511,-193.713 56.7569,-187.658 59.7776,-197.813 65.4511,-193.713"/>
</g>
<!-- Node6 -->
<g id="node6" class="node"><title>Node6</title>
<polygon fill="white" stroke="#bfbfbf" points="111.5,-168.5 111.5,-187.5 163.5,-187.5 163.5,-168.5 111.5,-168.5"/>
<text text-anchor="middle" x="137.5" y="-175.5" font-family="Helvetica,sans-Serif" font-size="10.00">sstream</text>
</g>
<!-- Node1&#45;&gt;Node6 -->
<g id="edge5" class="edge"><title>Node1&#45;&gt;Node6</title>
<path fill="none" stroke="midnightblue" d="M103.927,-224.399C110.255,-215.842 118.369,-204.871 125.034,-195.857"/>
<polygon fill="midnightblue" stroke="midnightblue" points="127.966,-197.779 131.098,-187.658 122.338,-193.617 127.966,-197.779"/>
</g>
<!-- Node3 -->
<g id="node3" class="node"><title>Node3</title>
<g id="a_node3"><a xlink:href="../../d2/dd2/stream__decorator_8h.html" target="_top" xlink:title="stream_decorator.h">
<polygon fill="white" stroke="black" points="0,-112.5 0,-131.5 101,-131.5 101,-112.5 0,-112.5"/>
<text text-anchor="middle" x="50.5" y="-119.5" font-family="Helvetica,sans-Serif" font-size="10.00">stream_decorator.h</text>
</a>
</g>
</g>
<!-- Node2&#45;&gt;Node3 -->
<g id="edge2" class="edge"><title>Node2&#45;&gt;Node3</title>
<path fill="none" stroke="midnightblue" d="M50.5,-168.083C50.5,-161.006 50.5,-150.861 50.5,-141.986"/>
<polygon fill="midnightblue" stroke="midnightblue" points="54.0001,-141.751 50.5,-131.751 47.0001,-141.751 54.0001,-141.751"/>
</g>
<!-- Node4 -->
<g id="node4" class="node"><title>Node4</title>
<g id="a_node4"><a xlink:href="../../d3/d9f/stream__interface_8h.html" target="_top" xlink:title="stream_interface.h">
<polygon fill="white" stroke="black" points="2,-56.5 2,-75.5 99,-75.5 99,-56.5 2,-56.5"/>
<text text-anchor="middle" x="50.5" y="-63.5" font-family="Helvetica,sans-Serif" font-size="10.00">stream_interface.h</text>
</a>
</g>
</g>
<!-- Node3&#45;&gt;Node4 -->
<g id="edge3" class="edge"><title>Node3&#45;&gt;Node4</title>
<path fill="none" stroke="midnightblue" d="M50.5,-112.083C50.5,-105.006 50.5,-94.8611 50.5,-85.9865"/>
<polygon fill="midnightblue" stroke="midnightblue" points="54.0001,-85.751 50.5,-75.7511 47.0001,-85.7511 54.0001,-85.751"/>
</g>
<!-- Node5 -->
<g id="node5" class="node"><title>Node5</title>
<polygon fill="white" stroke="#bfbfbf" points="30,-0.5 30,-19.5 71,-19.5 71,-0.5 30,-0.5"/>
<text text-anchor="middle" x="50.5" y="-7.5" font-family="Helvetica,sans-Serif" font-size="10.00">string</text>
</g>
<!-- Node4&#45;&gt;Node5 -->
<g id="edge4" class="edge"><title>Node4&#45;&gt;Node5</title>
<path fill="none" stroke="midnightblue" d="M50.5,-56.083C50.5,-49.0059 50.5,-38.8611 50.5,-29.9865"/>
<polygon fill="midnightblue" stroke="midnightblue" points="54.0001,-29.751 50.5,-19.7511 47.0001,-29.7511 54.0001,-29.751"/>
</g>
</g>
</svg>
