<?xml version="1.0" encoding="UTF-8" standalone="no"?>
<!DOCTYPE svg PUBLIC "-//W3C//DTD SVG 1.1//EN"
 "http://www.w3.org/Graphics/SVG/1.1/DTD/svg11.dtd">
<!-- Generated by graphviz version 2.38.0 (20140413.2041)
 -->
<!-- Title: src/creational/src/mazeparts/room_with_a_bomb.h Pages: 1 -->
<svg width="670pt" height="128pt"
 viewBox="0.00 0.00 670.00 128.00" xmlns="http://www.w3.org/2000/svg" xmlns:xlink="http://www.w3.org/1999/xlink">
<g id="graph0" class="graph" transform="scale(1 1) rotate(0) translate(4 124)">
<title>src/creational/src/mazeparts/room_with_a_bomb.h</title>
<polygon fill="white" stroke="none" points="-4,4 -4,-124 666,-124 666,4 -4,4"/>
<!-- Node1 -->
<g id="node1" class="node"><title>Node1</title>
<polygon fill="#bfbfbf" stroke="black" points="277.5,-78.5 277.5,-119.5 390.5,-119.5 390.5,-78.5 277.5,-78.5"/>
<text text-anchor="start" x="285.5" y="-107.5" font-family="Helvetica,sans-Serif" font-size="10.00">src/creational/src</text>
<text text-anchor="start" x="285.5" y="-96.5" font-family="Helvetica,sans-Serif" font-size="10.00">/mazeparts/room_with</text>
<text text-anchor="middle" x="334" y="-85.5" font-family="Helvetica,sans-Serif" font-size="10.00">_a_bomb.h</text>
</g>
<!-- Node2 -->
<g id="node2" class="node"><title>Node2</title>
<g id="a_node2"><a xlink:href="../../d9/d3b/bombed__maze__factory_8cc.html" target="_top" xlink:title="src/creational/src\l/abstractfactory/bombed\l_maze_factory.cc">
<polygon fill="white" stroke="black" points="0,-0.5 0,-41.5 122,-41.5 122,-0.5 0,-0.5"/>
<text text-anchor="start" x="8" y="-29.5" font-family="Helvetica,sans-Serif" font-size="10.00">src/creational/src</text>
<text text-anchor="start" x="8" y="-18.5" font-family="Helvetica,sans-Serif" font-size="10.00">/abstractfactory/bombed</text>
<text text-anchor="middle" x="61" y="-7.5" font-family="Helvetica,sans-Serif" font-size="10.00">_maze_factory.cc</text>
</a>
</g>
</g>
<!-- Node1&#45;&gt;Node2 -->
<g id="edge1" class="edge"><title>Node1&#45;&gt;Node2</title>
<path fill="none" stroke="midnightblue" d="M267.271,-79.7569C227.647,-68.8828 176.428,-54.7553 131,-42 128.08,-41.18 125.091,-40.338 122.074,-39.4852"/>
<polygon fill="midnightblue" stroke="midnightblue" points="266.515,-83.1788 277.085,-82.4486 268.367,-76.4281 266.515,-83.1788"/>
</g>
<!-- Node3 -->
<g id="node3" class="node"><title>Node3</title>
<g id="a_node3"><a xlink:href="../../d4/d89/bombed__maze__game_8cc.html" target="_top" xlink:title="src/creational/src\l/factorymethod/bombed\l_maze_game.cc">
<polygon fill="white" stroke="black" points="140.5,-0.5 140.5,-41.5 259.5,-41.5 259.5,-0.5 140.5,-0.5"/>
<text text-anchor="start" x="148.5" y="-29.5" font-family="Helvetica,sans-Serif" font-size="10.00">src/creational/src</text>
<text text-anchor="start" x="148.5" y="-18.5" font-family="Helvetica,sans-Serif" font-size="10.00">/factorymethod/bombed</text>
<text text-anchor="middle" x="200" y="-7.5" font-family="Helvetica,sans-Serif" font-size="10.00">_maze_game.cc</text>
</a>
</g>
</g>
<!-- Node1&#45;&gt;Node3 -->
<g id="edge2" class="edge"><title>Node1&#45;&gt;Node3</title>
<path fill="none" stroke="midnightblue" d="M290.777,-73.4856C272.525,-63.1335 251.568,-51.2473 234.391,-41.5056"/>
<polygon fill="midnightblue" stroke="midnightblue" points="289.067,-76.5391 299.492,-78.4281 292.52,-70.4502 289.067,-76.5391"/>
</g>
<!-- Node4 -->
<g id="node4" class="node"><title>Node4</title>
<g id="a_node4"><a xlink:href="../../d5/d94/room__with__a__bomb_8cc.html" target="_top" xlink:title="src/creational/src\l/mazeparts/room_with\l_a_bomb.cc">
<polygon fill="white" stroke="black" points="277.5,-0.5 277.5,-41.5 390.5,-41.5 390.5,-0.5 277.5,-0.5"/>
<text text-anchor="start" x="285.5" y="-29.5" font-family="Helvetica,sans-Serif" font-size="10.00">src/creational/src</text>
<text text-anchor="start" x="285.5" y="-18.5" font-family="Helvetica,sans-Serif" font-size="10.00">/mazeparts/room_with</text>
<text text-anchor="middle" x="334" y="-7.5" font-family="Helvetica,sans-Serif" font-size="10.00">_a_bomb.cc</text>
</a>
</g>
</g>
<!-- Node1&#45;&gt;Node4 -->
<g id="edge3" class="edge"><title>Node1&#45;&gt;Node4</title>
<path fill="none" stroke="midnightblue" d="M334,-68.2965C334,-59.3009 334,-49.6532 334,-41.5056"/>
<polygon fill="midnightblue" stroke="midnightblue" points="330.5,-68.4281 334,-78.4281 337.5,-68.4281 330.5,-68.4281"/>
</g>
<!-- Node5 -->
<g id="node5" class="node"><title>Node5</title>
<g id="a_node5"><a xlink:href="../../d7/d0e/room__with__a__bomb__test_8cc.html" target="_top" xlink:title="src/creational_tests\l/src/mazeparts/room_with\l_a_bomb_test.cc">
<polygon fill="white" stroke="black" points="408.5,-0.5 408.5,-41.5 537.5,-41.5 537.5,-0.5 408.5,-0.5"/>
<text text-anchor="start" x="416.5" y="-29.5" font-family="Helvetica,sans-Serif" font-size="10.00">src/creational_tests</text>
<text text-anchor="start" x="416.5" y="-18.5" font-family="Helvetica,sans-Serif" font-size="10.00">/src/mazeparts/room_with</text>
<text text-anchor="middle" x="473" y="-7.5" font-family="Helvetica,sans-Serif" font-size="10.00">_a_bomb_test.cc</text>
</a>
</g>
</g>
<!-- Node1&#45;&gt;Node5 -->
<g id="edge4" class="edge"><title>Node1&#45;&gt;Node5</title>
<path fill="none" stroke="midnightblue" d="M378.578,-73.6266C397.571,-63.2416 419.427,-51.2915 437.325,-41.5056"/>
<polygon fill="midnightblue" stroke="midnightblue" points="376.891,-70.5597 369.796,-78.4281 380.249,-76.7016 376.891,-70.5597"/>
</g>
<!-- Node6 -->
<g id="node6" class="node"><title>Node6</title>
<g id="a_node6"><a xlink:href="../../d9/d77/validator_8cc.html" target="_top" xlink:title="src/creational_tests\l/src/utils/validator.cc">
<polygon fill="white" stroke="black" points="556,-6 556,-36 662,-36 662,-6 556,-6"/>
<text text-anchor="start" x="564" y="-24" font-family="Helvetica,sans-Serif" font-size="10.00">src/creational_tests</text>
<text text-anchor="middle" x="609" y="-13" font-family="Helvetica,sans-Serif" font-size="10.00">/src/utils/validator.cc</text>
</a>
</g>
</g>
<!-- Node1&#45;&gt;Node6 -->
<g id="edge5" class="edge"><title>Node1&#45;&gt;Node6</title>
<path fill="none" stroke="midnightblue" d="M400.604,-81.4909C442.732,-70.8013 498.247,-56.2606 547,-42 553.296,-40.1584 559.922,-38.1246 566.404,-36.0803"/>
<polygon fill="midnightblue" stroke="midnightblue" points="399.576,-78.1404 390.74,-83.9854 401.293,-84.9267 399.576,-78.1404"/>
</g>
</g>
</svg>
