<?xml version="1.0" encoding="UTF-8" standalone="no"?>
<!DOCTYPE svg PUBLIC "-//W3C//DTD SVG 1.1//EN"
 "http://www.w3.org/Graphics/SVG/1.1/DTD/svg11.dtd">
<!-- Generated by graphviz version 2.38.0 (20140413.2041)
 -->
<!-- Title: src/operational/src/mediator/mouse_event.h Pages: 1 -->
<!--zoomable 485 -->
<svg id="main" version="1.1" xmlns="http://www.w3.org/2000/svg" xmlns:xlink="http://www.w3.org/1999/xlink" xml:space="preserve" onload="init(evt)">
<style type="text/css"><![CDATA[
.edge:hover path { stroke: red; }
.edge:hover polygon { stroke: red; fill: red; }
]]></style>
<script type="text/javascript"><![CDATA[
var edges = document.getElementsByTagName('g');
if (edges && edges.length) {
  for (var i=0;i<edges.length;i++) {
    if (edges[i].id.substr(0,4)=='edge') {
      edges[i].setAttribute('class','edge');
    }
  }
}
]]></script>
        <defs>
                <circle id="rim" cx="0" cy="0" r="7"/>
                <circle id="rim2" cx="0" cy="0" r="3.5"/>
                <g id="zoomPlus">
                        <use xlink:href="#rim" fill="#404040">
                                <set attributeName="fill" to="#808080" begin="zoomplus.mouseover" end="zoomplus.mouseout"/>
                        </use>
                        <path d="M-4,0h8M0,-4v8" fill="none" stroke="white" stroke-width="1.5" pointer-events="none"/>
                </g>
                <g id="zoomMin">
                        <use xlink:href="#rim" fill="#404040">
                                <set attributeName="fill" to="#808080" begin="zoomminus.mouseover" end="zoomminus.mouseout"/>
                        </use>
                        <path d="M-4,0h8" fill="none" stroke="white" stroke-width="1.5" pointer-events="none"/>
                </g>
                <g id="dirArrow">
                        <path fill="none" stroke="white" stroke-width="1.5" d="M0,-3.0v7 M-2.5,-0.5L0,-3.0L2.5,-0.5"/>
                </g>
               <g id="resetDef">
                       <use xlink:href="#rim2" fill="#404040">
                               <set attributeName="fill" to="#808080" begin="reset.mouseover" end="reset.mouseout"/>
                       </use>
               </g>
        </defs>

<script type="text/javascript">
var viewWidth = 642;
var viewHeight = 485;
var sectionId = 'dynsection-0';
</script>
<script xlink:href="../../svgpan.js"/>
<svg id="graph" class="graph">
<g id="viewport">
<title>src/operational/src/mediator/mouse_event.h</title>
<polygon fill="white" stroke="none" points="-4,4 -4,-481 637.5,-481 637.5,4 -4,4"/>
<!-- Node1 -->
<g id="node1" class="node"><title>Node1</title>
<polygon fill="#bfbfbf" stroke="black" points="388.5,-446.5 388.5,-476.5 513.5,-476.5 513.5,-446.5 388.5,-446.5"/>
<text text-anchor="start" x="396.5" y="-464.5" font-family="Helvetica,sans-Serif" font-size="10.00">src/operational/src</text>
<text text-anchor="middle" x="451" y="-453.5" font-family="Helvetica,sans-Serif" font-size="10.00">/mediator/mouse_event.h</text>
</g>
<!-- Node2 -->
<g id="node2" class="node"><title>Node2</title>
<g id="a_node2"><a xlink:href="../../d5/d0b/mediator__widget__interface_8h.html" target="_top" xlink:title="src/operational/src\l/mediator/mediator_widget\l_interface.h">
<polygon fill="white" stroke="black" points="385.5,-368.5 385.5,-409.5 516.5,-409.5 516.5,-368.5 385.5,-368.5"/>
<text text-anchor="start" x="393.5" y="-397.5" font-family="Helvetica,sans-Serif" font-size="10.00">src/operational/src</text>
<text text-anchor="start" x="393.5" y="-386.5" font-family="Helvetica,sans-Serif" font-size="10.00">/mediator/mediator_widget</text>
<text text-anchor="middle" x="451" y="-375.5" font-family="Helvetica,sans-Serif" font-size="10.00">_interface.h</text>
</a>
</g>
</g>
<!-- Node1&#45;&gt;Node2 -->
<g id="edge1" class="edge"><title>Node1&#45;&gt;Node2</title>
<path fill="none" stroke="midnightblue" d="M451,-435.982C451,-427.347 451,-417.762 451,-409.588"/>
<polygon fill="midnightblue" stroke="midnightblue" points="447.5,-436.233 451,-446.233 454.5,-436.233 447.5,-436.233"/>
</g>
<!-- Node3 -->
<g id="node3" class="node"><title>Node3</title>
<g id="a_node3"><a xlink:href="../../d6/d19/dialog__director__interface_8h.html" target="_top" xlink:title="src/operational/src\l/mediator/dialog_director\l_interface.h">
<polygon fill="white" stroke="black" points="389.5,-290.5 389.5,-331.5 512.5,-331.5 512.5,-290.5 389.5,-290.5"/>
<text text-anchor="start" x="397.5" y="-319.5" font-family="Helvetica,sans-Serif" font-size="10.00">src/operational/src</text>
<text text-anchor="start" x="397.5" y="-308.5" font-family="Helvetica,sans-Serif" font-size="10.00">/mediator/dialog_director</text>
<text text-anchor="middle" x="451" y="-297.5" font-family="Helvetica,sans-Serif" font-size="10.00">_interface.h</text>
</a>
</g>
</g>
<!-- Node2&#45;&gt;Node3 -->
<g id="edge2" class="edge"><title>Node2&#45;&gt;Node3</title>
<path fill="none" stroke="midnightblue" d="M451,-358.297C451,-349.301 451,-339.653 451,-331.506"/>
<polygon fill="midnightblue" stroke="midnightblue" points="447.5,-358.428 451,-368.428 454.5,-358.428 447.5,-358.428"/>
</g>
<!-- Node4 -->
<g id="node4" class="node"><title>Node4</title>
<g id="a_node4"><a xlink:href="../../dd/dcb/mediator__widget_8h.html" target="_top" xlink:title="src/operational/src\l/mediator/mediator_widget.h">
<polygon fill="white" stroke="black" points="291.5,-223.5 291.5,-253.5 430.5,-253.5 430.5,-223.5 291.5,-223.5"/>
<text text-anchor="start" x="299.5" y="-241.5" font-family="Helvetica,sans-Serif" font-size="10.00">src/operational/src</text>
<text text-anchor="middle" x="361" y="-230.5" font-family="Helvetica,sans-Serif" font-size="10.00">/mediator/mediator_widget.h</text>
</a>
</g>
</g>
<!-- Node2&#45;&gt;Node4 -->
<g id="edge17" class="edge"><title>Node2&#45;&gt;Node4</title>
<path fill="none" stroke="midnightblue" d="M408.645,-362.394C397.827,-353.969 387.225,-343.712 380,-332 364.85,-307.443 361.551,-272.931 360.968,-253.759"/>
<polygon fill="midnightblue" stroke="midnightblue" points="406.78,-365.366 416.908,-368.474 410.928,-359.728 406.78,-365.366"/>
</g>
<!-- Node13 -->
<g id="node13" class="node"><title>Node13</title>
<g id="a_node13"><a xlink:href="../../df/d23/list__box_8h.html" target="_top" xlink:title="src/operational/src\l/mediator/list_box.h">
<polygon fill="white" stroke="black" points="489,-223.5 489,-253.5 591,-253.5 591,-223.5 489,-223.5"/>
<text text-anchor="start" x="497" y="-241.5" font-family="Helvetica,sans-Serif" font-size="10.00">src/operational/src</text>
<text text-anchor="middle" x="540" y="-230.5" font-family="Helvetica,sans-Serif" font-size="10.00">/mediator/list_box.h</text>
</a>
</g>
</g>
<!-- Node2&#45;&gt;Node13 -->
<g id="edge18" class="edge"><title>Node2&#45;&gt;Node13</title>
<path fill="none" stroke="midnightblue" d="M492.759,-362.295C503.425,-353.868 513.877,-343.635 521,-332 536.065,-307.391 539.396,-272.899 540.007,-253.744"/>
<polygon fill="midnightblue" stroke="midnightblue" points="490.53,-359.591 484.613,-368.38 494.719,-365.199 490.53,-359.591"/>
</g>
<!-- Node3&#45;&gt;Node4 -->
<g id="edge3" class="edge"><title>Node3&#45;&gt;Node4</title>
<path fill="none" stroke="midnightblue" d="M417.981,-284.135C404.839,-273.841 390.226,-262.394 379.089,-253.67"/>
<polygon fill="midnightblue" stroke="midnightblue" points="415.899,-286.95 425.93,-290.362 420.216,-281.44 415.899,-286.95"/>
</g>
<!-- Node7 -->
<g id="node7" class="node"><title>Node7</title>
<g id="a_node7"><a xlink:href="../../d6/d4a/font__dialog__director_8h.html" target="_top" xlink:title="src/operational/src\l/mediator/font_dialog\l_director.h">
<polygon fill="white" stroke="black" points="425.5,-78.5 425.5,-119.5 532.5,-119.5 532.5,-78.5 425.5,-78.5"/>
<text text-anchor="start" x="433.5" y="-107.5" font-family="Helvetica,sans-Serif" font-size="10.00">src/operational/src</text>
<text text-anchor="start" x="433.5" y="-96.5" font-family="Helvetica,sans-Serif" font-size="10.00">/mediator/font_dialog</text>
<text text-anchor="middle" x="479" y="-85.5" font-family="Helvetica,sans-Serif" font-size="10.00">_director.h</text>
</a>
</g>
</g>
<!-- Node3&#45;&gt;Node7 -->
<g id="edge13" class="edge"><title>Node3&#45;&gt;Node7</title>
<path fill="none" stroke="midnightblue" d="M454.968,-280.24C460.786,-236.607 471.472,-156.461 476.393,-119.551"/>
<polygon fill="midnightblue" stroke="midnightblue" points="451.487,-279.869 453.634,-290.244 458.425,-280.794 451.487,-279.869"/>
</g>
<!-- Node3&#45;&gt;Node13 -->
<g id="edge14" class="edge"><title>Node3&#45;&gt;Node13</title>
<path fill="none" stroke="midnightblue" d="M483.652,-284.135C496.648,-273.841 511.098,-262.394 522.112,-253.67"/>
<polygon fill="midnightblue" stroke="midnightblue" points="481.457,-281.409 475.791,-290.362 485.803,-286.896 481.457,-281.409"/>
</g>
<!-- Node5 -->
<g id="node5" class="node"><title>Node5</title>
<g id="a_node5"><a xlink:href="../../de/db6/entry__field_8h.html" target="_top" xlink:title="src/operational/src\l/mediator/entry_field.h">
<polygon fill="white" stroke="black" points="162.5,-156.5 162.5,-186.5 275.5,-186.5 275.5,-156.5 162.5,-156.5"/>
<text text-anchor="start" x="170.5" y="-174.5" font-family="Helvetica,sans-Serif" font-size="10.00">src/operational/src</text>
<text text-anchor="middle" x="219" y="-163.5" font-family="Helvetica,sans-Serif" font-size="10.00">/mediator/entry_field.h</text>
</a>
</g>
</g>
<!-- Node4&#45;&gt;Node5 -->
<g id="edge4" class="edge"><title>Node4&#45;&gt;Node5</title>
<path fill="none" stroke="midnightblue" d="M320.87,-219.131C298.307,-208.802 270.579,-196.11 249.752,-186.577"/>
<polygon fill="midnightblue" stroke="midnightblue" points="319.639,-222.416 330.188,-223.396 322.552,-216.051 319.639,-222.416"/>
</g>
<!-- Node10 -->
<g id="node10" class="node"><title>Node10</title>
<g id="a_node10"><a xlink:href="../../d0/dc7/mediator__button_8h.html" target="_top" xlink:title="src/operational/src\l/mediator/mediator_button.h">
<polygon fill="white" stroke="black" points="294,-156.5 294,-186.5 432,-186.5 432,-156.5 294,-156.5"/>
<text text-anchor="start" x="302" y="-174.5" font-family="Helvetica,sans-Serif" font-size="10.00">src/operational/src</text>
<text text-anchor="middle" x="363" y="-163.5" font-family="Helvetica,sans-Serif" font-size="10.00">/mediator/mediator_button.h</text>
</a>
</g>
</g>
<!-- Node4&#45;&gt;Node10 -->
<g id="edge9" class="edge"><title>Node4&#45;&gt;Node10</title>
<path fill="none" stroke="midnightblue" d="M361.751,-213.108C362.026,-204.154 362.329,-194.323 362.567,-186.577"/>
<polygon fill="midnightblue" stroke="midnightblue" points="358.243,-213.293 361.434,-223.396 365.24,-213.508 358.243,-213.293"/>
</g>
<!-- Node12 -->
<g id="node12" class="node"><title>Node12</title>
<g id="a_node12"><a xlink:href="../../de/d42/mediator__widget_8cc.html" target="_top" xlink:title="src/operational/src\l/mediator/mediator_widget.cc">
<polygon fill="white" stroke="black" points="0,-156.5 0,-186.5 144,-186.5 144,-156.5 0,-156.5"/>
<text text-anchor="start" x="8" y="-174.5" font-family="Helvetica,sans-Serif" font-size="10.00">src/operational/src</text>
<text text-anchor="middle" x="72" y="-163.5" font-family="Helvetica,sans-Serif" font-size="10.00">/mediator/mediator_widget.cc</text>
</a>
</g>
</g>
<!-- Node4&#45;&gt;Node12 -->
<g id="edge12" class="edge"><title>Node4&#45;&gt;Node12</title>
<path fill="none" stroke="midnightblue" d="M288.761,-221.252C241.39,-210.598 180.066,-196.805 134.739,-186.611"/>
<polygon fill="midnightblue" stroke="midnightblue" points="288.123,-224.696 298.647,-223.476 289.659,-217.867 288.123,-224.696"/>
</g>
<!-- Node6 -->
<g id="node6" class="node"><title>Node6</title>
<g id="a_node6"><a xlink:href="../../dd/d7d/entry__field_8cc.html" target="_top" xlink:title="src/operational/src\l/mediator/entry_field.cc">
<polygon fill="white" stroke="black" points="128,-84 128,-114 246,-114 246,-84 128,-84"/>
<text text-anchor="start" x="136" y="-102" font-family="Helvetica,sans-Serif" font-size="10.00">src/operational/src</text>
<text text-anchor="middle" x="187" y="-91" font-family="Helvetica,sans-Serif" font-size="10.00">/mediator/entry_field.cc</text>
</a>
</g>
</g>
<!-- Node5&#45;&gt;Node6 -->
<g id="edge5" class="edge"><title>Node5&#45;&gt;Node6</title>
<path fill="none" stroke="midnightblue" d="M208.286,-146.896C203.375,-136.076 197.715,-123.606 193.466,-114.246"/>
<polygon fill="midnightblue" stroke="midnightblue" points="205.204,-148.574 212.524,-156.233 211.578,-145.681 205.204,-148.574"/>
</g>
<!-- Node5&#45;&gt;Node7 -->
<g id="edge6" class="edge"><title>Node5&#45;&gt;Node7</title>
<path fill="none" stroke="midnightblue" d="M285.694,-154.398C323.969,-144.908 372.849,-132.37 416,-120 419.089,-119.115 422.255,-118.184 425.446,-117.228"/>
<polygon fill="midnightblue" stroke="midnightblue" points="284.568,-151.07 275.698,-156.866 286.246,-157.866 284.568,-151.07"/>
</g>
<!-- Node8 -->
<g id="node8" class="node"><title>Node8</title>
<g id="a_node8"><a xlink:href="../../d6/d8a/font__dialog__director_8cc.html" target="_top" xlink:title="src/operational/src\l/mediator/font_dialog\l_director.cc">
<polygon fill="white" stroke="black" points="361.5,-0.5 361.5,-41.5 468.5,-41.5 468.5,-0.5 361.5,-0.5"/>
<text text-anchor="start" x="369.5" y="-29.5" font-family="Helvetica,sans-Serif" font-size="10.00">src/operational/src</text>
<text text-anchor="start" x="369.5" y="-18.5" font-family="Helvetica,sans-Serif" font-size="10.00">/mediator/font_dialog</text>
<text text-anchor="middle" x="415" y="-7.5" font-family="Helvetica,sans-Serif" font-size="10.00">_director.cc</text>
</a>
</g>
</g>
<!-- Node7&#45;&gt;Node8 -->
<g id="edge7" class="edge"><title>Node7&#45;&gt;Node8</title>
<path fill="none" stroke="midnightblue" d="M455.949,-70.627C447.834,-60.9901 438.883,-50.3617 431.426,-41.5056"/>
<polygon fill="midnightblue" stroke="midnightblue" points="453.4,-73.0335 462.518,-78.4281 458.754,-68.5245 453.4,-73.0335"/>
</g>
<!-- Node9 -->
<g id="node9" class="node"><title>Node9</title>
<g id="a_node9"><a xlink:href="../../da/d87/mediator__test_8cc.html" target="_top" xlink:title="src/operational_tests\l/src/mediator/mediator\l_test.cc">
<polygon fill="white" stroke="black" points="487,-0.5 487,-41.5 601,-41.5 601,-0.5 487,-0.5"/>
<text text-anchor="start" x="495" y="-29.5" font-family="Helvetica,sans-Serif" font-size="10.00">src/operational_tests</text>
<text text-anchor="start" x="495" y="-18.5" font-family="Helvetica,sans-Serif" font-size="10.00">/src/mediator/mediator</text>
<text text-anchor="middle" x="544" y="-7.5" font-family="Helvetica,sans-Serif" font-size="10.00">_test.cc</text>
</a>
</g>
</g>
<!-- Node7&#45;&gt;Node9 -->
<g id="edge8" class="edge"><title>Node7&#45;&gt;Node9</title>
<path fill="none" stroke="midnightblue" d="M502.411,-70.627C510.653,-60.9901 519.743,-50.3617 527.318,-41.5056"/>
<polygon fill="midnightblue" stroke="midnightblue" points="499.579,-68.5536 495.739,-78.4281 504.899,-73.1034 499.579,-68.5536"/>
</g>
<!-- Node10&#45;&gt;Node7 -->
<g id="edge10" class="edge"><title>Node10&#45;&gt;Node7</title>
<path fill="none" stroke="midnightblue" d="M394.754,-151.201C410.871,-141.406 430.414,-129.528 446.619,-119.68"/>
<polygon fill="midnightblue" stroke="midnightblue" points="392.923,-148.218 386.196,-156.403 396.559,-154.2 392.923,-148.218"/>
</g>
<!-- Node11 -->
<g id="node11" class="node"><title>Node11</title>
<g id="a_node11"><a xlink:href="../../d5/d42/mediator__button_8cc.html" target="_top" xlink:title="src/operational/src\l/mediator/mediator_button.cc">
<polygon fill="white" stroke="black" points="264.5,-84 264.5,-114 407.5,-114 407.5,-84 264.5,-84"/>
<text text-anchor="start" x="272.5" y="-102" font-family="Helvetica,sans-Serif" font-size="10.00">src/operational/src</text>
<text text-anchor="middle" x="336" y="-91" font-family="Helvetica,sans-Serif" font-size="10.00">/mediator/mediator_button.cc</text>
</a>
</g>
</g>
<!-- Node10&#45;&gt;Node11 -->
<g id="edge11" class="edge"><title>Node10&#45;&gt;Node11</title>
<path fill="none" stroke="midnightblue" d="M353.833,-146.564C349.719,-135.821 345.004,-123.51 341.456,-114.246"/>
<polygon fill="midnightblue" stroke="midnightblue" points="350.691,-148.146 357.536,-156.233 357.228,-145.643 350.691,-148.146"/>
</g>
<!-- Node13&#45;&gt;Node7 -->
<g id="edge15" class="edge"><title>Node13&#45;&gt;Node7</title>
<path fill="none" stroke="midnightblue" d="M529.231,-214.057C525.347,-205.549 520.949,-195.853 517,-187 506.727,-163.97 495.16,-137.392 487.515,-119.734"/>
<polygon fill="midnightblue" stroke="midnightblue" points="526.153,-215.741 533.497,-223.378 532.518,-212.828 526.153,-215.741"/>
</g>
<!-- Node14 -->
<g id="node14" class="node"><title>Node14</title>
<g id="a_node14"><a xlink:href="../../d2/ddd/list__box_8cc.html" target="_top" xlink:title="src/operational/src\l/mediator/list_box.cc">
<polygon fill="white" stroke="black" points="526.5,-156.5 526.5,-186.5 633.5,-186.5 633.5,-156.5 526.5,-156.5"/>
<text text-anchor="start" x="534.5" y="-174.5" font-family="Helvetica,sans-Serif" font-size="10.00">src/operational/src</text>
<text text-anchor="middle" x="580" y="-163.5" font-family="Helvetica,sans-Serif" font-size="10.00">/mediator/list_box.cc</text>
</a>
</g>
</g>
<!-- Node13&#45;&gt;Node14 -->
<g id="edge16" class="edge"><title>Node13&#45;&gt;Node14</title>
<path fill="none" stroke="midnightblue" d="M553.928,-214.867C559.717,-205.459 566.256,-194.833 571.338,-186.577"/>
<polygon fill="midnightblue" stroke="midnightblue" points="550.94,-213.045 548.679,-223.396 556.901,-216.714 550.94,-213.045"/>
</g>
</g>
</svg>
        <g id="navigator" transform="translate(0 0)" fill="#404254">
                <rect fill="#f2f5e9" fill-opacity="0.5" stroke="#606060" stroke-width=".5" x="0" y="0" width="60" height="60"/>
                <use id="zoomplus" xlink:href="#zoomPlus" x="17" y="9" onmousedown="handleZoom(evt,'in')"/>
                <use id="zoomminus" xlink:href="#zoomMin" x="42" y="9" onmousedown="handleZoom(evt,'out')"/>
                <use id="reset" xlink:href="#resetDef" x="30" y="36" onmousedown="handleReset()"/>
                <g id="arrowUp" xlink:href="#dirArrow" transform="translate(30 24)" onmousedown="handlePan(0,-1)">
                  <use xlink:href="#rim" fill="#404040">
                        <set attributeName="fill" to="#808080" begin="arrowUp.mouseover" end="arrowUp.mouseout"/>
                  </use>
                  <path fill="none" stroke="white" stroke-width="1.5" d="M0,-3.0v7 M-2.5,-0.5L0,-3.0L2.5,-0.5"/>
                </g>
                <g id="arrowRight" xlink:href="#dirArrow" transform="rotate(90) translate(36 -43)" onmousedown="handlePan(1,0)">
                  <use xlink:href="#rim" fill="#404040">
                        <set attributeName="fill" to="#808080" begin="arrowRight.mouseover" end="arrowRight.mouseout"/>
                  </use>
                  <path fill="none" stroke="white" stroke-width="1.5" d="M0,-3.0v7 M-2.5,-0.5L0,-3.0L2.5,-0.5"/>
                </g>
                <g id="arrowDown" xlink:href="#dirArrow" transform="rotate(180) translate(-30 -48)" onmousedown="handlePan(0,1)">
                  <use xlink:href="#rim" fill="#404040">
                        <set attributeName="fill" to="#808080" begin="arrowDown.mouseover" end="arrowDown.mouseout"/>
                  </use>
                  <path fill="none" stroke="white" stroke-width="1.5" d="M0,-3.0v7 M-2.5,-0.5L0,-3.0L2.5,-0.5"/>
                </g>
                <g id="arrowLeft" xlink:href="#dirArrow" transform="rotate(270) translate(-36 17)" onmousedown="handlePan(-1,0)">
                  <use xlink:href="#rim" fill="#404040">
                        <set attributeName="fill" to="#808080" begin="arrowLeft.mouseover" end="arrowLeft.mouseout"/>
                  </use>
                  <path fill="none" stroke="white" stroke-width="1.5" d="M0,-3.0v7 M-2.5,-0.5L0,-3.0L2.5,-0.5"/>
                </g>
        </g>
        <svg viewBox="0 0 15 15" width="100%" height="30px" preserveAspectRatio="xMaxYMin meet">
         <g id="arrow_out" transform="scale(0.3 0.3)">
          <a xlink:href="mouse__event_8h__dep__incl_org.svg" target="_base">
           <rect id="button" ry="5" rx="5" y="6" x="6" height="38" width="38"
                fill="#f2f5e9" fill-opacity="0.5" stroke="#606060" stroke-width="1.0"/>
           <path id="arrow"
             d="M 11.500037,31.436501 C 11.940474,20.09759 22.043105,11.32322 32.158766,21.979434 L 37.068811,17.246167 C 37.068811,17.246167 37.088388,32 37.088388,32 L 22.160133,31.978069 C 22.160133,31.978069 26.997745,27.140456 26.997745,27.140456 C 18.528582,18.264221 13.291696,25.230495 11.500037,31.436501 z"
             style="fill:#404040;"/>
          </a>
         </g>
        </svg>
</svg>
