<?xml version="1.0" encoding="UTF-8" standalone="no"?>
<!DOCTYPE svg PUBLIC "-//W3C//DTD SVG 1.1//EN"
 "http://www.w3.org/Graphics/SVG/1.1/DTD/svg11.dtd">
<!-- Generated by graphviz version 2.38.0 (20140413.2041)
 -->
<!-- Title: src/operational/src/observer/clock_tick_interface.h Pages: 1 -->
<!--zoomable 340 -->
<svg id="main" version="1.1" xmlns="http://www.w3.org/2000/svg" xmlns:xlink="http://www.w3.org/1999/xlink" xml:space="preserve" onload="init(evt)">
<style type="text/css"><![CDATA[
.edge:hover path { stroke: red; }
.edge:hover polygon { stroke: red; fill: red; }
]]></style>
<script type="text/javascript"><![CDATA[
var edges = document.getElementsByTagName('g');
if (edges && edges.length) {
  for (var i=0;i<edges.length;i++) {
    if (edges[i].id.substr(0,4)=='edge') {
      edges[i].setAttribute('class','edge');
    }
  }
}
]]></script>
        <defs>
                <circle id="rim" cx="0" cy="0" r="7"/>
                <circle id="rim2" cx="0" cy="0" r="3.5"/>
                <g id="zoomPlus">
                        <use xlink:href="#rim" fill="#404040">
                                <set attributeName="fill" to="#808080" begin="zoomplus.mouseover" end="zoomplus.mouseout"/>
                        </use>
                        <path d="M-4,0h8M0,-4v8" fill="none" stroke="white" stroke-width="1.5" pointer-events="none"/>
                </g>
                <g id="zoomMin">
                        <use xlink:href="#rim" fill="#404040">
                                <set attributeName="fill" to="#808080" begin="zoomminus.mouseover" end="zoomminus.mouseout"/>
                        </use>
                        <path d="M-4,0h8" fill="none" stroke="white" stroke-width="1.5" pointer-events="none"/>
                </g>
                <g id="dirArrow">
                        <path fill="none" stroke="white" stroke-width="1.5" d="M0,-3.0v7 M-2.5,-0.5L0,-3.0L2.5,-0.5"/>
                </g>
               <g id="resetDef">
                       <use xlink:href="#rim2" fill="#404040">
                               <set attributeName="fill" to="#808080" begin="reset.mouseover" end="reset.mouseout"/>
                       </use>
               </g>
        </defs>

<script type="text/javascript">
var viewWidth = 682;
var viewHeight = 340;
var sectionId = 'dynsection-1';
</script>
<script xlink:href="../../svgpan.js"/>
<svg id="graph" class="graph">
<g id="viewport">
<title>src/operational/src/observer/clock_tick_interface.h</title>
<polygon fill="white" stroke="none" points="-4,4 -4,-336 678,-336 678,4 -4,4"/>
<!-- Node1 -->
<g id="node1" class="node"><title>Node1</title>
<polygon fill="#bfbfbf" stroke="black" points="358,-290.5 358,-331.5 461,-331.5 461,-290.5 358,-290.5"/>
<text text-anchor="start" x="366" y="-319.5" font-family="Helvetica,sans-Serif" font-size="10.00">src/operational/src</text>
<text text-anchor="start" x="366" y="-308.5" font-family="Helvetica,sans-Serif" font-size="10.00">/observer/clock_tick</text>
<text text-anchor="middle" x="409.5" y="-297.5" font-family="Helvetica,sans-Serif" font-size="10.00">_interface.h</text>
</g>
<!-- Node2 -->
<g id="node2" class="node"><title>Node2</title>
<g id="a_node2"><a xlink:href="../../d8/da8/clock__tick_8h.html" target="_top" xlink:title="src/operational/src\l/observer/clock_tick.h">
<polygon fill="white" stroke="black" points="354,-223.5 354,-253.5 465,-253.5 465,-223.5 354,-223.5"/>
<text text-anchor="start" x="362" y="-241.5" font-family="Helvetica,sans-Serif" font-size="10.00">src/operational/src</text>
<text text-anchor="middle" x="409.5" y="-230.5" font-family="Helvetica,sans-Serif" font-size="10.00">/observer/clock_tick.h</text>
</a>
</g>
</g>
<!-- Node1&#45;&gt;Node2 -->
<g id="edge1" class="edge"><title>Node1&#45;&gt;Node2</title>
<path fill="none" stroke="midnightblue" d="M409.5,-280.08C409.5,-271.006 409.5,-261.45 409.5,-253.892"/>
<polygon fill="midnightblue" stroke="midnightblue" points="406,-280.362 409.5,-290.362 413,-280.362 406,-280.362"/>
</g>
<!-- Node3 -->
<g id="node3" class="node"><title>Node3</title>
<g id="a_node3"><a xlink:href="../../d7/d97/clock__timer_8h.html" target="_top" xlink:title="src/operational/src\l/observer/clock_timer.h">
<polygon fill="white" stroke="black" points="287,-156.5 287,-186.5 404,-186.5 404,-156.5 287,-156.5"/>
<text text-anchor="start" x="295" y="-174.5" font-family="Helvetica,sans-Serif" font-size="10.00">src/operational/src</text>
<text text-anchor="middle" x="345.5" y="-163.5" font-family="Helvetica,sans-Serif" font-size="10.00">/observer/clock_timer.h</text>
</a>
</g>
</g>
<!-- Node2&#45;&gt;Node3 -->
<g id="edge2" class="edge"><title>Node2&#45;&gt;Node3</title>
<path fill="none" stroke="midnightblue" d="M388.355,-216.024C378.819,-206.34 367.825,-195.174 359.36,-186.577"/>
<polygon fill="midnightblue" stroke="midnightblue" points="386.103,-218.726 395.613,-223.396 391.091,-213.815 386.103,-218.726"/>
</g>
<!-- Node12 -->
<g id="node12" class="node"><title>Node12</title>
<g id="a_node12"><a xlink:href="../../d5/dd3/subject_8cc.html" target="_top" xlink:title="src/operational/src\l/observer/subject.cc">
<polygon fill="white" stroke="black" points="422.5,-156.5 422.5,-186.5 526.5,-186.5 526.5,-156.5 422.5,-156.5"/>
<text text-anchor="start" x="430.5" y="-174.5" font-family="Helvetica,sans-Serif" font-size="10.00">src/operational/src</text>
<text text-anchor="middle" x="474.5" y="-163.5" font-family="Helvetica,sans-Serif" font-size="10.00">/observer/subject.cc</text>
</a>
</g>
</g>
<!-- Node2&#45;&gt;Node12 -->
<g id="edge12" class="edge"><title>Node2&#45;&gt;Node12</title>
<path fill="none" stroke="midnightblue" d="M430.689,-216.311C440.439,-206.561 451.741,-195.259 460.423,-186.577"/>
<polygon fill="midnightblue" stroke="midnightblue" points="428.2,-213.85 423.604,-223.396 433.15,-218.8 428.2,-213.85"/>
</g>
<!-- Node4 -->
<g id="node4" class="node"><title>Node4</title>
<g id="a_node4"><a xlink:href="../../d7/d55/analog__clock_8h.html" target="_top" xlink:title="src/operational/src\l/observer/analog_clock.h">
<polygon fill="white" stroke="black" points="2.5,-84 2.5,-114 126.5,-114 126.5,-84 2.5,-84"/>
<text text-anchor="start" x="10.5" y="-102" font-family="Helvetica,sans-Serif" font-size="10.00">src/operational/src</text>
<text text-anchor="middle" x="64.5" y="-91" font-family="Helvetica,sans-Serif" font-size="10.00">/observer/analog_clock.h</text>
</a>
</g>
</g>
<!-- Node3&#45;&gt;Node4 -->
<g id="edge3" class="edge"><title>Node3&#45;&gt;Node4</title>
<path fill="none" stroke="midnightblue" d="M277.047,-154.743C235.918,-145.1 182.594,-132.291 135.5,-120 128.313,-118.124 120.738,-116.072 113.32,-114.019"/>
<polygon fill="midnightblue" stroke="midnightblue" points="276.428,-158.192 286.962,-157.061 278.022,-151.376 276.428,-158.192"/>
</g>
<!-- Node7 -->
<g id="node7" class="node"><title>Node7</title>
<g id="a_node7"><a xlink:href="../../da/d4d/clock__timer_8cc.html" target="_top" xlink:title="src/operational/src\l/observer/clock_timer.cc">
<polygon fill="white" stroke="black" points="144.5,-84 144.5,-114 266.5,-114 266.5,-84 144.5,-84"/>
<text text-anchor="start" x="152.5" y="-102" font-family="Helvetica,sans-Serif" font-size="10.00">src/operational/src</text>
<text text-anchor="middle" x="205.5" y="-91" font-family="Helvetica,sans-Serif" font-size="10.00">/observer/clock_timer.cc</text>
</a>
</g>
</g>
<!-- Node3&#45;&gt;Node7 -->
<g id="edge6" class="edge"><title>Node3&#45;&gt;Node7</title>
<path fill="none" stroke="midnightblue" d="M308.51,-151.873C284.978,-140.023 254.99,-124.922 233.446,-114.073"/>
<polygon fill="midnightblue" stroke="midnightblue" points="307,-155.031 317.505,-156.403 310.148,-148.779 307,-155.031"/>
</g>
<!-- Node8 -->
<g id="node8" class="node"><title>Node8</title>
<g id="a_node8"><a xlink:href="../../d7/dee/digital__clock_8h.html" target="_top" xlink:title="src/operational/src\l/observer/digital_clock.h">
<polygon fill="white" stroke="black" points="285,-84 285,-114 406,-114 406,-84 285,-84"/>
<text text-anchor="start" x="293" y="-102" font-family="Helvetica,sans-Serif" font-size="10.00">src/operational/src</text>
<text text-anchor="middle" x="345.5" y="-91" font-family="Helvetica,sans-Serif" font-size="10.00">/observer/digital_clock.h</text>
</a>
</g>
</g>
<!-- Node3&#45;&gt;Node8 -->
<g id="edge7" class="edge"><title>Node3&#45;&gt;Node8</title>
<path fill="none" stroke="midnightblue" d="M345.5,-146.232C345.5,-135.568 345.5,-123.414 345.5,-114.246"/>
<polygon fill="midnightblue" stroke="midnightblue" points="342,-146.233 345.5,-156.233 349,-146.233 342,-146.233"/>
</g>
<!-- Node10 -->
<g id="node10" class="node"><title>Node10</title>
<g id="a_node10"><a xlink:href="../../d9/d6d/iterator__test_8cc.html" target="_top" xlink:title="src/operational_tests\l/src/iterator/iterator\l_test.cc">
<polygon fill="white" stroke="black" points="424,-78.5 424,-119.5 531,-119.5 531,-78.5 424,-78.5"/>
<text text-anchor="start" x="432" y="-107.5" font-family="Helvetica,sans-Serif" font-size="10.00">src/operational_tests</text>
<text text-anchor="start" x="432" y="-96.5" font-family="Helvetica,sans-Serif" font-size="10.00">/src/iterator/iterator</text>
<text text-anchor="middle" x="477.5" y="-85.5" font-family="Helvetica,sans-Serif" font-size="10.00">_test.cc</text>
</a>
</g>
</g>
<!-- Node3&#45;&gt;Node10 -->
<g id="edge10" class="edge"><title>Node3&#45;&gt;Node10</title>
<path fill="none" stroke="midnightblue" d="M380.908,-151.589C399.467,-141.677 422.171,-129.551 440.903,-119.546"/>
<polygon fill="midnightblue" stroke="midnightblue" points="379.067,-148.604 371.895,-156.403 382.365,-154.779 379.067,-148.604"/>
</g>
<!-- Node11 -->
<g id="node11" class="node"><title>Node11</title>
<g id="a_node11"><a xlink:href="../../df/d15/clock__timer__test_8cc.html" target="_top" xlink:title="src/operational_tests\l/src/observer/clock_timer\l_test.cc">
<polygon fill="white" stroke="black" points="549,-78.5 549,-119.5 674,-119.5 674,-78.5 549,-78.5"/>
<text text-anchor="start" x="557" y="-107.5" font-family="Helvetica,sans-Serif" font-size="10.00">src/operational_tests</text>
<text text-anchor="start" x="557" y="-96.5" font-family="Helvetica,sans-Serif" font-size="10.00">/src/observer/clock_timer</text>
<text text-anchor="middle" x="611.5" y="-85.5" font-family="Helvetica,sans-Serif" font-size="10.00">_test.cc</text>
</a>
</g>
</g>
<!-- Node3&#45;&gt;Node11 -->
<g id="edge11" class="edge"><title>Node3&#45;&gt;Node11</title>
<path fill="none" stroke="midnightblue" d="M410.949,-153.919C448.844,-144.226 497.424,-131.644 540.5,-120 543.22,-119.265 545.996,-118.508 548.8,-117.74"/>
<polygon fill="midnightblue" stroke="midnightblue" points="409.88,-150.579 401.057,-156.445 411.613,-157.361 409.88,-150.579"/>
</g>
<!-- Node5 -->
<g id="node5" class="node"><title>Node5</title>
<g id="a_node5"><a xlink:href="../../dc/dcb/analog__clock_8cc.html" target="_top" xlink:title="src/operational/src\l/observer/analog_clock.cc">
<polygon fill="white" stroke="black" points="0,-6 0,-36 129,-36 129,-6 0,-6"/>
<text text-anchor="start" x="8" y="-24" font-family="Helvetica,sans-Serif" font-size="10.00">src/operational/src</text>
<text text-anchor="middle" x="64.5" y="-13" font-family="Helvetica,sans-Serif" font-size="10.00">/observer/analog_clock.cc</text>
</a>
</g>
</g>
<!-- Node4&#45;&gt;Node5 -->
<g id="edge4" class="edge"><title>Node4&#45;&gt;Node5</title>
<path fill="none" stroke="midnightblue" d="M64.5,-73.5898C64.5,-61.2565 64.5,-46.7237 64.5,-36.2309"/>
<polygon fill="midnightblue" stroke="midnightblue" points="61.0001,-73.7049 64.5,-83.705 68.0001,-73.705 61.0001,-73.7049"/>
</g>
<!-- Node6 -->
<g id="node6" class="node"><title>Node6</title>
<g id="a_node6"><a xlink:href="../../d6/d34/observer__test_8cc.html" target="_top" xlink:title="src/operational_tests\l/src/observer/observer\l_test.cc">
<polygon fill="white" stroke="black" points="150,-0.5 150,-41.5 261,-41.5 261,-0.5 150,-0.5"/>
<text text-anchor="start" x="158" y="-29.5" font-family="Helvetica,sans-Serif" font-size="10.00">src/operational_tests</text>
<text text-anchor="start" x="158" y="-18.5" font-family="Helvetica,sans-Serif" font-size="10.00">/src/observer/observer</text>
<text text-anchor="middle" x="205.5" y="-7.5" font-family="Helvetica,sans-Serif" font-size="10.00">_test.cc</text>
</a>
</g>
</g>
<!-- Node4&#45;&gt;Node6 -->
<g id="edge5" class="edge"><title>Node4&#45;&gt;Node6</title>
<path fill="none" stroke="midnightblue" d="M99.6707,-79.0428C120.828,-67.639 147.709,-53.1497 169.085,-41.6279"/>
<polygon fill="midnightblue" stroke="midnightblue" points="97.8326,-76.0574 90.6906,-83.8831 101.154,-82.2193 97.8326,-76.0574"/>
</g>
<!-- Node8&#45;&gt;Node6 -->
<g id="edge9" class="edge"><title>Node8&#45;&gt;Node6</title>
<path fill="none" stroke="midnightblue" d="M310.579,-79.0428C289.572,-67.639 262.881,-53.1497 241.657,-41.6279"/>
<polygon fill="midnightblue" stroke="midnightblue" points="309.037,-82.1881 319.495,-83.8831 312.376,-76.0361 309.037,-82.1881"/>
</g>
<!-- Node9 -->
<g id="node9" class="node"><title>Node9</title>
<g id="a_node9"><a xlink:href="../../d6/db3/digital__clock_8cc.html" target="_top" xlink:title="src/operational/src\l/observer/digital_clock.cc">
<polygon fill="white" stroke="black" points="282.5,-6 282.5,-36 408.5,-36 408.5,-6 282.5,-6"/>
<text text-anchor="start" x="290.5" y="-24" font-family="Helvetica,sans-Serif" font-size="10.00">src/operational/src</text>
<text text-anchor="middle" x="345.5" y="-13" font-family="Helvetica,sans-Serif" font-size="10.00">/observer/digital_clock.cc</text>
</a>
</g>
</g>
<!-- Node8&#45;&gt;Node9 -->
<g id="edge8" class="edge"><title>Node8&#45;&gt;Node9</title>
<path fill="none" stroke="midnightblue" d="M345.5,-73.5898C345.5,-61.2565 345.5,-46.7237 345.5,-36.2309"/>
<polygon fill="midnightblue" stroke="midnightblue" points="342,-73.7049 345.5,-83.705 349,-73.705 342,-73.7049"/>
</g>
</g>
</svg>
        <g id="navigator" transform="translate(0 0)" fill="#404254">
                <rect fill="#f2f5e9" fill-opacity="0.5" stroke="#606060" stroke-width=".5" x="0" y="0" width="60" height="60"/>
                <use id="zoomplus" xlink:href="#zoomPlus" x="17" y="9" onmousedown="handleZoom(evt,'in')"/>
                <use id="zoomminus" xlink:href="#zoomMin" x="42" y="9" onmousedown="handleZoom(evt,'out')"/>
                <use id="reset" xlink:href="#resetDef" x="30" y="36" onmousedown="handleReset()"/>
                <g id="arrowUp" xlink:href="#dirArrow" transform="translate(30 24)" onmousedown="handlePan(0,-1)">
                  <use xlink:href="#rim" fill="#404040">
                        <set attributeName="fill" to="#808080" begin="arrowUp.mouseover" end="arrowUp.mouseout"/>
                  </use>
                  <path fill="none" stroke="white" stroke-width="1.5" d="M0,-3.0v7 M-2.5,-0.5L0,-3.0L2.5,-0.5"/>
                </g>
                <g id="arrowRight" xlink:href="#dirArrow" transform="rotate(90) translate(36 -43)" onmousedown="handlePan(1,0)">
                  <use xlink:href="#rim" fill="#404040">
                        <set attributeName="fill" to="#808080" begin="arrowRight.mouseover" end="arrowRight.mouseout"/>
                  </use>
                  <path fill="none" stroke="white" stroke-width="1.5" d="M0,-3.0v7 M-2.5,-0.5L0,-3.0L2.5,-0.5"/>
                </g>
                <g id="arrowDown" xlink:href="#dirArrow" transform="rotate(180) translate(-30 -48)" onmousedown="handlePan(0,1)">
                  <use xlink:href="#rim" fill="#404040">
                        <set attributeName="fill" to="#808080" begin="arrowDown.mouseover" end="arrowDown.mouseout"/>
                  </use>
                  <path fill="none" stroke="white" stroke-width="1.5" d="M0,-3.0v7 M-2.5,-0.5L0,-3.0L2.5,-0.5"/>
                </g>
                <g id="arrowLeft" xlink:href="#dirArrow" transform="rotate(270) translate(-36 17)" onmousedown="handlePan(-1,0)">
                  <use xlink:href="#rim" fill="#404040">
                        <set attributeName="fill" to="#808080" begin="arrowLeft.mouseover" end="arrowLeft.mouseout"/>
                  </use>
                  <path fill="none" stroke="white" stroke-width="1.5" d="M0,-3.0v7 M-2.5,-0.5L0,-3.0L2.5,-0.5"/>
                </g>
        </g>
        <svg viewBox="0 0 15 15" width="100%" height="30px" preserveAspectRatio="xMaxYMin meet">
         <g id="arrow_out" transform="scale(0.3 0.3)">
          <a xlink:href="clock__tick__interface_8h__dep__incl_org.svg" target="_base">
           <rect id="button" ry="5" rx="5" y="6" x="6" height="38" width="38"
                fill="#f2f5e9" fill-opacity="0.5" stroke="#606060" stroke-width="1.0"/>
           <path id="arrow"
             d="M 11.500037,31.436501 C 11.940474,20.09759 22.043105,11.32322 32.158766,21.979434 L 37.068811,17.246167 C 37.068811,17.246167 37.088388,32 37.088388,32 L 22.160133,31.978069 C 22.160133,31.978069 26.997745,27.140456 26.997745,27.140456 C 18.528582,18.264221 13.291696,25.230495 11.500037,31.436501 z"
             style="fill:#404040;"/>
          </a>
         </g>
        </svg>
</svg>
