<?xml version="1.0" encoding="UTF-8" standalone="no"?>
<!DOCTYPE svg PUBLIC "-//W3C//DTD SVG 1.1//EN"
 "http://www.w3.org/Graphics/SVG/1.1/DTD/svg11.dtd">
<!-- Generated by graphviz version 2.38.0 (20140413.2041)
 -->
<!-- Title: operational::state::TcpState::ChangeState Pages: 1 -->
<svg width="321pt" height="284pt"
 viewBox="0.00 0.00 321.00 284.00" xmlns="http://www.w3.org/2000/svg" xmlns:xlink="http://www.w3.org/1999/xlink">
<g id="graph0" class="graph" transform="scale(1 1) rotate(0) translate(4 280)">
<title>operational::state::TcpState::ChangeState</title>
<polygon fill="white" stroke="none" points="-4,4 -4,-280 317,-280 317,4 -4,4"/>
<!-- Node1 -->
<g id="node1" class="node"><title>Node1</title>
<polygon fill="#bfbfbf" stroke="black" points="0,-122.5 0,-152.5 124,-152.5 124,-122.5 0,-122.5"/>
<text text-anchor="start" x="8" y="-140.5" font-family="Helvetica,sans-Serif" font-size="10.00">operational::state</text>
<text text-anchor="middle" x="62" y="-129.5" font-family="Helvetica,sans-Serif" font-size="10.00">::TcpState::ChangeState</text>
</g>
<!-- Node2 -->
<g id="node2" class="node"><title>Node2</title>
<g id="a_node2"><a xlink:href="../../d0/de4/classoperational_1_1state_1_1_tcp_closed.html#aa44020f72a63e3373b94e9bbc176cda0" target="_top" xlink:title="operational::state\l::TcpClosed::ActiveOpen">
<polygon fill="white" stroke="black" points="174.5,-245.5 174.5,-275.5 298.5,-275.5 298.5,-245.5 174.5,-245.5"/>
<text text-anchor="start" x="182.5" y="-263.5" font-family="Helvetica,sans-Serif" font-size="10.00">operational::state</text>
<text text-anchor="middle" x="236.5" y="-252.5" font-family="Helvetica,sans-Serif" font-size="10.00">::TcpClosed::ActiveOpen</text>
</a>
</g>
</g>
<!-- Node1&#45;&gt;Node2 -->
<g id="edge1" class="edge"><title>Node1&#45;&gt;Node2</title>
<path fill="none" stroke="midnightblue" d="M80.2841,-160.849C97.9926,-183.23 127.474,-216.482 160,-236.5 165.505,-239.888 171.534,-242.841 177.708,-245.405"/>
<polygon fill="midnightblue" stroke="midnightblue" points="82.9823,-158.617 74.0918,-152.854 77.4481,-162.904 82.9823,-158.617"/>
</g>
<!-- Node3 -->
<g id="node3" class="node"><title>Node3</title>
<g id="a_node3"><a xlink:href="../../d0/de4/classoperational_1_1state_1_1_tcp_closed.html#a9f8c08a9d7c1482571a30d65994984af" target="_top" xlink:title="operational::state\l::TcpClosed::PassiveOpen">
<polygon fill="white" stroke="black" points="171,-196.5 171,-226.5 302,-226.5 302,-196.5 171,-196.5"/>
<text text-anchor="start" x="179" y="-214.5" font-family="Helvetica,sans-Serif" font-size="10.00">operational::state</text>
<text text-anchor="middle" x="236.5" y="-203.5" font-family="Helvetica,sans-Serif" font-size="10.00">::TcpClosed::PassiveOpen</text>
</a>
</g>
</g>
<!-- Node1&#45;&gt;Node3 -->
<g id="edge2" class="edge"><title>Node1&#45;&gt;Node3</title>
<path fill="none" stroke="midnightblue" d="M98.2189,-157.472C116.335,-167.275 138.976,-178.812 160,-187.5 167.627,-190.652 175.826,-193.644 183.91,-196.379"/>
<polygon fill="midnightblue" stroke="midnightblue" points="99.6425,-154.261 89.1903,-152.528 96.2804,-160.401 99.6425,-154.261"/>
</g>
<!-- Node4 -->
<g id="node4" class="node"><title>Node4</title>
<g id="a_node4"><a xlink:href="../../d2/dd0/classoperational_1_1state_1_1_tcp_established.html#a460eeb41f18b4a2202e898c37e70732d" target="_top" xlink:title="operational::state\l::TcpEstablished::Close">
<polygon fill="white" stroke="black" points="176.5,-147.5 176.5,-177.5 296.5,-177.5 296.5,-147.5 176.5,-147.5"/>
<text text-anchor="start" x="184.5" y="-165.5" font-family="Helvetica,sans-Serif" font-size="10.00">operational::state</text>
<text text-anchor="middle" x="236.5" y="-154.5" font-family="Helvetica,sans-Serif" font-size="10.00">::TcpEstablished::Close</text>
</a>
</g>
</g>
<!-- Node1&#45;&gt;Node4 -->
<g id="edge3" class="edge"><title>Node1&#45;&gt;Node4</title>
<path fill="none" stroke="midnightblue" d="M134.371,-147.844C148.36,-149.871 162.887,-151.976 176.42,-153.938"/>
<polygon fill="midnightblue" stroke="midnightblue" points="134.701,-144.355 124.303,-146.384 133.697,-151.283 134.701,-144.355"/>
</g>
<!-- Node5 -->
<g id="node5" class="node"><title>Node5</title>
<g id="a_node5"><a xlink:href="../../d2/dd0/classoperational_1_1state_1_1_tcp_established.html#a3b1775aae2ff40202ad96e701d3033a8" target="_top" xlink:title="operational::state\l::TcpEstablished::Acknowledge">
<polygon fill="white" stroke="black" points="160,-98.5 160,-128.5 313,-128.5 313,-98.5 160,-98.5"/>
<text text-anchor="start" x="168" y="-116.5" font-family="Helvetica,sans-Serif" font-size="10.00">operational::state</text>
<text text-anchor="middle" x="236.5" y="-105.5" font-family="Helvetica,sans-Serif" font-size="10.00">::TcpEstablished::Acknowledge</text>
</a>
</g>
</g>
<!-- Node1&#45;&gt;Node5 -->
<g id="edge4" class="edge"><title>Node1&#45;&gt;Node5</title>
<path fill="none" stroke="midnightblue" d="M134.437,-127.561C142.842,-126.392 151.44,-125.195 159.9,-124.018"/>
<polygon fill="midnightblue" stroke="midnightblue" points="133.725,-124.126 124.303,-128.971 134.69,-131.059 133.725,-124.126"/>
</g>
<!-- Node6 -->
<g id="node6" class="node"><title>Node6</title>
<g id="a_node6"><a xlink:href="../../d7/db3/classoperational_1_1state_1_1_tcp_listen.html#af8a7f8612dc9610d1b6a920bedb4cd70" target="_top" xlink:title="operational::state\l::TcpListen::Close">
<polygon fill="white" stroke="black" points="189,-49.5 189,-79.5 284,-79.5 284,-49.5 189,-49.5"/>
<text text-anchor="start" x="197" y="-67.5" font-family="Helvetica,sans-Serif" font-size="10.00">operational::state</text>
<text text-anchor="middle" x="236.5" y="-56.5" font-family="Helvetica,sans-Serif" font-size="10.00">::TcpListen::Close</text>
</a>
</g>
</g>
<!-- Node1&#45;&gt;Node6 -->
<g id="edge5" class="edge"><title>Node1&#45;&gt;Node6</title>
<path fill="none" stroke="midnightblue" d="M99.905,-117.72C117.782,-108.533 139.723,-97.8266 160,-89.5 169.196,-85.7237 179.192,-82.094 188.81,-78.8272"/>
<polygon fill="midnightblue" stroke="midnightblue" points="98.2198,-114.651 90.9573,-122.366 101.445,-120.864 98.2198,-114.651"/>
</g>
<!-- Node7 -->
<g id="node7" class="node"><title>Node7</title>
<g id="a_node7"><a xlink:href="../../d7/db3/classoperational_1_1state_1_1_tcp_listen.html#a00be208a779b7a0abdca45648d989f59" target="_top" xlink:title="operational::state\l::TcpListen::Send">
<polygon fill="white" stroke="black" points="190,-0.5 190,-30.5 283,-30.5 283,-0.5 190,-0.5"/>
<text text-anchor="start" x="198" y="-18.5" font-family="Helvetica,sans-Serif" font-size="10.00">operational::state</text>
<text text-anchor="middle" x="236.5" y="-7.5" font-family="Helvetica,sans-Serif" font-size="10.00">::TcpListen::Send</text>
</a>
</g>
</g>
<!-- Node1&#45;&gt;Node7 -->
<g id="edge6" class="edge"><title>Node1&#45;&gt;Node7</title>
<path fill="none" stroke="midnightblue" d="M80.7361,-114.354C98.5899,-92.5039 128.005,-60.2303 160,-40.5 169.05,-34.9195 179.486,-30.4343 189.655,-26.8904"/>
<polygon fill="midnightblue" stroke="midnightblue" points="77.9962,-112.176 74.4782,-122.17 83.4605,-116.551 77.9962,-112.176"/>
</g>
</g>
</svg>
