<?xml version="1.0" encoding="UTF-8" standalone="no"?>
<!DOCTYPE svg PUBLIC "-//W3C//DTD SVG 1.1//EN"
 "http://www.w3.org/Graphics/SVG/1.1/DTD/svg11.dtd">
<!-- Generated by graphviz version 2.38.0 (20140413.2041)
 -->
<!-- Title: src/operational/src/iterator/print_n_employees.h Pages: 1 -->
<svg width="254pt" height="263pt"
 viewBox="0.00 0.00 254.00 263.00" xmlns="http://www.w3.org/2000/svg" xmlns:xlink="http://www.w3.org/1999/xlink">
<g id="graph0" class="graph" transform="scale(1 1) rotate(0) translate(4 259)">
<title>src/operational/src/iterator/print_n_employees.h</title>
<polygon fill="white" stroke="none" points="-4,4 -4,-259 250,-259 250,4 -4,4"/>
<!-- Node1 -->
<g id="node1" class="node"><title>Node1</title>
<polygon fill="#bfbfbf" stroke="black" points="95,-224.5 95,-254.5 238,-254.5 238,-224.5 95,-224.5"/>
<text text-anchor="start" x="103" y="-242.5" font-family="Helvetica,sans-Serif" font-size="10.00">src/operational/src</text>
<text text-anchor="middle" x="166.5" y="-231.5" font-family="Helvetica,sans-Serif" font-size="10.00">/iterator/print_n_employees.h</text>
</g>
<!-- Node2 -->
<g id="node2" class="node"><title>Node2</title>
<g id="a_node2"><a xlink:href="../../d3/df0/list__traverser_8h.html" target="_top" xlink:title="list_traverser.h">
<polygon fill="white" stroke="black" points="80.5,-168.5 80.5,-187.5 160.5,-187.5 160.5,-168.5 80.5,-168.5"/>
<text text-anchor="middle" x="120.5" y="-175.5" font-family="Helvetica,sans-Serif" font-size="10.00">list_traverser.h</text>
</a>
</g>
</g>
<!-- Node1&#45;&gt;Node2 -->
<g id="edge1" class="edge"><title>Node1&#45;&gt;Node2</title>
<path fill="none" stroke="midnightblue" d="M155.599,-224.399C148.914,-215.753 140.324,-204.642 133.315,-195.576"/>
<polygon fill="midnightblue" stroke="midnightblue" points="136.079,-193.428 127.193,-187.658 130.541,-197.71 136.079,-193.428"/>
</g>
<!-- Node7 -->
<g id="node7" class="node"><title>Node7</title>
<g id="a_node7"><a xlink:href="../../dc/d13/employee_8h.html" target="_top" xlink:title="employee.h">
<polygon fill="white" stroke="black" points="179,-168.5 179,-187.5 246,-187.5 246,-168.5 179,-168.5"/>
<text text-anchor="middle" x="212.5" y="-175.5" font-family="Helvetica,sans-Serif" font-size="10.00">employee.h</text>
</a>
</g>
</g>
<!-- Node1&#45;&gt;Node7 -->
<g id="edge8" class="edge"><title>Node1&#45;&gt;Node7</title>
<path fill="none" stroke="midnightblue" d="M177.401,-224.399C184.086,-215.753 192.676,-204.642 199.685,-195.576"/>
<polygon fill="midnightblue" stroke="midnightblue" points="202.459,-197.71 205.807,-187.658 196.921,-193.428 202.459,-197.71"/>
</g>
<!-- Node3 -->
<g id="node3" class="node"><title>Node3</title>
<g id="a_node3"><a xlink:href="../../da/d23/list_8h.html" target="_top" xlink:title="list.h">
<polygon fill="white" stroke="black" points="118.5,-112.5 118.5,-131.5 156.5,-131.5 156.5,-112.5 118.5,-112.5"/>
<text text-anchor="middle" x="137.5" y="-119.5" font-family="Helvetica,sans-Serif" font-size="10.00">list.h</text>
</a>
</g>
</g>
<!-- Node2&#45;&gt;Node3 -->
<g id="edge2" class="edge"><title>Node2&#45;&gt;Node3</title>
<path fill="none" stroke="midnightblue" d="M123.307,-168.083C125.585,-160.849 128.871,-150.409 131.708,-141.397"/>
<polygon fill="midnightblue" stroke="midnightblue" points="135.081,-142.341 134.745,-131.751 128.404,-140.239 135.081,-142.341"/>
</g>
<!-- Node4 -->
<g id="node4" class="node"><title>Node4</title>
<g id="a_node4"><a xlink:href="../../d9/d71/list__iterator_8h.html" target="_top" xlink:title="list_iterator.h">
<polygon fill="white" stroke="black" points="54,-56.5 54,-75.5 127,-75.5 127,-56.5 54,-56.5"/>
<text text-anchor="middle" x="90.5" y="-63.5" font-family="Helvetica,sans-Serif" font-size="10.00">list_iterator.h</text>
</a>
</g>
</g>
<!-- Node2&#45;&gt;Node4 -->
<g id="edge7" class="edge"><title>Node2&#45;&gt;Node4</title>
<path fill="none" stroke="midnightblue" d="M118.146,-168.368C113.283,-150.537 102.035,-109.295 95.4832,-85.2717"/>
<polygon fill="midnightblue" stroke="midnightblue" points="98.851,-84.3181 92.8431,-75.5914 92.0977,-86.16 98.851,-84.3181"/>
</g>
<!-- Node3&#45;&gt;Node4 -->
<g id="edge3" class="edge"><title>Node3&#45;&gt;Node4</title>
<path fill="none" stroke="midnightblue" d="M129.739,-112.083C122.963,-104.298 112.957,-92.8015 104.745,-83.3665"/>
<polygon fill="midnightblue" stroke="midnightblue" points="107.322,-80.9963 98.1167,-75.7511 102.042,-85.592 107.322,-80.9963"/>
</g>
<!-- Node6 -->
<g id="node6" class="node"><title>Node6</title>
<g id="a_node6"><a xlink:href="../../dd/d8c/list__interface_8h.html" target="_top" xlink:title="list_interface.h">
<polygon fill="white" stroke="black" points="115.5,-0.5 115.5,-19.5 195.5,-19.5 195.5,-0.5 115.5,-0.5"/>
<text text-anchor="middle" x="155.5" y="-7.5" font-family="Helvetica,sans-Serif" font-size="10.00">list_interface.h</text>
</a>
</g>
</g>
<!-- Node3&#45;&gt;Node6 -->
<g id="edge6" class="edge"><title>Node3&#45;&gt;Node6</title>
<path fill="none" stroke="midnightblue" d="M138.912,-112.368C141.817,-94.617 148.518,-53.6664 152.457,-29.5974"/>
<polygon fill="midnightblue" stroke="midnightblue" points="155.933,-30.0254 154.094,-19.5914 149.025,-28.8949 155.933,-30.0254"/>
</g>
<!-- Node5 -->
<g id="node5" class="node"><title>Node5</title>
<g id="a_node5"><a xlink:href="../../d6/da4/iterator__interface_8h.html" target="_top" xlink:title="iterator_interface.h">
<polygon fill="white" stroke="black" points="0,-0.5 0,-19.5 97,-19.5 97,-0.5 0,-0.5"/>
<text text-anchor="middle" x="48.5" y="-7.5" font-family="Helvetica,sans-Serif" font-size="10.00">iterator_interface.h</text>
</a>
</g>
</g>
<!-- Node4&#45;&gt;Node5 -->
<g id="edge4" class="edge"><title>Node4&#45;&gt;Node5</title>
<path fill="none" stroke="midnightblue" d="M83.5646,-56.083C77.5708,-48.3768 68.7482,-37.0333 61.4524,-27.6531"/>
<polygon fill="midnightblue" stroke="midnightblue" points="64.2086,-25.4958 55.3064,-19.7511 58.6831,-29.7934 64.2086,-25.4958"/>
</g>
<!-- Node4&#45;&gt;Node6 -->
<g id="edge5" class="edge"><title>Node4&#45;&gt;Node6</title>
<path fill="none" stroke="midnightblue" d="M100.943,-56.324C110.646,-48.2631 125.315,-36.0765 137,-26.3695"/>
<polygon fill="midnightblue" stroke="midnightblue" points="139.411,-28.9163 144.867,-19.8339 134.938,-23.532 139.411,-28.9163"/>
</g>
<!-- Node8 -->
<g id="node8" class="node"><title>Node8</title>
<polygon fill="white" stroke="#bfbfbf" points="192,-112.5 192,-131.5 233,-131.5 233,-112.5 192,-112.5"/>
<text text-anchor="middle" x="212.5" y="-119.5" font-family="Helvetica,sans-Serif" font-size="10.00">string</text>
</g>
<!-- Node7&#45;&gt;Node8 -->
<g id="edge9" class="edge"><title>Node7&#45;&gt;Node8</title>
<path fill="none" stroke="midnightblue" d="M212.5,-168.083C212.5,-161.006 212.5,-150.861 212.5,-141.986"/>
<polygon fill="midnightblue" stroke="midnightblue" points="216,-141.751 212.5,-131.751 209,-141.751 216,-141.751"/>
</g>
</g>
</svg>
