<?xml version="1.0" encoding="UTF-8" standalone="no"?>
<!DOCTYPE svg PUBLIC "-//W3C//DTD SVG 1.1//EN"
 "http://www.w3.org/Graphics/SVG/1.1/DTD/svg11.dtd">
<!-- Generated by graphviz version 2.38.0 (20140413.2041)
 -->
<!-- Title: src/operational/src/command/open_command.cc Pages: 1 -->
<svg width="256pt" height="263pt"
 viewBox="0.00 0.00 255.50 263.00" xmlns="http://www.w3.org/2000/svg" xmlns:xlink="http://www.w3.org/1999/xlink">
<g id="graph0" class="graph" transform="scale(1 1) rotate(0) translate(4 259)">
<title>src/operational/src/command/open_command.cc</title>
<polygon fill="white" stroke="none" points="-4,4 -4,-259 251.5,-259 251.5,4 -4,4"/>
<!-- Node1 -->
<g id="node1" class="node"><title>Node1</title>
<polygon fill="#bfbfbf" stroke="black" points="47,-224.5 47,-254.5 195,-254.5 195,-224.5 47,-224.5"/>
<text text-anchor="start" x="55" y="-242.5" font-family="Helvetica,sans-Serif" font-size="10.00">src/operational/src</text>
<text text-anchor="middle" x="121" y="-231.5" font-family="Helvetica,sans-Serif" font-size="10.00">/command/open_command.cc</text>
</g>
<!-- Node2 -->
<g id="node2" class="node"><title>Node2</title>
<g id="a_node2"><a xlink:href="../../d1/d01/open__command_8h.html" target="_top" xlink:title="open_command.h">
<polygon fill="white" stroke="black" points="74,-168.5 74,-187.5 168,-187.5 168,-168.5 74,-168.5"/>
<text text-anchor="middle" x="121" y="-175.5" font-family="Helvetica,sans-Serif" font-size="10.00">open_command.h</text>
</a>
</g>
</g>
<!-- Node1&#45;&gt;Node2 -->
<g id="edge1" class="edge"><title>Node1&#45;&gt;Node2</title>
<path fill="none" stroke="midnightblue" d="M121,-224.399C121,-216.466 121,-206.458 121,-197.858"/>
<polygon fill="midnightblue" stroke="midnightblue" points="124.5,-197.658 121,-187.658 117.5,-197.658 124.5,-197.658"/>
</g>
<!-- Node3 -->
<g id="node3" class="node"><title>Node3</title>
<g id="a_node3"><a xlink:href="../../db/dd7/command__interface_8h.html" target="_top" xlink:title="command_interface.h">
<polygon fill="white" stroke="black" points="0,-112.5 0,-131.5 110,-131.5 110,-112.5 0,-112.5"/>
<text text-anchor="middle" x="55" y="-119.5" font-family="Helvetica,sans-Serif" font-size="10.00">command_interface.h</text>
</a>
</g>
</g>
<!-- Node2&#45;&gt;Node3 -->
<g id="edge2" class="edge"><title>Node2&#45;&gt;Node3</title>
<path fill="none" stroke="midnightblue" d="M110.396,-168.324C100.544,-160.263 85.6491,-148.077 73.7849,-138.369"/>
<polygon fill="midnightblue" stroke="midnightblue" points="75.7529,-135.457 65.797,-131.834 71.3202,-140.875 75.7529,-135.457"/>
</g>
<!-- Node4 -->
<g id="node4" class="node"><title>Node4</title>
<g id="a_node4"><a xlink:href="../../d5/d94/command__application_8h.html" target="_top" xlink:title="command_application.h">
<polygon fill="white" stroke="black" points="128.5,-112.5 128.5,-131.5 247.5,-131.5 247.5,-112.5 128.5,-112.5"/>
<text text-anchor="middle" x="188" y="-119.5" font-family="Helvetica,sans-Serif" font-size="10.00">command_application.h</text>
</a>
</g>
</g>
<!-- Node2&#45;&gt;Node4 -->
<g id="edge3" class="edge"><title>Node2&#45;&gt;Node4</title>
<path fill="none" stroke="midnightblue" d="M131.765,-168.324C141.766,-160.263 156.887,-148.077 168.93,-138.369"/>
<polygon fill="midnightblue" stroke="midnightblue" points="171.45,-140.834 177.039,-131.834 167.057,-135.384 171.45,-140.834"/>
</g>
<!-- Node5 -->
<g id="node5" class="node"><title>Node5</title>
<g id="a_node5"><a xlink:href="../../d0/d06/command__document_8h.html" target="_top" xlink:title="command_document.h">
<polygon fill="white" stroke="black" points="130,-56.5 130,-75.5 246,-75.5 246,-56.5 130,-56.5"/>
<text text-anchor="middle" x="188" y="-63.5" font-family="Helvetica,sans-Serif" font-size="10.00">command_document.h</text>
</a>
</g>
</g>
<!-- Node4&#45;&gt;Node5 -->
<g id="edge4" class="edge"><title>Node4&#45;&gt;Node5</title>
<path fill="none" stroke="midnightblue" d="M188,-112.083C188,-105.006 188,-94.8611 188,-85.9865"/>
<polygon fill="midnightblue" stroke="midnightblue" points="191.5,-85.751 188,-75.7511 184.5,-85.7511 191.5,-85.751"/>
</g>
<!-- Node6 -->
<g id="node6" class="node"><title>Node6</title>
<polygon fill="white" stroke="#bfbfbf" points="167.5,-0.5 167.5,-19.5 208.5,-19.5 208.5,-0.5 167.5,-0.5"/>
<text text-anchor="middle" x="188" y="-7.5" font-family="Helvetica,sans-Serif" font-size="10.00">string</text>
</g>
<!-- Node5&#45;&gt;Node6 -->
<g id="edge5" class="edge"><title>Node5&#45;&gt;Node6</title>
<path fill="none" stroke="midnightblue" d="M188,-56.083C188,-49.0059 188,-38.8611 188,-29.9865"/>
<polygon fill="midnightblue" stroke="midnightblue" points="191.5,-29.751 188,-19.7511 184.5,-29.7511 191.5,-29.751"/>
</g>
</g>
</svg>
