<?xml version="1.0" encoding="UTF-8" standalone="no"?>
<!DOCTYPE svg PUBLIC "-//W3C//DTD SVG 1.1//EN"
 "http://www.w3.org/Graphics/SVG/1.1/DTD/svg11.dtd">
<!-- Generated by graphviz version 2.38.0 (20140413.2041)
 -->
<!-- Title: src/structural/src/facade/compiler.cc Pages: 1 -->
<!--zoomable 442 -->
<svg id="main" version="1.1" xmlns="http://www.w3.org/2000/svg" xmlns:xlink="http://www.w3.org/1999/xlink" xml:space="preserve" onload="init(evt)">
<style type="text/css"><![CDATA[
.edge:hover path { stroke: red; }
.edge:hover polygon { stroke: red; fill: red; }
]]></style>
<script type="text/javascript"><![CDATA[
var edges = document.getElementsByTagName('g');
if (edges && edges.length) {
  for (var i=0;i<edges.length;i++) {
    if (edges[i].id.substr(0,4)=='edge') {
      edges[i].setAttribute('class','edge');
    }
  }
}
]]></script>
        <defs>
                <circle id="rim" cx="0" cy="0" r="7"/>
                <circle id="rim2" cx="0" cy="0" r="3.5"/>
                <g id="zoomPlus">
                        <use xlink:href="#rim" fill="#404040">
                                <set attributeName="fill" to="#808080" begin="zoomplus.mouseover" end="zoomplus.mouseout"/>
                        </use>
                        <path d="M-4,0h8M0,-4v8" fill="none" stroke="white" stroke-width="1.5" pointer-events="none"/>
                </g>
                <g id="zoomMin">
                        <use xlink:href="#rim" fill="#404040">
                                <set attributeName="fill" to="#808080" begin="zoomminus.mouseover" end="zoomminus.mouseout"/>
                        </use>
                        <path d="M-4,0h8" fill="none" stroke="white" stroke-width="1.5" pointer-events="none"/>
                </g>
                <g id="dirArrow">
                        <path fill="none" stroke="white" stroke-width="1.5" d="M0,-3.0v7 M-2.5,-0.5L0,-3.0L2.5,-0.5"/>
                </g>
               <g id="resetDef">
                       <use xlink:href="#rim2" fill="#404040">
                               <set attributeName="fill" to="#808080" begin="reset.mouseover" end="reset.mouseout"/>
                       </use>
               </g>
        </defs>

<script type="text/javascript">
var viewWidth = 535;
var viewHeight = 442;
var sectionId = 'dynsection-0';
</script>
<script xlink:href="../../svgpan.js"/>
<svg id="graph" class="graph">
<g id="viewport">
<title>src/structural/src/facade/compiler.cc</title>
<polygon fill="white" stroke="none" points="-4,4 -4,-438 530.639,-438 530.639,4 -4,4"/>
<!-- Node1 -->
<g id="node1" class="node"><title>Node1</title>
<polygon fill="#bfbfbf" stroke="black" points="174.596,-403.5 174.596,-433.5 275.596,-433.5 275.596,-403.5 174.596,-403.5"/>
<text text-anchor="start" x="182.596" y="-421.5" font-family="Helvetica,sans-Serif" font-size="10.00">src/structural/src</text>
<text text-anchor="middle" x="225.096" y="-410.5" font-family="Helvetica,sans-Serif" font-size="10.00">/facade/compiler.cc</text>
</g>
<!-- Node2 -->
<g id="node2" class="node"><title>Node2</title>
<g id="a_node2"><a xlink:href="../../d4/dd1/compiler_8h.html" target="_top" xlink:title="compiler.h">
<polygon fill="white" stroke="black" points="132.096,-347.5 132.096,-366.5 194.096,-366.5 194.096,-347.5 132.096,-347.5"/>
<text text-anchor="middle" x="163.096" y="-354.5" font-family="Helvetica,sans-Serif" font-size="10.00">compiler.h</text>
</a>
</g>
</g>
<!-- Node1&#45;&gt;Node2 -->
<g id="edge1" class="edge"><title>Node1&#45;&gt;Node2</title>
<path fill="none" stroke="midnightblue" d="M210.403,-403.399C201.115,-394.486 189.097,-382.952 179.499,-373.741"/>
<polygon fill="midnightblue" stroke="midnightblue" points="181.756,-371.057 172.118,-366.658 176.91,-376.107 181.756,-371.057"/>
</g>
<!-- Node6 -->
<g id="node6" class="node"><title>Node6</title>
<g id="a_node6"><a xlink:href="../../db/d62/scanner_8h.html" target="_top" xlink:title="scanner.h">
<polygon fill="white" stroke="black" points="203.596,-291.5 203.596,-310.5 262.596,-310.5 262.596,-291.5 203.596,-291.5"/>
<text text-anchor="middle" x="233.096" y="-298.5" font-family="Helvetica,sans-Serif" font-size="10.00">scanner.h</text>
</a>
</g>
</g>
<!-- Node1&#45;&gt;Node6 -->
<g id="edge5" class="edge"><title>Node1&#45;&gt;Node6</title>
<path fill="none" stroke="midnightblue" d="M226.077,-403.337C227.512,-382.622 230.186,-344.016 231.787,-320.899"/>
<polygon fill="midnightblue" stroke="midnightblue" points="235.296,-320.887 232.496,-310.669 228.313,-320.404 235.296,-320.887"/>
</g>
<!-- Node10 -->
<g id="node10" class="node"><title>Node10</title>
<g id="a_node10"><a xlink:href="../../d2/d57/program__node__builder_8h.html" target="_top" xlink:title="program_node_builder.h">
<polygon fill="white" stroke="black" points="281.096,-291.5 281.096,-310.5 401.096,-310.5 401.096,-291.5 281.096,-291.5"/>
<text text-anchor="middle" x="341.096" y="-298.5" font-family="Helvetica,sans-Serif" font-size="10.00">program_node_builder.h</text>
</a>
</g>
</g>
<!-- Node1&#45;&gt;Node10 -->
<g id="edge10" class="edge"><title>Node1&#45;&gt;Node10</title>
<path fill="none" stroke="midnightblue" d="M261.804,-403.406C279.534,-395.063 299.972,-382.968 314.096,-367 325.85,-353.711 332.957,-334.589 336.906,-320.524"/>
<polygon fill="midnightblue" stroke="midnightblue" points="340.373,-321.088 339.425,-310.536 333.586,-319.376 340.373,-321.088"/>
</g>
<!-- Node17 -->
<g id="node17" class="node"><title>Node17</title>
<g id="a_node17"><a xlink:href="../../d5/d36/parser_8h.html" target="_top" xlink:title="parser.h">
<polygon fill="white" stroke="black" points="253.096,-347.5 253.096,-366.5 305.096,-366.5 305.096,-347.5 253.096,-347.5"/>
<text text-anchor="middle" x="279.096" y="-354.5" font-family="Helvetica,sans-Serif" font-size="10.00">parser.h</text>
</a>
</g>
</g>
<!-- Node1&#45;&gt;Node17 -->
<g id="edge21" class="edge"><title>Node1&#45;&gt;Node17</title>
<path fill="none" stroke="midnightblue" d="M237.894,-403.399C245.821,-394.664 256.033,-383.413 264.306,-374.296"/>
<polygon fill="midnightblue" stroke="midnightblue" points="267.11,-376.415 271.239,-366.658 261.927,-371.711 267.11,-376.415"/>
</g>
<!-- Node18 -->
<g id="node18" class="node"><title>Node18</title>
<g id="a_node18"><a xlink:href="../../da/d63/risc__code__generator_8h.html" target="_top" xlink:title="risc_code_generator.h">
<polygon fill="white" stroke="black" points="0.596362,-347.5 0.596362,-366.5 113.596,-366.5 113.596,-347.5 0.596362,-347.5"/>
<text text-anchor="middle" x="57.0964" y="-354.5" font-family="Helvetica,sans-Serif" font-size="10.00">risc_code_generator.h</text>
</a>
</g>
</g>
<!-- Node1&#45;&gt;Node18 -->
<g id="edge24" class="edge"><title>Node1&#45;&gt;Node18</title>
<path fill="none" stroke="midnightblue" d="M185.283,-403.399C156.592,-393.238 118.287,-379.672 91.041,-370.022"/>
<polygon fill="midnightblue" stroke="midnightblue" points="92.1366,-366.697 81.5419,-366.658 89.7996,-373.296 92.1366,-366.697"/>
</g>
<!-- Node3 -->
<g id="node3" class="node"><title>Node3</title>
<g id="a_node3"><a xlink:href="../../d2/d26/bytecode__stream_8h.html" target="_top" xlink:title="bytecode_stream.h">
<polygon fill="white" stroke="black" points="12.0964,-291.5 12.0964,-310.5 112.096,-310.5 112.096,-291.5 12.0964,-291.5"/>
<text text-anchor="middle" x="62.0964" y="-298.5" font-family="Helvetica,sans-Serif" font-size="10.00">bytecode_stream.h</text>
</a>
</g>
</g>
<!-- Node2&#45;&gt;Node3 -->
<g id="edge2" class="edge"><title>Node2&#45;&gt;Node3</title>
<path fill="none" stroke="midnightblue" d="M146.869,-347.324C130.745,-338.703 105.796,-325.364 87.1322,-315.386"/>
<polygon fill="midnightblue" stroke="midnightblue" points="88.7524,-312.283 78.2835,-310.655 85.4519,-318.456 88.7524,-312.283"/>
</g>
<!-- Node5 -->
<g id="node5" class="node"><title>Node5</title>
<polygon fill="white" stroke="#bfbfbf" points="136.596,-291.5 136.596,-310.5 185.596,-310.5 185.596,-291.5 136.596,-291.5"/>
<text text-anchor="middle" x="161.096" y="-298.5" font-family="Helvetica,sans-Serif" font-size="10.00">istream</text>
</g>
<!-- Node2&#45;&gt;Node5 -->
<g id="edge4" class="edge"><title>Node2&#45;&gt;Node5</title>
<path fill="none" stroke="midnightblue" d="M162.766,-347.083C162.504,-340.006 162.128,-329.861 161.8,-320.986"/>
<polygon fill="midnightblue" stroke="midnightblue" points="165.288,-320.615 161.42,-310.751 158.293,-320.874 165.288,-320.615"/>
</g>
<!-- Node4 -->
<g id="node4" class="node"><title>Node4</title>
<polygon fill="white" stroke="#bfbfbf" points="322.596,-0.5 322.596,-19.5 363.596,-19.5 363.596,-0.5 322.596,-0.5"/>
<text text-anchor="middle" x="343.096" y="-7.5" font-family="Helvetica,sans-Serif" font-size="10.00">string</text>
</g>
<!-- Node3&#45;&gt;Node4 -->
<g id="edge3" class="edge"><title>Node3&#45;&gt;Node4</title>
<path fill="none" stroke="midnightblue" d="M57.0303,-291.224C46.2669,-271.722 22.0964,-223.029 22.0964,-179 22.0964,-179 22.0964,-179 22.0964,-121 22.0964,-90.9022 18.4125,-75.7818 41.0964,-56 81.105,-21.1099 243.363,-13.2691 312.095,-11.5088"/>
<polygon fill="midnightblue" stroke="midnightblue" points="312.372,-15.0035 322.29,-11.2753 312.212,-8.0053 312.372,-15.0035"/>
</g>
<!-- Node7 -->
<g id="node7" class="node"><title>Node7</title>
<g id="a_node7"><a xlink:href="../../d1/d07/token_8h.html" target="_top" xlink:title="token.h">
<polygon fill="white" stroke="black" points="207.596,-168.5 207.596,-187.5 256.596,-187.5 256.596,-168.5 207.596,-168.5"/>
<text text-anchor="middle" x="232.096" y="-175.5" font-family="Helvetica,sans-Serif" font-size="10.00">token.h</text>
</a>
</g>
</g>
<!-- Node6&#45;&gt;Node7 -->
<g id="edge6" class="edge"><title>Node6&#45;&gt;Node7</title>
<path fill="none" stroke="midnightblue" d="M223.541,-291.45C215.008,-283.12 203.107,-269.604 198.096,-255 193.625,-241.968 193.716,-237.063 198.096,-224 201.7,-213.251 208.999,-203.02 215.913,-195.038"/>
<polygon fill="midnightblue" stroke="midnightblue" points="218.573,-197.317 222.808,-187.605 213.441,-192.556 218.573,-197.317"/>
</g>
<!-- Node8 -->
<g id="node8" class="node"><title>Node8</title>
<polygon fill="white" stroke="#bfbfbf" points="207.096,-230 207.096,-249 259.096,-249 259.096,-230 207.096,-230"/>
<text text-anchor="middle" x="233.096" y="-237" font-family="Helvetica,sans-Serif" font-size="10.00">sstream</text>
</g>
<!-- Node6&#45;&gt;Node8 -->
<g id="edge8" class="edge"><title>Node6&#45;&gt;Node8</title>
<path fill="none" stroke="midnightblue" d="M233.096,-291.475C233.096,-283.08 233.096,-269.981 233.096,-259.163"/>
<polygon fill="midnightblue" stroke="midnightblue" points="236.596,-259.009 233.096,-249.009 229.596,-259.009 236.596,-259.009"/>
</g>
<!-- Node9 -->
<g id="node9" class="node"><title>Node9</title>
<polygon fill="white" stroke="#bfbfbf" points="277.096,-230 277.096,-249 319.096,-249 319.096,-230 277.096,-230"/>
<text text-anchor="middle" x="298.096" y="-237" font-family="Helvetica,sans-Serif" font-size="10.00">vector</text>
</g>
<!-- Node6&#45;&gt;Node9 -->
<g id="edge9" class="edge"><title>Node6&#45;&gt;Node9</title>
<path fill="none" stroke="midnightblue" d="M242.409,-291.475C252.545,-282.197 268.96,-267.171 281.348,-255.831"/>
<polygon fill="midnightblue" stroke="midnightblue" points="283.788,-258.343 288.801,-249.009 279.061,-253.18 283.788,-258.343"/>
</g>
<!-- Node7&#45;&gt;Node4 -->
<g id="edge7" class="edge"><title>Node7&#45;&gt;Node4</title>
<path fill="none" stroke="midnightblue" d="M257.021,-171.325C317.559,-156.984 469.482,-117.472 498.096,-76 529.789,-30.0656 427.621,-16.4862 373.91,-12.5556"/>
<polygon fill="midnightblue" stroke="midnightblue" points="374.078,-9.05908 363.869,-11.8914 373.616,-16.0438 374.078,-9.05908"/>
</g>
<!-- Node11 -->
<g id="node11" class="node"><title>Node11</title>
<g id="a_node11"><a xlink:href="../../da/dc8/program__node__builder__interface_8h.html" target="_top" xlink:title="program_node_builder\l_interface.h">
<polygon fill="white" stroke="black" points="337.096,-224.5 337.096,-254.5 449.096,-254.5 449.096,-224.5 337.096,-224.5"/>
<text text-anchor="start" x="345.096" y="-242.5" font-family="Helvetica,sans-Serif" font-size="10.00">program_node_builder</text>
<text text-anchor="middle" x="393.096" y="-231.5" font-family="Helvetica,sans-Serif" font-size="10.00">_interface.h</text>
</a>
</g>
</g>
<!-- Node10&#45;&gt;Node11 -->
<g id="edge11" class="edge"><title>Node10&#45;&gt;Node11</title>
<path fill="none" stroke="midnightblue" d="M348.547,-291.475C355.194,-283.869 365.218,-272.399 374.075,-262.265"/>
<polygon fill="midnightblue" stroke="midnightblue" points="376.896,-264.356 380.841,-254.523 371.625,-259.749 376.896,-264.356"/>
</g>
<!-- Node11&#45;&gt;Node4 -->
<g id="edge20" class="edge"><title>Node11&#45;&gt;Node4</title>
<path fill="none" stroke="midnightblue" d="M415.29,-224.297C461.548,-192.959 560.284,-115.914 514.096,-56 497.092,-33.9419 418.283,-20.5455 373.826,-14.6139"/>
<polygon fill="midnightblue" stroke="midnightblue" points="374.211,-11.1346 363.846,-13.3306 373.318,-18.0774 374.211,-11.1346"/>
</g>
<!-- Node12 -->
<g id="node12" class="node"><title>Node12</title>
<g id="a_node12"><a xlink:href="../../dc/d6c/program__node__interface_8h.html" target="_top" xlink:title="program_node_interface.h">
<polygon fill="white" stroke="black" points="302.096,-168.5 302.096,-187.5 430.096,-187.5 430.096,-168.5 302.096,-168.5"/>
<text text-anchor="middle" x="366.096" y="-175.5" font-family="Helvetica,sans-Serif" font-size="10.00">program_node_interface.h</text>
</a>
</g>
</g>
<!-- Node11&#45;&gt;Node12 -->
<g id="edge12" class="edge"><title>Node11&#45;&gt;Node12</title>
<path fill="none" stroke="midnightblue" d="M386.698,-224.399C382.977,-216.199 378.249,-205.781 374.262,-196.994"/>
<polygon fill="midnightblue" stroke="midnightblue" points="377.345,-195.318 370.025,-187.658 370.97,-198.21 377.345,-195.318"/>
</g>
<!-- Node13 -->
<g id="node13" class="node"><title>Node13</title>
<g id="a_node13"><a xlink:href="../../d7/df5/code__generator__interface_8h.html" target="_top" xlink:title="code_generator_interface.h">
<polygon fill="white" stroke="black" points="201.096,-112.5 201.096,-131.5 335.096,-131.5 335.096,-112.5 201.096,-112.5"/>
<text text-anchor="middle" x="268.096" y="-119.5" font-family="Helvetica,sans-Serif" font-size="10.00">code_generator_interface.h</text>
</a>
</g>
</g>
<!-- Node12&#45;&gt;Node13 -->
<g id="edge13" class="edge"><title>Node12&#45;&gt;Node13</title>
<path fill="none" stroke="midnightblue" d="M350.351,-168.324C334.778,-159.743 310.719,-146.486 292.637,-136.522"/>
<polygon fill="midnightblue" stroke="midnightblue" points="294.25,-133.415 283.803,-131.655 290.872,-139.546 294.25,-133.415"/>
</g>
<!-- Node14 -->
<g id="node14" class="node"><title>Node14</title>
<g id="a_node14"><a xlink:href="../../d9/d24/expression__node__interface_8h.html" target="_top" xlink:title="expression_node_interface.h">
<polygon fill="white" stroke="black" points="349.096,-56.5 349.096,-75.5 489.096,-75.5 489.096,-56.5 349.096,-56.5"/>
<text text-anchor="middle" x="419.096" y="-63.5" font-family="Helvetica,sans-Serif" font-size="10.00">expression_node_interface.h</text>
</a>
</g>
</g>
<!-- Node13&#45;&gt;Node14 -->
<g id="edge14" class="edge"><title>Node13&#45;&gt;Node14</title>
<path fill="none" stroke="midnightblue" d="M292.023,-112.444C317.315,-103.399 357.399,-89.064 385.776,-78.9158"/>
<polygon fill="midnightblue" stroke="midnightblue" points="387.044,-82.1794 395.282,-75.5164 384.687,-75.5882 387.044,-82.1794"/>
</g>
<!-- Node15 -->
<g id="node15" class="node"><title>Node15</title>
<g id="a_node15"><a xlink:href="../../dd/d4b/statement__node__interface_8h.html" target="_top" xlink:title="statement_node_interface.h">
<polygon fill="white" stroke="black" points="50.5964,-56.5 50.5964,-75.5 187.596,-75.5 187.596,-56.5 50.5964,-56.5"/>
<text text-anchor="middle" x="119.096" y="-63.5" font-family="Helvetica,sans-Serif" font-size="10.00">statement_node_interface.h</text>
</a>
</g>
</g>
<!-- Node13&#45;&gt;Node15 -->
<g id="edge16" class="edge"><title>Node13&#45;&gt;Node15</title>
<path fill="none" stroke="midnightblue" d="M244.487,-112.444C219.639,-103.438 180.322,-89.1891 152.343,-79.049"/>
<polygon fill="midnightblue" stroke="midnightblue" points="153.19,-75.6332 142.595,-75.5164 150.804,-82.2144 153.19,-75.6332"/>
</g>
<!-- Node16 -->
<g id="node16" class="node"><title>Node16</title>
<g id="a_node16"><a xlink:href="../../df/d19/variable__node__interface_8h.html" target="_top" xlink:title="variable_node_interface.h">
<polygon fill="white" stroke="black" points="205.596,-56.5 205.596,-75.5 330.596,-75.5 330.596,-56.5 205.596,-56.5"/>
<text text-anchor="middle" x="268.096" y="-63.5" font-family="Helvetica,sans-Serif" font-size="10.00">variable_node_interface.h</text>
</a>
</g>
</g>
<!-- Node13&#45;&gt;Node16 -->
<g id="edge18" class="edge"><title>Node13&#45;&gt;Node16</title>
<path fill="none" stroke="midnightblue" d="M268.096,-112.083C268.096,-105.006 268.096,-94.8611 268.096,-85.9865"/>
<polygon fill="midnightblue" stroke="midnightblue" points="271.596,-85.751 268.096,-75.7511 264.596,-85.7511 271.596,-85.751"/>
</g>
<!-- Node14&#45;&gt;Node4 -->
<g id="edge15" class="edge"><title>Node14&#45;&gt;Node4</title>
<path fill="none" stroke="midnightblue" d="M406.886,-56.324C395.32,-48.1066 377.721,-35.6017 363.936,-25.8069"/>
<polygon fill="midnightblue" stroke="midnightblue" points="365.708,-22.7729 355.529,-19.8339 361.654,-28.4791 365.708,-22.7729"/>
</g>
<!-- Node15&#45;&gt;Node4 -->
<g id="edge17" class="edge"><title>Node15&#45;&gt;Node4</title>
<path fill="none" stroke="midnightblue" d="M154.59,-56.4435C198.26,-45.9158 271.657,-28.222 312.798,-18.3042"/>
<polygon fill="midnightblue" stroke="midnightblue" points="313.623,-21.7055 322.524,-15.9593 311.983,-14.9004 313.623,-21.7055"/>
</g>
<!-- Node16&#45;&gt;Node4 -->
<g id="edge19" class="edge"><title>Node16&#45;&gt;Node4</title>
<path fill="none" stroke="midnightblue" d="M280.146,-56.324C291.559,-48.1066 308.927,-35.6017 322.531,-25.8069"/>
<polygon fill="midnightblue" stroke="midnightblue" points="324.757,-28.5174 330.827,-19.8339 320.667,-22.8366 324.757,-28.5174"/>
</g>
<!-- Node17&#45;&gt;Node6 -->
<g id="edge23" class="edge"><title>Node17&#45;&gt;Node6</title>
<path fill="none" stroke="midnightblue" d="M271.5,-347.083C264.869,-339.298 255.075,-327.801 247.038,-318.367"/>
<polygon fill="midnightblue" stroke="midnightblue" points="249.7,-316.094 240.551,-310.751 244.371,-320.633 249.7,-316.094"/>
</g>
<!-- Node17&#45;&gt;Node10 -->
<g id="edge22" class="edge"><title>Node17&#45;&gt;Node10</title>
<path fill="none" stroke="midnightblue" d="M289.058,-347.324C298.223,-339.341 312.034,-327.313 323.125,-317.653"/>
<polygon fill="midnightblue" stroke="midnightblue" points="325.712,-320.041 330.954,-310.834 321.114,-314.762 325.712,-320.041"/>
</g>
<!-- Node18&#45;&gt;Node3 -->
<g id="edge25" class="edge"><title>Node18&#45;&gt;Node3</title>
<path fill="none" stroke="midnightblue" d="M57.922,-347.083C58.5773,-340.006 59.5166,-329.861 60.3384,-320.986"/>
<polygon fill="midnightblue" stroke="midnightblue" points="63.8491,-321.031 61.2861,-310.751 56.8789,-320.386 63.8491,-321.031"/>
</g>
<!-- Node18&#45;&gt;Node13 -->
<g id="edge26" class="edge"><title>Node18&#45;&gt;Node13</title>
<path fill="none" stroke="midnightblue" d="M40.5828,-347.352C20.5003,-335.61 -9.2775,-313.495 3.09636,-291 51.2186,-203.514 166.284,-155.182 227.759,-134.785"/>
<polygon fill="midnightblue" stroke="midnightblue" points="229.067,-138.041 237.507,-131.637 226.915,-131.38 229.067,-138.041"/>
</g>
</g>
</svg>
        <g id="navigator" transform="translate(0 0)" fill="#404254">
                <rect fill="#f2f5e9" fill-opacity="0.5" stroke="#606060" stroke-width=".5" x="0" y="0" width="60" height="60"/>
                <use id="zoomplus" xlink:href="#zoomPlus" x="17" y="9" onmousedown="handleZoom(evt,'in')"/>
                <use id="zoomminus" xlink:href="#zoomMin" x="42" y="9" onmousedown="handleZoom(evt,'out')"/>
                <use id="reset" xlink:href="#resetDef" x="30" y="36" onmousedown="handleReset()"/>
                <g id="arrowUp" xlink:href="#dirArrow" transform="translate(30 24)" onmousedown="handlePan(0,-1)">
                  <use xlink:href="#rim" fill="#404040">
                        <set attributeName="fill" to="#808080" begin="arrowUp.mouseover" end="arrowUp.mouseout"/>
                  </use>
                  <path fill="none" stroke="white" stroke-width="1.5" d="M0,-3.0v7 M-2.5,-0.5L0,-3.0L2.5,-0.5"/>
                </g>
                <g id="arrowRight" xlink:href="#dirArrow" transform="rotate(90) translate(36 -43)" onmousedown="handlePan(1,0)">
                  <use xlink:href="#rim" fill="#404040">
                        <set attributeName="fill" to="#808080" begin="arrowRight.mouseover" end="arrowRight.mouseout"/>
                  </use>
                  <path fill="none" stroke="white" stroke-width="1.5" d="M0,-3.0v7 M-2.5,-0.5L0,-3.0L2.5,-0.5"/>
                </g>
                <g id="arrowDown" xlink:href="#dirArrow" transform="rotate(180) translate(-30 -48)" onmousedown="handlePan(0,1)">
                  <use xlink:href="#rim" fill="#404040">
                        <set attributeName="fill" to="#808080" begin="arrowDown.mouseover" end="arrowDown.mouseout"/>
                  </use>
                  <path fill="none" stroke="white" stroke-width="1.5" d="M0,-3.0v7 M-2.5,-0.5L0,-3.0L2.5,-0.5"/>
                </g>
                <g id="arrowLeft" xlink:href="#dirArrow" transform="rotate(270) translate(-36 17)" onmousedown="handlePan(-1,0)">
                  <use xlink:href="#rim" fill="#404040">
                        <set attributeName="fill" to="#808080" begin="arrowLeft.mouseover" end="arrowLeft.mouseout"/>
                  </use>
                  <path fill="none" stroke="white" stroke-width="1.5" d="M0,-3.0v7 M-2.5,-0.5L0,-3.0L2.5,-0.5"/>
                </g>
        </g>
        <svg viewBox="0 0 15 15" width="100%" height="30px" preserveAspectRatio="xMaxYMin meet">
         <g id="arrow_out" transform="scale(0.3 0.3)">
          <a xlink:href="compiler_8cc__incl_org.svg" target="_base">
           <rect id="button" ry="5" rx="5" y="6" x="6" height="38" width="38"
                fill="#f2f5e9" fill-opacity="0.5" stroke="#606060" stroke-width="1.0"/>
           <path id="arrow"
             d="M 11.500037,31.436501 C 11.940474,20.09759 22.043105,11.32322 32.158766,21.979434 L 37.068811,17.246167 C 37.068811,17.246167 37.088388,32 37.088388,32 L 22.160133,31.978069 C 22.160133,31.978069 26.997745,27.140456 26.997745,27.140456 C 18.528582,18.264221 13.291696,25.230495 11.500037,31.436501 z"
             style="fill:#404040;"/>
          </a>
         </g>
        </svg>
</svg>
