<?xml version="1.0" encoding="UTF-8" standalone="no"?>
<!DOCTYPE svg PUBLIC "-//W3C//DTD SVG 1.1//EN"
 "http://www.w3.org/Graphics/SVG/1.1/DTD/svg11.dtd">
<!-- Generated by graphviz version 2.38.0 (20140413.2041)
 -->
<!-- Title: creational::prototype::MazePrototypeFactory::MakeWall Pages: 1 -->
<svg width="416pt" height="50pt"
 viewBox="0.00 0.00 416.00 50.00" xmlns="http://www.w3.org/2000/svg" xmlns:xlink="http://www.w3.org/1999/xlink">
<g id="graph0" class="graph" transform="scale(1 1) rotate(0) translate(4 46)">
<title>creational::prototype::MazePrototypeFactory::MakeWall</title>
<polygon fill="white" stroke="none" points="-4,4 -4,-46 412,-46 412,4 -4,4"/>
<!-- Node1 -->
<g id="node1" class="node"><title>Node1</title>
<polygon fill="#bfbfbf" stroke="black" points="0,-0.5 0,-41.5 122,-41.5 122,-0.5 0,-0.5"/>
<text text-anchor="start" x="8" y="-29.5" font-family="Helvetica,sans-Serif" font-size="10.00">creational::prototype</text>
<text text-anchor="start" x="8" y="-18.5" font-family="Helvetica,sans-Serif" font-size="10.00">::MazePrototypeFactory</text>
<text text-anchor="middle" x="61" y="-7.5" font-family="Helvetica,sans-Serif" font-size="10.00">::MakeWall</text>
</g>
<!-- Node2 -->
<g id="node2" class="node"><title>Node2</title>
<g id="a_node2"><a xlink:href="../../da/d9e/classcreational_1_1commons_1_1_wall.html#a9fb0eebe8ac20bdbcbfb5c3498a7bbf1" target="_top" xlink:title="creational::commons\l::Wall::Clone">
<polygon fill="white" stroke="black" points="158,-6 158,-36 265,-36 265,-6 158,-6"/>
<text text-anchor="start" x="166" y="-24" font-family="Helvetica,sans-Serif" font-size="10.00">creational::commons</text>
<text text-anchor="middle" x="211.5" y="-13" font-family="Helvetica,sans-Serif" font-size="10.00">::Wall::Clone</text>
</a>
</g>
</g>
<!-- Node1&#45;&gt;Node2 -->
<g id="edge1" class="edge"><title>Node1&#45;&gt;Node2</title>
<path fill="none" stroke="midnightblue" d="M122.401,-21C130.735,-21 139.312,-21 147.689,-21"/>
<polygon fill="midnightblue" stroke="midnightblue" points="147.779,-24.5001 157.779,-21 147.779,-17.5001 147.779,-24.5001"/>
</g>
<!-- Node3 -->
<g id="node3" class="node"><title>Node3</title>
<g id="a_node3"><a xlink:href="../../da/d9e/classcreational_1_1commons_1_1_wall.html#aee942b78fcd70573f5cf645b58918c52" target="_top" xlink:title="creational::commons\l::Wall::Wall">
<polygon fill="white" stroke="black" points="301,-6 301,-36 408,-36 408,-6 301,-6"/>
<text text-anchor="start" x="309" y="-24" font-family="Helvetica,sans-Serif" font-size="10.00">creational::commons</text>
<text text-anchor="middle" x="354.5" y="-13" font-family="Helvetica,sans-Serif" font-size="10.00">::Wall::Wall</text>
</a>
</g>
</g>
<!-- Node2&#45;&gt;Node3 -->
<g id="edge2" class="edge"><title>Node2&#45;&gt;Node3</title>
<path fill="none" stroke="midnightblue" d="M265.003,-21C273.445,-21 282.255,-21 290.905,-21"/>
<polygon fill="midnightblue" stroke="midnightblue" points="290.953,-24.5001 300.953,-21 290.953,-17.5001 290.953,-24.5001"/>
</g>
</g>
</svg>
