<?xml version="1.0" encoding="UTF-8" standalone="no"?>
<!DOCTYPE svg PUBLIC "-//W3C//DTD SVG 1.1//EN"
 "http://www.w3.org/Graphics/SVG/1.1/DTD/svg11.dtd">
<!-- Generated by graphviz version 2.38.0 (20140413.2041)
 -->
<!-- Title: creational::prototype::MazePrototypeFactory::MakeDoor Pages: 1 -->
<svg width="416pt" height="88pt"
 viewBox="0.00 0.00 416.00 88.00" xmlns="http://www.w3.org/2000/svg" xmlns:xlink="http://www.w3.org/1999/xlink">
<g id="graph0" class="graph" transform="scale(1 1) rotate(0) translate(4 84)">
<title>creational::prototype::MazePrototypeFactory::MakeDoor</title>
<polygon fill="white" stroke="none" points="-4,4 -4,-84 412,-84 412,4 -4,4"/>
<!-- Node1 -->
<g id="node1" class="node"><title>Node1</title>
<polygon fill="#bfbfbf" stroke="black" points="0,-19 0,-60 122,-60 122,-19 0,-19"/>
<text text-anchor="start" x="8" y="-48" font-family="Helvetica,sans-Serif" font-size="10.00">creational::prototype</text>
<text text-anchor="start" x="8" y="-37" font-family="Helvetica,sans-Serif" font-size="10.00">::MazePrototypeFactory</text>
<text text-anchor="middle" x="61" y="-26" font-family="Helvetica,sans-Serif" font-size="10.00">::MakeDoor</text>
</g>
<!-- Node2 -->
<g id="node2" class="node"><title>Node2</title>
<g id="a_node2"><a xlink:href="../../df/d04/classcreational_1_1commons_1_1_door.html#a2168e2b001d02f3635386352e87f2f3c" target="_top" xlink:title="creational::commons\l::Door::Clone">
<polygon fill="white" stroke="black" points="158,-49.5 158,-79.5 265,-79.5 265,-49.5 158,-49.5"/>
<text text-anchor="start" x="166" y="-67.5" font-family="Helvetica,sans-Serif" font-size="10.00">creational::commons</text>
<text text-anchor="middle" x="211.5" y="-56.5" font-family="Helvetica,sans-Serif" font-size="10.00">::Door::Clone</text>
</a>
</g>
</g>
<!-- Node1&#45;&gt;Node2 -->
<g id="edge1" class="edge"><title>Node1&#45;&gt;Node2</title>
<path fill="none" stroke="midnightblue" d="M122.401,-49.6685C130.735,-51.0716 139.312,-52.5154 147.689,-53.9257"/>
<polygon fill="midnightblue" stroke="midnightblue" points="147.336,-57.4156 157.779,-55.6243 148.498,-50.5127 147.336,-57.4156"/>
</g>
<!-- Node4 -->
<g id="node4" class="node"><title>Node4</title>
<g id="a_node4"><a xlink:href="../../df/d04/classcreational_1_1commons_1_1_door.html#a2a7abbfa4e89b6e64db3bd4635b06f4d" target="_top" xlink:title="creational::commons\l::Door::Initialize">
<polygon fill="white" stroke="black" points="158,-0.5 158,-30.5 265,-30.5 265,-0.5 158,-0.5"/>
<text text-anchor="start" x="166" y="-18.5" font-family="Helvetica,sans-Serif" font-size="10.00">creational::commons</text>
<text text-anchor="middle" x="211.5" y="-7.5" font-family="Helvetica,sans-Serif" font-size="10.00">::Door::Initialize</text>
</a>
</g>
</g>
<!-- Node1&#45;&gt;Node4 -->
<g id="edge3" class="edge"><title>Node1&#45;&gt;Node4</title>
<path fill="none" stroke="midnightblue" d="M122.401,-29.7383C130.735,-28.3912 139.312,-27.0052 147.689,-25.6513"/>
<polygon fill="midnightblue" stroke="midnightblue" points="148.465,-29.0713 157.779,-24.0206 147.348,-22.161 148.465,-29.0713"/>
</g>
<!-- Node3 -->
<g id="node3" class="node"><title>Node3</title>
<g id="a_node3"><a xlink:href="../../df/d04/classcreational_1_1commons_1_1_door.html#aef1db3f62ed934e79644c12b282af588" target="_top" xlink:title="creational::commons\l::Door::Door">
<polygon fill="white" stroke="black" points="301,-49.5 301,-79.5 408,-79.5 408,-49.5 301,-49.5"/>
<text text-anchor="start" x="309" y="-67.5" font-family="Helvetica,sans-Serif" font-size="10.00">creational::commons</text>
<text text-anchor="middle" x="354.5" y="-56.5" font-family="Helvetica,sans-Serif" font-size="10.00">::Door::Door</text>
</a>
</g>
</g>
<!-- Node2&#45;&gt;Node3 -->
<g id="edge2" class="edge"><title>Node2&#45;&gt;Node3</title>
<path fill="none" stroke="midnightblue" d="M265.003,-64.5C273.445,-64.5 282.255,-64.5 290.905,-64.5"/>
<polygon fill="midnightblue" stroke="midnightblue" points="290.953,-68.0001 300.953,-64.5 290.953,-61.0001 290.953,-68.0001"/>
</g>
</g>
</svg>
