<?xml version="1.0" encoding="UTF-8" standalone="no"?>
<!DOCTYPE svg PUBLIC "-//W3C//DTD SVG 1.1//EN"
 "http://www.w3.org/Graphics/SVG/1.1/DTD/svg11.dtd">
<!-- Generated by graphviz version 2.38.0 (20140413.2041)
 -->
<!-- Title: src/operational/src/interpreter/boolean_exp_interface.h Pages: 1 -->
<svg width="205pt" height="229pt"
 viewBox="0.00 0.00 205.00 229.00" xmlns="http://www.w3.org/2000/svg" xmlns:xlink="http://www.w3.org/1999/xlink">
<g id="graph0" class="graph" transform="scale(1 1) rotate(0) translate(4 225)">
<title>src/operational/src/interpreter/boolean_exp_interface.h</title>
<polygon fill="white" stroke="none" points="-4,4 -4,-225 201,-225 201,4 -4,4"/>
<!-- Node1 -->
<g id="node1" class="node"><title>Node1</title>
<polygon fill="#bfbfbf" stroke="black" points="97,-179.5 97,-220.5 197,-220.5 197,-179.5 97,-179.5"/>
<text text-anchor="start" x="105" y="-208.5" font-family="Helvetica,sans-Serif" font-size="10.00">src/operational/src</text>
<text text-anchor="start" x="105" y="-197.5" font-family="Helvetica,sans-Serif" font-size="10.00">/interpreter/boolean</text>
<text text-anchor="middle" x="147" y="-186.5" font-family="Helvetica,sans-Serif" font-size="10.00">_exp_interface.h</text>
</g>
<!-- Node2 -->
<g id="node2" class="node"><title>Node2</title>
<g id="a_node2"><a xlink:href="../../d2/d69/interpreter__context__interface_8h.html" target="_top" xlink:title="interpreter_context\l_interface.h">
<polygon fill="white" stroke="black" points="60,-112.5 60,-142.5 158,-142.5 158,-112.5 60,-112.5"/>
<text text-anchor="start" x="68" y="-130.5" font-family="Helvetica,sans-Serif" font-size="10.00">interpreter_context</text>
<text text-anchor="middle" x="109" y="-119.5" font-family="Helvetica,sans-Serif" font-size="10.00">_interface.h</text>
</a>
</g>
</g>
<!-- Node1&#45;&gt;Node2 -->
<g id="edge1" class="edge"><title>Node1&#45;&gt;Node2</title>
<path fill="none" stroke="midnightblue" d="M136.415,-179.362C131.835,-170.864 126.437,-160.85 121.648,-151.965"/>
<polygon fill="midnightblue" stroke="midnightblue" points="124.583,-150.034 116.757,-142.892 118.421,-153.355 124.583,-150.034"/>
</g>
<!-- Node4 -->
<g id="node4" class="node"><title>Node4</title>
<polygon fill="white" stroke="#bfbfbf" points="127.5,-0.5 127.5,-19.5 168.5,-19.5 168.5,-0.5 127.5,-0.5"/>
<text text-anchor="middle" x="148" y="-7.5" font-family="Helvetica,sans-Serif" font-size="10.00">string</text>
</g>
<!-- Node1&#45;&gt;Node4 -->
<g id="edge5" class="edge"><title>Node1&#45;&gt;Node4</title>
<path fill="none" stroke="midnightblue" d="M155.831,-179.491C160.131,-168.928 164.833,-155.512 167,-143 173.988,-102.659 162.256,-55.0672 154.332,-29.4897"/>
<polygon fill="midnightblue" stroke="midnightblue" points="157.561,-28.1012 151.137,-19.6758 150.905,-30.268 157.561,-28.1012"/>
</g>
<!-- Node3 -->
<g id="node3" class="node"><title>Node3</title>
<g id="a_node3"><a xlink:href="../../d9/df8/variable__exp__interface_8h.html" target="_top" xlink:title="variable_exp_interface.h">
<polygon fill="white" stroke="black" points="0,-56.5 0,-75.5 120,-75.5 120,-56.5 0,-56.5"/>
<text text-anchor="middle" x="60" y="-63.5" font-family="Helvetica,sans-Serif" font-size="10.00">variable_exp_interface.h</text>
</a>
</g>
</g>
<!-- Node2&#45;&gt;Node3 -->
<g id="edge2" class="edge"><title>Node2&#45;&gt;Node3</title>
<path fill="none" stroke="midnightblue" d="M97.3877,-112.399C90.2674,-103.753 81.1169,-92.642 73.6508,-83.576"/>
<polygon fill="midnightblue" stroke="midnightblue" points="76.1888,-81.1521 67.1299,-75.6578 70.7853,-85.6021 76.1888,-81.1521"/>
</g>
<!-- Node2&#45;&gt;Node4 -->
<g id="edge4" class="edge"><title>Node2&#45;&gt;Node4</title>
<path fill="none" stroke="midnightblue" d="M114.957,-112.482C119.133,-102.419 124.713,-88.4864 129,-76 134.309,-60.5366 139.457,-42.6928 143.052,-29.6177"/>
<polygon fill="midnightblue" stroke="midnightblue" points="146.444,-30.4801 145.676,-19.9131 139.687,-28.6529 146.444,-30.4801"/>
</g>
<!-- Node3&#45;&gt;Node4 -->
<g id="edge3" class="edge"><title>Node3&#45;&gt;Node4</title>
<path fill="none" stroke="midnightblue" d="M74.1387,-56.324C87.8663,-47.9002 108.936,-34.9709 125.064,-25.0741"/>
<polygon fill="midnightblue" stroke="midnightblue" points="127.204,-27.8678 133.896,-19.6545 123.543,-21.9016 127.204,-27.8678"/>
</g>
</g>
</svg>
