<?xml version="1.0" encoding="UTF-8" standalone="no"?>
<!DOCTYPE svg PUBLIC "-//W3C//DTD SVG 1.1//EN"
 "http://www.w3.org/Graphics/SVG/1.1/DTD/svg11.dtd">
<!-- Generated by graphviz version 2.38.0 (20140413.2041)
 -->
<!-- Title: structural::bridge::IconWindow Pages: 1 -->
<svg width="117pt" height="386pt"
 viewBox="0.00 0.00 117.00 386.00" xmlns="http://www.w3.org/2000/svg" xmlns:xlink="http://www.w3.org/1999/xlink">
<g id="graph0" class="graph" transform="scale(1 1) rotate(0) translate(4 382)">
<title>structural::bridge::IconWindow</title>
<polygon fill="white" stroke="none" points="-4,4 -4,-382 113,-382 113,4 -4,4"/>
<!-- Node1 -->
<g id="node1" class="node"><title>Node1</title>
<polygon fill="#bfbfbf" stroke="black" points="9.5,-0.5 9.5,-101.5 99.5,-101.5 99.5,-0.5 9.5,-0.5"/>
<text text-anchor="start" x="17.5" y="-89.5" font-family="Helvetica,sans-Serif" font-size="10.00">structural::bridge</text>
<text text-anchor="middle" x="54.5" y="-78.5" font-family="Helvetica,sans-Serif" font-size="10.00">::IconWindow</text>
<polyline fill="none" stroke="black" points="9.5,-71.5 99.5,-71.5 "/>
<text text-anchor="middle" x="54.5" y="-59.5" font-family="Helvetica,sans-Serif" font-size="10.00"> </text>
<polyline fill="none" stroke="black" points="9.5,-52.5 99.5,-52.5 "/>
<text text-anchor="start" x="17.5" y="-40.5" font-family="Helvetica,sans-Serif" font-size="10.00">+ IconWindow()</text>
<text text-anchor="start" x="17.5" y="-29.5" font-family="Helvetica,sans-Serif" font-size="10.00">+ ~IconWindow()</text>
<text text-anchor="start" x="17.5" y="-18.5" font-family="Helvetica,sans-Serif" font-size="10.00">+ DrawText()</text>
<text text-anchor="start" x="17.5" y="-7.5" font-family="Helvetica,sans-Serif" font-size="10.00">+ DrawIcon()</text>
</g>
<!-- Node2 -->
<g id="node2" class="node"><title>Node2</title>
<g id="a_node2"><a xlink:href="../../d5/d3d/classstructural_1_1bridge_1_1_window.html" target="_top" xlink:title="{structural::bridge\l::Window\n||+ Window()\l+ ~Window()\l+ DrawRect()\l+ DrawText()\l# GetWindowImp()\l}">
<polygon fill="white" stroke="black" points="6,-138.5 6,-250.5 103,-250.5 103,-138.5 6,-138.5"/>
<text text-anchor="start" x="14" y="-238.5" font-family="Helvetica,sans-Serif" font-size="10.00">structural::bridge</text>
<text text-anchor="middle" x="54.5" y="-227.5" font-family="Helvetica,sans-Serif" font-size="10.00">::Window</text>
<polyline fill="none" stroke="black" points="6,-220.5 103,-220.5 "/>
<text text-anchor="middle" x="54.5" y="-208.5" font-family="Helvetica,sans-Serif" font-size="10.00"> </text>
<polyline fill="none" stroke="black" points="6,-201.5 103,-201.5 "/>
<text text-anchor="start" x="14" y="-189.5" font-family="Helvetica,sans-Serif" font-size="10.00">+ Window()</text>
<text text-anchor="start" x="14" y="-178.5" font-family="Helvetica,sans-Serif" font-size="10.00">+ ~Window()</text>
<text text-anchor="start" x="14" y="-167.5" font-family="Helvetica,sans-Serif" font-size="10.00">+ DrawRect()</text>
<text text-anchor="start" x="14" y="-156.5" font-family="Helvetica,sans-Serif" font-size="10.00">+ DrawText()</text>
<text text-anchor="start" x="14" y="-145.5" font-family="Helvetica,sans-Serif" font-size="10.00"># GetWindowImp()</text>
</a>
</g>
</g>
<!-- Node2&#45;&gt;Node1 -->
<g id="edge1" class="edge"><title>Node2&#45;&gt;Node1</title>
<path fill="none" stroke="midnightblue" d="M54.5,-128.344C54.5,-119.375 54.5,-110.286 54.5,-101.658"/>
<polygon fill="none" stroke="midnightblue" points="51.0001,-128.387 54.5,-138.387 58.0001,-128.387 51.0001,-128.387"/>
</g>
<!-- Node3 -->
<g id="node3" class="node"><title>Node3</title>
<g id="a_node3"><a xlink:href="../../dc/dac/classstructural_1_1bridge_1_1_window_interface.html" target="_top" xlink:title="{structural::bridge\l::WindowInterface\n||+ ~WindowInterface()\l+ DrawRect()\l+ DrawText()\l}">
<polygon fill="white" stroke="black" points="0,-287.5 0,-377.5 109,-377.5 109,-287.5 0,-287.5"/>
<text text-anchor="start" x="8" y="-365.5" font-family="Helvetica,sans-Serif" font-size="10.00">structural::bridge</text>
<text text-anchor="middle" x="54.5" y="-354.5" font-family="Helvetica,sans-Serif" font-size="10.00">::WindowInterface</text>
<polyline fill="none" stroke="black" points="0,-347.5 109,-347.5 "/>
<text text-anchor="middle" x="54.5" y="-335.5" font-family="Helvetica,sans-Serif" font-size="10.00"> </text>
<polyline fill="none" stroke="black" points="0,-328.5 109,-328.5 "/>
<text text-anchor="start" x="8" y="-316.5" font-family="Helvetica,sans-Serif" font-size="10.00">+ ~WindowInterface()</text>
<text text-anchor="start" x="8" y="-305.5" font-family="Helvetica,sans-Serif" font-size="10.00">+ DrawRect()</text>
<text text-anchor="start" x="8" y="-294.5" font-family="Helvetica,sans-Serif" font-size="10.00">+ DrawText()</text>
</a>
</g>
</g>
<!-- Node3&#45;&gt;Node2 -->
<g id="edge2" class="edge"><title>Node3&#45;&gt;Node2</title>
<path fill="none" stroke="midnightblue" d="M54.5,-277.312C54.5,-268.611 54.5,-259.595 54.5,-250.867"/>
<polygon fill="none" stroke="midnightblue" points="51.0001,-277.345 54.5,-287.345 58.0001,-277.345 51.0001,-277.345"/>
</g>
</g>
</svg>
