<?xml version="1.0" encoding="UTF-8" standalone="no"?>
<!DOCTYPE svg PUBLIC "-//W3C//DTD SVG 1.1//EN"
 "http://www.w3.org/Graphics/SVG/1.1/DTD/svg11.dtd">
<!-- Generated by graphviz version 2.38.0 (20140413.2041)
 -->
<!-- Title: src/creational/src/prototype/maze_prototype_factory.h Pages: 1 -->
<svg width="311pt" height="341pt"
 viewBox="0.00 0.00 311.00 341.00" xmlns="http://www.w3.org/2000/svg" xmlns:xlink="http://www.w3.org/1999/xlink">
<g id="graph0" class="graph" transform="scale(1 1) rotate(0) translate(4 337)">
<title>src/creational/src/prototype/maze_prototype_factory.h</title>
<polygon fill="white" stroke="none" points="-4,4 -4,-337 307,-337 307,4 -4,4"/>
<!-- Node1 -->
<g id="node1" class="node"><title>Node1</title>
<polygon fill="#bfbfbf" stroke="black" points="109,-291.5 109,-332.5 242,-332.5 242,-291.5 109,-291.5"/>
<text text-anchor="start" x="117" y="-320.5" font-family="Helvetica,sans-Serif" font-size="10.00">src/creational/src</text>
<text text-anchor="start" x="117" y="-309.5" font-family="Helvetica,sans-Serif" font-size="10.00">/prototype/maze_prototype</text>
<text text-anchor="middle" x="175.5" y="-298.5" font-family="Helvetica,sans-Serif" font-size="10.00">_factory.h</text>
</g>
<!-- Node2 -->
<g id="node2" class="node"><title>Node2</title>
<g id="a_node2"><a xlink:href="../../d6/d3b/maze__factory_8h.html" target="_top" xlink:title="../abstractfactory\l/maze_factory.h">
<polygon fill="white" stroke="black" points="130.5,-224.5 130.5,-254.5 220.5,-254.5 220.5,-224.5 130.5,-224.5"/>
<text text-anchor="start" x="138.5" y="-242.5" font-family="Helvetica,sans-Serif" font-size="10.00">../abstractfactory</text>
<text text-anchor="middle" x="175.5" y="-231.5" font-family="Helvetica,sans-Serif" font-size="10.00">/maze_factory.h</text>
</a>
</g>
</g>
<!-- Node1&#45;&gt;Node2 -->
<g id="edge1" class="edge"><title>Node1&#45;&gt;Node2</title>
<path fill="none" stroke="midnightblue" d="M175.5,-291.362C175.5,-283.226 175.5,-273.7 175.5,-265.105"/>
<polygon fill="midnightblue" stroke="midnightblue" points="179,-264.892 175.5,-254.892 172,-264.892 179,-264.892"/>
</g>
<!-- Node3 -->
<g id="node3" class="node"><title>Node3</title>
<g id="a_node3"><a xlink:href="../../de/d6d/maze__factory__interface_8h.html" target="_top" xlink:title="maze_factory_interface.h">
<polygon fill="white" stroke="black" points="113,-168.5 113,-187.5 238,-187.5 238,-168.5 113,-168.5"/>
<text text-anchor="middle" x="175.5" y="-175.5" font-family="Helvetica,sans-Serif" font-size="10.00">maze_factory_interface.h</text>
</a>
</g>
</g>
<!-- Node2&#45;&gt;Node3 -->
<g id="edge2" class="edge"><title>Node2&#45;&gt;Node3</title>
<path fill="none" stroke="midnightblue" d="M175.5,-224.399C175.5,-216.466 175.5,-206.458 175.5,-197.858"/>
<polygon fill="midnightblue" stroke="midnightblue" points="179,-197.658 175.5,-187.658 172,-197.658 179,-197.658"/>
</g>
<!-- Node4 -->
<g id="node4" class="node"><title>Node4</title>
<g id="a_node4"><a xlink:href="../../dc/db8/maze_8h.html" target="_top" xlink:title="../mazeparts/maze.h">
<polygon fill="white" stroke="black" points="0,-112.5 0,-131.5 107,-131.5 107,-112.5 0,-112.5"/>
<text text-anchor="middle" x="53.5" y="-119.5" font-family="Helvetica,sans-Serif" font-size="10.00">../mazeparts/maze.h</text>
</a>
</g>
</g>
<!-- Node3&#45;&gt;Node4 -->
<g id="edge3" class="edge"><title>Node3&#45;&gt;Node4</title>
<path fill="none" stroke="midnightblue" d="M156.169,-168.444C136.18,-159.596 104.757,-145.687 81.9361,-135.586"/>
<polygon fill="midnightblue" stroke="midnightblue" points="83.3018,-132.363 72.7408,-131.516 80.4685,-138.764 83.3018,-132.363"/>
</g>
<!-- Node9 -->
<g id="node9" class="node"><title>Node9</title>
<g id="a_node9"><a xlink:href="../../d1/d4f/wall_8h.html" target="_top" xlink:title="../mazeparts/wall.h">
<polygon fill="white" stroke="black" points="204,-56.5 204,-75.5 303,-75.5 303,-56.5 204,-56.5"/>
<text text-anchor="middle" x="253.5" y="-63.5" font-family="Helvetica,sans-Serif" font-size="10.00">../mazeparts/wall.h</text>
</a>
</g>
</g>
<!-- Node3&#45;&gt;Node9 -->
<g id="edge8" class="edge"><title>Node3&#45;&gt;Node9</title>
<path fill="none" stroke="midnightblue" d="M191.843,-168.437C205.185,-160.641 223.56,-147.929 234.5,-132 243.964,-118.22 248.776,-99.6954 251.185,-85.9477"/>
<polygon fill="midnightblue" stroke="midnightblue" points="254.695,-86.136 252.692,-75.7323 247.77,-85.1144 254.695,-86.136"/>
</g>
<!-- Node10 -->
<g id="node10" class="node"><title>Node10</title>
<g id="a_node10"><a xlink:href="../../d2/d59/door_8h.html" target="_top" xlink:title="../mazeparts/door.h">
<polygon fill="white" stroke="black" points="125,-112.5 125,-131.5 226,-131.5 226,-112.5 125,-112.5"/>
<text text-anchor="middle" x="175.5" y="-119.5" font-family="Helvetica,sans-Serif" font-size="10.00">../mazeparts/door.h</text>
</a>
</g>
</g>
<!-- Node3&#45;&gt;Node10 -->
<g id="edge10" class="edge"><title>Node3&#45;&gt;Node10</title>
<path fill="none" stroke="midnightblue" d="M175.5,-168.083C175.5,-161.006 175.5,-150.861 175.5,-141.986"/>
<polygon fill="midnightblue" stroke="midnightblue" points="179,-141.751 175.5,-131.751 172,-141.751 179,-141.751"/>
</g>
<!-- Node5 -->
<g id="node5" class="node"><title>Node5</title>
<g id="a_node5"><a xlink:href="../../d9/dc0/room_8h.html" target="_top" xlink:title="room.h">
<polygon fill="white" stroke="black" points="94,-56.5 94,-75.5 141,-75.5 141,-56.5 94,-56.5"/>
<text text-anchor="middle" x="117.5" y="-63.5" font-family="Helvetica,sans-Serif" font-size="10.00">room.h</text>
</a>
</g>
</g>
<!-- Node4&#45;&gt;Node5 -->
<g id="edge4" class="edge"><title>Node4&#45;&gt;Node5</title>
<path fill="none" stroke="midnightblue" d="M63.7827,-112.324C73.3363,-104.263 87.7797,-92.0765 99.2843,-82.3695"/>
<polygon fill="midnightblue" stroke="midnightblue" points="101.644,-84.9577 107.03,-75.8339 97.1302,-79.6076 101.644,-84.9577"/>
</g>
<!-- Node8 -->
<g id="node8" class="node"><title>Node8</title>
<polygon fill="white" stroke="#bfbfbf" points="36,-56.5 36,-75.5 71,-75.5 71,-56.5 36,-56.5"/>
<text text-anchor="middle" x="53.5" y="-63.5" font-family="Helvetica,sans-Serif" font-size="10.00">map</text>
</g>
<!-- Node4&#45;&gt;Node8 -->
<g id="edge7" class="edge"><title>Node4&#45;&gt;Node8</title>
<path fill="none" stroke="midnightblue" d="M53.5,-112.083C53.5,-105.006 53.5,-94.8611 53.5,-85.9865"/>
<polygon fill="midnightblue" stroke="midnightblue" points="57.0001,-85.751 53.5,-75.7511 50.0001,-85.7511 57.0001,-85.751"/>
</g>
<!-- Node6 -->
<g id="node6" class="node"><title>Node6</title>
<g id="a_node6"><a xlink:href="../../db/d1a/map__site__interface_8h.html" target="_top" xlink:title="map_site_interface.h">
<polygon fill="white" stroke="black" points="145,-0.5 145,-19.5 252,-19.5 252,-0.5 145,-0.5"/>
<text text-anchor="middle" x="198.5" y="-7.5" font-family="Helvetica,sans-Serif" font-size="10.00">map_site_interface.h</text>
</a>
</g>
</g>
<!-- Node5&#45;&gt;Node6 -->
<g id="edge5" class="edge"><title>Node5&#45;&gt;Node6</title>
<path fill="none" stroke="midnightblue" d="M130.514,-56.324C143.032,-47.979 162.182,-35.2122 176.971,-25.3524"/>
<polygon fill="midnightblue" stroke="midnightblue" points="179.139,-28.1137 185.518,-19.6545 175.256,-22.2894 179.139,-28.1137"/>
</g>
<!-- Node7 -->
<g id="node7" class="node"><title>Node7</title>
<g id="a_node7"><a xlink:href="../../dd/d04/direction_8h.html" target="_top" xlink:title="direction.h">
<polygon fill="white" stroke="black" points="64.5,-0.5 64.5,-19.5 126.5,-19.5 126.5,-0.5 64.5,-0.5"/>
<text text-anchor="middle" x="95.5" y="-7.5" font-family="Helvetica,sans-Serif" font-size="10.00">direction.h</text>
</a>
</g>
</g>
<!-- Node5&#45;&gt;Node7 -->
<g id="edge6" class="edge"><title>Node5&#45;&gt;Node7</title>
<path fill="none" stroke="midnightblue" d="M113.867,-56.083C110.888,-48.77 106.574,-38.1814 102.875,-29.1034"/>
<polygon fill="midnightblue" stroke="midnightblue" points="106.08,-27.6914 99.0653,-19.7511 99.597,-30.3326 106.08,-27.6914"/>
</g>
<!-- Node9&#45;&gt;Node6 -->
<g id="edge9" class="edge"><title>Node9&#45;&gt;Node6</title>
<path fill="none" stroke="midnightblue" d="M244.418,-56.083C236.329,-48.1409 224.305,-36.3354 214.59,-26.7973"/>
<polygon fill="midnightblue" stroke="midnightblue" points="217.001,-24.2595 207.413,-19.7511 212.097,-29.2545 217.001,-24.2595"/>
</g>
<!-- Node10&#45;&gt;Node5 -->
<g id="edge12" class="edge"><title>Node10&#45;&gt;Node5</title>
<path fill="none" stroke="midnightblue" d="M166.181,-112.324C157.607,-104.341 144.688,-92.3128 134.312,-82.6529"/>
<polygon fill="midnightblue" stroke="midnightblue" points="136.692,-80.0865 126.988,-75.8339 131.922,-85.2098 136.692,-80.0865"/>
</g>
<!-- Node10&#45;&gt;Node6 -->
<g id="edge11" class="edge"><title>Node10&#45;&gt;Node6</title>
<path fill="none" stroke="midnightblue" d="M177.305,-112.368C181.016,-94.617 189.579,-53.6664 194.611,-29.5974"/>
<polygon fill="midnightblue" stroke="midnightblue" points="198.083,-30.0961 196.704,-19.5914 191.231,-28.6634 198.083,-30.0961"/>
</g>
</g>
</svg>
