<?xml version="1.0" encoding="UTF-8" standalone="no"?>
<!DOCTYPE svg PUBLIC "-//W3C//DTD SVG 1.1//EN"
 "http://www.w3.org/Graphics/SVG/1.1/DTD/svg11.dtd">
<!-- Generated by graphviz version 2.38.0 (20140413.2041)
 -->
<!-- Title: src/operational/src/command/paste_command.h Pages: 1 -->
<svg width="252pt" height="151pt"
 viewBox="0.00 0.00 252.00 151.00" xmlns="http://www.w3.org/2000/svg" xmlns:xlink="http://www.w3.org/1999/xlink">
<g id="graph0" class="graph" transform="scale(1 1) rotate(0) translate(4 147)">
<title>src/operational/src/command/paste_command.h</title>
<polygon fill="white" stroke="none" points="-4,4 -4,-147 248,-147 248,4 -4,4"/>
<!-- Node1 -->
<g id="node1" class="node"><title>Node1</title>
<polygon fill="#bfbfbf" stroke="black" points="47,-112.5 47,-142.5 193,-142.5 193,-112.5 47,-112.5"/>
<text text-anchor="start" x="55" y="-130.5" font-family="Helvetica,sans-Serif" font-size="10.00">src/operational/src</text>
<text text-anchor="middle" x="120" y="-119.5" font-family="Helvetica,sans-Serif" font-size="10.00">/command/paste_command.h</text>
</g>
<!-- Node2 -->
<g id="node2" class="node"><title>Node2</title>
<g id="a_node2"><a xlink:href="../../db/dd7/command__interface_8h.html" target="_top" xlink:title="command_interface.h">
<polygon fill="white" stroke="black" points="0,-56.5 0,-75.5 110,-75.5 110,-56.5 0,-56.5"/>
<text text-anchor="middle" x="55" y="-63.5" font-family="Helvetica,sans-Serif" font-size="10.00">command_interface.h</text>
</a>
</g>
</g>
<!-- Node1&#45;&gt;Node2 -->
<g id="edge1" class="edge"><title>Node1&#45;&gt;Node2</title>
<path fill="none" stroke="midnightblue" d="M104.596,-112.399C94.7611,-103.397 82.0065,-91.7214 71.8947,-82.4652"/>
<polygon fill="midnightblue" stroke="midnightblue" points="74.1976,-79.8282 64.4581,-75.6578 69.4711,-84.9916 74.1976,-79.8282"/>
</g>
<!-- Node3 -->
<g id="node3" class="node"><title>Node3</title>
<g id="a_node3"><a xlink:href="../../d0/d06/command__document_8h.html" target="_top" xlink:title="command_document.h">
<polygon fill="white" stroke="black" points="128,-56.5 128,-75.5 244,-75.5 244,-56.5 128,-56.5"/>
<text text-anchor="middle" x="186" y="-63.5" font-family="Helvetica,sans-Serif" font-size="10.00">command_document.h</text>
</a>
</g>
</g>
<!-- Node1&#45;&gt;Node3 -->
<g id="edge2" class="edge"><title>Node1&#45;&gt;Node3</title>
<path fill="none" stroke="midnightblue" d="M135.641,-112.399C145.627,-103.397 158.578,-91.7214 168.845,-82.4652"/>
<polygon fill="midnightblue" stroke="midnightblue" points="171.313,-84.9533 176.396,-75.6578 166.625,-79.7541 171.313,-84.9533"/>
</g>
<!-- Node4 -->
<g id="node4" class="node"><title>Node4</title>
<polygon fill="white" stroke="#bfbfbf" points="165.5,-0.5 165.5,-19.5 206.5,-19.5 206.5,-0.5 165.5,-0.5"/>
<text text-anchor="middle" x="186" y="-7.5" font-family="Helvetica,sans-Serif" font-size="10.00">string</text>
</g>
<!-- Node3&#45;&gt;Node4 -->
<g id="edge3" class="edge"><title>Node3&#45;&gt;Node4</title>
<path fill="none" stroke="midnightblue" d="M186,-56.083C186,-49.0059 186,-38.8611 186,-29.9865"/>
<polygon fill="midnightblue" stroke="midnightblue" points="189.5,-29.751 186,-19.7511 182.5,-29.7511 189.5,-29.751"/>
</g>
</g>
</svg>
