<?xml version="1.0" encoding="UTF-8" standalone="no"?>
<!DOCTYPE svg PUBLIC "-//W3C//DTD SVG 1.1//EN"
 "http://www.w3.org/Graphics/SVG/1.1/DTD/svg11.dtd">
<!-- Generated by graphviz version 2.38.0 (20140413.2041)
 -->
<!-- Title: src/structural/src/flyweight/glyph_context.h Pages: 1 -->
<svg width="215pt" height="274pt"
 viewBox="0.00 0.00 214.50 274.00" xmlns="http://www.w3.org/2000/svg" xmlns:xlink="http://www.w3.org/1999/xlink">
<g id="graph0" class="graph" transform="scale(1 1) rotate(0) translate(4 270)">
<title>src/structural/src/flyweight/glyph_context.h</title>
<polygon fill="white" stroke="none" points="-4,4 -4,-270 210.5,-270 210.5,4 -4,4"/>
<!-- Node1 -->
<g id="node1" class="node"><title>Node1</title>
<polygon fill="#bfbfbf" stroke="black" points="0,-235.5 0,-265.5 129,-265.5 129,-235.5 0,-235.5"/>
<text text-anchor="start" x="8" y="-253.5" font-family="Helvetica,sans-Serif" font-size="10.00">src/structural/src</text>
<text text-anchor="middle" x="64.5" y="-242.5" font-family="Helvetica,sans-Serif" font-size="10.00">/flyweight/glyph_context.h</text>
</g>
<!-- Node2 -->
<g id="node2" class="node"><title>Node2</title>
<g id="a_node2"><a xlink:href="../../d9/d13/btree_8h.html" target="_top" xlink:title="btree.h">
<polygon fill="white" stroke="black" points="41,-179.5 41,-198.5 88,-198.5 88,-179.5 41,-179.5"/>
<text text-anchor="middle" x="64.5" y="-186.5" font-family="Helvetica,sans-Serif" font-size="10.00">btree.h</text>
</a>
</g>
</g>
<!-- Node1&#45;&gt;Node2 -->
<g id="edge1" class="edge"><title>Node1&#45;&gt;Node2</title>
<path fill="none" stroke="midnightblue" d="M64.5,-235.399C64.5,-227.466 64.5,-217.458 64.5,-208.858"/>
<polygon fill="midnightblue" stroke="midnightblue" points="68.0001,-208.658 64.5,-198.658 61.0001,-208.658 68.0001,-208.658"/>
</g>
<!-- Node3 -->
<g id="node3" class="node"><title>Node3</title>
<g id="a_node3"><a xlink:href="../../d9/d67/font_8h.html" target="_top" xlink:title="font.h">
<polygon fill="white" stroke="black" points="2,-118 2,-137 43,-137 43,-118 2,-118"/>
<text text-anchor="middle" x="22.5" y="-125" font-family="Helvetica,sans-Serif" font-size="10.00">font.h</text>
</a>
</g>
</g>
<!-- Node2&#45;&gt;Node3 -->
<g id="edge2" class="edge"><title>Node2&#45;&gt;Node3</title>
<path fill="none" stroke="midnightblue" d="M58.4824,-179.475C52.2448,-170.638 42.3273,-156.589 34.4824,-145.475"/>
<polygon fill="midnightblue" stroke="midnightblue" points="37.1327,-143.16 28.5064,-137.009 31.4139,-147.197 37.1327,-143.16"/>
</g>
<!-- Node5 -->
<g id="node5" class="node"><title>Node5</title>
<g id="a_node5"><a xlink:href="../../da/d23/list_8h.html" target="_top" xlink:title="../../../operational\l/src/iterator/list.h">
<polygon fill="white" stroke="black" points="61,-112.5 61,-142.5 152,-142.5 152,-112.5 61,-112.5"/>
<text text-anchor="start" x="69" y="-130.5" font-family="Helvetica,sans-Serif" font-size="10.00">../../../operational</text>
<text text-anchor="middle" x="106.5" y="-119.5" font-family="Helvetica,sans-Serif" font-size="10.00">/src/iterator/list.h</text>
</a>
</g>
</g>
<!-- Node2&#45;&gt;Node5 -->
<g id="edge4" class="edge"><title>Node2&#45;&gt;Node5</title>
<path fill="none" stroke="midnightblue" d="M70.5176,-179.475C75.7806,-172.019 83.6633,-160.852 90.7105,-150.869"/>
<polygon fill="midnightblue" stroke="midnightblue" points="93.694,-152.711 96.6014,-142.523 87.9752,-148.674 93.694,-152.711"/>
</g>
<!-- Node4 -->
<g id="node4" class="node"><title>Node4</title>
<polygon fill="white" stroke="#bfbfbf" points="2,-56.5 2,-75.5 43,-75.5 43,-56.5 2,-56.5"/>
<text text-anchor="middle" x="22.5" y="-63.5" font-family="Helvetica,sans-Serif" font-size="10.00">string</text>
</g>
<!-- Node3&#45;&gt;Node4 -->
<g id="edge3" class="edge"><title>Node3&#45;&gt;Node4</title>
<path fill="none" stroke="midnightblue" d="M22.5,-117.975C22.5,-109.58 22.5,-96.4806 22.5,-85.6631"/>
<polygon fill="midnightblue" stroke="midnightblue" points="26.0001,-85.5091 22.5,-75.5091 19.0001,-85.5091 26.0001,-85.5091"/>
</g>
<!-- Node6 -->
<g id="node6" class="node"><title>Node6</title>
<g id="a_node6"><a xlink:href="../../d9/d71/list__iterator_8h.html" target="_top" xlink:title="list_iterator.h">
<polygon fill="white" stroke="black" points="65,-56.5 65,-75.5 138,-75.5 138,-56.5 65,-56.5"/>
<text text-anchor="middle" x="101.5" y="-63.5" font-family="Helvetica,sans-Serif" font-size="10.00">list_iterator.h</text>
</a>
</g>
</g>
<!-- Node5&#45;&gt;Node6 -->
<g id="edge5" class="edge"><title>Node5&#45;&gt;Node6</title>
<path fill="none" stroke="midnightblue" d="M105.315,-112.399C104.648,-104.466 103.807,-94.458 103.085,-85.8583"/>
<polygon fill="midnightblue" stroke="midnightblue" points="106.553,-85.3295 102.228,-75.6578 99.5773,-85.9158 106.553,-85.3295"/>
</g>
<!-- Node8 -->
<g id="node8" class="node"><title>Node8</title>
<g id="a_node8"><a xlink:href="../../dd/d8c/list__interface_8h.html" target="_top" xlink:title="list_interface.h">
<polygon fill="white" stroke="black" points="126.5,-0.5 126.5,-19.5 206.5,-19.5 206.5,-0.5 126.5,-0.5"/>
<text text-anchor="middle" x="166.5" y="-7.5" font-family="Helvetica,sans-Serif" font-size="10.00">list_interface.h</text>
</a>
</g>
</g>
<!-- Node5&#45;&gt;Node8 -->
<g id="edge8" class="edge"><title>Node5&#45;&gt;Node8</title>
<path fill="none" stroke="midnightblue" d="M119.96,-112.488C128.573,-102.873 139.419,-89.4624 146.5,-76 154.229,-61.3052 159.501,-43.1409 162.684,-29.753"/>
<polygon fill="midnightblue" stroke="midnightblue" points="166.141,-30.3304 164.874,-19.8116 159.305,-28.8244 166.141,-30.3304"/>
</g>
<!-- Node7 -->
<g id="node7" class="node"><title>Node7</title>
<g id="a_node7"><a xlink:href="../../d6/da4/iterator__interface_8h.html" target="_top" xlink:title="iterator_interface.h">
<polygon fill="white" stroke="black" points="11,-0.5 11,-19.5 108,-19.5 108,-0.5 11,-0.5"/>
<text text-anchor="middle" x="59.5" y="-7.5" font-family="Helvetica,sans-Serif" font-size="10.00">iterator_interface.h</text>
</a>
</g>
</g>
<!-- Node6&#45;&gt;Node7 -->
<g id="edge6" class="edge"><title>Node6&#45;&gt;Node7</title>
<path fill="none" stroke="midnightblue" d="M94.5646,-56.083C88.5708,-48.3768 79.7482,-37.0333 72.4524,-27.6531"/>
<polygon fill="midnightblue" stroke="midnightblue" points="75.2086,-25.4958 66.3064,-19.7511 69.6831,-29.7934 75.2086,-25.4958"/>
</g>
<!-- Node6&#45;&gt;Node8 -->
<g id="edge7" class="edge"><title>Node6&#45;&gt;Node8</title>
<path fill="none" stroke="midnightblue" d="M111.943,-56.324C121.646,-48.2631 136.315,-36.0765 148,-26.3695"/>
<polygon fill="midnightblue" stroke="midnightblue" points="150.411,-28.9163 155.867,-19.8339 145.938,-23.532 150.411,-28.9163"/>
</g>
</g>
</svg>
