<?xml version="1.0" encoding="UTF-8" standalone="no"?>
<!DOCTYPE svg PUBLIC "-//W3C//DTD SVG 1.1//EN"
 "http://www.w3.org/Graphics/SVG/1.1/DTD/svg11.dtd">
<!-- Generated by graphviz version 2.38.0 (20140413.2041)
 -->
<!-- Title: src/structural/src/facade/program_node_interface.h Pages: 1 -->
<svg width="588pt" height="351pt"
 viewBox="0.00 0.00 588.00 351.00" xmlns="http://www.w3.org/2000/svg" xmlns:xlink="http://www.w3.org/1999/xlink">
<g id="graph0" class="graph" transform="scale(1 1) rotate(0) translate(4 347)">
<title>src/structural/src/facade/program_node_interface.h</title>
<polygon fill="white" stroke="none" points="-4,4 -4,-347 584,-347 584,4 -4,4"/>
<!-- Node1 -->
<g id="node1" class="node"><title>Node1</title>
<polygon fill="#bfbfbf" stroke="black" points="245,-301.5 245,-342.5 358,-342.5 358,-301.5 245,-301.5"/>
<text text-anchor="start" x="253" y="-330.5" font-family="Helvetica,sans-Serif" font-size="10.00">src/structural/src</text>
<text text-anchor="start" x="253" y="-319.5" font-family="Helvetica,sans-Serif" font-size="10.00">/facade/program_node</text>
<text text-anchor="middle" x="301.5" y="-308.5" font-family="Helvetica,sans-Serif" font-size="10.00">_interface.h</text>
</g>
<!-- Node2 -->
<g id="node2" class="node"><title>Node2</title>
<g id="a_node2"><a xlink:href="../../da/dc8/program__node__builder__interface_8h.html" target="_top" xlink:title="src/structural/src\l/facade/program_node\l_builder_interface.h">
<polygon fill="white" stroke="black" points="31,-223.5 31,-264.5 144,-264.5 144,-223.5 31,-223.5"/>
<text text-anchor="start" x="39" y="-252.5" font-family="Helvetica,sans-Serif" font-size="10.00">src/structural/src</text>
<text text-anchor="start" x="39" y="-241.5" font-family="Helvetica,sans-Serif" font-size="10.00">/facade/program_node</text>
<text text-anchor="middle" x="87.5" y="-230.5" font-family="Helvetica,sans-Serif" font-size="10.00">_builder_interface.h</text>
</a>
</g>
</g>
<!-- Node1&#45;&gt;Node2 -->
<g id="edge1" class="edge"><title>Node1&#45;&gt;Node2</title>
<path fill="none" stroke="midnightblue" d="M236.811,-298.026C206.685,-287.328 171.226,-274.734 142.424,-264.506"/>
<polygon fill="midnightblue" stroke="midnightblue" points="235.795,-301.38 246.39,-301.428 238.138,-294.783 235.795,-301.38"/>
</g>
<!-- Node8 -->
<g id="node8" class="node"><title>Node8</title>
<g id="a_node8"><a xlink:href="../../d9/d18/expression__node_8h.html" target="_top" xlink:title="src/structural/src\l/facade/expression_node.h">
<polygon fill="white" stroke="black" points="163,-229 163,-259 296,-259 296,-229 163,-229"/>
<text text-anchor="start" x="171" y="-247" font-family="Helvetica,sans-Serif" font-size="10.00">src/structural/src</text>
<text text-anchor="middle" x="229.5" y="-236" font-family="Helvetica,sans-Serif" font-size="10.00">/facade/expression_node.h</text>
</a>
</g>
</g>
<!-- Node1&#45;&gt;Node8 -->
<g id="edge8" class="edge"><title>Node1&#45;&gt;Node8</title>
<path fill="none" stroke="midnightblue" d="M275.911,-293.99C264.794,-282.255 252.227,-268.99 242.977,-259.225"/>
<polygon fill="midnightblue" stroke="midnightblue" points="273.54,-296.576 282.958,-301.428 278.622,-291.761 273.54,-296.576"/>
</g>
<!-- Node10 -->
<g id="node10" class="node"><title>Node10</title>
<g id="a_node10"><a xlink:href="../../d3/da1/variable__node_8h.html" target="_top" xlink:title="src/structural/src\l/facade/variable_node.h">
<polygon fill="white" stroke="black" points="314.5,-229 314.5,-259 432.5,-259 432.5,-229 314.5,-229"/>
<text text-anchor="start" x="322.5" y="-247" font-family="Helvetica,sans-Serif" font-size="10.00">src/structural/src</text>
<text text-anchor="middle" x="373.5" y="-236" font-family="Helvetica,sans-Serif" font-size="10.00">/facade/variable_node.h</text>
</a>
</g>
</g>
<!-- Node1&#45;&gt;Node10 -->
<g id="edge10" class="edge"><title>Node1&#45;&gt;Node10</title>
<path fill="none" stroke="midnightblue" d="M327.089,-293.99C338.206,-282.255 350.773,-268.99 360.023,-259.225"/>
<polygon fill="midnightblue" stroke="midnightblue" points="324.378,-291.761 320.042,-301.428 329.46,-296.576 324.378,-291.761"/>
</g>
<!-- Node12 -->
<g id="node12" class="node"><title>Node12</title>
<g id="a_node12"><a xlink:href="../../d3/d03/statement__node_8h.html" target="_top" xlink:title="src/structural/src\l/facade/statement_node.h">
<polygon fill="white" stroke="black" points="451,-229 451,-259 580,-259 580,-229 451,-229"/>
<text text-anchor="start" x="459" y="-247" font-family="Helvetica,sans-Serif" font-size="10.00">src/structural/src</text>
<text text-anchor="middle" x="515.5" y="-236" font-family="Helvetica,sans-Serif" font-size="10.00">/facade/statement_node.h</text>
</a>
</g>
</g>
<!-- Node1&#45;&gt;Node12 -->
<g id="edge13" class="edge"><title>Node1&#45;&gt;Node12</title>
<path fill="none" stroke="midnightblue" d="M366.45,-297.934C402.089,-285.277 445.13,-269.991 475.779,-259.106"/>
<polygon fill="midnightblue" stroke="midnightblue" points="364.862,-294.783 356.61,-301.428 367.205,-301.38 364.862,-294.783"/>
</g>
<!-- Node3 -->
<g id="node3" class="node"><title>Node3</title>
<g id="a_node3"><a xlink:href="../../d2/d57/program__node__builder_8h.html" target="_top" xlink:title="src/structural/src\l/facade/program_node\l_builder.h">
<polygon fill="white" stroke="black" points="30,-145.5 30,-186.5 143,-186.5 143,-145.5 30,-145.5"/>
<text text-anchor="start" x="38" y="-174.5" font-family="Helvetica,sans-Serif" font-size="10.00">src/structural/src</text>
<text text-anchor="start" x="38" y="-163.5" font-family="Helvetica,sans-Serif" font-size="10.00">/facade/program_node</text>
<text text-anchor="middle" x="86.5" y="-152.5" font-family="Helvetica,sans-Serif" font-size="10.00">_builder.h</text>
</a>
</g>
</g>
<!-- Node2&#45;&gt;Node3 -->
<g id="edge2" class="edge"><title>Node2&#45;&gt;Node3</title>
<path fill="none" stroke="midnightblue" d="M87.1092,-213.297C86.9908,-204.301 86.8639,-194.653 86.7567,-186.506"/>
<polygon fill="midnightblue" stroke="midnightblue" points="83.6111,-213.475 87.2425,-223.428 90.6105,-213.383 83.6111,-213.475"/>
</g>
<!-- Node4 -->
<g id="node4" class="node"><title>Node4</title>
<g id="a_node4"><a xlink:href="../../da/dc6/compiler_8cc.html" target="_top" xlink:title="src/structural/src\l/facade/compiler.cc">
<polygon fill="white" stroke="black" points="0,-0.5 0,-30.5 101,-30.5 101,-0.5 0,-0.5"/>
<text text-anchor="start" x="8" y="-18.5" font-family="Helvetica,sans-Serif" font-size="10.00">src/structural/src</text>
<text text-anchor="middle" x="50.5" y="-7.5" font-family="Helvetica,sans-Serif" font-size="10.00">/facade/compiler.cc</text>
</a>
</g>
</g>
<!-- Node3&#45;&gt;Node4 -->
<g id="edge3" class="edge"><title>Node3&#45;&gt;Node4</title>
<path fill="none" stroke="midnightblue" d="M77.0876,-135.825C74.4659,-127.23 71.7286,-117.777 69.5,-109 62.52,-81.5102 56.297,-48.9316 52.9954,-30.6962"/>
<polygon fill="midnightblue" stroke="midnightblue" points="73.7624,-136.919 80.0748,-145.428 80.4465,-134.839 73.7624,-136.919"/>
</g>
<!-- Node5 -->
<g id="node5" class="node"><title>Node5</title>
<g id="a_node5"><a xlink:href="../../d5/d36/parser_8h.html" target="_top" xlink:title="src/structural/src\l/facade/parser.h">
<polygon fill="white" stroke="black" points="78.5,-73 78.5,-103 168.5,-103 168.5,-73 78.5,-73"/>
<text text-anchor="start" x="86.5" y="-91" font-family="Helvetica,sans-Serif" font-size="10.00">src/structural/src</text>
<text text-anchor="middle" x="123.5" y="-80" font-family="Helvetica,sans-Serif" font-size="10.00">/facade/parser.h</text>
</a>
</g>
</g>
<!-- Node3&#45;&gt;Node5 -->
<g id="edge4" class="edge"><title>Node3&#45;&gt;Node5</title>
<path fill="none" stroke="midnightblue" d="M100.471,-136.303C105.974,-124.999 112.047,-112.525 116.575,-103.225"/>
<polygon fill="midnightblue" stroke="midnightblue" points="97.2588,-134.905 96.0284,-145.428 103.553,-137.969 97.2588,-134.905"/>
</g>
<!-- Node7 -->
<g id="node7" class="node"><title>Node7</title>
<g id="a_node7"><a xlink:href="../../db/d62/program__node__builder_8cc.html" target="_top" xlink:title="src/structural/src\l/facade/program_node\l_builder.cc">
<polygon fill="white" stroke="black" points="229,-67.5 229,-108.5 342,-108.5 342,-67.5 229,-67.5"/>
<text text-anchor="start" x="237" y="-96.5" font-family="Helvetica,sans-Serif" font-size="10.00">src/structural/src</text>
<text text-anchor="start" x="237" y="-85.5" font-family="Helvetica,sans-Serif" font-size="10.00">/facade/program_node</text>
<text text-anchor="middle" x="285.5" y="-74.5" font-family="Helvetica,sans-Serif" font-size="10.00">_builder.cc</text>
</a>
</g>
</g>
<!-- Node3&#45;&gt;Node7 -->
<g id="edge7" class="edge"><title>Node3&#45;&gt;Node7</title>
<path fill="none" stroke="midnightblue" d="M147.383,-141.748C175.239,-131.11 207.875,-118.646 234.426,-108.506"/>
<polygon fill="midnightblue" stroke="midnightblue" points="145.841,-138.591 137.747,-145.428 148.338,-145.13 145.841,-138.591"/>
</g>
<!-- Node5&#45;&gt;Node4 -->
<g id="edge5" class="edge"><title>Node5&#45;&gt;Node4</title>
<path fill="none" stroke="midnightblue" d="M101.432,-65.688C89.7159,-54.3729 75.6349,-40.7741 65.2507,-30.7455"/>
<polygon fill="midnightblue" stroke="midnightblue" points="99.1028,-68.304 108.727,-72.7333 103.966,-63.2688 99.1028,-68.304"/>
</g>
<!-- Node6 -->
<g id="node6" class="node"><title>Node6</title>
<g id="a_node6"><a xlink:href="../../dc/dc9/parser_8cc.html" target="_top" xlink:title="src/structural/src\l/facade/parser.cc">
<polygon fill="white" stroke="black" points="119.5,-0.5 119.5,-30.5 211.5,-30.5 211.5,-0.5 119.5,-0.5"/>
<text text-anchor="start" x="127.5" y="-18.5" font-family="Helvetica,sans-Serif" font-size="10.00">src/structural/src</text>
<text text-anchor="middle" x="165.5" y="-7.5" font-family="Helvetica,sans-Serif" font-size="10.00">/facade/parser.cc</text>
</a>
</g>
</g>
<!-- Node5&#45;&gt;Node6 -->
<g id="edge6" class="edge"><title>Node5&#45;&gt;Node6</title>
<path fill="none" stroke="midnightblue" d="M137.168,-64.0566C143.704,-53.0859 151.323,-40.2965 157.013,-30.7455"/>
<polygon fill="midnightblue" stroke="midnightblue" points="134.111,-62.3509 131.999,-72.7333 140.124,-65.9336 134.111,-62.3509"/>
</g>
<!-- Node9 -->
<g id="node9" class="node"><title>Node9</title>
<g id="a_node9"><a xlink:href="../../d7/dd1/expression__node_8cc.html" target="_top" xlink:title="src/structural/src\l/facade/expression_node.cc">
<polygon fill="white" stroke="black" points="161.5,-151 161.5,-181 299.5,-181 299.5,-151 161.5,-151"/>
<text text-anchor="start" x="169.5" y="-169" font-family="Helvetica,sans-Serif" font-size="10.00">src/structural/src</text>
<text text-anchor="middle" x="230.5" y="-158" font-family="Helvetica,sans-Serif" font-size="10.00">/facade/expression_node.cc</text>
</a>
</g>
</g>
<!-- Node8&#45;&gt;Node9 -->
<g id="edge9" class="edge"><title>Node8&#45;&gt;Node9</title>
<path fill="none" stroke="midnightblue" d="M229.821,-218.59C229.983,-206.257 230.175,-191.724 230.313,-181.231"/>
<polygon fill="midnightblue" stroke="midnightblue" points="226.32,-218.66 229.688,-228.705 233.319,-218.752 226.32,-218.66"/>
</g>
<!-- Node10&#45;&gt;Node7 -->
<g id="edge11" class="edge"><title>Node10&#45;&gt;Node7</title>
<path fill="none" stroke="midnightblue" d="M360.242,-219.799C342.947,-189.533 312.986,-137.1 296.746,-108.68"/>
<polygon fill="midnightblue" stroke="midnightblue" points="357.379,-221.842 365.379,-228.788 363.456,-218.369 357.379,-221.842"/>
</g>
<!-- Node11 -->
<g id="node11" class="node"><title>Node11</title>
<g id="a_node11"><a xlink:href="../../d4/dd8/variable__node_8cc.html" target="_top" xlink:title="src/structural/src\l/facade/variable_node.cc">
<polygon fill="white" stroke="black" points="356,-151 356,-181 479,-181 479,-151 356,-151"/>
<text text-anchor="start" x="364" y="-169" font-family="Helvetica,sans-Serif" font-size="10.00">src/structural/src</text>
<text text-anchor="middle" x="417.5" y="-158" font-family="Helvetica,sans-Serif" font-size="10.00">/facade/variable_node.cc</text>
</a>
</g>
</g>
<!-- Node10&#45;&gt;Node11 -->
<g id="edge12" class="edge"><title>Node10&#45;&gt;Node11</title>
<path fill="none" stroke="midnightblue" d="M386.987,-219.705C394.26,-207.141 403.002,-192.042 409.261,-181.231"/>
<polygon fill="midnightblue" stroke="midnightblue" points="383.757,-218.297 381.776,-228.705 389.815,-221.804 383.757,-218.297"/>
</g>
</g>
</svg>
