<?xml version="1.0" encoding="UTF-8" standalone="no"?>
<!DOCTYPE svg PUBLIC "-//W3C//DTD SVG 1.1//EN"
 "http://www.w3.org/Graphics/SVG/1.1/DTD/svg11.dtd">
<!-- Generated by graphviz version 2.38.0 (20140413.2041)
 -->
<!-- Title: src/operational/src/observer/clock_tick.h Pages: 1 -->
<svg width="306pt" height="207pt"
 viewBox="0.00 0.00 306.00 207.00" xmlns="http://www.w3.org/2000/svg" xmlns:xlink="http://www.w3.org/1999/xlink">
<g id="graph0" class="graph" transform="scale(1 1) rotate(0) translate(4 203)">
<title>src/operational/src/observer/clock_tick.h</title>
<polygon fill="white" stroke="none" points="-4,4 -4,-203 302,-203 302,4 -4,4"/>
<!-- Node1 -->
<g id="node1" class="node"><title>Node1</title>
<polygon fill="#bfbfbf" stroke="black" points="56.5,-168.5 56.5,-198.5 167.5,-198.5 167.5,-168.5 56.5,-168.5"/>
<text text-anchor="start" x="64.5" y="-186.5" font-family="Helvetica,sans-Serif" font-size="10.00">src/operational/src</text>
<text text-anchor="middle" x="112" y="-175.5" font-family="Helvetica,sans-Serif" font-size="10.00">/observer/clock_tick.h</text>
</g>
<!-- Node2 -->
<g id="node2" class="node"><title>Node2</title>
<g id="a_node2"><a xlink:href="../../d0/d6a/clock__tick__observer_8h.html" target="_top" xlink:title="clock_tick_observer.h">
<polygon fill="white" stroke="black" points="0,-56.5 0,-75.5 110,-75.5 110,-56.5 0,-56.5"/>
<text text-anchor="middle" x="55" y="-63.5" font-family="Helvetica,sans-Serif" font-size="10.00">clock_tick_observer.h</text>
</a>
</g>
</g>
<!-- Node1&#45;&gt;Node2 -->
<g id="edge1" class="edge"><title>Node1&#45;&gt;Node2</title>
<path fill="none" stroke="midnightblue" d="M83.5159,-168.347C69.7854,-159.862 54.6639,-147.659 47,-132 39.9012,-117.495 43.1418,-99.0773 47.4342,-85.5532"/>
<polygon fill="midnightblue" stroke="midnightblue" points="50.807,-86.5187 50.9247,-75.9245 44.2261,-84.133 50.807,-86.5187"/>
</g>
<!-- Node3 -->
<g id="node3" class="node"><title>Node3</title>
<g id="a_node3"><a xlink:href="../../d6/db3/clock__tick__interface_8h.html" target="_top" xlink:title="clock_tick_interface.h">
<polygon fill="white" stroke="black" points="56.5,-112.5 56.5,-131.5 167.5,-131.5 167.5,-112.5 56.5,-112.5"/>
<text text-anchor="middle" x="112" y="-119.5" font-family="Helvetica,sans-Serif" font-size="10.00">clock_tick_interface.h</text>
</a>
</g>
</g>
<!-- Node1&#45;&gt;Node3 -->
<g id="edge2" class="edge"><title>Node1&#45;&gt;Node3</title>
<path fill="none" stroke="midnightblue" d="M112,-168.399C112,-160.466 112,-150.458 112,-141.858"/>
<polygon fill="midnightblue" stroke="midnightblue" points="115.5,-141.658 112,-131.658 108.5,-141.658 115.5,-141.658"/>
</g>
<!-- Node4 -->
<g id="node4" class="node"><title>Node4</title>
<g id="a_node4"><a xlink:href="../../da/d23/list_8h.html" target="_top" xlink:title="../iterator/list.h">
<polygon fill="white" stroke="black" points="186,-112.5 186,-131.5 266,-131.5 266,-112.5 186,-112.5"/>
<text text-anchor="middle" x="226" y="-119.5" font-family="Helvetica,sans-Serif" font-size="10.00">../iterator/list.h</text>
</a>
</g>
</g>
<!-- Node1&#45;&gt;Node4 -->
<g id="edge4" class="edge"><title>Node1&#45;&gt;Node4</title>
<path fill="none" stroke="midnightblue" d="M139.016,-168.399C157.631,-158.684 182.21,-145.855 200.491,-136.314"/>
<polygon fill="midnightblue" stroke="midnightblue" points="202.166,-139.388 209.412,-131.658 198.927,-133.182 202.166,-139.388"/>
</g>
<!-- Node3&#45;&gt;Node2 -->
<g id="edge3" class="edge"><title>Node3&#45;&gt;Node2</title>
<path fill="none" stroke="midnightblue" d="M102.842,-112.324C94.4985,-104.42 81.9676,-92.5482 71.8231,-82.9377"/>
<polygon fill="midnightblue" stroke="midnightblue" points="73.9913,-80.1705 64.3247,-75.8339 69.1771,-85.2522 73.9913,-80.1705"/>
</g>
<!-- Node5 -->
<g id="node5" class="node"><title>Node5</title>
<g id="a_node5"><a xlink:href="../../d9/d71/list__iterator_8h.html" target="_top" xlink:title="list_iterator.h">
<polygon fill="white" stroke="black" points="156.5,-56.5 156.5,-75.5 229.5,-75.5 229.5,-56.5 156.5,-56.5"/>
<text text-anchor="middle" x="193" y="-63.5" font-family="Helvetica,sans-Serif" font-size="10.00">list_iterator.h</text>
</a>
</g>
</g>
<!-- Node4&#45;&gt;Node5 -->
<g id="edge5" class="edge"><title>Node4&#45;&gt;Node5</title>
<path fill="none" stroke="midnightblue" d="M220.551,-112.083C215.986,-104.613 209.332,-93.7244 203.707,-84.5199"/>
<polygon fill="midnightblue" stroke="midnightblue" points="206.549,-82.4588 198.348,-75.7511 200.576,-86.109 206.549,-82.4588"/>
</g>
<!-- Node7 -->
<g id="node7" class="node"><title>Node7</title>
<g id="a_node7"><a xlink:href="../../dd/d8c/list__interface_8h.html" target="_top" xlink:title="list_interface.h">
<polygon fill="white" stroke="black" points="218,-0.5 218,-19.5 298,-19.5 298,-0.5 218,-0.5"/>
<text text-anchor="middle" x="258" y="-7.5" font-family="Helvetica,sans-Serif" font-size="10.00">list_interface.h</text>
</a>
</g>
</g>
<!-- Node4&#45;&gt;Node7 -->
<g id="edge8" class="edge"><title>Node4&#45;&gt;Node7</title>
<path fill="none" stroke="midnightblue" d="M228.511,-112.368C233.698,-94.5366 245.696,-53.2953 252.685,-29.2717"/>
<polygon fill="midnightblue" stroke="midnightblue" points="256.068,-30.1711 255.501,-19.5914 249.347,-28.2157 256.068,-30.1711"/>
</g>
<!-- Node6 -->
<g id="node6" class="node"><title>Node6</title>
<g id="a_node6"><a xlink:href="../../d6/da4/iterator__interface_8h.html" target="_top" xlink:title="iterator_interface.h">
<polygon fill="white" stroke="black" points="102.5,-0.5 102.5,-19.5 199.5,-19.5 199.5,-0.5 102.5,-0.5"/>
<text text-anchor="middle" x="151" y="-7.5" font-family="Helvetica,sans-Serif" font-size="10.00">iterator_interface.h</text>
</a>
</g>
</g>
<!-- Node5&#45;&gt;Node6 -->
<g id="edge6" class="edge"><title>Node5&#45;&gt;Node6</title>
<path fill="none" stroke="midnightblue" d="M186.065,-56.083C180.071,-48.3768 171.248,-37.0333 163.952,-27.6531"/>
<polygon fill="midnightblue" stroke="midnightblue" points="166.709,-25.4958 157.806,-19.7511 161.183,-29.7934 166.709,-25.4958"/>
</g>
<!-- Node5&#45;&gt;Node7 -->
<g id="edge7" class="edge"><title>Node5&#45;&gt;Node7</title>
<path fill="none" stroke="midnightblue" d="M203.443,-56.324C213.146,-48.2631 227.815,-36.0765 239.5,-26.3695"/>
<polygon fill="midnightblue" stroke="midnightblue" points="241.911,-28.9163 247.367,-19.8339 237.438,-23.532 241.911,-28.9163"/>
</g>
</g>
</svg>
