<?xml version="1.0" encoding="UTF-8" standalone="no"?>
<!DOCTYPE svg PUBLIC "-//W3C//DTD SVG 1.1//EN"
 "http://www.w3.org/Graphics/SVG/1.1/DTD/svg11.dtd">
<!-- Generated by graphviz version 2.38.0 (20140413.2041)
 -->
<!-- Title: creational::builder::MazeBuilderInterface::BuildDoor Pages: 1 -->
<svg width="272pt" height="50pt"
 viewBox="0.00 0.00 272.00 50.00" xmlns="http://www.w3.org/2000/svg" xmlns:xlink="http://www.w3.org/1999/xlink">
<g id="graph0" class="graph" transform="scale(1 1) rotate(0) translate(4 46)">
<title>creational::builder::MazeBuilderInterface::BuildDoor</title>
<polygon fill="white" stroke="none" points="-4,4 -4,-46 268,-46 268,4 -4,4"/>
<!-- Node1 -->
<g id="node1" class="node"><title>Node1</title>
<polygon fill="#bfbfbf" stroke="black" points="0,-0.5 0,-41.5 113,-41.5 113,-0.5 0,-0.5"/>
<text text-anchor="start" x="8" y="-29.5" font-family="Helvetica,sans-Serif" font-size="10.00">creational::builder</text>
<text text-anchor="start" x="8" y="-18.5" font-family="Helvetica,sans-Serif" font-size="10.00">::MazeBuilderInterface</text>
<text text-anchor="middle" x="56.5" y="-7.5" font-family="Helvetica,sans-Serif" font-size="10.00">::BuildDoor</text>
</g>
<!-- Node2 -->
<g id="node2" class="node"><title>Node2</title>
<g id="a_node2"><a xlink:href="../../d7/d1d/classcreational_1_1_maze_game.html#a9dc2c814682ad96eff735b96790eb1e0" target="_top" xlink:title="creational::MazeGame\l::CreateMaze">
<polygon fill="white" stroke="black" points="149,-6 149,-36 264,-36 264,-6 149,-6"/>
<text text-anchor="start" x="157" y="-24" font-family="Helvetica,sans-Serif" font-size="10.00">creational::MazeGame</text>
<text text-anchor="middle" x="206.5" y="-13" font-family="Helvetica,sans-Serif" font-size="10.00">::CreateMaze</text>
</a>
</g>
</g>
<!-- Node1&#45;&gt;Node2 -->
<g id="edge1" class="edge"><title>Node1&#45;&gt;Node2</title>
<path fill="none" stroke="midnightblue" d="M123.264,-21C131.738,-21 140.358,-21 148.671,-21"/>
<polygon fill="midnightblue" stroke="midnightblue" points="123.031,-17.5001 113.031,-21 123.031,-24.5001 123.031,-17.5001"/>
</g>
</g>
</svg>
