<?xml version="1.0" encoding="UTF-8" standalone="no"?>
<!DOCTYPE svg PUBLIC "-//W3C//DTD SVG 1.1//EN"
 "http://www.w3.org/Graphics/SVG/1.1/DTD/svg11.dtd">
<!-- Generated by graphviz version 2.38.0 (20140413.2041)
 -->
<!-- Title: src/structural/src/facade/variable_node.h Pages: 1 -->
<svg width="262pt" height="117pt"
 viewBox="0.00 0.00 262.00 117.00" xmlns="http://www.w3.org/2000/svg" xmlns:xlink="http://www.w3.org/1999/xlink">
<g id="graph0" class="graph" transform="scale(1 1) rotate(0) translate(4 113)">
<title>src/structural/src/facade/variable_node.h</title>
<polygon fill="white" stroke="none" points="-4,4 -4,-113 258,-113 258,4 -4,4"/>
<!-- Node1 -->
<g id="node1" class="node"><title>Node1</title>
<polygon fill="#bfbfbf" stroke="black" points="65.5,-78.5 65.5,-108.5 183.5,-108.5 183.5,-78.5 65.5,-78.5"/>
<text text-anchor="start" x="73.5" y="-96.5" font-family="Helvetica,sans-Serif" font-size="10.00">src/structural/src</text>
<text text-anchor="middle" x="124.5" y="-85.5" font-family="Helvetica,sans-Serif" font-size="10.00">/facade/variable_node.h</text>
</g>
<!-- Node2 -->
<g id="node2" class="node"><title>Node2</title>
<g id="a_node2"><a xlink:href="../../db/d62/program__node__builder_8cc.html" target="_top" xlink:title="src/structural/src\l/facade/program_node\l_builder.cc">
<polygon fill="white" stroke="black" points="0,-0.5 0,-41.5 113,-41.5 113,-0.5 0,-0.5"/>
<text text-anchor="start" x="8" y="-29.5" font-family="Helvetica,sans-Serif" font-size="10.00">src/structural/src</text>
<text text-anchor="start" x="8" y="-18.5" font-family="Helvetica,sans-Serif" font-size="10.00">/facade/program_node</text>
<text text-anchor="middle" x="56.5" y="-7.5" font-family="Helvetica,sans-Serif" font-size="10.00">_builder.cc</text>
</a>
</g>
</g>
<!-- Node1&#45;&gt;Node2 -->
<g id="edge1" class="edge"><title>Node1&#45;&gt;Node2</title>
<path fill="none" stroke="midnightblue" d="M103.59,-70.8213C94.5936,-61.4941 84.154,-50.6707 75.3938,-41.5884"/>
<polygon fill="midnightblue" stroke="midnightblue" points="101.278,-73.4655 110.739,-78.2333 106.316,-68.6059 101.278,-73.4655"/>
</g>
<!-- Node3 -->
<g id="node3" class="node"><title>Node3</title>
<g id="a_node3"><a xlink:href="../../d4/dd8/variable__node_8cc.html" target="_top" xlink:title="src/structural/src\l/facade/variable_node.cc">
<polygon fill="white" stroke="black" points="131,-6 131,-36 254,-36 254,-6 131,-6"/>
<text text-anchor="start" x="139" y="-24" font-family="Helvetica,sans-Serif" font-size="10.00">src/structural/src</text>
<text text-anchor="middle" x="192.5" y="-13" font-family="Helvetica,sans-Serif" font-size="10.00">/facade/variable_node.cc</text>
</a>
</g>
</g>
<!-- Node1&#45;&gt;Node3 -->
<g id="edge2" class="edge"><title>Node1&#45;&gt;Node3</title>
<path fill="none" stroke="midnightblue" d="M145.369,-70.8641C156.22,-59.6142 169.179,-46.1786 178.76,-36.2455"/>
<polygon fill="midnightblue" stroke="midnightblue" points="142.684,-68.6059 138.261,-78.2333 147.722,-73.4655 142.684,-68.6059"/>
</g>
</g>
</svg>
