<?xml version="1.0" encoding="UTF-8" standalone="no"?>
<!DOCTYPE svg PUBLIC "-//W3C//DTD SVG 1.1//EN"
 "http://www.w3.org/Graphics/SVG/1.1/DTD/svg11.dtd">
<!-- Generated by graphviz version 2.38.0 (20140413.2041)
 -->
<!-- Title: src/structural/src/facade/code_generator_interface.h Pages: 1 -->
<svg width="764pt" height="429pt"
 viewBox="0.00 0.00 764.00 429.00" xmlns="http://www.w3.org/2000/svg" xmlns:xlink="http://www.w3.org/1999/xlink">
<g id="graph0" class="graph" transform="scale(1 1) rotate(0) translate(4 425)">
<title>src/structural/src/facade/code_generator_interface.h</title>
<polygon fill="white" stroke="none" points="-4,4 -4,-425 760,-425 760,4 -4,4"/>
<!-- Node1 -->
<g id="node1" class="node"><title>Node1</title>
<polygon fill="#bfbfbf" stroke="black" points="243,-379.5 243,-420.5 361,-420.5 361,-379.5 243,-379.5"/>
<text text-anchor="start" x="251" y="-408.5" font-family="Helvetica,sans-Serif" font-size="10.00">src/structural/src</text>
<text text-anchor="start" x="251" y="-397.5" font-family="Helvetica,sans-Serif" font-size="10.00">/facade/code_generator</text>
<text text-anchor="middle" x="302" y="-386.5" font-family="Helvetica,sans-Serif" font-size="10.00">_interface.h</text>
</g>
<!-- Node2 -->
<g id="node2" class="node"><title>Node2</title>
<g id="a_node2"><a xlink:href="../../dc/d6c/program__node__interface_8h.html" target="_top" xlink:title="src/structural/src\l/facade/program_node\l_interface.h">
<polygon fill="white" stroke="black" points="367.5,-301.5 367.5,-342.5 480.5,-342.5 480.5,-301.5 367.5,-301.5"/>
<text text-anchor="start" x="375.5" y="-330.5" font-family="Helvetica,sans-Serif" font-size="10.00">src/structural/src</text>
<text text-anchor="start" x="375.5" y="-319.5" font-family="Helvetica,sans-Serif" font-size="10.00">/facade/program_node</text>
<text text-anchor="middle" x="424" y="-308.5" font-family="Helvetica,sans-Serif" font-size="10.00">_interface.h</text>
</a>
</g>
</g>
<!-- Node1&#45;&gt;Node2 -->
<g id="edge1" class="edge"><title>Node1&#45;&gt;Node2</title>
<path fill="none" stroke="midnightblue" d="M342.261,-373.919C358.663,-363.702 377.335,-352.07 392.688,-342.506"/>
<polygon fill="midnightblue" stroke="midnightblue" points="340.055,-371.17 333.418,-379.428 343.756,-377.111 340.055,-371.17"/>
</g>
<!-- Node14 -->
<g id="node14" class="node"><title>Node14</title>
<g id="a_node14"><a xlink:href="../../da/d63/risc__code__generator_8h.html" target="_top" xlink:title="src/structural/src\l/facade/risc_code_generator.h">
<polygon fill="white" stroke="black" points="106.5,-307 106.5,-337 253.5,-337 253.5,-307 106.5,-307"/>
<text text-anchor="start" x="114.5" y="-325" font-family="Helvetica,sans-Serif" font-size="10.00">src/structural/src</text>
<text text-anchor="middle" x="180" y="-314" font-family="Helvetica,sans-Serif" font-size="10.00">/facade/risc_code_generator.h</text>
</a>
</g>
</g>
<!-- Node1&#45;&gt;Node14 -->
<g id="edge15" class="edge"><title>Node1&#45;&gt;Node14</title>
<path fill="none" stroke="midnightblue" d="M261.845,-373.985C242.255,-361.782 219.405,-347.548 202.835,-337.225"/>
<polygon fill="midnightblue" stroke="midnightblue" points="260.244,-377.111 270.582,-379.428 263.945,-371.17 260.244,-377.111"/>
</g>
<!-- Node3 -->
<g id="node3" class="node"><title>Node3</title>
<g id="a_node3"><a xlink:href="../../da/dc8/program__node__builder__interface_8h.html" target="_top" xlink:title="src/structural/src\l/facade/program_node\l_builder_interface.h">
<polygon fill="white" stroke="black" points="506.5,-223.5 506.5,-264.5 619.5,-264.5 619.5,-223.5 506.5,-223.5"/>
<text text-anchor="start" x="514.5" y="-252.5" font-family="Helvetica,sans-Serif" font-size="10.00">src/structural/src</text>
<text text-anchor="start" x="514.5" y="-241.5" font-family="Helvetica,sans-Serif" font-size="10.00">/facade/program_node</text>
<text text-anchor="middle" x="563" y="-230.5" font-family="Helvetica,sans-Serif" font-size="10.00">_builder_interface.h</text>
</a>
</g>
</g>
<!-- Node2&#45;&gt;Node3 -->
<g id="edge2" class="edge"><title>Node2&#45;&gt;Node3</title>
<path fill="none" stroke="midnightblue" d="M468.578,-296.627C487.571,-286.242 509.427,-274.292 527.325,-264.506"/>
<polygon fill="midnightblue" stroke="midnightblue" points="466.891,-293.56 459.796,-301.428 470.249,-299.702 466.891,-293.56"/>
</g>
<!-- Node9 -->
<g id="node9" class="node"><title>Node9</title>
<g id="a_node9"><a xlink:href="../../d9/d18/expression__node_8h.html" target="_top" xlink:title="src/structural/src\l/facade/expression_node.h">
<polygon fill="white" stroke="black" points="208.5,-229 208.5,-259 341.5,-259 341.5,-229 208.5,-229"/>
<text text-anchor="start" x="216.5" y="-247" font-family="Helvetica,sans-Serif" font-size="10.00">src/structural/src</text>
<text text-anchor="middle" x="275" y="-236" font-family="Helvetica,sans-Serif" font-size="10.00">/facade/expression_node.h</text>
</a>
</g>
</g>
<!-- Node2&#45;&gt;Node9 -->
<g id="edge9" class="edge"><title>Node2&#45;&gt;Node9</title>
<path fill="none" stroke="midnightblue" d="M376.569,-296.807C352.294,-284.425 323.582,-269.78 302.889,-259.225"/>
<polygon fill="midnightblue" stroke="midnightblue" points="375.13,-300.002 385.629,-301.428 378.311,-293.766 375.13,-300.002"/>
</g>
<!-- Node11 -->
<g id="node11" class="node"><title>Node11</title>
<g id="a_node11"><a xlink:href="../../d3/da1/variable__node_8h.html" target="_top" xlink:title="src/structural/src\l/facade/variable_node.h">
<polygon fill="white" stroke="black" points="638,-229 638,-259 756,-259 756,-229 638,-229"/>
<text text-anchor="start" x="646" y="-247" font-family="Helvetica,sans-Serif" font-size="10.00">src/structural/src</text>
<text text-anchor="middle" x="697" y="-236" font-family="Helvetica,sans-Serif" font-size="10.00">/facade/variable_node.h</text>
</a>
</g>
</g>
<!-- Node2&#45;&gt;Node11 -->
<g id="edge11" class="edge"><title>Node2&#45;&gt;Node11</title>
<path fill="none" stroke="midnightblue" d="M490.655,-302.959C530.541,-292.1 582.218,-277.918 628,-265 634.722,-263.103 641.805,-261.079 648.769,-259.075"/>
<polygon fill="midnightblue" stroke="midnightblue" points="489.51,-299.644 480.779,-305.646 491.347,-306.398 489.51,-299.644"/>
</g>
<!-- Node13 -->
<g id="node13" class="node"><title>Node13</title>
<g id="a_node13"><a xlink:href="../../d3/d03/statement__node_8h.html" target="_top" xlink:title="src/structural/src\l/facade/statement_node.h">
<polygon fill="white" stroke="black" points="359.5,-229 359.5,-259 488.5,-259 488.5,-229 359.5,-229"/>
<text text-anchor="start" x="367.5" y="-247" font-family="Helvetica,sans-Serif" font-size="10.00">src/structural/src</text>
<text text-anchor="middle" x="424" y="-236" font-family="Helvetica,sans-Serif" font-size="10.00">/facade/statement_node.h</text>
</a>
</g>
</g>
<!-- Node2&#45;&gt;Node13 -->
<g id="edge14" class="edge"><title>Node2&#45;&gt;Node13</title>
<path fill="none" stroke="midnightblue" d="M424,-291.283C424,-280.254 424,-268.246 424,-259.225"/>
<polygon fill="midnightblue" stroke="midnightblue" points="420.5,-291.428 424,-301.428 427.5,-291.428 420.5,-291.428"/>
</g>
<!-- Node4 -->
<g id="node4" class="node"><title>Node4</title>
<g id="a_node4"><a xlink:href="../../d2/d57/program__node__builder_8h.html" target="_top" xlink:title="src/structural/src\l/facade/program_node\l_builder.h">
<polygon fill="white" stroke="black" points="459.5,-145.5 459.5,-186.5 572.5,-186.5 572.5,-145.5 459.5,-145.5"/>
<text text-anchor="start" x="467.5" y="-174.5" font-family="Helvetica,sans-Serif" font-size="10.00">src/structural/src</text>
<text text-anchor="start" x="467.5" y="-163.5" font-family="Helvetica,sans-Serif" font-size="10.00">/facade/program_node</text>
<text text-anchor="middle" x="516" y="-152.5" font-family="Helvetica,sans-Serif" font-size="10.00">_builder.h</text>
</a>
</g>
</g>
<!-- Node3&#45;&gt;Node4 -->
<g id="edge3" class="edge"><title>Node3&#45;&gt;Node4</title>
<path fill="none" stroke="midnightblue" d="M545.534,-214.757C539.719,-205.354 533.375,-195.096 528.063,-186.506"/>
<polygon fill="midnightblue" stroke="midnightblue" points="542.66,-216.764 550.896,-223.428 548.613,-213.082 542.66,-216.764"/>
</g>
<!-- Node5 -->
<g id="node5" class="node"><title>Node5</title>
<g id="a_node5"><a xlink:href="../../da/dc6/compiler_8cc.html" target="_top" xlink:title="src/structural/src\l/facade/compiler.cc">
<polygon fill="white" stroke="black" points="371.5,-0.5 371.5,-30.5 472.5,-30.5 472.5,-0.5 371.5,-0.5"/>
<text text-anchor="start" x="379.5" y="-18.5" font-family="Helvetica,sans-Serif" font-size="10.00">src/structural/src</text>
<text text-anchor="middle" x="422" y="-7.5" font-family="Helvetica,sans-Serif" font-size="10.00">/facade/compiler.cc</text>
</a>
</g>
</g>
<!-- Node4&#45;&gt;Node5 -->
<g id="edge4" class="edge"><title>Node4&#45;&gt;Node5</title>
<path fill="none" stroke="midnightblue" d="M486.186,-138.021C477.659,-129.32 468.834,-119.258 462,-109 445.024,-83.5186 432.565,-49.6497 426.381,-30.7681"/>
<polygon fill="midnightblue" stroke="midnightblue" points="483.971,-140.752 493.545,-145.288 488.889,-135.771 483.971,-140.752"/>
</g>
<!-- Node6 -->
<g id="node6" class="node"><title>Node6</title>
<g id="a_node6"><a xlink:href="../../d5/d36/parser_8h.html" target="_top" xlink:title="src/structural/src\l/facade/parser.h">
<polygon fill="white" stroke="black" points="471,-73 471,-103 561,-103 561,-73 471,-73"/>
<text text-anchor="start" x="479" y="-91" font-family="Helvetica,sans-Serif" font-size="10.00">src/structural/src</text>
<text text-anchor="middle" x="516" y="-80" font-family="Helvetica,sans-Serif" font-size="10.00">/facade/parser.h</text>
</a>
</g>
</g>
<!-- Node4&#45;&gt;Node6 -->
<g id="edge5" class="edge"><title>Node4&#45;&gt;Node6</title>
<path fill="none" stroke="midnightblue" d="M516,-135.283C516,-124.254 516,-112.246 516,-103.225"/>
<polygon fill="midnightblue" stroke="midnightblue" points="512.5,-135.428 516,-145.428 519.5,-135.428 512.5,-135.428"/>
</g>
<!-- Node8 -->
<g id="node8" class="node"><title>Node8</title>
<g id="a_node8"><a xlink:href="../../db/d62/program__node__builder_8cc.html" target="_top" xlink:title="src/structural/src\l/facade/program_node\l_builder.cc">
<polygon fill="white" stroke="black" points="632.5,-67.5 632.5,-108.5 745.5,-108.5 745.5,-67.5 632.5,-67.5"/>
<text text-anchor="start" x="640.5" y="-96.5" font-family="Helvetica,sans-Serif" font-size="10.00">src/structural/src</text>
<text text-anchor="start" x="640.5" y="-85.5" font-family="Helvetica,sans-Serif" font-size="10.00">/facade/program_node</text>
<text text-anchor="middle" x="689" y="-74.5" font-family="Helvetica,sans-Serif" font-size="10.00">_builder.cc</text>
</a>
</g>
</g>
<!-- Node4&#45;&gt;Node8 -->
<g id="edge8" class="edge"><title>Node4&#45;&gt;Node8</title>
<path fill="none" stroke="midnightblue" d="M569.883,-141.329C593.888,-130.783 621.819,-118.513 644.599,-108.506"/>
<polygon fill="midnightblue" stroke="midnightblue" points="568.3,-138.202 560.552,-145.428 571.115,-144.61 568.3,-138.202"/>
</g>
<!-- Node6&#45;&gt;Node5 -->
<g id="edge6" class="edge"><title>Node6&#45;&gt;Node5</title>
<path fill="none" stroke="midnightblue" d="M488.813,-66.6101C473.372,-55.0289 454.438,-40.8282 440.673,-30.5049"/>
<polygon fill="midnightblue" stroke="midnightblue" points="486.878,-69.5332 496.978,-72.7333 491.078,-63.9332 486.878,-69.5332"/>
</g>
<!-- Node7 -->
<g id="node7" class="node"><title>Node7</title>
<g id="a_node7"><a xlink:href="../../dc/dc9/parser_8cc.html" target="_top" xlink:title="src/structural/src\l/facade/parser.cc">
<polygon fill="white" stroke="black" points="491,-0.5 491,-30.5 583,-30.5 583,-0.5 491,-0.5"/>
<text text-anchor="start" x="499" y="-18.5" font-family="Helvetica,sans-Serif" font-size="10.00">src/structural/src</text>
<text text-anchor="middle" x="537" y="-7.5" font-family="Helvetica,sans-Serif" font-size="10.00">/facade/parser.cc</text>
</a>
</g>
</g>
<!-- Node6&#45;&gt;Node7 -->
<g id="edge7" class="edge"><title>Node6&#45;&gt;Node7</title>
<path fill="none" stroke="midnightblue" d="M523.13,-63.0645C526.33,-52.3215 529.997,-40.01 532.757,-30.7455"/>
<polygon fill="midnightblue" stroke="midnightblue" points="519.75,-62.1502 520.25,-72.7333 526.459,-64.1486 519.75,-62.1502"/>
</g>
<!-- Node10 -->
<g id="node10" class="node"><title>Node10</title>
<g id="a_node10"><a xlink:href="../../d7/dd1/expression__node_8cc.html" target="_top" xlink:title="src/structural/src\l/facade/expression_node.cc">
<polygon fill="white" stroke="black" points="208,-151 208,-181 346,-181 346,-151 208,-151"/>
<text text-anchor="start" x="216" y="-169" font-family="Helvetica,sans-Serif" font-size="10.00">src/structural/src</text>
<text text-anchor="middle" x="277" y="-158" font-family="Helvetica,sans-Serif" font-size="10.00">/facade/expression_node.cc</text>
</a>
</g>
</g>
<!-- Node9&#45;&gt;Node10 -->
<g id="edge10" class="edge"><title>Node9&#45;&gt;Node10</title>
<path fill="none" stroke="midnightblue" d="M275.642,-218.59C275.967,-206.257 276.349,-191.724 276.626,-181.231"/>
<polygon fill="midnightblue" stroke="midnightblue" points="272.141,-218.616 275.376,-228.705 279.138,-218.801 272.141,-218.616"/>
</g>
<!-- Node11&#45;&gt;Node8 -->
<g id="edge12" class="edge"><title>Node11&#45;&gt;Node8</title>
<path fill="none" stroke="midnightblue" d="M710.519,-219.825C715.486,-210.037 720.504,-198.304 723,-187 727.025,-168.772 728.03,-162.976 723,-145 719.353,-131.966 711.75,-118.949 704.657,-108.75"/>
<polygon fill="midnightblue" stroke="midnightblue" points="707.306,-218.411 705.664,-228.877 713.475,-221.719 707.306,-218.411"/>
</g>
<!-- Node12 -->
<g id="node12" class="node"><title>Node12</title>
<g id="a_node12"><a xlink:href="../../d4/dd8/variable__node_8cc.html" target="_top" xlink:title="src/structural/src\l/facade/variable_node.cc">
<polygon fill="white" stroke="black" points="590.5,-151 590.5,-181 713.5,-181 713.5,-151 590.5,-151"/>
<text text-anchor="start" x="598.5" y="-169" font-family="Helvetica,sans-Serif" font-size="10.00">src/structural/src</text>
<text text-anchor="middle" x="652" y="-158" font-family="Helvetica,sans-Serif" font-size="10.00">/facade/variable_node.cc</text>
</a>
</g>
</g>
<!-- Node11&#45;&gt;Node12 -->
<g id="edge13" class="edge"><title>Node11&#45;&gt;Node12</title>
<path fill="none" stroke="midnightblue" d="M683.425,-220.074C675.943,-207.437 666.89,-192.148 660.426,-181.231"/>
<polygon fill="midnightblue" stroke="midnightblue" points="680.429,-221.883 688.536,-228.705 686.453,-218.317 680.429,-221.883"/>
</g>
<!-- Node14&#45;&gt;Node5 -->
<g id="edge16" class="edge"><title>Node14&#45;&gt;Node5</title>
<path fill="none" stroke="midnightblue" d="M176.132,-296.681C171.709,-260.474 168.576,-191.662 199,-145 239.023,-83.6153 319.286,-48.1433 371.806,-30.5756"/>
<polygon fill="midnightblue" stroke="midnightblue" points="172.694,-297.374 177.51,-306.81 179.63,-296.43 172.694,-297.374"/>
</g>
<!-- Node15 -->
<g id="node15" class="node"><title>Node15</title>
<g id="a_node15"><a xlink:href="../../d1/d9d/risc__code__generator_8cc.html" target="_top" xlink:title="src/structural/src\l/facade/risc_code_generator.cc">
<polygon fill="white" stroke="black" points="0,-229 0,-259 152,-259 152,-229 0,-229"/>
<text text-anchor="start" x="8" y="-247" font-family="Helvetica,sans-Serif" font-size="10.00">src/structural/src</text>
<text text-anchor="middle" x="76" y="-236" font-family="Helvetica,sans-Serif" font-size="10.00">/facade/risc_code_generator.cc</text>
</a>
</g>
</g>
<!-- Node14&#45;&gt;Node15 -->
<g id="edge17" class="edge"><title>Node14&#45;&gt;Node15</title>
<path fill="none" stroke="midnightblue" d="M152.099,-300.611C134.207,-287.536 111.428,-270.89 95.4739,-259.231"/>
<polygon fill="midnightblue" stroke="midnightblue" points="150.299,-303.631 160.438,-306.705 154.43,-297.979 150.299,-303.631"/>
</g>
</g>
</svg>
