<?xml version="1.0" encoding="UTF-8" standalone="no"?>
<!DOCTYPE svg PUBLIC "-//W3C//DTD SVG 1.1//EN"
 "http://www.w3.org/Graphics/SVG/1.1/DTD/svg11.dtd">
<!-- Generated by graphviz version 2.38.0 (20140413.2041)
 -->
<!-- Title: src/structural/src/flyweight/btree.cc Pages: 1 -->
<svg width="213pt" height="274pt"
 viewBox="0.00 0.00 212.50 274.00" xmlns="http://www.w3.org/2000/svg" xmlns:xlink="http://www.w3.org/1999/xlink">
<g id="graph0" class="graph" transform="scale(1 1) rotate(0) translate(4 270)">
<title>src/structural/src/flyweight/btree.cc</title>
<polygon fill="white" stroke="none" points="-4,4 -4,-270 208.5,-270 208.5,4 -4,4"/>
<!-- Node1 -->
<g id="node1" class="node"><title>Node1</title>
<polygon fill="#bfbfbf" stroke="black" points="15,-235.5 15,-265.5 110,-265.5 110,-235.5 15,-235.5"/>
<text text-anchor="start" x="23" y="-253.5" font-family="Helvetica,sans-Serif" font-size="10.00">src/structural/src</text>
<text text-anchor="middle" x="62.5" y="-242.5" font-family="Helvetica,sans-Serif" font-size="10.00">/flyweight/btree.cc</text>
</g>
<!-- Node2 -->
<g id="node2" class="node"><title>Node2</title>
<g id="a_node2"><a xlink:href="../../d9/d13/btree_8h.html" target="_top" xlink:title="btree.h">
<polygon fill="white" stroke="black" points="39,-179.5 39,-198.5 86,-198.5 86,-179.5 39,-179.5"/>
<text text-anchor="middle" x="62.5" y="-186.5" font-family="Helvetica,sans-Serif" font-size="10.00">btree.h</text>
</a>
</g>
</g>
<!-- Node1&#45;&gt;Node2 -->
<g id="edge1" class="edge"><title>Node1&#45;&gt;Node2</title>
<path fill="none" stroke="midnightblue" d="M62.5,-235.399C62.5,-227.466 62.5,-217.458 62.5,-208.858"/>
<polygon fill="midnightblue" stroke="midnightblue" points="66.0001,-208.658 62.5,-198.658 59.0001,-208.658 66.0001,-208.658"/>
</g>
<!-- Node3 -->
<g id="node3" class="node"><title>Node3</title>
<g id="a_node3"><a xlink:href="../../d9/d67/font_8h.html" target="_top" xlink:title="font.h">
<polygon fill="white" stroke="black" points="0,-118 0,-137 41,-137 41,-118 0,-118"/>
<text text-anchor="middle" x="20.5" y="-125" font-family="Helvetica,sans-Serif" font-size="10.00">font.h</text>
</a>
</g>
</g>
<!-- Node2&#45;&gt;Node3 -->
<g id="edge2" class="edge"><title>Node2&#45;&gt;Node3</title>
<path fill="none" stroke="midnightblue" d="M56.4824,-179.475C50.2448,-170.638 40.3273,-156.589 32.4824,-145.475"/>
<polygon fill="midnightblue" stroke="midnightblue" points="35.1327,-143.16 26.5064,-137.009 29.4139,-147.197 35.1327,-143.16"/>
</g>
<!-- Node5 -->
<g id="node5" class="node"><title>Node5</title>
<g id="a_node5"><a xlink:href="../../da/d23/list_8h.html" target="_top" xlink:title="../../../operational\l/src/iterator/list.h">
<polygon fill="white" stroke="black" points="59,-112.5 59,-142.5 150,-142.5 150,-112.5 59,-112.5"/>
<text text-anchor="start" x="67" y="-130.5" font-family="Helvetica,sans-Serif" font-size="10.00">../../../operational</text>
<text text-anchor="middle" x="104.5" y="-119.5" font-family="Helvetica,sans-Serif" font-size="10.00">/src/iterator/list.h</text>
</a>
</g>
</g>
<!-- Node2&#45;&gt;Node5 -->
<g id="edge4" class="edge"><title>Node2&#45;&gt;Node5</title>
<path fill="none" stroke="midnightblue" d="M68.5176,-179.475C73.7806,-172.019 81.6633,-160.852 88.7105,-150.869"/>
<polygon fill="midnightblue" stroke="midnightblue" points="91.694,-152.711 94.6014,-142.523 85.9752,-148.674 91.694,-152.711"/>
</g>
<!-- Node4 -->
<g id="node4" class="node"><title>Node4</title>
<polygon fill="white" stroke="#bfbfbf" points="0,-56.5 0,-75.5 41,-75.5 41,-56.5 0,-56.5"/>
<text text-anchor="middle" x="20.5" y="-63.5" font-family="Helvetica,sans-Serif" font-size="10.00">string</text>
</g>
<!-- Node3&#45;&gt;Node4 -->
<g id="edge3" class="edge"><title>Node3&#45;&gt;Node4</title>
<path fill="none" stroke="midnightblue" d="M20.5,-117.975C20.5,-109.58 20.5,-96.4806 20.5,-85.6631"/>
<polygon fill="midnightblue" stroke="midnightblue" points="24.0001,-85.5091 20.5,-75.5091 17.0001,-85.5091 24.0001,-85.5091"/>
</g>
<!-- Node6 -->
<g id="node6" class="node"><title>Node6</title>
<g id="a_node6"><a xlink:href="../../d9/d71/list__iterator_8h.html" target="_top" xlink:title="list_iterator.h">
<polygon fill="white" stroke="black" points="63,-56.5 63,-75.5 136,-75.5 136,-56.5 63,-56.5"/>
<text text-anchor="middle" x="99.5" y="-63.5" font-family="Helvetica,sans-Serif" font-size="10.00">list_iterator.h</text>
</a>
</g>
</g>
<!-- Node5&#45;&gt;Node6 -->
<g id="edge5" class="edge"><title>Node5&#45;&gt;Node6</title>
<path fill="none" stroke="midnightblue" d="M103.315,-112.399C102.648,-104.466 101.807,-94.458 101.085,-85.8583"/>
<polygon fill="midnightblue" stroke="midnightblue" points="104.553,-85.3295 100.228,-75.6578 97.5773,-85.9158 104.553,-85.3295"/>
</g>
<!-- Node8 -->
<g id="node8" class="node"><title>Node8</title>
<g id="a_node8"><a xlink:href="../../dd/d8c/list__interface_8h.html" target="_top" xlink:title="list_interface.h">
<polygon fill="white" stroke="black" points="124.5,-0.5 124.5,-19.5 204.5,-19.5 204.5,-0.5 124.5,-0.5"/>
<text text-anchor="middle" x="164.5" y="-7.5" font-family="Helvetica,sans-Serif" font-size="10.00">list_interface.h</text>
</a>
</g>
</g>
<!-- Node5&#45;&gt;Node8 -->
<g id="edge8" class="edge"><title>Node5&#45;&gt;Node8</title>
<path fill="none" stroke="midnightblue" d="M117.96,-112.488C126.573,-102.873 137.419,-89.4624 144.5,-76 152.229,-61.3052 157.501,-43.1409 160.684,-29.753"/>
<polygon fill="midnightblue" stroke="midnightblue" points="164.141,-30.3304 162.874,-19.8116 157.305,-28.8244 164.141,-30.3304"/>
</g>
<!-- Node7 -->
<g id="node7" class="node"><title>Node7</title>
<g id="a_node7"><a xlink:href="../../d6/da4/iterator__interface_8h.html" target="_top" xlink:title="iterator_interface.h">
<polygon fill="white" stroke="black" points="9,-0.5 9,-19.5 106,-19.5 106,-0.5 9,-0.5"/>
<text text-anchor="middle" x="57.5" y="-7.5" font-family="Helvetica,sans-Serif" font-size="10.00">iterator_interface.h</text>
</a>
</g>
</g>
<!-- Node6&#45;&gt;Node7 -->
<g id="edge6" class="edge"><title>Node6&#45;&gt;Node7</title>
<path fill="none" stroke="midnightblue" d="M92.5646,-56.083C86.5708,-48.3768 77.7482,-37.0333 70.4524,-27.6531"/>
<polygon fill="midnightblue" stroke="midnightblue" points="73.2086,-25.4958 64.3064,-19.7511 67.6831,-29.7934 73.2086,-25.4958"/>
</g>
<!-- Node6&#45;&gt;Node8 -->
<g id="edge7" class="edge"><title>Node6&#45;&gt;Node8</title>
<path fill="none" stroke="midnightblue" d="M109.943,-56.324C119.646,-48.2631 134.315,-36.0765 146,-26.3695"/>
<polygon fill="midnightblue" stroke="midnightblue" points="148.411,-28.9163 153.867,-19.8339 143.938,-23.532 148.411,-28.9163"/>
</g>
</g>
</svg>
