<?xml version="1.0" encoding="UTF-8" standalone="no"?>
<!DOCTYPE svg PUBLIC "-//W3C//DTD SVG 1.1//EN"
 "http://www.w3.org/Graphics/SVG/1.1/DTD/svg11.dtd">
<!-- Generated by graphviz version 2.38.0 (20140413.2041)
 -->
<!-- Title: src/structural/src/flyweight/column.h Pages: 1 -->
<svg width="323pt" height="184pt"
 viewBox="0.00 0.00 322.50 184.00" xmlns="http://www.w3.org/2000/svg" xmlns:xlink="http://www.w3.org/1999/xlink">
<g id="graph0" class="graph" transform="scale(1 1) rotate(0) translate(4 180)">
<title>src/structural/src/flyweight/column.h</title>
<polygon fill="white" stroke="none" points="-4,4 -4,-180 318.5,-180 318.5,4 -4,4"/>
<!-- Node1 -->
<g id="node1" class="node"><title>Node1</title>
<polygon fill="#bfbfbf" stroke="black" points="69.5,-145.5 69.5,-175.5 169.5,-175.5 169.5,-145.5 69.5,-145.5"/>
<text text-anchor="start" x="77.5" y="-163.5" font-family="Helvetica,sans-Serif" font-size="10.00">src/structural/src</text>
<text text-anchor="middle" x="119.5" y="-152.5" font-family="Helvetica,sans-Serif" font-size="10.00">/flyweight/column.h</text>
</g>
<!-- Node2 -->
<g id="node2" class="node"><title>Node2</title>
<g id="a_node2"><a xlink:href="../../de/de6/column_8cc.html" target="_top" xlink:title="src/structural/src\l/flyweight/column.cc">
<polygon fill="white" stroke="black" points="0,-78.5 0,-108.5 105,-108.5 105,-78.5 0,-78.5"/>
<text text-anchor="start" x="8" y="-96.5" font-family="Helvetica,sans-Serif" font-size="10.00">src/structural/src</text>
<text text-anchor="middle" x="52.5" y="-85.5" font-family="Helvetica,sans-Serif" font-size="10.00">/flyweight/column.cc</text>
</a>
</g>
</g>
<!-- Node1&#45;&gt;Node2 -->
<g id="edge1" class="edge"><title>Node1&#45;&gt;Node2</title>
<path fill="none" stroke="midnightblue" d="M97.6595,-138.311C87.6092,-128.561 75.9593,-117.259 67.0096,-108.577"/>
<polygon fill="midnightblue" stroke="midnightblue" points="95.3475,-140.945 104.962,-145.396 100.222,-135.921 95.3475,-140.945"/>
</g>
<!-- Node3 -->
<g id="node3" class="node"><title>Node3</title>
<g id="a_node3"><a xlink:href="../../da/dec/glyph__factory_8h.html" target="_top" xlink:title="src/structural/src\l/flyweight/glyph_factory.h">
<polygon fill="white" stroke="black" points="123.5,-78.5 123.5,-108.5 249.5,-108.5 249.5,-78.5 123.5,-78.5"/>
<text text-anchor="start" x="131.5" y="-96.5" font-family="Helvetica,sans-Serif" font-size="10.00">src/structural/src</text>
<text text-anchor="middle" x="186.5" y="-85.5" font-family="Helvetica,sans-Serif" font-size="10.00">/flyweight/glyph_factory.h</text>
</a>
</g>
</g>
<!-- Node1&#45;&gt;Node3 -->
<g id="edge2" class="edge"><title>Node1&#45;&gt;Node3</title>
<path fill="none" stroke="midnightblue" d="M141.34,-138.311C151.391,-128.561 163.041,-117.259 171.99,-108.577"/>
<polygon fill="midnightblue" stroke="midnightblue" points="138.778,-135.921 134.038,-145.396 143.653,-140.945 138.778,-135.921"/>
</g>
<!-- Node4 -->
<g id="node4" class="node"><title>Node4</title>
<g id="a_node4"><a xlink:href="../../d6/dbd/glyph__factory_8cc.html" target="_top" xlink:title="src/structural/src\l/flyweight/glyph_factory.cc">
<polygon fill="white" stroke="black" points="51,-6 51,-36 182,-36 182,-6 51,-6"/>
<text text-anchor="start" x="59" y="-24" font-family="Helvetica,sans-Serif" font-size="10.00">src/structural/src</text>
<text text-anchor="middle" x="116.5" y="-13" font-family="Helvetica,sans-Serif" font-size="10.00">/flyweight/glyph_factory.cc</text>
</a>
</g>
</g>
<!-- Node3&#45;&gt;Node4 -->
<g id="edge3" class="edge"><title>Node3&#45;&gt;Node4</title>
<path fill="none" stroke="midnightblue" d="M165.018,-70.8641C153.847,-59.6142 140.507,-46.1786 130.644,-36.2455"/>
<polygon fill="midnightblue" stroke="midnightblue" points="162.805,-73.6031 172.334,-78.2333 167.772,-68.671 162.805,-73.6031"/>
</g>
<!-- Node5 -->
<g id="node5" class="node"><title>Node5</title>
<g id="a_node5"><a xlink:href="../../dd/d09/flyweight__test_8cc.html" target="_top" xlink:title="src/structural_tests\l/src/flyweight/flyweight\l_test.cc">
<polygon fill="white" stroke="black" points="200.5,-0.5 200.5,-41.5 314.5,-41.5 314.5,-0.5 200.5,-0.5"/>
<text text-anchor="start" x="208.5" y="-29.5" font-family="Helvetica,sans-Serif" font-size="10.00">src/structural_tests</text>
<text text-anchor="start" x="208.5" y="-18.5" font-family="Helvetica,sans-Serif" font-size="10.00">/src/flyweight/flyweight</text>
<text text-anchor="middle" x="257.5" y="-7.5" font-family="Helvetica,sans-Serif" font-size="10.00">_test.cc</text>
</a>
</g>
</g>
<!-- Node3&#45;&gt;Node5 -->
<g id="edge4" class="edge"><title>Node3&#45;&gt;Node5</title>
<path fill="none" stroke="midnightblue" d="M208.051,-71.1007C217.508,-61.7107 228.534,-50.7615 237.773,-41.5884"/>
<polygon fill="midnightblue" stroke="midnightblue" points="205.498,-68.7036 200.868,-78.2333 210.43,-73.6708 205.498,-68.7036"/>
</g>
</g>
</svg>
