<?xml version="1.0" encoding="UTF-8" standalone="no"?>
<!DOCTYPE svg PUBLIC "-//W3C//DTD SVG 1.1//EN"
 "http://www.w3.org/Graphics/SVG/1.1/DTD/svg11.dtd">
<!-- Generated by graphviz version 2.38.0 (20140413.2041)
 -->
<!-- Title: structural::decorator::StreamInterface::PutString Pages: 1 -->
<svg width="324pt" height="198pt"
 viewBox="0.00 0.00 324.00 198.00" xmlns="http://www.w3.org/2000/svg" xmlns:xlink="http://www.w3.org/1999/xlink">
<g id="graph0" class="graph" transform="scale(1 1) rotate(0) translate(4 194)">
<title>structural::decorator::StreamInterface::PutString</title>
<polygon fill="white" stroke="none" points="-4,4 -4,-194 320,-194 320,4 -4,4"/>
<!-- Node1 -->
<g id="node1" class="node"><title>Node1</title>
<polygon fill="#bfbfbf" stroke="black" points="0,-76.5 0,-106.5 137,-106.5 137,-76.5 0,-76.5"/>
<text text-anchor="start" x="8" y="-94.5" font-family="Helvetica,sans-Serif" font-size="10.00">structural::decorator</text>
<text text-anchor="middle" x="68.5" y="-83.5" font-family="Helvetica,sans-Serif" font-size="10.00">::StreamInterface::PutString</text>
</g>
<!-- Node2 -->
<g id="node2" class="node"><title>Node2</title>
<g id="a_node2"><a xlink:href="../../da/dfb/classstructural_1_1decorator_1_1_a_s_c_i_i7_stream.html#a56d3a22ad8d77bbe4202f12f2bdad546" target="_top" xlink:title="structural::decorator\l::ASCII7Stream::PutString">
<polygon fill="white" stroke="black" points="179,-159.5 179,-189.5 310,-189.5 310,-159.5 179,-159.5"/>
<text text-anchor="start" x="187" y="-177.5" font-family="Helvetica,sans-Serif" font-size="10.00">structural::decorator</text>
<text text-anchor="middle" x="244.5" y="-166.5" font-family="Helvetica,sans-Serif" font-size="10.00">::ASCII7Stream::PutString</text>
</a>
</g>
</g>
<!-- Node1&#45;&gt;Node2 -->
<g id="edge1" class="edge"><title>Node1&#45;&gt;Node2</title>
<path fill="none" stroke="midnightblue" d="M102.278,-111.761C122.273,-123.639 148.599,-138.434 173,-149.5 180.806,-153.04 189.273,-156.416 197.541,-159.478"/>
<polygon fill="midnightblue" stroke="midnightblue" points="103.942,-108.678 93.5669,-106.533 100.34,-114.68 103.942,-108.678"/>
</g>
<!-- Node3 -->
<g id="node3" class="node"><title>Node3</title>
<g id="a_node3"><a xlink:href="../../d6/d17/classstructural_1_1decorator_1_1_compressing_stream.html#a28cfd3ea24bdee5071203b171cd3696c" target="_top" xlink:title="structural::decorator\l::CompressingStream::\lPutString">
<polygon fill="white" stroke="black" points="186,-99 186,-140 303,-140 303,-99 186,-99"/>
<text text-anchor="start" x="194" y="-128" font-family="Helvetica,sans-Serif" font-size="10.00">structural::decorator</text>
<text text-anchor="start" x="194" y="-117" font-family="Helvetica,sans-Serif" font-size="10.00">::CompressingStream::</text>
<text text-anchor="middle" x="244.5" y="-106" font-family="Helvetica,sans-Serif" font-size="10.00">PutString</text>
</a>
</g>
</g>
<!-- Node1&#45;&gt;Node3 -->
<g id="edge2" class="edge"><title>Node1&#45;&gt;Node3</title>
<path fill="none" stroke="midnightblue" d="M147.516,-104.054C160.389,-106.126 173.527,-108.24 185.787,-110.213"/>
<polygon fill="midnightblue" stroke="midnightblue" points="147.7,-100.539 137.271,-102.406 146.588,-107.45 147.7,-100.539"/>
</g>
<!-- Node4 -->
<g id="node4" class="node"><title>Node4</title>
<g id="a_node4"><a xlink:href="../../d6/de5/classstructural_1_1decorator_1_1_stream_decorator.html#af7cd1762307fe0fe11cac64666c1b0df" target="_top" xlink:title="structural::decorator\l::StreamDecorator::PutString">
<polygon fill="white" stroke="black" points="173,-49.5 173,-79.5 316,-79.5 316,-49.5 173,-49.5"/>
<text text-anchor="start" x="181" y="-67.5" font-family="Helvetica,sans-Serif" font-size="10.00">structural::decorator</text>
<text text-anchor="middle" x="244.5" y="-56.5" font-family="Helvetica,sans-Serif" font-size="10.00">::StreamDecorator::PutString</text>
</a>
</g>
</g>
<!-- Node1&#45;&gt;Node4 -->
<g id="edge3" class="edge"><title>Node1&#45;&gt;Node4</title>
<path fill="none" stroke="midnightblue" d="M147.189,-79.4449C155.701,-78.124 164.333,-76.7845 172.755,-75.4777"/>
<polygon fill="midnightblue" stroke="midnightblue" points="146.616,-75.9917 137.271,-80.9838 147.69,-82.9089 146.616,-75.9917"/>
</g>
<!-- Node5 -->
<g id="node5" class="node"><title>Node5</title>
<g id="a_node5"><a xlink:href="../../d5/dab/namespacestructuraltests.html#a3c9e335e527ae231d9f15f0459c9dc2c" target="_top" xlink:title="structuraltests::TEST\l_CLASS">
<polygon fill="white" stroke="black" points="190,-0.5 190,-30.5 299,-30.5 299,-0.5 190,-0.5"/>
<text text-anchor="start" x="198" y="-18.5" font-family="Helvetica,sans-Serif" font-size="10.00">structuraltests::TEST</text>
<text text-anchor="middle" x="244.5" y="-7.5" font-family="Helvetica,sans-Serif" font-size="10.00">_CLASS</text>
</a>
</g>
</g>
<!-- Node1&#45;&gt;Node5 -->
<g id="edge4" class="edge"><title>Node1&#45;&gt;Node5</title>
<path fill="none" stroke="midnightblue" d="M107.192,-71.6024C126.601,-61.6971 150.795,-49.8698 173,-40.5 181.136,-37.0668 189.924,-33.6936 198.444,-30.5907"/>
<polygon fill="midnightblue" stroke="midnightblue" points="105.369,-68.6042 98.0785,-76.2914 108.572,-74.8287 105.369,-68.6042"/>
</g>
</g>
</svg>
