<?xml version="1.0" encoding="UTF-8" standalone="no"?>
<!DOCTYPE svg PUBLIC "-//W3C//DTD SVG 1.1//EN"
 "http://www.w3.org/Graphics/SVG/1.1/DTD/svg11.dtd">
<!-- Generated by graphviz version 2.38.0 (20140413.2041)
 -->
<!-- Title: structural::decorator::StreamInterface::PutInt Pages: 1 -->
<svg width="294pt" height="198pt"
 viewBox="0.00 0.00 294.00 198.00" xmlns="http://www.w3.org/2000/svg" xmlns:xlink="http://www.w3.org/1999/xlink">
<g id="graph0" class="graph" transform="scale(1 1) rotate(0) translate(4 194)">
<title>structural::decorator::StreamInterface::PutInt</title>
<polygon fill="white" stroke="none" points="-4,4 -4,-194 290,-194 290,4 -4,4"/>
<!-- Node1 -->
<g id="node1" class="node"><title>Node1</title>
<polygon fill="#bfbfbf" stroke="black" points="0,-76.5 0,-106.5 122,-106.5 122,-76.5 0,-76.5"/>
<text text-anchor="start" x="8" y="-94.5" font-family="Helvetica,sans-Serif" font-size="10.00">structural::decorator</text>
<text text-anchor="middle" x="61" y="-83.5" font-family="Helvetica,sans-Serif" font-size="10.00">::StreamInterface::PutInt</text>
</g>
<!-- Node2 -->
<g id="node2" class="node"><title>Node2</title>
<g id="a_node2"><a xlink:href="../../da/dfb/classstructural_1_1decorator_1_1_a_s_c_i_i7_stream.html#a6f3a91b7c2efb645f2fafb3bc4b663ed" target="_top" xlink:title="structural::decorator\l::ASCII7Stream::PutInt">
<polygon fill="white" stroke="black" points="164,-159.5 164,-189.5 280,-189.5 280,-159.5 164,-159.5"/>
<text text-anchor="start" x="172" y="-177.5" font-family="Helvetica,sans-Serif" font-size="10.00">structural::decorator</text>
<text text-anchor="middle" x="222" y="-166.5" font-family="Helvetica,sans-Serif" font-size="10.00">::ASCII7Stream::PutInt</text>
</a>
</g>
</g>
<!-- Node1&#45;&gt;Node2 -->
<g id="edge1" class="edge"><title>Node1&#45;&gt;Node2</title>
<path fill="none" stroke="midnightblue" d="M93.2346,-112.178C111.656,-123.91 135.665,-138.417 158,-149.5 165.062,-153.004 172.743,-156.387 180.235,-159.471"/>
<polygon fill="midnightblue" stroke="midnightblue" points="94.9758,-109.136 84.6724,-106.668 91.1879,-115.023 94.9758,-109.136"/>
</g>
<!-- Node3 -->
<g id="node3" class="node"><title>Node3</title>
<g id="a_node3"><a xlink:href="../../d6/d17/classstructural_1_1decorator_1_1_compressing_stream.html#ac6cd7d537a8e0cc65b2262483d2366e1" target="_top" xlink:title="structural::decorator\l::CompressingStream::\lPutInt">
<polygon fill="white" stroke="black" points="163.5,-99 163.5,-140 280.5,-140 280.5,-99 163.5,-99"/>
<text text-anchor="start" x="171.5" y="-128" font-family="Helvetica,sans-Serif" font-size="10.00">structural::decorator</text>
<text text-anchor="start" x="171.5" y="-117" font-family="Helvetica,sans-Serif" font-size="10.00">::CompressingStream::</text>
<text text-anchor="middle" x="222" y="-106" font-family="Helvetica,sans-Serif" font-size="10.00">PutInt</text>
</a>
</g>
</g>
<!-- Node1&#45;&gt;Node3 -->
<g id="edge2" class="edge"><title>Node1&#45;&gt;Node3</title>
<path fill="none" stroke="midnightblue" d="M132.067,-103.839C142.548,-105.685 153.25,-107.569 163.432,-109.362"/>
<polygon fill="midnightblue" stroke="midnightblue" points="132.567,-100.373 122.111,-102.086 131.353,-107.267 132.567,-100.373"/>
</g>
<!-- Node4 -->
<g id="node4" class="node"><title>Node4</title>
<g id="a_node4"><a xlink:href="../../d6/de5/classstructural_1_1decorator_1_1_stream_decorator.html#a548e9c14cb499376205c0492aff4189a" target="_top" xlink:title="structural::decorator\l::StreamDecorator::PutInt">
<polygon fill="white" stroke="black" points="158,-49.5 158,-79.5 286,-79.5 286,-49.5 158,-49.5"/>
<text text-anchor="start" x="166" y="-67.5" font-family="Helvetica,sans-Serif" font-size="10.00">structural::decorator</text>
<text text-anchor="middle" x="222" y="-56.5" font-family="Helvetica,sans-Serif" font-size="10.00">::StreamDecorator::PutInt</text>
</a>
</g>
</g>
<!-- Node1&#45;&gt;Node4 -->
<g id="edge3" class="edge"><title>Node1&#45;&gt;Node4</title>
<path fill="none" stroke="midnightblue" d="M132.097,-79.5968C140.682,-78.1389 149.416,-76.6558 157.89,-75.2169"/>
<polygon fill="midnightblue" stroke="midnightblue" points="131.384,-76.1676 122.111,-81.2925 132.556,-83.0688 131.384,-76.1676"/>
</g>
<!-- Node5 -->
<g id="node5" class="node"><title>Node5</title>
<g id="a_node5"><a xlink:href="../../d5/dab/namespacestructuraltests.html#a3c9e335e527ae231d9f15f0459c9dc2c" target="_top" xlink:title="structuraltests::TEST\l_CLASS">
<polygon fill="white" stroke="black" points="167.5,-0.5 167.5,-30.5 276.5,-30.5 276.5,-0.5 167.5,-0.5"/>
<text text-anchor="start" x="175.5" y="-18.5" font-family="Helvetica,sans-Serif" font-size="10.00">structuraltests::TEST</text>
<text text-anchor="middle" x="222" y="-7.5" font-family="Helvetica,sans-Serif" font-size="10.00">_CLASS</text>
</a>
</g>
</g>
<!-- Node1&#45;&gt;Node5 -->
<g id="edge4" class="edge"><title>Node1&#45;&gt;Node5</title>
<path fill="none" stroke="midnightblue" d="M97.441,-71.4663C115.356,-61.6501 137.577,-49.9418 158,-40.5 165.37,-37.0928 173.344,-33.7061 181.06,-30.5764"/>
<polygon fill="midnightblue" stroke="midnightblue" points="95.5594,-68.5071 88.4973,-76.405 98.9432,-74.6349 95.5594,-68.5071"/>
</g>
</g>
</svg>
