<?xml version="1.0" encoding="UTF-8" standalone="no"?>
<!DOCTYPE svg PUBLIC "-//W3C//DTD SVG 1.1//EN"
 "http://www.w3.org/Graphics/SVG/1.1/DTD/svg11.dtd">
<!-- Generated by graphviz version 2.38.0 (20140413.2041)
 -->
<!-- Title: src/structural/src/composite/cabinet.h Pages: 1 -->
<svg width="268pt" height="117pt"
 viewBox="0.00 0.00 268.00 117.00" xmlns="http://www.w3.org/2000/svg" xmlns:xlink="http://www.w3.org/1999/xlink">
<g id="graph0" class="graph" transform="scale(1 1) rotate(0) translate(4 113)">
<title>src/structural/src/composite/cabinet.h</title>
<polygon fill="white" stroke="none" points="-4,4 -4,-113 264,-113 264,4 -4,4"/>
<!-- Node1 -->
<g id="node1" class="node"><title>Node1</title>
<polygon fill="#bfbfbf" stroke="black" points="72,-78.5 72,-108.5 179,-108.5 179,-78.5 72,-78.5"/>
<text text-anchor="start" x="80" y="-96.5" font-family="Helvetica,sans-Serif" font-size="10.00">src/structural/src</text>
<text text-anchor="middle" x="125.5" y="-85.5" font-family="Helvetica,sans-Serif" font-size="10.00">/composite/cabinet.h</text>
</g>
<!-- Node2 -->
<g id="node2" class="node"><title>Node2</title>
<g id="a_node2"><a xlink:href="../../da/dfc/cabinet_8cc.html" target="_top" xlink:title="src/structural/src\l/composite/cabinet.cc">
<polygon fill="white" stroke="black" points="0,-6 0,-36 113,-36 113,-6 0,-6"/>
<text text-anchor="start" x="8" y="-24" font-family="Helvetica,sans-Serif" font-size="10.00">src/structural/src</text>
<text text-anchor="middle" x="56.5" y="-13" font-family="Helvetica,sans-Serif" font-size="10.00">/composite/cabinet.cc</text>
</a>
</g>
</g>
<!-- Node1&#45;&gt;Node2 -->
<g id="edge1" class="edge"><title>Node1&#45;&gt;Node2</title>
<path fill="none" stroke="midnightblue" d="M104.324,-70.8641C93.3139,-59.6142 80.1641,-46.1786 70.4424,-36.2455"/>
<polygon fill="midnightblue" stroke="midnightblue" points="102.041,-73.5347 111.537,-78.2333 107.044,-68.6384 102.041,-73.5347"/>
</g>
<!-- Node3 -->
<g id="node3" class="node"><title>Node3</title>
<g id="a_node3"><a xlink:href="../../d3/dcb/composite__test_8cc.html" target="_top" xlink:title="src/structural_tests\l/src/composite/composite\l_test.cc">
<polygon fill="white" stroke="black" points="131,-0.5 131,-41.5 260,-41.5 260,-0.5 131,-0.5"/>
<text text-anchor="start" x="139" y="-29.5" font-family="Helvetica,sans-Serif" font-size="10.00">src/structural_tests</text>
<text text-anchor="start" x="139" y="-18.5" font-family="Helvetica,sans-Serif" font-size="10.00">/src/composite/composite</text>
<text text-anchor="middle" x="195.5" y="-7.5" font-family="Helvetica,sans-Serif" font-size="10.00">_test.cc</text>
</a>
</g>
</g>
<!-- Node1&#45;&gt;Node3 -->
<g id="edge2" class="edge"><title>Node1&#45;&gt;Node3</title>
<path fill="none" stroke="midnightblue" d="M146.748,-71.1007C156.071,-61.7107 166.942,-50.7615 176.05,-41.5884"/>
<polygon fill="midnightblue" stroke="midnightblue" points="144.228,-68.671 139.666,-78.2333 149.195,-73.6031 144.228,-68.671"/>
</g>
</g>
</svg>
