<?xml version="1.0" encoding="UTF-8" standalone="no"?>
<!DOCTYPE svg PUBLIC "-//W3C//DTD SVG 1.1//EN"
 "http://www.w3.org/Graphics/SVG/1.1/DTD/svg11.dtd">
<!-- Generated by graphviz version 2.38.0 (20140413.2041)
 -->
<!-- Title: src/creational/src/abstractfactory/bombed_maze_factory.cc Pages: 1 -->
<svg width="411pt" height="408pt"
 viewBox="0.00 0.00 411.00 408.00" xmlns="http://www.w3.org/2000/svg" xmlns:xlink="http://www.w3.org/1999/xlink">
<g id="graph0" class="graph" transform="scale(1 1) rotate(0) translate(4 404)">
<title>src/creational/src/abstractfactory/bombed_maze_factory.cc</title>
<polygon fill="white" stroke="none" points="-4,4 -4,-404 407,-404 407,4 -4,4"/>
<!-- Node1 -->
<g id="node1" class="node"><title>Node1</title>
<polygon fill="#bfbfbf" stroke="black" points="171.5,-358.5 171.5,-399.5 293.5,-399.5 293.5,-358.5 171.5,-358.5"/>
<text text-anchor="start" x="179.5" y="-387.5" font-family="Helvetica,sans-Serif" font-size="10.00">src/creational/src</text>
<text text-anchor="start" x="179.5" y="-376.5" font-family="Helvetica,sans-Serif" font-size="10.00">/abstractfactory/bombed</text>
<text text-anchor="middle" x="232.5" y="-365.5" font-family="Helvetica,sans-Serif" font-size="10.00">_maze_factory.cc</text>
</g>
<!-- Node2 -->
<g id="node2" class="node"><title>Node2</title>
<g id="a_node2"><a xlink:href="../../d5/dcd/bombed__maze__factory_8h.html" target="_top" xlink:title="bombed_maze_factory.h">
<polygon fill="white" stroke="black" points="171,-302.5 171,-321.5 294,-321.5 294,-302.5 171,-302.5"/>
<text text-anchor="middle" x="232.5" y="-309.5" font-family="Helvetica,sans-Serif" font-size="10.00">bombed_maze_factory.h</text>
</a>
</g>
</g>
<!-- Node1&#45;&gt;Node2 -->
<g id="edge1" class="edge"><title>Node1&#45;&gt;Node2</title>
<path fill="none" stroke="midnightblue" d="M232.5,-358.498C232.5,-350.065 232.5,-340.235 232.5,-331.874"/>
<polygon fill="midnightblue" stroke="midnightblue" points="236,-331.652 232.5,-321.652 229,-331.653 236,-331.652"/>
</g>
<!-- Node12 -->
<g id="node12" class="node"><title>Node12</title>
<g id="a_node12"><a xlink:href="../../dd/dee/bombed__wall_8h.html" target="_top" xlink:title="../mazeparts/bombed\l_wall.h">
<polygon fill="white" stroke="black" points="294,-235.5 294,-265.5 403,-265.5 403,-235.5 294,-235.5"/>
<text text-anchor="start" x="302" y="-253.5" font-family="Helvetica,sans-Serif" font-size="10.00">../mazeparts/bombed</text>
<text text-anchor="middle" x="348.5" y="-242.5" font-family="Helvetica,sans-Serif" font-size="10.00">_wall.h</text>
</a>
</g>
</g>
<!-- Node1&#45;&gt;Node12 -->
<g id="edge14" class="edge"><title>Node1&#45;&gt;Node12</title>
<path fill="none" stroke="midnightblue" d="M261.176,-358.324C274.588,-348.338 290.261,-335.482 302.5,-322 315.634,-307.531 327.597,-288.944 336.03,-274.487"/>
<polygon fill="midnightblue" stroke="midnightblue" points="339.143,-276.093 341.038,-265.669 333.056,-272.636 339.143,-276.093"/>
</g>
<!-- Node13 -->
<g id="node13" class="node"><title>Node13</title>
<g id="a_node13"><a xlink:href="../../d7/de2/room__with__a__bomb_8h.html" target="_top" xlink:title="../mazeparts/room_with\l_a_bomb.h">
<polygon fill="white" stroke="black" points="0,-168.5 0,-198.5 119,-198.5 119,-168.5 0,-168.5"/>
<text text-anchor="start" x="8" y="-186.5" font-family="Helvetica,sans-Serif" font-size="10.00">../mazeparts/room_with</text>
<text text-anchor="middle" x="59.5" y="-175.5" font-family="Helvetica,sans-Serif" font-size="10.00">_a_bomb.h</text>
</a>
</g>
</g>
<!-- Node1&#45;&gt;Node13 -->
<g id="edge16" class="edge"><title>Node1&#45;&gt;Node13</title>
<path fill="none" stroke="midnightblue" d="M204.097,-358.312C190.497,-348.228 174.404,-335.291 161.5,-322 125.817,-285.246 91.9494,-235.659 73.6257,-207.177"/>
<polygon fill="midnightblue" stroke="midnightblue" points="76.5617,-205.271 68.24,-198.714 70.6562,-209.03 76.5617,-205.271"/>
</g>
<!-- Node3 -->
<g id="node3" class="node"><title>Node3</title>
<g id="a_node3"><a xlink:href="../../d6/d3b/maze__factory_8h.html" target="_top" xlink:title="maze_factory.h">
<polygon fill="white" stroke="black" points="191,-241 191,-260 274,-260 274,-241 191,-241"/>
<text text-anchor="middle" x="232.5" y="-248" font-family="Helvetica,sans-Serif" font-size="10.00">maze_factory.h</text>
</a>
</g>
</g>
<!-- Node2&#45;&gt;Node3 -->
<g id="edge2" class="edge"><title>Node2&#45;&gt;Node3</title>
<path fill="none" stroke="midnightblue" d="M232.5,-302.475C232.5,-294.08 232.5,-280.981 232.5,-270.163"/>
<polygon fill="midnightblue" stroke="midnightblue" points="236,-270.009 232.5,-260.009 229,-270.009 236,-270.009"/>
</g>
<!-- Node4 -->
<g id="node4" class="node"><title>Node4</title>
<g id="a_node4"><a xlink:href="../../de/d6d/maze__factory__interface_8h.html" target="_top" xlink:title="maze_factory_interface.h">
<polygon fill="white" stroke="black" points="170,-174 170,-193 295,-193 295,-174 170,-174"/>
<text text-anchor="middle" x="232.5" y="-181" font-family="Helvetica,sans-Serif" font-size="10.00">maze_factory_interface.h</text>
</a>
</g>
</g>
<!-- Node3&#45;&gt;Node4 -->
<g id="edge3" class="edge"><title>Node3&#45;&gt;Node4</title>
<path fill="none" stroke="midnightblue" d="M232.5,-240.734C232.5,-231.183 232.5,-215.618 232.5,-203.283"/>
<polygon fill="midnightblue" stroke="midnightblue" points="236,-203.127 232.5,-193.127 229,-203.127 236,-203.127"/>
</g>
<!-- Node5 -->
<g id="node5" class="node"><title>Node5</title>
<g id="a_node5"><a xlink:href="../../dc/db8/maze_8h.html" target="_top" xlink:title="../mazeparts/maze.h">
<polygon fill="white" stroke="black" points="179,-112.5 179,-131.5 286,-131.5 286,-112.5 179,-112.5"/>
<text text-anchor="middle" x="232.5" y="-119.5" font-family="Helvetica,sans-Serif" font-size="10.00">../mazeparts/maze.h</text>
</a>
</g>
</g>
<!-- Node4&#45;&gt;Node5 -->
<g id="edge4" class="edge"><title>Node4&#45;&gt;Node5</title>
<path fill="none" stroke="midnightblue" d="M232.5,-173.975C232.5,-165.58 232.5,-152.481 232.5,-141.663"/>
<polygon fill="midnightblue" stroke="midnightblue" points="236,-141.509 232.5,-131.509 229,-141.509 236,-141.509"/>
</g>
<!-- Node10 -->
<g id="node10" class="node"><title>Node10</title>
<g id="a_node10"><a xlink:href="../../d1/d4f/wall_8h.html" target="_top" xlink:title="../mazeparts/wall.h">
<polygon fill="white" stroke="black" points="304,-112.5 304,-131.5 403,-131.5 403,-112.5 304,-112.5"/>
<text text-anchor="middle" x="353.5" y="-119.5" font-family="Helvetica,sans-Serif" font-size="10.00">../mazeparts/wall.h</text>
</a>
</g>
</g>
<!-- Node4&#45;&gt;Node10 -->
<g id="edge9" class="edge"><title>Node4&#45;&gt;Node10</title>
<path fill="none" stroke="midnightblue" d="M249.836,-173.975C270.053,-164.034 303.687,-147.495 327.142,-135.961"/>
<polygon fill="midnightblue" stroke="midnightblue" points="328.767,-139.063 336.196,-131.509 325.678,-132.781 328.767,-139.063"/>
</g>
<!-- Node11 -->
<g id="node11" class="node"><title>Node11</title>
<g id="a_node11"><a xlink:href="../../d2/d59/door_8h.html" target="_top" xlink:title="../mazeparts/door.h">
<polygon fill="white" stroke="black" points="60,-112.5 60,-131.5 161,-131.5 161,-112.5 60,-112.5"/>
<text text-anchor="middle" x="110.5" y="-119.5" font-family="Helvetica,sans-Serif" font-size="10.00">../mazeparts/door.h</text>
</a>
</g>
</g>
<!-- Node4&#45;&gt;Node11 -->
<g id="edge11" class="edge"><title>Node4&#45;&gt;Node11</title>
<path fill="none" stroke="midnightblue" d="M215.02,-173.975C194.637,-164.034 160.725,-147.495 137.075,-135.961"/>
<polygon fill="midnightblue" stroke="midnightblue" points="138.469,-132.747 127.947,-131.509 135.401,-139.038 138.469,-132.747"/>
</g>
<!-- Node6 -->
<g id="node6" class="node"><title>Node6</title>
<g id="a_node6"><a xlink:href="../../d9/dc0/room_8h.html" target="_top" xlink:title="room.h">
<polygon fill="white" stroke="black" points="87,-56.5 87,-75.5 134,-75.5 134,-56.5 87,-56.5"/>
<text text-anchor="middle" x="110.5" y="-63.5" font-family="Helvetica,sans-Serif" font-size="10.00">room.h</text>
</a>
</g>
</g>
<!-- Node5&#45;&gt;Node6 -->
<g id="edge5" class="edge"><title>Node5&#45;&gt;Node6</title>
<path fill="none" stroke="midnightblue" d="M213.169,-112.444C193.18,-103.596 161.757,-89.6875 138.936,-79.5865"/>
<polygon fill="midnightblue" stroke="midnightblue" points="140.302,-76.3635 129.741,-75.5164 137.468,-82.7645 140.302,-76.3635"/>
</g>
<!-- Node9 -->
<g id="node9" class="node"><title>Node9</title>
<polygon fill="white" stroke="#bfbfbf" points="215,-56.5 215,-75.5 250,-75.5 250,-56.5 215,-56.5"/>
<text text-anchor="middle" x="232.5" y="-63.5" font-family="Helvetica,sans-Serif" font-size="10.00">map</text>
</g>
<!-- Node5&#45;&gt;Node9 -->
<g id="edge8" class="edge"><title>Node5&#45;&gt;Node9</title>
<path fill="none" stroke="midnightblue" d="M232.5,-112.083C232.5,-105.006 232.5,-94.8611 232.5,-85.9865"/>
<polygon fill="midnightblue" stroke="midnightblue" points="236,-85.751 232.5,-75.7511 229,-85.7511 236,-85.751"/>
</g>
<!-- Node7 -->
<g id="node7" class="node"><title>Node7</title>
<g id="a_node7"><a xlink:href="../../db/d1a/map__site__interface_8h.html" target="_top" xlink:title="map_site_interface.h">
<polygon fill="white" stroke="black" points="141,-0.5 141,-19.5 248,-19.5 248,-0.5 141,-0.5"/>
<text text-anchor="middle" x="194.5" y="-7.5" font-family="Helvetica,sans-Serif" font-size="10.00">map_site_interface.h</text>
</a>
</g>
</g>
<!-- Node6&#45;&gt;Node7 -->
<g id="edge6" class="edge"><title>Node6&#45;&gt;Node7</title>
<path fill="none" stroke="midnightblue" d="M123.996,-56.324C137.1,-47.9002 157.212,-34.9709 172.607,-25.0741"/>
<polygon fill="midnightblue" stroke="midnightblue" points="174.518,-28.0063 181.037,-19.6545 170.733,-22.118 174.518,-28.0063"/>
</g>
<!-- Node8 -->
<g id="node8" class="node"><title>Node8</title>
<g id="a_node8"><a xlink:href="../../dd/d04/direction_8h.html" target="_top" xlink:title="direction.h">
<polygon fill="white" stroke="black" points="60.5,-0.5 60.5,-19.5 122.5,-19.5 122.5,-0.5 60.5,-0.5"/>
<text text-anchor="middle" x="91.5" y="-7.5" font-family="Helvetica,sans-Serif" font-size="10.00">direction.h</text>
</a>
</g>
</g>
<!-- Node6&#45;&gt;Node8 -->
<g id="edge7" class="edge"><title>Node6&#45;&gt;Node8</title>
<path fill="none" stroke="midnightblue" d="M107.363,-56.083C104.817,-48.8486 101.144,-38.4087 97.9729,-29.3968"/>
<polygon fill="midnightblue" stroke="midnightblue" points="101.2,-28.0225 94.5791,-19.7511 94.5966,-30.3459 101.2,-28.0225"/>
</g>
<!-- Node10&#45;&gt;Node7 -->
<g id="edge10" class="edge"><title>Node10&#45;&gt;Node7</title>
<path fill="none" stroke="midnightblue" d="M341.024,-112.368C313.855,-93.5728 249.092,-48.7684 215.507,-25.5334"/>
<polygon fill="midnightblue" stroke="midnightblue" points="217.134,-22.4025 206.919,-19.5914 213.151,-28.1592 217.134,-22.4025"/>
</g>
<!-- Node11&#45;&gt;Node6 -->
<g id="edge13" class="edge"><title>Node11&#45;&gt;Node6</title>
<path fill="none" stroke="midnightblue" d="M110.5,-112.083C110.5,-105.006 110.5,-94.8611 110.5,-85.9865"/>
<polygon fill="midnightblue" stroke="midnightblue" points="114,-85.751 110.5,-75.7511 107,-85.7511 114,-85.751"/>
</g>
<!-- Node11&#45;&gt;Node7 -->
<g id="edge12" class="edge"><title>Node11&#45;&gt;Node7</title>
<path fill="none" stroke="midnightblue" d="M117.091,-112.368C131.015,-94.135 163.629,-51.4257 181.766,-27.6752"/>
<polygon fill="midnightblue" stroke="midnightblue" points="184.652,-29.6633 187.939,-19.5914 179.088,-25.4149 184.652,-29.6633"/>
</g>
<!-- Node12&#45;&gt;Node10 -->
<g id="edge15" class="edge"><title>Node12&#45;&gt;Node10</title>
<path fill="none" stroke="midnightblue" d="M349.054,-235.479C349.954,-212.719 351.733,-167.702 352.747,-142.058"/>
<polygon fill="midnightblue" stroke="midnightblue" points="356.255,-141.919 353.153,-131.789 349.26,-141.642 356.255,-141.919"/>
</g>
<!-- Node13&#45;&gt;Node6 -->
<g id="edge17" class="edge"><title>Node13&#45;&gt;Node6</title>
<path fill="none" stroke="midnightblue" d="M53.2386,-168.47C47.6136,-153.652 41.5054,-129.989 50.5,-112 57.2284,-98.5432 70.1063,-88.0665 82.2117,-80.6212"/>
<polygon fill="midnightblue" stroke="midnightblue" points="84.2332,-83.4985 91.2036,-75.5195 80.7788,-77.4101 84.2332,-83.4985"/>
</g>
</g>
</svg>
