<?xml version="1.0" encoding="UTF-8" standalone="no"?>
<!DOCTYPE svg PUBLIC "-//W3C//DTD SVG 1.1//EN"
 "http://www.w3.org/Graphics/SVG/1.1/DTD/svg11.dtd">
<!-- Generated by graphviz version 2.38.0 (20140413.2041)
 -->
<!-- Title: src/creational/src/mazeparts/bombed_wall.h Pages: 1 -->
<svg width="844pt" height="117pt"
 viewBox="0.00 0.00 844.00 117.00" xmlns="http://www.w3.org/2000/svg" xmlns:xlink="http://www.w3.org/1999/xlink">
<g id="graph0" class="graph" transform="scale(1 1) rotate(0) translate(4 113)">
<title>src/creational/src/mazeparts/bombed_wall.h</title>
<polygon fill="white" stroke="none" points="-4,4 -4,-113 840,-113 840,4 -4,4"/>
<!-- Node1 -->
<g id="node1" class="node"><title>Node1</title>
<polygon fill="#bfbfbf" stroke="black" points="358.5,-78.5 358.5,-108.5 491.5,-108.5 491.5,-78.5 358.5,-78.5"/>
<text text-anchor="start" x="366.5" y="-96.5" font-family="Helvetica,sans-Serif" font-size="10.00">src/creational/src</text>
<text text-anchor="middle" x="425" y="-85.5" font-family="Helvetica,sans-Serif" font-size="10.00">/mazeparts/bombed_wall.h</text>
</g>
<!-- Node2 -->
<g id="node2" class="node"><title>Node2</title>
<g id="a_node2"><a xlink:href="../../d9/d3b/bombed__maze__factory_8cc.html" target="_top" xlink:title="src/creational/src\l/abstractfactory/bombed\l_maze_factory.cc">
<polygon fill="white" stroke="black" points="0,-0.5 0,-41.5 122,-41.5 122,-0.5 0,-0.5"/>
<text text-anchor="start" x="8" y="-29.5" font-family="Helvetica,sans-Serif" font-size="10.00">src/creational/src</text>
<text text-anchor="start" x="8" y="-18.5" font-family="Helvetica,sans-Serif" font-size="10.00">/abstractfactory/bombed</text>
<text text-anchor="middle" x="61" y="-7.5" font-family="Helvetica,sans-Serif" font-size="10.00">_maze_factory.cc</text>
</a>
</g>
</g>
<!-- Node1&#45;&gt;Node2 -->
<g id="edge1" class="edge"><title>Node1&#45;&gt;Node2</title>
<path fill="none" stroke="midnightblue" d="M348.245,-81.6429C288.658,-72.6543 204.149,-58.6807 131,-42 128.166,-41.3537 125.276,-40.6621 122.363,-39.9385"/>
<polygon fill="midnightblue" stroke="midnightblue" points="347.922,-85.1334 358.33,-83.1524 348.958,-78.2105 347.922,-85.1334"/>
</g>
<!-- Node3 -->
<g id="node3" class="node"><title>Node3</title>
<g id="a_node3"><a xlink:href="../../d4/d89/bombed__maze__game_8cc.html" target="_top" xlink:title="src/creational/src\l/factorymethod/bombed\l_maze_game.cc">
<polygon fill="white" stroke="black" points="140.5,-0.5 140.5,-41.5 259.5,-41.5 259.5,-0.5 140.5,-0.5"/>
<text text-anchor="start" x="148.5" y="-29.5" font-family="Helvetica,sans-Serif" font-size="10.00">src/creational/src</text>
<text text-anchor="start" x="148.5" y="-18.5" font-family="Helvetica,sans-Serif" font-size="10.00">/factorymethod/bombed</text>
<text text-anchor="middle" x="200" y="-7.5" font-family="Helvetica,sans-Serif" font-size="10.00">_maze_game.cc</text>
</a>
</g>
</g>
<!-- Node1&#45;&gt;Node3 -->
<g id="edge2" class="edge"><title>Node1&#45;&gt;Node3</title>
<path fill="none" stroke="midnightblue" d="M370.639,-75.4668C337.091,-64.9552 294.031,-51.4632 259.561,-40.6625"/>
<polygon fill="midnightblue" stroke="midnightblue" points="369.689,-78.837 380.278,-78.4872 371.782,-72.1572 369.689,-78.837"/>
</g>
<!-- Node4 -->
<g id="node4" class="node"><title>Node4</title>
<g id="a_node4"><a xlink:href="../../d7/dd3/bombed__wall_8cc.html" target="_top" xlink:title="src/creational/src\l/mazeparts/bombed_wall.cc">
<polygon fill="white" stroke="black" points="278,-6 278,-36 416,-36 416,-6 278,-6"/>
<text text-anchor="start" x="286" y="-24" font-family="Helvetica,sans-Serif" font-size="10.00">src/creational/src</text>
<text text-anchor="middle" x="347" y="-13" font-family="Helvetica,sans-Serif" font-size="10.00">/mazeparts/bombed_wall.cc</text>
</a>
</g>
</g>
<!-- Node1&#45;&gt;Node4 -->
<g id="edge3" class="edge"><title>Node1&#45;&gt;Node4</title>
<path fill="none" stroke="midnightblue" d="M401.726,-71.464C389.047,-60.0043 373.705,-46.137 362.495,-36.0049"/>
<polygon fill="midnightblue" stroke="midnightblue" points="399.45,-74.1244 409.216,-78.2333 404.144,-68.9313 399.45,-74.1244"/>
</g>
<!-- Node5 -->
<g id="node5" class="node"><title>Node5</title>
<g id="a_node5"><a xlink:href="../../d5/d51/maze__game__test_8cc.html" target="_top" xlink:title="src/creational_tests\l/src/mazegame/maze_game\l_test.cc">
<polygon fill="white" stroke="black" points="434,-0.5 434,-41.5 574,-41.5 574,-0.5 434,-0.5"/>
<text text-anchor="start" x="442" y="-29.5" font-family="Helvetica,sans-Serif" font-size="10.00">src/creational_tests</text>
<text text-anchor="start" x="442" y="-18.5" font-family="Helvetica,sans-Serif" font-size="10.00">/src/mazegame/maze_game</text>
<text text-anchor="middle" x="504" y="-7.5" font-family="Helvetica,sans-Serif" font-size="10.00">_test.cc</text>
</a>
</g>
</g>
<!-- Node1&#45;&gt;Node5 -->
<g id="edge4" class="edge"><title>Node1&#45;&gt;Node5</title>
<path fill="none" stroke="midnightblue" d="M448.667,-71.3792C459.258,-61.9277 471.669,-50.8524 482.05,-41.5884"/>
<polygon fill="midnightblue" stroke="midnightblue" points="446.117,-68.9636 440.987,-78.2333 450.778,-74.1863 446.117,-68.9636"/>
</g>
<!-- Node6 -->
<g id="node6" class="node"><title>Node6</title>
<g id="a_node6"><a xlink:href="../../d8/d1d/bombed__wall__test_8cc.html" target="_top" xlink:title="src/creational_tests\l/src/mazeparts/bombed\l_wall_test.cc">
<polygon fill="white" stroke="black" points="592.5,-0.5 592.5,-41.5 711.5,-41.5 711.5,-0.5 592.5,-0.5"/>
<text text-anchor="start" x="600.5" y="-29.5" font-family="Helvetica,sans-Serif" font-size="10.00">src/creational_tests</text>
<text text-anchor="start" x="600.5" y="-18.5" font-family="Helvetica,sans-Serif" font-size="10.00">/src/mazeparts/bombed</text>
<text text-anchor="middle" x="652" y="-7.5" font-family="Helvetica,sans-Serif" font-size="10.00">_wall_test.cc</text>
</a>
</g>
</g>
<!-- Node1&#45;&gt;Node6 -->
<g id="edge5" class="edge"><title>Node1&#45;&gt;Node6</title>
<path fill="none" stroke="midnightblue" d="M479.881,-75.4553C513.86,-64.9025 557.499,-51.3494 592.334,-40.5308"/>
<polygon fill="midnightblue" stroke="midnightblue" points="478.631,-72.1786 470.119,-78.4872 480.707,-78.8636 478.631,-72.1786"/>
</g>
<!-- Node7 -->
<g id="node7" class="node"><title>Node7</title>
<g id="a_node7"><a xlink:href="../../d9/d77/validator_8cc.html" target="_top" xlink:title="src/creational_tests\l/src/utils/validator.cc">
<polygon fill="white" stroke="black" points="730,-6 730,-36 836,-36 836,-6 730,-6"/>
<text text-anchor="start" x="738" y="-24" font-family="Helvetica,sans-Serif" font-size="10.00">src/creational_tests</text>
<text text-anchor="middle" x="783" y="-13" font-family="Helvetica,sans-Serif" font-size="10.00">/src/utils/validator.cc</text>
</a>
</g>
</g>
<!-- Node1&#45;&gt;Node7 -->
<g id="edge6" class="edge"><title>Node1&#45;&gt;Node7</title>
<path fill="none" stroke="midnightblue" d="M501.858,-82.4667C561.972,-73.8806 647.412,-60.0481 721,-42 727.92,-40.3027 735.189,-38.2296 742.216,-36.0684"/>
<polygon fill="midnightblue" stroke="midnightblue" points="501.098,-79.0392 491.686,-83.904 502.077,-85.9704 501.098,-79.0392"/>
</g>
</g>
</svg>
