<?xml version="1.0" encoding="UTF-8" standalone="no"?>
<!DOCTYPE svg PUBLIC "-//W3C//DTD SVG 1.1//EN"
 "http://www.w3.org/Graphics/SVG/1.1/DTD/svg11.dtd">
<!-- Generated by graphviz version 2.38.0 (20140413.2041)
 -->
<!-- Title: operational::state::TcpEstablished::Transmit Pages: 1 -->
<svg width="471pt" height="39pt"
 viewBox="0.00 0.00 471.00 39.00" xmlns="http://www.w3.org/2000/svg" xmlns:xlink="http://www.w3.org/1999/xlink">
<g id="graph0" class="graph" transform="scale(1 1) rotate(0) translate(4 35)">
<title>operational::state::TcpEstablished::Transmit</title>
<polygon fill="white" stroke="none" points="-4,4 -4,-35 467,-35 467,4 -4,4"/>
<!-- Node1 -->
<g id="node1" class="node"><title>Node1</title>
<polygon fill="#bfbfbf" stroke="black" points="0,-0.5 0,-30.5 133,-30.5 133,-0.5 0,-0.5"/>
<text text-anchor="start" x="8" y="-18.5" font-family="Helvetica,sans-Serif" font-size="10.00">operational::state</text>
<text text-anchor="middle" x="66.5" y="-7.5" font-family="Helvetica,sans-Serif" font-size="10.00">::TcpEstablished::Transmit</text>
</g>
<!-- Node2 -->
<g id="node2" class="node"><title>Node2</title>
<g id="a_node2"><a xlink:href="../../db/d61/classoperational_1_1state_1_1_tcp_connection.html#a5bf66123688b0c6ead08bfd6017231a3" target="_top" xlink:title="operational::state\l::TcpConnection::ProcessOctet">
<polygon fill="white" stroke="black" points="169,-0.5 169,-30.5 322,-30.5 322,-0.5 169,-0.5"/>
<text text-anchor="start" x="177" y="-18.5" font-family="Helvetica,sans-Serif" font-size="10.00">operational::state</text>
<text text-anchor="middle" x="245.5" y="-7.5" font-family="Helvetica,sans-Serif" font-size="10.00">::TcpConnection::ProcessOctet</text>
</a>
</g>
</g>
<!-- Node1&#45;&gt;Node2 -->
<g id="edge1" class="edge"><title>Node1&#45;&gt;Node2</title>
<path fill="none" stroke="midnightblue" d="M133.157,-15.5C141.501,-15.5 150.136,-15.5 158.736,-15.5"/>
<polygon fill="midnightblue" stroke="midnightblue" points="158.797,-19.0001 168.797,-15.5 158.797,-12.0001 158.797,-19.0001"/>
</g>
<!-- Node3 -->
<g id="node3" class="node"><title>Node3</title>
<g id="a_node3"><a xlink:href="../../de/d97/classoperational_1_1state_1_1_tcp_state.html#a030cd1fc32a5cc32c79a2d0777ea7057" target="_top" xlink:title="operational::state\l::TcpState::Transmit">
<polygon fill="white" stroke="black" points="358,-0.5 358,-30.5 463,-30.5 463,-0.5 358,-0.5"/>
<text text-anchor="start" x="366" y="-18.5" font-family="Helvetica,sans-Serif" font-size="10.00">operational::state</text>
<text text-anchor="middle" x="410.5" y="-7.5" font-family="Helvetica,sans-Serif" font-size="10.00">::TcpState::Transmit</text>
</a>
</g>
</g>
<!-- Node2&#45;&gt;Node3 -->
<g id="edge2" class="edge"><title>Node2&#45;&gt;Node3</title>
<path fill="none" stroke="midnightblue" d="M322.274,-15.5C330.691,-15.5 339.191,-15.5 347.411,-15.5"/>
<polygon fill="midnightblue" stroke="midnightblue" points="347.646,-19.0001 357.646,-15.5 347.646,-12.0001 347.646,-19.0001"/>
</g>
</g>
</svg>
