<?xml version="1.0" encoding="UTF-8" standalone="no"?>
<!DOCTYPE svg PUBLIC "-//W3C//DTD SVG 1.1//EN"
 "http://www.w3.org/Graphics/SVG/1.1/DTD/svg11.dtd">
<!-- Generated by graphviz version 2.38.0 (20140413.2041)
 -->
<!-- Title: src/operational/src/interpreter/variable_exp.h Pages: 1 -->
<svg width="204pt" height="274pt"
 viewBox="0.00 0.00 204.00 274.00" xmlns="http://www.w3.org/2000/svg" xmlns:xlink="http://www.w3.org/1999/xlink">
<g id="graph0" class="graph" transform="scale(1 1) rotate(0) translate(4 270)">
<title>src/operational/src/interpreter/variable_exp.h</title>
<polygon fill="white" stroke="none" points="-4,4 -4,-270 200,-270 200,4 -4,4"/>
<!-- Node1 -->
<g id="node1" class="node"><title>Node1</title>
<polygon fill="#bfbfbf" stroke="black" points="41,-235.5 41,-265.5 169,-265.5 169,-235.5 41,-235.5"/>
<text text-anchor="start" x="49" y="-253.5" font-family="Helvetica,sans-Serif" font-size="10.00">src/operational/src</text>
<text text-anchor="middle" x="105" y="-242.5" font-family="Helvetica,sans-Serif" font-size="10.00">/interpreter/variable_exp.h</text>
</g>
<!-- Node2 -->
<g id="node2" class="node"><title>Node2</title>
<g id="a_node2"><a xlink:href="../../df/de3/boolean__exp__interface_8h.html" target="_top" xlink:title="boolean_exp_interface.h">
<polygon fill="white" stroke="black" points="0,-179.5 0,-198.5 122,-198.5 122,-179.5 0,-179.5"/>
<text text-anchor="middle" x="61" y="-186.5" font-family="Helvetica,sans-Serif" font-size="10.00">boolean_exp_interface.h</text>
</a>
</g>
</g>
<!-- Node1&#45;&gt;Node2 -->
<g id="edge1" class="edge"><title>Node1&#45;&gt;Node2</title>
<path fill="none" stroke="midnightblue" d="M94.5726,-235.399C88.2448,-226.842 80.1314,-215.871 73.4657,-206.857"/>
<polygon fill="midnightblue" stroke="midnightblue" points="76.1624,-204.617 67.4024,-198.658 70.5341,-208.779 76.1624,-204.617"/>
</g>
<!-- Node4 -->
<g id="node4" class="node"><title>Node4</title>
<g id="a_node4"><a xlink:href="../../d9/df8/variable__exp__interface_8h.html" target="_top" xlink:title="variable_exp_interface.h">
<polygon fill="white" stroke="black" points="76,-56.5 76,-75.5 196,-75.5 196,-56.5 76,-56.5"/>
<text text-anchor="middle" x="136" y="-63.5" font-family="Helvetica,sans-Serif" font-size="10.00">variable_exp_interface.h</text>
</a>
</g>
</g>
<!-- Node1&#45;&gt;Node4 -->
<g id="edge7" class="edge"><title>Node1&#45;&gt;Node4</title>
<path fill="none" stroke="midnightblue" d="M114.539,-235.165C120.47,-225.414 127.596,-211.972 131,-199 141.299,-159.759 139.751,-111.717 137.812,-85.7773"/>
<polygon fill="midnightblue" stroke="midnightblue" points="141.275,-85.1903 136.935,-75.5252 134.3,-85.7872 141.275,-85.1903"/>
</g>
<!-- Node3 -->
<g id="node3" class="node"><title>Node3</title>
<g id="a_node3"><a xlink:href="../../d2/d69/interpreter__context__interface_8h.html" target="_top" xlink:title="interpreter_context\l_interface.h">
<polygon fill="white" stroke="black" points="24,-112.5 24,-142.5 122,-142.5 122,-112.5 24,-112.5"/>
<text text-anchor="start" x="32" y="-130.5" font-family="Helvetica,sans-Serif" font-size="10.00">interpreter_context</text>
<text text-anchor="middle" x="73" y="-119.5" font-family="Helvetica,sans-Serif" font-size="10.00">_interface.h</text>
</a>
</g>
</g>
<!-- Node2&#45;&gt;Node3 -->
<g id="edge2" class="edge"><title>Node2&#45;&gt;Node3</title>
<path fill="none" stroke="midnightblue" d="M62.7193,-179.475C64.1471,-172.396 66.2497,-161.97 68.1819,-152.39"/>
<polygon fill="midnightblue" stroke="midnightblue" points="71.6257,-153.018 70.1718,-142.523 64.7638,-151.634 71.6257,-153.018"/>
</g>
<!-- Node5 -->
<g id="node5" class="node"><title>Node5</title>
<polygon fill="white" stroke="#bfbfbf" points="27.5,-0.5 27.5,-19.5 68.5,-19.5 68.5,-0.5 27.5,-0.5"/>
<text text-anchor="middle" x="48" y="-7.5" font-family="Helvetica,sans-Serif" font-size="10.00">string</text>
</g>
<!-- Node2&#45;&gt;Node5 -->
<g id="edge6" class="edge"><title>Node2&#45;&gt;Node5</title>
<path fill="none" stroke="midnightblue" d="M47.2135,-179.189C36.174,-171.241 21.498,-158.447 15,-143 -1.56868,-103.613 21.7542,-53.9819 36.8661,-28.2492"/>
<polygon fill="midnightblue" stroke="midnightblue" points="39.9091,-29.9821 42.1556,-19.6282 33.9426,-26.3214 39.9091,-29.9821"/>
</g>
<!-- Node3&#45;&gt;Node4 -->
<g id="edge3" class="edge"><title>Node3&#45;&gt;Node4</title>
<path fill="none" stroke="midnightblue" d="M87.9301,-112.399C97.3679,-103.486 109.58,-91.9523 119.333,-82.7408"/>
<polygon fill="midnightblue" stroke="midnightblue" points="121.966,-85.0686 126.833,-75.6578 117.16,-79.9795 121.966,-85.0686"/>
</g>
<!-- Node3&#45;&gt;Node5 -->
<g id="edge5" class="edge"><title>Node3&#45;&gt;Node5</title>
<path fill="none" stroke="midnightblue" d="M69.9345,-112.337C65.4301,-91.5271 57.018,-52.6632 52.0224,-29.5834"/>
<polygon fill="midnightblue" stroke="midnightblue" points="55.4129,-28.7027 49.8765,-19.6695 48.5713,-30.1836 55.4129,-28.7027"/>
</g>
<!-- Node4&#45;&gt;Node5 -->
<g id="edge4" class="edge"><title>Node4&#45;&gt;Node5</title>
<path fill="none" stroke="midnightblue" d="M121.861,-56.324C108.134,-47.9002 87.0637,-34.9709 70.9357,-25.0741"/>
<polygon fill="midnightblue" stroke="midnightblue" points="72.4574,-21.9016 62.1036,-19.6545 68.7963,-27.8678 72.4574,-21.9016"/>
</g>
</g>
</svg>
