<?xml version="1.0" encoding="UTF-8" standalone="no"?>
<!DOCTYPE svg PUBLIC "-//W3C//DTD SVG 1.1//EN"
 "http://www.w3.org/Graphics/SVG/1.1/DTD/svg11.dtd">
<!-- Generated by graphviz version 2.38.0 (20140413.2041)
 -->
<!-- Title: structural::proxy::Image::Draw Pages: 1 -->
<svg width="243pt" height="88pt"
 viewBox="0.00 0.00 243.00 88.00" xmlns="http://www.w3.org/2000/svg" xmlns:xlink="http://www.w3.org/1999/xlink">
<g id="graph0" class="graph" transform="scale(1 1) rotate(0) translate(4 84)">
<title>structural::proxy::Image::Draw</title>
<polygon fill="white" stroke="none" points="-4,4 -4,-84 239,-84 239,4 -4,4"/>
<!-- Node1 -->
<g id="node1" class="node"><title>Node1</title>
<polygon fill="#bfbfbf" stroke="black" points="0,-24.5 0,-54.5 93,-54.5 93,-24.5 0,-24.5"/>
<text text-anchor="start" x="8" y="-42.5" font-family="Helvetica,sans-Serif" font-size="10.00">structural::proxy::</text>
<text text-anchor="middle" x="46.5" y="-31.5" font-family="Helvetica,sans-Serif" font-size="10.00">Image::Draw</text>
</g>
<!-- Node2 -->
<g id="node2" class="node"><title>Node2</title>
<g id="a_node2"><a xlink:href="../../d2/db2/classstructural_1_1commons_1_1_point.html#a6c757dd2cc06d5db764471dd47e90176" target="_top" xlink:title="structural::commons\l::Point::x">
<polygon fill="white" stroke="black" points="129,-49.5 129,-79.5 235,-79.5 235,-49.5 129,-49.5"/>
<text text-anchor="start" x="137" y="-67.5" font-family="Helvetica,sans-Serif" font-size="10.00">structural::commons</text>
<text text-anchor="middle" x="182" y="-56.5" font-family="Helvetica,sans-Serif" font-size="10.00">::Point::x</text>
</a>
</g>
</g>
<!-- Node1&#45;&gt;Node2 -->
<g id="edge1" class="edge"><title>Node1&#45;&gt;Node2</title>
<path fill="none" stroke="midnightblue" d="M93.0697,-48.0337C101.322,-49.579 110.056,-51.2146 118.69,-52.8315"/>
<polygon fill="midnightblue" stroke="midnightblue" points="118.273,-56.3141 128.746,-54.7146 119.561,-49.4337 118.273,-56.3141"/>
</g>
<!-- Node3 -->
<g id="node3" class="node"><title>Node3</title>
<g id="a_node3"><a xlink:href="../../d2/db2/classstructural_1_1commons_1_1_point.html#a879eaf11e2edad52cc239c75da03bf74" target="_top" xlink:title="structural::commons\l::Point::y">
<polygon fill="white" stroke="black" points="129,-0.5 129,-30.5 235,-30.5 235,-0.5 129,-0.5"/>
<text text-anchor="start" x="137" y="-18.5" font-family="Helvetica,sans-Serif" font-size="10.00">structural::commons</text>
<text text-anchor="middle" x="182" y="-7.5" font-family="Helvetica,sans-Serif" font-size="10.00">::Point::y</text>
</a>
</g>
</g>
<!-- Node1&#45;&gt;Node3 -->
<g id="edge2" class="edge"><title>Node1&#45;&gt;Node3</title>
<path fill="none" stroke="midnightblue" d="M93.0697,-31.3077C101.322,-29.8241 110.056,-28.254 118.69,-26.7017"/>
<polygon fill="midnightblue" stroke="midnightblue" points="119.523,-30.1082 128.746,-24.894 118.285,-23.2187 119.523,-30.1082"/>
</g>
</g>
</svg>
