<?xml version="1.0" encoding="UTF-8" standalone="no"?>
<!DOCTYPE svg PUBLIC "-//W3C//DTD SVG 1.1//EN"
 "http://www.w3.org/Graphics/SVG/1.1/DTD/svg11.dtd">
<!-- Generated by graphviz version 2.38.0 (20140413.2041)
 -->
<!-- Title: structural::proxy::Image::Draw Pages: 1 -->
<svg width="233pt" height="39pt"
 viewBox="0.00 0.00 233.00 39.00" xmlns="http://www.w3.org/2000/svg" xmlns:xlink="http://www.w3.org/1999/xlink">
<g id="graph0" class="graph" transform="scale(1 1) rotate(0) translate(4 35)">
<title>structural::proxy::Image::Draw</title>
<polygon fill="white" stroke="none" points="-4,4 -4,-35 229,-35 229,4 -4,4"/>
<!-- Node1 -->
<g id="node1" class="node"><title>Node1</title>
<polygon fill="#bfbfbf" stroke="black" points="0,-0.5 0,-30.5 93,-30.5 93,-0.5 0,-0.5"/>
<text text-anchor="start" x="8" y="-18.5" font-family="Helvetica,sans-Serif" font-size="10.00">structural::proxy::</text>
<text text-anchor="middle" x="46.5" y="-7.5" font-family="Helvetica,sans-Serif" font-size="10.00">Image::Draw</text>
</g>
<!-- Node2 -->
<g id="node2" class="node"><title>Node2</title>
<g id="a_node2"><a xlink:href="../../d9/d2c/classstructural_1_1proxy_1_1_image_proxy.html#a7105d5b869b5dbe266ee25a58211a701" target="_top" xlink:title="structural::proxy::\lImageProxy::Draw">
<polygon fill="white" stroke="black" points="129,-0.5 129,-30.5 225,-30.5 225,-0.5 129,-0.5"/>
<text text-anchor="start" x="137" y="-18.5" font-family="Helvetica,sans-Serif" font-size="10.00">structural::proxy::</text>
<text text-anchor="middle" x="177" y="-7.5" font-family="Helvetica,sans-Serif" font-size="10.00">ImageProxy::Draw</text>
</a>
</g>
</g>
<!-- Node1&#45;&gt;Node2 -->
<g id="edge1" class="edge"><title>Node1&#45;&gt;Node2</title>
<path fill="none" stroke="midnightblue" d="M103.354,-15.5C111.82,-15.5 120.484,-15.5 128.744,-15.5"/>
<polygon fill="midnightblue" stroke="midnightblue" points="103.166,-12.0001 93.1661,-15.5 103.166,-19.0001 103.166,-12.0001"/>
</g>
</g>
</svg>
