<?xml version="1.0" encoding="UTF-8" standalone="no"?>
<!DOCTYPE svg PUBLIC "-//W3C//DTD SVG 1.1//EN"
 "http://www.w3.org/Graphics/SVG/1.1/DTD/svg11.dtd">
<!-- Generated by graphviz version 2.38.0 (20140413.2041)
 -->
<!-- Title: operational::strategy::CompositorInterface::Compose Pages: 1 -->
<svg width="263pt" height="50pt"
 viewBox="0.00 0.00 263.00 50.00" xmlns="http://www.w3.org/2000/svg" xmlns:xlink="http://www.w3.org/1999/xlink">
<g id="graph0" class="graph" transform="scale(1 1) rotate(0) translate(4 46)">
<title>operational::strategy::CompositorInterface::Compose</title>
<polygon fill="white" stroke="none" points="-4,4 -4,-46 259,-46 259,4 -4,4"/>
<!-- Node1 -->
<g id="node1" class="node"><title>Node1</title>
<polygon fill="#bfbfbf" stroke="black" points="0,-0.5 0,-41.5 109,-41.5 109,-0.5 0,-0.5"/>
<text text-anchor="start" x="8" y="-29.5" font-family="Helvetica,sans-Serif" font-size="10.00">operational::strategy</text>
<text text-anchor="start" x="8" y="-18.5" font-family="Helvetica,sans-Serif" font-size="10.00">::CompositorInterface</text>
<text text-anchor="middle" x="54.5" y="-7.5" font-family="Helvetica,sans-Serif" font-size="10.00">::Compose</text>
</g>
<!-- Node2 -->
<g id="node2" class="node"><title>Node2</title>
<g id="a_node2"><a xlink:href="../../d7/db8/classoperational_1_1strategy_1_1_composition.html#addea0e018714d831a1f5740f03859ab6" target="_top" xlink:title="operational::strategy\l::Composition::Repair">
<polygon fill="white" stroke="black" points="145,-6 145,-36 255,-36 255,-6 145,-6"/>
<text text-anchor="start" x="153" y="-24" font-family="Helvetica,sans-Serif" font-size="10.00">operational::strategy</text>
<text text-anchor="middle" x="200" y="-13" font-family="Helvetica,sans-Serif" font-size="10.00">::Composition::Repair</text>
</a>
</g>
</g>
<!-- Node1&#45;&gt;Node2 -->
<g id="edge1" class="edge"><title>Node1&#45;&gt;Node2</title>
<path fill="none" stroke="midnightblue" d="M119.547,-21C127.998,-21 136.593,-21 144.856,-21"/>
<polygon fill="midnightblue" stroke="midnightblue" points="119.342,-17.5001 109.342,-21 119.342,-24.5001 119.342,-17.5001"/>
</g>
</g>
</svg>
