<?xml version="1.0" encoding="UTF-8" standalone="no"?>
<!DOCTYPE svg PUBLIC "-//W3C//DTD SVG 1.1//EN"
 "http://www.w3.org/Graphics/SVG/1.1/DTD/svg11.dtd">
<!-- Generated by graphviz version 2.38.0 (20140413.2041)
 -->
<!-- Title: src/operational/src/mediator/list_box.cc Pages: 1 -->
<svg width="362pt" height="263pt"
 viewBox="0.00 0.00 361.50 263.00" xmlns="http://www.w3.org/2000/svg" xmlns:xlink="http://www.w3.org/1999/xlink">
<g id="graph0" class="graph" transform="scale(1 1) rotate(0) translate(4 259)">
<title>src/operational/src/mediator/list_box.cc</title>
<polygon fill="white" stroke="none" points="-4,4 -4,-259 357.5,-259 357.5,4 -4,4"/>
<!-- Node1 -->
<g id="node1" class="node"><title>Node1</title>
<polygon fill="#bfbfbf" stroke="black" points="98,-224.5 98,-254.5 205,-254.5 205,-224.5 98,-224.5"/>
<text text-anchor="start" x="106" y="-242.5" font-family="Helvetica,sans-Serif" font-size="10.00">src/operational/src</text>
<text text-anchor="middle" x="151.5" y="-231.5" font-family="Helvetica,sans-Serif" font-size="10.00">/mediator/list_box.cc</text>
</g>
<!-- Node2 -->
<g id="node2" class="node"><title>Node2</title>
<g id="a_node2"><a xlink:href="../../df/d23/list__box_8h.html" target="_top" xlink:title="list_box.h">
<polygon fill="white" stroke="black" points="122,-168.5 122,-187.5 181,-187.5 181,-168.5 122,-168.5"/>
<text text-anchor="middle" x="151.5" y="-175.5" font-family="Helvetica,sans-Serif" font-size="10.00">list_box.h</text>
</a>
</g>
</g>
<!-- Node1&#45;&gt;Node2 -->
<g id="edge1" class="edge"><title>Node1&#45;&gt;Node2</title>
<path fill="none" stroke="midnightblue" d="M151.5,-224.399C151.5,-216.466 151.5,-206.458 151.5,-197.858"/>
<polygon fill="midnightblue" stroke="midnightblue" points="155,-197.658 151.5,-187.658 148,-197.658 155,-197.658"/>
</g>
<!-- Node3 -->
<g id="node3" class="node"><title>Node3</title>
<g id="a_node3"><a xlink:href="../../d5/d0b/mediator__widget__interface_8h.html" target="_top" xlink:title="mediator_widget_interface.h">
<polygon fill="white" stroke="black" points="0,-56.5 0,-75.5 137,-75.5 137,-56.5 0,-56.5"/>
<text text-anchor="middle" x="68.5" y="-63.5" font-family="Helvetica,sans-Serif" font-size="10.00">mediator_widget_interface.h</text>
</a>
</g>
</g>
<!-- Node2&#45;&gt;Node3 -->
<g id="edge2" class="edge"><title>Node2&#45;&gt;Node3</title>
<path fill="none" stroke="midnightblue" d="M121.779,-175.695C91.8756,-172.609 47.1766,-162.759 25.5,-132 13.5529,-115.047 31.3284,-95.0924 47.5165,-81.8084"/>
<polygon fill="midnightblue" stroke="midnightblue" points="49.8889,-84.3988 55.6713,-75.521 45.6148,-78.8552 49.8889,-84.3988"/>
</g>
<!-- Node5 -->
<g id="node5" class="node"><title>Node5</title>
<g id="a_node5"><a xlink:href="../../d6/d19/dialog__director__interface_8h.html" target="_top" xlink:title="dialog_director_interface.h">
<polygon fill="white" stroke="black" points="34.5,-112.5 34.5,-131.5 164.5,-131.5 164.5,-112.5 34.5,-112.5"/>
<text text-anchor="middle" x="99.5" y="-119.5" font-family="Helvetica,sans-Serif" font-size="10.00">dialog_director_interface.h</text>
</a>
</g>
</g>
<!-- Node2&#45;&gt;Node5 -->
<g id="edge4" class="edge"><title>Node2&#45;&gt;Node5</title>
<path fill="none" stroke="midnightblue" d="M142.913,-168.083C135.341,-160.22 124.122,-148.569 114.986,-139.081"/>
<polygon fill="midnightblue" stroke="midnightblue" points="117.385,-136.527 107.927,-131.751 112.342,-141.382 117.385,-136.527"/>
</g>
<!-- Node6 -->
<g id="node6" class="node"><title>Node6</title>
<polygon fill="white" stroke="#bfbfbf" points="183,-112.5 183,-131.5 224,-131.5 224,-112.5 183,-112.5"/>
<text text-anchor="middle" x="203.5" y="-119.5" font-family="Helvetica,sans-Serif" font-size="10.00">string</text>
</g>
<!-- Node2&#45;&gt;Node6 -->
<g id="edge6" class="edge"><title>Node2&#45;&gt;Node6</title>
<path fill="none" stroke="midnightblue" d="M160.087,-168.083C167.659,-160.22 178.878,-148.569 188.014,-139.081"/>
<polygon fill="midnightblue" stroke="midnightblue" points="190.658,-141.382 195.073,-131.751 185.615,-136.527 190.658,-141.382"/>
</g>
<!-- Node7 -->
<g id="node7" class="node"><title>Node7</title>
<g id="a_node7"><a xlink:href="../../da/d23/list_8h.html" target="_top" xlink:title="../iterator/list.h">
<polygon fill="white" stroke="black" points="242.5,-112.5 242.5,-131.5 322.5,-131.5 322.5,-112.5 242.5,-112.5"/>
<text text-anchor="middle" x="282.5" y="-119.5" font-family="Helvetica,sans-Serif" font-size="10.00">../iterator/list.h</text>
</a>
</g>
</g>
<!-- Node2&#45;&gt;Node7 -->
<g id="edge7" class="edge"><title>Node2&#45;&gt;Node7</title>
<path fill="none" stroke="midnightblue" d="M172.257,-168.444C193.816,-159.557 227.763,-145.563 252.294,-135.451"/>
<polygon fill="midnightblue" stroke="midnightblue" points="253.928,-138.563 261.84,-131.516 251.261,-132.092 253.928,-138.563"/>
</g>
<!-- Node4 -->
<g id="node4" class="node"><title>Node4</title>
<g id="a_node4"><a xlink:href="../../d4/da7/mouse__event_8h.html" target="_top" xlink:title="mouse_event.h">
<polygon fill="white" stroke="black" points="27.5,-0.5 27.5,-19.5 109.5,-19.5 109.5,-0.5 27.5,-0.5"/>
<text text-anchor="middle" x="68.5" y="-7.5" font-family="Helvetica,sans-Serif" font-size="10.00">mouse_event.h</text>
</a>
</g>
</g>
<!-- Node3&#45;&gt;Node4 -->
<g id="edge3" class="edge"><title>Node3&#45;&gt;Node4</title>
<path fill="none" stroke="midnightblue" d="M68.5,-56.083C68.5,-49.0059 68.5,-38.8611 68.5,-29.9865"/>
<polygon fill="midnightblue" stroke="midnightblue" points="72.0001,-29.751 68.5,-19.7511 65.0001,-29.7511 72.0001,-29.751"/>
</g>
<!-- Node5&#45;&gt;Node3 -->
<g id="edge5" class="edge"><title>Node5&#45;&gt;Node3</title>
<path fill="none" stroke="midnightblue" d="M94.381,-112.083C90.0925,-104.613 83.8418,-93.7244 78.5577,-84.5199"/>
<polygon fill="midnightblue" stroke="midnightblue" points="81.5379,-82.6811 73.5238,-75.7511 75.4671,-86.1662 81.5379,-82.6811"/>
</g>
<!-- Node8 -->
<g id="node8" class="node"><title>Node8</title>
<g id="a_node8"><a xlink:href="../../d9/d71/list__iterator_8h.html" target="_top" xlink:title="list_iterator.h">
<polygon fill="white" stroke="black" points="212,-56.5 212,-75.5 285,-75.5 285,-56.5 212,-56.5"/>
<text text-anchor="middle" x="248.5" y="-63.5" font-family="Helvetica,sans-Serif" font-size="10.00">list_iterator.h</text>
</a>
</g>
</g>
<!-- Node7&#45;&gt;Node8 -->
<g id="edge8" class="edge"><title>Node7&#45;&gt;Node8</title>
<path fill="none" stroke="midnightblue" d="M276.886,-112.083C272.133,-104.534 265.182,-93.4948 259.348,-84.2298"/>
<polygon fill="midnightblue" stroke="midnightblue" points="262.3,-82.3486 254.01,-75.7511 256.376,-86.0783 262.3,-82.3486"/>
</g>
<!-- Node10 -->
<g id="node10" class="node"><title>Node10</title>
<g id="a_node10"><a xlink:href="../../dd/d8c/list__interface_8h.html" target="_top" xlink:title="list_interface.h">
<polygon fill="white" stroke="black" points="273.5,-0.5 273.5,-19.5 353.5,-19.5 353.5,-0.5 273.5,-0.5"/>
<text text-anchor="middle" x="313.5" y="-7.5" font-family="Helvetica,sans-Serif" font-size="10.00">list_interface.h</text>
</a>
</g>
</g>
<!-- Node7&#45;&gt;Node10 -->
<g id="edge11" class="edge"><title>Node7&#45;&gt;Node10</title>
<path fill="none" stroke="midnightblue" d="M284.933,-112.368C289.958,-94.5366 301.58,-53.2953 308.351,-29.2717"/>
<polygon fill="midnightblue" stroke="midnightblue" points="311.735,-30.1659 311.079,-19.5914 304.997,-28.2671 311.735,-30.1659"/>
</g>
<!-- Node9 -->
<g id="node9" class="node"><title>Node9</title>
<g id="a_node9"><a xlink:href="../../d6/da4/iterator__interface_8h.html" target="_top" xlink:title="iterator_interface.h">
<polygon fill="white" stroke="black" points="158,-0.5 158,-19.5 255,-19.5 255,-0.5 158,-0.5"/>
<text text-anchor="middle" x="206.5" y="-7.5" font-family="Helvetica,sans-Serif" font-size="10.00">iterator_interface.h</text>
</a>
</g>
</g>
<!-- Node8&#45;&gt;Node9 -->
<g id="edge9" class="edge"><title>Node8&#45;&gt;Node9</title>
<path fill="none" stroke="midnightblue" d="M241.565,-56.083C235.571,-48.3768 226.748,-37.0333 219.452,-27.6531"/>
<polygon fill="midnightblue" stroke="midnightblue" points="222.209,-25.4958 213.306,-19.7511 216.683,-29.7934 222.209,-25.4958"/>
</g>
<!-- Node8&#45;&gt;Node10 -->
<g id="edge10" class="edge"><title>Node8&#45;&gt;Node10</title>
<path fill="none" stroke="midnightblue" d="M258.943,-56.324C268.646,-48.2631 283.315,-36.0765 295,-26.3695"/>
<polygon fill="midnightblue" stroke="midnightblue" points="297.411,-28.9163 302.867,-19.8339 292.938,-23.532 297.411,-28.9163"/>
</g>
</g>
</svg>
