<?xml version="1.0" encoding="UTF-8" standalone="no"?>
<!DOCTYPE svg PUBLIC "-//W3C//DTD SVG 1.1//EN"
 "http://www.w3.org/Graphics/SVG/1.1/DTD/svg11.dtd">
<!-- Generated by graphviz version 2.38.0 (20140413.2041)
 -->
<!-- Title: structural::adapter::VisualComponentInterface Pages: 1 -->
<svg width="159pt" height="463pt"
 viewBox="0.00 0.00 159.00 463.00" xmlns="http://www.w3.org/2000/svg" xmlns:xlink="http://www.w3.org/1999/xlink">
<g id="graph0" class="graph" transform="scale(1 1) rotate(0) translate(4 459)">
<title>structural::adapter::VisualComponentInterface</title>
<polygon fill="white" stroke="none" points="-4,4 -4,-459 155,-459 155,4 -4,4"/>
<!-- Node1 -->
<g id="node1" class="node"><title>Node1</title>
<polygon fill="#bfbfbf" stroke="black" points="0,-364.5 0,-454.5 151,-454.5 151,-364.5 0,-364.5"/>
<text text-anchor="start" x="8" y="-442.5" font-family="Helvetica,sans-Serif" font-size="10.00">structural::adapter</text>
<text text-anchor="middle" x="75.5" y="-431.5" font-family="Helvetica,sans-Serif" font-size="10.00">::VisualComponentInterface</text>
<polyline fill="none" stroke="black" points="0,-424.5 151,-424.5 "/>
<text text-anchor="middle" x="75.5" y="-412.5" font-family="Helvetica,sans-Serif" font-size="10.00"> </text>
<polyline fill="none" stroke="black" points="0,-405.5 151,-405.5 "/>
<text text-anchor="start" x="8" y="-393.5" font-family="Helvetica,sans-Serif" font-size="10.00">+ ~VisualComponentInterface()</text>
<text text-anchor="start" x="8" y="-382.5" font-family="Helvetica,sans-Serif" font-size="10.00">+ Draw()</text>
<text text-anchor="start" x="8" y="-371.5" font-family="Helvetica,sans-Serif" font-size="10.00">+ Resize()</text>
</g>
<!-- Node2 -->
<g id="node2" class="node"><title>Node2</title>
<g id="a_node2"><a xlink:href="../../d7/dce/classstructural_1_1adapter_1_1_text_view.html" target="_top" xlink:title="{structural::adapter\l::TextView\n||+ TextView()\l+ TextView()\l+ ~TextView()\l+ Draw()\l+ Resize()\l+ GetOrigin()\l+ SetOrigin()\l+ GetExtent()\l+ SetExtent()\l+ IsEmpty()\l+ content()\l+ content()\l}">
<polygon fill="white" stroke="black" points="28,-138.5 28,-327.5 123,-327.5 123,-138.5 28,-138.5"/>
<text text-anchor="start" x="36" y="-315.5" font-family="Helvetica,sans-Serif" font-size="10.00">structural::adapter</text>
<text text-anchor="middle" x="75.5" y="-304.5" font-family="Helvetica,sans-Serif" font-size="10.00">::TextView</text>
<polyline fill="none" stroke="black" points="28,-297.5 123,-297.5 "/>
<text text-anchor="middle" x="75.5" y="-285.5" font-family="Helvetica,sans-Serif" font-size="10.00"> </text>
<polyline fill="none" stroke="black" points="28,-278.5 123,-278.5 "/>
<text text-anchor="start" x="36" y="-266.5" font-family="Helvetica,sans-Serif" font-size="10.00">+ TextView()</text>
<text text-anchor="start" x="36" y="-255.5" font-family="Helvetica,sans-Serif" font-size="10.00">+ TextView()</text>
<text text-anchor="start" x="36" y="-244.5" font-family="Helvetica,sans-Serif" font-size="10.00">+ ~TextView()</text>
<text text-anchor="start" x="36" y="-233.5" font-family="Helvetica,sans-Serif" font-size="10.00">+ Draw()</text>
<text text-anchor="start" x="36" y="-222.5" font-family="Helvetica,sans-Serif" font-size="10.00">+ Resize()</text>
<text text-anchor="start" x="36" y="-211.5" font-family="Helvetica,sans-Serif" font-size="10.00">+ GetOrigin()</text>
<text text-anchor="start" x="36" y="-200.5" font-family="Helvetica,sans-Serif" font-size="10.00">+ SetOrigin()</text>
<text text-anchor="start" x="36" y="-189.5" font-family="Helvetica,sans-Serif" font-size="10.00">+ GetExtent()</text>
<text text-anchor="start" x="36" y="-178.5" font-family="Helvetica,sans-Serif" font-size="10.00">+ SetExtent()</text>
<text text-anchor="start" x="36" y="-167.5" font-family="Helvetica,sans-Serif" font-size="10.00">+ IsEmpty()</text>
<text text-anchor="start" x="36" y="-156.5" font-family="Helvetica,sans-Serif" font-size="10.00">+ content()</text>
<text text-anchor="start" x="36" y="-145.5" font-family="Helvetica,sans-Serif" font-size="10.00">+ content()</text>
</a>
</g>
</g>
<!-- Node1&#45;&gt;Node2 -->
<g id="edge1" class="edge"><title>Node1&#45;&gt;Node2</title>
<path fill="none" stroke="midnightblue" d="M75.5,-354.362C75.5,-345.856 75.5,-336.857 75.5,-327.763"/>
<polygon fill="none" stroke="midnightblue" points="72.0001,-354.466 75.5,-364.466 79.0001,-354.466 72.0001,-354.466"/>
</g>
<!-- Node3 -->
<g id="node3" class="node"><title>Node3</title>
<g id="a_node3"><a xlink:href="../../df/d8e/classstructural_1_1adapter_1_1_text_shape_class_adapter.html" target="_top" xlink:title="{structural::adapter\l::TextShapeClassAdapter\n||+ TextShapeClassAdapter()\l+ TextShapeClassAdapter()\l+ BoundingBox()\l+ IsEmpty()\l}">
<polygon fill="white" stroke="black" points="7,-0.5 7,-101.5 144,-101.5 144,-0.5 7,-0.5"/>
<text text-anchor="start" x="15" y="-89.5" font-family="Helvetica,sans-Serif" font-size="10.00">structural::adapter</text>
<text text-anchor="middle" x="75.5" y="-78.5" font-family="Helvetica,sans-Serif" font-size="10.00">::TextShapeClassAdapter</text>
<polyline fill="none" stroke="black" points="7,-71.5 144,-71.5 "/>
<text text-anchor="middle" x="75.5" y="-59.5" font-family="Helvetica,sans-Serif" font-size="10.00"> </text>
<polyline fill="none" stroke="black" points="7,-52.5 144,-52.5 "/>
<text text-anchor="start" x="15" y="-40.5" font-family="Helvetica,sans-Serif" font-size="10.00">+ TextShapeClassAdapter()</text>
<text text-anchor="start" x="15" y="-29.5" font-family="Helvetica,sans-Serif" font-size="10.00">+ TextShapeClassAdapter()</text>
<text text-anchor="start" x="15" y="-18.5" font-family="Helvetica,sans-Serif" font-size="10.00">+ BoundingBox()</text>
<text text-anchor="start" x="15" y="-7.5" font-family="Helvetica,sans-Serif" font-size="10.00">+ IsEmpty()</text>
</a>
</g>
</g>
<!-- Node2&#45;&gt;Node3 -->
<g id="edge2" class="edge"><title>Node2&#45;&gt;Node3</title>
<path fill="none" stroke="midnightblue" d="M75.5,-128.274C75.5,-119.08 75.5,-110.081 75.5,-101.673"/>
<polygon fill="none" stroke="midnightblue" points="72.0001,-128.309 75.5,-138.31 79.0001,-128.31 72.0001,-128.309"/>
</g>
</g>
</svg>
