<?xml version="1.0" encoding="UTF-8" standalone="no"?>
<!DOCTYPE svg PUBLIC "-//W3C//DTD SVG 1.1//EN"
 "http://www.w3.org/Graphics/SVG/1.1/DTD/svg11.dtd">
<!-- Generated by graphviz version 2.38.0 (20140413.2041)
 -->
<!-- Title: operational::iterator::List::First Pages: 1 -->
<svg width="405pt" height="50pt"
 viewBox="0.00 0.00 405.00 50.00" xmlns="http://www.w3.org/2000/svg" xmlns:xlink="http://www.w3.org/1999/xlink">
<g id="graph0" class="graph" transform="scale(1 1) rotate(0) translate(4 46)">
<title>operational::iterator::List::First</title>
<polygon fill="white" stroke="none" points="-4,4 -4,-46 401,-46 401,4 -4,4"/>
<!-- Node1 -->
<g id="node1" class="node"><title>Node1</title>
<polygon fill="#bfbfbf" stroke="black" points="0,-6 0,-36 100,-36 100,-6 0,-6"/>
<text text-anchor="start" x="8" y="-24" font-family="Helvetica,sans-Serif" font-size="10.00">operational::iterator</text>
<text text-anchor="middle" x="50" y="-13" font-family="Helvetica,sans-Serif" font-size="10.00">::List::First</text>
</g>
<!-- Node2 -->
<g id="node2" class="node"><title>Node2</title>
<g id="a_node2"><a xlink:href="../../df/d1e/classoperational_1_1madiator_1_1_list_box.html#a19baf77b9d3f39934ac408eeccf9c099" target="_top" xlink:title="operational::madiator\l::ListBox::GetSelection">
<polygon fill="white" stroke="black" points="136,-6 136,-36 254,-36 254,-6 136,-6"/>
<text text-anchor="start" x="144" y="-24" font-family="Helvetica,sans-Serif" font-size="10.00">operational::madiator</text>
<text text-anchor="middle" x="195" y="-13" font-family="Helvetica,sans-Serif" font-size="10.00">::ListBox::GetSelection</text>
</a>
</g>
</g>
<!-- Node1&#45;&gt;Node2 -->
<g id="edge1" class="edge"><title>Node1&#45;&gt;Node2</title>
<path fill="none" stroke="midnightblue" d="M110.342,-21C118.767,-21 127.424,-21 135.827,-21"/>
<polygon fill="midnightblue" stroke="midnightblue" points="110.213,-17.5001 100.212,-21 110.212,-24.5001 110.213,-17.5001"/>
</g>
<!-- Node3 -->
<g id="node3" class="node"><title>Node3</title>
<g id="a_node3"><a xlink:href="../../de/d89/classoperational_1_1madiator_1_1_font_dialog_director.html#aaa279941a06f0a5135cd32c78356c644" target="_top" xlink:title="operational::madiator\l::FontDialogDirector\l::WidgetChanged">
<polygon fill="white" stroke="black" points="290,-0.5 290,-41.5 397,-41.5 397,-0.5 290,-0.5"/>
<text text-anchor="start" x="298" y="-29.5" font-family="Helvetica,sans-Serif" font-size="10.00">operational::madiator</text>
<text text-anchor="start" x="298" y="-18.5" font-family="Helvetica,sans-Serif" font-size="10.00">::FontDialogDirector</text>
<text text-anchor="middle" x="343.5" y="-7.5" font-family="Helvetica,sans-Serif" font-size="10.00">::WidgetChanged</text>
</a>
</g>
</g>
<!-- Node2&#45;&gt;Node3 -->
<g id="edge2" class="edge"><title>Node2&#45;&gt;Node3</title>
<path fill="none" stroke="midnightblue" d="M264.526,-21C272.95,-21 281.458,-21 289.602,-21"/>
<polygon fill="midnightblue" stroke="midnightblue" points="264.322,-17.5001 254.322,-21 264.322,-24.5001 264.322,-17.5001"/>
</g>
</g>
</svg>
