<?xml version="1.0" encoding="UTF-8" standalone="no"?>
<!DOCTYPE svg PUBLIC "-//W3C//DTD SVG 1.1//EN"
 "http://www.w3.org/Graphics/SVG/1.1/DTD/svg11.dtd">
<!-- Generated by graphviz version 2.38.0 (20140413.2041)
 -->
<!-- Title: src/structural/src/facade/expression_node.cc Pages: 1 -->
<svg width="661pt" height="330pt"
 viewBox="0.00 0.00 660.50 330.00" xmlns="http://www.w3.org/2000/svg" xmlns:xlink="http://www.w3.org/1999/xlink">
<g id="graph0" class="graph" transform="scale(1 1) rotate(0) translate(4 326)">
<title>src/structural/src/facade/expression_node.cc</title>
<polygon fill="white" stroke="none" points="-4,4 -4,-326 656.5,-326 656.5,4 -4,4"/>
<!-- Node1 -->
<g id="node1" class="node"><title>Node1</title>
<polygon fill="#bfbfbf" stroke="black" points="411,-291.5 411,-321.5 549,-321.5 549,-291.5 411,-291.5"/>
<text text-anchor="start" x="419" y="-309.5" font-family="Helvetica,sans-Serif" font-size="10.00">src/structural/src</text>
<text text-anchor="middle" x="480" y="-298.5" font-family="Helvetica,sans-Serif" font-size="10.00">/facade/expression_node.cc</text>
</g>
<!-- Node2 -->
<g id="node2" class="node"><title>Node2</title>
<g id="a_node2"><a xlink:href="../../d9/d18/expression__node_8h.html" target="_top" xlink:title="expression_node.h">
<polygon fill="white" stroke="black" points="296,-235.5 296,-254.5 394,-254.5 394,-235.5 296,-235.5"/>
<text text-anchor="middle" x="345" y="-242.5" font-family="Helvetica,sans-Serif" font-size="10.00">expression_node.h</text>
</a>
</g>
</g>
<!-- Node1&#45;&gt;Node2 -->
<g id="edge1" class="edge"><title>Node1&#45;&gt;Node2</title>
<path fill="none" stroke="midnightblue" d="M448.007,-291.399C425.558,-281.505 395.785,-268.383 374.024,-258.792"/>
<polygon fill="midnightblue" stroke="midnightblue" points="375.206,-255.488 364.644,-254.658 372.383,-261.894 375.206,-255.488"/>
</g>
<!-- Node10 -->
<g id="node10" class="node"><title>Node10</title>
<g id="a_node10"><a xlink:href="../../d9/d71/list__iterator_8h.html" target="_top" xlink:title="list_iterator.h">
<polygon fill="white" stroke="black" points="460.5,-112.5 460.5,-131.5 533.5,-131.5 533.5,-112.5 460.5,-112.5"/>
<text text-anchor="middle" x="497" y="-119.5" font-family="Helvetica,sans-Serif" font-size="10.00">list_iterator.h</text>
</a>
</g>
</g>
<!-- Node1&#45;&gt;Node10 -->
<g id="edge16" class="edge"><title>Node1&#45;&gt;Node10</title>
<path fill="none" stroke="midnightblue" d="M481.306,-291.483C484.322,-259.097 491.78,-179.037 495.215,-142.159"/>
<polygon fill="midnightblue" stroke="midnightblue" points="498.736,-142.1 496.179,-131.819 491.766,-141.451 498.736,-142.1"/>
</g>
<!-- Node3 -->
<g id="node3" class="node"><title>Node3</title>
<g id="a_node3"><a xlink:href="../../dc/d6c/program__node__interface_8h.html" target="_top" xlink:title="program_node_interface.h">
<polygon fill="white" stroke="black" points="214,-174 214,-193 342,-193 342,-174 214,-174"/>
<text text-anchor="middle" x="278" y="-181" font-family="Helvetica,sans-Serif" font-size="10.00">program_node_interface.h</text>
</a>
</g>
</g>
<!-- Node2&#45;&gt;Node3 -->
<g id="edge2" class="edge"><title>Node2&#45;&gt;Node3</title>
<path fill="none" stroke="midnightblue" d="M335.401,-235.475C324.952,-226.197 308.032,-211.171 295.264,-199.831"/>
<polygon fill="midnightblue" stroke="midnightblue" points="297.383,-197.032 287.582,-193.009 292.735,-202.266 297.383,-197.032"/>
</g>
<!-- Node5 -->
<g id="node5" class="node"><title>Node5</title>
<g id="a_node5"><a xlink:href="../../d9/d24/expression__node__interface_8h.html" target="_top" xlink:title="expression_node_interface.h">
<polygon fill="white" stroke="black" points="0,-56.5 0,-75.5 140,-75.5 140,-56.5 0,-56.5"/>
<text text-anchor="middle" x="70" y="-63.5" font-family="Helvetica,sans-Serif" font-size="10.00">expression_node_interface.h</text>
</a>
</g>
</g>
<!-- Node2&#45;&gt;Node5 -->
<g id="edge10" class="edge"><title>Node2&#45;&gt;Node5</title>
<path fill="none" stroke="midnightblue" d="M301.154,-235.425C272.388,-228.508 234.734,-216.928 205,-199 152.566,-167.386 104.779,-111.633 82.7705,-83.7969"/>
<polygon fill="midnightblue" stroke="midnightblue" points="85.4589,-81.5523 76.5577,-75.8059 79.9326,-85.8489 85.4589,-81.5523"/>
</g>
<!-- Node9 -->
<g id="node9" class="node"><title>Node9</title>
<g id="a_node9"><a xlink:href="../../da/d23/list_8h.html" target="_top" xlink:title="../../../operational\l/src/iterator/list.h">
<polygon fill="white" stroke="black" points="377.5,-168.5 377.5,-198.5 468.5,-198.5 468.5,-168.5 377.5,-168.5"/>
<text text-anchor="start" x="385.5" y="-186.5" font-family="Helvetica,sans-Serif" font-size="10.00">../../../operational</text>
<text text-anchor="middle" x="423" y="-175.5" font-family="Helvetica,sans-Serif" font-size="10.00">/src/iterator/list.h</text>
</a>
</g>
</g>
<!-- Node2&#45;&gt;Node9 -->
<g id="edge11" class="edge"><title>Node2&#45;&gt;Node9</title>
<path fill="none" stroke="midnightblue" d="M356.175,-235.475C366.641,-227.492 382.684,-215.254 396.427,-204.77"/>
<polygon fill="midnightblue" stroke="midnightblue" points="398.789,-207.371 404.617,-198.523 394.543,-201.805 398.789,-207.371"/>
</g>
<!-- Node4 -->
<g id="node4" class="node"><title>Node4</title>
<g id="a_node4"><a xlink:href="../../d7/df5/code__generator__interface_8h.html" target="_top" xlink:title="code_generator_interface.h">
<polygon fill="white" stroke="black" points="177,-112.5 177,-131.5 311,-131.5 311,-112.5 177,-112.5"/>
<text text-anchor="middle" x="244" y="-119.5" font-family="Helvetica,sans-Serif" font-size="10.00">code_generator_interface.h</text>
</a>
</g>
</g>
<!-- Node3&#45;&gt;Node4 -->
<g id="edge3" class="edge"><title>Node3&#45;&gt;Node4</title>
<path fill="none" stroke="midnightblue" d="M273.129,-173.975C268.13,-165.227 260.211,-151.369 253.891,-140.309"/>
<polygon fill="midnightblue" stroke="midnightblue" points="256.863,-138.455 248.862,-131.509 250.785,-141.928 256.863,-138.455"/>
</g>
<!-- Node4&#45;&gt;Node5 -->
<g id="edge4" class="edge"><title>Node4&#45;&gt;Node5</title>
<path fill="none" stroke="midnightblue" d="M216.429,-112.444C186.903,-103.28 139.882,-88.6876 107.117,-78.5192"/>
<polygon fill="midnightblue" stroke="midnightblue" points="108.03,-75.1378 97.4418,-75.5164 105.955,-81.8232 108.03,-75.1378"/>
</g>
<!-- Node7 -->
<g id="node7" class="node"><title>Node7</title>
<g id="a_node7"><a xlink:href="../../dd/d4b/statement__node__interface_8h.html" target="_top" xlink:title="statement_node_interface.h">
<polygon fill="white" stroke="black" points="158.5,-56.5 158.5,-75.5 295.5,-75.5 295.5,-56.5 158.5,-56.5"/>
<text text-anchor="middle" x="227" y="-63.5" font-family="Helvetica,sans-Serif" font-size="10.00">statement_node_interface.h</text>
</a>
</g>
</g>
<!-- Node4&#45;&gt;Node7 -->
<g id="edge6" class="edge"><title>Node4&#45;&gt;Node7</title>
<path fill="none" stroke="midnightblue" d="M241.193,-112.083C238.915,-104.849 235.629,-94.4087 232.792,-85.3968"/>
<polygon fill="midnightblue" stroke="midnightblue" points="236.096,-84.2385 229.755,-75.7511 229.419,-86.3406 236.096,-84.2385"/>
</g>
<!-- Node8 -->
<g id="node8" class="node"><title>Node8</title>
<g id="a_node8"><a xlink:href="../../df/d19/variable__node__interface_8h.html" target="_top" xlink:title="variable_node_interface.h">
<polygon fill="white" stroke="black" points="313.5,-56.5 313.5,-75.5 438.5,-75.5 438.5,-56.5 313.5,-56.5"/>
<text text-anchor="middle" x="376" y="-63.5" font-family="Helvetica,sans-Serif" font-size="10.00">variable_node_interface.h</text>
</a>
</g>
</g>
<!-- Node4&#45;&gt;Node8 -->
<g id="edge8" class="edge"><title>Node4&#45;&gt;Node8</title>
<path fill="none" stroke="midnightblue" d="M264.916,-112.444C286.736,-103.517 321.15,-89.4387 345.892,-79.3168"/>
<polygon fill="midnightblue" stroke="midnightblue" points="347.252,-82.5422 355.182,-75.5164 344.601,-76.0634 347.252,-82.5422"/>
</g>
<!-- Node6 -->
<g id="node6" class="node"><title>Node6</title>
<polygon fill="white" stroke="#bfbfbf" points="206.5,-0.5 206.5,-19.5 247.5,-19.5 247.5,-0.5 206.5,-0.5"/>
<text text-anchor="middle" x="227" y="-7.5" font-family="Helvetica,sans-Serif" font-size="10.00">string</text>
</g>
<!-- Node5&#45;&gt;Node6 -->
<g id="edge5" class="edge"><title>Node5&#45;&gt;Node6</title>
<path fill="none" stroke="midnightblue" d="M94.8771,-56.4435C122.412,-46.973 166.807,-31.7032 196.437,-21.512"/>
<polygon fill="midnightblue" stroke="midnightblue" points="197.932,-24.6991 206.25,-18.1368 195.656,-18.0797 197.932,-24.6991"/>
</g>
<!-- Node7&#45;&gt;Node6 -->
<g id="edge7" class="edge"><title>Node7&#45;&gt;Node6</title>
<path fill="none" stroke="midnightblue" d="M227,-56.083C227,-49.0059 227,-38.8611 227,-29.9865"/>
<polygon fill="midnightblue" stroke="midnightblue" points="230.5,-29.751 227,-19.7511 223.5,-29.7511 230.5,-29.751"/>
</g>
<!-- Node8&#45;&gt;Node6 -->
<g id="edge9" class="edge"><title>Node8&#45;&gt;Node6</title>
<path fill="none" stroke="midnightblue" d="M352.391,-56.4435C326.665,-47.1203 285.432,-32.1768 257.327,-21.9911"/>
<polygon fill="midnightblue" stroke="midnightblue" points="258.214,-18.5898 247.62,-18.473 255.829,-25.1709 258.214,-18.5898"/>
</g>
<!-- Node9&#45;&gt;Node10 -->
<g id="edge12" class="edge"><title>Node9&#45;&gt;Node10</title>
<path fill="none" stroke="midnightblue" d="M440.537,-168.399C451.844,-159.308 466.542,-147.49 478.107,-138.191"/>
<polygon fill="midnightblue" stroke="midnightblue" points="480.632,-140.652 486.232,-131.658 476.246,-135.196 480.632,-140.652"/>
</g>
<!-- Node12 -->
<g id="node12" class="node"><title>Node12</title>
<g id="a_node12"><a xlink:href="../../dd/d8c/list__interface_8h.html" target="_top" xlink:title="list_interface.h">
<polygon fill="white" stroke="black" points="457,-56.5 457,-75.5 537,-75.5 537,-56.5 457,-56.5"/>
<text text-anchor="middle" x="497" y="-63.5" font-family="Helvetica,sans-Serif" font-size="10.00">list_interface.h</text>
</a>
</g>
</g>
<!-- Node9&#45;&gt;Node12 -->
<g id="edge15" class="edge"><title>Node9&#45;&gt;Node12</title>
<path fill="none" stroke="midnightblue" d="M426.692,-168.423C431.007,-153.565 439.107,-129.87 451,-112 458.393,-100.892 468.9,-90.3534 478.007,-82.2712"/>
<polygon fill="midnightblue" stroke="midnightblue" points="480.504,-84.7422 485.847,-75.5934 475.965,-79.4134 480.504,-84.7422"/>
</g>
<!-- Node11 -->
<g id="node11" class="node"><title>Node11</title>
<g id="a_node11"><a xlink:href="../../d6/da4/iterator__interface_8h.html" target="_top" xlink:title="iterator_interface.h">
<polygon fill="white" stroke="black" points="555.5,-56.5 555.5,-75.5 652.5,-75.5 652.5,-56.5 555.5,-56.5"/>
<text text-anchor="middle" x="604" y="-63.5" font-family="Helvetica,sans-Serif" font-size="10.00">iterator_interface.h</text>
</a>
</g>
</g>
<!-- Node10&#45;&gt;Node11 -->
<g id="edge13" class="edge"><title>Node10&#45;&gt;Node11</title>
<path fill="none" stroke="midnightblue" d="M514.191,-112.324C531.351,-103.664 557.946,-90.2424 577.747,-80.249"/>
<polygon fill="midnightblue" stroke="midnightblue" points="579.501,-83.2847 586.851,-75.6545 576.347,-77.0354 579.501,-83.2847"/>
</g>
<!-- Node10&#45;&gt;Node12 -->
<g id="edge14" class="edge"><title>Node10&#45;&gt;Node12</title>
<path fill="none" stroke="midnightblue" d="M497,-112.083C497,-105.006 497,-94.8611 497,-85.9865"/>
<polygon fill="midnightblue" stroke="midnightblue" points="500.5,-85.751 497,-75.7511 493.5,-85.7511 500.5,-85.751"/>
</g>
</g>
</svg>
