<?xml version="1.0" encoding="UTF-8" standalone="no"?>
<!DOCTYPE svg PUBLIC "-//W3C//DTD SVG 1.1//EN"
 "http://www.w3.org/Graphics/SVG/1.1/DTD/svg11.dtd">
<!-- Generated by graphviz version 2.38.0 (20140413.2041)
 -->
<!-- Title: structural::flyweight::BTree::Set Pages: 1 -->
<svg width="267pt" height="88pt"
 viewBox="0.00 0.00 267.00 88.00" xmlns="http://www.w3.org/2000/svg" xmlns:xlink="http://www.w3.org/1999/xlink">
<g id="graph0" class="graph" transform="scale(1 1) rotate(0) translate(4 84)">
<title>structural::flyweight::BTree::Set</title>
<polygon fill="white" stroke="none" points="-4,4 -4,-84 263,-84 263,4 -4,4"/>
<!-- Node1 -->
<g id="node1" class="node"><title>Node1</title>
<polygon fill="#bfbfbf" stroke="black" points="0,-24.5 0,-54.5 101,-54.5 101,-24.5 0,-24.5"/>
<text text-anchor="start" x="8" y="-42.5" font-family="Helvetica,sans-Serif" font-size="10.00">structural::flyweight</text>
<text text-anchor="middle" x="50.5" y="-31.5" font-family="Helvetica,sans-Serif" font-size="10.00">::BTree::Set</text>
</g>
<!-- Node2 -->
<g id="node2" class="node"><title>Node2</title>
<g id="a_node2"><a xlink:href="../../d2/d57/classstructural_1_1flyweight_1_1_glyph_context.html#ab34665560b402faf0bf359f7cb01e67f" target="_top" xlink:title="structural::flyweight\l::GlyphContext::Insert">
<polygon fill="white" stroke="black" points="142,-49.5 142,-79.5 254,-79.5 254,-49.5 142,-49.5"/>
<text text-anchor="start" x="150" y="-67.5" font-family="Helvetica,sans-Serif" font-size="10.00">structural::flyweight</text>
<text text-anchor="middle" x="198" y="-56.5" font-family="Helvetica,sans-Serif" font-size="10.00">::GlyphContext::Insert</text>
</a>
</g>
</g>
<!-- Node1&#45;&gt;Node2 -->
<g id="edge1" class="edge"><title>Node1&#45;&gt;Node2</title>
<path fill="none" stroke="midnightblue" d="M111.161,-49.7511C121.304,-51.4938 131.798,-53.2969 141.818,-55.0186"/>
<polygon fill="midnightblue" stroke="midnightblue" points="111.614,-46.2777 101.166,-48.0337 110.429,-53.1766 111.614,-46.2777"/>
</g>
<!-- Node3 -->
<g id="node3" class="node"><title>Node3</title>
<g id="a_node3"><a xlink:href="../../d2/d57/classstructural_1_1flyweight_1_1_glyph_context.html#a833aa985e9f2eeb7d4a20d7f313d8089" target="_top" xlink:title="structural::flyweight\l::GlyphContext::SetFont">
<polygon fill="white" stroke="black" points="137,-0.5 137,-30.5 259,-30.5 259,-0.5 137,-0.5"/>
<text text-anchor="start" x="145" y="-18.5" font-family="Helvetica,sans-Serif" font-size="10.00">structural::flyweight</text>
<text text-anchor="middle" x="198" y="-7.5" font-family="Helvetica,sans-Serif" font-size="10.00">::GlyphContext::SetFont</text>
</a>
</g>
</g>
<!-- Node1&#45;&gt;Node3 -->
<g id="edge2" class="edge"><title>Node1&#45;&gt;Node3</title>
<path fill="none" stroke="midnightblue" d="M111.065,-29.6748C119.622,-28.2633 128.431,-26.8104 136.996,-25.3976"/>
<polygon fill="midnightblue" stroke="midnightblue" points="110.463,-26.2268 101.166,-31.3077 111.602,-33.1334 110.463,-26.2268"/>
</g>
</g>
</svg>
