<?xml version="1.0" encoding="UTF-8" standalone="no"?>
<!DOCTYPE svg PUBLIC "-//W3C//DTD SVG 1.1//EN"
 "http://www.w3.org/Graphics/SVG/1.1/DTD/svg11.dtd">
<!-- Generated by graphviz version 2.38.0 (20140413.2041)
 -->
<!-- Title: structural::flyweight::BTree::Get Pages: 1 -->
<!--zoomable 235 -->
<svg id="main" version="1.1" xmlns="http://www.w3.org/2000/svg" xmlns:xlink="http://www.w3.org/1999/xlink" xml:space="preserve" onload="init(evt)">
<style type="text/css"><![CDATA[
.edge:hover path { stroke: red; }
.edge:hover polygon { stroke: red; fill: red; }
]]></style>
<script type="text/javascript"><![CDATA[
var edges = document.getElementsByTagName('g');
if (edges && edges.length) {
  for (var i=0;i<edges.length;i++) {
    if (edges[i].id.substr(0,4)=='edge') {
      edges[i].setAttribute('class','edge');
    }
  }
}
]]></script>
        <defs>
                <circle id="rim" cx="0" cy="0" r="7"/>
                <circle id="rim2" cx="0" cy="0" r="3.5"/>
                <g id="zoomPlus">
                        <use xlink:href="#rim" fill="#404040">
                                <set attributeName="fill" to="#808080" begin="zoomplus.mouseover" end="zoomplus.mouseout"/>
                        </use>
                        <path d="M-4,0h8M0,-4v8" fill="none" stroke="white" stroke-width="1.5" pointer-events="none"/>
                </g>
                <g id="zoomMin">
                        <use xlink:href="#rim" fill="#404040">
                                <set attributeName="fill" to="#808080" begin="zoomminus.mouseover" end="zoomminus.mouseout"/>
                        </use>
                        <path d="M-4,0h8" fill="none" stroke="white" stroke-width="1.5" pointer-events="none"/>
                </g>
                <g id="dirArrow">
                        <path fill="none" stroke="white" stroke-width="1.5" d="M0,-3.0v7 M-2.5,-0.5L0,-3.0L2.5,-0.5"/>
                </g>
               <g id="resetDef">
                       <use xlink:href="#rim2" fill="#404040">
                               <set attributeName="fill" to="#808080" begin="reset.mouseover" end="reset.mouseout"/>
                       </use>
               </g>
        </defs>

<script type="text/javascript">
var viewWidth = 559;
var viewHeight = 235;
var sectionId = 'dynsection-1';
</script>
<script xlink:href="../../svgpan.js"/>
<svg id="graph" class="graph">
<g id="viewport">
<title>structural::flyweight::BTree::Get</title>
<polygon fill="white" stroke="none" points="-4,4 -4,-231 555,-231 555,4 -4,4"/>
<!-- Node1 -->
<g id="node1" class="node"><title>Node1</title>
<polygon fill="#bfbfbf" stroke="black" points="0,-122.5 0,-152.5 101,-152.5 101,-122.5 0,-122.5"/>
<text text-anchor="start" x="8" y="-140.5" font-family="Helvetica,sans-Serif" font-size="10.00">structural::flyweight</text>
<text text-anchor="middle" x="50.5" y="-129.5" font-family="Helvetica,sans-Serif" font-size="10.00">::BTree::Get</text>
</g>
<!-- Node2 -->
<g id="node2" class="node"><title>Node2</title>
<g id="a_node2"><a xlink:href="../../d2/d57/classstructural_1_1flyweight_1_1_glyph_context.html#ab34665560b402faf0bf359f7cb01e67f" target="_top" xlink:title="structural::flyweight\l::GlyphContext::Insert">
<polygon fill="white" stroke="black" points="142.5,-147.5 142.5,-177.5 254.5,-177.5 254.5,-147.5 142.5,-147.5"/>
<text text-anchor="start" x="150.5" y="-165.5" font-family="Helvetica,sans-Serif" font-size="10.00">structural::flyweight</text>
<text text-anchor="middle" x="198.5" y="-154.5" font-family="Helvetica,sans-Serif" font-size="10.00">::GlyphContext::Insert</text>
</a>
</g>
</g>
<!-- Node1&#45;&gt;Node2 -->
<g id="edge1" class="edge"><title>Node1&#45;&gt;Node2</title>
<path fill="none" stroke="midnightblue" d="M111.43,-147.762C121.673,-149.516 132.271,-151.331 142.382,-153.062"/>
<polygon fill="midnightblue" stroke="midnightblue" points="111.784,-144.272 101.337,-146.034 110.602,-151.171 111.784,-144.272"/>
</g>
<!-- Node3 -->
<g id="node3" class="node"><title>Node3</title>
<g id="a_node3"><a xlink:href="../../d2/d57/classstructural_1_1flyweight_1_1_glyph_context.html#a4aa8f35261cad4fef834d07dadc9c622" target="_top" xlink:title="structural::flyweight\l::GlyphContext::GetFont">
<polygon fill="white" stroke="black" points="137,-98.5 137,-128.5 260,-128.5 260,-98.5 137,-98.5"/>
<text text-anchor="start" x="145" y="-116.5" font-family="Helvetica,sans-Serif" font-size="10.00">structural::flyweight</text>
<text text-anchor="middle" x="198.5" y="-105.5" font-family="Helvetica,sans-Serif" font-size="10.00">::GlyphContext::GetFont</text>
</a>
</g>
</g>
<!-- Node1&#45;&gt;Node3 -->
<g id="edge2" class="edge"><title>Node1&#45;&gt;Node3</title>
<path fill="none" stroke="midnightblue" d="M111.402,-127.653C119.776,-126.277 128.388,-124.861 136.777,-123.482"/>
<polygon fill="midnightblue" stroke="midnightblue" points="110.636,-124.232 101.337,-129.308 111.772,-131.139 110.636,-124.232"/>
</g>
<!-- Node4 -->
<g id="node4" class="node"><title>Node4</title>
<g id="a_node4"><a xlink:href="../../d7/dd6/classstructural_1_1flyweight_1_1_character.html#aa2a911aecd907ef9250eeff638683b86" target="_top" xlink:title="structural::flyweight\l::Character::GetFont">
<polygon fill="white" stroke="black" points="302,-196.5 302,-226.5 408,-226.5 408,-196.5 302,-196.5"/>
<text text-anchor="start" x="310" y="-214.5" font-family="Helvetica,sans-Serif" font-size="10.00">structural::flyweight</text>
<text text-anchor="middle" x="355" y="-203.5" font-family="Helvetica,sans-Serif" font-size="10.00">::Character::GetFont</text>
</a>
</g>
</g>
<!-- Node3&#45;&gt;Node4 -->
<g id="edge3" class="edge"><title>Node3&#45;&gt;Node4</title>
<path fill="none" stroke="midnightblue" d="M252.826,-133.493C255.327,-135.058 257.735,-136.726 260,-138.5 281.273,-155.165 274.731,-170.83 296,-187.5 300.289,-190.861 305.114,-193.825 310.104,-196.418"/>
<polygon fill="midnightblue" stroke="midnightblue" points="254.47,-130.403 244.036,-128.563 251.045,-136.508 254.47,-130.403"/>
</g>
<!-- Node5 -->
<g id="node5" class="node"><title>Node5</title>
<g id="a_node5"><a xlink:href="../../d4/da7/classstructural_1_1flyweight_1_1_column.html#a7b2213b6789525e6154aa73ca27e3049" target="_top" xlink:title="structural::flyweight\l::Column::GetFont">
<polygon fill="white" stroke="black" points="304.5,-147.5 304.5,-177.5 405.5,-177.5 405.5,-147.5 304.5,-147.5"/>
<text text-anchor="start" x="312.5" y="-165.5" font-family="Helvetica,sans-Serif" font-size="10.00">structural::flyweight</text>
<text text-anchor="middle" x="355" y="-154.5" font-family="Helvetica,sans-Serif" font-size="10.00">::Column::GetFont</text>
</a>
</g>
</g>
<!-- Node3&#45;&gt;Node5 -->
<g id="edge4" class="edge"><title>Node3&#45;&gt;Node5</title>
<path fill="none" stroke="midnightblue" d="M257.072,-131.759C273.368,-136.927 290.915,-142.492 306.541,-147.448"/>
<polygon fill="midnightblue" stroke="midnightblue" points="257.706,-128.288 247.116,-128.601 255.59,-134.961 257.706,-128.288"/>
</g>
<!-- Node6 -->
<g id="node6" class="node"><title>Node6</title>
<g id="a_node6"><a xlink:href="../../d2/d57/classstructural_1_1flyweight_1_1_glyph_context.html#ae91ee88c5c2aa2bf913a5e0eb517183f" target="_top" xlink:title="structural::flyweight\l::GlyphContext::IsDone">
<polygon fill="white" stroke="black" points="296,-98.5 296,-128.5 414,-128.5 414,-98.5 296,-98.5"/>
<text text-anchor="start" x="304" y="-116.5" font-family="Helvetica,sans-Serif" font-size="10.00">structural::flyweight</text>
<text text-anchor="middle" x="355" y="-105.5" font-family="Helvetica,sans-Serif" font-size="10.00">::GlyphContext::IsDone</text>
</a>
</g>
</g>
<!-- Node3&#45;&gt;Node6 -->
<g id="edge5" class="edge"><title>Node3&#45;&gt;Node6</title>
<path fill="none" stroke="midnightblue" d="M270.136,-113.5C278.734,-113.5 287.442,-113.5 295.83,-113.5"/>
<polygon fill="midnightblue" stroke="midnightblue" points="270.119,-110 260.119,-113.5 270.119,-117 270.119,-110"/>
</g>
<!-- Node10 -->
<g id="node10" class="node"><title>Node10</title>
<g id="a_node10"><a xlink:href="../../d4/d84/classstructural_1_1flyweight_1_1_row.html#a236657bd40e8f4daccf313c1a0cfeaa7" target="_top" xlink:title="structural::flyweight\l::Row::GetFont">
<polygon fill="white" stroke="black" points="304.5,-49.5 304.5,-79.5 405.5,-79.5 405.5,-49.5 304.5,-49.5"/>
<text text-anchor="start" x="312.5" y="-67.5" font-family="Helvetica,sans-Serif" font-size="10.00">structural::flyweight</text>
<text text-anchor="middle" x="355" y="-56.5" font-family="Helvetica,sans-Serif" font-size="10.00">::Row::GetFont</text>
</a>
</g>
</g>
<!-- Node3&#45;&gt;Node10 -->
<g id="edge9" class="edge"><title>Node3&#45;&gt;Node10</title>
<path fill="none" stroke="midnightblue" d="M257.072,-95.2409C273.368,-90.0727 290.915,-84.5076 306.541,-79.5516"/>
<polygon fill="midnightblue" stroke="midnightblue" points="255.59,-92.0391 247.116,-98.3986 257.706,-98.7116 255.59,-92.0391"/>
</g>
<!-- Node11 -->
<g id="node11" class="node"><title>Node11</title>
<g id="a_node11"><a xlink:href="../../d5/dab/namespacestructuraltests.html#aa99c6e1b868b8650d7952a693a106c21" target="_top" xlink:title="structuraltests::TEST\l_CLASS">
<polygon fill="white" stroke="black" points="300.5,-0.5 300.5,-30.5 409.5,-30.5 409.5,-0.5 300.5,-0.5"/>
<text text-anchor="start" x="308.5" y="-18.5" font-family="Helvetica,sans-Serif" font-size="10.00">structuraltests::TEST</text>
<text text-anchor="middle" x="355" y="-7.5" font-family="Helvetica,sans-Serif" font-size="10.00">_CLASS</text>
</a>
</g>
</g>
<!-- Node3&#45;&gt;Node11 -->
<g id="edge10" class="edge"><title>Node3&#45;&gt;Node11</title>
<path fill="none" stroke="midnightblue" d="M224.077,-91.7457C242.856,-75.8667 269.875,-54.5718 296,-39.5 301.569,-36.2871 307.652,-33.2804 313.716,-30.5554"/>
<polygon fill="midnightblue" stroke="midnightblue" points="221.626,-89.2365 216.311,-98.4015 226.182,-94.5515 221.626,-89.2365"/>
</g>
<!-- Node7 -->
<g id="node7" class="node"><title>Node7</title>
<g id="a_node7"><a xlink:href="../../d7/dd6/classstructural_1_1flyweight_1_1_character.html#a1baf342f210fe52c8e5f143e80a90feb" target="_top" xlink:title="structural::flyweight\l::Character::IsDone">
<polygon fill="white" stroke="black" points="450,-147.5 450,-177.5 551,-177.5 551,-147.5 450,-147.5"/>
<text text-anchor="start" x="458" y="-165.5" font-family="Helvetica,sans-Serif" font-size="10.00">structural::flyweight</text>
<text text-anchor="middle" x="500.5" y="-154.5" font-family="Helvetica,sans-Serif" font-size="10.00">::Character::IsDone</text>
</a>
</g>
</g>
<!-- Node6&#45;&gt;Node7 -->
<g id="edge6" class="edge"><title>Node6&#45;&gt;Node7</title>
<path fill="none" stroke="midnightblue" d="M409.855,-131.89C424.797,-136.992 440.844,-142.471 455.173,-147.364"/>
<polygon fill="midnightblue" stroke="midnightblue" points="410.82,-128.521 400.226,-128.601 408.558,-135.145 410.82,-128.521"/>
</g>
<!-- Node8 -->
<g id="node8" class="node"><title>Node8</title>
<g id="a_node8"><a xlink:href="../../d4/da7/classstructural_1_1flyweight_1_1_column.html#a2bf1a23838a960f033e07dcce7db6537" target="_top" xlink:title="structural::flyweight\l::Column::IsDone">
<polygon fill="white" stroke="black" points="450,-98.5 450,-128.5 551,-128.5 551,-98.5 450,-98.5"/>
<text text-anchor="start" x="458" y="-116.5" font-family="Helvetica,sans-Serif" font-size="10.00">structural::flyweight</text>
<text text-anchor="middle" x="500.5" y="-105.5" font-family="Helvetica,sans-Serif" font-size="10.00">::Column::IsDone</text>
</a>
</g>
</g>
<!-- Node6&#45;&gt;Node8 -->
<g id="edge7" class="edge"><title>Node6&#45;&gt;Node8</title>
<path fill="none" stroke="midnightblue" d="M424.408,-113.5C433.011,-113.5 441.679,-113.5 449.915,-113.5"/>
<polygon fill="midnightblue" stroke="midnightblue" points="424.367,-110 414.367,-113.5 424.367,-117 424.367,-110"/>
</g>
<!-- Node9 -->
<g id="node9" class="node"><title>Node9</title>
<g id="a_node9"><a xlink:href="../../d4/d84/classstructural_1_1flyweight_1_1_row.html#af06d4584b55e7688d99b3426d042af77" target="_top" xlink:title="structural::flyweight\l::Row::IsDone">
<polygon fill="white" stroke="black" points="450,-49.5 450,-79.5 551,-79.5 551,-49.5 450,-49.5"/>
<text text-anchor="start" x="458" y="-67.5" font-family="Helvetica,sans-Serif" font-size="10.00">structural::flyweight</text>
<text text-anchor="middle" x="500.5" y="-56.5" font-family="Helvetica,sans-Serif" font-size="10.00">::Row::IsDone</text>
</a>
</g>
</g>
<!-- Node6&#45;&gt;Node9 -->
<g id="edge8" class="edge"><title>Node6&#45;&gt;Node9</title>
<path fill="none" stroke="midnightblue" d="M409.855,-95.1104C424.797,-90.0084 440.844,-84.5289 455.173,-79.6359"/>
<polygon fill="midnightblue" stroke="midnightblue" points="408.558,-91.8548 400.226,-98.3986 410.82,-98.4793 408.558,-91.8548"/>
</g>
</g>
</svg>
        <g id="navigator" transform="translate(0 0)" fill="#404254">
                <rect fill="#f2f5e9" fill-opacity="0.5" stroke="#606060" stroke-width=".5" x="0" y="0" width="60" height="60"/>
                <use id="zoomplus" xlink:href="#zoomPlus" x="17" y="9" onmousedown="handleZoom(evt,'in')"/>
                <use id="zoomminus" xlink:href="#zoomMin" x="42" y="9" onmousedown="handleZoom(evt,'out')"/>
                <use id="reset" xlink:href="#resetDef" x="30" y="36" onmousedown="handleReset()"/>
                <g id="arrowUp" xlink:href="#dirArrow" transform="translate(30 24)" onmousedown="handlePan(0,-1)">
                  <use xlink:href="#rim" fill="#404040">
                        <set attributeName="fill" to="#808080" begin="arrowUp.mouseover" end="arrowUp.mouseout"/>
                  </use>
                  <path fill="none" stroke="white" stroke-width="1.5" d="M0,-3.0v7 M-2.5,-0.5L0,-3.0L2.5,-0.5"/>
                </g>
                <g id="arrowRight" xlink:href="#dirArrow" transform="rotate(90) translate(36 -43)" onmousedown="handlePan(1,0)">
                  <use xlink:href="#rim" fill="#404040">
                        <set attributeName="fill" to="#808080" begin="arrowRight.mouseover" end="arrowRight.mouseout"/>
                  </use>
                  <path fill="none" stroke="white" stroke-width="1.5" d="M0,-3.0v7 M-2.5,-0.5L0,-3.0L2.5,-0.5"/>
                </g>
                <g id="arrowDown" xlink:href="#dirArrow" transform="rotate(180) translate(-30 -48)" onmousedown="handlePan(0,1)">
                  <use xlink:href="#rim" fill="#404040">
                        <set attributeName="fill" to="#808080" begin="arrowDown.mouseover" end="arrowDown.mouseout"/>
                  </use>
                  <path fill="none" stroke="white" stroke-width="1.5" d="M0,-3.0v7 M-2.5,-0.5L0,-3.0L2.5,-0.5"/>
                </g>
                <g id="arrowLeft" xlink:href="#dirArrow" transform="rotate(270) translate(-36 17)" onmousedown="handlePan(-1,0)">
                  <use xlink:href="#rim" fill="#404040">
                        <set attributeName="fill" to="#808080" begin="arrowLeft.mouseover" end="arrowLeft.mouseout"/>
                  </use>
                  <path fill="none" stroke="white" stroke-width="1.5" d="M0,-3.0v7 M-2.5,-0.5L0,-3.0L2.5,-0.5"/>
                </g>
        </g>
        <svg viewBox="0 0 15 15" width="100%" height="30px" preserveAspectRatio="xMaxYMin meet">
         <g id="arrow_out" transform="scale(0.3 0.3)">
          <a xlink:href="classstructural_1_1flyweight_1_1_b_tree_a4b0f1af2dae7456b2ac16f96e4ac35b5_icgraph_org.svg" target="_base">
           <rect id="button" ry="5" rx="5" y="6" x="6" height="38" width="38"
                fill="#f2f5e9" fill-opacity="0.5" stroke="#606060" stroke-width="1.0"/>
           <path id="arrow"
             d="M 11.500037,31.436501 C 11.940474,20.09759 22.043105,11.32322 32.158766,21.979434 L 37.068811,17.246167 C 37.068811,17.246167 37.088388,32 37.088388,32 L 22.160133,31.978069 C 22.160133,31.978069 26.997745,27.140456 26.997745,27.140456 C 18.528582,18.264221 13.291696,25.230495 11.500037,31.436501 z"
             style="fill:#404040;"/>
          </a>
         </g>
        </svg>
</svg>
