<?xml version="1.0" encoding="UTF-8" standalone="no"?>
<!DOCTYPE svg PUBLIC "-//W3C//DTD SVG 1.1//EN"
 "http://www.w3.org/Graphics/SVG/1.1/DTD/svg11.dtd">
<!-- Generated by graphviz version 2.38.0 (20140413.2041)
 -->
<!-- Title: src/structural/src/proxy/graphic_interface.h Pages: 1 -->
<svg width="508pt" height="262pt"
 viewBox="0.00 0.00 508.40 262.00" xmlns="http://www.w3.org/2000/svg" xmlns:xlink="http://www.w3.org/1999/xlink">
<g id="graph0" class="graph" transform="scale(1 1) rotate(0) translate(4 258)">
<title>src/structural/src/proxy/graphic_interface.h</title>
<polygon fill="white" stroke="none" points="-4,4 -4,-258 504.398,-258 504.398,4 -4,4"/>
<!-- Node1 -->
<g id="node1" class="node"><title>Node1</title>
<polygon fill="#bfbfbf" stroke="black" points="220.5,-223.5 220.5,-253.5 348.5,-253.5 348.5,-223.5 220.5,-223.5"/>
<text text-anchor="start" x="228.5" y="-241.5" font-family="Helvetica,sans-Serif" font-size="10.00">src/structural/src</text>
<text text-anchor="middle" x="284.5" y="-230.5" font-family="Helvetica,sans-Serif" font-size="10.00">/proxy/graphic_interface.h</text>
</g>
<!-- Node2 -->
<g id="node2" class="node"><title>Node2</title>
<g id="a_node2"><a xlink:href="../../d5/db2/image_8h.html" target="_top" xlink:title="src/structural/src\l/proxy/image.h">
<polygon fill="white" stroke="black" points="144.5,-156.5 144.5,-186.5 234.5,-186.5 234.5,-156.5 144.5,-156.5"/>
<text text-anchor="start" x="152.5" y="-174.5" font-family="Helvetica,sans-Serif" font-size="10.00">src/structural/src</text>
<text text-anchor="middle" x="189.5" y="-163.5" font-family="Helvetica,sans-Serif" font-size="10.00">/proxy/image.h</text>
</a>
</g>
</g>
<!-- Node1&#45;&gt;Node2 -->
<g id="edge1" class="edge"><title>Node1&#45;&gt;Node2</title>
<path fill="none" stroke="midnightblue" d="M255.611,-217.734C240.91,-207.676 223.385,-195.685 210.073,-186.577"/>
<polygon fill="midnightblue" stroke="midnightblue" points="253.657,-220.638 263.886,-223.396 257.61,-214.861 253.657,-220.638"/>
</g>
<!-- Node4 -->
<g id="node4" class="node"><title>Node4</title>
<g id="a_node4"><a xlink:href="../../dc/dca/image__proxy_8h.html" target="_top" xlink:title="src/structural/src\l/proxy/image_proxy.h">
<polygon fill="white" stroke="black" points="229.5,-84 229.5,-114 339.5,-114 339.5,-84 229.5,-84"/>
<text text-anchor="start" x="237.5" y="-102" font-family="Helvetica,sans-Serif" font-size="10.00">src/structural/src</text>
<text text-anchor="middle" x="284.5" y="-91" font-family="Helvetica,sans-Serif" font-size="10.00">/proxy/image_proxy.h</text>
</a>
</g>
</g>
<!-- Node1&#45;&gt;Node4 -->
<g id="edge9" class="edge"><title>Node1&#45;&gt;Node4</title>
<path fill="none" stroke="midnightblue" d="M284.5,-213.287C284.5,-184.607 284.5,-137.775 284.5,-114.326"/>
<polygon fill="midnightblue" stroke="midnightblue" points="281,-213.303 284.5,-223.303 288,-213.303 281,-213.303"/>
</g>
<!-- Node9 -->
<g id="node9" class="node"><title>Node9</title>
<g id="a_node9"><a xlink:href="../../d9/d4b/text__document_8h.html" target="_top" xlink:title="src/structural/src\l/proxy/text_document.h">
<polygon fill="white" stroke="black" points="361,-156.5 361,-186.5 480,-186.5 480,-156.5 361,-156.5"/>
<text text-anchor="start" x="369" y="-174.5" font-family="Helvetica,sans-Serif" font-size="10.00">src/structural/src</text>
<text text-anchor="middle" x="420.5" y="-163.5" font-family="Helvetica,sans-Serif" font-size="10.00">/proxy/text_document.h</text>
</a>
</g>
</g>
<!-- Node1&#45;&gt;Node9 -->
<g id="edge10" class="edge"><title>Node1&#45;&gt;Node9</title>
<path fill="none" stroke="midnightblue" d="M323.224,-218.992C344.781,-208.689 371.189,-196.068 391.048,-186.577"/>
<polygon fill="midnightblue" stroke="midnightblue" points="321.523,-215.926 314.01,-223.396 324.542,-222.242 321.523,-215.926"/>
</g>
<!-- Node3 -->
<g id="node3" class="node"><title>Node3</title>
<g id="a_node3"><a xlink:href="../../db/d4d/image_8cc.html" target="_top" xlink:title="src/structural/src\l/proxy/image.cc">
<polygon fill="white" stroke="black" points="121.5,-84 121.5,-114 211.5,-114 211.5,-84 121.5,-84"/>
<text text-anchor="start" x="129.5" y="-102" font-family="Helvetica,sans-Serif" font-size="10.00">src/structural/src</text>
<text text-anchor="middle" x="166.5" y="-91" font-family="Helvetica,sans-Serif" font-size="10.00">/proxy/image.cc</text>
</a>
</g>
</g>
<!-- Node2&#45;&gt;Node3 -->
<g id="edge2" class="edge"><title>Node2&#45;&gt;Node3</title>
<path fill="none" stroke="midnightblue" d="M181.691,-146.564C178.186,-135.821 174.17,-123.51 171.147,-114.246"/>
<polygon fill="midnightblue" stroke="midnightblue" points="178.417,-147.812 184.846,-156.233 185.071,-145.641 178.417,-147.812"/>
</g>
<!-- Node2&#45;&gt;Node4 -->
<g id="edge3" class="edge"><title>Node2&#45;&gt;Node4</title>
<path fill="none" stroke="midnightblue" d="M216.976,-150.11C232.582,-138.529 251.717,-124.328 265.628,-114.005"/>
<polygon fill="midnightblue" stroke="midnightblue" points="214.669,-147.463 208.725,-156.233 218.841,-153.085 214.669,-147.463"/>
</g>
<!-- Node7 -->
<g id="node7" class="node"><title>Node7</title>
<g id="a_node7"><a xlink:href="../../d8/dbb/virtual__image__proxy_8h.html" target="_top" xlink:title="src/structural/src\l/proxy/virtual_image\l_proxy.h">
<polygon fill="white" stroke="black" points="0,-78.5 0,-119.5 103,-119.5 103,-78.5 0,-78.5"/>
<text text-anchor="start" x="8" y="-107.5" font-family="Helvetica,sans-Serif" font-size="10.00">src/structural/src</text>
<text text-anchor="start" x="8" y="-96.5" font-family="Helvetica,sans-Serif" font-size="10.00">/proxy/virtual_image</text>
<text text-anchor="middle" x="51.5" y="-85.5" font-family="Helvetica,sans-Serif" font-size="10.00">_proxy.h</text>
</a>
</g>
</g>
<!-- Node2&#45;&gt;Node7 -->
<g id="edge6" class="edge"><title>Node2&#45;&gt;Node7</title>
<path fill="none" stroke="midnightblue" d="M152.748,-151.725C133.297,-141.788 109.434,-129.597 89.761,-119.546"/>
<polygon fill="midnightblue" stroke="midnightblue" points="151.408,-154.97 161.905,-156.403 154.592,-148.736 151.408,-154.97"/>
</g>
<!-- Node5 -->
<g id="node5" class="node"><title>Node5</title>
<g id="a_node5"><a xlink:href="../../dd/d1a/image__proxy_8cc.html" target="_top" xlink:title="src/structural/src\l/proxy/image_proxy.cc">
<polygon fill="white" stroke="black" points="312.5,-6 312.5,-36 428.5,-36 428.5,-6 312.5,-6"/>
<text text-anchor="start" x="320.5" y="-24" font-family="Helvetica,sans-Serif" font-size="10.00">src/structural/src</text>
<text text-anchor="middle" x="370.5" y="-13" font-family="Helvetica,sans-Serif" font-size="10.00">/proxy/image_proxy.cc</text>
</a>
</g>
</g>
<!-- Node4&#45;&gt;Node5 -->
<g id="edge4" class="edge"><title>Node4&#45;&gt;Node5</title>
<path fill="none" stroke="midnightblue" d="M308.383,-76.8941C323.05,-63.9322 341.444,-47.6775 354.397,-36.2309"/>
<polygon fill="midnightblue" stroke="midnightblue" points="305.852,-74.4603 300.676,-83.705 310.487,-79.7056 305.852,-74.4603"/>
</g>
<!-- Node6 -->
<g id="node6" class="node"><title>Node6</title>
<g id="a_node6"><a xlink:href="../../d1/d14/proxy__test_8cc.html" target="_top" xlink:title="src/structural_tests\l/src/proxy/proxy_test.cc">
<polygon fill="white" stroke="black" points="172.5,-6 172.5,-36 294.5,-36 294.5,-6 172.5,-6"/>
<text text-anchor="start" x="180.5" y="-24" font-family="Helvetica,sans-Serif" font-size="10.00">src/structural_tests</text>
<text text-anchor="middle" x="233.5" y="-13" font-family="Helvetica,sans-Serif" font-size="10.00">/src/proxy/proxy_test.cc</text>
</a>
</g>
</g>
<!-- Node4&#45;&gt;Node6 -->
<g id="edge5" class="edge"><title>Node4&#45;&gt;Node6</title>
<path fill="none" stroke="midnightblue" d="M269.115,-75.0735C260.636,-62.4375 250.375,-47.1476 243.05,-36.2309"/>
<polygon fill="midnightblue" stroke="midnightblue" points="266.429,-77.3516 274.907,-83.705 272.241,-73.451 266.429,-77.3516"/>
</g>
<!-- Node7&#45;&gt;Node6 -->
<g id="edge8" class="edge"><title>Node7&#45;&gt;Node6</title>
<path fill="none" stroke="midnightblue" d="M107.906,-74.4456C137.985,-61.8855 173.987,-46.8516 199.719,-36.1065"/>
<polygon fill="midnightblue" stroke="midnightblue" points="106.249,-71.345 98.3695,-78.4281 108.946,-77.8044 106.249,-71.345"/>
</g>
<!-- Node8 -->
<g id="node8" class="node"><title>Node8</title>
<g id="a_node8"><a xlink:href="../../d8/d56/virtual__image__proxy_8cc.html" target="_top" xlink:title="src/structural/src\l/proxy/virtual_image\l_proxy.cc">
<polygon fill="white" stroke="black" points="0,-0.5 0,-41.5 103,-41.5 103,-0.5 0,-0.5"/>
<text text-anchor="start" x="8" y="-29.5" font-family="Helvetica,sans-Serif" font-size="10.00">src/structural/src</text>
<text text-anchor="start" x="8" y="-18.5" font-family="Helvetica,sans-Serif" font-size="10.00">/proxy/virtual_image</text>
<text text-anchor="middle" x="51.5" y="-7.5" font-family="Helvetica,sans-Serif" font-size="10.00">_proxy.cc</text>
</a>
</g>
</g>
<!-- Node7&#45;&gt;Node8 -->
<g id="edge7" class="edge"><title>Node7&#45;&gt;Node8</title>
<path fill="none" stroke="midnightblue" d="M51.5,-68.2965C51.5,-59.3009 51.5,-49.6532 51.5,-41.5056"/>
<polygon fill="midnightblue" stroke="midnightblue" points="48.0001,-68.4281 51.5,-78.4281 55.0001,-68.4281 48.0001,-68.4281"/>
</g>
<!-- Node9&#45;&gt;Node6 -->
<g id="edge12" class="edge"><title>Node9&#45;&gt;Node6</title>
<path fill="none" stroke="midnightblue" d="M461.885,-151.158C473.981,-143.304 485.754,-132.971 492.5,-120 501.113,-103.439 504.401,-92.3813 492.5,-78 437.985,-12.1207 386.694,-61.7658 303.5,-42 295.999,-40.2179 288.098,-38.1495 280.414,-36.0324"/>
<polygon fill="midnightblue" stroke="midnightblue" points="459.859,-148.292 453.088,-156.441 463.463,-154.293 459.859,-148.292"/>
</g>
<!-- Node10 -->
<g id="node10" class="node"><title>Node10</title>
<g id="a_node10"><a xlink:href="../../dd/d9a/text__document_8cc.html" target="_top" xlink:title="src/structural/src\l/proxy/text_document.cc">
<polygon fill="white" stroke="black" points="358,-84 358,-114 483,-114 483,-84 358,-84"/>
<text text-anchor="start" x="366" y="-102" font-family="Helvetica,sans-Serif" font-size="10.00">src/structural/src</text>
<text text-anchor="middle" x="420.5" y="-91" font-family="Helvetica,sans-Serif" font-size="10.00">/proxy/text_document.cc</text>
</a>
</g>
</g>
<!-- Node9&#45;&gt;Node10 -->
<g id="edge11" class="edge"><title>Node9&#45;&gt;Node10</title>
<path fill="none" stroke="midnightblue" d="M420.5,-146.232C420.5,-135.568 420.5,-123.414 420.5,-114.246"/>
<polygon fill="midnightblue" stroke="midnightblue" points="417,-146.233 420.5,-156.233 424,-146.233 417,-146.233"/>
</g>
</g>
</svg>
