<?xml version="1.0" encoding="UTF-8" standalone="no"?>
<!DOCTYPE svg PUBLIC "-//W3C//DTD SVG 1.1//EN"
 "http://www.w3.org/Graphics/SVG/1.1/DTD/svg11.dtd">
<!-- Generated by graphviz version 2.38.0 (20140413.2041)
 -->
<!-- Title: src/creational/src/mazeparts/wall.h Pages: 1 -->
<svg width="1932pt" height="429pt"
 viewBox="0.00 0.00 1932.00 429.00" xmlns="http://www.w3.org/2000/svg" xmlns:xlink="http://www.w3.org/1999/xlink">
<g id="graph0" class="graph" transform="scale(1 1) rotate(0) translate(4 425)">
<title>src/creational/src/mazeparts/wall.h</title>
<polygon fill="white" stroke="none" points="-4,4 -4,-425 1928,-425 1928,4 -4,4"/>
<!-- Node1 -->
<g id="node1" class="node"><title>Node1</title>
<polygon fill="#bfbfbf" stroke="black" points="1319,-390.5 1319,-420.5 1412,-420.5 1412,-390.5 1319,-390.5"/>
<text text-anchor="start" x="1327" y="-408.5" font-family="Helvetica,sans-Serif" font-size="10.00">src/creational/src</text>
<text text-anchor="middle" x="1365.5" y="-397.5" font-family="Helvetica,sans-Serif" font-size="10.00">/mazeparts/wall.h</text>
</g>
<!-- Node2 -->
<g id="node2" class="node"><title>Node2</title>
<g id="a_node2"><a xlink:href="../../de/d6d/maze__factory__interface_8h.html" target="_top" xlink:title="src/creational/src\l/abstractfactory/maze\l_factory_interface.h">
<polygon fill="white" stroke="black" points="836,-312.5 836,-353.5 947,-353.5 947,-312.5 836,-312.5"/>
<text text-anchor="start" x="844" y="-341.5" font-family="Helvetica,sans-Serif" font-size="10.00">src/creational/src</text>
<text text-anchor="start" x="844" y="-330.5" font-family="Helvetica,sans-Serif" font-size="10.00">/abstractfactory/maze</text>
<text text-anchor="middle" x="891.5" y="-319.5" font-family="Helvetica,sans-Serif" font-size="10.00">_factory_interface.h</text>
</a>
</g>
</g>
<!-- Node1&#45;&gt;Node2 -->
<g id="edge1" class="edge"><title>Node1&#45;&gt;Node2</title>
<path fill="none" stroke="midnightblue" d="M1308.85,-396.074C1217.38,-382.47 1038.27,-355.83 947.333,-342.304"/>
<polygon fill="midnightblue" stroke="midnightblue" points="1308.35,-399.538 1318.75,-397.547 1309.38,-392.614 1308.35,-399.538"/>
</g>
<!-- Node18 -->
<g id="node18" class="node"><title>Node18</title>
<g id="a_node18"><a xlink:href="../../dd/dee/bombed__wall_8h.html" target="_top" xlink:title="src/creational/src\l/mazeparts/bombed_wall.h">
<polygon fill="white" stroke="black" points="1049,-162 1049,-192 1182,-192 1182,-162 1049,-162"/>
<text text-anchor="start" x="1057" y="-180" font-family="Helvetica,sans-Serif" font-size="10.00">src/creational/src</text>
<text text-anchor="middle" x="1115.5" y="-169" font-family="Helvetica,sans-Serif" font-size="10.00">/mazeparts/bombed_wall.h</text>
</a>
</g>
</g>
<!-- Node1&#45;&gt;Node18 -->
<g id="edge20" class="edge"><title>Node1&#45;&gt;Node18</title>
<path fill="none" stroke="midnightblue" d="M1308.61,-399.444C1272.81,-393.607 1227.65,-381.041 1196.5,-354 1145.19,-309.458 1124.42,-225.628 1117.94,-192.244"/>
<polygon fill="midnightblue" stroke="midnightblue" points="1308.51,-402.968 1318.92,-400.983 1309.54,-396.044 1308.51,-402.968"/>
</g>
<!-- Node21 -->
<g id="node21" class="node"><title>Node21</title>
<g id="a_node21"><a xlink:href="../../d9/d77/validator_8cc.html" target="_top" xlink:title="src/creational_tests\l/src/utils/validator.cc">
<polygon fill="white" stroke="black" points="1370.5,-84 1370.5,-114 1476.5,-114 1476.5,-84 1370.5,-84"/>
<text text-anchor="start" x="1378.5" y="-102" font-family="Helvetica,sans-Serif" font-size="10.00">src/creational_tests</text>
<text text-anchor="middle" x="1423.5" y="-91" font-family="Helvetica,sans-Serif" font-size="10.00">/src/utils/validator.cc</text>
</a>
</g>
</g>
<!-- Node1&#45;&gt;Node21 -->
<g id="edge32" class="edge"><title>Node1&#45;&gt;Node21</title>
<path fill="none" stroke="midnightblue" d="M1308.77,-398.569C1279.97,-392.36 1247.38,-379.711 1229.5,-354 1218.84,-338.675 1222.74,-329.4 1229.5,-312 1265,-220.619 1360.3,-144.617 1402.69,-114.224"/>
<polygon fill="midnightblue" stroke="midnightblue" points="1308.29,-402.04 1318.77,-400.508 1309.62,-395.168 1308.29,-402.04"/>
</g>
<!-- Node22 -->
<g id="node22" class="node"><title>Node22</title>
<g id="a_node22"><a xlink:href="../../d3/d4e/counting__maze__builder_8cc.html" target="_top" xlink:title="src/creational/src\l/builder/counting_maze\l_builder.cc">
<polygon fill="white" stroke="black" points="1239,-312.5 1239,-353.5 1356,-353.5 1356,-312.5 1239,-312.5"/>
<text text-anchor="start" x="1247" y="-341.5" font-family="Helvetica,sans-Serif" font-size="10.00">src/creational/src</text>
<text text-anchor="start" x="1247" y="-330.5" font-family="Helvetica,sans-Serif" font-size="10.00">/builder/counting_maze</text>
<text text-anchor="middle" x="1297.5" y="-319.5" font-family="Helvetica,sans-Serif" font-size="10.00">_builder.cc</text>
</a>
</g>
</g>
<!-- Node1&#45;&gt;Node22 -->
<g id="edge27" class="edge"><title>Node1&#45;&gt;Node22</title>
<path fill="none" stroke="midnightblue" d="M1344.59,-382.821C1335.59,-373.494 1325.15,-362.671 1316.39,-353.588"/>
<polygon fill="midnightblue" stroke="midnightblue" points="1342.28,-385.466 1351.74,-390.233 1347.32,-380.606 1342.28,-385.466"/>
</g>
<!-- Node23 -->
<g id="node23" class="node"><title>Node23</title>
<g id="a_node23"><a xlink:href="../../da/d3e/standard__maze__builder_8cc.html" target="_top" xlink:title="src/creational/src\l/builder/standard_maze\l_builder.cc">
<polygon fill="white" stroke="black" points="1374.5,-312.5 1374.5,-353.5 1492.5,-353.5 1492.5,-312.5 1374.5,-312.5"/>
<text text-anchor="start" x="1382.5" y="-341.5" font-family="Helvetica,sans-Serif" font-size="10.00">src/creational/src</text>
<text text-anchor="start" x="1382.5" y="-330.5" font-family="Helvetica,sans-Serif" font-size="10.00">/builder/standard_maze</text>
<text text-anchor="middle" x="1433.5" y="-319.5" font-family="Helvetica,sans-Serif" font-size="10.00">_builder.cc</text>
</a>
</g>
</g>
<!-- Node1&#45;&gt;Node23 -->
<g id="edge28" class="edge"><title>Node1&#45;&gt;Node23</title>
<path fill="none" stroke="midnightblue" d="M1386.41,-382.821C1395.41,-373.494 1405.85,-362.671 1414.61,-353.588"/>
<polygon fill="midnightblue" stroke="midnightblue" points="1383.68,-380.606 1379.26,-390.233 1388.72,-385.466 1383.68,-380.606"/>
</g>
<!-- Node24 -->
<g id="node24" class="node"><title>Node24</title>
<g id="a_node24"><a xlink:href="../../d7/de7/wall_8cc.html" target="_top" xlink:title="src/creational/src\l/mazeparts/wall.cc">
<polygon fill="white" stroke="black" points="1510.5,-318 1510.5,-348 1608.5,-348 1608.5,-318 1510.5,-318"/>
<text text-anchor="start" x="1518.5" y="-336" font-family="Helvetica,sans-Serif" font-size="10.00">src/creational/src</text>
<text text-anchor="middle" x="1559.5" y="-325" font-family="Helvetica,sans-Serif" font-size="10.00">/mazeparts/wall.cc</text>
</a>
</g>
</g>
<!-- Node1&#45;&gt;Node24 -->
<g id="edge29" class="edge"><title>Node1&#45;&gt;Node24</title>
<path fill="none" stroke="midnightblue" d="M1413.75,-386.965C1446.78,-374.962 1490,-359.258 1520.77,-348.073"/>
<polygon fill="midnightblue" stroke="midnightblue" points="1412.5,-383.698 1404.29,-390.403 1414.89,-390.277 1412.5,-383.698"/>
</g>
<!-- Node25 -->
<g id="node25" class="node"><title>Node25</title>
<g id="a_node25"><a xlink:href="../../d8/d4f/room__test_8cc.html" target="_top" xlink:title="src/creational_tests\l/src/mazeparts/room_test.cc">
<polygon fill="white" stroke="black" points="1626.5,-318 1626.5,-348 1768.5,-348 1768.5,-318 1626.5,-318"/>
<text text-anchor="start" x="1634.5" y="-336" font-family="Helvetica,sans-Serif" font-size="10.00">src/creational_tests</text>
<text text-anchor="middle" x="1697.5" y="-325" font-family="Helvetica,sans-Serif" font-size="10.00">/src/mazeparts/room_test.cc</text>
</a>
</g>
</g>
<!-- Node1&#45;&gt;Node25 -->
<g id="edge30" class="edge"><title>Node1&#45;&gt;Node25</title>
<path fill="none" stroke="midnightblue" d="M1421.96,-393.976C1473.14,-384.249 1550.57,-369.063 1617.5,-354 1625.74,-352.145 1634.43,-350.083 1642.93,-348.008"/>
<polygon fill="midnightblue" stroke="midnightblue" points="1421.26,-390.546 1412.08,-395.847 1422.56,-397.424 1421.26,-390.546"/>
</g>
<!-- Node26 -->
<g id="node26" class="node"><title>Node26</title>
<g id="a_node26"><a xlink:href="../../dd/db4/wall__test_8cc.html" target="_top" xlink:title="src/creational_tests\l/src/mazeparts/wall_test.cc">
<polygon fill="white" stroke="black" points="1787,-318 1787,-348 1924,-348 1924,-318 1787,-318"/>
<text text-anchor="start" x="1795" y="-336" font-family="Helvetica,sans-Serif" font-size="10.00">src/creational_tests</text>
<text text-anchor="middle" x="1855.5" y="-325" font-family="Helvetica,sans-Serif" font-size="10.00">/src/mazeparts/wall_test.cc</text>
</a>
</g>
</g>
<!-- Node1&#45;&gt;Node26 -->
<g id="edge31" class="edge"><title>Node1&#45;&gt;Node26</title>
<path fill="none" stroke="midnightblue" d="M1422.46,-399.86C1502.3,-392.827 1651.78,-377.719 1777.5,-354 1786.29,-352.341 1795.56,-350.262 1804.52,-348.076"/>
<polygon fill="midnightblue" stroke="midnightblue" points="1421.8,-396.405 1412.14,-400.759 1422.41,-403.378 1421.8,-396.405"/>
</g>
<!-- Node3 -->
<g id="node3" class="node"><title>Node3</title>
<g id="a_node3"><a xlink:href="../../d6/d3b/maze__factory_8h.html" target="_top" xlink:title="src/creational/src\l/abstractfactory/maze\l_factory.h">
<polygon fill="white" stroke="black" points="688,-234.5 688,-275.5 799,-275.5 799,-234.5 688,-234.5"/>
<text text-anchor="start" x="696" y="-263.5" font-family="Helvetica,sans-Serif" font-size="10.00">src/creational/src</text>
<text text-anchor="start" x="696" y="-252.5" font-family="Helvetica,sans-Serif" font-size="10.00">/abstractfactory/maze</text>
<text text-anchor="middle" x="743.5" y="-241.5" font-family="Helvetica,sans-Serif" font-size="10.00">_factory.h</text>
</a>
</g>
</g>
<!-- Node2&#45;&gt;Node3 -->
<g id="edge2" class="edge"><title>Node2&#45;&gt;Node3</title>
<path fill="none" stroke="midnightblue" d="M844.31,-307.768C824.023,-297.35 800.628,-285.336 781.485,-275.506"/>
<polygon fill="midnightblue" stroke="midnightblue" points="842.892,-310.973 853.386,-312.428 846.089,-304.747 842.892,-310.973"/>
</g>
<!-- Node4 -->
<g id="node4" class="node"><title>Node4</title>
<g id="a_node4"><a xlink:href="../../d5/dcd/bombed__maze__factory_8h.html" target="_top" xlink:title="src/creational/src\l/abstractfactory/bombed\l_maze_factory.h">
<polygon fill="white" stroke="black" points="887.5,-156.5 887.5,-197.5 1009.5,-197.5 1009.5,-156.5 887.5,-156.5"/>
<text text-anchor="start" x="895.5" y="-185.5" font-family="Helvetica,sans-Serif" font-size="10.00">src/creational/src</text>
<text text-anchor="start" x="895.5" y="-174.5" font-family="Helvetica,sans-Serif" font-size="10.00">/abstractfactory/bombed</text>
<text text-anchor="middle" x="948.5" y="-163.5" font-family="Helvetica,sans-Serif" font-size="10.00">_maze_factory.h</text>
</a>
</g>
</g>
<!-- Node3&#45;&gt;Node4 -->
<g id="edge3" class="edge"><title>Node3&#45;&gt;Node4</title>
<path fill="none" stroke="midnightblue" d="M805.843,-230.887C834.621,-220.219 868.415,-207.69 895.886,-197.506"/>
<polygon fill="midnightblue" stroke="midnightblue" points="804.452,-227.67 796.293,-234.428 806.886,-234.234 804.452,-227.67"/>
</g>
<!-- Node7 -->
<g id="node7" class="node"><title>Node7</title>
<g id="a_node7"><a xlink:href="../../dd/d80/enchanted__maze__factory_8h.html" target="_top" xlink:title="src/creational/src\l/abstractfactory/enchanted\l_maze_factory.h">
<polygon fill="white" stroke="black" points="607.5,-156.5 607.5,-197.5 739.5,-197.5 739.5,-156.5 607.5,-156.5"/>
<text text-anchor="start" x="615.5" y="-185.5" font-family="Helvetica,sans-Serif" font-size="10.00">src/creational/src</text>
<text text-anchor="start" x="615.5" y="-174.5" font-family="Helvetica,sans-Serif" font-size="10.00">/abstractfactory/enchanted</text>
<text text-anchor="middle" x="673.5" y="-163.5" font-family="Helvetica,sans-Serif" font-size="10.00">_maze_factory.h</text>
</a>
</g>
</g>
<!-- Node3&#45;&gt;Node7 -->
<g id="edge6" class="edge"><title>Node3&#45;&gt;Node7</title>
<path fill="none" stroke="midnightblue" d="M718.554,-226.916C709.608,-217.203 699.704,-206.45 691.466,-197.506"/>
<polygon fill="midnightblue" stroke="midnightblue" points="716.124,-229.444 725.473,-234.428 721.273,-224.701 716.124,-229.444"/>
</g>
<!-- Node9 -->
<g id="node9" class="node"><title>Node9</title>
<g id="a_node9"><a xlink:href="../../d1/da8/maze__factory_8cc.html" target="_top" xlink:title="src/creational/src\l/abstractfactory/maze\l_factory.cc">
<polygon fill="white" stroke="black" points="758,-156.5 758,-197.5 869,-197.5 869,-156.5 758,-156.5"/>
<text text-anchor="start" x="766" y="-185.5" font-family="Helvetica,sans-Serif" font-size="10.00">src/creational/src</text>
<text text-anchor="start" x="766" y="-174.5" font-family="Helvetica,sans-Serif" font-size="10.00">/abstractfactory/maze</text>
<text text-anchor="middle" x="813.5" y="-163.5" font-family="Helvetica,sans-Serif" font-size="10.00">_factory.cc</text>
</a>
</g>
</g>
<!-- Node3&#45;&gt;Node9 -->
<g id="edge9" class="edge"><title>Node3&#45;&gt;Node9</title>
<path fill="none" stroke="midnightblue" d="M768.446,-226.916C777.392,-217.203 787.296,-206.45 795.534,-197.506"/>
<polygon fill="midnightblue" stroke="midnightblue" points="765.727,-224.701 761.527,-234.428 770.876,-229.444 765.727,-224.701"/>
</g>
<!-- Node10 -->
<g id="node10" class="node"><title>Node10</title>
<g id="a_node10"><a xlink:href="../../d2/df0/maze__game_8h.html" target="_top" xlink:title="src/creational/src\l/mazegame/maze_game.h">
<polygon fill="white" stroke="black" points="295.5,-162 295.5,-192 427.5,-192 427.5,-162 295.5,-162"/>
<text text-anchor="start" x="303.5" y="-180" font-family="Helvetica,sans-Serif" font-size="10.00">src/creational/src</text>
<text text-anchor="middle" x="361.5" y="-169" font-family="Helvetica,sans-Serif" font-size="10.00">/mazegame/maze_game.h</text>
</a>
</g>
</g>
<!-- Node3&#45;&gt;Node10 -->
<g id="edge10" class="edge"><title>Node3&#45;&gt;Node10</title>
<path fill="none" stroke="midnightblue" d="M677.651,-242.456C617.355,-231.679 525.717,-214.779 446.5,-198 437.75,-196.147 428.518,-194.085 419.491,-192.01"/>
<polygon fill="midnightblue" stroke="midnightblue" points="677.333,-245.955 687.792,-244.264 678.562,-239.063 677.333,-245.955"/>
</g>
<!-- Node16 -->
<g id="node16" class="node"><title>Node16</title>
<g id="a_node16"><a xlink:href="../../d3/da8/maze__prototype__factory_8h.html" target="_top" xlink:title="src/creational/src\l/prototype/maze_prototype\l_factory.h">
<polygon fill="white" stroke="black" points="456,-156.5 456,-197.5 589,-197.5 589,-156.5 456,-156.5"/>
<text text-anchor="start" x="464" y="-185.5" font-family="Helvetica,sans-Serif" font-size="10.00">src/creational/src</text>
<text text-anchor="start" x="464" y="-174.5" font-family="Helvetica,sans-Serif" font-size="10.00">/prototype/maze_prototype</text>
<text text-anchor="middle" x="522.5" y="-163.5" font-family="Helvetica,sans-Serif" font-size="10.00">_factory.h</text>
</a>
</g>
</g>
<!-- Node3&#45;&gt;Node16 -->
<g id="edge17" class="edge"><title>Node3&#45;&gt;Node16</title>
<path fill="none" stroke="midnightblue" d="M678.201,-231.544C646.834,-220.758 609.597,-207.952 579.404,-197.569"/>
<polygon fill="midnightblue" stroke="midnightblue" points="677.138,-234.88 687.732,-234.822 679.414,-228.26 677.138,-234.88"/>
</g>
<!-- Node5 -->
<g id="node5" class="node"><title>Node5</title>
<g id="a_node5"><a xlink:href="../../d9/d3b/bombed__maze__factory_8cc.html" target="_top" xlink:title="src/creational/src\l/abstractfactory/bombed\l_maze_factory.cc">
<polygon fill="white" stroke="black" points="898.5,-78.5 898.5,-119.5 1020.5,-119.5 1020.5,-78.5 898.5,-78.5"/>
<text text-anchor="start" x="906.5" y="-107.5" font-family="Helvetica,sans-Serif" font-size="10.00">src/creational/src</text>
<text text-anchor="start" x="906.5" y="-96.5" font-family="Helvetica,sans-Serif" font-size="10.00">/abstractfactory/bombed</text>
<text text-anchor="middle" x="959.5" y="-85.5" font-family="Helvetica,sans-Serif" font-size="10.00">_maze_factory.cc</text>
</a>
</g>
</g>
<!-- Node4&#45;&gt;Node5 -->
<g id="edge4" class="edge"><title>Node4&#45;&gt;Node5</title>
<path fill="none" stroke="midnightblue" d="M952.799,-146.297C954.101,-137.301 955.498,-127.653 956.677,-119.506"/>
<polygon fill="midnightblue" stroke="midnightblue" points="949.301,-146.03 951.333,-156.428 956.229,-147.033 949.301,-146.03"/>
</g>
<!-- Node6 -->
<g id="node6" class="node"><title>Node6</title>
<g id="a_node6"><a xlink:href="../../d5/d51/maze__game__test_8cc.html" target="_top" xlink:title="src/creational_tests\l/src/mazegame/maze_game\l_test.cc">
<polygon fill="white" stroke="black" points="740.5,-78.5 740.5,-119.5 880.5,-119.5 880.5,-78.5 740.5,-78.5"/>
<text text-anchor="start" x="748.5" y="-107.5" font-family="Helvetica,sans-Serif" font-size="10.00">src/creational_tests</text>
<text text-anchor="start" x="748.5" y="-96.5" font-family="Helvetica,sans-Serif" font-size="10.00">/src/mazegame/maze_game</text>
<text text-anchor="middle" x="810.5" y="-85.5" font-family="Helvetica,sans-Serif" font-size="10.00">_test.cc</text>
</a>
</g>
</g>
<!-- Node4&#45;&gt;Node6 -->
<g id="edge5" class="edge"><title>Node4&#45;&gt;Node6</title>
<path fill="none" stroke="midnightblue" d="M903.987,-151.486C885.19,-141.134 863.607,-129.247 845.918,-119.506"/>
<polygon fill="midnightblue" stroke="midnightblue" points="902.514,-154.67 912.962,-156.428 905.891,-148.538 902.514,-154.67"/>
</g>
<!-- Node7&#45;&gt;Node6 -->
<g id="edge8" class="edge"><title>Node7&#45;&gt;Node6</title>
<path fill="none" stroke="midnightblue" d="M717.69,-151.486C736.351,-141.134 757.778,-129.247 775.339,-119.506"/>
<polygon fill="midnightblue" stroke="midnightblue" points="715.828,-148.516 708.781,-156.428 719.223,-154.638 715.828,-148.516"/>
</g>
<!-- Node8 -->
<g id="node8" class="node"><title>Node8</title>
<g id="a_node8"><a xlink:href="../../d3/d4b/enchanted__maze__factory_8cc.html" target="_top" xlink:title="src/creational/src\l/abstractfactory/enchanted\l_maze_factory.cc">
<polygon fill="white" stroke="black" points="590.5,-78.5 590.5,-119.5 722.5,-119.5 722.5,-78.5 590.5,-78.5"/>
<text text-anchor="start" x="598.5" y="-107.5" font-family="Helvetica,sans-Serif" font-size="10.00">src/creational/src</text>
<text text-anchor="start" x="598.5" y="-96.5" font-family="Helvetica,sans-Serif" font-size="10.00">/abstractfactory/enchanted</text>
<text text-anchor="middle" x="656.5" y="-85.5" font-family="Helvetica,sans-Serif" font-size="10.00">_maze_factory.cc</text>
</a>
</g>
</g>
<!-- Node7&#45;&gt;Node8 -->
<g id="edge7" class="edge"><title>Node7&#45;&gt;Node8</title>
<path fill="none" stroke="midnightblue" d="M666.921,-146.59C664.891,-137.511 662.705,-127.742 660.863,-119.506"/>
<polygon fill="midnightblue" stroke="midnightblue" points="663.524,-147.433 669.122,-156.428 670.355,-145.905 663.524,-147.433"/>
</g>
<!-- Node10&#45;&gt;Node6 -->
<g id="edge16" class="edge"><title>Node10&#45;&gt;Node6</title>
<path fill="none" stroke="midnightblue" d="M427.555,-159.742C433.939,-158.387 440.332,-157.112 446.5,-156 572.148,-133.347 606.048,-143.711 731.5,-120 734.419,-119.448 737.391,-118.852 740.388,-118.223"/>
<polygon fill="midnightblue" stroke="midnightblue" points="426.585,-156.371 417.563,-161.927 428.08,-163.21 426.585,-156.371"/>
</g>
<!-- Node11 -->
<g id="node11" class="node"><title>Node11</title>
<g id="a_node11"><a xlink:href="../../d6/d92/bombed__maze__game_8h.html" target="_top" xlink:title="src/creational/src\l/factorymethod/bombed\l_maze_game.h">
<polygon fill="white" stroke="black" points="302,-78.5 302,-119.5 421,-119.5 421,-78.5 302,-78.5"/>
<text text-anchor="start" x="310" y="-107.5" font-family="Helvetica,sans-Serif" font-size="10.00">src/creational/src</text>
<text text-anchor="start" x="310" y="-96.5" font-family="Helvetica,sans-Serif" font-size="10.00">/factorymethod/bombed</text>
<text text-anchor="middle" x="361.5" y="-85.5" font-family="Helvetica,sans-Serif" font-size="10.00">_maze_game.h</text>
</a>
</g>
</g>
<!-- Node10&#45;&gt;Node11 -->
<g id="edge11" class="edge"><title>Node10&#45;&gt;Node11</title>
<path fill="none" stroke="midnightblue" d="M361.5,-151.656C361.5,-141.326 361.5,-129.443 361.5,-119.68"/>
<polygon fill="midnightblue" stroke="midnightblue" points="358,-151.705 361.5,-161.705 365,-151.705 358,-151.705"/>
</g>
<!-- Node13 -->
<g id="node13" class="node"><title>Node13</title>
<g id="a_node13"><a xlink:href="../../df/d13/enchanted__maze__game_8h.html" target="_top" xlink:title="src/creational/src\l/factorymethod/enchanted\l_maze_game.h">
<polygon fill="white" stroke="black" points="155,-78.5 155,-119.5 284,-119.5 284,-78.5 155,-78.5"/>
<text text-anchor="start" x="163" y="-107.5" font-family="Helvetica,sans-Serif" font-size="10.00">src/creational/src</text>
<text text-anchor="start" x="163" y="-96.5" font-family="Helvetica,sans-Serif" font-size="10.00">/factorymethod/enchanted</text>
<text text-anchor="middle" x="219.5" y="-85.5" font-family="Helvetica,sans-Serif" font-size="10.00">_maze_game.h</text>
</a>
</g>
</g>
<!-- Node10&#45;&gt;Node13 -->
<g id="edge13" class="edge"><title>Node10&#45;&gt;Node13</title>
<path fill="none" stroke="midnightblue" d="M326.08,-157.043C304.773,-145.639 277.701,-131.15 256.173,-119.628"/>
<polygon fill="midnightblue" stroke="midnightblue" points="324.655,-160.25 335.124,-161.883 327.959,-154.078 324.655,-160.25"/>
</g>
<!-- Node15 -->
<g id="node15" class="node"><title>Node15</title>
<g id="a_node15"><a xlink:href="../../d6/d51/maze__game_8cc.html" target="_top" xlink:title="src/creational/src\l/mazegame/maze_game.cc">
<polygon fill="white" stroke="black" points="0,-84 0,-114 137,-114 137,-84 0,-84"/>
<text text-anchor="start" x="8" y="-102" font-family="Helvetica,sans-Serif" font-size="10.00">src/creational/src</text>
<text text-anchor="middle" x="68.5" y="-91" font-family="Helvetica,sans-Serif" font-size="10.00">/mazegame/maze_game.cc</text>
</a>
</g>
</g>
<!-- Node10&#45;&gt;Node15 -->
<g id="edge15" class="edge"><title>Node10&#45;&gt;Node15</title>
<path fill="none" stroke="midnightblue" d="M297.585,-159.437C254.591,-148.294 196.638,-133.27 145.5,-120 138.147,-118.092 130.4,-116.081 122.766,-114.098"/>
<polygon fill="midnightblue" stroke="midnightblue" points="296.791,-162.847 307.349,-161.968 298.547,-156.071 296.791,-162.847"/>
</g>
<!-- Node12 -->
<g id="node12" class="node"><title>Node12</title>
<g id="a_node12"><a xlink:href="../../d4/d89/bombed__maze__game_8cc.html" target="_top" xlink:title="src/creational/src\l/factorymethod/bombed\l_maze_game.cc">
<polygon fill="white" stroke="black" points="645,-0.5 645,-41.5 764,-41.5 764,-0.5 645,-0.5"/>
<text text-anchor="start" x="653" y="-29.5" font-family="Helvetica,sans-Serif" font-size="10.00">src/creational/src</text>
<text text-anchor="start" x="653" y="-18.5" font-family="Helvetica,sans-Serif" font-size="10.00">/factorymethod/bombed</text>
<text text-anchor="middle" x="704.5" y="-7.5" font-family="Helvetica,sans-Serif" font-size="10.00">_maze_game.cc</text>
</a>
</g>
</g>
<!-- Node11&#45;&gt;Node12 -->
<g id="edge12" class="edge"><title>Node11&#45;&gt;Node12</title>
<path fill="none" stroke="midnightblue" d="M431.235,-77.654C510.138,-58.3418 591.266,-42.5204 644.896,-32.6209"/>
<polygon fill="midnightblue" stroke="midnightblue" points="429.995,-74.3551 421.126,-80.1509 431.673,-81.1509 429.995,-74.3551"/>
</g>
<!-- Node14 -->
<g id="node14" class="node"><title>Node14</title>
<g id="a_node14"><a xlink:href="../../db/db5/enchanted__maze__game_8cc.html" target="_top" xlink:title="src/creational/src\l/factorymethod/enchanted\l_maze_game.cc">
<polygon fill="white" stroke="black" points="155,-0.5 155,-41.5 284,-41.5 284,-0.5 155,-0.5"/>
<text text-anchor="start" x="163" y="-29.5" font-family="Helvetica,sans-Serif" font-size="10.00">src/creational/src</text>
<text text-anchor="start" x="163" y="-18.5" font-family="Helvetica,sans-Serif" font-size="10.00">/factorymethod/enchanted</text>
<text text-anchor="middle" x="219.5" y="-7.5" font-family="Helvetica,sans-Serif" font-size="10.00">_maze_game.cc</text>
</a>
</g>
</g>
<!-- Node13&#45;&gt;Node14 -->
<g id="edge14" class="edge"><title>Node13&#45;&gt;Node14</title>
<path fill="none" stroke="midnightblue" d="M219.5,-68.2965C219.5,-59.3009 219.5,-49.6532 219.5,-41.5056"/>
<polygon fill="midnightblue" stroke="midnightblue" points="216,-68.4281 219.5,-78.4281 223,-68.4281 216,-68.4281"/>
</g>
<!-- Node16&#45;&gt;Node6 -->
<g id="edge19" class="edge"><title>Node16&#45;&gt;Node6</title>
<path fill="none" stroke="midnightblue" d="M599.053,-155.799C642.911,-144.225 697.551,-129.806 740.301,-118.525"/>
<polygon fill="midnightblue" stroke="midnightblue" points="598.073,-152.437 589.297,-158.373 599.859,-159.206 598.073,-152.437"/>
</g>
<!-- Node17 -->
<g id="node17" class="node"><title>Node17</title>
<g id="a_node17"><a xlink:href="../../d5/d25/maze__prototype__factory_8cc.html" target="_top" xlink:title="src/creational/src\l/prototype/maze_prototype\l_factory.cc">
<polygon fill="white" stroke="black" points="439,-78.5 439,-119.5 572,-119.5 572,-78.5 439,-78.5"/>
<text text-anchor="start" x="447" y="-107.5" font-family="Helvetica,sans-Serif" font-size="10.00">src/creational/src</text>
<text text-anchor="start" x="447" y="-96.5" font-family="Helvetica,sans-Serif" font-size="10.00">/prototype/maze_prototype</text>
<text text-anchor="middle" x="505.5" y="-85.5" font-family="Helvetica,sans-Serif" font-size="10.00">_factory.cc</text>
</a>
</g>
</g>
<!-- Node16&#45;&gt;Node17 -->
<g id="edge18" class="edge"><title>Node16&#45;&gt;Node17</title>
<path fill="none" stroke="midnightblue" d="M515.921,-146.59C513.891,-137.511 511.705,-127.742 509.863,-119.506"/>
<polygon fill="midnightblue" stroke="midnightblue" points="512.524,-147.433 518.122,-156.428 519.355,-145.905 512.524,-147.433"/>
</g>
<!-- Node18&#45;&gt;Node5 -->
<g id="edge21" class="edge"><title>Node18&#45;&gt;Node5</title>
<path fill="none" stroke="midnightblue" d="M1077.53,-157.501C1053.98,-146.029 1023.76,-131.305 999.789,-119.628"/>
<polygon fill="midnightblue" stroke="midnightblue" points="1076,-160.65 1086.52,-161.883 1079.07,-154.357 1076,-160.65"/>
</g>
<!-- Node18&#45;&gt;Node6 -->
<g id="edge24" class="edge"><title>Node18&#45;&gt;Node6</title>
<path fill="none" stroke="midnightblue" d="M1048.43,-159.475C1003.45,-148.371 942.906,-133.377 889.5,-120 886.618,-119.278 883.677,-118.54 880.707,-117.793"/>
<polygon fill="midnightblue" stroke="midnightblue" points="1047.81,-162.927 1058.36,-161.925 1049.49,-156.131 1047.81,-162.927"/>
</g>
<!-- Node18&#45;&gt;Node12 -->
<g id="edge22" class="edge"><title>Node18&#45;&gt;Node12</title>
<path fill="none" stroke="midnightblue" d="M1096.43,-153.904C1071.76,-125.379 1031.68,-79.2207 1029.5,-78 985.042,-53.0982 845.284,-35.7518 764.246,-27.493"/>
<polygon fill="midnightblue" stroke="midnightblue" points="1094.05,-156.498 1103.23,-161.776 1099.34,-151.921 1094.05,-156.498"/>
</g>
<!-- Node19 -->
<g id="node19" class="node"><title>Node19</title>
<g id="a_node19"><a xlink:href="../../d7/dd3/bombed__wall_8cc.html" target="_top" xlink:title="src/creational/src\l/mazeparts/bombed_wall.cc">
<polygon fill="white" stroke="black" points="1214.5,-84 1214.5,-114 1352.5,-114 1352.5,-84 1214.5,-84"/>
<text text-anchor="start" x="1222.5" y="-102" font-family="Helvetica,sans-Serif" font-size="10.00">src/creational/src</text>
<text text-anchor="middle" x="1283.5" y="-91" font-family="Helvetica,sans-Serif" font-size="10.00">/mazeparts/bombed_wall.cc</text>
</a>
</g>
</g>
<!-- Node18&#45;&gt;Node19 -->
<g id="edge23" class="edge"><title>Node18&#45;&gt;Node19</title>
<path fill="none" stroke="midnightblue" d="M1155.96,-157.699C1185.61,-144.282 1225.28,-126.336 1252.46,-114.041"/>
<polygon fill="midnightblue" stroke="midnightblue" points="1154.37,-154.572 1146.71,-161.883 1157.26,-160.95 1154.37,-154.572"/>
</g>
<!-- Node20 -->
<g id="node20" class="node"><title>Node20</title>
<g id="a_node20"><a xlink:href="../../d8/d1d/bombed__wall__test_8cc.html" target="_top" xlink:title="src/creational_tests\l/src/mazeparts/bombed\l_wall_test.cc">
<polygon fill="white" stroke="black" points="1077,-78.5 1077,-119.5 1196,-119.5 1196,-78.5 1077,-78.5"/>
<text text-anchor="start" x="1085" y="-107.5" font-family="Helvetica,sans-Serif" font-size="10.00">src/creational_tests</text>
<text text-anchor="start" x="1085" y="-96.5" font-family="Helvetica,sans-Serif" font-size="10.00">/src/mazeparts/bombed</text>
<text text-anchor="middle" x="1136.5" y="-85.5" font-family="Helvetica,sans-Serif" font-size="10.00">_wall_test.cc</text>
</a>
</g>
</g>
<!-- Node18&#45;&gt;Node20 -->
<g id="edge25" class="edge"><title>Node18&#45;&gt;Node20</title>
<path fill="none" stroke="midnightblue" d="M1122.14,-151.982C1125.01,-141.576 1128.34,-129.545 1131.06,-119.68"/>
<polygon fill="midnightblue" stroke="midnightblue" points="1118.74,-151.134 1119.45,-161.705 1125.49,-152.998 1118.74,-151.134"/>
</g>
<!-- Node18&#45;&gt;Node21 -->
<g id="edge26" class="edge"><title>Node18&#45;&gt;Node21</title>
<path fill="none" stroke="midnightblue" d="M1181.45,-159.558C1186.54,-158.338 1191.6,-157.139 1196.5,-156 1269.61,-139.002 1289.03,-139.545 1361.5,-120 1368.16,-118.204 1375.17,-116.128 1381.98,-114.007"/>
<polygon fill="midnightblue" stroke="midnightblue" points="1180.56,-156.172 1171.66,-161.922 1182.21,-162.976 1180.56,-156.172"/>
</g>
</g>
</svg>
