<?xml version="1.0" encoding="UTF-8" standalone="no"?>
<!DOCTYPE svg PUBLIC "-//W3C//DTD SVG 1.1//EN"
 "http://www.w3.org/Graphics/SVG/1.1/DTD/svg11.dtd">
<!-- Generated by graphviz version 2.38.0 (20140413.2041)
 -->
<!-- Title: src/creational/src/abstractfactory/maze_factory.h Pages: 1 -->
<!--zoomable 284 -->
<svg id="main" version="1.1" xmlns="http://www.w3.org/2000/svg" xmlns:xlink="http://www.w3.org/1999/xlink" xml:space="preserve" onload="init(evt)">
<style type="text/css"><![CDATA[
.edge:hover path { stroke: red; }
.edge:hover polygon { stroke: red; fill: red; }
]]></style>
<script type="text/javascript"><![CDATA[
var edges = document.getElementsByTagName('g');
if (edges && edges.length) {
  for (var i=0;i<edges.length;i++) {
    if (edges[i].id.substr(0,4)=='edge') {
      edges[i].setAttribute('class','edge');
    }
  }
}
]]></script>
        <defs>
                <circle id="rim" cx="0" cy="0" r="7"/>
                <circle id="rim2" cx="0" cy="0" r="3.5"/>
                <g id="zoomPlus">
                        <use xlink:href="#rim" fill="#404040">
                                <set attributeName="fill" to="#808080" begin="zoomplus.mouseover" end="zoomplus.mouseout"/>
                        </use>
                        <path d="M-4,0h8M0,-4v8" fill="none" stroke="white" stroke-width="1.5" pointer-events="none"/>
                </g>
                <g id="zoomMin">
                        <use xlink:href="#rim" fill="#404040">
                                <set attributeName="fill" to="#808080" begin="zoomminus.mouseover" end="zoomminus.mouseout"/>
                        </use>
                        <path d="M-4,0h8" fill="none" stroke="white" stroke-width="1.5" pointer-events="none"/>
                </g>
                <g id="dirArrow">
                        <path fill="none" stroke="white" stroke-width="1.5" d="M0,-3.0v7 M-2.5,-0.5L0,-3.0L2.5,-0.5"/>
                </g>
               <g id="resetDef">
                       <use xlink:href="#rim2" fill="#404040">
                               <set attributeName="fill" to="#808080" begin="reset.mouseover" end="reset.mouseout"/>
                       </use>
               </g>
        </defs>

<script type="text/javascript">
var viewWidth = 1029;
var viewHeight = 284;
var sectionId = 'dynsection-1';
</script>
<script xlink:href="../../svgpan.js"/>
<svg id="graph" class="graph">
<g id="viewport">
<title>src/creational/src/abstractfactory/maze_factory.h</title>
<polygon fill="white" stroke="none" points="-4,4 -4,-280 1024.5,-280 1024.5,4 -4,4"/>
<!-- Node1 -->
<g id="node1" class="node"><title>Node1</title>
<polygon fill="#bfbfbf" stroke="black" points="453.5,-234.5 453.5,-275.5 564.5,-275.5 564.5,-234.5 453.5,-234.5"/>
<text text-anchor="start" x="461.5" y="-263.5" font-family="Helvetica,sans-Serif" font-size="10.00">src/creational/src</text>
<text text-anchor="start" x="461.5" y="-252.5" font-family="Helvetica,sans-Serif" font-size="10.00">/abstractfactory/maze</text>
<text text-anchor="middle" x="509" y="-241.5" font-family="Helvetica,sans-Serif" font-size="10.00">_factory.h</text>
</g>
<!-- Node2 -->
<g id="node2" class="node"><title>Node2</title>
<g id="a_node2"><a xlink:href="../../d5/dcd/bombed__maze__factory_8h.html" target="_top" xlink:title="src/creational/src\l/abstractfactory/bombed\l_maze_factory.h">
<polygon fill="white" stroke="black" points="153,-156.5 153,-197.5 275,-197.5 275,-156.5 153,-156.5"/>
<text text-anchor="start" x="161" y="-185.5" font-family="Helvetica,sans-Serif" font-size="10.00">src/creational/src</text>
<text text-anchor="start" x="161" y="-174.5" font-family="Helvetica,sans-Serif" font-size="10.00">/abstractfactory/bombed</text>
<text text-anchor="middle" x="214" y="-163.5" font-family="Helvetica,sans-Serif" font-size="10.00">_maze_factory.h</text>
</a>
</g>
</g>
<!-- Node1&#45;&gt;Node2 -->
<g id="edge1" class="edge"><title>Node1&#45;&gt;Node2</title>
<path fill="none" stroke="midnightblue" d="M443.466,-238.319C398.497,-227.404 337.51,-212.299 284,-198 281.069,-197.217 278.073,-196.405 275.049,-195.576"/>
<polygon fill="midnightblue" stroke="midnightblue" points="442.841,-241.769 453.384,-240.721 444.489,-234.965 442.841,-241.769"/>
</g>
<!-- Node5 -->
<g id="node5" class="node"><title>Node5</title>
<g id="a_node5"><a xlink:href="../../dd/d80/enchanted__maze__factory_8h.html" target="_top" xlink:title="src/creational/src\l/abstractfactory/enchanted\l_maze_factory.h">
<polygon fill="white" stroke="black" points="293,-156.5 293,-197.5 425,-197.5 425,-156.5 293,-156.5"/>
<text text-anchor="start" x="301" y="-185.5" font-family="Helvetica,sans-Serif" font-size="10.00">src/creational/src</text>
<text text-anchor="start" x="301" y="-174.5" font-family="Helvetica,sans-Serif" font-size="10.00">/abstractfactory/enchanted</text>
<text text-anchor="middle" x="359" y="-163.5" font-family="Helvetica,sans-Serif" font-size="10.00">_maze_factory.h</text>
</a>
</g>
</g>
<!-- Node1&#45;&gt;Node5 -->
<g id="edge4" class="edge"><title>Node1&#45;&gt;Node5</title>
<path fill="none" stroke="midnightblue" d="M461.45,-229.908C440.825,-219.458 416.987,-207.38 397.498,-197.506"/>
<polygon fill="midnightblue" stroke="midnightblue" points="459.869,-233.031 470.371,-234.428 463.033,-226.786 459.869,-233.031"/>
</g>
<!-- Node7 -->
<g id="node7" class="node"><title>Node7</title>
<g id="a_node7"><a xlink:href="../../d1/da8/maze__factory_8cc.html" target="_top" xlink:title="src/creational/src\l/abstractfactory/maze\l_factory.cc">
<polygon fill="white" stroke="black" points="744.5,-156.5 744.5,-197.5 855.5,-197.5 855.5,-156.5 744.5,-156.5"/>
<text text-anchor="start" x="752.5" y="-185.5" font-family="Helvetica,sans-Serif" font-size="10.00">src/creational/src</text>
<text text-anchor="start" x="752.5" y="-174.5" font-family="Helvetica,sans-Serif" font-size="10.00">/abstractfactory/maze</text>
<text text-anchor="middle" x="800" y="-163.5" font-family="Helvetica,sans-Serif" font-size="10.00">_factory.cc</text>
</a>
</g>
</g>
<!-- Node1&#45;&gt;Node7 -->
<g id="edge7" class="edge"><title>Node1&#45;&gt;Node7</title>
<path fill="none" stroke="midnightblue" d="M574.494,-238.961C619.988,-228.241 681.913,-213.107 736,-198 738.691,-197.248 741.44,-196.462 744.212,-195.654"/>
<polygon fill="midnightblue" stroke="midnightblue" points="573.69,-235.554 564.755,-241.247 575.29,-242.369 573.69,-235.554"/>
</g>
<!-- Node8 -->
<g id="node8" class="node"><title>Node8</title>
<g id="a_node8"><a xlink:href="../../d2/df0/maze__game_8h.html" target="_top" xlink:title="src/creational/src\l/mazegame/maze_game.h">
<polygon fill="white" stroke="black" points="443,-162 443,-192 575,-192 575,-162 443,-162"/>
<text text-anchor="start" x="451" y="-180" font-family="Helvetica,sans-Serif" font-size="10.00">src/creational/src</text>
<text text-anchor="middle" x="509" y="-169" font-family="Helvetica,sans-Serif" font-size="10.00">/mazegame/maze_game.h</text>
</a>
</g>
</g>
<!-- Node1&#45;&gt;Node8 -->
<g id="edge8" class="edge"><title>Node1&#45;&gt;Node8</title>
<path fill="none" stroke="midnightblue" d="M509,-224.283C509,-213.254 509,-201.246 509,-192.225"/>
<polygon fill="midnightblue" stroke="midnightblue" points="505.5,-224.428 509,-234.428 512.5,-224.428 505.5,-224.428"/>
</g>
<!-- Node14 -->
<g id="node14" class="node"><title>Node14</title>
<g id="a_node14"><a xlink:href="../../d3/da8/maze__prototype__factory_8h.html" target="_top" xlink:title="src/creational/src\l/prototype/maze_prototype\l_factory.h">
<polygon fill="white" stroke="black" points="593.5,-156.5 593.5,-197.5 726.5,-197.5 726.5,-156.5 593.5,-156.5"/>
<text text-anchor="start" x="601.5" y="-185.5" font-family="Helvetica,sans-Serif" font-size="10.00">src/creational/src</text>
<text text-anchor="start" x="601.5" y="-174.5" font-family="Helvetica,sans-Serif" font-size="10.00">/prototype/maze_prototype</text>
<text text-anchor="middle" x="660" y="-163.5" font-family="Helvetica,sans-Serif" font-size="10.00">_factory.h</text>
</a>
</g>
</g>
<!-- Node1&#45;&gt;Node14 -->
<g id="edge15" class="edge"><title>Node1&#45;&gt;Node14</title>
<path fill="none" stroke="midnightblue" d="M556.867,-229.908C577.629,-219.458 601.626,-207.38 621.246,-197.506"/>
<polygon fill="midnightblue" stroke="midnightblue" points="555.245,-226.806 547.886,-234.428 558.392,-233.059 555.245,-226.806"/>
</g>
<!-- Node3 -->
<g id="node3" class="node"><title>Node3</title>
<g id="a_node3"><a xlink:href="../../d9/d3b/bombed__maze__factory_8cc.html" target="_top" xlink:title="src/creational/src\l/abstractfactory/bombed\l_maze_factory.cc">
<polygon fill="white" stroke="black" points="0,-78.5 0,-119.5 122,-119.5 122,-78.5 0,-78.5"/>
<text text-anchor="start" x="8" y="-107.5" font-family="Helvetica,sans-Serif" font-size="10.00">src/creational/src</text>
<text text-anchor="start" x="8" y="-96.5" font-family="Helvetica,sans-Serif" font-size="10.00">/abstractfactory/bombed</text>
<text text-anchor="middle" x="61" y="-85.5" font-family="Helvetica,sans-Serif" font-size="10.00">_maze_factory.cc</text>
</a>
</g>
</g>
<!-- Node2&#45;&gt;Node3 -->
<g id="edge2" class="edge"><title>Node2&#45;&gt;Node3</title>
<path fill="none" stroke="midnightblue" d="M165.499,-151.908C144.462,-141.458 120.147,-129.38 100.268,-119.506"/>
<polygon fill="midnightblue" stroke="midnightblue" points="164.086,-155.114 174.599,-156.428 167.2,-148.845 164.086,-155.114"/>
</g>
<!-- Node4 -->
<g id="node4" class="node"><title>Node4</title>
<g id="a_node4"><a xlink:href="../../d5/d51/maze__game__test_8cc.html" target="_top" xlink:title="src/creational_tests\l/src/mazegame/maze_game\l_test.cc">
<polygon fill="white" stroke="black" points="290,-78.5 290,-119.5 430,-119.5 430,-78.5 290,-78.5"/>
<text text-anchor="start" x="298" y="-107.5" font-family="Helvetica,sans-Serif" font-size="10.00">src/creational_tests</text>
<text text-anchor="start" x="298" y="-96.5" font-family="Helvetica,sans-Serif" font-size="10.00">/src/mazegame/maze_game</text>
<text text-anchor="middle" x="360" y="-85.5" font-family="Helvetica,sans-Serif" font-size="10.00">_test.cc</text>
</a>
</g>
</g>
<!-- Node2&#45;&gt;Node4 -->
<g id="edge3" class="edge"><title>Node2&#45;&gt;Node4</title>
<path fill="none" stroke="midnightblue" d="M260.552,-151.768C280.565,-141.35 303.644,-129.336 322.529,-119.506"/>
<polygon fill="midnightblue" stroke="midnightblue" points="258.853,-148.706 251.599,-156.428 262.085,-154.915 258.853,-148.706"/>
</g>
<!-- Node5&#45;&gt;Node4 -->
<g id="edge6" class="edge"><title>Node5&#45;&gt;Node4</title>
<path fill="none" stroke="midnightblue" d="M359.391,-146.297C359.509,-137.301 359.636,-127.653 359.743,-119.506"/>
<polygon fill="midnightblue" stroke="midnightblue" points="355.889,-146.383 359.258,-156.428 362.889,-146.475 355.889,-146.383"/>
</g>
<!-- Node6 -->
<g id="node6" class="node"><title>Node6</title>
<g id="a_node6"><a xlink:href="../../d3/d4b/enchanted__maze__factory_8cc.html" target="_top" xlink:title="src/creational/src\l/abstractfactory/enchanted\l_maze_factory.cc">
<polygon fill="white" stroke="black" points="140,-78.5 140,-119.5 272,-119.5 272,-78.5 140,-78.5"/>
<text text-anchor="start" x="148" y="-107.5" font-family="Helvetica,sans-Serif" font-size="10.00">src/creational/src</text>
<text text-anchor="start" x="148" y="-96.5" font-family="Helvetica,sans-Serif" font-size="10.00">/abstractfactory/enchanted</text>
<text text-anchor="middle" x="206" y="-85.5" font-family="Helvetica,sans-Serif" font-size="10.00">_maze_factory.cc</text>
</a>
</g>
</g>
<!-- Node5&#45;&gt;Node6 -->
<g id="edge5" class="edge"><title>Node5&#45;&gt;Node6</title>
<path fill="none" stroke="midnightblue" d="M310.499,-151.908C289.462,-141.458 265.147,-129.38 245.268,-119.506"/>
<polygon fill="midnightblue" stroke="midnightblue" points="309.086,-155.114 319.599,-156.428 312.2,-148.845 309.086,-155.114"/>
</g>
<!-- Node8&#45;&gt;Node4 -->
<g id="edge14" class="edge"><title>Node8&#45;&gt;Node4</title>
<path fill="none" stroke="midnightblue" d="M472.134,-157.196C449.731,-145.769 421.171,-131.201 398.481,-119.628"/>
<polygon fill="midnightblue" stroke="midnightblue" points="470.825,-160.457 481.323,-161.883 474.006,-154.221 470.825,-160.457"/>
</g>
<!-- Node9 -->
<g id="node9" class="node"><title>Node9</title>
<g id="a_node9"><a xlink:href="../../d6/d92/bombed__maze__game_8h.html" target="_top" xlink:title="src/creational/src\l/factorymethod/bombed\l_maze_game.h">
<polygon fill="white" stroke="black" points="448.5,-78.5 448.5,-119.5 567.5,-119.5 567.5,-78.5 448.5,-78.5"/>
<text text-anchor="start" x="456.5" y="-107.5" font-family="Helvetica,sans-Serif" font-size="10.00">src/creational/src</text>
<text text-anchor="start" x="456.5" y="-96.5" font-family="Helvetica,sans-Serif" font-size="10.00">/factorymethod/bombed</text>
<text text-anchor="middle" x="508" y="-85.5" font-family="Helvetica,sans-Serif" font-size="10.00">_maze_game.h</text>
</a>
</g>
</g>
<!-- Node8&#45;&gt;Node9 -->
<g id="edge9" class="edge"><title>Node8&#45;&gt;Node9</title>
<path fill="none" stroke="midnightblue" d="M508.68,-151.656C508.544,-141.326 508.387,-129.443 508.259,-119.68"/>
<polygon fill="midnightblue" stroke="midnightblue" points="505.181,-151.752 508.812,-161.705 512.18,-151.66 505.181,-151.752"/>
</g>
<!-- Node11 -->
<g id="node11" class="node"><title>Node11</title>
<g id="a_node11"><a xlink:href="../../df/d13/enchanted__maze__game_8h.html" target="_top" xlink:title="src/creational/src\l/factorymethod/enchanted\l_maze_game.h">
<polygon fill="white" stroke="black" points="585.5,-78.5 585.5,-119.5 714.5,-119.5 714.5,-78.5 585.5,-78.5"/>
<text text-anchor="start" x="593.5" y="-107.5" font-family="Helvetica,sans-Serif" font-size="10.00">src/creational/src</text>
<text text-anchor="start" x="593.5" y="-96.5" font-family="Helvetica,sans-Serif" font-size="10.00">/factorymethod/enchanted</text>
<text text-anchor="middle" x="650" y="-85.5" font-family="Helvetica,sans-Serif" font-size="10.00">_maze_game.h</text>
</a>
</g>
</g>
<!-- Node8&#45;&gt;Node11 -->
<g id="edge11" class="edge"><title>Node8&#45;&gt;Node11</title>
<path fill="none" stroke="midnightblue" d="M544.171,-157.043C565.328,-145.639 592.209,-131.15 613.585,-119.628"/>
<polygon fill="midnightblue" stroke="midnightblue" points="542.333,-154.057 535.191,-161.883 545.654,-160.219 542.333,-154.057"/>
</g>
<!-- Node13 -->
<g id="node13" class="node"><title>Node13</title>
<g id="a_node13"><a xlink:href="../../d6/d51/maze__game_8cc.html" target="_top" xlink:title="src/creational/src\l/mazegame/maze_game.cc">
<polygon fill="white" stroke="black" points="732.5,-84 732.5,-114 869.5,-114 869.5,-84 732.5,-84"/>
<text text-anchor="start" x="740.5" y="-102" font-family="Helvetica,sans-Serif" font-size="10.00">src/creational/src</text>
<text text-anchor="middle" x="801" y="-91" font-family="Helvetica,sans-Serif" font-size="10.00">/mazegame/maze_game.cc</text>
</a>
</g>
</g>
<!-- Node8&#45;&gt;Node13 -->
<g id="edge13" class="edge"><title>Node8&#45;&gt;Node13</title>
<path fill="none" stroke="midnightblue" d="M571.399,-159.315C575.662,-158.189 579.894,-157.075 584,-156 646.15,-139.723 661.797,-136.076 724,-120 731.488,-118.065 739.385,-116.019 747.154,-114.004"/>
<polygon fill="midnightblue" stroke="midnightblue" points="570.207,-156.01 561.436,-161.953 571.999,-162.777 570.207,-156.01"/>
</g>
<!-- Node10 -->
<g id="node10" class="node"><title>Node10</title>
<g id="a_node10"><a xlink:href="../../d4/d89/bombed__maze__game_8cc.html" target="_top" xlink:title="src/creational/src\l/factorymethod/bombed\l_maze_game.cc">
<polygon fill="white" stroke="black" points="448.5,-0.5 448.5,-41.5 567.5,-41.5 567.5,-0.5 448.5,-0.5"/>
<text text-anchor="start" x="456.5" y="-29.5" font-family="Helvetica,sans-Serif" font-size="10.00">src/creational/src</text>
<text text-anchor="start" x="456.5" y="-18.5" font-family="Helvetica,sans-Serif" font-size="10.00">/factorymethod/bombed</text>
<text text-anchor="middle" x="508" y="-7.5" font-family="Helvetica,sans-Serif" font-size="10.00">_maze_game.cc</text>
</a>
</g>
</g>
<!-- Node9&#45;&gt;Node10 -->
<g id="edge10" class="edge"><title>Node9&#45;&gt;Node10</title>
<path fill="none" stroke="midnightblue" d="M508,-68.2965C508,-59.3009 508,-49.6532 508,-41.5056"/>
<polygon fill="midnightblue" stroke="midnightblue" points="504.5,-68.4281 508,-78.4281 511.5,-68.4281 504.5,-68.4281"/>
</g>
<!-- Node12 -->
<g id="node12" class="node"><title>Node12</title>
<g id="a_node12"><a xlink:href="../../db/db5/enchanted__maze__game_8cc.html" target="_top" xlink:title="src/creational/src\l/factorymethod/enchanted\l_maze_game.cc">
<polygon fill="white" stroke="black" points="585.5,-0.5 585.5,-41.5 714.5,-41.5 714.5,-0.5 585.5,-0.5"/>
<text text-anchor="start" x="593.5" y="-29.5" font-family="Helvetica,sans-Serif" font-size="10.00">src/creational/src</text>
<text text-anchor="start" x="593.5" y="-18.5" font-family="Helvetica,sans-Serif" font-size="10.00">/factorymethod/enchanted</text>
<text text-anchor="middle" x="650" y="-7.5" font-family="Helvetica,sans-Serif" font-size="10.00">_maze_game.cc</text>
</a>
</g>
</g>
<!-- Node11&#45;&gt;Node12 -->
<g id="edge12" class="edge"><title>Node11&#45;&gt;Node12</title>
<path fill="none" stroke="midnightblue" d="M650,-68.2965C650,-59.3009 650,-49.6532 650,-41.5056"/>
<polygon fill="midnightblue" stroke="midnightblue" points="646.5,-68.4281 650,-78.4281 653.5,-68.4281 646.5,-68.4281"/>
</g>
<!-- Node14&#45;&gt;Node4 -->
<g id="edge17" class="edge"><title>Node14&#45;&gt;Node4</title>
<path fill="none" stroke="midnightblue" d="M583.3,-155.837C518.039,-139.203 500.388,-135.391 439,-120 436.118,-119.277 433.177,-118.539 430.207,-117.792"/>
<polygon fill="midnightblue" stroke="midnightblue" points="582.73,-159.304 593.286,-158.387 584.463,-152.522 582.73,-159.304"/>
</g>
<!-- Node15 -->
<g id="node15" class="node"><title>Node15</title>
<g id="a_node15"><a xlink:href="../../d5/d25/maze__prototype__factory_8cc.html" target="_top" xlink:title="src/creational/src\l/prototype/maze_prototype\l_factory.cc">
<polygon fill="white" stroke="black" points="887.5,-78.5 887.5,-119.5 1020.5,-119.5 1020.5,-78.5 887.5,-78.5"/>
<text text-anchor="start" x="895.5" y="-107.5" font-family="Helvetica,sans-Serif" font-size="10.00">src/creational/src</text>
<text text-anchor="start" x="895.5" y="-96.5" font-family="Helvetica,sans-Serif" font-size="10.00">/prototype/maze_prototype</text>
<text text-anchor="middle" x="954" y="-85.5" font-family="Helvetica,sans-Serif" font-size="10.00">_factory.cc</text>
</a>
</g>
</g>
<!-- Node14&#45;&gt;Node15 -->
<g id="edge16" class="edge"><title>Node14&#45;&gt;Node15</title>
<path fill="none" stroke="midnightblue" d="M736.585,-155.864C801.081,-139.33 818.532,-135.673 879,-120 881.739,-119.29 884.534,-118.562 887.356,-117.823"/>
<polygon fill="midnightblue" stroke="midnightblue" points="735.532,-152.521 726.718,-158.4 737.274,-159.3 735.532,-152.521"/>
</g>
</g>
</svg>
        <g id="navigator" transform="translate(0 0)" fill="#404254">
                <rect fill="#f2f5e9" fill-opacity="0.5" stroke="#606060" stroke-width=".5" x="0" y="0" width="60" height="60"/>
                <use id="zoomplus" xlink:href="#zoomPlus" x="17" y="9" onmousedown="handleZoom(evt,'in')"/>
                <use id="zoomminus" xlink:href="#zoomMin" x="42" y="9" onmousedown="handleZoom(evt,'out')"/>
                <use id="reset" xlink:href="#resetDef" x="30" y="36" onmousedown="handleReset()"/>
                <g id="arrowUp" xlink:href="#dirArrow" transform="translate(30 24)" onmousedown="handlePan(0,-1)">
                  <use xlink:href="#rim" fill="#404040">
                        <set attributeName="fill" to="#808080" begin="arrowUp.mouseover" end="arrowUp.mouseout"/>
                  </use>
                  <path fill="none" stroke="white" stroke-width="1.5" d="M0,-3.0v7 M-2.5,-0.5L0,-3.0L2.5,-0.5"/>
                </g>
                <g id="arrowRight" xlink:href="#dirArrow" transform="rotate(90) translate(36 -43)" onmousedown="handlePan(1,0)">
                  <use xlink:href="#rim" fill="#404040">
                        <set attributeName="fill" to="#808080" begin="arrowRight.mouseover" end="arrowRight.mouseout"/>
                  </use>
                  <path fill="none" stroke="white" stroke-width="1.5" d="M0,-3.0v7 M-2.5,-0.5L0,-3.0L2.5,-0.5"/>
                </g>
                <g id="arrowDown" xlink:href="#dirArrow" transform="rotate(180) translate(-30 -48)" onmousedown="handlePan(0,1)">
                  <use xlink:href="#rim" fill="#404040">
                        <set attributeName="fill" to="#808080" begin="arrowDown.mouseover" end="arrowDown.mouseout"/>
                  </use>
                  <path fill="none" stroke="white" stroke-width="1.5" d="M0,-3.0v7 M-2.5,-0.5L0,-3.0L2.5,-0.5"/>
                </g>
                <g id="arrowLeft" xlink:href="#dirArrow" transform="rotate(270) translate(-36 17)" onmousedown="handlePan(-1,0)">
                  <use xlink:href="#rim" fill="#404040">
                        <set attributeName="fill" to="#808080" begin="arrowLeft.mouseover" end="arrowLeft.mouseout"/>
                  </use>
                  <path fill="none" stroke="white" stroke-width="1.5" d="M0,-3.0v7 M-2.5,-0.5L0,-3.0L2.5,-0.5"/>
                </g>
        </g>
        <svg viewBox="0 0 15 15" width="100%" height="30px" preserveAspectRatio="xMaxYMin meet">
         <g id="arrow_out" transform="scale(0.3 0.3)">
          <a xlink:href="maze__factory_8h__dep__incl_org.svg" target="_base">
           <rect id="button" ry="5" rx="5" y="6" x="6" height="38" width="38"
                fill="#f2f5e9" fill-opacity="0.5" stroke="#606060" stroke-width="1.0"/>
           <path id="arrow"
             d="M 11.500037,31.436501 C 11.940474,20.09759 22.043105,11.32322 32.158766,21.979434 L 37.068811,17.246167 C 37.068811,17.246167 37.088388,32 37.088388,32 L 22.160133,31.978069 C 22.160133,31.978069 26.997745,27.140456 26.997745,27.140456 C 18.528582,18.264221 13.291696,25.230495 11.500037,31.436501 z"
             style="fill:#404040;"/>
          </a>
         </g>
        </svg>
</svg>
