<?xml version="1.0" encoding="UTF-8" standalone="no"?>
<!DOCTYPE svg PUBLIC "-//W3C//DTD SVG 1.1//EN"
 "http://www.w3.org/Graphics/SVG/1.1/DTD/svg11.dtd">
<!-- Generated by graphviz version 2.38.0 (20140413.2041)
 -->
<!-- Title: operational::madiator::FontDialogDirector Pages: 1 -->
<svg width="143pt" height="237pt"
 viewBox="0.00 0.00 143.00 237.00" xmlns="http://www.w3.org/2000/svg" xmlns:xlink="http://www.w3.org/1999/xlink">
<g id="graph0" class="graph" transform="scale(1 1) rotate(0) translate(4 233)">
<title>operational::madiator::FontDialogDirector</title>
<polygon fill="white" stroke="none" points="-4,4 -4,-233 139,-233 139,4 -4,4"/>
<!-- Node1 -->
<g id="node1" class="node"><title>Node1</title>
<polygon fill="#bfbfbf" stroke="black" points="11.5,-0.5 11.5,-101.5 123.5,-101.5 123.5,-0.5 11.5,-0.5"/>
<text text-anchor="start" x="19.5" y="-89.5" font-family="Helvetica,sans-Serif" font-size="10.00">operational::madiator</text>
<text text-anchor="middle" x="67.5" y="-78.5" font-family="Helvetica,sans-Serif" font-size="10.00">::FontDialogDirector</text>
<polyline fill="none" stroke="black" points="11.5,-71.5 123.5,-71.5 "/>
<text text-anchor="middle" x="67.5" y="-59.5" font-family="Helvetica,sans-Serif" font-size="10.00"> </text>
<polyline fill="none" stroke="black" points="11.5,-52.5 123.5,-52.5 "/>
<text text-anchor="start" x="19.5" y="-40.5" font-family="Helvetica,sans-Serif" font-size="10.00">+ FontDialogDirector()</text>
<text text-anchor="start" x="19.5" y="-29.5" font-family="Helvetica,sans-Serif" font-size="10.00">+ Initialize()</text>
<text text-anchor="start" x="19.5" y="-18.5" font-family="Helvetica,sans-Serif" font-size="10.00">+ ShowDialog()</text>
<text text-anchor="start" x="19.5" y="-7.5" font-family="Helvetica,sans-Serif" font-size="10.00">+ WidgetChanged()</text>
</g>
<!-- Node2 -->
<g id="node2" class="node"><title>Node2</title>
<g id="a_node2"><a xlink:href="../../d3/d99/classoperational_1_1madiator_1_1_dialog_director_interface.html" target="_top" xlink:title="{operational::madiator\l::DialogDirectorInterface\n||+ ~DialogDirectorInterface()\l+ ShowDialog()\l+ WidgetChanged()\l}">
<polygon fill="white" stroke="black" points="0,-138.5 0,-228.5 135,-228.5 135,-138.5 0,-138.5"/>
<text text-anchor="start" x="8" y="-216.5" font-family="Helvetica,sans-Serif" font-size="10.00">operational::madiator</text>
<text text-anchor="middle" x="67.5" y="-205.5" font-family="Helvetica,sans-Serif" font-size="10.00">::DialogDirectorInterface</text>
<polyline fill="none" stroke="black" points="0,-198.5 135,-198.5 "/>
<text text-anchor="middle" x="67.5" y="-186.5" font-family="Helvetica,sans-Serif" font-size="10.00"> </text>
<polyline fill="none" stroke="black" points="0,-179.5 135,-179.5 "/>
<text text-anchor="start" x="8" y="-167.5" font-family="Helvetica,sans-Serif" font-size="10.00">+ ~DialogDirectorInterface()</text>
<text text-anchor="start" x="8" y="-156.5" font-family="Helvetica,sans-Serif" font-size="10.00">+ ShowDialog()</text>
<text text-anchor="start" x="8" y="-145.5" font-family="Helvetica,sans-Serif" font-size="10.00">+ WidgetChanged()</text>
</a>
</g>
</g>
<!-- Node2&#45;&gt;Node1 -->
<g id="edge1" class="edge"><title>Node2&#45;&gt;Node1</title>
<path fill="none" stroke="midnightblue" d="M67.5,-128.131C67.5,-119.311 67.5,-110.219 67.5,-101.523"/>
<polygon fill="none" stroke="midnightblue" points="64.0001,-128.319 67.5,-138.319 71.0001,-128.319 64.0001,-128.319"/>
</g>
</g>
</svg>
