<?xml version="1.0" encoding="UTF-8" standalone="no"?>
<!DOCTYPE svg PUBLIC "-//W3C//DTD SVG 1.1//EN"
 "http://www.w3.org/Graphics/SVG/1.1/DTD/svg11.dtd">
<!-- Generated by graphviz version 2.38.0 (20140413.2041)
 -->
<!-- Title: operational::visitor::VisitedEquipmentInterface Pages: 1 -->
<svg width="466pt" height="303pt"
 viewBox="0.00 0.00 465.50 303.00" xmlns="http://www.w3.org/2000/svg" xmlns:xlink="http://www.w3.org/1999/xlink">
<g id="graph0" class="graph" transform="scale(1 1) rotate(0) translate(4 299)">
<title>operational::visitor::VisitedEquipmentInterface</title>
<polygon fill="white" stroke="none" points="-4,4 -4,-299 461.5,-299 461.5,4 -4,4"/>
<!-- Node1 -->
<g id="node1" class="node"><title>Node1</title>
<polygon fill="#bfbfbf" stroke="black" points="164.5,-182.5 164.5,-294.5 315.5,-294.5 315.5,-182.5 164.5,-182.5"/>
<text text-anchor="start" x="172.5" y="-282.5" font-family="Helvetica,sans-Serif" font-size="10.00">operational::visitor</text>
<text text-anchor="middle" x="240" y="-271.5" font-family="Helvetica,sans-Serif" font-size="10.00">::VisitedEquipmentInterface</text>
<polyline fill="none" stroke="black" points="164.5,-264.5 315.5,-264.5 "/>
<text text-anchor="middle" x="240" y="-252.5" font-family="Helvetica,sans-Serif" font-size="10.00"> </text>
<polyline fill="none" stroke="black" points="164.5,-245.5 315.5,-245.5 "/>
<text text-anchor="start" x="172.5" y="-233.5" font-family="Helvetica,sans-Serif" font-size="10.00">+ ~VisitedEquipmentInterface()</text>
<text text-anchor="start" x="172.5" y="-222.5" font-family="Helvetica,sans-Serif" font-size="10.00">+ name()</text>
<text text-anchor="start" x="172.5" y="-211.5" font-family="Helvetica,sans-Serif" font-size="10.00">+ price()</text>
<text text-anchor="start" x="172.5" y="-200.5" font-family="Helvetica,sans-Serif" font-size="10.00">+ price()</text>
<text text-anchor="start" x="172.5" y="-189.5" font-family="Helvetica,sans-Serif" font-size="10.00">+ Accept()</text>
</g>
<!-- Node2 -->
<g id="node2" class="node"><title>Node2</title>
<g id="a_node2"><a xlink:href="../../dc/d83/classoperational_1_1visitor_1_1_bus.html" target="_top" xlink:title="{operational::visitor::Bus\n||+ Bus()\l+ name()\l+ price()\l+ price()\l+ GetLuxPrice()\l+ GetRegularPrice()\l+ Accept()\l}">
<polygon fill="white" stroke="black" points="0,-11.5 0,-134.5 118,-134.5 118,-11.5 0,-11.5"/>
<text text-anchor="middle" x="59" y="-122.5" font-family="Helvetica,sans-Serif" font-size="10.00">operational::visitor::Bus</text>
<polyline fill="none" stroke="black" points="0,-115.5 118,-115.5 "/>
<text text-anchor="middle" x="59" y="-103.5" font-family="Helvetica,sans-Serif" font-size="10.00"> </text>
<polyline fill="none" stroke="black" points="0,-96.5 118,-96.5 "/>
<text text-anchor="start" x="8" y="-84.5" font-family="Helvetica,sans-Serif" font-size="10.00">+ Bus()</text>
<text text-anchor="start" x="8" y="-73.5" font-family="Helvetica,sans-Serif" font-size="10.00">+ name()</text>
<text text-anchor="start" x="8" y="-62.5" font-family="Helvetica,sans-Serif" font-size="10.00">+ price()</text>
<text text-anchor="start" x="8" y="-51.5" font-family="Helvetica,sans-Serif" font-size="10.00">+ price()</text>
<text text-anchor="start" x="8" y="-40.5" font-family="Helvetica,sans-Serif" font-size="10.00">+ GetLuxPrice()</text>
<text text-anchor="start" x="8" y="-29.5" font-family="Helvetica,sans-Serif" font-size="10.00">+ GetRegularPrice()</text>
<text text-anchor="start" x="8" y="-18.5" font-family="Helvetica,sans-Serif" font-size="10.00">+ Accept()</text>
</a>
</g>
</g>
<!-- Node1&#45;&gt;Node2 -->
<g id="edge1" class="edge"><title>Node1&#45;&gt;Node2</title>
<path fill="none" stroke="midnightblue" d="M160.858,-175.663C149.287,-165.98 137.682,-155.897 127,-146 123.09,-142.377 119.13,-138.576 115.19,-134.693"/>
<polygon fill="none" stroke="midnightblue" points="158.92,-178.603 168.851,-182.295 163.39,-173.216 158.92,-178.603"/>
</g>
<!-- Node3 -->
<g id="node3" class="node"><title>Node3</title>
<g id="a_node3"><a xlink:href="../../d1/df0/classoperational_1_1visitor_1_1_card.html" target="_top" xlink:title="{operational::visitor\l::Card\n||+ Card()\l+ name()\l+ price()\l+ price()\l+ GetSilverPrice()\l+ GetGoldPrice()\l+ Accept()\l}">
<polygon fill="white" stroke="black" points="136.5,-6 136.5,-140 231.5,-140 231.5,-6 136.5,-6"/>
<text text-anchor="start" x="144.5" y="-128" font-family="Helvetica,sans-Serif" font-size="10.00">operational::visitor</text>
<text text-anchor="middle" x="184" y="-117" font-family="Helvetica,sans-Serif" font-size="10.00">::Card</text>
<polyline fill="none" stroke="black" points="136.5,-110 231.5,-110 "/>
<text text-anchor="middle" x="184" y="-98" font-family="Helvetica,sans-Serif" font-size="10.00"> </text>
<polyline fill="none" stroke="black" points="136.5,-91 231.5,-91 "/>
<text text-anchor="start" x="144.5" y="-79" font-family="Helvetica,sans-Serif" font-size="10.00">+ Card()</text>
<text text-anchor="start" x="144.5" y="-68" font-family="Helvetica,sans-Serif" font-size="10.00">+ name()</text>
<text text-anchor="start" x="144.5" y="-57" font-family="Helvetica,sans-Serif" font-size="10.00">+ price()</text>
<text text-anchor="start" x="144.5" y="-46" font-family="Helvetica,sans-Serif" font-size="10.00">+ price()</text>
<text text-anchor="start" x="144.5" y="-35" font-family="Helvetica,sans-Serif" font-size="10.00">+ GetSilverPrice()</text>
<text text-anchor="start" x="144.5" y="-24" font-family="Helvetica,sans-Serif" font-size="10.00">+ GetGoldPrice()</text>
<text text-anchor="start" x="144.5" y="-13" font-family="Helvetica,sans-Serif" font-size="10.00">+ Accept()</text>
</a>
</g>
</g>
<!-- Node1&#45;&gt;Node3 -->
<g id="edge2" class="edge"><title>Node1&#45;&gt;Node3</title>
<path fill="none" stroke="midnightblue" d="M217.73,-172.48C214.075,-161.809 210.284,-150.741 206.621,-140.045"/>
<polygon fill="none" stroke="midnightblue" points="214.489,-173.82 221.041,-182.146 221.112,-171.552 214.489,-173.82"/>
</g>
<!-- Node4 -->
<g id="node4" class="node"><title>Node4</title>
<g id="a_node4"><a xlink:href="../../d6/d2e/classoperational_1_1visitor_1_1_chassis.html" target="_top" xlink:title="{operational::visitor\l::Chassis\n||+ Chassis()\l+ ~Chassis()\l+ name()\l+ price()\l+ price()\l+ GetPrice()\l+ Accept()\l+ AddPart()\l}">
<polygon fill="white" stroke="black" points="249.5,-0.5 249.5,-145.5 344.5,-145.5 344.5,-0.5 249.5,-0.5"/>
<text text-anchor="start" x="257.5" y="-133.5" font-family="Helvetica,sans-Serif" font-size="10.00">operational::visitor</text>
<text text-anchor="middle" x="297" y="-122.5" font-family="Helvetica,sans-Serif" font-size="10.00">::Chassis</text>
<polyline fill="none" stroke="black" points="249.5,-115.5 344.5,-115.5 "/>
<text text-anchor="middle" x="297" y="-103.5" font-family="Helvetica,sans-Serif" font-size="10.00"> </text>
<polyline fill="none" stroke="black" points="249.5,-96.5 344.5,-96.5 "/>
<text text-anchor="start" x="257.5" y="-84.5" font-family="Helvetica,sans-Serif" font-size="10.00">+ Chassis()</text>
<text text-anchor="start" x="257.5" y="-73.5" font-family="Helvetica,sans-Serif" font-size="10.00">+ ~Chassis()</text>
<text text-anchor="start" x="257.5" y="-62.5" font-family="Helvetica,sans-Serif" font-size="10.00">+ name()</text>
<text text-anchor="start" x="257.5" y="-51.5" font-family="Helvetica,sans-Serif" font-size="10.00">+ price()</text>
<text text-anchor="start" x="257.5" y="-40.5" font-family="Helvetica,sans-Serif" font-size="10.00">+ price()</text>
<text text-anchor="start" x="257.5" y="-29.5" font-family="Helvetica,sans-Serif" font-size="10.00">+ GetPrice()</text>
<text text-anchor="start" x="257.5" y="-18.5" font-family="Helvetica,sans-Serif" font-size="10.00">+ Accept()</text>
<text text-anchor="start" x="257.5" y="-7.5" font-family="Helvetica,sans-Serif" font-size="10.00">+ AddPart()</text>
</a>
</g>
</g>
<!-- Node1&#45;&gt;Node4 -->
<g id="edge3" class="edge"><title>Node1&#45;&gt;Node4</title>
<path fill="none" stroke="midnightblue" d="M262.619,-172.619C265.722,-163.718 268.922,-154.539 272.064,-145.528"/>
<polygon fill="none" stroke="midnightblue" points="259.285,-171.552 259.298,-182.146 265.895,-173.856 259.285,-171.552"/>
</g>
<!-- Node5 -->
<g id="node5" class="node"><title>Node5</title>
<g id="a_node5"><a xlink:href="../../d1/dfb/classoperational_1_1visitor_1_1_floppy_disk.html" target="_top" xlink:title="{operational::visitor\l::FloppyDisk\n||+ FloppyDisk()\l+ name()\l+ price()\l+ price()\l+ GetBoxPrice()\l+ Accept()\l}">
<polygon fill="white" stroke="black" points="362.5,-11.5 362.5,-134.5 457.5,-134.5 457.5,-11.5 362.5,-11.5"/>
<text text-anchor="start" x="370.5" y="-122.5" font-family="Helvetica,sans-Serif" font-size="10.00">operational::visitor</text>
<text text-anchor="middle" x="410" y="-111.5" font-family="Helvetica,sans-Serif" font-size="10.00">::FloppyDisk</text>
<polyline fill="none" stroke="black" points="362.5,-104.5 457.5,-104.5 "/>
<text text-anchor="middle" x="410" y="-92.5" font-family="Helvetica,sans-Serif" font-size="10.00"> </text>
<polyline fill="none" stroke="black" points="362.5,-85.5 457.5,-85.5 "/>
<text text-anchor="start" x="370.5" y="-73.5" font-family="Helvetica,sans-Serif" font-size="10.00">+ FloppyDisk()</text>
<text text-anchor="start" x="370.5" y="-62.5" font-family="Helvetica,sans-Serif" font-size="10.00">+ name()</text>
<text text-anchor="start" x="370.5" y="-51.5" font-family="Helvetica,sans-Serif" font-size="10.00">+ price()</text>
<text text-anchor="start" x="370.5" y="-40.5" font-family="Helvetica,sans-Serif" font-size="10.00">+ price()</text>
<text text-anchor="start" x="370.5" y="-29.5" font-family="Helvetica,sans-Serif" font-size="10.00">+ GetBoxPrice()</text>
<text text-anchor="start" x="370.5" y="-18.5" font-family="Helvetica,sans-Serif" font-size="10.00">+ Accept()</text>
</a>
</g>
</g>
<!-- Node1&#45;&gt;Node5 -->
<g id="edge4" class="edge"><title>Node1&#45;&gt;Node5</title>
<path fill="none" stroke="midnightblue" d="M321.724,-175.793C332.939,-166.223 344.017,-156.137 354,-146 357.556,-142.389 361.097,-138.557 364.573,-134.613"/>
<polygon fill="none" stroke="midnightblue" points="319.351,-173.215 313.951,-182.33 323.857,-178.573 319.351,-173.215"/>
</g>
</g>
</svg>
