<?xml version="1.0" encoding="UTF-8" standalone="no"?>
<!DOCTYPE svg PUBLIC "-//W3C//DTD SVG 1.1//EN"
 "http://www.w3.org/Graphics/SVG/1.1/DTD/svg11.dtd">
<!-- Generated by graphviz version 2.38.0 (20140413.2041)
 -->
<!-- Title: operational::interpreter::VariableExpInterface Pages: 1 -->
<svg width="135pt" height="237pt"
 viewBox="0.00 0.00 135.00 237.00" xmlns="http://www.w3.org/2000/svg" xmlns:xlink="http://www.w3.org/1999/xlink">
<g id="graph0" class="graph" transform="scale(1 1) rotate(0) translate(4 233)">
<title>operational::interpreter::VariableExpInterface</title>
<polygon fill="white" stroke="none" points="-4,4 -4,-233 131,-233 131,4 -4,4"/>
<!-- Node1 -->
<g id="node1" class="node"><title>Node1</title>
<polygon fill="#bfbfbf" stroke="black" points="0,-149.5 0,-228.5 127,-228.5 127,-149.5 0,-149.5"/>
<text text-anchor="start" x="8" y="-216.5" font-family="Helvetica,sans-Serif" font-size="10.00">operational::interpreter</text>
<text text-anchor="middle" x="63.5" y="-205.5" font-family="Helvetica,sans-Serif" font-size="10.00">::VariableExpInterface</text>
<polyline fill="none" stroke="black" points="0,-198.5 127,-198.5 "/>
<text text-anchor="middle" x="63.5" y="-186.5" font-family="Helvetica,sans-Serif" font-size="10.00"> </text>
<polyline fill="none" stroke="black" points="0,-179.5 127,-179.5 "/>
<text text-anchor="start" x="8" y="-167.5" font-family="Helvetica,sans-Serif" font-size="10.00">+ ~VariableExpInterface()</text>
<text text-anchor="start" x="8" y="-156.5" font-family="Helvetica,sans-Serif" font-size="10.00">+ name()</text>
</g>
<!-- Node2 -->
<g id="node2" class="node"><title>Node2</title>
<g id="a_node2"><a xlink:href="../../d5/dae/classoperational_1_1interpreter_1_1_variable_exp.html" target="_top" xlink:title="{operational::interpreter\l::VariableExp\n||+ VariableExp()\l+ Evaluate()\l+ Replace()\l+ Copy()\l+ name()\l}">
<polygon fill="white" stroke="black" points="7,-0.5 7,-112.5 120,-112.5 120,-0.5 7,-0.5"/>
<text text-anchor="start" x="15" y="-100.5" font-family="Helvetica,sans-Serif" font-size="10.00">operational::interpreter</text>
<text text-anchor="middle" x="63.5" y="-89.5" font-family="Helvetica,sans-Serif" font-size="10.00">::VariableExp</text>
<polyline fill="none" stroke="black" points="7,-82.5 120,-82.5 "/>
<text text-anchor="middle" x="63.5" y="-70.5" font-family="Helvetica,sans-Serif" font-size="10.00"> </text>
<polyline fill="none" stroke="black" points="7,-63.5 120,-63.5 "/>
<text text-anchor="start" x="15" y="-51.5" font-family="Helvetica,sans-Serif" font-size="10.00">+ VariableExp()</text>
<text text-anchor="start" x="15" y="-40.5" font-family="Helvetica,sans-Serif" font-size="10.00">+ Evaluate()</text>
<text text-anchor="start" x="15" y="-29.5" font-family="Helvetica,sans-Serif" font-size="10.00">+ Replace()</text>
<text text-anchor="start" x="15" y="-18.5" font-family="Helvetica,sans-Serif" font-size="10.00">+ Copy()</text>
<text text-anchor="start" x="15" y="-7.5" font-family="Helvetica,sans-Serif" font-size="10.00">+ name()</text>
</a>
</g>
</g>
<!-- Node1&#45;&gt;Node2 -->
<g id="edge1" class="edge"><title>Node1&#45;&gt;Node2</title>
<path fill="none" stroke="midnightblue" d="M63.5,-139.012C63.5,-130.464 63.5,-121.518 63.5,-112.814"/>
<polygon fill="none" stroke="midnightblue" points="60.0001,-139.199 63.5,-149.199 67.0001,-139.199 60.0001,-139.199"/>
</g>
</g>
</svg>
