<?xml version="1.0" encoding="UTF-8" standalone="no"?>
<!DOCTYPE svg PUBLIC "-//W3C//DTD SVG 1.1//EN"
 "http://www.w3.org/Graphics/SVG/1.1/DTD/svg11.dtd">
<!-- Generated by graphviz version 2.38.0 (20140413.2041)
 -->
<!-- Title: src/structural/src/facade/expression_node_interface.h Pages: 1 -->
<!--zoomable 507 -->
<svg id="main" version="1.1" xmlns="http://www.w3.org/2000/svg" xmlns:xlink="http://www.w3.org/1999/xlink" xml:space="preserve" onload="init(evt)">
<style type="text/css"><![CDATA[
.edge:hover path { stroke: red; }
.edge:hover polygon { stroke: red; fill: red; }
]]></style>
<script type="text/javascript"><![CDATA[
var edges = document.getElementsByTagName('g');
if (edges && edges.length) {
  for (var i=0;i<edges.length;i++) {
    if (edges[i].id.substr(0,4)=='edge') {
      edges[i].setAttribute('class','edge');
    }
  }
}
]]></script>
        <defs>
                <circle id="rim" cx="0" cy="0" r="7"/>
                <circle id="rim2" cx="0" cy="0" r="3.5"/>
                <g id="zoomPlus">
                        <use xlink:href="#rim" fill="#404040">
                                <set attributeName="fill" to="#808080" begin="zoomplus.mouseover" end="zoomplus.mouseout"/>
                        </use>
                        <path d="M-4,0h8M0,-4v8" fill="none" stroke="white" stroke-width="1.5" pointer-events="none"/>
                </g>
                <g id="zoomMin">
                        <use xlink:href="#rim" fill="#404040">
                                <set attributeName="fill" to="#808080" begin="zoomminus.mouseover" end="zoomminus.mouseout"/>
                        </use>
                        <path d="M-4,0h8" fill="none" stroke="white" stroke-width="1.5" pointer-events="none"/>
                </g>
                <g id="dirArrow">
                        <path fill="none" stroke="white" stroke-width="1.5" d="M0,-3.0v7 M-2.5,-0.5L0,-3.0L2.5,-0.5"/>
                </g>
               <g id="resetDef">
                       <use xlink:href="#rim2" fill="#404040">
                               <set attributeName="fill" to="#808080" begin="reset.mouseover" end="reset.mouseout"/>
                       </use>
               </g>
        </defs>

<script type="text/javascript">
var viewWidth = 748;
var viewHeight = 507;
var sectionId = 'dynsection-1';
</script>
<script xlink:href="../../svgpan.js"/>
<svg id="graph" class="graph">
<g id="viewport">
<title>src/structural/src/facade/expression_node_interface.h</title>
<polygon fill="white" stroke="none" points="-4,4 -4,-503 743.703,-503 743.703,4 -4,4"/>
<!-- Node1 -->
<g id="node1" class="node"><title>Node1</title>
<polygon fill="#bfbfbf" stroke="black" points="467.203,-457.5 467.203,-498.5 592.203,-498.5 592.203,-457.5 467.203,-457.5"/>
<text text-anchor="start" x="475.203" y="-486.5" font-family="Helvetica,sans-Serif" font-size="10.00">src/structural/src</text>
<text text-anchor="start" x="475.203" y="-475.5" font-family="Helvetica,sans-Serif" font-size="10.00">/facade/expression_node</text>
<text text-anchor="middle" x="529.703" y="-464.5" font-family="Helvetica,sans-Serif" font-size="10.00">_interface.h</text>
</g>
<!-- Node2 -->
<g id="node2" class="node"><title>Node2</title>
<g id="a_node2"><a xlink:href="../../d7/df5/code__generator__interface_8h.html" target="_top" xlink:title="src/structural/src\l/facade/code_generator\l_interface.h">
<polygon fill="white" stroke="black" points="380.703,-379.5 380.703,-420.5 498.703,-420.5 498.703,-379.5 380.703,-379.5"/>
<text text-anchor="start" x="388.703" y="-408.5" font-family="Helvetica,sans-Serif" font-size="10.00">src/structural/src</text>
<text text-anchor="start" x="388.703" y="-397.5" font-family="Helvetica,sans-Serif" font-size="10.00">/facade/code_generator</text>
<text text-anchor="middle" x="439.703" y="-386.5" font-family="Helvetica,sans-Serif" font-size="10.00">_interface.h</text>
</a>
</g>
</g>
<!-- Node1&#45;&gt;Node2 -->
<g id="edge1" class="edge"><title>Node1&#45;&gt;Node2</title>
<path fill="none" stroke="midnightblue" d="M498.652,-450.779C486.886,-440.843 473.709,-429.716 462.802,-420.506"/>
<polygon fill="midnightblue" stroke="midnightblue" points="496.628,-453.65 506.526,-457.428 501.144,-448.302 496.628,-453.65"/>
</g>
<!-- Node10 -->
<g id="node10" class="node"><title>Node10</title>
<g id="a_node10"><a xlink:href="../../d9/d18/expression__node_8h.html" target="_top" xlink:title="src/structural/src\l/facade/expression_node.h">
<polygon fill="white" stroke="black" points="601.203,-229 601.203,-259 734.203,-259 734.203,-229 601.203,-229"/>
<text text-anchor="start" x="609.203" y="-247" font-family="Helvetica,sans-Serif" font-size="10.00">src/structural/src</text>
<text text-anchor="middle" x="667.703" y="-236" font-family="Helvetica,sans-Serif" font-size="10.00">/facade/expression_node.h</text>
</a>
</g>
</g>
<!-- Node1&#45;&gt;Node10 -->
<g id="edge19" class="edge"><title>Node1&#45;&gt;Node10</title>
<path fill="none" stroke="midnightblue" d="M546.65,-448.51C576.405,-398.486 636.996,-296.624 659.256,-259.201"/>
<polygon fill="midnightblue" stroke="midnightblue" points="543.573,-446.836 541.469,-457.22 549.59,-450.415 543.573,-446.836"/>
</g>
<!-- Node3 -->
<g id="node3" class="node"><title>Node3</title>
<g id="a_node3"><a xlink:href="../../dc/d6c/program__node__interface_8h.html" target="_top" xlink:title="src/structural/src\l/facade/program_node\l_interface.h">
<polygon fill="white" stroke="black" points="383.203,-301.5 383.203,-342.5 496.203,-342.5 496.203,-301.5 383.203,-301.5"/>
<text text-anchor="start" x="391.203" y="-330.5" font-family="Helvetica,sans-Serif" font-size="10.00">src/structural/src</text>
<text text-anchor="start" x="391.203" y="-319.5" font-family="Helvetica,sans-Serif" font-size="10.00">/facade/program_node</text>
<text text-anchor="middle" x="439.703" y="-308.5" font-family="Helvetica,sans-Serif" font-size="10.00">_interface.h</text>
</a>
</g>
</g>
<!-- Node2&#45;&gt;Node3 -->
<g id="edge2" class="edge"><title>Node2&#45;&gt;Node3</title>
<path fill="none" stroke="midnightblue" d="M439.703,-369.297C439.703,-360.301 439.703,-350.653 439.703,-342.506"/>
<polygon fill="midnightblue" stroke="midnightblue" points="436.204,-369.428 439.703,-379.428 443.204,-369.428 436.204,-369.428"/>
</g>
<!-- Node15 -->
<g id="node15" class="node"><title>Node15</title>
<g id="a_node15"><a xlink:href="../../da/d63/risc__code__generator_8h.html" target="_top" xlink:title="src/structural/src\l/facade/risc_code_generator.h">
<polygon fill="white" stroke="black" points="18.2034,-307 18.2034,-337 165.203,-337 165.203,-307 18.2034,-307"/>
<text text-anchor="start" x="26.2034" y="-325" font-family="Helvetica,sans-Serif" font-size="10.00">src/structural/src</text>
<text text-anchor="middle" x="91.7034" y="-314" font-family="Helvetica,sans-Serif" font-size="10.00">/facade/risc_code_generator.h</text>
</a>
</g>
</g>
<!-- Node2&#45;&gt;Node15 -->
<g id="edge16" class="edge"><title>Node2&#45;&gt;Node15</title>
<path fill="none" stroke="midnightblue" d="M370.52,-383.891C308.085,-370.256 216.949,-350.352 156.053,-337.053"/>
<polygon fill="midnightblue" stroke="midnightblue" points="370.153,-387.393 380.67,-386.108 371.647,-380.555 370.153,-387.393"/>
</g>
<!-- Node4 -->
<g id="node4" class="node"><title>Node4</title>
<g id="a_node4"><a xlink:href="../../da/dc8/program__node__builder__interface_8h.html" target="_top" xlink:title="src/structural/src\l/facade/program_node\l_builder_interface.h">
<polygon fill="white" stroke="black" points="470.203,-223.5 470.203,-264.5 583.203,-264.5 583.203,-223.5 470.203,-223.5"/>
<text text-anchor="start" x="478.203" y="-252.5" font-family="Helvetica,sans-Serif" font-size="10.00">src/structural/src</text>
<text text-anchor="start" x="478.203" y="-241.5" font-family="Helvetica,sans-Serif" font-size="10.00">/facade/program_node</text>
<text text-anchor="middle" x="526.703" y="-230.5" font-family="Helvetica,sans-Serif" font-size="10.00">_builder_interface.h</text>
</a>
</g>
</g>
<!-- Node3&#45;&gt;Node4 -->
<g id="edge3" class="edge"><title>Node3&#45;&gt;Node4</title>
<path fill="none" stroke="midnightblue" d="M469.72,-294.779C481.093,-284.843 493.831,-273.716 504.375,-264.506"/>
<polygon fill="midnightblue" stroke="midnightblue" points="467.337,-292.213 462.108,-301.428 471.942,-297.485 467.337,-292.213"/>
</g>
<!-- Node3&#45;&gt;Node10 -->
<g id="edge10" class="edge"><title>Node3&#45;&gt;Node10</title>
<path fill="none" stroke="midnightblue" d="M505.973,-298.91C544.612,-286.03 592.178,-270.175 625.694,-259.003"/>
<polygon fill="midnightblue" stroke="midnightblue" points="504.736,-295.633 496.356,-302.116 506.95,-302.274 504.736,-295.633"/>
</g>
<!-- Node12 -->
<g id="node12" class="node"><title>Node12</title>
<g id="a_node12"><a xlink:href="../../d3/da1/variable__node_8h.html" target="_top" xlink:title="src/structural/src\l/facade/variable_node.h">
<polygon fill="white" stroke="black" points="333.703,-229 333.703,-259 451.703,-259 451.703,-229 333.703,-229"/>
<text text-anchor="start" x="341.703" y="-247" font-family="Helvetica,sans-Serif" font-size="10.00">src/structural/src</text>
<text text-anchor="middle" x="392.703" y="-236" font-family="Helvetica,sans-Serif" font-size="10.00">/facade/variable_node.h</text>
</a>
</g>
</g>
<!-- Node3&#45;&gt;Node12 -->
<g id="edge12" class="edge"><title>Node3&#45;&gt;Node12</title>
<path fill="none" stroke="midnightblue" d="M422.166,-292.642C415.121,-281.249 407.309,-268.618 401.501,-259.225"/>
<polygon fill="midnightblue" stroke="midnightblue" points="419.363,-294.764 427.6,-301.428 425.317,-291.082 419.363,-294.764"/>
</g>
<!-- Node14 -->
<g id="node14" class="node"><title>Node14</title>
<g id="a_node14"><a xlink:href="../../d3/d03/statement__node_8h.html" target="_top" xlink:title="src/structural/src\l/facade/statement_node.h">
<polygon fill="white" stroke="black" points="186.203,-229 186.203,-259 315.203,-259 315.203,-229 186.203,-229"/>
<text text-anchor="start" x="194.203" y="-247" font-family="Helvetica,sans-Serif" font-size="10.00">src/structural/src</text>
<text text-anchor="middle" x="250.703" y="-236" font-family="Helvetica,sans-Serif" font-size="10.00">/facade/statement_node.h</text>
</a>
</g>
</g>
<!-- Node3&#45;&gt;Node14 -->
<g id="edge15" class="edge"><title>Node3&#45;&gt;Node14</title>
<path fill="none" stroke="midnightblue" d="M381.533,-297.609C350.216,-285.016 312.621,-269.898 285.784,-259.106"/>
<polygon fill="midnightblue" stroke="midnightblue" points="380.447,-300.945 391.031,-301.428 383.059,-294.45 380.447,-300.945"/>
</g>
<!-- Node5 -->
<g id="node5" class="node"><title>Node5</title>
<g id="a_node5"><a xlink:href="../../d2/d57/program__node__builder_8h.html" target="_top" xlink:title="src/structural/src\l/facade/program_node\l_builder.h">
<polygon fill="white" stroke="black" points="470.203,-145.5 470.203,-186.5 583.203,-186.5 583.203,-145.5 470.203,-145.5"/>
<text text-anchor="start" x="478.203" y="-174.5" font-family="Helvetica,sans-Serif" font-size="10.00">src/structural/src</text>
<text text-anchor="start" x="478.203" y="-163.5" font-family="Helvetica,sans-Serif" font-size="10.00">/facade/program_node</text>
<text text-anchor="middle" x="526.703" y="-152.5" font-family="Helvetica,sans-Serif" font-size="10.00">_builder.h</text>
</a>
</g>
</g>
<!-- Node4&#45;&gt;Node5 -->
<g id="edge4" class="edge"><title>Node4&#45;&gt;Node5</title>
<path fill="none" stroke="midnightblue" d="M526.703,-213.297C526.703,-204.301 526.703,-194.653 526.703,-186.506"/>
<polygon fill="midnightblue" stroke="midnightblue" points="523.204,-213.428 526.703,-223.428 530.204,-213.428 523.204,-213.428"/>
</g>
<!-- Node6 -->
<g id="node6" class="node"><title>Node6</title>
<g id="a_node6"><a xlink:href="../../da/dc6/compiler_8cc.html" target="_top" xlink:title="src/structural/src\l/facade/compiler.cc">
<polygon fill="white" stroke="black" points="373.203,-0.5 373.203,-30.5 474.203,-30.5 474.203,-0.5 373.203,-0.5"/>
<text text-anchor="start" x="381.203" y="-18.5" font-family="Helvetica,sans-Serif" font-size="10.00">src/structural/src</text>
<text text-anchor="middle" x="423.703" y="-7.5" font-family="Helvetica,sans-Serif" font-size="10.00">/facade/compiler.cc</text>
</a>
</g>
</g>
<!-- Node5&#45;&gt;Node6 -->
<g id="edge5" class="edge"><title>Node5&#45;&gt;Node6</title>
<path fill="none" stroke="midnightblue" d="M498.08,-138.384C489.365,-129.506 480.134,-119.252 472.703,-109 454.039,-83.2497 437.995,-49.4796 429.71,-30.6874"/>
<polygon fill="midnightblue" stroke="midnightblue" points="495.668,-140.923 505.229,-145.489 500.603,-135.957 495.668,-140.923"/>
</g>
<!-- Node7 -->
<g id="node7" class="node"><title>Node7</title>
<g id="a_node7"><a xlink:href="../../d5/d36/parser_8h.html" target="_top" xlink:title="src/structural/src\l/facade/parser.h">
<polygon fill="white" stroke="black" points="481.703,-73 481.703,-103 571.703,-103 571.703,-73 481.703,-73"/>
<text text-anchor="start" x="489.703" y="-91" font-family="Helvetica,sans-Serif" font-size="10.00">src/structural/src</text>
<text text-anchor="middle" x="526.703" y="-80" font-family="Helvetica,sans-Serif" font-size="10.00">/facade/parser.h</text>
</a>
</g>
</g>
<!-- Node5&#45;&gt;Node7 -->
<g id="edge6" class="edge"><title>Node5&#45;&gt;Node7</title>
<path fill="none" stroke="midnightblue" d="M526.703,-135.283C526.703,-124.254 526.703,-112.246 526.703,-103.225"/>
<polygon fill="midnightblue" stroke="midnightblue" points="523.204,-135.428 526.703,-145.428 530.204,-135.428 523.204,-135.428"/>
</g>
<!-- Node9 -->
<g id="node9" class="node"><title>Node9</title>
<g id="a_node9"><a xlink:href="../../db/d62/program__node__builder_8cc.html" target="_top" xlink:title="src/structural/src\l/facade/program_node\l_builder.cc">
<polygon fill="white" stroke="black" points="261.203,-67.5 261.203,-108.5 374.203,-108.5 374.203,-67.5 261.203,-67.5"/>
<text text-anchor="start" x="269.203" y="-96.5" font-family="Helvetica,sans-Serif" font-size="10.00">src/structural/src</text>
<text text-anchor="start" x="269.203" y="-85.5" font-family="Helvetica,sans-Serif" font-size="10.00">/facade/program_node</text>
<text text-anchor="middle" x="317.703" y="-74.5" font-family="Helvetica,sans-Serif" font-size="10.00">_builder.cc</text>
</a>
</g>
</g>
<!-- Node5&#45;&gt;Node9 -->
<g id="edge9" class="edge"><title>Node5&#45;&gt;Node9</title>
<path fill="none" stroke="midnightblue" d="M463.144,-141.887C433.804,-131.219 399.351,-118.69 371.344,-108.506"/>
<polygon fill="midnightblue" stroke="midnightblue" points="462.287,-145.3 472.881,-145.428 464.679,-138.721 462.287,-145.3"/>
</g>
<!-- Node7&#45;&gt;Node6 -->
<g id="edge7" class="edge"><title>Node7&#45;&gt;Node6</title>
<path fill="none" stroke="midnightblue" d="M497.383,-66.9311C480.379,-55.2922 459.386,-40.9238 444.164,-30.5049"/>
<polygon fill="midnightblue" stroke="midnightblue" points="495.631,-69.9732 505.86,-72.7333 499.585,-64.1967 495.631,-69.9732"/>
</g>
<!-- Node8 -->
<g id="node8" class="node"><title>Node8</title>
<g id="a_node8"><a xlink:href="../../dc/dc9/parser_8cc.html" target="_top" xlink:title="src/structural/src\l/facade/parser.cc">
<polygon fill="white" stroke="black" points="492.703,-0.5 492.703,-30.5 584.703,-30.5 584.703,-0.5 492.703,-0.5"/>
<text text-anchor="start" x="500.703" y="-18.5" font-family="Helvetica,sans-Serif" font-size="10.00">src/structural/src</text>
<text text-anchor="middle" x="538.703" y="-7.5" font-family="Helvetica,sans-Serif" font-size="10.00">/facade/parser.cc</text>
</a>
</g>
</g>
<!-- Node7&#45;&gt;Node8 -->
<g id="edge8" class="edge"><title>Node7&#45;&gt;Node8</title>
<path fill="none" stroke="midnightblue" d="M530.834,-62.7317C532.649,-52.0679 534.718,-39.9145 536.279,-30.7455"/>
<polygon fill="midnightblue" stroke="midnightblue" points="527.359,-62.2877 529.132,-72.7333 534.26,-63.4624 527.359,-62.2877"/>
</g>
<!-- Node11 -->
<g id="node11" class="node"><title>Node11</title>
<g id="a_node11"><a xlink:href="../../d7/dd1/expression__node_8cc.html" target="_top" xlink:title="src/structural/src\l/facade/expression_node.cc">
<polygon fill="white" stroke="black" points="601.703,-151 601.703,-181 739.703,-181 739.703,-151 601.703,-151"/>
<text text-anchor="start" x="609.703" y="-169" font-family="Helvetica,sans-Serif" font-size="10.00">src/structural/src</text>
<text text-anchor="middle" x="670.703" y="-158" font-family="Helvetica,sans-Serif" font-size="10.00">/facade/expression_node.cc</text>
</a>
</g>
</g>
<!-- Node10&#45;&gt;Node11 -->
<g id="edge11" class="edge"><title>Node10&#45;&gt;Node11</title>
<path fill="none" stroke="midnightblue" d="M668.667,-218.59C669.154,-206.257 669.727,-191.724 670.142,-181.231"/>
<polygon fill="midnightblue" stroke="midnightblue" points="665.165,-218.575 668.268,-228.705 672.159,-218.851 665.165,-218.575"/>
</g>
<!-- Node12&#45;&gt;Node9 -->
<g id="edge13" class="edge"><title>Node12&#45;&gt;Node9</title>
<path fill="none" stroke="midnightblue" d="M354.69,-223.367C341.13,-214.264 327.335,-202.082 319.703,-187 307.18,-162.249 309.794,-129.287 313.345,-108.604"/>
<polygon fill="midnightblue" stroke="midnightblue" points="353.17,-226.545 363.5,-228.903 356.895,-220.618 353.17,-226.545"/>
</g>
<!-- Node13 -->
<g id="node13" class="node"><title>Node13</title>
<g id="a_node13"><a xlink:href="../../d4/dd8/variable__node_8cc.html" target="_top" xlink:title="src/structural/src\l/facade/variable_node.cc">
<polygon fill="white" stroke="black" points="329.203,-151 329.203,-181 452.203,-181 452.203,-151 329.203,-151"/>
<text text-anchor="start" x="337.203" y="-169" font-family="Helvetica,sans-Serif" font-size="10.00">src/structural/src</text>
<text text-anchor="middle" x="390.703" y="-158" font-family="Helvetica,sans-Serif" font-size="10.00">/facade/variable_node.cc</text>
</a>
</g>
</g>
<!-- Node12&#45;&gt;Node13 -->
<g id="edge14" class="edge"><title>Node12&#45;&gt;Node13</title>
<path fill="none" stroke="midnightblue" d="M392.061,-218.59C391.736,-206.257 391.354,-191.724 391.078,-181.231"/>
<polygon fill="midnightblue" stroke="midnightblue" points="388.565,-218.801 392.327,-228.705 395.563,-218.616 388.565,-218.801"/>
</g>
<!-- Node15&#45;&gt;Node6 -->
<g id="edge17" class="edge"><title>Node15&#45;&gt;Node6</title>
<path fill="none" stroke="midnightblue" d="M46.0804,-302.026C30.7278,-293.177 15.3207,-280.997 6.70341,-265 -2.14941,-248.566 -2.277,-239.364 6.70341,-223 81.4228,-86.843 279.091,-38.7285 372.905,-23.2087"/>
<polygon fill="midnightblue" stroke="midnightblue" points="44.5966,-305.203 55.0617,-306.856 47.9116,-299.037 44.5966,-305.203"/>
</g>
<!-- Node16 -->
<g id="node16" class="node"><title>Node16</title>
<g id="a_node16"><a xlink:href="../../d1/d9d/risc__code__generator_8cc.html" target="_top" xlink:title="src/structural/src\l/facade/risc_code_generator.cc">
<polygon fill="white" stroke="black" points="15.7034,-229 15.7034,-259 167.703,-259 167.703,-229 15.7034,-229"/>
<text text-anchor="start" x="23.7034" y="-247" font-family="Helvetica,sans-Serif" font-size="10.00">src/structural/src</text>
<text text-anchor="middle" x="91.7034" y="-236" font-family="Helvetica,sans-Serif" font-size="10.00">/facade/risc_code_generator.cc</text>
</a>
</g>
</g>
<!-- Node15&#45;&gt;Node16 -->
<g id="edge18" class="edge"><title>Node15&#45;&gt;Node16</title>
<path fill="none" stroke="midnightblue" d="M91.7034,-296.59C91.7034,-284.257 91.7034,-269.724 91.7034,-259.231"/>
<polygon fill="midnightblue" stroke="midnightblue" points="88.2035,-296.705 91.7034,-306.705 95.2035,-296.705 88.2035,-296.705"/>
</g>
</g>
</svg>
        <g id="navigator" transform="translate(0 0)" fill="#404254">
                <rect fill="#f2f5e9" fill-opacity="0.5" stroke="#606060" stroke-width=".5" x="0" y="0" width="60" height="60"/>
                <use id="zoomplus" xlink:href="#zoomPlus" x="17" y="9" onmousedown="handleZoom(evt,'in')"/>
                <use id="zoomminus" xlink:href="#zoomMin" x="42" y="9" onmousedown="handleZoom(evt,'out')"/>
                <use id="reset" xlink:href="#resetDef" x="30" y="36" onmousedown="handleReset()"/>
                <g id="arrowUp" xlink:href="#dirArrow" transform="translate(30 24)" onmousedown="handlePan(0,-1)">
                  <use xlink:href="#rim" fill="#404040">
                        <set attributeName="fill" to="#808080" begin="arrowUp.mouseover" end="arrowUp.mouseout"/>
                  </use>
                  <path fill="none" stroke="white" stroke-width="1.5" d="M0,-3.0v7 M-2.5,-0.5L0,-3.0L2.5,-0.5"/>
                </g>
                <g id="arrowRight" xlink:href="#dirArrow" transform="rotate(90) translate(36 -43)" onmousedown="handlePan(1,0)">
                  <use xlink:href="#rim" fill="#404040">
                        <set attributeName="fill" to="#808080" begin="arrowRight.mouseover" end="arrowRight.mouseout"/>
                  </use>
                  <path fill="none" stroke="white" stroke-width="1.5" d="M0,-3.0v7 M-2.5,-0.5L0,-3.0L2.5,-0.5"/>
                </g>
                <g id="arrowDown" xlink:href="#dirArrow" transform="rotate(180) translate(-30 -48)" onmousedown="handlePan(0,1)">
                  <use xlink:href="#rim" fill="#404040">
                        <set attributeName="fill" to="#808080" begin="arrowDown.mouseover" end="arrowDown.mouseout"/>
                  </use>
                  <path fill="none" stroke="white" stroke-width="1.5" d="M0,-3.0v7 M-2.5,-0.5L0,-3.0L2.5,-0.5"/>
                </g>
                <g id="arrowLeft" xlink:href="#dirArrow" transform="rotate(270) translate(-36 17)" onmousedown="handlePan(-1,0)">
                  <use xlink:href="#rim" fill="#404040">
                        <set attributeName="fill" to="#808080" begin="arrowLeft.mouseover" end="arrowLeft.mouseout"/>
                  </use>
                  <path fill="none" stroke="white" stroke-width="1.5" d="M0,-3.0v7 M-2.5,-0.5L0,-3.0L2.5,-0.5"/>
                </g>
        </g>
        <svg viewBox="0 0 15 15" width="100%" height="30px" preserveAspectRatio="xMaxYMin meet">
         <g id="arrow_out" transform="scale(0.3 0.3)">
          <a xlink:href="expression__node__interface_8h__dep__incl_org.svg" target="_base">
           <rect id="button" ry="5" rx="5" y="6" x="6" height="38" width="38"
                fill="#f2f5e9" fill-opacity="0.5" stroke="#606060" stroke-width="1.0"/>
           <path id="arrow"
             d="M 11.500037,31.436501 C 11.940474,20.09759 22.043105,11.32322 32.158766,21.979434 L 37.068811,17.246167 C 37.068811,17.246167 37.088388,32 37.088388,32 L 22.160133,31.978069 C 22.160133,31.978069 26.997745,27.140456 26.997745,27.140456 C 18.528582,18.264221 13.291696,25.230495 11.500037,31.436501 z"
             style="fill:#404040;"/>
          </a>
         </g>
        </svg>
</svg>
