<?xml version="1.0" encoding="UTF-8" standalone="no"?>
<!DOCTYPE svg PUBLIC "-//W3C//DTD SVG 1.1//EN"
 "http://www.w3.org/Graphics/SVG/1.1/DTD/svg11.dtd">
<!-- Generated by graphviz version 2.38.0 (20140413.2041)
 -->
<!-- Title: src/operational/src/command/macro_command.cc Pages: 1 -->
<svg width="279pt" height="263pt"
 viewBox="0.00 0.00 279.00 263.00" xmlns="http://www.w3.org/2000/svg" xmlns:xlink="http://www.w3.org/1999/xlink">
<g id="graph0" class="graph" transform="scale(1 1) rotate(0) translate(4 259)">
<title>src/operational/src/command/macro_command.cc</title>
<polygon fill="white" stroke="none" points="-4,4 -4,-259 275,-259 275,4 -4,4"/>
<!-- Node1 -->
<g id="node1" class="node"><title>Node1</title>
<polygon fill="#bfbfbf" stroke="black" points="117,-224.5 117,-254.5 271,-254.5 271,-224.5 117,-224.5"/>
<text text-anchor="start" x="125" y="-242.5" font-family="Helvetica,sans-Serif" font-size="10.00">src/operational/src</text>
<text text-anchor="middle" x="194" y="-231.5" font-family="Helvetica,sans-Serif" font-size="10.00">/command/macro_command.cc</text>
</g>
<!-- Node2 -->
<g id="node2" class="node"><title>Node2</title>
<g id="a_node2"><a xlink:href="../../d6/de4/macro__command_8h.html" target="_top" xlink:title="macro_command.h">
<polygon fill="white" stroke="black" points="103,-168.5 103,-187.5 203,-187.5 203,-168.5 103,-168.5"/>
<text text-anchor="middle" x="153" y="-175.5" font-family="Helvetica,sans-Serif" font-size="10.00">macro_command.h</text>
</a>
</g>
</g>
<!-- Node1&#45;&gt;Node2 -->
<g id="edge1" class="edge"><title>Node1&#45;&gt;Node2</title>
<path fill="none" stroke="midnightblue" d="M184.284,-224.399C178.449,-215.932 170.984,-205.099 164.81,-196.139"/>
<polygon fill="midnightblue" stroke="midnightblue" points="167.522,-193.906 158.966,-187.658 161.758,-197.878 167.522,-193.906"/>
</g>
<!-- Node5 -->
<g id="node5" class="node"><title>Node5</title>
<g id="a_node5"><a xlink:href="../../d9/d71/list__iterator_8h.html" target="_top" xlink:title="list_iterator.h">
<polygon fill="white" stroke="black" points="89.5,-56.5 89.5,-75.5 162.5,-75.5 162.5,-56.5 89.5,-56.5"/>
<text text-anchor="middle" x="126" y="-63.5" font-family="Helvetica,sans-Serif" font-size="10.00">list_iterator.h</text>
</a>
</g>
</g>
<!-- Node1&#45;&gt;Node5 -->
<g id="edge8" class="edge"><title>Node1&#45;&gt;Node5</title>
<path fill="none" stroke="midnightblue" d="M202.476,-224.405C216.115,-199.709 239.259,-147.839 217,-112 206.957,-95.8302 189.192,-85.2946 172.008,-78.5173"/>
<polygon fill="midnightblue" stroke="midnightblue" points="173.168,-75.2151 162.573,-75.1268 170.8,-81.8026 173.168,-75.2151"/>
</g>
<!-- Node3 -->
<g id="node3" class="node"><title>Node3</title>
<g id="a_node3"><a xlink:href="../../db/dd7/command__interface_8h.html" target="_top" xlink:title="command_interface.h">
<polygon fill="white" stroke="black" points="98,-112.5 98,-131.5 208,-131.5 208,-112.5 98,-112.5"/>
<text text-anchor="middle" x="153" y="-119.5" font-family="Helvetica,sans-Serif" font-size="10.00">command_interface.h</text>
</a>
</g>
</g>
<!-- Node2&#45;&gt;Node3 -->
<g id="edge2" class="edge"><title>Node2&#45;&gt;Node3</title>
<path fill="none" stroke="midnightblue" d="M153,-168.083C153,-161.006 153,-150.861 153,-141.986"/>
<polygon fill="midnightblue" stroke="midnightblue" points="156.5,-141.751 153,-131.751 149.5,-141.751 156.5,-141.751"/>
</g>
<!-- Node4 -->
<g id="node4" class="node"><title>Node4</title>
<g id="a_node4"><a xlink:href="../../da/d23/list_8h.html" target="_top" xlink:title="../iterator/list.h">
<polygon fill="white" stroke="black" points="0,-112.5 0,-131.5 80,-131.5 80,-112.5 0,-112.5"/>
<text text-anchor="middle" x="40" y="-119.5" font-family="Helvetica,sans-Serif" font-size="10.00">../iterator/list.h</text>
</a>
</g>
</g>
<!-- Node2&#45;&gt;Node4 -->
<g id="edge3" class="edge"><title>Node2&#45;&gt;Node4</title>
<path fill="none" stroke="midnightblue" d="M135.095,-168.444C116.746,-159.675 87.9946,-145.935 66.9064,-135.858"/>
<polygon fill="midnightblue" stroke="midnightblue" points="68.3532,-132.67 57.8214,-131.516 65.335,-138.986 68.3532,-132.67"/>
</g>
<!-- Node4&#45;&gt;Node5 -->
<g id="edge4" class="edge"><title>Node4&#45;&gt;Node5</title>
<path fill="none" stroke="midnightblue" d="M53.8174,-112.324C67.233,-103.9 87.8241,-90.9709 103.586,-81.0741"/>
<polygon fill="midnightblue" stroke="midnightblue" points="105.609,-83.9364 112.217,-75.6545 101.887,-78.0081 105.609,-83.9364"/>
</g>
<!-- Node7 -->
<g id="node7" class="node"><title>Node7</title>
<g id="a_node7"><a xlink:href="../../dd/d8c/list__interface_8h.html" target="_top" xlink:title="list_interface.h">
<polygon fill="white" stroke="black" points="0,-0.5 0,-19.5 80,-19.5 80,-0.5 0,-0.5"/>
<text text-anchor="middle" x="40" y="-7.5" font-family="Helvetica,sans-Serif" font-size="10.00">list_interface.h</text>
</a>
</g>
</g>
<!-- Node4&#45;&gt;Node7 -->
<g id="edge7" class="edge"><title>Node4&#45;&gt;Node7</title>
<path fill="none" stroke="midnightblue" d="M40,-112.368C40,-94.617 40,-53.6664 40,-29.5974"/>
<polygon fill="midnightblue" stroke="midnightblue" points="43.5001,-29.5914 40,-19.5914 36.5001,-29.5915 43.5001,-29.5914"/>
</g>
<!-- Node6 -->
<g id="node6" class="node"><title>Node6</title>
<g id="a_node6"><a xlink:href="../../d6/da4/iterator__interface_8h.html" target="_top" xlink:title="iterator_interface.h">
<polygon fill="white" stroke="black" points="98.5,-0.5 98.5,-19.5 195.5,-19.5 195.5,-0.5 98.5,-0.5"/>
<text text-anchor="middle" x="147" y="-7.5" font-family="Helvetica,sans-Serif" font-size="10.00">iterator_interface.h</text>
</a>
</g>
</g>
<!-- Node5&#45;&gt;Node6 -->
<g id="edge5" class="edge"><title>Node5&#45;&gt;Node6</title>
<path fill="none" stroke="midnightblue" d="M129.468,-56.083C132.312,-48.77 136.429,-38.1814 139.96,-29.1034"/>
<polygon fill="midnightblue" stroke="midnightblue" points="143.234,-30.3397 143.597,-19.7511 136.71,-27.8025 143.234,-30.3397"/>
</g>
<!-- Node5&#45;&gt;Node7 -->
<g id="edge6" class="edge"><title>Node5&#45;&gt;Node7</title>
<path fill="none" stroke="midnightblue" d="M112.183,-56.324C98.767,-47.9002 78.1759,-34.9709 62.4144,-25.0741"/>
<polygon fill="midnightblue" stroke="midnightblue" points="64.1132,-22.0081 53.7831,-19.6545 60.3908,-27.9364 64.1132,-22.0081"/>
</g>
</g>
</svg>
