<?xml version="1.0" encoding="UTF-8" standalone="no"?>
<!DOCTYPE svg PUBLIC "-//W3C//DTD SVG 1.1//EN"
 "http://www.w3.org/Graphics/SVG/1.1/DTD/svg11.dtd">
<!-- Generated by graphviz version 2.38.0 (20140413.2041)
 -->
<!-- Title: operational::strategy::CompositorInterface Pages: 1 -->
<svg width="359pt" height="204pt"
 viewBox="0.00 0.00 359.00 204.00" xmlns="http://www.w3.org/2000/svg" xmlns:xlink="http://www.w3.org/1999/xlink">
<g id="graph0" class="graph" transform="scale(1 1) rotate(0) translate(4 200)">
<title>operational::strategy::CompositorInterface</title>
<polygon fill="white" stroke="none" points="-4,4 -4,-200 355,-200 355,4 -4,4"/>
<!-- Node1 -->
<g id="node1" class="node"><title>Node1</title>
<polygon fill="#bfbfbf" stroke="black" points="113.5,-116.5 113.5,-195.5 237.5,-195.5 237.5,-116.5 113.5,-116.5"/>
<text text-anchor="start" x="121.5" y="-183.5" font-family="Helvetica,sans-Serif" font-size="10.00">operational::strategy</text>
<text text-anchor="middle" x="175.5" y="-172.5" font-family="Helvetica,sans-Serif" font-size="10.00">::CompositorInterface</text>
<polyline fill="none" stroke="black" points="113.5,-165.5 237.5,-165.5 "/>
<text text-anchor="middle" x="175.5" y="-153.5" font-family="Helvetica,sans-Serif" font-size="10.00"> </text>
<polyline fill="none" stroke="black" points="113.5,-146.5 237.5,-146.5 "/>
<text text-anchor="start" x="121.5" y="-134.5" font-family="Helvetica,sans-Serif" font-size="10.00">+ ~CompositorInterface()</text>
<text text-anchor="start" x="121.5" y="-123.5" font-family="Helvetica,sans-Serif" font-size="10.00">+ Compose()</text>
</g>
<!-- Node2 -->
<g id="node2" class="node"><title>Node2</title>
<g id="a_node2"><a xlink:href="../../d8/d76/classoperational_1_1strategy_1_1_array_compositor.html" target="_top" xlink:title="{operational::strategy\l::ArrayCompositor\n||+ ArrayCompositor()\l+ Compose()\l}">
<polygon fill="white" stroke="black" points="0,-0.5 0,-79.5 105,-79.5 105,-0.5 0,-0.5"/>
<text text-anchor="start" x="8" y="-67.5" font-family="Helvetica,sans-Serif" font-size="10.00">operational::strategy</text>
<text text-anchor="middle" x="52.5" y="-56.5" font-family="Helvetica,sans-Serif" font-size="10.00">::ArrayCompositor</text>
<polyline fill="none" stroke="black" points="0,-49.5 105,-49.5 "/>
<text text-anchor="middle" x="52.5" y="-37.5" font-family="Helvetica,sans-Serif" font-size="10.00"> </text>
<polyline fill="none" stroke="black" points="0,-30.5 105,-30.5 "/>
<text text-anchor="start" x="8" y="-18.5" font-family="Helvetica,sans-Serif" font-size="10.00">+ ArrayCompositor()</text>
<text text-anchor="start" x="8" y="-7.5" font-family="Helvetica,sans-Serif" font-size="10.00">+ Compose()</text>
</a>
</g>
</g>
<!-- Node1&#45;&gt;Node2 -->
<g id="edge1" class="edge"><title>Node1&#45;&gt;Node2</title>
<path fill="none" stroke="midnightblue" d="M126.216,-109.322C115.57,-99.4553 104.416,-89.1173 94.0993,-79.5555"/>
<polygon fill="none" stroke="midnightblue" points="124.144,-112.174 133.858,-116.405 128.903,-107.04 124.144,-112.174"/>
</g>
<!-- Node3 -->
<g id="node3" class="node"><title>Node3</title>
<g id="a_node3"><a xlink:href="../../db/d1e/classoperational_1_1strategy_1_1_simple_compositor.html" target="_top" xlink:title="{operational::strategy\l::SimpleCompositor\n||+ Compose()\l}">
<polygon fill="white" stroke="black" points="123,-6 123,-74 228,-74 228,-6 123,-6"/>
<text text-anchor="start" x="131" y="-62" font-family="Helvetica,sans-Serif" font-size="10.00">operational::strategy</text>
<text text-anchor="middle" x="175.5" y="-51" font-family="Helvetica,sans-Serif" font-size="10.00">::SimpleCompositor</text>
<polyline fill="none" stroke="black" points="123,-44 228,-44 "/>
<text text-anchor="middle" x="175.5" y="-32" font-family="Helvetica,sans-Serif" font-size="10.00"> </text>
<polyline fill="none" stroke="black" points="123,-25 228,-25 "/>
<text text-anchor="start" x="131" y="-13" font-family="Helvetica,sans-Serif" font-size="10.00">+ Compose()</text>
</a>
</g>
</g>
<!-- Node1&#45;&gt;Node3 -->
<g id="edge2" class="edge"><title>Node1&#45;&gt;Node3</title>
<path fill="none" stroke="midnightblue" d="M175.5,-106.228C175.5,-95.4305 175.5,-84.2307 175.5,-74.2225"/>
<polygon fill="none" stroke="midnightblue" points="172,-106.405 175.5,-116.405 179,-106.405 172,-106.405"/>
</g>
<!-- Node4 -->
<g id="node4" class="node"><title>Node4</title>
<g id="a_node4"><a xlink:href="../../d1/d0e/classoperational_1_1strategy_1_1_tex_compositor.html" target="_top" xlink:title="{operational::strategy\l::TexCompositor\n||+ Compose()\l}">
<polygon fill="white" stroke="black" points="246,-6 246,-74 351,-74 351,-6 246,-6"/>
<text text-anchor="start" x="254" y="-62" font-family="Helvetica,sans-Serif" font-size="10.00">operational::strategy</text>
<text text-anchor="middle" x="298.5" y="-51" font-family="Helvetica,sans-Serif" font-size="10.00">::TexCompositor</text>
<polyline fill="none" stroke="black" points="246,-44 351,-44 "/>
<text text-anchor="middle" x="298.5" y="-32" font-family="Helvetica,sans-Serif" font-size="10.00"> </text>
<polyline fill="none" stroke="black" points="246,-25 351,-25 "/>
<text text-anchor="start" x="254" y="-13" font-family="Helvetica,sans-Serif" font-size="10.00">+ Compose()</text>
</a>
</g>
</g>
<!-- Node1&#45;&gt;Node4 -->
<g id="edge3" class="edge"><title>Node1&#45;&gt;Node4</title>
<path fill="none" stroke="midnightblue" d="M224.535,-109.553C237.267,-97.7524 250.743,-85.2624 262.655,-74.2225"/>
<polygon fill="none" stroke="midnightblue" points="222.097,-107.04 217.142,-116.405 226.856,-112.174 222.097,-107.04"/>
</g>
</g>
</svg>
