<?xml version="1.0" encoding="UTF-8" standalone="no"?>
<!DOCTYPE svg PUBLIC "-//W3C//DTD SVG 1.1//EN"
 "http://www.w3.org/Graphics/SVG/1.1/DTD/svg11.dtd">
<!-- Generated by graphviz version 2.38.0 (20140413.2041)
 -->
<!-- Title: operational::madiator::ListBox Pages: 1 -->
<svg width="151pt" height="248pt"
 viewBox="0.00 0.00 151.00 248.00" xmlns="http://www.w3.org/2000/svg" xmlns:xlink="http://www.w3.org/1999/xlink">
<g id="graph0" class="graph" transform="scale(1 1) rotate(0) translate(4 244)">
<title>operational::madiator::ListBox</title>
<polygon fill="white" stroke="none" points="-4,4 -4,-244 147,-244 147,4 -4,4"/>
<!-- Node1 -->
<g id="node1" class="node"><title>Node1</title>
<polygon fill="#bfbfbf" stroke="black" points="18,-0.5 18,-112.5 125,-112.5 125,-0.5 18,-0.5"/>
<text text-anchor="start" x="26" y="-100.5" font-family="Helvetica,sans-Serif" font-size="10.00">operational::madiator</text>
<text text-anchor="middle" x="71.5" y="-89.5" font-family="Helvetica,sans-Serif" font-size="10.00">::ListBox</text>
<polyline fill="none" stroke="black" points="18,-82.5 125,-82.5 "/>
<text text-anchor="middle" x="71.5" y="-70.5" font-family="Helvetica,sans-Serif" font-size="10.00"> </text>
<polyline fill="none" stroke="black" points="18,-63.5 125,-63.5 "/>
<text text-anchor="start" x="26" y="-51.5" font-family="Helvetica,sans-Serif" font-size="10.00">+ ListBox()</text>
<text text-anchor="start" x="26" y="-40.5" font-family="Helvetica,sans-Serif" font-size="10.00">+ GetSelection()</text>
<text text-anchor="start" x="26" y="-29.5" font-family="Helvetica,sans-Serif" font-size="10.00">+ SetList()</text>
<text text-anchor="start" x="26" y="-18.5" font-family="Helvetica,sans-Serif" font-size="10.00">+ HandleMouse()</text>
<text text-anchor="start" x="26" y="-7.5" font-family="Helvetica,sans-Serif" font-size="10.00">+ Changed()</text>
</g>
<!-- Node2 -->
<g id="node2" class="node"><title>Node2</title>
<g id="a_node2"><a xlink:href="../../de/d29/classoperational_1_1madiator_1_1_mediator_widget_interface.html" target="_top" xlink:title="{operational::madiator\l::MediatorWidgetInterface\n||+ ~MediatorWidgetInterface()\l+ Changed()\l+ HandleMouse()\l}">
<polygon fill="white" stroke="black" points="0,-149.5 0,-239.5 143,-239.5 143,-149.5 0,-149.5"/>
<text text-anchor="start" x="8" y="-227.5" font-family="Helvetica,sans-Serif" font-size="10.00">operational::madiator</text>
<text text-anchor="middle" x="71.5" y="-216.5" font-family="Helvetica,sans-Serif" font-size="10.00">::MediatorWidgetInterface</text>
<polyline fill="none" stroke="black" points="0,-209.5 143,-209.5 "/>
<text text-anchor="middle" x="71.5" y="-197.5" font-family="Helvetica,sans-Serif" font-size="10.00"> </text>
<polyline fill="none" stroke="black" points="0,-190.5 143,-190.5 "/>
<text text-anchor="start" x="8" y="-178.5" font-family="Helvetica,sans-Serif" font-size="10.00">+ ~MediatorWidgetInterface()</text>
<text text-anchor="start" x="8" y="-167.5" font-family="Helvetica,sans-Serif" font-size="10.00">+ Changed()</text>
<text text-anchor="start" x="8" y="-156.5" font-family="Helvetica,sans-Serif" font-size="10.00">+ HandleMouse()</text>
</a>
</g>
</g>
<!-- Node2&#45;&gt;Node1 -->
<g id="edge1" class="edge"><title>Node2&#45;&gt;Node1</title>
<path fill="none" stroke="midnightblue" d="M71.5,-139.312C71.5,-130.611 71.5,-121.595 71.5,-112.867"/>
<polygon fill="none" stroke="midnightblue" points="68.0001,-139.345 71.5,-149.345 75.0001,-139.345 68.0001,-139.345"/>
</g>
</g>
</svg>
