<?xml version="1.0" encoding="UTF-8" standalone="no"?>
<!DOCTYPE svg PUBLIC "-//W3C//DTD SVG 1.1//EN"
 "http://www.w3.org/Graphics/SVG/1.1/DTD/svg11.dtd">
<!-- Generated by graphviz version 2.38.0 (20140413.2041)
 -->
<!-- Title: src/operational/src/command/my_class.h Pages: 1 -->
<svg width="272pt" height="117pt"
 viewBox="0.00 0.00 272.00 117.00" xmlns="http://www.w3.org/2000/svg" xmlns:xlink="http://www.w3.org/1999/xlink">
<g id="graph0" class="graph" transform="scale(1 1) rotate(0) translate(4 113)">
<title>src/operational/src/command/my_class.h</title>
<polygon fill="white" stroke="none" points="-4,4 -4,-113 268,-113 268,4 -4,4"/>
<!-- Node1 -->
<g id="node1" class="node"><title>Node1</title>
<polygon fill="#bfbfbf" stroke="black" points="72.5,-78.5 72.5,-108.5 188.5,-108.5 188.5,-78.5 72.5,-78.5"/>
<text text-anchor="start" x="80.5" y="-96.5" font-family="Helvetica,sans-Serif" font-size="10.00">src/operational/src</text>
<text text-anchor="middle" x="130.5" y="-85.5" font-family="Helvetica,sans-Serif" font-size="10.00">/command/my_class.h</text>
</g>
<!-- Node2 -->
<g id="node2" class="node"><title>Node2</title>
<g id="a_node2"><a xlink:href="../../de/d0c/my__class_8cc.html" target="_top" xlink:title="src/operational/src\l/command/my_class.cc">
<polygon fill="white" stroke="black" points="0,-6 0,-36 121,-36 121,-6 0,-6"/>
<text text-anchor="start" x="8" y="-24" font-family="Helvetica,sans-Serif" font-size="10.00">src/operational/src</text>
<text text-anchor="middle" x="60.5" y="-13" font-family="Helvetica,sans-Serif" font-size="10.00">/command/my_class.cc</text>
</a>
</g>
</g>
<!-- Node1&#45;&gt;Node2 -->
<g id="edge1" class="edge"><title>Node1&#45;&gt;Node2</title>
<path fill="none" stroke="midnightblue" d="M109.018,-70.8641C97.8475,-59.6142 84.5071,-46.1786 74.6445,-36.2455"/>
<polygon fill="midnightblue" stroke="midnightblue" points="106.805,-73.6031 116.334,-78.2333 111.772,-68.671 106.805,-73.6031"/>
</g>
<!-- Node3 -->
<g id="node3" class="node"><title>Node3</title>
<g id="a_node3"><a xlink:href="../../de/de3/command__test_8cc.html" target="_top" xlink:title="src/operational_tests\l/src/command/command\l_test.cc">
<polygon fill="white" stroke="black" points="139,-0.5 139,-41.5 264,-41.5 264,-0.5 139,-0.5"/>
<text text-anchor="start" x="147" y="-29.5" font-family="Helvetica,sans-Serif" font-size="10.00">src/operational_tests</text>
<text text-anchor="start" x="147" y="-18.5" font-family="Helvetica,sans-Serif" font-size="10.00">/src/command/command</text>
<text text-anchor="middle" x="201.5" y="-7.5" font-family="Helvetica,sans-Serif" font-size="10.00">_test.cc</text>
</a>
</g>
</g>
<!-- Node1&#45;&gt;Node3 -->
<g id="edge2" class="edge"><title>Node1&#45;&gt;Node3</title>
<path fill="none" stroke="midnightblue" d="M152.051,-71.1007C161.508,-61.7107 172.534,-50.7615 181.773,-41.5884"/>
<polygon fill="midnightblue" stroke="midnightblue" points="149.498,-68.7036 144.868,-78.2333 154.43,-73.6708 149.498,-68.7036"/>
</g>
</g>
</svg>
