<?xml version="1.0" encoding="UTF-8" standalone="no"?>
<!DOCTYPE svg PUBLIC "-//W3C//DTD SVG 1.1//EN"
 "http://www.w3.org/Graphics/SVG/1.1/DTD/svg11.dtd">
<!-- Generated by graphviz version 2.38.0 (20140413.2041)
 -->
<!-- Title: src/operational/src/observer/clock_timer.h Pages: 1 -->
<svg width="333pt" height="263pt"
 viewBox="0.00 0.00 333.00 263.00" xmlns="http://www.w3.org/2000/svg" xmlns:xlink="http://www.w3.org/1999/xlink">
<g id="graph0" class="graph" transform="scale(1 1) rotate(0) translate(4 259)">
<title>src/operational/src/observer/clock_timer.h</title>
<polygon fill="white" stroke="none" points="-4,4 -4,-259 329,-259 329,4 -4,4"/>
<!-- Node1 -->
<g id="node1" class="node"><title>Node1</title>
<polygon fill="#bfbfbf" stroke="black" points="4.5,-224.5 4.5,-254.5 121.5,-254.5 121.5,-224.5 4.5,-224.5"/>
<text text-anchor="start" x="12.5" y="-242.5" font-family="Helvetica,sans-Serif" font-size="10.00">src/operational/src</text>
<text text-anchor="middle" x="63" y="-231.5" font-family="Helvetica,sans-Serif" font-size="10.00">/observer/clock_timer.h</text>
</g>
<!-- Node2 -->
<g id="node2" class="node"><title>Node2</title>
<g id="a_node2"><a xlink:href="../../d0/d6a/clock__tick__observer_8h.html" target="_top" xlink:title="clock_tick_observer.h">
<polygon fill="white" stroke="black" points="0,-56.5 0,-75.5 110,-75.5 110,-56.5 0,-56.5"/>
<text text-anchor="middle" x="55" y="-63.5" font-family="Helvetica,sans-Serif" font-size="10.00">clock_tick_observer.h</text>
</a>
</g>
</g>
<!-- Node1&#45;&gt;Node2 -->
<g id="edge1" class="edge"><title>Node1&#45;&gt;Node2</title>
<path fill="none" stroke="midnightblue" d="M62.3453,-224.465C60.9104,-193.704 57.4876,-120.329 55.8723,-85.7003"/>
<polygon fill="midnightblue" stroke="midnightblue" points="59.3615,-85.3857 55.3993,-75.5597 52.3691,-85.712 59.3615,-85.3857"/>
</g>
<!-- Node3 -->
<g id="node3" class="node"><title>Node3</title>
<g id="a_node3"><a xlink:href="../../d8/da8/clock__tick_8h.html" target="_top" xlink:title="clock_tick.h">
<polygon fill="white" stroke="black" points="74.5,-168.5 74.5,-187.5 143.5,-187.5 143.5,-168.5 74.5,-168.5"/>
<text text-anchor="middle" x="109" y="-175.5" font-family="Helvetica,sans-Serif" font-size="10.00">clock_tick.h</text>
</a>
</g>
</g>
<!-- Node1&#45;&gt;Node3 -->
<g id="edge2" class="edge"><title>Node1&#45;&gt;Node3</title>
<path fill="none" stroke="midnightblue" d="M73.9014,-224.399C80.5857,-215.753 89.176,-204.642 96.185,-195.576"/>
<polygon fill="midnightblue" stroke="midnightblue" points="98.9592,-197.71 102.307,-187.658 93.4212,-193.428 98.9592,-197.71"/>
</g>
<!-- Node3&#45;&gt;Node2 -->
<g id="edge3" class="edge"><title>Node3&#45;&gt;Node2</title>
<path fill="none" stroke="midnightblue" d="M100.67,-168.386C92.7834,-159.801 81.12,-145.923 74,-132 66.4724,-117.28 61.4816,-99.1181 58.5121,-85.7376"/>
<polygon fill="midnightblue" stroke="midnightblue" points="61.9133,-84.8997 56.4818,-75.803 55.055,-86.3013 61.9133,-84.8997"/>
</g>
<!-- Node4 -->
<g id="node4" class="node"><title>Node4</title>
<g id="a_node4"><a xlink:href="../../d6/db3/clock__tick__interface_8h.html" target="_top" xlink:title="clock_tick_interface.h">
<polygon fill="white" stroke="black" points="83.5,-112.5 83.5,-131.5 194.5,-131.5 194.5,-112.5 83.5,-112.5"/>
<text text-anchor="middle" x="139" y="-119.5" font-family="Helvetica,sans-Serif" font-size="10.00">clock_tick_interface.h</text>
</a>
</g>
</g>
<!-- Node3&#45;&gt;Node4 -->
<g id="edge4" class="edge"><title>Node3&#45;&gt;Node4</title>
<path fill="none" stroke="midnightblue" d="M113.954,-168.083C118.104,-160.613 124.153,-149.724 129.267,-140.52"/>
<polygon fill="midnightblue" stroke="midnightblue" points="132.341,-142.192 134.138,-131.751 126.222,-138.793 132.341,-142.192"/>
</g>
<!-- Node5 -->
<g id="node5" class="node"><title>Node5</title>
<g id="a_node5"><a xlink:href="../../da/d23/list_8h.html" target="_top" xlink:title="../iterator/list.h">
<polygon fill="white" stroke="black" points="213,-112.5 213,-131.5 293,-131.5 293,-112.5 213,-112.5"/>
<text text-anchor="middle" x="253" y="-119.5" font-family="Helvetica,sans-Serif" font-size="10.00">../iterator/list.h</text>
</a>
</g>
</g>
<!-- Node3&#45;&gt;Node5 -->
<g id="edge6" class="edge"><title>Node3&#45;&gt;Node5</title>
<path fill="none" stroke="midnightblue" d="M131.817,-168.444C155.832,-159.438 193.829,-145.189 220.869,-135.049"/>
<polygon fill="midnightblue" stroke="midnightblue" points="222.155,-138.305 230.29,-131.516 219.697,-131.751 222.155,-138.305"/>
</g>
<!-- Node4&#45;&gt;Node2 -->
<g id="edge5" class="edge"><title>Node4&#45;&gt;Node2</title>
<path fill="none" stroke="midnightblue" d="M125.504,-112.324C112.4,-103.9 92.2881,-90.9709 76.8931,-81.0741"/>
<polygon fill="midnightblue" stroke="midnightblue" points="78.767,-78.118 68.4626,-75.6545 74.9817,-84.0063 78.767,-78.118"/>
</g>
<!-- Node6 -->
<g id="node6" class="node"><title>Node6</title>
<g id="a_node6"><a xlink:href="../../d9/d71/list__iterator_8h.html" target="_top" xlink:title="list_iterator.h">
<polygon fill="white" stroke="black" points="183.5,-56.5 183.5,-75.5 256.5,-75.5 256.5,-56.5 183.5,-56.5"/>
<text text-anchor="middle" x="220" y="-63.5" font-family="Helvetica,sans-Serif" font-size="10.00">list_iterator.h</text>
</a>
</g>
</g>
<!-- Node5&#45;&gt;Node6 -->
<g id="edge7" class="edge"><title>Node5&#45;&gt;Node6</title>
<path fill="none" stroke="midnightblue" d="M247.551,-112.083C242.986,-104.613 236.332,-93.7244 230.707,-84.5199"/>
<polygon fill="midnightblue" stroke="midnightblue" points="233.549,-82.4588 225.348,-75.7511 227.576,-86.109 233.549,-82.4588"/>
</g>
<!-- Node8 -->
<g id="node8" class="node"><title>Node8</title>
<g id="a_node8"><a xlink:href="../../dd/d8c/list__interface_8h.html" target="_top" xlink:title="list_interface.h">
<polygon fill="white" stroke="black" points="245,-0.5 245,-19.5 325,-19.5 325,-0.5 245,-0.5"/>
<text text-anchor="middle" x="285" y="-7.5" font-family="Helvetica,sans-Serif" font-size="10.00">list_interface.h</text>
</a>
</g>
</g>
<!-- Node5&#45;&gt;Node8 -->
<g id="edge10" class="edge"><title>Node5&#45;&gt;Node8</title>
<path fill="none" stroke="midnightblue" d="M255.511,-112.368C260.698,-94.5366 272.696,-53.2953 279.685,-29.2717"/>
<polygon fill="midnightblue" stroke="midnightblue" points="283.068,-30.1711 282.501,-19.5914 276.347,-28.2157 283.068,-30.1711"/>
</g>
<!-- Node7 -->
<g id="node7" class="node"><title>Node7</title>
<g id="a_node7"><a xlink:href="../../d6/da4/iterator__interface_8h.html" target="_top" xlink:title="iterator_interface.h">
<polygon fill="white" stroke="black" points="129.5,-0.5 129.5,-19.5 226.5,-19.5 226.5,-0.5 129.5,-0.5"/>
<text text-anchor="middle" x="178" y="-7.5" font-family="Helvetica,sans-Serif" font-size="10.00">iterator_interface.h</text>
</a>
</g>
</g>
<!-- Node6&#45;&gt;Node7 -->
<g id="edge8" class="edge"><title>Node6&#45;&gt;Node7</title>
<path fill="none" stroke="midnightblue" d="M213.065,-56.083C207.071,-48.3768 198.248,-37.0333 190.952,-27.6531"/>
<polygon fill="midnightblue" stroke="midnightblue" points="193.709,-25.4958 184.806,-19.7511 188.183,-29.7934 193.709,-25.4958"/>
</g>
<!-- Node6&#45;&gt;Node8 -->
<g id="edge9" class="edge"><title>Node6&#45;&gt;Node8</title>
<path fill="none" stroke="midnightblue" d="M230.443,-56.324C240.146,-48.2631 254.815,-36.0765 266.5,-26.3695"/>
<polygon fill="midnightblue" stroke="midnightblue" points="268.911,-28.9163 274.367,-19.8339 264.438,-23.532 268.911,-28.9163"/>
</g>
</g>
</svg>
