<?xml version="1.0" encoding="UTF-8" standalone="no"?>
<!DOCTYPE svg PUBLIC "-//W3C//DTD SVG 1.1//EN"
 "http://www.w3.org/Graphics/SVG/1.1/DTD/svg11.dtd">
<!-- Generated by graphviz version 2.38.0 (20140413.2041)
 -->
<!-- Title: operational::interpreter::VariableExp::Copy Pages: 1 -->
<svg width="291pt" height="39pt"
 viewBox="0.00 0.00 291.00 39.00" xmlns="http://www.w3.org/2000/svg" xmlns:xlink="http://www.w3.org/1999/xlink">
<g id="graph0" class="graph" transform="scale(1 1) rotate(0) translate(4 35)">
<title>operational::interpreter::VariableExp::Copy</title>
<polygon fill="white" stroke="none" points="-4,4 -4,-35 287,-35 287,4 -4,4"/>
<!-- Node1 -->
<g id="node1" class="node"><title>Node1</title>
<polygon fill="#bfbfbf" stroke="black" points="0,-0.5 0,-30.5 113,-30.5 113,-0.5 0,-0.5"/>
<text text-anchor="start" x="8" y="-18.5" font-family="Helvetica,sans-Serif" font-size="10.00">operational::interpreter</text>
<text text-anchor="middle" x="56.5" y="-7.5" font-family="Helvetica,sans-Serif" font-size="10.00">::VariableExp::Copy</text>
</g>
<!-- Node2 -->
<g id="node2" class="node"><title>Node2</title>
<g id="a_node2"><a xlink:href="../../d5/dae/classoperational_1_1interpreter_1_1_variable_exp.html#afb3a8b41ec226dbec4f5eaf62ee6a5bf" target="_top" xlink:title="operational::interpreter\l::VariableExp::VariableExp">
<polygon fill="white" stroke="black" points="149,-0.5 149,-30.5 283,-30.5 283,-0.5 149,-0.5"/>
<text text-anchor="start" x="157" y="-18.5" font-family="Helvetica,sans-Serif" font-size="10.00">operational::interpreter</text>
<text text-anchor="middle" x="216" y="-7.5" font-family="Helvetica,sans-Serif" font-size="10.00">::VariableExp::VariableExp</text>
</a>
</g>
</g>
<!-- Node1&#45;&gt;Node2 -->
<g id="edge1" class="edge"><title>Node1&#45;&gt;Node2</title>
<path fill="none" stroke="midnightblue" d="M113.029,-15.5C121.368,-15.5 130.088,-15.5 138.768,-15.5"/>
<polygon fill="midnightblue" stroke="midnightblue" points="138.913,-19.0001 148.913,-15.5 138.913,-12.0001 138.913,-19.0001"/>
</g>
</g>
</svg>
