<?xml version="1.0" encoding="UTF-8" standalone="no"?>
<!DOCTYPE svg PUBLIC "-//W3C//DTD SVG 1.1//EN"
 "http://www.w3.org/Graphics/SVG/1.1/DTD/svg11.dtd">
<!-- Generated by graphviz version 2.38.0 (20140413.2041)
 -->
<!-- Title: operational::interpreter::VariableExp::Replace Pages: 1 -->
<svg width="300pt" height="88pt"
 viewBox="0.00 0.00 300.00 88.00" xmlns="http://www.w3.org/2000/svg" xmlns:xlink="http://www.w3.org/1999/xlink">
<g id="graph0" class="graph" transform="scale(1 1) rotate(0) translate(4 84)">
<title>operational::interpreter::VariableExp::Replace</title>
<polygon fill="white" stroke="none" points="-4,4 -4,-84 296,-84 296,4 -4,4"/>
<!-- Node1 -->
<g id="node1" class="node"><title>Node1</title>
<polygon fill="#bfbfbf" stroke="black" points="0,-24.5 0,-54.5 116,-54.5 116,-24.5 0,-24.5"/>
<text text-anchor="start" x="8" y="-42.5" font-family="Helvetica,sans-Serif" font-size="10.00">operational::interpreter</text>
<text text-anchor="middle" x="58" y="-31.5" font-family="Helvetica,sans-Serif" font-size="10.00">::VariableExp::Replace</text>
</g>
<!-- Node2 -->
<g id="node2" class="node"><title>Node2</title>
<g id="a_node2"><a xlink:href="../../d0/d5f/classoperational_1_1interpreter_1_1_boolean_exp_interface.html#a3f8f830cdb0e76c8a95b003dc0d57ac0" target="_top" xlink:title="operational::interpreter\l::BooleanExpInterface::Copy">
<polygon fill="white" stroke="black" points="152,-49.5 152,-79.5 292,-79.5 292,-49.5 152,-49.5"/>
<text text-anchor="start" x="160" y="-67.5" font-family="Helvetica,sans-Serif" font-size="10.00">operational::interpreter</text>
<text text-anchor="middle" x="222" y="-56.5" font-family="Helvetica,sans-Serif" font-size="10.00">::BooleanExpInterface::Copy</text>
</a>
</g>
</g>
<!-- Node1&#45;&gt;Node2 -->
<g id="edge1" class="edge"><title>Node1&#45;&gt;Node2</title>
<path fill="none" stroke="midnightblue" d="M116.115,-48.3141C124.43,-49.5973 133.115,-50.9374 141.772,-52.2734"/>
<polygon fill="midnightblue" stroke="midnightblue" points="141.481,-55.77 151.898,-53.8361 142.549,-48.8519 141.481,-55.77"/>
</g>
<!-- Node3 -->
<g id="node3" class="node"><title>Node3</title>
<g id="a_node3"><a xlink:href="../../d5/dae/classoperational_1_1interpreter_1_1_variable_exp.html#afb3a8b41ec226dbec4f5eaf62ee6a5bf" target="_top" xlink:title="operational::interpreter\l::VariableExp::VariableExp">
<polygon fill="white" stroke="black" points="155,-0.5 155,-30.5 289,-30.5 289,-0.5 155,-0.5"/>
<text text-anchor="start" x="163" y="-18.5" font-family="Helvetica,sans-Serif" font-size="10.00">operational::interpreter</text>
<text text-anchor="middle" x="222" y="-7.5" font-family="Helvetica,sans-Serif" font-size="10.00">::VariableExp::VariableExp</text>
</a>
</g>
</g>
<!-- Node1&#45;&gt;Node3 -->
<g id="edge2" class="edge"><title>Node1&#45;&gt;Node3</title>
<path fill="none" stroke="midnightblue" d="M116.115,-31.0385C125.445,-29.6563 135.24,-28.2052 144.939,-26.7682"/>
<polygon fill="midnightblue" stroke="midnightblue" points="145.611,-30.2071 154.99,-25.2793 144.585,-23.2827 145.611,-30.2071"/>
</g>
</g>
</svg>
