<?xml version="1.0" encoding="UTF-8" standalone="no"?>
<!DOCTYPE svg PUBLIC "-//W3C//DTD SVG 1.1//EN"
 "http://www.w3.org/Graphics/SVG/1.1/DTD/svg11.dtd">
<!-- Generated by graphviz version 2.38.0 (20140413.2041)
 -->
<!-- Title: operational::interpreter::VariableExp::Evaluate Pages: 1 -->
<svg width="299pt" height="50pt"
 viewBox="0.00 0.00 299.00 50.00" xmlns="http://www.w3.org/2000/svg" xmlns:xlink="http://www.w3.org/1999/xlink">
<g id="graph0" class="graph" transform="scale(1 1) rotate(0) translate(4 46)">
<title>operational::interpreter::VariableExp::Evaluate</title>
<polygon fill="white" stroke="none" points="-4,4 -4,-46 295,-46 295,4 -4,4"/>
<!-- Node1 -->
<g id="node1" class="node"><title>Node1</title>
<polygon fill="#bfbfbf" stroke="black" points="0,-6 0,-36 118,-36 118,-6 0,-6"/>
<text text-anchor="start" x="8" y="-24" font-family="Helvetica,sans-Serif" font-size="10.00">operational::interpreter</text>
<text text-anchor="middle" x="59" y="-13" font-family="Helvetica,sans-Serif" font-size="10.00">::VariableExp::Evaluate</text>
</g>
<!-- Node2 -->
<g id="node2" class="node"><title>Node2</title>
<g id="a_node2"><a xlink:href="../../dc/dcd/classoperational_1_1interpreter_1_1_interpreter_context_interface.html#abc84f5ccb4b99669399d8877e3047dff" target="_top" xlink:title="operational::interpreter\l::InterpreterContextInterface\l::Lookup">
<polygon fill="white" stroke="black" points="154,-0.5 154,-41.5 291,-41.5 291,-0.5 154,-0.5"/>
<text text-anchor="start" x="162" y="-29.5" font-family="Helvetica,sans-Serif" font-size="10.00">operational::interpreter</text>
<text text-anchor="start" x="162" y="-18.5" font-family="Helvetica,sans-Serif" font-size="10.00">::InterpreterContextInterface</text>
<text text-anchor="middle" x="222.5" y="-7.5" font-family="Helvetica,sans-Serif" font-size="10.00">::Lookup</text>
</a>
</g>
</g>
<!-- Node1&#45;&gt;Node2 -->
<g id="edge1" class="edge"><title>Node1&#45;&gt;Node2</title>
<path fill="none" stroke="midnightblue" d="M118.305,-21C126.618,-21 135.274,-21 143.884,-21"/>
<polygon fill="midnightblue" stroke="midnightblue" points="143.945,-24.5001 153.945,-21 143.945,-17.5001 143.945,-24.5001"/>
</g>
</g>
</svg>
