<?xml version="1.0" encoding="UTF-8" standalone="no"?>
<!DOCTYPE svg PUBLIC "-//W3C//DTD SVG 1.1//EN"
 "http://www.w3.org/Graphics/SVG/1.1/DTD/svg11.dtd">
<!-- Generated by graphviz version 2.38.0 (20140413.2041)
 -->
<!-- Title: operational::interpreter::VariableExp::VariableExp Pages: 1 -->
<svg width="294pt" height="88pt"
 viewBox="0.00 0.00 294.00 88.00" xmlns="http://www.w3.org/2000/svg" xmlns:xlink="http://www.w3.org/1999/xlink">
<g id="graph0" class="graph" transform="scale(1 1) rotate(0) translate(4 84)">
<title>operational::interpreter::VariableExp::VariableExp</title>
<polygon fill="white" stroke="none" points="-4,4 -4,-84 290,-84 290,4 -4,4"/>
<!-- Node1 -->
<g id="node1" class="node"><title>Node1</title>
<polygon fill="#bfbfbf" stroke="black" points="0,-24.5 0,-54.5 134,-54.5 134,-24.5 0,-24.5"/>
<text text-anchor="start" x="8" y="-42.5" font-family="Helvetica,sans-Serif" font-size="10.00">operational::interpreter</text>
<text text-anchor="middle" x="67" y="-31.5" font-family="Helvetica,sans-Serif" font-size="10.00">::VariableExp::VariableExp</text>
</g>
<!-- Node2 -->
<g id="node2" class="node"><title>Node2</title>
<g id="a_node2"><a xlink:href="../../d5/dae/classoperational_1_1interpreter_1_1_variable_exp.html#a9c0a91f125cc031675219185023b46f9" target="_top" xlink:title="operational::interpreter\l::VariableExp::Copy">
<polygon fill="white" stroke="black" points="171.5,-49.5 171.5,-79.5 284.5,-79.5 284.5,-49.5 171.5,-49.5"/>
<text text-anchor="start" x="179.5" y="-67.5" font-family="Helvetica,sans-Serif" font-size="10.00">operational::interpreter</text>
<text text-anchor="middle" x="228" y="-56.5" font-family="Helvetica,sans-Serif" font-size="10.00">::VariableExp::Copy</text>
</a>
</g>
</g>
<!-- Node1&#45;&gt;Node2 -->
<g id="edge1" class="edge"><title>Node1&#45;&gt;Node2</title>
<path fill="none" stroke="midnightblue" d="M144.202,-51.4814C153.238,-52.9022 162.331,-54.3319 171.012,-55.6969"/>
<polygon fill="midnightblue" stroke="midnightblue" points="144.471,-47.9809 134.049,-49.8851 143.384,-54.8959 144.471,-47.9809"/>
</g>
<!-- Node3 -->
<g id="node3" class="node"><title>Node3</title>
<g id="a_node3"><a xlink:href="../../d5/dae/classoperational_1_1interpreter_1_1_variable_exp.html#aa8fa8319967befc7a24ec9cc838ff67e" target="_top" xlink:title="operational::interpreter\l::VariableExp::Replace">
<polygon fill="white" stroke="black" points="170,-0.5 170,-30.5 286,-30.5 286,-0.5 170,-0.5"/>
<text text-anchor="start" x="178" y="-18.5" font-family="Helvetica,sans-Serif" font-size="10.00">operational::interpreter</text>
<text text-anchor="middle" x="228" y="-7.5" font-family="Helvetica,sans-Serif" font-size="10.00">::VariableExp::Replace</text>
</a>
</g>
</g>
<!-- Node1&#45;&gt;Node3 -->
<g id="edge2" class="edge"><title>Node1&#45;&gt;Node3</title>
<path fill="none" stroke="midnightblue" d="M144.129,-28.0088C152.757,-26.7065 161.438,-25.3961 169.765,-24.1393"/>
<polygon fill="midnightblue" stroke="midnightblue" points="143.415,-24.5769 134.049,-29.5303 144.459,-31.4985 143.415,-24.5769"/>
</g>
</g>
</svg>
