<?xml version="1.0" encoding="UTF-8" standalone="no"?>
<!DOCTYPE svg PUBLIC "-//W3C//DTD SVG 1.1//EN"
 "http://www.w3.org/Graphics/SVG/1.1/DTD/svg11.dtd">
<!-- Generated by graphviz version 2.38.0 (20140413.2041)
 -->
<!-- Title: src/operational/src/observer/clock_tick_observer.h Pages: 1 -->
<!--zoomable 418 -->
<svg id="main" version="1.1" xmlns="http://www.w3.org/2000/svg" xmlns:xlink="http://www.w3.org/1999/xlink" xml:space="preserve" onload="init(evt)">
<style type="text/css"><![CDATA[
.edge:hover path { stroke: red; }
.edge:hover polygon { stroke: red; fill: red; }
]]></style>
<script type="text/javascript"><![CDATA[
var edges = document.getElementsByTagName('g');
if (edges && edges.length) {
  for (var i=0;i<edges.length;i++) {
    if (edges[i].id.substr(0,4)=='edge') {
      edges[i].setAttribute('class','edge');
    }
  }
}
]]></script>
        <defs>
                <circle id="rim" cx="0" cy="0" r="7"/>
                <circle id="rim2" cx="0" cy="0" r="3.5"/>
                <g id="zoomPlus">
                        <use xlink:href="#rim" fill="#404040">
                                <set attributeName="fill" to="#808080" begin="zoomplus.mouseover" end="zoomplus.mouseout"/>
                        </use>
                        <path d="M-4,0h8M0,-4v8" fill="none" stroke="white" stroke-width="1.5" pointer-events="none"/>
                </g>
                <g id="zoomMin">
                        <use xlink:href="#rim" fill="#404040">
                                <set attributeName="fill" to="#808080" begin="zoomminus.mouseover" end="zoomminus.mouseout"/>
                        </use>
                        <path d="M-4,0h8" fill="none" stroke="white" stroke-width="1.5" pointer-events="none"/>
                </g>
                <g id="dirArrow">
                        <path fill="none" stroke="white" stroke-width="1.5" d="M0,-3.0v7 M-2.5,-0.5L0,-3.0L2.5,-0.5"/>
                </g>
               <g id="resetDef">
                       <use xlink:href="#rim2" fill="#404040">
                               <set attributeName="fill" to="#808080" begin="reset.mouseover" end="reset.mouseout"/>
                       </use>
               </g>
        </defs>

<script type="text/javascript">
var viewWidth = 682;
var viewHeight = 418;
var sectionId = 'dynsection-0';
</script>
<script xlink:href="../../svgpan.js"/>
<svg id="graph" class="graph">
<g id="viewport">
<title>src/operational/src/observer/clock_tick_observer.h</title>
<polygon fill="white" stroke="none" points="-4,4 -4,-414 678,-414 678,4 -4,4"/>
<!-- Node1 -->
<g id="node1" class="node"><title>Node1</title>
<polygon fill="#bfbfbf" stroke="black" points="93,-368.5 93,-409.5 196,-409.5 196,-368.5 93,-368.5"/>
<text text-anchor="start" x="101" y="-397.5" font-family="Helvetica,sans-Serif" font-size="10.00">src/operational/src</text>
<text text-anchor="start" x="101" y="-386.5" font-family="Helvetica,sans-Serif" font-size="10.00">/observer/clock_tick</text>
<text text-anchor="middle" x="144.5" y="-375.5" font-family="Helvetica,sans-Serif" font-size="10.00">_observer.h</text>
</g>
<!-- Node2 -->
<g id="node2" class="node"><title>Node2</title>
<g id="a_node2"><a xlink:href="../../d7/d55/analog__clock_8h.html" target="_top" xlink:title="src/operational/src\l/observer/analog_clock.h">
<polygon fill="white" stroke="black" points="2.5,-84 2.5,-114 126.5,-114 126.5,-84 2.5,-84"/>
<text text-anchor="start" x="10.5" y="-102" font-family="Helvetica,sans-Serif" font-size="10.00">src/operational/src</text>
<text text-anchor="middle" x="64.5" y="-91" font-family="Helvetica,sans-Serif" font-size="10.00">/observer/analog_clock.h</text>
</a>
</g>
</g>
<!-- Node1&#45;&gt;Node2 -->
<g id="edge1" class="edge"><title>Node1&#45;&gt;Node2</title>
<path fill="none" stroke="midnightblue" d="M136.277,-358.398C119.29,-297.243 80.8721,-158.939 68.4527,-114.23"/>
<polygon fill="midnightblue" stroke="midnightblue" points="132.952,-359.506 139.001,-368.205 139.697,-357.633 132.952,-359.506"/>
</g>
<!-- Node5 -->
<g id="node5" class="node"><title>Node5</title>
<g id="a_node5"><a xlink:href="../../d7/d97/clock__timer_8h.html" target="_top" xlink:title="src/operational/src\l/observer/clock_timer.h">
<polygon fill="white" stroke="black" points="153,-156.5 153,-186.5 270,-186.5 270,-156.5 153,-156.5"/>
<text text-anchor="start" x="161" y="-174.5" font-family="Helvetica,sans-Serif" font-size="10.00">src/operational/src</text>
<text text-anchor="middle" x="211.5" y="-163.5" font-family="Helvetica,sans-Serif" font-size="10.00">/observer/clock_timer.h</text>
</a>
</g>
</g>
<!-- Node1&#45;&gt;Node5 -->
<g id="edge4" class="edge"><title>Node1&#45;&gt;Node5</title>
<path fill="none" stroke="midnightblue" d="M140.892,-357.973C138.111,-323.58 137.695,-266.391 158.5,-223 165.588,-208.216 178.991,-195.509 190.544,-186.539"/>
<polygon fill="midnightblue" stroke="midnightblue" points="137.441,-358.66 141.855,-368.292 144.411,-358.01 137.441,-358.66"/>
</g>
<!-- Node11 -->
<g id="node11" class="node"><title>Node11</title>
<g id="a_node11"><a xlink:href="../../d8/da8/clock__tick_8h.html" target="_top" xlink:title="src/operational/src\l/observer/clock_tick.h">
<polygon fill="white" stroke="black" points="168,-223.5 168,-253.5 279,-253.5 279,-223.5 168,-223.5"/>
<text text-anchor="start" x="176" y="-241.5" font-family="Helvetica,sans-Serif" font-size="10.00">src/operational/src</text>
<text text-anchor="middle" x="223.5" y="-230.5" font-family="Helvetica,sans-Serif" font-size="10.00">/observer/clock_tick.h</text>
</a>
</g>
</g>
<!-- Node1&#45;&gt;Node11 -->
<g id="edge12" class="edge"><title>Node1&#45;&gt;Node11</title>
<path fill="none" stroke="midnightblue" d="M153.136,-358.868C159.718,-338.783 169.804,-311.872 182.5,-290 190.21,-276.717 201.3,-263.295 210.002,-253.63"/>
<polygon fill="midnightblue" stroke="midnightblue" points="149.798,-357.815 150.105,-368.406 156.47,-359.936 149.798,-357.815"/>
</g>
<!-- Node13 -->
<g id="node13" class="node"><title>Node13</title>
<g id="a_node13"><a xlink:href="../../d6/db3/clock__tick__interface_8h.html" target="_top" xlink:title="src/operational/src\l/observer/clock_tick\l_interface.h">
<polygon fill="white" stroke="black" points="192,-290.5 192,-331.5 295,-331.5 295,-290.5 192,-290.5"/>
<text text-anchor="start" x="200" y="-319.5" font-family="Helvetica,sans-Serif" font-size="10.00">src/operational/src</text>
<text text-anchor="start" x="200" y="-308.5" font-family="Helvetica,sans-Serif" font-size="10.00">/observer/clock_tick</text>
<text text-anchor="middle" x="243.5" y="-297.5" font-family="Helvetica,sans-Serif" font-size="10.00">_interface.h</text>
</a>
</g>
</g>
<!-- Node1&#45;&gt;Node13 -->
<g id="edge15" class="edge"><title>Node1&#45;&gt;Node13</title>
<path fill="none" stroke="midnightblue" d="M178.284,-362.065C191.32,-352.057 205.978,-340.804 218.091,-331.506"/>
<polygon fill="midnightblue" stroke="midnightblue" points="175.796,-359.562 169.995,-368.428 180.058,-365.115 175.796,-359.562"/>
</g>
<!-- Node3 -->
<g id="node3" class="node"><title>Node3</title>
<g id="a_node3"><a xlink:href="../../dc/dcb/analog__clock_8cc.html" target="_top" xlink:title="src/operational/src\l/observer/analog_clock.cc">
<polygon fill="white" stroke="black" points="0,-6 0,-36 129,-36 129,-6 0,-6"/>
<text text-anchor="start" x="8" y="-24" font-family="Helvetica,sans-Serif" font-size="10.00">src/operational/src</text>
<text text-anchor="middle" x="64.5" y="-13" font-family="Helvetica,sans-Serif" font-size="10.00">/observer/analog_clock.cc</text>
</a>
</g>
</g>
<!-- Node2&#45;&gt;Node3 -->
<g id="edge2" class="edge"><title>Node2&#45;&gt;Node3</title>
<path fill="none" stroke="midnightblue" d="M64.5,-73.5898C64.5,-61.2565 64.5,-46.7237 64.5,-36.2309"/>
<polygon fill="midnightblue" stroke="midnightblue" points="61.0001,-73.7049 64.5,-83.705 68.0001,-73.705 61.0001,-73.7049"/>
</g>
<!-- Node4 -->
<g id="node4" class="node"><title>Node4</title>
<g id="a_node4"><a xlink:href="../../d6/d34/observer__test_8cc.html" target="_top" xlink:title="src/operational_tests\l/src/observer/observer\l_test.cc">
<polygon fill="white" stroke="black" points="150,-0.5 150,-41.5 261,-41.5 261,-0.5 150,-0.5"/>
<text text-anchor="start" x="158" y="-29.5" font-family="Helvetica,sans-Serif" font-size="10.00">src/operational_tests</text>
<text text-anchor="start" x="158" y="-18.5" font-family="Helvetica,sans-Serif" font-size="10.00">/src/observer/observer</text>
<text text-anchor="middle" x="205.5" y="-7.5" font-family="Helvetica,sans-Serif" font-size="10.00">_test.cc</text>
</a>
</g>
</g>
<!-- Node2&#45;&gt;Node4 -->
<g id="edge3" class="edge"><title>Node2&#45;&gt;Node4</title>
<path fill="none" stroke="midnightblue" d="M99.6707,-79.0428C120.828,-67.639 147.709,-53.1497 169.085,-41.6279"/>
<polygon fill="midnightblue" stroke="midnightblue" points="97.8326,-76.0574 90.6906,-83.8831 101.154,-82.2193 97.8326,-76.0574"/>
</g>
<!-- Node5&#45;&gt;Node2 -->
<g id="edge5" class="edge"><title>Node5&#45;&gt;Node2</title>
<path fill="none" stroke="midnightblue" d="M172.988,-152.03C148.23,-140.156 116.564,-124.97 93.8434,-114.073"/>
<polygon fill="midnightblue" stroke="midnightblue" points="171.575,-155.234 182.106,-156.403 174.603,-148.923 171.575,-155.234"/>
</g>
<!-- Node6 -->
<g id="node6" class="node"><title>Node6</title>
<g id="a_node6"><a xlink:href="../../da/d4d/clock__timer_8cc.html" target="_top" xlink:title="src/operational/src\l/observer/clock_timer.cc">
<polygon fill="white" stroke="black" points="144.5,-84 144.5,-114 266.5,-114 266.5,-84 144.5,-84"/>
<text text-anchor="start" x="152.5" y="-102" font-family="Helvetica,sans-Serif" font-size="10.00">src/operational/src</text>
<text text-anchor="middle" x="205.5" y="-91" font-family="Helvetica,sans-Serif" font-size="10.00">/observer/clock_timer.cc</text>
</a>
</g>
</g>
<!-- Node5&#45;&gt;Node6 -->
<g id="edge6" class="edge"><title>Node5&#45;&gt;Node6</title>
<path fill="none" stroke="midnightblue" d="M209.435,-146.232C208.527,-135.568 207.493,-123.414 206.712,-114.246"/>
<polygon fill="midnightblue" stroke="midnightblue" points="205.95,-146.566 210.286,-156.233 212.925,-145.972 205.95,-146.566"/>
</g>
<!-- Node7 -->
<g id="node7" class="node"><title>Node7</title>
<g id="a_node7"><a xlink:href="../../d7/dee/digital__clock_8h.html" target="_top" xlink:title="src/operational/src\l/observer/digital_clock.h">
<polygon fill="white" stroke="black" points="285,-84 285,-114 406,-114 406,-84 285,-84"/>
<text text-anchor="start" x="293" y="-102" font-family="Helvetica,sans-Serif" font-size="10.00">src/operational/src</text>
<text text-anchor="middle" x="345.5" y="-91" font-family="Helvetica,sans-Serif" font-size="10.00">/observer/digital_clock.h</text>
</a>
</g>
</g>
<!-- Node5&#45;&gt;Node7 -->
<g id="edge7" class="edge"><title>Node5&#45;&gt;Node7</title>
<path fill="none" stroke="midnightblue" d="M247.204,-151.715C269.682,-139.889 298.223,-124.874 318.752,-114.073"/>
<polygon fill="midnightblue" stroke="midnightblue" points="245.515,-148.649 238.295,-156.403 248.774,-154.844 245.515,-148.649"/>
</g>
<!-- Node9 -->
<g id="node9" class="node"><title>Node9</title>
<g id="a_node9"><a xlink:href="../../d9/d6d/iterator__test_8cc.html" target="_top" xlink:title="src/operational_tests\l/src/iterator/iterator\l_test.cc">
<polygon fill="white" stroke="black" points="424,-78.5 424,-119.5 531,-119.5 531,-78.5 424,-78.5"/>
<text text-anchor="start" x="432" y="-107.5" font-family="Helvetica,sans-Serif" font-size="10.00">src/operational_tests</text>
<text text-anchor="start" x="432" y="-96.5" font-family="Helvetica,sans-Serif" font-size="10.00">/src/iterator/iterator</text>
<text text-anchor="middle" x="477.5" y="-85.5" font-family="Helvetica,sans-Serif" font-size="10.00">_test.cc</text>
</a>
</g>
</g>
<!-- Node5&#45;&gt;Node9 -->
<g id="edge10" class="edge"><title>Node5&#45;&gt;Node9</title>
<path fill="none" stroke="midnightblue" d="M280.111,-154.77C319.838,-145.349 370.696,-132.756 415.5,-120 418.219,-119.226 420.999,-118.412 423.801,-117.574"/>
<polygon fill="midnightblue" stroke="midnightblue" points="279.19,-151.391 270.261,-157.095 280.798,-158.204 279.19,-151.391"/>
</g>
<!-- Node10 -->
<g id="node10" class="node"><title>Node10</title>
<g id="a_node10"><a xlink:href="../../df/d15/clock__timer__test_8cc.html" target="_top" xlink:title="src/operational_tests\l/src/observer/clock_timer\l_test.cc">
<polygon fill="white" stroke="black" points="549,-78.5 549,-119.5 674,-119.5 674,-78.5 549,-78.5"/>
<text text-anchor="start" x="557" y="-107.5" font-family="Helvetica,sans-Serif" font-size="10.00">src/operational_tests</text>
<text text-anchor="start" x="557" y="-96.5" font-family="Helvetica,sans-Serif" font-size="10.00">/src/observer/clock_timer</text>
<text text-anchor="middle" x="611.5" y="-85.5" font-family="Helvetica,sans-Serif" font-size="10.00">_test.cc</text>
</a>
</g>
</g>
<!-- Node5&#45;&gt;Node10 -->
<g id="edge11" class="edge"><title>Node5&#45;&gt;Node10</title>
<path fill="none" stroke="midnightblue" d="M280.082,-155.996C396.598,-136.198 429.008,-143.277 540.5,-120 543.258,-119.424 546.066,-118.8 548.896,-118.139"/>
<polygon fill="midnightblue" stroke="midnightblue" points="279.31,-152.578 270.052,-157.731 280.503,-159.475 279.31,-152.578"/>
</g>
<!-- Node7&#45;&gt;Node4 -->
<g id="edge9" class="edge"><title>Node7&#45;&gt;Node4</title>
<path fill="none" stroke="midnightblue" d="M310.579,-79.0428C289.572,-67.639 262.881,-53.1497 241.657,-41.6279"/>
<polygon fill="midnightblue" stroke="midnightblue" points="309.037,-82.1881 319.495,-83.8831 312.376,-76.0361 309.037,-82.1881"/>
</g>
<!-- Node8 -->
<g id="node8" class="node"><title>Node8</title>
<g id="a_node8"><a xlink:href="../../d6/db3/digital__clock_8cc.html" target="_top" xlink:title="src/operational/src\l/observer/digital_clock.cc">
<polygon fill="white" stroke="black" points="282.5,-6 282.5,-36 408.5,-36 408.5,-6 282.5,-6"/>
<text text-anchor="start" x="290.5" y="-24" font-family="Helvetica,sans-Serif" font-size="10.00">src/operational/src</text>
<text text-anchor="middle" x="345.5" y="-13" font-family="Helvetica,sans-Serif" font-size="10.00">/observer/digital_clock.cc</text>
</a>
</g>
</g>
<!-- Node7&#45;&gt;Node8 -->
<g id="edge8" class="edge"><title>Node7&#45;&gt;Node8</title>
<path fill="none" stroke="midnightblue" d="M345.5,-73.5898C345.5,-61.2565 345.5,-46.7237 345.5,-36.2309"/>
<polygon fill="midnightblue" stroke="midnightblue" points="342,-73.7049 345.5,-83.705 349,-73.705 342,-73.7049"/>
</g>
<!-- Node11&#45;&gt;Node5 -->
<g id="edge13" class="edge"><title>Node11&#45;&gt;Node5</title>
<path fill="none" stroke="midnightblue" d="M219.051,-213.403C217.384,-204.37 215.545,-194.408 214.099,-186.577"/>
<polygon fill="midnightblue" stroke="midnightblue" points="215.639,-214.198 220.896,-223.396 222.522,-212.927 215.639,-214.198"/>
</g>
<!-- Node12 -->
<g id="node12" class="node"><title>Node12</title>
<g id="a_node12"><a xlink:href="../../d5/dd3/subject_8cc.html" target="_top" xlink:title="src/operational/src\l/observer/subject.cc">
<polygon fill="white" stroke="black" points="288.5,-156.5 288.5,-186.5 392.5,-186.5 392.5,-156.5 288.5,-156.5"/>
<text text-anchor="start" x="296.5" y="-174.5" font-family="Helvetica,sans-Serif" font-size="10.00">src/operational/src</text>
<text text-anchor="middle" x="340.5" y="-163.5" font-family="Helvetica,sans-Serif" font-size="10.00">/observer/subject.cc</text>
</a>
</g>
</g>
<!-- Node11&#45;&gt;Node12 -->
<g id="edge14" class="edge"><title>Node11&#45;&gt;Node12</title>
<path fill="none" stroke="midnightblue" d="M257.816,-218.435C276.173,-208.237 298.385,-195.897 315.162,-186.577"/>
<polygon fill="midnightblue" stroke="midnightblue" points="255.929,-215.48 248.887,-223.396 259.329,-221.599 255.929,-215.48"/>
</g>
<!-- Node13&#45;&gt;Node11 -->
<g id="edge16" class="edge"><title>Node13&#45;&gt;Node11</title>
<path fill="none" stroke="midnightblue" d="M235.18,-280.671C232.556,-271.422 229.774,-261.614 227.583,-253.892"/>
<polygon fill="midnightblue" stroke="midnightblue" points="231.832,-281.697 237.929,-290.362 238.567,-279.786 231.832,-281.697"/>
</g>
</g>
</svg>
        <g id="navigator" transform="translate(0 0)" fill="#404254">
                <rect fill="#f2f5e9" fill-opacity="0.5" stroke="#606060" stroke-width=".5" x="0" y="0" width="60" height="60"/>
                <use id="zoomplus" xlink:href="#zoomPlus" x="17" y="9" onmousedown="handleZoom(evt,'in')"/>
                <use id="zoomminus" xlink:href="#zoomMin" x="42" y="9" onmousedown="handleZoom(evt,'out')"/>
                <use id="reset" xlink:href="#resetDef" x="30" y="36" onmousedown="handleReset()"/>
                <g id="arrowUp" xlink:href="#dirArrow" transform="translate(30 24)" onmousedown="handlePan(0,-1)">
                  <use xlink:href="#rim" fill="#404040">
                        <set attributeName="fill" to="#808080" begin="arrowUp.mouseover" end="arrowUp.mouseout"/>
                  </use>
                  <path fill="none" stroke="white" stroke-width="1.5" d="M0,-3.0v7 M-2.5,-0.5L0,-3.0L2.5,-0.5"/>
                </g>
                <g id="arrowRight" xlink:href="#dirArrow" transform="rotate(90) translate(36 -43)" onmousedown="handlePan(1,0)">
                  <use xlink:href="#rim" fill="#404040">
                        <set attributeName="fill" to="#808080" begin="arrowRight.mouseover" end="arrowRight.mouseout"/>
                  </use>
                  <path fill="none" stroke="white" stroke-width="1.5" d="M0,-3.0v7 M-2.5,-0.5L0,-3.0L2.5,-0.5"/>
                </g>
                <g id="arrowDown" xlink:href="#dirArrow" transform="rotate(180) translate(-30 -48)" onmousedown="handlePan(0,1)">
                  <use xlink:href="#rim" fill="#404040">
                        <set attributeName="fill" to="#808080" begin="arrowDown.mouseover" end="arrowDown.mouseout"/>
                  </use>
                  <path fill="none" stroke="white" stroke-width="1.5" d="M0,-3.0v7 M-2.5,-0.5L0,-3.0L2.5,-0.5"/>
                </g>
                <g id="arrowLeft" xlink:href="#dirArrow" transform="rotate(270) translate(-36 17)" onmousedown="handlePan(-1,0)">
                  <use xlink:href="#rim" fill="#404040">
                        <set attributeName="fill" to="#808080" begin="arrowLeft.mouseover" end="arrowLeft.mouseout"/>
                  </use>
                  <path fill="none" stroke="white" stroke-width="1.5" d="M0,-3.0v7 M-2.5,-0.5L0,-3.0L2.5,-0.5"/>
                </g>
        </g>
        <svg viewBox="0 0 15 15" width="100%" height="30px" preserveAspectRatio="xMaxYMin meet">
         <g id="arrow_out" transform="scale(0.3 0.3)">
          <a xlink:href="clock__tick__observer_8h__dep__incl_org.svg" target="_base">
           <rect id="button" ry="5" rx="5" y="6" x="6" height="38" width="38"
                fill="#f2f5e9" fill-opacity="0.5" stroke="#606060" stroke-width="1.0"/>
           <path id="arrow"
             d="M 11.500037,31.436501 C 11.940474,20.09759 22.043105,11.32322 32.158766,21.979434 L 37.068811,17.246167 C 37.068811,17.246167 37.088388,32 37.088388,32 L 22.160133,31.978069 C 22.160133,31.978069 26.997745,27.140456 26.997745,27.140456 C 18.528582,18.264221 13.291696,25.230495 11.500037,31.436501 z"
             style="fill:#404040;"/>
          </a>
         </g>
        </svg>
</svg>
