<?xml version="1.0" encoding="UTF-8" standalone="no"?>
<!DOCTYPE svg PUBLIC "-//W3C//DTD SVG 1.1//EN"
 "http://www.w3.org/Graphics/SVG/1.1/DTD/svg11.dtd">
<!-- Generated by graphviz version 2.38.0 (20140413.2041)
 -->
<!-- Title: operational::strategy::Composition::Repair Pages: 1 -->
<svg width="263pt" height="50pt"
 viewBox="0.00 0.00 263.00 50.00" xmlns="http://www.w3.org/2000/svg" xmlns:xlink="http://www.w3.org/1999/xlink">
<g id="graph0" class="graph" transform="scale(1 1) rotate(0) translate(4 46)">
<title>operational::strategy::Composition::Repair</title>
<polygon fill="white" stroke="none" points="-4,4 -4,-46 259,-46 259,4 -4,4"/>
<!-- Node1 -->
<g id="node1" class="node"><title>Node1</title>
<polygon fill="#bfbfbf" stroke="black" points="0,-6 0,-36 110,-36 110,-6 0,-6"/>
<text text-anchor="start" x="8" y="-24" font-family="Helvetica,sans-Serif" font-size="10.00">operational::strategy</text>
<text text-anchor="middle" x="55" y="-13" font-family="Helvetica,sans-Serif" font-size="10.00">::Composition::Repair</text>
</g>
<!-- Node2 -->
<g id="node2" class="node"><title>Node2</title>
<g id="a_node2"><a xlink:href="../../d4/dad/classoperational_1_1strategy_1_1_compositor_interface.html#a7e4c0b8b8e436a502a089949256c6457" target="_top" xlink:title="operational::strategy\l::CompositorInterface\l::Compose">
<polygon fill="white" stroke="black" points="146,-0.5 146,-41.5 255,-41.5 255,-0.5 146,-0.5"/>
<text text-anchor="start" x="154" y="-29.5" font-family="Helvetica,sans-Serif" font-size="10.00">operational::strategy</text>
<text text-anchor="start" x="154" y="-18.5" font-family="Helvetica,sans-Serif" font-size="10.00">::CompositorInterface</text>
<text text-anchor="middle" x="200.5" y="-7.5" font-family="Helvetica,sans-Serif" font-size="10.00">::Compose</text>
</a>
</g>
</g>
<!-- Node1&#45;&gt;Node2 -->
<g id="edge1" class="edge"><title>Node1&#45;&gt;Node2</title>
<path fill="none" stroke="midnightblue" d="M110.251,-21C118.489,-21 127.055,-21 135.478,-21"/>
<polygon fill="midnightblue" stroke="midnightblue" points="135.648,-24.5001 145.648,-21 135.648,-17.5001 135.648,-24.5001"/>
</g>
</g>
</svg>
