<?xml version="1.0" encoding="UTF-8" standalone="no"?>
<!DOCTYPE svg PUBLIC "-//W3C//DTD SVG 1.1//EN"
 "http://www.w3.org/Graphics/SVG/1.1/DTD/svg11.dtd">
<!-- Generated by graphviz version 2.38.0 (20140413.2041)
 -->
<!-- Title: src/structural/src/composite/chassis.cc Pages: 1 -->
<svg width="360pt" height="330pt"
 viewBox="0.00 0.00 359.50 330.00" xmlns="http://www.w3.org/2000/svg" xmlns:xlink="http://www.w3.org/1999/xlink">
<g id="graph0" class="graph" transform="scale(1 1) rotate(0) translate(4 326)">
<title>src/structural/src/composite/chassis.cc</title>
<polygon fill="white" stroke="none" points="-4,4 -4,-326 355.5,-326 355.5,4 -4,4"/>
<!-- Node1 -->
<g id="node1" class="node"><title>Node1</title>
<polygon fill="#bfbfbf" stroke="black" points="117,-291.5 117,-321.5 232,-321.5 232,-291.5 117,-291.5"/>
<text text-anchor="start" x="125" y="-309.5" font-family="Helvetica,sans-Serif" font-size="10.00">src/structural/src</text>
<text text-anchor="middle" x="174.5" y="-298.5" font-family="Helvetica,sans-Serif" font-size="10.00">/composite/chassis.cc</text>
</g>
<!-- Node2 -->
<g id="node2" class="node"><title>Node2</title>
<g id="a_node2"><a xlink:href="../../db/d73/structural_2src_2composite_2chassis_8h.html" target="_top" xlink:title="chassis.h">
<polygon fill="white" stroke="black" points="145,-235.5 145,-254.5 204,-254.5 204,-235.5 145,-235.5"/>
<text text-anchor="middle" x="174.5" y="-242.5" font-family="Helvetica,sans-Serif" font-size="10.00">chassis.h</text>
</a>
</g>
</g>
<!-- Node1&#45;&gt;Node2 -->
<g id="edge1" class="edge"><title>Node1&#45;&gt;Node2</title>
<path fill="none" stroke="midnightblue" d="M174.5,-291.399C174.5,-283.466 174.5,-273.458 174.5,-264.858"/>
<polygon fill="midnightblue" stroke="midnightblue" points="178,-264.658 174.5,-254.658 171,-264.658 178,-264.658"/>
</g>
<!-- Node3 -->
<g id="node3" class="node"><title>Node3</title>
<g id="a_node3"><a xlink:href="../../d7/d12/composite__equipment_8h.html" target="_top" xlink:title="composite_equipment.h">
<polygon fill="white" stroke="black" points="114.5,-179.5 114.5,-198.5 234.5,-198.5 234.5,-179.5 114.5,-179.5"/>
<text text-anchor="middle" x="174.5" y="-186.5" font-family="Helvetica,sans-Serif" font-size="10.00">composite_equipment.h</text>
</a>
</g>
</g>
<!-- Node2&#45;&gt;Node3 -->
<g id="edge2" class="edge"><title>Node2&#45;&gt;Node3</title>
<path fill="none" stroke="midnightblue" d="M174.5,-235.083C174.5,-228.006 174.5,-217.861 174.5,-208.986"/>
<polygon fill="midnightblue" stroke="midnightblue" points="178,-208.751 174.5,-198.751 171,-208.751 178,-208.751"/>
</g>
<!-- Node4 -->
<g id="node4" class="node"><title>Node4</title>
<g id="a_node4"><a xlink:href="../../d4/d70/equipment__interface_8h.html" target="_top" xlink:title="equipment_interface.h">
<polygon fill="white" stroke="black" points="34.5,-118 34.5,-137 146.5,-137 146.5,-118 34.5,-118"/>
<text text-anchor="middle" x="90.5" y="-125" font-family="Helvetica,sans-Serif" font-size="10.00">equipment_interface.h</text>
</a>
</g>
</g>
<!-- Node3&#45;&gt;Node4 -->
<g id="edge3" class="edge"><title>Node3&#45;&gt;Node4</title>
<path fill="none" stroke="midnightblue" d="M162.465,-179.475C148.992,-169.931 126.934,-154.307 110.785,-142.868"/>
<polygon fill="midnightblue" stroke="midnightblue" points="112.696,-139.933 102.513,-137.009 108.65,-145.645 112.696,-139.933"/>
</g>
<!-- Node7 -->
<g id="node7" class="node"><title>Node7</title>
<polygon fill="white" stroke="#bfbfbf" points="145,-56.5 145,-75.5 186,-75.5 186,-56.5 145,-56.5"/>
<text text-anchor="middle" x="165.5" y="-63.5" font-family="Helvetica,sans-Serif" font-size="10.00">string</text>
</g>
<!-- Node3&#45;&gt;Node7 -->
<g id="edge7" class="edge"><title>Node3&#45;&gt;Node7</title>
<path fill="none" stroke="midnightblue" d="M173.853,-179.298C172.406,-159.85 168.884,-112.49 166.906,-85.9036"/>
<polygon fill="midnightblue" stroke="midnightblue" points="170.374,-85.336 166.141,-75.6232 163.393,-85.8553 170.374,-85.336"/>
</g>
<!-- Node8 -->
<g id="node8" class="node"><title>Node8</title>
<g id="a_node8"><a xlink:href="../../da/d23/list_8h.html" target="_top" xlink:title="../../../operational\l/src/iterator/list.h">
<polygon fill="white" stroke="black" points="203,-112.5 203,-142.5 294,-142.5 294,-112.5 203,-112.5"/>
<text text-anchor="start" x="211" y="-130.5" font-family="Helvetica,sans-Serif" font-size="10.00">../../../operational</text>
<text text-anchor="middle" x="248.5" y="-119.5" font-family="Helvetica,sans-Serif" font-size="10.00">/src/iterator/list.h</text>
</a>
</g>
</g>
<!-- Node3&#45;&gt;Node8 -->
<g id="edge8" class="edge"><title>Node3&#45;&gt;Node8</title>
<path fill="none" stroke="midnightblue" d="M185.102,-179.475C194.937,-171.567 209.964,-159.485 222.92,-149.067"/>
<polygon fill="midnightblue" stroke="midnightblue" points="225.46,-151.517 231.06,-142.523 221.073,-146.062 225.46,-151.517"/>
</g>
<!-- Node5 -->
<g id="node5" class="node"><title>Node5</title>
<g id="a_node5"><a xlink:href="../../d9/d51/watt_8h.html" target="_top" xlink:title="watt.h">
<polygon fill="white" stroke="black" points="0,-56.5 0,-75.5 43,-75.5 43,-56.5 0,-56.5"/>
<text text-anchor="middle" x="21.5" y="-63.5" font-family="Helvetica,sans-Serif" font-size="10.00">watt.h</text>
</a>
</g>
</g>
<!-- Node4&#45;&gt;Node5 -->
<g id="edge4" class="edge"><title>Node4&#45;&gt;Node5</title>
<path fill="none" stroke="midnightblue" d="M80.614,-117.975C69.854,-108.697 52.429,-93.6706 39.2788,-82.331"/>
<polygon fill="midnightblue" stroke="midnightblue" points="41.2265,-79.389 31.3677,-75.5091 36.6552,-84.6902 41.2265,-79.389"/>
</g>
<!-- Node6 -->
<g id="node6" class="node"><title>Node6</title>
<g id="a_node6"><a xlink:href="../../d1/dcf/currency_8h.html" target="_top" xlink:title="currency.h">
<polygon fill="white" stroke="black" points="61.5,-56.5 61.5,-75.5 123.5,-75.5 123.5,-56.5 61.5,-56.5"/>
<text text-anchor="middle" x="92.5" y="-63.5" font-family="Helvetica,sans-Serif" font-size="10.00">currency.h</text>
</a>
</g>
</g>
<!-- Node4&#45;&gt;Node6 -->
<g id="edge5" class="edge"><title>Node4&#45;&gt;Node6</title>
<path fill="none" stroke="midnightblue" d="M90.7866,-117.975C91.0687,-109.58 91.5091,-96.4806 91.8727,-85.6631"/>
<polygon fill="midnightblue" stroke="midnightblue" points="95.376,-85.6211 92.214,-75.5091 88.3799,-85.3858 95.376,-85.6211"/>
</g>
<!-- Node4&#45;&gt;Node7 -->
<g id="edge6" class="edge"><title>Node4&#45;&gt;Node7</title>
<path fill="none" stroke="midnightblue" d="M101.246,-117.975C113.053,-108.608 132.243,-93.3839 146.582,-82.0081"/>
<polygon fill="midnightblue" stroke="midnightblue" points="149.115,-84.4661 154.774,-75.5091 144.765,-78.9822 149.115,-84.4661"/>
</g>
<!-- Node9 -->
<g id="node9" class="node"><title>Node9</title>
<g id="a_node9"><a xlink:href="../../d9/d71/list__iterator_8h.html" target="_top" xlink:title="list_iterator.h">
<polygon fill="white" stroke="black" points="210,-56.5 210,-75.5 283,-75.5 283,-56.5 210,-56.5"/>
<text text-anchor="middle" x="246.5" y="-63.5" font-family="Helvetica,sans-Serif" font-size="10.00">list_iterator.h</text>
</a>
</g>
</g>
<!-- Node8&#45;&gt;Node9 -->
<g id="edge9" class="edge"><title>Node8&#45;&gt;Node9</title>
<path fill="none" stroke="midnightblue" d="M248.026,-112.399C247.759,-104.466 247.423,-94.458 247.134,-85.8583"/>
<polygon fill="midnightblue" stroke="midnightblue" points="250.625,-85.5345 246.791,-75.6578 243.629,-85.7697 250.625,-85.5345"/>
</g>
<!-- Node11 -->
<g id="node11" class="node"><title>Node11</title>
<g id="a_node11"><a xlink:href="../../dd/d8c/list__interface_8h.html" target="_top" xlink:title="list_interface.h">
<polygon fill="white" stroke="black" points="271.5,-0.5 271.5,-19.5 351.5,-19.5 351.5,-0.5 271.5,-0.5"/>
<text text-anchor="middle" x="311.5" y="-7.5" font-family="Helvetica,sans-Serif" font-size="10.00">list_interface.h</text>
</a>
</g>
</g>
<!-- Node8&#45;&gt;Node11 -->
<g id="edge12" class="edge"><title>Node8&#45;&gt;Node11</title>
<path fill="none" stroke="midnightblue" d="M263.859,-112.338C273.317,-102.866 285.022,-89.6704 292.5,-76 300.434,-61.4951 305.385,-43.3121 308.236,-29.8687"/>
<polygon fill="midnightblue" stroke="midnightblue" points="311.706,-30.3567 310.156,-19.8758 304.832,-29.0357 311.706,-30.3567"/>
</g>
<!-- Node10 -->
<g id="node10" class="node"><title>Node10</title>
<g id="a_node10"><a xlink:href="../../d6/da4/iterator__interface_8h.html" target="_top" xlink:title="iterator_interface.h">
<polygon fill="white" stroke="black" points="156,-0.5 156,-19.5 253,-19.5 253,-0.5 156,-0.5"/>
<text text-anchor="middle" x="204.5" y="-7.5" font-family="Helvetica,sans-Serif" font-size="10.00">iterator_interface.h</text>
</a>
</g>
</g>
<!-- Node9&#45;&gt;Node10 -->
<g id="edge10" class="edge"><title>Node9&#45;&gt;Node10</title>
<path fill="none" stroke="midnightblue" d="M239.565,-56.083C233.571,-48.3768 224.748,-37.0333 217.452,-27.6531"/>
<polygon fill="midnightblue" stroke="midnightblue" points="220.209,-25.4958 211.306,-19.7511 214.683,-29.7934 220.209,-25.4958"/>
</g>
<!-- Node9&#45;&gt;Node11 -->
<g id="edge11" class="edge"><title>Node9&#45;&gt;Node11</title>
<path fill="none" stroke="midnightblue" d="M256.943,-56.324C266.646,-48.2631 281.315,-36.0765 293,-26.3695"/>
<polygon fill="midnightblue" stroke="midnightblue" points="295.411,-28.9163 300.867,-19.8339 290.938,-23.532 295.411,-28.9163"/>
</g>
</g>
</svg>
