<?xml version="1.0" encoding="UTF-8" standalone="no"?>
<!DOCTYPE svg PUBLIC "-//W3C//DTD SVG 1.1//EN"
 "http://www.w3.org/Graphics/SVG/1.1/DTD/svg11.dtd">
<!-- Generated by graphviz version 2.38.0 (20140413.2041)
 -->
<!-- Title: src/operational/src/mediator/entry_field.h Pages: 1 -->
<svg width="189pt" height="263pt"
 viewBox="0.00 0.00 188.50 263.00" xmlns="http://www.w3.org/2000/svg" xmlns:xlink="http://www.w3.org/1999/xlink">
<g id="graph0" class="graph" transform="scale(1 1) rotate(0) translate(4 259)">
<title>src/operational/src/mediator/entry_field.h</title>
<polygon fill="white" stroke="none" points="-4,4 -4,-259 184.5,-259 184.5,4 -4,4"/>
<!-- Node1 -->
<g id="node1" class="node"><title>Node1</title>
<polygon fill="#bfbfbf" stroke="black" points="55,-224.5 55,-254.5 168,-254.5 168,-224.5 55,-224.5"/>
<text text-anchor="start" x="63" y="-242.5" font-family="Helvetica,sans-Serif" font-size="10.00">src/operational/src</text>
<text text-anchor="middle" x="111.5" y="-231.5" font-family="Helvetica,sans-Serif" font-size="10.00">/mediator/entry_field.h</text>
</g>
<!-- Node2 -->
<g id="node2" class="node"><title>Node2</title>
<g id="a_node2"><a xlink:href="../../dd/dcb/mediator__widget_8h.html" target="_top" xlink:title="mediator_widget.h">
<polygon fill="white" stroke="black" points="21,-168.5 21,-187.5 116,-187.5 116,-168.5 21,-168.5"/>
<text text-anchor="middle" x="68.5" y="-175.5" font-family="Helvetica,sans-Serif" font-size="10.00">mediator_widget.h</text>
</a>
</g>
</g>
<!-- Node1&#45;&gt;Node2 -->
<g id="edge1" class="edge"><title>Node1&#45;&gt;Node2</title>
<path fill="none" stroke="midnightblue" d="M101.31,-224.399C95.1256,-215.842 87.1965,-204.871 80.6824,-195.857"/>
<polygon fill="midnightblue" stroke="midnightblue" points="83.4511,-193.713 74.7569,-187.658 77.7776,-197.813 83.4511,-193.713"/>
</g>
<!-- Node6 -->
<g id="node6" class="node"><title>Node6</title>
<polygon fill="white" stroke="#bfbfbf" points="134,-168.5 134,-187.5 175,-187.5 175,-168.5 134,-168.5"/>
<text text-anchor="middle" x="154.5" y="-175.5" font-family="Helvetica,sans-Serif" font-size="10.00">string</text>
</g>
<!-- Node1&#45;&gt;Node6 -->
<g id="edge6" class="edge"><title>Node1&#45;&gt;Node6</title>
<path fill="none" stroke="midnightblue" d="M121.69,-224.399C127.874,-215.842 135.803,-204.871 142.318,-195.857"/>
<polygon fill="midnightblue" stroke="midnightblue" points="145.222,-197.813 148.243,-187.658 139.549,-193.713 145.222,-197.813"/>
</g>
<!-- Node3 -->
<g id="node3" class="node"><title>Node3</title>
<g id="a_node3"><a xlink:href="../../d5/d0b/mediator__widget__interface_8h.html" target="_top" xlink:title="mediator_widget_interface.h">
<polygon fill="white" stroke="black" points="0,-56.5 0,-75.5 137,-75.5 137,-56.5 0,-56.5"/>
<text text-anchor="middle" x="68.5" y="-63.5" font-family="Helvetica,sans-Serif" font-size="10.00">mediator_widget_interface.h</text>
</a>
</g>
</g>
<!-- Node2&#45;&gt;Node3 -->
<g id="edge2" class="edge"><title>Node2&#45;&gt;Node3</title>
<path fill="none" stroke="midnightblue" d="M61.3485,-168.364C54.7268,-159.763 45.3426,-145.873 41.5,-132 36.828,-115.132 45.8364,-96.7917 54.6792,-83.9067"/>
<polygon fill="midnightblue" stroke="midnightblue" points="57.7123,-85.6945 60.8908,-75.5877 52.1033,-81.5064 57.7123,-85.6945"/>
</g>
<!-- Node5 -->
<g id="node5" class="node"><title>Node5</title>
<g id="a_node5"><a xlink:href="../../d6/d19/dialog__director__interface_8h.html" target="_top" xlink:title="dialog_director_interface.h">
<polygon fill="white" stroke="black" points="50.5,-112.5 50.5,-131.5 180.5,-131.5 180.5,-112.5 50.5,-112.5"/>
<text text-anchor="middle" x="115.5" y="-119.5" font-family="Helvetica,sans-Serif" font-size="10.00">dialog_director_interface.h</text>
</a>
</g>
</g>
<!-- Node2&#45;&gt;Node5 -->
<g id="edge4" class="edge"><title>Node2&#45;&gt;Node5</title>
<path fill="none" stroke="midnightblue" d="M76.2611,-168.083C83.0368,-160.298 93.0432,-148.801 101.255,-139.367"/>
<polygon fill="midnightblue" stroke="midnightblue" points="103.958,-141.592 107.883,-131.751 98.678,-136.996 103.958,-141.592"/>
</g>
<!-- Node4 -->
<g id="node4" class="node"><title>Node4</title>
<g id="a_node4"><a xlink:href="../../d4/da7/mouse__event_8h.html" target="_top" xlink:title="mouse_event.h">
<polygon fill="white" stroke="black" points="27.5,-0.5 27.5,-19.5 109.5,-19.5 109.5,-0.5 27.5,-0.5"/>
<text text-anchor="middle" x="68.5" y="-7.5" font-family="Helvetica,sans-Serif" font-size="10.00">mouse_event.h</text>
</a>
</g>
</g>
<!-- Node3&#45;&gt;Node4 -->
<g id="edge3" class="edge"><title>Node3&#45;&gt;Node4</title>
<path fill="none" stroke="midnightblue" d="M68.5,-56.083C68.5,-49.0059 68.5,-38.8611 68.5,-29.9865"/>
<polygon fill="midnightblue" stroke="midnightblue" points="72.0001,-29.751 68.5,-19.7511 65.0001,-29.7511 72.0001,-29.751"/>
</g>
<!-- Node5&#45;&gt;Node3 -->
<g id="edge5" class="edge"><title>Node5&#45;&gt;Node3</title>
<path fill="none" stroke="midnightblue" d="M107.739,-112.083C100.963,-104.298 90.9568,-92.8015 82.7449,-83.3665"/>
<polygon fill="midnightblue" stroke="midnightblue" points="85.322,-80.9963 76.1167,-75.7511 80.0419,-85.592 85.322,-80.9963"/>
</g>
</g>
</svg>
