<?xml version="1.0" encoding="UTF-8" standalone="no"?>
<!DOCTYPE svg PUBLIC "-//W3C//DTD SVG 1.1//EN"
 "http://www.w3.org/Graphics/SVG/1.1/DTD/svg11.dtd">
<!-- Generated by graphviz version 2.38.0 (20140413.2041)
 -->
<!-- Title: src/creational/src/abstractfactory/enchanted_maze_factory.h Pages: 1 -->
<svg width="298pt" height="128pt"
 viewBox="0.00 0.00 298.00 128.00" xmlns="http://www.w3.org/2000/svg" xmlns:xlink="http://www.w3.org/1999/xlink">
<g id="graph0" class="graph" transform="scale(1 1) rotate(0) translate(4 124)">
<title>src/creational/src/abstractfactory/enchanted_maze_factory.h</title>
<polygon fill="white" stroke="none" points="-4,4 -4,-124 294,-124 294,4 -4,4"/>
<!-- Node1 -->
<g id="node1" class="node"><title>Node1</title>
<polygon fill="#bfbfbf" stroke="black" points="77,-78.5 77,-119.5 209,-119.5 209,-78.5 77,-78.5"/>
<text text-anchor="start" x="85" y="-107.5" font-family="Helvetica,sans-Serif" font-size="10.00">src/creational/src</text>
<text text-anchor="start" x="85" y="-96.5" font-family="Helvetica,sans-Serif" font-size="10.00">/abstractfactory/enchanted</text>
<text text-anchor="middle" x="143" y="-85.5" font-family="Helvetica,sans-Serif" font-size="10.00">_maze_factory.h</text>
</g>
<!-- Node2 -->
<g id="node2" class="node"><title>Node2</title>
<g id="a_node2"><a xlink:href="../../d3/d4b/enchanted__maze__factory_8cc.html" target="_top" xlink:title="src/creational/src\l/abstractfactory/enchanted\l_maze_factory.cc">
<polygon fill="white" stroke="black" points="0,-0.5 0,-41.5 132,-41.5 132,-0.5 0,-0.5"/>
<text text-anchor="start" x="8" y="-29.5" font-family="Helvetica,sans-Serif" font-size="10.00">src/creational/src</text>
<text text-anchor="start" x="8" y="-18.5" font-family="Helvetica,sans-Serif" font-size="10.00">/abstractfactory/enchanted</text>
<text text-anchor="middle" x="66" y="-7.5" font-family="Helvetica,sans-Serif" font-size="10.00">_maze_factory.cc</text>
</a>
</g>
</g>
<!-- Node1&#45;&gt;Node2 -->
<g id="edge1" class="edge"><title>Node1&#45;&gt;Node2</title>
<path fill="none" stroke="midnightblue" d="M115.851,-71.204C105.935,-61.416 94.9143,-50.5388 85.7622,-41.5056"/>
<polygon fill="midnightblue" stroke="midnightblue" points="113.595,-73.8944 123.171,-78.4281 118.512,-68.9124 113.595,-73.8944"/>
</g>
<!-- Node3 -->
<g id="node3" class="node"><title>Node3</title>
<g id="a_node3"><a xlink:href="../../d5/d51/maze__game__test_8cc.html" target="_top" xlink:title="src/creational_tests\l/src/mazegame/maze_game\l_test.cc">
<polygon fill="white" stroke="black" points="150,-0.5 150,-41.5 290,-41.5 290,-0.5 150,-0.5"/>
<text text-anchor="start" x="158" y="-29.5" font-family="Helvetica,sans-Serif" font-size="10.00">src/creational_tests</text>
<text text-anchor="start" x="158" y="-18.5" font-family="Helvetica,sans-Serif" font-size="10.00">/src/mazegame/maze_game</text>
<text text-anchor="middle" x="220" y="-7.5" font-family="Helvetica,sans-Serif" font-size="10.00">_test.cc</text>
</a>
</g>
</g>
<!-- Node1&#45;&gt;Node3 -->
<g id="edge2" class="edge"><title>Node1&#45;&gt;Node3</title>
<path fill="none" stroke="midnightblue" d="M170.149,-71.204C180.065,-61.416 191.086,-50.5388 200.238,-41.5056"/>
<polygon fill="midnightblue" stroke="midnightblue" points="167.488,-68.9124 162.829,-78.4281 172.405,-73.8944 167.488,-68.9124"/>
</g>
</g>
</svg>
