<?xml version="1.0" encoding="UTF-8" standalone="no"?>
<!DOCTYPE svg PUBLIC "-//W3C//DTD SVG 1.1//EN"
 "http://www.w3.org/Graphics/SVG/1.1/DTD/svg11.dtd">
<!-- Generated by graphviz version 2.38.0 (20140413.2041)
 -->
<!-- Title: src/operational/src/state/tcp_connection.h Pages: 1 -->
<svg width="168pt" height="95pt"
 viewBox="0.00 0.00 168.00 95.00" xmlns="http://www.w3.org/2000/svg" xmlns:xlink="http://www.w3.org/1999/xlink">
<g id="graph0" class="graph" transform="scale(1 1) rotate(0) translate(4 91)">
<title>src/operational/src/state/tcp_connection.h</title>
<polygon fill="white" stroke="none" points="-4,4 -4,-91 164,-91 164,4 -4,4"/>
<!-- Node1 -->
<g id="node1" class="node"><title>Node1</title>
<polygon fill="#bfbfbf" stroke="black" points="35,-56.5 35,-86.5 154,-86.5 154,-56.5 35,-56.5"/>
<text text-anchor="start" x="43" y="-74.5" font-family="Helvetica,sans-Serif" font-size="10.00">src/operational/src</text>
<text text-anchor="middle" x="94.5" y="-63.5" font-family="Helvetica,sans-Serif" font-size="10.00">/state/tcp_connection.h</text>
</g>
<!-- Node2 -->
<g id="node2" class="node"><title>Node2</title>
<g id="a_node2"><a xlink:href="../../df/d13/tcp__octet__stream_8h.html" target="_top" xlink:title="tcp_octet_stream.h">
<polygon fill="white" stroke="black" points="0,-0.5 0,-19.5 101,-19.5 101,-0.5 0,-0.5"/>
<text text-anchor="middle" x="50.5" y="-7.5" font-family="Helvetica,sans-Serif" font-size="10.00">tcp_octet_stream.h</text>
</a>
</g>
</g>
<!-- Node1&#45;&gt;Node2 -->
<g id="edge1" class="edge"><title>Node1&#45;&gt;Node2</title>
<path fill="none" stroke="midnightblue" d="M84.0726,-56.3993C77.7448,-47.8424 69.6314,-36.8708 62.9657,-27.857"/>
<polygon fill="midnightblue" stroke="midnightblue" points="65.6624,-25.6171 56.9024,-19.6578 60.0341,-29.7792 65.6624,-25.6171"/>
</g>
<!-- Node3 -->
<g id="node3" class="node"><title>Node3</title>
<polygon fill="white" stroke="#bfbfbf" points="119,-0.5 119,-19.5 160,-19.5 160,-0.5 119,-0.5"/>
<text text-anchor="middle" x="139.5" y="-7.5" font-family="Helvetica,sans-Serif" font-size="10.00">string</text>
</g>
<!-- Node1&#45;&gt;Node3 -->
<g id="edge2" class="edge"><title>Node1&#45;&gt;Node3</title>
<path fill="none" stroke="midnightblue" d="M105.164,-56.3993C111.636,-47.8424 119.934,-36.8708 126.751,-27.857"/>
<polygon fill="midnightblue" stroke="midnightblue" points="129.711,-29.7449 132.952,-19.6578 124.128,-25.5223 129.711,-29.7449"/>
</g>
</g>
</svg>
