<?xml version="1.0" encoding="UTF-8" standalone="no"?>
<!DOCTYPE svg PUBLIC "-//W3C//DTD SVG 1.1//EN"
 "http://www.w3.org/Graphics/SVG/1.1/DTD/svg11.dtd">
<!-- Generated by graphviz version 2.38.0 (20140413.2041)
 -->
<!-- Title: operational::interpreter::VariableExp Pages: 1 -->
<svg width="280pt" height="259pt"
 viewBox="0.00 0.00 280.00 259.00" xmlns="http://www.w3.org/2000/svg" xmlns:xlink="http://www.w3.org/1999/xlink">
<g id="graph0" class="graph" transform="scale(1 1) rotate(0) translate(4 255)">
<title>operational::interpreter::VariableExp</title>
<polygon fill="white" stroke="none" points="-4,4 -4,-255 276,-255 276,4 -4,4"/>
<!-- Node1 -->
<g id="node1" class="node"><title>Node1</title>
<polygon fill="#bfbfbf" stroke="black" points="79,-0.5 79,-112.5 192,-112.5 192,-0.5 79,-0.5"/>
<text text-anchor="start" x="87" y="-100.5" font-family="Helvetica,sans-Serif" font-size="10.00">operational::interpreter</text>
<text text-anchor="middle" x="135.5" y="-89.5" font-family="Helvetica,sans-Serif" font-size="10.00">::VariableExp</text>
<polyline fill="none" stroke="black" points="79,-82.5 192,-82.5 "/>
<text text-anchor="middle" x="135.5" y="-70.5" font-family="Helvetica,sans-Serif" font-size="10.00"> </text>
<polyline fill="none" stroke="black" points="79,-63.5 192,-63.5 "/>
<text text-anchor="start" x="87" y="-51.5" font-family="Helvetica,sans-Serif" font-size="10.00">+ VariableExp()</text>
<text text-anchor="start" x="87" y="-40.5" font-family="Helvetica,sans-Serif" font-size="10.00">+ Evaluate()</text>
<text text-anchor="start" x="87" y="-29.5" font-family="Helvetica,sans-Serif" font-size="10.00">+ Replace()</text>
<text text-anchor="start" x="87" y="-18.5" font-family="Helvetica,sans-Serif" font-size="10.00">+ Copy()</text>
<text text-anchor="start" x="87" y="-7.5" font-family="Helvetica,sans-Serif" font-size="10.00">+ name()</text>
</g>
<!-- Node2 -->
<g id="node2" class="node"><title>Node2</title>
<g id="a_node2"><a xlink:href="../../d0/d5f/classoperational_1_1interpreter_1_1_boolean_exp_interface.html" target="_top" xlink:title="{operational::interpreter\l::BooleanExpInterface\n||+ ~BooleanExpInterface()\l+ Evaluate()\l+ Replace()\l+ Copy()\l}">
<polygon fill="white" stroke="black" points="0,-149.5 0,-250.5 127,-250.5 127,-149.5 0,-149.5"/>
<text text-anchor="start" x="8" y="-238.5" font-family="Helvetica,sans-Serif" font-size="10.00">operational::interpreter</text>
<text text-anchor="middle" x="63.5" y="-227.5" font-family="Helvetica,sans-Serif" font-size="10.00">::BooleanExpInterface</text>
<polyline fill="none" stroke="black" points="0,-220.5 127,-220.5 "/>
<text text-anchor="middle" x="63.5" y="-208.5" font-family="Helvetica,sans-Serif" font-size="10.00"> </text>
<polyline fill="none" stroke="black" points="0,-201.5 127,-201.5 "/>
<text text-anchor="start" x="8" y="-189.5" font-family="Helvetica,sans-Serif" font-size="10.00">+ ~BooleanExpInterface()</text>
<text text-anchor="start" x="8" y="-178.5" font-family="Helvetica,sans-Serif" font-size="10.00">+ Evaluate()</text>
<text text-anchor="start" x="8" y="-167.5" font-family="Helvetica,sans-Serif" font-size="10.00">+ Replace()</text>
<text text-anchor="start" x="8" y="-156.5" font-family="Helvetica,sans-Serif" font-size="10.00">+ Copy()</text>
</a>
</g>
</g>
<!-- Node2&#45;&gt;Node1 -->
<g id="edge1" class="edge"><title>Node2&#45;&gt;Node1</title>
<path fill="none" stroke="midnightblue" d="M93.4476,-140.145C98.0681,-131.064 102.826,-121.714 107.404,-112.717"/>
<polygon fill="none" stroke="midnightblue" points="90.3002,-138.613 88.8845,-149.112 96.539,-141.787 90.3002,-138.613"/>
</g>
<!-- Node3 -->
<g id="node3" class="node"><title>Node3</title>
<g id="a_node3"><a xlink:href="../../d4/db4/classoperational_1_1interpreter_1_1_variable_exp_interface.html" target="_top" xlink:title="{operational::interpreter\l::VariableExpInterface\n||+ ~VariableExpInterface()\l+ name()\l}">
<polygon fill="white" stroke="black" points="145,-160.5 145,-239.5 272,-239.5 272,-160.5 145,-160.5"/>
<text text-anchor="start" x="153" y="-227.5" font-family="Helvetica,sans-Serif" font-size="10.00">operational::interpreter</text>
<text text-anchor="middle" x="208.5" y="-216.5" font-family="Helvetica,sans-Serif" font-size="10.00">::VariableExpInterface</text>
<polyline fill="none" stroke="black" points="145,-209.5 272,-209.5 "/>
<text text-anchor="middle" x="208.5" y="-197.5" font-family="Helvetica,sans-Serif" font-size="10.00"> </text>
<polyline fill="none" stroke="black" points="145,-190.5 272,-190.5 "/>
<text text-anchor="start" x="153" y="-178.5" font-family="Helvetica,sans-Serif" font-size="10.00">+ ~VariableExpInterface()</text>
<text text-anchor="start" x="153" y="-167.5" font-family="Helvetica,sans-Serif" font-size="10.00">+ name()</text>
</a>
</g>
</g>
<!-- Node3&#45;&gt;Node1 -->
<g id="edge2" class="edge"><title>Node3&#45;&gt;Node1</title>
<path fill="none" stroke="midnightblue" d="M183.787,-151.097C177.397,-138.712 170.468,-125.281 163.907,-112.562"/>
<polygon fill="none" stroke="midnightblue" points="180.857,-153.052 188.552,-160.335 187.078,-149.843 180.857,-153.052"/>
</g>
</g>
</svg>
