<?xml version="1.0" encoding="UTF-8" standalone="no"?>
<!DOCTYPE svg PUBLIC "-//W3C//DTD SVG 1.1//EN"
 "http://www.w3.org/Graphics/SVG/1.1/DTD/svg11.dtd">
<!-- Generated by graphviz version 2.38.0 (20140413.2041)
 -->
<!-- Title: src/structural/src/facade/risc_code_generator.cc Pages: 1 -->
<svg width="465pt" height="263pt"
 viewBox="0.00 0.00 464.50 263.00" xmlns="http://www.w3.org/2000/svg" xmlns:xlink="http://www.w3.org/1999/xlink">
<g id="graph0" class="graph" transform="scale(1 1) rotate(0) translate(4 259)">
<title>src/structural/src/facade/risc_code_generator.cc</title>
<polygon fill="white" stroke="none" points="-4,4 -4,-259 460.5,-259 460.5,4 -4,4"/>
<!-- Node1 -->
<g id="node1" class="node"><title>Node1</title>
<polygon fill="#bfbfbf" stroke="black" points="106,-224.5 106,-254.5 258,-254.5 258,-224.5 106,-224.5"/>
<text text-anchor="start" x="114" y="-242.5" font-family="Helvetica,sans-Serif" font-size="10.00">src/structural/src</text>
<text text-anchor="middle" x="182" y="-231.5" font-family="Helvetica,sans-Serif" font-size="10.00">/facade/risc_code_generator.cc</text>
</g>
<!-- Node2 -->
<g id="node2" class="node"><title>Node2</title>
<g id="a_node2"><a xlink:href="../../da/d63/risc__code__generator_8h.html" target="_top" xlink:title="risc_code_generator.h">
<polygon fill="white" stroke="black" points="75.5,-168.5 75.5,-187.5 188.5,-187.5 188.5,-168.5 75.5,-168.5"/>
<text text-anchor="middle" x="132" y="-175.5" font-family="Helvetica,sans-Serif" font-size="10.00">risc_code_generator.h</text>
</a>
</g>
</g>
<!-- Node1&#45;&gt;Node2 -->
<g id="edge1" class="edge"><title>Node1&#45;&gt;Node2</title>
<path fill="none" stroke="midnightblue" d="M170.151,-224.399C162.885,-215.753 153.548,-204.642 145.929,-195.576"/>
<polygon fill="midnightblue" stroke="midnightblue" points="148.388,-193.062 139.275,-187.658 143.029,-197.565 148.388,-193.062"/>
</g>
<!-- Node9 -->
<g id="node9" class="node"><title>Node9</title>
<polygon fill="white" stroke="#bfbfbf" points="207,-168.5 207,-187.5 259,-187.5 259,-168.5 207,-168.5"/>
<text text-anchor="middle" x="233" y="-175.5" font-family="Helvetica,sans-Serif" font-size="10.00">sstream</text>
</g>
<!-- Node1&#45;&gt;Node9 -->
<g id="edge11" class="edge"><title>Node1&#45;&gt;Node9</title>
<path fill="none" stroke="midnightblue" d="M194.086,-224.399C201.574,-215.664 211.218,-204.413 219.032,-195.296"/>
<polygon fill="midnightblue" stroke="midnightblue" points="221.729,-197.528 225.579,-187.658 216.414,-192.973 221.729,-197.528"/>
</g>
<!-- Node3 -->
<g id="node3" class="node"><title>Node3</title>
<g id="a_node3"><a xlink:href="../../d2/d26/bytecode__stream_8h.html" target="_top" xlink:title="bytecode_stream.h">
<polygon fill="white" stroke="black" points="0,-112.5 0,-131.5 100,-131.5 100,-112.5 0,-112.5"/>
<text text-anchor="middle" x="50" y="-119.5" font-family="Helvetica,sans-Serif" font-size="10.00">bytecode_stream.h</text>
</a>
</g>
</g>
<!-- Node2&#45;&gt;Node3 -->
<g id="edge2" class="edge"><title>Node2&#45;&gt;Node3</title>
<path fill="none" stroke="midnightblue" d="M118.825,-168.324C106.153,-159.979 86.7666,-147.212 71.7944,-137.352"/>
<polygon fill="midnightblue" stroke="midnightblue" points="73.4187,-134.231 63.142,-131.655 69.5688,-140.078 73.4187,-134.231"/>
</g>
<!-- Node5 -->
<g id="node5" class="node"><title>Node5</title>
<g id="a_node5"><a xlink:href="../../d7/df5/code__generator__interface_8h.html" target="_top" xlink:title="code_generator_interface.h">
<polygon fill="white" stroke="black" points="148,-112.5 148,-131.5 282,-131.5 282,-112.5 148,-112.5"/>
<text text-anchor="middle" x="215" y="-119.5" font-family="Helvetica,sans-Serif" font-size="10.00">code_generator_interface.h</text>
</a>
</g>
</g>
<!-- Node2&#45;&gt;Node5 -->
<g id="edge4" class="edge"><title>Node2&#45;&gt;Node5</title>
<path fill="none" stroke="midnightblue" d="M145.335,-168.324C158.162,-159.979 177.785,-147.212 192.94,-137.352"/>
<polygon fill="midnightblue" stroke="midnightblue" points="195.224,-140.042 201.698,-131.655 191.407,-134.174 195.224,-140.042"/>
</g>
<!-- Node4 -->
<g id="node4" class="node"><title>Node4</title>
<polygon fill="white" stroke="#bfbfbf" points="145.5,-0.5 145.5,-19.5 186.5,-19.5 186.5,-0.5 145.5,-0.5"/>
<text text-anchor="middle" x="166" y="-7.5" font-family="Helvetica,sans-Serif" font-size="10.00">string</text>
</g>
<!-- Node3&#45;&gt;Node4 -->
<g id="edge3" class="edge"><title>Node3&#45;&gt;Node4</title>
<path fill="none" stroke="midnightblue" d="M37.7623,-112.498C20.9794,-99.7932 -5.53443,-75.2856 9,-56 24.1886,-35.8463 94.1623,-21.9628 135.39,-15.3737"/>
<polygon fill="midnightblue" stroke="midnightblue" points="136.1,-18.8057 145.448,-13.8195 135.031,-11.8878 136.1,-18.8057"/>
</g>
<!-- Node6 -->
<g id="node6" class="node"><title>Node6</title>
<g id="a_node6"><a xlink:href="../../d9/d24/expression__node__interface_8h.html" target="_top" xlink:title="expression_node_interface.h">
<polygon fill="white" stroke="black" points="18,-56.5 18,-75.5 158,-75.5 158,-56.5 18,-56.5"/>
<text text-anchor="middle" x="88" y="-63.5" font-family="Helvetica,sans-Serif" font-size="10.00">expression_node_interface.h</text>
</a>
</g>
</g>
<!-- Node5&#45;&gt;Node6 -->
<g id="edge5" class="edge"><title>Node5&#45;&gt;Node6</title>
<path fill="none" stroke="midnightblue" d="M194.876,-112.444C173.976,-103.557 141.065,-89.5632 117.284,-79.4514"/>
<polygon fill="midnightblue" stroke="midnightblue" points="118.602,-76.2085 108.029,-75.5164 115.862,-82.6504 118.602,-76.2085"/>
</g>
<!-- Node7 -->
<g id="node7" class="node"><title>Node7</title>
<g id="a_node7"><a xlink:href="../../dd/d4b/statement__node__interface_8h.html" target="_top" xlink:title="statement_node_interface.h">
<polygon fill="white" stroke="black" points="176.5,-56.5 176.5,-75.5 313.5,-75.5 313.5,-56.5 176.5,-56.5"/>
<text text-anchor="middle" x="245" y="-63.5" font-family="Helvetica,sans-Serif" font-size="10.00">statement_node_interface.h</text>
</a>
</g>
</g>
<!-- Node5&#45;&gt;Node7 -->
<g id="edge7" class="edge"><title>Node5&#45;&gt;Node7</title>
<path fill="none" stroke="midnightblue" d="M219.954,-112.083C224.104,-104.613 230.153,-93.7244 235.267,-84.5199"/>
<polygon fill="midnightblue" stroke="midnightblue" points="238.341,-86.1924 240.138,-75.7511 232.222,-82.7929 238.341,-86.1924"/>
</g>
<!-- Node8 -->
<g id="node8" class="node"><title>Node8</title>
<g id="a_node8"><a xlink:href="../../df/d19/variable__node__interface_8h.html" target="_top" xlink:title="variable_node_interface.h">
<polygon fill="white" stroke="black" points="331.5,-56.5 331.5,-75.5 456.5,-75.5 456.5,-56.5 331.5,-56.5"/>
<text text-anchor="middle" x="394" y="-63.5" font-family="Helvetica,sans-Serif" font-size="10.00">variable_node_interface.h</text>
</a>
</g>
</g>
<!-- Node5&#45;&gt;Node8 -->
<g id="edge9" class="edge"><title>Node5&#45;&gt;Node8</title>
<path fill="none" stroke="midnightblue" d="M243.363,-112.444C273.738,-103.28 322.11,-88.6876 355.816,-78.5192"/>
<polygon fill="midnightblue" stroke="midnightblue" points="357.207,-81.7555 365.77,-75.5164 355.185,-75.0538 357.207,-81.7555"/>
</g>
<!-- Node6&#45;&gt;Node4 -->
<g id="edge6" class="edge"><title>Node6&#45;&gt;Node4</title>
<path fill="none" stroke="midnightblue" d="M100.532,-56.324C112.586,-47.979 131.027,-35.2122 145.269,-25.3524"/>
<polygon fill="midnightblue" stroke="midnightblue" points="147.269,-28.2243 153.499,-19.6545 143.285,-22.469 147.269,-28.2243"/>
</g>
<!-- Node7&#45;&gt;Node4 -->
<g id="edge8" class="edge"><title>Node7&#45;&gt;Node4</title>
<path fill="none" stroke="midnightblue" d="M232.307,-56.324C220.099,-47.979 201.422,-35.2122 186.997,-25.3524"/>
<polygon fill="midnightblue" stroke="midnightblue" points="188.892,-22.4082 178.661,-19.6545 184.942,-28.1871 188.892,-22.4082"/>
</g>
<!-- Node8&#45;&gt;Node4 -->
<g id="edge10" class="edge"><title>Node8&#45;&gt;Node4</title>
<path fill="none" stroke="midnightblue" d="M357.873,-56.4435C313.307,-45.8884 238.326,-28.1298 196.513,-18.2268"/>
<polygon fill="midnightblue" stroke="midnightblue" points="197.174,-14.7865 186.636,-15.8876 195.561,-21.5981 197.174,-14.7865"/>
</g>
</g>
</svg>
