<?xml version="1.0" encoding="UTF-8" standalone="no"?>
<!DOCTYPE svg PUBLIC "-//W3C//DTD SVG 1.1//EN"
 "http://www.w3.org/Graphics/SVG/1.1/DTD/svg11.dtd">
<!-- Generated by graphviz version 2.38.0 (20140413.2041)
 -->
<!-- Title: creational::builder::StandardMazeBuilder::BuildRoom Pages: 1 -->
<svg width="416pt" height="50pt"
 viewBox="0.00 0.00 416.00 50.00" xmlns="http://www.w3.org/2000/svg" xmlns:xlink="http://www.w3.org/1999/xlink">
<g id="graph0" class="graph" transform="scale(1 1) rotate(0) translate(4 46)">
<title>creational::builder::StandardMazeBuilder::BuildRoom</title>
<polygon fill="white" stroke="none" points="-4,4 -4,-46 412,-46 412,4 -4,4"/>
<!-- Node1 -->
<g id="node1" class="node"><title>Node1</title>
<polygon fill="#bfbfbf" stroke="black" points="0,-0.5 0,-41.5 116,-41.5 116,-0.5 0,-0.5"/>
<text text-anchor="start" x="8" y="-29.5" font-family="Helvetica,sans-Serif" font-size="10.00">creational::builder</text>
<text text-anchor="start" x="8" y="-18.5" font-family="Helvetica,sans-Serif" font-size="10.00">::StandardMazeBuilder</text>
<text text-anchor="middle" x="58" y="-7.5" font-family="Helvetica,sans-Serif" font-size="10.00">::BuildRoom</text>
</g>
<!-- Node2 -->
<g id="node2" class="node"><title>Node2</title>
<g id="a_node2"><a xlink:href="../../de/d93/classcreational_1_1commons_1_1_maze.html#a8b364f1371af7ccbf7b8d3fcffe79426" target="_top" xlink:title="creational::commons\l::Maze::AddRoom">
<polygon fill="white" stroke="black" points="152,-6 152,-36 259,-36 259,-6 152,-6"/>
<text text-anchor="start" x="160" y="-24" font-family="Helvetica,sans-Serif" font-size="10.00">creational::commons</text>
<text text-anchor="middle" x="205.5" y="-13" font-family="Helvetica,sans-Serif" font-size="10.00">::Maze::AddRoom</text>
</a>
</g>
</g>
<!-- Node1&#45;&gt;Node2 -->
<g id="edge1" class="edge"><title>Node1&#45;&gt;Node2</title>
<path fill="none" stroke="midnightblue" d="M116.088,-21C124.465,-21 133.133,-21 141.618,-21"/>
<polygon fill="midnightblue" stroke="midnightblue" points="141.846,-24.5001 151.846,-21 141.846,-17.5001 141.846,-24.5001"/>
</g>
<!-- Node3 -->
<g id="node3" class="node"><title>Node3</title>
<g id="a_node3"><a xlink:href="../../d7/d33/classcreational_1_1commons_1_1_room.html#ae23154964af6170704b85d49d3d30536" target="_top" xlink:title="creational::commons\l::Room::room_number">
<polygon fill="white" stroke="black" points="295,-6 295,-36 408,-36 408,-6 295,-6"/>
<text text-anchor="start" x="303" y="-24" font-family="Helvetica,sans-Serif" font-size="10.00">creational::commons</text>
<text text-anchor="middle" x="351.5" y="-13" font-family="Helvetica,sans-Serif" font-size="10.00">::Room::room_number</text>
</a>
</g>
</g>
<!-- Node2&#45;&gt;Node3 -->
<g id="edge2" class="edge"><title>Node2&#45;&gt;Node3</title>
<path fill="none" stroke="midnightblue" d="M259.303,-21C267.52,-21 276.098,-21 284.562,-21"/>
<polygon fill="midnightblue" stroke="midnightblue" points="284.8,-24.5001 294.8,-21 284.8,-17.5001 284.8,-24.5001"/>
</g>
</g>
</svg>
