<?xml version="1.0" encoding="UTF-8" standalone="no"?>
<!DOCTYPE svg PUBLIC "-//W3C//DTD SVG 1.1//EN"
 "http://www.w3.org/Graphics/SVG/1.1/DTD/svg11.dtd">
<!-- Generated by graphviz version 2.38.0 (20140413.2041)
 -->
<!-- Title: src/creational/src/mazeparts/twisty_turny_passage.h Pages: 1 -->
<svg width="268pt" height="128pt"
 viewBox="0.00 0.00 268.00 128.00" xmlns="http://www.w3.org/2000/svg" xmlns:xlink="http://www.w3.org/1999/xlink">
<g id="graph0" class="graph" transform="scale(1 1) rotate(0) translate(4 124)">
<title>src/creational/src/mazeparts/twisty_turny_passage.h</title>
<polygon fill="white" stroke="none" points="-4,4 -4,-124 264,-124 264,4 -4,4"/>
<!-- Node1 -->
<g id="node1" class="node"><title>Node1</title>
<polygon fill="#bfbfbf" stroke="black" points="69,-78.5 69,-119.5 190,-119.5 190,-78.5 69,-78.5"/>
<text text-anchor="start" x="77" y="-107.5" font-family="Helvetica,sans-Serif" font-size="10.00">src/creational/src</text>
<text text-anchor="start" x="77" y="-96.5" font-family="Helvetica,sans-Serif" font-size="10.00">/mazeparts/twisty_turny</text>
<text text-anchor="middle" x="129.5" y="-85.5" font-family="Helvetica,sans-Serif" font-size="10.00">_passage.h</text>
</g>
<!-- Node2 -->
<g id="node2" class="node"><title>Node2</title>
<g id="a_node2"><a xlink:href="../../d3/d35/twisty__turny__passage_8cc.html" target="_top" xlink:title="src/creational/src\l/mazeparts/twisty_turny\l_passage.cc">
<polygon fill="white" stroke="black" points="0,-0.5 0,-41.5 121,-41.5 121,-0.5 0,-0.5"/>
<text text-anchor="start" x="8" y="-29.5" font-family="Helvetica,sans-Serif" font-size="10.00">src/creational/src</text>
<text text-anchor="start" x="8" y="-18.5" font-family="Helvetica,sans-Serif" font-size="10.00">/mazeparts/twisty_turny</text>
<text text-anchor="middle" x="60.5" y="-7.5" font-family="Helvetica,sans-Serif" font-size="10.00">_passage.cc</text>
</a>
</g>
</g>
<!-- Node1&#45;&gt;Node2 -->
<g id="edge1" class="edge"><title>Node1&#45;&gt;Node2</title>
<path fill="none" stroke="midnightblue" d="M104.91,-70.9158C96.0921,-61.2029 86.3298,-50.4502 78.209,-41.5056"/>
<polygon fill="midnightblue" stroke="midnightblue" points="102.418,-73.3769 111.731,-78.4281 107.6,-68.6716 102.418,-73.3769"/>
</g>
<!-- Node3 -->
<g id="node3" class="node"><title>Node3</title>
<g id="a_node3"><a xlink:href="../../da/d54/twisty__turny__passage__test_8cc.html" target="_top" xlink:title="src/creational_tests\l/src/mazeparts/twisty\l_turny_passage_test.cc">
<polygon fill="white" stroke="black" points="139,-0.5 139,-41.5 260,-41.5 260,-0.5 139,-0.5"/>
<text text-anchor="start" x="147" y="-29.5" font-family="Helvetica,sans-Serif" font-size="10.00">src/creational_tests</text>
<text text-anchor="start" x="147" y="-18.5" font-family="Helvetica,sans-Serif" font-size="10.00">/src/mazeparts/twisty</text>
<text text-anchor="middle" x="199.5" y="-7.5" font-family="Helvetica,sans-Serif" font-size="10.00">_turny_passage_test.cc</text>
</a>
</g>
</g>
<!-- Node1&#45;&gt;Node3 -->
<g id="edge2" class="edge"><title>Node1&#45;&gt;Node3</title>
<path fill="none" stroke="midnightblue" d="M154.446,-70.9158C163.392,-61.2029 173.296,-50.4502 181.534,-41.5056"/>
<polygon fill="midnightblue" stroke="midnightblue" points="151.727,-68.7015 147.527,-78.4281 156.876,-73.4438 151.727,-68.7015"/>
</g>
</g>
</svg>
