<?xml version="1.0" encoding="UTF-8" standalone="no"?>
<!DOCTYPE svg PUBLIC "-//W3C//DTD SVG 1.1//EN"
 "http://www.w3.org/Graphics/SVG/1.1/DTD/svg11.dtd">
<!-- Generated by graphviz version 2.38.0 (20140413.2041)
 -->
<!-- Title: creational::commons::Door Pages: 1 -->
<svg width="118pt" height="397pt"
 viewBox="0.00 0.00 118.00 397.00" xmlns="http://www.w3.org/2000/svg" xmlns:xlink="http://www.w3.org/1999/xlink">
<g id="graph0" class="graph" transform="scale(1 1) rotate(0) translate(4 393)">
<title>creational::commons::Door</title>
<polygon fill="white" stroke="none" points="-4,4 -4,-393 114,-393 114,4 -4,4"/>
<!-- Node1 -->
<g id="node1" class="node"><title>Node1</title>
<polygon fill="#bfbfbf" stroke="black" points="1.5,-127.5 1.5,-272.5 108.5,-272.5 108.5,-127.5 1.5,-127.5"/>
<text text-anchor="start" x="9.5" y="-260.5" font-family="Helvetica,sans-Serif" font-size="10.00">creational::commons</text>
<text text-anchor="middle" x="55" y="-249.5" font-family="Helvetica,sans-Serif" font-size="10.00">::Door</text>
<polyline fill="none" stroke="black" points="1.5,-242.5 108.5,-242.5 "/>
<text text-anchor="middle" x="55" y="-230.5" font-family="Helvetica,sans-Serif" font-size="10.00"> </text>
<polyline fill="none" stroke="black" points="1.5,-223.5 108.5,-223.5 "/>
<text text-anchor="start" x="9.5" y="-211.5" font-family="Helvetica,sans-Serif" font-size="10.00">+ Door()</text>
<text text-anchor="start" x="9.5" y="-200.5" font-family="Helvetica,sans-Serif" font-size="10.00">+ Door()</text>
<text text-anchor="start" x="9.5" y="-189.5" font-family="Helvetica,sans-Serif" font-size="10.00">+ Clone()</text>
<text text-anchor="start" x="9.5" y="-178.5" font-family="Helvetica,sans-Serif" font-size="10.00">+ Enter()</text>
<text text-anchor="start" x="9.5" y="-167.5" font-family="Helvetica,sans-Serif" font-size="10.00">+ Initialize()</text>
<text text-anchor="start" x="9.5" y="-156.5" font-family="Helvetica,sans-Serif" font-size="10.00">+ is_open()</text>
<text text-anchor="start" x="9.5" y="-145.5" font-family="Helvetica,sans-Serif" font-size="10.00">+ OtherSideFrom()</text>
<text text-anchor="start" x="9.5" y="-134.5" font-family="Helvetica,sans-Serif" font-size="10.00">+ entered()</text>
</g>
<!-- Node3 -->
<g id="node3" class="node"><title>Node3</title>
<g id="a_node3"><a xlink:href="../../dd/da2/classcreational_1_1commons_1_1_door_needing_spell.html" target="_top" xlink:title="{creational::commons\l::DoorNeedingSpell\n||+ DoorNeedingSpell()\l+ DoorNeedingSpell()\l+ TrySpell()\l}">
<polygon fill="white" stroke="black" points="0.5,-0.5 0.5,-90.5 109.5,-90.5 109.5,-0.5 0.5,-0.5"/>
<text text-anchor="start" x="8.5" y="-78.5" font-family="Helvetica,sans-Serif" font-size="10.00">creational::commons</text>
<text text-anchor="middle" x="55" y="-67.5" font-family="Helvetica,sans-Serif" font-size="10.00">::DoorNeedingSpell</text>
<polyline fill="none" stroke="black" points="0.5,-60.5 109.5,-60.5 "/>
<text text-anchor="middle" x="55" y="-48.5" font-family="Helvetica,sans-Serif" font-size="10.00"> </text>
<polyline fill="none" stroke="black" points="0.5,-41.5 109.5,-41.5 "/>
<text text-anchor="start" x="8.5" y="-29.5" font-family="Helvetica,sans-Serif" font-size="10.00">+ DoorNeedingSpell()</text>
<text text-anchor="start" x="8.5" y="-18.5" font-family="Helvetica,sans-Serif" font-size="10.00">+ DoorNeedingSpell()</text>
<text text-anchor="start" x="8.5" y="-7.5" font-family="Helvetica,sans-Serif" font-size="10.00">+ TrySpell()</text>
</a>
</g>
</g>
<!-- Node1&#45;&gt;Node3 -->
<g id="edge2" class="edge"><title>Node1&#45;&gt;Node3</title>
<path fill="none" stroke="midnightblue" d="M55,-116.941C55,-107.857 55,-98.8847 55,-90.5422"/>
<polygon fill="none" stroke="midnightblue" points="51.5001,-117.215 55,-127.216 58.5001,-117.216 51.5001,-117.215"/>
</g>
<!-- Node2 -->
<g id="node2" class="node"><title>Node2</title>
<g id="a_node2"><a xlink:href="../../d6/dde/classcreational_1_1commons_1_1_map_site_interface.html" target="_top" xlink:title="{creational::commons\l::MapSiteInterface\n||+ ~MapSiteInterface()\l+ Enter()\l}">
<polygon fill="white" stroke="black" points="0,-309.5 0,-388.5 110,-388.5 110,-309.5 0,-309.5"/>
<text text-anchor="start" x="8" y="-376.5" font-family="Helvetica,sans-Serif" font-size="10.00">creational::commons</text>
<text text-anchor="middle" x="55" y="-365.5" font-family="Helvetica,sans-Serif" font-size="10.00">::MapSiteInterface</text>
<polyline fill="none" stroke="black" points="0,-358.5 110,-358.5 "/>
<text text-anchor="middle" x="55" y="-346.5" font-family="Helvetica,sans-Serif" font-size="10.00"> </text>
<polyline fill="none" stroke="black" points="0,-339.5 110,-339.5 "/>
<text text-anchor="start" x="8" y="-327.5" font-family="Helvetica,sans-Serif" font-size="10.00">+ ~MapSiteInterface()</text>
<text text-anchor="start" x="8" y="-316.5" font-family="Helvetica,sans-Serif" font-size="10.00">+ Enter()</text>
</a>
</g>
</g>
<!-- Node2&#45;&gt;Node1 -->
<g id="edge1" class="edge"><title>Node2&#45;&gt;Node1</title>
<path fill="none" stroke="midnightblue" d="M55,-299.243C55,-290.699 55,-281.651 55,-272.64"/>
<polygon fill="none" stroke="midnightblue" points="51.5001,-299.377 55,-309.377 58.5001,-299.378 51.5001,-299.377"/>
</g>
</g>
</svg>
