<?xml version="1.0" encoding="UTF-8" standalone="no"?>
<!DOCTYPE svg PUBLIC "-//W3C//DTD SVG 1.1//EN"
 "http://www.w3.org/Graphics/SVG/1.1/DTD/svg11.dtd">
<!-- Generated by graphviz version 2.38.0 (20140413.2041)
 -->
<!-- Title: src/structural/src/adapter/visual_component_interface.h Pages: 1 -->
<!--zoomable 273 -->
<svg id="main" version="1.1" xmlns="http://www.w3.org/2000/svg" xmlns:xlink="http://www.w3.org/1999/xlink" xml:space="preserve" onload="init(evt)">
<style type="text/css"><![CDATA[
.edge:hover path { stroke: red; }
.edge:hover polygon { stroke: red; fill: red; }
]]></style>
<script type="text/javascript"><![CDATA[
var edges = document.getElementsByTagName('g');
if (edges && edges.length) {
  for (var i=0;i<edges.length;i++) {
    if (edges[i].id.substr(0,4)=='edge') {
      edges[i].setAttribute('class','edge');
    }
  }
}
]]></script>
        <defs>
                <circle id="rim" cx="0" cy="0" r="7"/>
                <circle id="rim2" cx="0" cy="0" r="3.5"/>
                <g id="zoomPlus">
                        <use xlink:href="#rim" fill="#404040">
                                <set attributeName="fill" to="#808080" begin="zoomplus.mouseover" end="zoomplus.mouseout"/>
                        </use>
                        <path d="M-4,0h8M0,-4v8" fill="none" stroke="white" stroke-width="1.5" pointer-events="none"/>
                </g>
                <g id="zoomMin">
                        <use xlink:href="#rim" fill="#404040">
                                <set attributeName="fill" to="#808080" begin="zoomminus.mouseover" end="zoomminus.mouseout"/>
                        </use>
                        <path d="M-4,0h8" fill="none" stroke="white" stroke-width="1.5" pointer-events="none"/>
                </g>
                <g id="dirArrow">
                        <path fill="none" stroke="white" stroke-width="1.5" d="M0,-3.0v7 M-2.5,-0.5L0,-3.0L2.5,-0.5"/>
                </g>
               <g id="resetDef">
                       <use xlink:href="#rim2" fill="#404040">
                               <set attributeName="fill" to="#808080" begin="reset.mouseover" end="reset.mouseout"/>
                       </use>
               </g>
        </defs>

<script type="text/javascript">
var viewWidth = 549;
var viewHeight = 273;
var sectionId = 'dynsection-0';
</script>
<script xlink:href="../../svgpan.js"/>
<svg id="graph" class="graph">
<g id="viewport">
<title>src/structural/src/adapter/visual_component_interface.h</title>
<polygon fill="white" stroke="none" points="-4,4 -4,-269 545,-269 545,4 -4,4"/>
<!-- Node1 -->
<g id="node1" class="node"><title>Node1</title>
<polygon fill="#bfbfbf" stroke="black" points="229.5,-223.5 229.5,-264.5 361.5,-264.5 361.5,-223.5 229.5,-223.5"/>
<text text-anchor="start" x="237.5" y="-252.5" font-family="Helvetica,sans-Serif" font-size="10.00">src/structural/src</text>
<text text-anchor="start" x="237.5" y="-241.5" font-family="Helvetica,sans-Serif" font-size="10.00">/adapter/visual_component</text>
<text text-anchor="middle" x="295.5" y="-230.5" font-family="Helvetica,sans-Serif" font-size="10.00">_interface.h</text>
</g>
<!-- Node2 -->
<g id="node2" class="node"><title>Node2</title>
<g id="a_node2"><a xlink:href="../../d3/dee/text__view_8h.html" target="_top" xlink:title="src/structural/src\l/adapter/text_view.h">
<polygon fill="white" stroke="black" points="244,-156.5 244,-186.5 347,-186.5 347,-156.5 244,-156.5"/>
<text text-anchor="start" x="252" y="-174.5" font-family="Helvetica,sans-Serif" font-size="10.00">src/structural/src</text>
<text text-anchor="middle" x="295.5" y="-163.5" font-family="Helvetica,sans-Serif" font-size="10.00">/adapter/text_view.h</text>
</a>
</g>
</g>
<!-- Node1&#45;&gt;Node2 -->
<g id="edge1" class="edge"><title>Node1&#45;&gt;Node2</title>
<path fill="none" stroke="midnightblue" d="M295.5,-213.08C295.5,-204.006 295.5,-194.45 295.5,-186.892"/>
<polygon fill="midnightblue" stroke="midnightblue" points="292,-213.362 295.5,-223.362 299,-213.362 292,-213.362"/>
</g>
<!-- Node3 -->
<g id="node3" class="node"><title>Node3</title>
<g id="a_node3"><a xlink:href="../../d4/d4c/text__shape__class__adapter_8h.html" target="_top" xlink:title="src/structural/src\l/adapter/text_shape\l_class_adapter.h">
<polygon fill="white" stroke="black" points="61,-78.5 61,-119.5 164,-119.5 164,-78.5 61,-78.5"/>
<text text-anchor="start" x="69" y="-107.5" font-family="Helvetica,sans-Serif" font-size="10.00">src/structural/src</text>
<text text-anchor="start" x="69" y="-96.5" font-family="Helvetica,sans-Serif" font-size="10.00">/adapter/text_shape</text>
<text text-anchor="middle" x="112.5" y="-85.5" font-family="Helvetica,sans-Serif" font-size="10.00">_class_adapter.h</text>
</a>
</g>
</g>
<!-- Node2&#45;&gt;Node3 -->
<g id="edge2" class="edge"><title>Node2&#45;&gt;Node3</title>
<path fill="none" stroke="midnightblue" d="M249.554,-152.8C223.278,-142.677 190.274,-129.962 163.237,-119.546"/>
<polygon fill="midnightblue" stroke="midnightblue" points="248.317,-156.074 258.907,-156.403 250.834,-149.542 248.317,-156.074"/>
</g>
<!-- Node6 -->
<g id="node6" class="node"><title>Node6</title>
<g id="a_node6"><a xlink:href="../../d2/d17/text__shape__object__adapter_8h.html" target="_top" xlink:title="src/structural/src\l/adapter/text_shape\l_object_adapter.h">
<polygon fill="white" stroke="black" points="182,-78.5 182,-119.5 285,-119.5 285,-78.5 182,-78.5"/>
<text text-anchor="start" x="190" y="-107.5" font-family="Helvetica,sans-Serif" font-size="10.00">src/structural/src</text>
<text text-anchor="start" x="190" y="-96.5" font-family="Helvetica,sans-Serif" font-size="10.00">/adapter/text_shape</text>
<text text-anchor="middle" x="233.5" y="-85.5" font-family="Helvetica,sans-Serif" font-size="10.00">_object_adapter.h</text>
</a>
</g>
</g>
<!-- Node2&#45;&gt;Node6 -->
<g id="edge5" class="edge"><title>Node2&#45;&gt;Node6</title>
<path fill="none" stroke="midnightblue" d="M276.189,-148.541C268.042,-139.278 258.634,-128.58 250.727,-119.588"/>
<polygon fill="midnightblue" stroke="midnightblue" points="273.721,-151.035 282.953,-156.233 278.978,-146.413 273.721,-151.035"/>
</g>
<!-- Node8 -->
<g id="node8" class="node"><title>Node8</title>
<g id="a_node8"><a xlink:href="../../da/dff/text__view_8cc.html" target="_top" xlink:title="src/structural/src\l/adapter/text_view.cc">
<polygon fill="white" stroke="black" points="303.5,-84 303.5,-114 411.5,-114 411.5,-84 303.5,-84"/>
<text text-anchor="start" x="311.5" y="-102" font-family="Helvetica,sans-Serif" font-size="10.00">src/structural/src</text>
<text text-anchor="middle" x="357.5" y="-91" font-family="Helvetica,sans-Serif" font-size="10.00">/adapter/text_view.cc</text>
</a>
</g>
</g>
<!-- Node2&#45;&gt;Node8 -->
<g id="edge8" class="edge"><title>Node2&#45;&gt;Node8</title>
<path fill="none" stroke="midnightblue" d="M314.813,-148.539C324.648,-137.356 336.321,-124.083 344.972,-114.246"/>
<polygon fill="midnightblue" stroke="midnightblue" points="312.022,-146.413 308.047,-156.233 317.279,-151.035 312.022,-146.413"/>
</g>
<!-- Node9 -->
<g id="node9" class="node"><title>Node9</title>
<g id="a_node9"><a xlink:href="../../df/d31/text__view__test_8cc.html" target="_top" xlink:title="src/structural_tests\l/src/adapter/text_view\l_test.cc">
<polygon fill="white" stroke="black" points="430,-78.5 430,-119.5 541,-119.5 541,-78.5 430,-78.5"/>
<text text-anchor="start" x="438" y="-107.5" font-family="Helvetica,sans-Serif" font-size="10.00">src/structural_tests</text>
<text text-anchor="start" x="438" y="-96.5" font-family="Helvetica,sans-Serif" font-size="10.00">/src/adapter/text_view</text>
<text text-anchor="middle" x="485.5" y="-85.5" font-family="Helvetica,sans-Serif" font-size="10.00">_test.cc</text>
</a>
</g>
</g>
<!-- Node2&#45;&gt;Node9 -->
<g id="edge9" class="edge"><title>Node2&#45;&gt;Node9</title>
<path fill="none" stroke="midnightblue" d="M343.203,-152.8C370.484,-142.677 404.751,-129.962 432.822,-119.546"/>
<polygon fill="midnightblue" stroke="midnightblue" points="341.651,-149.642 333.493,-156.403 344.086,-156.205 341.651,-149.642"/>
</g>
<!-- Node4 -->
<g id="node4" class="node"><title>Node4</title>
<g id="a_node4"><a xlink:href="../../d8/d13/text__shape__class__adapter_8cc.html" target="_top" xlink:title="src/structural/src\l/adapter/text_shape\l_class_adapter.cc">
<polygon fill="white" stroke="black" points="0,-0.5 0,-41.5 103,-41.5 103,-0.5 0,-0.5"/>
<text text-anchor="start" x="8" y="-29.5" font-family="Helvetica,sans-Serif" font-size="10.00">src/structural/src</text>
<text text-anchor="start" x="8" y="-18.5" font-family="Helvetica,sans-Serif" font-size="10.00">/adapter/text_shape</text>
<text text-anchor="middle" x="51.5" y="-7.5" font-family="Helvetica,sans-Serif" font-size="10.00">_class_adapter.cc</text>
</a>
</g>
</g>
<!-- Node3&#45;&gt;Node4 -->
<g id="edge3" class="edge"><title>Node3&#45;&gt;Node4</title>
<path fill="none" stroke="midnightblue" d="M90.5296,-70.627C82.7947,-60.9901 74.264,-50.3617 67.1558,-41.5056"/>
<polygon fill="midnightblue" stroke="midnightblue" points="87.8019,-72.8202 96.791,-78.4281 93.261,-68.4386 87.8019,-72.8202"/>
</g>
<!-- Node5 -->
<g id="node5" class="node"><title>Node5</title>
<g id="a_node5"><a xlink:href="../../d9/d38/adapter__test_8cc.html" target="_top" xlink:title="src/structural_tests\l/src/adapter/adapter\l_test.cc">
<polygon fill="white" stroke="black" points="121.5,-0.5 121.5,-41.5 225.5,-41.5 225.5,-0.5 121.5,-0.5"/>
<text text-anchor="start" x="129.5" y="-29.5" font-family="Helvetica,sans-Serif" font-size="10.00">src/structural_tests</text>
<text text-anchor="start" x="129.5" y="-18.5" font-family="Helvetica,sans-Serif" font-size="10.00">/src/adapter/adapter</text>
<text text-anchor="middle" x="173.5" y="-7.5" font-family="Helvetica,sans-Serif" font-size="10.00">_test.cc</text>
</a>
</g>
</g>
<!-- Node3&#45;&gt;Node5 -->
<g id="edge4" class="edge"><title>Node3&#45;&gt;Node5</title>
<path fill="none" stroke="midnightblue" d="M134.47,-70.627C142.205,-60.9901 150.736,-50.3617 157.844,-41.5056"/>
<polygon fill="midnightblue" stroke="midnightblue" points="131.739,-68.4386 128.209,-78.4281 137.198,-72.8202 131.739,-68.4386"/>
</g>
<!-- Node6&#45;&gt;Node5 -->
<g id="edge7" class="edge"><title>Node6&#45;&gt;Node5</title>
<path fill="none" stroke="midnightblue" d="M211.661,-70.3376C204.114,-60.7777 195.821,-50.2731 188.899,-41.5056"/>
<polygon fill="midnightblue" stroke="midnightblue" points="209.105,-72.748 218.049,-78.4281 214.599,-68.4105 209.105,-72.748"/>
</g>
<!-- Node7 -->
<g id="node7" class="node"><title>Node7</title>
<g id="a_node7"><a xlink:href="../../d7/d61/text__shape__object__adapter_8cc.html" target="_top" xlink:title="src/structural/src\l/adapter/text_shape\l_object_adapter.cc">
<polygon fill="white" stroke="black" points="244,-0.5 244,-41.5 347,-41.5 347,-0.5 244,-0.5"/>
<text text-anchor="start" x="252" y="-29.5" font-family="Helvetica,sans-Serif" font-size="10.00">src/structural/src</text>
<text text-anchor="start" x="252" y="-18.5" font-family="Helvetica,sans-Serif" font-size="10.00">/adapter/text_shape</text>
<text text-anchor="middle" x="295.5" y="-7.5" font-family="Helvetica,sans-Serif" font-size="10.00">_object_adapter.cc</text>
</a>
</g>
</g>
<!-- Node6&#45;&gt;Node7 -->
<g id="edge6" class="edge"><title>Node6&#45;&gt;Node7</title>
<path fill="none" stroke="midnightblue" d="M255.831,-70.627C263.692,-60.9901 272.363,-50.3617 279.588,-41.5056"/>
<polygon fill="midnightblue" stroke="midnightblue" points="253.076,-68.467 249.467,-78.4281 258.5,-72.8919 253.076,-68.467"/>
</g>
</g>
</svg>
        <g id="navigator" transform="translate(0 0)" fill="#404254">
                <rect fill="#f2f5e9" fill-opacity="0.5" stroke="#606060" stroke-width=".5" x="0" y="0" width="60" height="60"/>
                <use id="zoomplus" xlink:href="#zoomPlus" x="17" y="9" onmousedown="handleZoom(evt,'in')"/>
                <use id="zoomminus" xlink:href="#zoomMin" x="42" y="9" onmousedown="handleZoom(evt,'out')"/>
                <use id="reset" xlink:href="#resetDef" x="30" y="36" onmousedown="handleReset()"/>
                <g id="arrowUp" xlink:href="#dirArrow" transform="translate(30 24)" onmousedown="handlePan(0,-1)">
                  <use xlink:href="#rim" fill="#404040">
                        <set attributeName="fill" to="#808080" begin="arrowUp.mouseover" end="arrowUp.mouseout"/>
                  </use>
                  <path fill="none" stroke="white" stroke-width="1.5" d="M0,-3.0v7 M-2.5,-0.5L0,-3.0L2.5,-0.5"/>
                </g>
                <g id="arrowRight" xlink:href="#dirArrow" transform="rotate(90) translate(36 -43)" onmousedown="handlePan(1,0)">
                  <use xlink:href="#rim" fill="#404040">
                        <set attributeName="fill" to="#808080" begin="arrowRight.mouseover" end="arrowRight.mouseout"/>
                  </use>
                  <path fill="none" stroke="white" stroke-width="1.5" d="M0,-3.0v7 M-2.5,-0.5L0,-3.0L2.5,-0.5"/>
                </g>
                <g id="arrowDown" xlink:href="#dirArrow" transform="rotate(180) translate(-30 -48)" onmousedown="handlePan(0,1)">
                  <use xlink:href="#rim" fill="#404040">
                        <set attributeName="fill" to="#808080" begin="arrowDown.mouseover" end="arrowDown.mouseout"/>
                  </use>
                  <path fill="none" stroke="white" stroke-width="1.5" d="M0,-3.0v7 M-2.5,-0.5L0,-3.0L2.5,-0.5"/>
                </g>
                <g id="arrowLeft" xlink:href="#dirArrow" transform="rotate(270) translate(-36 17)" onmousedown="handlePan(-1,0)">
                  <use xlink:href="#rim" fill="#404040">
                        <set attributeName="fill" to="#808080" begin="arrowLeft.mouseover" end="arrowLeft.mouseout"/>
                  </use>
                  <path fill="none" stroke="white" stroke-width="1.5" d="M0,-3.0v7 M-2.5,-0.5L0,-3.0L2.5,-0.5"/>
                </g>
        </g>
        <svg viewBox="0 0 15 15" width="100%" height="30px" preserveAspectRatio="xMaxYMin meet">
         <g id="arrow_out" transform="scale(0.3 0.3)">
          <a xlink:href="visual__component__interface_8h__dep__incl_org.svg" target="_base">
           <rect id="button" ry="5" rx="5" y="6" x="6" height="38" width="38"
                fill="#f2f5e9" fill-opacity="0.5" stroke="#606060" stroke-width="1.0"/>
           <path id="arrow"
             d="M 11.500037,31.436501 C 11.940474,20.09759 22.043105,11.32322 32.158766,21.979434 L 37.068811,17.246167 C 37.068811,17.246167 37.088388,32 37.088388,32 L 22.160133,31.978069 C 22.160133,31.978069 26.997745,27.140456 26.997745,27.140456 C 18.528582,18.264221 13.291696,25.230495 11.500037,31.436501 z"
             style="fill:#404040;"/>
          </a>
         </g>
        </svg>
</svg>
