<?xml version="1.0" encoding="UTF-8" standalone="no"?>
<!DOCTYPE svg PUBLIC "-//W3C//DTD SVG 1.1//EN"
 "http://www.w3.org/Graphics/SVG/1.1/DTD/svg11.dtd">
<!-- Generated by graphviz version 2.38.0 (20140413.2041)
 -->
<!-- Title: operational::visitor::Chassis::GetPrice Pages: 1 -->
<svg width="241pt" height="39pt"
 viewBox="0.00 0.00 241.00 39.00" xmlns="http://www.w3.org/2000/svg" xmlns:xlink="http://www.w3.org/1999/xlink">
<g id="graph0" class="graph" transform="scale(1 1) rotate(0) translate(4 35)">
<title>operational::visitor::Chassis::GetPrice</title>
<polygon fill="white" stroke="none" points="-4,4 -4,-35 237,-35 237,4 -4,4"/>
<!-- Node1 -->
<g id="node1" class="node"><title>Node1</title>
<polygon fill="#bfbfbf" stroke="black" points="0,-0.5 0,-30.5 102,-30.5 102,-0.5 0,-0.5"/>
<text text-anchor="start" x="8" y="-18.5" font-family="Helvetica,sans-Serif" font-size="10.00">operational::visitor</text>
<text text-anchor="middle" x="51" y="-7.5" font-family="Helvetica,sans-Serif" font-size="10.00">::Chassis::GetPrice</text>
</g>
<!-- Node2 -->
<g id="node2" class="node"><title>Node2</title>
<g id="a_node2"><a xlink:href="../../d6/d2e/classoperational_1_1visitor_1_1_chassis.html#a626b25a1412a6e865a9c42531711181a" target="_top" xlink:title="operational::visitor\l::Chassis::price">
<polygon fill="white" stroke="black" points="138,-0.5 138,-30.5 233,-30.5 233,-0.5 138,-0.5"/>
<text text-anchor="start" x="146" y="-18.5" font-family="Helvetica,sans-Serif" font-size="10.00">operational::visitor</text>
<text text-anchor="middle" x="185.5" y="-7.5" font-family="Helvetica,sans-Serif" font-size="10.00">::Chassis::price</text>
</a>
</g>
</g>
<!-- Node1&#45;&gt;Node2 -->
<g id="edge1" class="edge"><title>Node1&#45;&gt;Node2</title>
<path fill="none" stroke="midnightblue" d="M102.093,-15.5C110.429,-15.5 119.128,-15.5 127.618,-15.5"/>
<polygon fill="midnightblue" stroke="midnightblue" points="127.832,-19.0001 137.832,-15.5 127.832,-12.0001 127.832,-19.0001"/>
</g>
</g>
</svg>
