<?xml version="1.0" encoding="UTF-8" standalone="no"?>
<!DOCTYPE svg PUBLIC "-//W3C//DTD SVG 1.1//EN"
 "http://www.w3.org/Graphics/SVG/1.1/DTD/svg11.dtd">
<!-- Generated by graphviz version 2.38.0 (20140413.2041)
 -->
<!-- Title: operational::visitor::Chassis::price Pages: 1 -->
<svg width="241pt" height="88pt"
 viewBox="0.00 0.00 241.00 88.00" xmlns="http://www.w3.org/2000/svg" xmlns:xlink="http://www.w3.org/1999/xlink">
<g id="graph0" class="graph" transform="scale(1 1) rotate(0) translate(4 84)">
<title>operational::visitor::Chassis::price</title>
<polygon fill="white" stroke="none" points="-4,4 -4,-84 237,-84 237,4 -4,4"/>
<!-- Node1 -->
<g id="node1" class="node"><title>Node1</title>
<polygon fill="#bfbfbf" stroke="black" points="0,-24.5 0,-54.5 95,-54.5 95,-24.5 0,-24.5"/>
<text text-anchor="start" x="8" y="-42.5" font-family="Helvetica,sans-Serif" font-size="10.00">operational::visitor</text>
<text text-anchor="middle" x="47.5" y="-31.5" font-family="Helvetica,sans-Serif" font-size="10.00">::Chassis::price</text>
</g>
<!-- Node2 -->
<g id="node2" class="node"><title>Node2</title>
<g id="a_node2"><a xlink:href="../../d6/d2e/classoperational_1_1visitor_1_1_chassis.html#ad49a50f70b364d3e1ca712cd08904d7a" target="_top" xlink:title="operational::visitor\l::Chassis::price">
<polygon fill="white" stroke="black" points="134.5,-49.5 134.5,-79.5 229.5,-79.5 229.5,-49.5 134.5,-49.5"/>
<text text-anchor="start" x="142.5" y="-67.5" font-family="Helvetica,sans-Serif" font-size="10.00">operational::visitor</text>
<text text-anchor="middle" x="182" y="-56.5" font-family="Helvetica,sans-Serif" font-size="10.00">::Chassis::price</text>
</a>
</g>
</g>
<!-- Node1&#45;&gt;Node2 -->
<g id="edge1" class="edge"><title>Node1&#45;&gt;Node2</title>
<path fill="none" stroke="midnightblue" d="M105.184,-50.1951C114.882,-52.0249 124.859,-53.9074 134.261,-55.6813"/>
<polygon fill="midnightblue" stroke="midnightblue" points="105.69,-46.7289 95.2145,-48.3141 104.392,-53.6075 105.69,-46.7289"/>
</g>
<!-- Node3 -->
<g id="node3" class="node"><title>Node3</title>
<g id="a_node3"><a xlink:href="../../d6/d2e/classoperational_1_1visitor_1_1_chassis.html#a7da28315741cbb7849e4d5f4945a9615" target="_top" xlink:title="operational::visitor\l::Chassis::GetPrice">
<polygon fill="white" stroke="black" points="131,-0.5 131,-30.5 233,-30.5 233,-0.5 131,-0.5"/>
<text text-anchor="start" x="139" y="-18.5" font-family="Helvetica,sans-Serif" font-size="10.00">operational::visitor</text>
<text text-anchor="middle" x="182" y="-7.5" font-family="Helvetica,sans-Serif" font-size="10.00">::Chassis::GetPrice</text>
</a>
</g>
</g>
<!-- Node1&#45;&gt;Node3 -->
<g id="edge2" class="edge"><title>Node1&#45;&gt;Node3</title>
<path fill="none" stroke="midnightblue" d="M105.065,-29.2543C113.571,-27.7136 122.294,-26.1335 130.658,-24.6186"/>
<polygon fill="midnightblue" stroke="midnightblue" points="104.431,-25.8121 95.2145,-31.0385 105.678,-32.7001 104.431,-25.8121"/>
</g>
</g>
</svg>
