<?xml version="1.0" encoding="UTF-8" standalone="no"?>
<!DOCTYPE svg PUBLIC "-//W3C//DTD SVG 1.1//EN"
 "http://www.w3.org/Graphics/SVG/1.1/DTD/svg11.dtd">
<!-- Generated by graphviz version 2.38.0 (20140413.2041)
 -->
<!-- Title: operational::visitor::Chassis::Accept Pages: 1 -->
<svg width="273pt" height="100pt"
 viewBox="0.00 0.00 273.00 99.50" xmlns="http://www.w3.org/2000/svg" xmlns:xlink="http://www.w3.org/1999/xlink">
<g id="graph0" class="graph" transform="scale(1 1) rotate(0) translate(4 95.5)">
<title>operational::visitor::Chassis::Accept</title>
<polygon fill="white" stroke="none" points="-4,4 -4,-95.5 269,-95.5 269,4 -4,4"/>
<!-- Node1 -->
<g id="node1" class="node"><title>Node1</title>
<polygon fill="#bfbfbf" stroke="black" points="0,-33 0,-63 95,-63 95,-33 0,-33"/>
<text text-anchor="start" x="8" y="-51" font-family="Helvetica,sans-Serif" font-size="10.00">operational::visitor</text>
<text text-anchor="middle" x="47.5" y="-40" font-family="Helvetica,sans-Serif" font-size="10.00">::Chassis::Accept</text>
</g>
<!-- Node2 -->
<g id="node2" class="node"><title>Node2</title>
<g id="a_node2"><a xlink:href="../../da/d8a/classoperational_1_1iterator_1_1_list_iterator.html#a7aabc4cc183b3c49e6e135514f271c0e" target="_top" xlink:title="operational::iterator\l::ListIterator::IsDone">
<polygon fill="white" stroke="black" points="146,-61 146,-91 250,-91 250,-61 146,-61"/>
<text text-anchor="start" x="154" y="-79" font-family="Helvetica,sans-Serif" font-size="10.00">operational::iterator</text>
<text text-anchor="middle" x="198" y="-68" font-family="Helvetica,sans-Serif" font-size="10.00">::ListIterator::IsDone</text>
</a>
</g>
</g>
<!-- Node1&#45;&gt;Node2 -->
<g id="edge1" class="edge"><title>Node1&#45;&gt;Node2</title>
<path fill="none" stroke="midnightblue" d="M95.0789,-56.7826C108.084,-59.2346 122.41,-61.9359 136.109,-64.5188"/>
<polygon fill="midnightblue" stroke="midnightblue" points="135.47,-67.9599 145.945,-66.3735 136.767,-61.0811 135.47,-67.9599"/>
</g>
<!-- Node3 -->
<g id="node3" class="node"><title>Node3</title>
<g id="a_node3"><a xlink:href="../../df/dc7/classoperational_1_1visitor_1_1_equipment_visitor_interface.html#a49a8d717fa9b537c652f39bee6244205" target="_top" xlink:title="operational::visitor\l::EquipmentVisitorInterface\l::VisitChassis">
<polygon fill="white" stroke="black" points="131,-0.5 131,-41.5 265,-41.5 265,-0.5 131,-0.5"/>
<text text-anchor="start" x="139" y="-29.5" font-family="Helvetica,sans-Serif" font-size="10.00">operational::visitor</text>
<text text-anchor="start" x="139" y="-18.5" font-family="Helvetica,sans-Serif" font-size="10.00">::EquipmentVisitorInterface</text>
<text text-anchor="middle" x="198" y="-7.5" font-family="Helvetica,sans-Serif" font-size="10.00">::VisitChassis</text>
</a>
</g>
</g>
<!-- Node1&#45;&gt;Node3 -->
<g id="edge2" class="edge"><title>Node1&#45;&gt;Node3</title>
<path fill="none" stroke="midnightblue" d="M95.0789,-39.5311C103.298,-38.0367 112.046,-36.4462 120.829,-34.8493"/>
<polygon fill="midnightblue" stroke="midnightblue" points="121.522,-38.2807 130.735,-33.0482 120.27,-31.3936 121.522,-38.2807"/>
</g>
</g>
</svg>
