<?xml version="1.0" encoding="UTF-8" standalone="no"?>
<!DOCTYPE svg PUBLIC "-//W3C//DTD SVG 1.1//EN"
 "http://www.w3.org/Graphics/SVG/1.1/DTD/svg11.dtd">
<!-- Generated by graphviz version 2.38.0 (20140413.2041)
 -->
<!-- Title: operational::chain::Widget Pages: 1 -->
<svg width="216pt" height="485pt"
 viewBox="0.00 0.00 216.00 485.00" xmlns="http://www.w3.org/2000/svg" xmlns:xlink="http://www.w3.org/1999/xlink">
<g id="graph0" class="graph" transform="scale(1 1) rotate(0) translate(4 481)">
<title>operational::chain::Widget</title>
<polygon fill="white" stroke="none" points="-4,4 -4,-481 212,-481 212,4 -4,4"/>
<!-- Node1 -->
<g id="node1" class="node"><title>Node1</title>
<polygon fill="#bfbfbf" stroke="black" points="56,-171.5 56,-338.5 151,-338.5 151,-171.5 56,-171.5"/>
<text text-anchor="start" x="64" y="-326.5" font-family="Helvetica,sans-Serif" font-size="10.00">operational::chain</text>
<text text-anchor="middle" x="103.5" y="-315.5" font-family="Helvetica,sans-Serif" font-size="10.00">::Widget</text>
<polyline fill="none" stroke="black" points="56,-308.5 151,-308.5 "/>
<text text-anchor="middle" x="103.5" y="-296.5" font-family="Helvetica,sans-Serif" font-size="10.00"> </text>
<polyline fill="none" stroke="black" points="56,-289.5 151,-289.5 "/>
<text text-anchor="start" x="64" y="-277.5" font-family="Helvetica,sans-Serif" font-size="10.00">+ HasHelp()</text>
<text text-anchor="start" x="64" y="-266.5" font-family="Helvetica,sans-Serif" font-size="10.00">+ SetHandler()</text>
<text text-anchor="start" x="64" y="-255.5" font-family="Helvetica,sans-Serif" font-size="10.00">+ HandleHelp()</text>
<text text-anchor="start" x="64" y="-244.5" font-family="Helvetica,sans-Serif" font-size="10.00">+ topic()</text>
<text text-anchor="start" x="64" y="-233.5" font-family="Helvetica,sans-Serif" font-size="10.00">+ name()</text>
<text text-anchor="start" x="64" y="-222.5" font-family="Helvetica,sans-Serif" font-size="10.00">+ help_message()</text>
<text text-anchor="start" x="64" y="-211.5" font-family="Helvetica,sans-Serif" font-size="10.00"># Widget()</text>
<text text-anchor="start" x="64" y="-200.5" font-family="Helvetica,sans-Serif" font-size="10.00"># Widget()</text>
<text text-anchor="start" x="64" y="-189.5" font-family="Helvetica,sans-Serif" font-size="10.00"># Widget()</text>
<text text-anchor="start" x="64" y="-178.5" font-family="Helvetica,sans-Serif" font-size="10.00"># Widget()</text>
</g>
<!-- Node3 -->
<g id="node3" class="node"><title>Node3</title>
<g id="a_node3"><a xlink:href="../../d1/d32/classoperational_1_1chain_1_1_button.html" target="_top" xlink:title="{operational::chain\l::Button\n||+ Button()\l+ Button()\l+ Button()\l+ Button()\l+ HasHelp()\l+ HandleHelp()\l+ help_message()\l}">
<polygon fill="white" stroke="black" points="0,-0.5 0,-134.5 95,-134.5 95,-0.5 0,-0.5"/>
<text text-anchor="start" x="8" y="-122.5" font-family="Helvetica,sans-Serif" font-size="10.00">operational::chain</text>
<text text-anchor="middle" x="47.5" y="-111.5" font-family="Helvetica,sans-Serif" font-size="10.00">::Button</text>
<polyline fill="none" stroke="black" points="0,-104.5 95,-104.5 "/>
<text text-anchor="middle" x="47.5" y="-92.5" font-family="Helvetica,sans-Serif" font-size="10.00"> </text>
<polyline fill="none" stroke="black" points="0,-85.5 95,-85.5 "/>
<text text-anchor="start" x="8" y="-73.5" font-family="Helvetica,sans-Serif" font-size="10.00">+ Button()</text>
<text text-anchor="start" x="8" y="-62.5" font-family="Helvetica,sans-Serif" font-size="10.00">+ Button()</text>
<text text-anchor="start" x="8" y="-51.5" font-family="Helvetica,sans-Serif" font-size="10.00">+ Button()</text>
<text text-anchor="start" x="8" y="-40.5" font-family="Helvetica,sans-Serif" font-size="10.00">+ Button()</text>
<text text-anchor="start" x="8" y="-29.5" font-family="Helvetica,sans-Serif" font-size="10.00">+ HasHelp()</text>
<text text-anchor="start" x="8" y="-18.5" font-family="Helvetica,sans-Serif" font-size="10.00">+ HandleHelp()</text>
<text text-anchor="start" x="8" y="-7.5" font-family="Helvetica,sans-Serif" font-size="10.00">+ help_message()</text>
</a>
</g>
</g>
<!-- Node1&#45;&gt;Node3 -->
<g id="edge2" class="edge"><title>Node1&#45;&gt;Node3</title>
<path fill="none" stroke="midnightblue" d="M75.5679,-161.475C72.8334,-152.417 70.098,-143.356 67.4661,-134.638"/>
<polygon fill="none" stroke="midnightblue" points="72.2891,-162.725 78.5299,-171.286 78.9904,-160.702 72.2891,-162.725"/>
</g>
<!-- Node4 -->
<g id="node4" class="node"><title>Node4</title>
<g id="a_node4"><a xlink:href="../../dd/df0/classoperational_1_1chain_1_1_dialog.html" target="_top" xlink:title="{operational::chain\l::Dialog\n||+ Dialog()\l+ Dialog()\l+ Dialog()\l+ Dialog()\l+ HasHelp()\l+ HandleHelp()\l+ help_message()\l}">
<polygon fill="white" stroke="black" points="113,-0.5 113,-134.5 208,-134.5 208,-0.5 113,-0.5"/>
<text text-anchor="start" x="121" y="-122.5" font-family="Helvetica,sans-Serif" font-size="10.00">operational::chain</text>
<text text-anchor="middle" x="160.5" y="-111.5" font-family="Helvetica,sans-Serif" font-size="10.00">::Dialog</text>
<polyline fill="none" stroke="black" points="113,-104.5 208,-104.5 "/>
<text text-anchor="middle" x="160.5" y="-92.5" font-family="Helvetica,sans-Serif" font-size="10.00"> </text>
<polyline fill="none" stroke="black" points="113,-85.5 208,-85.5 "/>
<text text-anchor="start" x="121" y="-73.5" font-family="Helvetica,sans-Serif" font-size="10.00">+ Dialog()</text>
<text text-anchor="start" x="121" y="-62.5" font-family="Helvetica,sans-Serif" font-size="10.00">+ Dialog()</text>
<text text-anchor="start" x="121" y="-51.5" font-family="Helvetica,sans-Serif" font-size="10.00">+ Dialog()</text>
<text text-anchor="start" x="121" y="-40.5" font-family="Helvetica,sans-Serif" font-size="10.00">+ Dialog()</text>
<text text-anchor="start" x="121" y="-29.5" font-family="Helvetica,sans-Serif" font-size="10.00">+ HasHelp()</text>
<text text-anchor="start" x="121" y="-18.5" font-family="Helvetica,sans-Serif" font-size="10.00">+ HandleHelp()</text>
<text text-anchor="start" x="121" y="-7.5" font-family="Helvetica,sans-Serif" font-size="10.00">+ help_message()</text>
</a>
</g>
</g>
<!-- Node1&#45;&gt;Node4 -->
<g id="edge3" class="edge"><title>Node1&#45;&gt;Node4</title>
<path fill="none" stroke="midnightblue" d="M131.931,-161.475C134.714,-152.417 137.498,-143.356 140.177,-134.638"/>
<polygon fill="none" stroke="midnightblue" points="128.508,-160.699 128.916,-171.286 135.199,-162.756 128.508,-160.699"/>
</g>
<!-- Node2 -->
<g id="node2" class="node"><title>Node2</title>
<g id="a_node2"><a xlink:href="../../df/dcd/classoperational_1_1chain_1_1_help_handler_interface.html" target="_top" xlink:title="{operational::chain\l::HelpHandlerInterface\n||+ ~HelpHandlerInterface()\l+ HasHelp()\l+ SetHandler()\l+ HandleHelp()\l}">
<polygon fill="white" stroke="black" points="40,-375.5 40,-476.5 167,-476.5 167,-375.5 40,-375.5"/>
<text text-anchor="start" x="48" y="-464.5" font-family="Helvetica,sans-Serif" font-size="10.00">operational::chain</text>
<text text-anchor="middle" x="103.5" y="-453.5" font-family="Helvetica,sans-Serif" font-size="10.00">::HelpHandlerInterface</text>
<polyline fill="none" stroke="black" points="40,-446.5 167,-446.5 "/>
<text text-anchor="middle" x="103.5" y="-434.5" font-family="Helvetica,sans-Serif" font-size="10.00"> </text>
<polyline fill="none" stroke="black" points="40,-427.5 167,-427.5 "/>
<text text-anchor="start" x="48" y="-415.5" font-family="Helvetica,sans-Serif" font-size="10.00">+ ~HelpHandlerInterface()</text>
<text text-anchor="start" x="48" y="-404.5" font-family="Helvetica,sans-Serif" font-size="10.00">+ HasHelp()</text>
<text text-anchor="start" x="48" y="-393.5" font-family="Helvetica,sans-Serif" font-size="10.00">+ SetHandler()</text>
<text text-anchor="start" x="48" y="-382.5" font-family="Helvetica,sans-Serif" font-size="10.00">+ HandleHelp()</text>
</a>
</g>
</g>
<!-- Node2&#45;&gt;Node1 -->
<g id="edge1" class="edge"><title>Node2&#45;&gt;Node1</title>
<path fill="none" stroke="midnightblue" d="M103.5,-365.012C103.5,-356.483 103.5,-347.589 103.5,-338.721"/>
<polygon fill="none" stroke="midnightblue" points="100,-365.208 103.5,-375.208 107,-365.209 100,-365.208"/>
</g>
</g>
</svg>
