<?xml version="1.0" encoding="UTF-8" standalone="no"?>
<!DOCTYPE svg PUBLIC "-//W3C//DTD SVG 1.1//EN"
 "http://www.w3.org/Graphics/SVG/1.1/DTD/svg11.dtd">
<!-- Generated by graphviz version 2.38.0 (20140413.2041)
 -->
<!-- Title: operational::madiator::FontDialogDirector::WidgetChanged Pages: 1 -->
<svg width="412pt" height="137pt"
 viewBox="0.00 0.00 412.00 137.00" xmlns="http://www.w3.org/2000/svg" xmlns:xlink="http://www.w3.org/1999/xlink">
<g id="graph0" class="graph" transform="scale(1 1) rotate(0) translate(4 133)">
<title>operational::madiator::FontDialogDirector::WidgetChanged</title>
<polygon fill="white" stroke="none" points="-4,4 -4,-133 408,-133 408,4 -4,4"/>
<!-- Node1 -->
<g id="node1" class="node"><title>Node1</title>
<polygon fill="#bfbfbf" stroke="black" points="0,-44 0,-85 107,-85 107,-44 0,-44"/>
<text text-anchor="start" x="8" y="-73" font-family="Helvetica,sans-Serif" font-size="10.00">operational::madiator</text>
<text text-anchor="start" x="8" y="-62" font-family="Helvetica,sans-Serif" font-size="10.00">::FontDialogDirector</text>
<text text-anchor="middle" x="53.5" y="-51" font-family="Helvetica,sans-Serif" font-size="10.00">::WidgetChanged</text>
</g>
<!-- Node2 -->
<g id="node2" class="node"><title>Node2</title>
<g id="a_node2"><a xlink:href="../../d7/d87/classoperational_1_1madiator_1_1_entry_field.html#a046e8d316b601fc34992200946e2720d" target="_top" xlink:title="operational::madiator\l::EntryField::text">
<polygon fill="white" stroke="black" points="148.5,-98.5 148.5,-128.5 255.5,-128.5 255.5,-98.5 148.5,-98.5"/>
<text text-anchor="start" x="156.5" y="-116.5" font-family="Helvetica,sans-Serif" font-size="10.00">operational::madiator</text>
<text text-anchor="middle" x="202" y="-105.5" font-family="Helvetica,sans-Serif" font-size="10.00">::EntryField::text</text>
</a>
</g>
</g>
<!-- Node1&#45;&gt;Node2 -->
<g id="edge1" class="edge"><title>Node1&#45;&gt;Node2</title>
<path fill="none" stroke="midnightblue" d="M107.39,-82.1901C120.06,-86.428 133.614,-90.9612 146.361,-95.225"/>
<polygon fill="midnightblue" stroke="midnightblue" points="145.331,-98.5708 155.925,-98.4236 147.551,-91.9323 145.331,-98.5708"/>
</g>
<!-- Node4 -->
<g id="node4" class="node"><title>Node4</title>
<g id="a_node4"><a xlink:href="../../df/d1e/classoperational_1_1madiator_1_1_list_box.html#a19baf77b9d3f39934ac408eeccf9c099" target="_top" xlink:title="operational::madiator\l::ListBox::GetSelection">
<polygon fill="white" stroke="black" points="143,-49.5 143,-79.5 261,-79.5 261,-49.5 143,-49.5"/>
<text text-anchor="start" x="151" y="-67.5" font-family="Helvetica,sans-Serif" font-size="10.00">operational::madiator</text>
<text text-anchor="middle" x="202" y="-56.5" font-family="Helvetica,sans-Serif" font-size="10.00">::ListBox::GetSelection</text>
</a>
</g>
</g>
<!-- Node1&#45;&gt;Node4 -->
<g id="edge3" class="edge"><title>Node1&#45;&gt;Node4</title>
<path fill="none" stroke="midnightblue" d="M107.39,-64.5C115.547,-64.5 124.071,-64.5 132.51,-64.5"/>
<polygon fill="midnightblue" stroke="midnightblue" points="132.731,-68.0001 142.731,-64.5 132.731,-61.0001 132.731,-68.0001"/>
</g>
<!-- Node6 -->
<g id="node6" class="node"><title>Node6</title>
<g id="a_node6"><a xlink:href="../../d3/d5c/classoperational_1_1madiator_1_1_mediator_button.html#aa792d56b43df86f358ca91b0ca26a41a" target="_top" xlink:title="operational::madiator\l::MediatorButton::text">
<polygon fill="white" stroke="black" points="146.5,-0.5 146.5,-30.5 257.5,-30.5 257.5,-0.5 146.5,-0.5"/>
<text text-anchor="start" x="154.5" y="-18.5" font-family="Helvetica,sans-Serif" font-size="10.00">operational::madiator</text>
<text text-anchor="middle" x="202" y="-7.5" font-family="Helvetica,sans-Serif" font-size="10.00">::MediatorButton::text</text>
</a>
</g>
</g>
<!-- Node1&#45;&gt;Node6 -->
<g id="edge5" class="edge"><title>Node1&#45;&gt;Node6</title>
<path fill="none" stroke="midnightblue" d="M107.39,-46.8099C120.06,-42.572 133.614,-38.0388 146.361,-33.775"/>
<polygon fill="midnightblue" stroke="midnightblue" points="147.551,-37.0677 155.925,-30.5764 145.331,-30.4292 147.551,-37.0677"/>
</g>
<!-- Node3 -->
<g id="node3" class="node"><title>Node3</title>
<g id="a_node3"><a xlink:href="../../d7/d87/classoperational_1_1madiator_1_1_entry_field.html#aa6a4b446116971a21e7d75da3810dda4" target="_top" xlink:title="operational::madiator\l::EntryField::text">
<polygon fill="white" stroke="black" points="297,-98.5 297,-128.5 404,-128.5 404,-98.5 297,-98.5"/>
<text text-anchor="start" x="305" y="-116.5" font-family="Helvetica,sans-Serif" font-size="10.00">operational::madiator</text>
<text text-anchor="middle" x="350.5" y="-105.5" font-family="Helvetica,sans-Serif" font-size="10.00">::EntryField::text</text>
</a>
</g>
</g>
<!-- Node2&#45;&gt;Node3 -->
<g id="edge2" class="edge"><title>Node2&#45;&gt;Node3</title>
<path fill="none" stroke="midnightblue" d="M255.89,-113.5C265.848,-113.5 276.351,-113.5 286.58,-113.5"/>
<polygon fill="midnightblue" stroke="midnightblue" points="286.688,-117 296.688,-113.5 286.688,-110 286.688,-117"/>
</g>
<!-- Node5 -->
<g id="node5" class="node"><title>Node5</title>
<g id="a_node5"><a xlink:href="../../d5/df6/classoperational_1_1iterator_1_1_list.html#a9860787d9d9a71491b5bf8098278affa" target="_top" xlink:title="operational::iterator\l::List::First">
<polygon fill="white" stroke="black" points="300.5,-49.5 300.5,-79.5 400.5,-79.5 400.5,-49.5 300.5,-49.5"/>
<text text-anchor="start" x="308.5" y="-67.5" font-family="Helvetica,sans-Serif" font-size="10.00">operational::iterator</text>
<text text-anchor="middle" x="350.5" y="-56.5" font-family="Helvetica,sans-Serif" font-size="10.00">::List::First</text>
</a>
</g>
</g>
<!-- Node4&#45;&gt;Node5 -->
<g id="edge4" class="edge"><title>Node4&#45;&gt;Node5</title>
<path fill="none" stroke="midnightblue" d="M261.322,-64.5C270.815,-64.5 280.657,-64.5 290.173,-64.5"/>
<polygon fill="midnightblue" stroke="midnightblue" points="290.34,-68.0001 300.34,-64.5 290.34,-61.0001 290.34,-68.0001"/>
</g>
</g>
</svg>
