<?xml version="1.0" encoding="UTF-8" standalone="no"?>
<!DOCTYPE svg PUBLIC "-//W3C//DTD SVG 1.1//EN"
 "http://www.w3.org/Graphics/SVG/1.1/DTD/svg11.dtd">
<!-- Generated by graphviz version 2.38.0 (20140413.2041)
 -->
<!-- Title: src/structural/src/adapter/text_shape_object_adapter.h Pages: 1 -->
<svg width="335pt" height="218pt"
 viewBox="0.00 0.00 334.50 218.00" xmlns="http://www.w3.org/2000/svg" xmlns:xlink="http://www.w3.org/1999/xlink">
<g id="graph0" class="graph" transform="scale(1 1) rotate(0) translate(4 214)">
<title>src/structural/src/adapter/text_shape_object_adapter.h</title>
<polygon fill="white" stroke="none" points="-4,4 -4,-214 330.5,-214 330.5,4 -4,4"/>
<!-- Node1 -->
<g id="node1" class="node"><title>Node1</title>
<polygon fill="#bfbfbf" stroke="black" points="47,-168.5 47,-209.5 150,-209.5 150,-168.5 47,-168.5"/>
<text text-anchor="start" x="55" y="-197.5" font-family="Helvetica,sans-Serif" font-size="10.00">src/structural/src</text>
<text text-anchor="start" x="55" y="-186.5" font-family="Helvetica,sans-Serif" font-size="10.00">/adapter/text_shape</text>
<text text-anchor="middle" x="98.5" y="-175.5" font-family="Helvetica,sans-Serif" font-size="10.00">_object_adapter.h</text>
</g>
<!-- Node2 -->
<g id="node2" class="node"><title>Node2</title>
<g id="a_node2"><a xlink:href="../../d0/dfc/shape__interface_8h.html" target="_top" xlink:title="shape_interface.h">
<polygon fill="white" stroke="black" points="4,-112.5 4,-131.5 97,-131.5 97,-112.5 4,-112.5"/>
<text text-anchor="middle" x="50.5" y="-119.5" font-family="Helvetica,sans-Serif" font-size="10.00">shape_interface.h</text>
</a>
</g>
</g>
<!-- Node1&#45;&gt;Node2 -->
<g id="edge1" class="edge"><title>Node1&#45;&gt;Node2</title>
<path fill="none" stroke="midnightblue" d="M84.0984,-168.498C77.376,-159.395 69.4506,-148.662 62.986,-139.908"/>
<polygon fill="midnightblue" stroke="midnightblue" points="65.6455,-137.618 56.8895,-131.652 60.0145,-141.776 65.6455,-137.618"/>
</g>
<!-- Node5 -->
<g id="node5" class="node"><title>Node5</title>
<g id="a_node5"><a xlink:href="../../d3/dee/text__view_8h.html" target="_top" xlink:title="text_view.h">
<polygon fill="white" stroke="black" points="115,-112.5 115,-131.5 180,-131.5 180,-112.5 115,-112.5"/>
<text text-anchor="middle" x="147.5" y="-119.5" font-family="Helvetica,sans-Serif" font-size="10.00">text_view.h</text>
</a>
</g>
</g>
<!-- Node1&#45;&gt;Node5 -->
<g id="edge4" class="edge"><title>Node1&#45;&gt;Node5</title>
<path fill="none" stroke="midnightblue" d="M113.202,-168.498C120.064,-159.395 128.155,-148.662 134.754,-139.908"/>
<polygon fill="midnightblue" stroke="midnightblue" points="137.753,-141.745 140.977,-131.652 132.163,-137.531 137.753,-141.745"/>
</g>
<!-- Node3 -->
<g id="node3" class="node"><title>Node3</title>
<g id="a_node3"><a xlink:href="../../d2/d91/point_8h.html" target="_top" xlink:title="../commons/point.h">
<polygon fill="white" stroke="black" points="0,-56.5 0,-75.5 101,-75.5 101,-56.5 0,-56.5"/>
<text text-anchor="middle" x="50.5" y="-63.5" font-family="Helvetica,sans-Serif" font-size="10.00">../commons/point.h</text>
</a>
</g>
</g>
<!-- Node2&#45;&gt;Node3 -->
<g id="edge2" class="edge"><title>Node2&#45;&gt;Node3</title>
<path fill="none" stroke="midnightblue" d="M50.5,-112.083C50.5,-105.006 50.5,-94.8611 50.5,-85.9865"/>
<polygon fill="midnightblue" stroke="midnightblue" points="54.0001,-85.751 50.5,-75.7511 47.0001,-85.7511 54.0001,-85.751"/>
</g>
<!-- Node4 -->
<g id="node4" class="node"><title>Node4</title>
<polygon fill="white" stroke="#bfbfbf" points="23.5,-0.5 23.5,-19.5 77.5,-19.5 77.5,-0.5 23.5,-0.5"/>
<text text-anchor="middle" x="50.5" y="-7.5" font-family="Helvetica,sans-Serif" font-size="10.00">iostream</text>
</g>
<!-- Node3&#45;&gt;Node4 -->
<g id="edge3" class="edge"><title>Node3&#45;&gt;Node4</title>
<path fill="none" stroke="midnightblue" d="M50.5,-56.083C50.5,-49.0059 50.5,-38.8611 50.5,-29.9865"/>
<polygon fill="midnightblue" stroke="midnightblue" points="54.0001,-29.751 50.5,-19.7511 47.0001,-29.7511 54.0001,-29.751"/>
</g>
<!-- Node6 -->
<g id="node6" class="node"><title>Node6</title>
<polygon fill="white" stroke="#bfbfbf" points="123,-56.5 123,-75.5 164,-75.5 164,-56.5 123,-56.5"/>
<text text-anchor="middle" x="143.5" y="-63.5" font-family="Helvetica,sans-Serif" font-size="10.00">string</text>
</g>
<!-- Node5&#45;&gt;Node6 -->
<g id="edge5" class="edge"><title>Node5&#45;&gt;Node6</title>
<path fill="none" stroke="midnightblue" d="M146.839,-112.083C146.315,-105.006 145.564,-94.8611 144.906,-85.9865"/>
<polygon fill="midnightblue" stroke="midnightblue" points="148.377,-85.4652 144.148,-75.7511 141.397,-85.9823 148.377,-85.4652"/>
</g>
<!-- Node7 -->
<g id="node7" class="node"><title>Node7</title>
<g id="a_node7"><a xlink:href="../../d0/d2e/visual__component__interface_8h.html" target="_top" xlink:title="visual_component_interface.h">
<polygon fill="white" stroke="black" points="182.5,-56.5 182.5,-75.5 326.5,-75.5 326.5,-56.5 182.5,-56.5"/>
<text text-anchor="middle" x="254.5" y="-63.5" font-family="Helvetica,sans-Serif" font-size="10.00">visual_component_interface.h</text>
</a>
</g>
</g>
<!-- Node5&#45;&gt;Node7 -->
<g id="edge6" class="edge"><title>Node5&#45;&gt;Node7</title>
<path fill="none" stroke="midnightblue" d="M164.691,-112.324C181.851,-103.664 208.446,-90.2424 228.247,-80.249"/>
<polygon fill="midnightblue" stroke="midnightblue" points="230.001,-83.2847 237.351,-75.6545 226.847,-77.0354 230.001,-83.2847"/>
</g>
</g>
</svg>
