<?xml version="1.0" encoding="UTF-8" standalone="no"?>
<!DOCTYPE svg PUBLIC "-//W3C//DTD SVG 1.1//EN"
 "http://www.w3.org/Graphics/SVG/1.1/DTD/svg11.dtd">
<!-- Generated by graphviz version 2.38.0 (20140413.2041)
 -->
<!-- Title: structural::adapter::TextShapeClassAdapter::BoundingBox Pages: 1 -->
<svg width="285pt" height="88pt"
 viewBox="0.00 0.00 285.00 88.00" xmlns="http://www.w3.org/2000/svg" xmlns:xlink="http://www.w3.org/1999/xlink">
<g id="graph0" class="graph" transform="scale(1 1) rotate(0) translate(4 84)">
<title>structural::adapter::TextShapeClassAdapter::BoundingBox</title>
<polygon fill="white" stroke="none" points="-4,4 -4,-84 281,-84 281,4 -4,4"/>
<!-- Node1 -->
<g id="node1" class="node"><title>Node1</title>
<polygon fill="#bfbfbf" stroke="black" points="0,-19 0,-60 128,-60 128,-19 0,-19"/>
<text text-anchor="start" x="8" y="-48" font-family="Helvetica,sans-Serif" font-size="10.00">structural::adapter</text>
<text text-anchor="start" x="8" y="-37" font-family="Helvetica,sans-Serif" font-size="10.00">::TextShapeClassAdapter</text>
<text text-anchor="middle" x="64" y="-26" font-family="Helvetica,sans-Serif" font-size="10.00">::BoundingBox</text>
</g>
<!-- Node2 -->
<g id="node2" class="node"><title>Node2</title>
<g id="a_node2"><a xlink:href="../../d7/dce/classstructural_1_1adapter_1_1_text_view.html#ab7af62e93e902a463fe2242e5ab5547f" target="_top" xlink:title="structural::adapter\l::TextView::GetOrigin">
<polygon fill="white" stroke="black" points="165.5,-49.5 165.5,-79.5 275.5,-79.5 275.5,-49.5 165.5,-49.5"/>
<text text-anchor="start" x="173.5" y="-67.5" font-family="Helvetica,sans-Serif" font-size="10.00">structural::adapter</text>
<text text-anchor="middle" x="220.5" y="-56.5" font-family="Helvetica,sans-Serif" font-size="10.00">::TextView::GetOrigin</text>
</a>
</g>
</g>
<!-- Node1&#45;&gt;Node2 -->
<g id="edge1" class="edge"><title>Node1&#45;&gt;Node2</title>
<path fill="none" stroke="midnightblue" d="M128.287,-49.7406C137.248,-51.1906 146.468,-52.6826 155.444,-54.1349"/>
<polygon fill="midnightblue" stroke="midnightblue" points="155.016,-57.6111 165.446,-55.7535 156.134,-50.701 155.016,-57.6111"/>
</g>
<!-- Node3 -->
<g id="node3" class="node"><title>Node3</title>
<g id="a_node3"><a xlink:href="../../d7/dce/classstructural_1_1adapter_1_1_text_view.html#ae30ba8da7566ce590a3a3cf587bbced4" target="_top" xlink:title="structural::adapter\l::TextView::GetExtent">
<polygon fill="white" stroke="black" points="164,-0.5 164,-30.5 277,-30.5 277,-0.5 164,-0.5"/>
<text text-anchor="start" x="172" y="-18.5" font-family="Helvetica,sans-Serif" font-size="10.00">structural::adapter</text>
<text text-anchor="middle" x="220.5" y="-7.5" font-family="Helvetica,sans-Serif" font-size="10.00">::TextView::GetExtent</text>
</a>
</g>
</g>
<!-- Node1&#45;&gt;Node3 -->
<g id="edge2" class="edge"><title>Node1&#45;&gt;Node3</title>
<path fill="none" stroke="midnightblue" d="M128.287,-29.669C136.792,-28.3478 145.531,-26.9903 154.073,-25.6635"/>
<polygon fill="midnightblue" stroke="midnightblue" points="154.639,-29.1176 163.983,-24.124 153.564,-22.2006 154.639,-29.1176"/>
</g>
</g>
</svg>
