<?xml version="1.0" encoding="UTF-8" standalone="no"?>
<!DOCTYPE svg PUBLIC "-//W3C//DTD SVG 1.1//EN"
 "http://www.w3.org/Graphics/SVG/1.1/DTD/svg11.dtd">
<!-- Generated by graphviz version 2.38.0 (20140413.2041)
 -->
<!-- Title: src/operational/src/memento/move_command.h Pages: 1 -->
<svg width="294pt" height="117pt"
 viewBox="0.00 0.00 293.50 117.00" xmlns="http://www.w3.org/2000/svg" xmlns:xlink="http://www.w3.org/1999/xlink">
<g id="graph0" class="graph" transform="scale(1 1) rotate(0) translate(4 113)">
<title>src/operational/src/memento/move_command.h</title>
<polygon fill="white" stroke="none" points="-4,4 -4,-113 289.5,-113 289.5,4 -4,4"/>
<!-- Node1 -->
<g id="node1" class="node"><title>Node1</title>
<polygon fill="#bfbfbf" stroke="black" points="78.5,-78.5 78.5,-108.5 220.5,-108.5 220.5,-78.5 78.5,-78.5"/>
<text text-anchor="start" x="86.5" y="-96.5" font-family="Helvetica,sans-Serif" font-size="10.00">src/operational/src</text>
<text text-anchor="middle" x="149.5" y="-85.5" font-family="Helvetica,sans-Serif" font-size="10.00">/memento/move_command.h</text>
</g>
<!-- Node2 -->
<g id="node2" class="node"><title>Node2</title>
<g id="a_node2"><a xlink:href="../../d0/df9/move__command_8cc.html" target="_top" xlink:title="src/operational/src\l/memento/move_command.cc">
<polygon fill="white" stroke="black" points="0,-6 0,-36 147,-36 147,-6 0,-6"/>
<text text-anchor="start" x="8" y="-24" font-family="Helvetica,sans-Serif" font-size="10.00">src/operational/src</text>
<text text-anchor="middle" x="73.5" y="-13" font-family="Helvetica,sans-Serif" font-size="10.00">/memento/move_command.cc</text>
</a>
</g>
</g>
<!-- Node1&#45;&gt;Node2 -->
<g id="edge1" class="edge"><title>Node1&#45;&gt;Node2</title>
<path fill="none" stroke="midnightblue" d="M126.473,-71.139C114.187,-59.7429 99.417,-46.0414 88.5975,-36.0049"/>
<polygon fill="midnightblue" stroke="midnightblue" points="124.409,-73.9984 134.12,-78.2333 129.169,-68.8664 124.409,-73.9984"/>
</g>
<!-- Node3 -->
<g id="node3" class="node"><title>Node3</title>
<g id="a_node3"><a xlink:href="../../dc/d8a/memento__test_8cc.html" target="_top" xlink:title="src/operational_tests\l/src/memento/memento\l_test.cc">
<polygon fill="white" stroke="black" points="165.5,-0.5 165.5,-41.5 285.5,-41.5 285.5,-0.5 165.5,-0.5"/>
<text text-anchor="start" x="173.5" y="-29.5" font-family="Helvetica,sans-Serif" font-size="10.00">src/operational_tests</text>
<text text-anchor="start" x="173.5" y="-18.5" font-family="Helvetica,sans-Serif" font-size="10.00">/src/memento/memento</text>
<text text-anchor="middle" x="225.5" y="-7.5" font-family="Helvetica,sans-Serif" font-size="10.00">_test.cc</text>
</a>
</g>
</g>
<!-- Node1&#45;&gt;Node3 -->
<g id="edge2" class="edge"><title>Node1&#45;&gt;Node3</title>
<path fill="none" stroke="midnightblue" d="M172.269,-71.3792C182.457,-61.9277 194.397,-50.8524 204.383,-41.5884"/>
<polygon fill="midnightblue" stroke="midnightblue" points="169.831,-68.8664 164.88,-78.2333 174.591,-73.9984 169.831,-68.8664"/>
</g>
</g>
</svg>
