<?xml version="1.0" encoding="UTF-8" standalone="no"?>
<!DOCTYPE svg PUBLIC "-//W3C//DTD SVG 1.1//EN"
 "http://www.w3.org/Graphics/SVG/1.1/DTD/svg11.dtd">
<!-- Generated by graphviz version 2.38.0 (20140413.2041)
 -->
<!-- Title: creational::commons::Room::room_number Pages: 1 -->
<svg width="424pt" height="160pt"
 viewBox="0.00 0.00 424.00 159.50" xmlns="http://www.w3.org/2000/svg" xmlns:xlink="http://www.w3.org/1999/xlink">
<g id="graph0" class="graph" transform="scale(1 1) rotate(0) translate(4 155.5)">
<title>creational::commons::Room::room_number</title>
<polygon fill="white" stroke="none" points="-4,4 -4,-155.5 420,-155.5 420,4 -4,4"/>
<!-- Node1 -->
<g id="node1" class="node"><title>Node1</title>
<polygon fill="#bfbfbf" stroke="black" points="0,-79.5 0,-109.5 113,-109.5 113,-79.5 0,-79.5"/>
<text text-anchor="start" x="8" y="-97.5" font-family="Helvetica,sans-Serif" font-size="10.00">creational::commons</text>
<text text-anchor="middle" x="56.5" y="-86.5" font-family="Helvetica,sans-Serif" font-size="10.00">::Room::room_number</text>
</g>
<!-- Node2 -->
<g id="node2" class="node"><title>Node2</title>
<g id="a_node2"><a xlink:href="../../df/d04/classcreational_1_1commons_1_1_door.html#a46f8cccec202009593cf6ce38c79bf89" target="_top" xlink:title="creational::commons\l::Door::OtherSideFrom">
<polygon fill="white" stroke="black" points="149,-104.5 149,-134.5 264,-134.5 264,-104.5 149,-104.5"/>
<text text-anchor="start" x="157" y="-122.5" font-family="Helvetica,sans-Serif" font-size="10.00">creational::commons</text>
<text text-anchor="middle" x="206.5" y="-111.5" font-family="Helvetica,sans-Serif" font-size="10.00">::Door::OtherSideFrom</text>
</a>
</g>
</g>
<!-- Node1&#45;&gt;Node2 -->
<g id="edge1" class="edge"><title>Node1&#45;&gt;Node2</title>
<path fill="none" stroke="midnightblue" d="M122.985,-105.562C131.549,-107.008 140.266,-108.481 148.671,-109.901"/>
<polygon fill="midnightblue" stroke="midnightblue" points="123.474,-102.095 113.031,-103.88 122.308,-108.997 123.474,-102.095"/>
</g>
<!-- Node3 -->
<g id="node3" class="node"><title>Node3</title>
<g id="a_node3"><a xlink:href="../../de/d93/classcreational_1_1commons_1_1_maze.html#a8b364f1371af7ccbf7b8d3fcffe79426" target="_top" xlink:title="creational::commons\l::Maze::AddRoom">
<polygon fill="white" stroke="black" points="153,-55.5 153,-85.5 260,-85.5 260,-55.5 153,-55.5"/>
<text text-anchor="start" x="161" y="-73.5" font-family="Helvetica,sans-Serif" font-size="10.00">creational::commons</text>
<text text-anchor="middle" x="206.5" y="-62.5" font-family="Helvetica,sans-Serif" font-size="10.00">::Maze::AddRoom</text>
</a>
</g>
</g>
<!-- Node1&#45;&gt;Node3 -->
<g id="edge2" class="edge"><title>Node1&#45;&gt;Node3</title>
<path fill="none" stroke="midnightblue" d="M123.186,-83.8483C133.027,-82.2523 143.068,-80.6241 152.599,-79.0785"/>
<polygon fill="midnightblue" stroke="midnightblue" points="122.342,-80.4393 113.031,-85.495 123.462,-87.3491 122.342,-80.4393"/>
</g>
<!-- Node4 -->
<g id="node4" class="node"><title>Node4</title>
<g id="a_node4"><a xlink:href="../../d0/d8c/classcreational_1_1builder_1_1_counting_maze_builder.html#aaf0d29955538f70da13d6da04df5b046" target="_top" xlink:title="creational::builder\l::CountingMazeBuilder\l::BuildRoom">
<polygon fill="white" stroke="black" points="300.5,-110 300.5,-151 415.5,-151 415.5,-110 300.5,-110"/>
<text text-anchor="start" x="308.5" y="-139" font-family="Helvetica,sans-Serif" font-size="10.00">creational::builder</text>
<text text-anchor="start" x="308.5" y="-128" font-family="Helvetica,sans-Serif" font-size="10.00">::CountingMazeBuilder</text>
<text text-anchor="middle" x="358" y="-117" font-family="Helvetica,sans-Serif" font-size="10.00">::BuildRoom</text>
</a>
</g>
</g>
<!-- Node3&#45;&gt;Node4 -->
<g id="edge3" class="edge"><title>Node3&#45;&gt;Node4</title>
<path fill="none" stroke="midnightblue" d="M254.544,-89.3804C270.819,-95.9124 289.136,-103.264 305.734,-109.925"/>
<polygon fill="midnightblue" stroke="midnightblue" points="255.809,-86.117 245.225,-85.6405 253.202,-92.6134 255.809,-86.117"/>
</g>
<!-- Node5 -->
<g id="node5" class="node"><title>Node5</title>
<g id="a_node5"><a xlink:href="../../d9/dcc/classcreational_1_1builder_1_1_standard_maze_builder.html#a0684d842a56c41eaab9913eb218e4c49" target="_top" xlink:title="creational::builder\l::StandardMazeBuilder\l::BuildRoom">
<polygon fill="white" stroke="black" points="300,-50 300,-91 416,-91 416,-50 300,-50"/>
<text text-anchor="start" x="308" y="-79" font-family="Helvetica,sans-Serif" font-size="10.00">creational::builder</text>
<text text-anchor="start" x="308" y="-68" font-family="Helvetica,sans-Serif" font-size="10.00">::StandardMazeBuilder</text>
<text text-anchor="middle" x="358" y="-57" font-family="Helvetica,sans-Serif" font-size="10.00">::BuildRoom</text>
</a>
</g>
</g>
<!-- Node3&#45;&gt;Node5 -->
<g id="edge4" class="edge"><title>Node3&#45;&gt;Node5</title>
<path fill="none" stroke="midnightblue" d="M270.317,-70.5C280.145,-70.5 290.254,-70.5 299.943,-70.5"/>
<polygon fill="midnightblue" stroke="midnightblue" points="270.208,-67.0001 260.208,-70.5 270.208,-74.0001 270.208,-67.0001"/>
</g>
<!-- Node6 -->
<g id="node6" class="node"><title>Node6</title>
<g id="a_node6"><a xlink:href="../../d7/de2/namespacecreationaltests.html#a2fa80646bb54f58afd8f24d65fd346e2" target="_top" xlink:title="creationaltests::TEST\l_CLASS">
<polygon fill="white" stroke="black" points="303,-0.5 303,-30.5 413,-30.5 413,-0.5 303,-0.5"/>
<text text-anchor="start" x="311" y="-18.5" font-family="Helvetica,sans-Serif" font-size="10.00">creationaltests::TEST</text>
<text text-anchor="middle" x="358" y="-7.5" font-family="Helvetica,sans-Serif" font-size="10.00">_CLASS</text>
</a>
</g>
</g>
<!-- Node3&#45;&gt;Node6 -->
<g id="edge5" class="edge"><title>Node3&#45;&gt;Node6</title>
<path fill="none" stroke="midnightblue" d="M257.757,-52.0109C276.769,-45.0164 298.158,-37.1475 316.198,-30.5108"/>
<polygon fill="midnightblue" stroke="midnightblue" points="256.528,-48.7335 248.352,-55.471 258.945,-55.303 256.528,-48.7335"/>
</g>
</g>
</svg>
