<?xml version="1.0" encoding="UTF-8" standalone="no"?>
<!DOCTYPE svg PUBLIC "-//W3C//DTD SVG 1.1//EN"
 "http://www.w3.org/Graphics/SVG/1.1/DTD/svg11.dtd">
<!-- Generated by graphviz version 2.38.0 (20140413.2041)
 -->
<!-- Title: src/structural/src/proxy/image.h Pages: 1 -->
<svg width="417pt" height="195pt"
 viewBox="0.00 0.00 416.50 195.00" xmlns="http://www.w3.org/2000/svg" xmlns:xlink="http://www.w3.org/1999/xlink">
<g id="graph0" class="graph" transform="scale(1 1) rotate(0) translate(4 191)">
<title>src/structural/src/proxy/image.h</title>
<polygon fill="white" stroke="none" points="-4,4 -4,-191 412.5,-191 412.5,4 -4,4"/>
<!-- Node1 -->
<g id="node1" class="node"><title>Node1</title>
<polygon fill="#bfbfbf" stroke="black" points="118,-156.5 118,-186.5 208,-186.5 208,-156.5 118,-156.5"/>
<text text-anchor="start" x="126" y="-174.5" font-family="Helvetica,sans-Serif" font-size="10.00">src/structural/src</text>
<text text-anchor="middle" x="163" y="-163.5" font-family="Helvetica,sans-Serif" font-size="10.00">/proxy/image.h</text>
</g>
<!-- Node2 -->
<g id="node2" class="node"><title>Node2</title>
<g id="a_node2"><a xlink:href="../../db/d4d/image_8cc.html" target="_top" xlink:title="src/structural/src\l/proxy/image.cc">
<polygon fill="white" stroke="black" points="0,-84 0,-114 90,-114 90,-84 0,-84"/>
<text text-anchor="start" x="8" y="-102" font-family="Helvetica,sans-Serif" font-size="10.00">src/structural/src</text>
<text text-anchor="middle" x="45" y="-91" font-family="Helvetica,sans-Serif" font-size="10.00">/proxy/image.cc</text>
</a>
</g>
</g>
<!-- Node1&#45;&gt;Node2 -->
<g id="edge1" class="edge"><title>Node1&#45;&gt;Node2</title>
<path fill="none" stroke="midnightblue" d="M130.765,-151.241C111.096,-139.489 86.3913,-124.73 68.5546,-114.073"/>
<polygon fill="midnightblue" stroke="midnightblue" points="129.025,-154.278 139.405,-156.403 132.615,-148.269 129.025,-154.278"/>
</g>
<!-- Node3 -->
<g id="node3" class="node"><title>Node3</title>
<g id="a_node3"><a xlink:href="../../dc/dca/image__proxy_8h.html" target="_top" xlink:title="src/structural/src\l/proxy/image_proxy.h">
<polygon fill="white" stroke="black" points="108,-84 108,-114 218,-114 218,-84 108,-84"/>
<text text-anchor="start" x="116" y="-102" font-family="Helvetica,sans-Serif" font-size="10.00">src/structural/src</text>
<text text-anchor="middle" x="163" y="-91" font-family="Helvetica,sans-Serif" font-size="10.00">/proxy/image_proxy.h</text>
</a>
</g>
</g>
<!-- Node1&#45;&gt;Node3 -->
<g id="edge2" class="edge"><title>Node1&#45;&gt;Node3</title>
<path fill="none" stroke="midnightblue" d="M163,-146.232C163,-135.568 163,-123.414 163,-114.246"/>
<polygon fill="midnightblue" stroke="midnightblue" points="159.5,-146.233 163,-156.233 166.5,-146.233 159.5,-146.233"/>
</g>
<!-- Node6 -->
<g id="node6" class="node"><title>Node6</title>
<g id="a_node6"><a xlink:href="../../d8/dbb/virtual__image__proxy_8h.html" target="_top" xlink:title="src/structural/src\l/proxy/virtual_image\l_proxy.h">
<polygon fill="white" stroke="black" points="236.5,-78.5 236.5,-119.5 339.5,-119.5 339.5,-78.5 236.5,-78.5"/>
<text text-anchor="start" x="244.5" y="-107.5" font-family="Helvetica,sans-Serif" font-size="10.00">src/structural/src</text>
<text text-anchor="start" x="244.5" y="-96.5" font-family="Helvetica,sans-Serif" font-size="10.00">/proxy/virtual_image</text>
<text text-anchor="middle" x="288" y="-85.5" font-family="Helvetica,sans-Serif" font-size="10.00">_proxy.h</text>
</a>
</g>
</g>
<!-- Node1&#45;&gt;Node6 -->
<g id="edge5" class="edge"><title>Node1&#45;&gt;Node6</title>
<path fill="none" stroke="midnightblue" d="M196.736,-151.473C214.195,-141.626 235.483,-129.62 253.107,-119.68"/>
<polygon fill="midnightblue" stroke="midnightblue" points="194.986,-148.442 187.995,-156.403 198.425,-154.539 194.986,-148.442"/>
</g>
<!-- Node4 -->
<g id="node4" class="node"><title>Node4</title>
<g id="a_node4"><a xlink:href="../../dd/d1a/image__proxy_8cc.html" target="_top" xlink:title="src/structural/src\l/proxy/image_proxy.cc">
<polygon fill="white" stroke="black" points="31,-6 31,-36 147,-36 147,-6 31,-6"/>
<text text-anchor="start" x="39" y="-24" font-family="Helvetica,sans-Serif" font-size="10.00">src/structural/src</text>
<text text-anchor="middle" x="89" y="-13" font-family="Helvetica,sans-Serif" font-size="10.00">/proxy/image_proxy.cc</text>
</a>
</g>
</g>
<!-- Node3&#45;&gt;Node4 -->
<g id="edge3" class="edge"><title>Node3&#45;&gt;Node4</title>
<path fill="none" stroke="midnightblue" d="M142.098,-76.5332C129.536,-63.6316 113.899,-47.5716 102.856,-36.2309"/>
<polygon fill="midnightblue" stroke="midnightblue" points="139.597,-78.9819 149.081,-83.705 144.613,-74.0986 139.597,-78.9819"/>
</g>
<!-- Node5 -->
<g id="node5" class="node"><title>Node5</title>
<g id="a_node5"><a xlink:href="../../d1/d14/proxy__test_8cc.html" target="_top" xlink:title="src/structural_tests\l/src/proxy/proxy_test.cc">
<polygon fill="white" stroke="black" points="165,-6 165,-36 287,-36 287,-6 165,-6"/>
<text text-anchor="start" x="173" y="-24" font-family="Helvetica,sans-Serif" font-size="10.00">src/structural_tests</text>
<text text-anchor="middle" x="226" y="-13" font-family="Helvetica,sans-Serif" font-size="10.00">/src/proxy/proxy_test.cc</text>
</a>
</g>
</g>
<!-- Node3&#45;&gt;Node5 -->
<g id="edge4" class="edge"><title>Node3&#45;&gt;Node5</title>
<path fill="none" stroke="midnightblue" d="M181.397,-75.8065C191.986,-63.0329 204.978,-47.3596 214.203,-36.2309"/>
<polygon fill="midnightblue" stroke="midnightblue" points="178.537,-73.7725 174.85,-83.705 183.926,-78.2398 178.537,-73.7725"/>
</g>
<!-- Node6&#45;&gt;Node5 -->
<g id="edge7" class="edge"><title>Node6&#45;&gt;Node5</title>
<path fill="none" stroke="midnightblue" d="M265.691,-70.6539C256.186,-59.0022 245.495,-45.8967 237.605,-36.2254"/>
<polygon fill="midnightblue" stroke="midnightblue" points="263,-72.8919 272.033,-78.4281 268.424,-68.467 263,-72.8919"/>
</g>
<!-- Node7 -->
<g id="node7" class="node"><title>Node7</title>
<g id="a_node7"><a xlink:href="../../d8/d56/virtual__image__proxy_8cc.html" target="_top" xlink:title="src/structural/src\l/proxy/virtual_image\l_proxy.cc">
<polygon fill="white" stroke="black" points="305.5,-0.5 305.5,-41.5 408.5,-41.5 408.5,-0.5 305.5,-0.5"/>
<text text-anchor="start" x="313.5" y="-29.5" font-family="Helvetica,sans-Serif" font-size="10.00">src/structural/src</text>
<text text-anchor="start" x="313.5" y="-18.5" font-family="Helvetica,sans-Serif" font-size="10.00">/proxy/virtual_image</text>
<text text-anchor="middle" x="357" y="-7.5" font-family="Helvetica,sans-Serif" font-size="10.00">_proxy.cc</text>
</a>
</g>
</g>
<!-- Node6&#45;&gt;Node7 -->
<g id="edge6" class="edge"><title>Node6&#45;&gt;Node7</title>
<path fill="none" stroke="midnightblue" d="M312.59,-70.9158C321.408,-61.2029 331.17,-50.4502 339.291,-41.5056"/>
<polygon fill="midnightblue" stroke="midnightblue" points="309.9,-68.6716 305.769,-78.4281 315.082,-73.3769 309.9,-68.6716"/>
</g>
</g>
</svg>
