<?xml version="1.0" encoding="UTF-8" standalone="no"?>
<!DOCTYPE svg PUBLIC "-//W3C//DTD SVG 1.1//EN"
 "http://www.w3.org/Graphics/SVG/1.1/DTD/svg11.dtd">
<!-- Generated by graphviz version 2.38.0 (20140413.2041)
 -->
<!-- Title: src/operational/src/interpreter/and_exp.h Pages: 1 -->
<svg width="268pt" height="117pt"
 viewBox="0.00 0.00 268.00 117.00" xmlns="http://www.w3.org/2000/svg" xmlns:xlink="http://www.w3.org/1999/xlink">
<g id="graph0" class="graph" transform="scale(1 1) rotate(0) translate(4 113)">
<title>src/operational/src/interpreter/and_exp.h</title>
<polygon fill="white" stroke="none" points="-4,4 -4,-113 264,-113 264,4 -4,4"/>
<!-- Node1 -->
<g id="node1" class="node"><title>Node1</title>
<polygon fill="#bfbfbf" stroke="black" points="71.5,-78.5 71.5,-108.5 182.5,-108.5 182.5,-78.5 71.5,-78.5"/>
<text text-anchor="start" x="79.5" y="-96.5" font-family="Helvetica,sans-Serif" font-size="10.00">src/operational/src</text>
<text text-anchor="middle" x="127" y="-85.5" font-family="Helvetica,sans-Serif" font-size="10.00">/interpreter/and_exp.h</text>
</g>
<!-- Node2 -->
<g id="node2" class="node"><title>Node2</title>
<g id="a_node2"><a xlink:href="../../dd/df5/and__exp_8cc.html" target="_top" xlink:title="src/operational/src\l/interpreter/and_exp.cc">
<polygon fill="white" stroke="black" points="0,-6 0,-36 116,-36 116,-6 0,-6"/>
<text text-anchor="start" x="8" y="-24" font-family="Helvetica,sans-Serif" font-size="10.00">src/operational/src</text>
<text text-anchor="middle" x="58" y="-13" font-family="Helvetica,sans-Serif" font-size="10.00">/interpreter/and_exp.cc</text>
</a>
</g>
</g>
<!-- Node1&#45;&gt;Node2 -->
<g id="edge1" class="edge"><title>Node1&#45;&gt;Node2</title>
<path fill="none" stroke="midnightblue" d="M105.824,-70.8641C94.8139,-59.6142 81.6641,-46.1786 71.9424,-36.2455"/>
<polygon fill="midnightblue" stroke="midnightblue" points="103.541,-73.5347 113.037,-78.2333 108.544,-68.6384 103.541,-73.5347"/>
</g>
<!-- Node3 -->
<g id="node3" class="node"><title>Node3</title>
<g id="a_node3"><a xlink:href="../../de/d72/interpreter__test_8cc.html" target="_top" xlink:title="src/operational_tests\l/src/interpreter/interpreter\l_test.cc">
<polygon fill="white" stroke="black" points="134,-0.5 134,-41.5 260,-41.5 260,-0.5 134,-0.5"/>
<text text-anchor="start" x="142" y="-29.5" font-family="Helvetica,sans-Serif" font-size="10.00">src/operational_tests</text>
<text text-anchor="start" x="142" y="-18.5" font-family="Helvetica,sans-Serif" font-size="10.00">/src/interpreter/interpreter</text>
<text text-anchor="middle" x="197" y="-7.5" font-family="Helvetica,sans-Serif" font-size="10.00">_test.cc</text>
</a>
</g>
</g>
<!-- Node1&#45;&gt;Node3 -->
<g id="edge2" class="edge"><title>Node1&#45;&gt;Node3</title>
<path fill="none" stroke="midnightblue" d="M148.248,-71.1007C157.571,-61.7107 168.442,-50.7615 177.55,-41.5884"/>
<polygon fill="midnightblue" stroke="midnightblue" points="145.728,-68.671 141.166,-78.2333 150.695,-73.6031 145.728,-68.671"/>
</g>
</g>
</svg>
