<?xml version="1.0" encoding="UTF-8" standalone="no"?>
<!DOCTYPE svg PUBLIC "-//W3C//DTD SVG 1.1//EN"
 "http://www.w3.org/Graphics/SVG/1.1/DTD/svg11.dtd">
<!-- Generated by graphviz version 2.38.0 (20140413.2041)
 -->
<!-- Title: operational::command::SimpleCommand&lt; Receiver &gt; Pages: 1 -->
<svg width="160pt" height="204pt"
 viewBox="0.00 0.00 160.00 204.00" xmlns="http://www.w3.org/2000/svg" xmlns:xlink="http://www.w3.org/1999/xlink">
<g id="graph0" class="graph" transform="scale(1 1) rotate(0) translate(4 200)">
<title>operational::command::SimpleCommand&lt; Receiver &gt;</title>
<polygon fill="white" stroke="none" points="-4,4 -4,-200 156,-200 156,4 -4,4"/>
<!-- Node1 -->
<g id="node1" class="node"><title>Node1</title>
<polygon fill="#bfbfbf" stroke="black" points="0,-0.5 0,-79.5 152,-79.5 152,-0.5 0,-0.5"/>
<text text-anchor="start" x="8" y="-67.5" font-family="Helvetica,sans-Serif" font-size="10.00">operational::command</text>
<text text-anchor="middle" x="76" y="-56.5" font-family="Helvetica,sans-Serif" font-size="10.00">::SimpleCommand&lt; Receiver &gt;</text>
<polyline fill="none" stroke="black" points="0,-49.5 152,-49.5 "/>
<text text-anchor="middle" x="76" y="-37.5" font-family="Helvetica,sans-Serif" font-size="10.00"> </text>
<polyline fill="none" stroke="black" points="0,-30.5 152,-30.5 "/>
<text text-anchor="start" x="8" y="-18.5" font-family="Helvetica,sans-Serif" font-size="10.00">+ SimpleCommand()</text>
<text text-anchor="start" x="8" y="-7.5" font-family="Helvetica,sans-Serif" font-size="10.00">+ Execute()</text>
</g>
<!-- Node2 -->
<g id="node2" class="node"><title>Node2</title>
<g id="a_node2"><a xlink:href="../../db/d88/classoperational_1_1command_1_1_command_interface.html" target="_top" xlink:title="{operational::command\l::CommandInterface\n||+ ~CommandInterface()\l+ Execute()\l}">
<polygon fill="white" stroke="black" points="16.5,-116.5 16.5,-195.5 135.5,-195.5 135.5,-116.5 16.5,-116.5"/>
<text text-anchor="start" x="24.5" y="-183.5" font-family="Helvetica,sans-Serif" font-size="10.00">operational::command</text>
<text text-anchor="middle" x="76" y="-172.5" font-family="Helvetica,sans-Serif" font-size="10.00">::CommandInterface</text>
<polyline fill="none" stroke="black" points="16.5,-165.5 135.5,-165.5 "/>
<text text-anchor="middle" x="76" y="-153.5" font-family="Helvetica,sans-Serif" font-size="10.00"> </text>
<polyline fill="none" stroke="black" points="16.5,-146.5 135.5,-146.5 "/>
<text text-anchor="start" x="24.5" y="-134.5" font-family="Helvetica,sans-Serif" font-size="10.00">+ ~CommandInterface()</text>
<text text-anchor="start" x="24.5" y="-123.5" font-family="Helvetica,sans-Serif" font-size="10.00">+ Execute()</text>
</a>
</g>
</g>
<!-- Node2&#45;&gt;Node1 -->
<g id="edge1" class="edge"><title>Node2&#45;&gt;Node1</title>
<path fill="none" stroke="midnightblue" d="M76,-106.146C76,-97.256 76,-88.0961 76,-79.5555"/>
<polygon fill="none" stroke="midnightblue" points="72.5001,-106.405 76,-116.405 79.5001,-106.405 72.5001,-106.405"/>
</g>
</g>
</svg>
