<?xml version="1.0" encoding="UTF-8" standalone="no"?>
<!DOCTYPE svg PUBLIC "-//W3C//DTD SVG 1.1//EN"
 "http://www.w3.org/Graphics/SVG/1.1/DTD/svg11.dtd">
<!-- Generated by graphviz version 2.38.0 (20140413.2041)
 -->
<!-- Title: structural::proxy::TextDocument::GetExtent Pages: 1 -->
<svg width="311pt" height="39pt"
 viewBox="0.00 0.00 311.00 39.00" xmlns="http://www.w3.org/2000/svg" xmlns:xlink="http://www.w3.org/1999/xlink">
<g id="graph0" class="graph" transform="scale(1 1) rotate(0) translate(4 35)">
<title>structural::proxy::TextDocument::GetExtent</title>
<polygon fill="white" stroke="none" points="-4,4 -4,-35 307,-35 307,4 -4,4"/>
<!-- Node1 -->
<g id="node1" class="node"><title>Node1</title>
<polygon fill="#bfbfbf" stroke="black" points="0,-0.5 0,-30.5 130,-30.5 130,-0.5 0,-0.5"/>
<text text-anchor="start" x="8" y="-18.5" font-family="Helvetica,sans-Serif" font-size="10.00">structural::proxy::</text>
<text text-anchor="middle" x="65" y="-7.5" font-family="Helvetica,sans-Serif" font-size="10.00">TextDocument::GetExtent</text>
</g>
<!-- Node2 -->
<g id="node2" class="node"><title>Node2</title>
<g id="a_node2"><a xlink:href="../../de/d6f/classstructural_1_1proxy_1_1_graphic_interface.html#a6938909bc219695a8ac82f2da58d0f49" target="_top" xlink:title="structural::proxy::\lGraphicInterface::GetExtent">
<polygon fill="white" stroke="black" points="166,-0.5 166,-30.5 303,-30.5 303,-0.5 166,-0.5"/>
<text text-anchor="start" x="174" y="-18.5" font-family="Helvetica,sans-Serif" font-size="10.00">structural::proxy::</text>
<text text-anchor="middle" x="234.5" y="-7.5" font-family="Helvetica,sans-Serif" font-size="10.00">GraphicInterface::GetExtent</text>
</a>
</g>
</g>
<!-- Node1&#45;&gt;Node2 -->
<g id="edge1" class="edge"><title>Node1&#45;&gt;Node2</title>
<path fill="none" stroke="midnightblue" d="M130.281,-15.5C138.545,-15.5 147.077,-15.5 155.53,-15.5"/>
<polygon fill="midnightblue" stroke="midnightblue" points="155.779,-19.0001 165.779,-15.5 155.779,-12.0001 155.779,-19.0001"/>
</g>
</g>
</svg>
