<?xml version="1.0" encoding="UTF-8" standalone="no"?>
<!DOCTYPE svg PUBLIC "-//W3C//DTD SVG 1.1//EN"
 "http://www.w3.org/Graphics/SVG/1.1/DTD/svg11.dtd">
<!-- Generated by graphviz version 2.38.0 (20140413.2041)
 -->
<!-- Title: src/structural/src/adapter/text_view.cc Pages: 1 -->
<svg width="212pt" height="151pt"
 viewBox="0.00 0.00 211.50 151.00" xmlns="http://www.w3.org/2000/svg" xmlns:xlink="http://www.w3.org/1999/xlink">
<g id="graph0" class="graph" transform="scale(1 1) rotate(0) translate(4 147)">
<title>src/structural/src/adapter/text_view.cc</title>
<polygon fill="white" stroke="none" points="-4,4 -4,-147 207.5,-147 207.5,4 -4,4"/>
<!-- Node1 -->
<g id="node1" class="node"><title>Node1</title>
<polygon fill="#bfbfbf" stroke="black" points="21.5,-112.5 21.5,-142.5 129.5,-142.5 129.5,-112.5 21.5,-112.5"/>
<text text-anchor="start" x="29.5" y="-130.5" font-family="Helvetica,sans-Serif" font-size="10.00">src/structural/src</text>
<text text-anchor="middle" x="75.5" y="-119.5" font-family="Helvetica,sans-Serif" font-size="10.00">/adapter/text_view.cc</text>
</g>
<!-- Node2 -->
<g id="node2" class="node"><title>Node2</title>
<g id="a_node2"><a xlink:href="../../d3/dee/text__view_8h.html" target="_top" xlink:title="text_view.h">
<polygon fill="white" stroke="black" points="43,-56.5 43,-75.5 108,-75.5 108,-56.5 43,-56.5"/>
<text text-anchor="middle" x="75.5" y="-63.5" font-family="Helvetica,sans-Serif" font-size="10.00">text_view.h</text>
</a>
</g>
</g>
<!-- Node1&#45;&gt;Node2 -->
<g id="edge1" class="edge"><title>Node1&#45;&gt;Node2</title>
<path fill="none" stroke="midnightblue" d="M75.5,-112.399C75.5,-104.466 75.5,-94.458 75.5,-85.8583"/>
<polygon fill="midnightblue" stroke="midnightblue" points="79.0001,-85.6577 75.5,-75.6578 72.0001,-85.6578 79.0001,-85.6577"/>
</g>
<!-- Node3 -->
<g id="node3" class="node"><title>Node3</title>
<polygon fill="white" stroke="#bfbfbf" points="0,-0.5 0,-19.5 41,-19.5 41,-0.5 0,-0.5"/>
<text text-anchor="middle" x="20.5" y="-7.5" font-family="Helvetica,sans-Serif" font-size="10.00">string</text>
</g>
<!-- Node2&#45;&gt;Node3 -->
<g id="edge2" class="edge"><title>Node2&#45;&gt;Node3</title>
<path fill="none" stroke="midnightblue" d="M66.4179,-56.083C58.3287,-48.1409 46.3046,-36.3354 36.5898,-26.7973"/>
<polygon fill="midnightblue" stroke="midnightblue" points="39.0009,-24.2595 29.4131,-19.7511 34.0967,-29.2545 39.0009,-24.2595"/>
</g>
<!-- Node4 -->
<g id="node4" class="node"><title>Node4</title>
<g id="a_node4"><a xlink:href="../../d0/d2e/visual__component__interface_8h.html" target="_top" xlink:title="visual_component_interface.h">
<polygon fill="white" stroke="black" points="59.5,-0.5 59.5,-19.5 203.5,-19.5 203.5,-0.5 59.5,-0.5"/>
<text text-anchor="middle" x="131.5" y="-7.5" font-family="Helvetica,sans-Serif" font-size="10.00">visual_component_interface.h</text>
</a>
</g>
</g>
<!-- Node2&#45;&gt;Node4 -->
<g id="edge3" class="edge"><title>Node2&#45;&gt;Node4</title>
<path fill="none" stroke="midnightblue" d="M84.4974,-56.324C92.6944,-48.4196 105.006,-36.5482 114.972,-26.9377"/>
<polygon fill="midnightblue" stroke="midnightblue" points="117.57,-29.2947 122.339,-19.8339 112.711,-24.2558 117.57,-29.2947"/>
</g>
</g>
</svg>
