<?xml version="1.0" encoding="UTF-8" standalone="no"?>
<!DOCTYPE svg PUBLIC "-//W3C//DTD SVG 1.1//EN"
 "http://www.w3.org/Graphics/SVG/1.1/DTD/svg11.dtd">
<!-- Generated by graphviz version 2.38.0 (20140413.2041)
 -->
<!-- Title: creational::abstractfactory::MazeFactoryInterface::MakeWall Pages: 1 -->
<svg width="288pt" height="50pt"
 viewBox="0.00 0.00 288.00 50.00" xmlns="http://www.w3.org/2000/svg" xmlns:xlink="http://www.w3.org/1999/xlink">
<g id="graph0" class="graph" transform="scale(1 1) rotate(0) translate(4 46)">
<title>creational::abstractfactory::MazeFactoryInterface::MakeWall</title>
<polygon fill="white" stroke="none" points="-4,4 -4,-46 284,-46 284,4 -4,4"/>
<!-- Node1 -->
<g id="node1" class="node"><title>Node1</title>
<polygon fill="#bfbfbf" stroke="black" points="0,-0.5 0,-41.5 129,-41.5 129,-0.5 0,-0.5"/>
<text text-anchor="start" x="8" y="-29.5" font-family="Helvetica,sans-Serif" font-size="10.00">creational::abstractfactory</text>
<text text-anchor="start" x="8" y="-18.5" font-family="Helvetica,sans-Serif" font-size="10.00">::MazeFactoryInterface::</text>
<text text-anchor="middle" x="64.5" y="-7.5" font-family="Helvetica,sans-Serif" font-size="10.00">MakeWall</text>
</g>
<!-- Node2 -->
<g id="node2" class="node"><title>Node2</title>
<g id="a_node2"><a xlink:href="../../d7/d1d/classcreational_1_1_maze_game.html#a696621d017bae52799102abea17838bd" target="_top" xlink:title="creational::MazeGame\l::CreateMaze">
<polygon fill="white" stroke="black" points="165,-6 165,-36 280,-36 280,-6 165,-6"/>
<text text-anchor="start" x="173" y="-24" font-family="Helvetica,sans-Serif" font-size="10.00">creational::MazeGame</text>
<text text-anchor="middle" x="222.5" y="-13" font-family="Helvetica,sans-Serif" font-size="10.00">::CreateMaze</text>
</a>
</g>
</g>
<!-- Node1&#45;&gt;Node2 -->
<g id="edge1" class="edge"><title>Node1&#45;&gt;Node2</title>
<path fill="none" stroke="midnightblue" d="M139.421,-21C148.004,-21 156.652,-21 164.95,-21"/>
<polygon fill="midnightblue" stroke="midnightblue" points="139.401,-17.5001 129.401,-21 139.401,-24.5001 139.401,-17.5001"/>
</g>
</g>
</svg>
