<?xml version="1.0" encoding="UTF-8" standalone="no"?>
<!DOCTYPE svg PUBLIC "-//W3C//DTD SVG 1.1//EN"
 "http://www.w3.org/Graphics/SVG/1.1/DTD/svg11.dtd">
<!-- Generated by graphviz version 2.38.0 (20140413.2041)
 -->
<!-- Title: operational::madiator::MediatorWidgetInterface Pages: 1 -->
<svg width="302pt" height="386pt"
 viewBox="0.00 0.00 302.00 386.00" xmlns="http://www.w3.org/2000/svg" xmlns:xlink="http://www.w3.org/1999/xlink">
<g id="graph0" class="graph" transform="scale(1 1) rotate(0) translate(4 382)">
<title>operational::madiator::MediatorWidgetInterface</title>
<polygon fill="white" stroke="none" points="-4,4 -4,-382 298,-382 298,4 -4,4"/>
<!-- Node1 -->
<g id="node1" class="node"><title>Node1</title>
<polygon fill="#bfbfbf" stroke="black" points="44,-287.5 44,-377.5 187,-377.5 187,-287.5 44,-287.5"/>
<text text-anchor="start" x="52" y="-365.5" font-family="Helvetica,sans-Serif" font-size="10.00">operational::madiator</text>
<text text-anchor="middle" x="115.5" y="-354.5" font-family="Helvetica,sans-Serif" font-size="10.00">::MediatorWidgetInterface</text>
<polyline fill="none" stroke="black" points="44,-347.5 187,-347.5 "/>
<text text-anchor="middle" x="115.5" y="-335.5" font-family="Helvetica,sans-Serif" font-size="10.00"> </text>
<polyline fill="none" stroke="black" points="44,-328.5 187,-328.5 "/>
<text text-anchor="start" x="52" y="-316.5" font-family="Helvetica,sans-Serif" font-size="10.00">+ ~MediatorWidgetInterface()</text>
<text text-anchor="start" x="52" y="-305.5" font-family="Helvetica,sans-Serif" font-size="10.00">+ Changed()</text>
<text text-anchor="start" x="52" y="-294.5" font-family="Helvetica,sans-Serif" font-size="10.00">+ HandleMouse()</text>
</g>
<!-- Node2 -->
<g id="node2" class="node"><title>Node2</title>
<g id="a_node2"><a xlink:href="../../df/d1e/classoperational_1_1madiator_1_1_list_box.html" target="_top" xlink:title="{operational::madiator\l::ListBox\n||+ ListBox()\l+ GetSelection()\l+ SetList()\l+ HandleMouse()\l+ Changed()\l}">
<polygon fill="white" stroke="black" points="0,-138.5 0,-250.5 107,-250.5 107,-138.5 0,-138.5"/>
<text text-anchor="start" x="8" y="-238.5" font-family="Helvetica,sans-Serif" font-size="10.00">operational::madiator</text>
<text text-anchor="middle" x="53.5" y="-227.5" font-family="Helvetica,sans-Serif" font-size="10.00">::ListBox</text>
<polyline fill="none" stroke="black" points="0,-220.5 107,-220.5 "/>
<text text-anchor="middle" x="53.5" y="-208.5" font-family="Helvetica,sans-Serif" font-size="10.00"> </text>
<polyline fill="none" stroke="black" points="0,-201.5 107,-201.5 "/>
<text text-anchor="start" x="8" y="-189.5" font-family="Helvetica,sans-Serif" font-size="10.00">+ ListBox()</text>
<text text-anchor="start" x="8" y="-178.5" font-family="Helvetica,sans-Serif" font-size="10.00">+ GetSelection()</text>
<text text-anchor="start" x="8" y="-167.5" font-family="Helvetica,sans-Serif" font-size="10.00">+ SetList()</text>
<text text-anchor="start" x="8" y="-156.5" font-family="Helvetica,sans-Serif" font-size="10.00">+ HandleMouse()</text>
<text text-anchor="start" x="8" y="-145.5" font-family="Helvetica,sans-Serif" font-size="10.00">+ Changed()</text>
</a>
</g>
</g>
<!-- Node1&#45;&gt;Node2 -->
<g id="edge1" class="edge"><title>Node1&#45;&gt;Node2</title>
<path fill="none" stroke="midnightblue" d="M91.184,-278.162C87.0981,-269.199 82.8495,-259.88 78.7408,-250.867"/>
<polygon fill="none" stroke="midnightblue" points="88.0375,-279.697 95.3704,-287.345 94.4069,-276.794 88.0375,-279.697"/>
</g>
<!-- Node3 -->
<g id="node3" class="node"><title>Node3</title>
<g id="a_node3"><a xlink:href="../../da/dd3/classoperational_1_1madiator_1_1_mediator_widget.html" target="_top" xlink:title="{operational::madiator\l::MediatorWidget\n||+ MediatorWidget()\l+ Changed()\l+ HandleMouse()\l}">
<polygon fill="white" stroke="black" points="125,-149.5 125,-239.5 232,-239.5 232,-149.5 125,-149.5"/>
<text text-anchor="start" x="133" y="-227.5" font-family="Helvetica,sans-Serif" font-size="10.00">operational::madiator</text>
<text text-anchor="middle" x="178.5" y="-216.5" font-family="Helvetica,sans-Serif" font-size="10.00">::MediatorWidget</text>
<polyline fill="none" stroke="black" points="125,-209.5 232,-209.5 "/>
<text text-anchor="middle" x="178.5" y="-197.5" font-family="Helvetica,sans-Serif" font-size="10.00"> </text>
<polyline fill="none" stroke="black" points="125,-190.5 232,-190.5 "/>
<text text-anchor="start" x="133" y="-178.5" font-family="Helvetica,sans-Serif" font-size="10.00">+ MediatorWidget()</text>
<text text-anchor="start" x="133" y="-167.5" font-family="Helvetica,sans-Serif" font-size="10.00">+ Changed()</text>
<text text-anchor="start" x="133" y="-156.5" font-family="Helvetica,sans-Serif" font-size="10.00">+ HandleMouse()</text>
</a>
</g>
</g>
<!-- Node1&#45;&gt;Node3 -->
<g id="edge2" class="edge"><title>Node1&#45;&gt;Node3</title>
<path fill="none" stroke="midnightblue" d="M140.165,-278.256C146.045,-265.562 152.259,-252.148 157.933,-239.899"/>
<polygon fill="none" stroke="midnightblue" points="136.982,-276.8 135.954,-287.345 143.333,-279.742 136.982,-276.8"/>
</g>
<!-- Node4 -->
<g id="node4" class="node"><title>Node4</title>
<g id="a_node4"><a xlink:href="../../d7/d87/classoperational_1_1madiator_1_1_entry_field.html" target="_top" xlink:title="{operational::madiator\l::EntryField\n||+ EntryField()\l+ HandleMouse()\l+ text()\l+ text()\l}">
<polygon fill="white" stroke="black" points="62,-0.5 62,-101.5 169,-101.5 169,-0.5 62,-0.5"/>
<text text-anchor="start" x="70" y="-89.5" font-family="Helvetica,sans-Serif" font-size="10.00">operational::madiator</text>
<text text-anchor="middle" x="115.5" y="-78.5" font-family="Helvetica,sans-Serif" font-size="10.00">::EntryField</text>
<polyline fill="none" stroke="black" points="62,-71.5 169,-71.5 "/>
<text text-anchor="middle" x="115.5" y="-59.5" font-family="Helvetica,sans-Serif" font-size="10.00"> </text>
<polyline fill="none" stroke="black" points="62,-52.5 169,-52.5 "/>
<text text-anchor="start" x="70" y="-40.5" font-family="Helvetica,sans-Serif" font-size="10.00">+ EntryField()</text>
<text text-anchor="start" x="70" y="-29.5" font-family="Helvetica,sans-Serif" font-size="10.00">+ HandleMouse()</text>
<text text-anchor="start" x="70" y="-18.5" font-family="Helvetica,sans-Serif" font-size="10.00">+ text()</text>
<text text-anchor="start" x="70" y="-7.5" font-family="Helvetica,sans-Serif" font-size="10.00">+ text()</text>
</a>
</g>
</g>
<!-- Node3&#45;&gt;Node4 -->
<g id="edge3" class="edge"><title>Node3&#45;&gt;Node4</title>
<path fill="none" stroke="midnightblue" d="M154.559,-139.728C148.991,-127.221 143.088,-113.962 137.603,-101.644"/>
<polygon fill="none" stroke="midnightblue" points="151.474,-141.405 158.739,-149.117 157.869,-138.558 151.474,-141.405"/>
</g>
<!-- Node5 -->
<g id="node5" class="node"><title>Node5</title>
<g id="a_node5"><a xlink:href="../../d3/d5c/classoperational_1_1madiator_1_1_mediator_button.html" target="_top" xlink:title="{operational::madiator\l::MediatorButton\n||+ MediatorButton()\l+ text()\l+ text()\l+ HandleMouse()\l}">
<polygon fill="white" stroke="black" points="187,-0.5 187,-101.5 294,-101.5 294,-0.5 187,-0.5"/>
<text text-anchor="start" x="195" y="-89.5" font-family="Helvetica,sans-Serif" font-size="10.00">operational::madiator</text>
<text text-anchor="middle" x="240.5" y="-78.5" font-family="Helvetica,sans-Serif" font-size="10.00">::MediatorButton</text>
<polyline fill="none" stroke="black" points="187,-71.5 294,-71.5 "/>
<text text-anchor="middle" x="240.5" y="-59.5" font-family="Helvetica,sans-Serif" font-size="10.00"> </text>
<polyline fill="none" stroke="black" points="187,-52.5 294,-52.5 "/>
<text text-anchor="start" x="195" y="-40.5" font-family="Helvetica,sans-Serif" font-size="10.00">+ MediatorButton()</text>
<text text-anchor="start" x="195" y="-29.5" font-family="Helvetica,sans-Serif" font-size="10.00">+ text()</text>
<text text-anchor="start" x="195" y="-18.5" font-family="Helvetica,sans-Serif" font-size="10.00">+ text()</text>
<text text-anchor="start" x="195" y="-7.5" font-family="Helvetica,sans-Serif" font-size="10.00">+ HandleMouse()</text>
</a>
</g>
</g>
<!-- Node3&#45;&gt;Node5 -->
<g id="edge4" class="edge"><title>Node3&#45;&gt;Node5</title>
<path fill="none" stroke="midnightblue" d="M202.061,-139.728C207.541,-127.221 213.35,-113.962 218.748,-101.644"/>
<polygon fill="none" stroke="midnightblue" points="198.755,-138.553 197.947,-149.117 205.166,-141.362 198.755,-138.553"/>
</g>
</g>
</svg>
