<?xml version="1.0" encoding="UTF-8" standalone="no"?>
<!DOCTYPE svg PUBLIC "-//W3C//DTD SVG 1.1//EN"
 "http://www.w3.org/Graphics/SVG/1.1/DTD/svg11.dtd">
<!-- Generated by graphviz version 2.38.0 (20140413.2041)
 -->
<!-- Title: operational::observer::ClockTickInterface Pages: 1 -->
<svg width="125pt" height="259pt"
 viewBox="0.00 0.00 125.00 259.00" xmlns="http://www.w3.org/2000/svg" xmlns:xlink="http://www.w3.org/1999/xlink">
<g id="graph0" class="graph" transform="scale(1 1) rotate(0) translate(4 255)">
<title>operational::observer::ClockTickInterface</title>
<polygon fill="white" stroke="none" points="-4,4 -4,-255 121,-255 121,4 -4,4"/>
<!-- Node1 -->
<g id="node1" class="node"><title>Node1</title>
<polygon fill="#bfbfbf" stroke="black" points="0,-149.5 0,-250.5 117,-250.5 117,-149.5 0,-149.5"/>
<text text-anchor="start" x="8" y="-238.5" font-family="Helvetica,sans-Serif" font-size="10.00">operational::observer</text>
<text text-anchor="middle" x="58.5" y="-227.5" font-family="Helvetica,sans-Serif" font-size="10.00">::ClockTickInterface</text>
<polyline fill="none" stroke="black" points="0,-220.5 117,-220.5 "/>
<text text-anchor="middle" x="58.5" y="-208.5" font-family="Helvetica,sans-Serif" font-size="10.00"> </text>
<polyline fill="none" stroke="black" points="0,-201.5 117,-201.5 "/>
<text text-anchor="start" x="8" y="-189.5" font-family="Helvetica,sans-Serif" font-size="10.00">+ ~ClockTickInterface()</text>
<text text-anchor="start" x="8" y="-178.5" font-family="Helvetica,sans-Serif" font-size="10.00">+ Attach()</text>
<text text-anchor="start" x="8" y="-167.5" font-family="Helvetica,sans-Serif" font-size="10.00">+ Detach()</text>
<text text-anchor="start" x="8" y="-156.5" font-family="Helvetica,sans-Serif" font-size="10.00">+ Notify()</text>
</g>
<!-- Node2 -->
<g id="node2" class="node"><title>Node2</title>
<g id="a_node2"><a xlink:href="../../d4/de0/classoperational_1_1observer_1_1_clock_tick.html" target="_top" xlink:title="{operational::observer\l::ClockTick\n||+ ClockTick()\l+ ~ClockTick()\l+ Attach()\l+ Detach()\l+ Notify()\l}">
<polygon fill="white" stroke="black" points="5.5,-0.5 5.5,-112.5 111.5,-112.5 111.5,-0.5 5.5,-0.5"/>
<text text-anchor="start" x="13.5" y="-100.5" font-family="Helvetica,sans-Serif" font-size="10.00">operational::observer</text>
<text text-anchor="middle" x="58.5" y="-89.5" font-family="Helvetica,sans-Serif" font-size="10.00">::ClockTick</text>
<polyline fill="none" stroke="black" points="5.5,-82.5 111.5,-82.5 "/>
<text text-anchor="middle" x="58.5" y="-70.5" font-family="Helvetica,sans-Serif" font-size="10.00"> </text>
<polyline fill="none" stroke="black" points="5.5,-63.5 111.5,-63.5 "/>
<text text-anchor="start" x="13.5" y="-51.5" font-family="Helvetica,sans-Serif" font-size="10.00">+ ClockTick()</text>
<text text-anchor="start" x="13.5" y="-40.5" font-family="Helvetica,sans-Serif" font-size="10.00">+ ~ClockTick()</text>
<text text-anchor="start" x="13.5" y="-29.5" font-family="Helvetica,sans-Serif" font-size="10.00">+ Attach()</text>
<text text-anchor="start" x="13.5" y="-18.5" font-family="Helvetica,sans-Serif" font-size="10.00">+ Detach()</text>
<text text-anchor="start" x="13.5" y="-7.5" font-family="Helvetica,sans-Serif" font-size="10.00">+ Notify()</text>
</a>
</g>
</g>
<!-- Node1&#45;&gt;Node2 -->
<g id="edge1" class="edge"><title>Node1&#45;&gt;Node2</title>
<path fill="none" stroke="midnightblue" d="M58.5,-139.008C58.5,-130.286 58.5,-121.34 58.5,-112.717"/>
<polygon fill="none" stroke="midnightblue" points="55.0001,-139.112 58.5,-149.112 62.0001,-139.112 55.0001,-139.112"/>
</g>
</g>
</svg>
