<?xml version="1.0" encoding="UTF-8" standalone="no"?>
<!DOCTYPE svg PUBLIC "-//W3C//DTD SVG 1.1//EN"
 "http://www.w3.org/Graphics/SVG/1.1/DTD/svg11.dtd">
<!-- Generated by graphviz version 2.38.0 (20140413.2041)
 -->
<!-- Title: src/creational/src/factorymethod/enchanted_maze_game.h Pages: 1 -->
<svg width="386pt" height="408pt"
 viewBox="0.00 0.00 386.00 408.00" xmlns="http://www.w3.org/2000/svg" xmlns:xlink="http://www.w3.org/1999/xlink">
<g id="graph0" class="graph" transform="scale(1 1) rotate(0) translate(4 404)">
<title>src/creational/src/factorymethod/enchanted_maze_game.h</title>
<polygon fill="white" stroke="none" points="-4,4 -4,-404 382,-404 382,4 -4,4"/>
<!-- Node1 -->
<g id="node1" class="node"><title>Node1</title>
<polygon fill="#bfbfbf" stroke="black" points="192,-358.5 192,-399.5 321,-399.5 321,-358.5 192,-358.5"/>
<text text-anchor="start" x="200" y="-387.5" font-family="Helvetica,sans-Serif" font-size="10.00">src/creational/src</text>
<text text-anchor="start" x="200" y="-376.5" font-family="Helvetica,sans-Serif" font-size="10.00">/factorymethod/enchanted</text>
<text text-anchor="middle" x="256.5" y="-365.5" font-family="Helvetica,sans-Serif" font-size="10.00">_maze_game.h</text>
</g>
<!-- Node2 -->
<g id="node2" class="node"><title>Node2</title>
<g id="a_node2"><a xlink:href="../../d2/df0/maze__game_8h.html" target="_top" xlink:title="../mazegame/maze_game.h">
<polygon fill="white" stroke="black" points="118.5,-302.5 118.5,-321.5 256.5,-321.5 256.5,-302.5 118.5,-302.5"/>
<text text-anchor="middle" x="187.5" y="-309.5" font-family="Helvetica,sans-Serif" font-size="10.00">../mazegame/maze_game.h</text>
</a>
</g>
</g>
<!-- Node1&#45;&gt;Node2 -->
<g id="edge1" class="edge"><title>Node1&#45;&gt;Node2</title>
<path fill="none" stroke="midnightblue" d="M235.798,-358.498C225.626,-348.915 213.538,-337.528 203.999,-328.543"/>
<polygon fill="midnightblue" stroke="midnightblue" points="206.364,-325.962 196.685,-321.652 201.564,-331.057 206.364,-325.962"/>
</g>
<!-- Node13 -->
<g id="node13" class="node"><title>Node13</title>
<g id="a_node13"><a xlink:href="../../d4/de3/spell_8h.html" target="_top" xlink:title="../mazeparts/spell.h">
<polygon fill="white" stroke="black" points="275,-302.5 275,-321.5 378,-321.5 378,-302.5 275,-302.5"/>
<text text-anchor="middle" x="326.5" y="-309.5" font-family="Helvetica,sans-Serif" font-size="10.00">../mazeparts/spell.h</text>
</a>
</g>
</g>
<!-- Node1&#45;&gt;Node13 -->
<g id="edge16" class="edge"><title>Node1&#45;&gt;Node13</title>
<path fill="none" stroke="midnightblue" d="M277.502,-358.498C287.822,-348.915 300.085,-337.528 309.762,-328.543"/>
<polygon fill="midnightblue" stroke="midnightblue" points="312.236,-331.022 317.182,-321.652 307.472,-325.892 312.236,-331.022"/>
</g>
<!-- Node3 -->
<g id="node3" class="node"><title>Node3</title>
<g id="a_node3"><a xlink:href="../../d6/d3b/maze__factory_8h.html" target="_top" xlink:title="../abstractfactory\l/maze_factory.h">
<polygon fill="white" stroke="black" points="102.5,-235.5 102.5,-265.5 192.5,-265.5 192.5,-235.5 102.5,-235.5"/>
<text text-anchor="start" x="110.5" y="-253.5" font-family="Helvetica,sans-Serif" font-size="10.00">../abstractfactory</text>
<text text-anchor="middle" x="147.5" y="-242.5" font-family="Helvetica,sans-Serif" font-size="10.00">/maze_factory.h</text>
</a>
</g>
</g>
<!-- Node2&#45;&gt;Node3 -->
<g id="edge2" class="edge"><title>Node2&#45;&gt;Node3</title>
<path fill="none" stroke="midnightblue" d="M181.769,-302.475C176.757,-295.019 169.249,-283.852 162.538,-273.869"/>
<polygon fill="midnightblue" stroke="midnightblue" points="165.411,-271.869 156.927,-265.523 159.602,-275.775 165.411,-271.869"/>
</g>
<!-- Node12 -->
<g id="node12" class="node"><title>Node12</title>
<g id="a_node12"><a xlink:href="../../d5/d18/maze__builder__interface_8h.html" target="_top" xlink:title="../builder/maze_builder\l_interface.h">
<polygon fill="white" stroke="black" points="200,-168.5 200,-198.5 315,-198.5 315,-168.5 200,-168.5"/>
<text text-anchor="start" x="208" y="-186.5" font-family="Helvetica,sans-Serif" font-size="10.00">../builder/maze_builder</text>
<text text-anchor="middle" x="257.5" y="-175.5" font-family="Helvetica,sans-Serif" font-size="10.00">_interface.h</text>
</a>
</g>
</g>
<!-- Node2&#45;&gt;Node12 -->
<g id="edge14" class="edge"><title>Node2&#45;&gt;Node12</title>
<path fill="none" stroke="midnightblue" d="M192.311,-302.305C202.968,-283.047 228.862,-236.254 244.62,-207.777"/>
<polygon fill="midnightblue" stroke="midnightblue" points="247.759,-209.332 249.538,-198.888 241.634,-205.943 247.759,-209.332"/>
</g>
<!-- Node4 -->
<g id="node4" class="node"><title>Node4</title>
<g id="a_node4"><a xlink:href="../../de/d6d/maze__factory__interface_8h.html" target="_top" xlink:title="maze_factory_interface.h">
<polygon fill="white" stroke="black" points="57,-174 57,-193 182,-193 182,-174 57,-174"/>
<text text-anchor="middle" x="119.5" y="-181" font-family="Helvetica,sans-Serif" font-size="10.00">maze_factory_interface.h</text>
</a>
</g>
</g>
<!-- Node3&#45;&gt;Node4 -->
<g id="edge3" class="edge"><title>Node3&#45;&gt;Node4</title>
<path fill="none" stroke="midnightblue" d="M141.424,-235.396C137.275,-225.763 131.74,-212.914 127.27,-202.537"/>
<polygon fill="midnightblue" stroke="midnightblue" points="130.416,-200.994 123.245,-193.195 123.987,-203.763 130.416,-200.994"/>
</g>
<!-- Node5 -->
<g id="node5" class="node"><title>Node5</title>
<g id="a_node5"><a xlink:href="../../dc/db8/maze_8h.html" target="_top" xlink:title="../mazeparts/maze.h">
<polygon fill="white" stroke="black" points="196,-112.5 196,-131.5 303,-131.5 303,-112.5 196,-112.5"/>
<text text-anchor="middle" x="249.5" y="-119.5" font-family="Helvetica,sans-Serif" font-size="10.00">../mazeparts/maze.h</text>
</a>
</g>
</g>
<!-- Node4&#45;&gt;Node5 -->
<g id="edge4" class="edge"><title>Node4&#45;&gt;Node5</title>
<path fill="none" stroke="midnightblue" d="M138.126,-173.975C159.943,-163.99 196.304,-147.348 221.517,-135.807"/>
<polygon fill="midnightblue" stroke="midnightblue" points="223.272,-138.853 230.909,-131.509 220.359,-132.488 223.272,-138.853"/>
</g>
<!-- Node10 -->
<g id="node10" class="node"><title>Node10</title>
<g id="a_node10"><a xlink:href="../../d1/d4f/wall_8h.html" target="_top" xlink:title="../mazeparts/wall.h">
<polygon fill="white" stroke="black" points="0,-56.5 0,-75.5 99,-75.5 99,-56.5 0,-56.5"/>
<text text-anchor="middle" x="49.5" y="-63.5" font-family="Helvetica,sans-Serif" font-size="10.00">../mazeparts/wall.h</text>
</a>
</g>
</g>
<!-- Node4&#45;&gt;Node10 -->
<g id="edge9" class="edge"><title>Node4&#45;&gt;Node10</title>
<path fill="none" stroke="midnightblue" d="M107.378,-173.829C95.513,-164.717 77.7673,-149.321 67.5,-132 59.0102,-117.678 54.3983,-99.2134 51.9757,-85.6263"/>
<polygon fill="midnightblue" stroke="midnightblue" points="55.406,-84.9058 50.4185,-75.5583 48.4882,-85.9758 55.406,-84.9058"/>
</g>
<!-- Node11 -->
<g id="node11" class="node"><title>Node11</title>
<g id="a_node11"><a xlink:href="../../d2/d59/door_8h.html" target="_top" xlink:title="../mazeparts/door.h">
<polygon fill="white" stroke="black" points="77,-112.5 77,-131.5 178,-131.5 178,-112.5 77,-112.5"/>
<text text-anchor="middle" x="127.5" y="-119.5" font-family="Helvetica,sans-Serif" font-size="10.00">../mazeparts/door.h</text>
</a>
</g>
</g>
<!-- Node4&#45;&gt;Node11 -->
<g id="edge11" class="edge"><title>Node4&#45;&gt;Node11</title>
<path fill="none" stroke="midnightblue" d="M120.646,-173.975C121.775,-165.58 123.536,-152.481 124.991,-141.663"/>
<polygon fill="midnightblue" stroke="midnightblue" points="128.492,-141.886 126.356,-131.509 121.555,-140.953 128.492,-141.886"/>
</g>
<!-- Node6 -->
<g id="node6" class="node"><title>Node6</title>
<g id="a_node6"><a xlink:href="../../d9/dc0/room_8h.html" target="_top" xlink:title="room.h">
<polygon fill="white" stroke="black" points="162,-56.5 162,-75.5 209,-75.5 209,-56.5 162,-56.5"/>
<text text-anchor="middle" x="185.5" y="-63.5" font-family="Helvetica,sans-Serif" font-size="10.00">room.h</text>
</a>
</g>
</g>
<!-- Node5&#45;&gt;Node6 -->
<g id="edge5" class="edge"><title>Node5&#45;&gt;Node6</title>
<path fill="none" stroke="midnightblue" d="M239.217,-112.324C229.664,-104.263 215.22,-92.0765 203.716,-82.3695"/>
<polygon fill="midnightblue" stroke="midnightblue" points="205.87,-79.6076 195.97,-75.8339 201.356,-84.9577 205.87,-79.6076"/>
</g>
<!-- Node9 -->
<g id="node9" class="node"><title>Node9</title>
<polygon fill="white" stroke="#bfbfbf" points="232,-56.5 232,-75.5 267,-75.5 267,-56.5 232,-56.5"/>
<text text-anchor="middle" x="249.5" y="-63.5" font-family="Helvetica,sans-Serif" font-size="10.00">map</text>
</g>
<!-- Node5&#45;&gt;Node9 -->
<g id="edge8" class="edge"><title>Node5&#45;&gt;Node9</title>
<path fill="none" stroke="midnightblue" d="M249.5,-112.083C249.5,-105.006 249.5,-94.8611 249.5,-85.9865"/>
<polygon fill="midnightblue" stroke="midnightblue" points="253,-85.751 249.5,-75.7511 246,-85.7511 253,-85.751"/>
</g>
<!-- Node7 -->
<g id="node7" class="node"><title>Node7</title>
<g id="a_node7"><a xlink:href="../../db/d1a/map__site__interface_8h.html" target="_top" xlink:title="map_site_interface.h">
<polygon fill="white" stroke="black" points="51,-0.5 51,-19.5 158,-19.5 158,-0.5 51,-0.5"/>
<text text-anchor="middle" x="104.5" y="-7.5" font-family="Helvetica,sans-Serif" font-size="10.00">map_site_interface.h</text>
</a>
</g>
</g>
<!-- Node6&#45;&gt;Node7 -->
<g id="edge6" class="edge"><title>Node6&#45;&gt;Node7</title>
<path fill="none" stroke="midnightblue" d="M172.486,-56.324C159.968,-47.979 140.818,-35.2122 126.029,-25.3524"/>
<polygon fill="midnightblue" stroke="midnightblue" points="127.744,-22.2894 117.482,-19.6545 123.861,-28.1137 127.744,-22.2894"/>
</g>
<!-- Node8 -->
<g id="node8" class="node"><title>Node8</title>
<g id="a_node8"><a xlink:href="../../dd/d04/direction_8h.html" target="_top" xlink:title="direction.h">
<polygon fill="white" stroke="black" points="176.5,-0.5 176.5,-19.5 238.5,-19.5 238.5,-0.5 176.5,-0.5"/>
<text text-anchor="middle" x="207.5" y="-7.5" font-family="Helvetica,sans-Serif" font-size="10.00">direction.h</text>
</a>
</g>
</g>
<!-- Node6&#45;&gt;Node8 -->
<g id="edge7" class="edge"><title>Node6&#45;&gt;Node8</title>
<path fill="none" stroke="midnightblue" d="M189.133,-56.083C192.112,-48.77 196.426,-38.1814 200.125,-29.1034"/>
<polygon fill="midnightblue" stroke="midnightblue" points="203.403,-30.3326 203.935,-19.7511 196.92,-27.6914 203.403,-30.3326"/>
</g>
<!-- Node10&#45;&gt;Node7 -->
<g id="edge10" class="edge"><title>Node10&#45;&gt;Node7</title>
<path fill="none" stroke="midnightblue" d="M58.5821,-56.083C66.6713,-48.1409 78.6954,-36.3354 88.4102,-26.7973"/>
<polygon fill="midnightblue" stroke="midnightblue" points="90.9033,-29.2545 95.5869,-19.7511 85.9991,-24.2595 90.9033,-29.2545"/>
</g>
<!-- Node11&#45;&gt;Node6 -->
<g id="edge13" class="edge"><title>Node11&#45;&gt;Node6</title>
<path fill="none" stroke="midnightblue" d="M136.819,-112.324C145.393,-104.341 158.312,-92.3128 168.688,-82.6529"/>
<polygon fill="midnightblue" stroke="midnightblue" points="171.078,-85.2098 176.012,-75.8339 166.308,-80.0865 171.078,-85.2098"/>
</g>
<!-- Node11&#45;&gt;Node7 -->
<g id="edge12" class="edge"><title>Node11&#45;&gt;Node7</title>
<path fill="none" stroke="midnightblue" d="M125.695,-112.368C121.984,-94.617 113.421,-53.6664 108.389,-29.5974"/>
<polygon fill="midnightblue" stroke="midnightblue" points="111.769,-28.6634 106.296,-19.5914 104.917,-30.0961 111.769,-28.6634"/>
</g>
<!-- Node12&#45;&gt;Node5 -->
<g id="edge15" class="edge"><title>Node12&#45;&gt;Node5</title>
<path fill="none" stroke="midnightblue" d="M255.604,-168.399C254.526,-160.377 253.162,-150.233 251.997,-141.569"/>
<polygon fill="midnightblue" stroke="midnightblue" points="255.465,-141.102 250.664,-131.658 248.528,-142.035 255.465,-141.102"/>
</g>
<!-- Node14 -->
<g id="node14" class="node"><title>Node14</title>
<polygon fill="white" stroke="#bfbfbf" points="306,-241 306,-260 347,-260 347,-241 306,-241"/>
<text text-anchor="middle" x="326.5" y="-248" font-family="Helvetica,sans-Serif" font-size="10.00">string</text>
</g>
<!-- Node13&#45;&gt;Node14 -->
<g id="edge17" class="edge"><title>Node13&#45;&gt;Node14</title>
<path fill="none" stroke="midnightblue" d="M326.5,-302.475C326.5,-294.08 326.5,-280.981 326.5,-270.163"/>
<polygon fill="midnightblue" stroke="midnightblue" points="330,-270.009 326.5,-260.009 323,-270.009 330,-270.009"/>
</g>
</g>
</svg>
