<?xml version="1.0" encoding="UTF-8" standalone="no"?>
<!DOCTYPE svg PUBLIC "-//W3C//DTD SVG 1.1//EN"
 "http://www.w3.org/Graphics/SVG/1.1/DTD/svg11.dtd">
<!-- Generated by graphviz version 2.38.0 (20140413.2041)
 -->
<!-- Title: operational::visitor::PricingVisitor::VisitChassis Pages: 1 -->
<svg width="324pt" height="39pt"
 viewBox="0.00 0.00 324.00 39.00" xmlns="http://www.w3.org/2000/svg" xmlns:xlink="http://www.w3.org/1999/xlink">
<g id="graph0" class="graph" transform="scale(1 1) rotate(0) translate(4 35)">
<title>operational::visitor::PricingVisitor::VisitChassis</title>
<polygon fill="white" stroke="none" points="-4,4 -4,-35 320,-35 320,4 -4,4"/>
<!-- Node1 -->
<g id="node1" class="node"><title>Node1</title>
<polygon fill="#bfbfbf" stroke="black" points="0,-0.5 0,-30.5 141,-30.5 141,-0.5 0,-0.5"/>
<text text-anchor="start" x="8" y="-18.5" font-family="Helvetica,sans-Serif" font-size="10.00">operational::visitor</text>
<text text-anchor="middle" x="70.5" y="-7.5" font-family="Helvetica,sans-Serif" font-size="10.00">::PricingVisitor::VisitChassis</text>
</g>
<!-- Node2 -->
<g id="node2" class="node"><title>Node2</title>
<g id="a_node2"><a xlink:href="../../d2/de1/classoperational_1_1visitor_1_1_chassis_interface.html#a4888879b87e91bce1da97591c5fcdb5c" target="_top" xlink:title="operational::visitor\l::ChassisInterface::GetPrice">
<polygon fill="white" stroke="black" points="177,-0.5 177,-30.5 316,-30.5 316,-0.5 177,-0.5"/>
<text text-anchor="start" x="185" y="-18.5" font-family="Helvetica,sans-Serif" font-size="10.00">operational::visitor</text>
<text text-anchor="middle" x="246.5" y="-7.5" font-family="Helvetica,sans-Serif" font-size="10.00">::ChassisInterface::GetPrice</text>
</a>
</g>
</g>
<!-- Node1&#45;&gt;Node2 -->
<g id="edge1" class="edge"><title>Node1&#45;&gt;Node2</title>
<path fill="none" stroke="midnightblue" d="M141.02,-15.5C149.524,-15.5 158.261,-15.5 166.887,-15.5"/>
<polygon fill="midnightblue" stroke="midnightblue" points="166.942,-19.0001 176.942,-15.5 166.942,-12.0001 166.942,-19.0001"/>
</g>
</g>
</svg>
