<?xml version="1.0" encoding="UTF-8" standalone="no"?>
<!DOCTYPE svg PUBLIC "-//W3C//DTD SVG 1.1//EN"
 "http://www.w3.org/Graphics/SVG/1.1/DTD/svg11.dtd">
<!-- Generated by graphviz version 2.38.0 (20140413.2041)
 -->
<!-- Title: src/creational/src/mazeparts/door_needing_spell.cc Pages: 1 -->
<svg width="196pt" height="274pt"
 viewBox="0.00 0.00 196.00 274.00" xmlns="http://www.w3.org/2000/svg" xmlns:xlink="http://www.w3.org/1999/xlink">
<g id="graph0" class="graph" transform="scale(1 1) rotate(0) translate(4 270)">
<title>src/creational/src/mazeparts/door_needing_spell.cc</title>
<polygon fill="white" stroke="none" points="-4,4 -4,-270 192,-270 192,4 -4,4"/>
<!-- Node1 -->
<g id="node1" class="node"><title>Node1</title>
<polygon fill="#bfbfbf" stroke="black" points="45.5,-224.5 45.5,-265.5 171.5,-265.5 171.5,-224.5 45.5,-224.5"/>
<text text-anchor="start" x="53.5" y="-253.5" font-family="Helvetica,sans-Serif" font-size="10.00">src/creational/src</text>
<text text-anchor="start" x="53.5" y="-242.5" font-family="Helvetica,sans-Serif" font-size="10.00">/mazeparts/door_needing</text>
<text text-anchor="middle" x="108.5" y="-231.5" font-family="Helvetica,sans-Serif" font-size="10.00">_spell.cc</text>
</g>
<!-- Node2 -->
<g id="node2" class="node"><title>Node2</title>
<g id="a_node2"><a xlink:href="../../d1/d47/door__needing__spell_8h.html" target="_top" xlink:title="door_needing_spell.h">
<polygon fill="white" stroke="black" points="54.5,-168.5 54.5,-187.5 162.5,-187.5 162.5,-168.5 54.5,-168.5"/>
<text text-anchor="middle" x="108.5" y="-175.5" font-family="Helvetica,sans-Serif" font-size="10.00">door_needing_spell.h</text>
</a>
</g>
</g>
<!-- Node1&#45;&gt;Node2 -->
<g id="edge1" class="edge"><title>Node1&#45;&gt;Node2</title>
<path fill="none" stroke="midnightblue" d="M108.5,-224.498C108.5,-216.065 108.5,-206.235 108.5,-197.874"/>
<polygon fill="midnightblue" stroke="midnightblue" points="112,-197.652 108.5,-187.652 105,-197.653 112,-197.652"/>
</g>
<!-- Node3 -->
<g id="node3" class="node"><title>Node3</title>
<g id="a_node3"><a xlink:href="../../d2/d59/door_8h.html" target="_top" xlink:title="door.h">
<polygon fill="white" stroke="black" points="36.5,-112.5 36.5,-131.5 80.5,-131.5 80.5,-112.5 36.5,-112.5"/>
<text text-anchor="middle" x="58.5" y="-119.5" font-family="Helvetica,sans-Serif" font-size="10.00">door.h</text>
</a>
</g>
</g>
<!-- Node2&#45;&gt;Node3 -->
<g id="edge2" class="edge"><title>Node2&#45;&gt;Node3</title>
<path fill="none" stroke="midnightblue" d="M100.244,-168.083C93.0353,-160.298 82.3902,-148.801 73.6542,-139.367"/>
<polygon fill="midnightblue" stroke="midnightblue" points="75.9651,-136.711 66.6028,-131.751 70.8288,-141.467 75.9651,-136.711"/>
</g>
<!-- Node5 -->
<g id="node5" class="node"><title>Node5</title>
<g id="a_node5"><a xlink:href="../../d9/dc0/room_8h.html" target="_top" xlink:title="room.h">
<polygon fill="white" stroke="black" points="82,-56.5 82,-75.5 129,-75.5 129,-56.5 82,-56.5"/>
<text text-anchor="middle" x="105.5" y="-63.5" font-family="Helvetica,sans-Serif" font-size="10.00">room.h</text>
</a>
</g>
</g>
<!-- Node2&#45;&gt;Node5 -->
<g id="edge7" class="edge"><title>Node2&#45;&gt;Node5</title>
<path fill="none" stroke="midnightblue" d="M108.265,-168.368C107.78,-150.617 106.664,-109.666 106.007,-85.5974"/>
<polygon fill="midnightblue" stroke="midnightblue" points="109.506,-85.4922 105.734,-75.5914 102.508,-85.6832 109.506,-85.4922"/>
</g>
<!-- Node7 -->
<g id="node7" class="node"><title>Node7</title>
<g id="a_node7"><a xlink:href="../../d4/de3/spell_8h.html" target="_top" xlink:title="spell.h">
<polygon fill="white" stroke="black" points="142,-112.5 142,-131.5 187,-131.5 187,-112.5 142,-112.5"/>
<text text-anchor="middle" x="164.5" y="-119.5" font-family="Helvetica,sans-Serif" font-size="10.00">spell.h</text>
</a>
</g>
</g>
<!-- Node2&#45;&gt;Node7 -->
<g id="edge8" class="edge"><title>Node2&#45;&gt;Node7</title>
<path fill="none" stroke="midnightblue" d="M117.497,-168.324C125.694,-160.42 138.006,-148.548 147.972,-138.938"/>
<polygon fill="midnightblue" stroke="midnightblue" points="150.57,-141.295 155.339,-131.834 145.711,-136.256 150.57,-141.295"/>
</g>
<!-- Node4 -->
<g id="node4" class="node"><title>Node4</title>
<g id="a_node4"><a xlink:href="../../db/d1a/map__site__interface_8h.html" target="_top" xlink:title="map_site_interface.h">
<polygon fill="white" stroke="black" points="0,-0.5 0,-19.5 107,-19.5 107,-0.5 0,-0.5"/>
<text text-anchor="middle" x="53.5" y="-7.5" font-family="Helvetica,sans-Serif" font-size="10.00">map_site_interface.h</text>
</a>
</g>
</g>
<!-- Node3&#45;&gt;Node4 -->
<g id="edge3" class="edge"><title>Node3&#45;&gt;Node4</title>
<path fill="none" stroke="midnightblue" d="M58.1077,-112.368C57.3008,-94.617 55.4394,-53.6664 54.3453,-29.5974"/>
<polygon fill="midnightblue" stroke="midnightblue" points="57.8411,-29.4221 53.8905,-19.5914 50.8483,-29.7401 57.8411,-29.4221"/>
</g>
<!-- Node3&#45;&gt;Node5 -->
<g id="edge4" class="edge"><title>Node3&#45;&gt;Node5</title>
<path fill="none" stroke="midnightblue" d="M66.2611,-112.083C73.0368,-104.298 83.0432,-92.8015 91.2551,-83.3665"/>
<polygon fill="midnightblue" stroke="midnightblue" points="93.9581,-85.592 97.8833,-75.7511 88.678,-80.9963 93.9581,-85.592"/>
</g>
<!-- Node5&#45;&gt;Node4 -->
<g id="edge5" class="edge"><title>Node5&#45;&gt;Node4</title>
<path fill="none" stroke="midnightblue" d="M96.9133,-56.083C89.341,-48.2195 78.1218,-36.5688 68.9856,-27.0813"/>
<polygon fill="midnightblue" stroke="midnightblue" points="71.3845,-24.5266 61.927,-19.7511 66.3423,-29.3821 71.3845,-24.5266"/>
</g>
<!-- Node6 -->
<g id="node6" class="node"><title>Node6</title>
<g id="a_node6"><a xlink:href="../../dd/d04/direction_8h.html" target="_top" xlink:title="direction.h">
<polygon fill="white" stroke="black" points="125.5,-0.5 125.5,-19.5 187.5,-19.5 187.5,-0.5 125.5,-0.5"/>
<text text-anchor="middle" x="156.5" y="-7.5" font-family="Helvetica,sans-Serif" font-size="10.00">direction.h</text>
</a>
</g>
</g>
<!-- Node5&#45;&gt;Node6 -->
<g id="edge6" class="edge"><title>Node5&#45;&gt;Node6</title>
<path fill="none" stroke="midnightblue" d="M113.922,-56.083C121.348,-48.2195 132.352,-36.5688 141.312,-27.0813"/>
<polygon fill="midnightblue" stroke="midnightblue" points="143.913,-29.4244 148.235,-19.7511 138.824,-24.618 143.913,-29.4244"/>
</g>
<!-- Node8 -->
<g id="node8" class="node"><title>Node8</title>
<polygon fill="white" stroke="#bfbfbf" points="147,-56.5 147,-75.5 188,-75.5 188,-56.5 147,-56.5"/>
<text text-anchor="middle" x="167.5" y="-63.5" font-family="Helvetica,sans-Serif" font-size="10.00">string</text>
</g>
<!-- Node7&#45;&gt;Node8 -->
<g id="edge9" class="edge"><title>Node7&#45;&gt;Node8</title>
<path fill="none" stroke="midnightblue" d="M164.995,-112.083C165.389,-105.006 165.952,-94.8611 166.445,-85.9865"/>
<polygon fill="midnightblue" stroke="midnightblue" points="169.954,-85.9299 167.014,-75.7511 162.964,-85.5415 169.954,-85.9299"/>
</g>
</g>
</svg>
