<?xml version="1.0" encoding="UTF-8" standalone="no"?>
<!DOCTYPE svg PUBLIC "-//W3C//DTD SVG 1.1//EN"
 "http://www.w3.org/Graphics/SVG/1.1/DTD/svg11.dtd">
<!-- Generated by graphviz version 2.38.0 (20140413.2041)
 -->
<!-- Title: src/structural/src/composite/equipment_interface.h Pages: 1 -->
<svg width="191pt" height="106pt"
 viewBox="0.00 0.00 191.00 106.00" xmlns="http://www.w3.org/2000/svg" xmlns:xlink="http://www.w3.org/1999/xlink">
<g id="graph0" class="graph" transform="scale(1 1) rotate(0) translate(4 102)">
<title>src/structural/src/composite/equipment_interface.h</title>
<polygon fill="white" stroke="none" points="-4,4 -4,-102 187,-102 187,4 -4,4"/>
<!-- Node1 -->
<g id="node1" class="node"><title>Node1</title>
<polygon fill="#bfbfbf" stroke="black" points="36,-56.5 36,-97.5 149,-97.5 149,-56.5 36,-56.5"/>
<text text-anchor="start" x="44" y="-85.5" font-family="Helvetica,sans-Serif" font-size="10.00">src/structural/src</text>
<text text-anchor="start" x="44" y="-74.5" font-family="Helvetica,sans-Serif" font-size="10.00">/composite/equipment</text>
<text text-anchor="middle" x="92.5" y="-63.5" font-family="Helvetica,sans-Serif" font-size="10.00">_interface.h</text>
</g>
<!-- Node2 -->
<g id="node2" class="node"><title>Node2</title>
<g id="a_node2"><a xlink:href="../../d9/d51/watt_8h.html" target="_top" xlink:title="watt.h">
<polygon fill="white" stroke="black" points="0,-0.5 0,-19.5 43,-19.5 43,-0.5 0,-0.5"/>
<text text-anchor="middle" x="21.5" y="-7.5" font-family="Helvetica,sans-Serif" font-size="10.00">watt.h</text>
</a>
</g>
</g>
<!-- Node1&#45;&gt;Node2 -->
<g id="edge1" class="edge"><title>Node1&#45;&gt;Node2</title>
<path fill="none" stroke="midnightblue" d="M71.1977,-56.4979C60.7307,-46.9154 48.2922,-35.5281 38.4775,-26.5428"/>
<polygon fill="midnightblue" stroke="midnightblue" points="40.6905,-23.8235 30.9512,-19.6525 35.9637,-28.9866 40.6905,-23.8235"/>
</g>
<!-- Node3 -->
<g id="node3" class="node"><title>Node3</title>
<g id="a_node3"><a xlink:href="../../d1/dcf/currency_8h.html" target="_top" xlink:title="currency.h">
<polygon fill="white" stroke="black" points="61.5,-0.5 61.5,-19.5 123.5,-19.5 123.5,-0.5 61.5,-0.5"/>
<text text-anchor="middle" x="92.5" y="-7.5" font-family="Helvetica,sans-Serif" font-size="10.00">currency.h</text>
</a>
</g>
</g>
<!-- Node1&#45;&gt;Node3 -->
<g id="edge2" class="edge"><title>Node1&#45;&gt;Node3</title>
<path fill="none" stroke="midnightblue" d="M92.5,-56.4979C92.5,-48.0653 92.5,-38.2351 92.5,-29.874"/>
<polygon fill="midnightblue" stroke="midnightblue" points="96.0001,-29.6525 92.5,-19.6525 89.0001,-29.6525 96.0001,-29.6525"/>
</g>
<!-- Node4 -->
<g id="node4" class="node"><title>Node4</title>
<polygon fill="white" stroke="#bfbfbf" points="142,-0.5 142,-19.5 183,-19.5 183,-0.5 142,-0.5"/>
<text text-anchor="middle" x="162.5" y="-7.5" font-family="Helvetica,sans-Serif" font-size="10.00">string</text>
</g>
<!-- Node1&#45;&gt;Node4 -->
<g id="edge3" class="edge"><title>Node1&#45;&gt;Node4</title>
<path fill="none" stroke="midnightblue" d="M113.502,-56.4979C123.822,-46.9154 136.085,-35.5281 145.762,-26.5428"/>
<polygon fill="midnightblue" stroke="midnightblue" points="148.236,-29.0218 153.182,-19.6525 143.472,-23.8922 148.236,-29.0218"/>
</g>
</g>
</svg>
