<?xml version="1.0" encoding="UTF-8" standalone="no"?>
<!DOCTYPE svg PUBLIC "-//W3C//DTD SVG 1.1//EN"
 "http://www.w3.org/Graphics/SVG/1.1/DTD/svg11.dtd">
<!-- Generated by graphviz version 2.38.0 (20140413.2041)
 -->
<!-- Title: src/operational/src/mediator/list_box.h Pages: 1 -->
<svg width="362pt" height="207pt"
 viewBox="0.00 0.00 361.50 207.00" xmlns="http://www.w3.org/2000/svg" xmlns:xlink="http://www.w3.org/1999/xlink">
<g id="graph0" class="graph" transform="scale(1 1) rotate(0) translate(4 203)">
<title>src/operational/src/mediator/list_box.h</title>
<polygon fill="white" stroke="none" points="-4,4 -4,-203 357.5,-203 357.5,4 -4,4"/>
<!-- Node1 -->
<g id="node1" class="node"><title>Node1</title>
<polygon fill="#bfbfbf" stroke="black" points="100.5,-168.5 100.5,-198.5 202.5,-198.5 202.5,-168.5 100.5,-168.5"/>
<text text-anchor="start" x="108.5" y="-186.5" font-family="Helvetica,sans-Serif" font-size="10.00">src/operational/src</text>
<text text-anchor="middle" x="151.5" y="-175.5" font-family="Helvetica,sans-Serif" font-size="10.00">/mediator/list_box.h</text>
</g>
<!-- Node2 -->
<g id="node2" class="node"><title>Node2</title>
<g id="a_node2"><a xlink:href="../../d5/d0b/mediator__widget__interface_8h.html" target="_top" xlink:title="mediator_widget_interface.h">
<polygon fill="white" stroke="black" points="0,-56.5 0,-75.5 137,-75.5 137,-56.5 0,-56.5"/>
<text text-anchor="middle" x="68.5" y="-63.5" font-family="Helvetica,sans-Serif" font-size="10.00">mediator_widget_interface.h</text>
</a>
</g>
</g>
<!-- Node1&#45;&gt;Node2 -->
<g id="edge1" class="edge"><title>Node1&#45;&gt;Node2</title>
<path fill="none" stroke="midnightblue" d="M100.217,-175.762C73.1667,-169.312 42.2048,-156.692 25.5,-132 13.9431,-114.918 31.3938,-95.1331 47.4056,-81.9206"/>
<polygon fill="midnightblue" stroke="midnightblue" points="49.7251,-84.5511 55.4863,-75.6595 45.4377,-79.0177 49.7251,-84.5511"/>
</g>
<!-- Node4 -->
<g id="node4" class="node"><title>Node4</title>
<g id="a_node4"><a xlink:href="../../d6/d19/dialog__director__interface_8h.html" target="_top" xlink:title="dialog_director_interface.h">
<polygon fill="white" stroke="black" points="34.5,-112.5 34.5,-131.5 164.5,-131.5 164.5,-112.5 34.5,-112.5"/>
<text text-anchor="middle" x="99.5" y="-119.5" font-family="Helvetica,sans-Serif" font-size="10.00">dialog_director_interface.h</text>
</a>
</g>
</g>
<!-- Node1&#45;&gt;Node4 -->
<g id="edge3" class="edge"><title>Node1&#45;&gt;Node4</title>
<path fill="none" stroke="midnightblue" d="M139.177,-168.399C131.543,-159.664 121.709,-148.413 113.742,-139.296"/>
<polygon fill="midnightblue" stroke="midnightblue" points="116.282,-136.884 107.066,-131.658 111.012,-141.491 116.282,-136.884"/>
</g>
<!-- Node5 -->
<g id="node5" class="node"><title>Node5</title>
<polygon fill="white" stroke="#bfbfbf" points="183,-112.5 183,-131.5 224,-131.5 224,-112.5 183,-112.5"/>
<text text-anchor="middle" x="203.5" y="-119.5" font-family="Helvetica,sans-Serif" font-size="10.00">string</text>
</g>
<!-- Node1&#45;&gt;Node5 -->
<g id="edge5" class="edge"><title>Node1&#45;&gt;Node5</title>
<path fill="none" stroke="midnightblue" d="M163.823,-168.399C171.457,-159.664 181.291,-148.413 189.258,-139.296"/>
<polygon fill="midnightblue" stroke="midnightblue" points="191.988,-141.491 195.934,-131.658 186.718,-136.884 191.988,-141.491"/>
</g>
<!-- Node6 -->
<g id="node6" class="node"><title>Node6</title>
<g id="a_node6"><a xlink:href="../../da/d23/list_8h.html" target="_top" xlink:title="../iterator/list.h">
<polygon fill="white" stroke="black" points="242.5,-112.5 242.5,-131.5 322.5,-131.5 322.5,-112.5 242.5,-112.5"/>
<text text-anchor="middle" x="282.5" y="-119.5" font-family="Helvetica,sans-Serif" font-size="10.00">../iterator/list.h</text>
</a>
</g>
</g>
<!-- Node1&#45;&gt;Node6 -->
<g id="edge6" class="edge"><title>Node1&#45;&gt;Node6</title>
<path fill="none" stroke="midnightblue" d="M182.545,-168.399C204.23,-158.55 232.959,-145.501 254.051,-135.922"/>
<polygon fill="midnightblue" stroke="midnightblue" points="255.781,-138.98 263.438,-131.658 252.886,-132.607 255.781,-138.98"/>
</g>
<!-- Node3 -->
<g id="node3" class="node"><title>Node3</title>
<g id="a_node3"><a xlink:href="../../d4/da7/mouse__event_8h.html" target="_top" xlink:title="mouse_event.h">
<polygon fill="white" stroke="black" points="27.5,-0.5 27.5,-19.5 109.5,-19.5 109.5,-0.5 27.5,-0.5"/>
<text text-anchor="middle" x="68.5" y="-7.5" font-family="Helvetica,sans-Serif" font-size="10.00">mouse_event.h</text>
</a>
</g>
</g>
<!-- Node2&#45;&gt;Node3 -->
<g id="edge2" class="edge"><title>Node2&#45;&gt;Node3</title>
<path fill="none" stroke="midnightblue" d="M68.5,-56.083C68.5,-49.0059 68.5,-38.8611 68.5,-29.9865"/>
<polygon fill="midnightblue" stroke="midnightblue" points="72.0001,-29.751 68.5,-19.7511 65.0001,-29.7511 72.0001,-29.751"/>
</g>
<!-- Node4&#45;&gt;Node2 -->
<g id="edge4" class="edge"><title>Node4&#45;&gt;Node2</title>
<path fill="none" stroke="midnightblue" d="M94.381,-112.083C90.0925,-104.613 83.8418,-93.7244 78.5577,-84.5199"/>
<polygon fill="midnightblue" stroke="midnightblue" points="81.5379,-82.6811 73.5238,-75.7511 75.4671,-86.1662 81.5379,-82.6811"/>
</g>
<!-- Node7 -->
<g id="node7" class="node"><title>Node7</title>
<g id="a_node7"><a xlink:href="../../d9/d71/list__iterator_8h.html" target="_top" xlink:title="list_iterator.h">
<polygon fill="white" stroke="black" points="212,-56.5 212,-75.5 285,-75.5 285,-56.5 212,-56.5"/>
<text text-anchor="middle" x="248.5" y="-63.5" font-family="Helvetica,sans-Serif" font-size="10.00">list_iterator.h</text>
</a>
</g>
</g>
<!-- Node6&#45;&gt;Node7 -->
<g id="edge7" class="edge"><title>Node6&#45;&gt;Node7</title>
<path fill="none" stroke="midnightblue" d="M276.886,-112.083C272.133,-104.534 265.182,-93.4948 259.348,-84.2298"/>
<polygon fill="midnightblue" stroke="midnightblue" points="262.3,-82.3486 254.01,-75.7511 256.376,-86.0783 262.3,-82.3486"/>
</g>
<!-- Node9 -->
<g id="node9" class="node"><title>Node9</title>
<g id="a_node9"><a xlink:href="../../dd/d8c/list__interface_8h.html" target="_top" xlink:title="list_interface.h">
<polygon fill="white" stroke="black" points="273.5,-0.5 273.5,-19.5 353.5,-19.5 353.5,-0.5 273.5,-0.5"/>
<text text-anchor="middle" x="313.5" y="-7.5" font-family="Helvetica,sans-Serif" font-size="10.00">list_interface.h</text>
</a>
</g>
</g>
<!-- Node6&#45;&gt;Node9 -->
<g id="edge10" class="edge"><title>Node6&#45;&gt;Node9</title>
<path fill="none" stroke="midnightblue" d="M284.933,-112.368C289.958,-94.5366 301.58,-53.2953 308.351,-29.2717"/>
<polygon fill="midnightblue" stroke="midnightblue" points="311.735,-30.1659 311.079,-19.5914 304.997,-28.2671 311.735,-30.1659"/>
</g>
<!-- Node8 -->
<g id="node8" class="node"><title>Node8</title>
<g id="a_node8"><a xlink:href="../../d6/da4/iterator__interface_8h.html" target="_top" xlink:title="iterator_interface.h">
<polygon fill="white" stroke="black" points="158,-0.5 158,-19.5 255,-19.5 255,-0.5 158,-0.5"/>
<text text-anchor="middle" x="206.5" y="-7.5" font-family="Helvetica,sans-Serif" font-size="10.00">iterator_interface.h</text>
</a>
</g>
</g>
<!-- Node7&#45;&gt;Node8 -->
<g id="edge8" class="edge"><title>Node7&#45;&gt;Node8</title>
<path fill="none" stroke="midnightblue" d="M241.565,-56.083C235.571,-48.3768 226.748,-37.0333 219.452,-27.6531"/>
<polygon fill="midnightblue" stroke="midnightblue" points="222.209,-25.4958 213.306,-19.7511 216.683,-29.7934 222.209,-25.4958"/>
</g>
<!-- Node7&#45;&gt;Node9 -->
<g id="edge9" class="edge"><title>Node7&#45;&gt;Node9</title>
<path fill="none" stroke="midnightblue" d="M258.943,-56.324C268.646,-48.2631 283.315,-36.0765 295,-26.3695"/>
<polygon fill="midnightblue" stroke="midnightblue" points="297.411,-28.9163 302.867,-19.8339 292.938,-23.532 297.411,-28.9163"/>
</g>
</g>
</svg>
