<?xml version="1.0" encoding="UTF-8" standalone="no"?>
<!DOCTYPE svg PUBLIC "-//W3C//DTD SVG 1.1//EN"
 "http://www.w3.org/Graphics/SVG/1.1/DTD/svg11.dtd">
<!-- Generated by graphviz version 2.38.0 (20140413.2041)
 -->
<!-- Title: src/structural/src/composite/composite_equipment.h Pages: 1 -->
<svg width="360pt" height="229pt"
 viewBox="0.00 0.00 359.50 229.00" xmlns="http://www.w3.org/2000/svg" xmlns:xlink="http://www.w3.org/1999/xlink">
<g id="graph0" class="graph" transform="scale(1 1) rotate(0) translate(4 225)">
<title>src/structural/src/composite/composite_equipment.h</title>
<polygon fill="white" stroke="none" points="-4,4 -4,-225 355.5,-225 355.5,4 -4,4"/>
<!-- Node1 -->
<g id="node1" class="node"><title>Node1</title>
<polygon fill="#bfbfbf" stroke="black" points="118,-179.5 118,-220.5 231,-220.5 231,-179.5 118,-179.5"/>
<text text-anchor="start" x="126" y="-208.5" font-family="Helvetica,sans-Serif" font-size="10.00">src/structural/src</text>
<text text-anchor="start" x="126" y="-197.5" font-family="Helvetica,sans-Serif" font-size="10.00">/composite/composite</text>
<text text-anchor="middle" x="174.5" y="-186.5" font-family="Helvetica,sans-Serif" font-size="10.00">_equipment.h</text>
</g>
<!-- Node2 -->
<g id="node2" class="node"><title>Node2</title>
<g id="a_node2"><a xlink:href="../../d4/d70/equipment__interface_8h.html" target="_top" xlink:title="equipment_interface.h">
<polygon fill="white" stroke="black" points="34.5,-118 34.5,-137 146.5,-137 146.5,-118 34.5,-118"/>
<text text-anchor="middle" x="90.5" y="-125" font-family="Helvetica,sans-Serif" font-size="10.00">equipment_interface.h</text>
</a>
</g>
</g>
<!-- Node1&#45;&gt;Node2 -->
<g id="edge1" class="edge"><title>Node1&#45;&gt;Node2</title>
<path fill="none" stroke="midnightblue" d="M151.101,-179.362C137.691,-168.107 121.11,-154.19 108.683,-143.761"/>
<polygon fill="midnightblue" stroke="midnightblue" points="110.744,-140.921 100.834,-137.173 106.244,-146.283 110.744,-140.921"/>
</g>
<!-- Node5 -->
<g id="node5" class="node"><title>Node5</title>
<polygon fill="white" stroke="#bfbfbf" points="145,-56.5 145,-75.5 186,-75.5 186,-56.5 145,-56.5"/>
<text text-anchor="middle" x="165.5" y="-63.5" font-family="Helvetica,sans-Serif" font-size="10.00">string</text>
</g>
<!-- Node1&#45;&gt;Node5 -->
<g id="edge5" class="edge"><title>Node1&#45;&gt;Node5</title>
<path fill="none" stroke="midnightblue" d="M173.153,-179.238C171.434,-154.03 168.482,-110.738 166.791,-85.9341"/>
<polygon fill="midnightblue" stroke="midnightblue" points="170.264,-85.4243 166.092,-75.6856 163.281,-85.9006 170.264,-85.4243"/>
</g>
<!-- Node6 -->
<g id="node6" class="node"><title>Node6</title>
<g id="a_node6"><a xlink:href="../../da/d23/list_8h.html" target="_top" xlink:title="../../../operational\l/src/iterator/list.h">
<polygon fill="white" stroke="black" points="203,-112.5 203,-142.5 294,-142.5 294,-112.5 203,-112.5"/>
<text text-anchor="start" x="211" y="-130.5" font-family="Helvetica,sans-Serif" font-size="10.00">../../../operational</text>
<text text-anchor="middle" x="248.5" y="-119.5" font-family="Helvetica,sans-Serif" font-size="10.00">/src/iterator/list.h</text>
</a>
</g>
</g>
<!-- Node1&#45;&gt;Node6 -->
<g id="edge6" class="edge"><title>Node1&#45;&gt;Node6</title>
<path fill="none" stroke="midnightblue" d="M195.113,-179.362C204.697,-170.232 216.118,-159.35 225.933,-150"/>
<polygon fill="midnightblue" stroke="midnightblue" points="228.568,-152.323 233.394,-142.892 223.739,-147.255 228.568,-152.323"/>
</g>
<!-- Node3 -->
<g id="node3" class="node"><title>Node3</title>
<g id="a_node3"><a xlink:href="../../d9/d51/watt_8h.html" target="_top" xlink:title="watt.h">
<polygon fill="white" stroke="black" points="0,-56.5 0,-75.5 43,-75.5 43,-56.5 0,-56.5"/>
<text text-anchor="middle" x="21.5" y="-63.5" font-family="Helvetica,sans-Serif" font-size="10.00">watt.h</text>
</a>
</g>
</g>
<!-- Node2&#45;&gt;Node3 -->
<g id="edge2" class="edge"><title>Node2&#45;&gt;Node3</title>
<path fill="none" stroke="midnightblue" d="M80.614,-117.975C69.854,-108.697 52.429,-93.6706 39.2788,-82.331"/>
<polygon fill="midnightblue" stroke="midnightblue" points="41.2265,-79.389 31.3677,-75.5091 36.6552,-84.6902 41.2265,-79.389"/>
</g>
<!-- Node4 -->
<g id="node4" class="node"><title>Node4</title>
<g id="a_node4"><a xlink:href="../../d1/dcf/currency_8h.html" target="_top" xlink:title="currency.h">
<polygon fill="white" stroke="black" points="61.5,-56.5 61.5,-75.5 123.5,-75.5 123.5,-56.5 61.5,-56.5"/>
<text text-anchor="middle" x="92.5" y="-63.5" font-family="Helvetica,sans-Serif" font-size="10.00">currency.h</text>
</a>
</g>
</g>
<!-- Node2&#45;&gt;Node4 -->
<g id="edge3" class="edge"><title>Node2&#45;&gt;Node4</title>
<path fill="none" stroke="midnightblue" d="M90.7866,-117.975C91.0687,-109.58 91.5091,-96.4806 91.8727,-85.6631"/>
<polygon fill="midnightblue" stroke="midnightblue" points="95.376,-85.6211 92.214,-75.5091 88.3799,-85.3858 95.376,-85.6211"/>
</g>
<!-- Node2&#45;&gt;Node5 -->
<g id="edge4" class="edge"><title>Node2&#45;&gt;Node5</title>
<path fill="none" stroke="midnightblue" d="M101.246,-117.975C113.053,-108.608 132.243,-93.3839 146.582,-82.0081"/>
<polygon fill="midnightblue" stroke="midnightblue" points="149.115,-84.4661 154.774,-75.5091 144.765,-78.9822 149.115,-84.4661"/>
</g>
<!-- Node7 -->
<g id="node7" class="node"><title>Node7</title>
<g id="a_node7"><a xlink:href="../../d9/d71/list__iterator_8h.html" target="_top" xlink:title="list_iterator.h">
<polygon fill="white" stroke="black" points="210,-56.5 210,-75.5 283,-75.5 283,-56.5 210,-56.5"/>
<text text-anchor="middle" x="246.5" y="-63.5" font-family="Helvetica,sans-Serif" font-size="10.00">list_iterator.h</text>
</a>
</g>
</g>
<!-- Node6&#45;&gt;Node7 -->
<g id="edge7" class="edge"><title>Node6&#45;&gt;Node7</title>
<path fill="none" stroke="midnightblue" d="M248.026,-112.399C247.759,-104.466 247.423,-94.458 247.134,-85.8583"/>
<polygon fill="midnightblue" stroke="midnightblue" points="250.625,-85.5345 246.791,-75.6578 243.629,-85.7697 250.625,-85.5345"/>
</g>
<!-- Node9 -->
<g id="node9" class="node"><title>Node9</title>
<g id="a_node9"><a xlink:href="../../dd/d8c/list__interface_8h.html" target="_top" xlink:title="list_interface.h">
<polygon fill="white" stroke="black" points="271.5,-0.5 271.5,-19.5 351.5,-19.5 351.5,-0.5 271.5,-0.5"/>
<text text-anchor="middle" x="311.5" y="-7.5" font-family="Helvetica,sans-Serif" font-size="10.00">list_interface.h</text>
</a>
</g>
</g>
<!-- Node6&#45;&gt;Node9 -->
<g id="edge10" class="edge"><title>Node6&#45;&gt;Node9</title>
<path fill="none" stroke="midnightblue" d="M263.859,-112.338C273.317,-102.866 285.022,-89.6704 292.5,-76 300.434,-61.4951 305.385,-43.3121 308.236,-29.8687"/>
<polygon fill="midnightblue" stroke="midnightblue" points="311.706,-30.3567 310.156,-19.8758 304.832,-29.0357 311.706,-30.3567"/>
</g>
<!-- Node8 -->
<g id="node8" class="node"><title>Node8</title>
<g id="a_node8"><a xlink:href="../../d6/da4/iterator__interface_8h.html" target="_top" xlink:title="iterator_interface.h">
<polygon fill="white" stroke="black" points="156,-0.5 156,-19.5 253,-19.5 253,-0.5 156,-0.5"/>
<text text-anchor="middle" x="204.5" y="-7.5" font-family="Helvetica,sans-Serif" font-size="10.00">iterator_interface.h</text>
</a>
</g>
</g>
<!-- Node7&#45;&gt;Node8 -->
<g id="edge8" class="edge"><title>Node7&#45;&gt;Node8</title>
<path fill="none" stroke="midnightblue" d="M239.565,-56.083C233.571,-48.3768 224.748,-37.0333 217.452,-27.6531"/>
<polygon fill="midnightblue" stroke="midnightblue" points="220.209,-25.4958 211.306,-19.7511 214.683,-29.7934 220.209,-25.4958"/>
</g>
<!-- Node7&#45;&gt;Node9 -->
<g id="edge9" class="edge"><title>Node7&#45;&gt;Node9</title>
<path fill="none" stroke="midnightblue" d="M256.943,-56.324C266.646,-48.2631 281.315,-36.0765 293,-26.3695"/>
<polygon fill="midnightblue" stroke="midnightblue" points="295.411,-28.9163 300.867,-19.8339 290.938,-23.532 295.411,-28.9163"/>
</g>
</g>
</svg>
