<?xml version="1.0" encoding="UTF-8" standalone="no"?>
<!DOCTYPE svg PUBLIC "-//W3C//DTD SVG 1.1//EN"
 "http://www.w3.org/Graphics/SVG/1.1/DTD/svg11.dtd">
<!-- Generated by graphviz version 2.38.0 (20140413.2041)
 -->
<!-- Title: src/creational/src/mazeparts/spell.h Pages: 1 -->
<!--zoomable 195 -->
<svg id="main" version="1.1" xmlns="http://www.w3.org/2000/svg" xmlns:xlink="http://www.w3.org/1999/xlink" xml:space="preserve" onload="init(evt)">
<style type="text/css"><![CDATA[
.edge:hover path { stroke: red; }
.edge:hover polygon { stroke: red; fill: red; }
]]></style>
<script type="text/javascript"><![CDATA[
var edges = document.getElementsByTagName('g');
if (edges && edges.length) {
  for (var i=0;i<edges.length;i++) {
    if (edges[i].id.substr(0,4)=='edge') {
      edges[i].setAttribute('class','edge');
    }
  }
}
]]></script>
        <defs>
                <circle id="rim" cx="0" cy="0" r="7"/>
                <circle id="rim2" cx="0" cy="0" r="3.5"/>
                <g id="zoomPlus">
                        <use xlink:href="#rim" fill="#404040">
                                <set attributeName="fill" to="#808080" begin="zoomplus.mouseover" end="zoomplus.mouseout"/>
                        </use>
                        <path d="M-4,0h8M0,-4v8" fill="none" stroke="white" stroke-width="1.5" pointer-events="none"/>
                </g>
                <g id="zoomMin">
                        <use xlink:href="#rim" fill="#404040">
                                <set attributeName="fill" to="#808080" begin="zoomminus.mouseover" end="zoomminus.mouseout"/>
                        </use>
                        <path d="M-4,0h8" fill="none" stroke="white" stroke-width="1.5" pointer-events="none"/>
                </g>
                <g id="dirArrow">
                        <path fill="none" stroke="white" stroke-width="1.5" d="M0,-3.0v7 M-2.5,-0.5L0,-3.0L2.5,-0.5"/>
                </g>
               <g id="resetDef">
                       <use xlink:href="#rim2" fill="#404040">
                               <set attributeName="fill" to="#808080" begin="reset.mouseover" end="reset.mouseout"/>
                       </use>
               </g>
        </defs>

<script type="text/javascript">
var viewWidth = 1156;
var viewHeight = 195;
var sectionId = 'dynsection-1';
</script>
<script xlink:href="../../svgpan.js"/>
<svg id="graph" class="graph">
<g id="viewport">
<title>src/creational/src/mazeparts/spell.h</title>
<polygon fill="white" stroke="none" points="-4,4 -4,-191 1151.5,-191 1151.5,4 -4,4"/>
<!-- Node1 -->
<g id="node1" class="node"><title>Node1</title>
<polygon fill="#bfbfbf" stroke="black" points="524.5,-156.5 524.5,-186.5 621.5,-186.5 621.5,-156.5 524.5,-156.5"/>
<text text-anchor="start" x="532.5" y="-174.5" font-family="Helvetica,sans-Serif" font-size="10.00">src/creational/src</text>
<text text-anchor="middle" x="573" y="-163.5" font-family="Helvetica,sans-Serif" font-size="10.00">/mazeparts/spell.h</text>
</g>
<!-- Node2 -->
<g id="node2" class="node"><title>Node2</title>
<g id="a_node2"><a xlink:href="../../dd/d80/enchanted__maze__factory_8h.html" target="_top" xlink:title="src/creational/src\l/abstractfactory/enchanted\l_maze_factory.h">
<polygon fill="white" stroke="black" points="158,-78.5 158,-119.5 290,-119.5 290,-78.5 158,-78.5"/>
<text text-anchor="start" x="166" y="-107.5" font-family="Helvetica,sans-Serif" font-size="10.00">src/creational/src</text>
<text text-anchor="start" x="166" y="-96.5" font-family="Helvetica,sans-Serif" font-size="10.00">/abstractfactory/enchanted</text>
<text text-anchor="middle" x="224" y="-85.5" font-family="Helvetica,sans-Serif" font-size="10.00">_maze_factory.h</text>
</a>
</g>
</g>
<!-- Node1&#45;&gt;Node2 -->
<g id="edge1" class="edge"><title>Node1&#45;&gt;Node2</title>
<path fill="none" stroke="midnightblue" d="M514.474,-158.677C452.547,-146.168 355.014,-126.466 290.292,-113.391"/>
<polygon fill="midnightblue" stroke="midnightblue" points="513.978,-162.148 524.473,-160.697 515.364,-155.286 513.978,-162.148"/>
</g>
<!-- Node5 -->
<g id="node5" class="node"><title>Node5</title>
<g id="a_node5"><a xlink:href="../../d6/d36/enchanted__room_8h.html" target="_top" xlink:title="src/creational/src\l/mazeparts/enchanted\l_room.h">
<polygon fill="white" stroke="black" points="385.5,-78.5 385.5,-119.5 498.5,-119.5 498.5,-78.5 385.5,-78.5"/>
<text text-anchor="start" x="393.5" y="-107.5" font-family="Helvetica,sans-Serif" font-size="10.00">src/creational/src</text>
<text text-anchor="start" x="393.5" y="-96.5" font-family="Helvetica,sans-Serif" font-size="10.00">/mazeparts/enchanted</text>
<text text-anchor="middle" x="442" y="-85.5" font-family="Helvetica,sans-Serif" font-size="10.00">_room.h</text>
</a>
</g>
</g>
<!-- Node1&#45;&gt;Node5 -->
<g id="edge4" class="edge"><title>Node1&#45;&gt;Node5</title>
<path fill="none" stroke="midnightblue" d="M537.896,-151.608C519.553,-141.736 497.122,-129.665 478.568,-119.68"/>
<polygon fill="midnightblue" stroke="midnightblue" points="536.341,-154.746 546.805,-156.403 539.658,-148.582 536.341,-154.746"/>
</g>
<!-- Node8 -->
<g id="node8" class="node"><title>Node8</title>
<g id="a_node8"><a xlink:href="../../d5/d10/enchanted__room__test_8cc.html" target="_top" xlink:title="src/creational_tests\l/src/mazeparts/enchanted\l_room_test.cc">
<polygon fill="white" stroke="black" points="440,-0.5 440,-41.5 570,-41.5 570,-0.5 440,-0.5"/>
<text text-anchor="start" x="448" y="-29.5" font-family="Helvetica,sans-Serif" font-size="10.00">src/creational_tests</text>
<text text-anchor="start" x="448" y="-18.5" font-family="Helvetica,sans-Serif" font-size="10.00">/src/mazeparts/enchanted</text>
<text text-anchor="middle" x="505" y="-7.5" font-family="Helvetica,sans-Serif" font-size="10.00">_room_test.cc</text>
</a>
</g>
</g>
<!-- Node1&#45;&gt;Node8 -->
<g id="edge20" class="edge"><title>Node1&#45;&gt;Node8</title>
<path fill="none" stroke="midnightblue" d="M559.931,-147.168C555.347,-138.701 550.278,-129.003 546,-120 533.335,-93.3476 520.485,-61.7295 512.63,-41.7638"/>
<polygon fill="midnightblue" stroke="midnightblue" points="556.954,-149.017 564.832,-156.101 563.091,-145.651 556.954,-149.017"/>
</g>
<!-- Node10 -->
<g id="node10" class="node"><title>Node10</title>
<g id="a_node10"><a xlink:href="../../d1/d47/door__needing__spell_8h.html" target="_top" xlink:title="src/creational/src\l/mazeparts/door_needing\l_spell.h">
<polygon fill="white" stroke="black" points="703,-78.5 703,-119.5 829,-119.5 829,-78.5 703,-78.5"/>
<text text-anchor="start" x="711" y="-107.5" font-family="Helvetica,sans-Serif" font-size="10.00">src/creational/src</text>
<text text-anchor="start" x="711" y="-96.5" font-family="Helvetica,sans-Serif" font-size="10.00">/mazeparts/door_needing</text>
<text text-anchor="middle" x="766" y="-85.5" font-family="Helvetica,sans-Serif" font-size="10.00">_spell.h</text>
</a>
</g>
</g>
<!-- Node1&#45;&gt;Node10 -->
<g id="edge11" class="edge"><title>Node1&#45;&gt;Node10</title>
<path fill="none" stroke="midnightblue" d="M621.092,-152.933C648.863,-142.789 683.851,-130.008 712.49,-119.546"/>
<polygon fill="midnightblue" stroke="midnightblue" points="619.785,-149.684 611.593,-156.403 622.186,-156.259 619.785,-149.684"/>
</g>
<!-- Node13 -->
<g id="node13" class="node"><title>Node13</title>
<g id="a_node13"><a xlink:href="../../df/d13/enchanted__maze__game_8h.html" target="_top" xlink:title="src/creational/src\l/factorymethod/enchanted\l_maze_game.h">
<polygon fill="white" stroke="black" points="555.5,-78.5 555.5,-119.5 684.5,-119.5 684.5,-78.5 555.5,-78.5"/>
<text text-anchor="start" x="563.5" y="-107.5" font-family="Helvetica,sans-Serif" font-size="10.00">src/creational/src</text>
<text text-anchor="start" x="563.5" y="-96.5" font-family="Helvetica,sans-Serif" font-size="10.00">/factorymethod/enchanted</text>
<text text-anchor="middle" x="620" y="-85.5" font-family="Helvetica,sans-Serif" font-size="10.00">_maze_game.h</text>
</a>
</g>
</g>
<!-- Node1&#45;&gt;Node13 -->
<g id="edge17" class="edge"><title>Node1&#45;&gt;Node13</title>
<path fill="none" stroke="midnightblue" d="M588.203,-147.695C594.246,-138.631 601.128,-128.307 606.941,-119.588"/>
<polygon fill="midnightblue" stroke="midnightblue" points="585.146,-145.971 582.511,-156.233 590.97,-149.854 585.146,-145.971"/>
</g>
<!-- Node14 -->
<g id="node14" class="node"><title>Node14</title>
<g id="a_node14"><a xlink:href="../../d3/d93/spell_8cc.html" target="_top" xlink:title="src/creational/src\l/mazeparts/spell.cc">
<polygon fill="white" stroke="black" points="847,-84 847,-114 949,-114 949,-84 847,-84"/>
<text text-anchor="start" x="855" y="-102" font-family="Helvetica,sans-Serif" font-size="10.00">src/creational/src</text>
<text text-anchor="middle" x="898" y="-91" font-family="Helvetica,sans-Serif" font-size="10.00">/mazeparts/spell.cc</text>
</a>
</g>
</g>
<!-- Node1&#45;&gt;Node14 -->
<g id="edge19" class="edge"><title>Node1&#45;&gt;Node14</title>
<path fill="none" stroke="midnightblue" d="M631.877,-161.595C685.913,-152.876 767.962,-138.259 838,-120 844.587,-118.283 851.503,-116.224 858.202,-114.09"/>
<polygon fill="midnightblue" stroke="midnightblue" points="631.112,-158.173 621.789,-163.206 632.216,-165.085 631.112,-158.173"/>
</g>
<!-- Node3 -->
<g id="node3" class="node"><title>Node3</title>
<g id="a_node3"><a xlink:href="../../d3/d4b/enchanted__maze__factory_8cc.html" target="_top" xlink:title="src/creational/src\l/abstractfactory/enchanted\l_maze_factory.cc">
<polygon fill="white" stroke="black" points="158,-0.5 158,-41.5 290,-41.5 290,-0.5 158,-0.5"/>
<text text-anchor="start" x="166" y="-29.5" font-family="Helvetica,sans-Serif" font-size="10.00">src/creational/src</text>
<text text-anchor="start" x="166" y="-18.5" font-family="Helvetica,sans-Serif" font-size="10.00">/abstractfactory/enchanted</text>
<text text-anchor="middle" x="224" y="-7.5" font-family="Helvetica,sans-Serif" font-size="10.00">_maze_factory.cc</text>
</a>
</g>
</g>
<!-- Node2&#45;&gt;Node3 -->
<g id="edge2" class="edge"><title>Node2&#45;&gt;Node3</title>
<path fill="none" stroke="midnightblue" d="M224,-68.2965C224,-59.3009 224,-49.6532 224,-41.5056"/>
<polygon fill="midnightblue" stroke="midnightblue" points="220.5,-68.4281 224,-78.4281 227.5,-68.4281 220.5,-68.4281"/>
</g>
<!-- Node4 -->
<g id="node4" class="node"><title>Node4</title>
<g id="a_node4"><a xlink:href="../../d5/d51/maze__game__test_8cc.html" target="_top" xlink:title="src/creational_tests\l/src/mazegame/maze_game\l_test.cc">
<polygon fill="white" stroke="black" points="0,-0.5 0,-41.5 140,-41.5 140,-0.5 0,-0.5"/>
<text text-anchor="start" x="8" y="-29.5" font-family="Helvetica,sans-Serif" font-size="10.00">src/creational_tests</text>
<text text-anchor="start" x="8" y="-18.5" font-family="Helvetica,sans-Serif" font-size="10.00">/src/mazegame/maze_game</text>
<text text-anchor="middle" x="70" y="-7.5" font-family="Helvetica,sans-Serif" font-size="10.00">_test.cc</text>
</a>
</g>
</g>
<!-- Node2&#45;&gt;Node4 -->
<g id="edge3" class="edge"><title>Node2&#45;&gt;Node4</title>
<path fill="none" stroke="midnightblue" d="M175.182,-73.9082C154.007,-63.4581 129.533,-51.3801 109.524,-41.5056"/>
<polygon fill="midnightblue" stroke="midnightblue" points="173.825,-77.1412 184.341,-78.4281 176.923,-70.864 173.825,-77.1412"/>
</g>
<!-- Node5&#45;&gt;Node3 -->
<g id="edge5" class="edge"><title>Node5&#45;&gt;Node3</title>
<path fill="none" stroke="midnightblue" d="M376.102,-75.0264C345.413,-64.3275 309.291,-51.7343 279.95,-41.5056"/>
<polygon fill="midnightblue" stroke="midnightblue" points="375.265,-78.441 385.86,-78.4281 377.569,-71.8312 375.265,-78.441"/>
</g>
<!-- Node5&#45;&gt;Node4 -->
<g id="edge8" class="edge"><title>Node5&#45;&gt;Node4</title>
<path fill="none" stroke="midnightblue" d="M375.329,-86.4165C315.792,-75.797 226.306,-59.1575 149,-42 146.1,-41.3563 143.143,-40.6835 140.16,-39.991"/>
<polygon fill="midnightblue" stroke="midnightblue" points="374.895,-89.8941 385.353,-88.198 376.12,-83.0021 374.895,-89.8941"/>
</g>
<!-- Node6 -->
<g id="node6" class="node"><title>Node6</title>
<g id="a_node6"><a xlink:href="../../db/db5/enchanted__maze__game_8cc.html" target="_top" xlink:title="src/creational/src\l/factorymethod/enchanted\l_maze_game.cc">
<polygon fill="white" stroke="black" points="588.5,-0.5 588.5,-41.5 717.5,-41.5 717.5,-0.5 588.5,-0.5"/>
<text text-anchor="start" x="596.5" y="-29.5" font-family="Helvetica,sans-Serif" font-size="10.00">src/creational/src</text>
<text text-anchor="start" x="596.5" y="-18.5" font-family="Helvetica,sans-Serif" font-size="10.00">/factorymethod/enchanted</text>
<text text-anchor="middle" x="653" y="-7.5" font-family="Helvetica,sans-Serif" font-size="10.00">_maze_game.cc</text>
</a>
</g>
</g>
<!-- Node5&#45;&gt;Node6 -->
<g id="edge6" class="edge"><title>Node5&#45;&gt;Node6</title>
<path fill="none" stroke="midnightblue" d="M505.782,-75.0264C535.485,-64.3275 570.448,-51.7343 598.846,-41.5056"/>
<polygon fill="midnightblue" stroke="midnightblue" points="504.56,-71.7464 496.338,-78.4281 506.932,-78.3322 504.56,-71.7464"/>
</g>
<!-- Node7 -->
<g id="node7" class="node"><title>Node7</title>
<g id="a_node7"><a xlink:href="../../d5/d0f/enchanted__room_8cc.html" target="_top" xlink:title="src/creational/src\l/mazeparts/enchanted\l_room.cc">
<polygon fill="white" stroke="black" points="308.5,-0.5 308.5,-41.5 421.5,-41.5 421.5,-0.5 308.5,-0.5"/>
<text text-anchor="start" x="316.5" y="-29.5" font-family="Helvetica,sans-Serif" font-size="10.00">src/creational/src</text>
<text text-anchor="start" x="316.5" y="-18.5" font-family="Helvetica,sans-Serif" font-size="10.00">/mazeparts/enchanted</text>
<text text-anchor="middle" x="365" y="-7.5" font-family="Helvetica,sans-Serif" font-size="10.00">_room.cc</text>
</a>
</g>
</g>
<!-- Node5&#45;&gt;Node7 -->
<g id="edge7" class="edge"><title>Node5&#45;&gt;Node7</title>
<path fill="none" stroke="midnightblue" d="M414.851,-71.204C404.935,-61.416 393.914,-50.5388 384.762,-41.5056"/>
<polygon fill="midnightblue" stroke="midnightblue" points="412.595,-73.8944 422.171,-78.4281 417.512,-68.9124 412.595,-73.8944"/>
</g>
<!-- Node5&#45;&gt;Node8 -->
<g id="edge9" class="edge"><title>Node5&#45;&gt;Node8</title>
<path fill="none" stroke="midnightblue" d="M464.691,-70.627C472.679,-60.9901 481.49,-50.3617 488.831,-41.5056"/>
<polygon fill="midnightblue" stroke="midnightblue" points="461.911,-68.4956 458.224,-78.4281 467.301,-72.963 461.911,-68.4956"/>
</g>
<!-- Node9 -->
<g id="node9" class="node"><title>Node9</title>
<g id="a_node9"><a xlink:href="../../d9/d77/validator_8cc.html" target="_top" xlink:title="src/creational_tests\l/src/utils/validator.cc">
<polygon fill="white" stroke="black" points="736,-6 736,-36 842,-36 842,-6 736,-6"/>
<text text-anchor="start" x="744" y="-24" font-family="Helvetica,sans-Serif" font-size="10.00">src/creational_tests</text>
<text text-anchor="middle" x="789" y="-13" font-family="Helvetica,sans-Serif" font-size="10.00">/src/utils/validator.cc</text>
</a>
</g>
</g>
<!-- Node5&#45;&gt;Node9 -->
<g id="edge10" class="edge"><title>Node5&#45;&gt;Node9</title>
<path fill="none" stroke="midnightblue" d="M508.747,-85.0349C589.336,-69.3522 715.467,-44.7012 726,-42 732.892,-40.2326 740.141,-38.1482 747.169,-36.004"/>
<polygon fill="midnightblue" stroke="midnightblue" points="507.817,-81.6502 498.67,-86.9955 509.154,-88.5214 507.817,-81.6502"/>
</g>
<!-- Node10&#45;&gt;Node3 -->
<g id="edge12" class="edge"><title>Node10&#45;&gt;Node3</title>
<path fill="none" stroke="midnightblue" d="M693.303,-78.0551C693.202,-78.0367 693.101,-78.0183 693,-78 519.977,-46.6466 472.128,-72.7642 299,-42 296.081,-41.4813 293.11,-40.9041 290.117,-40.2822"/>
<polygon fill="midnightblue" stroke="midnightblue" points="692.356,-81.4349 702.849,-79.9658 693.73,-74.5711 692.356,-81.4349"/>
</g>
<!-- Node10&#45;&gt;Node6 -->
<g id="edge13" class="edge"><title>Node10&#45;&gt;Node6</title>
<path fill="none" stroke="midnightblue" d="M728.287,-72.6352C713.197,-62.4868 696.091,-50.9816 682.002,-41.5056"/>
<polygon fill="midnightblue" stroke="midnightblue" points="726.649,-75.7515 736.9,-78.4281 730.555,-69.943 726.649,-75.7515"/>
</g>
<!-- Node10&#45;&gt;Node9 -->
<g id="edge16" class="edge"><title>Node10&#45;&gt;Node9</title>
<path fill="none" stroke="midnightblue" d="M774.89,-68.6237C778.256,-57.5015 781.937,-45.3387 784.695,-36.2254"/>
<polygon fill="midnightblue" stroke="midnightblue" points="771.47,-67.843 771.923,-78.4281 778.17,-69.8706 771.47,-67.843"/>
</g>
<!-- Node11 -->
<g id="node11" class="node"><title>Node11</title>
<g id="a_node11"><a xlink:href="../../db/dd4/door__needing__spell_8cc.html" target="_top" xlink:title="src/creational/src\l/mazeparts/door_needing\l_spell.cc">
<polygon fill="white" stroke="black" points="860,-0.5 860,-41.5 986,-41.5 986,-0.5 860,-0.5"/>
<text text-anchor="start" x="868" y="-29.5" font-family="Helvetica,sans-Serif" font-size="10.00">src/creational/src</text>
<text text-anchor="start" x="868" y="-18.5" font-family="Helvetica,sans-Serif" font-size="10.00">/mazeparts/door_needing</text>
<text text-anchor="middle" x="923" y="-7.5" font-family="Helvetica,sans-Serif" font-size="10.00">_spell.cc</text>
</a>
</g>
</g>
<!-- Node10&#45;&gt;Node11 -->
<g id="edge14" class="edge"><title>Node10&#45;&gt;Node11</title>
<path fill="none" stroke="midnightblue" d="M815.478,-74.0487C837.132,-63.5665 862.215,-51.4244 882.706,-41.5056"/>
<polygon fill="midnightblue" stroke="midnightblue" points="813.907,-70.9206 806.431,-78.4281 816.957,-77.2213 813.907,-70.9206"/>
</g>
<!-- Node12 -->
<g id="node12" class="node"><title>Node12</title>
<g id="a_node12"><a xlink:href="../../d8/d61/door__needing__spell__test_8cc.html" target="_top" xlink:title="src/creational_tests\l/src/mazeparts/door_needing\l_spell_test.cc">
<polygon fill="white" stroke="black" points="1004.5,-0.5 1004.5,-41.5 1147.5,-41.5 1147.5,-0.5 1004.5,-0.5"/>
<text text-anchor="start" x="1012.5" y="-29.5" font-family="Helvetica,sans-Serif" font-size="10.00">src/creational_tests</text>
<text text-anchor="start" x="1012.5" y="-18.5" font-family="Helvetica,sans-Serif" font-size="10.00">/src/mazeparts/door_needing</text>
<text text-anchor="middle" x="1076" y="-7.5" font-family="Helvetica,sans-Serif" font-size="10.00">_spell_test.cc</text>
</a>
</g>
</g>
<!-- Node10&#45;&gt;Node12 -->
<g id="edge15" class="edge"><title>Node10&#45;&gt;Node12</title>
<path fill="none" stroke="midnightblue" d="M838.931,-77.8138C909.034,-60.2304 928.35,-57.8685 995,-42 998.1,-41.2619 1001.27,-40.503 1004.46,-39.7323"/>
<polygon fill="midnightblue" stroke="midnightblue" points="838.012,-74.4359 829.173,-80.2768 839.725,-81.223 838.012,-74.4359"/>
</g>
<!-- Node13&#45;&gt;Node6 -->
<g id="edge18" class="edge"><title>Node13&#45;&gt;Node6</title>
<path fill="none" stroke="midnightblue" d="M632.516,-69.1744C636.53,-59.9317 640.877,-49.9188 644.53,-41.5056"/>
<polygon fill="midnightblue" stroke="midnightblue" points="629.271,-67.8615 628.498,-78.4281 635.692,-70.6495 629.271,-67.8615"/>
</g>
</g>
</svg>
        <g id="navigator" transform="translate(0 0)" fill="#404254">
                <rect fill="#f2f5e9" fill-opacity="0.5" stroke="#606060" stroke-width=".5" x="0" y="0" width="60" height="60"/>
                <use id="zoomplus" xlink:href="#zoomPlus" x="17" y="9" onmousedown="handleZoom(evt,'in')"/>
                <use id="zoomminus" xlink:href="#zoomMin" x="42" y="9" onmousedown="handleZoom(evt,'out')"/>
                <use id="reset" xlink:href="#resetDef" x="30" y="36" onmousedown="handleReset()"/>
                <g id="arrowUp" xlink:href="#dirArrow" transform="translate(30 24)" onmousedown="handlePan(0,-1)">
                  <use xlink:href="#rim" fill="#404040">
                        <set attributeName="fill" to="#808080" begin="arrowUp.mouseover" end="arrowUp.mouseout"/>
                  </use>
                  <path fill="none" stroke="white" stroke-width="1.5" d="M0,-3.0v7 M-2.5,-0.5L0,-3.0L2.5,-0.5"/>
                </g>
                <g id="arrowRight" xlink:href="#dirArrow" transform="rotate(90) translate(36 -43)" onmousedown="handlePan(1,0)">
                  <use xlink:href="#rim" fill="#404040">
                        <set attributeName="fill" to="#808080" begin="arrowRight.mouseover" end="arrowRight.mouseout"/>
                  </use>
                  <path fill="none" stroke="white" stroke-width="1.5" d="M0,-3.0v7 M-2.5,-0.5L0,-3.0L2.5,-0.5"/>
                </g>
                <g id="arrowDown" xlink:href="#dirArrow" transform="rotate(180) translate(-30 -48)" onmousedown="handlePan(0,1)">
                  <use xlink:href="#rim" fill="#404040">
                        <set attributeName="fill" to="#808080" begin="arrowDown.mouseover" end="arrowDown.mouseout"/>
                  </use>
                  <path fill="none" stroke="white" stroke-width="1.5" d="M0,-3.0v7 M-2.5,-0.5L0,-3.0L2.5,-0.5"/>
                </g>
                <g id="arrowLeft" xlink:href="#dirArrow" transform="rotate(270) translate(-36 17)" onmousedown="handlePan(-1,0)">
                  <use xlink:href="#rim" fill="#404040">
                        <set attributeName="fill" to="#808080" begin="arrowLeft.mouseover" end="arrowLeft.mouseout"/>
                  </use>
                  <path fill="none" stroke="white" stroke-width="1.5" d="M0,-3.0v7 M-2.5,-0.5L0,-3.0L2.5,-0.5"/>
                </g>
        </g>
        <svg viewBox="0 0 15 15" width="100%" height="30px" preserveAspectRatio="xMaxYMin meet">
         <g id="arrow_out" transform="scale(0.3 0.3)">
          <a xlink:href="spell_8h__dep__incl_org.svg" target="_base">
           <rect id="button" ry="5" rx="5" y="6" x="6" height="38" width="38"
                fill="#f2f5e9" fill-opacity="0.5" stroke="#606060" stroke-width="1.0"/>
           <path id="arrow"
             d="M 11.500037,31.436501 C 11.940474,20.09759 22.043105,11.32322 32.158766,21.979434 L 37.068811,17.246167 C 37.068811,17.246167 37.088388,32 37.088388,32 L 22.160133,31.978069 C 22.160133,31.978069 26.997745,27.140456 26.997745,27.140456 C 18.528582,18.264221 13.291696,25.230495 11.500037,31.436501 z"
             style="fill:#404040;"/>
          </a>
         </g>
        </svg>
</svg>
