<?xml version="1.0" encoding="UTF-8" standalone="no"?>
<!DOCTYPE svg PUBLIC "-//W3C//DTD SVG 1.1//EN"
 "http://www.w3.org/Graphics/SVG/1.1/DTD/svg11.dtd">
<!-- Generated by graphviz version 2.38.0 (20140413.2041)
 -->
<!-- Title: structural::ScrollDecorator Pages: 1 -->
<svg width="151pt" height="287pt"
 viewBox="0.00 0.00 151.00 287.00" xmlns="http://www.w3.org/2000/svg" xmlns:xlink="http://www.w3.org/1999/xlink">
<g id="graph0" class="graph" transform="scale(1 1) rotate(0) translate(4 283)">
<title>structural::ScrollDecorator</title>
<polygon fill="white" stroke="none" points="-4,4 -4,-283 147,-283 147,4 -4,4"/>
<!-- Node1 -->
<g id="node1" class="node"><title>Node1</title>
<polygon fill="#bfbfbf" stroke="black" points="6.5,-0.5 6.5,-57.5 136.5,-57.5 136.5,-0.5 6.5,-0.5"/>
<text text-anchor="middle" x="71.5" y="-45.5" font-family="Helvetica,sans-Serif" font-size="10.00">structural::ScrollDecorator</text>
<polyline fill="none" stroke="black" points="6.5,-38.5 136.5,-38.5 "/>
<text text-anchor="middle" x="71.5" y="-26.5" font-family="Helvetica,sans-Serif" font-size="10.00"> </text>
<polyline fill="none" stroke="black" points="6.5,-19.5 136.5,-19.5 "/>
<text text-anchor="start" x="14.5" y="-7.5" font-family="Helvetica,sans-Serif" font-size="10.00">+ ScrollDecorator()</text>
</g>
<!-- Node2 -->
<g id="node2" class="node"><title>Node2</title>
<g id="a_node2"><a xlink:href="../../d1/d8c/classstructural_1_1_decorator.html" target="_top" xlink:title="{structural::Decorator\n||+ Decorator()\l+ Draw()\l+ Resize()\l}">
<polygon fill="white" stroke="black" points="19,-94.5 19,-173.5 124,-173.5 124,-94.5 19,-94.5"/>
<text text-anchor="middle" x="71.5" y="-161.5" font-family="Helvetica,sans-Serif" font-size="10.00">structural::Decorator</text>
<polyline fill="none" stroke="black" points="19,-154.5 124,-154.5 "/>
<text text-anchor="middle" x="71.5" y="-142.5" font-family="Helvetica,sans-Serif" font-size="10.00"> </text>
<polyline fill="none" stroke="black" points="19,-135.5 124,-135.5 "/>
<text text-anchor="start" x="27" y="-123.5" font-family="Helvetica,sans-Serif" font-size="10.00">+ Decorator()</text>
<text text-anchor="start" x="27" y="-112.5" font-family="Helvetica,sans-Serif" font-size="10.00">+ Draw()</text>
<text text-anchor="start" x="27" y="-101.5" font-family="Helvetica,sans-Serif" font-size="10.00">+ Resize()</text>
</a>
</g>
</g>
<!-- Node2&#45;&gt;Node1 -->
<g id="edge1" class="edge"><title>Node2&#45;&gt;Node1</title>
<path fill="none" stroke="midnightblue" d="M71.5,-84.1628C71.5,-75.0404 71.5,-65.8063 71.5,-57.6095"/>
<polygon fill="none" stroke="midnightblue" points="68.0001,-84.3535 71.5,-94.3536 75.0001,-84.3536 68.0001,-84.3535"/>
</g>
<!-- Node3 -->
<g id="node3" class="node"><title>Node3</title>
<polygon fill="white" stroke="#bfbfbf" points="0,-210.5 0,-278.5 143,-278.5 143,-210.5 0,-210.5"/>
<text text-anchor="start" x="8" y="-266.5" font-family="Helvetica,sans-Serif" font-size="10.00">foundation::VisualComponent</text>
<text text-anchor="middle" x="71.5" y="-255.5" font-family="Helvetica,sans-Serif" font-size="10.00">Interface</text>
<polyline fill="none" stroke="#bfbfbf" points="0,-248.5 143,-248.5 "/>
<text text-anchor="middle" x="71.5" y="-236.5" font-family="Helvetica,sans-Serif" font-size="10.00"> </text>
<polyline fill="none" stroke="#bfbfbf" points="0,-229.5 143,-229.5 "/>
<text text-anchor="middle" x="71.5" y="-217.5" font-family="Helvetica,sans-Serif" font-size="10.00"> </text>
</g>
<!-- Node3&#45;&gt;Node2 -->
<g id="edge2" class="edge"><title>Node3&#45;&gt;Node2</title>
<path fill="none" stroke="midnightblue" d="M71.5,-200.274C71.5,-191.476 71.5,-182.275 71.5,-173.649"/>
<polygon fill="none" stroke="midnightblue" points="68.0001,-200.357 71.5,-210.357 75.0001,-200.357 68.0001,-200.357"/>
</g>
</g>
</svg>
