<?xml version="1.0" encoding="UTF-8" standalone="no"?>
<!DOCTYPE svg PUBLIC "-//W3C//DTD SVG 1.1//EN"
 "http://www.w3.org/Graphics/SVG/1.1/DTD/svg11.dtd">
<!-- Generated by graphviz version 2.38.0 (20140413.2041)
 -->
<!-- Title: operational::visitor::Card Pages: 1 -->
<svg width="272pt" height="292pt"
 viewBox="0.00 0.00 272.00 292.00" xmlns="http://www.w3.org/2000/svg" xmlns:xlink="http://www.w3.org/1999/xlink">
<g id="graph0" class="graph" transform="scale(1 1) rotate(0) translate(4 288)">
<title>operational::visitor::Card</title>
<polygon fill="white" stroke="none" points="-4,4 -4,-288 268,-288 268,4 -4,4"/>
<!-- Node1 -->
<g id="node1" class="node"><title>Node1</title>
<polygon fill="#bfbfbf" stroke="black" points="98,-0.5 98,-134.5 193,-134.5 193,-0.5 98,-0.5"/>
<text text-anchor="start" x="106" y="-122.5" font-family="Helvetica,sans-Serif" font-size="10.00">operational::visitor</text>
<text text-anchor="middle" x="145.5" y="-111.5" font-family="Helvetica,sans-Serif" font-size="10.00">::Card</text>
<polyline fill="none" stroke="black" points="98,-104.5 193,-104.5 "/>
<text text-anchor="middle" x="145.5" y="-92.5" font-family="Helvetica,sans-Serif" font-size="10.00"> </text>
<polyline fill="none" stroke="black" points="98,-85.5 193,-85.5 "/>
<text text-anchor="start" x="106" y="-73.5" font-family="Helvetica,sans-Serif" font-size="10.00">+ Card()</text>
<text text-anchor="start" x="106" y="-62.5" font-family="Helvetica,sans-Serif" font-size="10.00">+ name()</text>
<text text-anchor="start" x="106" y="-51.5" font-family="Helvetica,sans-Serif" font-size="10.00">+ price()</text>
<text text-anchor="start" x="106" y="-40.5" font-family="Helvetica,sans-Serif" font-size="10.00">+ price()</text>
<text text-anchor="start" x="106" y="-29.5" font-family="Helvetica,sans-Serif" font-size="10.00">+ GetSilverPrice()</text>
<text text-anchor="start" x="106" y="-18.5" font-family="Helvetica,sans-Serif" font-size="10.00">+ GetGoldPrice()</text>
<text text-anchor="start" x="106" y="-7.5" font-family="Helvetica,sans-Serif" font-size="10.00">+ Accept()</text>
</g>
<!-- Node2 -->
<g id="node2" class="node"><title>Node2</title>
<g id="a_node2"><a xlink:href="../../d3/d47/classoperational_1_1visitor_1_1_visited_equipment_interface.html" target="_top" xlink:title="{operational::visitor\l::VisitedEquipmentInterface\n||+ ~VisitedEquipmentInterface()\l+ name()\l+ price()\l+ price()\l+ Accept()\l}">
<polygon fill="white" stroke="black" points="0,-171.5 0,-283.5 151,-283.5 151,-171.5 0,-171.5"/>
<text text-anchor="start" x="8" y="-271.5" font-family="Helvetica,sans-Serif" font-size="10.00">operational::visitor</text>
<text text-anchor="middle" x="75.5" y="-260.5" font-family="Helvetica,sans-Serif" font-size="10.00">::VisitedEquipmentInterface</text>
<polyline fill="none" stroke="black" points="0,-253.5 151,-253.5 "/>
<text text-anchor="middle" x="75.5" y="-241.5" font-family="Helvetica,sans-Serif" font-size="10.00"> </text>
<polyline fill="none" stroke="black" points="0,-234.5 151,-234.5 "/>
<text text-anchor="start" x="8" y="-222.5" font-family="Helvetica,sans-Serif" font-size="10.00">+ ~VisitedEquipmentInterface()</text>
<text text-anchor="start" x="8" y="-211.5" font-family="Helvetica,sans-Serif" font-size="10.00">+ name()</text>
<text text-anchor="start" x="8" y="-200.5" font-family="Helvetica,sans-Serif" font-size="10.00">+ price()</text>
<text text-anchor="start" x="8" y="-189.5" font-family="Helvetica,sans-Serif" font-size="10.00">+ price()</text>
<text text-anchor="start" x="8" y="-178.5" font-family="Helvetica,sans-Serif" font-size="10.00">+ Accept()</text>
</a>
</g>
</g>
<!-- Node2&#45;&gt;Node1 -->
<g id="edge1" class="edge"><title>Node2&#45;&gt;Node1</title>
<path fill="none" stroke="midnightblue" d="M104.098,-161.95C108.097,-152.925 112.21,-143.64 116.221,-134.587"/>
<polygon fill="none" stroke="midnightblue" points="100.833,-160.679 99.9826,-171.239 107.233,-163.514 100.833,-160.679"/>
</g>
<!-- Node3 -->
<g id="node3" class="node"><title>Node3</title>
<g id="a_node3"><a xlink:href="../../d9/d17/classoperational_1_1visitor_1_1_card_interface.html" target="_top" xlink:title="{operational::visitor\l::CardInterface\n||+ ~CardInterface()\l+ GetSilverPrice()\l+ GetGoldPrice()\l}">
<polygon fill="white" stroke="black" points="169,-182.5 169,-272.5 264,-272.5 264,-182.5 169,-182.5"/>
<text text-anchor="start" x="177" y="-260.5" font-family="Helvetica,sans-Serif" font-size="10.00">operational::visitor</text>
<text text-anchor="middle" x="216.5" y="-249.5" font-family="Helvetica,sans-Serif" font-size="10.00">::CardInterface</text>
<polyline fill="none" stroke="black" points="169,-242.5 264,-242.5 "/>
<text text-anchor="middle" x="216.5" y="-230.5" font-family="Helvetica,sans-Serif" font-size="10.00"> </text>
<polyline fill="none" stroke="black" points="169,-223.5 264,-223.5 "/>
<text text-anchor="start" x="177" y="-211.5" font-family="Helvetica,sans-Serif" font-size="10.00">+ ~CardInterface()</text>
<text text-anchor="start" x="177" y="-200.5" font-family="Helvetica,sans-Serif" font-size="10.00">+ GetSilverPrice()</text>
<text text-anchor="start" x="177" y="-189.5" font-family="Helvetica,sans-Serif" font-size="10.00">+ GetGoldPrice()</text>
</a>
</g>
</g>
<!-- Node3&#45;&gt;Node1 -->
<g id="edge2" class="edge"><title>Node3&#45;&gt;Node1</title>
<path fill="none" stroke="midnightblue" d="M192.568,-173.244C187.014,-160.883 181.036,-147.579 175.265,-134.737"/>
<polygon fill="none" stroke="midnightblue" points="189.431,-174.801 196.723,-182.488 195.816,-171.932 189.431,-174.801"/>
</g>
</g>
</svg>
