<?xml version="1.0" encoding="UTF-8" standalone="no"?>
<!DOCTYPE svg PUBLIC "-//W3C//DTD SVG 1.1//EN"
 "http://www.w3.org/Graphics/SVG/1.1/DTD/svg11.dtd">
<!-- Generated by graphviz version 2.38.0 (20140413.2041)
 -->
<!-- Title: structural::facade::VariableNode Pages: 1 -->
<svg width="462pt" height="596pt"
 viewBox="0.00 0.00 461.50 596.00" xmlns="http://www.w3.org/2000/svg" xmlns:xlink="http://www.w3.org/1999/xlink">
<g id="graph0" class="graph" transform="scale(1 1) rotate(0) translate(4 592)">
<title>structural::facade::VariableNode</title>
<polygon fill="white" stroke="none" points="-4,4 -4,-592 457.5,-592 457.5,4 -4,4"/>
<!-- Node1 -->
<g id="node1" class="node"><title>Node1</title>
<polygon fill="#bfbfbf" stroke="black" points="161.5,-0.5 161.5,-123.5 274.5,-123.5 274.5,-0.5 161.5,-0.5"/>
<text text-anchor="start" x="169.5" y="-111.5" font-family="Helvetica,sans-Serif" font-size="10.00">structural::facade</text>
<text text-anchor="middle" x="218" y="-100.5" font-family="Helvetica,sans-Serif" font-size="10.00">::VariableNode</text>
<polyline fill="none" stroke="black" points="161.5,-93.5 274.5,-93.5 "/>
<text text-anchor="start" x="169.5" y="-81.5" font-family="Helvetica,sans-Serif" font-size="10.00"># name_</text>
<polyline fill="none" stroke="black" points="161.5,-74.5 274.5,-74.5 "/>
<text text-anchor="start" x="169.5" y="-62.5" font-family="Helvetica,sans-Serif" font-size="10.00">+ VariableNode()</text>
<text text-anchor="start" x="169.5" y="-51.5" font-family="Helvetica,sans-Serif" font-size="10.00">+ GetSourcePosition()</text>
<text text-anchor="start" x="169.5" y="-40.5" font-family="Helvetica,sans-Serif" font-size="10.00">+ Add()</text>
<text text-anchor="start" x="169.5" y="-29.5" font-family="Helvetica,sans-Serif" font-size="10.00">+ Remove()</text>
<text text-anchor="start" x="169.5" y="-18.5" font-family="Helvetica,sans-Serif" font-size="10.00">+ Traverse()</text>
<text text-anchor="start" x="169.5" y="-7.5" font-family="Helvetica,sans-Serif" font-size="10.00">+ name()</text>
</g>
<!-- Node2 -->
<g id="node2" class="node"><title>Node2</title>
<g id="a_node2"><a xlink:href="../../d9/d8e/classstructural_1_1facade_1_1_program_node_interface.html" target="_top" xlink:title="{structural::facade\l::ProgramNodeInterface\n||+ ~ProgramNodeInterface()\l+ GetSourcePosition()\l+ Add()\l+ Remove()\l+ Traverse()\l}">
<polygon fill="white" stroke="black" points="0,-210 0,-322 134,-322 134,-210 0,-210"/>
<text text-anchor="start" x="8" y="-310" font-family="Helvetica,sans-Serif" font-size="10.00">structural::facade</text>
<text text-anchor="middle" x="67" y="-299" font-family="Helvetica,sans-Serif" font-size="10.00">::ProgramNodeInterface</text>
<polyline fill="none" stroke="black" points="0,-292 134,-292 "/>
<text text-anchor="middle" x="67" y="-280" font-family="Helvetica,sans-Serif" font-size="10.00"> </text>
<polyline fill="none" stroke="black" points="0,-273 134,-273 "/>
<text text-anchor="start" x="8" y="-261" font-family="Helvetica,sans-Serif" font-size="10.00">+ ~ProgramNodeInterface()</text>
<text text-anchor="start" x="8" y="-250" font-family="Helvetica,sans-Serif" font-size="10.00">+ GetSourcePosition()</text>
<text text-anchor="start" x="8" y="-239" font-family="Helvetica,sans-Serif" font-size="10.00">+ Add()</text>
<text text-anchor="start" x="8" y="-228" font-family="Helvetica,sans-Serif" font-size="10.00">+ Remove()</text>
<text text-anchor="start" x="8" y="-217" font-family="Helvetica,sans-Serif" font-size="10.00">+ Traverse()</text>
</a>
</g>
</g>
<!-- Node2&#45;&gt;Node1 -->
<g id="edge1" class="edge"><title>Node2&#45;&gt;Node1</title>
<path fill="none" stroke="midnightblue" d="M114.444,-201.531C132.997,-176.713 154.185,-148.369 172.541,-123.812"/>
<polygon fill="none" stroke="midnightblue" points="111.445,-199.698 108.261,-209.803 117.052,-203.889 111.445,-199.698"/>
</g>
<!-- Node3 -->
<g id="node3" class="node"><title>Node3</title>
<g id="a_node3"><a xlink:href="../../d7/df7/classstructural_1_1facade_1_1_variable_node_interface.html" target="_top" xlink:title="{structural::facade\l::VariableNodeInterface\n||+ ~VariableNodeInterface()\l+ name()\l}">
<polygon fill="white" stroke="black" points="152,-226.5 152,-305.5 284,-305.5 284,-226.5 152,-226.5"/>
<text text-anchor="start" x="160" y="-293.5" font-family="Helvetica,sans-Serif" font-size="10.00">structural::facade</text>
<text text-anchor="middle" x="218" y="-282.5" font-family="Helvetica,sans-Serif" font-size="10.00">::VariableNodeInterface</text>
<polyline fill="none" stroke="black" points="152,-275.5 284,-275.5 "/>
<text text-anchor="middle" x="218" y="-263.5" font-family="Helvetica,sans-Serif" font-size="10.00"> </text>
<polyline fill="none" stroke="black" points="152,-256.5 284,-256.5 "/>
<text text-anchor="start" x="160" y="-244.5" font-family="Helvetica,sans-Serif" font-size="10.00">+ ~VariableNodeInterface()</text>
<text text-anchor="start" x="160" y="-233.5" font-family="Helvetica,sans-Serif" font-size="10.00">+ name()</text>
</a>
</g>
</g>
<!-- Node3&#45;&gt;Node1 -->
<g id="edge2" class="edge"><title>Node3&#45;&gt;Node1</title>
<path fill="none" stroke="midnightblue" d="M218,-215.792C218,-188.039 218,-153.133 218,-123.692"/>
<polygon fill="none" stroke="midnightblue" points="214.5,-216.052 218,-226.052 221.5,-216.052 214.5,-216.052"/>
</g>
<!-- Node4 -->
<g id="node4" class="node"><title>Node4</title>
<g id="a_node4"><a xlink:href="../../d5/df6/classoperational_1_1iterator_1_1_list.html" target="_top" xlink:title="{operational::iterator\l::List\&lt; structural::facade\l::ProgramNodeInterface * \&gt;\n||+ List()\l+ List()\l+ List()\l+ ~List()\l+ operator=()\l+ CreateIterator()\l+ Count()\l+ Get()\l+ First()\l+ Last()\land 11 more...\l}">
<polygon fill="white" stroke="black" points="302,-171.5 302,-360.5 436,-360.5 436,-171.5 302,-171.5"/>
<text text-anchor="start" x="310" y="-348.5" font-family="Helvetica,sans-Serif" font-size="10.00">operational::iterator</text>
<text text-anchor="start" x="310" y="-337.5" font-family="Helvetica,sans-Serif" font-size="10.00">::List&lt; structural::facade</text>
<text text-anchor="middle" x="369" y="-326.5" font-family="Helvetica,sans-Serif" font-size="10.00">::ProgramNodeInterface * &gt;</text>
<polyline fill="none" stroke="black" points="302,-319.5 436,-319.5 "/>
<text text-anchor="middle" x="369" y="-307.5" font-family="Helvetica,sans-Serif" font-size="10.00"> </text>
<polyline fill="none" stroke="black" points="302,-300.5 436,-300.5 "/>
<text text-anchor="start" x="310" y="-288.5" font-family="Helvetica,sans-Serif" font-size="10.00">+ List()</text>
<text text-anchor="start" x="310" y="-277.5" font-family="Helvetica,sans-Serif" font-size="10.00">+ List()</text>
<text text-anchor="start" x="310" y="-266.5" font-family="Helvetica,sans-Serif" font-size="10.00">+ List()</text>
<text text-anchor="start" x="310" y="-255.5" font-family="Helvetica,sans-Serif" font-size="10.00">+ ~List()</text>
<text text-anchor="start" x="310" y="-244.5" font-family="Helvetica,sans-Serif" font-size="10.00">+ operator=()</text>
<text text-anchor="start" x="310" y="-233.5" font-family="Helvetica,sans-Serif" font-size="10.00">+ CreateIterator()</text>
<text text-anchor="start" x="310" y="-222.5" font-family="Helvetica,sans-Serif" font-size="10.00">+ Count()</text>
<text text-anchor="start" x="310" y="-211.5" font-family="Helvetica,sans-Serif" font-size="10.00">+ Get()</text>
<text text-anchor="start" x="310" y="-200.5" font-family="Helvetica,sans-Serif" font-size="10.00">+ First()</text>
<text text-anchor="start" x="310" y="-189.5" font-family="Helvetica,sans-Serif" font-size="10.00">+ Last()</text>
<text text-anchor="start" x="310" y="-178.5" font-family="Helvetica,sans-Serif" font-size="10.00">and 11 more...</text>
</a>
</g>
</g>
<!-- Node4&#45;&gt;Node1 -->
<g id="edge3" class="edge"><title>Node4&#45;&gt;Node1</title>
<path fill="none" stroke="#404040" d="M301.89,-175.223C291.368,-161.148 280.627,-146.779 270.496,-133.227"/>
<polygon fill="none" stroke="#404040" points="270.424,-133.13 263.628,-130.72 263.239,-123.519 270.036,-125.93 270.424,-133.13"/>
<text text-anchor="middle" x="308" y="-145" font-family="Helvetica,sans-Serif" font-size="10.00"> #children_</text>
</g>
<!-- Node5 -->
<g id="node5" class="node"><title>Node5</title>
<g id="a_node5"><a xlink:href="../../d3/d40/classoperational_1_1iterator_1_1_list_interface.html" target="_top" xlink:title="{operational::iterator\l::ListInterface\&lt; structural\l::facade::ProgramNodeInterface * \&gt;\n||+ ~ListInterface()\l+ Count()\l+ Get()\l+ First()\l+ Last()\l+ Includes()\l+ Append()\l+ Prepend()\l+ Remove()\l+ RemoveAt()\land 6 more...\l}">
<polygon fill="white" stroke="black" points="284.5,-398.5 284.5,-587.5 453.5,-587.5 453.5,-398.5 284.5,-398.5"/>
<text text-anchor="start" x="292.5" y="-575.5" font-family="Helvetica,sans-Serif" font-size="10.00">operational::iterator</text>
<text text-anchor="start" x="292.5" y="-564.5" font-family="Helvetica,sans-Serif" font-size="10.00">::ListInterface&lt; structural</text>
<text text-anchor="middle" x="369" y="-553.5" font-family="Helvetica,sans-Serif" font-size="10.00">::facade::ProgramNodeInterface * &gt;</text>
<polyline fill="none" stroke="black" points="284.5,-546.5 453.5,-546.5 "/>
<text text-anchor="middle" x="369" y="-534.5" font-family="Helvetica,sans-Serif" font-size="10.00"> </text>
<polyline fill="none" stroke="black" points="284.5,-527.5 453.5,-527.5 "/>
<text text-anchor="start" x="292.5" y="-515.5" font-family="Helvetica,sans-Serif" font-size="10.00">+ ~ListInterface()</text>
<text text-anchor="start" x="292.5" y="-504.5" font-family="Helvetica,sans-Serif" font-size="10.00">+ Count()</text>
<text text-anchor="start" x="292.5" y="-493.5" font-family="Helvetica,sans-Serif" font-size="10.00">+ Get()</text>
<text text-anchor="start" x="292.5" y="-482.5" font-family="Helvetica,sans-Serif" font-size="10.00">+ First()</text>
<text text-anchor="start" x="292.5" y="-471.5" font-family="Helvetica,sans-Serif" font-size="10.00">+ Last()</text>
<text text-anchor="start" x="292.5" y="-460.5" font-family="Helvetica,sans-Serif" font-size="10.00">+ Includes()</text>
<text text-anchor="start" x="292.5" y="-449.5" font-family="Helvetica,sans-Serif" font-size="10.00">+ Append()</text>
<text text-anchor="start" x="292.5" y="-438.5" font-family="Helvetica,sans-Serif" font-size="10.00">+ Prepend()</text>
<text text-anchor="start" x="292.5" y="-427.5" font-family="Helvetica,sans-Serif" font-size="10.00">+ Remove()</text>
<text text-anchor="start" x="292.5" y="-416.5" font-family="Helvetica,sans-Serif" font-size="10.00">+ RemoveAt()</text>
<text text-anchor="start" x="292.5" y="-405.5" font-family="Helvetica,sans-Serif" font-size="10.00">and 6 more...</text>
</a>
</g>
</g>
<!-- Node5&#45;&gt;Node4 -->
<g id="edge4" class="edge"><title>Node5&#45;&gt;Node4</title>
<path fill="none" stroke="midnightblue" d="M369,-387.964C369,-378.849 369,-369.661 369,-360.639"/>
<polygon fill="none" stroke="midnightblue" points="365.5,-388.209 369,-398.209 372.5,-388.209 365.5,-388.209"/>
</g>
</g>
</svg>
