<?xml version="1.0" encoding="UTF-8" standalone="no"?>
<!DOCTYPE svg PUBLIC "-//W3C//DTD SVG 1.1//EN"
 "http://www.w3.org/Graphics/SVG/1.1/DTD/svg11.dtd">
<!-- Generated by graphviz version 2.38.0 (20140413.2041)
 -->
<!-- Title: src/operational/src/chain/help_handler_interface.h Pages: 1 -->
<!--zoomable 262 -->
<svg id="main" version="1.1" xmlns="http://www.w3.org/2000/svg" xmlns:xlink="http://www.w3.org/1999/xlink" xml:space="preserve" onload="init(evt)">
<style type="text/css"><![CDATA[
.edge:hover path { stroke: red; }
.edge:hover polygon { stroke: red; fill: red; }
]]></style>
<script type="text/javascript"><![CDATA[
var edges = document.getElementsByTagName('g');
if (edges && edges.length) {
  for (var i=0;i<edges.length;i++) {
    if (edges[i].id.substr(0,4)=='edge') {
      edges[i].setAttribute('class','edge');
    }
  }
}
]]></script>
        <defs>
                <circle id="rim" cx="0" cy="0" r="7"/>
                <circle id="rim2" cx="0" cy="0" r="3.5"/>
                <g id="zoomPlus">
                        <use xlink:href="#rim" fill="#404040">
                                <set attributeName="fill" to="#808080" begin="zoomplus.mouseover" end="zoomplus.mouseout"/>
                        </use>
                        <path d="M-4,0h8M0,-4v8" fill="none" stroke="white" stroke-width="1.5" pointer-events="none"/>
                </g>
                <g id="zoomMin">
                        <use xlink:href="#rim" fill="#404040">
                                <set attributeName="fill" to="#808080" begin="zoomminus.mouseover" end="zoomminus.mouseout"/>
                        </use>
                        <path d="M-4,0h8" fill="none" stroke="white" stroke-width="1.5" pointer-events="none"/>
                </g>
                <g id="dirArrow">
                        <path fill="none" stroke="white" stroke-width="1.5" d="M0,-3.0v7 M-2.5,-0.5L0,-3.0L2.5,-0.5"/>
                </g>
               <g id="resetDef">
                       <use xlink:href="#rim2" fill="#404040">
                               <set attributeName="fill" to="#808080" begin="reset.mouseover" end="reset.mouseout"/>
                       </use>
               </g>
        </defs>

<script type="text/javascript">
var viewWidth = 626;
var viewHeight = 262;
var sectionId = 'dynsection-0';
</script>
<script xlink:href="../../svgpan.js"/>
<svg id="graph" class="graph">
<g id="viewport">
<title>src/operational/src/chain/help_handler_interface.h</title>
<polygon fill="white" stroke="none" points="-4,4 -4,-258 621.5,-258 621.5,4 -4,4"/>
<!-- Node1 -->
<g id="node1" class="node"><title>Node1</title>
<polygon fill="#bfbfbf" stroke="black" points="277.5,-212.5 277.5,-253.5 378.5,-253.5 378.5,-212.5 277.5,-212.5"/>
<text text-anchor="start" x="285.5" y="-241.5" font-family="Helvetica,sans-Serif" font-size="10.00">src/operational/src</text>
<text text-anchor="start" x="285.5" y="-230.5" font-family="Helvetica,sans-Serif" font-size="10.00">/chain/help_handler</text>
<text text-anchor="middle" x="328" y="-219.5" font-family="Helvetica,sans-Serif" font-size="10.00">_interface.h</text>
</g>
<!-- Node2 -->
<g id="node2" class="node"><title>Node2</title>
<g id="a_node2"><a xlink:href="../../db/d32/application_8h.html" target="_top" xlink:title="src/operational/src\l/chain/application.h">
<polygon fill="white" stroke="black" points="169.5,-145.5 169.5,-175.5 270.5,-175.5 270.5,-145.5 169.5,-145.5"/>
<text text-anchor="start" x="177.5" y="-163.5" font-family="Helvetica,sans-Serif" font-size="10.00">src/operational/src</text>
<text text-anchor="middle" x="220" y="-152.5" font-family="Helvetica,sans-Serif" font-size="10.00">/chain/application.h</text>
</a>
</g>
</g>
<!-- Node1&#45;&gt;Node2 -->
<g id="edge1" class="edge"><title>Node1&#45;&gt;Node2</title>
<path fill="none" stroke="midnightblue" d="M289.268,-206.717C273.27,-196.274 255.324,-184.559 241.707,-175.67"/>
<polygon fill="midnightblue" stroke="midnightblue" points="287.629,-209.826 297.916,-212.362 291.455,-203.965 287.629,-209.826"/>
</g>
<!-- Node6 -->
<g id="node6" class="node"><title>Node6</title>
<g id="a_node6"><a xlink:href="../../df/d65/widget_8h.html" target="_top" xlink:title="src/operational/src\l/chain/widget.h">
<polygon fill="white" stroke="black" points="347.5,-145.5 347.5,-175.5 444.5,-175.5 444.5,-145.5 347.5,-145.5"/>
<text text-anchor="start" x="355.5" y="-163.5" font-family="Helvetica,sans-Serif" font-size="10.00">src/operational/src</text>
<text text-anchor="middle" x="396" y="-152.5" font-family="Helvetica,sans-Serif" font-size="10.00">/chain/widget.h</text>
</a>
</g>
</g>
<!-- Node1&#45;&gt;Node6 -->
<g id="edge5" class="edge"><title>Node1&#45;&gt;Node6</title>
<path fill="none" stroke="midnightblue" d="M354.025,-205.019C363.585,-195.107 374.036,-184.271 382.119,-175.892"/>
<polygon fill="midnightblue" stroke="midnightblue" points="351.365,-202.734 346.942,-212.362 356.403,-207.594 351.365,-202.734"/>
</g>
<!-- Node3 -->
<g id="node3" class="node"><title>Node3</title>
<g id="a_node3"><a xlink:href="../../dc/d16/application_8cc.html" target="_top" xlink:title="src/operational/src\l/chain/application.cc">
<polygon fill="white" stroke="black" points="0,-73 0,-103 106,-103 106,-73 0,-73"/>
<text text-anchor="start" x="8" y="-91" font-family="Helvetica,sans-Serif" font-size="10.00">src/operational/src</text>
<text text-anchor="middle" x="53" y="-80" font-family="Helvetica,sans-Serif" font-size="10.00">/chain/application.cc</text>
</a>
</g>
</g>
<!-- Node2&#45;&gt;Node3 -->
<g id="edge2" class="edge"><title>Node2&#45;&gt;Node3</title>
<path fill="none" stroke="midnightblue" d="M177.36,-141.499C149.075,-129.559 112.489,-114.114 86.3357,-103.073"/>
<polygon fill="midnightblue" stroke="midnightblue" points="176.032,-144.738 186.606,-145.403 178.755,-138.289 176.032,-144.738"/>
</g>
<!-- Node4 -->
<g id="node4" class="node"><title>Node4</title>
<g id="a_node4"><a xlink:href="../../d9/d4a/application__test_8cc.html" target="_top" xlink:title="src/operational_tests\l/src/chain/application\l_test.cc">
<polygon fill="white" stroke="black" points="124.5,-67.5 124.5,-108.5 233.5,-108.5 233.5,-67.5 124.5,-67.5"/>
<text text-anchor="start" x="132.5" y="-96.5" font-family="Helvetica,sans-Serif" font-size="10.00">src/operational_tests</text>
<text text-anchor="start" x="132.5" y="-85.5" font-family="Helvetica,sans-Serif" font-size="10.00">/src/chain/application</text>
<text text-anchor="middle" x="179" y="-74.5" font-family="Helvetica,sans-Serif" font-size="10.00">_test.cc</text>
</a>
</g>
</g>
<!-- Node2&#45;&gt;Node4 -->
<g id="edge3" class="edge"><title>Node2&#45;&gt;Node4</title>
<path fill="none" stroke="midnightblue" d="M206.573,-136.411C201.341,-127.416 195.41,-117.217 190.392,-108.588"/>
<polygon fill="midnightblue" stroke="midnightblue" points="203.65,-138.348 211.703,-145.233 209.701,-134.829 203.65,-138.348"/>
</g>
<!-- Node5 -->
<g id="node5" class="node"><title>Node5</title>
<g id="a_node5"><a xlink:href="../../d1/d4e/chain__test_8cc.html" target="_top" xlink:title="src/operational_tests\l/src/chain/chain_test.cc">
<polygon fill="white" stroke="black" points="201.5,-0.5 201.5,-30.5 322.5,-30.5 322.5,-0.5 201.5,-0.5"/>
<text text-anchor="start" x="209.5" y="-18.5" font-family="Helvetica,sans-Serif" font-size="10.00">src/operational_tests</text>
<text text-anchor="middle" x="262" y="-7.5" font-family="Helvetica,sans-Serif" font-size="10.00">/src/chain/chain_test.cc</text>
</a>
</g>
</g>
<!-- Node2&#45;&gt;Node5 -->
<g id="edge4" class="edge"><title>Node2&#45;&gt;Node5</title>
<path fill="none" stroke="midnightblue" d="M231.985,-136.095C235.921,-127.712 240.04,-118.085 243,-109 251.837,-81.8773 257.439,-48.8918 260.121,-30.5433"/>
<polygon fill="midnightblue" stroke="midnightblue" points="228.754,-134.736 227.53,-145.26 235.05,-137.797 228.754,-134.736"/>
</g>
<!-- Node7 -->
<g id="node7" class="node"><title>Node7</title>
<g id="a_node7"><a xlink:href="../../d7/d0e/button_8h.html" target="_top" xlink:title="src/operational/src\l/chain/button.h">
<polygon fill="white" stroke="black" points="290.5,-73 290.5,-103 387.5,-103 387.5,-73 290.5,-73"/>
<text text-anchor="start" x="298.5" y="-91" font-family="Helvetica,sans-Serif" font-size="10.00">src/operational/src</text>
<text text-anchor="middle" x="339" y="-80" font-family="Helvetica,sans-Serif" font-size="10.00">/chain/button.h</text>
</a>
</g>
</g>
<!-- Node6&#45;&gt;Node7 -->
<g id="edge6" class="edge"><title>Node6&#45;&gt;Node7</title>
<path fill="none" stroke="midnightblue" d="M377.98,-137.213C368.995,-126.099 358.394,-112.988 350.518,-103.246"/>
<polygon fill="midnightblue" stroke="midnightblue" points="375.456,-139.657 384.465,-145.233 380.9,-135.256 375.456,-139.657"/>
</g>
<!-- Node9 -->
<g id="node9" class="node"><title>Node9</title>
<g id="a_node9"><a xlink:href="../../d1/dc9/dialog_8h.html" target="_top" xlink:title="src/operational/src\l/chain/dialog.h">
<polygon fill="white" stroke="black" points="405.5,-73 405.5,-103 502.5,-103 502.5,-73 405.5,-73"/>
<text text-anchor="start" x="413.5" y="-91" font-family="Helvetica,sans-Serif" font-size="10.00">src/operational/src</text>
<text text-anchor="middle" x="454" y="-80" font-family="Helvetica,sans-Serif" font-size="10.00">/chain/dialog.h</text>
</a>
</g>
</g>
<!-- Node6&#45;&gt;Node9 -->
<g id="edge9" class="edge"><title>Node6&#45;&gt;Node9</title>
<path fill="none" stroke="midnightblue" d="M414.336,-137.213C423.479,-126.099 434.266,-112.988 442.28,-103.246"/>
<polygon fill="midnightblue" stroke="midnightblue" points="411.388,-135.287 407.737,-145.233 416.793,-139.734 411.388,-135.287"/>
</g>
<!-- Node11 -->
<g id="node11" class="node"><title>Node11</title>
<g id="a_node11"><a xlink:href="../../d4/db5/widget_8cc.html" target="_top" xlink:title="src/operational/src\l/chain/widget.cc">
<polygon fill="white" stroke="black" points="520.5,-73 520.5,-103 617.5,-103 617.5,-73 520.5,-73"/>
<text text-anchor="start" x="528.5" y="-91" font-family="Helvetica,sans-Serif" font-size="10.00">src/operational/src</text>
<text text-anchor="middle" x="569" y="-80" font-family="Helvetica,sans-Serif" font-size="10.00">/chain/widget.cc</text>
</a>
</g>
</g>
<!-- Node6&#45;&gt;Node11 -->
<g id="edge12" class="edge"><title>Node6&#45;&gt;Node11</title>
<path fill="none" stroke="midnightblue" d="M440.172,-141.499C469.473,-129.559 507.374,-114.114 534.467,-103.073"/>
<polygon fill="midnightblue" stroke="midnightblue" points="438.533,-138.388 430.593,-145.403 441.175,-144.87 438.533,-138.388"/>
</g>
<!-- Node7&#45;&gt;Node5 -->
<g id="edge8" class="edge"><title>Node7&#45;&gt;Node5</title>
<path fill="none" stroke="midnightblue" d="M316.025,-65.964C303.508,-54.5043 288.362,-40.637 277.296,-30.5049"/>
<polygon fill="midnightblue" stroke="midnightblue" points="313.679,-68.5618 323.418,-72.7333 318.406,-63.3989 313.679,-68.5618"/>
</g>
<!-- Node8 -->
<g id="node8" class="node"><title>Node8</title>
<g id="a_node8"><a xlink:href="../../db/da7/button_8cc.html" target="_top" xlink:title="src/operational/src\l/chain/button.cc">
<polygon fill="white" stroke="black" points="340.5,-0.5 340.5,-30.5 437.5,-30.5 437.5,-0.5 340.5,-0.5"/>
<text text-anchor="start" x="348.5" y="-18.5" font-family="Helvetica,sans-Serif" font-size="10.00">src/operational/src</text>
<text text-anchor="middle" x="389" y="-7.5" font-family="Helvetica,sans-Serif" font-size="10.00">/chain/button.cc</text>
</a>
</g>
</g>
<!-- Node7&#45;&gt;Node8 -->
<g id="edge7" class="edge"><title>Node7&#45;&gt;Node8</title>
<path fill="none" stroke="midnightblue" d="M355.039,-64.3852C362.871,-53.342 372.055,-40.392 378.897,-30.7455"/>
<polygon fill="midnightblue" stroke="midnightblue" points="352.048,-62.5517 349.118,-72.7333 357.758,-66.6012 352.048,-62.5517"/>
</g>
<!-- Node9&#45;&gt;Node5 -->
<g id="edge11" class="edge"><title>Node9&#45;&gt;Node5</title>
<path fill="none" stroke="midnightblue" d="M405.822,-69.3098C373.19,-57.3275 330.656,-41.7096 300.326,-30.5729"/>
<polygon fill="midnightblue" stroke="midnightblue" points="405.014,-72.7413 415.607,-72.9027 407.427,-66.1703 405.014,-72.7413"/>
</g>
<!-- Node10 -->
<g id="node10" class="node"><title>Node10</title>
<g id="a_node10"><a xlink:href="../../df/d37/dialog_8cc.html" target="_top" xlink:title="src/operational/src\l/chain/dialog.cc">
<polygon fill="white" stroke="black" points="455.5,-0.5 455.5,-30.5 552.5,-30.5 552.5,-0.5 455.5,-0.5"/>
<text text-anchor="start" x="463.5" y="-18.5" font-family="Helvetica,sans-Serif" font-size="10.00">src/operational/src</text>
<text text-anchor="middle" x="504" y="-7.5" font-family="Helvetica,sans-Serif" font-size="10.00">/chain/dialog.cc</text>
</a>
</g>
</g>
<!-- Node9&#45;&gt;Node10 -->
<g id="edge10" class="edge"><title>Node9&#45;&gt;Node10</title>
<path fill="none" stroke="midnightblue" d="M470.039,-64.3852C477.871,-53.342 487.055,-40.392 493.897,-30.7455"/>
<polygon fill="midnightblue" stroke="midnightblue" points="467.048,-62.5517 464.118,-72.7333 472.758,-66.6012 467.048,-62.5517"/>
</g>
</g>
</svg>
        <g id="navigator" transform="translate(0 0)" fill="#404254">
                <rect fill="#f2f5e9" fill-opacity="0.5" stroke="#606060" stroke-width=".5" x="0" y="0" width="60" height="60"/>
                <use id="zoomplus" xlink:href="#zoomPlus" x="17" y="9" onmousedown="handleZoom(evt,'in')"/>
                <use id="zoomminus" xlink:href="#zoomMin" x="42" y="9" onmousedown="handleZoom(evt,'out')"/>
                <use id="reset" xlink:href="#resetDef" x="30" y="36" onmousedown="handleReset()"/>
                <g id="arrowUp" xlink:href="#dirArrow" transform="translate(30 24)" onmousedown="handlePan(0,-1)">
                  <use xlink:href="#rim" fill="#404040">
                        <set attributeName="fill" to="#808080" begin="arrowUp.mouseover" end="arrowUp.mouseout"/>
                  </use>
                  <path fill="none" stroke="white" stroke-width="1.5" d="M0,-3.0v7 M-2.5,-0.5L0,-3.0L2.5,-0.5"/>
                </g>
                <g id="arrowRight" xlink:href="#dirArrow" transform="rotate(90) translate(36 -43)" onmousedown="handlePan(1,0)">
                  <use xlink:href="#rim" fill="#404040">
                        <set attributeName="fill" to="#808080" begin="arrowRight.mouseover" end="arrowRight.mouseout"/>
                  </use>
                  <path fill="none" stroke="white" stroke-width="1.5" d="M0,-3.0v7 M-2.5,-0.5L0,-3.0L2.5,-0.5"/>
                </g>
                <g id="arrowDown" xlink:href="#dirArrow" transform="rotate(180) translate(-30 -48)" onmousedown="handlePan(0,1)">
                  <use xlink:href="#rim" fill="#404040">
                        <set attributeName="fill" to="#808080" begin="arrowDown.mouseover" end="arrowDown.mouseout"/>
                  </use>
                  <path fill="none" stroke="white" stroke-width="1.5" d="M0,-3.0v7 M-2.5,-0.5L0,-3.0L2.5,-0.5"/>
                </g>
                <g id="arrowLeft" xlink:href="#dirArrow" transform="rotate(270) translate(-36 17)" onmousedown="handlePan(-1,0)">
                  <use xlink:href="#rim" fill="#404040">
                        <set attributeName="fill" to="#808080" begin="arrowLeft.mouseover" end="arrowLeft.mouseout"/>
                  </use>
                  <path fill="none" stroke="white" stroke-width="1.5" d="M0,-3.0v7 M-2.5,-0.5L0,-3.0L2.5,-0.5"/>
                </g>
        </g>
        <svg viewBox="0 0 15 15" width="100%" height="30px" preserveAspectRatio="xMaxYMin meet">
         <g id="arrow_out" transform="scale(0.3 0.3)">
          <a xlink:href="help__handler__interface_8h__dep__incl_org.svg" target="_base">
           <rect id="button" ry="5" rx="5" y="6" x="6" height="38" width="38"
                fill="#f2f5e9" fill-opacity="0.5" stroke="#606060" stroke-width="1.0"/>
           <path id="arrow"
             d="M 11.500037,31.436501 C 11.940474,20.09759 22.043105,11.32322 32.158766,21.979434 L 37.068811,17.246167 C 37.068811,17.246167 37.088388,32 37.088388,32 L 22.160133,31.978069 C 22.160133,31.978069 26.997745,27.140456 26.997745,27.140456 C 18.528582,18.264221 13.291696,25.230495 11.500037,31.436501 z"
             style="fill:#404040;"/>
          </a>
         </g>
        </svg>
</svg>
