<?xml version="1.0" encoding="UTF-8" standalone="no"?>
<!DOCTYPE svg PUBLIC "-//W3C//DTD SVG 1.1//EN"
 "http://www.w3.org/Graphics/SVG/1.1/DTD/svg11.dtd">
<!-- Generated by graphviz version 2.38.0 (20140413.2041)
 -->
<!-- Title: creational::commons::BombedWall::BombedWall Pages: 1 -->
<svg width="293pt" height="39pt"
 viewBox="0.00 0.00 293.00 39.00" xmlns="http://www.w3.org/2000/svg" xmlns:xlink="http://www.w3.org/1999/xlink">
<g id="graph0" class="graph" transform="scale(1 1) rotate(0) translate(4 35)">
<title>creational::commons::BombedWall::BombedWall</title>
<polygon fill="white" stroke="none" points="-4,4 -4,-35 289,-35 289,4 -4,4"/>
<!-- Node1 -->
<g id="node1" class="node"><title>Node1</title>
<polygon fill="#bfbfbf" stroke="black" points="0,-0.5 0,-30.5 140,-30.5 140,-0.5 0,-0.5"/>
<text text-anchor="start" x="8" y="-18.5" font-family="Helvetica,sans-Serif" font-size="10.00">creational::commons</text>
<text text-anchor="middle" x="70" y="-7.5" font-family="Helvetica,sans-Serif" font-size="10.00">::BombedWall::BombedWall</text>
</g>
<!-- Node2 -->
<g id="node2" class="node"><title>Node2</title>
<g id="a_node2"><a xlink:href="../../da/db1/classcreational_1_1commons_1_1_bombed_wall.html#aa55bb5241df89f154db74f8accc345c6" target="_top" xlink:title="creational::commons\l::BombedWall::Clone">
<polygon fill="white" stroke="black" points="176,-0.5 176,-30.5 285,-30.5 285,-0.5 176,-0.5"/>
<text text-anchor="start" x="184" y="-18.5" font-family="Helvetica,sans-Serif" font-size="10.00">creational::commons</text>
<text text-anchor="middle" x="230.5" y="-7.5" font-family="Helvetica,sans-Serif" font-size="10.00">::BombedWall::Clone</text>
</a>
</g>
</g>
<!-- Node1&#45;&gt;Node2 -->
<g id="edge1" class="edge"><title>Node1&#45;&gt;Node2</title>
<path fill="none" stroke="midnightblue" d="M150.245,-15.5C158.944,-15.5 167.643,-15.5 175.922,-15.5"/>
<polygon fill="midnightblue" stroke="midnightblue" points="150.059,-12.0001 140.059,-15.5 150.059,-19.0001 150.059,-12.0001"/>
</g>
</g>
</svg>
