<?xml version="1.0" encoding="UTF-8" standalone="no"?>
<!DOCTYPE svg PUBLIC "-//W3C//DTD SVG 1.1//EN"
 "http://www.w3.org/Graphics/SVG/1.1/DTD/svg11.dtd">
<!-- Generated by graphviz version 2.38.0 (20140413.2041)
 -->
<!-- Title: src/operational/src/iterator/employee.h Pages: 1 -->
<svg width="441pt" height="184pt"
 viewBox="0.00 0.00 440.50 184.00" xmlns="http://www.w3.org/2000/svg" xmlns:xlink="http://www.w3.org/1999/xlink">
<g id="graph0" class="graph" transform="scale(1 1) rotate(0) translate(4 180)">
<title>src/operational/src/iterator/employee.h</title>
<polygon fill="white" stroke="none" points="-4,4 -4,-180 436.5,-180 436.5,4 -4,4"/>
<!-- Node1 -->
<g id="node1" class="node"><title>Node1</title>
<polygon fill="#bfbfbf" stroke="black" points="134.5,-145.5 134.5,-175.5 237.5,-175.5 237.5,-145.5 134.5,-145.5"/>
<text text-anchor="start" x="142.5" y="-163.5" font-family="Helvetica,sans-Serif" font-size="10.00">src/operational/src</text>
<text text-anchor="middle" x="186" y="-152.5" font-family="Helvetica,sans-Serif" font-size="10.00">/iterator/employee.h</text>
</g>
<!-- Node2 -->
<g id="node2" class="node"><title>Node2</title>
<g id="a_node2"><a xlink:href="../../db/db5/employee_8cc.html" target="_top" xlink:title="src/operational/src\l/iterator/employee.cc">
<polygon fill="white" stroke="black" points="0,-73 0,-103 108,-103 108,-73 0,-73"/>
<text text-anchor="start" x="8" y="-91" font-family="Helvetica,sans-Serif" font-size="10.00">src/operational/src</text>
<text text-anchor="middle" x="54" y="-80" font-family="Helvetica,sans-Serif" font-size="10.00">/iterator/employee.cc</text>
</a>
</g>
</g>
<!-- Node1&#45;&gt;Node2 -->
<g id="edge1" class="edge"><title>Node1&#45;&gt;Node2</title>
<path fill="none" stroke="midnightblue" d="M150.533,-140.558C128.436,-128.756 100.482,-113.826 80.3492,-103.073"/>
<polygon fill="midnightblue" stroke="midnightblue" points="149.135,-143.779 159.605,-145.403 152.433,-137.604 149.135,-143.779"/>
</g>
<!-- Node3 -->
<g id="node3" class="node"><title>Node3</title>
<g id="a_node3"><a xlink:href="../../d3/dda/print__n__employees_8cc.html" target="_top" xlink:title="src/operational/src\l/iterator/print_n_employees.cc">
<polygon fill="white" stroke="black" points="112,-0.5 112,-30.5 260,-30.5 260,-0.5 112,-0.5"/>
<text text-anchor="start" x="120" y="-18.5" font-family="Helvetica,sans-Serif" font-size="10.00">src/operational/src</text>
<text text-anchor="middle" x="186" y="-7.5" font-family="Helvetica,sans-Serif" font-size="10.00">/iterator/print_n_employees.cc</text>
</a>
</g>
</g>
<!-- Node1&#45;&gt;Node3 -->
<g id="edge2" class="edge"><title>Node1&#45;&gt;Node3</title>
<path fill="none" stroke="midnightblue" d="M169.145,-137.02C163.856,-128.666 158.697,-118.821 156,-109 151.057,-90.9998 151.057,-85.0002 156,-67 159.673,-53.6263 167.91,-40.2097 174.825,-30.5702"/>
<polygon fill="midnightblue" stroke="midnightblue" points="166.328,-139.102 174.825,-145.43 172.128,-135.184 166.328,-139.102"/>
</g>
<!-- Node4 -->
<g id="node4" class="node"><title>Node4</title>
<g id="a_node4"><a xlink:href="../../d1/dfc/print__n__employees_8h.html" target="_top" xlink:title="src/operational/src\l/iterator/print_n_employees.h">
<polygon fill="white" stroke="black" points="164.5,-73 164.5,-103 307.5,-103 307.5,-73 164.5,-73"/>
<text text-anchor="start" x="172.5" y="-91" font-family="Helvetica,sans-Serif" font-size="10.00">src/operational/src</text>
<text text-anchor="middle" x="236" y="-80" font-family="Helvetica,sans-Serif" font-size="10.00">/iterator/print_n_employees.h</text>
</a>
</g>
</g>
<!-- Node1&#45;&gt;Node4 -->
<g id="edge3" class="edge"><title>Node1&#45;&gt;Node4</title>
<path fill="none" stroke="midnightblue" d="M202.039,-136.885C209.871,-125.842 219.055,-112.892 225.897,-103.246"/>
<polygon fill="midnightblue" stroke="midnightblue" points="199.048,-135.052 196.118,-145.233 204.758,-139.101 199.048,-135.052"/>
</g>
<!-- Node5 -->
<g id="node5" class="node"><title>Node5</title>
<g id="a_node5"><a xlink:href="../../d9/d6d/iterator__test_8cc.html" target="_top" xlink:title="src/operational_tests\l/src/iterator/iterator\l_test.cc">
<polygon fill="white" stroke="black" points="325.5,-67.5 325.5,-108.5 432.5,-108.5 432.5,-67.5 325.5,-67.5"/>
<text text-anchor="start" x="333.5" y="-96.5" font-family="Helvetica,sans-Serif" font-size="10.00">src/operational_tests</text>
<text text-anchor="start" x="333.5" y="-85.5" font-family="Helvetica,sans-Serif" font-size="10.00">/src/iterator/iterator</text>
<text text-anchor="middle" x="379" y="-74.5" font-family="Helvetica,sans-Serif" font-size="10.00">_test.cc</text>
</a>
</g>
</g>
<!-- Node1&#45;&gt;Node5 -->
<g id="edge5" class="edge"><title>Node1&#45;&gt;Node5</title>
<path fill="none" stroke="midnightblue" d="M234.092,-141.933C261.863,-131.789 296.851,-119.008 325.49,-108.546"/>
<polygon fill="midnightblue" stroke="midnightblue" points="232.785,-138.684 224.593,-145.403 235.186,-145.259 232.785,-138.684"/>
</g>
<!-- Node4&#45;&gt;Node3 -->
<g id="edge4" class="edge"><title>Node4&#45;&gt;Node3</title>
<path fill="none" stroke="midnightblue" d="M219.961,-64.3852C212.129,-53.342 202.945,-40.392 196.103,-30.7455"/>
<polygon fill="midnightblue" stroke="midnightblue" points="217.242,-66.6012 225.882,-72.7333 222.952,-62.5517 217.242,-66.6012"/>
</g>
</g>
</svg>
