<?xml version="1.0" encoding="UTF-8" standalone="no"?>
<!DOCTYPE svg PUBLIC "-//W3C//DTD SVG 1.1//EN"
 "http://www.w3.org/Graphics/SVG/1.1/DTD/svg11.dtd">
<!-- Generated by graphviz version 2.38.0 (20140413.2041)
 -->
<!-- Title: src/operational/src/interpreter/constant.h Pages: 1 -->
<svg width="270pt" height="117pt"
 viewBox="0.00 0.00 269.50 117.00" xmlns="http://www.w3.org/2000/svg" xmlns:xlink="http://www.w3.org/1999/xlink">
<g id="graph0" class="graph" transform="scale(1 1) rotate(0) translate(4 113)">
<title>src/operational/src/interpreter/constant.h</title>
<polygon fill="white" stroke="none" points="-4,4 -4,-113 265.5,-113 265.5,4 -4,4"/>
<!-- Node1 -->
<g id="node1" class="node"><title>Node1</title>
<polygon fill="#bfbfbf" stroke="black" points="72.5,-78.5 72.5,-108.5 184.5,-108.5 184.5,-78.5 72.5,-78.5"/>
<text text-anchor="start" x="80.5" y="-96.5" font-family="Helvetica,sans-Serif" font-size="10.00">src/operational/src</text>
<text text-anchor="middle" x="128.5" y="-85.5" font-family="Helvetica,sans-Serif" font-size="10.00">/interpreter/constant.h</text>
</g>
<!-- Node2 -->
<g id="node2" class="node"><title>Node2</title>
<g id="a_node2"><a xlink:href="../../d6/d35/constant_8cc.html" target="_top" xlink:title="src/operational/src\l/interpreter/constant.cc">
<polygon fill="white" stroke="black" points="0,-6 0,-36 117,-36 117,-6 0,-6"/>
<text text-anchor="start" x="8" y="-24" font-family="Helvetica,sans-Serif" font-size="10.00">src/operational/src</text>
<text text-anchor="middle" x="58.5" y="-13" font-family="Helvetica,sans-Serif" font-size="10.00">/interpreter/constant.cc</text>
</a>
</g>
</g>
<!-- Node1&#45;&gt;Node2 -->
<g id="edge1" class="edge"><title>Node1&#45;&gt;Node2</title>
<path fill="none" stroke="midnightblue" d="M107.018,-70.8641C95.8475,-59.6142 82.5071,-46.1786 72.6445,-36.2455"/>
<polygon fill="midnightblue" stroke="midnightblue" points="104.805,-73.6031 114.334,-78.2333 109.772,-68.671 104.805,-73.6031"/>
</g>
<!-- Node3 -->
<g id="node3" class="node"><title>Node3</title>
<g id="a_node3"><a xlink:href="../../de/d72/interpreter__test_8cc.html" target="_top" xlink:title="src/operational_tests\l/src/interpreter/interpreter\l_test.cc">
<polygon fill="white" stroke="black" points="135.5,-0.5 135.5,-41.5 261.5,-41.5 261.5,-0.5 135.5,-0.5"/>
<text text-anchor="start" x="143.5" y="-29.5" font-family="Helvetica,sans-Serif" font-size="10.00">src/operational_tests</text>
<text text-anchor="start" x="143.5" y="-18.5" font-family="Helvetica,sans-Serif" font-size="10.00">/src/interpreter/interpreter</text>
<text text-anchor="middle" x="198.5" y="-7.5" font-family="Helvetica,sans-Serif" font-size="10.00">_test.cc</text>
</a>
</g>
</g>
<!-- Node1&#45;&gt;Node3 -->
<g id="edge2" class="edge"><title>Node1&#45;&gt;Node3</title>
<path fill="none" stroke="midnightblue" d="M149.748,-71.1007C159.071,-61.7107 169.942,-50.7615 179.05,-41.5884"/>
<polygon fill="midnightblue" stroke="midnightblue" points="147.228,-68.671 142.666,-78.2333 152.195,-73.6031 147.228,-68.671"/>
</g>
</g>
</svg>
