<?xml version="1.0" encoding="UTF-8" standalone="no"?>
<!DOCTYPE svg PUBLIC "-//W3C//DTD SVG 1.1//EN"
 "http://www.w3.org/Graphics/SVG/1.1/DTD/svg11.dtd">
<!-- Generated by graphviz version 2.38.0 (20140413.2041)
 -->
<!-- Title: operational::command::CommandInterface Pages: 1 -->
<svg width="554pt" height="237pt"
 viewBox="0.00 0.00 553.50 237.00" xmlns="http://www.w3.org/2000/svg" xmlns:xlink="http://www.w3.org/1999/xlink">
<g id="graph0" class="graph" transform="scale(1 1) rotate(0) translate(4 233)">
<title>operational::command::CommandInterface</title>
<polygon fill="white" stroke="none" points="-4,4 -4,-233 549.5,-233 549.5,4 -4,4"/>
<!-- Node1 -->
<g id="node1" class="node"><title>Node1</title>
<polygon fill="#bfbfbf" stroke="black" points="193,-149.5 193,-228.5 312,-228.5 312,-149.5 193,-149.5"/>
<text text-anchor="start" x="201" y="-216.5" font-family="Helvetica,sans-Serif" font-size="10.00">operational::command</text>
<text text-anchor="middle" x="252.5" y="-205.5" font-family="Helvetica,sans-Serif" font-size="10.00">::CommandInterface</text>
<polyline fill="none" stroke="black" points="193,-198.5 312,-198.5 "/>
<text text-anchor="middle" x="252.5" y="-186.5" font-family="Helvetica,sans-Serif" font-size="10.00"> </text>
<polyline fill="none" stroke="black" points="193,-179.5 312,-179.5 "/>
<text text-anchor="start" x="201" y="-167.5" font-family="Helvetica,sans-Serif" font-size="10.00">+ ~CommandInterface()</text>
<text text-anchor="start" x="201" y="-156.5" font-family="Helvetica,sans-Serif" font-size="10.00">+ Execute()</text>
</g>
<!-- Node2 -->
<g id="node2" class="node"><title>Node2</title>
<g id="a_node2"><a xlink:href="../../db/da6/classoperational_1_1command_1_1_macro_command.html" target="_top" xlink:title="{operational::command\l::MacroCommand\n||+ MacroCommand()\l+ ~MacroCommand()\l+ Add()\l+ Remove()\l+ Execute()\l}">
<polygon fill="white" stroke="black" points="0,-0.5 0,-112.5 113,-112.5 113,-0.5 0,-0.5"/>
<text text-anchor="start" x="8" y="-100.5" font-family="Helvetica,sans-Serif" font-size="10.00">operational::command</text>
<text text-anchor="middle" x="56.5" y="-89.5" font-family="Helvetica,sans-Serif" font-size="10.00">::MacroCommand</text>
<polyline fill="none" stroke="black" points="0,-82.5 113,-82.5 "/>
<text text-anchor="middle" x="56.5" y="-70.5" font-family="Helvetica,sans-Serif" font-size="10.00"> </text>
<polyline fill="none" stroke="black" points="0,-63.5 113,-63.5 "/>
<text text-anchor="start" x="8" y="-51.5" font-family="Helvetica,sans-Serif" font-size="10.00">+ MacroCommand()</text>
<text text-anchor="start" x="8" y="-40.5" font-family="Helvetica,sans-Serif" font-size="10.00">+ ~MacroCommand()</text>
<text text-anchor="start" x="8" y="-29.5" font-family="Helvetica,sans-Serif" font-size="10.00">+ Add()</text>
<text text-anchor="start" x="8" y="-18.5" font-family="Helvetica,sans-Serif" font-size="10.00">+ Remove()</text>
<text text-anchor="start" x="8" y="-7.5" font-family="Helvetica,sans-Serif" font-size="10.00">+ Execute()</text>
</a>
</g>
</g>
<!-- Node1&#45;&gt;Node2 -->
<g id="edge1" class="edge"><title>Node1&#45;&gt;Node2</title>
<path fill="none" stroke="midnightblue" d="M183.714,-151.812C163.205,-140.181 141.007,-126.732 121.5,-113 118.709,-111.036 115.895,-108.976 113.085,-106.854"/>
<polygon fill="none" stroke="midnightblue" points="182.26,-155.009 192.694,-156.851 185.686,-148.905 182.26,-155.009"/>
</g>
<!-- Node3 -->
<g id="node3" class="node"><title>Node3</title>
<g id="a_node3"><a xlink:href="../../d8/d69/classoperational_1_1command_1_1_open_command.html" target="_top" xlink:title="{operational::command\l::OpenCommand\n||+ OpenCommand()\l+ Execute()\l# AskUser()\l}">
<polygon fill="white" stroke="black" points="131,-11.5 131,-101.5 244,-101.5 244,-11.5 131,-11.5"/>
<text text-anchor="start" x="139" y="-89.5" font-family="Helvetica,sans-Serif" font-size="10.00">operational::command</text>
<text text-anchor="middle" x="187.5" y="-78.5" font-family="Helvetica,sans-Serif" font-size="10.00">::OpenCommand</text>
<polyline fill="none" stroke="black" points="131,-71.5 244,-71.5 "/>
<text text-anchor="middle" x="187.5" y="-59.5" font-family="Helvetica,sans-Serif" font-size="10.00"> </text>
<polyline fill="none" stroke="black" points="131,-52.5 244,-52.5 "/>
<text text-anchor="start" x="139" y="-40.5" font-family="Helvetica,sans-Serif" font-size="10.00">+ OpenCommand()</text>
<text text-anchor="start" x="139" y="-29.5" font-family="Helvetica,sans-Serif" font-size="10.00">+ Execute()</text>
<text text-anchor="start" x="139" y="-18.5" font-family="Helvetica,sans-Serif" font-size="10.00"># AskUser()</text>
</a>
</g>
</g>
<!-- Node1&#45;&gt;Node3 -->
<g id="edge2" class="edge"><title>Node1&#45;&gt;Node3</title>
<path fill="none" stroke="midnightblue" d="M228.539,-139.893C222.343,-127.454 215.701,-114.119 209.605,-101.879"/>
<polygon fill="none" stroke="midnightblue" points="225.582,-141.808 233.174,-149.199 231.848,-138.687 225.582,-141.808"/>
</g>
<!-- Node4 -->
<g id="node4" class="node"><title>Node4</title>
<g id="a_node4"><a xlink:href="../../d3/d98/classoperational_1_1command_1_1_paste_command.html" target="_top" xlink:title="{operational::command\l::PasteCommand\n||+ PasteCommand()\l+ Execute()\l}">
<polygon fill="white" stroke="black" points="262,-17 262,-96 375,-96 375,-17 262,-17"/>
<text text-anchor="start" x="270" y="-84" font-family="Helvetica,sans-Serif" font-size="10.00">operational::command</text>
<text text-anchor="middle" x="318.5" y="-73" font-family="Helvetica,sans-Serif" font-size="10.00">::PasteCommand</text>
<polyline fill="none" stroke="black" points="262,-66 375,-66 "/>
<text text-anchor="middle" x="318.5" y="-54" font-family="Helvetica,sans-Serif" font-size="10.00"> </text>
<polyline fill="none" stroke="black" points="262,-47 375,-47 "/>
<text text-anchor="start" x="270" y="-35" font-family="Helvetica,sans-Serif" font-size="10.00">+ PasteCommand()</text>
<text text-anchor="start" x="270" y="-24" font-family="Helvetica,sans-Serif" font-size="10.00">+ Execute()</text>
</a>
</g>
</g>
<!-- Node1&#45;&gt;Node4 -->
<g id="edge3" class="edge"><title>Node1&#45;&gt;Node4</title>
<path fill="none" stroke="midnightblue" d="M276.79,-139.971C284.05,-125.617 291.915,-110.066 298.838,-96.3768"/>
<polygon fill="none" stroke="midnightblue" points="273.513,-138.696 272.123,-149.199 279.76,-141.855 273.513,-138.696"/>
</g>
<!-- Node5 -->
<g id="node5" class="node"><title>Node5</title>
<g id="a_node5"><a xlink:href="../../d3/dc0/classoperational_1_1command_1_1_simple_command.html" target="_top" xlink:title="{operational::command\l::SimpleCommand\&lt; Receiver \&gt;\n||+ SimpleCommand()\l+ Execute()\l}">
<polygon fill="white" stroke="black" points="393.5,-17 393.5,-96 545.5,-96 545.5,-17 393.5,-17"/>
<text text-anchor="start" x="401.5" y="-84" font-family="Helvetica,sans-Serif" font-size="10.00">operational::command</text>
<text text-anchor="middle" x="469.5" y="-73" font-family="Helvetica,sans-Serif" font-size="10.00">::SimpleCommand&lt; Receiver &gt;</text>
<polyline fill="none" stroke="black" points="393.5,-66 545.5,-66 "/>
<text text-anchor="middle" x="469.5" y="-54" font-family="Helvetica,sans-Serif" font-size="10.00"> </text>
<polyline fill="none" stroke="black" points="393.5,-47 545.5,-47 "/>
<text text-anchor="start" x="401.5" y="-35" font-family="Helvetica,sans-Serif" font-size="10.00">+ SimpleCommand()</text>
<text text-anchor="start" x="401.5" y="-24" font-family="Helvetica,sans-Serif" font-size="10.00">+ Execute()</text>
</a>
</g>
</g>
<!-- Node1&#45;&gt;Node5 -->
<g id="edge4" class="edge"><title>Node1&#45;&gt;Node5</title>
<path fill="none" stroke="midnightblue" d="M321.075,-150.099C341.624,-138.457 364.113,-125.431 384.5,-113 393.227,-107.678 402.363,-101.919 411.275,-96.194"/>
<polygon fill="none" stroke="midnightblue" points="319.08,-147.206 312.093,-155.17 322.521,-153.301 319.08,-147.206"/>
</g>
</g>
</svg>
