<?xml version="1.0" encoding="UTF-8" standalone="no"?>
<!DOCTYPE svg PUBLIC "-//W3C//DTD SVG 1.1//EN"
 "http://www.w3.org/Graphics/SVG/1.1/DTD/svg11.dtd">
<!-- Generated by graphviz version 2.38.0 (20140413.2041)
 -->
<!-- Title: src/creational/src/mazeparts/enchanted_room.h Pages: 1 -->
<svg width="849pt" height="128pt"
 viewBox="0.00 0.00 849.00 128.00" xmlns="http://www.w3.org/2000/svg" xmlns:xlink="http://www.w3.org/1999/xlink">
<g id="graph0" class="graph" transform="scale(1 1) rotate(0) translate(4 124)">
<title>src/creational/src/mazeparts/enchanted_room.h</title>
<polygon fill="white" stroke="none" points="-4,4 -4,-124 845,-124 845,4 -4,4"/>
<!-- Node1 -->
<g id="node1" class="node"><title>Node1</title>
<polygon fill="#bfbfbf" stroke="black" points="369.5,-78.5 369.5,-119.5 482.5,-119.5 482.5,-78.5 369.5,-78.5"/>
<text text-anchor="start" x="377.5" y="-107.5" font-family="Helvetica,sans-Serif" font-size="10.00">src/creational/src</text>
<text text-anchor="start" x="377.5" y="-96.5" font-family="Helvetica,sans-Serif" font-size="10.00">/mazeparts/enchanted</text>
<text text-anchor="middle" x="426" y="-85.5" font-family="Helvetica,sans-Serif" font-size="10.00">_room.h</text>
</g>
<!-- Node2 -->
<g id="node2" class="node"><title>Node2</title>
<g id="a_node2"><a xlink:href="../../d3/d4b/enchanted__maze__factory_8cc.html" target="_top" xlink:title="src/creational/src\l/abstractfactory/enchanted\l_maze_factory.cc">
<polygon fill="white" stroke="black" points="0,-0.5 0,-41.5 132,-41.5 132,-0.5 0,-0.5"/>
<text text-anchor="start" x="8" y="-29.5" font-family="Helvetica,sans-Serif" font-size="10.00">src/creational/src</text>
<text text-anchor="start" x="8" y="-18.5" font-family="Helvetica,sans-Serif" font-size="10.00">/abstractfactory/enchanted</text>
<text text-anchor="middle" x="66" y="-7.5" font-family="Helvetica,sans-Serif" font-size="10.00">_maze_factory.cc</text>
</a>
</g>
</g>
<!-- Node1&#45;&gt;Node2 -->
<g id="edge1" class="edge"><title>Node1&#45;&gt;Node2</title>
<path fill="none" stroke="midnightblue" d="M359.133,-86.162C301.207,-75.5969 215.269,-59.179 141,-42 138.112,-41.3319 135.166,-40.6309 132.194,-39.9076"/>
<polygon fill="midnightblue" stroke="midnightblue" points="358.791,-89.6571 369.256,-88.0007 360.042,-82.7698 358.791,-89.6571"/>
</g>
<!-- Node3 -->
<g id="node3" class="node"><title>Node3</title>
<g id="a_node3"><a xlink:href="../../db/db5/enchanted__maze__game_8cc.html" target="_top" xlink:title="src/creational/src\l/factorymethod/enchanted\l_maze_game.cc">
<polygon fill="white" stroke="black" points="150.5,-0.5 150.5,-41.5 279.5,-41.5 279.5,-0.5 150.5,-0.5"/>
<text text-anchor="start" x="158.5" y="-29.5" font-family="Helvetica,sans-Serif" font-size="10.00">src/creational/src</text>
<text text-anchor="start" x="158.5" y="-18.5" font-family="Helvetica,sans-Serif" font-size="10.00">/factorymethod/enchanted</text>
<text text-anchor="middle" x="215" y="-7.5" font-family="Helvetica,sans-Serif" font-size="10.00">_maze_game.cc</text>
</a>
</g>
</g>
<!-- Node1&#45;&gt;Node3 -->
<g id="edge2" class="edge"><title>Node1&#45;&gt;Node3</title>
<path fill="none" stroke="midnightblue" d="M362.218,-75.0264C332.515,-64.3275 297.552,-51.7343 269.154,-41.5056"/>
<polygon fill="midnightblue" stroke="midnightblue" points="361.068,-78.3322 371.662,-78.4281 363.44,-71.7464 361.068,-78.3322"/>
</g>
<!-- Node4 -->
<g id="node4" class="node"><title>Node4</title>
<g id="a_node4"><a xlink:href="../../d5/d0f/enchanted__room_8cc.html" target="_top" xlink:title="src/creational/src\l/mazeparts/enchanted\l_room.cc">
<polygon fill="white" stroke="black" points="297.5,-0.5 297.5,-41.5 410.5,-41.5 410.5,-0.5 297.5,-0.5"/>
<text text-anchor="start" x="305.5" y="-29.5" font-family="Helvetica,sans-Serif" font-size="10.00">src/creational/src</text>
<text text-anchor="start" x="305.5" y="-18.5" font-family="Helvetica,sans-Serif" font-size="10.00">/mazeparts/enchanted</text>
<text text-anchor="middle" x="354" y="-7.5" font-family="Helvetica,sans-Serif" font-size="10.00">_room.cc</text>
</a>
</g>
</g>
<!-- Node1&#45;&gt;Node4 -->
<g id="edge3" class="edge"><title>Node1&#45;&gt;Node4</title>
<path fill="none" stroke="midnightblue" d="M400.341,-70.9158C391.14,-61.2029 380.953,-50.4502 372.479,-41.5056"/>
<polygon fill="midnightblue" stroke="midnightblue" points="398.04,-73.5757 407.458,-78.4281 403.122,-68.7614 398.04,-73.5757"/>
</g>
<!-- Node5 -->
<g id="node5" class="node"><title>Node5</title>
<g id="a_node5"><a xlink:href="../../d5/d51/maze__game__test_8cc.html" target="_top" xlink:title="src/creational_tests\l/src/mazegame/maze_game\l_test.cc">
<polygon fill="white" stroke="black" points="429,-0.5 429,-41.5 569,-41.5 569,-0.5 429,-0.5"/>
<text text-anchor="start" x="437" y="-29.5" font-family="Helvetica,sans-Serif" font-size="10.00">src/creational_tests</text>
<text text-anchor="start" x="437" y="-18.5" font-family="Helvetica,sans-Serif" font-size="10.00">/src/mazegame/maze_game</text>
<text text-anchor="middle" x="499" y="-7.5" font-family="Helvetica,sans-Serif" font-size="10.00">_test.cc</text>
</a>
</g>
</g>
<!-- Node1&#45;&gt;Node5 -->
<g id="edge4" class="edge"><title>Node1&#45;&gt;Node5</title>
<path fill="none" stroke="midnightblue" d="M451.738,-71.204C461.14,-61.416 471.588,-50.5388 480.264,-41.5056"/>
<polygon fill="midnightblue" stroke="midnightblue" points="449.202,-68.7915 444.799,-78.4281 454.251,-73.6407 449.202,-68.7915"/>
</g>
<!-- Node6 -->
<g id="node6" class="node"><title>Node6</title>
<g id="a_node6"><a xlink:href="../../d5/d10/enchanted__room__test_8cc.html" target="_top" xlink:title="src/creational_tests\l/src/mazeparts/enchanted\l_room_test.cc">
<polygon fill="white" stroke="black" points="587,-0.5 587,-41.5 717,-41.5 717,-0.5 587,-0.5"/>
<text text-anchor="start" x="595" y="-29.5" font-family="Helvetica,sans-Serif" font-size="10.00">src/creational_tests</text>
<text text-anchor="start" x="595" y="-18.5" font-family="Helvetica,sans-Serif" font-size="10.00">/src/mazeparts/enchanted</text>
<text text-anchor="middle" x="652" y="-7.5" font-family="Helvetica,sans-Serif" font-size="10.00">_room_test.cc</text>
</a>
</g>
</g>
<!-- Node1&#45;&gt;Node6 -->
<g id="edge5" class="edge"><title>Node1&#45;&gt;Node6</title>
<path fill="none" stroke="midnightblue" d="M492.486,-75.6418C524.572,-64.8518 562.72,-52.0234 593.663,-41.6176"/>
<polygon fill="midnightblue" stroke="midnightblue" points="491.1,-72.4151 482.738,-78.9201 493.332,-79.05 491.1,-72.4151"/>
</g>
<!-- Node7 -->
<g id="node7" class="node"><title>Node7</title>
<g id="a_node7"><a xlink:href="../../d9/d77/validator_8cc.html" target="_top" xlink:title="src/creational_tests\l/src/utils/validator.cc">
<polygon fill="white" stroke="black" points="735,-6 735,-36 841,-36 841,-6 735,-6"/>
<text text-anchor="start" x="743" y="-24" font-family="Helvetica,sans-Serif" font-size="10.00">src/creational_tests</text>
<text text-anchor="middle" x="788" y="-13" font-family="Helvetica,sans-Serif" font-size="10.00">/src/utils/validator.cc</text>
</a>
</g>
</g>
<!-- Node1&#45;&gt;Node7 -->
<g id="edge6" class="edge"><title>Node1&#45;&gt;Node7</title>
<path fill="none" stroke="midnightblue" d="M492.495,-88.0847C553.64,-78.3785 646.579,-62.1351 726,-42 732.797,-40.2767 739.939,-38.2151 746.859,-36.08"/>
<polygon fill="midnightblue" stroke="midnightblue" points="491.921,-84.6319 482.587,-89.6445 493.01,-91.5468 491.921,-84.6319"/>
</g>
</g>
</svg>
