<?xml version="1.0" encoding="UTF-8" standalone="no"?>
<!DOCTYPE svg PUBLIC "-//W3C//DTD SVG 1.1//EN"
 "http://www.w3.org/Graphics/SVG/1.1/DTD/svg11.dtd">
<!-- Generated by graphviz version 2.38.0 (20140413.2041)
 -->
<!-- Title: structural::proxy::ImageProxy Pages: 1 -->
<svg width="116pt" height="314pt"
 viewBox="0.00 0.00 116.00 314.00" xmlns="http://www.w3.org/2000/svg" xmlns:xlink="http://www.w3.org/1999/xlink">
<g id="graph0" class="graph" transform="scale(1 1) rotate(0) translate(4 310)">
<title>structural::proxy::ImageProxy</title>
<polygon fill="white" stroke="none" points="-4,4 -4,-310 112,-310 112,4 -4,4"/>
<!-- Node1 -->
<g id="node1" class="node"><title>Node1</title>
<polygon fill="#bfbfbf" stroke="black" points="7.5,-0.5 7.5,-145.5 100.5,-145.5 100.5,-0.5 7.5,-0.5"/>
<text text-anchor="start" x="15.5" y="-133.5" font-family="Helvetica,sans-Serif" font-size="10.00">structural::proxy::</text>
<text text-anchor="middle" x="54" y="-122.5" font-family="Helvetica,sans-Serif" font-size="10.00">ImageProxy</text>
<polyline fill="none" stroke="black" points="7.5,-115.5 100.5,-115.5 "/>
<text text-anchor="middle" x="54" y="-103.5" font-family="Helvetica,sans-Serif" font-size="10.00"> </text>
<polyline fill="none" stroke="black" points="7.5,-96.5 100.5,-96.5 "/>
<text text-anchor="start" x="15.5" y="-84.5" font-family="Helvetica,sans-Serif" font-size="10.00">+ ImageProxy()</text>
<text text-anchor="start" x="15.5" y="-73.5" font-family="Helvetica,sans-Serif" font-size="10.00">+ ~ImageProxy()</text>
<text text-anchor="start" x="15.5" y="-62.5" font-family="Helvetica,sans-Serif" font-size="10.00">+ Draw()</text>
<text text-anchor="start" x="15.5" y="-51.5" font-family="Helvetica,sans-Serif" font-size="10.00">+ HandleMouse()</text>
<text text-anchor="start" x="15.5" y="-40.5" font-family="Helvetica,sans-Serif" font-size="10.00">+ GetExtent()</text>
<text text-anchor="start" x="15.5" y="-29.5" font-family="Helvetica,sans-Serif" font-size="10.00">+ Load()</text>
<text text-anchor="start" x="15.5" y="-18.5" font-family="Helvetica,sans-Serif" font-size="10.00">+ Save()</text>
<text text-anchor="start" x="15.5" y="-7.5" font-family="Helvetica,sans-Serif" font-size="10.00"># GetImage()</text>
</g>
<!-- Node2 -->
<g id="node2" class="node"><title>Node2</title>
<g id="a_node2"><a xlink:href="../../de/d6f/classstructural_1_1proxy_1_1_graphic_interface.html" target="_top" xlink:title="{structural::proxy::\lGraphicInterface\n||+ ~GraphicInterface()\l+ Draw()\l+ HandleMouse()\l+ GetExtent()\l+ Load()\l+ Save()\l}">
<polygon fill="white" stroke="black" points="0,-182.5 0,-305.5 108,-305.5 108,-182.5 0,-182.5"/>
<text text-anchor="start" x="8" y="-293.5" font-family="Helvetica,sans-Serif" font-size="10.00">structural::proxy::</text>
<text text-anchor="middle" x="54" y="-282.5" font-family="Helvetica,sans-Serif" font-size="10.00">GraphicInterface</text>
<polyline fill="none" stroke="black" points="0,-275.5 108,-275.5 "/>
<text text-anchor="middle" x="54" y="-263.5" font-family="Helvetica,sans-Serif" font-size="10.00"> </text>
<polyline fill="none" stroke="black" points="0,-256.5 108,-256.5 "/>
<text text-anchor="start" x="8" y="-244.5" font-family="Helvetica,sans-Serif" font-size="10.00">+ ~GraphicInterface()</text>
<text text-anchor="start" x="8" y="-233.5" font-family="Helvetica,sans-Serif" font-size="10.00">+ Draw()</text>
<text text-anchor="start" x="8" y="-222.5" font-family="Helvetica,sans-Serif" font-size="10.00">+ HandleMouse()</text>
<text text-anchor="start" x="8" y="-211.5" font-family="Helvetica,sans-Serif" font-size="10.00">+ GetExtent()</text>
<text text-anchor="start" x="8" y="-200.5" font-family="Helvetica,sans-Serif" font-size="10.00">+ Load()</text>
<text text-anchor="start" x="8" y="-189.5" font-family="Helvetica,sans-Serif" font-size="10.00">+ Save()</text>
</a>
</g>
</g>
<!-- Node2&#45;&gt;Node1 -->
<g id="edge1" class="edge"><title>Node2&#45;&gt;Node1</title>
<path fill="none" stroke="midnightblue" d="M54,-172.254C54,-163.456 54,-154.454 54,-145.643"/>
<polygon fill="none" stroke="midnightblue" points="50.5001,-172.464 54,-182.464 57.5001,-172.465 50.5001,-172.464"/>
</g>
</g>
</svg>
