<?xml version="1.0" encoding="UTF-8" standalone="no"?>
<!DOCTYPE svg PUBLIC "-//W3C//DTD SVG 1.1//EN"
 "http://www.w3.org/Graphics/SVG/1.1/DTD/svg11.dtd">
<!-- Generated by graphviz version 2.38.0 (20140413.2041)
 -->
<!-- Title: src/operational/src/iterator/skip_list.h Pages: 1 -->
<svg width="204pt" height="207pt"
 viewBox="0.00 0.00 203.50 207.00" xmlns="http://www.w3.org/2000/svg" xmlns:xlink="http://www.w3.org/1999/xlink">
<g id="graph0" class="graph" transform="scale(1 1) rotate(0) translate(4 203)">
<title>src/operational/src/iterator/skip_list.h</title>
<polygon fill="white" stroke="none" points="-4,4 -4,-203 199.5,-203 199.5,4 -4,4"/>
<!-- Node1 -->
<g id="node1" class="node"><title>Node1</title>
<polygon fill="#bfbfbf" stroke="black" points="74,-168.5 74,-198.5 171,-198.5 171,-168.5 74,-168.5"/>
<text text-anchor="start" x="82" y="-186.5" font-family="Helvetica,sans-Serif" font-size="10.00">src/operational/src</text>
<text text-anchor="middle" x="122.5" y="-175.5" font-family="Helvetica,sans-Serif" font-size="10.00">/iterator/skip_list.h</text>
</g>
<!-- Node2 -->
<g id="node2" class="node"><title>Node2</title>
<g id="a_node2"><a xlink:href="../../da/d23/list_8h.html" target="_top" xlink:title="list.h">
<polygon fill="white" stroke="black" points="103.5,-112.5 103.5,-131.5 141.5,-131.5 141.5,-112.5 103.5,-112.5"/>
<text text-anchor="middle" x="122.5" y="-119.5" font-family="Helvetica,sans-Serif" font-size="10.00">list.h</text>
</a>
</g>
</g>
<!-- Node1&#45;&gt;Node2 -->
<g id="edge1" class="edge"><title>Node1&#45;&gt;Node2</title>
<path fill="none" stroke="midnightblue" d="M122.5,-168.399C122.5,-160.466 122.5,-150.458 122.5,-141.858"/>
<polygon fill="midnightblue" stroke="midnightblue" points="126,-141.658 122.5,-131.658 119,-141.658 126,-141.658"/>
</g>
<!-- Node3 -->
<g id="node3" class="node"><title>Node3</title>
<g id="a_node3"><a xlink:href="../../d9/d71/list__iterator_8h.html" target="_top" xlink:title="list_iterator.h">
<polygon fill="white" stroke="black" points="54,-56.5 54,-75.5 127,-75.5 127,-56.5 54,-56.5"/>
<text text-anchor="middle" x="90.5" y="-63.5" font-family="Helvetica,sans-Serif" font-size="10.00">list_iterator.h</text>
</a>
</g>
</g>
<!-- Node2&#45;&gt;Node3 -->
<g id="edge2" class="edge"><title>Node2&#45;&gt;Node3</title>
<path fill="none" stroke="midnightblue" d="M117.216,-112.083C112.789,-104.613 106.337,-93.7244 100.882,-84.5199"/>
<polygon fill="midnightblue" stroke="midnightblue" points="103.795,-82.5697 95.6858,-75.7511 97.7729,-86.1383 103.795,-82.5697"/>
</g>
<!-- Node5 -->
<g id="node5" class="node"><title>Node5</title>
<g id="a_node5"><a xlink:href="../../dd/d8c/list__interface_8h.html" target="_top" xlink:title="list_interface.h">
<polygon fill="white" stroke="black" points="115.5,-0.5 115.5,-19.5 195.5,-19.5 195.5,-0.5 115.5,-0.5"/>
<text text-anchor="middle" x="155.5" y="-7.5" font-family="Helvetica,sans-Serif" font-size="10.00">list_interface.h</text>
</a>
</g>
</g>
<!-- Node2&#45;&gt;Node5 -->
<g id="edge5" class="edge"><title>Node2&#45;&gt;Node5</title>
<path fill="none" stroke="midnightblue" d="M125.089,-112.368C130.439,-94.5366 142.811,-53.2953 150.018,-29.2717"/>
<polygon fill="midnightblue" stroke="midnightblue" points="153.401,-30.1754 152.923,-19.5914 146.697,-28.1639 153.401,-30.1754"/>
</g>
<!-- Node4 -->
<g id="node4" class="node"><title>Node4</title>
<g id="a_node4"><a xlink:href="../../d6/da4/iterator__interface_8h.html" target="_top" xlink:title="iterator_interface.h">
<polygon fill="white" stroke="black" points="0,-0.5 0,-19.5 97,-19.5 97,-0.5 0,-0.5"/>
<text text-anchor="middle" x="48.5" y="-7.5" font-family="Helvetica,sans-Serif" font-size="10.00">iterator_interface.h</text>
</a>
</g>
</g>
<!-- Node3&#45;&gt;Node4 -->
<g id="edge3" class="edge"><title>Node3&#45;&gt;Node4</title>
<path fill="none" stroke="midnightblue" d="M83.5646,-56.083C77.5708,-48.3768 68.7482,-37.0333 61.4524,-27.6531"/>
<polygon fill="midnightblue" stroke="midnightblue" points="64.2086,-25.4958 55.3064,-19.7511 58.6831,-29.7934 64.2086,-25.4958"/>
</g>
<!-- Node3&#45;&gt;Node5 -->
<g id="edge4" class="edge"><title>Node3&#45;&gt;Node5</title>
<path fill="none" stroke="midnightblue" d="M100.943,-56.324C110.646,-48.2631 125.315,-36.0765 137,-26.3695"/>
<polygon fill="midnightblue" stroke="midnightblue" points="139.411,-28.9163 144.867,-19.8339 134.938,-23.532 139.411,-28.9163"/>
</g>
</g>
</svg>
