<?xml version="1.0" encoding="UTF-8" standalone="no"?>
<!DOCTYPE svg PUBLIC "-//W3C//DTD SVG 1.1//EN"
 "http://www.w3.org/Graphics/SVG/1.1/DTD/svg11.dtd">
<!-- Generated by graphviz version 2.38.0 (20140413.2041)
 -->
<!-- Title: operational::templatemethod::TemplateApplication::CanOpenDocument Pages: 1 -->
<svg width="429pt" height="39pt"
 viewBox="0.00 0.00 429.00 39.00" xmlns="http://www.w3.org/2000/svg" xmlns:xlink="http://www.w3.org/1999/xlink">
<g id="graph0" class="graph" transform="scale(1 1) rotate(0) translate(4 35)">
<title>operational::templatemethod::TemplateApplication::CanOpenDocument</title>
<polygon fill="white" stroke="none" points="-4,4 -4,-35 425,-35 425,4 -4,4"/>
<!-- Node1 -->
<g id="node1" class="node"><title>Node1</title>
<polygon fill="#bfbfbf" stroke="black" points="0,-0.5 0,-30.5 201,-30.5 201,-0.5 0,-0.5"/>
<text text-anchor="start" x="8" y="-18.5" font-family="Helvetica,sans-Serif" font-size="10.00">operational::templatemethod</text>
<text text-anchor="middle" x="100.5" y="-7.5" font-family="Helvetica,sans-Serif" font-size="10.00">::TemplateApplication::CanOpenDocument</text>
</g>
<!-- Node2 -->
<g id="node2" class="node"><title>Node2</title>
<g id="a_node2"><a xlink:href="../../dd/dae/classoperational_1_1templatemethod_1_1_template_application.html#a8cd3a05eb94eeae68d6ed881e22e437f" target="_top" xlink:title="operational::templatemethod\l::TemplateApplication::OpenDocument">
<polygon fill="white" stroke="black" points="237,-0.5 237,-30.5 421,-30.5 421,-0.5 237,-0.5"/>
<text text-anchor="start" x="245" y="-18.5" font-family="Helvetica,sans-Serif" font-size="10.00">operational::templatemethod</text>
<text text-anchor="middle" x="329" y="-7.5" font-family="Helvetica,sans-Serif" font-size="10.00">::TemplateApplication::OpenDocument</text>
</a>
</g>
</g>
<!-- Node1&#45;&gt;Node2 -->
<g id="edge1" class="edge"><title>Node1&#45;&gt;Node2</title>
<path fill="none" stroke="midnightblue" d="M211.226,-15.5C219.808,-15.5 228.417,-15.5 236.855,-15.5"/>
<polygon fill="midnightblue" stroke="midnightblue" points="211.176,-12.0001 201.176,-15.5 211.176,-19.0001 211.176,-12.0001"/>
</g>
</g>
</svg>
