<?xml version="1.0" encoding="UTF-8" standalone="no"?>
<!DOCTYPE svg PUBLIC "-//W3C//DTD SVG 1.1//EN"
 "http://www.w3.org/Graphics/SVG/1.1/DTD/svg11.dtd">
<!-- Generated by graphviz version 2.38.0 (20140413.2041)
 -->
<!-- Title: operational::templatemethod::TemplateApplication::OpenDocument Pages: 1 -->
<svg width="429pt" height="149pt"
 viewBox="0.00 0.00 429.00 148.50" xmlns="http://www.w3.org/2000/svg" xmlns:xlink="http://www.w3.org/1999/xlink">
<g id="graph0" class="graph" transform="scale(1 1) rotate(0) translate(4 144.5)">
<title>operational::templatemethod::TemplateApplication::OpenDocument</title>
<polygon fill="white" stroke="none" points="-4,4 -4,-144.5 425,-144.5 425,4 -4,4"/>
<!-- Node1 -->
<g id="node1" class="node"><title>Node1</title>
<polygon fill="#bfbfbf" stroke="black" points="0,-61 0,-91 184,-91 184,-61 0,-61"/>
<text text-anchor="start" x="8" y="-79" font-family="Helvetica,sans-Serif" font-size="10.00">operational::templatemethod</text>
<text text-anchor="middle" x="92" y="-68" font-family="Helvetica,sans-Serif" font-size="10.00">::TemplateApplication::OpenDocument</text>
</g>
<!-- Node2 -->
<g id="node2" class="node"><title>Node2</title>
<g id="a_node2"><a xlink:href="../../dd/dae/classoperational_1_1templatemethod_1_1_template_application.html#a0075acf43934783b182bb455c57264a3" target="_top" xlink:title="operational::templatemethod\l::TemplateApplication::CanOpenDocument">
<polygon fill="white" stroke="black" points="220,-110 220,-140 421,-140 421,-110 220,-110"/>
<text text-anchor="start" x="228" y="-128" font-family="Helvetica,sans-Serif" font-size="10.00">operational::templatemethod</text>
<text text-anchor="middle" x="320.5" y="-117" font-family="Helvetica,sans-Serif" font-size="10.00">::TemplateApplication::CanOpenDocument</text>
</a>
</g>
</g>
<!-- Node1&#45;&gt;Node2 -->
<g id="edge1" class="edge"><title>Node1&#45;&gt;Node2</title>
<path fill="none" stroke="midnightblue" d="M162.497,-91.0346C187.064,-96.3494 214.878,-102.367 240.197,-107.844"/>
<polygon fill="midnightblue" stroke="midnightblue" points="239.621,-111.3 250.135,-109.994 241.101,-104.458 239.621,-111.3"/>
</g>
<!-- Node3 -->
<g id="node3" class="node"><title>Node3</title>
<g id="a_node3"><a xlink:href="../../dd/dae/classoperational_1_1templatemethod_1_1_template_application.html#a53937d1ea8855de1e6a78bc7c7cacb6a" target="_top" xlink:title="operational::templatemethod\l::TemplateApplication::CreateDocument">
<polygon fill="white" stroke="black" points="226,-61 226,-91 415,-91 415,-61 226,-61"/>
<text text-anchor="start" x="234" y="-79" font-family="Helvetica,sans-Serif" font-size="10.00">operational::templatemethod</text>
<text text-anchor="middle" x="320.5" y="-68" font-family="Helvetica,sans-Serif" font-size="10.00">::TemplateApplication::CreateDocument</text>
</a>
</g>
</g>
<!-- Node1&#45;&gt;Node3 -->
<g id="edge2" class="edge"><title>Node1&#45;&gt;Node3</title>
<path fill="none" stroke="midnightblue" d="M184.147,-76C194.581,-76 205.274,-76 215.855,-76"/>
<polygon fill="midnightblue" stroke="midnightblue" points="215.954,-79.5001 225.954,-76 215.954,-72.5001 215.954,-79.5001"/>
</g>
<!-- Node4 -->
<g id="node4" class="node"><title>Node4</title>
<g id="a_node4"><a xlink:href="../../dd/dae/classoperational_1_1templatemethod_1_1_template_application.html#a1c4f931aec93100c38239822657aa0fc" target="_top" xlink:title="operational::templatemethod\l::TemplateApplication::AboutToOpen\lDocument">
<polygon fill="white" stroke="black" points="232.5,-0.5 232.5,-41.5 408.5,-41.5 408.5,-0.5 232.5,-0.5"/>
<text text-anchor="start" x="240.5" y="-29.5" font-family="Helvetica,sans-Serif" font-size="10.00">operational::templatemethod</text>
<text text-anchor="start" x="240.5" y="-18.5" font-family="Helvetica,sans-Serif" font-size="10.00">::TemplateApplication::AboutToOpen</text>
<text text-anchor="middle" x="320.5" y="-7.5" font-family="Helvetica,sans-Serif" font-size="10.00">Document</text>
</a>
</g>
</g>
<!-- Node1&#45;&gt;Node4 -->
<g id="edge3" class="edge"><title>Node1&#45;&gt;Node4</title>
<path fill="none" stroke="midnightblue" d="M154.892,-60.971C176.439,-55.739 201.132,-49.7429 224.725,-44.0137"/>
<polygon fill="midnightblue" stroke="midnightblue" points="225.865,-47.3387 234.757,-41.5777 224.214,-40.5363 225.865,-47.3387"/>
</g>
</g>
</svg>
