<?xml version="1.0" encoding="UTF-8" standalone="no"?>
<!DOCTYPE svg PUBLIC "-//W3C//DTD SVG 1.1//EN"
 "http://www.w3.org/Graphics/SVG/1.1/DTD/svg11.dtd">
<!-- Generated by graphviz version 2.38.0 (20140413.2041)
 -->
<!-- Title: operational::templatemethod::TemplateApplication::CreateDocument Pages: 1 -->
<svg width="417pt" height="39pt"
 viewBox="0.00 0.00 417.00 39.00" xmlns="http://www.w3.org/2000/svg" xmlns:xlink="http://www.w3.org/1999/xlink">
<g id="graph0" class="graph" transform="scale(1 1) rotate(0) translate(4 35)">
<title>operational::templatemethod::TemplateApplication::CreateDocument</title>
<polygon fill="white" stroke="none" points="-4,4 -4,-35 413,-35 413,4 -4,4"/>
<!-- Node1 -->
<g id="node1" class="node"><title>Node1</title>
<polygon fill="#bfbfbf" stroke="black" points="0,-0.5 0,-30.5 189,-30.5 189,-0.5 0,-0.5"/>
<text text-anchor="start" x="8" y="-18.5" font-family="Helvetica,sans-Serif" font-size="10.00">operational::templatemethod</text>
<text text-anchor="middle" x="94.5" y="-7.5" font-family="Helvetica,sans-Serif" font-size="10.00">::TemplateApplication::CreateDocument</text>
</g>
<!-- Node2 -->
<g id="node2" class="node"><title>Node2</title>
<g id="a_node2"><a xlink:href="../../dd/dae/classoperational_1_1templatemethod_1_1_template_application.html#a8cd3a05eb94eeae68d6ed881e22e437f" target="_top" xlink:title="operational::templatemethod\l::TemplateApplication::OpenDocument">
<polygon fill="white" stroke="black" points="225,-0.5 225,-30.5 409,-30.5 409,-0.5 225,-0.5"/>
<text text-anchor="start" x="233" y="-18.5" font-family="Helvetica,sans-Serif" font-size="10.00">operational::templatemethod</text>
<text text-anchor="middle" x="317" y="-7.5" font-family="Helvetica,sans-Serif" font-size="10.00">::TemplateApplication::OpenDocument</text>
</a>
</g>
</g>
<!-- Node1&#45;&gt;Node2 -->
<g id="edge1" class="edge"><title>Node1&#45;&gt;Node2</title>
<path fill="none" stroke="midnightblue" d="M199.065,-15.5C207.66,-15.5 216.31,-15.5 224.805,-15.5"/>
<polygon fill="midnightblue" stroke="midnightblue" points="199.012,-12.0001 189.012,-15.5 199.012,-19.0001 199.012,-12.0001"/>
</g>
</g>
</svg>
