<?xml version="1.0" encoding="UTF-8" standalone="no"?>
<!DOCTYPE svg PUBLIC "-//W3C//DTD SVG 1.1//EN"
 "http://www.w3.org/Graphics/SVG/1.1/DTD/svg11.dtd">
<!-- Generated by graphviz version 2.38.0 (20140413.2041)
 -->
<!-- Title: operational::templatemethod::TemplateApplication::AboutToOpenDocument Pages: 1 -->
<svg width="404pt" height="50pt"
 viewBox="0.00 0.00 404.00 50.00" xmlns="http://www.w3.org/2000/svg" xmlns:xlink="http://www.w3.org/1999/xlink">
<g id="graph0" class="graph" transform="scale(1 1) rotate(0) translate(4 46)">
<title>operational::templatemethod::TemplateApplication::AboutToOpenDocument</title>
<polygon fill="white" stroke="none" points="-4,4 -4,-46 400,-46 400,4 -4,4"/>
<!-- Node1 -->
<g id="node1" class="node"><title>Node1</title>
<polygon fill="#bfbfbf" stroke="black" points="0,-0.5 0,-41.5 176,-41.5 176,-0.5 0,-0.5"/>
<text text-anchor="start" x="8" y="-29.5" font-family="Helvetica,sans-Serif" font-size="10.00">operational::templatemethod</text>
<text text-anchor="start" x="8" y="-18.5" font-family="Helvetica,sans-Serif" font-size="10.00">::TemplateApplication::AboutToOpen</text>
<text text-anchor="middle" x="88" y="-7.5" font-family="Helvetica,sans-Serif" font-size="10.00">Document</text>
</g>
<!-- Node2 -->
<g id="node2" class="node"><title>Node2</title>
<g id="a_node2"><a xlink:href="../../dd/dae/classoperational_1_1templatemethod_1_1_template_application.html#a8cd3a05eb94eeae68d6ed881e22e437f" target="_top" xlink:title="operational::templatemethod\l::TemplateApplication::OpenDocument">
<polygon fill="white" stroke="black" points="212,-6 212,-36 396,-36 396,-6 212,-6"/>
<text text-anchor="start" x="220" y="-24" font-family="Helvetica,sans-Serif" font-size="10.00">operational::templatemethod</text>
<text text-anchor="middle" x="304" y="-13" font-family="Helvetica,sans-Serif" font-size="10.00">::TemplateApplication::OpenDocument</text>
</a>
</g>
</g>
<!-- Node1&#45;&gt;Node2 -->
<g id="edge1" class="edge"><title>Node1&#45;&gt;Node2</title>
<path fill="none" stroke="midnightblue" d="M186.067,-21C194.652,-21 203.323,-21 211.857,-21"/>
<polygon fill="midnightblue" stroke="midnightblue" points="186.042,-17.5001 176.042,-21 186.042,-24.5001 186.042,-17.5001"/>
</g>
</g>
</svg>
