<?xml version="1.0" encoding="UTF-8" standalone="no"?>
<!DOCTYPE svg PUBLIC "-//W3C//DTD SVG 1.1//EN"
 "http://www.w3.org/Graphics/SVG/1.1/DTD/svg11.dtd">
<!-- Generated by graphviz version 2.38.0 (20140413.2041)
 -->
<!-- Title: structural::decorator::ASCII7Stream Pages: 1 -->
<svg width="114pt" height="375pt"
 viewBox="0.00 0.00 114.00 375.00" xmlns="http://www.w3.org/2000/svg" xmlns:xlink="http://www.w3.org/1999/xlink">
<g id="graph0" class="graph" transform="scale(1 1) rotate(0) translate(4 371)">
<title>structural::decorator::ASCII7Stream</title>
<polygon fill="white" stroke="none" points="-4,4 -4,-371 110,-371 110,4 -4,4"/>
<!-- Node1 -->
<g id="node1" class="node"><title>Node1</title>
<polygon fill="#bfbfbf" stroke="black" points="1,-0.5 1,-112.5 105,-112.5 105,-0.5 1,-0.5"/>
<text text-anchor="start" x="9" y="-100.5" font-family="Helvetica,sans-Serif" font-size="10.00">structural::decorator</text>
<text text-anchor="middle" x="53" y="-89.5" font-family="Helvetica,sans-Serif" font-size="10.00">::ASCII7Stream</text>
<polyline fill="none" stroke="black" points="1,-82.5 105,-82.5 "/>
<text text-anchor="middle" x="53" y="-70.5" font-family="Helvetica,sans-Serif" font-size="10.00"> </text>
<polyline fill="none" stroke="black" points="1,-63.5 105,-63.5 "/>
<text text-anchor="start" x="9" y="-51.5" font-family="Helvetica,sans-Serif" font-size="10.00">+ ASCII7Stream()</text>
<text text-anchor="start" x="9" y="-40.5" font-family="Helvetica,sans-Serif" font-size="10.00">+ PutInt()</text>
<text text-anchor="start" x="9" y="-29.5" font-family="Helvetica,sans-Serif" font-size="10.00">+ PutString()</text>
<text text-anchor="start" x="9" y="-18.5" font-family="Helvetica,sans-Serif" font-size="10.00">+ value()</text>
<text text-anchor="start" x="9" y="-7.5" font-family="Helvetica,sans-Serif" font-size="10.00">+ message()</text>
</g>
<!-- Node2 -->
<g id="node2" class="node"><title>Node2</title>
<g id="a_node2"><a xlink:href="../../d6/de5/classstructural_1_1decorator_1_1_stream_decorator.html" target="_top" xlink:title="{structural::decorator\l::StreamDecorator\n|# component_\l|+ StreamDecorator()\l+ PutInt()\l+ PutString()\l}">
<polygon fill="white" stroke="black" points="0.5,-149.5 0.5,-239.5 105.5,-239.5 105.5,-149.5 0.5,-149.5"/>
<text text-anchor="start" x="8.5" y="-227.5" font-family="Helvetica,sans-Serif" font-size="10.00">structural::decorator</text>
<text text-anchor="middle" x="53" y="-216.5" font-family="Helvetica,sans-Serif" font-size="10.00">::StreamDecorator</text>
<polyline fill="none" stroke="black" points="0.5,-209.5 105.5,-209.5 "/>
<text text-anchor="start" x="8.5" y="-197.5" font-family="Helvetica,sans-Serif" font-size="10.00"># component_</text>
<polyline fill="none" stroke="black" points="0.5,-190.5 105.5,-190.5 "/>
<text text-anchor="start" x="8.5" y="-178.5" font-family="Helvetica,sans-Serif" font-size="10.00">+ StreamDecorator()</text>
<text text-anchor="start" x="8.5" y="-167.5" font-family="Helvetica,sans-Serif" font-size="10.00">+ PutInt()</text>
<text text-anchor="start" x="8.5" y="-156.5" font-family="Helvetica,sans-Serif" font-size="10.00">+ PutString()</text>
</a>
</g>
</g>
<!-- Node2&#45;&gt;Node1 -->
<g id="edge1" class="edge"><title>Node2&#45;&gt;Node1</title>
<path fill="none" stroke="midnightblue" d="M53,-139.312C53,-130.611 53,-121.595 53,-112.867"/>
<polygon fill="none" stroke="midnightblue" points="49.5001,-139.345 53,-149.345 56.5001,-139.345 49.5001,-139.345"/>
</g>
<!-- Node3 -->
<g id="node3" class="node"><title>Node3</title>
<g id="a_node3"><a xlink:href="../../d1/dbf/classstructural_1_1decorator_1_1_stream_interface.html" target="_top" xlink:title="{structural::decorator\l::StreamInterface\n||+ ~StreamInterface()\l+ PutInt()\l+ PutString()\l}">
<polygon fill="white" stroke="black" points="0,-276.5 0,-366.5 106,-366.5 106,-276.5 0,-276.5"/>
<text text-anchor="start" x="8" y="-354.5" font-family="Helvetica,sans-Serif" font-size="10.00">structural::decorator</text>
<text text-anchor="middle" x="53" y="-343.5" font-family="Helvetica,sans-Serif" font-size="10.00">::StreamInterface</text>
<polyline fill="none" stroke="black" points="0,-336.5 106,-336.5 "/>
<text text-anchor="middle" x="53" y="-324.5" font-family="Helvetica,sans-Serif" font-size="10.00"> </text>
<polyline fill="none" stroke="black" points="0,-317.5 106,-317.5 "/>
<text text-anchor="start" x="8" y="-305.5" font-family="Helvetica,sans-Serif" font-size="10.00">+ ~StreamInterface()</text>
<text text-anchor="start" x="8" y="-294.5" font-family="Helvetica,sans-Serif" font-size="10.00">+ PutInt()</text>
<text text-anchor="start" x="8" y="-283.5" font-family="Helvetica,sans-Serif" font-size="10.00">+ PutString()</text>
</a>
</g>
</g>
<!-- Node3&#45;&gt;Node2 -->
<g id="edge2" class="edge"><title>Node3&#45;&gt;Node2</title>
<path fill="none" stroke="midnightblue" d="M53,-266.157C53,-257.282 53,-248.183 53,-239.594"/>
<polygon fill="none" stroke="midnightblue" points="49.5001,-266.43 53,-276.43 56.5001,-266.43 49.5001,-266.43"/>
</g>
</g>
</svg>
