<?xml version="1.0" encoding="UTF-8" standalone="no"?>
<!DOCTYPE svg PUBLIC "-//W3C//DTD SVG 1.1//EN"
 "http://www.w3.org/Graphics/SVG/1.1/DTD/svg11.dtd">
<!-- Generated by graphviz version 2.38.0 (20140413.2041)
 -->
<!-- Title: src/creational/src/mazeparts/enchanted_room.cc Pages: 1 -->
<svg width="255pt" height="218pt"
 viewBox="0.00 0.00 255.00 218.00" xmlns="http://www.w3.org/2000/svg" xmlns:xlink="http://www.w3.org/1999/xlink">
<g id="graph0" class="graph" transform="scale(1 1) rotate(0) translate(4 214)">
<title>src/creational/src/mazeparts/enchanted_room.cc</title>
<polygon fill="white" stroke="none" points="-4,4 -4,-214 251,-214 251,4 -4,4"/>
<!-- Node1 -->
<g id="node1" class="node"><title>Node1</title>
<polygon fill="#bfbfbf" stroke="black" points="133,-168.5 133,-209.5 246,-209.5 246,-168.5 133,-168.5"/>
<text text-anchor="start" x="141" y="-197.5" font-family="Helvetica,sans-Serif" font-size="10.00">src/creational/src</text>
<text text-anchor="start" x="141" y="-186.5" font-family="Helvetica,sans-Serif" font-size="10.00">/mazeparts/enchanted</text>
<text text-anchor="middle" x="189.5" y="-175.5" font-family="Helvetica,sans-Serif" font-size="10.00">_room.cc</text>
</g>
<!-- Node2 -->
<g id="node2" class="node"><title>Node2</title>
<g id="a_node2"><a xlink:href="../../d6/d36/enchanted__room_8h.html" target="_top" xlink:title="enchanted_room.h">
<polygon fill="white" stroke="black" points="141,-112.5 141,-131.5 238,-131.5 238,-112.5 141,-112.5"/>
<text text-anchor="middle" x="189.5" y="-119.5" font-family="Helvetica,sans-Serif" font-size="10.00">enchanted_room.h</text>
</a>
</g>
</g>
<!-- Node1&#45;&gt;Node2 -->
<g id="edge1" class="edge"><title>Node1&#45;&gt;Node2</title>
<path fill="none" stroke="midnightblue" d="M189.5,-168.498C189.5,-160.065 189.5,-150.235 189.5,-141.874"/>
<polygon fill="midnightblue" stroke="midnightblue" points="193,-141.652 189.5,-131.652 186,-141.653 193,-141.652"/>
</g>
<!-- Node3 -->
<g id="node3" class="node"><title>Node3</title>
<g id="a_node3"><a xlink:href="../../d9/dc0/room_8h.html" target="_top" xlink:title="room.h">
<polygon fill="white" stroke="black" points="133,-56.5 133,-75.5 180,-75.5 180,-56.5 133,-56.5"/>
<text text-anchor="middle" x="156.5" y="-63.5" font-family="Helvetica,sans-Serif" font-size="10.00">room.h</text>
</a>
</g>
</g>
<!-- Node2&#45;&gt;Node3 -->
<g id="edge2" class="edge"><title>Node2&#45;&gt;Node3</title>
<path fill="none" stroke="midnightblue" d="M184.051,-112.083C179.486,-104.613 172.832,-93.7244 167.207,-84.5199"/>
<polygon fill="midnightblue" stroke="midnightblue" points="170.049,-82.4588 161.848,-75.7511 164.076,-86.109 170.049,-82.4588"/>
</g>
<!-- Node6 -->
<g id="node6" class="node"><title>Node6</title>
<g id="a_node6"><a xlink:href="../../d4/de3/spell_8h.html" target="_top" xlink:title="spell.h">
<polygon fill="white" stroke="black" points="201,-56.5 201,-75.5 246,-75.5 246,-56.5 201,-56.5"/>
<text text-anchor="middle" x="223.5" y="-63.5" font-family="Helvetica,sans-Serif" font-size="10.00">spell.h</text>
</a>
</g>
</g>
<!-- Node2&#45;&gt;Node6 -->
<g id="edge5" class="edge"><title>Node2&#45;&gt;Node6</title>
<path fill="none" stroke="midnightblue" d="M195.114,-112.083C199.867,-104.534 206.818,-93.4948 212.652,-84.2298"/>
<polygon fill="midnightblue" stroke="midnightblue" points="215.624,-86.0783 217.99,-75.7511 209.7,-82.3486 215.624,-86.0783"/>
</g>
<!-- Node4 -->
<g id="node4" class="node"><title>Node4</title>
<g id="a_node4"><a xlink:href="../../db/d1a/map__site__interface_8h.html" target="_top" xlink:title="map_site_interface.h">
<polygon fill="white" stroke="black" points="0,-0.5 0,-19.5 107,-19.5 107,-0.5 0,-0.5"/>
<text text-anchor="middle" x="53.5" y="-7.5" font-family="Helvetica,sans-Serif" font-size="10.00">map_site_interface.h</text>
</a>
</g>
</g>
<!-- Node3&#45;&gt;Node4 -->
<g id="edge3" class="edge"><title>Node3&#45;&gt;Node4</title>
<path fill="none" stroke="midnightblue" d="M139.951,-56.324C123.508,-47.7034 98.0652,-34.3643 79.0316,-24.3855"/>
<polygon fill="midnightblue" stroke="midnightblue" points="80.4895,-21.198 70.0077,-19.6545 77.2391,-27.3977 80.4895,-21.198"/>
</g>
<!-- Node5 -->
<g id="node5" class="node"><title>Node5</title>
<g id="a_node5"><a xlink:href="../../dd/d04/direction_8h.html" target="_top" xlink:title="direction.h">
<polygon fill="white" stroke="black" points="125.5,-0.5 125.5,-19.5 187.5,-19.5 187.5,-0.5 125.5,-0.5"/>
<text text-anchor="middle" x="156.5" y="-7.5" font-family="Helvetica,sans-Serif" font-size="10.00">direction.h</text>
</a>
</g>
</g>
<!-- Node3&#45;&gt;Node5 -->
<g id="edge4" class="edge"><title>Node3&#45;&gt;Node5</title>
<path fill="none" stroke="midnightblue" d="M156.5,-56.083C156.5,-49.0059 156.5,-38.8611 156.5,-29.9865"/>
<polygon fill="midnightblue" stroke="midnightblue" points="160,-29.751 156.5,-19.7511 153,-29.7511 160,-29.751"/>
</g>
<!-- Node7 -->
<g id="node7" class="node"><title>Node7</title>
<polygon fill="white" stroke="#bfbfbf" points="206,-0.5 206,-19.5 247,-19.5 247,-0.5 206,-0.5"/>
<text text-anchor="middle" x="226.5" y="-7.5" font-family="Helvetica,sans-Serif" font-size="10.00">string</text>
</g>
<!-- Node6&#45;&gt;Node7 -->
<g id="edge6" class="edge"><title>Node6&#45;&gt;Node7</title>
<path fill="none" stroke="midnightblue" d="M223.995,-56.083C224.389,-49.0059 224.952,-38.8611 225.445,-29.9865"/>
<polygon fill="midnightblue" stroke="midnightblue" points="228.954,-29.9299 226.014,-19.7511 221.964,-29.5415 228.954,-29.9299"/>
</g>
</g>
</svg>
