<?xml version="1.0" encoding="UTF-8" standalone="no"?>
<!DOCTYPE svg PUBLIC "-//W3C//DTD SVG 1.1//EN"
 "http://www.w3.org/Graphics/SVG/1.1/DTD/svg11.dtd">
<!-- Generated by graphviz version 2.38.0 (20140413.2041)
 -->
<!-- Title: operational::iterator::SkipListIterator&lt; Item &gt; Pages: 1 -->
<svg width="133pt" height="452pt"
 viewBox="0.00 0.00 133.00 452.00" xmlns="http://www.w3.org/2000/svg" xmlns:xlink="http://www.w3.org/1999/xlink">
<g id="graph0" class="graph" transform="scale(1 1) rotate(0) translate(4 448)">
<title>operational::iterator::SkipListIterator&lt; Item &gt;</title>
<polygon fill="white" stroke="none" points="-4,4 -4,-448 129,-448 129,4 -4,4"/>
<!-- Node1 -->
<g id="node1" class="node"><title>Node1</title>
<polygon fill="#bfbfbf" stroke="black" points="0,-0.5 0,-123.5 125,-123.5 125,-0.5 0,-0.5"/>
<text text-anchor="start" x="8" y="-111.5" font-family="Helvetica,sans-Serif" font-size="10.00">operational::iterator</text>
<text text-anchor="middle" x="62.5" y="-100.5" font-family="Helvetica,sans-Serif" font-size="10.00">::SkipListIterator&lt; Item &gt;</text>
<polyline fill="none" stroke="black" points="0,-93.5 125,-93.5 "/>
<text text-anchor="middle" x="62.5" y="-81.5" font-family="Helvetica,sans-Serif" font-size="10.00"> </text>
<polyline fill="none" stroke="black" points="0,-74.5 125,-74.5 "/>
<text text-anchor="start" x="8" y="-62.5" font-family="Helvetica,sans-Serif" font-size="10.00">+ SkipListIterator()</text>
<text text-anchor="start" x="8" y="-51.5" font-family="Helvetica,sans-Serif" font-size="10.00">+ ~SkipListIterator()</text>
<text text-anchor="start" x="8" y="-40.5" font-family="Helvetica,sans-Serif" font-size="10.00">+ First()</text>
<text text-anchor="start" x="8" y="-29.5" font-family="Helvetica,sans-Serif" font-size="10.00">+ Next()</text>
<text text-anchor="start" x="8" y="-18.5" font-family="Helvetica,sans-Serif" font-size="10.00">+ IsDone()</text>
<text text-anchor="start" x="8" y="-7.5" font-family="Helvetica,sans-Serif" font-size="10.00">+ CurrentItem()</text>
</g>
<!-- Node2 -->
<g id="node2" class="node"><title>Node2</title>
<g id="a_node2"><a xlink:href="../../da/d8a/classoperational_1_1iterator_1_1_list_iterator.html" target="_top" xlink:title="{operational::iterator\l::ListIterator\&lt; Item \&gt;\n||+ ListIterator()\l+ ~ListIterator()\l+ First()\l+ Next()\l+ IsDone()\l+ CurrentItem()\l}">
<polygon fill="white" stroke="black" points="10,-160.5 10,-283.5 115,-283.5 115,-160.5 10,-160.5"/>
<text text-anchor="start" x="18" y="-271.5" font-family="Helvetica,sans-Serif" font-size="10.00">operational::iterator</text>
<text text-anchor="middle" x="62.5" y="-260.5" font-family="Helvetica,sans-Serif" font-size="10.00">::ListIterator&lt; Item &gt;</text>
<polyline fill="none" stroke="black" points="10,-253.5 115,-253.5 "/>
<text text-anchor="middle" x="62.5" y="-241.5" font-family="Helvetica,sans-Serif" font-size="10.00"> </text>
<polyline fill="none" stroke="black" points="10,-234.5 115,-234.5 "/>
<text text-anchor="start" x="18" y="-222.5" font-family="Helvetica,sans-Serif" font-size="10.00">+ ListIterator()</text>
<text text-anchor="start" x="18" y="-211.5" font-family="Helvetica,sans-Serif" font-size="10.00">+ ~ListIterator()</text>
<text text-anchor="start" x="18" y="-200.5" font-family="Helvetica,sans-Serif" font-size="10.00">+ First()</text>
<text text-anchor="start" x="18" y="-189.5" font-family="Helvetica,sans-Serif" font-size="10.00">+ Next()</text>
<text text-anchor="start" x="18" y="-178.5" font-family="Helvetica,sans-Serif" font-size="10.00">+ IsDone()</text>
<text text-anchor="start" x="18" y="-167.5" font-family="Helvetica,sans-Serif" font-size="10.00">+ CurrentItem()</text>
</a>
</g>
</g>
<!-- Node2&#45;&gt;Node1 -->
<g id="edge1" class="edge"><title>Node2&#45;&gt;Node1</title>
<path fill="none" stroke="midnightblue" d="M62.5,-150.116C62.5,-141.31 62.5,-132.368 62.5,-123.734"/>
<polygon fill="none" stroke="midnightblue" points="59.0001,-150.365 62.5,-160.365 66.0001,-150.365 59.0001,-150.365"/>
</g>
<!-- Node3 -->
<g id="node3" class="node"><title>Node3</title>
<g id="a_node3"><a xlink:href="../../da/daf/classoperational_1_1iterator_1_1_iterator_interface.html" target="_top" xlink:title="{operational::iterator\l::IteratorInterface\&lt;\l Item \&gt;\n||+ ~IteratorInterface()\l+ First()\l+ Next()\l+ IsDone()\l+ CurrentItem()\l}">
<polygon fill="white" stroke="black" points="10.5,-320.5 10.5,-443.5 114.5,-443.5 114.5,-320.5 10.5,-320.5"/>
<text text-anchor="start" x="18.5" y="-431.5" font-family="Helvetica,sans-Serif" font-size="10.00">operational::iterator</text>
<text text-anchor="start" x="18.5" y="-420.5" font-family="Helvetica,sans-Serif" font-size="10.00">::IteratorInterface&lt;</text>
<text text-anchor="middle" x="62.5" y="-409.5" font-family="Helvetica,sans-Serif" font-size="10.00"> Item &gt;</text>
<polyline fill="none" stroke="black" points="10.5,-402.5 114.5,-402.5 "/>
<text text-anchor="middle" x="62.5" y="-390.5" font-family="Helvetica,sans-Serif" font-size="10.00"> </text>
<polyline fill="none" stroke="black" points="10.5,-383.5 114.5,-383.5 "/>
<text text-anchor="start" x="18.5" y="-371.5" font-family="Helvetica,sans-Serif" font-size="10.00">+ ~IteratorInterface()</text>
<text text-anchor="start" x="18.5" y="-360.5" font-family="Helvetica,sans-Serif" font-size="10.00">+ First()</text>
<text text-anchor="start" x="18.5" y="-349.5" font-family="Helvetica,sans-Serif" font-size="10.00">+ Next()</text>
<text text-anchor="start" x="18.5" y="-338.5" font-family="Helvetica,sans-Serif" font-size="10.00">+ IsDone()</text>
<text text-anchor="start" x="18.5" y="-327.5" font-family="Helvetica,sans-Serif" font-size="10.00">+ CurrentItem()</text>
</a>
</g>
</g>
<!-- Node3&#45;&gt;Node2 -->
<g id="edge2" class="edge"><title>Node3&#45;&gt;Node2</title>
<path fill="none" stroke="midnightblue" d="M62.5,-310.116C62.5,-301.31 62.5,-292.368 62.5,-283.734"/>
<polygon fill="none" stroke="midnightblue" points="59.0001,-310.365 62.5,-320.365 66.0001,-310.365 59.0001,-310.365"/>
</g>
</g>
</svg>
