<?xml version="1.0" encoding="UTF-8" standalone="no"?>
<!DOCTYPE svg PUBLIC "-//W3C//DTD SVG 1.1//EN"
 "http://www.w3.org/Graphics/SVG/1.1/DTD/svg11.dtd">
<!-- Generated by graphviz version 2.38.0 (20140413.2041)
 -->
<!-- Title: src/creational/src/mazeparts/door_needing_spell.h Pages: 1 -->
<svg width="718pt" height="128pt"
 viewBox="0.00 0.00 718.00 128.00" xmlns="http://www.w3.org/2000/svg" xmlns:xlink="http://www.w3.org/1999/xlink">
<g id="graph0" class="graph" transform="scale(1 1) rotate(0) translate(4 124)">
<title>src/creational/src/mazeparts/door_needing_spell.h</title>
<polygon fill="white" stroke="none" points="-4,4 -4,-124 714,-124 714,4 -4,4"/>
<!-- Node1 -->
<g id="node1" class="node"><title>Node1</title>
<polygon fill="#bfbfbf" stroke="black" points="298,-78.5 298,-119.5 424,-119.5 424,-78.5 298,-78.5"/>
<text text-anchor="start" x="306" y="-107.5" font-family="Helvetica,sans-Serif" font-size="10.00">src/creational/src</text>
<text text-anchor="start" x="306" y="-96.5" font-family="Helvetica,sans-Serif" font-size="10.00">/mazeparts/door_needing</text>
<text text-anchor="middle" x="361" y="-85.5" font-family="Helvetica,sans-Serif" font-size="10.00">_spell.h</text>
</g>
<!-- Node2 -->
<g id="node2" class="node"><title>Node2</title>
<g id="a_node2"><a xlink:href="../../d3/d4b/enchanted__maze__factory_8cc.html" target="_top" xlink:title="src/creational/src\l/abstractfactory/enchanted\l_maze_factory.cc">
<polygon fill="white" stroke="black" points="0,-0.5 0,-41.5 132,-41.5 132,-0.5 0,-0.5"/>
<text text-anchor="start" x="8" y="-29.5" font-family="Helvetica,sans-Serif" font-size="10.00">src/creational/src</text>
<text text-anchor="start" x="8" y="-18.5" font-family="Helvetica,sans-Serif" font-size="10.00">/abstractfactory/enchanted</text>
<text text-anchor="middle" x="66" y="-7.5" font-family="Helvetica,sans-Serif" font-size="10.00">_maze_factory.cc</text>
</a>
</g>
</g>
<!-- Node1&#45;&gt;Node2 -->
<g id="edge1" class="edge"><title>Node1&#45;&gt;Node2</title>
<path fill="none" stroke="midnightblue" d="M288.105,-79.6657C245.24,-68.8292 190.005,-54.7705 141,-42 138.131,-41.2524 135.201,-40.4856 132.243,-39.7083"/>
<polygon fill="midnightblue" stroke="midnightblue" points="287.336,-83.0812 297.888,-82.1372 289.05,-76.2944 287.336,-83.0812"/>
</g>
<!-- Node3 -->
<g id="node3" class="node"><title>Node3</title>
<g id="a_node3"><a xlink:href="../../db/db5/enchanted__maze__game_8cc.html" target="_top" xlink:title="src/creational/src\l/factorymethod/enchanted\l_maze_game.cc">
<polygon fill="white" stroke="black" points="150.5,-0.5 150.5,-41.5 279.5,-41.5 279.5,-0.5 150.5,-0.5"/>
<text text-anchor="start" x="158.5" y="-29.5" font-family="Helvetica,sans-Serif" font-size="10.00">src/creational/src</text>
<text text-anchor="start" x="158.5" y="-18.5" font-family="Helvetica,sans-Serif" font-size="10.00">/factorymethod/enchanted</text>
<text text-anchor="middle" x="215" y="-7.5" font-family="Helvetica,sans-Serif" font-size="10.00">_maze_game.cc</text>
</a>
</g>
</g>
<!-- Node1&#45;&gt;Node3 -->
<g id="edge2" class="edge"><title>Node1&#45;&gt;Node3</title>
<path fill="none" stroke="midnightblue" d="M314.448,-73.7675C294.435,-63.3498 271.356,-51.3358 252.471,-41.5056"/>
<polygon fill="midnightblue" stroke="midnightblue" points="312.915,-76.9153 323.401,-78.4281 316.147,-70.7061 312.915,-76.9153"/>
</g>
<!-- Node4 -->
<g id="node4" class="node"><title>Node4</title>
<g id="a_node4"><a xlink:href="../../db/dd4/door__needing__spell_8cc.html" target="_top" xlink:title="src/creational/src\l/mazeparts/door_needing\l_spell.cc">
<polygon fill="white" stroke="black" points="298,-0.5 298,-41.5 424,-41.5 424,-0.5 298,-0.5"/>
<text text-anchor="start" x="306" y="-29.5" font-family="Helvetica,sans-Serif" font-size="10.00">src/creational/src</text>
<text text-anchor="start" x="306" y="-18.5" font-family="Helvetica,sans-Serif" font-size="10.00">/mazeparts/door_needing</text>
<text text-anchor="middle" x="361" y="-7.5" font-family="Helvetica,sans-Serif" font-size="10.00">_spell.cc</text>
</a>
</g>
</g>
<!-- Node1&#45;&gt;Node4 -->
<g id="edge3" class="edge"><title>Node1&#45;&gt;Node4</title>
<path fill="none" stroke="midnightblue" d="M361,-68.2965C361,-59.3009 361,-49.6532 361,-41.5056"/>
<polygon fill="midnightblue" stroke="midnightblue" points="357.5,-68.4281 361,-78.4281 364.5,-68.4281 357.5,-68.4281"/>
</g>
<!-- Node5 -->
<g id="node5" class="node"><title>Node5</title>
<g id="a_node5"><a xlink:href="../../d8/d61/door__needing__spell__test_8cc.html" target="_top" xlink:title="src/creational_tests\l/src/mazeparts/door_needing\l_spell_test.cc">
<polygon fill="white" stroke="black" points="442.5,-0.5 442.5,-41.5 585.5,-41.5 585.5,-0.5 442.5,-0.5"/>
<text text-anchor="start" x="450.5" y="-29.5" font-family="Helvetica,sans-Serif" font-size="10.00">src/creational_tests</text>
<text text-anchor="start" x="450.5" y="-18.5" font-family="Helvetica,sans-Serif" font-size="10.00">/src/mazeparts/door_needing</text>
<text text-anchor="middle" x="514" y="-7.5" font-family="Helvetica,sans-Serif" font-size="10.00">_spell_test.cc</text>
</a>
</g>
</g>
<!-- Node1&#45;&gt;Node5 -->
<g id="edge4" class="edge"><title>Node1&#45;&gt;Node5</title>
<path fill="none" stroke="midnightblue" d="M409.501,-73.9082C430.538,-63.4581 454.853,-51.3801 474.732,-41.5056"/>
<polygon fill="midnightblue" stroke="midnightblue" points="407.8,-70.8448 400.401,-78.4281 410.914,-77.1139 407.8,-70.8448"/>
</g>
<!-- Node6 -->
<g id="node6" class="node"><title>Node6</title>
<g id="a_node6"><a xlink:href="../../d9/d77/validator_8cc.html" target="_top" xlink:title="src/creational_tests\l/src/utils/validator.cc">
<polygon fill="white" stroke="black" points="604,-6 604,-36 710,-36 710,-6 604,-6"/>
<text text-anchor="start" x="612" y="-24" font-family="Helvetica,sans-Serif" font-size="10.00">src/creational_tests</text>
<text text-anchor="middle" x="657" y="-13" font-family="Helvetica,sans-Serif" font-size="10.00">/src/utils/validator.cc</text>
</a>
</g>
</g>
<!-- Node1&#45;&gt;Node6 -->
<g id="edge5" class="edge"><title>Node1&#45;&gt;Node6</title>
<path fill="none" stroke="midnightblue" d="M434.354,-81.974C480.659,-71.4808 541.605,-56.9773 595,-42 601.425,-40.1978 608.182,-38.164 614.776,-36.1011"/>
<polygon fill="midnightblue" stroke="midnightblue" points="433.391,-78.6032 424.406,-84.2177 434.931,-85.4316 433.391,-78.6032"/>
</g>
</g>
</svg>
