<?xml version="1.0" encoding="UTF-8" standalone="no"?>
<!DOCTYPE svg PUBLIC "-//W3C//DTD SVG 1.1//EN"
 "http://www.w3.org/Graphics/SVG/1.1/DTD/svg11.dtd">
<!-- Generated by graphviz version 2.38.0 (20140413.2041)
 -->
<!-- Title: operational::madiator::MediatorWidget::Changed Pages: 1 -->
<svg width="299pt" height="50pt"
 viewBox="0.00 0.00 299.00 50.00" xmlns="http://www.w3.org/2000/svg" xmlns:xlink="http://www.w3.org/1999/xlink">
<g id="graph0" class="graph" transform="scale(1 1) rotate(0) translate(4 46)">
<title>operational::madiator::MediatorWidget::Changed</title>
<polygon fill="white" stroke="none" points="-4,4 -4,-46 295,-46 295,4 -4,4"/>
<!-- Node1 -->
<g id="node1" class="node"><title>Node1</title>
<polygon fill="#bfbfbf" stroke="black" points="0,-6 0,-36 135,-36 135,-6 0,-6"/>
<text text-anchor="start" x="8" y="-24" font-family="Helvetica,sans-Serif" font-size="10.00">operational::madiator</text>
<text text-anchor="middle" x="67.5" y="-13" font-family="Helvetica,sans-Serif" font-size="10.00">::MediatorWidget::Changed</text>
</g>
<!-- Node2 -->
<g id="node2" class="node"><title>Node2</title>
<g id="a_node2"><a xlink:href="../../d3/d99/classoperational_1_1madiator_1_1_dialog_director_interface.html#a1f0513461bfd6be0164e040d9156b81b" target="_top" xlink:title="operational::madiator\l::DialogDirectorInterface\l::WidgetChanged">
<polygon fill="white" stroke="black" points="171,-0.5 171,-41.5 291,-41.5 291,-0.5 171,-0.5"/>
<text text-anchor="start" x="179" y="-29.5" font-family="Helvetica,sans-Serif" font-size="10.00">operational::madiator</text>
<text text-anchor="start" x="179" y="-18.5" font-family="Helvetica,sans-Serif" font-size="10.00">::DialogDirectorInterface</text>
<text text-anchor="middle" x="231" y="-7.5" font-family="Helvetica,sans-Serif" font-size="10.00">::WidgetChanged</text>
</a>
</g>
</g>
<!-- Node1&#45;&gt;Node2 -->
<g id="edge1" class="edge"><title>Node1&#45;&gt;Node2</title>
<path fill="none" stroke="midnightblue" d="M135.121,-21C143.522,-21 152.133,-21 160.576,-21"/>
<polygon fill="midnightblue" stroke="midnightblue" points="160.766,-24.5001 170.766,-21 160.766,-17.5001 160.766,-24.5001"/>
</g>
</g>
</svg>
