<?xml version="1.0" encoding="UTF-8" standalone="no"?>
<!DOCTYPE svg PUBLIC "-//W3C//DTD SVG 1.1//EN"
 "http://www.w3.org/Graphics/SVG/1.1/DTD/svg11.dtd">
<!-- Generated by graphviz version 2.38.0 (20140413.2041)
 -->
<!-- Title: operational::madiator::MediatorWidget::Changed Pages: 1 -->
<svg width="335pt" height="137pt"
 viewBox="0.00 0.00 335.00 137.00" xmlns="http://www.w3.org/2000/svg" xmlns:xlink="http://www.w3.org/1999/xlink">
<g id="graph0" class="graph" transform="scale(1 1) rotate(0) translate(4 133)">
<title>operational::madiator::MediatorWidget::Changed</title>
<polygon fill="white" stroke="none" points="-4,4 -4,-133 331,-133 331,4 -4,4"/>
<!-- Node1 -->
<g id="node1" class="node"><title>Node1</title>
<polygon fill="#bfbfbf" stroke="black" points="0,-49.5 0,-79.5 135,-79.5 135,-49.5 0,-49.5"/>
<text text-anchor="start" x="8" y="-67.5" font-family="Helvetica,sans-Serif" font-size="10.00">operational::madiator</text>
<text text-anchor="middle" x="67.5" y="-56.5" font-family="Helvetica,sans-Serif" font-size="10.00">::MediatorWidget::Changed</text>
</g>
<!-- Node2 -->
<g id="node2" class="node"><title>Node2</title>
<g id="a_node2"><a xlink:href="../../d7/d87/classoperational_1_1madiator_1_1_entry_field.html#aa8589bf22cc442cf305f769821d27669" target="_top" xlink:title="operational::madiator\l::EntryField::HandleMouse">
<polygon fill="white" stroke="black" points="183,-98.5 183,-128.5 315,-128.5 315,-98.5 183,-98.5"/>
<text text-anchor="start" x="191" y="-116.5" font-family="Helvetica,sans-Serif" font-size="10.00">operational::madiator</text>
<text text-anchor="middle" x="249" y="-105.5" font-family="Helvetica,sans-Serif" font-size="10.00">::EntryField::HandleMouse</text>
</a>
</g>
</g>
<!-- Node1&#45;&gt;Node2 -->
<g id="edge1" class="edge"><title>Node1&#45;&gt;Node2</title>
<path fill="none" stroke="midnightblue" d="M133.517,-82.2485C152.972,-87.5591 174.107,-93.3288 192.862,-98.4484"/>
<polygon fill="midnightblue" stroke="midnightblue" points="134.389,-78.8585 123.821,-79.6014 132.546,-85.6114 134.389,-78.8585"/>
</g>
<!-- Node3 -->
<g id="node3" class="node"><title>Node3</title>
<g id="a_node3"><a xlink:href="../../d3/d5c/classoperational_1_1madiator_1_1_mediator_button.html#a131848edca98f1084f3edac0b4fcca8c" target="_top" xlink:title="operational::madiator\l::MediatorButton::HandleMouse">
<polygon fill="white" stroke="black" points="172,-49.5 172,-79.5 326,-79.5 326,-49.5 172,-49.5"/>
<text text-anchor="start" x="180" y="-67.5" font-family="Helvetica,sans-Serif" font-size="10.00">operational::madiator</text>
<text text-anchor="middle" x="249" y="-56.5" font-family="Helvetica,sans-Serif" font-size="10.00">::MediatorButton::HandleMouse</text>
</a>
</g>
</g>
<!-- Node1&#45;&gt;Node3 -->
<g id="edge2" class="edge"><title>Node1&#45;&gt;Node3</title>
<path fill="none" stroke="midnightblue" d="M145.305,-64.5C154.096,-64.5 163.057,-64.5 171.839,-64.5"/>
<polygon fill="midnightblue" stroke="midnightblue" points="145.084,-61.0001 135.084,-64.5 145.084,-68.0001 145.084,-61.0001"/>
</g>
<!-- Node4 -->
<g id="node4" class="node"><title>Node4</title>
<g id="a_node4"><a xlink:href="../../da/dd3/classoperational_1_1madiator_1_1_mediator_widget.html#ae3c18c9b8f8a66c4b5ccdfd184d37750" target="_top" xlink:title="operational::madiator\l::MediatorWidget::HandleMouse">
<polygon fill="white" stroke="black" points="171,-0.5 171,-30.5 327,-30.5 327,-0.5 171,-0.5"/>
<text text-anchor="start" x="179" y="-18.5" font-family="Helvetica,sans-Serif" font-size="10.00">operational::madiator</text>
<text text-anchor="middle" x="249" y="-7.5" font-family="Helvetica,sans-Serif" font-size="10.00">::MediatorWidget::HandleMouse</text>
</a>
</g>
</g>
<!-- Node1&#45;&gt;Node4 -->
<g id="edge3" class="edge"><title>Node1&#45;&gt;Node4</title>
<path fill="none" stroke="midnightblue" d="M133.517,-46.7515C152.972,-41.4409 174.107,-35.6712 192.862,-30.5516"/>
<polygon fill="midnightblue" stroke="midnightblue" points="132.546,-43.3886 123.821,-49.3986 134.389,-50.1415 132.546,-43.3886"/>
</g>
</g>
</svg>
