<?xml version="1.0" encoding="UTF-8" standalone="no"?>
<!DOCTYPE svg PUBLIC "-//W3C//DTD SVG 1.1//EN"
 "http://www.w3.org/Graphics/SVG/1.1/DTD/svg11.dtd">
<!-- Generated by graphviz version 2.38.0 (20140413.2041)
 -->
<!-- Title: src/creational/src/mazegame/maze_game.h Pages: 1 -->
<svg width="588pt" height="195pt"
 viewBox="0.00 0.00 587.50 195.00" xmlns="http://www.w3.org/2000/svg" xmlns:xlink="http://www.w3.org/1999/xlink">
<g id="graph0" class="graph" transform="scale(1 1) rotate(0) translate(4 191)">
<title>src/creational/src/mazegame/maze_game.h</title>
<polygon fill="white" stroke="none" points="-4,4 -4,-191 583.5,-191 583.5,4 -4,4"/>
<!-- Node1 -->
<g id="node1" class="node"><title>Node1</title>
<polygon fill="#bfbfbf" stroke="black" points="210.5,-156.5 210.5,-186.5 342.5,-186.5 342.5,-156.5 210.5,-156.5"/>
<text text-anchor="start" x="218.5" y="-174.5" font-family="Helvetica,sans-Serif" font-size="10.00">src/creational/src</text>
<text text-anchor="middle" x="276.5" y="-163.5" font-family="Helvetica,sans-Serif" font-size="10.00">/mazegame/maze_game.h</text>
</g>
<!-- Node2 -->
<g id="node2" class="node"><title>Node2</title>
<g id="a_node2"><a xlink:href="../../d6/d92/bombed__maze__game_8h.html" target="_top" xlink:title="src/creational/src\l/factorymethod/bombed\l_maze_game.h">
<polygon fill="white" stroke="black" points="0,-78.5 0,-119.5 119,-119.5 119,-78.5 0,-78.5"/>
<text text-anchor="start" x="8" y="-107.5" font-family="Helvetica,sans-Serif" font-size="10.00">src/creational/src</text>
<text text-anchor="start" x="8" y="-96.5" font-family="Helvetica,sans-Serif" font-size="10.00">/factorymethod/bombed</text>
<text text-anchor="middle" x="59.5" y="-85.5" font-family="Helvetica,sans-Serif" font-size="10.00">_maze_game.h</text>
</a>
</g>
</g>
<!-- Node1&#45;&gt;Node2 -->
<g id="edge1" class="edge"><title>Node1&#45;&gt;Node2</title>
<path fill="none" stroke="midnightblue" d="M223.469,-153.271C191.995,-143.046 152.002,-130.053 119.393,-119.458"/>
<polygon fill="midnightblue" stroke="midnightblue" points="222.776,-156.726 233.368,-156.487 224.939,-150.069 222.776,-156.726"/>
</g>
<!-- Node4 -->
<g id="node4" class="node"><title>Node4</title>
<g id="a_node4"><a xlink:href="../../df/d13/enchanted__maze__game_8h.html" target="_top" xlink:title="src/creational/src\l/factorymethod/enchanted\l_maze_game.h">
<polygon fill="white" stroke="black" points="137,-78.5 137,-119.5 266,-119.5 266,-78.5 137,-78.5"/>
<text text-anchor="start" x="145" y="-107.5" font-family="Helvetica,sans-Serif" font-size="10.00">src/creational/src</text>
<text text-anchor="start" x="145" y="-96.5" font-family="Helvetica,sans-Serif" font-size="10.00">/factorymethod/enchanted</text>
<text text-anchor="middle" x="201.5" y="-85.5" font-family="Helvetica,sans-Serif" font-size="10.00">_maze_game.h</text>
</a>
</g>
</g>
<!-- Node1&#45;&gt;Node4 -->
<g id="edge3" class="edge"><title>Node1&#45;&gt;Node4</title>
<path fill="none" stroke="midnightblue" d="M254.031,-149.379C243.976,-139.928 232.194,-128.852 222.339,-119.588"/>
<polygon fill="midnightblue" stroke="midnightblue" points="251.639,-151.934 261.323,-156.233 256.434,-146.834 251.639,-151.934"/>
</g>
<!-- Node6 -->
<g id="node6" class="node"><title>Node6</title>
<g id="a_node6"><a xlink:href="../../d6/d51/maze__game_8cc.html" target="_top" xlink:title="src/creational/src\l/mazegame/maze_game.cc">
<polygon fill="white" stroke="black" points="284,-84 284,-114 421,-114 421,-84 284,-84"/>
<text text-anchor="start" x="292" y="-102" font-family="Helvetica,sans-Serif" font-size="10.00">src/creational/src</text>
<text text-anchor="middle" x="352.5" y="-91" font-family="Helvetica,sans-Serif" font-size="10.00">/mazegame/maze_game.cc</text>
</a>
</g>
</g>
<!-- Node1&#45;&gt;Node6 -->
<g id="edge5" class="edge"><title>Node1&#45;&gt;Node6</title>
<path fill="none" stroke="midnightblue" d="M299.527,-149.139C311.813,-137.743 326.583,-124.041 337.403,-114.005"/>
<polygon fill="midnightblue" stroke="midnightblue" points="296.831,-146.866 291.88,-156.233 301.591,-151.998 296.831,-146.866"/>
</g>
<!-- Node7 -->
<g id="node7" class="node"><title>Node7</title>
<g id="a_node7"><a xlink:href="../../d5/d51/maze__game__test_8cc.html" target="_top" xlink:title="src/creational_tests\l/src/mazegame/maze_game\l_test.cc">
<polygon fill="white" stroke="black" points="439.5,-78.5 439.5,-119.5 579.5,-119.5 579.5,-78.5 439.5,-78.5"/>
<text text-anchor="start" x="447.5" y="-107.5" font-family="Helvetica,sans-Serif" font-size="10.00">src/creational_tests</text>
<text text-anchor="start" x="447.5" y="-96.5" font-family="Helvetica,sans-Serif" font-size="10.00">/src/mazegame/maze_game</text>
<text text-anchor="middle" x="509.5" y="-85.5" font-family="Helvetica,sans-Serif" font-size="10.00">_test.cc</text>
</a>
</g>
</g>
<!-- Node1&#45;&gt;Node7 -->
<g id="edge6" class="edge"><title>Node1&#45;&gt;Node7</title>
<path fill="none" stroke="midnightblue" d="M332.527,-153.547C366.318,-143.323 409.5,-130.257 444.749,-119.592"/>
<polygon fill="midnightblue" stroke="midnightblue" points="331.37,-150.241 322.812,-156.487 333.397,-156.941 331.37,-150.241"/>
</g>
<!-- Node3 -->
<g id="node3" class="node"><title>Node3</title>
<g id="a_node3"><a xlink:href="../../d4/d89/bombed__maze__game_8cc.html" target="_top" xlink:title="src/creational/src\l/factorymethod/bombed\l_maze_game.cc">
<polygon fill="white" stroke="black" points="0,-0.5 0,-41.5 119,-41.5 119,-0.5 0,-0.5"/>
<text text-anchor="start" x="8" y="-29.5" font-family="Helvetica,sans-Serif" font-size="10.00">src/creational/src</text>
<text text-anchor="start" x="8" y="-18.5" font-family="Helvetica,sans-Serif" font-size="10.00">/factorymethod/bombed</text>
<text text-anchor="middle" x="59.5" y="-7.5" font-family="Helvetica,sans-Serif" font-size="10.00">_maze_game.cc</text>
</a>
</g>
</g>
<!-- Node2&#45;&gt;Node3 -->
<g id="edge2" class="edge"><title>Node2&#45;&gt;Node3</title>
<path fill="none" stroke="midnightblue" d="M59.5,-68.2965C59.5,-59.3009 59.5,-49.6532 59.5,-41.5056"/>
<polygon fill="midnightblue" stroke="midnightblue" points="56.0001,-68.4281 59.5,-78.4281 63.0001,-68.4281 56.0001,-68.4281"/>
</g>
<!-- Node5 -->
<g id="node5" class="node"><title>Node5</title>
<g id="a_node5"><a xlink:href="../../db/db5/enchanted__maze__game_8cc.html" target="_top" xlink:title="src/creational/src\l/factorymethod/enchanted\l_maze_game.cc">
<polygon fill="white" stroke="black" points="137,-0.5 137,-41.5 266,-41.5 266,-0.5 137,-0.5"/>
<text text-anchor="start" x="145" y="-29.5" font-family="Helvetica,sans-Serif" font-size="10.00">src/creational/src</text>
<text text-anchor="start" x="145" y="-18.5" font-family="Helvetica,sans-Serif" font-size="10.00">/factorymethod/enchanted</text>
<text text-anchor="middle" x="201.5" y="-7.5" font-family="Helvetica,sans-Serif" font-size="10.00">_maze_game.cc</text>
</a>
</g>
</g>
<!-- Node4&#45;&gt;Node5 -->
<g id="edge4" class="edge"><title>Node4&#45;&gt;Node5</title>
<path fill="none" stroke="midnightblue" d="M201.5,-68.2965C201.5,-59.3009 201.5,-49.6532 201.5,-41.5056"/>
<polygon fill="midnightblue" stroke="midnightblue" points="198,-68.4281 201.5,-78.4281 205,-68.4281 198,-68.4281"/>
</g>
</g>
</svg>
