<?xml version="1.0" encoding="UTF-8" standalone="no"?>
<!DOCTYPE svg PUBLIC "-//W3C//DTD SVG 1.1//EN"
 "http://www.w3.org/Graphics/SVG/1.1/DTD/svg11.dtd">
<!-- Generated by graphviz version 2.38.0 (20140413.2041)
 -->
<!-- Title: src/structural/src/proxy/text_document.cc Pages: 1 -->
<svg width="174pt" height="263pt"
 viewBox="0.00 0.00 174.00 263.00" xmlns="http://www.w3.org/2000/svg" xmlns:xlink="http://www.w3.org/1999/xlink">
<g id="graph0" class="graph" transform="scale(1 1) rotate(0) translate(4 259)">
<title>src/structural/src/proxy/text_document.cc</title>
<polygon fill="white" stroke="none" points="-4,4 -4,-259 170,-259 170,4 -4,4"/>
<!-- Node1 -->
<g id="node1" class="node"><title>Node1</title>
<polygon fill="#bfbfbf" stroke="black" points="7,-224.5 7,-254.5 132,-254.5 132,-224.5 7,-224.5"/>
<text text-anchor="start" x="15" y="-242.5" font-family="Helvetica,sans-Serif" font-size="10.00">src/structural/src</text>
<text text-anchor="middle" x="69.5" y="-231.5" font-family="Helvetica,sans-Serif" font-size="10.00">/proxy/text_document.cc</text>
</g>
<!-- Node2 -->
<g id="node2" class="node"><title>Node2</title>
<g id="a_node2"><a xlink:href="../../d9/d4b/text__document_8h.html" target="_top" xlink:title="text_document.h">
<polygon fill="white" stroke="black" points="25,-168.5 25,-187.5 114,-187.5 114,-168.5 25,-168.5"/>
<text text-anchor="middle" x="69.5" y="-175.5" font-family="Helvetica,sans-Serif" font-size="10.00">text_document.h</text>
</a>
</g>
</g>
<!-- Node1&#45;&gt;Node2 -->
<g id="edge1" class="edge"><title>Node1&#45;&gt;Node2</title>
<path fill="none" stroke="midnightblue" d="M69.5,-224.399C69.5,-216.466 69.5,-206.458 69.5,-197.858"/>
<polygon fill="midnightblue" stroke="midnightblue" points="73.0001,-197.658 69.5,-187.658 66.0001,-197.658 73.0001,-197.658"/>
</g>
<!-- Node3 -->
<g id="node3" class="node"><title>Node3</title>
<g id="a_node3"><a xlink:href="../../d1/dda/graphic__interface_8h.html" target="_top" xlink:title="graphic_interface.h">
<polygon fill="white" stroke="black" points="20.5,-112.5 20.5,-131.5 118.5,-131.5 118.5,-112.5 20.5,-112.5"/>
<text text-anchor="middle" x="69.5" y="-119.5" font-family="Helvetica,sans-Serif" font-size="10.00">graphic_interface.h</text>
</a>
</g>
</g>
<!-- Node2&#45;&gt;Node3 -->
<g id="edge2" class="edge"><title>Node2&#45;&gt;Node3</title>
<path fill="none" stroke="midnightblue" d="M69.5,-168.083C69.5,-161.006 69.5,-150.861 69.5,-141.986"/>
<polygon fill="midnightblue" stroke="midnightblue" points="73.0001,-141.751 69.5,-131.751 66.0001,-141.751 73.0001,-141.751"/>
</g>
<!-- Node4 -->
<g id="node4" class="node"><title>Node4</title>
<g id="a_node4"><a xlink:href="../../dd/d20/event_8h.html" target="_top" xlink:title="event.h">
<polygon fill="white" stroke="black" points="0,-56.5 0,-75.5 47,-75.5 47,-56.5 0,-56.5"/>
<text text-anchor="middle" x="23.5" y="-63.5" font-family="Helvetica,sans-Serif" font-size="10.00">event.h</text>
</a>
</g>
</g>
<!-- Node3&#45;&gt;Node4 -->
<g id="edge3" class="edge"><title>Node3&#45;&gt;Node4</title>
<path fill="none" stroke="midnightblue" d="M61.904,-112.083C55.2725,-104.298 45.479,-92.8015 37.4419,-83.3665"/>
<polygon fill="midnightblue" stroke="midnightblue" points="40.1037,-81.0939 30.9546,-75.7511 34.775,-85.6332 40.1037,-81.0939"/>
</g>
<!-- Node5 -->
<g id="node5" class="node"><title>Node5</title>
<g id="a_node5"><a xlink:href="../../d2/d91/point_8h.html" target="_top" xlink:title="../commons/point.h">
<polygon fill="white" stroke="black" points="65,-56.5 65,-75.5 166,-75.5 166,-56.5 65,-56.5"/>
<text text-anchor="middle" x="115.5" y="-63.5" font-family="Helvetica,sans-Serif" font-size="10.00">../commons/point.h</text>
</a>
</g>
</g>
<!-- Node3&#45;&gt;Node5 -->
<g id="edge4" class="edge"><title>Node3&#45;&gt;Node5</title>
<path fill="none" stroke="midnightblue" d="M77.096,-112.083C83.7275,-104.298 93.521,-92.8015 101.558,-83.3665"/>
<polygon fill="midnightblue" stroke="midnightblue" points="104.225,-85.6332 108.045,-75.7511 98.8963,-81.0939 104.225,-85.6332"/>
</g>
<!-- Node6 -->
<g id="node6" class="node"><title>Node6</title>
<polygon fill="white" stroke="#bfbfbf" points="88.5,-0.5 88.5,-19.5 142.5,-19.5 142.5,-0.5 88.5,-0.5"/>
<text text-anchor="middle" x="115.5" y="-7.5" font-family="Helvetica,sans-Serif" font-size="10.00">iostream</text>
</g>
<!-- Node5&#45;&gt;Node6 -->
<g id="edge5" class="edge"><title>Node5&#45;&gt;Node6</title>
<path fill="none" stroke="midnightblue" d="M115.5,-56.083C115.5,-49.0059 115.5,-38.8611 115.5,-29.9865"/>
<polygon fill="midnightblue" stroke="midnightblue" points="119,-29.751 115.5,-19.7511 112,-29.7511 119,-29.751"/>
</g>
</g>
</svg>
