<?xml version="1.0" encoding="UTF-8" standalone="no"?>
<!DOCTYPE svg PUBLIC "-//W3C//DTD SVG 1.1//EN"
 "http://www.w3.org/Graphics/SVG/1.1/DTD/svg11.dtd">
<!-- Generated by graphviz version 2.38.0 (20140413.2041)
 -->
<!-- Title: src/operational/src/visitor/pricing_visitor.h Pages: 1 -->
<svg width="449pt" height="151pt"
 viewBox="0.00 0.00 448.50 151.00" xmlns="http://www.w3.org/2000/svg" xmlns:xlink="http://www.w3.org/1999/xlink">
<g id="graph0" class="graph" transform="scale(1 1) rotate(0) translate(4 147)">
<title>src/operational/src/visitor/pricing_visitor.h</title>
<polygon fill="white" stroke="none" points="-4,4 -4,-147 444.5,-147 444.5,4 -4,4"/>
<!-- Node1 -->
<g id="node1" class="node"><title>Node1</title>
<polygon fill="#bfbfbf" stroke="black" points="176,-112.5 176,-142.5 290,-142.5 290,-112.5 176,-112.5"/>
<text text-anchor="start" x="184" y="-130.5" font-family="Helvetica,sans-Serif" font-size="10.00">src/operational/src</text>
<text text-anchor="middle" x="233" y="-119.5" font-family="Helvetica,sans-Serif" font-size="10.00">/visitor/pricing_visitor.h</text>
</g>
<!-- Node2 -->
<g id="node2" class="node"><title>Node2</title>
<g id="a_node2"><a xlink:href="../../d2/d43/equipment__visitor__interface_8h.html" target="_top" xlink:title="equipment_visitor_interface.h">
<polygon fill="white" stroke="black" points="162,-56.5 162,-75.5 304,-75.5 304,-56.5 162,-56.5"/>
<text text-anchor="middle" x="233" y="-63.5" font-family="Helvetica,sans-Serif" font-size="10.00">equipment_visitor_interface.h</text>
</a>
</g>
</g>
<!-- Node1&#45;&gt;Node2 -->
<g id="edge1" class="edge"><title>Node1&#45;&gt;Node2</title>
<path fill="none" stroke="midnightblue" d="M233,-112.399C233,-104.466 233,-94.458 233,-85.8583"/>
<polygon fill="midnightblue" stroke="midnightblue" points="236.5,-85.6577 233,-75.6578 229.5,-85.6578 236.5,-85.6577"/>
</g>
<!-- Node3 -->
<g id="node3" class="node"><title>Node3</title>
<g id="a_node3"><a xlink:href="../../d0/db8/floppy__disk__interface_8h.html" target="_top" xlink:title="floppy_disk_interface.h">
<polygon fill="white" stroke="black" points="0,-0.5 0,-19.5 116,-19.5 116,-0.5 0,-0.5"/>
<text text-anchor="middle" x="58" y="-7.5" font-family="Helvetica,sans-Serif" font-size="10.00">floppy_disk_interface.h</text>
</a>
</g>
</g>
<!-- Node2&#45;&gt;Node3 -->
<g id="edge2" class="edge"><title>Node2&#45;&gt;Node3</title>
<path fill="none" stroke="midnightblue" d="M205.271,-56.4435C175.574,-47.2801 128.284,-32.6876 95.3307,-22.5192"/>
<polygon fill="midnightblue" stroke="midnightblue" points="96.187,-19.1206 85.5995,-19.5164 94.123,-25.8094 96.187,-19.1206"/>
</g>
<!-- Node4 -->
<g id="node4" class="node"><title>Node4</title>
<g id="a_node4"><a xlink:href="../../d1/d04/card__interface_8h.html" target="_top" xlink:title="card_interface.h">
<polygon fill="white" stroke="black" points="134,-0.5 134,-19.5 220,-19.5 220,-0.5 134,-0.5"/>
<text text-anchor="middle" x="177" y="-7.5" font-family="Helvetica,sans-Serif" font-size="10.00">card_interface.h</text>
</a>
</g>
</g>
<!-- Node2&#45;&gt;Node4 -->
<g id="edge3" class="edge"><title>Node2&#45;&gt;Node4</title>
<path fill="none" stroke="midnightblue" d="M224.003,-56.324C215.806,-48.4196 203.494,-36.5482 193.528,-26.9377"/>
<polygon fill="midnightblue" stroke="midnightblue" points="195.789,-24.2558 186.161,-19.8339 190.93,-29.2947 195.789,-24.2558"/>
</g>
<!-- Node5 -->
<g id="node5" class="node"><title>Node5</title>
<g id="a_node5"><a xlink:href="../../d4/d2b/chassis__interface_8h.html" target="_top" xlink:title="chassis_interface.h">
<polygon fill="white" stroke="black" points="238.5,-0.5 238.5,-19.5 339.5,-19.5 339.5,-0.5 238.5,-0.5"/>
<text text-anchor="middle" x="289" y="-7.5" font-family="Helvetica,sans-Serif" font-size="10.00">chassis_interface.h</text>
</a>
</g>
</g>
<!-- Node2&#45;&gt;Node5 -->
<g id="edge4" class="edge"><title>Node2&#45;&gt;Node5</title>
<path fill="none" stroke="midnightblue" d="M241.997,-56.324C250.194,-48.4196 262.506,-36.5482 272.472,-26.9377"/>
<polygon fill="midnightblue" stroke="midnightblue" points="275.07,-29.2947 279.839,-19.8339 270.211,-24.2558 275.07,-29.2947"/>
</g>
<!-- Node6 -->
<g id="node6" class="node"><title>Node6</title>
<g id="a_node6"><a xlink:href="../../db/d88/bus__interface_8h.html" target="_top" xlink:title="bus_interface.h">
<polygon fill="white" stroke="black" points="357.5,-0.5 357.5,-19.5 440.5,-19.5 440.5,-0.5 357.5,-0.5"/>
<text text-anchor="middle" x="399" y="-7.5" font-family="Helvetica,sans-Serif" font-size="10.00">bus_interface.h</text>
</a>
</g>
</g>
<!-- Node2&#45;&gt;Node6 -->
<g id="edge5" class="edge"><title>Node2&#45;&gt;Node6</title>
<path fill="none" stroke="midnightblue" d="M259.303,-56.4435C287.351,-47.3196 331.944,-32.8133 363.184,-22.6509"/>
<polygon fill="midnightblue" stroke="midnightblue" points="364.393,-25.9383 372.82,-19.5164 362.228,-19.2816 364.393,-25.9383"/>
</g>
</g>
</svg>
