<?xml version="1.0" encoding="UTF-8" standalone="no"?>
<!DOCTYPE svg PUBLIC "-//W3C//DTD SVG 1.1//EN"
 "http://www.w3.org/Graphics/SVG/1.1/DTD/svg11.dtd">
<!-- Generated by graphviz version 2.38.0 (20140413.2041)
 -->
<!-- Title: src/structural/src/flyweight/character.h Pages: 1 -->
<svg width="331pt" height="184pt"
 viewBox="0.00 0.00 331.00 184.00" xmlns="http://www.w3.org/2000/svg" xmlns:xlink="http://www.w3.org/1999/xlink">
<g id="graph0" class="graph" transform="scale(1 1) rotate(0) translate(4 180)">
<title>src/structural/src/flyweight/character.h</title>
<polygon fill="white" stroke="none" points="-4,4 -4,-180 327,-180 327,4 -4,4"/>
<!-- Node1 -->
<g id="node1" class="node"><title>Node1</title>
<polygon fill="#bfbfbf" stroke="black" points="71.5,-145.5 71.5,-175.5 180.5,-175.5 180.5,-145.5 71.5,-145.5"/>
<text text-anchor="start" x="79.5" y="-163.5" font-family="Helvetica,sans-Serif" font-size="10.00">src/structural/src</text>
<text text-anchor="middle" x="126" y="-152.5" font-family="Helvetica,sans-Serif" font-size="10.00">/flyweight/character.h</text>
</g>
<!-- Node2 -->
<g id="node2" class="node"><title>Node2</title>
<g id="a_node2"><a xlink:href="../../db/d57/character_8cc.html" target="_top" xlink:title="src/structural/src\l/flyweight/character.cc">
<polygon fill="white" stroke="black" points="0,-78.5 0,-108.5 114,-108.5 114,-78.5 0,-78.5"/>
<text text-anchor="start" x="8" y="-96.5" font-family="Helvetica,sans-Serif" font-size="10.00">src/structural/src</text>
<text text-anchor="middle" x="57" y="-85.5" font-family="Helvetica,sans-Serif" font-size="10.00">/flyweight/character.cc</text>
</a>
</g>
</g>
<!-- Node1&#45;&gt;Node2 -->
<g id="edge1" class="edge"><title>Node1&#45;&gt;Node2</title>
<path fill="none" stroke="midnightblue" d="M103.508,-138.311C93.1573,-128.561 81.1596,-117.259 71.9428,-108.577"/>
<polygon fill="midnightblue" stroke="midnightblue" points="101.349,-141.087 111.028,-145.396 106.149,-135.991 101.349,-141.087"/>
</g>
<!-- Node3 -->
<g id="node3" class="node"><title>Node3</title>
<g id="a_node3"><a xlink:href="../../da/dec/glyph__factory_8h.html" target="_top" xlink:title="src/structural/src\l/flyweight/glyph_factory.h">
<polygon fill="white" stroke="black" points="132,-78.5 132,-108.5 258,-108.5 258,-78.5 132,-78.5"/>
<text text-anchor="start" x="140" y="-96.5" font-family="Helvetica,sans-Serif" font-size="10.00">src/structural/src</text>
<text text-anchor="middle" x="195" y="-85.5" font-family="Helvetica,sans-Serif" font-size="10.00">/flyweight/glyph_factory.h</text>
</a>
</g>
</g>
<!-- Node1&#45;&gt;Node3 -->
<g id="edge2" class="edge"><title>Node1&#45;&gt;Node3</title>
<path fill="none" stroke="midnightblue" d="M148.492,-138.311C158.843,-128.561 170.84,-117.259 180.057,-108.577"/>
<polygon fill="midnightblue" stroke="midnightblue" points="145.851,-135.991 140.972,-145.396 150.651,-141.087 145.851,-135.991"/>
</g>
<!-- Node4 -->
<g id="node4" class="node"><title>Node4</title>
<g id="a_node4"><a xlink:href="../../d6/dbd/glyph__factory_8cc.html" target="_top" xlink:title="src/structural/src\l/flyweight/glyph_factory.cc">
<polygon fill="white" stroke="black" points="59.5,-6 59.5,-36 190.5,-36 190.5,-6 59.5,-6"/>
<text text-anchor="start" x="67.5" y="-24" font-family="Helvetica,sans-Serif" font-size="10.00">src/structural/src</text>
<text text-anchor="middle" x="125" y="-13" font-family="Helvetica,sans-Serif" font-size="10.00">/flyweight/glyph_factory.cc</text>
</a>
</g>
</g>
<!-- Node3&#45;&gt;Node4 -->
<g id="edge3" class="edge"><title>Node3&#45;&gt;Node4</title>
<path fill="none" stroke="midnightblue" d="M173.518,-70.8641C162.347,-59.6142 149.007,-46.1786 139.144,-36.2455"/>
<polygon fill="midnightblue" stroke="midnightblue" points="171.305,-73.6031 180.834,-78.2333 176.272,-68.671 171.305,-73.6031"/>
</g>
<!-- Node5 -->
<g id="node5" class="node"><title>Node5</title>
<g id="a_node5"><a xlink:href="../../dd/d09/flyweight__test_8cc.html" target="_top" xlink:title="src/structural_tests\l/src/flyweight/flyweight\l_test.cc">
<polygon fill="white" stroke="black" points="209,-0.5 209,-41.5 323,-41.5 323,-0.5 209,-0.5"/>
<text text-anchor="start" x="217" y="-29.5" font-family="Helvetica,sans-Serif" font-size="10.00">src/structural_tests</text>
<text text-anchor="start" x="217" y="-18.5" font-family="Helvetica,sans-Serif" font-size="10.00">/src/flyweight/flyweight</text>
<text text-anchor="middle" x="266" y="-7.5" font-family="Helvetica,sans-Serif" font-size="10.00">_test.cc</text>
</a>
</g>
</g>
<!-- Node3&#45;&gt;Node5 -->
<g id="edge4" class="edge"><title>Node3&#45;&gt;Node5</title>
<path fill="none" stroke="midnightblue" d="M216.551,-71.1007C226.008,-61.7107 237.034,-50.7615 246.273,-41.5884"/>
<polygon fill="midnightblue" stroke="midnightblue" points="213.998,-68.7036 209.368,-78.2333 218.93,-73.6708 213.998,-68.7036"/>
</g>
</g>
</svg>
