<?xml version="1.0" encoding="UTF-8" standalone="no"?>
<!DOCTYPE svg PUBLIC "-//W3C//DTD SVG 1.1//EN"
 "http://www.w3.org/Graphics/SVG/1.1/DTD/svg11.dtd">
<!-- Generated by graphviz version 2.38.0 (20140413.2041)
 -->
<!-- Title: structural::facade::RISCCodeGenerator::Visit Pages: 1 -->
<svg width="301pt" height="88pt"
 viewBox="0.00 0.00 301.00 88.00" xmlns="http://www.w3.org/2000/svg" xmlns:xlink="http://www.w3.org/1999/xlink">
<g id="graph0" class="graph" transform="scale(1 1) rotate(0) translate(4 84)">
<title>structural::facade::RISCCodeGenerator::Visit</title>
<polygon fill="white" stroke="none" points="-4,4 -4,-84 297,-84 297,4 -4,4"/>
<!-- Node1 -->
<g id="node1" class="node"><title>Node1</title>
<polygon fill="#bfbfbf" stroke="black" points="0,-19 0,-60 110,-60 110,-19 0,-19"/>
<text text-anchor="start" x="8" y="-48" font-family="Helvetica,sans-Serif" font-size="10.00">structural::facade</text>
<text text-anchor="start" x="8" y="-37" font-family="Helvetica,sans-Serif" font-size="10.00">::RISCCodeGenerator</text>
<text text-anchor="middle" x="55" y="-26" font-family="Helvetica,sans-Serif" font-size="10.00">::Visit</text>
</g>
<!-- Node2 -->
<g id="node2" class="node"><title>Node2</title>
<g id="a_node2"><a xlink:href="../../d7/df7/classstructural_1_1facade_1_1_variable_node_interface.html#a5deeff91c7685917c4f3abecb337fcec" target="_top" xlink:title="structural::facade\l::VariableNodeInterface::name">
<polygon fill="white" stroke="black" points="146,-49.5 146,-79.5 293,-79.5 293,-49.5 146,-49.5"/>
<text text-anchor="start" x="154" y="-67.5" font-family="Helvetica,sans-Serif" font-size="10.00">structural::facade</text>
<text text-anchor="middle" x="219.5" y="-56.5" font-family="Helvetica,sans-Serif" font-size="10.00">::VariableNodeInterface::name</text>
</a>
</g>
</g>
<!-- Node1&#45;&gt;Node2 -->
<g id="edge1" class="edge"><title>Node1&#45;&gt;Node2</title>
<path fill="none" stroke="midnightblue" d="M110.11,-47.8246C118.428,-49.1043 127.175,-50.45 135.942,-51.7988"/>
<polygon fill="midnightblue" stroke="midnightblue" points="135.411,-55.2582 145.827,-53.3196 136.476,-48.3396 135.411,-55.2582"/>
</g>
<!-- Node3 -->
<g id="node3" class="node"><title>Node3</title>
<g id="a_node3"><a xlink:href="../../da/d8d/classstructural_1_1facade_1_1_bytecode_stream.html#a3c80416aa868ba7f11ce9a29365796dd" target="_top" xlink:title="structural::facade\l::BytecodeStream::Write">
<polygon fill="white" stroke="black" points="157,-0.5 157,-30.5 282,-30.5 282,-0.5 157,-0.5"/>
<text text-anchor="start" x="165" y="-18.5" font-family="Helvetica,sans-Serif" font-size="10.00">structural::facade</text>
<text text-anchor="middle" x="219.5" y="-7.5" font-family="Helvetica,sans-Serif" font-size="10.00">::BytecodeStream::Write</text>
</a>
</g>
</g>
<!-- Node1&#45;&gt;Node3 -->
<g id="edge2" class="edge"><title>Node1&#45;&gt;Node3</title>
<path fill="none" stroke="midnightblue" d="M110.11,-31.5083C121.795,-29.7825 134.326,-27.9318 146.572,-26.1233"/>
<polygon fill="midnightblue" stroke="midnightblue" points="147.384,-29.5414 156.765,-24.6178 146.361,-22.6165 147.384,-29.5414"/>
</g>
</g>
</svg>
