<?xml version="1.0" encoding="UTF-8" standalone="no"?>
<!DOCTYPE svg PUBLIC "-//W3C//DTD SVG 1.1//EN"
 "http://www.w3.org/Graphics/SVG/1.1/DTD/svg11.dtd">
<!-- Generated by graphviz version 2.38.0 (20140413.2041)
 -->
<!-- Title: structural::facade::RISCCodeGenerator::Visit Pages: 1 -->
<svg width="281pt" height="100pt"
 viewBox="0.00 0.00 281.00 99.50" xmlns="http://www.w3.org/2000/svg" xmlns:xlink="http://www.w3.org/1999/xlink">
<g id="graph0" class="graph" transform="scale(1 1) rotate(0) translate(4 95.5)">
<title>structural::facade::RISCCodeGenerator::Visit</title>
<polygon fill="white" stroke="none" points="-4,4 -4,-95.5 277,-95.5 277,4 -4,4"/>
<!-- Node1 -->
<g id="node1" class="node"><title>Node1</title>
<polygon fill="#bfbfbf" stroke="black" points="0,-22 0,-63 110,-63 110,-22 0,-22"/>
<text text-anchor="start" x="8" y="-51" font-family="Helvetica,sans-Serif" font-size="10.00">structural::facade</text>
<text text-anchor="start" x="8" y="-40" font-family="Helvetica,sans-Serif" font-size="10.00">::RISCCodeGenerator</text>
<text text-anchor="middle" x="55" y="-29" font-family="Helvetica,sans-Serif" font-size="10.00">::Visit</text>
</g>
<!-- Node2 -->
<g id="node2" class="node"><title>Node2</title>
<g id="a_node2"><a xlink:href="../../d6/d57/classstructural_1_1facade_1_1_statement_node_interface.html#a86b76c655554a023a6c8e3573405d253" target="_top" xlink:title="structural::facade\l::StatementNodeInterface\l::statement">
<polygon fill="white" stroke="black" points="146,-50 146,-91 273,-91 273,-50 146,-50"/>
<text text-anchor="start" x="154" y="-79" font-family="Helvetica,sans-Serif" font-size="10.00">structural::facade</text>
<text text-anchor="start" x="154" y="-68" font-family="Helvetica,sans-Serif" font-size="10.00">::StatementNodeInterface</text>
<text text-anchor="middle" x="209.5" y="-57" font-family="Helvetica,sans-Serif" font-size="10.00">::statement</text>
</a>
</g>
</g>
<!-- Node1&#45;&gt;Node2 -->
<g id="edge1" class="edge"><title>Node1&#45;&gt;Node2</title>
<path fill="none" stroke="midnightblue" d="M110.195,-52.4506C118.502,-53.9758 127.191,-55.5712 135.819,-57.1553"/>
<polygon fill="midnightblue" stroke="midnightblue" points="135.425,-60.6415 145.893,-59.005 136.69,-53.7565 135.425,-60.6415"/>
</g>
<!-- Node3 -->
<g id="node3" class="node"><title>Node3</title>
<g id="a_node3"><a xlink:href="../../da/d8d/classstructural_1_1facade_1_1_bytecode_stream.html#a3c80416aa868ba7f11ce9a29365796dd" target="_top" xlink:title="structural::facade\l::BytecodeStream::Write">
<polygon fill="white" stroke="black" points="147,-0.5 147,-30.5 272,-30.5 272,-0.5 147,-0.5"/>
<text text-anchor="start" x="155" y="-18.5" font-family="Helvetica,sans-Serif" font-size="10.00">structural::facade</text>
<text text-anchor="middle" x="209.5" y="-7.5" font-family="Helvetica,sans-Serif" font-size="10.00">::BytecodeStream::Write</text>
</a>
</g>
</g>
<!-- Node1&#45;&gt;Node3 -->
<g id="edge2" class="edge"><title>Node1&#45;&gt;Node3</title>
<path fill="none" stroke="midnightblue" d="M110.195,-32.9048C118.841,-31.374 127.901,-29.7699 136.875,-28.1811"/>
<polygon fill="midnightblue" stroke="midnightblue" points="137.708,-31.5882 146.945,-26.3983 136.488,-24.6954 137.708,-31.5882"/>
</g>
</g>
</svg>
