<?xml version="1.0" encoding="UTF-8" standalone="no"?>
<!DOCTYPE svg PUBLIC "-//W3C//DTD SVG 1.1//EN"
 "http://www.w3.org/Graphics/SVG/1.1/DTD/svg11.dtd">
<!-- Generated by graphviz version 2.38.0 (20140413.2041)
 -->
<!-- Title: operational::visitor::EquipmentVisitorInterface::VisitCard Pages: 1 -->
<svg width="273pt" height="50pt"
 viewBox="0.00 0.00 273.00 50.00" xmlns="http://www.w3.org/2000/svg" xmlns:xlink="http://www.w3.org/1999/xlink">
<g id="graph0" class="graph" transform="scale(1 1) rotate(0) translate(4 46)">
<title>operational::visitor::EquipmentVisitorInterface::VisitCard</title>
<polygon fill="white" stroke="none" points="-4,4 -4,-46 269,-46 269,4 -4,4"/>
<!-- Node1 -->
<g id="node1" class="node"><title>Node1</title>
<polygon fill="#bfbfbf" stroke="black" points="0,-0.5 0,-41.5 134,-41.5 134,-0.5 0,-0.5"/>
<text text-anchor="start" x="8" y="-29.5" font-family="Helvetica,sans-Serif" font-size="10.00">operational::visitor</text>
<text text-anchor="start" x="8" y="-18.5" font-family="Helvetica,sans-Serif" font-size="10.00">::EquipmentVisitorInterface</text>
<text text-anchor="middle" x="67" y="-7.5" font-family="Helvetica,sans-Serif" font-size="10.00">::VisitCard</text>
</g>
<!-- Node2 -->
<g id="node2" class="node"><title>Node2</title>
<g id="a_node2"><a xlink:href="../../d1/df0/classoperational_1_1visitor_1_1_card.html#ae791e49e63c6ada2e3219655316ded8a" target="_top" xlink:title="operational::visitor\l::Card::Accept">
<polygon fill="white" stroke="black" points="170,-6 170,-36 265,-36 265,-6 170,-6"/>
<text text-anchor="start" x="178" y="-24" font-family="Helvetica,sans-Serif" font-size="10.00">operational::visitor</text>
<text text-anchor="middle" x="217.5" y="-13" font-family="Helvetica,sans-Serif" font-size="10.00">::Card::Accept</text>
</a>
</g>
</g>
<!-- Node1&#45;&gt;Node2 -->
<g id="edge1" class="edge"><title>Node1&#45;&gt;Node2</title>
<path fill="none" stroke="midnightblue" d="M144.503,-21C153.09,-21 161.636,-21 169.682,-21"/>
<polygon fill="midnightblue" stroke="midnightblue" points="144.432,-17.5001 134.432,-21 144.432,-24.5001 144.432,-17.5001"/>
</g>
</g>
</svg>
