<?xml version="1.0" encoding="UTF-8" standalone="no"?>
<!DOCTYPE svg PUBLIC "-//W3C//DTD SVG 1.1//EN"
 "http://www.w3.org/Graphics/SVG/1.1/DTD/svg11.dtd">
<!-- Generated by graphviz version 2.38.0 (20140413.2041)
 -->
<!-- Title: creational::commons::Room Pages: 1 -->
<svg width="384pt" height="430pt"
 viewBox="0.00 0.00 383.50 430.00" xmlns="http://www.w3.org/2000/svg" xmlns:xlink="http://www.w3.org/1999/xlink">
<g id="graph0" class="graph" transform="scale(1 1) rotate(0) translate(4 426)">
<title>creational::commons::Room</title>
<polygon fill="white" stroke="none" points="-4,4 -4,-426 379.5,-426 379.5,4 -4,4"/>
<!-- Node1 -->
<g id="node1" class="node"><title>Node1</title>
<polygon fill="#bfbfbf" stroke="black" points="127,-160.5 127,-305.5 234,-305.5 234,-160.5 127,-160.5"/>
<text text-anchor="start" x="135" y="-293.5" font-family="Helvetica,sans-Serif" font-size="10.00">creational::commons</text>
<text text-anchor="middle" x="180.5" y="-282.5" font-family="Helvetica,sans-Serif" font-size="10.00">::Room</text>
<polyline fill="none" stroke="black" points="127,-275.5 234,-275.5 "/>
<text text-anchor="start" x="135" y="-263.5" font-family="Helvetica,sans-Serif" font-size="10.00"># room_number_</text>
<polyline fill="none" stroke="black" points="127,-256.5 234,-256.5 "/>
<text text-anchor="start" x="135" y="-244.5" font-family="Helvetica,sans-Serif" font-size="10.00">+ Room()</text>
<text text-anchor="start" x="135" y="-233.5" font-family="Helvetica,sans-Serif" font-size="10.00">+ Room()</text>
<text text-anchor="start" x="135" y="-222.5" font-family="Helvetica,sans-Serif" font-size="10.00">+ Clone()</text>
<text text-anchor="start" x="135" y="-211.5" font-family="Helvetica,sans-Serif" font-size="10.00">+ Enter()</text>
<text text-anchor="start" x="135" y="-200.5" font-family="Helvetica,sans-Serif" font-size="10.00">+ entered()</text>
<text text-anchor="start" x="135" y="-189.5" font-family="Helvetica,sans-Serif" font-size="10.00">+ GetSide()</text>
<text text-anchor="start" x="135" y="-178.5" font-family="Helvetica,sans-Serif" font-size="10.00">+ room_number()</text>
<text text-anchor="start" x="135" y="-167.5" font-family="Helvetica,sans-Serif" font-size="10.00">+ SetSide()</text>
</g>
<!-- Node3 -->
<g id="node3" class="node"><title>Node3</title>
<g id="a_node3"><a xlink:href="../../d8/d48/classcreational_1_1commons_1_1_enchanted_room.html" target="_top" xlink:title="{creational::commons\l::EnchantedRoom\n||+ EnchantedRoom()\l+ EnchantedRoom()\l+ Clone()\l+ HasSpell()\l+ Initialize()\l+ PickUpSpell()\l}">
<polygon fill="white" stroke="black" points="0,-0.5 0,-123.5 107,-123.5 107,-0.5 0,-0.5"/>
<text text-anchor="start" x="8" y="-111.5" font-family="Helvetica,sans-Serif" font-size="10.00">creational::commons</text>
<text text-anchor="middle" x="53.5" y="-100.5" font-family="Helvetica,sans-Serif" font-size="10.00">::EnchantedRoom</text>
<polyline fill="none" stroke="black" points="0,-93.5 107,-93.5 "/>
<text text-anchor="middle" x="53.5" y="-81.5" font-family="Helvetica,sans-Serif" font-size="10.00"> </text>
<polyline fill="none" stroke="black" points="0,-74.5 107,-74.5 "/>
<text text-anchor="start" x="8" y="-62.5" font-family="Helvetica,sans-Serif" font-size="10.00">+ EnchantedRoom()</text>
<text text-anchor="start" x="8" y="-51.5" font-family="Helvetica,sans-Serif" font-size="10.00">+ EnchantedRoom()</text>
<text text-anchor="start" x="8" y="-40.5" font-family="Helvetica,sans-Serif" font-size="10.00">+ Clone()</text>
<text text-anchor="start" x="8" y="-29.5" font-family="Helvetica,sans-Serif" font-size="10.00">+ HasSpell()</text>
<text text-anchor="start" x="8" y="-18.5" font-family="Helvetica,sans-Serif" font-size="10.00">+ Initialize()</text>
<text text-anchor="start" x="8" y="-7.5" font-family="Helvetica,sans-Serif" font-size="10.00">+ PickUpSpell()</text>
</a>
</g>
</g>
<!-- Node1&#45;&gt;Node3 -->
<g id="edge2" class="edge"><title>Node1&#45;&gt;Node3</title>
<path fill="none" stroke="midnightblue" d="M120.575,-152.258C113.328,-142.613 106.018,-132.886 99.0248,-123.58"/>
<polygon fill="none" stroke="midnightblue" points="117.835,-154.437 126.641,-160.329 123.431,-150.232 117.835,-154.437"/>
</g>
<!-- Node4 -->
<g id="node4" class="node"><title>Node4</title>
<g id="a_node4"><a xlink:href="../../d6/d96/classcreational_1_1commons_1_1_room_with_a_bomb.html" target="_top" xlink:title="{creational::commons\l::RoomWithABomb\n||+ RoomWithABomb()\l+ RoomWithABomb()\l+ Clone()\l+ has_bomb()\l+ Initialize()\l}">
<polygon fill="white" stroke="black" points="125.5,-6 125.5,-118 235.5,-118 235.5,-6 125.5,-6"/>
<text text-anchor="start" x="133.5" y="-106" font-family="Helvetica,sans-Serif" font-size="10.00">creational::commons</text>
<text text-anchor="middle" x="180.5" y="-95" font-family="Helvetica,sans-Serif" font-size="10.00">::RoomWithABomb</text>
<polyline fill="none" stroke="black" points="125.5,-88 235.5,-88 "/>
<text text-anchor="middle" x="180.5" y="-76" font-family="Helvetica,sans-Serif" font-size="10.00"> </text>
<polyline fill="none" stroke="black" points="125.5,-69 235.5,-69 "/>
<text text-anchor="start" x="133.5" y="-57" font-family="Helvetica,sans-Serif" font-size="10.00">+ RoomWithABomb()</text>
<text text-anchor="start" x="133.5" y="-46" font-family="Helvetica,sans-Serif" font-size="10.00">+ RoomWithABomb()</text>
<text text-anchor="start" x="133.5" y="-35" font-family="Helvetica,sans-Serif" font-size="10.00">+ Clone()</text>
<text text-anchor="start" x="133.5" y="-24" font-family="Helvetica,sans-Serif" font-size="10.00">+ has_bomb()</text>
<text text-anchor="start" x="133.5" y="-13" font-family="Helvetica,sans-Serif" font-size="10.00">+ Initialize()</text>
</a>
</g>
</g>
<!-- Node1&#45;&gt;Node4 -->
<g id="edge3" class="edge"><title>Node1&#45;&gt;Node4</title>
<path fill="none" stroke="midnightblue" d="M180.5,-150.004C180.5,-139.193 180.5,-128.327 180.5,-118.116"/>
<polygon fill="none" stroke="midnightblue" points="177,-150.329 180.5,-160.329 184,-150.329 177,-150.329"/>
</g>
<!-- Node5 -->
<g id="node5" class="node"><title>Node5</title>
<g id="a_node5"><a xlink:href="../../d8/d0c/classcreational_1_1commons_1_1_twisty_turny_passage.html" target="_top" xlink:title="{creational::commons\l::TwistyTurnyPassage\n||+ TwistyTurnyPassage()\l+ Enter()\l+ entered()\l}">
<polygon fill="white" stroke="black" points="253.5,-17 253.5,-107 375.5,-107 375.5,-17 253.5,-17"/>
<text text-anchor="start" x="261.5" y="-95" font-family="Helvetica,sans-Serif" font-size="10.00">creational::commons</text>
<text text-anchor="middle" x="314.5" y="-84" font-family="Helvetica,sans-Serif" font-size="10.00">::TwistyTurnyPassage</text>
<polyline fill="none" stroke="black" points="253.5,-77 375.5,-77 "/>
<text text-anchor="middle" x="314.5" y="-65" font-family="Helvetica,sans-Serif" font-size="10.00"> </text>
<polyline fill="none" stroke="black" points="253.5,-58 375.5,-58 "/>
<text text-anchor="start" x="261.5" y="-46" font-family="Helvetica,sans-Serif" font-size="10.00">+ TwistyTurnyPassage()</text>
<text text-anchor="start" x="261.5" y="-35" font-family="Helvetica,sans-Serif" font-size="10.00">+ Enter()</text>
<text text-anchor="start" x="261.5" y="-24" font-family="Helvetica,sans-Serif" font-size="10.00">+ entered()</text>
</a>
</g>
</g>
<!-- Node1&#45;&gt;Node5 -->
<g id="edge4" class="edge"><title>Node1&#45;&gt;Node5</title>
<path fill="none" stroke="midnightblue" d="M240.667,-156.118C253.854,-139.486 267.399,-122.404 279.227,-107.486"/>
<polygon fill="none" stroke="midnightblue" points="237.701,-154.225 234.231,-164.235 243.186,-158.574 237.701,-154.225"/>
</g>
<!-- Node2 -->
<g id="node2" class="node"><title>Node2</title>
<g id="a_node2"><a xlink:href="../../d6/dde/classcreational_1_1commons_1_1_map_site_interface.html" target="_top" xlink:title="{creational::commons\l::MapSiteInterface\n||+ ~MapSiteInterface()\l+ Enter()\l}">
<polygon fill="white" stroke="black" points="125.5,-342.5 125.5,-421.5 235.5,-421.5 235.5,-342.5 125.5,-342.5"/>
<text text-anchor="start" x="133.5" y="-409.5" font-family="Helvetica,sans-Serif" font-size="10.00">creational::commons</text>
<text text-anchor="middle" x="180.5" y="-398.5" font-family="Helvetica,sans-Serif" font-size="10.00">::MapSiteInterface</text>
<polyline fill="none" stroke="black" points="125.5,-391.5 235.5,-391.5 "/>
<text text-anchor="middle" x="180.5" y="-379.5" font-family="Helvetica,sans-Serif" font-size="10.00"> </text>
<polyline fill="none" stroke="black" points="125.5,-372.5 235.5,-372.5 "/>
<text text-anchor="start" x="133.5" y="-360.5" font-family="Helvetica,sans-Serif" font-size="10.00">+ ~MapSiteInterface()</text>
<text text-anchor="start" x="133.5" y="-349.5" font-family="Helvetica,sans-Serif" font-size="10.00">+ Enter()</text>
</a>
</g>
</g>
<!-- Node2&#45;&gt;Node1 -->
<g id="edge1" class="edge"><title>Node2&#45;&gt;Node1</title>
<path fill="none" stroke="midnightblue" d="M180.5,-332.243C180.5,-323.699 180.5,-314.651 180.5,-305.64"/>
<polygon fill="none" stroke="midnightblue" points="177,-332.377 180.5,-342.377 184,-332.378 177,-332.377"/>
</g>
</g>
</svg>
