<?xml version="1.0" encoding="UTF-8" standalone="no"?>
<!DOCTYPE svg PUBLIC "-//W3C//DTD SVG 1.1//EN"
 "http://www.w3.org/Graphics/SVG/1.1/DTD/svg11.dtd">
<!-- Generated by graphviz version 2.38.0 (20140413.2041)
 -->
<!-- Title: src/operational/src/memento/constraint_solver.h Pages: 1 -->
<svg width="252pt" height="128pt"
 viewBox="0.00 0.00 252.00 128.00" xmlns="http://www.w3.org/2000/svg" xmlns:xlink="http://www.w3.org/1999/xlink">
<g id="graph0" class="graph" transform="scale(1 1) rotate(0) translate(4 124)">
<title>src/operational/src/memento/constraint_solver.h</title>
<polygon fill="white" stroke="none" points="-4,4 -4,-124 248,-124 248,4 -4,4"/>
<!-- Node1 -->
<g id="node1" class="node"><title>Node1</title>
<polygon fill="#bfbfbf" stroke="black" points="65,-78.5 65,-119.5 171,-119.5 171,-78.5 65,-78.5"/>
<text text-anchor="start" x="73" y="-107.5" font-family="Helvetica,sans-Serif" font-size="10.00">src/operational/src</text>
<text text-anchor="start" x="73" y="-96.5" font-family="Helvetica,sans-Serif" font-size="10.00">/memento/constraint</text>
<text text-anchor="middle" x="118" y="-85.5" font-family="Helvetica,sans-Serif" font-size="10.00">_solver.h</text>
</g>
<!-- Node2 -->
<g id="node2" class="node"><title>Node2</title>
<g id="a_node2"><a xlink:href="../../dc/d97/constraint__solver_8cc.html" target="_top" xlink:title="src/operational/src\l/memento/constraint\l_solver.cc">
<polygon fill="white" stroke="black" points="0,-0.5 0,-41.5 106,-41.5 106,-0.5 0,-0.5"/>
<text text-anchor="start" x="8" y="-29.5" font-family="Helvetica,sans-Serif" font-size="10.00">src/operational/src</text>
<text text-anchor="start" x="8" y="-18.5" font-family="Helvetica,sans-Serif" font-size="10.00">/memento/constraint</text>
<text text-anchor="middle" x="53" y="-7.5" font-family="Helvetica,sans-Serif" font-size="10.00">_solver.cc</text>
</a>
</g>
</g>
<!-- Node1&#45;&gt;Node2 -->
<g id="edge1" class="edge"><title>Node1&#45;&gt;Node2</title>
<path fill="none" stroke="midnightblue" d="M94.5889,-70.627C86.3468,-60.9901 77.2567,-50.3617 69.6824,-41.5056"/>
<polygon fill="midnightblue" stroke="midnightblue" points="92.1013,-73.1034 101.261,-78.4281 97.4211,-68.5536 92.1013,-73.1034"/>
</g>
<!-- Node3 -->
<g id="node3" class="node"><title>Node3</title>
<g id="a_node3"><a xlink:href="../../dc/d8a/memento__test_8cc.html" target="_top" xlink:title="src/operational_tests\l/src/memento/memento\l_test.cc">
<polygon fill="white" stroke="black" points="124,-0.5 124,-41.5 244,-41.5 244,-0.5 124,-0.5"/>
<text text-anchor="start" x="132" y="-29.5" font-family="Helvetica,sans-Serif" font-size="10.00">src/operational_tests</text>
<text text-anchor="start" x="132" y="-18.5" font-family="Helvetica,sans-Serif" font-size="10.00">/src/memento/memento</text>
<text text-anchor="middle" x="184" y="-7.5" font-family="Helvetica,sans-Serif" font-size="10.00">_test.cc</text>
</a>
</g>
</g>
<!-- Node1&#45;&gt;Node3 -->
<g id="edge2" class="edge"><title>Node1&#45;&gt;Node3</title>
<path fill="none" stroke="midnightblue" d="M141.771,-70.627C150.14,-60.9901 159.37,-50.3617 167.061,-41.5056"/>
<polygon fill="midnightblue" stroke="midnightblue" points="138.911,-68.5828 134.997,-78.4281 144.196,-73.1727 138.911,-68.5828"/>
</g>
</g>
</svg>
