<?xml version="1.0" encoding="UTF-8" standalone="no"?>
<!DOCTYPE svg PUBLIC "-//W3C//DTD SVG 1.1//EN"
 "http://www.w3.org/Graphics/SVG/1.1/DTD/svg11.dtd">
<!-- Generated by graphviz version 2.38.0 (20140413.2041)
 -->
<!-- Title: src/operational/src/chain/widget.h Pages: 1 -->
<svg width="404pt" height="173pt"
 viewBox="0.00 0.00 404.00 173.00" xmlns="http://www.w3.org/2000/svg" xmlns:xlink="http://www.w3.org/1999/xlink">
<g id="graph0" class="graph" transform="scale(1 1) rotate(0) translate(4 169)">
<title>src/operational/src/chain/widget.h</title>
<polygon fill="white" stroke="none" points="-4,4 -4,-169 400,-169 400,4 -4,4"/>
<!-- Node1 -->
<g id="node1" class="node"><title>Node1</title>
<polygon fill="#bfbfbf" stroke="black" points="184,-134.5 184,-164.5 281,-164.5 281,-134.5 184,-134.5"/>
<text text-anchor="start" x="192" y="-152.5" font-family="Helvetica,sans-Serif" font-size="10.00">src/operational/src</text>
<text text-anchor="middle" x="232.5" y="-141.5" font-family="Helvetica,sans-Serif" font-size="10.00">/chain/widget.h</text>
</g>
<!-- Node2 -->
<g id="node2" class="node"><title>Node2</title>
<g id="a_node2"><a xlink:href="../../d7/d0e/button_8h.html" target="_top" xlink:title="src/operational/src\l/chain/button.h">
<polygon fill="white" stroke="black" points="69,-67.5 69,-97.5 166,-97.5 166,-67.5 69,-67.5"/>
<text text-anchor="start" x="77" y="-85.5" font-family="Helvetica,sans-Serif" font-size="10.00">src/operational/src</text>
<text text-anchor="middle" x="117.5" y="-74.5" font-family="Helvetica,sans-Serif" font-size="10.00">/chain/button.h</text>
</a>
</g>
</g>
<!-- Node1&#45;&gt;Node2 -->
<g id="edge1" class="edge"><title>Node1&#45;&gt;Node2</title>
<path fill="none" stroke="midnightblue" d="M198.523,-129.296C180.529,-119.125 158.82,-106.855 142.405,-97.5765"/>
<polygon fill="midnightblue" stroke="midnightblue" points="197.119,-132.522 207.547,-134.396 200.563,-126.428 197.119,-132.522"/>
</g>
<!-- Node5 -->
<g id="node5" class="node"><title>Node5</title>
<g id="a_node5"><a xlink:href="../../d1/dc9/dialog_8h.html" target="_top" xlink:title="src/operational/src\l/chain/dialog.h">
<polygon fill="white" stroke="black" points="184,-67.5 184,-97.5 281,-97.5 281,-67.5 184,-67.5"/>
<text text-anchor="start" x="192" y="-85.5" font-family="Helvetica,sans-Serif" font-size="10.00">src/operational/src</text>
<text text-anchor="middle" x="232.5" y="-74.5" font-family="Helvetica,sans-Serif" font-size="10.00">/chain/dialog.h</text>
</a>
</g>
</g>
<!-- Node1&#45;&gt;Node5 -->
<g id="edge4" class="edge"><title>Node1&#45;&gt;Node5</title>
<path fill="none" stroke="midnightblue" d="M232.5,-124.108C232.5,-115.154 232.5,-105.323 232.5,-97.5765"/>
<polygon fill="midnightblue" stroke="midnightblue" points="229,-124.396 232.5,-134.396 236,-124.396 229,-124.396"/>
</g>
<!-- Node7 -->
<g id="node7" class="node"><title>Node7</title>
<g id="a_node7"><a xlink:href="../../d4/db5/widget_8cc.html" target="_top" xlink:title="src/operational/src\l/chain/widget.cc">
<polygon fill="white" stroke="black" points="299,-67.5 299,-97.5 396,-97.5 396,-67.5 299,-67.5"/>
<text text-anchor="start" x="307" y="-85.5" font-family="Helvetica,sans-Serif" font-size="10.00">src/operational/src</text>
<text text-anchor="middle" x="347.5" y="-74.5" font-family="Helvetica,sans-Serif" font-size="10.00">/chain/widget.cc</text>
</a>
</g>
</g>
<!-- Node1&#45;&gt;Node7 -->
<g id="edge7" class="edge"><title>Node1&#45;&gt;Node7</title>
<path fill="none" stroke="midnightblue" d="M266.477,-129.296C284.471,-119.125 306.18,-106.855 322.595,-97.5765"/>
<polygon fill="midnightblue" stroke="midnightblue" points="264.437,-126.428 257.453,-134.396 267.881,-132.522 264.437,-126.428"/>
</g>
<!-- Node3 -->
<g id="node3" class="node"><title>Node3</title>
<g id="a_node3"><a xlink:href="../../db/da7/button_8cc.html" target="_top" xlink:title="src/operational/src\l/chain/button.cc">
<polygon fill="white" stroke="black" points="0,-0.5 0,-30.5 97,-30.5 97,-0.5 0,-0.5"/>
<text text-anchor="start" x="8" y="-18.5" font-family="Helvetica,sans-Serif" font-size="10.00">src/operational/src</text>
<text text-anchor="middle" x="48.5" y="-7.5" font-family="Helvetica,sans-Serif" font-size="10.00">/chain/button.cc</text>
</a>
</g>
</g>
<!-- Node2&#45;&gt;Node3 -->
<g id="edge2" class="edge"><title>Node2&#45;&gt;Node3</title>
<path fill="none" stroke="midnightblue" d="M95.0076,-60.3115C84.6573,-50.5612 72.6596,-39.259 63.4428,-30.5765"/>
<polygon fill="midnightblue" stroke="midnightblue" points="92.8492,-63.0866 102.528,-67.396 97.649,-57.9914 92.8492,-63.0866"/>
</g>
<!-- Node4 -->
<g id="node4" class="node"><title>Node4</title>
<g id="a_node4"><a xlink:href="../../d1/d4e/chain__test_8cc.html" target="_top" xlink:title="src/operational_tests\l/src/chain/chain_test.cc">
<polygon fill="white" stroke="black" points="115,-0.5 115,-30.5 236,-30.5 236,-0.5 115,-0.5"/>
<text text-anchor="start" x="123" y="-18.5" font-family="Helvetica,sans-Serif" font-size="10.00">src/operational_tests</text>
<text text-anchor="middle" x="175.5" y="-7.5" font-family="Helvetica,sans-Serif" font-size="10.00">/src/chain/chain_test.cc</text>
</a>
</g>
</g>
<!-- Node2&#45;&gt;Node4 -->
<g id="edge3" class="edge"><title>Node2&#45;&gt;Node4</title>
<path fill="none" stroke="midnightblue" d="M136.92,-59.7362C145.502,-50.119 155.344,-39.0888 162.939,-30.5765"/>
<polygon fill="midnightblue" stroke="midnightblue" points="134.132,-57.6043 130.085,-67.396 139.355,-62.2648 134.132,-57.6043"/>
</g>
<!-- Node5&#45;&gt;Node4 -->
<g id="edge6" class="edge"><title>Node5&#45;&gt;Node4</title>
<path fill="none" stroke="midnightblue" d="M213.415,-59.7362C204.981,-50.119 195.309,-39.0888 187.844,-30.5765"/>
<polygon fill="midnightblue" stroke="midnightblue" points="210.907,-62.185 220.132,-67.396 216.17,-57.5697 210.907,-62.185"/>
</g>
<!-- Node6 -->
<g id="node6" class="node"><title>Node6</title>
<g id="a_node6"><a xlink:href="../../df/d37/dialog_8cc.html" target="_top" xlink:title="src/operational/src\l/chain/dialog.cc">
<polygon fill="white" stroke="black" points="254,-0.5 254,-30.5 351,-30.5 351,-0.5 254,-0.5"/>
<text text-anchor="start" x="262" y="-18.5" font-family="Helvetica,sans-Serif" font-size="10.00">src/operational/src</text>
<text text-anchor="middle" x="302.5" y="-7.5" font-family="Helvetica,sans-Serif" font-size="10.00">/chain/dialog.cc</text>
</a>
</g>
</g>
<!-- Node5&#45;&gt;Node6 -->
<g id="edge5" class="edge"><title>Node5&#45;&gt;Node6</title>
<path fill="none" stroke="midnightblue" d="M255.318,-60.3115C265.819,-50.5612 277.99,-39.259 287.341,-30.5765"/>
<polygon fill="midnightblue" stroke="midnightblue" points="252.635,-58.0266 247.689,-67.396 257.399,-63.1562 252.635,-58.0266"/>
</g>
</g>
</svg>
