<?xml version="1.0" encoding="UTF-8" standalone="no"?>
<!DOCTYPE svg PUBLIC "-//W3C//DTD SVG 1.1//EN"
 "http://www.w3.org/Graphics/SVG/1.1/DTD/svg11.dtd">
<!-- Generated by graphviz version 2.38.0 (20140413.2041)
 -->
<!-- Title: operational::state::TcpClosed Pages: 1 -->
<svg width="100pt" height="325pt"
 viewBox="0.00 0.00 100.00 325.00" xmlns="http://www.w3.org/2000/svg" xmlns:xlink="http://www.w3.org/1999/xlink">
<g id="graph0" class="graph" transform="scale(1 1) rotate(0) translate(4 321)">
<title>operational::state::TcpClosed</title>
<polygon fill="white" stroke="none" points="-4,4 -4,-321 96,-321 96,4 -4,4"/>
<!-- Node1 -->
<g id="node1" class="node"><title>Node1</title>
<polygon fill="#bfbfbf" stroke="black" points="0,-0.5 0,-112.5 92,-112.5 92,-0.5 0,-0.5"/>
<text text-anchor="start" x="8" y="-100.5" font-family="Helvetica,sans-Serif" font-size="10.00">operational::state</text>
<text text-anchor="middle" x="46" y="-89.5" font-family="Helvetica,sans-Serif" font-size="10.00">::TcpClosed</text>
<polyline fill="none" stroke="black" points="0,-82.5 92,-82.5 "/>
<text text-anchor="middle" x="46" y="-70.5" font-family="Helvetica,sans-Serif" font-size="10.00"> </text>
<polyline fill="none" stroke="black" points="0,-63.5 92,-63.5 "/>
<text text-anchor="start" x="8" y="-51.5" font-family="Helvetica,sans-Serif" font-size="10.00">+ TcpClosed()</text>
<text text-anchor="start" x="8" y="-40.5" font-family="Helvetica,sans-Serif" font-size="10.00">+ Initialize()</text>
<text text-anchor="start" x="8" y="-29.5" font-family="Helvetica,sans-Serif" font-size="10.00">+ ActiveOpen()</text>
<text text-anchor="start" x="8" y="-18.5" font-family="Helvetica,sans-Serif" font-size="10.00">+ PassiveOpen()</text>
<text text-anchor="start" x="8" y="-7.5" font-family="Helvetica,sans-Serif" font-size="10.00">+ Info()</text>
</g>
<!-- Node2 -->
<g id="node2" class="node"><title>Node2</title>
<g id="a_node2"><a xlink:href="../../de/d97/classoperational_1_1state_1_1_tcp_state.html" target="_top" xlink:title="{operational::state\l::TcpState\n||+ ~TcpState()\l+ Transmit()\l+ ActiveOpen()\l+ PassiveOpen()\l+ Close()\l+ Synchronize()\l+ Acknowledge()\l+ Send()\l+ Info()\l# ChangeState()\l}">
<polygon fill="white" stroke="black" points="0,-149.5 0,-316.5 92,-316.5 92,-149.5 0,-149.5"/>
<text text-anchor="start" x="8" y="-304.5" font-family="Helvetica,sans-Serif" font-size="10.00">operational::state</text>
<text text-anchor="middle" x="46" y="-293.5" font-family="Helvetica,sans-Serif" font-size="10.00">::TcpState</text>
<polyline fill="none" stroke="black" points="0,-286.5 92,-286.5 "/>
<text text-anchor="middle" x="46" y="-274.5" font-family="Helvetica,sans-Serif" font-size="10.00"> </text>
<polyline fill="none" stroke="black" points="0,-267.5 92,-267.5 "/>
<text text-anchor="start" x="8" y="-255.5" font-family="Helvetica,sans-Serif" font-size="10.00">+ ~TcpState()</text>
<text text-anchor="start" x="8" y="-244.5" font-family="Helvetica,sans-Serif" font-size="10.00">+ Transmit()</text>
<text text-anchor="start" x="8" y="-233.5" font-family="Helvetica,sans-Serif" font-size="10.00">+ ActiveOpen()</text>
<text text-anchor="start" x="8" y="-222.5" font-family="Helvetica,sans-Serif" font-size="10.00">+ PassiveOpen()</text>
<text text-anchor="start" x="8" y="-211.5" font-family="Helvetica,sans-Serif" font-size="10.00">+ Close()</text>
<text text-anchor="start" x="8" y="-200.5" font-family="Helvetica,sans-Serif" font-size="10.00">+ Synchronize()</text>
<text text-anchor="start" x="8" y="-189.5" font-family="Helvetica,sans-Serif" font-size="10.00">+ Acknowledge()</text>
<text text-anchor="start" x="8" y="-178.5" font-family="Helvetica,sans-Serif" font-size="10.00">+ Send()</text>
<text text-anchor="start" x="8" y="-167.5" font-family="Helvetica,sans-Serif" font-size="10.00">+ Info()</text>
<text text-anchor="start" x="8" y="-156.5" font-family="Helvetica,sans-Serif" font-size="10.00"># ChangeState()</text>
</a>
</g>
</g>
<!-- Node2&#45;&gt;Node1 -->
<g id="edge1" class="edge"><title>Node2&#45;&gt;Node1</title>
<path fill="none" stroke="midnightblue" d="M46,-139.225C46,-130.269 46,-121.392 46,-112.971"/>
<polygon fill="none" stroke="midnightblue" points="42.5001,-139.349 46,-149.349 49.5001,-139.349 42.5001,-139.349"/>
</g>
</g>
</svg>
