<?xml version="1.0" encoding="UTF-8" standalone="no"?>
<!DOCTYPE svg PUBLIC "-//W3C//DTD SVG 1.1//EN"
 "http://www.w3.org/Graphics/SVG/1.1/DTD/svg11.dtd">
<!-- Generated by graphviz version 2.38.0 (20140413.2041)
 -->
<!-- Title: src/structural/src/decorator/stream_interface.h Pages: 1 -->
<svg width="631pt" height="262pt"
 viewBox="0.00 0.00 630.50 262.00" xmlns="http://www.w3.org/2000/svg" xmlns:xlink="http://www.w3.org/1999/xlink">
<g id="graph0" class="graph" transform="scale(1 1) rotate(0) translate(4 258)">
<title>src/structural/src/decorator/stream_interface.h</title>
<polygon fill="white" stroke="none" points="-4,4 -4,-258 626.5,-258 626.5,4 -4,4"/>
<!-- Node1 -->
<g id="node1" class="node"><title>Node1</title>
<polygon fill="#bfbfbf" stroke="black" points="323,-223.5 323,-253.5 466,-253.5 466,-223.5 323,-223.5"/>
<text text-anchor="start" x="331" y="-241.5" font-family="Helvetica,sans-Serif" font-size="10.00">src/structural/src</text>
<text text-anchor="middle" x="394.5" y="-230.5" font-family="Helvetica,sans-Serif" font-size="10.00">/decorator/stream_interface.h</text>
</g>
<!-- Node2 -->
<g id="node2" class="node"><title>Node2</title>
<g id="a_node2"><a xlink:href="../../d2/dd2/stream__decorator_8h.html" target="_top" xlink:title="src/structural/src\l/decorator/stream_decorator.h">
<polygon fill="white" stroke="black" points="200,-156.5 200,-186.5 347,-186.5 347,-156.5 200,-156.5"/>
<text text-anchor="start" x="208" y="-174.5" font-family="Helvetica,sans-Serif" font-size="10.00">src/structural/src</text>
<text text-anchor="middle" x="273.5" y="-163.5" font-family="Helvetica,sans-Serif" font-size="10.00">/decorator/stream_decorator.h</text>
</a>
</g>
</g>
<!-- Node1&#45;&gt;Node2 -->
<g id="edge1" class="edge"><title>Node1&#45;&gt;Node2</title>
<path fill="none" stroke="midnightblue" d="M359.27,-218.575C340.237,-208.35 317.135,-195.94 299.704,-186.577"/>
<polygon fill="midnightblue" stroke="midnightblue" points="357.779,-221.747 368.245,-223.396 361.092,-215.58 357.779,-221.747"/>
</g>
<!-- Node9 -->
<g id="node9" class="node"><title>Node9</title>
<g id="a_node9"><a xlink:href="../../d2/d70/file__stream_8h.html" target="_top" xlink:title="src/structural/src\l/decorator/file_stream.h">
<polygon fill="white" stroke="black" points="411,-156.5 411,-186.5 530,-186.5 530,-156.5 411,-156.5"/>
<text text-anchor="start" x="419" y="-174.5" font-family="Helvetica,sans-Serif" font-size="10.00">src/structural/src</text>
<text text-anchor="middle" x="470.5" y="-163.5" font-family="Helvetica,sans-Serif" font-size="10.00">/decorator/file_stream.h</text>
</a>
</g>
</g>
<!-- Node1&#45;&gt;Node9 -->
<g id="edge9" class="edge"><title>Node1&#45;&gt;Node9</title>
<path fill="none" stroke="midnightblue" d="M418.606,-216.883C430.155,-207.005 443.69,-195.429 454.041,-186.577"/>
<polygon fill="midnightblue" stroke="midnightblue" points="416.316,-214.236 410.991,-223.396 420.865,-219.556 416.316,-214.236"/>
</g>
<!-- Node3 -->
<g id="node3" class="node"><title>Node3</title>
<g id="a_node3"><a xlink:href="../../d2/d75/ascii7__stream_8h.html" target="_top" xlink:title="src/structural/src\l/decorator/ascii7_stream.h">
<polygon fill="white" stroke="black" points="2.5,-84 2.5,-114 134.5,-114 134.5,-84 2.5,-84"/>
<text text-anchor="start" x="10.5" y="-102" font-family="Helvetica,sans-Serif" font-size="10.00">src/structural/src</text>
<text text-anchor="middle" x="68.5" y="-91" font-family="Helvetica,sans-Serif" font-size="10.00">/decorator/ascii7_stream.h</text>
</a>
</g>
</g>
<!-- Node2&#45;&gt;Node3 -->
<g id="edge2" class="edge"><title>Node2&#45;&gt;Node3</title>
<path fill="none" stroke="midnightblue" d="M222.959,-153.119C188.002,-141.097 142.084,-125.306 109.421,-114.073"/>
<polygon fill="midnightblue" stroke="midnightblue" points="221.913,-156.46 232.508,-156.403 224.19,-149.841 221.913,-156.46"/>
</g>
<!-- Node6 -->
<g id="node6" class="node"><title>Node6</title>
<g id="a_node6"><a xlink:href="../../d9/d25/compressing__stream_8h.html" target="_top" xlink:title="src/structural/src\l/decorator/compressing\l_stream.h">
<polygon fill="white" stroke="black" points="323,-78.5 323,-119.5 442,-119.5 442,-78.5 323,-78.5"/>
<text text-anchor="start" x="331" y="-107.5" font-family="Helvetica,sans-Serif" font-size="10.00">src/structural/src</text>
<text text-anchor="start" x="331" y="-96.5" font-family="Helvetica,sans-Serif" font-size="10.00">/decorator/compressing</text>
<text text-anchor="middle" x="382.5" y="-85.5" font-family="Helvetica,sans-Serif" font-size="10.00">_stream.h</text>
</a>
</g>
</g>
<!-- Node2&#45;&gt;Node6 -->
<g id="edge5" class="edge"><title>Node2&#45;&gt;Node6</title>
<path fill="none" stroke="midnightblue" d="M303.759,-150.929C318.822,-141.186 336.987,-129.437 352.073,-119.68"/>
<polygon fill="midnightblue" stroke="midnightblue" points="301.792,-148.033 295.296,-156.403 305.593,-153.911 301.792,-148.033"/>
</g>
<!-- Node8 -->
<g id="node8" class="node"><title>Node8</title>
<g id="a_node8"><a xlink:href="../../d4/d77/stream__decorator_8cc.html" target="_top" xlink:title="src/structural/src\l/decorator/stream_decorator.cc">
<polygon fill="white" stroke="black" points="152.5,-84 152.5,-114 304.5,-114 304.5,-84 152.5,-84"/>
<text text-anchor="start" x="160.5" y="-102" font-family="Helvetica,sans-Serif" font-size="10.00">src/structural/src</text>
<text text-anchor="middle" x="228.5" y="-91" font-family="Helvetica,sans-Serif" font-size="10.00">/decorator/stream_decorator.cc</text>
</a>
</g>
</g>
<!-- Node2&#45;&gt;Node8 -->
<g id="edge8" class="edge"><title>Node2&#45;&gt;Node8</title>
<path fill="none" stroke="midnightblue" d="M258.855,-147.557C251.853,-136.586 243.689,-123.797 237.593,-114.246"/>
<polygon fill="midnightblue" stroke="midnightblue" points="256.063,-149.687 264.394,-156.233 261.963,-145.921 256.063,-149.687"/>
</g>
<!-- Node4 -->
<g id="node4" class="node"><title>Node4</title>
<g id="a_node4"><a xlink:href="../../dd/d84/ascii7__stream_8cc.html" target="_top" xlink:title="src/structural/src\l/decorator/ascii7_stream.cc">
<polygon fill="white" stroke="black" points="0,-6 0,-36 137,-36 137,-6 0,-6"/>
<text text-anchor="start" x="8" y="-24" font-family="Helvetica,sans-Serif" font-size="10.00">src/structural/src</text>
<text text-anchor="middle" x="68.5" y="-13" font-family="Helvetica,sans-Serif" font-size="10.00">/decorator/ascii7_stream.cc</text>
</a>
</g>
</g>
<!-- Node3&#45;&gt;Node4 -->
<g id="edge3" class="edge"><title>Node3&#45;&gt;Node4</title>
<path fill="none" stroke="midnightblue" d="M68.5,-73.5898C68.5,-61.2565 68.5,-46.7237 68.5,-36.2309"/>
<polygon fill="midnightblue" stroke="midnightblue" points="65.0001,-73.7049 68.5,-83.705 72.0001,-73.705 65.0001,-73.7049"/>
</g>
<!-- Node5 -->
<g id="node5" class="node"><title>Node5</title>
<g id="a_node5"><a xlink:href="../../d6/d1f/decorator__test_8cc.html" target="_top" xlink:title="src/structural_tests\l/src/decorator/decorator\l_test.cc">
<polygon fill="white" stroke="black" points="366.5,-0.5 366.5,-41.5 486.5,-41.5 486.5,-0.5 366.5,-0.5"/>
<text text-anchor="start" x="374.5" y="-29.5" font-family="Helvetica,sans-Serif" font-size="10.00">src/structural_tests</text>
<text text-anchor="start" x="374.5" y="-18.5" font-family="Helvetica,sans-Serif" font-size="10.00">/src/decorator/decorator</text>
<text text-anchor="middle" x="426.5" y="-7.5" font-family="Helvetica,sans-Serif" font-size="10.00">_test.cc</text>
</a>
</g>
</g>
<!-- Node3&#45;&gt;Node5 -->
<g id="edge4" class="edge"><title>Node3&#45;&gt;Node5</title>
<path fill="none" stroke="midnightblue" d="M128.485,-81.4747C133.55,-80.2405 138.605,-79.0639 143.5,-78 237.319,-57.6089 262.865,-63.2205 356.5,-42 359.705,-41.2737 362.981,-40.4886 366.28,-39.6642"/>
<polygon fill="midnightblue" stroke="midnightblue" points="127.624,-78.0823 118.772,-83.9045 129.323,-84.873 127.624,-78.0823"/>
</g>
<!-- Node6&#45;&gt;Node5 -->
<g id="edge7" class="edge"><title>Node6&#45;&gt;Node5</title>
<path fill="none" stroke="midnightblue" d="M398.851,-69.7571C404.295,-60.354 410.234,-50.096 415.207,-41.5056"/>
<polygon fill="midnightblue" stroke="midnightblue" points="395.813,-68.0202 393.831,-78.4281 401.871,-71.5275 395.813,-68.0202"/>
</g>
<!-- Node7 -->
<g id="node7" class="node"><title>Node7</title>
<g id="a_node7"><a xlink:href="../../d4/ddd/compressing__stream_8cc.html" target="_top" xlink:title="src/structural/src\l/decorator/compressing\l_stream.cc">
<polygon fill="white" stroke="black" points="229,-0.5 229,-41.5 348,-41.5 348,-0.5 229,-0.5"/>
<text text-anchor="start" x="237" y="-29.5" font-family="Helvetica,sans-Serif" font-size="10.00">src/structural/src</text>
<text text-anchor="start" x="237" y="-18.5" font-family="Helvetica,sans-Serif" font-size="10.00">/decorator/compressing</text>
<text text-anchor="middle" x="288.5" y="-7.5" font-family="Helvetica,sans-Serif" font-size="10.00">_stream.cc</text>
</a>
</g>
</g>
<!-- Node6&#45;&gt;Node7 -->
<g id="edge6" class="edge"><title>Node6&#45;&gt;Node7</title>
<path fill="none" stroke="midnightblue" d="M350.422,-72.0648C338.045,-62.0574 324.127,-50.8045 312.625,-41.5056"/>
<polygon fill="midnightblue" stroke="midnightblue" points="348.316,-74.8626 358.293,-78.4281 352.717,-69.4191 348.316,-74.8626"/>
</g>
<!-- Node9&#45;&gt;Node5 -->
<g id="edge11" class="edge"><title>Node9&#45;&gt;Node5</title>
<path fill="none" stroke="midnightblue" d="M466.597,-146.387C463.231,-127.524 457.766,-100.767 450.5,-78 446.545,-65.6056 440.85,-52.1938 436,-41.6036"/>
<polygon fill="midnightblue" stroke="midnightblue" points="463.19,-147.229 468.334,-156.491 470.089,-146.043 463.19,-147.229"/>
</g>
<!-- Node10 -->
<g id="node10" class="node"><title>Node10</title>
<g id="a_node10"><a xlink:href="../../d7/d9a/file__stream_8cc.html" target="_top" xlink:title="src/structural/src\l/decorator/file_stream.cc">
<polygon fill="white" stroke="black" points="498.5,-84 498.5,-114 622.5,-114 622.5,-84 498.5,-84"/>
<text text-anchor="start" x="506.5" y="-102" font-family="Helvetica,sans-Serif" font-size="10.00">src/structural/src</text>
<text text-anchor="middle" x="560.5" y="-91" font-family="Helvetica,sans-Serif" font-size="10.00">/decorator/file_stream.cc</text>
</a>
</g>
</g>
<!-- Node9&#45;&gt;Node10 -->
<g id="edge10" class="edge"><title>Node9&#45;&gt;Node10</title>
<path fill="none" stroke="midnightblue" d="M496.941,-149.788C511.649,-138.266 529.565,-124.233 542.621,-114.005"/>
<polygon fill="midnightblue" stroke="midnightblue" points="494.427,-147.311 488.713,-156.233 498.743,-152.822 494.427,-147.311"/>
</g>
</g>
</svg>
