<?xml version="1.0" encoding="UTF-8" standalone="no"?>
<!DOCTYPE svg PUBLIC "-//W3C//DTD SVG 1.1//EN"
 "http://www.w3.org/Graphics/SVG/1.1/DTD/svg11.dtd">
<!-- Generated by graphviz version 2.38.0 (20140413.2041)
 -->
<!-- Title: creational::factorymethod::BombedMazeGame Pages: 1 -->
<svg width="134pt" height="281pt"
 viewBox="0.00 0.00 134.00 281.00" xmlns="http://www.w3.org/2000/svg" xmlns:xlink="http://www.w3.org/1999/xlink">
<g id="graph0" class="graph" transform="scale(1 1) rotate(0) translate(4 277)">
<title>creational::factorymethod::BombedMazeGame</title>
<polygon fill="white" stroke="none" points="-4,4 -4,-277 130,-277 130,4 -4,4"/>
<!-- Node1 -->
<g id="node1" class="node"><title>Node1</title>
<polygon fill="#bfbfbf" stroke="black" points="0,-0.5 0,-90.5 126,-90.5 126,-0.5 0,-0.5"/>
<text text-anchor="start" x="8" y="-78.5" font-family="Helvetica,sans-Serif" font-size="10.00">creational::factorymethod</text>
<text text-anchor="middle" x="63" y="-67.5" font-family="Helvetica,sans-Serif" font-size="10.00">::BombedMazeGame</text>
<polyline fill="none" stroke="black" points="0,-60.5 126,-60.5 "/>
<text text-anchor="middle" x="63" y="-48.5" font-family="Helvetica,sans-Serif" font-size="10.00"> </text>
<polyline fill="none" stroke="black" points="0,-41.5 126,-41.5 "/>
<text text-anchor="start" x="8" y="-29.5" font-family="Helvetica,sans-Serif" font-size="10.00">+ BombedMazeGame()</text>
<text text-anchor="start" x="8" y="-18.5" font-family="Helvetica,sans-Serif" font-size="10.00">+ MakeWall()</text>
<text text-anchor="start" x="8" y="-7.5" font-family="Helvetica,sans-Serif" font-size="10.00">+ MakeRoom()</text>
</g>
<!-- Node2 -->
<g id="node2" class="node"><title>Node2</title>
<g id="a_node2"><a xlink:href="../../d7/d1d/classcreational_1_1_maze_game.html" target="_top" xlink:title="{creational::MazeGame\n||+ ~MazeGame()\l+ CreateSimpleMaze()\l+ MakeMaze()\l+ MakeRoom()\l+ MakeWall()\l+ MakeDoor()\l+ CreateMaze()\l+ CreateMaze()\l+ CreateMaze()\l}">
<polygon fill="white" stroke="black" points="5.5,-127.5 5.5,-272.5 120.5,-272.5 120.5,-127.5 5.5,-127.5"/>
<text text-anchor="middle" x="63" y="-260.5" font-family="Helvetica,sans-Serif" font-size="10.00">creational::MazeGame</text>
<polyline fill="none" stroke="black" points="5.5,-253.5 120.5,-253.5 "/>
<text text-anchor="middle" x="63" y="-241.5" font-family="Helvetica,sans-Serif" font-size="10.00"> </text>
<polyline fill="none" stroke="black" points="5.5,-234.5 120.5,-234.5 "/>
<text text-anchor="start" x="13.5" y="-222.5" font-family="Helvetica,sans-Serif" font-size="10.00">+ ~MazeGame()</text>
<text text-anchor="start" x="13.5" y="-211.5" font-family="Helvetica,sans-Serif" font-size="10.00">+ CreateSimpleMaze()</text>
<text text-anchor="start" x="13.5" y="-200.5" font-family="Helvetica,sans-Serif" font-size="10.00">+ MakeMaze()</text>
<text text-anchor="start" x="13.5" y="-189.5" font-family="Helvetica,sans-Serif" font-size="10.00">+ MakeRoom()</text>
<text text-anchor="start" x="13.5" y="-178.5" font-family="Helvetica,sans-Serif" font-size="10.00">+ MakeWall()</text>
<text text-anchor="start" x="13.5" y="-167.5" font-family="Helvetica,sans-Serif" font-size="10.00">+ MakeDoor()</text>
<text text-anchor="start" x="13.5" y="-156.5" font-family="Helvetica,sans-Serif" font-size="10.00">+ CreateMaze()</text>
<text text-anchor="start" x="13.5" y="-145.5" font-family="Helvetica,sans-Serif" font-size="10.00">+ CreateMaze()</text>
<text text-anchor="start" x="13.5" y="-134.5" font-family="Helvetica,sans-Serif" font-size="10.00">+ CreateMaze()</text>
</a>
</g>
</g>
<!-- Node2&#45;&gt;Node1 -->
<g id="edge1" class="edge"><title>Node2&#45;&gt;Node1</title>
<path fill="none" stroke="midnightblue" d="M63,-116.941C63,-107.857 63,-98.8847 63,-90.5422"/>
<polygon fill="none" stroke="midnightblue" points="59.5001,-117.215 63,-127.216 66.5001,-117.216 59.5001,-117.215"/>
</g>
</g>
</svg>
