<?xml version="1.0" encoding="UTF-8" standalone="no"?>
<!DOCTYPE svg PUBLIC "-//W3C//DTD SVG 1.1//EN"
 "http://www.w3.org/Graphics/SVG/1.1/DTD/svg11.dtd">
<!-- Generated by graphviz version 2.38.0 (20140413.2041)
 -->
<!-- Title: operational::strategy::SimpleCompositor Pages: 1 -->
<svg width="132pt" height="193pt"
 viewBox="0.00 0.00 132.00 193.00" xmlns="http://www.w3.org/2000/svg" xmlns:xlink="http://www.w3.org/1999/xlink">
<g id="graph0" class="graph" transform="scale(1 1) rotate(0) translate(4 189)">
<title>operational::strategy::SimpleCompositor</title>
<polygon fill="white" stroke="none" points="-4,4 -4,-189 128,-189 128,4 -4,4"/>
<!-- Node1 -->
<g id="node1" class="node"><title>Node1</title>
<polygon fill="#bfbfbf" stroke="black" points="9.5,-0.5 9.5,-68.5 114.5,-68.5 114.5,-0.5 9.5,-0.5"/>
<text text-anchor="start" x="17.5" y="-56.5" font-family="Helvetica,sans-Serif" font-size="10.00">operational::strategy</text>
<text text-anchor="middle" x="62" y="-45.5" font-family="Helvetica,sans-Serif" font-size="10.00">::SimpleCompositor</text>
<polyline fill="none" stroke="black" points="9.5,-38.5 114.5,-38.5 "/>
<text text-anchor="middle" x="62" y="-26.5" font-family="Helvetica,sans-Serif" font-size="10.00"> </text>
<polyline fill="none" stroke="black" points="9.5,-19.5 114.5,-19.5 "/>
<text text-anchor="start" x="17.5" y="-7.5" font-family="Helvetica,sans-Serif" font-size="10.00">+ Compose()</text>
</g>
<!-- Node2 -->
<g id="node2" class="node"><title>Node2</title>
<g id="a_node2"><a xlink:href="../../d4/dad/classoperational_1_1strategy_1_1_compositor_interface.html" target="_top" xlink:title="{operational::strategy\l::CompositorInterface\n||+ ~CompositorInterface()\l+ Compose()\l}">
<polygon fill="white" stroke="black" points="0,-105.5 0,-184.5 124,-184.5 124,-105.5 0,-105.5"/>
<text text-anchor="start" x="8" y="-172.5" font-family="Helvetica,sans-Serif" font-size="10.00">operational::strategy</text>
<text text-anchor="middle" x="62" y="-161.5" font-family="Helvetica,sans-Serif" font-size="10.00">::CompositorInterface</text>
<polyline fill="none" stroke="black" points="0,-154.5 124,-154.5 "/>
<text text-anchor="middle" x="62" y="-142.5" font-family="Helvetica,sans-Serif" font-size="10.00"> </text>
<polyline fill="none" stroke="black" points="0,-135.5 124,-135.5 "/>
<text text-anchor="start" x="8" y="-123.5" font-family="Helvetica,sans-Serif" font-size="10.00">+ ~CompositorInterface()</text>
<text text-anchor="start" x="8" y="-112.5" font-family="Helvetica,sans-Serif" font-size="10.00">+ Compose()</text>
</a>
</g>
</g>
<!-- Node2&#45;&gt;Node1 -->
<g id="edge1" class="edge"><title>Node2&#45;&gt;Node1</title>
<path fill="none" stroke="midnightblue" d="M62,-95.3492C62,-86.2824 62,-77.0048 62,-68.5439"/>
<polygon fill="none" stroke="midnightblue" points="58.5001,-95.4414 62,-105.441 65.5001,-95.4415 58.5001,-95.4414"/>
</g>
</g>
</svg>
