<?xml version="1.0" encoding="UTF-8" standalone="no"?>
<!DOCTYPE svg PUBLIC "-//W3C//DTD SVG 1.1//EN"
 "http://www.w3.org/Graphics/SVG/1.1/DTD/svg11.dtd">
<!-- Generated by graphviz version 2.38.0 (20140413.2041)
 -->
<!-- Title: src/structural/src/commons/point.h Pages: 1 -->
<!--zoomable 418 -->
<svg id="main" version="1.1" xmlns="http://www.w3.org/2000/svg" xmlns:xlink="http://www.w3.org/1999/xlink" xml:space="preserve" onload="init(evt)">
<style type="text/css"><![CDATA[
.edge:hover path { stroke: red; }
.edge:hover polygon { stroke: red; fill: red; }
]]></style>
<script type="text/javascript"><![CDATA[
var edges = document.getElementsByTagName('g');
if (edges && edges.length) {
  for (var i=0;i<edges.length;i++) {
    if (edges[i].id.substr(0,4)=='edge') {
      edges[i].setAttribute('class','edge');
    }
  }
}
]]></script>
        <defs>
                <circle id="rim" cx="0" cy="0" r="7"/>
                <circle id="rim2" cx="0" cy="0" r="3.5"/>
                <g id="zoomPlus">
                        <use xlink:href="#rim" fill="#404040">
                                <set attributeName="fill" to="#808080" begin="zoomplus.mouseover" end="zoomplus.mouseout"/>
                        </use>
                        <path d="M-4,0h8M0,-4v8" fill="none" stroke="white" stroke-width="1.5" pointer-events="none"/>
                </g>
                <g id="zoomMin">
                        <use xlink:href="#rim" fill="#404040">
                                <set attributeName="fill" to="#808080" begin="zoomminus.mouseover" end="zoomminus.mouseout"/>
                        </use>
                        <path d="M-4,0h8" fill="none" stroke="white" stroke-width="1.5" pointer-events="none"/>
                </g>
                <g id="dirArrow">
                        <path fill="none" stroke="white" stroke-width="1.5" d="M0,-3.0v7 M-2.5,-0.5L0,-3.0L2.5,-0.5"/>
                </g>
               <g id="resetDef">
                       <use xlink:href="#rim2" fill="#404040">
                               <set attributeName="fill" to="#808080" begin="reset.mouseover" end="reset.mouseout"/>
                       </use>
               </g>
        </defs>

<script type="text/javascript">
var viewWidth = 1829;
var viewHeight = 418;
var sectionId = 'dynsection-1';
</script>
<script xlink:href="../../svgpan.js"/>
<svg id="graph" class="graph">
<g id="viewport">
<title>src/structural/src/commons/point.h</title>
<polygon fill="white" stroke="none" points="-4,4 -4,-414 1825,-414 1825,4 -4,4"/>
<!-- Node1 -->
<g id="node1" class="node"><title>Node1</title>
<polygon fill="#bfbfbf" stroke="black" points="1227.5,-379.5 1227.5,-409.5 1322.5,-409.5 1322.5,-379.5 1227.5,-379.5"/>
<text text-anchor="start" x="1235.5" y="-397.5" font-family="Helvetica,sans-Serif" font-size="10.00">src/structural/src</text>
<text text-anchor="middle" x="1275" y="-386.5" font-family="Helvetica,sans-Serif" font-size="10.00">/commons/point.h</text>
</g>
<!-- Node2 -->
<g id="node2" class="node"><title>Node2</title>
<g id="a_node2"><a xlink:href="../../dd/d36/graphic_8h.html" target="_top" xlink:title="src/operational/src\l/memento/graphic.h">
<polygon fill="white" stroke="black" points="301.5,-312.5 301.5,-342.5 404.5,-342.5 404.5,-312.5 301.5,-312.5"/>
<text text-anchor="start" x="309.5" y="-330.5" font-family="Helvetica,sans-Serif" font-size="10.00">src/operational/src</text>
<text text-anchor="middle" x="353" y="-319.5" font-family="Helvetica,sans-Serif" font-size="10.00">/memento/graphic.h</text>
</a>
</g>
</g>
<!-- Node1&#45;&gt;Node2 -->
<g id="edge1" class="edge"><title>Node1&#45;&gt;Node2</title>
<path fill="none" stroke="midnightblue" d="M1217.26,-389.429C1049.54,-377.605 564.186,-343.388 404.562,-332.135"/>
<polygon fill="midnightblue" stroke="midnightblue" points="1217.15,-392.93 1227.37,-390.142 1217.64,-385.948 1217.15,-392.93"/>
</g>
<!-- Node12 -->
<g id="node12" class="node"><title>Node12</title>
<g id="a_node12"><a xlink:href="../../d0/dfc/shape__interface_8h.html" target="_top" xlink:title="src/structural/src\l/adapter/shape_interface.h">
<polygon fill="white" stroke="black" points="614.5,-312.5 614.5,-342.5 745.5,-342.5 745.5,-312.5 614.5,-312.5"/>
<text text-anchor="start" x="622.5" y="-330.5" font-family="Helvetica,sans-Serif" font-size="10.00">src/structural/src</text>
<text text-anchor="middle" x="680" y="-319.5" font-family="Helvetica,sans-Serif" font-size="10.00">/adapter/shape_interface.h</text>
</a>
</g>
</g>
<!-- Node1&#45;&gt;Node12 -->
<g id="edge13" class="edge"><title>Node1&#45;&gt;Node12</title>
<path fill="none" stroke="midnightblue" d="M1217.3,-387.196C1106.11,-375.05 862.845,-348.475 745.663,-335.673"/>
<polygon fill="midnightblue" stroke="midnightblue" points="1216.99,-390.684 1227.31,-388.291 1217.75,-383.725 1216.99,-390.684"/>
</g>
<!-- Node18 -->
<g id="node18" class="node"><title>Node18</title>
<g id="a_node18"><a xlink:href="../../d5/d7d/window__interface_8h.html" target="_top" xlink:title="src/structural/src\l/bridge/window_interface.h">
<polygon fill="white" stroke="black" points="1014.5,-312.5 1014.5,-342.5 1145.5,-342.5 1145.5,-312.5 1014.5,-312.5"/>
<text text-anchor="start" x="1022.5" y="-330.5" font-family="Helvetica,sans-Serif" font-size="10.00">src/structural/src</text>
<text text-anchor="middle" x="1080" y="-319.5" font-family="Helvetica,sans-Serif" font-size="10.00">/bridge/window_interface.h</text>
</a>
</g>
</g>
<!-- Node1&#45;&gt;Node18 -->
<g id="edge20" class="edge"><title>Node1&#45;&gt;Node18</title>
<path fill="none" stroke="midnightblue" d="M1223.18,-376.228C1191.64,-365.713 1151.85,-352.451 1122.23,-342.577"/>
<polygon fill="midnightblue" stroke="midnightblue" points="1222.09,-379.554 1232.69,-379.396 1224.31,-372.913 1222.09,-379.554"/>
</g>
<!-- Node26 -->
<g id="node26" class="node"><title>Node26</title>
<g id="a_node26"><a xlink:href="../../d1/dda/graphic__interface_8h.html" target="_top" xlink:title="src/structural/src\l/proxy/graphic_interface.h">
<polygon fill="white" stroke="black" points="1313,-312.5 1313,-342.5 1441,-342.5 1441,-312.5 1313,-312.5"/>
<text text-anchor="start" x="1321" y="-330.5" font-family="Helvetica,sans-Serif" font-size="10.00">src/structural/src</text>
<text text-anchor="middle" x="1377" y="-319.5" font-family="Helvetica,sans-Serif" font-size="10.00">/proxy/graphic_interface.h</text>
</a>
</g>
</g>
<!-- Node1&#45;&gt;Node26 -->
<g id="edge29" class="edge"><title>Node1&#45;&gt;Node26</title>
<path fill="none" stroke="midnightblue" d="M1305.58,-374.015C1321.45,-363.9 1340.48,-351.77 1354.91,-342.577"/>
<polygon fill="midnightblue" stroke="midnightblue" points="1303.68,-371.07 1297.13,-379.396 1307.45,-376.973 1303.68,-371.07"/>
</g>
<!-- Node27 -->
<g id="node27" class="node"><title>Node27</title>
<g id="a_node27"><a xlink:href="../../d5/db2/image_8h.html" target="_top" xlink:title="src/structural/src\l/proxy/image.h">
<polygon fill="white" stroke="black" points="1230,-240 1230,-270 1320,-270 1320,-240 1230,-240"/>
<text text-anchor="start" x="1238" y="-258" font-family="Helvetica,sans-Serif" font-size="10.00">src/structural/src</text>
<text text-anchor="middle" x="1275" y="-247" font-family="Helvetica,sans-Serif" font-size="10.00">/proxy/image.h</text>
</a>
</g>
</g>
<!-- Node1&#45;&gt;Node27 -->
<g id="edge42" class="edge"><title>Node1&#45;&gt;Node27</title>
<path fill="none" stroke="midnightblue" d="M1275,-369.287C1275,-340.607 1275,-293.775 1275,-270.326"/>
<polygon fill="midnightblue" stroke="midnightblue" points="1271.5,-369.303 1275,-379.303 1278.5,-369.303 1271.5,-369.303"/>
</g>
<!-- Node31 -->
<g id="node31" class="node"><title>Node31</title>
<g id="a_node31"><a xlink:href="../../d1/d14/proxy__test_8cc.html" target="_top" xlink:title="src/structural_tests\l/src/proxy/proxy_test.cc">
<polygon fill="white" stroke="black" points="1412,-84 1412,-114 1534,-114 1534,-84 1412,-84"/>
<text text-anchor="start" x="1420" y="-102" font-family="Helvetica,sans-Serif" font-size="10.00">src/structural_tests</text>
<text text-anchor="middle" x="1473" y="-91" font-family="Helvetica,sans-Serif" font-size="10.00">/src/proxy/proxy_test.cc</text>
</a>
</g>
</g>
<!-- Node1&#45;&gt;Node31 -->
<g id="edge44" class="edge"><title>Node1&#45;&gt;Node31</title>
<path fill="none" stroke="midnightblue" d="M1332.62,-383.615C1419.48,-365.089 1579.67,-315.809 1635,-198 1642.94,-181.104 1645.83,-171.203 1635,-156 1612.21,-124.007 1569.85,-110.118 1534.16,-104.17"/>
<polygon fill="midnightblue" stroke="midnightblue" points="1331.75,-380.222 1322.66,-385.673 1333.16,-387.077 1331.75,-380.222"/>
</g>
<!-- Node36 -->
<g id="node36" class="node"><title>Node36</title>
<g id="a_node36"><a xlink:href="../../dd/db2/point__test_8cc.html" target="_top" xlink:title="src/structural_tests\l/src/commons/point_test.cc">
<polygon fill="white" stroke="black" points="1683,-312.5 1683,-342.5 1821,-342.5 1821,-312.5 1683,-312.5"/>
<text text-anchor="start" x="1691" y="-330.5" font-family="Helvetica,sans-Serif" font-size="10.00">src/structural_tests</text>
<text text-anchor="middle" x="1752" y="-319.5" font-family="Helvetica,sans-Serif" font-size="10.00">/src/commons/point_test.cc</text>
</a>
</g>
</g>
<!-- Node1&#45;&gt;Node36 -->
<g id="edge43" class="edge"><title>Node1&#45;&gt;Node36</title>
<path fill="none" stroke="midnightblue" d="M1332.67,-386.941C1409.54,-378.008 1549.74,-361.05 1669,-343 1673.48,-342.321 1678.1,-341.594 1682.75,-340.841"/>
<polygon fill="midnightblue" stroke="midnightblue" points="1332.24,-383.467 1322.71,-388.095 1333.04,-390.421 1332.24,-383.467"/>
</g>
<!-- Node3 -->
<g id="node3" class="node"><title>Node3</title>
<g id="a_node3"><a xlink:href="../../da/d7f/constraint__solver__memento_8h.html" target="_top" xlink:title="src/operational/src\l/memento/constraint\l_solver_memento.h">
<polygon fill="white" stroke="black" points="237,-234.5 237,-275.5 343,-275.5 343,-234.5 237,-234.5"/>
<text text-anchor="start" x="245" y="-263.5" font-family="Helvetica,sans-Serif" font-size="10.00">src/operational/src</text>
<text text-anchor="start" x="245" y="-252.5" font-family="Helvetica,sans-Serif" font-size="10.00">/memento/constraint</text>
<text text-anchor="middle" x="290" y="-241.5" font-family="Helvetica,sans-Serif" font-size="10.00">_solver_memento.h</text>
</a>
</g>
</g>
<!-- Node2&#45;&gt;Node3 -->
<g id="edge2" class="edge"><title>Node2&#45;&gt;Node3</title>
<path fill="none" stroke="midnightblue" d="M333.377,-304.541C325.099,-295.278 315.539,-284.58 307.505,-275.588"/>
<polygon fill="midnightblue" stroke="midnightblue" points="330.978,-307.109 340.251,-312.233 336.197,-302.445 330.978,-307.109"/>
</g>
<!-- Node4 -->
<g id="node4" class="node"><title>Node4</title>
<g id="a_node4"><a xlink:href="../../de/de8/constraint__solver__interface_8h.html" target="_top" xlink:title="src/operational/src\l/memento/constraint\l_solver_interface.h">
<polygon fill="white" stroke="black" points="136,-156.5 136,-197.5 242,-197.5 242,-156.5 136,-156.5"/>
<text text-anchor="start" x="144" y="-185.5" font-family="Helvetica,sans-Serif" font-size="10.00">src/operational/src</text>
<text text-anchor="start" x="144" y="-174.5" font-family="Helvetica,sans-Serif" font-size="10.00">/memento/constraint</text>
<text text-anchor="middle" x="189" y="-163.5" font-family="Helvetica,sans-Serif" font-size="10.00">_solver_interface.h</text>
</a>
</g>
</g>
<!-- Node2&#45;&gt;Node4 -->
<g id="edge11" class="edge"><title>Node2&#45;&gt;Node4</title>
<path fill="none" stroke="midnightblue" d="M291.625,-312.6C269.26,-304.945 245.255,-293.345 228,-276 206.562,-254.45 196.528,-219.641 192.122,-197.83"/>
<polygon fill="midnightblue" stroke="midnightblue" points="290.828,-316.02 301.42,-315.745 292.969,-309.355 290.828,-316.02"/>
</g>
<!-- Node11 -->
<g id="node11" class="node"><title>Node11</title>
<g id="a_node11"><a xlink:href="../../da/d71/graphic_8cc.html" target="_top" xlink:title="src/operational/src\l/memento/graphic.cc">
<polygon fill="white" stroke="black" points="361,-240 361,-270 469,-270 469,-240 361,-240"/>
<text text-anchor="start" x="369" y="-258" font-family="Helvetica,sans-Serif" font-size="10.00">src/operational/src</text>
<text text-anchor="middle" x="415" y="-247" font-family="Helvetica,sans-Serif" font-size="10.00">/memento/graphic.cc</text>
</a>
</g>
</g>
<!-- Node2&#45;&gt;Node11 -->
<g id="edge12" class="edge"><title>Node2&#45;&gt;Node11</title>
<path fill="none" stroke="midnightblue" d="M372.313,-304.539C382.148,-293.356 393.821,-280.083 402.472,-270.246"/>
<polygon fill="midnightblue" stroke="midnightblue" points="369.522,-302.413 365.547,-312.233 374.779,-307.035 369.522,-302.413"/>
</g>
<!-- Node3&#45;&gt;Node4 -->
<g id="edge3" class="edge"><title>Node3&#45;&gt;Node4</title>
<path fill="none" stroke="midnightblue" d="M255.913,-228.35C242.519,-218.272 227.397,-206.893 214.922,-197.506"/>
<polygon fill="midnightblue" stroke="midnightblue" points="253.895,-231.212 263.99,-234.428 258.104,-225.619 253.895,-231.212"/>
</g>
<!-- Node10 -->
<g id="node10" class="node"><title>Node10</title>
<g id="a_node10"><a xlink:href="../../de/df3/constraint__solver__memento_8cc.html" target="_top" xlink:title="src/operational/src\l/memento/constraint\l_solver_memento.cc">
<polygon fill="white" stroke="black" points="260,-156.5 260,-197.5 366,-197.5 366,-156.5 260,-156.5"/>
<text text-anchor="start" x="268" y="-185.5" font-family="Helvetica,sans-Serif" font-size="10.00">src/operational/src</text>
<text text-anchor="start" x="268" y="-174.5" font-family="Helvetica,sans-Serif" font-size="10.00">/memento/constraint</text>
<text text-anchor="middle" x="313" y="-163.5" font-family="Helvetica,sans-Serif" font-size="10.00">_solver_memento.cc</text>
</a>
</g>
</g>
<!-- Node3&#45;&gt;Node10 -->
<g id="edge10" class="edge"><title>Node3&#45;&gt;Node10</title>
<path fill="none" stroke="midnightblue" d="M298.901,-224.59C301.648,-215.511 304.604,-205.742 307.097,-197.506"/>
<polygon fill="midnightblue" stroke="midnightblue" points="295.47,-223.843 295.923,-234.428 302.17,-225.871 295.47,-223.843"/>
</g>
<!-- Node5 -->
<g id="node5" class="node"><title>Node5</title>
<g id="a_node5"><a xlink:href="../../d7/dc2/constraint__solver_8h.html" target="_top" xlink:title="src/operational/src\l/memento/constraint\l_solver.h">
<polygon fill="white" stroke="black" points="65,-78.5 65,-119.5 171,-119.5 171,-78.5 65,-78.5"/>
<text text-anchor="start" x="73" y="-107.5" font-family="Helvetica,sans-Serif" font-size="10.00">src/operational/src</text>
<text text-anchor="start" x="73" y="-96.5" font-family="Helvetica,sans-Serif" font-size="10.00">/memento/constraint</text>
<text text-anchor="middle" x="118" y="-85.5" font-family="Helvetica,sans-Serif" font-size="10.00">_solver.h</text>
</a>
</g>
</g>
<!-- Node4&#45;&gt;Node5 -->
<g id="edge4" class="edge"><title>Node4&#45;&gt;Node5</title>
<path fill="none" stroke="midnightblue" d="M163.698,-148.916C154.624,-139.203 144.578,-128.45 136.222,-119.506"/>
<polygon fill="midnightblue" stroke="midnightblue" points="161.332,-151.51 170.716,-156.428 166.447,-146.731 161.332,-151.51"/>
</g>
<!-- Node8 -->
<g id="node8" class="node"><title>Node8</title>
<g id="a_node8"><a xlink:href="../../d8/dc6/move__command_8h.html" target="_top" xlink:title="src/operational/src\l/memento/move_command.h">
<polygon fill="white" stroke="black" points="189,-84 189,-114 331,-114 331,-84 189,-84"/>
<text text-anchor="start" x="197" y="-102" font-family="Helvetica,sans-Serif" font-size="10.00">src/operational/src</text>
<text text-anchor="middle" x="260" y="-91" font-family="Helvetica,sans-Serif" font-size="10.00">/memento/move_command.h</text>
</a>
</g>
</g>
<!-- Node4&#45;&gt;Node8 -->
<g id="edge7" class="edge"><title>Node4&#45;&gt;Node8</title>
<path fill="none" stroke="midnightblue" d="M214.233,-148.99C225.196,-137.255 237.589,-123.99 246.711,-114.225"/>
<polygon fill="midnightblue" stroke="midnightblue" points="211.553,-146.731 207.284,-156.428 216.668,-151.51 211.553,-146.731"/>
</g>
<!-- Node6 -->
<g id="node6" class="node"><title>Node6</title>
<g id="a_node6"><a xlink:href="../../dc/d97/constraint__solver_8cc.html" target="_top" xlink:title="src/operational/src\l/memento/constraint\l_solver.cc">
<polygon fill="white" stroke="black" points="0,-0.5 0,-41.5 106,-41.5 106,-0.5 0,-0.5"/>
<text text-anchor="start" x="8" y="-29.5" font-family="Helvetica,sans-Serif" font-size="10.00">src/operational/src</text>
<text text-anchor="start" x="8" y="-18.5" font-family="Helvetica,sans-Serif" font-size="10.00">/memento/constraint</text>
<text text-anchor="middle" x="53" y="-7.5" font-family="Helvetica,sans-Serif" font-size="10.00">_solver.cc</text>
</a>
</g>
</g>
<!-- Node5&#45;&gt;Node6 -->
<g id="edge5" class="edge"><title>Node5&#45;&gt;Node6</title>
<path fill="none" stroke="midnightblue" d="M94.5889,-70.627C86.3468,-60.9901 77.2567,-50.3617 69.6824,-41.5056"/>
<polygon fill="midnightblue" stroke="midnightblue" points="92.1013,-73.1034 101.261,-78.4281 97.4211,-68.5536 92.1013,-73.1034"/>
</g>
<!-- Node7 -->
<g id="node7" class="node"><title>Node7</title>
<g id="a_node7"><a xlink:href="../../dc/d8a/memento__test_8cc.html" target="_top" xlink:title="src/operational_tests\l/src/memento/memento\l_test.cc">
<polygon fill="white" stroke="black" points="124,-0.5 124,-41.5 244,-41.5 244,-0.5 124,-0.5"/>
<text text-anchor="start" x="132" y="-29.5" font-family="Helvetica,sans-Serif" font-size="10.00">src/operational_tests</text>
<text text-anchor="start" x="132" y="-18.5" font-family="Helvetica,sans-Serif" font-size="10.00">/src/memento/memento</text>
<text text-anchor="middle" x="184" y="-7.5" font-family="Helvetica,sans-Serif" font-size="10.00">_test.cc</text>
</a>
</g>
</g>
<!-- Node5&#45;&gt;Node7 -->
<g id="edge6" class="edge"><title>Node5&#45;&gt;Node7</title>
<path fill="none" stroke="midnightblue" d="M141.771,-70.627C150.14,-60.9901 159.37,-50.3617 167.061,-41.5056"/>
<polygon fill="midnightblue" stroke="midnightblue" points="138.911,-68.5828 134.997,-78.4281 144.196,-73.1727 138.911,-68.5828"/>
</g>
<!-- Node8&#45;&gt;Node7 -->
<g id="edge9" class="edge"><title>Node8&#45;&gt;Node7</title>
<path fill="none" stroke="midnightblue" d="M238.547,-76.547C227.596,-65.5963 214.367,-52.3674 203.68,-41.68"/>
<polygon fill="midnightblue" stroke="midnightblue" points="236.159,-79.1088 245.705,-83.705 241.109,-74.159 236.159,-79.1088"/>
</g>
<!-- Node9 -->
<g id="node9" class="node"><title>Node9</title>
<g id="a_node9"><a xlink:href="../../d0/df9/move__command_8cc.html" target="_top" xlink:title="src/operational/src\l/memento/move_command.cc">
<polygon fill="white" stroke="black" points="262.5,-6 262.5,-36 409.5,-36 409.5,-6 262.5,-6"/>
<text text-anchor="start" x="270.5" y="-24" font-family="Helvetica,sans-Serif" font-size="10.00">src/operational/src</text>
<text text-anchor="middle" x="336" y="-13" font-family="Helvetica,sans-Serif" font-size="10.00">/memento/move_command.cc</text>
</a>
</g>
</g>
<!-- Node8&#45;&gt;Node9 -->
<g id="edge8" class="edge"><title>Node8&#45;&gt;Node9</title>
<path fill="none" stroke="midnightblue" d="M281.467,-76.5332C294.368,-63.6316 310.428,-47.5716 321.769,-36.2309"/>
<polygon fill="midnightblue" stroke="midnightblue" points="278.891,-74.159 274.295,-83.705 283.841,-79.1088 278.891,-74.159"/>
</g>
<!-- Node13 -->
<g id="node13" class="node"><title>Node13</title>
<g id="a_node13"><a xlink:href="../../d4/d4c/text__shape__class__adapter_8h.html" target="_top" xlink:title="src/structural/src\l/adapter/text_shape\l_class_adapter.h">
<polygon fill="white" stroke="black" points="506.5,-234.5 506.5,-275.5 609.5,-275.5 609.5,-234.5 506.5,-234.5"/>
<text text-anchor="start" x="514.5" y="-263.5" font-family="Helvetica,sans-Serif" font-size="10.00">src/structural/src</text>
<text text-anchor="start" x="514.5" y="-252.5" font-family="Helvetica,sans-Serif" font-size="10.00">/adapter/text_shape</text>
<text text-anchor="middle" x="558" y="-241.5" font-family="Helvetica,sans-Serif" font-size="10.00">_class_adapter.h</text>
</a>
</g>
</g>
<!-- Node12&#45;&gt;Node13 -->
<g id="edge14" class="edge"><title>Node12&#45;&gt;Node13</title>
<path fill="none" stroke="midnightblue" d="M646.604,-307.201C629.653,-297.406 609.099,-285.528 592.056,-275.68"/>
<polygon fill="midnightblue" stroke="midnightblue" points="645.195,-310.43 655.605,-312.403 648.698,-304.369 645.195,-310.43"/>
</g>
<!-- Node16 -->
<g id="node16" class="node"><title>Node16</title>
<g id="a_node16"><a xlink:href="../../d2/d17/text__shape__object__adapter_8h.html" target="_top" xlink:title="src/structural/src\l/adapter/text_shape\l_object_adapter.h">
<polygon fill="white" stroke="black" points="628.5,-234.5 628.5,-275.5 731.5,-275.5 731.5,-234.5 628.5,-234.5"/>
<text text-anchor="start" x="636.5" y="-263.5" font-family="Helvetica,sans-Serif" font-size="10.00">src/structural/src</text>
<text text-anchor="start" x="636.5" y="-252.5" font-family="Helvetica,sans-Serif" font-size="10.00">/adapter/text_shape</text>
<text text-anchor="middle" x="680" y="-241.5" font-family="Helvetica,sans-Serif" font-size="10.00">_object_adapter.h</text>
</a>
</g>
</g>
<!-- Node12&#45;&gt;Node16 -->
<g id="edge17" class="edge"><title>Node12&#45;&gt;Node16</title>
<path fill="none" stroke="midnightblue" d="M680,-301.982C680,-293.347 680,-283.762 680,-275.588"/>
<polygon fill="midnightblue" stroke="midnightblue" points="676.5,-302.233 680,-312.233 683.5,-302.233 676.5,-302.233"/>
</g>
<!-- Node14 -->
<g id="node14" class="node"><title>Node14</title>
<g id="a_node14"><a xlink:href="../../d8/d13/text__shape__class__adapter_8cc.html" target="_top" xlink:title="src/structural/src\l/adapter/text_shape\l_class_adapter.cc">
<polygon fill="white" stroke="black" points="384.5,-156.5 384.5,-197.5 487.5,-197.5 487.5,-156.5 384.5,-156.5"/>
<text text-anchor="start" x="392.5" y="-185.5" font-family="Helvetica,sans-Serif" font-size="10.00">src/structural/src</text>
<text text-anchor="start" x="392.5" y="-174.5" font-family="Helvetica,sans-Serif" font-size="10.00">/adapter/text_shape</text>
<text text-anchor="middle" x="436" y="-163.5" font-family="Helvetica,sans-Serif" font-size="10.00">_class_adapter.cc</text>
</a>
</g>
</g>
<!-- Node13&#45;&gt;Node14 -->
<g id="edge15" class="edge"><title>Node13&#45;&gt;Node14</title>
<path fill="none" stroke="midnightblue" d="M517.739,-228.919C501.337,-218.702 482.665,-207.07 467.312,-197.506"/>
<polygon fill="midnightblue" stroke="midnightblue" points="516.244,-232.111 526.582,-234.428 519.945,-226.17 516.244,-232.111"/>
</g>
<!-- Node15 -->
<g id="node15" class="node"><title>Node15</title>
<g id="a_node15"><a xlink:href="../../d9/d38/adapter__test_8cc.html" target="_top" xlink:title="src/structural_tests\l/src/adapter/adapter\l_test.cc">
<polygon fill="white" stroke="black" points="506,-156.5 506,-197.5 610,-197.5 610,-156.5 506,-156.5"/>
<text text-anchor="start" x="514" y="-185.5" font-family="Helvetica,sans-Serif" font-size="10.00">src/structural_tests</text>
<text text-anchor="start" x="514" y="-174.5" font-family="Helvetica,sans-Serif" font-size="10.00">/src/adapter/adapter</text>
<text text-anchor="middle" x="558" y="-163.5" font-family="Helvetica,sans-Serif" font-size="10.00">_test.cc</text>
</a>
</g>
</g>
<!-- Node13&#45;&gt;Node15 -->
<g id="edge16" class="edge"><title>Node13&#45;&gt;Node15</title>
<path fill="none" stroke="midnightblue" d="M558,-224.297C558,-215.301 558,-205.653 558,-197.506"/>
<polygon fill="midnightblue" stroke="midnightblue" points="554.5,-224.428 558,-234.428 561.5,-224.428 554.5,-224.428"/>
</g>
<!-- Node16&#45;&gt;Node15 -->
<g id="edge19" class="edge"><title>Node16&#45;&gt;Node15</title>
<path fill="none" stroke="midnightblue" d="M639.739,-228.919C623.337,-218.702 604.665,-207.07 589.312,-197.506"/>
<polygon fill="midnightblue" stroke="midnightblue" points="638.244,-232.111 648.582,-234.428 641.945,-226.17 638.244,-232.111"/>
</g>
<!-- Node17 -->
<g id="node17" class="node"><title>Node17</title>
<g id="a_node17"><a xlink:href="../../d7/d61/text__shape__object__adapter_8cc.html" target="_top" xlink:title="src/structural/src\l/adapter/text_shape\l_object_adapter.cc">
<polygon fill="white" stroke="black" points="628.5,-156.5 628.5,-197.5 731.5,-197.5 731.5,-156.5 628.5,-156.5"/>
<text text-anchor="start" x="636.5" y="-185.5" font-family="Helvetica,sans-Serif" font-size="10.00">src/structural/src</text>
<text text-anchor="start" x="636.5" y="-174.5" font-family="Helvetica,sans-Serif" font-size="10.00">/adapter/text_shape</text>
<text text-anchor="middle" x="680" y="-163.5" font-family="Helvetica,sans-Serif" font-size="10.00">_object_adapter.cc</text>
</a>
</g>
</g>
<!-- Node16&#45;&gt;Node17 -->
<g id="edge18" class="edge"><title>Node16&#45;&gt;Node17</title>
<path fill="none" stroke="midnightblue" d="M680,-224.297C680,-215.301 680,-205.653 680,-197.506"/>
<polygon fill="midnightblue" stroke="midnightblue" points="676.5,-224.428 680,-234.428 683.5,-224.428 676.5,-224.428"/>
</g>
<!-- Node19 -->
<g id="node19" class="node"><title>Node19</title>
<g id="a_node19"><a xlink:href="../../db/d82/bridge_2window_8h.html" target="_top" xlink:title="src/structural/src\l/bridge/window.h">
<polygon fill="white" stroke="black" points="934,-240 934,-270 1024,-270 1024,-240 934,-240"/>
<text text-anchor="start" x="942" y="-258" font-family="Helvetica,sans-Serif" font-size="10.00">src/structural/src</text>
<text text-anchor="middle" x="979" y="-247" font-family="Helvetica,sans-Serif" font-size="10.00">/bridge/window.h</text>
</a>
</g>
</g>
<!-- Node18&#45;&gt;Node19 -->
<g id="edge21" class="edge"><title>Node18&#45;&gt;Node19</title>
<path fill="none" stroke="midnightblue" d="M1051.25,-306.431C1034.57,-294.792 1013.99,-280.424 999.064,-270.005"/>
<polygon fill="midnightblue" stroke="midnightblue" points="1049.36,-309.379 1059.56,-312.233 1053.36,-303.64 1049.36,-309.379"/>
</g>
<!-- Node20 -->
<g id="node20" class="node"><title>Node20</title>
<g id="a_node20"><a xlink:href="../../d8/d32/application__window_8h.html" target="_top" xlink:title="src/structural/src\l/bridge/application\l_window.h">
<polygon fill="white" stroke="black" points="749.5,-156.5 749.5,-197.5 844.5,-197.5 844.5,-156.5 749.5,-156.5"/>
<text text-anchor="start" x="757.5" y="-185.5" font-family="Helvetica,sans-Serif" font-size="10.00">src/structural/src</text>
<text text-anchor="start" x="757.5" y="-174.5" font-family="Helvetica,sans-Serif" font-size="10.00">/bridge/application</text>
<text text-anchor="middle" x="797" y="-163.5" font-family="Helvetica,sans-Serif" font-size="10.00">_window.h</text>
</a>
</g>
</g>
<!-- Node19&#45;&gt;Node20 -->
<g id="edge22" class="edge"><title>Node19&#45;&gt;Node20</title>
<path fill="none" stroke="midnightblue" d="M935.79,-235.956C908.166,-224.421 872.338,-209.46 844.004,-197.628"/>
<polygon fill="midnightblue" stroke="midnightblue" points="934.617,-239.259 945.194,-239.883 937.315,-232.8 934.617,-239.259"/>
</g>
<!-- Node23 -->
<g id="node23" class="node"><title>Node23</title>
<g id="a_node23"><a xlink:href="../../dd/ddd/icon__window_8h.html" target="_top" xlink:title="src/structural/src\l/bridge/icon_window.h">
<polygon fill="white" stroke="black" points="863,-162 863,-192 975,-192 975,-162 863,-162"/>
<text text-anchor="start" x="871" y="-180" font-family="Helvetica,sans-Serif" font-size="10.00">src/structural/src</text>
<text text-anchor="middle" x="919" y="-169" font-family="Helvetica,sans-Serif" font-size="10.00">/bridge/icon_window.h</text>
</a>
</g>
</g>
<!-- Node19&#45;&gt;Node23 -->
<g id="edge25" class="edge"><title>Node19&#45;&gt;Node23</title>
<path fill="none" stroke="midnightblue" d="M961.479,-231.807C951.394,-219.033 939.021,-203.36 930.235,-192.231"/>
<polygon fill="midnightblue" stroke="midnightblue" points="958.771,-234.025 967.714,-239.705 964.265,-229.687 958.771,-234.025"/>
</g>
<!-- Node25 -->
<g id="node25" class="node"><title>Node25</title>
<g id="a_node25"><a xlink:href="../../d7/d60/window_8cc.html" target="_top" xlink:title="src/structural/src\l/bridge/window.cc">
<polygon fill="white" stroke="black" points="993,-162 993,-192 1087,-192 1087,-162 993,-162"/>
<text text-anchor="start" x="1001" y="-180" font-family="Helvetica,sans-Serif" font-size="10.00">src/structural/src</text>
<text text-anchor="middle" x="1040" y="-169" font-family="Helvetica,sans-Serif" font-size="10.00">/bridge/window.cc</text>
</a>
</g>
</g>
<!-- Node19&#45;&gt;Node25 -->
<g id="edge28" class="edge"><title>Node19&#45;&gt;Node25</title>
<path fill="none" stroke="midnightblue" d="M996.813,-231.807C1007.07,-219.033 1019.65,-203.36 1028.58,-192.231"/>
<polygon fill="midnightblue" stroke="midnightblue" points="994.004,-229.715 990.474,-239.705 999.463,-234.097 994.004,-229.715"/>
</g>
<!-- Node21 -->
<g id="node21" class="node"><title>Node21</title>
<g id="a_node21"><a xlink:href="../../d7/de3/application__window_8cc.html" target="_top" xlink:title="src/structural/src\l/bridge/application\l_window.cc">
<polygon fill="white" stroke="black" points="666.5,-78.5 666.5,-119.5 761.5,-119.5 761.5,-78.5 666.5,-78.5"/>
<text text-anchor="start" x="674.5" y="-107.5" font-family="Helvetica,sans-Serif" font-size="10.00">src/structural/src</text>
<text text-anchor="start" x="674.5" y="-96.5" font-family="Helvetica,sans-Serif" font-size="10.00">/bridge/application</text>
<text text-anchor="middle" x="714" y="-85.5" font-family="Helvetica,sans-Serif" font-size="10.00">_window.cc</text>
</a>
</g>
</g>
<!-- Node20&#45;&gt;Node21 -->
<g id="edge23" class="edge"><title>Node20&#45;&gt;Node21</title>
<path fill="none" stroke="midnightblue" d="M768.05,-149.492C757.28,-139.629 745.264,-128.627 735.302,-119.506"/>
<polygon fill="midnightblue" stroke="midnightblue" points="765.887,-152.256 775.625,-156.428 770.614,-147.094 765.887,-152.256"/>
</g>
<!-- Node22 -->
<g id="node22" class="node"><title>Node22</title>
<g id="a_node22"><a xlink:href="../../d5/de6/bridge__test_8cc.html" target="_top" xlink:title="src/structural_tests\l/src/bridge/bridge_test.cc">
<polygon fill="white" stroke="black" points="779.5,-84 779.5,-114 906.5,-114 906.5,-84 779.5,-84"/>
<text text-anchor="start" x="787.5" y="-102" font-family="Helvetica,sans-Serif" font-size="10.00">src/structural_tests</text>
<text text-anchor="middle" x="843" y="-91" font-family="Helvetica,sans-Serif" font-size="10.00">/src/bridge/bridge_test.cc</text>
</a>
</g>
</g>
<!-- Node20&#45;&gt;Node22 -->
<g id="edge24" class="edge"><title>Node20&#45;&gt;Node22</title>
<path fill="none" stroke="midnightblue" d="M814.164,-147.642C821.06,-136.249 828.705,-123.618 834.39,-114.225"/>
<polygon fill="midnightblue" stroke="midnightblue" points="811.03,-146.061 808.846,-156.428 817.018,-149.685 811.03,-146.061"/>
</g>
<!-- Node23&#45;&gt;Node22 -->
<g id="edge27" class="edge"><title>Node23&#45;&gt;Node22</title>
<path fill="none" stroke="midnightblue" d="M897.533,-154.533C884.632,-141.632 868.572,-125.572 857.231,-114.231"/>
<polygon fill="midnightblue" stroke="midnightblue" points="895.159,-157.109 904.705,-161.705 900.109,-152.159 895.159,-157.109"/>
</g>
<!-- Node24 -->
<g id="node24" class="node"><title>Node24</title>
<g id="a_node24"><a xlink:href="../../d3/d27/icon__window_8cc.html" target="_top" xlink:title="src/structural/src\l/bridge/icon_window.cc">
<polygon fill="white" stroke="black" points="924.5,-84 924.5,-114 1041.5,-114 1041.5,-84 924.5,-84"/>
<text text-anchor="start" x="932.5" y="-102" font-family="Helvetica,sans-Serif" font-size="10.00">src/structural/src</text>
<text text-anchor="middle" x="983" y="-91" font-family="Helvetica,sans-Serif" font-size="10.00">/bridge/icon_window.cc</text>
</a>
</g>
</g>
<!-- Node23&#45;&gt;Node24 -->
<g id="edge26" class="edge"><title>Node23&#45;&gt;Node24</title>
<path fill="none" stroke="midnightblue" d="M937.689,-153.807C948.446,-141.033 961.645,-125.36 971.016,-114.231"/>
<polygon fill="midnightblue" stroke="midnightblue" points="934.802,-151.801 931.038,-161.705 940.156,-156.31 934.802,-151.801"/>
</g>
<!-- Node26&#45;&gt;Node27 -->
<g id="edge30" class="edge"><title>Node26&#45;&gt;Node27</title>
<path fill="none" stroke="midnightblue" d="M1347.96,-306.431C1331.12,-294.792 1310.34,-280.424 1295.26,-270.005"/>
<polygon fill="midnightblue" stroke="midnightblue" points="1346.14,-309.427 1356.36,-312.233 1350.12,-303.668 1346.14,-309.427"/>
</g>
<!-- Node29 -->
<g id="node29" class="node"><title>Node29</title>
<g id="a_node29"><a xlink:href="../../dc/dca/image__proxy_8h.html" target="_top" xlink:title="src/structural/src\l/proxy/image_proxy.h">
<polygon fill="white" stroke="black" points="1335,-162 1335,-192 1445,-192 1445,-162 1335,-162"/>
<text text-anchor="start" x="1343" y="-180" font-family="Helvetica,sans-Serif" font-size="10.00">src/structural/src</text>
<text text-anchor="middle" x="1390" y="-169" font-family="Helvetica,sans-Serif" font-size="10.00">/proxy/image_proxy.h</text>
</a>
</g>
</g>
<!-- Node26&#45;&gt;Node29 -->
<g id="edge38" class="edge"><title>Node26&#45;&gt;Node29</title>
<path fill="none" stroke="midnightblue" d="M1379.13,-302.224C1381.86,-271.028 1386.51,-217.867 1388.74,-192.414"/>
<polygon fill="midnightblue" stroke="midnightblue" points="1375.63,-301.994 1378.25,-312.261 1382.61,-302.605 1375.63,-301.994"/>
</g>
<!-- Node34 -->
<g id="node34" class="node"><title>Node34</title>
<g id="a_node34"><a xlink:href="../../d9/d4b/text__document_8h.html" target="_top" xlink:title="src/structural/src\l/proxy/text_document.h">
<polygon fill="white" stroke="black" points="1413.5,-240 1413.5,-270 1532.5,-270 1532.5,-240 1413.5,-240"/>
<text text-anchor="start" x="1421.5" y="-258" font-family="Helvetica,sans-Serif" font-size="10.00">src/structural/src</text>
<text text-anchor="middle" x="1473" y="-247" font-family="Helvetica,sans-Serif" font-size="10.00">/proxy/text_document.h</text>
</a>
</g>
</g>
<!-- Node26&#45;&gt;Node34 -->
<g id="edge39" class="edge"><title>Node26&#45;&gt;Node34</title>
<path fill="none" stroke="midnightblue" d="M1404.77,-306.11C1420.54,-294.529 1439.87,-280.328 1453.93,-270.005"/>
<polygon fill="midnightblue" stroke="midnightblue" points="1402.42,-303.493 1396.43,-312.233 1406.56,-309.135 1402.42,-303.493"/>
</g>
<!-- Node28 -->
<g id="node28" class="node"><title>Node28</title>
<g id="a_node28"><a xlink:href="../../db/d4d/image_8cc.html" target="_top" xlink:title="src/structural/src\l/proxy/image.cc">
<polygon fill="white" stroke="black" points="1227,-162 1227,-192 1317,-192 1317,-162 1227,-162"/>
<text text-anchor="start" x="1235" y="-180" font-family="Helvetica,sans-Serif" font-size="10.00">src/structural/src</text>
<text text-anchor="middle" x="1272" y="-169" font-family="Helvetica,sans-Serif" font-size="10.00">/proxy/image.cc</text>
</a>
</g>
</g>
<!-- Node27&#45;&gt;Node28 -->
<g id="edge31" class="edge"><title>Node27&#45;&gt;Node28</title>
<path fill="none" stroke="midnightblue" d="M1274.04,-229.59C1273.55,-217.257 1272.98,-202.724 1272.56,-192.231"/>
<polygon fill="midnightblue" stroke="midnightblue" points="1270.54,-229.851 1274.44,-239.705 1277.54,-229.575 1270.54,-229.851"/>
</g>
<!-- Node27&#45;&gt;Node29 -->
<g id="edge32" class="edge"><title>Node27&#45;&gt;Node29</title>
<path fill="none" stroke="midnightblue" d="M1304.83,-234.289C1324.87,-221.046 1350.79,-203.91 1368.75,-192.041"/>
<polygon fill="midnightblue" stroke="midnightblue" points="1302.77,-231.45 1296.36,-239.883 1306.63,-237.29 1302.77,-231.45"/>
</g>
<!-- Node32 -->
<g id="node32" class="node"><title>Node32</title>
<g id="a_node32"><a xlink:href="../../d8/dbb/virtual__image__proxy_8h.html" target="_top" xlink:title="src/structural/src\l/proxy/virtual_image\l_proxy.h">
<polygon fill="white" stroke="black" points="1105.5,-156.5 1105.5,-197.5 1208.5,-197.5 1208.5,-156.5 1105.5,-156.5"/>
<text text-anchor="start" x="1113.5" y="-185.5" font-family="Helvetica,sans-Serif" font-size="10.00">src/structural/src</text>
<text text-anchor="start" x="1113.5" y="-174.5" font-family="Helvetica,sans-Serif" font-size="10.00">/proxy/virtual_image</text>
<text text-anchor="middle" x="1157" y="-163.5" font-family="Helvetica,sans-Serif" font-size="10.00">_proxy.h</text>
</a>
</g>
</g>
<!-- Node27&#45;&gt;Node32 -->
<g id="edge35" class="edge"><title>Node27&#45;&gt;Node32</title>
<path fill="none" stroke="midnightblue" d="M1244.4,-234.292C1226.96,-223.056 1205.16,-209.018 1187.7,-197.771"/>
<polygon fill="midnightblue" stroke="midnightblue" points="1242.78,-237.411 1253.08,-239.883 1246.57,-231.526 1242.78,-237.411"/>
</g>
<!-- Node30 -->
<g id="node30" class="node"><title>Node30</title>
<g id="a_node30"><a xlink:href="../../dd/d1a/image__proxy_8cc.html" target="_top" xlink:title="src/structural/src\l/proxy/image_proxy.cc">
<polygon fill="white" stroke="black" points="1278,-84 1278,-114 1394,-114 1394,-84 1278,-84"/>
<text text-anchor="start" x="1286" y="-102" font-family="Helvetica,sans-Serif" font-size="10.00">src/structural/src</text>
<text text-anchor="middle" x="1336" y="-91" font-family="Helvetica,sans-Serif" font-size="10.00">/proxy/image_proxy.cc</text>
</a>
</g>
</g>
<!-- Node29&#45;&gt;Node30 -->
<g id="edge33" class="edge"><title>Node29&#45;&gt;Node30</title>
<path fill="none" stroke="midnightblue" d="M1373.97,-153.441C1364.94,-140.735 1353.94,-125.254 1346.11,-114.231"/>
<polygon fill="midnightblue" stroke="midnightblue" points="1371.2,-155.58 1379.84,-161.705 1376.9,-151.526 1371.2,-155.58"/>
</g>
<!-- Node29&#45;&gt;Node31 -->
<g id="edge34" class="edge"><title>Node29&#45;&gt;Node31</title>
<path fill="none" stroke="midnightblue" d="M1413.05,-154.894C1427.21,-141.932 1444.96,-125.678 1457.46,-114.231"/>
<polygon fill="midnightblue" stroke="midnightblue" points="1410.62,-152.37 1405.61,-161.705 1415.35,-157.533 1410.62,-152.37"/>
</g>
<!-- Node32&#45;&gt;Node31 -->
<g id="edge37" class="edge"><title>Node32&#45;&gt;Node31</title>
<path fill="none" stroke="midnightblue" d="M1218.56,-156.019C1300.82,-135.22 1324.57,-138.8 1403,-120 1410.5,-118.203 1418.4,-116.127 1426.08,-114.006"/>
<polygon fill="midnightblue" stroke="midnightblue" points="1217.6,-152.653 1208.78,-158.535 1219.34,-159.432 1217.6,-152.653"/>
</g>
<!-- Node33 -->
<g id="node33" class="node"><title>Node33</title>
<g id="a_node33"><a xlink:href="../../d8/d56/virtual__image__proxy_8cc.html" target="_top" xlink:title="src/structural/src\l/proxy/virtual_image\l_proxy.cc">
<polygon fill="white" stroke="black" points="1105.5,-78.5 1105.5,-119.5 1208.5,-119.5 1208.5,-78.5 1105.5,-78.5"/>
<text text-anchor="start" x="1113.5" y="-107.5" font-family="Helvetica,sans-Serif" font-size="10.00">src/structural/src</text>
<text text-anchor="start" x="1113.5" y="-96.5" font-family="Helvetica,sans-Serif" font-size="10.00">/proxy/virtual_image</text>
<text text-anchor="middle" x="1157" y="-85.5" font-family="Helvetica,sans-Serif" font-size="10.00">_proxy.cc</text>
</a>
</g>
</g>
<!-- Node32&#45;&gt;Node33 -->
<g id="edge36" class="edge"><title>Node32&#45;&gt;Node33</title>
<path fill="none" stroke="midnightblue" d="M1157,-146.297C1157,-137.301 1157,-127.653 1157,-119.506"/>
<polygon fill="midnightblue" stroke="midnightblue" points="1153.5,-146.428 1157,-156.428 1160.5,-146.428 1153.5,-146.428"/>
</g>
<!-- Node34&#45;&gt;Node31 -->
<g id="edge41" class="edge"><title>Node34&#45;&gt;Node31</title>
<path fill="none" stroke="midnightblue" d="M1473,-229.764C1473,-197.237 1473,-140.509 1473,-114.178"/>
<polygon fill="midnightblue" stroke="midnightblue" points="1469.5,-229.788 1473,-239.788 1476.5,-229.788 1469.5,-229.788"/>
</g>
<!-- Node35 -->
<g id="node35" class="node"><title>Node35</title>
<g id="a_node35"><a xlink:href="../../dd/d9a/text__document_8cc.html" target="_top" xlink:title="src/structural/src\l/proxy/text_document.cc">
<polygon fill="white" stroke="black" points="1501.5,-162 1501.5,-192 1626.5,-192 1626.5,-162 1501.5,-162"/>
<text text-anchor="start" x="1509.5" y="-180" font-family="Helvetica,sans-Serif" font-size="10.00">src/structural/src</text>
<text text-anchor="middle" x="1564" y="-169" font-family="Helvetica,sans-Serif" font-size="10.00">/proxy/text_document.cc</text>
</a>
</g>
</g>
<!-- Node34&#45;&gt;Node35 -->
<g id="edge40" class="edge"><title>Node34&#45;&gt;Node35</title>
<path fill="none" stroke="midnightblue" d="M1497.84,-233.253C1513.43,-220.234 1533.13,-203.784 1546.96,-192.231"/>
<polygon fill="midnightblue" stroke="midnightblue" points="1495.55,-230.608 1490.12,-239.705 1500.04,-235.981 1495.55,-230.608"/>
</g>
</g>
</svg>
        <g id="navigator" transform="translate(0 0)" fill="#404254">
                <rect fill="#f2f5e9" fill-opacity="0.5" stroke="#606060" stroke-width=".5" x="0" y="0" width="60" height="60"/>
                <use id="zoomplus" xlink:href="#zoomPlus" x="17" y="9" onmousedown="handleZoom(evt,'in')"/>
                <use id="zoomminus" xlink:href="#zoomMin" x="42" y="9" onmousedown="handleZoom(evt,'out')"/>
                <use id="reset" xlink:href="#resetDef" x="30" y="36" onmousedown="handleReset()"/>
                <g id="arrowUp" xlink:href="#dirArrow" transform="translate(30 24)" onmousedown="handlePan(0,-1)">
                  <use xlink:href="#rim" fill="#404040">
                        <set attributeName="fill" to="#808080" begin="arrowUp.mouseover" end="arrowUp.mouseout"/>
                  </use>
                  <path fill="none" stroke="white" stroke-width="1.5" d="M0,-3.0v7 M-2.5,-0.5L0,-3.0L2.5,-0.5"/>
                </g>
                <g id="arrowRight" xlink:href="#dirArrow" transform="rotate(90) translate(36 -43)" onmousedown="handlePan(1,0)">
                  <use xlink:href="#rim" fill="#404040">
                        <set attributeName="fill" to="#808080" begin="arrowRight.mouseover" end="arrowRight.mouseout"/>
                  </use>
                  <path fill="none" stroke="white" stroke-width="1.5" d="M0,-3.0v7 M-2.5,-0.5L0,-3.0L2.5,-0.5"/>
                </g>
                <g id="arrowDown" xlink:href="#dirArrow" transform="rotate(180) translate(-30 -48)" onmousedown="handlePan(0,1)">
                  <use xlink:href="#rim" fill="#404040">
                        <set attributeName="fill" to="#808080" begin="arrowDown.mouseover" end="arrowDown.mouseout"/>
                  </use>
                  <path fill="none" stroke="white" stroke-width="1.5" d="M0,-3.0v7 M-2.5,-0.5L0,-3.0L2.5,-0.5"/>
                </g>
                <g id="arrowLeft" xlink:href="#dirArrow" transform="rotate(270) translate(-36 17)" onmousedown="handlePan(-1,0)">
                  <use xlink:href="#rim" fill="#404040">
                        <set attributeName="fill" to="#808080" begin="arrowLeft.mouseover" end="arrowLeft.mouseout"/>
                  </use>
                  <path fill="none" stroke="white" stroke-width="1.5" d="M0,-3.0v7 M-2.5,-0.5L0,-3.0L2.5,-0.5"/>
                </g>
        </g>
        <svg viewBox="0 0 15 15" width="100%" height="30px" preserveAspectRatio="xMaxYMin meet">
         <g id="arrow_out" transform="scale(0.3 0.3)">
          <a xlink:href="point_8h__dep__incl_org.svg" target="_base">
           <rect id="button" ry="5" rx="5" y="6" x="6" height="38" width="38"
                fill="#f2f5e9" fill-opacity="0.5" stroke="#606060" stroke-width="1.0"/>
           <path id="arrow"
             d="M 11.500037,31.436501 C 11.940474,20.09759 22.043105,11.32322 32.158766,21.979434 L 37.068811,17.246167 C 37.068811,17.246167 37.088388,32 37.088388,32 L 22.160133,31.978069 C 22.160133,31.978069 26.997745,27.140456 26.997745,27.140456 C 18.528582,18.264221 13.291696,25.230495 11.500037,31.436501 z"
             style="fill:#404040;"/>
          </a>
         </g>
        </svg>
</svg>
