<?xml version="1.0" encoding="UTF-8" standalone="no"?>
<!DOCTYPE svg PUBLIC "-//W3C//DTD SVG 1.1//EN"
 "http://www.w3.org/Graphics/SVG/1.1/DTD/svg11.dtd">
<!-- Generated by graphviz version 2.38.0 (20140413.2041)
 -->
<!-- Title: structural::decorator::FileStream Pages: 1 -->
<svg width="114pt" height="259pt"
 viewBox="0.00 0.00 114.00 259.00" xmlns="http://www.w3.org/2000/svg" xmlns:xlink="http://www.w3.org/1999/xlink">
<g id="graph0" class="graph" transform="scale(1 1) rotate(0) translate(4 255)">
<title>structural::decorator::FileStream</title>
<polygon fill="white" stroke="none" points="-4,4 -4,-255 110,-255 110,4 -4,4"/>
<!-- Node1 -->
<g id="node1" class="node"><title>Node1</title>
<polygon fill="#bfbfbf" stroke="black" points="1,-0.5 1,-123.5 105,-123.5 105,-0.5 1,-0.5"/>
<text text-anchor="start" x="9" y="-111.5" font-family="Helvetica,sans-Serif" font-size="10.00">structural::decorator</text>
<text text-anchor="middle" x="53" y="-100.5" font-family="Helvetica,sans-Serif" font-size="10.00">::FileStream</text>
<polyline fill="none" stroke="black" points="1,-93.5 105,-93.5 "/>
<text text-anchor="middle" x="53" y="-81.5" font-family="Helvetica,sans-Serif" font-size="10.00"> </text>
<polyline fill="none" stroke="black" points="1,-74.5 105,-74.5 "/>
<text text-anchor="start" x="9" y="-62.5" font-family="Helvetica,sans-Serif" font-size="10.00">+ FileStream()</text>
<text text-anchor="start" x="9" y="-51.5" font-family="Helvetica,sans-Serif" font-size="10.00">+ FileStream()</text>
<text text-anchor="start" x="9" y="-40.5" font-family="Helvetica,sans-Serif" font-size="10.00">+ PutInt()</text>
<text text-anchor="start" x="9" y="-29.5" font-family="Helvetica,sans-Serif" font-size="10.00">+ PutString()</text>
<text text-anchor="start" x="9" y="-18.5" font-family="Helvetica,sans-Serif" font-size="10.00">+ value()</text>
<text text-anchor="start" x="9" y="-7.5" font-family="Helvetica,sans-Serif" font-size="10.00">+ message()</text>
</g>
<!-- Node2 -->
<g id="node2" class="node"><title>Node2</title>
<g id="a_node2"><a xlink:href="../../d1/dbf/classstructural_1_1decorator_1_1_stream_interface.html" target="_top" xlink:title="{structural::decorator\l::StreamInterface\n||+ ~StreamInterface()\l+ PutInt()\l+ PutString()\l}">
<polygon fill="white" stroke="black" points="0,-160.5 0,-250.5 106,-250.5 106,-160.5 0,-160.5"/>
<text text-anchor="start" x="8" y="-238.5" font-family="Helvetica,sans-Serif" font-size="10.00">structural::decorator</text>
<text text-anchor="middle" x="53" y="-227.5" font-family="Helvetica,sans-Serif" font-size="10.00">::StreamInterface</text>
<polyline fill="none" stroke="black" points="0,-220.5 106,-220.5 "/>
<text text-anchor="middle" x="53" y="-208.5" font-family="Helvetica,sans-Serif" font-size="10.00"> </text>
<polyline fill="none" stroke="black" points="0,-201.5 106,-201.5 "/>
<text text-anchor="start" x="8" y="-189.5" font-family="Helvetica,sans-Serif" font-size="10.00">+ ~StreamInterface()</text>
<text text-anchor="start" x="8" y="-178.5" font-family="Helvetica,sans-Serif" font-size="10.00">+ PutInt()</text>
<text text-anchor="start" x="8" y="-167.5" font-family="Helvetica,sans-Serif" font-size="10.00">+ PutString()</text>
</a>
</g>
</g>
<!-- Node2&#45;&gt;Node1 -->
<g id="edge1" class="edge"><title>Node2&#45;&gt;Node1</title>
<path fill="none" stroke="midnightblue" d="M53,-150.11C53,-141.421 53,-132.383 53,-123.561"/>
<polygon fill="none" stroke="midnightblue" points="49.5001,-150.117 53,-160.117 56.5001,-150.117 49.5001,-150.117"/>
</g>
</g>
</svg>
