<?xml version="1.0" encoding="UTF-8" standalone="no"?>
<!DOCTYPE svg PUBLIC "-//W3C//DTD SVG 1.1//EN"
 "http://www.w3.org/Graphics/SVG/1.1/DTD/svg11.dtd">
<!-- Generated by graphviz version 2.38.0 (20140413.2041)
 -->
<!-- Title: structural::facade::CodeGeneratorInterface::Visit Pages: 1 -->
<svg width="305pt" height="88pt"
 viewBox="0.00 0.00 305.00 88.00" xmlns="http://www.w3.org/2000/svg" xmlns:xlink="http://www.w3.org/1999/xlink">
<g id="graph0" class="graph" transform="scale(1 1) rotate(0) translate(4 84)">
<title>structural::facade::CodeGeneratorInterface::Visit</title>
<polygon fill="white" stroke="none" points="-4,4 -4,-84 301,-84 301,4 -4,4"/>
<!-- Node1 -->
<g id="node1" class="node"><title>Node1</title>
<polygon fill="#bfbfbf" stroke="black" points="0,-19 0,-60 125,-60 125,-19 0,-19"/>
<text text-anchor="start" x="8" y="-48" font-family="Helvetica,sans-Serif" font-size="10.00">structural::facade</text>
<text text-anchor="start" x="8" y="-37" font-family="Helvetica,sans-Serif" font-size="10.00">::CodeGeneratorInterface</text>
<text text-anchor="middle" x="62.5" y="-26" font-family="Helvetica,sans-Serif" font-size="10.00">::Visit</text>
</g>
<!-- Node2 -->
<g id="node2" class="node"><title>Node2</title>
<g id="a_node2"><a xlink:href="../../d4/ddf/classstructural_1_1facade_1_1_expression_node.html#ab2b521516380dcfc3a591cdd06dfd1ab" target="_top" xlink:title="structural::facade\l::ExpressionNode::Traverse">
<polygon fill="white" stroke="black" points="161,-49.5 161,-79.5 297,-79.5 297,-49.5 161,-49.5"/>
<text text-anchor="start" x="169" y="-67.5" font-family="Helvetica,sans-Serif" font-size="10.00">structural::facade</text>
<text text-anchor="middle" x="229" y="-56.5" font-family="Helvetica,sans-Serif" font-size="10.00">::ExpressionNode::Traverse</text>
</a>
</g>
</g>
<!-- Node1&#45;&gt;Node2 -->
<g id="edge1" class="edge"><title>Node1&#45;&gt;Node2</title>
<path fill="none" stroke="midnightblue" d="M135.185,-50.3943C143.752,-51.6964 152.475,-53.022 160.973,-54.3135"/>
<polygon fill="midnightblue" stroke="midnightblue" points="135.634,-46.9225 125.222,-48.8802 134.582,-53.8431 135.634,-46.9225"/>
</g>
<!-- Node3 -->
<g id="node3" class="node"><title>Node3</title>
<g id="a_node3"><a xlink:href="../../d7/dc1/classstructural_1_1facade_1_1_variable_node.html#a0fc8f1c9cb4d719d67153c5d86d071ae" target="_top" xlink:title="structural::facade\l::VariableNode::Traverse">
<polygon fill="white" stroke="black" points="168,-0.5 168,-30.5 290,-30.5 290,-0.5 168,-0.5"/>
<text text-anchor="start" x="176" y="-18.5" font-family="Helvetica,sans-Serif" font-size="10.00">structural::facade</text>
<text text-anchor="middle" x="229" y="-7.5" font-family="Helvetica,sans-Serif" font-size="10.00">::VariableNode::Traverse</text>
</a>
</g>
</g>
<!-- Node1&#45;&gt;Node3 -->
<g id="edge2" class="edge"><title>Node1&#45;&gt;Node3</title>
<path fill="none" stroke="midnightblue" d="M135.145,-29.0472C146.053,-27.4557 157.214,-25.8274 167.843,-24.2767"/>
<polygon fill="midnightblue" stroke="midnightblue" points="134.612,-25.5879 125.222,-30.495 135.622,-32.5146 134.612,-25.5879"/>
</g>
</g>
</svg>
