<?xml version="1.0" encoding="UTF-8" standalone="no"?>
<!DOCTYPE svg PUBLIC "-//W3C//DTD SVG 1.1//EN"
 "http://www.w3.org/Graphics/SVG/1.1/DTD/svg11.dtd">
<!-- Generated by graphviz version 2.38.0 (20140413.2041)
 -->
<!-- Title: structural::facade::Compiler::Compile Pages: 1 -->
<svg width="591pt" height="165pt"
 viewBox="0.00 0.00 591.00 165.00" xmlns="http://www.w3.org/2000/svg" xmlns:xlink="http://www.w3.org/1999/xlink">
<g id="graph0" class="graph" transform="scale(1 1) rotate(0) translate(4 161)">
<title>structural::facade::Compiler::Compile</title>
<polygon fill="white" stroke="none" points="-4,4 -4,-161 587,-161 587,4 -4,4"/>
<!-- Node1 -->
<g id="node1" class="node"><title>Node1</title>
<polygon fill="#bfbfbf" stroke="black" points="0,-66 0,-96 102,-96 102,-66 0,-66"/>
<text text-anchor="start" x="8" y="-84" font-family="Helvetica,sans-Serif" font-size="10.00">structural::facade</text>
<text text-anchor="middle" x="51" y="-73" font-family="Helvetica,sans-Serif" font-size="10.00">::Compiler::Compile</text>
</g>
<!-- Node2 -->
<g id="node2" class="node"><title>Node2</title>
<g id="a_node2"><a xlink:href="../../d7/d9c/classstructural_1_1facade_1_1_parser.html#aeecba45237f75b104989ebaf277c2208" target="_top" xlink:title="structural::facade\l::Parser::Parse">
<polygon fill="white" stroke="black" points="151.5,-121 151.5,-151 243.5,-151 243.5,-121 151.5,-121"/>
<text text-anchor="start" x="159.5" y="-139" font-family="Helvetica,sans-Serif" font-size="10.00">structural::facade</text>
<text text-anchor="middle" x="197.5" y="-128" font-family="Helvetica,sans-Serif" font-size="10.00">::Parser::Parse</text>
</a>
</g>
</g>
<!-- Node1&#45;&gt;Node2 -->
<g id="edge1" class="edge"><title>Node1&#45;&gt;Node2</title>
<path fill="none" stroke="midnightblue" d="M91.4853,-96.029C108.768,-102.607 129.225,-110.393 147.47,-117.338"/>
<polygon fill="midnightblue" stroke="midnightblue" points="146.472,-120.703 157.062,-120.989 148.962,-114.161 146.472,-120.703"/>
</g>
<!-- Node5 -->
<g id="node5" class="node"><title>Node5</title>
<g id="a_node5"><a xlink:href="../../d8/d7a/classstructural_1_1facade_1_1_program_node_builder.html#a087343424ea2ccbf2ce1eb6f1d7f627d" target="_top" xlink:title="structural::facade\l::ProgramNodeBuilder\l::GetRootNode">
<polygon fill="white" stroke="black" points="141.5,-60.5 141.5,-101.5 253.5,-101.5 253.5,-60.5 141.5,-60.5"/>
<text text-anchor="start" x="149.5" y="-89.5" font-family="Helvetica,sans-Serif" font-size="10.00">structural::facade</text>
<text text-anchor="start" x="149.5" y="-78.5" font-family="Helvetica,sans-Serif" font-size="10.00">::ProgramNodeBuilder</text>
<text text-anchor="middle" x="197.5" y="-67.5" font-family="Helvetica,sans-Serif" font-size="10.00">::GetRootNode</text>
</a>
</g>
</g>
<!-- Node1&#45;&gt;Node5 -->
<g id="edge4" class="edge"><title>Node1&#45;&gt;Node5</title>
<path fill="none" stroke="midnightblue" d="M102.134,-81C111.45,-81 121.31,-81 131.006,-81"/>
<polygon fill="midnightblue" stroke="midnightblue" points="131.022,-84.5001 141.022,-81 131.022,-77.5001 131.022,-84.5001"/>
</g>
<!-- Node6 -->
<g id="node6" class="node"><title>Node6</title>
<g id="a_node6"><a xlink:href="../../d9/d8e/classstructural_1_1facade_1_1_program_node_interface.html#aa14815f89929525f742799f68546ea2a" target="_top" xlink:title="structural::facade\l::ProgramNodeInterface\l::Traverse">
<polygon fill="white" stroke="black" points="138,-0.5 138,-41.5 257,-41.5 257,-0.5 138,-0.5"/>
<text text-anchor="start" x="146" y="-29.5" font-family="Helvetica,sans-Serif" font-size="10.00">structural::facade</text>
<text text-anchor="start" x="146" y="-18.5" font-family="Helvetica,sans-Serif" font-size="10.00">::ProgramNodeInterface</text>
<text text-anchor="middle" x="197.5" y="-7.5" font-family="Helvetica,sans-Serif" font-size="10.00">::Traverse</text>
</a>
</g>
</g>
<!-- Node1&#45;&gt;Node6 -->
<g id="edge5" class="edge"><title>Node1&#45;&gt;Node6</title>
<path fill="none" stroke="midnightblue" d="M88.4635,-65.8595C103.28,-59.7072 120.783,-52.4394 137.338,-45.5655"/>
<polygon fill="midnightblue" stroke="midnightblue" points="139.055,-48.6424 146.948,-41.5751 136.371,-42.1776 139.055,-48.6424"/>
</g>
<!-- Node3 -->
<g id="node3" class="node"><title>Node3</title>
<g id="a_node3"><a xlink:href="../../d8/d7a/classstructural_1_1facade_1_1_program_node_builder.html#af425287aea91ec726c7c558869a97326" target="_top" xlink:title="structural::facade\l::ProgramNodeBuilder\l::NewVariable">
<polygon fill="white" stroke="black" points="293,-115.5 293,-156.5 405,-156.5 405,-115.5 293,-115.5"/>
<text text-anchor="start" x="301" y="-144.5" font-family="Helvetica,sans-Serif" font-size="10.00">structural::facade</text>
<text text-anchor="start" x="301" y="-133.5" font-family="Helvetica,sans-Serif" font-size="10.00">::ProgramNodeBuilder</text>
<text text-anchor="middle" x="349" y="-122.5" font-family="Helvetica,sans-Serif" font-size="10.00">::NewVariable</text>
</a>
</g>
</g>
<!-- Node2&#45;&gt;Node3 -->
<g id="edge2" class="edge"><title>Node2&#45;&gt;Node3</title>
<path fill="none" stroke="midnightblue" d="M243.761,-136C255.967,-136 269.423,-136 282.495,-136"/>
<polygon fill="midnightblue" stroke="midnightblue" points="282.866,-139.5 292.866,-136 282.866,-132.5 282.866,-139.5"/>
</g>
<!-- Node4 -->
<g id="node4" class="node"><title>Node4</title>
<g id="a_node4"><a xlink:href="../../d9/d8e/classstructural_1_1facade_1_1_program_node_interface.html#ae057f911881253ed1fe107c6901bf021" target="_top" xlink:title="structural::facade\l::ProgramNodeInterface::Add">
<polygon fill="white" stroke="black" points="441,-121 441,-151 583,-151 583,-121 441,-121"/>
<text text-anchor="start" x="449" y="-139" font-family="Helvetica,sans-Serif" font-size="10.00">structural::facade</text>
<text text-anchor="middle" x="512" y="-128" font-family="Helvetica,sans-Serif" font-size="10.00">::ProgramNodeInterface::Add</text>
</a>
</g>
</g>
<!-- Node3&#45;&gt;Node4 -->
<g id="edge3" class="edge"><title>Node3&#45;&gt;Node4</title>
<path fill="none" stroke="midnightblue" d="M405.407,-136C413.645,-136 422.272,-136 430.893,-136"/>
<polygon fill="midnightblue" stroke="midnightblue" points="430.987,-139.5 440.987,-136 430.987,-132.5 430.987,-139.5"/>
</g>
</g>
</svg>
