<?xml version="1.0" encoding="UTF-8" standalone="no"?>
<!DOCTYPE svg PUBLIC "-//W3C//DTD SVG 1.1//EN"
 "http://www.w3.org/Graphics/SVG/1.1/DTD/svg11.dtd">
<!-- Generated by graphviz version 2.38.0 (20140413.2041)
 -->
<!-- Title: operational::iterator::ListIterator::CurrentItem Pages: 1 -->
<svg width="447pt" height="186pt"
 viewBox="0.00 0.00 447.00 186.00" xmlns="http://www.w3.org/2000/svg" xmlns:xlink="http://www.w3.org/1999/xlink">
<g id="graph0" class="graph" transform="scale(1 1) rotate(0) translate(4 182)">
<title>operational::iterator::ListIterator::CurrentItem</title>
<polygon fill="white" stroke="none" points="-4,4 -4,-182 443,-182 443,4 -4,4"/>
<!-- Node1 -->
<g id="node1" class="node"><title>Node1</title>
<polygon fill="#bfbfbf" stroke="black" points="0,-73.5 0,-103.5 125,-103.5 125,-73.5 0,-73.5"/>
<text text-anchor="start" x="8" y="-91.5" font-family="Helvetica,sans-Serif" font-size="10.00">operational::iterator</text>
<text text-anchor="middle" x="62.5" y="-80.5" font-family="Helvetica,sans-Serif" font-size="10.00">::ListIterator::CurrentItem</text>
</g>
<!-- Node2 -->
<g id="node2" class="node"><title>Node2</title>
<g id="a_node2"><a xlink:href="../../db/da6/classoperational_1_1command_1_1_macro_command.html#a20c51b3b9d3b598f5c744eba20a41cc9" target="_top" xlink:title="operational::command\l::MacroCommand::Execute">
<polygon fill="white" stroke="black" points="161,-147.5 161,-177.5 297,-177.5 297,-147.5 161,-147.5"/>
<text text-anchor="start" x="169" y="-165.5" font-family="Helvetica,sans-Serif" font-size="10.00">operational::command</text>
<text text-anchor="middle" x="229" y="-154.5" font-family="Helvetica,sans-Serif" font-size="10.00">::MacroCommand::Execute</text>
</a>
</g>
</g>
<!-- Node1&#45;&gt;Node2 -->
<g id="edge1" class="edge"><title>Node1&#45;&gt;Node2</title>
<path fill="none" stroke="midnightblue" d="M99.8272,-108.553C117.94,-118.184 140.339,-129.547 161,-138.5 168.142,-141.595 175.827,-144.62 183.354,-147.422"/>
<polygon fill="midnightblue" stroke="midnightblue" points="101.244,-105.342 90.7779,-103.697 97.9343,-111.51 101.244,-105.342"/>
</g>
<!-- Node3 -->
<g id="node3" class="node"><title>Node3</title>
<g id="a_node3"><a xlink:href="../../d4/de0/classoperational_1_1observer_1_1_clock_tick.html#a36ea25dc85c72397356653fd97f835ce" target="_top" xlink:title="operational::observer\l::ClockTick::Notify">
<polygon fill="white" stroke="black" points="176,-98.5 176,-128.5 282,-128.5 282,-98.5 176,-98.5"/>
<text text-anchor="start" x="184" y="-116.5" font-family="Helvetica,sans-Serif" font-size="10.00">operational::observer</text>
<text text-anchor="middle" x="229" y="-105.5" font-family="Helvetica,sans-Serif" font-size="10.00">::ClockTick::Notify</text>
</a>
</g>
</g>
<!-- Node1&#45;&gt;Node3 -->
<g id="edge2" class="edge"><title>Node1&#45;&gt;Node3</title>
<path fill="none" stroke="midnightblue" d="M135.113,-99.3834C148.824,-101.467 162.937,-103.612 175.892,-105.581"/>
<polygon fill="midnightblue" stroke="midnightblue" points="135.634,-95.9225 125.222,-97.8802 134.582,-102.843 135.634,-95.9225"/>
</g>
<!-- Node5 -->
<g id="node5" class="node"><title>Node5</title>
<g id="a_node5"><a xlink:href="../../d4/ddf/classstructural_1_1facade_1_1_expression_node.html#ab2b521516380dcfc3a591cdd06dfd1ab" target="_top" xlink:title="structural::facade\l::ExpressionNode::Traverse">
<polygon fill="white" stroke="black" points="161,-49.5 161,-79.5 297,-79.5 297,-49.5 161,-49.5"/>
<text text-anchor="start" x="169" y="-67.5" font-family="Helvetica,sans-Serif" font-size="10.00">structural::facade</text>
<text text-anchor="middle" x="229" y="-56.5" font-family="Helvetica,sans-Serif" font-size="10.00">::ExpressionNode::Traverse</text>
</a>
</g>
</g>
<!-- Node1&#45;&gt;Node5 -->
<g id="edge4" class="edge"><title>Node1&#45;&gt;Node5</title>
<path fill="none" stroke="midnightblue" d="M135.185,-78.0414C143.752,-76.7915 152.475,-75.5189 160.973,-74.279"/>
<polygon fill="midnightblue" stroke="midnightblue" points="134.612,-74.5879 125.222,-79.495 135.622,-81.5146 134.612,-74.5879"/>
</g>
<!-- Node6 -->
<g id="node6" class="node"><title>Node6</title>
<g id="a_node6"><a xlink:href="../../d7/dc1/classstructural_1_1facade_1_1_variable_node.html#a0fc8f1c9cb4d719d67153c5d86d071ae" target="_top" xlink:title="structural::facade\l::VariableNode::Traverse">
<polygon fill="white" stroke="black" points="168,-0.5 168,-30.5 290,-30.5 290,-0.5 168,-0.5"/>
<text text-anchor="start" x="176" y="-18.5" font-family="Helvetica,sans-Serif" font-size="10.00">structural::facade</text>
<text text-anchor="middle" x="229" y="-7.5" font-family="Helvetica,sans-Serif" font-size="10.00">::VariableNode::Traverse</text>
</a>
</g>
</g>
<!-- Node1&#45;&gt;Node6 -->
<g id="edge5" class="edge"><title>Node1&#45;&gt;Node6</title>
<path fill="none" stroke="midnightblue" d="M101.142,-68.8696C119.072,-59.8036 140.937,-49.1558 161,-40.5 168.866,-37.1065 177.359,-33.7261 185.569,-30.5983"/>
<polygon fill="midnightblue" stroke="midnightblue" points="99.4773,-65.7898 92.1552,-73.4474 102.654,-72.0272 99.4773,-65.7898"/>
</g>
<!-- Node4 -->
<g id="node4" class="node"><title>Node4</title>
<g id="a_node4"><a xlink:href="../../d0/dd5/classoperational_1_1observer_1_1_clock_timer.html#a1655c857334e35eb2b2f797dc127ceb7" target="_top" xlink:title="operational::observer\l::ClockTimer::Tick">
<polygon fill="white" stroke="black" points="333,-98.5 333,-128.5 439,-128.5 439,-98.5 333,-98.5"/>
<text text-anchor="start" x="341" y="-116.5" font-family="Helvetica,sans-Serif" font-size="10.00">operational::observer</text>
<text text-anchor="middle" x="386" y="-105.5" font-family="Helvetica,sans-Serif" font-size="10.00">::ClockTimer::Tick</text>
</a>
</g>
</g>
<!-- Node3&#45;&gt;Node4 -->
<g id="edge3" class="edge"><title>Node3&#45;&gt;Node4</title>
<path fill="none" stroke="midnightblue" d="M292.194,-113.5C305.669,-113.5 319.787,-113.5 332.83,-113.5"/>
<polygon fill="midnightblue" stroke="midnightblue" points="292.044,-110 282.044,-113.5 292.044,-117 292.044,-110"/>
</g>
</g>
</svg>
