<?xml version="1.0" encoding="UTF-8" standalone="no"?>
<!DOCTYPE svg PUBLIC "-//W3C//DTD SVG 1.1//EN"
 "http://www.w3.org/Graphics/SVG/1.1/DTD/svg11.dtd">
<!-- Generated by graphviz version 2.38.0 (20140413.2041)
 -->
<!-- Title: operational::iterator::ListIterator::IsDone Pages: 1 -->
<svg width="426pt" height="235pt"
 viewBox="0.00 0.00 426.00 235.00" xmlns="http://www.w3.org/2000/svg" xmlns:xlink="http://www.w3.org/1999/xlink">
<g id="graph0" class="graph" transform="scale(1 1) rotate(0) translate(4 231)">
<title>operational::iterator::ListIterator::IsDone</title>
<polygon fill="white" stroke="none" points="-4,4 -4,-231 422,-231 422,4 -4,4"/>
<!-- Node1 -->
<g id="node1" class="node"><title>Node1</title>
<polygon fill="#bfbfbf" stroke="black" points="0,-98.5 0,-128.5 104,-128.5 104,-98.5 0,-98.5"/>
<text text-anchor="start" x="8" y="-116.5" font-family="Helvetica,sans-Serif" font-size="10.00">operational::iterator</text>
<text text-anchor="middle" x="52" y="-105.5" font-family="Helvetica,sans-Serif" font-size="10.00">::ListIterator::IsDone</text>
</g>
<!-- Node2 -->
<g id="node2" class="node"><title>Node2</title>
<g id="a_node2"><a xlink:href="../../db/da6/classoperational_1_1command_1_1_macro_command.html#a20c51b3b9d3b598f5c744eba20a41cc9" target="_top" xlink:title="operational::command\l::MacroCommand::Execute">
<polygon fill="white" stroke="black" points="140,-196.5 140,-226.5 276,-226.5 276,-196.5 140,-196.5"/>
<text text-anchor="start" x="148" y="-214.5" font-family="Helvetica,sans-Serif" font-size="10.00">operational::command</text>
<text text-anchor="middle" x="208" y="-203.5" font-family="Helvetica,sans-Serif" font-size="10.00">::MacroCommand::Execute</text>
</a>
</g>
</g>
<!-- Node1&#45;&gt;Node2 -->
<g id="edge1" class="edge"><title>Node1&#45;&gt;Node2</title>
<path fill="none" stroke="midnightblue" d="M74.9631,-136.136C91.5933,-152.236 115.661,-173.422 140,-187.5 145.776,-190.841 152.096,-193.84 158.474,-196.493"/>
<polygon fill="midnightblue" stroke="midnightblue" points="77.0025,-133.231 67.4281,-128.694 72.0836,-138.211 77.0025,-133.231"/>
</g>
<!-- Node3 -->
<g id="node3" class="node"><title>Node3</title>
<g id="a_node3"><a xlink:href="../../d4/de0/classoperational_1_1observer_1_1_clock_tick.html#a36ea25dc85c72397356653fd97f835ce" target="_top" xlink:title="operational::observer\l::ClockTick::Notify">
<polygon fill="white" stroke="black" points="155,-147.5 155,-177.5 261,-177.5 261,-147.5 155,-147.5"/>
<text text-anchor="start" x="163" y="-165.5" font-family="Helvetica,sans-Serif" font-size="10.00">operational::observer</text>
<text text-anchor="middle" x="208" y="-154.5" font-family="Helvetica,sans-Serif" font-size="10.00">::ClockTick::Notify</text>
</a>
</g>
</g>
<!-- Node1&#45;&gt;Node3 -->
<g id="edge2" class="edge"><title>Node1&#45;&gt;Node3</title>
<path fill="none" stroke="midnightblue" d="M110.386,-131.759C126.629,-136.927 144.119,-142.492 159.695,-147.448"/>
<polygon fill="midnightblue" stroke="midnightblue" points="111.052,-128.298 100.462,-128.601 108.93,-134.969 111.052,-128.298"/>
</g>
<!-- Node5 -->
<g id="node5" class="node"><title>Node5</title>
<g id="a_node5"><a xlink:href="../../d6/d2e/classoperational_1_1visitor_1_1_chassis.html#a5943ef0e84e5201eac1dbce024477680" target="_top" xlink:title="operational::visitor\l::Chassis::Accept">
<polygon fill="white" stroke="black" points="160.5,-98.5 160.5,-128.5 255.5,-128.5 255.5,-98.5 160.5,-98.5"/>
<text text-anchor="start" x="168.5" y="-116.5" font-family="Helvetica,sans-Serif" font-size="10.00">operational::visitor</text>
<text text-anchor="middle" x="208" y="-105.5" font-family="Helvetica,sans-Serif" font-size="10.00">::Chassis::Accept</text>
</a>
</g>
</g>
<!-- Node1&#45;&gt;Node5 -->
<g id="edge4" class="edge"><title>Node1&#45;&gt;Node5</title>
<path fill="none" stroke="midnightblue" d="M114.663,-113.5C129.898,-113.5 145.969,-113.5 160.356,-113.5"/>
<polygon fill="midnightblue" stroke="midnightblue" points="114.28,-110 104.28,-113.5 114.28,-117 114.28,-110"/>
</g>
<!-- Node6 -->
<g id="node6" class="node"><title>Node6</title>
<g id="a_node6"><a xlink:href="../../d4/ddf/classstructural_1_1facade_1_1_expression_node.html#ab2b521516380dcfc3a591cdd06dfd1ab" target="_top" xlink:title="structural::facade\l::ExpressionNode::Traverse">
<polygon fill="white" stroke="black" points="140,-49.5 140,-79.5 276,-79.5 276,-49.5 140,-49.5"/>
<text text-anchor="start" x="148" y="-67.5" font-family="Helvetica,sans-Serif" font-size="10.00">structural::facade</text>
<text text-anchor="middle" x="208" y="-56.5" font-family="Helvetica,sans-Serif" font-size="10.00">::ExpressionNode::Traverse</text>
</a>
</g>
</g>
<!-- Node1&#45;&gt;Node6 -->
<g id="edge5" class="edge"><title>Node1&#45;&gt;Node6</title>
<path fill="none" stroke="midnightblue" d="M110.386,-95.2409C126.629,-90.0727 144.119,-84.5076 159.695,-79.5516"/>
<polygon fill="midnightblue" stroke="midnightblue" points="108.93,-92.0312 100.462,-98.3986 111.052,-98.7017 108.93,-92.0312"/>
</g>
<!-- Node7 -->
<g id="node7" class="node"><title>Node7</title>
<g id="a_node7"><a xlink:href="../../d7/dc1/classstructural_1_1facade_1_1_variable_node.html#a0fc8f1c9cb4d719d67153c5d86d071ae" target="_top" xlink:title="structural::facade\l::VariableNode::Traverse">
<polygon fill="white" stroke="black" points="147,-0.5 147,-30.5 269,-30.5 269,-0.5 147,-0.5"/>
<text text-anchor="start" x="155" y="-18.5" font-family="Helvetica,sans-Serif" font-size="10.00">structural::facade</text>
<text text-anchor="middle" x="208" y="-7.5" font-family="Helvetica,sans-Serif" font-size="10.00">::VariableNode::Traverse</text>
</a>
</g>
</g>
<!-- Node1&#45;&gt;Node7 -->
<g id="edge6" class="edge"><title>Node1&#45;&gt;Node7</title>
<path fill="none" stroke="midnightblue" d="M75.3765,-90.9943C92.0484,-75.2026 115.991,-54.4911 140,-40.5 146.329,-36.812 153.299,-33.496 160.279,-30.5764"/>
<polygon fill="midnightblue" stroke="midnightblue" points="72.5717,-88.837 67.8076,-98.3003 77.4333,-93.8734 72.5717,-88.837"/>
</g>
<!-- Node4 -->
<g id="node4" class="node"><title>Node4</title>
<g id="a_node4"><a xlink:href="../../d0/dd5/classoperational_1_1observer_1_1_clock_timer.html#a1655c857334e35eb2b2f797dc127ceb7" target="_top" xlink:title="operational::observer\l::ClockTimer::Tick">
<polygon fill="white" stroke="black" points="312,-147.5 312,-177.5 418,-177.5 418,-147.5 312,-147.5"/>
<text text-anchor="start" x="320" y="-165.5" font-family="Helvetica,sans-Serif" font-size="10.00">operational::observer</text>
<text text-anchor="middle" x="365" y="-154.5" font-family="Helvetica,sans-Serif" font-size="10.00">::ClockTimer::Tick</text>
</a>
</g>
</g>
<!-- Node3&#45;&gt;Node4 -->
<g id="edge3" class="edge"><title>Node3&#45;&gt;Node4</title>
<path fill="none" stroke="midnightblue" d="M271.194,-162.5C284.669,-162.5 298.787,-162.5 311.83,-162.5"/>
<polygon fill="midnightblue" stroke="midnightblue" points="271.044,-159 261.044,-162.5 271.044,-166 271.044,-159"/>
</g>
</g>
</svg>
