<?xml version="1.0" encoding="UTF-8" standalone="no"?>
<!DOCTYPE svg PUBLIC "-//W3C//DTD SVG 1.1//EN"
 "http://www.w3.org/Graphics/SVG/1.1/DTD/svg11.dtd">
<!-- Generated by graphviz version 2.38.0 (20140413.2041)
 -->
<!-- Title: operational::iterator::ListIterator::Next Pages: 1 -->
<svg width="422pt" height="186pt"
 viewBox="0.00 0.00 422.00 186.00" xmlns="http://www.w3.org/2000/svg" xmlns:xlink="http://www.w3.org/1999/xlink">
<g id="graph0" class="graph" transform="scale(1 1) rotate(0) translate(4 182)">
<title>operational::iterator::ListIterator::Next</title>
<polygon fill="white" stroke="none" points="-4,4 -4,-182 418,-182 418,4 -4,4"/>
<!-- Node1 -->
<g id="node1" class="node"><title>Node1</title>
<polygon fill="#bfbfbf" stroke="black" points="0,-73.5 0,-103.5 100,-103.5 100,-73.5 0,-73.5"/>
<text text-anchor="start" x="8" y="-91.5" font-family="Helvetica,sans-Serif" font-size="10.00">operational::iterator</text>
<text text-anchor="middle" x="50" y="-80.5" font-family="Helvetica,sans-Serif" font-size="10.00">::ListIterator::Next</text>
</g>
<!-- Node2 -->
<g id="node2" class="node"><title>Node2</title>
<g id="a_node2"><a xlink:href="../../db/da6/classoperational_1_1command_1_1_macro_command.html#a20c51b3b9d3b598f5c744eba20a41cc9" target="_top" xlink:title="operational::command\l::MacroCommand::Execute">
<polygon fill="white" stroke="black" points="136,-147.5 136,-177.5 272,-177.5 272,-147.5 136,-147.5"/>
<text text-anchor="start" x="144" y="-165.5" font-family="Helvetica,sans-Serif" font-size="10.00">operational::command</text>
<text text-anchor="middle" x="204" y="-154.5" font-family="Helvetica,sans-Serif" font-size="10.00">::MacroCommand::Execute</text>
</a>
</g>
</g>
<!-- Node1&#45;&gt;Node2 -->
<g id="edge1" class="edge"><title>Node1&#45;&gt;Node2</title>
<path fill="none" stroke="midnightblue" d="M82.5729,-108.989C98.2584,-118.667 117.724,-129.944 136,-138.5 142.714,-141.643 149.961,-144.631 157.123,-147.365"/>
<polygon fill="midnightblue" stroke="midnightblue" points="84.1459,-105.845 73.812,-103.508 80.4333,-111.779 84.1459,-105.845"/>
</g>
<!-- Node3 -->
<g id="node3" class="node"><title>Node3</title>
<g id="a_node3"><a xlink:href="../../d4/de0/classoperational_1_1observer_1_1_clock_tick.html#a36ea25dc85c72397356653fd97f835ce" target="_top" xlink:title="operational::observer\l::ClockTick::Notify">
<polygon fill="white" stroke="black" points="151,-98.5 151,-128.5 257,-128.5 257,-98.5 151,-98.5"/>
<text text-anchor="start" x="159" y="-116.5" font-family="Helvetica,sans-Serif" font-size="10.00">operational::observer</text>
<text text-anchor="middle" x="204" y="-105.5" font-family="Helvetica,sans-Serif" font-size="10.00">::ClockTick::Notify</text>
</a>
</g>
</g>
<!-- Node1&#45;&gt;Node3 -->
<g id="edge2" class="edge"><title>Node1&#45;&gt;Node3</title>
<path fill="none" stroke="midnightblue" d="M110.373,-98.2653C123.701,-100.457 137.746,-102.767 150.758,-104.908"/>
<polygon fill="midnightblue" stroke="midnightblue" points="110.786,-94.7862 100.35,-96.6168 109.649,-101.693 110.786,-94.7862"/>
</g>
<!-- Node5 -->
<g id="node5" class="node"><title>Node5</title>
<g id="a_node5"><a xlink:href="../../d4/ddf/classstructural_1_1facade_1_1_expression_node.html#ab2b521516380dcfc3a591cdd06dfd1ab" target="_top" xlink:title="structural::facade\l::ExpressionNode::Traverse">
<polygon fill="white" stroke="black" points="136,-49.5 136,-79.5 272,-79.5 272,-49.5 136,-49.5"/>
<text text-anchor="start" x="144" y="-67.5" font-family="Helvetica,sans-Serif" font-size="10.00">structural::facade</text>
<text text-anchor="middle" x="204" y="-56.5" font-family="Helvetica,sans-Serif" font-size="10.00">::ExpressionNode::Traverse</text>
</a>
</g>
</g>
<!-- Node1&#45;&gt;Node5 -->
<g id="edge4" class="edge"><title>Node1&#45;&gt;Node5</title>
<path fill="none" stroke="midnightblue" d="M110.396,-79.1216C118.771,-77.7993 127.429,-76.4322 135.936,-75.0891"/>
<polygon fill="midnightblue" stroke="midnightblue" points="109.682,-75.691 100.35,-80.7079 110.774,-82.6053 109.682,-75.691"/>
</g>
<!-- Node6 -->
<g id="node6" class="node"><title>Node6</title>
<g id="a_node6"><a xlink:href="../../d7/dc1/classstructural_1_1facade_1_1_variable_node.html#a0fc8f1c9cb4d719d67153c5d86d071ae" target="_top" xlink:title="structural::facade\l::VariableNode::Traverse">
<polygon fill="white" stroke="black" points="143,-0.5 143,-30.5 265,-30.5 265,-0.5 143,-0.5"/>
<text text-anchor="start" x="151" y="-18.5" font-family="Helvetica,sans-Serif" font-size="10.00">structural::facade</text>
<text text-anchor="middle" x="204" y="-7.5" font-family="Helvetica,sans-Serif" font-size="10.00">::VariableNode::Traverse</text>
</a>
</g>
</g>
<!-- Node1&#45;&gt;Node6 -->
<g id="edge5" class="edge"><title>Node1&#45;&gt;Node6</title>
<path fill="none" stroke="midnightblue" d="M84.0647,-68.2273C99.5402,-59.158 118.404,-48.6895 136,-40.5 143.541,-36.9901 151.725,-33.605 159.697,-30.5197"/>
<polygon fill="midnightblue" stroke="midnightblue" points="82.1957,-65.2665 75.3797,-73.3778 85.7663,-71.2874 82.1957,-65.2665"/>
</g>
<!-- Node4 -->
<g id="node4" class="node"><title>Node4</title>
<g id="a_node4"><a xlink:href="../../d0/dd5/classoperational_1_1observer_1_1_clock_timer.html#a1655c857334e35eb2b2f797dc127ceb7" target="_top" xlink:title="operational::observer\l::ClockTimer::Tick">
<polygon fill="white" stroke="black" points="308,-98.5 308,-128.5 414,-128.5 414,-98.5 308,-98.5"/>
<text text-anchor="start" x="316" y="-116.5" font-family="Helvetica,sans-Serif" font-size="10.00">operational::observer</text>
<text text-anchor="middle" x="361" y="-105.5" font-family="Helvetica,sans-Serif" font-size="10.00">::ClockTimer::Tick</text>
</a>
</g>
</g>
<!-- Node3&#45;&gt;Node4 -->
<g id="edge3" class="edge"><title>Node3&#45;&gt;Node4</title>
<path fill="none" stroke="midnightblue" d="M267.194,-113.5C280.669,-113.5 294.787,-113.5 307.83,-113.5"/>
<polygon fill="midnightblue" stroke="midnightblue" points="267.044,-110 257.044,-113.5 267.044,-117 267.044,-110"/>
</g>
</g>
</svg>
