<?xml version="1.0" encoding="UTF-8" standalone="no"?>
<!DOCTYPE svg PUBLIC "-//W3C//DTD SVG 1.1//EN"
 "http://www.w3.org/Graphics/SVG/1.1/DTD/svg11.dtd">
<!-- Generated by graphviz version 2.38.0 (20140413.2041)
 -->
<!-- Title: src/operational/src/templatemethod/sample_document.h Pages: 1 -->
<svg width="132pt" height="106pt"
 viewBox="0.00 0.00 132.00 106.00" xmlns="http://www.w3.org/2000/svg" xmlns:xlink="http://www.w3.org/1999/xlink">
<g id="graph0" class="graph" transform="scale(1 1) rotate(0) translate(4 102)">
<title>src/operational/src/templatemethod/sample_document.h</title>
<polygon fill="white" stroke="none" points="-4,4 -4,-102 128,-102 128,4 -4,4"/>
<!-- Node1 -->
<g id="node1" class="node"><title>Node1</title>
<polygon fill="#bfbfbf" stroke="black" points="0,-56.5 0,-97.5 124,-97.5 124,-56.5 0,-56.5"/>
<text text-anchor="start" x="8" y="-85.5" font-family="Helvetica,sans-Serif" font-size="10.00">src/operational/src</text>
<text text-anchor="start" x="8" y="-74.5" font-family="Helvetica,sans-Serif" font-size="10.00">/templatemethod/sample</text>
<text text-anchor="middle" x="62" y="-63.5" font-family="Helvetica,sans-Serif" font-size="10.00">_document.h</text>
</g>
<!-- Node2 -->
<g id="node2" class="node"><title>Node2</title>
<g id="a_node2"><a xlink:href="../../de/da9/document__interface_8h.html" target="_top" xlink:title="document_interface.h">
<polygon fill="white" stroke="black" points="7,-0.5 7,-19.5 117,-19.5 117,-0.5 7,-0.5"/>
<text text-anchor="middle" x="62" y="-7.5" font-family="Helvetica,sans-Serif" font-size="10.00">document_interface.h</text>
</a>
</g>
</g>
<!-- Node1&#45;&gt;Node2 -->
<g id="edge1" class="edge"><title>Node1&#45;&gt;Node2</title>
<path fill="none" stroke="midnightblue" d="M62,-56.4979C62,-48.0653 62,-38.2351 62,-29.874"/>
<polygon fill="midnightblue" stroke="midnightblue" points="65.5001,-29.6525 62,-19.6525 58.5001,-29.6525 65.5001,-29.6525"/>
</g>
</g>
</svg>
