<?xml version="1.0" encoding="UTF-8" standalone="no"?>
<!DOCTYPE svg PUBLIC "-//W3C//DTD SVG 1.1//EN"
 "http://www.w3.org/Graphics/SVG/1.1/DTD/svg11.dtd">
<!-- Generated by graphviz version 2.38.0 (20140413.2041)
 -->
<!-- Title: structural::adapter::TextShapeObjectAdapter::BoundingBox Pages: 1 -->
<svg width="288pt" height="88pt"
 viewBox="0.00 0.00 288.00 88.00" xmlns="http://www.w3.org/2000/svg" xmlns:xlink="http://www.w3.org/1999/xlink">
<g id="graph0" class="graph" transform="scale(1 1) rotate(0) translate(4 84)">
<title>structural::adapter::TextShapeObjectAdapter::BoundingBox</title>
<polygon fill="white" stroke="none" points="-4,4 -4,-84 284,-84 284,4 -4,4"/>
<!-- Node1 -->
<g id="node1" class="node"><title>Node1</title>
<polygon fill="#bfbfbf" stroke="black" points="0,-19 0,-60 131,-60 131,-19 0,-19"/>
<text text-anchor="start" x="8" y="-48" font-family="Helvetica,sans-Serif" font-size="10.00">structural::adapter</text>
<text text-anchor="start" x="8" y="-37" font-family="Helvetica,sans-Serif" font-size="10.00">::TextShapeObjectAdapter</text>
<text text-anchor="middle" x="65.5" y="-26" font-family="Helvetica,sans-Serif" font-size="10.00">::BoundingBox</text>
</g>
<!-- Node2 -->
<g id="node2" class="node"><title>Node2</title>
<g id="a_node2"><a xlink:href="../../d7/dce/classstructural_1_1adapter_1_1_text_view.html#ab7af62e93e902a463fe2242e5ab5547f" target="_top" xlink:title="structural::adapter\l::TextView::GetOrigin">
<polygon fill="white" stroke="black" points="168.5,-49.5 168.5,-79.5 278.5,-79.5 278.5,-49.5 168.5,-49.5"/>
<text text-anchor="start" x="176.5" y="-67.5" font-family="Helvetica,sans-Serif" font-size="10.00">structural::adapter</text>
<text text-anchor="middle" x="223.5" y="-56.5" font-family="Helvetica,sans-Serif" font-size="10.00">::TextView::GetOrigin</text>
</a>
</g>
</g>
<!-- Node1&#45;&gt;Node2 -->
<g id="edge1" class="edge"><title>Node1&#45;&gt;Node2</title>
<path fill="none" stroke="midnightblue" d="M131.303,-49.8851C140.183,-51.3081 149.298,-52.7689 158.17,-54.1906"/>
<polygon fill="midnightblue" stroke="midnightblue" points="157.629,-57.6486 168.057,-55.7751 158.737,-50.7368 157.629,-57.6486"/>
</g>
<!-- Node3 -->
<g id="node3" class="node"><title>Node3</title>
<g id="a_node3"><a xlink:href="../../d7/dce/classstructural_1_1adapter_1_1_text_view.html#ae30ba8da7566ce590a3a3cf587bbced4" target="_top" xlink:title="structural::adapter\l::TextView::GetExtent">
<polygon fill="white" stroke="black" points="167,-0.5 167,-30.5 280,-30.5 280,-0.5 167,-0.5"/>
<text text-anchor="start" x="175" y="-18.5" font-family="Helvetica,sans-Serif" font-size="10.00">structural::adapter</text>
<text text-anchor="middle" x="223.5" y="-7.5" font-family="Helvetica,sans-Serif" font-size="10.00">::TextView::GetExtent</text>
</a>
</g>
</g>
<!-- Node1&#45;&gt;Node3 -->
<g id="edge2" class="edge"><title>Node1&#45;&gt;Node3</title>
<path fill="none" stroke="midnightblue" d="M131.303,-29.5303C139.635,-28.2485 148.174,-26.9348 156.524,-25.6501"/>
<polygon fill="midnightblue" stroke="midnightblue" points="157.239,-29.0815 166.59,-24.1015 156.174,-22.1629 157.239,-29.0815"/>
</g>
</g>
</svg>
