<?xml version="1.0" encoding="UTF-8" standalone="no"?>
<!DOCTYPE svg PUBLIC "-//W3C//DTD SVG 1.1//EN"
 "http://www.w3.org/Graphics/SVG/1.1/DTD/svg11.dtd">
<!-- Generated by graphviz version 2.38.0 (20140413.2041)
 -->
<!-- Title: src/structural/src/adapter/shape_interface.h Pages: 1 -->
<svg width="355pt" height="195pt"
 viewBox="0.00 0.00 355.00 195.00" xmlns="http://www.w3.org/2000/svg" xmlns:xlink="http://www.w3.org/1999/xlink">
<g id="graph0" class="graph" transform="scale(1 1) rotate(0) translate(4 191)">
<title>src/structural/src/adapter/shape_interface.h</title>
<polygon fill="white" stroke="none" points="-4,4 -4,-191 351,-191 351,4 -4,4"/>
<!-- Node1 -->
<g id="node1" class="node"><title>Node1</title>
<polygon fill="#bfbfbf" stroke="black" points="107,-156.5 107,-186.5 238,-186.5 238,-156.5 107,-156.5"/>
<text text-anchor="start" x="115" y="-174.5" font-family="Helvetica,sans-Serif" font-size="10.00">src/structural/src</text>
<text text-anchor="middle" x="172.5" y="-163.5" font-family="Helvetica,sans-Serif" font-size="10.00">/adapter/shape_interface.h</text>
</g>
<!-- Node2 -->
<g id="node2" class="node"><title>Node2</title>
<g id="a_node2"><a xlink:href="../../d4/d4c/text__shape__class__adapter_8h.html" target="_top" xlink:title="src/structural/src\l/adapter/text_shape\l_class_adapter.h">
<polygon fill="white" stroke="black" points="61,-78.5 61,-119.5 164,-119.5 164,-78.5 61,-78.5"/>
<text text-anchor="start" x="69" y="-107.5" font-family="Helvetica,sans-Serif" font-size="10.00">src/structural/src</text>
<text text-anchor="start" x="69" y="-96.5" font-family="Helvetica,sans-Serif" font-size="10.00">/adapter/text_shape</text>
<text text-anchor="middle" x="112.5" y="-85.5" font-family="Helvetica,sans-Serif" font-size="10.00">_class_adapter.h</text>
</a>
</g>
</g>
<!-- Node1&#45;&gt;Node2 -->
<g id="edge1" class="edge"><title>Node1&#45;&gt;Node2</title>
<path fill="none" stroke="midnightblue" d="M153.812,-148.541C145.928,-139.278 136.823,-128.58 129.171,-119.588"/>
<polygon fill="midnightblue" stroke="midnightblue" points="151.211,-150.886 160.358,-156.233 156.542,-146.349 151.211,-150.886"/>
</g>
<!-- Node5 -->
<g id="node5" class="node"><title>Node5</title>
<g id="a_node5"><a xlink:href="../../d2/d17/text__shape__object__adapter_8h.html" target="_top" xlink:title="src/structural/src\l/adapter/text_shape\l_object_adapter.h">
<polygon fill="white" stroke="black" points="182,-78.5 182,-119.5 285,-119.5 285,-78.5 182,-78.5"/>
<text text-anchor="start" x="190" y="-107.5" font-family="Helvetica,sans-Serif" font-size="10.00">src/structural/src</text>
<text text-anchor="start" x="190" y="-96.5" font-family="Helvetica,sans-Serif" font-size="10.00">/adapter/text_shape</text>
<text text-anchor="middle" x="233.5" y="-85.5" font-family="Helvetica,sans-Serif" font-size="10.00">_object_adapter.h</text>
</a>
</g>
</g>
<!-- Node1&#45;&gt;Node5 -->
<g id="edge4" class="edge"><title>Node1&#45;&gt;Node5</title>
<path fill="none" stroke="midnightblue" d="M191.5,-148.541C199.515,-139.278 208.771,-128.58 216.551,-119.588"/>
<polygon fill="midnightblue" stroke="midnightblue" points="188.741,-146.381 184.844,-156.233 194.034,-150.961 188.741,-146.381"/>
</g>
<!-- Node3 -->
<g id="node3" class="node"><title>Node3</title>
<g id="a_node3"><a xlink:href="../../d8/d13/text__shape__class__adapter_8cc.html" target="_top" xlink:title="src/structural/src\l/adapter/text_shape\l_class_adapter.cc">
<polygon fill="white" stroke="black" points="0,-0.5 0,-41.5 103,-41.5 103,-0.5 0,-0.5"/>
<text text-anchor="start" x="8" y="-29.5" font-family="Helvetica,sans-Serif" font-size="10.00">src/structural/src</text>
<text text-anchor="start" x="8" y="-18.5" font-family="Helvetica,sans-Serif" font-size="10.00">/adapter/text_shape</text>
<text text-anchor="middle" x="51.5" y="-7.5" font-family="Helvetica,sans-Serif" font-size="10.00">_class_adapter.cc</text>
</a>
</g>
</g>
<!-- Node2&#45;&gt;Node3 -->
<g id="edge2" class="edge"><title>Node2&#45;&gt;Node3</title>
<path fill="none" stroke="midnightblue" d="M90.5296,-70.627C82.7947,-60.9901 74.264,-50.3617 67.1558,-41.5056"/>
<polygon fill="midnightblue" stroke="midnightblue" points="87.8019,-72.8202 96.791,-78.4281 93.261,-68.4386 87.8019,-72.8202"/>
</g>
<!-- Node4 -->
<g id="node4" class="node"><title>Node4</title>
<g id="a_node4"><a xlink:href="../../d9/d38/adapter__test_8cc.html" target="_top" xlink:title="src/structural_tests\l/src/adapter/adapter\l_test.cc">
<polygon fill="white" stroke="black" points="121.5,-0.5 121.5,-41.5 225.5,-41.5 225.5,-0.5 121.5,-0.5"/>
<text text-anchor="start" x="129.5" y="-29.5" font-family="Helvetica,sans-Serif" font-size="10.00">src/structural_tests</text>
<text text-anchor="start" x="129.5" y="-18.5" font-family="Helvetica,sans-Serif" font-size="10.00">/src/adapter/adapter</text>
<text text-anchor="middle" x="173.5" y="-7.5" font-family="Helvetica,sans-Serif" font-size="10.00">_test.cc</text>
</a>
</g>
</g>
<!-- Node2&#45;&gt;Node4 -->
<g id="edge3" class="edge"><title>Node2&#45;&gt;Node4</title>
<path fill="none" stroke="midnightblue" d="M134.47,-70.627C142.205,-60.9901 150.736,-50.3617 157.844,-41.5056"/>
<polygon fill="midnightblue" stroke="midnightblue" points="131.739,-68.4386 128.209,-78.4281 137.198,-72.8202 131.739,-68.4386"/>
</g>
<!-- Node5&#45;&gt;Node4 -->
<g id="edge6" class="edge"><title>Node5&#45;&gt;Node4</title>
<path fill="none" stroke="midnightblue" d="M211.661,-70.3376C204.114,-60.7777 195.821,-50.2731 188.899,-41.5056"/>
<polygon fill="midnightblue" stroke="midnightblue" points="209.105,-72.748 218.049,-78.4281 214.599,-68.4105 209.105,-72.748"/>
</g>
<!-- Node6 -->
<g id="node6" class="node"><title>Node6</title>
<g id="a_node6"><a xlink:href="../../d7/d61/text__shape__object__adapter_8cc.html" target="_top" xlink:title="src/structural/src\l/adapter/text_shape\l_object_adapter.cc">
<polygon fill="white" stroke="black" points="244,-0.5 244,-41.5 347,-41.5 347,-0.5 244,-0.5"/>
<text text-anchor="start" x="252" y="-29.5" font-family="Helvetica,sans-Serif" font-size="10.00">src/structural/src</text>
<text text-anchor="start" x="252" y="-18.5" font-family="Helvetica,sans-Serif" font-size="10.00">/adapter/text_shape</text>
<text text-anchor="middle" x="295.5" y="-7.5" font-family="Helvetica,sans-Serif" font-size="10.00">_object_adapter.cc</text>
</a>
</g>
</g>
<!-- Node5&#45;&gt;Node6 -->
<g id="edge5" class="edge"><title>Node5&#45;&gt;Node6</title>
<path fill="none" stroke="midnightblue" d="M255.831,-70.627C263.692,-60.9901 272.363,-50.3617 279.588,-41.5056"/>
<polygon fill="midnightblue" stroke="midnightblue" points="253.076,-68.467 249.467,-78.4281 258.5,-72.8919 253.076,-68.467"/>
</g>
</g>
</svg>
