<?xml version="1.0" encoding="UTF-8" standalone="no"?>
<!DOCTYPE svg PUBLIC "-//W3C//DTD SVG 1.1//EN"
 "http://www.w3.org/Graphics/SVG/1.1/DTD/svg11.dtd">
<!-- Generated by graphviz version 2.38.0 (20140413.2041)
 -->
<!-- Title: operational::madiator::EntryField::text Pages: 1 -->
<svg width="401pt" height="50pt"
 viewBox="0.00 0.00 401.00 50.00" xmlns="http://www.w3.org/2000/svg" xmlns:xlink="http://www.w3.org/1999/xlink">
<g id="graph0" class="graph" transform="scale(1 1) rotate(0) translate(4 46)">
<title>operational::madiator::EntryField::text</title>
<polygon fill="white" stroke="none" points="-4,4 -4,-46 397,-46 397,4 -4,4"/>
<!-- Node1 -->
<g id="node1" class="node"><title>Node1</title>
<polygon fill="#bfbfbf" stroke="black" points="0,-6 0,-36 107,-36 107,-6 0,-6"/>
<text text-anchor="start" x="8" y="-24" font-family="Helvetica,sans-Serif" font-size="10.00">operational::madiator</text>
<text text-anchor="middle" x="53.5" y="-13" font-family="Helvetica,sans-Serif" font-size="10.00">::EntryField::text</text>
</g>
<!-- Node2 -->
<g id="node2" class="node"><title>Node2</title>
<g id="a_node2"><a xlink:href="../../d7/d87/classoperational_1_1madiator_1_1_entry_field.html#a046e8d316b601fc34992200946e2720d" target="_top" xlink:title="operational::madiator\l::EntryField::text">
<polygon fill="white" stroke="black" points="143,-6 143,-36 250,-36 250,-6 143,-6"/>
<text text-anchor="start" x="151" y="-24" font-family="Helvetica,sans-Serif" font-size="10.00">operational::madiator</text>
<text text-anchor="middle" x="196.5" y="-13" font-family="Helvetica,sans-Serif" font-size="10.00">::EntryField::text</text>
</a>
</g>
</g>
<!-- Node1&#45;&gt;Node2 -->
<g id="edge1" class="edge"><title>Node1&#45;&gt;Node2</title>
<path fill="none" stroke="midnightblue" d="M117.05,-21C125.7,-21 134.51,-21 142.953,-21"/>
<polygon fill="midnightblue" stroke="midnightblue" points="117.003,-17.5001 107.003,-21 117.003,-24.5001 117.003,-17.5001"/>
</g>
<!-- Node3 -->
<g id="node3" class="node"><title>Node3</title>
<g id="a_node3"><a xlink:href="../../de/d89/classoperational_1_1madiator_1_1_font_dialog_director.html#aaa279941a06f0a5135cd32c78356c644" target="_top" xlink:title="operational::madiator\l::FontDialogDirector\l::WidgetChanged">
<polygon fill="white" stroke="black" points="286,-0.5 286,-41.5 393,-41.5 393,-0.5 286,-0.5"/>
<text text-anchor="start" x="294" y="-29.5" font-family="Helvetica,sans-Serif" font-size="10.00">operational::madiator</text>
<text text-anchor="start" x="294" y="-18.5" font-family="Helvetica,sans-Serif" font-size="10.00">::FontDialogDirector</text>
<text text-anchor="middle" x="339.5" y="-7.5" font-family="Helvetica,sans-Serif" font-size="10.00">::WidgetChanged</text>
</a>
</g>
</g>
<!-- Node2&#45;&gt;Node3 -->
<g id="edge2" class="edge"><title>Node2&#45;&gt;Node3</title>
<path fill="none" stroke="midnightblue" d="M260.05,-21C268.7,-21 277.51,-21 285.953,-21"/>
<polygon fill="midnightblue" stroke="midnightblue" points="260.003,-17.5001 250.003,-21 260.003,-24.5001 260.003,-17.5001"/>
</g>
</g>
</svg>
