<?xml version="1.0" encoding="UTF-8" standalone="no"?>
<!DOCTYPE svg PUBLIC "-//W3C//DTD SVG 1.1//EN"
 "http://www.w3.org/Graphics/SVG/1.1/DTD/svg11.dtd">
<!-- Generated by graphviz version 2.38.0 (20140413.2041)
 -->
<!-- Title: structural::bridge::ApplicationWindow Pages: 1 -->
<svg width="122pt" height="375pt"
 viewBox="0.00 0.00 122.00 375.00" xmlns="http://www.w3.org/2000/svg" xmlns:xlink="http://www.w3.org/1999/xlink">
<g id="graph0" class="graph" transform="scale(1 1) rotate(0) translate(4 371)">
<title>structural::bridge::ApplicationWindow</title>
<polygon fill="white" stroke="none" points="-4,4 -4,-371 118,-371 118,4 -4,4"/>
<!-- Node1 -->
<g id="node1" class="node"><title>Node1</title>
<polygon fill="#bfbfbf" stroke="black" points="0,-0.5 0,-90.5 114,-90.5 114,-0.5 0,-0.5"/>
<text text-anchor="start" x="8" y="-78.5" font-family="Helvetica,sans-Serif" font-size="10.00">structural::bridge</text>
<text text-anchor="middle" x="57" y="-67.5" font-family="Helvetica,sans-Serif" font-size="10.00">::ApplicationWindow</text>
<polyline fill="none" stroke="black" points="0,-60.5 114,-60.5 "/>
<text text-anchor="middle" x="57" y="-48.5" font-family="Helvetica,sans-Serif" font-size="10.00"> </text>
<polyline fill="none" stroke="black" points="0,-41.5 114,-41.5 "/>
<text text-anchor="start" x="8" y="-29.5" font-family="Helvetica,sans-Serif" font-size="10.00">+ ApplicationWindow()</text>
<text text-anchor="start" x="8" y="-18.5" font-family="Helvetica,sans-Serif" font-size="10.00">+ DrawText()</text>
<text text-anchor="start" x="8" y="-7.5" font-family="Helvetica,sans-Serif" font-size="10.00">+ DrawTitle()</text>
</g>
<!-- Node2 -->
<g id="node2" class="node"><title>Node2</title>
<g id="a_node2"><a xlink:href="../../d5/d3d/classstructural_1_1bridge_1_1_window.html" target="_top" xlink:title="{structural::bridge\l::Window\n||+ Window()\l+ ~Window()\l+ DrawRect()\l+ DrawText()\l# GetWindowImp()\l}">
<polygon fill="white" stroke="black" points="8.5,-127.5 8.5,-239.5 105.5,-239.5 105.5,-127.5 8.5,-127.5"/>
<text text-anchor="start" x="16.5" y="-227.5" font-family="Helvetica,sans-Serif" font-size="10.00">structural::bridge</text>
<text text-anchor="middle" x="57" y="-216.5" font-family="Helvetica,sans-Serif" font-size="10.00">::Window</text>
<polyline fill="none" stroke="black" points="8.5,-209.5 105.5,-209.5 "/>
<text text-anchor="middle" x="57" y="-197.5" font-family="Helvetica,sans-Serif" font-size="10.00"> </text>
<polyline fill="none" stroke="black" points="8.5,-190.5 105.5,-190.5 "/>
<text text-anchor="start" x="16.5" y="-178.5" font-family="Helvetica,sans-Serif" font-size="10.00">+ Window()</text>
<text text-anchor="start" x="16.5" y="-167.5" font-family="Helvetica,sans-Serif" font-size="10.00">+ ~Window()</text>
<text text-anchor="start" x="16.5" y="-156.5" font-family="Helvetica,sans-Serif" font-size="10.00">+ DrawRect()</text>
<text text-anchor="start" x="16.5" y="-145.5" font-family="Helvetica,sans-Serif" font-size="10.00">+ DrawText()</text>
<text text-anchor="start" x="16.5" y="-134.5" font-family="Helvetica,sans-Serif" font-size="10.00"># GetWindowImp()</text>
</a>
</g>
</g>
<!-- Node2&#45;&gt;Node1 -->
<g id="edge1" class="edge"><title>Node2&#45;&gt;Node1</title>
<path fill="none" stroke="midnightblue" d="M57,-117.076C57,-108.072 57,-99.0069 57,-90.5144"/>
<polygon fill="none" stroke="midnightblue" points="53.5001,-117.184 57,-127.184 60.5001,-117.184 53.5001,-117.184"/>
</g>
<!-- Node3 -->
<g id="node3" class="node"><title>Node3</title>
<g id="a_node3"><a xlink:href="../../dc/dac/classstructural_1_1bridge_1_1_window_interface.html" target="_top" xlink:title="{structural::bridge\l::WindowInterface\n||+ ~WindowInterface()\l+ DrawRect()\l+ DrawText()\l}">
<polygon fill="white" stroke="black" points="2.5,-276.5 2.5,-366.5 111.5,-366.5 111.5,-276.5 2.5,-276.5"/>
<text text-anchor="start" x="10.5" y="-354.5" font-family="Helvetica,sans-Serif" font-size="10.00">structural::bridge</text>
<text text-anchor="middle" x="57" y="-343.5" font-family="Helvetica,sans-Serif" font-size="10.00">::WindowInterface</text>
<polyline fill="none" stroke="black" points="2.5,-336.5 111.5,-336.5 "/>
<text text-anchor="middle" x="57" y="-324.5" font-family="Helvetica,sans-Serif" font-size="10.00"> </text>
<polyline fill="none" stroke="black" points="2.5,-317.5 111.5,-317.5 "/>
<text text-anchor="start" x="10.5" y="-305.5" font-family="Helvetica,sans-Serif" font-size="10.00">+ ~WindowInterface()</text>
<text text-anchor="start" x="10.5" y="-294.5" font-family="Helvetica,sans-Serif" font-size="10.00">+ DrawRect()</text>
<text text-anchor="start" x="10.5" y="-283.5" font-family="Helvetica,sans-Serif" font-size="10.00">+ DrawText()</text>
</a>
</g>
</g>
<!-- Node3&#45;&gt;Node2 -->
<g id="edge2" class="edge"><title>Node3&#45;&gt;Node2</title>
<path fill="none" stroke="midnightblue" d="M57,-266.312C57,-257.611 57,-248.595 57,-239.867"/>
<polygon fill="none" stroke="midnightblue" points="53.5001,-266.345 57,-276.345 60.5001,-266.345 53.5001,-266.345"/>
</g>
</g>
</svg>
