<?xml version="1.0" encoding="UTF-8" standalone="no"?>
<!DOCTYPE svg PUBLIC "-//W3C//DTD SVG 1.1//EN"
 "http://www.w3.org/Graphics/SVG/1.1/DTD/svg11.dtd">
<!-- Generated by graphviz version 2.38.0 (20140413.2041)
 -->
<!-- Title: operational::command::OpenCommand Pages: 1 -->
<svg width="127pt" height="215pt"
 viewBox="0.00 0.00 127.00 215.00" xmlns="http://www.w3.org/2000/svg" xmlns:xlink="http://www.w3.org/1999/xlink">
<g id="graph0" class="graph" transform="scale(1 1) rotate(0) translate(4 211)">
<title>operational::command::OpenCommand</title>
<polygon fill="white" stroke="none" points="-4,4 -4,-211 123,-211 123,4 -4,4"/>
<!-- Node1 -->
<g id="node1" class="node"><title>Node1</title>
<polygon fill="#bfbfbf" stroke="black" points="3,-0.5 3,-90.5 116,-90.5 116,-0.5 3,-0.5"/>
<text text-anchor="start" x="11" y="-78.5" font-family="Helvetica,sans-Serif" font-size="10.00">operational::command</text>
<text text-anchor="middle" x="59.5" y="-67.5" font-family="Helvetica,sans-Serif" font-size="10.00">::OpenCommand</text>
<polyline fill="none" stroke="black" points="3,-60.5 116,-60.5 "/>
<text text-anchor="middle" x="59.5" y="-48.5" font-family="Helvetica,sans-Serif" font-size="10.00"> </text>
<polyline fill="none" stroke="black" points="3,-41.5 116,-41.5 "/>
<text text-anchor="start" x="11" y="-29.5" font-family="Helvetica,sans-Serif" font-size="10.00">+ OpenCommand()</text>
<text text-anchor="start" x="11" y="-18.5" font-family="Helvetica,sans-Serif" font-size="10.00">+ Execute()</text>
<text text-anchor="start" x="11" y="-7.5" font-family="Helvetica,sans-Serif" font-size="10.00"># AskUser()</text>
</g>
<!-- Node2 -->
<g id="node2" class="node"><title>Node2</title>
<g id="a_node2"><a xlink:href="../../db/d88/classoperational_1_1command_1_1_command_interface.html" target="_top" xlink:title="{operational::command\l::CommandInterface\n||+ ~CommandInterface()\l+ Execute()\l}">
<polygon fill="white" stroke="black" points="0,-127.5 0,-206.5 119,-206.5 119,-127.5 0,-127.5"/>
<text text-anchor="start" x="8" y="-194.5" font-family="Helvetica,sans-Serif" font-size="10.00">operational::command</text>
<text text-anchor="middle" x="59.5" y="-183.5" font-family="Helvetica,sans-Serif" font-size="10.00">::CommandInterface</text>
<polyline fill="none" stroke="black" points="0,-176.5 119,-176.5 "/>
<text text-anchor="middle" x="59.5" y="-164.5" font-family="Helvetica,sans-Serif" font-size="10.00"> </text>
<polyline fill="none" stroke="black" points="0,-157.5 119,-157.5 "/>
<text text-anchor="start" x="8" y="-145.5" font-family="Helvetica,sans-Serif" font-size="10.00">+ ~CommandInterface()</text>
<text text-anchor="start" x="8" y="-134.5" font-family="Helvetica,sans-Serif" font-size="10.00">+ Execute()</text>
</a>
</g>
</g>
<!-- Node2&#45;&gt;Node1 -->
<g id="edge1" class="edge"><title>Node2&#45;&gt;Node1</title>
<path fill="none" stroke="midnightblue" d="M59.5,-117.187C59.5,-108.491 59.5,-99.4758 59.5,-90.9111"/>
<polygon fill="none" stroke="midnightblue" points="56.0001,-117.202 59.5,-127.202 63.0001,-117.202 56.0001,-117.202"/>
</g>
</g>
</svg>
