<?xml version="1.0" encoding="UTF-8" standalone="no"?>
<!DOCTYPE svg PUBLIC "-//W3C//DTD SVG 1.1//EN"
 "http://www.w3.org/Graphics/SVG/1.1/DTD/svg11.dtd">
<!-- Generated by graphviz version 2.38.0 (20140413.2041)
 -->
<!-- Title: src/creational_tests/src/utils/validator.h Pages: 1 -->
<svg width="272pt" height="117pt"
 viewBox="0.00 0.00 272.00 117.00" xmlns="http://www.w3.org/2000/svg" xmlns:xlink="http://www.w3.org/1999/xlink">
<g id="graph0" class="graph" transform="scale(1 1) rotate(0) translate(4 113)">
<title>src/creational_tests/src/utils/validator.h</title>
<polygon fill="white" stroke="none" points="-4,4 -4,-113 268,-113 268,4 -4,4"/>
<!-- Node1 -->
<g id="node1" class="node"><title>Node1</title>
<polygon fill="#bfbfbf" stroke="black" points="89,-78.5 89,-108.5 191,-108.5 191,-78.5 89,-78.5"/>
<text text-anchor="start" x="97" y="-96.5" font-family="Helvetica,sans-Serif" font-size="10.00">src/creational_tests</text>
<text text-anchor="middle" x="140" y="-85.5" font-family="Helvetica,sans-Serif" font-size="10.00">/src/utils/validator.h</text>
</g>
<!-- Node2 -->
<g id="node2" class="node"><title>Node2</title>
<g id="a_node2"><a xlink:href="../../d5/d51/maze__game__test_8cc.html" target="_top" xlink:title="src/creational_tests\l/src/mazegame/maze_game\l_test.cc">
<polygon fill="white" stroke="black" points="0,-0.5 0,-41.5 140,-41.5 140,-0.5 0,-0.5"/>
<text text-anchor="start" x="8" y="-29.5" font-family="Helvetica,sans-Serif" font-size="10.00">src/creational_tests</text>
<text text-anchor="start" x="8" y="-18.5" font-family="Helvetica,sans-Serif" font-size="10.00">/src/mazegame/maze_game</text>
<text text-anchor="middle" x="70" y="-7.5" font-family="Helvetica,sans-Serif" font-size="10.00">_test.cc</text>
</a>
</g>
</g>
<!-- Node1&#45;&gt;Node2 -->
<g id="edge1" class="edge"><title>Node1&#45;&gt;Node2</title>
<path fill="none" stroke="midnightblue" d="M118.752,-71.1007C109.429,-61.7107 98.5576,-50.7615 89.4495,-41.5884"/>
<polygon fill="midnightblue" stroke="midnightblue" points="116.305,-73.6031 125.834,-78.2333 121.272,-68.671 116.305,-73.6031"/>
</g>
<!-- Node3 -->
<g id="node3" class="node"><title>Node3</title>
<g id="a_node3"><a xlink:href="../../d9/d77/validator_8cc.html" target="_top" xlink:title="src/creational_tests\l/src/utils/validator.cc">
<polygon fill="white" stroke="black" points="158,-6 158,-36 264,-36 264,-6 158,-6"/>
<text text-anchor="start" x="166" y="-24" font-family="Helvetica,sans-Serif" font-size="10.00">src/creational_tests</text>
<text text-anchor="middle" x="211" y="-13" font-family="Helvetica,sans-Serif" font-size="10.00">/src/utils/validator.cc</text>
</a>
</g>
</g>
<!-- Node1&#45;&gt;Node3 -->
<g id="edge2" class="edge"><title>Node1&#45;&gt;Node3</title>
<path fill="none" stroke="midnightblue" d="M161.789,-70.8641C173.119,-59.6142 186.65,-46.1786 196.653,-36.2455"/>
<polygon fill="midnightblue" stroke="midnightblue" points="158.998,-68.7036 154.368,-78.2333 163.93,-73.6708 158.998,-68.7036"/>
</g>
</g>
</svg>
