<?xml version="1.0" encoding="UTF-8" standalone="no"?>
<!DOCTYPE svg PUBLIC "-//W3C//DTD SVG 1.1//EN"
 "http://www.w3.org/Graphics/SVG/1.1/DTD/svg11.dtd">
<!-- Generated by graphviz version 2.38.0 (20140413.2041)
 -->
<!-- Title: structural::facade::VariableNode::Traverse Pages: 1 -->
<svg width="291pt" height="247pt"
 viewBox="0.00 0.00 291.00 246.50" xmlns="http://www.w3.org/2000/svg" xmlns:xlink="http://www.w3.org/1999/xlink">
<g id="graph0" class="graph" transform="scale(1 1) rotate(0) translate(4 242.5)">
<title>structural::facade::VariableNode::Traverse</title>
<polygon fill="white" stroke="none" points="-4,4 -4,-242.5 287,-242.5 287,4 -4,4"/>
<!-- Node1 -->
<g id="node1" class="node"><title>Node1</title>
<polygon fill="#bfbfbf" stroke="black" points="0,-110 0,-140 122,-140 122,-110 0,-110"/>
<text text-anchor="start" x="8" y="-128" font-family="Helvetica,sans-Serif" font-size="10.00">structural::facade</text>
<text text-anchor="middle" x="61" y="-117" font-family="Helvetica,sans-Serif" font-size="10.00">::VariableNode::Traverse</text>
</g>
<!-- Node2 -->
<g id="node2" class="node"><title>Node2</title>
<g id="a_node2"><a xlink:href="../../da/d8a/classoperational_1_1iterator_1_1_list_iterator.html#af957220a47026d5126a8220ada421352" target="_top" xlink:title="operational::iterator\l::ListIterator::First">
<polygon fill="white" stroke="black" points="170.5,-208 170.5,-238 270.5,-238 270.5,-208 170.5,-208"/>
<text text-anchor="start" x="178.5" y="-226" font-family="Helvetica,sans-Serif" font-size="10.00">operational::iterator</text>
<text text-anchor="middle" x="220.5" y="-215" font-family="Helvetica,sans-Serif" font-size="10.00">::ListIterator::First</text>
</a>
</g>
</g>
<!-- Node1&#45;&gt;Node2 -->
<g id="edge1" class="edge"><title>Node1&#45;&gt;Node2</title>
<path fill="none" stroke="midnightblue" d="M78.6428,-140.223C97.0064,-156.426 127.955,-182.02 158,-199 160.844,-200.607 163.817,-202.154 166.854,-203.634"/>
<polygon fill="midnightblue" stroke="midnightblue" points="165.55,-206.886 176.099,-207.866 168.464,-200.521 165.55,-206.886"/>
</g>
<!-- Node3 -->
<g id="node3" class="node"><title>Node3</title>
<g id="a_node3"><a xlink:href="../../da/d8a/classoperational_1_1iterator_1_1_list_iterator.html#a7aabc4cc183b3c49e6e135514f271c0e" target="_top" xlink:title="operational::iterator\l::ListIterator::IsDone">
<polygon fill="white" stroke="black" points="168.5,-159 168.5,-189 272.5,-189 272.5,-159 168.5,-159"/>
<text text-anchor="start" x="176.5" y="-177" font-family="Helvetica,sans-Serif" font-size="10.00">operational::iterator</text>
<text text-anchor="middle" x="220.5" y="-166" font-family="Helvetica,sans-Serif" font-size="10.00">::ListIterator::IsDone</text>
</a>
</g>
</g>
<!-- Node1&#45;&gt;Node3 -->
<g id="edge2" class="edge"><title>Node1&#45;&gt;Node3</title>
<path fill="none" stroke="midnightblue" d="M110.54,-140.101C126.634,-145.108 144.711,-150.732 161.447,-155.939"/>
<polygon fill="midnightblue" stroke="midnightblue" points="160.532,-159.32 171.12,-158.948 162.611,-152.636 160.532,-159.32"/>
</g>
<!-- Node4 -->
<g id="node4" class="node"><title>Node4</title>
<g id="a_node4"><a xlink:href="../../da/d8a/classoperational_1_1iterator_1_1_list_iterator.html#a375f2f3451b40f2d7477d03e4f5c9676" target="_top" xlink:title="operational::iterator\l::ListIterator::Next">
<polygon fill="white" stroke="black" points="170.5,-110 170.5,-140 270.5,-140 270.5,-110 170.5,-110"/>
<text text-anchor="start" x="178.5" y="-128" font-family="Helvetica,sans-Serif" font-size="10.00">operational::iterator</text>
<text text-anchor="middle" x="220.5" y="-117" font-family="Helvetica,sans-Serif" font-size="10.00">::ListIterator::Next</text>
</a>
</g>
</g>
<!-- Node1&#45;&gt;Node4 -->
<g id="edge3" class="edge"><title>Node1&#45;&gt;Node4</title>
<path fill="none" stroke="midnightblue" d="M122.443,-125C134.778,-125 147.747,-125 160.047,-125"/>
<polygon fill="midnightblue" stroke="midnightblue" points="160.193,-128.5 170.193,-125 160.193,-121.5 160.193,-128.5"/>
</g>
<!-- Node5 -->
<g id="node5" class="node"><title>Node5</title>
<g id="a_node5"><a xlink:href="../../da/d8a/classoperational_1_1iterator_1_1_list_iterator.html#abb9ec87938406dd6f4c77bae016e8a8a" target="_top" xlink:title="operational::iterator\l::ListIterator::CurrentItem">
<polygon fill="white" stroke="black" points="158,-61 158,-91 283,-91 283,-61 158,-61"/>
<text text-anchor="start" x="166" y="-79" font-family="Helvetica,sans-Serif" font-size="10.00">operational::iterator</text>
<text text-anchor="middle" x="220.5" y="-68" font-family="Helvetica,sans-Serif" font-size="10.00">::ListIterator::CurrentItem</text>
</a>
</g>
</g>
<!-- Node1&#45;&gt;Node5 -->
<g id="edge4" class="edge"><title>Node1&#45;&gt;Node5</title>
<path fill="none" stroke="midnightblue" d="M110.54,-109.899C126.634,-104.892 144.711,-99.2676 161.447,-94.061"/>
<polygon fill="midnightblue" stroke="midnightblue" points="162.611,-97.3643 171.12,-91.0516 160.532,-90.6803 162.611,-97.3643"/>
</g>
<!-- Node6 -->
<g id="node6" class="node"><title>Node6</title>
<g id="a_node6"><a xlink:href="../../df/d81/classstructural_1_1facade_1_1_code_generator_interface.html#a4c8a46fb3eea6dcb56a3f3e0da3816ff" target="_top" xlink:title="structural::facade\l::CodeGeneratorInterface\l::Visit">
<polygon fill="white" stroke="black" points="158,-0.5 158,-41.5 283,-41.5 283,-0.5 158,-0.5"/>
<text text-anchor="start" x="166" y="-29.5" font-family="Helvetica,sans-Serif" font-size="10.00">structural::facade</text>
<text text-anchor="start" x="166" y="-18.5" font-family="Helvetica,sans-Serif" font-size="10.00">::CodeGeneratorInterface</text>
<text text-anchor="middle" x="220.5" y="-7.5" font-family="Helvetica,sans-Serif" font-size="10.00">::Visit</text>
</a>
</g>
</g>
<!-- Node1&#45;&gt;Node6 -->
<g id="edge5" class="edge"><title>Node1&#45;&gt;Node6</title>
<path fill="none" stroke="midnightblue" d="M79.6899,-109.971C98.4322,-94.4333 129.235,-69.9749 158,-52 160.98,-50.1377 164.087,-48.2945 167.251,-46.4904"/>
<polygon fill="midnightblue" stroke="midnightblue" points="169.195,-49.4159 176.266,-41.5267 165.818,-43.2839 169.195,-49.4159"/>
</g>
</g>
</svg>
