<?xml version="1.0" encoding="UTF-8" standalone="no"?>
<!DOCTYPE svg PUBLIC "-//W3C//DTD SVG 1.1//EN"
 "http://www.w3.org/Graphics/SVG/1.1/DTD/svg11.dtd">
<!-- Generated by graphviz version 2.38.0 (20140413.2041)
 -->
<!-- Title: src/operational/src/strategy/my_strategy.cc Pages: 1 -->
<svg width="144pt" height="151pt"
 viewBox="0.00 0.00 144.00 151.00" xmlns="http://www.w3.org/2000/svg" xmlns:xlink="http://www.w3.org/1999/xlink">
<g id="graph0" class="graph" transform="scale(1 1) rotate(0) translate(4 147)">
<title>src/operational/src/strategy/my_strategy.cc</title>
<polygon fill="white" stroke="none" points="-4,4 -4,-147 140,-147 140,4 -4,4"/>
<!-- Node1 -->
<g id="node1" class="node"><title>Node1</title>
<polygon fill="#bfbfbf" stroke="black" points="11,-112.5 11,-142.5 136,-142.5 136,-112.5 11,-112.5"/>
<text text-anchor="start" x="19" y="-130.5" font-family="Helvetica,sans-Serif" font-size="10.00">src/operational/src</text>
<text text-anchor="middle" x="73.5" y="-119.5" font-family="Helvetica,sans-Serif" font-size="10.00">/strategy/my_strategy.cc</text>
</g>
<!-- Node2 -->
<g id="node2" class="node"><title>Node2</title>
<g id="a_node2"><a xlink:href="../../d5/d48/my__strategy_8h.html" target="_top" xlink:title="my_strategy.h">
<polygon fill="white" stroke="black" points="0,-56.5 0,-75.5 79,-75.5 79,-56.5 0,-56.5"/>
<text text-anchor="middle" x="39.5" y="-63.5" font-family="Helvetica,sans-Serif" font-size="10.00">my_strategy.h</text>
</a>
</g>
</g>
<!-- Node1&#45;&gt;Node2 -->
<g id="edge1" class="edge"><title>Node1&#45;&gt;Node2</title>
<path fill="none" stroke="midnightblue" d="M65.4425,-112.399C60.6547,-104.021 54.5439,-93.3269 49.4559,-84.4229"/>
<polygon fill="midnightblue" stroke="midnightblue" points="52.4476,-82.6037 44.4473,-75.6578 46.3699,-86.0767 52.4476,-82.6037"/>
</g>
<!-- Node3 -->
<g id="node3" class="node"><title>Node3</title>
<polygon fill="white" stroke="#bfbfbf" points="53,-0.5 53,-19.5 94,-19.5 94,-0.5 53,-0.5"/>
<text text-anchor="middle" x="73.5" y="-7.5" font-family="Helvetica,sans-Serif" font-size="10.00">string</text>
</g>
<!-- Node1&#45;&gt;Node3 -->
<g id="edge3" class="edge"><title>Node1&#45;&gt;Node3</title>
<path fill="none" stroke="midnightblue" d="M79.7014,-112.264C85.1288,-98.0791 91.6871,-75.6396 88.5,-56 87.0325,-46.9568 84.0077,-37.275 81.0562,-29.2176"/>
<polygon fill="midnightblue" stroke="midnightblue" points="84.2564,-27.7907 77.3557,-19.7514 77.7368,-30.3393 84.2564,-27.7907"/>
</g>
<!-- Node2&#45;&gt;Node3 -->
<g id="edge2" class="edge"><title>Node2&#45;&gt;Node3</title>
<path fill="none" stroke="midnightblue" d="M45.1144,-56.083C49.8674,-48.5341 56.8181,-37.4948 62.6516,-28.2298"/>
<polygon fill="midnightblue" stroke="midnightblue" points="65.6237,-30.0783 67.9901,-19.7511 59.7001,-26.3486 65.6237,-30.0783"/>
</g>
</g>
</svg>
