<?xml version="1.0" encoding="UTF-8" standalone="no"?>
<!DOCTYPE svg PUBLIC "-//W3C//DTD SVG 1.1//EN"
 "http://www.w3.org/Graphics/SVG/1.1/DTD/svg11.dtd">
<!-- Generated by graphviz version 2.38.0 (20140413.2041)
 -->
<!-- Title: src/creational/src/mazeparts/door.h Pages: 1 -->
<svg width="196pt" height="151pt"
 viewBox="0.00 0.00 195.50 151.00" xmlns="http://www.w3.org/2000/svg" xmlns:xlink="http://www.w3.org/1999/xlink">
<g id="graph0" class="graph" transform="scale(1 1) rotate(0) translate(4 147)">
<title>src/creational/src/mazeparts/door.h</title>
<polygon fill="white" stroke="none" points="-4,4 -4,-147 191.5,-147 191.5,4 -4,4"/>
<!-- Node1 -->
<g id="node1" class="node"><title>Node1</title>
<polygon fill="#bfbfbf" stroke="black" points="32,-112.5 32,-142.5 127,-142.5 127,-112.5 32,-112.5"/>
<text text-anchor="start" x="40" y="-130.5" font-family="Helvetica,sans-Serif" font-size="10.00">src/creational/src</text>
<text text-anchor="middle" x="79.5" y="-119.5" font-family="Helvetica,sans-Serif" font-size="10.00">/mazeparts/door.h</text>
</g>
<!-- Node2 -->
<g id="node2" class="node"><title>Node2</title>
<g id="a_node2"><a xlink:href="../../db/d1a/map__site__interface_8h.html" target="_top" xlink:title="map_site_interface.h">
<polygon fill="white" stroke="black" points="0,-0.5 0,-19.5 107,-19.5 107,-0.5 0,-0.5"/>
<text text-anchor="middle" x="53.5" y="-7.5" font-family="Helvetica,sans-Serif" font-size="10.00">map_site_interface.h</text>
</a>
</g>
</g>
<!-- Node1&#45;&gt;Node2 -->
<g id="edge1" class="edge"><title>Node1&#45;&gt;Node2</title>
<path fill="none" stroke="midnightblue" d="M76.3119,-112.337C71.6273,-91.5271 62.8787,-52.6632 57.6833,-29.5834"/>
<polygon fill="midnightblue" stroke="midnightblue" points="61.0623,-28.6567 55.4516,-19.6695 54.2332,-30.194 61.0623,-28.6567"/>
</g>
<!-- Node3 -->
<g id="node3" class="node"><title>Node3</title>
<g id="a_node3"><a xlink:href="../../d9/dc0/room_8h.html" target="_top" xlink:title="room.h">
<polygon fill="white" stroke="black" points="82,-56.5 82,-75.5 129,-75.5 129,-56.5 82,-56.5"/>
<text text-anchor="middle" x="105.5" y="-63.5" font-family="Helvetica,sans-Serif" font-size="10.00">room.h</text>
</a>
</g>
</g>
<!-- Node1&#45;&gt;Node3 -->
<g id="edge2" class="edge"><title>Node1&#45;&gt;Node3</title>
<path fill="none" stroke="midnightblue" d="M85.6616,-112.399C89.245,-104.199 93.7974,-93.7809 97.6372,-84.9936"/>
<polygon fill="midnightblue" stroke="midnightblue" points="100.92,-86.2226 101.717,-75.6578 94.5054,-83.4197 100.92,-86.2226"/>
</g>
<!-- Node3&#45;&gt;Node2 -->
<g id="edge3" class="edge"><title>Node3&#45;&gt;Node2</title>
<path fill="none" stroke="midnightblue" d="M96.9133,-56.083C89.341,-48.2195 78.1218,-36.5688 68.9856,-27.0813"/>
<polygon fill="midnightblue" stroke="midnightblue" points="71.3845,-24.5266 61.927,-19.7511 66.3423,-29.3821 71.3845,-24.5266"/>
</g>
<!-- Node4 -->
<g id="node4" class="node"><title>Node4</title>
<g id="a_node4"><a xlink:href="../../dd/d04/direction_8h.html" target="_top" xlink:title="direction.h">
<polygon fill="white" stroke="black" points="125.5,-0.5 125.5,-19.5 187.5,-19.5 187.5,-0.5 125.5,-0.5"/>
<text text-anchor="middle" x="156.5" y="-7.5" font-family="Helvetica,sans-Serif" font-size="10.00">direction.h</text>
</a>
</g>
</g>
<!-- Node3&#45;&gt;Node4 -->
<g id="edge4" class="edge"><title>Node3&#45;&gt;Node4</title>
<path fill="none" stroke="midnightblue" d="M113.922,-56.083C121.348,-48.2195 132.352,-36.5688 141.312,-27.0813"/>
<polygon fill="midnightblue" stroke="midnightblue" points="143.913,-29.4244 148.235,-19.7511 138.824,-24.618 143.913,-29.4244"/>
</g>
</g>
</svg>
