<?xml version="1.0" encoding="UTF-8" standalone="no"?>
<!DOCTYPE svg PUBLIC "-//W3C//DTD SVG 1.1//EN"
 "http://www.w3.org/Graphics/SVG/1.1/DTD/svg11.dtd">
<!-- Generated by graphviz version 2.38.0 (20140413.2041)
 -->
<!-- Title: operational::madiator::DialogDirectorInterface::WidgetChanged Pages: 1 -->
<svg width="491pt" height="186pt"
 viewBox="0.00 0.00 491.00 186.00" xmlns="http://www.w3.org/2000/svg" xmlns:xlink="http://www.w3.org/1999/xlink">
<g id="graph0" class="graph" transform="scale(1 1) rotate(0) translate(4 182)">
<title>operational::madiator::DialogDirectorInterface::WidgetChanged</title>
<polygon fill="white" stroke="none" points="-4,4 -4,-182 487,-182 487,4 -4,4"/>
<!-- Node1 -->
<g id="node1" class="node"><title>Node1</title>
<polygon fill="#bfbfbf" stroke="black" points="0,-92 0,-133 120,-133 120,-92 0,-92"/>
<text text-anchor="start" x="8" y="-121" font-family="Helvetica,sans-Serif" font-size="10.00">operational::madiator</text>
<text text-anchor="start" x="8" y="-110" font-family="Helvetica,sans-Serif" font-size="10.00">::DialogDirectorInterface</text>
<text text-anchor="middle" x="60" y="-99" font-family="Helvetica,sans-Serif" font-size="10.00">::WidgetChanged</text>
</g>
<!-- Node2 -->
<g id="node2" class="node"><title>Node2</title>
<g id="a_node2"><a xlink:href="../../df/d1e/classoperational_1_1madiator_1_1_list_box.html#a5d36ed4269913867a47aacc19d5a1e7e" target="_top" xlink:title="operational::madiator\l::ListBox::Changed">
<polygon fill="white" stroke="black" points="170,-134.5 170,-164.5 277,-164.5 277,-134.5 170,-134.5"/>
<text text-anchor="start" x="178" y="-152.5" font-family="Helvetica,sans-Serif" font-size="10.00">operational::madiator</text>
<text text-anchor="middle" x="223.5" y="-141.5" font-family="Helvetica,sans-Serif" font-size="10.00">::ListBox::Changed</text>
</a>
</g>
</g>
<!-- Node1&#45;&gt;Node2 -->
<g id="edge1" class="edge"><title>Node1&#45;&gt;Node2</title>
<path fill="none" stroke="midnightblue" d="M130.281,-128.372C143.577,-131.419 157.297,-134.562 169.959,-137.463"/>
<polygon fill="midnightblue" stroke="midnightblue" points="130.749,-124.889 120.22,-126.067 129.185,-131.712 130.749,-124.889"/>
</g>
<!-- Node4 -->
<g id="node4" class="node"><title>Node4</title>
<g id="a_node4"><a xlink:href="../../da/dd3/classoperational_1_1madiator_1_1_mediator_widget.html#a42d6d627d18ba26a9c47c911bdd191a0" target="_top" xlink:title="operational::madiator\l::MediatorWidget::Changed">
<polygon fill="white" stroke="black" points="156,-61.5 156,-91.5 291,-91.5 291,-61.5 156,-61.5"/>
<text text-anchor="start" x="164" y="-79.5" font-family="Helvetica,sans-Serif" font-size="10.00">operational::madiator</text>
<text text-anchor="middle" x="223.5" y="-68.5" font-family="Helvetica,sans-Serif" font-size="10.00">::MediatorWidget::Changed</text>
</a>
</g>
</g>
<!-- Node1&#45;&gt;Node4 -->
<g id="edge3" class="edge"><title>Node1&#45;&gt;Node4</title>
<path fill="none" stroke="midnightblue" d="M130.147,-97.0865C138.692,-95.1816 147.415,-93.2372 155.921,-91.3411"/>
<polygon fill="midnightblue" stroke="midnightblue" points="129.219,-93.7074 120.22,-99.2993 130.742,-100.54 129.219,-93.7074"/>
</g>
<!-- Node3 -->
<g id="node3" class="node"><title>Node3</title>
<g id="a_node3"><a xlink:href="../../df/d1e/classoperational_1_1madiator_1_1_list_box.html#aaeffbf7d3a93d543c037ba743c5c0a79" target="_top" xlink:title="operational::madiator\l::ListBox::HandleMouse">
<polygon fill="white" stroke="black" points="344.5,-147.5 344.5,-177.5 465.5,-177.5 465.5,-147.5 344.5,-147.5"/>
<text text-anchor="start" x="352.5" y="-165.5" font-family="Helvetica,sans-Serif" font-size="10.00">operational::madiator</text>
<text text-anchor="middle" x="405" y="-154.5" font-family="Helvetica,sans-Serif" font-size="10.00">::ListBox::HandleMouse</text>
</a>
</g>
</g>
<!-- Node2&#45;&gt;Node3 -->
<g id="edge2" class="edge"><title>Node2&#45;&gt;Node3</title>
<path fill="none" stroke="midnightblue" d="M287.442,-154.058C305.892,-155.395 326.007,-156.851 344.252,-158.173"/>
<polygon fill="midnightblue" stroke="midnightblue" points="287.612,-150.562 277.385,-153.33 287.106,-157.543 287.612,-150.562"/>
</g>
<!-- Node5 -->
<g id="node5" class="node"><title>Node5</title>
<g id="a_node5"><a xlink:href="../../d7/d87/classoperational_1_1madiator_1_1_entry_field.html#aa8589bf22cc442cf305f769821d27669" target="_top" xlink:title="operational::madiator\l::EntryField::HandleMouse">
<polygon fill="white" stroke="black" points="339,-98.5 339,-128.5 471,-128.5 471,-98.5 339,-98.5"/>
<text text-anchor="start" x="347" y="-116.5" font-family="Helvetica,sans-Serif" font-size="10.00">operational::madiator</text>
<text text-anchor="middle" x="405" y="-105.5" font-family="Helvetica,sans-Serif" font-size="10.00">::EntryField::HandleMouse</text>
</a>
</g>
</g>
<!-- Node4&#45;&gt;Node5 -->
<g id="edge4" class="edge"><title>Node4&#45;&gt;Node5</title>
<path fill="none" stroke="midnightblue" d="M301.047,-92.2786C313.589,-94.8638 326.482,-97.5214 338.718,-100.044"/>
<polygon fill="midnightblue" stroke="midnightblue" points="301.585,-88.8158 291.084,-90.2249 300.172,-95.6717 301.585,-88.8158"/>
</g>
<!-- Node6 -->
<g id="node6" class="node"><title>Node6</title>
<g id="a_node6"><a xlink:href="../../d3/d5c/classoperational_1_1madiator_1_1_mediator_button.html#a131848edca98f1084f3edac0b4fcca8c" target="_top" xlink:title="operational::madiator\l::MediatorButton::HandleMouse">
<polygon fill="white" stroke="black" points="328,-49.5 328,-79.5 482,-79.5 482,-49.5 328,-49.5"/>
<text text-anchor="start" x="336" y="-67.5" font-family="Helvetica,sans-Serif" font-size="10.00">operational::madiator</text>
<text text-anchor="middle" x="405" y="-56.5" font-family="Helvetica,sans-Serif" font-size="10.00">::MediatorButton::HandleMouse</text>
</a>
</g>
</g>
<!-- Node4&#45;&gt;Node6 -->
<g id="edge5" class="edge"><title>Node4&#45;&gt;Node6</title>
<path fill="none" stroke="midnightblue" d="M301.305,-71.3654C310.096,-70.7777 319.057,-70.1787 327.839,-69.5915"/>
<polygon fill="midnightblue" stroke="midnightblue" points="300.828,-67.8894 291.084,-72.0487 301.295,-74.8738 300.828,-67.8894"/>
</g>
<!-- Node7 -->
<g id="node7" class="node"><title>Node7</title>
<g id="a_node7"><a xlink:href="../../da/dd3/classoperational_1_1madiator_1_1_mediator_widget.html#ae3c18c9b8f8a66c4b5ccdfd184d37750" target="_top" xlink:title="operational::madiator\l::MediatorWidget::HandleMouse">
<polygon fill="white" stroke="black" points="327,-0.5 327,-30.5 483,-30.5 483,-0.5 327,-0.5"/>
<text text-anchor="start" x="335" y="-18.5" font-family="Helvetica,sans-Serif" font-size="10.00">operational::madiator</text>
<text text-anchor="middle" x="405" y="-7.5" font-family="Helvetica,sans-Serif" font-size="10.00">::MediatorWidget::HandleMouse</text>
</a>
</g>
</g>
<!-- Node4&#45;&gt;Node7 -->
<g id="edge6" class="edge"><title>Node4&#45;&gt;Node7</title>
<path fill="none" stroke="midnightblue" d="M276.603,-57.9308C292.73,-52.2557 310.575,-46.0499 327,-40.5 336.72,-37.2156 347.158,-33.7715 357.114,-30.5258"/>
<polygon fill="midnightblue" stroke="midnightblue" points="275.077,-54.7576 266.811,-61.3852 277.406,-61.3589 275.077,-54.7576"/>
</g>
</g>
</svg>
