<?xml version="1.0" encoding="UTF-8" standalone="no"?>
<!DOCTYPE svg PUBLIC "-//W3C//DTD SVG 1.1//EN"
 "http://www.w3.org/Graphics/SVG/1.1/DTD/svg11.dtd">
<!-- Generated by graphviz version 2.38.0 (20140413.2041)
 -->
<!-- Title: src/operational/src/state/tcp_established.cc Pages: 1 -->
<svg width="168pt" height="263pt"
 viewBox="0.00 0.00 168.00 263.00" xmlns="http://www.w3.org/2000/svg" xmlns:xlink="http://www.w3.org/1999/xlink">
<g id="graph0" class="graph" transform="scale(1 1) rotate(0) translate(4 259)">
<title>src/operational/src/state/tcp_established.cc</title>
<polygon fill="white" stroke="none" points="-4,4 -4,-259 164,-259 164,4 -4,4"/>
<!-- Node1 -->
<g id="node1" class="node"><title>Node1</title>
<polygon fill="#bfbfbf" stroke="black" points="31.5,-224.5 31.5,-254.5 157.5,-254.5 157.5,-224.5 31.5,-224.5"/>
<text text-anchor="start" x="39.5" y="-242.5" font-family="Helvetica,sans-Serif" font-size="10.00">src/operational/src</text>
<text text-anchor="middle" x="94.5" y="-231.5" font-family="Helvetica,sans-Serif" font-size="10.00">/state/tcp_established.cc</text>
</g>
<!-- Node2 -->
<g id="node2" class="node"><title>Node2</title>
<g id="a_node2"><a xlink:href="../../d5/d08/tcp__established_8h.html" target="_top" xlink:title="tcp_established.h">
<polygon fill="white" stroke="black" points="48,-168.5 48,-187.5 141,-187.5 141,-168.5 48,-168.5"/>
<text text-anchor="middle" x="94.5" y="-175.5" font-family="Helvetica,sans-Serif" font-size="10.00">tcp_established.h</text>
</a>
</g>
</g>
<!-- Node1&#45;&gt;Node2 -->
<g id="edge1" class="edge"><title>Node1&#45;&gt;Node2</title>
<path fill="none" stroke="midnightblue" d="M94.5,-224.399C94.5,-216.466 94.5,-206.458 94.5,-197.858"/>
<polygon fill="midnightblue" stroke="midnightblue" points="98.0001,-197.658 94.5,-187.658 91.0001,-197.658 98.0001,-197.658"/>
</g>
<!-- Node3 -->
<g id="node3" class="node"><title>Node3</title>
<g id="a_node3"><a xlink:href="../../da/dcf/tcp__state_8h.html" target="_top" xlink:title="tcp_state.h">
<polygon fill="white" stroke="black" points="62,-112.5 62,-131.5 127,-131.5 127,-112.5 62,-112.5"/>
<text text-anchor="middle" x="94.5" y="-119.5" font-family="Helvetica,sans-Serif" font-size="10.00">tcp_state.h</text>
</a>
</g>
</g>
<!-- Node2&#45;&gt;Node3 -->
<g id="edge2" class="edge"><title>Node2&#45;&gt;Node3</title>
<path fill="none" stroke="midnightblue" d="M94.5,-168.083C94.5,-161.006 94.5,-150.861 94.5,-141.986"/>
<polygon fill="midnightblue" stroke="midnightblue" points="98.0001,-141.751 94.5,-131.751 91.0001,-141.751 98.0001,-141.751"/>
</g>
<!-- Node4 -->
<g id="node4" class="node"><title>Node4</title>
<g id="a_node4"><a xlink:href="../../d1/df0/tcp__connection_8h.html" target="_top" xlink:title="tcp_connection.h">
<polygon fill="white" stroke="black" points="49,-56.5 49,-75.5 140,-75.5 140,-56.5 49,-56.5"/>
<text text-anchor="middle" x="94.5" y="-63.5" font-family="Helvetica,sans-Serif" font-size="10.00">tcp_connection.h</text>
</a>
</g>
</g>
<!-- Node3&#45;&gt;Node4 -->
<g id="edge3" class="edge"><title>Node3&#45;&gt;Node4</title>
<path fill="none" stroke="midnightblue" d="M94.5,-112.083C94.5,-105.006 94.5,-94.8611 94.5,-85.9865"/>
<polygon fill="midnightblue" stroke="midnightblue" points="98.0001,-85.751 94.5,-75.7511 91.0001,-85.7511 98.0001,-85.751"/>
</g>
<!-- Node5 -->
<g id="node5" class="node"><title>Node5</title>
<g id="a_node5"><a xlink:href="../../df/d13/tcp__octet__stream_8h.html" target="_top" xlink:title="tcp_octet_stream.h">
<polygon fill="white" stroke="black" points="0,-0.5 0,-19.5 101,-19.5 101,-0.5 0,-0.5"/>
<text text-anchor="middle" x="50.5" y="-7.5" font-family="Helvetica,sans-Serif" font-size="10.00">tcp_octet_stream.h</text>
</a>
</g>
</g>
<!-- Node4&#45;&gt;Node5 -->
<g id="edge4" class="edge"><title>Node4&#45;&gt;Node5</title>
<path fill="none" stroke="midnightblue" d="M87.2343,-56.083C80.9552,-48.3768 71.7124,-37.0333 64.0692,-27.6531"/>
<polygon fill="midnightblue" stroke="midnightblue" points="66.6606,-25.2926 57.6305,-19.7511 61.2339,-29.7143 66.6606,-25.2926"/>
</g>
<!-- Node6 -->
<g id="node6" class="node"><title>Node6</title>
<polygon fill="white" stroke="#bfbfbf" points="119,-0.5 119,-19.5 160,-19.5 160,-0.5 119,-0.5"/>
<text text-anchor="middle" x="139.5" y="-7.5" font-family="Helvetica,sans-Serif" font-size="10.00">string</text>
</g>
<!-- Node4&#45;&gt;Node6 -->
<g id="edge5" class="edge"><title>Node4&#45;&gt;Node6</title>
<path fill="none" stroke="midnightblue" d="M101.931,-56.083C108.353,-48.3768 117.806,-37.0333 125.622,-27.6531"/>
<polygon fill="midnightblue" stroke="midnightblue" points="128.494,-29.674 132.207,-19.7511 123.117,-25.1927 128.494,-29.674"/>
</g>
</g>
</svg>
