<?xml version="1.0" encoding="UTF-8" standalone="no"?>
<!DOCTYPE svg PUBLIC "-//W3C//DTD SVG 1.1//EN"
 "http://www.w3.org/Graphics/SVG/1.1/DTD/svg11.dtd">
<!-- Generated by graphviz version 2.38.0 (20140413.2041)
 -->
<!-- Title: src/structural/src/facade/program_node_builder.cc Pages: 1 -->
<svg width="713pt" height="408pt"
 viewBox="0.00 0.00 712.98 408.00" xmlns="http://www.w3.org/2000/svg" xmlns:xlink="http://www.w3.org/1999/xlink">
<g id="graph0" class="graph" transform="scale(1 1) rotate(0) translate(4 404)">
<title>src/structural/src/facade/program_node_builder.cc</title>
<polygon fill="white" stroke="none" points="-4,4 -4,-404 708.983,-404 708.983,4 -4,4"/>
<!-- Node1 -->
<g id="node1" class="node"><title>Node1</title>
<polygon fill="#bfbfbf" stroke="black" points="308.144,-358.5 308.144,-399.5 421.144,-399.5 421.144,-358.5 308.144,-358.5"/>
<text text-anchor="start" x="316.144" y="-387.5" font-family="Helvetica,sans-Serif" font-size="10.00">src/structural/src</text>
<text text-anchor="start" x="316.144" y="-376.5" font-family="Helvetica,sans-Serif" font-size="10.00">/facade/program_node</text>
<text text-anchor="middle" x="364.644" y="-365.5" font-family="Helvetica,sans-Serif" font-size="10.00">_builder.cc</text>
</g>
<!-- Node2 -->
<g id="node2" class="node"><title>Node2</title>
<g id="a_node2"><a xlink:href="../../d2/d57/program__node__builder_8h.html" target="_top" xlink:title="program_node_builder.h">
<polygon fill="white" stroke="black" points="352.644,-302.5 352.644,-321.5 472.644,-321.5 472.644,-302.5 352.644,-302.5"/>
<text text-anchor="middle" x="412.644" y="-309.5" font-family="Helvetica,sans-Serif" font-size="10.00">program_node_builder.h</text>
</a>
</g>
</g>
<!-- Node1&#45;&gt;Node2 -->
<g id="edge1" class="edge"><title>Node1&#45;&gt;Node2</title>
<path fill="none" stroke="midnightblue" d="M379.046,-358.498C385.768,-349.395 393.694,-338.662 400.158,-329.908"/>
<polygon fill="midnightblue" stroke="midnightblue" points="403.13,-331.776 406.255,-321.652 397.499,-327.618 403.13,-331.776"/>
</g>
<!-- Node10 -->
<g id="node10" class="node"><title>Node10</title>
<g id="a_node10"><a xlink:href="../../d3/da1/variable__node_8h.html" target="_top" xlink:title="variable_node.h">
<polygon fill="white" stroke="black" points="262.144,-241 262.144,-260 345.144,-260 345.144,-241 262.144,-241"/>
<text text-anchor="middle" x="303.644" y="-248" font-family="Helvetica,sans-Serif" font-size="10.00">variable_node.h</text>
</a>
</g>
</g>
<!-- Node1&#45;&gt;Node10 -->
<g id="edge12" class="edge"><title>Node1&#45;&gt;Node10</title>
<path fill="none" stroke="midnightblue" d="M355.113,-358.234C343.379,-333.901 323.62,-292.925 312.302,-269.454"/>
<polygon fill="midnightblue" stroke="midnightblue" points="315.381,-267.782 307.885,-260.295 309.076,-270.822 315.381,-267.782"/>
</g>
<!-- Node3 -->
<g id="node3" class="node"><title>Node3</title>
<g id="a_node3"><a xlink:href="../../da/dc8/program__node__builder__interface_8h.html" target="_top" xlink:title="program_node_builder\l_interface.h">
<polygon fill="white" stroke="black" points="380.644,-235.5 380.644,-265.5 492.644,-265.5 492.644,-235.5 380.644,-235.5"/>
<text text-anchor="start" x="388.644" y="-253.5" font-family="Helvetica,sans-Serif" font-size="10.00">program_node_builder</text>
<text text-anchor="middle" x="436.644" y="-242.5" font-family="Helvetica,sans-Serif" font-size="10.00">_interface.h</text>
</a>
</g>
</g>
<!-- Node2&#45;&gt;Node3 -->
<g id="edge2" class="edge"><title>Node2&#45;&gt;Node3</title>
<path fill="none" stroke="midnightblue" d="M416.083,-302.475C418.969,-295.32 423.233,-284.748 427.131,-275.084"/>
<polygon fill="midnightblue" stroke="midnightblue" points="430.493,-276.106 430.988,-265.523 424.001,-273.488 430.493,-276.106"/>
</g>
<!-- Node4 -->
<g id="node4" class="node"><title>Node4</title>
<g id="a_node4"><a xlink:href="../../dc/d6c/program__node__interface_8h.html" target="_top" xlink:title="program_node_interface.h">
<polygon fill="white" stroke="black" points="372.644,-174 372.644,-193 500.644,-193 500.644,-174 372.644,-174"/>
<text text-anchor="middle" x="436.644" y="-181" font-family="Helvetica,sans-Serif" font-size="10.00">program_node_interface.h</text>
</a>
</g>
</g>
<!-- Node3&#45;&gt;Node4 -->
<g id="edge3" class="edge"><title>Node3&#45;&gt;Node4</title>
<path fill="none" stroke="midnightblue" d="M436.644,-235.396C436.644,-226.064 436.644,-213.714 436.644,-203.517"/>
<polygon fill="midnightblue" stroke="midnightblue" points="440.144,-203.195 436.644,-193.195 433.144,-203.195 440.144,-203.195"/>
</g>
<!-- Node7 -->
<g id="node7" class="node"><title>Node7</title>
<polygon fill="white" stroke="#bfbfbf" points="434.144,-0.5 434.144,-19.5 475.144,-19.5 475.144,-0.5 434.144,-0.5"/>
<text text-anchor="middle" x="454.644" y="-7.5" font-family="Helvetica,sans-Serif" font-size="10.00">string</text>
</g>
<!-- Node3&#45;&gt;Node7 -->
<g id="edge11" class="edge"><title>Node3&#45;&gt;Node7</title>
<path fill="none" stroke="midnightblue" d="M486.003,-235.498C577.46,-207.173 757.996,-138.683 689.644,-56 664.096,-25.095 543.433,-15.2107 485.644,-12.2185"/>
<polygon fill="midnightblue" stroke="midnightblue" points="485.452,-8.70539 475.296,-11.7221 485.117,-15.6973 485.452,-8.70539"/>
</g>
<!-- Node5 -->
<g id="node5" class="node"><title>Node5</title>
<g id="a_node5"><a xlink:href="../../d7/df5/code__generator__interface_8h.html" target="_top" xlink:title="code_generator_interface.h">
<polygon fill="white" stroke="black" points="378.644,-112.5 378.644,-131.5 512.644,-131.5 512.644,-112.5 378.644,-112.5"/>
<text text-anchor="middle" x="445.644" y="-119.5" font-family="Helvetica,sans-Serif" font-size="10.00">code_generator_interface.h</text>
</a>
</g>
</g>
<!-- Node4&#45;&gt;Node5 -->
<g id="edge4" class="edge"><title>Node4&#45;&gt;Node5</title>
<path fill="none" stroke="midnightblue" d="M437.934,-173.975C439.204,-165.58 441.185,-152.481 442.821,-141.663"/>
<polygon fill="midnightblue" stroke="midnightblue" points="446.322,-141.92 444.357,-131.509 439.401,-140.873 446.322,-141.92"/>
</g>
<!-- Node6 -->
<g id="node6" class="node"><title>Node6</title>
<g id="a_node6"><a xlink:href="../../d9/d24/expression__node__interface_8h.html" target="_top" xlink:title="expression_node_interface.h">
<polygon fill="white" stroke="black" points="384.644,-56.5 384.644,-75.5 524.644,-75.5 524.644,-56.5 384.644,-56.5"/>
<text text-anchor="middle" x="454.644" y="-63.5" font-family="Helvetica,sans-Serif" font-size="10.00">expression_node_interface.h</text>
</a>
</g>
</g>
<!-- Node5&#45;&gt;Node6 -->
<g id="edge5" class="edge"><title>Node5&#45;&gt;Node6</title>
<path fill="none" stroke="midnightblue" d="M447.13,-112.083C448.323,-104.927 450.038,-94.6353 451.529,-85.6911"/>
<polygon fill="midnightblue" stroke="midnightblue" points="454.994,-86.1904 453.186,-75.7511 448.089,-85.0396 454.994,-86.1904"/>
</g>
<!-- Node8 -->
<g id="node8" class="node"><title>Node8</title>
<g id="a_node8"><a xlink:href="../../dd/d4b/statement__node__interface_8h.html" target="_top" xlink:title="statement_node_interface.h">
<polygon fill="white" stroke="black" points="543.144,-56.5 543.144,-75.5 680.144,-75.5 680.144,-56.5 543.144,-56.5"/>
<text text-anchor="middle" x="611.644" y="-63.5" font-family="Helvetica,sans-Serif" font-size="10.00">statement_node_interface.h</text>
</a>
</g>
</g>
<!-- Node5&#45;&gt;Node8 -->
<g id="edge7" class="edge"><title>Node5&#45;&gt;Node8</title>
<path fill="none" stroke="midnightblue" d="M471.948,-112.444C499.995,-103.32 544.589,-88.8133 575.829,-78.6509"/>
<polygon fill="midnightblue" stroke="midnightblue" points="577.037,-81.9383 585.464,-75.5164 574.872,-75.2816 577.037,-81.9383"/>
</g>
<!-- Node9 -->
<g id="node9" class="node"><title>Node9</title>
<g id="a_node9"><a xlink:href="../../df/d19/variable__node__interface_8h.html" target="_top" xlink:title="variable_node_interface.h">
<polygon fill="white" stroke="black" points="241.144,-56.5 241.144,-75.5 366.144,-75.5 366.144,-56.5 241.144,-56.5"/>
<text text-anchor="middle" x="303.644" y="-63.5" font-family="Helvetica,sans-Serif" font-size="10.00">variable_node_interface.h</text>
</a>
</g>
</g>
<!-- Node5&#45;&gt;Node9 -->
<g id="edge9" class="edge"><title>Node5&#45;&gt;Node9</title>
<path fill="none" stroke="midnightblue" d="M423.144,-112.444C399.567,-103.478 362.322,-89.314 335.68,-79.1827"/>
<polygon fill="midnightblue" stroke="midnightblue" points="336.63,-75.7995 326.039,-75.5164 334.142,-82.3424 336.63,-75.7995"/>
</g>
<!-- Node6&#45;&gt;Node7 -->
<g id="edge6" class="edge"><title>Node6&#45;&gt;Node7</title>
<path fill="none" stroke="midnightblue" d="M454.644,-56.083C454.644,-49.0059 454.644,-38.8611 454.644,-29.9865"/>
<polygon fill="midnightblue" stroke="midnightblue" points="458.144,-29.751 454.644,-19.7511 451.144,-29.7511 458.144,-29.751"/>
</g>
<!-- Node8&#45;&gt;Node7 -->
<g id="edge8" class="edge"><title>Node8&#45;&gt;Node7</title>
<path fill="none" stroke="midnightblue" d="M586.767,-56.4435C559.232,-46.973 514.837,-31.7032 485.207,-21.512"/>
<polygon fill="midnightblue" stroke="midnightblue" points="485.989,-18.0797 475.394,-18.1368 483.712,-24.6991 485.989,-18.0797"/>
</g>
<!-- Node9&#45;&gt;Node7 -->
<g id="edge10" class="edge"><title>Node9&#45;&gt;Node7</title>
<path fill="none" stroke="midnightblue" d="M327.571,-56.4435C353.756,-47.0794 395.795,-32.0456 424.284,-21.8574"/>
<polygon fill="midnightblue" stroke="midnightblue" points="425.51,-25.136 433.748,-18.473 423.153,-18.5448 425.51,-25.136"/>
</g>
<!-- Node10&#45;&gt;Node4 -->
<g id="edge14" class="edge"><title>Node10&#45;&gt;Node4</title>
<path fill="none" stroke="midnightblue" d="M321.306,-240.869C343.961,-229.796 383.473,-210.486 409.844,-197.598"/>
<polygon fill="midnightblue" stroke="midnightblue" points="411.462,-200.703 418.91,-193.167 408.389,-194.414 411.462,-200.703"/>
</g>
<!-- Node10&#45;&gt;Node7 -->
<g id="edge15" class="edge"><title>Node10&#45;&gt;Node7</title>
<path fill="none" stroke="midnightblue" d="M266.742,-240.988C172.238,-217.616 -65.3884,-148.022 17.6443,-56 44.8261,-25.8755 328.772,-14.7391 423.832,-11.8384"/>
<polygon fill="midnightblue" stroke="midnightblue" points="424.063,-15.3331 433.956,-11.5391 423.857,-8.3362 424.063,-15.3331"/>
</g>
<!-- Node10&#45;&gt;Node9 -->
<g id="edge13" class="edge"><title>Node10&#45;&gt;Node9</title>
<path fill="none" stroke="midnightblue" d="M303.644,-240.698C303.644,-212.693 303.644,-125.213 303.644,-86.1598"/>
<polygon fill="midnightblue" stroke="midnightblue" points="307.144,-85.714 303.644,-75.714 300.144,-85.7141 307.144,-85.714"/>
</g>
<!-- Node11 -->
<g id="node11" class="node"><title>Node11</title>
<g id="a_node11"><a xlink:href="../../da/d23/list_8h.html" target="_top" xlink:title="../../../operational\l/src/iterator/list.h">
<polygon fill="white" stroke="black" points="161.144,-168.5 161.144,-198.5 252.144,-198.5 252.144,-168.5 161.144,-168.5"/>
<text text-anchor="start" x="169.144" y="-186.5" font-family="Helvetica,sans-Serif" font-size="10.00">../../../operational</text>
<text text-anchor="middle" x="206.644" y="-175.5" font-family="Helvetica,sans-Serif" font-size="10.00">/src/iterator/list.h</text>
</a>
</g>
</g>
<!-- Node10&#45;&gt;Node11 -->
<g id="edge16" class="edge"><title>Node10&#45;&gt;Node11</title>
<path fill="none" stroke="midnightblue" d="M290.562,-240.734C276.697,-231.443 254.34,-216.461 236.187,-204.297"/>
<polygon fill="midnightblue" stroke="midnightblue" points="237.925,-201.248 227.669,-198.589 234.028,-207.063 237.925,-201.248"/>
</g>
<!-- Node12 -->
<g id="node12" class="node"><title>Node12</title>
<g id="a_node12"><a xlink:href="../../d9/d71/list__iterator_8h.html" target="_top" xlink:title="list_iterator.h">
<polygon fill="white" stroke="black" points="105.144,-112.5 105.144,-131.5 178.144,-131.5 178.144,-112.5 105.144,-112.5"/>
<text text-anchor="middle" x="141.644" y="-119.5" font-family="Helvetica,sans-Serif" font-size="10.00">list_iterator.h</text>
</a>
</g>
</g>
<!-- Node11&#45;&gt;Node12 -->
<g id="edge17" class="edge"><title>Node11&#45;&gt;Node12</title>
<path fill="none" stroke="midnightblue" d="M191.24,-168.399C181.405,-159.397 168.651,-147.721 158.539,-138.465"/>
<polygon fill="midnightblue" stroke="midnightblue" points="160.842,-135.828 151.102,-131.658 156.115,-140.992 160.842,-135.828"/>
</g>
<!-- Node14 -->
<g id="node14" class="node"><title>Node14</title>
<g id="a_node14"><a xlink:href="../../dd/d8c/list__interface_8h.html" target="_top" xlink:title="list_interface.h">
<polygon fill="white" stroke="black" points="142.644,-56.5 142.644,-75.5 222.644,-75.5 222.644,-56.5 142.644,-56.5"/>
<text text-anchor="middle" x="182.644" y="-63.5" font-family="Helvetica,sans-Serif" font-size="10.00">list_interface.h</text>
</a>
</g>
</g>
<!-- Node11&#45;&gt;Node14 -->
<g id="edge20" class="edge"><title>Node11&#45;&gt;Node14</title>
<path fill="none" stroke="midnightblue" d="M203.701,-168.337C199.377,-147.527 191.302,-108.663 186.506,-85.5834"/>
<polygon fill="midnightblue" stroke="midnightblue" points="189.907,-84.7482 184.446,-75.6695 183.054,-86.1724 189.907,-84.7482"/>
</g>
<!-- Node13 -->
<g id="node13" class="node"><title>Node13</title>
<g id="a_node13"><a xlink:href="../../d6/da4/iterator__interface_8h.html" target="_top" xlink:title="iterator_interface.h">
<polygon fill="white" stroke="black" points="27.1443,-56.5 27.1443,-75.5 124.144,-75.5 124.144,-56.5 27.1443,-56.5"/>
<text text-anchor="middle" x="75.6443" y="-63.5" font-family="Helvetica,sans-Serif" font-size="10.00">iterator_interface.h</text>
</a>
</g>
</g>
<!-- Node12&#45;&gt;Node13 -->
<g id="edge18" class="edge"><title>Node12&#45;&gt;Node13</title>
<path fill="none" stroke="midnightblue" d="M131.04,-112.324C121.188,-104.263 106.293,-92.0765 94.4292,-82.3695"/>
<polygon fill="midnightblue" stroke="midnightblue" points="96.3973,-79.4575 86.4413,-75.8339 91.9646,-84.8752 96.3973,-79.4575"/>
</g>
<!-- Node12&#45;&gt;Node14 -->
<g id="edge19" class="edge"><title>Node12&#45;&gt;Node14</title>
<path fill="none" stroke="midnightblue" d="M148.415,-112.083C154.206,-104.455 162.703,-93.2645 169.782,-83.9408"/>
<polygon fill="midnightblue" stroke="midnightblue" points="172.74,-85.8321 176,-75.7511 167.165,-81.5991 172.74,-85.8321"/>
</g>
</g>
</svg>
