<?xml version="1.0" encoding="UTF-8" standalone="no"?>
<!DOCTYPE svg PUBLIC "-//W3C//DTD SVG 1.1//EN"
 "http://www.w3.org/Graphics/SVG/1.1/DTD/svg11.dtd">
<!-- Generated by graphviz version 2.38.0 (20140413.2041)
 -->
<!-- Title: src/operational/src/strategy/array_compositor.h Pages: 1 -->
<svg width="282pt" height="117pt"
 viewBox="0.00 0.00 282.00 117.00" xmlns="http://www.w3.org/2000/svg" xmlns:xlink="http://www.w3.org/1999/xlink">
<g id="graph0" class="graph" transform="scale(1 1) rotate(0) translate(4 113)">
<title>src/operational/src/strategy/array_compositor.h</title>
<polygon fill="white" stroke="none" points="-4,4 -4,-113 278,-113 278,4 -4,4"/>
<!-- Node1 -->
<g id="node1" class="node"><title>Node1</title>
<polygon fill="#bfbfbf" stroke="black" points="75.5,-78.5 75.5,-108.5 216.5,-108.5 216.5,-78.5 75.5,-78.5"/>
<text text-anchor="start" x="83.5" y="-96.5" font-family="Helvetica,sans-Serif" font-size="10.00">src/operational/src</text>
<text text-anchor="middle" x="146" y="-85.5" font-family="Helvetica,sans-Serif" font-size="10.00">/strategy/array_compositor.h</text>
</g>
<!-- Node2 -->
<g id="node2" class="node"><title>Node2</title>
<g id="a_node2"><a xlink:href="../../d3/d80/array__compositor_8cc.html" target="_top" xlink:title="src/operational/src\l/strategy/array_compositor.cc">
<polygon fill="white" stroke="black" points="0,-6 0,-36 146,-36 146,-6 0,-6"/>
<text text-anchor="start" x="8" y="-24" font-family="Helvetica,sans-Serif" font-size="10.00">src/operational/src</text>
<text text-anchor="middle" x="73" y="-13" font-family="Helvetica,sans-Serif" font-size="10.00">/strategy/array_compositor.cc</text>
</a>
</g>
</g>
<!-- Node1&#45;&gt;Node2 -->
<g id="edge1" class="edge"><title>Node1&#45;&gt;Node2</title>
<path fill="none" stroke="midnightblue" d="M123.932,-71.188C112.216,-59.8729 98.1349,-46.2741 87.7507,-36.2455"/>
<polygon fill="midnightblue" stroke="midnightblue" points="121.603,-73.804 131.227,-78.2333 126.466,-68.7688 121.603,-73.804"/>
</g>
<!-- Node3 -->
<g id="node3" class="node"><title>Node3</title>
<g id="a_node3"><a xlink:href="../../d2/dba/strategy__test_8cc.html" target="_top" xlink:title="src/operational_tests\l/src/strategy/strategy\l_test.cc">
<polygon fill="white" stroke="black" points="164,-0.5 164,-41.5 274,-41.5 274,-0.5 164,-0.5"/>
<text text-anchor="start" x="172" y="-29.5" font-family="Helvetica,sans-Serif" font-size="10.00">src/operational_tests</text>
<text text-anchor="start" x="172" y="-18.5" font-family="Helvetica,sans-Serif" font-size="10.00">/src/strategy/strategy</text>
<text text-anchor="middle" x="219" y="-7.5" font-family="Helvetica,sans-Serif" font-size="10.00">_test.cc</text>
</a>
</g>
</g>
<!-- Node1&#45;&gt;Node3 -->
<g id="edge2" class="edge"><title>Node1&#45;&gt;Node3</title>
<path fill="none" stroke="midnightblue" d="M168.158,-71.1007C177.881,-61.7107 189.219,-50.7615 198.717,-41.5884"/>
<polygon fill="midnightblue" stroke="midnightblue" points="165.534,-68.7688 160.773,-78.2333 170.397,-73.804 165.534,-68.7688"/>
</g>
</g>
</svg>
