<?xml version="1.0" encoding="UTF-8" standalone="no"?>
<!DOCTYPE svg PUBLIC "-//W3C//DTD SVG 1.1//EN"
 "http://www.w3.org/Graphics/SVG/1.1/DTD/svg11.dtd">
<!-- Generated by graphviz version 2.38.0 (20140413.2041)
 -->
<!-- Title: operational::visitor::ChassisInterface::GetPrice Pages: 1 -->
<svg width="324pt" height="39pt"
 viewBox="0.00 0.00 324.00 39.00" xmlns="http://www.w3.org/2000/svg" xmlns:xlink="http://www.w3.org/1999/xlink">
<g id="graph0" class="graph" transform="scale(1 1) rotate(0) translate(4 35)">
<title>operational::visitor::ChassisInterface::GetPrice</title>
<polygon fill="white" stroke="none" points="-4,4 -4,-35 320,-35 320,4 -4,4"/>
<!-- Node1 -->
<g id="node1" class="node"><title>Node1</title>
<polygon fill="#bfbfbf" stroke="black" points="0,-0.5 0,-30.5 139,-30.5 139,-0.5 0,-0.5"/>
<text text-anchor="start" x="8" y="-18.5" font-family="Helvetica,sans-Serif" font-size="10.00">operational::visitor</text>
<text text-anchor="middle" x="69.5" y="-7.5" font-family="Helvetica,sans-Serif" font-size="10.00">::ChassisInterface::GetPrice</text>
</g>
<!-- Node2 -->
<g id="node2" class="node"><title>Node2</title>
<g id="a_node2"><a xlink:href="../../d6/d7b/classoperational_1_1visitor_1_1_pricing_visitor.html#a2cb7965f54edceb26735bc496320f9c8" target="_top" xlink:title="operational::visitor\l::PricingVisitor::VisitChassis">
<polygon fill="white" stroke="black" points="175,-0.5 175,-30.5 316,-30.5 316,-0.5 175,-0.5"/>
<text text-anchor="start" x="183" y="-18.5" font-family="Helvetica,sans-Serif" font-size="10.00">operational::visitor</text>
<text text-anchor="middle" x="245.5" y="-7.5" font-family="Helvetica,sans-Serif" font-size="10.00">::PricingVisitor::VisitChassis</text>
</a>
</g>
</g>
<!-- Node1&#45;&gt;Node2 -->
<g id="edge1" class="edge"><title>Node1&#45;&gt;Node2</title>
<path fill="none" stroke="midnightblue" d="M149.495,-15.5C157.937,-15.5 166.481,-15.5 174.804,-15.5"/>
<polygon fill="midnightblue" stroke="midnightblue" points="149.269,-12.0001 139.269,-15.5 149.269,-19.0001 149.269,-12.0001"/>
</g>
</g>
</svg>
