<?xml version="1.0" encoding="UTF-8" standalone="no"?>
<!DOCTYPE svg PUBLIC "-//W3C//DTD SVG 1.1//EN"
 "http://www.w3.org/Graphics/SVG/1.1/DTD/svg11.dtd">
<!-- Generated by graphviz version 2.38.0 (20140413.2041)
 -->
<!-- Title: src/operational/src/strategy/tex_compositor.h Pages: 1 -->
<svg width="274pt" height="117pt"
 viewBox="0.00 0.00 274.00 117.00" xmlns="http://www.w3.org/2000/svg" xmlns:xlink="http://www.w3.org/1999/xlink">
<g id="graph0" class="graph" transform="scale(1 1) rotate(0) translate(4 113)">
<title>src/operational/src/strategy/tex_compositor.h</title>
<polygon fill="white" stroke="none" points="-4,4 -4,-113 270,-113 270,4 -4,4"/>
<!-- Node1 -->
<g id="node1" class="node"><title>Node1</title>
<polygon fill="#bfbfbf" stroke="black" points="73.5,-78.5 73.5,-108.5 206.5,-108.5 206.5,-78.5 73.5,-78.5"/>
<text text-anchor="start" x="81.5" y="-96.5" font-family="Helvetica,sans-Serif" font-size="10.00">src/operational/src</text>
<text text-anchor="middle" x="140" y="-85.5" font-family="Helvetica,sans-Serif" font-size="10.00">/strategy/tex_compositor.h</text>
</g>
<!-- Node2 -->
<g id="node2" class="node"><title>Node2</title>
<g id="a_node2"><a xlink:href="../../df/d4e/tex__compositor_8cc.html" target="_top" xlink:title="src/operational/src\l/strategy/tex_compositor.cc">
<polygon fill="white" stroke="black" points="0,-6 0,-36 138,-36 138,-6 0,-6"/>
<text text-anchor="start" x="8" y="-24" font-family="Helvetica,sans-Serif" font-size="10.00">src/operational/src</text>
<text text-anchor="middle" x="69" y="-13" font-family="Helvetica,sans-Serif" font-size="10.00">/strategy/tex_compositor.cc</text>
</a>
</g>
</g>
<!-- Node1&#45;&gt;Node2 -->
<g id="edge1" class="edge"><title>Node1&#45;&gt;Node2</title>
<path fill="none" stroke="midnightblue" d="M118.211,-70.8641C106.881,-59.6142 93.35,-46.1786 83.3465,-36.2455"/>
<polygon fill="midnightblue" stroke="midnightblue" points="116.07,-73.6708 125.632,-78.2333 121.002,-68.7036 116.07,-73.6708"/>
</g>
<!-- Node3 -->
<g id="node3" class="node"><title>Node3</title>
<g id="a_node3"><a xlink:href="../../d2/dba/strategy__test_8cc.html" target="_top" xlink:title="src/operational_tests\l/src/strategy/strategy\l_test.cc">
<polygon fill="white" stroke="black" points="156,-0.5 156,-41.5 266,-41.5 266,-0.5 156,-0.5"/>
<text text-anchor="start" x="164" y="-29.5" font-family="Helvetica,sans-Serif" font-size="10.00">src/operational_tests</text>
<text text-anchor="start" x="164" y="-18.5" font-family="Helvetica,sans-Serif" font-size="10.00">/src/strategy/strategy</text>
<text text-anchor="middle" x="211" y="-7.5" font-family="Helvetica,sans-Serif" font-size="10.00">_test.cc</text>
</a>
</g>
</g>
<!-- Node1&#45;&gt;Node3 -->
<g id="edge2" class="edge"><title>Node1&#45;&gt;Node3</title>
<path fill="none" stroke="midnightblue" d="M161.551,-71.1007C171.008,-61.7107 182.034,-50.7615 191.273,-41.5884"/>
<polygon fill="midnightblue" stroke="midnightblue" points="158.998,-68.7036 154.368,-78.2333 163.93,-73.6708 158.998,-68.7036"/>
</g>
</g>
</svg>
