<?xml version="1.0" encoding="UTF-8" standalone="no"?>
<!DOCTYPE svg PUBLIC "-//W3C//DTD SVG 1.1//EN"
 "http://www.w3.org/Graphics/SVG/1.1/DTD/svg11.dtd">
<!-- Generated by graphviz version 2.38.0 (20140413.2041)
 -->
<!-- Title: structural::facade::VariableNodeInterface::name Pages: 1 -->
<svg width="301pt" height="50pt"
 viewBox="0.00 0.00 301.00 50.00" xmlns="http://www.w3.org/2000/svg" xmlns:xlink="http://www.w3.org/1999/xlink">
<g id="graph0" class="graph" transform="scale(1 1) rotate(0) translate(4 46)">
<title>structural::facade::VariableNodeInterface::name</title>
<polygon fill="white" stroke="none" points="-4,4 -4,-46 297,-46 297,4 -4,4"/>
<!-- Node1 -->
<g id="node1" class="node"><title>Node1</title>
<polygon fill="#bfbfbf" stroke="black" points="0,-6 0,-36 147,-36 147,-6 0,-6"/>
<text text-anchor="start" x="8" y="-24" font-family="Helvetica,sans-Serif" font-size="10.00">structural::facade</text>
<text text-anchor="middle" x="73.5" y="-13" font-family="Helvetica,sans-Serif" font-size="10.00">::VariableNodeInterface::name</text>
</g>
<!-- Node2 -->
<g id="node2" class="node"><title>Node2</title>
<g id="a_node2"><a xlink:href="../../d0/d8f/classstructural_1_1facade_1_1_r_i_s_c_code_generator.html#aff7eb93c3dd8fb524899cc5aa3c1faa4" target="_top" xlink:title="structural::facade\l::RISCCodeGenerator\l::Visit">
<polygon fill="white" stroke="black" points="183,-0.5 183,-41.5 293,-41.5 293,-0.5 183,-0.5"/>
<text text-anchor="start" x="191" y="-29.5" font-family="Helvetica,sans-Serif" font-size="10.00">structural::facade</text>
<text text-anchor="start" x="191" y="-18.5" font-family="Helvetica,sans-Serif" font-size="10.00">::RISCCodeGenerator</text>
<text text-anchor="middle" x="238" y="-7.5" font-family="Helvetica,sans-Serif" font-size="10.00">::Visit</text>
</a>
</g>
</g>
<!-- Node1&#45;&gt;Node2 -->
<g id="edge1" class="edge"><title>Node1&#45;&gt;Node2</title>
<path fill="none" stroke="midnightblue" d="M157.356,-21C166.022,-21 174.663,-21 182.886,-21"/>
<polygon fill="midnightblue" stroke="midnightblue" points="157.195,-17.5001 147.195,-21 157.195,-24.5001 157.195,-17.5001"/>
</g>
</g>
</svg>
