<?xml version="1.0" encoding="UTF-8" standalone="no"?>
<!DOCTYPE svg PUBLIC "-//W3C//DTD SVG 1.1//EN"
 "http://www.w3.org/Graphics/SVG/1.1/DTD/svg11.dtd">
<!-- Generated by graphviz version 2.38.0 (20140413.2041)
 -->
<!-- Title: src/creational/src/builder/maze_builder_interface.h Pages: 1 -->
<svg width="859pt" height="284pt"
 viewBox="0.00 0.00 859.00 284.00" xmlns="http://www.w3.org/2000/svg" xmlns:xlink="http://www.w3.org/1999/xlink">
<g id="graph0" class="graph" transform="scale(1 1) rotate(0) translate(4 280)">
<title>src/creational/src/builder/maze_builder_interface.h</title>
<polygon fill="white" stroke="none" points="-4,4 -4,-280 855,-280 855,4 -4,4"/>
<!-- Node1 -->
<g id="node1" class="node"><title>Node1</title>
<polygon fill="#bfbfbf" stroke="black" points="289,-234.5 289,-275.5 398,-275.5 398,-234.5 289,-234.5"/>
<text text-anchor="start" x="297" y="-263.5" font-family="Helvetica,sans-Serif" font-size="10.00">src/creational/src</text>
<text text-anchor="start" x="297" y="-252.5" font-family="Helvetica,sans-Serif" font-size="10.00">/builder/maze_builder</text>
<text text-anchor="middle" x="343.5" y="-241.5" font-family="Helvetica,sans-Serif" font-size="10.00">_interface.h</text>
</g>
<!-- Node2 -->
<g id="node2" class="node"><title>Node2</title>
<g id="a_node2"><a xlink:href="../../d2/dac/counting__maze__builder_8h.html" target="_top" xlink:title="src/creational/src\l/builder/counting_maze\l_builder.h">
<polygon fill="white" stroke="black" points="147,-156.5 147,-197.5 264,-197.5 264,-156.5 147,-156.5"/>
<text text-anchor="start" x="155" y="-185.5" font-family="Helvetica,sans-Serif" font-size="10.00">src/creational/src</text>
<text text-anchor="start" x="155" y="-174.5" font-family="Helvetica,sans-Serif" font-size="10.00">/builder/counting_maze</text>
<text text-anchor="middle" x="205.5" y="-163.5" font-family="Helvetica,sans-Serif" font-size="10.00">_builder.h</text>
</a>
</g>
</g>
<!-- Node1&#45;&gt;Node2 -->
<g id="edge1" class="edge"><title>Node1&#45;&gt;Node2</title>
<path fill="none" stroke="midnightblue" d="M298.987,-229.486C280.19,-219.134 258.607,-207.247 240.918,-197.506"/>
<polygon fill="midnightblue" stroke="midnightblue" points="297.514,-232.67 307.962,-234.428 300.891,-226.538 297.514,-232.67"/>
</g>
<!-- Node5 -->
<g id="node5" class="node"><title>Node5</title>
<g id="a_node5"><a xlink:href="../../dc/d33/standard__maze__builder_8h.html" target="_top" xlink:title="src/creational/src\l/builder/standard_maze\l_builder.h">
<polygon fill="white" stroke="black" points="284.5,-156.5 284.5,-197.5 402.5,-197.5 402.5,-156.5 284.5,-156.5"/>
<text text-anchor="start" x="292.5" y="-185.5" font-family="Helvetica,sans-Serif" font-size="10.00">src/creational/src</text>
<text text-anchor="start" x="292.5" y="-174.5" font-family="Helvetica,sans-Serif" font-size="10.00">/builder/standard_maze</text>
<text text-anchor="middle" x="343.5" y="-163.5" font-family="Helvetica,sans-Serif" font-size="10.00">_builder.h</text>
</a>
</g>
</g>
<!-- Node1&#45;&gt;Node5 -->
<g id="edge4" class="edge"><title>Node1&#45;&gt;Node5</title>
<path fill="none" stroke="midnightblue" d="M343.5,-224.297C343.5,-215.301 343.5,-205.653 343.5,-197.506"/>
<polygon fill="midnightblue" stroke="midnightblue" points="340,-224.428 343.5,-234.428 347,-224.428 340,-224.428"/>
</g>
<!-- Node7 -->
<g id="node7" class="node"><title>Node7</title>
<g id="a_node7"><a xlink:href="../../d2/df0/maze__game_8h.html" target="_top" xlink:title="src/creational/src\l/mazegame/maze_game.h">
<polygon fill="white" stroke="black" points="423.5,-162 423.5,-192 555.5,-192 555.5,-162 423.5,-162"/>
<text text-anchor="start" x="431.5" y="-180" font-family="Helvetica,sans-Serif" font-size="10.00">src/creational/src</text>
<text text-anchor="middle" x="489.5" y="-169" font-family="Helvetica,sans-Serif" font-size="10.00">/mazegame/maze_game.h</text>
</a>
</g>
</g>
<!-- Node1&#45;&gt;Node7 -->
<g id="edge7" class="edge"><title>Node1&#45;&gt;Node7</title>
<path fill="none" stroke="midnightblue" d="M389.976,-229.807C413.762,-217.425 441.896,-202.78 462.172,-192.225"/>
<polygon fill="midnightblue" stroke="midnightblue" points="388.353,-226.706 381.099,-234.428 391.585,-232.915 388.353,-226.706"/>
</g>
<!-- Node3 -->
<g id="node3" class="node"><title>Node3</title>
<g id="a_node3"><a xlink:href="../../d3/d4e/counting__maze__builder_8cc.html" target="_top" xlink:title="src/creational/src\l/builder/counting_maze\l_builder.cc">
<polygon fill="white" stroke="black" points="0,-78.5 0,-119.5 117,-119.5 117,-78.5 0,-78.5"/>
<text text-anchor="start" x="8" y="-107.5" font-family="Helvetica,sans-Serif" font-size="10.00">src/creational/src</text>
<text text-anchor="start" x="8" y="-96.5" font-family="Helvetica,sans-Serif" font-size="10.00">/builder/counting_maze</text>
<text text-anchor="middle" x="58.5" y="-85.5" font-family="Helvetica,sans-Serif" font-size="10.00">_builder.cc</text>
</a>
</g>
</g>
<!-- Node2&#45;&gt;Node3 -->
<g id="edge2" class="edge"><title>Node2&#45;&gt;Node3</title>
<path fill="none" stroke="midnightblue" d="M158.629,-151.768C138.479,-141.35 115.242,-129.336 96.2279,-119.506"/>
<polygon fill="midnightblue" stroke="midnightblue" points="157.153,-154.945 167.644,-156.428 160.368,-148.726 157.153,-154.945"/>
</g>
<!-- Node4 -->
<g id="node4" class="node"><title>Node4</title>
<g id="a_node4"><a xlink:href="../../d5/d51/maze__game__test_8cc.html" target="_top" xlink:title="src/creational_tests\l/src/mazegame/maze_game\l_test.cc">
<polygon fill="white" stroke="black" points="135.5,-78.5 135.5,-119.5 275.5,-119.5 275.5,-78.5 135.5,-78.5"/>
<text text-anchor="start" x="143.5" y="-107.5" font-family="Helvetica,sans-Serif" font-size="10.00">src/creational_tests</text>
<text text-anchor="start" x="143.5" y="-96.5" font-family="Helvetica,sans-Serif" font-size="10.00">/src/mazegame/maze_game</text>
<text text-anchor="middle" x="205.5" y="-85.5" font-family="Helvetica,sans-Serif" font-size="10.00">_test.cc</text>
</a>
</g>
</g>
<!-- Node2&#45;&gt;Node4 -->
<g id="edge3" class="edge"><title>Node2&#45;&gt;Node4</title>
<path fill="none" stroke="midnightblue" d="M205.5,-146.297C205.5,-137.301 205.5,-127.653 205.5,-119.506"/>
<polygon fill="midnightblue" stroke="midnightblue" points="202,-146.428 205.5,-156.428 209,-146.428 202,-146.428"/>
</g>
<!-- Node5&#45;&gt;Node4 -->
<g id="edge6" class="edge"><title>Node5&#45;&gt;Node4</title>
<path fill="none" stroke="midnightblue" d="M298.987,-151.486C280.19,-141.134 258.607,-129.247 240.918,-119.506"/>
<polygon fill="midnightblue" stroke="midnightblue" points="297.514,-154.67 307.962,-156.428 300.891,-148.538 297.514,-154.67"/>
</g>
<!-- Node6 -->
<g id="node6" class="node"><title>Node6</title>
<g id="a_node6"><a xlink:href="../../da/d3e/standard__maze__builder_8cc.html" target="_top" xlink:title="src/creational/src\l/builder/standard_maze\l_builder.cc">
<polygon fill="white" stroke="black" points="293.5,-78.5 293.5,-119.5 411.5,-119.5 411.5,-78.5 293.5,-78.5"/>
<text text-anchor="start" x="301.5" y="-107.5" font-family="Helvetica,sans-Serif" font-size="10.00">src/creational/src</text>
<text text-anchor="start" x="301.5" y="-96.5" font-family="Helvetica,sans-Serif" font-size="10.00">/builder/standard_maze</text>
<text text-anchor="middle" x="352.5" y="-85.5" font-family="Helvetica,sans-Serif" font-size="10.00">_builder.cc</text>
</a>
</g>
</g>
<!-- Node5&#45;&gt;Node6 -->
<g id="edge5" class="edge"><title>Node5&#45;&gt;Node6</title>
<path fill="none" stroke="midnightblue" d="M347.018,-146.297C348.083,-137.301 349.225,-127.653 350.19,-119.506"/>
<polygon fill="midnightblue" stroke="midnightblue" points="343.518,-146.086 345.818,-156.428 350.47,-146.909 343.518,-146.086"/>
</g>
<!-- Node7&#45;&gt;Node4 -->
<g id="edge13" class="edge"><title>Node7&#45;&gt;Node4</title>
<path fill="none" stroke="midnightblue" d="M427.201,-159.328C382.423,-147.346 322.008,-131.178 275.554,-118.747"/>
<polygon fill="midnightblue" stroke="midnightblue" points="426.514,-162.768 437.079,-161.972 428.324,-156.006 426.514,-162.768"/>
</g>
<!-- Node8 -->
<g id="node8" class="node"><title>Node8</title>
<g id="a_node8"><a xlink:href="../../d6/d92/bombed__maze__game_8h.html" target="_top" xlink:title="src/creational/src\l/factorymethod/bombed\l_maze_game.h">
<polygon fill="white" stroke="black" points="430,-78.5 430,-119.5 549,-119.5 549,-78.5 430,-78.5"/>
<text text-anchor="start" x="438" y="-107.5" font-family="Helvetica,sans-Serif" font-size="10.00">src/creational/src</text>
<text text-anchor="start" x="438" y="-96.5" font-family="Helvetica,sans-Serif" font-size="10.00">/factorymethod/bombed</text>
<text text-anchor="middle" x="489.5" y="-85.5" font-family="Helvetica,sans-Serif" font-size="10.00">_maze_game.h</text>
</a>
</g>
</g>
<!-- Node7&#45;&gt;Node8 -->
<g id="edge8" class="edge"><title>Node7&#45;&gt;Node8</title>
<path fill="none" stroke="midnightblue" d="M489.5,-151.656C489.5,-141.326 489.5,-129.443 489.5,-119.68"/>
<polygon fill="midnightblue" stroke="midnightblue" points="486,-151.705 489.5,-161.705 493,-151.705 486,-151.705"/>
</g>
<!-- Node10 -->
<g id="node10" class="node"><title>Node10</title>
<g id="a_node10"><a xlink:href="../../df/d13/enchanted__maze__game_8h.html" target="_top" xlink:title="src/creational/src\l/factorymethod/enchanted\l_maze_game.h">
<polygon fill="white" stroke="black" points="567,-78.5 567,-119.5 696,-119.5 696,-78.5 567,-78.5"/>
<text text-anchor="start" x="575" y="-107.5" font-family="Helvetica,sans-Serif" font-size="10.00">src/creational/src</text>
<text text-anchor="start" x="575" y="-96.5" font-family="Helvetica,sans-Serif" font-size="10.00">/factorymethod/enchanted</text>
<text text-anchor="middle" x="631.5" y="-85.5" font-family="Helvetica,sans-Serif" font-size="10.00">_maze_game.h</text>
</a>
</g>
</g>
<!-- Node7&#45;&gt;Node10 -->
<g id="edge10" class="edge"><title>Node7&#45;&gt;Node10</title>
<path fill="none" stroke="midnightblue" d="M524.92,-157.043C546.227,-145.639 573.299,-131.15 594.827,-119.628"/>
<polygon fill="midnightblue" stroke="midnightblue" points="523.041,-154.078 515.876,-161.883 526.345,-160.25 523.041,-154.078"/>
</g>
<!-- Node12 -->
<g id="node12" class="node"><title>Node12</title>
<g id="a_node12"><a xlink:href="../../d6/d51/maze__game_8cc.html" target="_top" xlink:title="src/creational/src\l/mazegame/maze_game.cc">
<polygon fill="white" stroke="black" points="714,-84 714,-114 851,-114 851,-84 714,-84"/>
<text text-anchor="start" x="722" y="-102" font-family="Helvetica,sans-Serif" font-size="10.00">src/creational/src</text>
<text text-anchor="middle" x="782.5" y="-91" font-family="Helvetica,sans-Serif" font-size="10.00">/mazegame/maze_game.cc</text>
</a>
</g>
</g>
<!-- Node7&#45;&gt;Node12 -->
<g id="edge12" class="edge"><title>Node7&#45;&gt;Node12</title>
<path fill="none" stroke="midnightblue" d="M553.415,-159.437C596.409,-148.294 654.362,-133.27 705.5,-120 712.853,-118.092 720.6,-116.081 728.234,-114.098"/>
<polygon fill="midnightblue" stroke="midnightblue" points="552.453,-156.071 543.651,-161.968 554.209,-162.847 552.453,-156.071"/>
</g>
<!-- Node9 -->
<g id="node9" class="node"><title>Node9</title>
<g id="a_node9"><a xlink:href="../../d4/d89/bombed__maze__game_8cc.html" target="_top" xlink:title="src/creational/src\l/factorymethod/bombed\l_maze_game.cc">
<polygon fill="white" stroke="black" points="430,-0.5 430,-41.5 549,-41.5 549,-0.5 430,-0.5"/>
<text text-anchor="start" x="438" y="-29.5" font-family="Helvetica,sans-Serif" font-size="10.00">src/creational/src</text>
<text text-anchor="start" x="438" y="-18.5" font-family="Helvetica,sans-Serif" font-size="10.00">/factorymethod/bombed</text>
<text text-anchor="middle" x="489.5" y="-7.5" font-family="Helvetica,sans-Serif" font-size="10.00">_maze_game.cc</text>
</a>
</g>
</g>
<!-- Node8&#45;&gt;Node9 -->
<g id="edge9" class="edge"><title>Node8&#45;&gt;Node9</title>
<path fill="none" stroke="midnightblue" d="M489.5,-68.2965C489.5,-59.3009 489.5,-49.6532 489.5,-41.5056"/>
<polygon fill="midnightblue" stroke="midnightblue" points="486,-68.4281 489.5,-78.4281 493,-68.4281 486,-68.4281"/>
</g>
<!-- Node11 -->
<g id="node11" class="node"><title>Node11</title>
<g id="a_node11"><a xlink:href="../../db/db5/enchanted__maze__game_8cc.html" target="_top" xlink:title="src/creational/src\l/factorymethod/enchanted\l_maze_game.cc">
<polygon fill="white" stroke="black" points="567,-0.5 567,-41.5 696,-41.5 696,-0.5 567,-0.5"/>
<text text-anchor="start" x="575" y="-29.5" font-family="Helvetica,sans-Serif" font-size="10.00">src/creational/src</text>
<text text-anchor="start" x="575" y="-18.5" font-family="Helvetica,sans-Serif" font-size="10.00">/factorymethod/enchanted</text>
<text text-anchor="middle" x="631.5" y="-7.5" font-family="Helvetica,sans-Serif" font-size="10.00">_maze_game.cc</text>
</a>
</g>
</g>
<!-- Node10&#45;&gt;Node11 -->
<g id="edge11" class="edge"><title>Node10&#45;&gt;Node11</title>
<path fill="none" stroke="midnightblue" d="M631.5,-68.2965C631.5,-59.3009 631.5,-49.6532 631.5,-41.5056"/>
<polygon fill="midnightblue" stroke="midnightblue" points="628,-68.4281 631.5,-78.4281 635,-68.4281 628,-68.4281"/>
</g>
</g>
</svg>
