<?xml version="1.0" encoding="UTF-8" standalone="no"?>
<!DOCTYPE svg PUBLIC "-//W3C//DTD SVG 1.1//EN"
 "http://www.w3.org/Graphics/SVG/1.1/DTD/svg11.dtd">
<!-- Generated by graphviz version 2.38.0 (20140413.2041)
 -->
<!-- Title: creational::commons::Wall::Wall Pages: 1 -->
<svg width="416pt" height="100pt"
 viewBox="0.00 0.00 416.00 99.50" xmlns="http://www.w3.org/2000/svg" xmlns:xlink="http://www.w3.org/1999/xlink">
<g id="graph0" class="graph" transform="scale(1 1) rotate(0) translate(4 95.5)">
<title>creational::commons::Wall::Wall</title>
<polygon fill="white" stroke="none" points="-4,4 -4,-95.5 412,-95.5 412,4 -4,4"/>
<!-- Node1 -->
<g id="node1" class="node"><title>Node1</title>
<polygon fill="#bfbfbf" stroke="black" points="0,-27.5 0,-57.5 107,-57.5 107,-27.5 0,-27.5"/>
<text text-anchor="start" x="8" y="-45.5" font-family="Helvetica,sans-Serif" font-size="10.00">creational::commons</text>
<text text-anchor="middle" x="53.5" y="-34.5" font-family="Helvetica,sans-Serif" font-size="10.00">::Wall::Wall</text>
</g>
<!-- Node2 -->
<g id="node2" class="node"><title>Node2</title>
<g id="a_node2"><a xlink:href="../../da/d9e/classcreational_1_1commons_1_1_wall.html#a9fb0eebe8ac20bdbcbfb5c3498a7bbf1" target="_top" xlink:title="creational::commons\l::Wall::Clone">
<polygon fill="white" stroke="black" points="143,-27.5 143,-57.5 250,-57.5 250,-27.5 143,-27.5"/>
<text text-anchor="start" x="151" y="-45.5" font-family="Helvetica,sans-Serif" font-size="10.00">creational::commons</text>
<text text-anchor="middle" x="196.5" y="-34.5" font-family="Helvetica,sans-Serif" font-size="10.00">::Wall::Clone</text>
</a>
</g>
</g>
<!-- Node1&#45;&gt;Node2 -->
<g id="edge1" class="edge"><title>Node1&#45;&gt;Node2</title>
<path fill="none" stroke="midnightblue" d="M117.05,-42.5C125.7,-42.5 134.51,-42.5 142.953,-42.5"/>
<polygon fill="midnightblue" stroke="midnightblue" points="117.003,-39.0001 107.003,-42.5 117.003,-46.0001 117.003,-39.0001"/>
</g>
<!-- Node3 -->
<g id="node3" class="node"><title>Node3</title>
<g id="a_node3"><a xlink:href="../../d9/d21/classcreational_1_1prototype_1_1_maze_prototype_factory.html#a8c37ba504b50e34d9d56ba91d5572c8b" target="_top" xlink:title="creational::prototype\l::MazePrototypeFactory\l::MakeWall">
<polygon fill="white" stroke="black" points="286,-50 286,-91 408,-91 408,-50 286,-50"/>
<text text-anchor="start" x="294" y="-79" font-family="Helvetica,sans-Serif" font-size="10.00">creational::prototype</text>
<text text-anchor="start" x="294" y="-68" font-family="Helvetica,sans-Serif" font-size="10.00">::MazePrototypeFactory</text>
<text text-anchor="middle" x="347" y="-57" font-family="Helvetica,sans-Serif" font-size="10.00">::MakeWall</text>
</a>
</g>
</g>
<!-- Node2&#45;&gt;Node3 -->
<g id="edge2" class="edge"><title>Node2&#45;&gt;Node3</title>
<path fill="none" stroke="midnightblue" d="M260.132,-54.3093C268.634,-55.9125 277.345,-57.555 285.803,-59.1498"/>
<polygon fill="midnightblue" stroke="midnightblue" points="260.749,-50.8641 250.274,-52.4506 259.452,-57.7429 260.749,-50.8641"/>
</g>
<!-- Node4 -->
<g id="node4" class="node"><title>Node4</title>
<g id="a_node4"><a xlink:href="../../d7/de2/namespacecreationaltests.html#aebe86adb82809d24030312e3bc776fd8" target="_top" xlink:title="creationaltests::TEST\l_CLASS">
<polygon fill="white" stroke="black" points="292,-0.5 292,-30.5 402,-30.5 402,-0.5 292,-0.5"/>
<text text-anchor="start" x="300" y="-18.5" font-family="Helvetica,sans-Serif" font-size="10.00">creationaltests::TEST</text>
<text text-anchor="middle" x="347" y="-7.5" font-family="Helvetica,sans-Serif" font-size="10.00">_CLASS</text>
</a>
</g>
</g>
<!-- Node2&#45;&gt;Node4 -->
<g id="edge3" class="edge"><title>Node2&#45;&gt;Node4</title>
<path fill="none" stroke="midnightblue" d="M260.24,-31.0927C270.766,-29.1789 281.608,-27.2076 291.892,-25.3377"/>
<polygon fill="midnightblue" stroke="midnightblue" points="259.486,-27.6723 250.274,-32.9048 260.739,-34.5594 259.486,-27.6723"/>
</g>
</g>
</svg>
