<?xml version="1.0" encoding="UTF-8" standalone="no"?>
<!DOCTYPE svg PUBLIC "-//W3C//DTD SVG 1.1//EN"
 "http://www.w3.org/Graphics/SVG/1.1/DTD/svg11.dtd">
<!-- Generated by graphviz version 2.38.0 (20140413.2041)
 -->
<!-- Title: src/operational/src/visitor/inventory.h Pages: 1 -->
<svg width="449pt" height="207pt"
 viewBox="0.00 0.00 448.50 207.00" xmlns="http://www.w3.org/2000/svg" xmlns:xlink="http://www.w3.org/1999/xlink">
<g id="graph0" class="graph" transform="scale(1 1) rotate(0) translate(4 203)">
<title>src/operational/src/visitor/inventory.h</title>
<polygon fill="white" stroke="none" points="-4,4 -4,-203 444.5,-203 444.5,4 -4,4"/>
<!-- Node1 -->
<g id="node1" class="node"><title>Node1</title>
<polygon fill="#bfbfbf" stroke="black" points="239.5,-168.5 239.5,-198.5 336.5,-198.5 336.5,-168.5 239.5,-168.5"/>
<text text-anchor="start" x="247.5" y="-186.5" font-family="Helvetica,sans-Serif" font-size="10.00">src/operational/src</text>
<text text-anchor="middle" x="288" y="-175.5" font-family="Helvetica,sans-Serif" font-size="10.00">/visitor/inventory.h</text>
</g>
<!-- Node2 -->
<g id="node2" class="node"><title>Node2</title>
<g id="a_node2"><a xlink:href="../../d8/d3b/visited__equipment__interface_8h.html" target="_top" xlink:title="visited_equipment_interface.h">
<polygon fill="white" stroke="black" points="216,-112.5 216,-131.5 360,-131.5 360,-112.5 216,-112.5"/>
<text text-anchor="middle" x="288" y="-119.5" font-family="Helvetica,sans-Serif" font-size="10.00">visited_equipment_interface.h</text>
</a>
</g>
</g>
<!-- Node1&#45;&gt;Node2 -->
<g id="edge1" class="edge"><title>Node1&#45;&gt;Node2</title>
<path fill="none" stroke="midnightblue" d="M288,-168.399C288,-160.466 288,-150.458 288,-141.858"/>
<polygon fill="midnightblue" stroke="midnightblue" points="291.5,-141.658 288,-131.658 284.5,-141.658 291.5,-141.658"/>
</g>
<!-- Node3 -->
<g id="node3" class="node"><title>Node3</title>
<g id="a_node3"><a xlink:href="../../d2/d43/equipment__visitor__interface_8h.html" target="_top" xlink:title="equipment_visitor_interface.h">
<polygon fill="white" stroke="black" points="162,-56.5 162,-75.5 304,-75.5 304,-56.5 162,-56.5"/>
<text text-anchor="middle" x="233" y="-63.5" font-family="Helvetica,sans-Serif" font-size="10.00">equipment_visitor_interface.h</text>
</a>
</g>
</g>
<!-- Node2&#45;&gt;Node3 -->
<g id="edge2" class="edge"><title>Node2&#45;&gt;Node3</title>
<path fill="none" stroke="midnightblue" d="M278.918,-112.083C270.829,-104.141 258.805,-92.3354 249.09,-82.7973"/>
<polygon fill="midnightblue" stroke="midnightblue" points="251.501,-80.2595 241.913,-75.7511 246.597,-85.2545 251.501,-80.2595"/>
</g>
<!-- Node8 -->
<g id="node8" class="node"><title>Node8</title>
<polygon fill="white" stroke="#bfbfbf" points="322.5,-56.5 322.5,-75.5 363.5,-75.5 363.5,-56.5 322.5,-56.5"/>
<text text-anchor="middle" x="343" y="-63.5" font-family="Helvetica,sans-Serif" font-size="10.00">string</text>
</g>
<!-- Node2&#45;&gt;Node8 -->
<g id="edge7" class="edge"><title>Node2&#45;&gt;Node8</title>
<path fill="none" stroke="midnightblue" d="M297.082,-112.083C305.171,-104.141 317.195,-92.3354 326.91,-82.7973"/>
<polygon fill="midnightblue" stroke="midnightblue" points="329.403,-85.2545 334.087,-75.7511 324.499,-80.2595 329.403,-85.2545"/>
</g>
<!-- Node4 -->
<g id="node4" class="node"><title>Node4</title>
<g id="a_node4"><a xlink:href="../../d0/db8/floppy__disk__interface_8h.html" target="_top" xlink:title="floppy_disk_interface.h">
<polygon fill="white" stroke="black" points="0,-0.5 0,-19.5 116,-19.5 116,-0.5 0,-0.5"/>
<text text-anchor="middle" x="58" y="-7.5" font-family="Helvetica,sans-Serif" font-size="10.00">floppy_disk_interface.h</text>
</a>
</g>
</g>
<!-- Node3&#45;&gt;Node4 -->
<g id="edge3" class="edge"><title>Node3&#45;&gt;Node4</title>
<path fill="none" stroke="midnightblue" d="M205.271,-56.4435C175.574,-47.2801 128.284,-32.6876 95.3307,-22.5192"/>
<polygon fill="midnightblue" stroke="midnightblue" points="96.187,-19.1206 85.5995,-19.5164 94.123,-25.8094 96.187,-19.1206"/>
</g>
<!-- Node5 -->
<g id="node5" class="node"><title>Node5</title>
<g id="a_node5"><a xlink:href="../../d1/d04/card__interface_8h.html" target="_top" xlink:title="card_interface.h">
<polygon fill="white" stroke="black" points="134,-0.5 134,-19.5 220,-19.5 220,-0.5 134,-0.5"/>
<text text-anchor="middle" x="177" y="-7.5" font-family="Helvetica,sans-Serif" font-size="10.00">card_interface.h</text>
</a>
</g>
</g>
<!-- Node3&#45;&gt;Node5 -->
<g id="edge4" class="edge"><title>Node3&#45;&gt;Node5</title>
<path fill="none" stroke="midnightblue" d="M224.003,-56.324C215.806,-48.4196 203.494,-36.5482 193.528,-26.9377"/>
<polygon fill="midnightblue" stroke="midnightblue" points="195.789,-24.2558 186.161,-19.8339 190.93,-29.2947 195.789,-24.2558"/>
</g>
<!-- Node6 -->
<g id="node6" class="node"><title>Node6</title>
<g id="a_node6"><a xlink:href="../../d4/d2b/chassis__interface_8h.html" target="_top" xlink:title="chassis_interface.h">
<polygon fill="white" stroke="black" points="238.5,-0.5 238.5,-19.5 339.5,-19.5 339.5,-0.5 238.5,-0.5"/>
<text text-anchor="middle" x="289" y="-7.5" font-family="Helvetica,sans-Serif" font-size="10.00">chassis_interface.h</text>
</a>
</g>
</g>
<!-- Node3&#45;&gt;Node6 -->
<g id="edge5" class="edge"><title>Node3&#45;&gt;Node6</title>
<path fill="none" stroke="midnightblue" d="M241.997,-56.324C250.194,-48.4196 262.506,-36.5482 272.472,-26.9377"/>
<polygon fill="midnightblue" stroke="midnightblue" points="275.07,-29.2947 279.839,-19.8339 270.211,-24.2558 275.07,-29.2947"/>
</g>
<!-- Node7 -->
<g id="node7" class="node"><title>Node7</title>
<g id="a_node7"><a xlink:href="../../db/d88/bus__interface_8h.html" target="_top" xlink:title="bus_interface.h">
<polygon fill="white" stroke="black" points="357.5,-0.5 357.5,-19.5 440.5,-19.5 440.5,-0.5 357.5,-0.5"/>
<text text-anchor="middle" x="399" y="-7.5" font-family="Helvetica,sans-Serif" font-size="10.00">bus_interface.h</text>
</a>
</g>
</g>
<!-- Node3&#45;&gt;Node7 -->
<g id="edge6" class="edge"><title>Node3&#45;&gt;Node7</title>
<path fill="none" stroke="midnightblue" d="M259.303,-56.4435C287.351,-47.3196 331.944,-32.8133 363.184,-22.6509"/>
<polygon fill="midnightblue" stroke="midnightblue" points="364.393,-25.9383 372.82,-19.5164 362.228,-19.2816 364.393,-25.9383"/>
</g>
</g>
</svg>
