<?xml version="1.0" encoding="UTF-8" standalone="no"?>
<!DOCTYPE svg PUBLIC "-//W3C//DTD SVG 1.1//EN"
 "http://www.w3.org/Graphics/SVG/1.1/DTD/svg11.dtd">
<!-- Generated by graphviz version 2.38.0 (20140413.2041)
 -->
<!-- Title: src/operational/src/state/tcp_connection.h Pages: 1 -->
<!--zoomable 240 -->
<svg id="main" version="1.1" xmlns="http://www.w3.org/2000/svg" xmlns:xlink="http://www.w3.org/1999/xlink" xml:space="preserve" onload="init(evt)">
<style type="text/css"><![CDATA[
.edge:hover path { stroke: red; }
.edge:hover polygon { stroke: red; fill: red; }
]]></style>
<script type="text/javascript"><![CDATA[
var edges = document.getElementsByTagName('g');
if (edges && edges.length) {
  for (var i=0;i<edges.length;i++) {
    if (edges[i].id.substr(0,4)=='edge') {
      edges[i].setAttribute('class','edge');
    }
  }
}
]]></script>
        <defs>
                <circle id="rim" cx="0" cy="0" r="7"/>
                <circle id="rim2" cx="0" cy="0" r="3.5"/>
                <g id="zoomPlus">
                        <use xlink:href="#rim" fill="#404040">
                                <set attributeName="fill" to="#808080" begin="zoomplus.mouseover" end="zoomplus.mouseout"/>
                        </use>
                        <path d="M-4,0h8M0,-4v8" fill="none" stroke="white" stroke-width="1.5" pointer-events="none"/>
                </g>
                <g id="zoomMin">
                        <use xlink:href="#rim" fill="#404040">
                                <set attributeName="fill" to="#808080" begin="zoomminus.mouseover" end="zoomminus.mouseout"/>
                        </use>
                        <path d="M-4,0h8" fill="none" stroke="white" stroke-width="1.5" pointer-events="none"/>
                </g>
                <g id="dirArrow">
                        <path fill="none" stroke="white" stroke-width="1.5" d="M0,-3.0v7 M-2.5,-0.5L0,-3.0L2.5,-0.5"/>
                </g>
               <g id="resetDef">
                       <use xlink:href="#rim2" fill="#404040">
                               <set attributeName="fill" to="#808080" begin="reset.mouseover" end="reset.mouseout"/>
                       </use>
               </g>
        </defs>

<script type="text/javascript">
var viewWidth = 656;
var viewHeight = 240;
var sectionId = 'dynsection-1';
</script>
<script xlink:href="../../svgpan.js"/>
<svg id="graph" class="graph">
<g id="viewport">
<title>src/operational/src/state/tcp_connection.h</title>
<polygon fill="white" stroke="none" points="-4,4 -4,-236 651.5,-236 651.5,4 -4,4"/>
<!-- Node1 -->
<g id="node1" class="node"><title>Node1</title>
<polygon fill="#bfbfbf" stroke="black" points="442,-201.5 442,-231.5 561,-231.5 561,-201.5 442,-201.5"/>
<text text-anchor="start" x="450" y="-219.5" font-family="Helvetica,sans-Serif" font-size="10.00">src/operational/src</text>
<text text-anchor="middle" x="501.5" y="-208.5" font-family="Helvetica,sans-Serif" font-size="10.00">/state/tcp_connection.h</text>
</g>
<!-- Node2 -->
<g id="node2" class="node"><title>Node2</title>
<g id="a_node2"><a xlink:href="../../da/dcf/tcp__state_8h.html" target="_top" xlink:title="src/operational/src\l/state/tcp_state.h">
<polygon fill="white" stroke="black" points="249,-134.5 249,-164.5 346,-164.5 346,-134.5 249,-134.5"/>
<text text-anchor="start" x="257" y="-152.5" font-family="Helvetica,sans-Serif" font-size="10.00">src/operational/src</text>
<text text-anchor="middle" x="297.5" y="-141.5" font-family="Helvetica,sans-Serif" font-size="10.00">/state/tcp_state.h</text>
</a>
</g>
</g>
<!-- Node1&#45;&gt;Node2 -->
<g id="edge1" class="edge"><title>Node1&#45;&gt;Node2</title>
<path fill="none" stroke="midnightblue" d="M447.545,-198.308C414.543,-187.793 372.845,-174.507 341.787,-164.611"/>
<polygon fill="midnightblue" stroke="midnightblue" points="446.896,-201.775 457.486,-201.476 449.021,-195.105 446.896,-201.775"/>
</g>
<!-- Node5 -->
<g id="node5" class="node"><title>Node5</title>
<g id="a_node5"><a xlink:href="../../d6/d12/tcp__connection_8cc.html" target="_top" xlink:title="src/operational/src\l/state/tcp_connection.cc">
<polygon fill="white" stroke="black" points="314.5,-0.5 314.5,-30.5 438.5,-30.5 438.5,-0.5 314.5,-0.5"/>
<text text-anchor="start" x="322.5" y="-18.5" font-family="Helvetica,sans-Serif" font-size="10.00">src/operational/src</text>
<text text-anchor="middle" x="376.5" y="-7.5" font-family="Helvetica,sans-Serif" font-size="10.00">/state/tcp_connection.cc</text>
</a>
</g>
</g>
<!-- Node1&#45;&gt;Node5 -->
<g id="edge12" class="edge"><title>Node1&#45;&gt;Node5</title>
<path fill="none" stroke="midnightblue" d="M505.041,-191.064C508.266,-159.346 509.09,-103.721 482.5,-67 470.066,-49.8291 450.241,-38.2751 431.082,-30.6081"/>
<polygon fill="midnightblue" stroke="midnightblue" points="501.539,-190.874 503.841,-201.216 508.491,-191.696 501.539,-190.874"/>
</g>
<!-- Node11 -->
<g id="node11" class="node"><title>Node11</title>
<g id="a_node11"><a xlink:href="../../de/d0f/state__test_8cc.html" target="_top" xlink:title="src/operational_tests\l/src/state/state_test.cc">
<polygon fill="white" stroke="black" points="529.5,-134.5 529.5,-164.5 647.5,-164.5 647.5,-134.5 529.5,-134.5"/>
<text text-anchor="start" x="537.5" y="-152.5" font-family="Helvetica,sans-Serif" font-size="10.00">src/operational_tests</text>
<text text-anchor="middle" x="588.5" y="-141.5" font-family="Helvetica,sans-Serif" font-size="10.00">/src/state/state_test.cc</text>
</a>
</g>
</g>
<!-- Node1&#45;&gt;Node11 -->
<g id="edge13" class="edge"><title>Node1&#45;&gt;Node11</title>
<path fill="none" stroke="midnightblue" d="M528.714,-195.168C542.018,-185.228 557.696,-173.514 569.659,-164.577"/>
<polygon fill="midnightblue" stroke="midnightblue" points="526.294,-192.607 520.378,-201.396 530.484,-198.215 526.294,-192.607"/>
</g>
<!-- Node3 -->
<g id="node3" class="node"><title>Node3</title>
<g id="a_node3"><a xlink:href="../../d5/d99/tcp__closed_8h.html" target="_top" xlink:title="src/operational/src\l/state/tcp_closed.h">
<polygon fill="white" stroke="black" points="2.5,-67.5 2.5,-97.5 102.5,-97.5 102.5,-67.5 2.5,-67.5"/>
<text text-anchor="start" x="10.5" y="-85.5" font-family="Helvetica,sans-Serif" font-size="10.00">src/operational/src</text>
<text text-anchor="middle" x="52.5" y="-74.5" font-family="Helvetica,sans-Serif" font-size="10.00">/state/tcp_closed.h</text>
</a>
</g>
</g>
<!-- Node2&#45;&gt;Node3 -->
<g id="edge2" class="edge"><title>Node2&#45;&gt;Node3</title>
<path fill="none" stroke="midnightblue" d="M239.094,-133.005C197.567,-121.987 142.36,-107.34 102.788,-96.8417"/>
<polygon fill="midnightblue" stroke="midnightblue" points="238.24,-136.399 248.803,-135.58 240.035,-129.633 238.24,-136.399"/>
</g>
<!-- Node6 -->
<g id="node6" class="node"><title>Node6</title>
<g id="a_node6"><a xlink:href="../../d5/d08/tcp__established_8h.html" target="_top" xlink:title="src/operational/src\l/state/tcp_established.h">
<polygon fill="white" stroke="black" points="237,-67.5 237,-97.5 358,-97.5 358,-67.5 237,-67.5"/>
<text text-anchor="start" x="245" y="-85.5" font-family="Helvetica,sans-Serif" font-size="10.00">src/operational/src</text>
<text text-anchor="middle" x="297.5" y="-74.5" font-family="Helvetica,sans-Serif" font-size="10.00">/state/tcp_established.h</text>
</a>
</g>
</g>
<!-- Node2&#45;&gt;Node6 -->
<g id="edge5" class="edge"><title>Node2&#45;&gt;Node6</title>
<path fill="none" stroke="midnightblue" d="M297.5,-124.108C297.5,-115.154 297.5,-105.323 297.5,-97.5765"/>
<polygon fill="midnightblue" stroke="midnightblue" points="294,-124.396 297.5,-134.396 301,-124.396 294,-124.396"/>
</g>
<!-- Node8 -->
<g id="node8" class="node"><title>Node8</title>
<g id="a_node8"><a xlink:href="../../dd/d7a/tcp__listen_8h.html" target="_top" xlink:title="src/operational/src\l/state/tcp_listen.h">
<polygon fill="white" stroke="black" points="376,-67.5 376,-97.5 473,-97.5 473,-67.5 376,-67.5"/>
<text text-anchor="start" x="384" y="-85.5" font-family="Helvetica,sans-Serif" font-size="10.00">src/operational/src</text>
<text text-anchor="middle" x="424.5" y="-74.5" font-family="Helvetica,sans-Serif" font-size="10.00">/state/tcp_listen.h</text>
</a>
</g>
</g>
<!-- Node2&#45;&gt;Node8 -->
<g id="edge8" class="edge"><title>Node2&#45;&gt;Node8</title>
<path fill="none" stroke="midnightblue" d="M334.204,-129.714C354.234,-119.463 378.619,-106.983 396.997,-97.5765"/>
<polygon fill="midnightblue" stroke="midnightblue" points="332.364,-126.724 325.057,-134.396 335.554,-132.956 332.364,-126.724"/>
</g>
<!-- Node10 -->
<g id="node10" class="node"><title>Node10</title>
<g id="a_node10"><a xlink:href="../../d1/d58/tcp__state_8cc.html" target="_top" xlink:title="src/operational/src\l/state/tcp_state.cc">
<polygon fill="white" stroke="black" points="120.5,-67.5 120.5,-97.5 218.5,-97.5 218.5,-67.5 120.5,-67.5"/>
<text text-anchor="start" x="128.5" y="-85.5" font-family="Helvetica,sans-Serif" font-size="10.00">src/operational/src</text>
<text text-anchor="middle" x="169.5" y="-74.5" font-family="Helvetica,sans-Serif" font-size="10.00">/state/tcp_state.cc</text>
</a>
</g>
</g>
<!-- Node2&#45;&gt;Node10 -->
<g id="edge11" class="edge"><title>Node2&#45;&gt;Node10</title>
<path fill="none" stroke="midnightblue" d="M260.78,-129.853C240.542,-119.576 215.826,-107.025 197.22,-97.5765"/>
<polygon fill="midnightblue" stroke="midnightblue" points="259.225,-132.989 269.726,-134.396 262.394,-126.747 259.225,-132.989"/>
</g>
<!-- Node4 -->
<g id="node4" class="node"><title>Node4</title>
<g id="a_node4"><a xlink:href="../../df/d43/tcp__closed_8cc.html" target="_top" xlink:title="src/operational/src\l/state/tcp_closed.cc">
<polygon fill="white" stroke="black" points="0,-0.5 0,-30.5 105,-30.5 105,-0.5 0,-0.5"/>
<text text-anchor="start" x="8" y="-18.5" font-family="Helvetica,sans-Serif" font-size="10.00">src/operational/src</text>
<text text-anchor="middle" x="52.5" y="-7.5" font-family="Helvetica,sans-Serif" font-size="10.00">/state/tcp_closed.cc</text>
</a>
</g>
</g>
<!-- Node3&#45;&gt;Node4 -->
<g id="edge3" class="edge"><title>Node3&#45;&gt;Node4</title>
<path fill="none" stroke="midnightblue" d="M52.5,-57.1081C52.5,-48.1539 52.5,-38.3227 52.5,-30.5765"/>
<polygon fill="midnightblue" stroke="midnightblue" points="49.0001,-57.3959 52.5,-67.396 56.0001,-57.396 49.0001,-57.3959"/>
</g>
<!-- Node3&#45;&gt;Node5 -->
<g id="edge4" class="edge"><title>Node3&#45;&gt;Node5</title>
<path fill="none" stroke="midnightblue" d="M112.64,-66.8231C198.914,-48.4524 222.535,-47.1682 305.5,-31 308.34,-30.4465 311.243,-29.8754 314.175,-29.2944"/>
<polygon fill="midnightblue" stroke="midnightblue" points="111.71,-63.4429 102.667,-68.9628 113.178,-70.2871 111.71,-63.4429"/>
</g>
<!-- Node6&#45;&gt;Node5 -->
<g id="edge6" class="edge"><title>Node6&#45;&gt;Node5</title>
<path fill="none" stroke="midnightblue" d="M322.557,-60.8832C334.563,-51.0054 348.632,-39.4293 359.392,-30.5765"/>
<polygon fill="midnightblue" stroke="midnightblue" points="320.14,-58.3395 314.642,-67.396 324.588,-63.745 320.14,-58.3395"/>
</g>
<!-- Node7 -->
<g id="node7" class="node"><title>Node7</title>
<g id="a_node7"><a xlink:href="../../d3/d9d/tcp__established_8cc.html" target="_top" xlink:title="src/operational/src\l/state/tcp_established.cc">
<polygon fill="white" stroke="black" points="170.5,-0.5 170.5,-30.5 296.5,-30.5 296.5,-0.5 170.5,-0.5"/>
<text text-anchor="start" x="178.5" y="-18.5" font-family="Helvetica,sans-Serif" font-size="10.00">src/operational/src</text>
<text text-anchor="middle" x="233.5" y="-7.5" font-family="Helvetica,sans-Serif" font-size="10.00">/state/tcp_established.cc</text>
</a>
</g>
</g>
<!-- Node6&#45;&gt;Node7 -->
<g id="edge7" class="edge"><title>Node6&#45;&gt;Node7</title>
<path fill="none" stroke="midnightblue" d="M276.355,-60.0243C266.819,-50.3398 255.825,-39.1739 247.36,-30.5765"/>
<polygon fill="midnightblue" stroke="midnightblue" points="274.103,-62.7259 283.613,-67.396 279.091,-57.8146 274.103,-62.7259"/>
</g>
<!-- Node8&#45;&gt;Node5 -->
<g id="edge9" class="edge"><title>Node8&#45;&gt;Node5</title>
<path fill="none" stroke="midnightblue" d="M408.001,-59.1575C401.001,-49.6788 393.055,-38.9186 386.895,-30.5765"/>
<polygon fill="midnightblue" stroke="midnightblue" points="405.329,-61.4308 414.085,-67.396 410.96,-57.2725 405.329,-61.4308"/>
</g>
<!-- Node9 -->
<g id="node9" class="node"><title>Node9</title>
<g id="a_node9"><a xlink:href="../../d5/d5e/tcp__listen_8cc.html" target="_top" xlink:title="src/operational/src\l/state/tcp_listen.cc">
<polygon fill="white" stroke="black" points="456.5,-0.5 456.5,-30.5 556.5,-30.5 556.5,-0.5 456.5,-0.5"/>
<text text-anchor="start" x="464.5" y="-18.5" font-family="Helvetica,sans-Serif" font-size="10.00">src/operational/src</text>
<text text-anchor="middle" x="506.5" y="-7.5" font-family="Helvetica,sans-Serif" font-size="10.00">/state/tcp_listen.cc</text>
</a>
</g>
</g>
<!-- Node8&#45;&gt;Node9 -->
<g id="edge10" class="edge"><title>Node8&#45;&gt;Node9</title>
<path fill="none" stroke="midnightblue" d="M450.15,-61.1677C462.689,-51.2283 477.466,-39.5144 488.742,-30.5765"/>
<polygon fill="midnightblue" stroke="midnightblue" points="447.955,-58.4412 442.293,-67.396 452.304,-63.9268 447.955,-58.4412"/>
</g>
</g>
</svg>
        <g id="navigator" transform="translate(0 0)" fill="#404254">
                <rect fill="#f2f5e9" fill-opacity="0.5" stroke="#606060" stroke-width=".5" x="0" y="0" width="60" height="60"/>
                <use id="zoomplus" xlink:href="#zoomPlus" x="17" y="9" onmousedown="handleZoom(evt,'in')"/>
                <use id="zoomminus" xlink:href="#zoomMin" x="42" y="9" onmousedown="handleZoom(evt,'out')"/>
                <use id="reset" xlink:href="#resetDef" x="30" y="36" onmousedown="handleReset()"/>
                <g id="arrowUp" xlink:href="#dirArrow" transform="translate(30 24)" onmousedown="handlePan(0,-1)">
                  <use xlink:href="#rim" fill="#404040">
                        <set attributeName="fill" to="#808080" begin="arrowUp.mouseover" end="arrowUp.mouseout"/>
                  </use>
                  <path fill="none" stroke="white" stroke-width="1.5" d="M0,-3.0v7 M-2.5,-0.5L0,-3.0L2.5,-0.5"/>
                </g>
                <g id="arrowRight" xlink:href="#dirArrow" transform="rotate(90) translate(36 -43)" onmousedown="handlePan(1,0)">
                  <use xlink:href="#rim" fill="#404040">
                        <set attributeName="fill" to="#808080" begin="arrowRight.mouseover" end="arrowRight.mouseout"/>
                  </use>
                  <path fill="none" stroke="white" stroke-width="1.5" d="M0,-3.0v7 M-2.5,-0.5L0,-3.0L2.5,-0.5"/>
                </g>
                <g id="arrowDown" xlink:href="#dirArrow" transform="rotate(180) translate(-30 -48)" onmousedown="handlePan(0,1)">
                  <use xlink:href="#rim" fill="#404040">
                        <set attributeName="fill" to="#808080" begin="arrowDown.mouseover" end="arrowDown.mouseout"/>
                  </use>
                  <path fill="none" stroke="white" stroke-width="1.5" d="M0,-3.0v7 M-2.5,-0.5L0,-3.0L2.5,-0.5"/>
                </g>
                <g id="arrowLeft" xlink:href="#dirArrow" transform="rotate(270) translate(-36 17)" onmousedown="handlePan(-1,0)">
                  <use xlink:href="#rim" fill="#404040">
                        <set attributeName="fill" to="#808080" begin="arrowLeft.mouseover" end="arrowLeft.mouseout"/>
                  </use>
                  <path fill="none" stroke="white" stroke-width="1.5" d="M0,-3.0v7 M-2.5,-0.5L0,-3.0L2.5,-0.5"/>
                </g>
        </g>
        <svg viewBox="0 0 15 15" width="100%" height="30px" preserveAspectRatio="xMaxYMin meet">
         <g id="arrow_out" transform="scale(0.3 0.3)">
          <a xlink:href="tcp__connection_8h__dep__incl_org.svg" target="_base">
           <rect id="button" ry="5" rx="5" y="6" x="6" height="38" width="38"
                fill="#f2f5e9" fill-opacity="0.5" stroke="#606060" stroke-width="1.0"/>
           <path id="arrow"
             d="M 11.500037,31.436501 C 11.940474,20.09759 22.043105,11.32322 32.158766,21.979434 L 37.068811,17.246167 C 37.068811,17.246167 37.088388,32 37.088388,32 L 22.160133,31.978069 C 22.160133,31.978069 26.997745,27.140456 26.997745,27.140456 C 18.528582,18.264221 13.291696,25.230495 11.500037,31.436501 z"
             style="fill:#404040;"/>
          </a>
         </g>
        </svg>
</svg>
