<?xml version="1.0" encoding="UTF-8" standalone="no"?>
<!DOCTYPE svg PUBLIC "-//W3C//DTD SVG 1.1//EN"
 "http://www.w3.org/Graphics/SVG/1.1/DTD/svg11.dtd">
<!-- Generated by graphviz version 2.38.0 (20140413.2041)
 -->
<!-- Title: src/structural/src/facade/risc_code_generator.h Pages: 1 -->
<svg width="465pt" height="207pt"
 viewBox="0.00 0.00 464.50 207.00" xmlns="http://www.w3.org/2000/svg" xmlns:xlink="http://www.w3.org/1999/xlink">
<g id="graph0" class="graph" transform="scale(1 1) rotate(0) translate(4 203)">
<title>src/structural/src/facade/risc_code_generator.h</title>
<polygon fill="white" stroke="none" points="-4,4 -4,-203 460.5,-203 460.5,4 -4,4"/>
<!-- Node1 -->
<g id="node1" class="node"><title>Node1</title>
<polygon fill="#bfbfbf" stroke="black" points="58.5,-168.5 58.5,-198.5 205.5,-198.5 205.5,-168.5 58.5,-168.5"/>
<text text-anchor="start" x="66.5" y="-186.5" font-family="Helvetica,sans-Serif" font-size="10.00">src/structural/src</text>
<text text-anchor="middle" x="132" y="-175.5" font-family="Helvetica,sans-Serif" font-size="10.00">/facade/risc_code_generator.h</text>
</g>
<!-- Node2 -->
<g id="node2" class="node"><title>Node2</title>
<g id="a_node2"><a xlink:href="../../d2/d26/bytecode__stream_8h.html" target="_top" xlink:title="bytecode_stream.h">
<polygon fill="white" stroke="black" points="0,-112.5 0,-131.5 100,-131.5 100,-112.5 0,-112.5"/>
<text text-anchor="middle" x="50" y="-119.5" font-family="Helvetica,sans-Serif" font-size="10.00">bytecode_stream.h</text>
</a>
</g>
</g>
<!-- Node1&#45;&gt;Node2 -->
<g id="edge1" class="edge"><title>Node1&#45;&gt;Node2</title>
<path fill="none" stroke="midnightblue" d="M112.567,-168.399C99.7917,-159.129 83.1107,-147.025 70.1856,-137.647"/>
<polygon fill="midnightblue" stroke="midnightblue" points="72.081,-134.698 61.9317,-131.658 67.97,-140.364 72.081,-134.698"/>
</g>
<!-- Node4 -->
<g id="node4" class="node"><title>Node4</title>
<g id="a_node4"><a xlink:href="../../d7/df5/code__generator__interface_8h.html" target="_top" xlink:title="code_generator_interface.h">
<polygon fill="white" stroke="black" points="148,-112.5 148,-131.5 282,-131.5 282,-112.5 148,-112.5"/>
<text text-anchor="middle" x="215" y="-119.5" font-family="Helvetica,sans-Serif" font-size="10.00">code_generator_interface.h</text>
</a>
</g>
</g>
<!-- Node1&#45;&gt;Node4 -->
<g id="edge3" class="edge"><title>Node1&#45;&gt;Node4</title>
<path fill="none" stroke="midnightblue" d="M151.67,-168.399C164.601,-159.129 181.486,-147.025 194.568,-137.647"/>
<polygon fill="midnightblue" stroke="midnightblue" points="196.835,-140.329 202.923,-131.658 192.756,-134.639 196.835,-140.329"/>
</g>
<!-- Node3 -->
<g id="node3" class="node"><title>Node3</title>
<polygon fill="white" stroke="#bfbfbf" points="145.5,-0.5 145.5,-19.5 186.5,-19.5 186.5,-0.5 145.5,-0.5"/>
<text text-anchor="middle" x="166" y="-7.5" font-family="Helvetica,sans-Serif" font-size="10.00">string</text>
</g>
<!-- Node2&#45;&gt;Node3 -->
<g id="edge2" class="edge"><title>Node2&#45;&gt;Node3</title>
<path fill="none" stroke="midnightblue" d="M37.7623,-112.498C20.9794,-99.7932 -5.53443,-75.2856 9,-56 24.1886,-35.8463 94.1623,-21.9628 135.39,-15.3737"/>
<polygon fill="midnightblue" stroke="midnightblue" points="136.1,-18.8057 145.448,-13.8195 135.031,-11.8878 136.1,-18.8057"/>
</g>
<!-- Node5 -->
<g id="node5" class="node"><title>Node5</title>
<g id="a_node5"><a xlink:href="../../d9/d24/expression__node__interface_8h.html" target="_top" xlink:title="expression_node_interface.h">
<polygon fill="white" stroke="black" points="18,-56.5 18,-75.5 158,-75.5 158,-56.5 18,-56.5"/>
<text text-anchor="middle" x="88" y="-63.5" font-family="Helvetica,sans-Serif" font-size="10.00">expression_node_interface.h</text>
</a>
</g>
</g>
<!-- Node4&#45;&gt;Node5 -->
<g id="edge4" class="edge"><title>Node4&#45;&gt;Node5</title>
<path fill="none" stroke="midnightblue" d="M194.876,-112.444C173.976,-103.557 141.065,-89.5632 117.284,-79.4514"/>
<polygon fill="midnightblue" stroke="midnightblue" points="118.602,-76.2085 108.029,-75.5164 115.862,-82.6504 118.602,-76.2085"/>
</g>
<!-- Node6 -->
<g id="node6" class="node"><title>Node6</title>
<g id="a_node6"><a xlink:href="../../dd/d4b/statement__node__interface_8h.html" target="_top" xlink:title="statement_node_interface.h">
<polygon fill="white" stroke="black" points="176.5,-56.5 176.5,-75.5 313.5,-75.5 313.5,-56.5 176.5,-56.5"/>
<text text-anchor="middle" x="245" y="-63.5" font-family="Helvetica,sans-Serif" font-size="10.00">statement_node_interface.h</text>
</a>
</g>
</g>
<!-- Node4&#45;&gt;Node6 -->
<g id="edge6" class="edge"><title>Node4&#45;&gt;Node6</title>
<path fill="none" stroke="midnightblue" d="M219.954,-112.083C224.104,-104.613 230.153,-93.7244 235.267,-84.5199"/>
<polygon fill="midnightblue" stroke="midnightblue" points="238.341,-86.1924 240.138,-75.7511 232.222,-82.7929 238.341,-86.1924"/>
</g>
<!-- Node7 -->
<g id="node7" class="node"><title>Node7</title>
<g id="a_node7"><a xlink:href="../../df/d19/variable__node__interface_8h.html" target="_top" xlink:title="variable_node_interface.h">
<polygon fill="white" stroke="black" points="331.5,-56.5 331.5,-75.5 456.5,-75.5 456.5,-56.5 331.5,-56.5"/>
<text text-anchor="middle" x="394" y="-63.5" font-family="Helvetica,sans-Serif" font-size="10.00">variable_node_interface.h</text>
</a>
</g>
</g>
<!-- Node4&#45;&gt;Node7 -->
<g id="edge8" class="edge"><title>Node4&#45;&gt;Node7</title>
<path fill="none" stroke="midnightblue" d="M243.363,-112.444C273.738,-103.28 322.11,-88.6876 355.816,-78.5192"/>
<polygon fill="midnightblue" stroke="midnightblue" points="357.207,-81.7555 365.77,-75.5164 355.185,-75.0538 357.207,-81.7555"/>
</g>
<!-- Node5&#45;&gt;Node3 -->
<g id="edge5" class="edge"><title>Node5&#45;&gt;Node3</title>
<path fill="none" stroke="midnightblue" d="M100.532,-56.324C112.586,-47.979 131.027,-35.2122 145.269,-25.3524"/>
<polygon fill="midnightblue" stroke="midnightblue" points="147.269,-28.2243 153.499,-19.6545 143.285,-22.469 147.269,-28.2243"/>
</g>
<!-- Node6&#45;&gt;Node3 -->
<g id="edge7" class="edge"><title>Node6&#45;&gt;Node3</title>
<path fill="none" stroke="midnightblue" d="M232.307,-56.324C220.099,-47.979 201.422,-35.2122 186.997,-25.3524"/>
<polygon fill="midnightblue" stroke="midnightblue" points="188.892,-22.4082 178.661,-19.6545 184.942,-28.1871 188.892,-22.4082"/>
</g>
<!-- Node7&#45;&gt;Node3 -->
<g id="edge9" class="edge"><title>Node7&#45;&gt;Node3</title>
<path fill="none" stroke="midnightblue" d="M357.873,-56.4435C313.307,-45.8884 238.326,-28.1298 196.513,-18.2268"/>
<polygon fill="midnightblue" stroke="midnightblue" points="197.174,-14.7865 186.636,-15.8876 195.561,-21.5981 197.174,-14.7865"/>
</g>
</g>
</svg>
