<?xml version="1.0" encoding="UTF-8" standalone="no"?>
<!DOCTYPE svg PUBLIC "-//W3C//DTD SVG 1.1//EN"
 "http://www.w3.org/Graphics/SVG/1.1/DTD/svg11.dtd">
<!-- Generated by graphviz version 2.38.0 (20140413.2041)
 -->
<!-- Title: creational::prototype::MazePrototypeFactory Pages: 1 -->
<svg width="139pt" height="270pt"
 viewBox="0.00 0.00 139.00 270.00" xmlns="http://www.w3.org/2000/svg" xmlns:xlink="http://www.w3.org/1999/xlink">
<g id="graph0" class="graph" transform="scale(1 1) rotate(0) translate(4 266)">
<title>creational::prototype::MazePrototypeFactory</title>
<polygon fill="white" stroke="none" points="-4,4 -4,-266 135,-266 135,4 -4,4"/>
<!-- Node1 -->
<g id="node1" class="node"><title>Node1</title>
<polygon fill="#bfbfbf" stroke="black" points="0,-0.5 0,-112.5 131,-112.5 131,-0.5 0,-0.5"/>
<text text-anchor="start" x="8" y="-100.5" font-family="Helvetica,sans-Serif" font-size="10.00">creational::prototype</text>
<text text-anchor="middle" x="65.5" y="-89.5" font-family="Helvetica,sans-Serif" font-size="10.00">::MazePrototypeFactory</text>
<polyline fill="none" stroke="black" points="0,-82.5 131,-82.5 "/>
<text text-anchor="middle" x="65.5" y="-70.5" font-family="Helvetica,sans-Serif" font-size="10.00"> </text>
<polyline fill="none" stroke="black" points="0,-63.5 131,-63.5 "/>
<text text-anchor="start" x="8" y="-51.5" font-family="Helvetica,sans-Serif" font-size="10.00">+ MazePrototypeFactory()</text>
<text text-anchor="start" x="8" y="-40.5" font-family="Helvetica,sans-Serif" font-size="10.00">+ MakeMaze()</text>
<text text-anchor="start" x="8" y="-29.5" font-family="Helvetica,sans-Serif" font-size="10.00">+ MakeRoom()</text>
<text text-anchor="start" x="8" y="-18.5" font-family="Helvetica,sans-Serif" font-size="10.00">+ MakeWall()</text>
<text text-anchor="start" x="8" y="-7.5" font-family="Helvetica,sans-Serif" font-size="10.00">+ MakeDoor()</text>
</g>
<!-- Node2 -->
<g id="node2" class="node"><title>Node2</title>
<g id="a_node2"><a xlink:href="../../de/dce/classcreational_1_1abstractfactory_1_1_maze_factory_interface.html" target="_top" xlink:title="{creational::abstractfactory\l::MazeFactoryInterface\n||+ ~MazeFactoryInterface()\l+ MakeMaze()\l+ MakeWall()\l+ MakeRoom()\l+ MakeDoor()\l}">
<polygon fill="white" stroke="black" points="0,-149.5 0,-261.5 131,-261.5 131,-149.5 0,-149.5"/>
<text text-anchor="start" x="8" y="-249.5" font-family="Helvetica,sans-Serif" font-size="10.00">creational::abstractfactory</text>
<text text-anchor="middle" x="65.5" y="-238.5" font-family="Helvetica,sans-Serif" font-size="10.00">::MazeFactoryInterface</text>
<polyline fill="none" stroke="black" points="0,-231.5 131,-231.5 "/>
<text text-anchor="middle" x="65.5" y="-219.5" font-family="Helvetica,sans-Serif" font-size="10.00"> </text>
<polyline fill="none" stroke="black" points="0,-212.5 131,-212.5 "/>
<text text-anchor="start" x="8" y="-200.5" font-family="Helvetica,sans-Serif" font-size="10.00">+ ~MazeFactoryInterface()</text>
<text text-anchor="start" x="8" y="-189.5" font-family="Helvetica,sans-Serif" font-size="10.00">+ MakeMaze()</text>
<text text-anchor="start" x="8" y="-178.5" font-family="Helvetica,sans-Serif" font-size="10.00">+ MakeWall()</text>
<text text-anchor="start" x="8" y="-167.5" font-family="Helvetica,sans-Serif" font-size="10.00">+ MakeRoom()</text>
<text text-anchor="start" x="8" y="-156.5" font-family="Helvetica,sans-Serif" font-size="10.00">+ MakeDoor()</text>
</a>
</g>
</g>
<!-- Node2&#45;&gt;Node1 -->
<g id="edge1" class="edge"><title>Node2&#45;&gt;Node1</title>
<path fill="none" stroke="midnightblue" d="M65.5,-139.176C65.5,-130.427 65.5,-121.522 65.5,-112.965"/>
<polygon fill="none" stroke="midnightblue" points="62.0001,-139.344 65.5,-149.344 69.0001,-139.344 62.0001,-139.344"/>
</g>
</g>
</svg>
