<?xml version="1.0" encoding="UTF-8" standalone="no"?>
<!DOCTYPE svg PUBLIC "-//W3C//DTD SVG 1.1//EN"
 "http://www.w3.org/Graphics/SVG/1.1/DTD/svg11.dtd">
<!-- Generated by graphviz version 2.38.0 (20140413.2041)
 -->
<!-- Title: src/structural/src/proxy/image_proxy.cc Pages: 1 -->
<svg width="217pt" height="319pt"
 viewBox="0.00 0.00 216.50 319.00" xmlns="http://www.w3.org/2000/svg" xmlns:xlink="http://www.w3.org/1999/xlink">
<g id="graph0" class="graph" transform="scale(1 1) rotate(0) translate(4 315)">
<title>src/structural/src/proxy/image_proxy.cc</title>
<polygon fill="white" stroke="none" points="-4,4 -4,-315 212.5,-315 212.5,4 -4,4"/>
<!-- Node1 -->
<g id="node1" class="node"><title>Node1</title>
<polygon fill="#bfbfbf" stroke="black" points="62.5,-280.5 62.5,-310.5 178.5,-310.5 178.5,-280.5 62.5,-280.5"/>
<text text-anchor="start" x="70.5" y="-298.5" font-family="Helvetica,sans-Serif" font-size="10.00">src/structural/src</text>
<text text-anchor="middle" x="120.5" y="-287.5" font-family="Helvetica,sans-Serif" font-size="10.00">/proxy/image_proxy.cc</text>
</g>
<!-- Node2 -->
<g id="node2" class="node"><title>Node2</title>
<g id="a_node2"><a xlink:href="../../dc/dca/image__proxy_8h.html" target="_top" xlink:title="image_proxy.h">
<polygon fill="white" stroke="black" points="80.5,-224.5 80.5,-243.5 160.5,-243.5 160.5,-224.5 80.5,-224.5"/>
<text text-anchor="middle" x="120.5" y="-231.5" font-family="Helvetica,sans-Serif" font-size="10.00">image_proxy.h</text>
</a>
</g>
</g>
<!-- Node1&#45;&gt;Node2 -->
<g id="edge1" class="edge"><title>Node1&#45;&gt;Node2</title>
<path fill="none" stroke="midnightblue" d="M120.5,-280.399C120.5,-272.466 120.5,-262.458 120.5,-253.858"/>
<polygon fill="midnightblue" stroke="midnightblue" points="124,-253.658 120.5,-243.658 117,-253.658 124,-253.658"/>
</g>
<!-- Node3 -->
<g id="node3" class="node"><title>Node3</title>
<g id="a_node3"><a xlink:href="../../d1/dda/graphic__interface_8h.html" target="_top" xlink:title="graphic_interface.h">
<polygon fill="white" stroke="black" points="110.5,-112.5 110.5,-131.5 208.5,-131.5 208.5,-112.5 110.5,-112.5"/>
<text text-anchor="middle" x="159.5" y="-119.5" font-family="Helvetica,sans-Serif" font-size="10.00">graphic_interface.h</text>
</a>
</g>
</g>
<!-- Node2&#45;&gt;Node3 -->
<g id="edge2" class="edge"><title>Node2&#45;&gt;Node3</title>
<path fill="none" stroke="midnightblue" d="M123.56,-224.368C129.882,-206.537 144.504,-165.295 153.022,-141.272"/>
<polygon fill="midnightblue" stroke="midnightblue" points="156.411,-142.186 156.454,-131.591 149.813,-139.847 156.411,-142.186"/>
</g>
<!-- Node7 -->
<g id="node7" class="node"><title>Node7</title>
<g id="a_node7"><a xlink:href="../../d5/db2/image_8h.html" target="_top" xlink:title="image.h">
<polygon fill="white" stroke="black" points="63,-168.5 63,-187.5 114,-187.5 114,-168.5 63,-168.5"/>
<text text-anchor="middle" x="88.5" y="-175.5" font-family="Helvetica,sans-Serif" font-size="10.00">image.h</text>
</a>
</g>
</g>
<!-- Node2&#45;&gt;Node7 -->
<g id="edge6" class="edge"><title>Node2&#45;&gt;Node7</title>
<path fill="none" stroke="midnightblue" d="M115.216,-224.083C110.789,-216.613 104.337,-205.724 98.8821,-196.52"/>
<polygon fill="midnightblue" stroke="midnightblue" points="101.795,-194.57 93.6858,-187.751 95.7729,-198.138 101.795,-194.57"/>
</g>
<!-- Node4 -->
<g id="node4" class="node"><title>Node4</title>
<g id="a_node4"><a xlink:href="../../dd/d20/event_8h.html" target="_top" xlink:title="event.h">
<polygon fill="white" stroke="black" points="130,-56.5 130,-75.5 177,-75.5 177,-56.5 130,-56.5"/>
<text text-anchor="middle" x="153.5" y="-63.5" font-family="Helvetica,sans-Serif" font-size="10.00">event.h</text>
</a>
</g>
</g>
<!-- Node3&#45;&gt;Node4 -->
<g id="edge3" class="edge"><title>Node3&#45;&gt;Node4</title>
<path fill="none" stroke="midnightblue" d="M158.509,-112.083C157.714,-104.927 156.571,-94.6353 155.577,-85.6911"/>
<polygon fill="midnightblue" stroke="midnightblue" points="159.055,-85.3034 154.472,-75.7511 152.098,-86.0765 159.055,-85.3034"/>
</g>
<!-- Node5 -->
<g id="node5" class="node"><title>Node5</title>
<g id="a_node5"><a xlink:href="../../d2/d91/point_8h.html" target="_top" xlink:title="../commons/point.h">
<polygon fill="white" stroke="black" points="0,-56.5 0,-75.5 101,-75.5 101,-56.5 0,-56.5"/>
<text text-anchor="middle" x="50.5" y="-63.5" font-family="Helvetica,sans-Serif" font-size="10.00">../commons/point.h</text>
</a>
</g>
</g>
<!-- Node3&#45;&gt;Node5 -->
<g id="edge4" class="edge"><title>Node3&#45;&gt;Node5</title>
<path fill="none" stroke="midnightblue" d="M141.987,-112.324C124.428,-103.625 97.1686,-90.1202 76.9688,-80.113"/>
<polygon fill="midnightblue" stroke="midnightblue" points="78.4837,-76.9575 67.9693,-75.6545 75.3762,-83.23 78.4837,-76.9575"/>
</g>
<!-- Node6 -->
<g id="node6" class="node"><title>Node6</title>
<polygon fill="white" stroke="#bfbfbf" points="23.5,-0.5 23.5,-19.5 77.5,-19.5 77.5,-0.5 23.5,-0.5"/>
<text text-anchor="middle" x="50.5" y="-7.5" font-family="Helvetica,sans-Serif" font-size="10.00">iostream</text>
</g>
<!-- Node5&#45;&gt;Node6 -->
<g id="edge5" class="edge"><title>Node5&#45;&gt;Node6</title>
<path fill="none" stroke="midnightblue" d="M50.5,-56.083C50.5,-49.0059 50.5,-38.8611 50.5,-29.9865"/>
<polygon fill="midnightblue" stroke="midnightblue" points="54.0001,-29.751 50.5,-19.7511 47.0001,-29.7511 54.0001,-29.751"/>
</g>
<!-- Node7&#45;&gt;Node3 -->
<g id="edge8" class="edge"><title>Node7&#45;&gt;Node3</title>
<path fill="none" stroke="midnightblue" d="M99.9074,-168.324C110.609,-160.185 126.841,-147.839 139.663,-138.087"/>
<polygon fill="midnightblue" stroke="midnightblue" points="142.044,-140.673 147.885,-131.834 137.807,-135.102 142.044,-140.673"/>
</g>
<!-- Node7&#45;&gt;Node4 -->
<g id="edge7" class="edge"><title>Node7&#45;&gt;Node4</title>
<path fill="none" stroke="midnightblue" d="M88.4883,-168.383C88.835,-155.316 90.9584,-130.099 101.5,-112 108.542,-99.9104 120.033,-89.4595 130.425,-81.6804"/>
<polygon fill="midnightblue" stroke="midnightblue" points="132.615,-84.4185 138.773,-75.797 128.583,-78.6966 132.615,-84.4185"/>
</g>
<!-- Node7&#45;&gt;Node5 -->
<g id="edge9" class="edge"><title>Node7&#45;&gt;Node5</title>
<path fill="none" stroke="midnightblue" d="M84.1191,-168.194C79.7743,-159.236 73.1157,-144.877 68.5,-132 62.9437,-116.499 58.0603,-98.4146 54.7871,-85.262"/>
<polygon fill="midnightblue" stroke="midnightblue" points="58.1884,-84.4366 52.4369,-75.5388 51.3844,-86.0813 58.1884,-84.4366"/>
</g>
</g>
</svg>
