<?xml version="1.0" encoding="UTF-8" standalone="no"?>
<!DOCTYPE svg PUBLIC "-//W3C//DTD SVG 1.1//EN"
 "http://www.w3.org/Graphics/SVG/1.1/DTD/svg11.dtd">
<!-- Generated by graphviz version 2.38.0 (20140413.2041)
 -->
<!-- Title: src/operational/src/memento/graphic.cc Pages: 1 -->
<svg width="119pt" height="218pt"
 viewBox="0.00 0.00 119.00 218.00" xmlns="http://www.w3.org/2000/svg" xmlns:xlink="http://www.w3.org/1999/xlink">
<g id="graph0" class="graph" transform="scale(1 1) rotate(0) translate(4 214)">
<title>src/operational/src/memento/graphic.cc</title>
<polygon fill="white" stroke="none" points="-4,4 -4,-214 115,-214 115,4 -4,4"/>
<!-- Node1 -->
<g id="node1" class="node"><title>Node1</title>
<polygon fill="#bfbfbf" stroke="black" points="1.5,-179.5 1.5,-209.5 109.5,-209.5 109.5,-179.5 1.5,-179.5"/>
<text text-anchor="start" x="9.5" y="-197.5" font-family="Helvetica,sans-Serif" font-size="10.00">src/operational/src</text>
<text text-anchor="middle" x="55.5" y="-186.5" font-family="Helvetica,sans-Serif" font-size="10.00">/memento/graphic.cc</text>
</g>
<!-- Node2 -->
<g id="node2" class="node"><title>Node2</title>
<g id="a_node2"><a xlink:href="../../dd/d36/graphic_8h.html" target="_top" xlink:title="graphic.h">
<polygon fill="white" stroke="black" points="27.5,-123.5 27.5,-142.5 83.5,-142.5 83.5,-123.5 27.5,-123.5"/>
<text text-anchor="middle" x="55.5" y="-130.5" font-family="Helvetica,sans-Serif" font-size="10.00">graphic.h</text>
</a>
</g>
</g>
<!-- Node1&#45;&gt;Node2 -->
<g id="edge1" class="edge"><title>Node1&#45;&gt;Node2</title>
<path fill="none" stroke="midnightblue" d="M55.5,-179.399C55.5,-171.466 55.5,-161.458 55.5,-152.858"/>
<polygon fill="midnightblue" stroke="midnightblue" points="59.0001,-152.658 55.5,-142.658 52.0001,-152.658 59.0001,-152.658"/>
</g>
<!-- Node3 -->
<g id="node3" class="node"><title>Node3</title>
<g id="a_node3"><a xlink:href="../../d2/d91/point_8h.html" target="_top" xlink:title="../../../structural\l/src/commons/point.h">
<polygon fill="white" stroke="black" points="0,-56.5 0,-86.5 111,-86.5 111,-56.5 0,-56.5"/>
<text text-anchor="start" x="8" y="-74.5" font-family="Helvetica,sans-Serif" font-size="10.00">../../../structural</text>
<text text-anchor="middle" x="55.5" y="-63.5" font-family="Helvetica,sans-Serif" font-size="10.00">/src/commons/point.h</text>
</a>
</g>
</g>
<!-- Node2&#45;&gt;Node3 -->
<g id="edge2" class="edge"><title>Node2&#45;&gt;Node3</title>
<path fill="none" stroke="midnightblue" d="M55.5,-123.475C55.5,-116.471 55.5,-106.192 55.5,-96.6956"/>
<polygon fill="midnightblue" stroke="midnightblue" points="59.0001,-96.5229 55.5,-86.523 52.0001,-96.523 59.0001,-96.5229"/>
</g>
<!-- Node4 -->
<g id="node4" class="node"><title>Node4</title>
<polygon fill="white" stroke="#bfbfbf" points="28.5,-0.5 28.5,-19.5 82.5,-19.5 82.5,-0.5 28.5,-0.5"/>
<text text-anchor="middle" x="55.5" y="-7.5" font-family="Helvetica,sans-Serif" font-size="10.00">iostream</text>
</g>
<!-- Node3&#45;&gt;Node4 -->
<g id="edge3" class="edge"><title>Node3&#45;&gt;Node4</title>
<path fill="none" stroke="midnightblue" d="M55.5,-56.3993C55.5,-48.4664 55.5,-38.458 55.5,-29.8583"/>
<polygon fill="midnightblue" stroke="midnightblue" points="59.0001,-29.6577 55.5,-19.6578 52.0001,-29.6578 59.0001,-29.6577"/>
</g>
</g>
</svg>
