<?xml version="1.0" encoding="UTF-8" standalone="no"?>
<!DOCTYPE svg PUBLIC "-//W3C//DTD SVG 1.1//EN"
 "http://www.w3.org/Graphics/SVG/1.1/DTD/svg11.dtd">
<!-- Generated by graphviz version 2.38.0 (20140413.2041)
 -->
<!-- Title: src/structural/src/composite/composite_equipment.h Pages: 1 -->
<svg width="629pt" height="206pt"
 viewBox="0.00 0.00 629.00 206.00" xmlns="http://www.w3.org/2000/svg" xmlns:xlink="http://www.w3.org/1999/xlink">
<g id="graph0" class="graph" transform="scale(1 1) rotate(0) translate(4 202)">
<title>src/structural/src/composite/composite_equipment.h</title>
<polygon fill="white" stroke="none" points="-4,4 -4,-202 625,-202 625,4 -4,4"/>
<!-- Node1 -->
<g id="node1" class="node"><title>Node1</title>
<polygon fill="#bfbfbf" stroke="black" points="314,-156.5 314,-197.5 427,-197.5 427,-156.5 314,-156.5"/>
<text text-anchor="start" x="322" y="-185.5" font-family="Helvetica,sans-Serif" font-size="10.00">src/structural/src</text>
<text text-anchor="start" x="322" y="-174.5" font-family="Helvetica,sans-Serif" font-size="10.00">/composite/composite</text>
<text text-anchor="middle" x="370.5" y="-163.5" font-family="Helvetica,sans-Serif" font-size="10.00">_equipment.h</text>
</g>
<!-- Node2 -->
<g id="node2" class="node"><title>Node2</title>
<g id="a_node2"><a xlink:href="../../d7/d66/structural_2src_2composite_2bus_8h.html" target="_top" xlink:title="src/structural/src\l/composite/bus.h">
<polygon fill="white" stroke="black" points="133.5,-84 133.5,-114 225.5,-114 225.5,-84 133.5,-84"/>
<text text-anchor="start" x="141.5" y="-102" font-family="Helvetica,sans-Serif" font-size="10.00">src/structural/src</text>
<text text-anchor="middle" x="179.5" y="-91" font-family="Helvetica,sans-Serif" font-size="10.00">/composite/bus.h</text>
</a>
</g>
</g>
<!-- Node1&#45;&gt;Node2 -->
<g id="edge1" class="edge"><title>Node1&#45;&gt;Node2</title>
<path fill="none" stroke="midnightblue" d="M311.714,-152.609C280.066,-140.016 242.073,-124.898 214.952,-114.106"/>
<polygon fill="midnightblue" stroke="midnightblue" points="310.727,-155.983 321.313,-156.428 313.315,-149.479 310.727,-155.983"/>
</g>
<!-- Node5 -->
<g id="node5" class="node"><title>Node5</title>
<g id="a_node5"><a xlink:href="../../d4/d06/cabinet_8h.html" target="_top" xlink:title="src/structural/src\l/composite/cabinet.h">
<polygon fill="white" stroke="black" points="254,-84 254,-114 361,-114 361,-84 254,-84"/>
<text text-anchor="start" x="262" y="-102" font-family="Helvetica,sans-Serif" font-size="10.00">src/structural/src</text>
<text text-anchor="middle" x="307.5" y="-91" font-family="Helvetica,sans-Serif" font-size="10.00">/composite/cabinet.h</text>
</a>
</g>
</g>
<!-- Node1&#45;&gt;Node5 -->
<g id="edge4" class="edge"><title>Node1&#45;&gt;Node5</title>
<path fill="none" stroke="midnightblue" d="M347.832,-148.654C338.173,-137.002 327.309,-123.897 319.292,-114.225"/>
<polygon fill="midnightblue" stroke="midnightblue" points="345.199,-150.963 354.276,-156.428 350.589,-146.496 345.199,-150.963"/>
</g>
<!-- Node7 -->
<g id="node7" class="node"><title>Node7</title>
<g id="a_node7"><a xlink:href="../../db/d73/structural_2src_2composite_2chassis_8h.html" target="_top" xlink:title="src/structural/src\l/composite/chassis.h">
<polygon fill="white" stroke="black" points="379.5,-84 379.5,-114 489.5,-114 489.5,-84 379.5,-84"/>
<text text-anchor="start" x="387.5" y="-102" font-family="Helvetica,sans-Serif" font-size="10.00">src/structural/src</text>
<text text-anchor="middle" x="434.5" y="-91" font-family="Helvetica,sans-Serif" font-size="10.00">/composite/chassis.h</text>
</a>
</g>
</g>
<!-- Node1&#45;&gt;Node7 -->
<g id="edge7" class="edge"><title>Node1&#45;&gt;Node7</title>
<path fill="none" stroke="midnightblue" d="M393.528,-148.654C403.34,-137.002 414.376,-123.897 422.521,-114.225"/>
<polygon fill="midnightblue" stroke="midnightblue" points="390.746,-146.524 386.982,-156.428 396.1,-151.033 390.746,-146.524"/>
</g>
<!-- Node9 -->
<g id="node9" class="node"><title>Node9</title>
<g id="a_node9"><a xlink:href="../../d6/dc4/composite__equipment_8cc.html" target="_top" xlink:title="src/structural/src\l/composite/composite\l_equipment.cc">
<polygon fill="white" stroke="black" points="508,-78.5 508,-119.5 621,-119.5 621,-78.5 508,-78.5"/>
<text text-anchor="start" x="516" y="-107.5" font-family="Helvetica,sans-Serif" font-size="10.00">src/structural/src</text>
<text text-anchor="start" x="516" y="-96.5" font-family="Helvetica,sans-Serif" font-size="10.00">/composite/composite</text>
<text text-anchor="middle" x="564.5" y="-85.5" font-family="Helvetica,sans-Serif" font-size="10.00">_equipment.cc</text>
</a>
</g>
</g>
<!-- Node1&#45;&gt;Node9 -->
<g id="edge9" class="edge"><title>Node1&#45;&gt;Node9</title>
<path fill="none" stroke="midnightblue" d="M429.854,-152.748C457.01,-142.11 488.825,-129.646 514.709,-119.506"/>
<polygon fill="midnightblue" stroke="midnightblue" points="428.494,-149.522 420.46,-156.428 431.048,-156.039 428.494,-149.522"/>
</g>
<!-- Node3 -->
<g id="node3" class="node"><title>Node3</title>
<g id="a_node3"><a xlink:href="../../d5/dbd/structural_2src_2composite_2bus_8cc.html" target="_top" xlink:title="src/structural/src\l/composite/bus.cc">
<polygon fill="white" stroke="black" points="0,-6 0,-36 97,-36 97,-6 0,-6"/>
<text text-anchor="start" x="8" y="-24" font-family="Helvetica,sans-Serif" font-size="10.00">src/structural/src</text>
<text text-anchor="middle" x="48.5" y="-13" font-family="Helvetica,sans-Serif" font-size="10.00">/composite/bus.cc</text>
</a>
</g>
</g>
<!-- Node2&#45;&gt;Node3 -->
<g id="edge2" class="edge"><title>Node2&#45;&gt;Node3</title>
<path fill="none" stroke="midnightblue" d="M146.442,-78.8214C123.493,-65.5075 93.4361,-48.0698 72.7028,-36.0413"/>
<polygon fill="midnightblue" stroke="midnightblue" points="144.761,-81.8923 155.167,-83.8831 148.274,-75.8375 144.761,-81.8923"/>
</g>
<!-- Node4 -->
<g id="node4" class="node"><title>Node4</title>
<g id="a_node4"><a xlink:href="../../d3/dcb/composite__test_8cc.html" target="_top" xlink:title="src/structural_tests\l/src/composite/composite\l_test.cc">
<polygon fill="white" stroke="black" points="115,-0.5 115,-41.5 244,-41.5 244,-0.5 115,-0.5"/>
<text text-anchor="start" x="123" y="-29.5" font-family="Helvetica,sans-Serif" font-size="10.00">src/structural_tests</text>
<text text-anchor="start" x="123" y="-18.5" font-family="Helvetica,sans-Serif" font-size="10.00">/src/composite/composite</text>
<text text-anchor="middle" x="179.5" y="-7.5" font-family="Helvetica,sans-Serif" font-size="10.00">_test.cc</text>
</a>
</g>
</g>
<!-- Node2&#45;&gt;Node4 -->
<g id="edge3" class="edge"><title>Node2&#45;&gt;Node4</title>
<path fill="none" stroke="midnightblue" d="M179.5,-73.656C179.5,-63.3257 179.5,-51.4425 179.5,-41.68"/>
<polygon fill="midnightblue" stroke="midnightblue" points="176,-73.7049 179.5,-83.705 183,-73.705 176,-73.7049"/>
</g>
<!-- Node5&#45;&gt;Node4 -->
<g id="edge6" class="edge"><title>Node5&#45;&gt;Node4</title>
<path fill="none" stroke="midnightblue" d="M275.087,-78.7547C256.036,-67.4432 232.001,-53.1727 212.799,-41.7713"/>
<polygon fill="midnightblue" stroke="midnightblue" points="273.339,-81.7872 283.724,-83.8831 276.913,-75.7682 273.339,-81.7872"/>
</g>
<!-- Node6 -->
<g id="node6" class="node"><title>Node6</title>
<g id="a_node6"><a xlink:href="../../da/dfc/cabinet_8cc.html" target="_top" xlink:title="src/structural/src\l/composite/cabinet.cc">
<polygon fill="white" stroke="black" points="262,-6 262,-36 375,-36 375,-6 262,-6"/>
<text text-anchor="start" x="270" y="-24" font-family="Helvetica,sans-Serif" font-size="10.00">src/structural/src</text>
<text text-anchor="middle" x="318.5" y="-13" font-family="Helvetica,sans-Serif" font-size="10.00">/composite/cabinet.cc</text>
</a>
</g>
</g>
<!-- Node5&#45;&gt;Node6 -->
<g id="edge5" class="edge"><title>Node5&#45;&gt;Node6</title>
<path fill="none" stroke="midnightblue" d="M311.033,-73.5898C312.818,-61.2565 314.922,-46.7237 316.44,-36.2309"/>
<polygon fill="midnightblue" stroke="midnightblue" points="307.538,-73.3067 309.569,-83.705 314.465,-74.3095 307.538,-73.3067"/>
</g>
<!-- Node8 -->
<g id="node8" class="node"><title>Node8</title>
<g id="a_node8"><a xlink:href="../../d6/d70/structural_2src_2composite_2chassis_8cc.html" target="_top" xlink:title="src/structural/src\l/composite/chassis.cc">
<polygon fill="white" stroke="black" points="393,-6 393,-36 508,-36 508,-6 393,-6"/>
<text text-anchor="start" x="401" y="-24" font-family="Helvetica,sans-Serif" font-size="10.00">src/structural/src</text>
<text text-anchor="middle" x="450.5" y="-13" font-family="Helvetica,sans-Serif" font-size="10.00">/composite/chassis.cc</text>
</a>
</g>
</g>
<!-- Node7&#45;&gt;Node8 -->
<g id="edge8" class="edge"><title>Node7&#45;&gt;Node8</title>
<path fill="none" stroke="midnightblue" d="M439.639,-73.5898C442.235,-61.2565 445.295,-46.7237 447.504,-36.2309"/>
<polygon fill="midnightblue" stroke="midnightblue" points="436.145,-73.1984 437.509,-83.705 442.995,-74.6405 436.145,-73.1984"/>
</g>
</g>
</svg>
