<?xml version="1.0" encoding="UTF-8" standalone="no"?>
<!DOCTYPE svg PUBLIC "-//W3C//DTD SVG 1.1//EN"
 "http://www.w3.org/Graphics/SVG/1.1/DTD/svg11.dtd">
<!-- Generated by graphviz version 2.38.0 (20140413.2041)
 -->
<!-- Title: src/operational/src/mediator/mediator_button.cc Pages: 1 -->
<svg width="196pt" height="319pt"
 viewBox="0.00 0.00 196.00 319.00" xmlns="http://www.w3.org/2000/svg" xmlns:xlink="http://www.w3.org/1999/xlink">
<g id="graph0" class="graph" transform="scale(1 1) rotate(0) translate(4 315)">
<title>src/operational/src/mediator/mediator_button.cc</title>
<polygon fill="white" stroke="none" points="-4,4 -4,-315 192,-315 192,4 -4,4"/>
<!-- Node1 -->
<g id="node1" class="node"><title>Node1</title>
<polygon fill="#bfbfbf" stroke="black" points="45,-280.5 45,-310.5 188,-310.5 188,-280.5 45,-280.5"/>
<text text-anchor="start" x="53" y="-298.5" font-family="Helvetica,sans-Serif" font-size="10.00">src/operational/src</text>
<text text-anchor="middle" x="116.5" y="-287.5" font-family="Helvetica,sans-Serif" font-size="10.00">/mediator/mediator_button.cc</text>
</g>
<!-- Node2 -->
<g id="node2" class="node"><title>Node2</title>
<g id="a_node2"><a xlink:href="../../d0/dc7/mediator__button_8h.html" target="_top" xlink:title="mediator_button.h">
<polygon fill="white" stroke="black" points="31,-224.5 31,-243.5 126,-243.5 126,-224.5 31,-224.5"/>
<text text-anchor="middle" x="78.5" y="-231.5" font-family="Helvetica,sans-Serif" font-size="10.00">mediator_button.h</text>
</a>
</g>
</g>
<!-- Node1&#45;&gt;Node2 -->
<g id="edge1" class="edge"><title>Node1&#45;&gt;Node2</title>
<path fill="none" stroke="midnightblue" d="M107.495,-280.399C102.087,-271.932 95.1683,-261.099 89.4461,-252.139"/>
<polygon fill="midnightblue" stroke="midnightblue" points="92.3616,-250.202 84.0293,-243.658 86.4621,-253.97 92.3616,-250.202"/>
</g>
<!-- Node7 -->
<g id="node7" class="node"><title>Node7</title>
<polygon fill="white" stroke="#bfbfbf" points="134,-168.5 134,-187.5 175,-187.5 175,-168.5 134,-168.5"/>
<text text-anchor="middle" x="154.5" y="-175.5" font-family="Helvetica,sans-Serif" font-size="10.00">string</text>
</g>
<!-- Node1&#45;&gt;Node7 -->
<g id="edge8" class="edge"><title>Node1&#45;&gt;Node7</title>
<path fill="none" stroke="midnightblue" d="M121.71,-280.408C125.397,-270.311 130.395,-256.367 134.5,-244 139.672,-228.417 145.126,-210.583 149.031,-197.543"/>
<polygon fill="midnightblue" stroke="midnightblue" points="152.411,-198.453 151.905,-187.87 145.701,-196.459 152.411,-198.453"/>
</g>
<!-- Node3 -->
<g id="node3" class="node"><title>Node3</title>
<g id="a_node3"><a xlink:href="../../dd/dcb/mediator__widget_8h.html" target="_top" xlink:title="mediator_widget.h">
<polygon fill="white" stroke="black" points="21,-168.5 21,-187.5 116,-187.5 116,-168.5 21,-168.5"/>
<text text-anchor="middle" x="68.5" y="-175.5" font-family="Helvetica,sans-Serif" font-size="10.00">mediator_widget.h</text>
</a>
</g>
</g>
<!-- Node2&#45;&gt;Node3 -->
<g id="edge2" class="edge"><title>Node2&#45;&gt;Node3</title>
<path fill="none" stroke="midnightblue" d="M76.8487,-224.083C75.5236,-216.927 73.6176,-206.635 71.9613,-197.691"/>
<polygon fill="midnightblue" stroke="midnightblue" points="75.383,-196.947 70.1206,-187.751 68.5001,-198.221 75.383,-196.947"/>
</g>
<!-- Node2&#45;&gt;Node7 -->
<g id="edge7" class="edge"><title>Node2&#45;&gt;Node7</title>
<path fill="none" stroke="midnightblue" d="M90.7107,-224.324C102.276,-216.107 119.875,-203.602 133.661,-193.807"/>
<polygon fill="midnightblue" stroke="midnightblue" points="135.943,-196.479 142.067,-187.834 131.888,-190.773 135.943,-196.479"/>
</g>
<!-- Node4 -->
<g id="node4" class="node"><title>Node4</title>
<g id="a_node4"><a xlink:href="../../d5/d0b/mediator__widget__interface_8h.html" target="_top" xlink:title="mediator_widget_interface.h">
<polygon fill="white" stroke="black" points="0,-56.5 0,-75.5 137,-75.5 137,-56.5 0,-56.5"/>
<text text-anchor="middle" x="68.5" y="-63.5" font-family="Helvetica,sans-Serif" font-size="10.00">mediator_widget_interface.h</text>
</a>
</g>
</g>
<!-- Node3&#45;&gt;Node4 -->
<g id="edge3" class="edge"><title>Node3&#45;&gt;Node4</title>
<path fill="none" stroke="midnightblue" d="M61.3485,-168.364C54.7268,-159.763 45.3426,-145.873 41.5,-132 36.828,-115.132 45.8364,-96.7917 54.6792,-83.9067"/>
<polygon fill="midnightblue" stroke="midnightblue" points="57.7123,-85.6945 60.8908,-75.5877 52.1033,-81.5064 57.7123,-85.6945"/>
</g>
<!-- Node6 -->
<g id="node6" class="node"><title>Node6</title>
<g id="a_node6"><a xlink:href="../../d6/d19/dialog__director__interface_8h.html" target="_top" xlink:title="dialog_director_interface.h">
<polygon fill="white" stroke="black" points="50.5,-112.5 50.5,-131.5 180.5,-131.5 180.5,-112.5 50.5,-112.5"/>
<text text-anchor="middle" x="115.5" y="-119.5" font-family="Helvetica,sans-Serif" font-size="10.00">dialog_director_interface.h</text>
</a>
</g>
</g>
<!-- Node3&#45;&gt;Node6 -->
<g id="edge5" class="edge"><title>Node3&#45;&gt;Node6</title>
<path fill="none" stroke="midnightblue" d="M76.2611,-168.083C83.0368,-160.298 93.0432,-148.801 101.255,-139.367"/>
<polygon fill="midnightblue" stroke="midnightblue" points="103.958,-141.592 107.883,-131.751 98.678,-136.996 103.958,-141.592"/>
</g>
<!-- Node5 -->
<g id="node5" class="node"><title>Node5</title>
<g id="a_node5"><a xlink:href="../../d4/da7/mouse__event_8h.html" target="_top" xlink:title="mouse_event.h">
<polygon fill="white" stroke="black" points="27.5,-0.5 27.5,-19.5 109.5,-19.5 109.5,-0.5 27.5,-0.5"/>
<text text-anchor="middle" x="68.5" y="-7.5" font-family="Helvetica,sans-Serif" font-size="10.00">mouse_event.h</text>
</a>
</g>
</g>
<!-- Node4&#45;&gt;Node5 -->
<g id="edge4" class="edge"><title>Node4&#45;&gt;Node5</title>
<path fill="none" stroke="midnightblue" d="M68.5,-56.083C68.5,-49.0059 68.5,-38.8611 68.5,-29.9865"/>
<polygon fill="midnightblue" stroke="midnightblue" points="72.0001,-29.751 68.5,-19.7511 65.0001,-29.7511 72.0001,-29.751"/>
</g>
<!-- Node6&#45;&gt;Node4 -->
<g id="edge6" class="edge"><title>Node6&#45;&gt;Node4</title>
<path fill="none" stroke="midnightblue" d="M107.739,-112.083C100.963,-104.298 90.9568,-92.8015 82.7449,-83.3665"/>
<polygon fill="midnightblue" stroke="midnightblue" points="85.322,-80.9963 76.1167,-75.7511 80.0419,-85.592 85.322,-80.9963"/>
</g>
</g>
</svg>
