<?xml version="1.0" encoding="UTF-8" standalone="no"?>
<!DOCTYPE svg PUBLIC "-//W3C//DTD SVG 1.1//EN"
 "http://www.w3.org/Graphics/SVG/1.1/DTD/svg11.dtd">
<!-- Generated by graphviz version 2.38.0 (20140413.2041)
 -->
<!-- Title: operational::visitor::FloppyDisk::Accept Pages: 1 -->
<svg width="286pt" height="50pt"
 viewBox="0.00 0.00 286.00 50.00" xmlns="http://www.w3.org/2000/svg" xmlns:xlink="http://www.w3.org/1999/xlink">
<g id="graph0" class="graph" transform="scale(1 1) rotate(0) translate(4 46)">
<title>operational::visitor::FloppyDisk::Accept</title>
<polygon fill="white" stroke="none" points="-4,4 -4,-46 282,-46 282,4 -4,4"/>
<!-- Node1 -->
<g id="node1" class="node"><title>Node1</title>
<polygon fill="#bfbfbf" stroke="black" points="0,-6 0,-36 108,-36 108,-6 0,-6"/>
<text text-anchor="start" x="8" y="-24" font-family="Helvetica,sans-Serif" font-size="10.00">operational::visitor</text>
<text text-anchor="middle" x="54" y="-13" font-family="Helvetica,sans-Serif" font-size="10.00">::FloppyDisk::Accept</text>
</g>
<!-- Node2 -->
<g id="node2" class="node"><title>Node2</title>
<g id="a_node2"><a xlink:href="../../df/dc7/classoperational_1_1visitor_1_1_equipment_visitor_interface.html#a3b04adcda957bc32dbb4ccceb0372ab1" target="_top" xlink:title="operational::visitor\l::EquipmentVisitorInterface\l::VisitFloppyDisk">
<polygon fill="white" stroke="black" points="144,-0.5 144,-41.5 278,-41.5 278,-0.5 144,-0.5"/>
<text text-anchor="start" x="152" y="-29.5" font-family="Helvetica,sans-Serif" font-size="10.00">operational::visitor</text>
<text text-anchor="start" x="152" y="-18.5" font-family="Helvetica,sans-Serif" font-size="10.00">::EquipmentVisitorInterface</text>
<text text-anchor="middle" x="211" y="-7.5" font-family="Helvetica,sans-Serif" font-size="10.00">::VisitFloppyDisk</text>
</a>
</g>
</g>
<!-- Node1&#45;&gt;Node2 -->
<g id="edge1" class="edge"><title>Node1&#45;&gt;Node2</title>
<path fill="none" stroke="midnightblue" d="M108.342,-21C116.587,-21 125.238,-21 133.866,-21"/>
<polygon fill="midnightblue" stroke="midnightblue" points="133.959,-24.5001 143.959,-21 133.959,-17.5001 133.959,-24.5001"/>
</g>
</g>
</svg>
