<?xml version="1.0" encoding="UTF-8" standalone="no"?>
<!DOCTYPE svg PUBLIC "-//W3C//DTD SVG 1.1//EN"
 "http://www.w3.org/Graphics/SVG/1.1/DTD/svg11.dtd">
<!-- Generated by graphviz version 2.38.0 (20140413.2041)
 -->
<!-- Title: operational::visitor::FloppyDisk::price Pages: 1 -->
<svg width="275pt" height="88pt"
 viewBox="0.00 0.00 275.00 88.00" xmlns="http://www.w3.org/2000/svg" xmlns:xlink="http://www.w3.org/1999/xlink">
<g id="graph0" class="graph" transform="scale(1 1) rotate(0) translate(4 84)">
<title>operational::visitor::FloppyDisk::price</title>
<polygon fill="white" stroke="none" points="-4,4 -4,-84 271,-84 271,4 -4,4"/>
<!-- Node1 -->
<g id="node1" class="node"><title>Node1</title>
<polygon fill="#bfbfbf" stroke="black" points="0,-24.5 0,-54.5 98,-54.5 98,-24.5 0,-24.5"/>
<text text-anchor="start" x="8" y="-42.5" font-family="Helvetica,sans-Serif" font-size="10.00">operational::visitor</text>
<text text-anchor="middle" x="49" y="-31.5" font-family="Helvetica,sans-Serif" font-size="10.00">::FloppyDisk::price</text>
</g>
<!-- Node2 -->
<g id="node2" class="node"><title>Node2</title>
<g id="a_node2"><a xlink:href="../../d1/dfb/classoperational_1_1visitor_1_1_floppy_disk.html#af383e9b384020ab909984231ceeb05da" target="_top" xlink:title="operational::visitor\l::FloppyDisk::price">
<polygon fill="white" stroke="black" points="151.5,-49.5 151.5,-79.5 249.5,-79.5 249.5,-49.5 151.5,-49.5"/>
<text text-anchor="start" x="159.5" y="-67.5" font-family="Helvetica,sans-Serif" font-size="10.00">operational::visitor</text>
<text text-anchor="middle" x="200.5" y="-56.5" font-family="Helvetica,sans-Serif" font-size="10.00">::FloppyDisk::price</text>
</a>
</g>
</g>
<!-- Node1&#45;&gt;Node2 -->
<g id="edge1" class="edge"><title>Node1&#45;&gt;Node2</title>
<path fill="none" stroke="midnightblue" d="M108.341,-49.256C122.617,-51.6433 137.733,-54.1711 151.465,-56.4673"/>
<polygon fill="midnightblue" stroke="midnightblue" points="108.566,-45.7451 98.1257,-47.5478 107.411,-52.6493 108.566,-45.7451"/>
</g>
<!-- Node3 -->
<g id="node3" class="node"><title>Node3</title>
<g id="a_node3"><a xlink:href="../../d1/dfb/classoperational_1_1visitor_1_1_floppy_disk.html#a987c5b3d2f6f50ddff5a0ad2c0968da5" target="_top" xlink:title="operational::visitor\l::FloppyDisk::GetBoxPrice">
<polygon fill="white" stroke="black" points="134,-0.5 134,-30.5 267,-30.5 267,-0.5 134,-0.5"/>
<text text-anchor="start" x="142" y="-18.5" font-family="Helvetica,sans-Serif" font-size="10.00">operational::visitor</text>
<text text-anchor="middle" x="200.5" y="-7.5" font-family="Helvetica,sans-Serif" font-size="10.00">::FloppyDisk::GetBoxPrice</text>
</a>
</g>
</g>
<!-- Node1&#45;&gt;Node3 -->
<g id="edge2" class="edge"><title>Node1&#45;&gt;Node3</title>
<path fill="none" stroke="midnightblue" d="M108.176,-30.1606C116.56,-28.8147 125.237,-27.4218 133.755,-26.0543"/>
<polygon fill="midnightblue" stroke="midnightblue" points="107.444,-26.7332 98.1257,-31.7741 108.554,-33.6448 107.444,-26.7332"/>
</g>
</g>
</svg>
