<?xml version="1.0" encoding="UTF-8" standalone="no"?>
<!DOCTYPE svg PUBLIC "-//W3C//DTD SVG 1.1//EN"
 "http://www.w3.org/Graphics/SVG/1.1/DTD/svg11.dtd">
<!-- Generated by graphviz version 2.38.0 (20140413.2041)
 -->
<!-- Title: operational::visitor::FloppyDisk::GetBoxPrice Pages: 1 -->
<svg width="275pt" height="39pt"
 viewBox="0.00 0.00 275.00 39.00" xmlns="http://www.w3.org/2000/svg" xmlns:xlink="http://www.w3.org/1999/xlink">
<g id="graph0" class="graph" transform="scale(1 1) rotate(0) translate(4 35)">
<title>operational::visitor::FloppyDisk::GetBoxPrice</title>
<polygon fill="white" stroke="none" points="-4,4 -4,-35 271,-35 271,4 -4,4"/>
<!-- Node1 -->
<g id="node1" class="node"><title>Node1</title>
<polygon fill="#bfbfbf" stroke="black" points="0,-0.5 0,-30.5 133,-30.5 133,-0.5 0,-0.5"/>
<text text-anchor="start" x="8" y="-18.5" font-family="Helvetica,sans-Serif" font-size="10.00">operational::visitor</text>
<text text-anchor="middle" x="66.5" y="-7.5" font-family="Helvetica,sans-Serif" font-size="10.00">::FloppyDisk::GetBoxPrice</text>
</g>
<!-- Node2 -->
<g id="node2" class="node"><title>Node2</title>
<g id="a_node2"><a xlink:href="../../d1/dfb/classoperational_1_1visitor_1_1_floppy_disk.html#ac1952003ac0937e14b991ae800e4f54a" target="_top" xlink:title="operational::visitor\l::FloppyDisk::price">
<polygon fill="white" stroke="black" points="169,-0.5 169,-30.5 267,-30.5 267,-0.5 169,-0.5"/>
<text text-anchor="start" x="177" y="-18.5" font-family="Helvetica,sans-Serif" font-size="10.00">operational::visitor</text>
<text text-anchor="middle" x="218" y="-7.5" font-family="Helvetica,sans-Serif" font-size="10.00">::FloppyDisk::price</text>
</a>
</g>
</g>
<!-- Node1&#45;&gt;Node2 -->
<g id="edge1" class="edge"><title>Node1&#45;&gt;Node2</title>
<path fill="none" stroke="midnightblue" d="M133.073,-15.5C141.551,-15.5 150.189,-15.5 158.541,-15.5"/>
<polygon fill="midnightblue" stroke="midnightblue" points="158.558,-19.0001 168.558,-15.5 158.558,-12.0001 158.558,-19.0001"/>
</g>
</g>
</svg>
