<?xml version="1.0" encoding="UTF-8" standalone="no"?>
<!DOCTYPE svg PUBLIC "-//W3C//DTD SVG 1.1//EN"
 "http://www.w3.org/Graphics/SVG/1.1/DTD/svg11.dtd">
<!-- Generated by graphviz version 2.38.0 (20140413.2041)
 -->
<!-- Title: creational::MazeGame::CreateMaze Pages: 1 -->
<svg width="272pt" height="230pt"
 viewBox="0.00 0.00 272.00 230.00" xmlns="http://www.w3.org/2000/svg" xmlns:xlink="http://www.w3.org/1999/xlink">
<g id="graph0" class="graph" transform="scale(1 1) rotate(0) translate(4 226)">
<title>creational::MazeGame::CreateMaze</title>
<polygon fill="white" stroke="none" points="-4,4 -4,-226 268,-226 268,4 -4,4"/>
<!-- Node1 -->
<g id="node1" class="node"><title>Node1</title>
<polygon fill="#bfbfbf" stroke="black" points="0,-96 0,-126 115,-126 115,-96 0,-96"/>
<text text-anchor="start" x="8" y="-114" font-family="Helvetica,sans-Serif" font-size="10.00">creational::MazeGame</text>
<text text-anchor="middle" x="57.5" y="-103" font-family="Helvetica,sans-Serif" font-size="10.00">::CreateMaze</text>
</g>
<!-- Node2 -->
<g id="node2" class="node"><title>Node2</title>
<g id="a_node2"><a xlink:href="../../d6/d66/classcreational_1_1builder_1_1_maze_builder_interface.html#a29f1f8fae7295703a6ba00f2c50210c2" target="_top" xlink:title="creational::builder\l::MazeBuilderInterface\l::BuildMaze">
<polygon fill="white" stroke="black" points="151,-180.5 151,-221.5 264,-221.5 264,-180.5 151,-180.5"/>
<text text-anchor="start" x="159" y="-209.5" font-family="Helvetica,sans-Serif" font-size="10.00">creational::builder</text>
<text text-anchor="start" x="159" y="-198.5" font-family="Helvetica,sans-Serif" font-size="10.00">::MazeBuilderInterface</text>
<text text-anchor="middle" x="207.5" y="-187.5" font-family="Helvetica,sans-Serif" font-size="10.00">::BuildMaze</text>
</a>
</g>
</g>
<!-- Node1&#45;&gt;Node2 -->
<g id="edge1" class="edge"><title>Node1&#45;&gt;Node2</title>
<path fill="none" stroke="midnightblue" d="M80.615,-126.056C99.1603,-138.509 126.471,-156.447 151,-171 153.473,-172.467 156.022,-173.949 158.606,-175.427"/>
<polygon fill="midnightblue" stroke="midnightblue" points="157.033,-178.557 167.464,-180.409 160.464,-172.456 157.033,-178.557"/>
</g>
<!-- Node3 -->
<g id="node3" class="node"><title>Node3</title>
<g id="a_node3"><a xlink:href="../../d6/d66/classcreational_1_1builder_1_1_maze_builder_interface.html#a845323269d7555319efd5068744868f0" target="_top" xlink:title="creational::builder\l::MazeBuilderInterface\l::BuildRoom">
<polygon fill="white" stroke="black" points="151,-120.5 151,-161.5 264,-161.5 264,-120.5 151,-120.5"/>
<text text-anchor="start" x="159" y="-149.5" font-family="Helvetica,sans-Serif" font-size="10.00">creational::builder</text>
<text text-anchor="start" x="159" y="-138.5" font-family="Helvetica,sans-Serif" font-size="10.00">::MazeBuilderInterface</text>
<text text-anchor="middle" x="207.5" y="-127.5" font-family="Helvetica,sans-Serif" font-size="10.00">::BuildRoom</text>
</a>
</g>
</g>
<!-- Node1&#45;&gt;Node3 -->
<g id="edge2" class="edge"><title>Node1&#45;&gt;Node3</title>
<path fill="none" stroke="midnightblue" d="M115.297,-122.513C123.617,-124.199 132.244,-125.948 140.725,-127.667"/>
<polygon fill="midnightblue" stroke="midnightblue" points="140.091,-131.11 150.587,-129.666 141.482,-124.249 140.091,-131.11"/>
</g>
<!-- Node4 -->
<g id="node4" class="node"><title>Node4</title>
<g id="a_node4"><a xlink:href="../../d6/d66/classcreational_1_1builder_1_1_maze_builder_interface.html#a3d5250681cff926c3002188a8b26775e" target="_top" xlink:title="creational::builder\l::MazeBuilderInterface\l::BuildDoor">
<polygon fill="white" stroke="black" points="151,-60.5 151,-101.5 264,-101.5 264,-60.5 151,-60.5"/>
<text text-anchor="start" x="159" y="-89.5" font-family="Helvetica,sans-Serif" font-size="10.00">creational::builder</text>
<text text-anchor="start" x="159" y="-78.5" font-family="Helvetica,sans-Serif" font-size="10.00">::MazeBuilderInterface</text>
<text text-anchor="middle" x="207.5" y="-67.5" font-family="Helvetica,sans-Serif" font-size="10.00">::BuildDoor</text>
</a>
</g>
</g>
<!-- Node1&#45;&gt;Node4 -->
<g id="edge3" class="edge"><title>Node1&#45;&gt;Node4</title>
<path fill="none" stroke="midnightblue" d="M115.297,-99.487C123.617,-97.8006 132.244,-96.0518 140.725,-94.3327"/>
<polygon fill="midnightblue" stroke="midnightblue" points="141.482,-97.7506 150.587,-92.3337 140.091,-90.8902 141.482,-97.7506"/>
</g>
<!-- Node5 -->
<g id="node5" class="node"><title>Node5</title>
<g id="a_node5"><a xlink:href="../../d6/d66/classcreational_1_1builder_1_1_maze_builder_interface.html#a80219d03522c956d76ea274c48af272d" target="_top" xlink:title="creational::builder\l::MazeBuilderInterface\l::GetMaze">
<polygon fill="white" stroke="black" points="151,-0.5 151,-41.5 264,-41.5 264,-0.5 151,-0.5"/>
<text text-anchor="start" x="159" y="-29.5" font-family="Helvetica,sans-Serif" font-size="10.00">creational::builder</text>
<text text-anchor="start" x="159" y="-18.5" font-family="Helvetica,sans-Serif" font-size="10.00">::MazeBuilderInterface</text>
<text text-anchor="middle" x="207.5" y="-7.5" font-family="Helvetica,sans-Serif" font-size="10.00">::GetMaze</text>
</a>
</g>
</g>
<!-- Node1&#45;&gt;Node5 -->
<g id="edge4" class="edge"><title>Node1&#45;&gt;Node5</title>
<path fill="none" stroke="midnightblue" d="M80.615,-95.9438C99.1603,-83.4911 126.471,-65.5531 151,-51 153.473,-49.5329 156.022,-48.0513 158.606,-46.5735"/>
<polygon fill="midnightblue" stroke="midnightblue" points="160.464,-49.5437 167.464,-41.5906 157.033,-43.4427 160.464,-49.5437"/>
</g>
</g>
</svg>
