<?xml version="1.0" encoding="UTF-8" standalone="no"?>
<!DOCTYPE svg PUBLIC "-//W3C//DTD SVG 1.1//EN"
 "http://www.w3.org/Graphics/SVG/1.1/DTD/svg11.dtd">
<!-- Generated by graphviz version 2.38.0 (20140413.2041)
 -->
<!-- Title: creational::MazeGame::CreateMaze Pages: 1 -->
<svg width="288pt" height="230pt"
 viewBox="0.00 0.00 288.00 230.00" xmlns="http://www.w3.org/2000/svg" xmlns:xlink="http://www.w3.org/1999/xlink">
<g id="graph0" class="graph" transform="scale(1 1) rotate(0) translate(4 226)">
<title>creational::MazeGame::CreateMaze</title>
<polygon fill="white" stroke="none" points="-4,4 -4,-226 284,-226 284,4 -4,4"/>
<!-- Node1 -->
<g id="node1" class="node"><title>Node1</title>
<polygon fill="#bfbfbf" stroke="black" points="0,-96 0,-126 115,-126 115,-96 0,-96"/>
<text text-anchor="start" x="8" y="-114" font-family="Helvetica,sans-Serif" font-size="10.00">creational::MazeGame</text>
<text text-anchor="middle" x="57.5" y="-103" font-family="Helvetica,sans-Serif" font-size="10.00">::CreateMaze</text>
</g>
<!-- Node2 -->
<g id="node2" class="node"><title>Node2</title>
<g id="a_node2"><a xlink:href="../../de/dce/classcreational_1_1abstractfactory_1_1_maze_factory_interface.html#ab928525dabe98f5f77bb32b72fbead01" target="_top" xlink:title="creational::abstractfactory\l::MazeFactoryInterface::\lMakeMaze">
<polygon fill="white" stroke="black" points="151,-180.5 151,-221.5 280,-221.5 280,-180.5 151,-180.5"/>
<text text-anchor="start" x="159" y="-209.5" font-family="Helvetica,sans-Serif" font-size="10.00">creational::abstractfactory</text>
<text text-anchor="start" x="159" y="-198.5" font-family="Helvetica,sans-Serif" font-size="10.00">::MazeFactoryInterface::</text>
<text text-anchor="middle" x="215.5" y="-187.5" font-family="Helvetica,sans-Serif" font-size="10.00">MakeMaze</text>
</a>
</g>
</g>
<!-- Node1&#45;&gt;Node2 -->
<g id="edge1" class="edge"><title>Node1&#45;&gt;Node2</title>
<path fill="none" stroke="midnightblue" d="M80.0433,-126.153C98.4724,-138.826 125.919,-157.024 151,-171 153.876,-172.602 156.851,-174.201 159.873,-175.778"/>
<polygon fill="midnightblue" stroke="midnightblue" points="158.526,-179.019 169.027,-180.428 161.697,-172.778 158.526,-179.019"/>
</g>
<!-- Node3 -->
<g id="node3" class="node"><title>Node3</title>
<g id="a_node3"><a xlink:href="../../de/dce/classcreational_1_1abstractfactory_1_1_maze_factory_interface.html#ab2eb99669ae6e7cf746026490dcb7e2d" target="_top" xlink:title="creational::abstractfactory\l::MazeFactoryInterface::\lMakeRoom">
<polygon fill="white" stroke="black" points="151,-120.5 151,-161.5 280,-161.5 280,-120.5 151,-120.5"/>
<text text-anchor="start" x="159" y="-149.5" font-family="Helvetica,sans-Serif" font-size="10.00">creational::abstractfactory</text>
<text text-anchor="start" x="159" y="-138.5" font-family="Helvetica,sans-Serif" font-size="10.00">::MazeFactoryInterface::</text>
<text text-anchor="middle" x="215.5" y="-127.5" font-family="Helvetica,sans-Serif" font-size="10.00">MakeRoom</text>
</a>
</g>
</g>
<!-- Node1&#45;&gt;Node3 -->
<g id="edge2" class="edge"><title>Node1&#45;&gt;Node3</title>
<path fill="none" stroke="midnightblue" d="M115.261,-121.916C123.589,-123.517 132.266,-125.186 140.873,-126.841"/>
<polygon fill="midnightblue" stroke="midnightblue" points="140.437,-130.321 150.918,-128.773 141.759,-123.447 140.437,-130.321"/>
</g>
<!-- Node4 -->
<g id="node4" class="node"><title>Node4</title>
<g id="a_node4"><a xlink:href="../../de/dce/classcreational_1_1abstractfactory_1_1_maze_factory_interface.html#a3ed5a8790123f2dcc2e3c91aca91d323" target="_top" xlink:title="creational::abstractfactory\l::MazeFactoryInterface::\lMakeDoor">
<polygon fill="white" stroke="black" points="151,-60.5 151,-101.5 280,-101.5 280,-60.5 151,-60.5"/>
<text text-anchor="start" x="159" y="-89.5" font-family="Helvetica,sans-Serif" font-size="10.00">creational::abstractfactory</text>
<text text-anchor="start" x="159" y="-78.5" font-family="Helvetica,sans-Serif" font-size="10.00">::MazeFactoryInterface::</text>
<text text-anchor="middle" x="215.5" y="-67.5" font-family="Helvetica,sans-Serif" font-size="10.00">MakeDoor</text>
</a>
</g>
</g>
<!-- Node1&#45;&gt;Node4 -->
<g id="edge3" class="edge"><title>Node1&#45;&gt;Node4</title>
<path fill="none" stroke="midnightblue" d="M115.261,-100.084C123.589,-98.4829 132.266,-96.8142 140.873,-95.1591"/>
<polygon fill="midnightblue" stroke="midnightblue" points="141.759,-98.5529 150.918,-93.2273 140.437,-91.6789 141.759,-98.5529"/>
</g>
<!-- Node5 -->
<g id="node5" class="node"><title>Node5</title>
<g id="a_node5"><a xlink:href="../../de/dce/classcreational_1_1abstractfactory_1_1_maze_factory_interface.html#adff2d3a9027f0b5d09710218962b929f" target="_top" xlink:title="creational::abstractfactory\l::MazeFactoryInterface::\lMakeWall">
<polygon fill="white" stroke="black" points="151,-0.5 151,-41.5 280,-41.5 280,-0.5 151,-0.5"/>
<text text-anchor="start" x="159" y="-29.5" font-family="Helvetica,sans-Serif" font-size="10.00">creational::abstractfactory</text>
<text text-anchor="start" x="159" y="-18.5" font-family="Helvetica,sans-Serif" font-size="10.00">::MazeFactoryInterface::</text>
<text text-anchor="middle" x="215.5" y="-7.5" font-family="Helvetica,sans-Serif" font-size="10.00">MakeWall</text>
</a>
</g>
</g>
<!-- Node1&#45;&gt;Node5 -->
<g id="edge4" class="edge"><title>Node1&#45;&gt;Node5</title>
<path fill="none" stroke="midnightblue" d="M80.0433,-95.8469C98.4724,-83.1736 125.919,-64.9764 151,-51 153.876,-49.3975 156.851,-47.7994 159.873,-46.2224"/>
<polygon fill="midnightblue" stroke="midnightblue" points="161.697,-49.2219 169.027,-41.5722 158.526,-42.9811 161.697,-49.2219"/>
</g>
</g>
</svg>
