<?xml version="1.0" encoding="UTF-8" standalone="no"?>
<!DOCTYPE svg PUBLIC "-//W3C//DTD SVG 1.1//EN"
 "http://www.w3.org/Graphics/SVG/1.1/DTD/svg11.dtd">
<!-- Generated by graphviz version 2.38.0 (20140413.2041)
 -->
<!-- Title: structural::adapter::ShapeInterface Pages: 1 -->
<svg width="304pt" height="226pt"
 viewBox="0.00 0.00 303.50 226.00" xmlns="http://www.w3.org/2000/svg" xmlns:xlink="http://www.w3.org/1999/xlink">
<g id="graph0" class="graph" transform="scale(1 1) rotate(0) translate(4 222)">
<title>structural::adapter::ShapeInterface</title>
<polygon fill="white" stroke="none" points="-4,4 -4,-222 299.5,-222 299.5,4 -4,4"/>
<!-- Node1 -->
<g id="node1" class="node"><title>Node1</title>
<polygon fill="#bfbfbf" stroke="black" points="95.5,-138.5 95.5,-217.5 197.5,-217.5 197.5,-138.5 95.5,-138.5"/>
<text text-anchor="start" x="103.5" y="-205.5" font-family="Helvetica,sans-Serif" font-size="10.00">structural::adapter</text>
<text text-anchor="middle" x="146.5" y="-194.5" font-family="Helvetica,sans-Serif" font-size="10.00">::ShapeInterface</text>
<polyline fill="none" stroke="black" points="95.5,-187.5 197.5,-187.5 "/>
<text text-anchor="middle" x="146.5" y="-175.5" font-family="Helvetica,sans-Serif" font-size="10.00"> </text>
<polyline fill="none" stroke="black" points="95.5,-168.5 197.5,-168.5 "/>
<text text-anchor="start" x="103.5" y="-156.5" font-family="Helvetica,sans-Serif" font-size="10.00">+ ~ShapeInterface()</text>
<text text-anchor="start" x="103.5" y="-145.5" font-family="Helvetica,sans-Serif" font-size="10.00">+ BoundingBox()</text>
</g>
<!-- Node2 -->
<g id="node2" class="node"><title>Node2</title>
<g id="a_node2"><a xlink:href="../../df/d8e/classstructural_1_1adapter_1_1_text_shape_class_adapter.html" target="_top" xlink:title="{structural::adapter\l::TextShapeClassAdapter\n||+ TextShapeClassAdapter()\l+ TextShapeClassAdapter()\l+ BoundingBox()\l+ IsEmpty()\l}">
<polygon fill="white" stroke="black" points="0,-0.5 0,-101.5 137,-101.5 137,-0.5 0,-0.5"/>
<text text-anchor="start" x="8" y="-89.5" font-family="Helvetica,sans-Serif" font-size="10.00">structural::adapter</text>
<text text-anchor="middle" x="68.5" y="-78.5" font-family="Helvetica,sans-Serif" font-size="10.00">::TextShapeClassAdapter</text>
<polyline fill="none" stroke="black" points="0,-71.5 137,-71.5 "/>
<text text-anchor="middle" x="68.5" y="-59.5" font-family="Helvetica,sans-Serif" font-size="10.00"> </text>
<polyline fill="none" stroke="black" points="0,-52.5 137,-52.5 "/>
<text text-anchor="start" x="8" y="-40.5" font-family="Helvetica,sans-Serif" font-size="10.00">+ TextShapeClassAdapter()</text>
<text text-anchor="start" x="8" y="-29.5" font-family="Helvetica,sans-Serif" font-size="10.00">+ TextShapeClassAdapter()</text>
<text text-anchor="start" x="8" y="-18.5" font-family="Helvetica,sans-Serif" font-size="10.00">+ BoundingBox()</text>
<text text-anchor="start" x="8" y="-7.5" font-family="Helvetica,sans-Serif" font-size="10.00">+ IsEmpty()</text>
</a>
</g>
</g>
<!-- Node1&#45;&gt;Node2 -->
<g id="edge1" class="edge"><title>Node1&#45;&gt;Node2</title>
<path fill="none" stroke="midnightblue" d="M117.067,-129.831C111.328,-120.635 105.295,-110.966 99.5071,-101.691"/>
<polygon fill="none" stroke="midnightblue" points="114.198,-131.845 122.461,-138.476 120.136,-128.139 114.198,-131.845"/>
</g>
<!-- Node3 -->
<g id="node3" class="node"><title>Node3</title>
<g id="a_node3"><a xlink:href="../../d2/d3e/classstructural_1_1adapter_1_1_text_shape_object_adapter.html" target="_top" xlink:title="{structural::adapter\l::TextShapeObjectAdapter\n||+ TextShapeObjectAdapter()\l+ BoundingBox()\l+ IsEmpty()\l}">
<polygon fill="white" stroke="black" points="155.5,-6 155.5,-96 295.5,-96 295.5,-6 155.5,-6"/>
<text text-anchor="start" x="163.5" y="-84" font-family="Helvetica,sans-Serif" font-size="10.00">structural::adapter</text>
<text text-anchor="middle" x="225.5" y="-73" font-family="Helvetica,sans-Serif" font-size="10.00">::TextShapeObjectAdapter</text>
<polyline fill="none" stroke="black" points="155.5,-66 295.5,-66 "/>
<text text-anchor="middle" x="225.5" y="-54" font-family="Helvetica,sans-Serif" font-size="10.00"> </text>
<polyline fill="none" stroke="black" points="155.5,-47 295.5,-47 "/>
<text text-anchor="start" x="163.5" y="-35" font-family="Helvetica,sans-Serif" font-size="10.00">+ TextShapeObjectAdapter()</text>
<text text-anchor="start" x="163.5" y="-24" font-family="Helvetica,sans-Serif" font-size="10.00">+ BoundingBox()</text>
<text text-anchor="start" x="163.5" y="-13" font-family="Helvetica,sans-Serif" font-size="10.00">+ IsEmpty()</text>
</a>
</g>
</g>
<!-- Node1&#45;&gt;Node3 -->
<g id="edge2" class="edge"><title>Node1&#45;&gt;Node3</title>
<path fill="none" stroke="midnightblue" d="M176.311,-129.831C183.259,-118.837 190.634,-107.168 197.501,-96.3026"/>
<polygon fill="none" stroke="midnightblue" points="173.231,-128.153 170.847,-138.476 179.148,-131.893 173.231,-128.153"/>
</g>
</g>
</svg>
