<?xml version="1.0" encoding="UTF-8" standalone="no"?>
<!DOCTYPE svg PUBLIC "-//W3C//DTD SVG 1.1//EN"
 "http://www.w3.org/Graphics/SVG/1.1/DTD/svg11.dtd">
<!-- Generated by graphviz version 2.38.0 (20140413.2041)
 -->
<!-- Title: src/structural/src/facade/bytecode_stream.h Pages: 1 -->
<svg width="502pt" height="173pt"
 viewBox="0.00 0.00 502.00 173.00" xmlns="http://www.w3.org/2000/svg" xmlns:xlink="http://www.w3.org/1999/xlink">
<g id="graph0" class="graph" transform="scale(1 1) rotate(0) translate(4 169)">
<title>src/structural/src/facade/bytecode_stream.h</title>
<polygon fill="white" stroke="none" points="-4,4 -4,-169 498,-169 498,4 -4,4"/>
<!-- Node1 -->
<g id="node1" class="node"><title>Node1</title>
<polygon fill="#bfbfbf" stroke="black" points="139,-134.5 139,-164.5 273,-164.5 273,-134.5 139,-134.5"/>
<text text-anchor="start" x="147" y="-152.5" font-family="Helvetica,sans-Serif" font-size="10.00">src/structural/src</text>
<text text-anchor="middle" x="206" y="-141.5" font-family="Helvetica,sans-Serif" font-size="10.00">/facade/bytecode_stream.h</text>
</g>
<!-- Node2 -->
<g id="node2" class="node"><title>Node2</title>
<g id="a_node2"><a xlink:href="../../d9/d43/bytecode__stream_8cc.html" target="_top" xlink:title="src/structural/src\l/facade/bytecode_stream.cc">
<polygon fill="white" stroke="black" points="0,-67.5 0,-97.5 140,-97.5 140,-67.5 0,-67.5"/>
<text text-anchor="start" x="8" y="-85.5" font-family="Helvetica,sans-Serif" font-size="10.00">src/structural/src</text>
<text text-anchor="middle" x="70" y="-74.5" font-family="Helvetica,sans-Serif" font-size="10.00">/facade/bytecode_stream.cc</text>
</a>
</g>
</g>
<!-- Node1&#45;&gt;Node2 -->
<g id="edge1" class="edge"><title>Node1&#45;&gt;Node2</title>
<path fill="none" stroke="midnightblue" d="M167.276,-129.992C145.719,-119.689 119.311,-107.068 99.4524,-97.5765"/>
<polygon fill="midnightblue" stroke="midnightblue" points="165.958,-133.242 176.49,-134.396 168.977,-126.926 165.958,-133.242"/>
</g>
<!-- Node3 -->
<g id="node3" class="node"><title>Node3</title>
<g id="a_node3"><a xlink:href="../../d4/dd1/compiler_8h.html" target="_top" xlink:title="src/structural/src\l/facade/compiler.h">
<polygon fill="white" stroke="black" points="158,-67.5 158,-97.5 254,-97.5 254,-67.5 158,-67.5"/>
<text text-anchor="start" x="166" y="-85.5" font-family="Helvetica,sans-Serif" font-size="10.00">src/structural/src</text>
<text text-anchor="middle" x="206" y="-74.5" font-family="Helvetica,sans-Serif" font-size="10.00">/facade/compiler.h</text>
</a>
</g>
</g>
<!-- Node1&#45;&gt;Node3 -->
<g id="edge2" class="edge"><title>Node1&#45;&gt;Node3</title>
<path fill="none" stroke="midnightblue" d="M206,-124.108C206,-115.154 206,-105.323 206,-97.5765"/>
<polygon fill="midnightblue" stroke="midnightblue" points="202.5,-124.396 206,-134.396 209.5,-124.396 202.5,-124.396"/>
</g>
<!-- Node6 -->
<g id="node6" class="node"><title>Node6</title>
<g id="a_node6"><a xlink:href="../../da/d63/risc__code__generator_8h.html" target="_top" xlink:title="src/structural/src\l/facade/risc_code_generator.h">
<polygon fill="white" stroke="black" points="272.5,-67.5 272.5,-97.5 419.5,-97.5 419.5,-67.5 272.5,-67.5"/>
<text text-anchor="start" x="280.5" y="-85.5" font-family="Helvetica,sans-Serif" font-size="10.00">src/structural/src</text>
<text text-anchor="middle" x="346" y="-74.5" font-family="Helvetica,sans-Serif" font-size="10.00">/facade/risc_code_generator.h</text>
</a>
</g>
</g>
<!-- Node1&#45;&gt;Node6 -->
<g id="edge5" class="edge"><title>Node1&#45;&gt;Node6</title>
<path fill="none" stroke="midnightblue" d="M245.565,-130.131C267.81,-119.802 295.147,-107.11 315.681,-97.5765"/>
<polygon fill="midnightblue" stroke="midnightblue" points="243.974,-127.01 236.378,-134.396 246.922,-133.359 243.974,-127.01"/>
</g>
<!-- Node4 -->
<g id="node4" class="node"><title>Node4</title>
<g id="a_node4"><a xlink:href="../../da/dc6/compiler_8cc.html" target="_top" xlink:title="src/structural/src\l/facade/compiler.cc">
<polygon fill="white" stroke="black" points="222.5,-0.5 222.5,-30.5 323.5,-30.5 323.5,-0.5 222.5,-0.5"/>
<text text-anchor="start" x="230.5" y="-18.5" font-family="Helvetica,sans-Serif" font-size="10.00">src/structural/src</text>
<text text-anchor="middle" x="273" y="-7.5" font-family="Helvetica,sans-Serif" font-size="10.00">/facade/compiler.cc</text>
</a>
</g>
</g>
<!-- Node3&#45;&gt;Node4 -->
<g id="edge3" class="edge"><title>Node3&#45;&gt;Node4</title>
<path fill="none" stroke="midnightblue" d="M227.84,-60.3115C237.891,-50.5612 249.541,-39.259 258.49,-30.5765"/>
<polygon fill="midnightblue" stroke="midnightblue" points="225.278,-57.9207 220.538,-67.396 230.153,-62.9449 225.278,-57.9207"/>
</g>
<!-- Node5 -->
<g id="node5" class="node"><title>Node5</title>
<g id="a_node5"><a xlink:href="../../df/db5/facade__test_8cc.html" target="_top" xlink:title="src/structural_tests\l/src/facade/facade_test.cc">
<polygon fill="white" stroke="black" points="73.5,-0.5 73.5,-30.5 204.5,-30.5 204.5,-0.5 73.5,-0.5"/>
<text text-anchor="start" x="81.5" y="-18.5" font-family="Helvetica,sans-Serif" font-size="10.00">src/structural_tests</text>
<text text-anchor="middle" x="139" y="-7.5" font-family="Helvetica,sans-Serif" font-size="10.00">/src/facade/facade_test.cc</text>
</a>
</g>
</g>
<!-- Node3&#45;&gt;Node5 -->
<g id="edge4" class="edge"><title>Node3&#45;&gt;Node5</title>
<path fill="none" stroke="midnightblue" d="M184.16,-60.3115C174.109,-50.5612 162.459,-39.259 153.51,-30.5765"/>
<polygon fill="midnightblue" stroke="midnightblue" points="181.847,-62.9449 191.462,-67.396 186.722,-57.9207 181.847,-62.9449"/>
</g>
<!-- Node6&#45;&gt;Node4 -->
<g id="edge6" class="edge"><title>Node6&#45;&gt;Node4</title>
<path fill="none" stroke="midnightblue" d="M322.525,-60.5978C311.503,-50.7831 298.656,-39.3442 288.809,-30.5765"/>
<polygon fill="midnightblue" stroke="midnightblue" points="320.364,-63.3599 330.16,-67.396 325.019,-58.132 320.364,-63.3599"/>
</g>
<!-- Node7 -->
<g id="node7" class="node"><title>Node7</title>
<g id="a_node7"><a xlink:href="../../d1/d9d/risc__code__generator_8cc.html" target="_top" xlink:title="src/structural/src\l/facade/risc_code_generator.cc">
<polygon fill="white" stroke="black" points="342,-0.5 342,-30.5 494,-30.5 494,-0.5 342,-0.5"/>
<text text-anchor="start" x="350" y="-18.5" font-family="Helvetica,sans-Serif" font-size="10.00">src/structural/src</text>
<text text-anchor="middle" x="418" y="-7.5" font-family="Helvetica,sans-Serif" font-size="10.00">/facade/risc_code_generator.cc</text>
</a>
</g>
</g>
<!-- Node6&#45;&gt;Node7 -->
<g id="edge7" class="edge"><title>Node6&#45;&gt;Node7</title>
<path fill="none" stroke="midnightblue" d="M369.153,-60.5978C380.025,-50.7831 392.696,-39.3442 402.408,-30.5765"/>
<polygon fill="midnightblue" stroke="midnightblue" points="366.7,-58.097 361.623,-67.396 371.391,-63.2929 366.7,-58.097"/>
</g>
</g>
</svg>
