<?xml version="1.0" encoding="UTF-8" standalone="no"?>
<!DOCTYPE svg PUBLIC "-//W3C//DTD SVG 1.1//EN"
 "http://www.w3.org/Graphics/SVG/1.1/DTD/svg11.dtd">
<!-- Generated by graphviz version 2.38.0 (20140413.2041)
 -->
<!-- Title: operational::strategy::StrategyContext::result Pages: 1 -->
<svg width="283pt" height="39pt"
 viewBox="0.00 0.00 283.00 39.00" xmlns="http://www.w3.org/2000/svg" xmlns:xlink="http://www.w3.org/1999/xlink">
<g id="graph0" class="graph" transform="scale(1 1) rotate(0) translate(4 35)">
<title>operational::strategy::StrategyContext::result</title>
<polygon fill="white" stroke="none" points="-4,4 -4,-35 279,-35 279,4 -4,4"/>
<!-- Node1 -->
<g id="node1" class="node"><title>Node1</title>
<polygon fill="#bfbfbf" stroke="black" points="0,-0.5 0,-30.5 123,-30.5 123,-0.5 0,-0.5"/>
<text text-anchor="start" x="8" y="-18.5" font-family="Helvetica,sans-Serif" font-size="10.00">operational::strategy</text>
<text text-anchor="middle" x="61.5" y="-7.5" font-family="Helvetica,sans-Serif" font-size="10.00">::StrategyContext::result</text>
</g>
<!-- Node2 -->
<g id="node2" class="node"><title>Node2</title>
<g id="a_node2"><a xlink:href="../../d4/d60/namespaceoperationaltests.html#a59facc52cc5a99fca4ae7e0e87b1861e" target="_top" xlink:title="operationaltests::TEST\l_CLASS">
<polygon fill="white" stroke="black" points="159,-0.5 159,-30.5 275,-30.5 275,-0.5 159,-0.5"/>
<text text-anchor="start" x="167" y="-18.5" font-family="Helvetica,sans-Serif" font-size="10.00">operationaltests::TEST</text>
<text text-anchor="middle" x="217" y="-7.5" font-family="Helvetica,sans-Serif" font-size="10.00">_CLASS</text>
</a>
</g>
</g>
<!-- Node1&#45;&gt;Node2 -->
<g id="edge1" class="edge"><title>Node1&#45;&gt;Node2</title>
<path fill="none" stroke="midnightblue" d="M133.445,-15.5C141.932,-15.5 150.515,-15.5 158.774,-15.5"/>
<polygon fill="midnightblue" stroke="midnightblue" points="133.167,-12.0001 123.167,-15.5 133.167,-19.0001 133.167,-12.0001"/>
</g>
</g>
</svg>
