<?xml version="1.0" encoding="UTF-8" standalone="no"?>
<!DOCTYPE svg PUBLIC "-//W3C//DTD SVG 1.1//EN"
 "http://www.w3.org/Graphics/SVG/1.1/DTD/svg11.dtd">
<!-- Generated by graphviz version 2.38.0 (20140413.2041)
 -->
<!-- Title: creational::builder::CountingMazeBuilder::BuildRoom Pages: 1 -->
<svg width="415pt" height="50pt"
 viewBox="0.00 0.00 415.00 50.00" xmlns="http://www.w3.org/2000/svg" xmlns:xlink="http://www.w3.org/1999/xlink">
<g id="graph0" class="graph" transform="scale(1 1) rotate(0) translate(4 46)">
<title>creational::builder::CountingMazeBuilder::BuildRoom</title>
<polygon fill="white" stroke="none" points="-4,4 -4,-46 411,-46 411,4 -4,4"/>
<!-- Node1 -->
<g id="node1" class="node"><title>Node1</title>
<polygon fill="#bfbfbf" stroke="black" points="0,-0.5 0,-41.5 115,-41.5 115,-0.5 0,-0.5"/>
<text text-anchor="start" x="8" y="-29.5" font-family="Helvetica,sans-Serif" font-size="10.00">creational::builder</text>
<text text-anchor="start" x="8" y="-18.5" font-family="Helvetica,sans-Serif" font-size="10.00">::CountingMazeBuilder</text>
<text text-anchor="middle" x="57.5" y="-7.5" font-family="Helvetica,sans-Serif" font-size="10.00">::BuildRoom</text>
</g>
<!-- Node2 -->
<g id="node2" class="node"><title>Node2</title>
<g id="a_node2"><a xlink:href="../../de/d93/classcreational_1_1commons_1_1_maze.html#a8b364f1371af7ccbf7b8d3fcffe79426" target="_top" xlink:title="creational::commons\l::Maze::AddRoom">
<polygon fill="white" stroke="black" points="151,-6 151,-36 258,-36 258,-6 151,-6"/>
<text text-anchor="start" x="159" y="-24" font-family="Helvetica,sans-Serif" font-size="10.00">creational::commons</text>
<text text-anchor="middle" x="204.5" y="-13" font-family="Helvetica,sans-Serif" font-size="10.00">::Maze::AddRoom</text>
</a>
</g>
</g>
<!-- Node1&#45;&gt;Node2 -->
<g id="edge1" class="edge"><title>Node1&#45;&gt;Node2</title>
<path fill="none" stroke="midnightblue" d="M115.392,-21C123.627,-21 132.144,-21 140.491,-21"/>
<polygon fill="midnightblue" stroke="midnightblue" points="140.557,-24.5001 150.557,-21 140.557,-17.5001 140.557,-24.5001"/>
</g>
<!-- Node3 -->
<g id="node3" class="node"><title>Node3</title>
<g id="a_node3"><a xlink:href="../../d7/d33/classcreational_1_1commons_1_1_room.html#ae23154964af6170704b85d49d3d30536" target="_top" xlink:title="creational::commons\l::Room::room_number">
<polygon fill="white" stroke="black" points="294,-6 294,-36 407,-36 407,-6 294,-6"/>
<text text-anchor="start" x="302" y="-24" font-family="Helvetica,sans-Serif" font-size="10.00">creational::commons</text>
<text text-anchor="middle" x="350.5" y="-13" font-family="Helvetica,sans-Serif" font-size="10.00">::Room::room_number</text>
</a>
</g>
</g>
<!-- Node2&#45;&gt;Node3 -->
<g id="edge2" class="edge"><title>Node2&#45;&gt;Node3</title>
<path fill="none" stroke="midnightblue" d="M258.303,-21C266.52,-21 275.098,-21 283.562,-21"/>
<polygon fill="midnightblue" stroke="midnightblue" points="283.8,-24.5001 293.8,-21 283.8,-17.5001 283.8,-24.5001"/>
</g>
</g>
</svg>
