<?xml version="1.0" encoding="UTF-8" standalone="no"?>
<!DOCTYPE svg PUBLIC "-//W3C//DTD SVG 1.1//EN"
 "http://www.w3.org/Graphics/SVG/1.1/DTD/svg11.dtd">
<!-- Generated by graphviz version 2.38.0 (20140413.2041)
 -->
<!-- Title: creational::builder::CountingMazeBuilder::GetCounts Pages: 1 -->
<svg width="269pt" height="50pt"
 viewBox="0.00 0.00 269.00 50.00" xmlns="http://www.w3.org/2000/svg" xmlns:xlink="http://www.w3.org/1999/xlink">
<g id="graph0" class="graph" transform="scale(1 1) rotate(0) translate(4 46)">
<title>creational::builder::CountingMazeBuilder::GetCounts</title>
<polygon fill="white" stroke="none" points="-4,4 -4,-46 265,-46 265,4 -4,4"/>
<!-- Node1 -->
<g id="node1" class="node"><title>Node1</title>
<polygon fill="#bfbfbf" stroke="black" points="0,-0.5 0,-41.5 115,-41.5 115,-0.5 0,-0.5"/>
<text text-anchor="start" x="8" y="-29.5" font-family="Helvetica,sans-Serif" font-size="10.00">creational::builder</text>
<text text-anchor="start" x="8" y="-18.5" font-family="Helvetica,sans-Serif" font-size="10.00">::CountingMazeBuilder</text>
<text text-anchor="middle" x="57.5" y="-7.5" font-family="Helvetica,sans-Serif" font-size="10.00">::GetCounts</text>
</g>
<!-- Node2 -->
<g id="node2" class="node"><title>Node2</title>
<g id="a_node2"><a xlink:href="../../d7/de2/namespacecreationaltests.html#ae322eeb6f31ebc7a4ab98a701a17d4ee" target="_top" xlink:title="creationaltests::TEST\l_CLASS">
<polygon fill="white" stroke="black" points="151,-6 151,-36 261,-36 261,-6 151,-6"/>
<text text-anchor="start" x="159" y="-24" font-family="Helvetica,sans-Serif" font-size="10.00">creationaltests::TEST</text>
<text text-anchor="middle" x="206" y="-13" font-family="Helvetica,sans-Serif" font-size="10.00">_CLASS</text>
</a>
</g>
</g>
<!-- Node1&#45;&gt;Node2 -->
<g id="edge1" class="edge"><title>Node1&#45;&gt;Node2</title>
<path fill="none" stroke="midnightblue" d="M125.174,-21C133.793,-21 142.534,-21 150.915,-21"/>
<polygon fill="midnightblue" stroke="midnightblue" points="125.141,-17.5001 115.141,-21 125.141,-24.5001 125.141,-17.5001"/>
</g>
</g>
</svg>
