<?xml version="1.0" encoding="UTF-8" standalone="no"?>
<!DOCTYPE svg PUBLIC "-//W3C//DTD SVG 1.1//EN"
 "http://www.w3.org/Graphics/SVG/1.1/DTD/svg11.dtd">
<!-- Generated by graphviz version 2.38.0 (20140413.2041)
 -->
<!-- Title: operational::command::OpenCommand::Execute Pages: 1 -->
<svg width="314pt" height="88pt"
 viewBox="0.00 0.00 314.00 88.00" xmlns="http://www.w3.org/2000/svg" xmlns:xlink="http://www.w3.org/1999/xlink">
<g id="graph0" class="graph" transform="scale(1 1) rotate(0) translate(4 84)">
<title>operational::command::OpenCommand::Execute</title>
<polygon fill="white" stroke="none" points="-4,4 -4,-84 310,-84 310,4 -4,4"/>
<!-- Node1 -->
<g id="node1" class="node"><title>Node1</title>
<polygon fill="#bfbfbf" stroke="black" points="0,-24.5 0,-54.5 132,-54.5 132,-24.5 0,-24.5"/>
<text text-anchor="start" x="8" y="-42.5" font-family="Helvetica,sans-Serif" font-size="10.00">operational::command</text>
<text text-anchor="middle" x="66" y="-31.5" font-family="Helvetica,sans-Serif" font-size="10.00">::OpenCommand::Execute</text>
</g>
<!-- Node2 -->
<g id="node2" class="node"><title>Node2</title>
<g id="a_node2"><a xlink:href="../../d8/d69/classoperational_1_1command_1_1_open_command.html#a03cdd27da3f9310e909334065bd31b7c" target="_top" xlink:title="operational::command\l::OpenCommand::AskUser">
<polygon fill="white" stroke="black" points="170,-49.5 170,-79.5 304,-79.5 304,-49.5 170,-49.5"/>
<text text-anchor="start" x="178" y="-67.5" font-family="Helvetica,sans-Serif" font-size="10.00">operational::command</text>
<text text-anchor="middle" x="237" y="-56.5" font-family="Helvetica,sans-Serif" font-size="10.00">::OpenCommand::AskUser</text>
</a>
</g>
</g>
<!-- Node1&#45;&gt;Node2 -->
<g id="edge1" class="edge"><title>Node1&#45;&gt;Node2</title>
<path fill="none" stroke="midnightblue" d="M132.34,-49.1657C141.412,-50.5077 150.795,-51.8957 160.041,-53.2634"/>
<polygon fill="midnightblue" stroke="midnightblue" points="159.593,-56.7352 169.997,-54.7363 160.617,-49.8105 159.593,-56.7352"/>
</g>
<!-- Node3 -->
<g id="node3" class="node"><title>Node3</title>
<g id="a_node3"><a xlink:href="../../da/da9/classoperational_1_1command_1_1_command_application.html#a30b6dc1d1fe6078f8f758ee13017f990" target="_top" xlink:title="operational::command\l::CommandApplication::Add">
<polygon fill="white" stroke="black" points="168,-0.5 168,-30.5 306,-30.5 306,-0.5 168,-0.5"/>
<text text-anchor="start" x="176" y="-18.5" font-family="Helvetica,sans-Serif" font-size="10.00">operational::command</text>
<text text-anchor="middle" x="237" y="-7.5" font-family="Helvetica,sans-Serif" font-size="10.00">::CommandApplication::Add</text>
</a>
</g>
</g>
<!-- Node1&#45;&gt;Node3 -->
<g id="edge2" class="edge"><title>Node1&#45;&gt;Node3</title>
<path fill="none" stroke="midnightblue" d="M132.34,-30.221C140.685,-29.0359 149.293,-27.8134 157.815,-26.6032"/>
<polygon fill="midnightblue" stroke="midnightblue" points="158.35,-30.0624 167.759,-25.1911 157.366,-23.1319 158.35,-30.0624"/>
</g>
</g>
</svg>
