<?xml version="1.0" encoding="UTF-8" standalone="no"?>
<!DOCTYPE svg PUBLIC "-//W3C//DTD SVG 1.1//EN"
 "http://www.w3.org/Graphics/SVG/1.1/DTD/svg11.dtd">
<!-- Generated by graphviz version 2.38.0 (20140413.2041)
 -->
<!-- Title: operational::command::CommandApplication::GetCurrentDocumentTitle Pages: 1 -->
<svg width="317pt" height="50pt"
 viewBox="0.00 0.00 317.00 50.00" xmlns="http://www.w3.org/2000/svg" xmlns:xlink="http://www.w3.org/1999/xlink">
<g id="graph0" class="graph" transform="scale(1 1) rotate(0) translate(4 46)">
<title>operational::command::CommandApplication::GetCurrentDocumentTitle</title>
<polygon fill="white" stroke="none" points="-4,4 -4,-46 313,-46 313,4 -4,4"/>
<!-- Node1 -->
<g id="node1" class="node"><title>Node1</title>
<polygon fill="#bfbfbf" stroke="black" points="0,-0.5 0,-41.5 132,-41.5 132,-0.5 0,-0.5"/>
<text text-anchor="start" x="8" y="-29.5" font-family="Helvetica,sans-Serif" font-size="10.00">operational::command</text>
<text text-anchor="start" x="8" y="-18.5" font-family="Helvetica,sans-Serif" font-size="10.00">::CommandApplication</text>
<text text-anchor="middle" x="66" y="-7.5" font-family="Helvetica,sans-Serif" font-size="10.00">::GetCurrentDocumentTitle</text>
</g>
<!-- Node2 -->
<g id="node2" class="node"><title>Node2</title>
<g id="a_node2"><a xlink:href="../../d4/d12/classoperational_1_1command_1_1_command_document.html#a5a136244dc5a86a0fd73e095e4426bb3" target="_top" xlink:title="operational::command\l::CommandDocument::name">
<polygon fill="white" stroke="black" points="168,-6 168,-36 309,-36 309,-6 168,-6"/>
<text text-anchor="start" x="176" y="-24" font-family="Helvetica,sans-Serif" font-size="10.00">operational::command</text>
<text text-anchor="middle" x="238.5" y="-13" font-family="Helvetica,sans-Serif" font-size="10.00">::CommandDocument::name</text>
</a>
</g>
</g>
<!-- Node1&#45;&gt;Node2 -->
<g id="edge1" class="edge"><title>Node1&#45;&gt;Node2</title>
<path fill="none" stroke="midnightblue" d="M132.432,-21C140.711,-21 149.254,-21 157.724,-21"/>
<polygon fill="midnightblue" stroke="midnightblue" points="157.997,-24.5001 167.997,-21 157.997,-17.5001 157.997,-24.5001"/>
</g>
</g>
</svg>
