<?xml version="1.0" encoding="UTF-8" standalone="no"?>
<!DOCTYPE svg PUBLIC "-//W3C//DTD SVG 1.1//EN"
 "http://www.w3.org/Graphics/SVG/1.1/DTD/svg11.dtd">
<!-- Generated by graphviz version 2.38.0 (20140413.2041)
 -->
<!-- Title: src/structural/src/facade/variable_node_interface.h Pages: 1 -->
<svg width="742pt" height="507pt"
 viewBox="0.00 0.00 741.99 507.00" xmlns="http://www.w3.org/2000/svg" xmlns:xlink="http://www.w3.org/1999/xlink">
<g id="graph0" class="graph" transform="scale(1 1) rotate(0) translate(4 503)">
<title>src/structural/src/facade/variable_node_interface.h</title>
<polygon fill="white" stroke="none" points="-4,4 -4,-503 737.99,-503 737.99,4 -4,4"/>
<!-- Node1 -->
<g id="node1" class="node"><title>Node1</title>
<polygon fill="#bfbfbf" stroke="black" points="487.99,-457.5 487.99,-498.5 597.99,-498.5 597.99,-457.5 487.99,-457.5"/>
<text text-anchor="start" x="495.99" y="-486.5" font-family="Helvetica,sans-Serif" font-size="10.00">src/structural/src</text>
<text text-anchor="start" x="495.99" y="-475.5" font-family="Helvetica,sans-Serif" font-size="10.00">/facade/variable_node</text>
<text text-anchor="middle" x="542.99" y="-464.5" font-family="Helvetica,sans-Serif" font-size="10.00">_interface.h</text>
</g>
<!-- Node2 -->
<g id="node2" class="node"><title>Node2</title>
<g id="a_node2"><a xlink:href="../../d7/df5/code__generator__interface_8h.html" target="_top" xlink:title="src/structural/src\l/facade/code_generator\l_interface.h">
<polygon fill="white" stroke="black" points="411.99,-379.5 411.99,-420.5 529.99,-420.5 529.99,-379.5 411.99,-379.5"/>
<text text-anchor="start" x="419.99" y="-408.5" font-family="Helvetica,sans-Serif" font-size="10.00">src/structural/src</text>
<text text-anchor="start" x="419.99" y="-397.5" font-family="Helvetica,sans-Serif" font-size="10.00">/facade/code_generator</text>
<text text-anchor="middle" x="470.99" y="-386.5" font-family="Helvetica,sans-Serif" font-size="10.00">_interface.h</text>
</a>
</g>
</g>
<!-- Node1&#45;&gt;Node2 -->
<g id="edge1" class="edge"><title>Node1&#45;&gt;Node2</title>
<path fill="none" stroke="midnightblue" d="M517.331,-449.916C508.129,-440.203 497.943,-429.45 489.469,-420.506"/>
<polygon fill="midnightblue" stroke="midnightblue" points="515.03,-452.576 524.448,-457.428 520.111,-447.761 515.03,-452.576"/>
</g>
<!-- Node12 -->
<g id="node12" class="node"><title>Node12</title>
<g id="a_node12"><a xlink:href="../../d3/da1/variable__node_8h.html" target="_top" xlink:title="src/structural/src\l/facade/variable_node.h">
<polygon fill="white" stroke="black" points="615.99,-229 615.99,-259 733.99,-259 733.99,-229 615.99,-229"/>
<text text-anchor="start" x="623.99" y="-247" font-family="Helvetica,sans-Serif" font-size="10.00">src/structural/src</text>
<text text-anchor="middle" x="674.99" y="-236" font-family="Helvetica,sans-Serif" font-size="10.00">/facade/variable_node.h</text>
</a>
</g>
</g>
<!-- Node1&#45;&gt;Node12 -->
<g id="edge19" class="edge"><title>Node1&#45;&gt;Node12</title>
<path fill="none" stroke="midnightblue" d="M559.2,-448.51C587.661,-398.486 645.618,-296.624 666.91,-259.201"/>
<polygon fill="midnightblue" stroke="midnightblue" points="556.147,-446.797 554.244,-457.22 562.231,-450.259 556.147,-446.797"/>
</g>
<!-- Node3 -->
<g id="node3" class="node"><title>Node3</title>
<g id="a_node3"><a xlink:href="../../dc/d6c/program__node__interface_8h.html" target="_top" xlink:title="src/structural/src\l/facade/program_node\l_interface.h">
<polygon fill="white" stroke="black" points="414.49,-301.5 414.49,-342.5 527.49,-342.5 527.49,-301.5 414.49,-301.5"/>
<text text-anchor="start" x="422.49" y="-330.5" font-family="Helvetica,sans-Serif" font-size="10.00">src/structural/src</text>
<text text-anchor="start" x="422.49" y="-319.5" font-family="Helvetica,sans-Serif" font-size="10.00">/facade/program_node</text>
<text text-anchor="middle" x="470.99" y="-308.5" font-family="Helvetica,sans-Serif" font-size="10.00">_interface.h</text>
</a>
</g>
</g>
<!-- Node2&#45;&gt;Node3 -->
<g id="edge2" class="edge"><title>Node2&#45;&gt;Node3</title>
<path fill="none" stroke="midnightblue" d="M470.99,-369.297C470.99,-360.301 470.99,-350.653 470.99,-342.506"/>
<polygon fill="midnightblue" stroke="midnightblue" points="467.49,-369.428 470.99,-379.428 474.49,-369.428 467.49,-369.428"/>
</g>
<!-- Node15 -->
<g id="node15" class="node"><title>Node15</title>
<g id="a_node15"><a xlink:href="../../da/d63/risc__code__generator_8h.html" target="_top" xlink:title="src/structural/src\l/facade/risc_code_generator.h">
<polygon fill="white" stroke="black" points="18.4898,-307 18.4898,-337 165.49,-337 165.49,-307 18.4898,-307"/>
<text text-anchor="start" x="26.4898" y="-325" font-family="Helvetica,sans-Serif" font-size="10.00">src/structural/src</text>
<text text-anchor="middle" x="91.9898" y="-314" font-family="Helvetica,sans-Serif" font-size="10.00">/facade/risc_code_generator.h</text>
</a>
</g>
</g>
<!-- Node2&#45;&gt;Node15 -->
<g id="edge16" class="edge"><title>Node2&#45;&gt;Node15</title>
<path fill="none" stroke="midnightblue" d="M401.578,-385.081C333.526,-371.435 230.333,-350.742 162.056,-337.05"/>
<polygon fill="midnightblue" stroke="midnightblue" points="401.278,-388.59 411.771,-387.125 402.654,-381.727 401.278,-388.59"/>
</g>
<!-- Node4 -->
<g id="node4" class="node"><title>Node4</title>
<g id="a_node4"><a xlink:href="../../da/dc8/program__node__builder__interface_8h.html" target="_top" xlink:title="src/structural/src\l/facade/program_node\l_builder_interface.h">
<polygon fill="white" stroke="black" points="484.49,-223.5 484.49,-264.5 597.49,-264.5 597.49,-223.5 484.49,-223.5"/>
<text text-anchor="start" x="492.49" y="-252.5" font-family="Helvetica,sans-Serif" font-size="10.00">src/structural/src</text>
<text text-anchor="start" x="492.49" y="-241.5" font-family="Helvetica,sans-Serif" font-size="10.00">/facade/program_node</text>
<text text-anchor="middle" x="540.99" y="-230.5" font-family="Helvetica,sans-Serif" font-size="10.00">_builder_interface.h</text>
</a>
</g>
</g>
<!-- Node3&#45;&gt;Node4 -->
<g id="edge3" class="edge"><title>Node3&#45;&gt;Node4</title>
<path fill="none" stroke="midnightblue" d="M495.936,-293.916C504.882,-284.203 514.786,-273.45 523.024,-264.506"/>
<polygon fill="midnightblue" stroke="midnightblue" points="493.217,-291.701 489.017,-301.428 498.366,-296.444 493.217,-291.701"/>
</g>
<!-- Node10 -->
<g id="node10" class="node"><title>Node10</title>
<g id="a_node10"><a xlink:href="../../d9/d18/expression__node_8h.html" target="_top" xlink:title="src/structural/src\l/facade/expression_node.h">
<polygon fill="white" stroke="black" points="186.49,-229 186.49,-259 319.49,-259 319.49,-229 186.49,-229"/>
<text text-anchor="start" x="194.49" y="-247" font-family="Helvetica,sans-Serif" font-size="10.00">src/structural/src</text>
<text text-anchor="middle" x="252.99" y="-236" font-family="Helvetica,sans-Serif" font-size="10.00">/facade/expression_node.h</text>
</a>
</g>
</g>
<!-- Node3&#45;&gt;Node10 -->
<g id="edge10" class="edge"><title>Node3&#45;&gt;Node10</title>
<path fill="none" stroke="midnightblue" d="M405.291,-298.096C368.895,-285.407 324.808,-270.038 293.453,-259.106"/>
<polygon fill="midnightblue" stroke="midnightblue" points="404.255,-301.441 414.849,-301.428 406.559,-294.831 404.255,-301.441"/>
</g>
<!-- Node3&#45;&gt;Node12 -->
<g id="edge12" class="edge"><title>Node3&#45;&gt;Node12</title>
<path fill="none" stroke="midnightblue" d="M532.904,-297.934C566.879,-285.277 607.908,-269.991 637.125,-259.106"/>
<polygon fill="midnightblue" stroke="midnightblue" points="531.674,-294.657 523.525,-301.428 534.118,-301.217 531.674,-294.657"/>
</g>
<!-- Node14 -->
<g id="node14" class="node"><title>Node14</title>
<g id="a_node14"><a xlink:href="../../d3/d03/statement__node_8h.html" target="_top" xlink:title="src/structural/src\l/facade/statement_node.h">
<polygon fill="white" stroke="black" points="337.49,-229 337.49,-259 466.49,-259 466.49,-229 337.49,-229"/>
<text text-anchor="start" x="345.49" y="-247" font-family="Helvetica,sans-Serif" font-size="10.00">src/structural/src</text>
<text text-anchor="middle" x="401.99" y="-236" font-family="Helvetica,sans-Serif" font-size="10.00">/facade/statement_node.h</text>
</a>
</g>
</g>
<!-- Node3&#45;&gt;Node14 -->
<g id="edge15" class="edge"><title>Node3&#45;&gt;Node14</title>
<path fill="none" stroke="midnightblue" d="M446.467,-293.99C435.813,-282.255 423.77,-268.99 414.905,-259.225"/>
<polygon fill="midnightblue" stroke="midnightblue" points="443.907,-296.377 453.221,-301.428 449.09,-291.672 443.907,-296.377"/>
</g>
<!-- Node5 -->
<g id="node5" class="node"><title>Node5</title>
<g id="a_node5"><a xlink:href="../../d2/d57/program__node__builder_8h.html" target="_top" xlink:title="src/structural/src\l/facade/program_node\l_builder.h">
<polygon fill="white" stroke="black" points="437.49,-145.5 437.49,-186.5 550.49,-186.5 550.49,-145.5 437.49,-145.5"/>
<text text-anchor="start" x="445.49" y="-174.5" font-family="Helvetica,sans-Serif" font-size="10.00">src/structural/src</text>
<text text-anchor="start" x="445.49" y="-163.5" font-family="Helvetica,sans-Serif" font-size="10.00">/facade/program_node</text>
<text text-anchor="middle" x="493.99" y="-152.5" font-family="Helvetica,sans-Serif" font-size="10.00">_builder.h</text>
</a>
</g>
</g>
<!-- Node4&#45;&gt;Node5 -->
<g id="edge4" class="edge"><title>Node4&#45;&gt;Node5</title>
<path fill="none" stroke="midnightblue" d="M523.524,-214.757C517.709,-205.354 511.365,-195.096 506.052,-186.506"/>
<polygon fill="midnightblue" stroke="midnightblue" points="520.65,-216.764 528.886,-223.428 526.603,-213.082 520.65,-216.764"/>
</g>
<!-- Node6 -->
<g id="node6" class="node"><title>Node6</title>
<g id="a_node6"><a xlink:href="../../da/dc6/compiler_8cc.html" target="_top" xlink:title="src/structural/src\l/facade/compiler.cc">
<polygon fill="white" stroke="black" points="349.49,-0.5 349.49,-30.5 450.49,-30.5 450.49,-0.5 349.49,-0.5"/>
<text text-anchor="start" x="357.49" y="-18.5" font-family="Helvetica,sans-Serif" font-size="10.00">src/structural/src</text>
<text text-anchor="middle" x="399.99" y="-7.5" font-family="Helvetica,sans-Serif" font-size="10.00">/facade/compiler.cc</text>
</a>
</g>
</g>
<!-- Node5&#45;&gt;Node6 -->
<g id="edge5" class="edge"><title>Node5&#45;&gt;Node6</title>
<path fill="none" stroke="midnightblue" d="M464.176,-138.021C455.648,-129.32 446.824,-119.258 439.99,-109 423.014,-83.5186 410.555,-49.6497 404.371,-30.7681"/>
<polygon fill="midnightblue" stroke="midnightblue" points="461.96,-140.752 471.535,-145.288 466.879,-135.771 461.96,-140.752"/>
</g>
<!-- Node7 -->
<g id="node7" class="node"><title>Node7</title>
<g id="a_node7"><a xlink:href="../../d5/d36/parser_8h.html" target="_top" xlink:title="src/structural/src\l/facade/parser.h">
<polygon fill="white" stroke="black" points="448.99,-73 448.99,-103 538.99,-103 538.99,-73 448.99,-73"/>
<text text-anchor="start" x="456.99" y="-91" font-family="Helvetica,sans-Serif" font-size="10.00">src/structural/src</text>
<text text-anchor="middle" x="493.99" y="-80" font-family="Helvetica,sans-Serif" font-size="10.00">/facade/parser.h</text>
</a>
</g>
</g>
<!-- Node5&#45;&gt;Node7 -->
<g id="edge6" class="edge"><title>Node5&#45;&gt;Node7</title>
<path fill="none" stroke="midnightblue" d="M493.99,-135.283C493.99,-124.254 493.99,-112.246 493.99,-103.225"/>
<polygon fill="midnightblue" stroke="midnightblue" points="490.49,-135.428 493.99,-145.428 497.49,-135.428 490.49,-135.428"/>
</g>
<!-- Node9 -->
<g id="node9" class="node"><title>Node9</title>
<g id="a_node9"><a xlink:href="../../db/d62/program__node__builder_8cc.html" target="_top" xlink:title="src/structural/src\l/facade/program_node\l_builder.cc">
<polygon fill="white" stroke="black" points="610.49,-67.5 610.49,-108.5 723.49,-108.5 723.49,-67.5 610.49,-67.5"/>
<text text-anchor="start" x="618.49" y="-96.5" font-family="Helvetica,sans-Serif" font-size="10.00">src/structural/src</text>
<text text-anchor="start" x="618.49" y="-85.5" font-family="Helvetica,sans-Serif" font-size="10.00">/facade/program_node</text>
<text text-anchor="middle" x="666.99" y="-74.5" font-family="Helvetica,sans-Serif" font-size="10.00">_builder.cc</text>
</a>
</g>
</g>
<!-- Node5&#45;&gt;Node9 -->
<g id="edge9" class="edge"><title>Node5&#45;&gt;Node9</title>
<path fill="none" stroke="midnightblue" d="M547.872,-141.329C571.877,-130.783 599.809,-118.513 622.589,-108.506"/>
<polygon fill="midnightblue" stroke="midnightblue" points="546.289,-138.202 538.542,-145.428 549.105,-144.61 546.289,-138.202"/>
</g>
<!-- Node7&#45;&gt;Node6 -->
<g id="edge7" class="edge"><title>Node7&#45;&gt;Node6</title>
<path fill="none" stroke="midnightblue" d="M466.803,-66.6101C451.362,-55.0289 432.427,-40.8282 418.663,-30.5049"/>
<polygon fill="midnightblue" stroke="midnightblue" points="464.867,-69.5332 474.967,-72.7333 469.067,-63.9332 464.867,-69.5332"/>
</g>
<!-- Node8 -->
<g id="node8" class="node"><title>Node8</title>
<g id="a_node8"><a xlink:href="../../dc/dc9/parser_8cc.html" target="_top" xlink:title="src/structural/src\l/facade/parser.cc">
<polygon fill="white" stroke="black" points="468.99,-0.5 468.99,-30.5 560.99,-30.5 560.99,-0.5 468.99,-0.5"/>
<text text-anchor="start" x="476.99" y="-18.5" font-family="Helvetica,sans-Serif" font-size="10.00">src/structural/src</text>
<text text-anchor="middle" x="514.99" y="-7.5" font-family="Helvetica,sans-Serif" font-size="10.00">/facade/parser.cc</text>
</a>
</g>
</g>
<!-- Node7&#45;&gt;Node8 -->
<g id="edge8" class="edge"><title>Node7&#45;&gt;Node8</title>
<path fill="none" stroke="midnightblue" d="M501.12,-63.0645C504.32,-52.3215 507.987,-40.01 510.746,-30.7455"/>
<polygon fill="midnightblue" stroke="midnightblue" points="497.74,-62.1502 498.239,-72.7333 504.449,-64.1486 497.74,-62.1502"/>
</g>
<!-- Node11 -->
<g id="node11" class="node"><title>Node11</title>
<g id="a_node11"><a xlink:href="../../d7/dd1/expression__node_8cc.html" target="_top" xlink:title="src/structural/src\l/facade/expression_node.cc">
<polygon fill="white" stroke="black" points="183.99,-151 183.99,-181 321.99,-181 321.99,-151 183.99,-151"/>
<text text-anchor="start" x="191.99" y="-169" font-family="Helvetica,sans-Serif" font-size="10.00">src/structural/src</text>
<text text-anchor="middle" x="252.99" y="-158" font-family="Helvetica,sans-Serif" font-size="10.00">/facade/expression_node.cc</text>
</a>
</g>
</g>
<!-- Node10&#45;&gt;Node11 -->
<g id="edge11" class="edge"><title>Node10&#45;&gt;Node11</title>
<path fill="none" stroke="midnightblue" d="M252.99,-218.59C252.99,-206.257 252.99,-191.724 252.99,-181.231"/>
<polygon fill="midnightblue" stroke="midnightblue" points="249.49,-218.705 252.99,-228.705 256.49,-218.705 249.49,-218.705"/>
</g>
<!-- Node12&#45;&gt;Node9 -->
<g id="edge13" class="edge"><title>Node12&#45;&gt;Node9</title>
<path fill="none" stroke="midnightblue" d="M688.509,-219.825C693.476,-210.037 698.494,-198.304 700.99,-187 705.015,-168.772 706.02,-162.976 700.99,-145 697.343,-131.966 689.74,-118.949 682.646,-108.75"/>
<polygon fill="midnightblue" stroke="midnightblue" points="685.296,-218.411 683.654,-228.877 691.465,-221.719 685.296,-218.411"/>
</g>
<!-- Node13 -->
<g id="node13" class="node"><title>Node13</title>
<g id="a_node13"><a xlink:href="../../d4/dd8/variable__node_8cc.html" target="_top" xlink:title="src/structural/src\l/facade/variable_node.cc">
<polygon fill="white" stroke="black" points="568.49,-151 568.49,-181 691.49,-181 691.49,-151 568.49,-151"/>
<text text-anchor="start" x="576.49" y="-169" font-family="Helvetica,sans-Serif" font-size="10.00">src/structural/src</text>
<text text-anchor="middle" x="629.99" y="-158" font-family="Helvetica,sans-Serif" font-size="10.00">/facade/variable_node.cc</text>
</a>
</g>
</g>
<!-- Node12&#45;&gt;Node13 -->
<g id="edge14" class="edge"><title>Node12&#45;&gt;Node13</title>
<path fill="none" stroke="midnightblue" d="M661.415,-220.074C653.933,-207.437 644.88,-192.148 638.416,-181.231"/>
<polygon fill="midnightblue" stroke="midnightblue" points="658.419,-221.883 666.526,-228.705 664.442,-218.317 658.419,-221.883"/>
</g>
<!-- Node15&#45;&gt;Node6 -->
<g id="edge17" class="edge"><title>Node15&#45;&gt;Node6</title>
<path fill="none" stroke="midnightblue" d="M46.3667,-302.026C31.0141,-293.177 15.6071,-280.997 6.98978,-265 -1.86305,-248.566 -2.66341,-238.977 6.98978,-223 82.421,-98.1547 261.101,-45.0425 349.152,-25.833"/>
<polygon fill="midnightblue" stroke="midnightblue" points="44.883,-305.203 55.3481,-306.856 48.1979,-299.037 44.883,-305.203"/>
</g>
<!-- Node16 -->
<g id="node16" class="node"><title>Node16</title>
<g id="a_node16"><a xlink:href="../../d1/d9d/risc__code__generator_8cc.html" target="_top" xlink:title="src/structural/src\l/facade/risc_code_generator.cc">
<polygon fill="white" stroke="black" points="15.9898,-229 15.9898,-259 167.99,-259 167.99,-229 15.9898,-229"/>
<text text-anchor="start" x="23.9898" y="-247" font-family="Helvetica,sans-Serif" font-size="10.00">src/structural/src</text>
<text text-anchor="middle" x="91.9898" y="-236" font-family="Helvetica,sans-Serif" font-size="10.00">/facade/risc_code_generator.cc</text>
</a>
</g>
</g>
<!-- Node15&#45;&gt;Node16 -->
<g id="edge18" class="edge"><title>Node15&#45;&gt;Node16</title>
<path fill="none" stroke="midnightblue" d="M91.9898,-296.59C91.9898,-284.257 91.9898,-269.724 91.9898,-259.231"/>
<polygon fill="midnightblue" stroke="midnightblue" points="88.4899,-296.705 91.9898,-306.705 95.4899,-296.705 88.4899,-296.705"/>
</g>
</g>
</svg>
