<?xml version="1.0" encoding="UTF-8" standalone="no"?>
<!DOCTYPE svg PUBLIC "-//W3C//DTD SVG 1.1//EN"
 "http://www.w3.org/Graphics/SVG/1.1/DTD/svg11.dtd">
<!-- Generated by graphviz version 2.38.0 (20140413.2041)
 -->
<!-- Title: operational::observer::ClockTick::Attach Pages: 1 -->
<svg width="430pt" height="88pt"
 viewBox="0.00 0.00 430.00 88.00" xmlns="http://www.w3.org/2000/svg" xmlns:xlink="http://www.w3.org/1999/xlink">
<g id="graph0" class="graph" transform="scale(1 1) rotate(0) translate(4 84)">
<title>operational::observer::ClockTick::Attach</title>
<polygon fill="white" stroke="none" points="-4,4 -4,-84 426,-84 426,4 -4,4"/>
<!-- Node1 -->
<g id="node1" class="node"><title>Node1</title>
<polygon fill="#bfbfbf" stroke="black" points="0,-24.5 0,-54.5 106,-54.5 106,-24.5 0,-24.5"/>
<text text-anchor="start" x="8" y="-42.5" font-family="Helvetica,sans-Serif" font-size="10.00">operational::observer</text>
<text text-anchor="middle" x="53" y="-31.5" font-family="Helvetica,sans-Serif" font-size="10.00">::ClockTick::Attach</text>
</g>
<!-- Node2 -->
<g id="node2" class="node"><title>Node2</title>
<g id="a_node2"><a xlink:href="../../d0/dd5/classoperational_1_1observer_1_1_clock_timer.html#af6a9fce74b4f702cba2cd4f72a4b93de" target="_top" xlink:title="operational::observer\l::ClockTimer::Attach">
<polygon fill="white" stroke="black" points="142,-24.5 142,-54.5 248,-54.5 248,-24.5 142,-24.5"/>
<text text-anchor="start" x="150" y="-42.5" font-family="Helvetica,sans-Serif" font-size="10.00">operational::observer</text>
<text text-anchor="middle" x="195" y="-31.5" font-family="Helvetica,sans-Serif" font-size="10.00">::ClockTimer::Attach</text>
</a>
</g>
</g>
<!-- Node1&#45;&gt;Node2 -->
<g id="edge1" class="edge"><title>Node1&#45;&gt;Node2</title>
<path fill="none" stroke="midnightblue" d="M116.387,-39.5C124.885,-39.5 133.534,-39.5 141.826,-39.5"/>
<polygon fill="midnightblue" stroke="midnightblue" points="116.131,-36.0001 106.131,-39.5 116.131,-43.0001 116.131,-36.0001"/>
</g>
<!-- Node3 -->
<g id="node3" class="node"><title>Node3</title>
<g id="a_node3"><a xlink:href="../../d3/d84/classoperational_1_1observer_1_1_analog_clock.html#a4c8d07931d31d73e890409b119625460" target="_top" xlink:title="operational::observer\l::AnalogClock::AnalogClock">
<polygon fill="white" stroke="black" points="284,-49.5 284,-79.5 422,-79.5 422,-49.5 284,-49.5"/>
<text text-anchor="start" x="292" y="-67.5" font-family="Helvetica,sans-Serif" font-size="10.00">operational::observer</text>
<text text-anchor="middle" x="353" y="-56.5" font-family="Helvetica,sans-Serif" font-size="10.00">::AnalogClock::AnalogClock</text>
</a>
</g>
</g>
<!-- Node2&#45;&gt;Node3 -->
<g id="edge2" class="edge"><title>Node2&#45;&gt;Node3</title>
<path fill="none" stroke="midnightblue" d="M258.461,-49.5097C266.849,-50.8541 275.488,-52.2385 283.967,-53.5973"/>
<polygon fill="midnightblue" stroke="midnightblue" points="258.808,-46.0207 248.38,-47.8942 257.7,-52.9325 258.808,-46.0207"/>
</g>
<!-- Node4 -->
<g id="node4" class="node"><title>Node4</title>
<g id="a_node4"><a xlink:href="../../d9/dd3/classoperational_1_1observer_1_1_digital_clock.html#ad44c92ab85010486484f882cc0eaab00" target="_top" xlink:title="operational::observer\l::DigitalClock::DigitalClock">
<polygon fill="white" stroke="black" points="287,-0.5 287,-30.5 419,-30.5 419,-0.5 287,-0.5"/>
<text text-anchor="start" x="295" y="-18.5" font-family="Helvetica,sans-Serif" font-size="10.00">operational::observer</text>
<text text-anchor="middle" x="353" y="-7.5" font-family="Helvetica,sans-Serif" font-size="10.00">::DigitalClock::DigitalClock</text>
</a>
</g>
</g>
<!-- Node2&#45;&gt;Node4 -->
<g id="edge3" class="edge"><title>Node2&#45;&gt;Node4</title>
<path fill="none" stroke="midnightblue" d="M258.36,-29.9062C267.695,-28.47 277.341,-26.986 286.734,-25.5409"/>
<polygon fill="midnightblue" stroke="midnightblue" points="257.731,-26.4616 248.38,-31.4416 258.796,-33.3802 257.731,-26.4616"/>
</g>
</g>
</svg>
