<?xml version="1.0" encoding="UTF-8" standalone="no"?>
<!DOCTYPE svg PUBLIC "-//W3C//DTD SVG 1.1//EN"
 "http://www.w3.org/Graphics/SVG/1.1/DTD/svg11.dtd">
<!-- Generated by graphviz version 2.38.0 (20140413.2041)
 -->
<!-- Title: operational::observer::ClockTick::Detach Pages: 1 -->
<svg width="438pt" height="88pt"
 viewBox="0.00 0.00 438.00 88.00" xmlns="http://www.w3.org/2000/svg" xmlns:xlink="http://www.w3.org/1999/xlink">
<g id="graph0" class="graph" transform="scale(1 1) rotate(0) translate(4 84)">
<title>operational::observer::ClockTick::Detach</title>
<polygon fill="white" stroke="none" points="-4,4 -4,-84 434,-84 434,4 -4,4"/>
<!-- Node1 -->
<g id="node1" class="node"><title>Node1</title>
<polygon fill="#bfbfbf" stroke="black" points="0,-24.5 0,-54.5 106,-54.5 106,-24.5 0,-24.5"/>
<text text-anchor="start" x="8" y="-42.5" font-family="Helvetica,sans-Serif" font-size="10.00">operational::observer</text>
<text text-anchor="middle" x="53" y="-31.5" font-family="Helvetica,sans-Serif" font-size="10.00">::ClockTick::Detach</text>
</g>
<!-- Node2 -->
<g id="node2" class="node"><title>Node2</title>
<g id="a_node2"><a xlink:href="../../d0/dd5/classoperational_1_1observer_1_1_clock_timer.html#a3605ad90b29bd98b9d4dcc4a69d7c41f" target="_top" xlink:title="operational::observer\l::ClockTimer::Detach">
<polygon fill="white" stroke="black" points="142,-24.5 142,-54.5 250,-54.5 250,-24.5 142,-24.5"/>
<text text-anchor="start" x="150" y="-42.5" font-family="Helvetica,sans-Serif" font-size="10.00">operational::observer</text>
<text text-anchor="middle" x="196" y="-31.5" font-family="Helvetica,sans-Serif" font-size="10.00">::ClockTimer::Detach</text>
</a>
</g>
</g>
<!-- Node1&#45;&gt;Node2 -->
<g id="edge1" class="edge"><title>Node1&#45;&gt;Node2</title>
<path fill="none" stroke="midnightblue" d="M116.317,-39.5C124.783,-39.5 133.409,-39.5 141.697,-39.5"/>
<polygon fill="midnightblue" stroke="midnightblue" points="116.103,-36.0001 106.103,-39.5 116.103,-43.0001 116.103,-36.0001"/>
</g>
<!-- Node3 -->
<g id="node3" class="node"><title>Node3</title>
<g id="a_node3"><a xlink:href="../../d3/d84/classoperational_1_1observer_1_1_analog_clock.html#ab1f4aaeb3d862eab8c804d02c95d7312" target="_top" xlink:title="operational::observer\l::AnalogClock::~AnalogClock">
<polygon fill="white" stroke="black" points="286,-49.5 286,-79.5 430,-79.5 430,-49.5 286,-49.5"/>
<text text-anchor="start" x="294" y="-67.5" font-family="Helvetica,sans-Serif" font-size="10.00">operational::observer</text>
<text text-anchor="middle" x="358" y="-56.5" font-family="Helvetica,sans-Serif" font-size="10.00">::AnalogClock::~AnalogClock</text>
</a>
</g>
</g>
<!-- Node2&#45;&gt;Node3 -->
<g id="edge2" class="edge"><title>Node2&#45;&gt;Node3</title>
<path fill="none" stroke="midnightblue" d="M260.31,-49.3921C268.658,-50.6966 277.261,-52.0408 285.731,-53.3643"/>
<polygon fill="midnightblue" stroke="midnightblue" points="260.698,-45.9104 250.278,-47.8246 259.617,-52.8265 260.698,-45.9104"/>
</g>
<!-- Node4 -->
<g id="node4" class="node"><title>Node4</title>
<g id="a_node4"><a xlink:href="../../d9/dd3/classoperational_1_1observer_1_1_digital_clock.html#a63dc47e732a10b5e301f112b75a98d37" target="_top" xlink:title="operational::observer\l::DigitalClock::~DigitalClock">
<polygon fill="white" stroke="black" points="289,-0.5 289,-30.5 427,-30.5 427,-0.5 289,-0.5"/>
<text text-anchor="start" x="297" y="-18.5" font-family="Helvetica,sans-Serif" font-size="10.00">operational::observer</text>
<text text-anchor="middle" x="358" y="-7.5" font-family="Helvetica,sans-Serif" font-size="10.00">::DigitalClock::~DigitalClock</text>
</a>
</g>
</g>
<!-- Node2&#45;&gt;Node4 -->
<g id="edge3" class="edge"><title>Node2&#45;&gt;Node4</title>
<path fill="none" stroke="midnightblue" d="M260.307,-30.0039C269.69,-28.5965 279.394,-27.1409 288.87,-25.7195"/>
<polygon fill="midnightblue" stroke="midnightblue" points="259.648,-26.5636 250.278,-31.5083 260.686,-33.4861 259.648,-26.5636"/>
</g>
</g>
</svg>
