<?xml version="1.0" encoding="UTF-8" standalone="no"?>
<!DOCTYPE svg PUBLIC "-//W3C//DTD SVG 1.1//EN"
 "http://www.w3.org/Graphics/SVG/1.1/DTD/svg11.dtd">
<!-- Generated by graphviz version 2.38.0 (20140413.2041)
 -->
<!-- Title: operational::observer::ClockTick::Notify Pages: 1 -->
<svg width="275pt" height="186pt"
 viewBox="0.00 0.00 275.00 186.00" xmlns="http://www.w3.org/2000/svg" xmlns:xlink="http://www.w3.org/1999/xlink">
<g id="graph0" class="graph" transform="scale(1 1) rotate(0) translate(4 182)">
<title>operational::observer::ClockTick::Notify</title>
<polygon fill="white" stroke="none" points="-4,4 -4,-182 271,-182 271,4 -4,4"/>
<!-- Node1 -->
<g id="node1" class="node"><title>Node1</title>
<polygon fill="#bfbfbf" stroke="black" points="0,-73.5 0,-103.5 106,-103.5 106,-73.5 0,-73.5"/>
<text text-anchor="start" x="8" y="-91.5" font-family="Helvetica,sans-Serif" font-size="10.00">operational::observer</text>
<text text-anchor="middle" x="53" y="-80.5" font-family="Helvetica,sans-Serif" font-size="10.00">::ClockTick::Notify</text>
</g>
<!-- Node2 -->
<g id="node2" class="node"><title>Node2</title>
<g id="a_node2"><a xlink:href="../../da/d8a/classoperational_1_1iterator_1_1_list_iterator.html#af957220a47026d5126a8220ada421352" target="_top" xlink:title="operational::iterator\l::ListIterator::First">
<polygon fill="white" stroke="black" points="154.5,-147.5 154.5,-177.5 254.5,-177.5 254.5,-147.5 154.5,-147.5"/>
<text text-anchor="start" x="162.5" y="-165.5" font-family="Helvetica,sans-Serif" font-size="10.00">operational::iterator</text>
<text text-anchor="middle" x="204.5" y="-154.5" font-family="Helvetica,sans-Serif" font-size="10.00">::ListIterator::First</text>
</a>
</g>
</g>
<!-- Node1&#45;&gt;Node2 -->
<g id="edge1" class="edge"><title>Node1&#45;&gt;Node2</title>
<path fill="none" stroke="midnightblue" d="M78.5233,-103.706C95.899,-114.161 119.948,-128 142,-138.5 145.565,-140.198 149.285,-141.873 153.052,-143.501"/>
<polygon fill="midnightblue" stroke="midnightblue" points="151.881,-146.805 162.457,-147.438 154.584,-140.348 151.881,-146.805"/>
</g>
<!-- Node3 -->
<g id="node3" class="node"><title>Node3</title>
<g id="a_node3"><a xlink:href="../../da/d8a/classoperational_1_1iterator_1_1_list_iterator.html#a7aabc4cc183b3c49e6e135514f271c0e" target="_top" xlink:title="operational::iterator\l::ListIterator::IsDone">
<polygon fill="white" stroke="black" points="152.5,-98.5 152.5,-128.5 256.5,-128.5 256.5,-98.5 152.5,-98.5"/>
<text text-anchor="start" x="160.5" y="-116.5" font-family="Helvetica,sans-Serif" font-size="10.00">operational::iterator</text>
<text text-anchor="middle" x="204.5" y="-105.5" font-family="Helvetica,sans-Serif" font-size="10.00">::ListIterator::IsDone</text>
</a>
</g>
</g>
<!-- Node1&#45;&gt;Node3 -->
<g id="edge2" class="edge"><title>Node1&#45;&gt;Node3</title>
<path fill="none" stroke="midnightblue" d="M106.288,-97.2438C117.931,-99.1909 130.377,-101.272 142.341,-103.273"/>
<polygon fill="midnightblue" stroke="midnightblue" points="141.81,-106.732 152.25,-104.93 142.964,-99.8283 141.81,-106.732"/>
</g>
<!-- Node4 -->
<g id="node4" class="node"><title>Node4</title>
<g id="a_node4"><a xlink:href="../../da/d8a/classoperational_1_1iterator_1_1_list_iterator.html#a375f2f3451b40f2d7477d03e4f5c9676" target="_top" xlink:title="operational::iterator\l::ListIterator::Next">
<polygon fill="white" stroke="black" points="154.5,-49.5 154.5,-79.5 254.5,-79.5 254.5,-49.5 154.5,-49.5"/>
<text text-anchor="start" x="162.5" y="-67.5" font-family="Helvetica,sans-Serif" font-size="10.00">operational::iterator</text>
<text text-anchor="middle" x="204.5" y="-56.5" font-family="Helvetica,sans-Serif" font-size="10.00">::ListIterator::Next</text>
</a>
</g>
</g>
<!-- Node1&#45;&gt;Node4 -->
<g id="edge3" class="edge"><title>Node1&#45;&gt;Node4</title>
<path fill="none" stroke="midnightblue" d="M106.288,-80.106C118.513,-78.1434 131.622,-76.039 144.13,-74.031"/>
<polygon fill="midnightblue" stroke="midnightblue" points="144.685,-77.4867 154.004,-72.4458 143.576,-70.5752 144.685,-77.4867"/>
</g>
<!-- Node5 -->
<g id="node5" class="node"><title>Node5</title>
<g id="a_node5"><a xlink:href="../../da/d8a/classoperational_1_1iterator_1_1_list_iterator.html#abb9ec87938406dd6f4c77bae016e8a8a" target="_top" xlink:title="operational::iterator\l::ListIterator::CurrentItem">
<polygon fill="white" stroke="black" points="142,-0.5 142,-30.5 267,-30.5 267,-0.5 142,-0.5"/>
<text text-anchor="start" x="150" y="-18.5" font-family="Helvetica,sans-Serif" font-size="10.00">operational::iterator</text>
<text text-anchor="middle" x="204.5" y="-7.5" font-family="Helvetica,sans-Serif" font-size="10.00">::ListIterator::CurrentItem</text>
</a>
</g>
</g>
<!-- Node1&#45;&gt;Node5 -->
<g id="edge4" class="edge"><title>Node1&#45;&gt;Node5</title>
<path fill="none" stroke="midnightblue" d="M79.7832,-73.4307C97.1148,-63.5525 120.614,-50.6393 142,-40.5 146.267,-38.4771 150.743,-36.4615 155.252,-34.5025"/>
<polygon fill="midnightblue" stroke="midnightblue" points="156.661,-37.7067 164.498,-30.5769 153.925,-31.2634 156.661,-37.7067"/>
</g>
</g>
</svg>
