<?xml version="1.0" encoding="UTF-8" standalone="no"?>
<!DOCTYPE svg PUBLIC "-//W3C//DTD SVG 1.1//EN"
 "http://www.w3.org/Graphics/SVG/1.1/DTD/svg11.dtd">
<!-- Generated by graphviz version 2.38.0 (20140413.2041)
 -->
<!-- Title: src/operational/src/visitor/chassis_interface.h Pages: 1 -->
<!--zoomable 407 -->
<svg id="main" version="1.1" xmlns="http://www.w3.org/2000/svg" xmlns:xlink="http://www.w3.org/1999/xlink" xml:space="preserve" onload="init(evt)">
<style type="text/css"><![CDATA[
.edge:hover path { stroke: red; }
.edge:hover polygon { stroke: red; fill: red; }
]]></style>
<script type="text/javascript"><![CDATA[
var edges = document.getElementsByTagName('g');
if (edges && edges.length) {
  for (var i=0;i<edges.length;i++) {
    if (edges[i].id.substr(0,4)=='edge') {
      edges[i].setAttribute('class','edge');
    }
  }
}
]]></script>
        <defs>
                <circle id="rim" cx="0" cy="0" r="7"/>
                <circle id="rim2" cx="0" cy="0" r="3.5"/>
                <g id="zoomPlus">
                        <use xlink:href="#rim" fill="#404040">
                                <set attributeName="fill" to="#808080" begin="zoomplus.mouseover" end="zoomplus.mouseout"/>
                        </use>
                        <path d="M-4,0h8M0,-4v8" fill="none" stroke="white" stroke-width="1.5" pointer-events="none"/>
                </g>
                <g id="zoomMin">
                        <use xlink:href="#rim" fill="#404040">
                                <set attributeName="fill" to="#808080" begin="zoomminus.mouseover" end="zoomminus.mouseout"/>
                        </use>
                        <path d="M-4,0h8" fill="none" stroke="white" stroke-width="1.5" pointer-events="none"/>
                </g>
                <g id="dirArrow">
                        <path fill="none" stroke="white" stroke-width="1.5" d="M0,-3.0v7 M-2.5,-0.5L0,-3.0L2.5,-0.5"/>
                </g>
               <g id="resetDef">
                       <use xlink:href="#rim2" fill="#404040">
                               <set attributeName="fill" to="#808080" begin="reset.mouseover" end="reset.mouseout"/>
                       </use>
               </g>
        </defs>

<script type="text/javascript">
var viewWidth = 917;
var viewHeight = 407;
var sectionId = 'dynsection-0';
</script>
<script xlink:href="../../svgpan.js"/>
<svg id="graph" class="graph">
<g id="viewport">
<title>src/operational/src/visitor/chassis_interface.h</title>
<polygon fill="white" stroke="none" points="-4,4 -4,-403 913.463,-403 913.463,4 -4,4"/>
<!-- Node1 -->
<g id="node1" class="node"><title>Node1</title>
<polygon fill="#bfbfbf" stroke="black" points="578,-368.5 578,-398.5 709,-398.5 709,-368.5 578,-368.5"/>
<text text-anchor="start" x="586" y="-386.5" font-family="Helvetica,sans-Serif" font-size="10.00">src/operational/src</text>
<text text-anchor="middle" x="643.5" y="-375.5" font-family="Helvetica,sans-Serif" font-size="10.00">/visitor/chassis_interface.h</text>
</g>
<!-- Node2 -->
<g id="node2" class="node"><title>Node2</title>
<g id="a_node2"><a xlink:href="../../d2/d43/equipment__visitor__interface_8h.html" target="_top" xlink:title="src/operational/src\l/visitor/equipment_visitor\l_interface.h">
<polygon fill="white" stroke="black" points="535.5,-290.5 535.5,-331.5 657.5,-331.5 657.5,-290.5 535.5,-290.5"/>
<text text-anchor="start" x="543.5" y="-319.5" font-family="Helvetica,sans-Serif" font-size="10.00">src/operational/src</text>
<text text-anchor="start" x="543.5" y="-308.5" font-family="Helvetica,sans-Serif" font-size="10.00">/visitor/equipment_visitor</text>
<text text-anchor="middle" x="596.5" y="-297.5" font-family="Helvetica,sans-Serif" font-size="10.00">_interface.h</text>
</a>
</g>
</g>
<!-- Node1&#45;&gt;Node2 -->
<g id="edge1" class="edge"><title>Node1&#45;&gt;Node2</title>
<path fill="none" stroke="midnightblue" d="M628.297,-359.695C622.254,-350.631 615.372,-340.307 609.559,-331.588"/>
<polygon fill="midnightblue" stroke="midnightblue" points="625.53,-361.854 633.989,-368.233 631.354,-357.971 625.53,-361.854"/>
</g>
<!-- Node9 -->
<g id="node9" class="node"><title>Node9</title>
<g id="a_node9"><a xlink:href="../../dc/dc0/operational_2src_2visitor_2chassis_8h.html" target="_top" xlink:title="src/operational/src\l/visitor/chassis.h">
<polygon fill="white" stroke="black" points="656,-145.5 656,-175.5 753,-175.5 753,-145.5 656,-145.5"/>
<text text-anchor="start" x="664" y="-163.5" font-family="Helvetica,sans-Serif" font-size="10.00">src/operational/src</text>
<text text-anchor="middle" x="704.5" y="-152.5" font-family="Helvetica,sans-Serif" font-size="10.00">/visitor/chassis.h</text>
</a>
</g>
</g>
<!-- Node1&#45;&gt;Node9 -->
<g id="edge24" class="edge"><title>Node1&#45;&gt;Node9</title>
<path fill="none" stroke="midnightblue" d="M655.4,-359.067C659.328,-350.681 663.464,-341.06 666.5,-332 685.386,-275.639 697.628,-205.637 702.329,-175.919"/>
<polygon fill="midnightblue" stroke="midnightblue" points="652.168,-357.712 650.963,-368.238 658.469,-360.761 652.168,-357.712"/>
</g>
<!-- Node3 -->
<g id="node3" class="node"><title>Node3</title>
<g id="a_node3"><a xlink:href="../../d8/d3b/visited__equipment__interface_8h.html" target="_top" xlink:title="src/operational/src\l/visitor/visited_equipment\l_interface.h">
<polygon fill="white" stroke="black" points="426,-212.5 426,-253.5 551,-253.5 551,-212.5 426,-212.5"/>
<text text-anchor="start" x="434" y="-241.5" font-family="Helvetica,sans-Serif" font-size="10.00">src/operational/src</text>
<text text-anchor="start" x="434" y="-230.5" font-family="Helvetica,sans-Serif" font-size="10.00">/visitor/visited_equipment</text>
<text text-anchor="middle" x="488.5" y="-219.5" font-family="Helvetica,sans-Serif" font-size="10.00">_interface.h</text>
</a>
</g>
</g>
<!-- Node2&#45;&gt;Node3 -->
<g id="edge2" class="edge"><title>Node2&#45;&gt;Node3</title>
<path fill="none" stroke="midnightblue" d="M560.455,-284.635C546.034,-274.487 529.684,-262.982 516.218,-253.506"/>
<polygon fill="midnightblue" stroke="midnightblue" points="558.495,-287.535 568.687,-290.428 562.523,-281.811 558.495,-287.535"/>
</g>
<!-- Node4 -->
<g id="node4" class="node"><title>Node4</title>
<g id="a_node4"><a xlink:href="../../dd/da3/operational_2src_2visitor_2bus_8h.html" target="_top" xlink:title="src/operational/src\l/visitor/bus.h">
<polygon fill="white" stroke="black" points="541,-145.5 541,-175.5 638,-175.5 638,-145.5 541,-145.5"/>
<text text-anchor="start" x="549" y="-163.5" font-family="Helvetica,sans-Serif" font-size="10.00">src/operational/src</text>
<text text-anchor="middle" x="589.5" y="-152.5" font-family="Helvetica,sans-Serif" font-size="10.00">/visitor/bus.h</text>
</a>
</g>
</g>
<!-- Node2&#45;&gt;Node4 -->
<g id="edge20" class="edge"><title>Node2&#45;&gt;Node4</title>
<path fill="none" stroke="midnightblue" d="M595.096,-280.219C593.597,-248.421 591.286,-199.397 590.161,-175.526"/>
<polygon fill="midnightblue" stroke="midnightblue" points="591.603,-280.456 595.57,-290.28 598.596,-280.127 591.603,-280.456"/>
</g>
<!-- Node17 -->
<g id="node17" class="node"><title>Node17</title>
<g id="a_node17"><a xlink:href="../../d4/d2c/pricing__visitor_8h.html" target="_top" xlink:title="src/operational/src\l/visitor/pricing_visitor.h">
<polygon fill="white" stroke="black" points="773.5,-218 773.5,-248 887.5,-248 887.5,-218 773.5,-218"/>
<text text-anchor="start" x="781.5" y="-236" font-family="Helvetica,sans-Serif" font-size="10.00">src/operational/src</text>
<text text-anchor="middle" x="830.5" y="-225" font-family="Helvetica,sans-Serif" font-size="10.00">/visitor/pricing_visitor.h</text>
</a>
</g>
</g>
<!-- Node2&#45;&gt;Node17 -->
<g id="edge21" class="edge"><title>Node2&#45;&gt;Node17</title>
<path fill="none" stroke="midnightblue" d="M666.522,-287.258C705.685,-274.538 753.267,-259.084 787.067,-248.106"/>
<polygon fill="midnightblue" stroke="midnightblue" points="665.191,-284.01 656.761,-290.428 667.353,-290.668 665.191,-284.01"/>
</g>
<!-- Node3&#45;&gt;Node4 -->
<g id="edge3" class="edge"><title>Node3&#45;&gt;Node4</title>
<path fill="none" stroke="midnightblue" d="M525.137,-206.426C539.993,-196.057 556.584,-184.476 569.2,-175.67"/>
<polygon fill="midnightblue" stroke="midnightblue" points="522.831,-203.768 516.634,-212.362 526.837,-209.508 522.831,-203.768"/>
</g>
<!-- Node7 -->
<g id="node7" class="node"><title>Node7</title>
<g id="a_node7"><a xlink:href="../../d8/d35/operational_2src_2visitor_2card_8h.html" target="_top" xlink:title="src/operational/src\l/visitor/card.h">
<polygon fill="white" stroke="black" points="426,-145.5 426,-175.5 523,-175.5 523,-145.5 426,-145.5"/>
<text text-anchor="start" x="434" y="-163.5" font-family="Helvetica,sans-Serif" font-size="10.00">src/operational/src</text>
<text text-anchor="middle" x="474.5" y="-152.5" font-family="Helvetica,sans-Serif" font-size="10.00">/visitor/card.h</text>
</a>
</g>
</g>
<!-- Node3&#45;&gt;Node7 -->
<g id="edge6" class="edge"><title>Node3&#45;&gt;Node7</title>
<path fill="none" stroke="midnightblue" d="M482.617,-202.376C480.798,-193.214 478.875,-183.532 477.358,-175.892"/>
<polygon fill="midnightblue" stroke="midnightblue" points="479.219,-203.235 484.6,-212.362 486.085,-201.872 479.219,-203.235"/>
</g>
<!-- Node3&#45;&gt;Node9 -->
<g id="edge9" class="edge"><title>Node3&#45;&gt;Node9</title>
<path fill="none" stroke="midnightblue" d="M558.239,-209.238C592.149,-198.17 631.838,-185.216 661.31,-175.597"/>
<polygon fill="midnightblue" stroke="midnightblue" points="556.802,-206.025 548.381,-212.455 558.974,-212.68 556.802,-206.025"/>
</g>
<!-- Node11 -->
<g id="node11" class="node"><title>Node11</title>
<g id="a_node11"><a xlink:href="../../d4/d9f/operational_2src_2visitor_2floppy__disk_8h.html" target="_top" xlink:title="src/operational/src\l/visitor/floppy_disk.h">
<polygon fill="white" stroke="black" points="300.5,-145.5 300.5,-175.5 404.5,-175.5 404.5,-145.5 300.5,-145.5"/>
<text text-anchor="start" x="308.5" y="-163.5" font-family="Helvetica,sans-Serif" font-size="10.00">src/operational/src</text>
<text text-anchor="middle" x="352.5" y="-152.5" font-family="Helvetica,sans-Serif" font-size="10.00">/visitor/floppy_disk.h</text>
</a>
</g>
</g>
<!-- Node3&#45;&gt;Node11 -->
<g id="edge12" class="edge"><title>Node3&#45;&gt;Node11</title>
<path fill="none" stroke="midnightblue" d="M441.677,-207.728C421.051,-197.036 397.537,-184.847 379.835,-175.67"/>
<polygon fill="midnightblue" stroke="midnightblue" points="440.128,-210.867 450.616,-212.362 443.349,-204.652 440.128,-210.867"/>
</g>
<!-- Node13 -->
<g id="node13" class="node"><title>Node13</title>
<g id="a_node13"><a xlink:href="../../da/dab/inventory_8h.html" target="_top" xlink:title="src/operational/src\l/visitor/inventory.h">
<polygon fill="white" stroke="black" points="131,-145.5 131,-175.5 228,-175.5 228,-145.5 131,-145.5"/>
<text text-anchor="start" x="139" y="-163.5" font-family="Helvetica,sans-Serif" font-size="10.00">src/operational/src</text>
<text text-anchor="middle" x="179.5" y="-152.5" font-family="Helvetica,sans-Serif" font-size="10.00">/visitor/inventory.h</text>
</a>
</g>
</g>
<!-- Node3&#45;&gt;Node13 -->
<g id="edge15" class="edge"><title>Node3&#45;&gt;Node13</title>
<path fill="none" stroke="midnightblue" d="M416.155,-215.494C358.299,-202.294 278.766,-184.148 228.244,-172.621"/>
<polygon fill="midnightblue" stroke="midnightblue" points="415.441,-218.921 425.969,-217.733 416.998,-212.096 415.441,-218.921"/>
</g>
<!-- Node5 -->
<g id="node5" class="node"><title>Node5</title>
<g id="a_node5"><a xlink:href="../../d9/d45/operational_2src_2visitor_2bus_8cc.html" target="_top" xlink:title="src/operational/src\l/visitor/bus.cc">
<polygon fill="white" stroke="black" points="618,-78.5 618,-108.5 715,-108.5 715,-78.5 618,-78.5"/>
<text text-anchor="start" x="626" y="-96.5" font-family="Helvetica,sans-Serif" font-size="10.00">src/operational/src</text>
<text text-anchor="middle" x="666.5" y="-85.5" font-family="Helvetica,sans-Serif" font-size="10.00">/visitor/bus.cc</text>
</a>
</g>
</g>
<!-- Node4&#45;&gt;Node5 -->
<g id="edge4" class="edge"><title>Node4&#45;&gt;Node5</title>
<path fill="none" stroke="midnightblue" d="M613.923,-138.883C625.624,-129.005 639.338,-117.429 649.825,-108.577"/>
<polygon fill="midnightblue" stroke="midnightblue" points="611.592,-136.271 606.208,-145.396 616.107,-141.62 611.592,-136.271"/>
</g>
<!-- Node6 -->
<g id="node6" class="node"><title>Node6</title>
<g id="a_node6"><a xlink:href="../../dc/d3a/visitor__test_8cc.html" target="_top" xlink:title="src/operational_tests\l/src/visitor/visitor\l_test.cc">
<polygon fill="white" stroke="black" points="517,-0.5 517,-41.5 624,-41.5 624,-0.5 517,-0.5"/>
<text text-anchor="start" x="525" y="-29.5" font-family="Helvetica,sans-Serif" font-size="10.00">src/operational_tests</text>
<text text-anchor="start" x="525" y="-18.5" font-family="Helvetica,sans-Serif" font-size="10.00">/src/visitor/visitor</text>
<text text-anchor="middle" x="570.5" y="-7.5" font-family="Helvetica,sans-Serif" font-size="10.00">_test.cc</text>
</a>
</g>
</g>
<!-- Node4&#45;&gt;Node6 -->
<g id="edge5" class="edge"><title>Node4&#45;&gt;Node6</title>
<path fill="none" stroke="midnightblue" d="M586.151,-135.263C582.467,-108.604 576.619,-66.2796 573.211,-41.6182"/>
<polygon fill="midnightblue" stroke="midnightblue" points="582.702,-135.876 587.538,-145.303 589.636,-134.918 582.702,-135.876"/>
</g>
<!-- Node7&#45;&gt;Node6 -->
<g id="edge8" class="edge"><title>Node7&#45;&gt;Node6</title>
<path fill="none" stroke="midnightblue" d="M502.266,-138.989C512.393,-130.524 523.347,-120.098 531.5,-109 546.886,-88.057 558.068,-60.08 564.416,-41.5736"/>
<polygon fill="midnightblue" stroke="midnightblue" points="499.984,-136.333 494.392,-145.332 504.375,-141.785 499.984,-136.333"/>
</g>
<!-- Node8 -->
<g id="node8" class="node"><title>Node8</title>
<g id="a_node8"><a xlink:href="../../d4/dc2/operational_2src_2visitor_2card_8cc.html" target="_top" xlink:title="src/operational/src\l/visitor/card.cc">
<polygon fill="white" stroke="black" points="426,-78.5 426,-108.5 523,-108.5 523,-78.5 426,-78.5"/>
<text text-anchor="start" x="434" y="-96.5" font-family="Helvetica,sans-Serif" font-size="10.00">src/operational/src</text>
<text text-anchor="middle" x="474.5" y="-85.5" font-family="Helvetica,sans-Serif" font-size="10.00">/visitor/card.cc</text>
</a>
</g>
</g>
<!-- Node7&#45;&gt;Node8 -->
<g id="edge7" class="edge"><title>Node7&#45;&gt;Node8</title>
<path fill="none" stroke="midnightblue" d="M474.5,-135.108C474.5,-126.154 474.5,-116.323 474.5,-108.577"/>
<polygon fill="midnightblue" stroke="midnightblue" points="471,-135.396 474.5,-145.396 478,-135.396 471,-135.396"/>
</g>
<!-- Node9&#45;&gt;Node6 -->
<g id="edge11" class="edge"><title>Node9&#45;&gt;Node6</title>
<path fill="none" stroke="midnightblue" d="M719.058,-136.3C727.945,-118.884 735.508,-95.1821 723.5,-78 701.221,-46.1206 658.736,-32.3314 624.178,-26.3964"/>
<polygon fill="midnightblue" stroke="midnightblue" points="715.886,-134.803 714.1,-145.247 722.008,-138.196 715.886,-134.803"/>
</g>
<!-- Node10 -->
<g id="node10" class="node"><title>Node10</title>
<g id="a_node10"><a xlink:href="../../d2/d10/operational_2src_2visitor_2chassis_8cc.html" target="_top" xlink:title="src/operational/src\l/visitor/chassis.cc">
<polygon fill="white" stroke="black" points="772,-78.5 772,-108.5 869,-108.5 869,-78.5 772,-78.5"/>
<text text-anchor="start" x="780" y="-96.5" font-family="Helvetica,sans-Serif" font-size="10.00">src/operational/src</text>
<text text-anchor="middle" x="820.5" y="-85.5" font-family="Helvetica,sans-Serif" font-size="10.00">/visitor/chassis.cc</text>
</a>
</g>
</g>
<!-- Node9&#45;&gt;Node10 -->
<g id="edge10" class="edge"><title>Node9&#45;&gt;Node10</title>
<path fill="none" stroke="midnightblue" d="M738.772,-140.296C756.923,-130.125 778.82,-117.855 795.379,-108.577"/>
<polygon fill="midnightblue" stroke="midnightblue" points="736.683,-137.454 729.67,-145.396 740.105,-143.561 736.683,-137.454"/>
</g>
<!-- Node11&#45;&gt;Node6 -->
<g id="edge14" class="edge"><title>Node11&#45;&gt;Node6</title>
<path fill="none" stroke="midnightblue" d="M319.265,-139.458C295.875,-122.842 271.522,-98.6816 288.5,-78 316.806,-43.5198 443.07,-29.8883 516.695,-24.8012"/>
<polygon fill="midnightblue" stroke="midnightblue" points="317.519,-142.503 327.76,-145.218 321.447,-136.709 317.519,-142.503"/>
</g>
<!-- Node12 -->
<g id="node12" class="node"><title>Node12</title>
<g id="a_node12"><a xlink:href="../../d5/d33/operational_2src_2visitor_2floppy__disk_8cc.html" target="_top" xlink:title="src/operational/src\l/visitor/floppy_disk.cc">
<polygon fill="white" stroke="black" points="297.5,-78.5 297.5,-108.5 407.5,-108.5 407.5,-78.5 297.5,-78.5"/>
<text text-anchor="start" x="305.5" y="-96.5" font-family="Helvetica,sans-Serif" font-size="10.00">src/operational/src</text>
<text text-anchor="middle" x="352.5" y="-85.5" font-family="Helvetica,sans-Serif" font-size="10.00">/visitor/floppy_disk.cc</text>
</a>
</g>
</g>
<!-- Node11&#45;&gt;Node12 -->
<g id="edge13" class="edge"><title>Node11&#45;&gt;Node12</title>
<path fill="none" stroke="midnightblue" d="M352.5,-135.108C352.5,-126.154 352.5,-116.323 352.5,-108.577"/>
<polygon fill="midnightblue" stroke="midnightblue" points="349,-135.396 352.5,-145.396 356,-135.396 349,-135.396"/>
</g>
<!-- Node14 -->
<g id="node14" class="node"><title>Node14</title>
<g id="a_node14"><a xlink:href="../../d1/dcc/inventory_8cc.html" target="_top" xlink:title="src/operational/src\l/visitor/inventory.cc">
<polygon fill="white" stroke="black" points="0,-78.5 0,-108.5 99,-108.5 99,-78.5 0,-78.5"/>
<text text-anchor="start" x="8" y="-96.5" font-family="Helvetica,sans-Serif" font-size="10.00">src/operational/src</text>
<text text-anchor="middle" x="49.5" y="-85.5" font-family="Helvetica,sans-Serif" font-size="10.00">/visitor/inventory.cc</text>
</a>
</g>
</g>
<!-- Node13&#45;&gt;Node14 -->
<g id="edge16" class="edge"><title>Node13&#45;&gt;Node14</title>
<path fill="none" stroke="midnightblue" d="M142.207,-140.853C121.652,-130.576 96.5503,-118.025 77.653,-108.577"/>
<polygon fill="midnightblue" stroke="midnightblue" points="140.782,-144.054 151.292,-145.396 143.913,-137.793 140.782,-144.054"/>
</g>
<!-- Node15 -->
<g id="node15" class="node"><title>Node15</title>
<g id="a_node15"><a xlink:href="../../d4/dba/inventory__visitor_8h.html" target="_top" xlink:title="src/operational/src\l/visitor/inventory_visitor.h">
<polygon fill="white" stroke="black" points="117.5,-78.5 117.5,-108.5 241.5,-108.5 241.5,-78.5 117.5,-78.5"/>
<text text-anchor="start" x="125.5" y="-96.5" font-family="Helvetica,sans-Serif" font-size="10.00">src/operational/src</text>
<text text-anchor="middle" x="179.5" y="-85.5" font-family="Helvetica,sans-Serif" font-size="10.00">/visitor/inventory_visitor.h</text>
</a>
</g>
</g>
<!-- Node13&#45;&gt;Node15 -->
<g id="edge17" class="edge"><title>Node13&#45;&gt;Node15</title>
<path fill="none" stroke="midnightblue" d="M179.5,-135.108C179.5,-126.154 179.5,-116.323 179.5,-108.577"/>
<polygon fill="midnightblue" stroke="midnightblue" points="176,-135.396 179.5,-145.396 183,-135.396 176,-135.396"/>
</g>
<!-- Node15&#45;&gt;Node6 -->
<g id="edge19" class="edge"><title>Node15&#45;&gt;Node6</title>
<path fill="none" stroke="midnightblue" d="M251.678,-78.7063C252.962,-78.4684 254.237,-78.2328 255.5,-78 347.27,-61.0889 454.251,-42.2564 516.957,-31.3074"/>
<polygon fill="midnightblue" stroke="midnightblue" points="250.891,-75.2928 241.702,-80.5666 252.174,-82.1741 250.891,-75.2928"/>
</g>
<!-- Node16 -->
<g id="node16" class="node"><title>Node16</title>
<g id="a_node16"><a xlink:href="../../d3/d75/inventory__visitor_8cc.html" target="_top" xlink:title="src/operational/src\l/visitor/inventory_visitor.cc">
<polygon fill="white" stroke="black" points="115,-6 115,-36 244,-36 244,-6 115,-6"/>
<text text-anchor="start" x="123" y="-24" font-family="Helvetica,sans-Serif" font-size="10.00">src/operational/src</text>
<text text-anchor="middle" x="179.5" y="-13" font-family="Helvetica,sans-Serif" font-size="10.00">/visitor/inventory_visitor.cc</text>
</a>
</g>
</g>
<!-- Node15&#45;&gt;Node16 -->
<g id="edge18" class="edge"><title>Node15&#45;&gt;Node16</title>
<path fill="none" stroke="midnightblue" d="M179.5,-68.2317C179.5,-57.5679 179.5,-45.4145 179.5,-36.2455"/>
<polygon fill="midnightblue" stroke="midnightblue" points="176,-68.2332 179.5,-78.2333 183,-68.2333 176,-68.2332"/>
</g>
<!-- Node17&#45;&gt;Node6 -->
<g id="edge23" class="edge"><title>Node17&#45;&gt;Node6</title>
<path fill="none" stroke="midnightblue" d="M865.529,-212.33C878.378,-203.115 891.486,-190.863 898.5,-176 917.511,-135.716 910.878,-107.497 877.5,-78 840.658,-45.4421 701.74,-30.9014 624.006,-25.1956"/>
<polygon fill="midnightblue" stroke="midnightblue" points="863.531,-209.456 857.189,-217.943 867.439,-215.263 863.531,-209.456"/>
</g>
<!-- Node18 -->
<g id="node18" class="node"><title>Node18</title>
<g id="a_node18"><a xlink:href="../../d8/d23/pricing__visitor_8cc.html" target="_top" xlink:title="src/operational/src\l/visitor/pricing_visitor.cc">
<polygon fill="white" stroke="black" points="771,-145.5 771,-175.5 890,-175.5 890,-145.5 771,-145.5"/>
<text text-anchor="start" x="779" y="-163.5" font-family="Helvetica,sans-Serif" font-size="10.00">src/operational/src</text>
<text text-anchor="middle" x="830.5" y="-152.5" font-family="Helvetica,sans-Serif" font-size="10.00">/visitor/pricing_visitor.cc</text>
</a>
</g>
</g>
<!-- Node17&#45;&gt;Node18 -->
<g id="edge22" class="edge"><title>Node17&#45;&gt;Node18</title>
<path fill="none" stroke="midnightblue" d="M830.5,-207.732C830.5,-197.068 830.5,-184.914 830.5,-175.746"/>
<polygon fill="midnightblue" stroke="midnightblue" points="827,-207.733 830.5,-217.733 834,-207.733 827,-207.733"/>
</g>
</g>
</svg>
        <g id="navigator" transform="translate(0 0)" fill="#404254">
                <rect fill="#f2f5e9" fill-opacity="0.5" stroke="#606060" stroke-width=".5" x="0" y="0" width="60" height="60"/>
                <use id="zoomplus" xlink:href="#zoomPlus" x="17" y="9" onmousedown="handleZoom(evt,'in')"/>
                <use id="zoomminus" xlink:href="#zoomMin" x="42" y="9" onmousedown="handleZoom(evt,'out')"/>
                <use id="reset" xlink:href="#resetDef" x="30" y="36" onmousedown="handleReset()"/>
                <g id="arrowUp" xlink:href="#dirArrow" transform="translate(30 24)" onmousedown="handlePan(0,-1)">
                  <use xlink:href="#rim" fill="#404040">
                        <set attributeName="fill" to="#808080" begin="arrowUp.mouseover" end="arrowUp.mouseout"/>
                  </use>
                  <path fill="none" stroke="white" stroke-width="1.5" d="M0,-3.0v7 M-2.5,-0.5L0,-3.0L2.5,-0.5"/>
                </g>
                <g id="arrowRight" xlink:href="#dirArrow" transform="rotate(90) translate(36 -43)" onmousedown="handlePan(1,0)">
                  <use xlink:href="#rim" fill="#404040">
                        <set attributeName="fill" to="#808080" begin="arrowRight.mouseover" end="arrowRight.mouseout"/>
                  </use>
                  <path fill="none" stroke="white" stroke-width="1.5" d="M0,-3.0v7 M-2.5,-0.5L0,-3.0L2.5,-0.5"/>
                </g>
                <g id="arrowDown" xlink:href="#dirArrow" transform="rotate(180) translate(-30 -48)" onmousedown="handlePan(0,1)">
                  <use xlink:href="#rim" fill="#404040">
                        <set attributeName="fill" to="#808080" begin="arrowDown.mouseover" end="arrowDown.mouseout"/>
                  </use>
                  <path fill="none" stroke="white" stroke-width="1.5" d="M0,-3.0v7 M-2.5,-0.5L0,-3.0L2.5,-0.5"/>
                </g>
                <g id="arrowLeft" xlink:href="#dirArrow" transform="rotate(270) translate(-36 17)" onmousedown="handlePan(-1,0)">
                  <use xlink:href="#rim" fill="#404040">
                        <set attributeName="fill" to="#808080" begin="arrowLeft.mouseover" end="arrowLeft.mouseout"/>
                  </use>
                  <path fill="none" stroke="white" stroke-width="1.5" d="M0,-3.0v7 M-2.5,-0.5L0,-3.0L2.5,-0.5"/>
                </g>
        </g>
        <svg viewBox="0 0 15 15" width="100%" height="30px" preserveAspectRatio="xMaxYMin meet">
         <g id="arrow_out" transform="scale(0.3 0.3)">
          <a xlink:href="chassis__interface_8h__dep__incl_org.svg" target="_base">
           <rect id="button" ry="5" rx="5" y="6" x="6" height="38" width="38"
                fill="#f2f5e9" fill-opacity="0.5" stroke="#606060" stroke-width="1.0"/>
           <path id="arrow"
             d="M 11.500037,31.436501 C 11.940474,20.09759 22.043105,11.32322 32.158766,21.979434 L 37.068811,17.246167 C 37.068811,17.246167 37.088388,32 37.088388,32 L 22.160133,31.978069 C 22.160133,31.978069 26.997745,27.140456 26.997745,27.140456 C 18.528582,18.264221 13.291696,25.230495 11.500037,31.436501 z"
             style="fill:#404040;"/>
          </a>
         </g>
        </svg>
</svg>
