<?xml version="1.0" encoding="UTF-8" standalone="no"?>
<!DOCTYPE svg PUBLIC "-//W3C//DTD SVG 1.1//EN"
 "http://www.w3.org/Graphics/SVG/1.1/DTD/svg11.dtd">
<!-- Generated by graphviz version 2.38.0 (20140413.2041)
 -->
<!-- Title: src/operational/src/memento/constraint_solver_memento.h Pages: 1 -->
<svg width="307pt" height="229pt"
 viewBox="0.00 0.00 306.50 229.00" xmlns="http://www.w3.org/2000/svg" xmlns:xlink="http://www.w3.org/1999/xlink">
<g id="graph0" class="graph" transform="scale(1 1) rotate(0) translate(4 225)">
<title>src/operational/src/memento/constraint_solver_memento.h</title>
<polygon fill="white" stroke="none" points="-4,4 -4,-225 302.5,-225 302.5,4 -4,4"/>
<!-- Node1 -->
<g id="node1" class="node"><title>Node1</title>
<polygon fill="#bfbfbf" stroke="black" points="66.5,-179.5 66.5,-220.5 172.5,-220.5 172.5,-179.5 66.5,-179.5"/>
<text text-anchor="start" x="74.5" y="-208.5" font-family="Helvetica,sans-Serif" font-size="10.00">src/operational/src</text>
<text text-anchor="start" x="74.5" y="-197.5" font-family="Helvetica,sans-Serif" font-size="10.00">/memento/constraint</text>
<text text-anchor="middle" x="119.5" y="-186.5" font-family="Helvetica,sans-Serif" font-size="10.00">_solver_memento.h</text>
</g>
<!-- Node2 -->
<g id="node2" class="node"><title>Node2</title>
<g id="a_node2"><a xlink:href="../../dd/d36/graphic_8h.html" target="_top" xlink:title="graphic.h">
<polygon fill="white" stroke="black" points="27.5,-123.5 27.5,-142.5 83.5,-142.5 83.5,-123.5 27.5,-123.5"/>
<text text-anchor="middle" x="55.5" y="-130.5" font-family="Helvetica,sans-Serif" font-size="10.00">graphic.h</text>
</a>
</g>
</g>
<!-- Node1&#45;&gt;Node2 -->
<g id="edge1" class="edge"><title>Node1&#45;&gt;Node2</title>
<path fill="none" stroke="midnightblue" d="M100.298,-179.498C90.9572,-170.011 79.8748,-158.756 71.0698,-149.813"/>
<polygon fill="midnightblue" stroke="midnightblue" points="73.5294,-147.323 64.0194,-142.652 68.5415,-152.234 73.5294,-147.323"/>
</g>
<!-- Node5 -->
<g id="node5" class="node"><title>Node5</title>
<polygon fill="white" stroke="#bfbfbf" points="102,-123.5 102,-142.5 137,-142.5 137,-123.5 102,-123.5"/>
<text text-anchor="middle" x="119.5" y="-130.5" font-family="Helvetica,sans-Serif" font-size="10.00">map</text>
</g>
<!-- Node1&#45;&gt;Node5 -->
<g id="edge4" class="edge"><title>Node1&#45;&gt;Node5</title>
<path fill="none" stroke="midnightblue" d="M119.5,-179.498C119.5,-171.065 119.5,-161.235 119.5,-152.874"/>
<polygon fill="midnightblue" stroke="midnightblue" points="123,-152.652 119.5,-142.652 116,-152.653 123,-152.652"/>
</g>
<!-- Node6 -->
<g id="node6" class="node"><title>Node6</title>
<g id="a_node6"><a xlink:href="../../da/d23/list_8h.html" target="_top" xlink:title="../iterator/list.h">
<polygon fill="white" stroke="black" points="155.5,-123.5 155.5,-142.5 235.5,-142.5 235.5,-123.5 155.5,-123.5"/>
<text text-anchor="middle" x="195.5" y="-130.5" font-family="Helvetica,sans-Serif" font-size="10.00">../iterator/list.h</text>
</a>
</g>
</g>
<!-- Node1&#45;&gt;Node6 -->
<g id="edge5" class="edge"><title>Node1&#45;&gt;Node6</title>
<path fill="none" stroke="midnightblue" d="M142.303,-179.498C153.619,-169.82 167.087,-158.3 177.641,-149.274"/>
<polygon fill="midnightblue" stroke="midnightblue" points="180.058,-151.812 185.383,-142.652 175.509,-146.492 180.058,-151.812"/>
</g>
<!-- Node3 -->
<g id="node3" class="node"><title>Node3</title>
<g id="a_node3"><a xlink:href="../../d2/d91/point_8h.html" target="_top" xlink:title="../../../structural\l/src/commons/point.h">
<polygon fill="white" stroke="black" points="0,-56.5 0,-86.5 111,-86.5 111,-56.5 0,-56.5"/>
<text text-anchor="start" x="8" y="-74.5" font-family="Helvetica,sans-Serif" font-size="10.00">../../../structural</text>
<text text-anchor="middle" x="55.5" y="-63.5" font-family="Helvetica,sans-Serif" font-size="10.00">/src/commons/point.h</text>
</a>
</g>
</g>
<!-- Node2&#45;&gt;Node3 -->
<g id="edge2" class="edge"><title>Node2&#45;&gt;Node3</title>
<path fill="none" stroke="midnightblue" d="M55.5,-123.475C55.5,-116.471 55.5,-106.192 55.5,-96.6956"/>
<polygon fill="midnightblue" stroke="midnightblue" points="59.0001,-96.5229 55.5,-86.523 52.0001,-96.523 59.0001,-96.5229"/>
</g>
<!-- Node4 -->
<g id="node4" class="node"><title>Node4</title>
<polygon fill="white" stroke="#bfbfbf" points="28.5,-0.5 28.5,-19.5 82.5,-19.5 82.5,-0.5 28.5,-0.5"/>
<text text-anchor="middle" x="55.5" y="-7.5" font-family="Helvetica,sans-Serif" font-size="10.00">iostream</text>
</g>
<!-- Node3&#45;&gt;Node4 -->
<g id="edge3" class="edge"><title>Node3&#45;&gt;Node4</title>
<path fill="none" stroke="midnightblue" d="M55.5,-56.3993C55.5,-48.4664 55.5,-38.458 55.5,-29.8583"/>
<polygon fill="midnightblue" stroke="midnightblue" points="59.0001,-29.6577 55.5,-19.6578 52.0001,-29.6578 59.0001,-29.6577"/>
</g>
<!-- Node7 -->
<g id="node7" class="node"><title>Node7</title>
<g id="a_node7"><a xlink:href="../../d9/d71/list__iterator_8h.html" target="_top" xlink:title="list_iterator.h">
<polygon fill="white" stroke="black" points="157,-62 157,-81 230,-81 230,-62 157,-62"/>
<text text-anchor="middle" x="193.5" y="-69" font-family="Helvetica,sans-Serif" font-size="10.00">list_iterator.h</text>
</a>
</g>
</g>
<!-- Node6&#45;&gt;Node7 -->
<g id="edge6" class="edge"><title>Node6&#45;&gt;Node7</title>
<path fill="none" stroke="midnightblue" d="M195.213,-123.475C194.931,-115.08 194.491,-101.981 194.127,-91.1631"/>
<polygon fill="midnightblue" stroke="midnightblue" points="197.62,-90.8858 193.786,-81.0091 190.624,-91.1211 197.62,-90.8858"/>
</g>
<!-- Node9 -->
<g id="node9" class="node"><title>Node9</title>
<g id="a_node9"><a xlink:href="../../dd/d8c/list__interface_8h.html" target="_top" xlink:title="list_interface.h">
<polygon fill="white" stroke="black" points="218.5,-0.5 218.5,-19.5 298.5,-19.5 298.5,-0.5 218.5,-0.5"/>
<text text-anchor="middle" x="258.5" y="-7.5" font-family="Helvetica,sans-Serif" font-size="10.00">list_interface.h</text>
</a>
</g>
</g>
<!-- Node6&#45;&gt;Node9 -->
<g id="edge9" class="edge"><title>Node6&#45;&gt;Node9</title>
<path fill="none" stroke="midnightblue" d="M206.291,-123.5C216.103,-115.204 230.271,-101.712 238.5,-87 248.469,-69.1779 253.618,-46.2169 256.175,-30.2179"/>
<polygon fill="midnightblue" stroke="midnightblue" points="259.689,-30.3607 257.61,-19.9717 252.756,-29.3892 259.689,-30.3607"/>
</g>
<!-- Node8 -->
<g id="node8" class="node"><title>Node8</title>
<g id="a_node8"><a xlink:href="../../d6/da4/iterator__interface_8h.html" target="_top" xlink:title="iterator_interface.h">
<polygon fill="white" stroke="black" points="103,-0.5 103,-19.5 200,-19.5 200,-0.5 103,-0.5"/>
<text text-anchor="middle" x="151.5" y="-7.5" font-family="Helvetica,sans-Serif" font-size="10.00">iterator_interface.h</text>
</a>
</g>
</g>
<!-- Node7&#45;&gt;Node8 -->
<g id="edge7" class="edge"><title>Node7&#45;&gt;Node8</title>
<path fill="none" stroke="midnightblue" d="M187.482,-61.9751C181.245,-53.1384 171.327,-39.0886 163.482,-27.975"/>
<polygon fill="midnightblue" stroke="midnightblue" points="166.133,-25.6604 157.506,-19.5091 160.414,-29.6972 166.133,-25.6604"/>
</g>
<!-- Node7&#45;&gt;Node9 -->
<g id="edge8" class="edge"><title>Node7&#45;&gt;Node9</title>
<path fill="none" stroke="midnightblue" d="M202.813,-61.9751C212.949,-52.6966 229.364,-37.6706 241.752,-26.331"/>
<polygon fill="midnightblue" stroke="midnightblue" points="244.191,-28.8429 249.204,-19.5091 239.465,-23.6795 244.191,-28.8429"/>
</g>
</g>
</svg>
