<?xml version="1.0" encoding="UTF-8" standalone="no"?>
<!DOCTYPE svg PUBLIC "-//W3C//DTD SVG 1.1//EN"
 "http://www.w3.org/Graphics/SVG/1.1/DTD/svg11.dtd">
<!-- Generated by graphviz version 2.38.0 (20140413.2041)
 -->
<!-- Title: src/operational/src/interpreter/variable_exp.cc Pages: 1 -->
<svg width="204pt" height="341pt"
 viewBox="0.00 0.00 204.00 341.00" xmlns="http://www.w3.org/2000/svg" xmlns:xlink="http://www.w3.org/1999/xlink">
<g id="graph0" class="graph" transform="scale(1 1) rotate(0) translate(4 337)">
<title>src/operational/src/interpreter/variable_exp.cc</title>
<polygon fill="white" stroke="none" points="-4,4 -4,-337 200,-337 200,4 -4,4"/>
<!-- Node1 -->
<g id="node1" class="node"><title>Node1</title>
<polygon fill="#bfbfbf" stroke="black" points="56,-291.5 56,-332.5 154,-332.5 154,-291.5 56,-291.5"/>
<text text-anchor="start" x="64" y="-320.5" font-family="Helvetica,sans-Serif" font-size="10.00">src/operational/src</text>
<text text-anchor="start" x="64" y="-309.5" font-family="Helvetica,sans-Serif" font-size="10.00">/interpreter/variable</text>
<text text-anchor="middle" x="105" y="-298.5" font-family="Helvetica,sans-Serif" font-size="10.00">_exp.cc</text>
</g>
<!-- Node2 -->
<g id="node2" class="node"><title>Node2</title>
<g id="a_node2"><a xlink:href="../../de/d5a/variable__exp_8h.html" target="_top" xlink:title="variable_exp.h">
<polygon fill="white" stroke="black" points="66,-235.5 66,-254.5 144,-254.5 144,-235.5 66,-235.5"/>
<text text-anchor="middle" x="105" y="-242.5" font-family="Helvetica,sans-Serif" font-size="10.00">variable_exp.h</text>
</a>
</g>
</g>
<!-- Node1&#45;&gt;Node2 -->
<g id="edge1" class="edge"><title>Node1&#45;&gt;Node2</title>
<path fill="none" stroke="midnightblue" d="M105,-291.498C105,-283.065 105,-273.235 105,-264.874"/>
<polygon fill="midnightblue" stroke="midnightblue" points="108.5,-264.652 105,-254.652 101.5,-264.653 108.5,-264.652"/>
</g>
<!-- Node3 -->
<g id="node3" class="node"><title>Node3</title>
<g id="a_node3"><a xlink:href="../../df/de3/boolean__exp__interface_8h.html" target="_top" xlink:title="boolean_exp_interface.h">
<polygon fill="white" stroke="black" points="0,-179.5 0,-198.5 122,-198.5 122,-179.5 0,-179.5"/>
<text text-anchor="middle" x="61" y="-186.5" font-family="Helvetica,sans-Serif" font-size="10.00">boolean_exp_interface.h</text>
</a>
</g>
</g>
<!-- Node2&#45;&gt;Node3 -->
<g id="edge2" class="edge"><title>Node2&#45;&gt;Node3</title>
<path fill="none" stroke="midnightblue" d="M97.7343,-235.083C91.4552,-227.377 82.2124,-216.033 74.5692,-206.653"/>
<polygon fill="midnightblue" stroke="midnightblue" points="77.1606,-204.293 68.1305,-198.751 71.7339,-208.714 77.1606,-204.293"/>
</g>
<!-- Node5 -->
<g id="node5" class="node"><title>Node5</title>
<g id="a_node5"><a xlink:href="../../d9/df8/variable__exp__interface_8h.html" target="_top" xlink:title="variable_exp_interface.h">
<polygon fill="white" stroke="black" points="76,-56.5 76,-75.5 196,-75.5 196,-56.5 76,-56.5"/>
<text text-anchor="middle" x="136" y="-63.5" font-family="Helvetica,sans-Serif" font-size="10.00">variable_exp_interface.h</text>
</a>
</g>
</g>
<!-- Node2&#45;&gt;Node5 -->
<g id="edge8" class="edge"><title>Node2&#45;&gt;Node5</title>
<path fill="none" stroke="midnightblue" d="M111.776,-235.287C118.07,-226.628 127.048,-212.697 131,-199 142.246,-160.02 140.337,-111.879 138.084,-85.8521"/>
<polygon fill="midnightblue" stroke="midnightblue" points="141.534,-85.1712 137.07,-75.5624 134.567,-85.8574 141.534,-85.1712"/>
</g>
<!-- Node4 -->
<g id="node4" class="node"><title>Node4</title>
<g id="a_node4"><a xlink:href="../../d2/d69/interpreter__context__interface_8h.html" target="_top" xlink:title="interpreter_context\l_interface.h">
<polygon fill="white" stroke="black" points="24,-112.5 24,-142.5 122,-142.5 122,-112.5 24,-112.5"/>
<text text-anchor="start" x="32" y="-130.5" font-family="Helvetica,sans-Serif" font-size="10.00">interpreter_context</text>
<text text-anchor="middle" x="73" y="-119.5" font-family="Helvetica,sans-Serif" font-size="10.00">_interface.h</text>
</a>
</g>
</g>
<!-- Node3&#45;&gt;Node4 -->
<g id="edge3" class="edge"><title>Node3&#45;&gt;Node4</title>
<path fill="none" stroke="midnightblue" d="M62.7193,-179.475C64.1471,-172.396 66.2497,-161.97 68.1819,-152.39"/>
<polygon fill="midnightblue" stroke="midnightblue" points="71.6257,-153.018 70.1718,-142.523 64.7638,-151.634 71.6257,-153.018"/>
</g>
<!-- Node6 -->
<g id="node6" class="node"><title>Node6</title>
<polygon fill="white" stroke="#bfbfbf" points="27.5,-0.5 27.5,-19.5 68.5,-19.5 68.5,-0.5 27.5,-0.5"/>
<text text-anchor="middle" x="48" y="-7.5" font-family="Helvetica,sans-Serif" font-size="10.00">string</text>
</g>
<!-- Node3&#45;&gt;Node6 -->
<g id="edge7" class="edge"><title>Node3&#45;&gt;Node6</title>
<path fill="none" stroke="midnightblue" d="M47.2135,-179.189C36.174,-171.241 21.498,-158.447 15,-143 -1.56868,-103.613 21.7542,-53.9819 36.8661,-28.2492"/>
<polygon fill="midnightblue" stroke="midnightblue" points="39.9091,-29.9821 42.1556,-19.6282 33.9426,-26.3214 39.9091,-29.9821"/>
</g>
<!-- Node4&#45;&gt;Node5 -->
<g id="edge4" class="edge"><title>Node4&#45;&gt;Node5</title>
<path fill="none" stroke="midnightblue" d="M87.9301,-112.399C97.3679,-103.486 109.58,-91.9523 119.333,-82.7408"/>
<polygon fill="midnightblue" stroke="midnightblue" points="121.966,-85.0686 126.833,-75.6578 117.16,-79.9795 121.966,-85.0686"/>
</g>
<!-- Node4&#45;&gt;Node6 -->
<g id="edge6" class="edge"><title>Node4&#45;&gt;Node6</title>
<path fill="none" stroke="midnightblue" d="M69.9345,-112.337C65.4301,-91.5271 57.018,-52.6632 52.0224,-29.5834"/>
<polygon fill="midnightblue" stroke="midnightblue" points="55.4129,-28.7027 49.8765,-19.6695 48.5713,-30.1836 55.4129,-28.7027"/>
</g>
<!-- Node5&#45;&gt;Node6 -->
<g id="edge5" class="edge"><title>Node5&#45;&gt;Node6</title>
<path fill="none" stroke="midnightblue" d="M121.861,-56.324C108.134,-47.9002 87.0637,-34.9709 70.9357,-25.0741"/>
<polygon fill="midnightblue" stroke="midnightblue" points="72.4574,-21.9016 62.1036,-19.6545 68.7963,-27.8678 72.4574,-21.9016"/>
</g>
</g>
</svg>
