<?xml version="1.0" encoding="UTF-8" standalone="no"?>
<!DOCTYPE svg PUBLIC "-//W3C//DTD SVG 1.1//EN"
 "http://www.w3.org/Graphics/SVG/1.1/DTD/svg11.dtd">
<!-- Generated by graphviz version 2.38.0 (20140413.2041)
 -->
<!-- Title: creational::abstractfactory::MazeFactory::Instance Pages: 1 -->
<svg width="316pt" height="39pt"
 viewBox="0.00 0.00 316.00 39.00" xmlns="http://www.w3.org/2000/svg" xmlns:xlink="http://www.w3.org/1999/xlink">
<g id="graph0" class="graph" transform="scale(1 1) rotate(0) translate(4 35)">
<title>creational::abstractfactory::MazeFactory::Instance</title>
<polygon fill="white" stroke="none" points="-4,4 -4,-35 312,-35 312,4 -4,4"/>
<!-- Node1 -->
<g id="node1" class="node"><title>Node1</title>
<polygon fill="#bfbfbf" stroke="black" points="0,-0.5 0,-30.5 129,-30.5 129,-0.5 0,-0.5"/>
<text text-anchor="start" x="8" y="-18.5" font-family="Helvetica,sans-Serif" font-size="10.00">creational::abstractfactory</text>
<text text-anchor="middle" x="64.5" y="-7.5" font-family="Helvetica,sans-Serif" font-size="10.00">::MazeFactory::Instance</text>
</g>
<!-- Node2 -->
<g id="node2" class="node"><title>Node2</title>
<g id="a_node2"><a xlink:href="../../d6/d04/classcreational_1_1abstractfactory_1_1_maze_factory.html#ac45d6edecc22af23b91994ab09d64c09" target="_top" xlink:title="creational::abstractfactory\l::MazeFactory::MazeFactory">
<polygon fill="white" stroke="black" points="165,-0.5 165,-30.5 308,-30.5 308,-0.5 165,-0.5"/>
<text text-anchor="start" x="173" y="-18.5" font-family="Helvetica,sans-Serif" font-size="10.00">creational::abstractfactory</text>
<text text-anchor="middle" x="236.5" y="-7.5" font-family="Helvetica,sans-Serif" font-size="10.00">::MazeFactory::MazeFactory</text>
</a>
</g>
</g>
<!-- Node1&#45;&gt;Node2 -->
<g id="edge1" class="edge"><title>Node1&#45;&gt;Node2</title>
<path fill="none" stroke="midnightblue" d="M129.285,-15.5C137.615,-15.5 146.234,-15.5 154.795,-15.5"/>
<polygon fill="midnightblue" stroke="midnightblue" points="154.798,-19.0001 164.798,-15.5 154.798,-12.0001 154.798,-19.0001"/>
</g>
</g>
</svg>
