<?xml version="1.0" encoding="UTF-8" standalone="no"?>
<!DOCTYPE svg PUBLIC "-//W3C//DTD SVG 1.1//EN"
 "http://www.w3.org/Graphics/SVG/1.1/DTD/svg11.dtd">
<!-- Generated by graphviz version 2.38.0 (20140413.2041)
 -->
<!-- Title: creational::abstractfactory::MazeFactory::MazeFactory Pages: 1 -->
<svg width="462pt" height="39pt"
 viewBox="0.00 0.00 462.00 39.00" xmlns="http://www.w3.org/2000/svg" xmlns:xlink="http://www.w3.org/1999/xlink">
<g id="graph0" class="graph" transform="scale(1 1) rotate(0) translate(4 35)">
<title>creational::abstractfactory::MazeFactory::MazeFactory</title>
<polygon fill="white" stroke="none" points="-4,4 -4,-35 458,-35 458,4 -4,4"/>
<!-- Node1 -->
<g id="node1" class="node"><title>Node1</title>
<polygon fill="#bfbfbf" stroke="black" points="0,-0.5 0,-30.5 143,-30.5 143,-0.5 0,-0.5"/>
<text text-anchor="start" x="8" y="-18.5" font-family="Helvetica,sans-Serif" font-size="10.00">creational::abstractfactory</text>
<text text-anchor="middle" x="71.5" y="-7.5" font-family="Helvetica,sans-Serif" font-size="10.00">::MazeFactory::MazeFactory</text>
</g>
<!-- Node2 -->
<g id="node2" class="node"><title>Node2</title>
<g id="a_node2"><a xlink:href="../../d6/d04/classcreational_1_1abstractfactory_1_1_maze_factory.html#abc22d6ea5cb254544897807f040bf850" target="_top" xlink:title="creational::abstractfactory\l::MazeFactory::Instance">
<polygon fill="white" stroke="black" points="179,-0.5 179,-30.5 308,-30.5 308,-0.5 179,-0.5"/>
<text text-anchor="start" x="187" y="-18.5" font-family="Helvetica,sans-Serif" font-size="10.00">creational::abstractfactory</text>
<text text-anchor="middle" x="243.5" y="-7.5" font-family="Helvetica,sans-Serif" font-size="10.00">::MazeFactory::Instance</text>
</a>
</g>
</g>
<!-- Node1&#45;&gt;Node2 -->
<g id="edge1" class="edge"><title>Node1&#45;&gt;Node2</title>
<path fill="none" stroke="midnightblue" d="M153.195,-15.5C161.819,-15.5 170.503,-15.5 178.89,-15.5"/>
<polygon fill="midnightblue" stroke="midnightblue" points="153.118,-12.0001 143.118,-15.5 153.118,-19.0001 153.118,-12.0001"/>
</g>
<!-- Node3 -->
<g id="node3" class="node"><title>Node3</title>
<g id="a_node3"><a xlink:href="../../d7/de2/namespacecreationaltests.html#ae322eeb6f31ebc7a4ab98a701a17d4ee" target="_top" xlink:title="creationaltests::TEST\l_CLASS">
<polygon fill="white" stroke="black" points="344,-0.5 344,-30.5 454,-30.5 454,-0.5 344,-0.5"/>
<text text-anchor="start" x="352" y="-18.5" font-family="Helvetica,sans-Serif" font-size="10.00">creationaltests::TEST</text>
<text text-anchor="middle" x="399" y="-7.5" font-family="Helvetica,sans-Serif" font-size="10.00">_CLASS</text>
</a>
</g>
</g>
<!-- Node2&#45;&gt;Node3 -->
<g id="edge2" class="edge"><title>Node2&#45;&gt;Node3</title>
<path fill="none" stroke="midnightblue" d="M318.347,-15.5C326.978,-15.5 335.658,-15.5 343.949,-15.5"/>
<polygon fill="midnightblue" stroke="midnightblue" points="318.264,-12.0001 308.264,-15.5 318.264,-19.0001 318.264,-12.0001"/>
</g>
</g>
</svg>
