<?xml version="1.0" encoding="UTF-8" standalone="no"?>
<!DOCTYPE svg PUBLIC "-//W3C//DTD SVG 1.1//EN"
 "http://www.w3.org/Graphics/SVG/1.1/DTD/svg11.dtd">
<!-- Generated by graphviz version 2.38.0 (20140413.2041)
 -->
<!-- Title: creational::abstractfactory::MazeFactoryInterface Pages: 1 -->
<svg width="580pt" height="292pt"
 viewBox="0.00 0.00 580.00 292.00" xmlns="http://www.w3.org/2000/svg" xmlns:xlink="http://www.w3.org/1999/xlink">
<g id="graph0" class="graph" transform="scale(1 1) rotate(0) translate(4 288)">
<title>creational::abstractfactory::MazeFactoryInterface</title>
<polygon fill="white" stroke="none" points="-4,4 -4,-288 576,-288 576,4 -4,4"/>
<!-- Node1 -->
<g id="node1" class="node"><title>Node1</title>
<polygon fill="#bfbfbf" stroke="black" points="219,-171.5 219,-283.5 350,-283.5 350,-171.5 219,-171.5"/>
<text text-anchor="start" x="227" y="-271.5" font-family="Helvetica,sans-Serif" font-size="10.00">creational::abstractfactory</text>
<text text-anchor="middle" x="284.5" y="-260.5" font-family="Helvetica,sans-Serif" font-size="10.00">::MazeFactoryInterface</text>
<polyline fill="none" stroke="black" points="219,-253.5 350,-253.5 "/>
<text text-anchor="middle" x="284.5" y="-241.5" font-family="Helvetica,sans-Serif" font-size="10.00"> </text>
<polyline fill="none" stroke="black" points="219,-234.5 350,-234.5 "/>
<text text-anchor="start" x="227" y="-222.5" font-family="Helvetica,sans-Serif" font-size="10.00">+ ~MazeFactoryInterface()</text>
<text text-anchor="start" x="227" y="-211.5" font-family="Helvetica,sans-Serif" font-size="10.00">+ MakeMaze()</text>
<text text-anchor="start" x="227" y="-200.5" font-family="Helvetica,sans-Serif" font-size="10.00">+ MakeWall()</text>
<text text-anchor="start" x="227" y="-189.5" font-family="Helvetica,sans-Serif" font-size="10.00">+ MakeRoom()</text>
<text text-anchor="start" x="227" y="-178.5" font-family="Helvetica,sans-Serif" font-size="10.00">+ MakeDoor()</text>
</g>
<!-- Node2 -->
<g id="node2" class="node"><title>Node2</title>
<g id="a_node2"><a xlink:href="../../d0/d3b/classcreational_1_1abstractfactory_1_1_bombed_maze_factory.html" target="_top" xlink:title="{creational::abstractfactory\l::BombedMazeFactory\n||+ MakeMaze()\l+ MakeWall()\l+ MakeRoom()\l+ MakeDoor()\l}">
<polygon fill="white" stroke="black" points="0,-17 0,-118 129,-118 129,-17 0,-17"/>
<text text-anchor="start" x="8" y="-106" font-family="Helvetica,sans-Serif" font-size="10.00">creational::abstractfactory</text>
<text text-anchor="middle" x="64.5" y="-95" font-family="Helvetica,sans-Serif" font-size="10.00">::BombedMazeFactory</text>
<polyline fill="none" stroke="black" points="0,-88 129,-88 "/>
<text text-anchor="middle" x="64.5" y="-76" font-family="Helvetica,sans-Serif" font-size="10.00"> </text>
<polyline fill="none" stroke="black" points="0,-69 129,-69 "/>
<text text-anchor="start" x="8" y="-57" font-family="Helvetica,sans-Serif" font-size="10.00">+ MakeMaze()</text>
<text text-anchor="start" x="8" y="-46" font-family="Helvetica,sans-Serif" font-size="10.00">+ MakeWall()</text>
<text text-anchor="start" x="8" y="-35" font-family="Helvetica,sans-Serif" font-size="10.00">+ MakeRoom()</text>
<text text-anchor="start" x="8" y="-24" font-family="Helvetica,sans-Serif" font-size="10.00">+ MakeDoor()</text>
</a>
</g>
</g>
<!-- Node1&#45;&gt;Node2 -->
<g id="edge1" class="edge"><title>Node1&#45;&gt;Node2</title>
<path fill="none" stroke="midnightblue" d="M210.115,-183.829C186.305,-169.223 160.237,-152.206 137.5,-135 130.665,-129.827 123.715,-124.139 116.955,-118.333"/>
<polygon fill="none" stroke="midnightblue" points="208.412,-186.89 218.775,-189.097 212.051,-180.909 208.412,-186.89"/>
</g>
<!-- Node3 -->
<g id="node3" class="node"><title>Node3</title>
<g id="a_node3"><a xlink:href="../../d5/d32/classcreational_1_1abstractfactory_1_1_enchanted_maze_factory.html" target="_top" xlink:title="{creational::abstractfactory\l::EnchantedMazeFactory\n||+ MakeMaze()\l+ MakeWall()\l+ MakeRoom()\l+ MakeDoor()\l# CastSpell()\l}">
<polygon fill="white" stroke="black" points="147,-11.5 147,-123.5 276,-123.5 276,-11.5 147,-11.5"/>
<text text-anchor="start" x="155" y="-111.5" font-family="Helvetica,sans-Serif" font-size="10.00">creational::abstractfactory</text>
<text text-anchor="middle" x="211.5" y="-100.5" font-family="Helvetica,sans-Serif" font-size="10.00">::EnchantedMazeFactory</text>
<polyline fill="none" stroke="black" points="147,-93.5 276,-93.5 "/>
<text text-anchor="middle" x="211.5" y="-81.5" font-family="Helvetica,sans-Serif" font-size="10.00"> </text>
<polyline fill="none" stroke="black" points="147,-74.5 276,-74.5 "/>
<text text-anchor="start" x="155" y="-62.5" font-family="Helvetica,sans-Serif" font-size="10.00">+ MakeMaze()</text>
<text text-anchor="start" x="155" y="-51.5" font-family="Helvetica,sans-Serif" font-size="10.00">+ MakeWall()</text>
<text text-anchor="start" x="155" y="-40.5" font-family="Helvetica,sans-Serif" font-size="10.00">+ MakeRoom()</text>
<text text-anchor="start" x="155" y="-29.5" font-family="Helvetica,sans-Serif" font-size="10.00">+ MakeDoor()</text>
<text text-anchor="start" x="155" y="-18.5" font-family="Helvetica,sans-Serif" font-size="10.00"># CastSpell()</text>
</a>
</g>
</g>
<!-- Node1&#45;&gt;Node3 -->
<g id="edge2" class="edge"><title>Node1&#45;&gt;Node3</title>
<path fill="none" stroke="midnightblue" d="M254.739,-162.087C248.861,-149.363 242.74,-136.116 237.017,-123.73"/>
<polygon fill="none" stroke="midnightblue" points="251.597,-163.629 258.968,-171.239 257.951,-160.693 251.597,-163.629"/>
</g>
<!-- Node4 -->
<g id="node4" class="node"><title>Node4</title>
<g id="a_node4"><a xlink:href="../../d6/d04/classcreational_1_1abstractfactory_1_1_maze_factory.html" target="_top" xlink:title="{creational::abstractfactory\l::MazeFactory\n||+ ~MazeFactory()\l+ MakeMaze()\l+ MakeWall()\l+ MakeRoom()\l+ MakeDoor()\l+ Instance()\l# MazeFactory()\l}">
<polygon fill="white" stroke="black" points="294,-0.5 294,-134.5 423,-134.5 423,-0.5 294,-0.5"/>
<text text-anchor="start" x="302" y="-122.5" font-family="Helvetica,sans-Serif" font-size="10.00">creational::abstractfactory</text>
<text text-anchor="middle" x="358.5" y="-111.5" font-family="Helvetica,sans-Serif" font-size="10.00">::MazeFactory</text>
<polyline fill="none" stroke="black" points="294,-104.5 423,-104.5 "/>
<text text-anchor="middle" x="358.5" y="-92.5" font-family="Helvetica,sans-Serif" font-size="10.00"> </text>
<polyline fill="none" stroke="black" points="294,-85.5 423,-85.5 "/>
<text text-anchor="start" x="302" y="-73.5" font-family="Helvetica,sans-Serif" font-size="10.00">+ ~MazeFactory()</text>
<text text-anchor="start" x="302" y="-62.5" font-family="Helvetica,sans-Serif" font-size="10.00">+ MakeMaze()</text>
<text text-anchor="start" x="302" y="-51.5" font-family="Helvetica,sans-Serif" font-size="10.00">+ MakeWall()</text>
<text text-anchor="start" x="302" y="-40.5" font-family="Helvetica,sans-Serif" font-size="10.00">+ MakeRoom()</text>
<text text-anchor="start" x="302" y="-29.5" font-family="Helvetica,sans-Serif" font-size="10.00">+ MakeDoor()</text>
<text text-anchor="start" x="302" y="-18.5" font-family="Helvetica,sans-Serif" font-size="10.00">+ Instance()</text>
<text text-anchor="start" x="302" y="-7.5" font-family="Helvetica,sans-Serif" font-size="10.00"># MazeFactory()</text>
</a>
</g>
</g>
<!-- Node1&#45;&gt;Node4 -->
<g id="edge3" class="edge"><title>Node1&#45;&gt;Node4</title>
<path fill="none" stroke="midnightblue" d="M314.732,-161.95C318.959,-152.925 323.308,-143.64 327.548,-134.587"/>
<polygon fill="none" stroke="midnightblue" points="311.453,-160.699 310.382,-171.239 317.793,-163.668 311.453,-160.699"/>
</g>
<!-- Node5 -->
<g id="node5" class="node"><title>Node5</title>
<g id="a_node5"><a xlink:href="../../d9/d21/classcreational_1_1prototype_1_1_maze_prototype_factory.html" target="_top" xlink:title="{creational::prototype\l::MazePrototypeFactory\n||+ MazePrototypeFactory()\l+ MakeMaze()\l+ MakeRoom()\l+ MakeWall()\l+ MakeDoor()\l}">
<polygon fill="white" stroke="black" points="441,-11.5 441,-123.5 572,-123.5 572,-11.5 441,-11.5"/>
<text text-anchor="start" x="449" y="-111.5" font-family="Helvetica,sans-Serif" font-size="10.00">creational::prototype</text>
<text text-anchor="middle" x="506.5" y="-100.5" font-family="Helvetica,sans-Serif" font-size="10.00">::MazePrototypeFactory</text>
<polyline fill="none" stroke="black" points="441,-93.5 572,-93.5 "/>
<text text-anchor="middle" x="506.5" y="-81.5" font-family="Helvetica,sans-Serif" font-size="10.00"> </text>
<polyline fill="none" stroke="black" points="441,-74.5 572,-74.5 "/>
<text text-anchor="start" x="449" y="-62.5" font-family="Helvetica,sans-Serif" font-size="10.00">+ MazePrototypeFactory()</text>
<text text-anchor="start" x="449" y="-51.5" font-family="Helvetica,sans-Serif" font-size="10.00">+ MakeMaze()</text>
<text text-anchor="start" x="449" y="-40.5" font-family="Helvetica,sans-Serif" font-size="10.00">+ MakeRoom()</text>
<text text-anchor="start" x="449" y="-29.5" font-family="Helvetica,sans-Serif" font-size="10.00">+ MakeWall()</text>
<text text-anchor="start" x="449" y="-18.5" font-family="Helvetica,sans-Serif" font-size="10.00">+ MakeDoor()</text>
</a>
</g>
</g>
<!-- Node1&#45;&gt;Node5 -->
<g id="edge4" class="edge"><title>Node1&#45;&gt;Node5</title>
<path fill="none" stroke="midnightblue" d="M359.004,-184.001C383.064,-169.348 409.459,-152.259 432.5,-135 437.339,-131.376 442.237,-127.499 447.089,-123.508"/>
<polygon fill="none" stroke="midnightblue" points="357.006,-181.119 350.256,-189.286 360.625,-187.111 357.006,-181.119"/>
</g>
</g>
</svg>
