<?xml version="1.0" encoding="UTF-8" standalone="no"?>
<!DOCTYPE svg PUBLIC "-//W3C//DTD SVG 1.1//EN"
 "http://www.w3.org/Graphics/SVG/1.1/DTD/svg11.dtd">
<!-- Generated by graphviz version 2.38.0 (20140413.2041)
 -->
<!-- Title: src/operational/src/observer/analog_clock.h Pages: 1 -->
<svg width="266pt" height="117pt"
 viewBox="0.00 0.00 266.00 117.00" xmlns="http://www.w3.org/2000/svg" xmlns:xlink="http://www.w3.org/1999/xlink">
<g id="graph0" class="graph" transform="scale(1 1) rotate(0) translate(4 113)">
<title>src/operational/src/observer/analog_clock.h</title>
<polygon fill="white" stroke="none" points="-4,4 -4,-113 262,-113 262,4 -4,4"/>
<!-- Node1 -->
<g id="node1" class="node"><title>Node1</title>
<polygon fill="#bfbfbf" stroke="black" points="71.5,-78.5 71.5,-108.5 195.5,-108.5 195.5,-78.5 71.5,-78.5"/>
<text text-anchor="start" x="79.5" y="-96.5" font-family="Helvetica,sans-Serif" font-size="10.00">src/operational/src</text>
<text text-anchor="middle" x="133.5" y="-85.5" font-family="Helvetica,sans-Serif" font-size="10.00">/observer/analog_clock.h</text>
</g>
<!-- Node2 -->
<g id="node2" class="node"><title>Node2</title>
<g id="a_node2"><a xlink:href="../../dc/dcb/analog__clock_8cc.html" target="_top" xlink:title="src/operational/src\l/observer/analog_clock.cc">
<polygon fill="white" stroke="black" points="0,-6 0,-36 129,-36 129,-6 0,-6"/>
<text text-anchor="start" x="8" y="-24" font-family="Helvetica,sans-Serif" font-size="10.00">src/operational/src</text>
<text text-anchor="middle" x="64.5" y="-13" font-family="Helvetica,sans-Serif" font-size="10.00">/observer/analog_clock.cc</text>
</a>
</g>
</g>
<!-- Node1&#45;&gt;Node2 -->
<g id="edge1" class="edge"><title>Node1&#45;&gt;Node2</title>
<path fill="none" stroke="midnightblue" d="M112.324,-70.8641C101.314,-59.6142 88.1641,-46.1786 78.4424,-36.2455"/>
<polygon fill="midnightblue" stroke="midnightblue" points="110.041,-73.5347 119.537,-78.2333 115.044,-68.6384 110.041,-73.5347"/>
</g>
<!-- Node3 -->
<g id="node3" class="node"><title>Node3</title>
<g id="a_node3"><a xlink:href="../../d6/d34/observer__test_8cc.html" target="_top" xlink:title="src/operational_tests\l/src/observer/observer\l_test.cc">
<polygon fill="white" stroke="black" points="147,-0.5 147,-41.5 258,-41.5 258,-0.5 147,-0.5"/>
<text text-anchor="start" x="155" y="-29.5" font-family="Helvetica,sans-Serif" font-size="10.00">src/operational_tests</text>
<text text-anchor="start" x="155" y="-18.5" font-family="Helvetica,sans-Serif" font-size="10.00">/src/observer/observer</text>
<text text-anchor="middle" x="202.5" y="-7.5" font-family="Helvetica,sans-Serif" font-size="10.00">_test.cc</text>
</a>
</g>
</g>
<!-- Node1&#45;&gt;Node3 -->
<g id="edge2" class="edge"><title>Node1&#45;&gt;Node3</title>
<path fill="none" stroke="midnightblue" d="M154.717,-70.8213C163.846,-61.4941 174.439,-50.6707 183.328,-41.5884"/>
<polygon fill="midnightblue" stroke="midnightblue" points="151.956,-68.6384 147.463,-78.2333 156.959,-73.5347 151.956,-68.6384"/>
</g>
</g>
</svg>
